M48
;DRILL file {KiCad 4.0.2+e4-6225~38~ubuntu14.04.1-stable} date Thu 21 Jul 2016 15:41:12 BST
;FORMAT={-:-/ absolute / metric / decimal}
FMAT,2
METRIC,TZ
T1C0.400
T2C0.800
%
G90
G05
M71
T1
X81.805Y-98.095
X81.805Y-101.905
X81.815Y-94.285
X81.815Y-105.715
X81.825Y-96.825
X81.835Y-99.365
X81.835Y-100.635
X81.845Y-95.555
X81.845Y-104.445
X81.875Y-103.175
X85.Y-90.
X85.Y-110.
X88.145Y-95.555
X88.155Y-104.445
X88.165Y-99.365
X88.165Y-100.635
X88.175Y-96.825
X88.175Y-103.175
X88.185Y-94.285
X88.185Y-105.715
X88.195Y-98.095
X88.195Y-101.905
X89.485Y-101.285
X90.Y-90.
X90.Y-95.
X90.Y-100.
X90.Y-103.4
X90.Y-105.
X90.Y-110.
X90.Y-115.
X91.35Y-107.75
X94.Y-102.
X94.285Y-111.815
X94.285Y-118.185
X95.Y-90.
X95.Y-95.
X95.Y-100.
X95.Y-110.
X95.4Y-105.95
X95.555Y-111.845
X95.555Y-118.155
X96.825Y-111.825
X96.825Y-118.125
X97.3Y-100.
X98.095Y-111.805
X98.095Y-118.195
X99.365Y-111.865
X99.365Y-118.165
X100.Y-90.
X100.Y-110.
X100.635Y-111.835
X100.635Y-118.165
X101.4Y-100.
X101.905Y-111.805
X101.905Y-118.195
X102.5Y-100.
X103.175Y-111.825
X103.175Y-118.175
X104.4Y-105.4
X104.445Y-111.845
X104.445Y-118.155
X105.Y-90.
X105.Y-95.
X105.Y-110.
X105.715Y-111.815
X105.715Y-118.115
X110.Y-90.
X110.Y-95.
X110.Y-100.
X110.Y-105.
X110.Y-110.
X110.Y-115.
X111.805Y-98.095
X111.805Y-101.905
X111.815Y-94.285
X111.815Y-105.715
X111.825Y-96.825
X111.835Y-99.365
X111.845Y-95.555
X111.855Y-104.445
X111.865Y-100.635
X111.875Y-103.175
X115.Y-90.
X115.Y-110.
X118.135Y-100.635
X118.155Y-95.555
X118.155Y-104.445
X118.165Y-99.365
X118.175Y-96.825
X118.175Y-103.175
X118.185Y-94.285
X118.185Y-105.715
X118.195Y-98.095
X118.195Y-101.905
T2
X97.Y-95.5
X99.Y-95.5
X101.Y-95.5
X103.Y-95.5
T0
M30
