G04 #@! TF.FileFunction,Copper,L2,Bot,Signal*
%FSLAX46Y46*%
G04 Gerber Fmt 4.6, Leading zero omitted, Abs format (unit mm)*
G04 Created by KiCad (PCBNEW 4.0.2+e4-6225~38~ubuntu14.04.1-stable) date Wed 20 Jul 2016 03:53:55 BST*
%MOMM*%
G01*
G04 APERTURE LIST*
%ADD10C,0.100000*%
%ADD11R,2.220000X0.740000*%
%ADD12C,1.600000*%
%ADD13R,0.740000X2.220000*%
%ADD14C,0.700000*%
%ADD15C,0.600000*%
%ADD16C,0.200000*%
%ADD17C,0.740000*%
%ADD18C,0.400000*%
%ADD19C,0.450000*%
%ADD20C,0.300000*%
G04 APERTURE END LIST*
D10*
D11*
X83635000Y-94285000D03*
X86365000Y-94285000D03*
X83635000Y-95555000D03*
X86365000Y-95555000D03*
X83635000Y-96825000D03*
X86365000Y-96825000D03*
X83635000Y-98095000D03*
X86365000Y-98095000D03*
X83635000Y-99365000D03*
X86365000Y-99365000D03*
X83635000Y-100635000D03*
X86365000Y-100635000D03*
X83635000Y-101905000D03*
X86365000Y-101905000D03*
X83635000Y-103175000D03*
X86365000Y-103175000D03*
X83635000Y-104445000D03*
X86365000Y-104445000D03*
X83635000Y-105715000D03*
X86365000Y-105715000D03*
D12*
X103000000Y-95500000D03*
X101000000Y-95500000D03*
X99000000Y-95500000D03*
X97000000Y-95500000D03*
D11*
X113635000Y-94285000D03*
X116365000Y-94285000D03*
X113635000Y-95555000D03*
X116365000Y-95555000D03*
X113635000Y-96825000D03*
X116365000Y-96825000D03*
X113635000Y-98095000D03*
X116365000Y-98095000D03*
X113635000Y-99365000D03*
X116365000Y-99365000D03*
X113635000Y-100635000D03*
X116365000Y-100635000D03*
X113635000Y-101905000D03*
X116365000Y-101905000D03*
X113635000Y-103175000D03*
X116365000Y-103175000D03*
X113635000Y-104445000D03*
X116365000Y-104445000D03*
X113635000Y-105715000D03*
X116365000Y-105715000D03*
D13*
X94285000Y-116365000D03*
X94285000Y-113635000D03*
X95555000Y-116365000D03*
X95555000Y-113635000D03*
X96825000Y-116365000D03*
X96825000Y-113635000D03*
X98095000Y-116365000D03*
X98095000Y-113635000D03*
X99365000Y-116365000D03*
X99365000Y-113635000D03*
X100635000Y-116365000D03*
X100635000Y-113635000D03*
X101905000Y-116365000D03*
X101905000Y-113635000D03*
X103175000Y-116365000D03*
X103175000Y-113635000D03*
X104445000Y-116365000D03*
X104445000Y-113635000D03*
X105715000Y-116365000D03*
X105715000Y-113635000D03*
D14*
X89484990Y-101284990D03*
X81835000Y-100635000D03*
X118185000Y-105715000D03*
X118185000Y-94285000D03*
X111815000Y-94285000D03*
X111815000Y-105715000D03*
X94285000Y-118185000D03*
X105715000Y-118115000D03*
X105715000Y-111815000D03*
X94285000Y-111815000D03*
X81815000Y-105715000D03*
X88185000Y-105715000D03*
X88185000Y-94285000D03*
X81815000Y-94285000D03*
D15*
X100600000Y-106400000D03*
X95000000Y-106400000D03*
D14*
X104445000Y-111845000D03*
X103175000Y-111825000D03*
X81845000Y-95555000D03*
X88145000Y-95555000D03*
X81825000Y-96825000D03*
X88175000Y-96825000D03*
X81805000Y-98095000D03*
X88195000Y-98095000D03*
X81835000Y-99365000D03*
X88165000Y-99365000D03*
X88165000Y-100635000D03*
X81805000Y-101905000D03*
X88195000Y-101905000D03*
X81875000Y-103175000D03*
X88175000Y-103175000D03*
X81845000Y-104445000D03*
X88155000Y-104445000D03*
X118155000Y-95555000D03*
X111845000Y-95555000D03*
X118175000Y-96825000D03*
X111825000Y-96825000D03*
X111805000Y-98095000D03*
X118195000Y-98095000D03*
X111835000Y-99365000D03*
X118165000Y-99365000D03*
X111865000Y-100635000D03*
X118135000Y-100635000D03*
X111805000Y-101905000D03*
X118195000Y-101905000D03*
X111875000Y-103175000D03*
X118175000Y-103175000D03*
X118155000Y-104445000D03*
X111855000Y-104445000D03*
X95555000Y-118155000D03*
X95555000Y-111845000D03*
X96825000Y-118125000D03*
X96825000Y-111825000D03*
X98095000Y-118195000D03*
X98095000Y-111805000D03*
X99365000Y-118165000D03*
X99365000Y-111865000D03*
X100635000Y-118165000D03*
X100635000Y-111835000D03*
X101905000Y-118195000D03*
X101905000Y-111805000D03*
X103175000Y-118175000D03*
X104445000Y-118155000D03*
D16*
X88844990Y-101284990D02*
X89484990Y-101284990D01*
X85054999Y-101284999D02*
X86108175Y-101284999D01*
X86108175Y-101284999D02*
X86108184Y-101284990D01*
X86108184Y-101284990D02*
X88844990Y-101284990D01*
X83635000Y-100635000D02*
X84375000Y-100635000D01*
X84375000Y-100635000D02*
X85024999Y-101284999D01*
X85024999Y-101284999D02*
X85054999Y-101284999D01*
D17*
X83635000Y-100635000D02*
X81835000Y-100635000D01*
X116365000Y-94285000D02*
X118185000Y-94285000D01*
X113635000Y-94285000D02*
X116365000Y-94285000D01*
X111815000Y-94285000D02*
X113635000Y-94285000D01*
X111815000Y-105715000D02*
X113635000Y-105715000D01*
X116365000Y-105715000D02*
X113635000Y-105715000D01*
X118185000Y-105715000D02*
X116365000Y-105715000D01*
X94285000Y-116365000D02*
X94285000Y-118185000D01*
X105715000Y-116365000D02*
X105715000Y-118115000D01*
X105715000Y-113635000D02*
X105715000Y-116365000D01*
X105715000Y-113635000D02*
X105715000Y-111815000D01*
X94285000Y-113635000D02*
X94285000Y-111815000D01*
X94285000Y-116365000D02*
X94285000Y-113635000D01*
X83635000Y-105715000D02*
X86365000Y-105715000D01*
X83635000Y-105715000D02*
X81815000Y-105715000D01*
X86365000Y-105715000D02*
X88185000Y-105715000D01*
X88185000Y-94285000D02*
X86365000Y-94285000D01*
X83635000Y-94285000D02*
X81815000Y-94285000D01*
X83635000Y-94285000D02*
X86365000Y-94285000D01*
D18*
X100600000Y-106400000D02*
X100600000Y-97900000D01*
X100600000Y-97900000D02*
X101175000Y-97325000D01*
X100600000Y-106400000D02*
X95000000Y-106400000D01*
D19*
X101175000Y-97325000D02*
X103000000Y-95500000D01*
D17*
X104445000Y-113635000D02*
X104445000Y-111845000D01*
X103175000Y-113635000D02*
X103175000Y-111825000D01*
X81845000Y-95555000D02*
X83635000Y-95555000D01*
X86365000Y-95555000D02*
X88145000Y-95555000D01*
X81825000Y-96825000D02*
X83635000Y-96825000D01*
X86365000Y-96825000D02*
X88175000Y-96825000D01*
X83635000Y-98095000D02*
X81805000Y-98095000D01*
X86365000Y-98095000D02*
X88195000Y-98095000D01*
X83635000Y-99365000D02*
X81835000Y-99365000D01*
X86365000Y-99365000D02*
X88165000Y-99365000D01*
X86365000Y-100635000D02*
X88165000Y-100635000D01*
X83635000Y-101905000D02*
X81805000Y-101905000D01*
X86365000Y-101905000D02*
X88195000Y-101905000D01*
X83635000Y-103175000D02*
X81875000Y-103175000D01*
X86365000Y-103175000D02*
X88175000Y-103175000D01*
X83635000Y-104445000D02*
X81845000Y-104445000D01*
X86365000Y-104445000D02*
X88155000Y-104445000D01*
X113635000Y-95555000D02*
X111845000Y-95555000D01*
X116365000Y-95555000D02*
X113635000Y-95555000D01*
X118155000Y-95555000D02*
X116365000Y-95555000D01*
X113635000Y-96825000D02*
X116365000Y-96825000D01*
X111825000Y-96825000D02*
X113635000Y-96825000D01*
X118175000Y-96825000D02*
X116365000Y-96825000D01*
X113635000Y-98095000D02*
X111805000Y-98095000D01*
X116365000Y-98095000D02*
X118195000Y-98095000D01*
X111835000Y-99365000D02*
X113635000Y-99365000D01*
X116365000Y-99365000D02*
X118165000Y-99365000D01*
X113635000Y-100635000D02*
X111865000Y-100635000D01*
X118135000Y-100635000D02*
X116365000Y-100635000D01*
X111805000Y-101905000D02*
X113635000Y-101905000D01*
X116365000Y-101905000D02*
X118195000Y-101905000D01*
X113635000Y-103175000D02*
X111875000Y-103175000D01*
X118175000Y-103175000D02*
X116365000Y-103175000D01*
X118155000Y-104445000D02*
X116365000Y-104445000D01*
X113635000Y-104445000D02*
X116365000Y-104445000D01*
X111855000Y-104445000D02*
X113635000Y-104445000D01*
X95555000Y-116365000D02*
X95555000Y-118155000D01*
X95555000Y-113635000D02*
X95555000Y-111845000D01*
X96825000Y-116365000D02*
X96825000Y-118125000D01*
X96825000Y-113635000D02*
X96825000Y-111825000D01*
X98095000Y-116365000D02*
X98095000Y-118195000D01*
X98095000Y-113635000D02*
X98095000Y-111805000D01*
X99365000Y-116365000D02*
X99365000Y-118165000D01*
X99365000Y-113635000D02*
X99365000Y-111865000D01*
X100635000Y-118165000D02*
X100635000Y-116365000D01*
X100635000Y-113635000D02*
X100635000Y-111835000D01*
X101905000Y-118195000D02*
X101905000Y-116365000D01*
X101905000Y-113635000D02*
X101905000Y-111805000D01*
X103175000Y-116365000D02*
X103175000Y-118175000D01*
X104445000Y-116365000D02*
X104445000Y-118155000D01*
D20*
G36*
X116931913Y-90483031D02*
X118457971Y-93953043D01*
X118656462Y-94845492D01*
X118646521Y-94837151D01*
X118497729Y-94755352D01*
X118335883Y-94704012D01*
X118167147Y-94685085D01*
X118155000Y-94685000D01*
X117975000Y-94685000D01*
X117975000Y-94420000D01*
X117850000Y-94295000D01*
X116375000Y-94295000D01*
X116375000Y-94315000D01*
X116355000Y-94315000D01*
X116355000Y-94295000D01*
X113645000Y-94295000D01*
X113645000Y-94315000D01*
X113625000Y-94315000D01*
X113625000Y-94295000D01*
X112150000Y-94295000D01*
X112025000Y-94420000D01*
X112025000Y-94685000D01*
X111845000Y-94685000D01*
X111676016Y-94701569D01*
X111513469Y-94750645D01*
X111363549Y-94830359D01*
X111231968Y-94937673D01*
X111123737Y-95068502D01*
X111042979Y-95217861D01*
X110992770Y-95380062D01*
X110975021Y-95548926D01*
X110990410Y-95718022D01*
X111038350Y-95880908D01*
X111117015Y-96031380D01*
X111223409Y-96163707D01*
X111244341Y-96181271D01*
X111211968Y-96207673D01*
X111103737Y-96338502D01*
X111022979Y-96487861D01*
X110972770Y-96650062D01*
X110955021Y-96818926D01*
X110970410Y-96988022D01*
X111018350Y-97150908D01*
X111097015Y-97301380D01*
X111203409Y-97433707D01*
X111224341Y-97451271D01*
X111191968Y-97477673D01*
X111083737Y-97608502D01*
X111002979Y-97757861D01*
X110952770Y-97920062D01*
X110935021Y-98088926D01*
X110950410Y-98258022D01*
X110998350Y-98420908D01*
X111077015Y-98571380D01*
X111183409Y-98703707D01*
X111228985Y-98741950D01*
X111221968Y-98747673D01*
X111113737Y-98878502D01*
X111032979Y-99027861D01*
X110982770Y-99190062D01*
X110965021Y-99358926D01*
X110980410Y-99528022D01*
X111028350Y-99690908D01*
X111107015Y-99841380D01*
X111213409Y-99973707D01*
X111258985Y-100011950D01*
X111251968Y-100017673D01*
X111143737Y-100148502D01*
X111062979Y-100297861D01*
X111012770Y-100460062D01*
X110995021Y-100628926D01*
X111010410Y-100798022D01*
X111058350Y-100960908D01*
X111137015Y-101111380D01*
X111243409Y-101243707D01*
X111244625Y-101244727D01*
X111191968Y-101287673D01*
X111083737Y-101418502D01*
X111002979Y-101567861D01*
X110952770Y-101730062D01*
X110935021Y-101898926D01*
X110950410Y-102068022D01*
X110998350Y-102230908D01*
X111077015Y-102381380D01*
X111183409Y-102513707D01*
X111251248Y-102570631D01*
X111153737Y-102688502D01*
X111072979Y-102837861D01*
X111022770Y-103000062D01*
X111005021Y-103168926D01*
X111020410Y-103338022D01*
X111068350Y-103500908D01*
X111147015Y-103651380D01*
X111253409Y-103783707D01*
X111274341Y-103801271D01*
X111241968Y-103827673D01*
X111133737Y-103958502D01*
X111052979Y-104107861D01*
X111002770Y-104270062D01*
X110985021Y-104438926D01*
X111000410Y-104608022D01*
X111048350Y-104770908D01*
X111127015Y-104921380D01*
X111233409Y-105053707D01*
X111363479Y-105162849D01*
X111512271Y-105244648D01*
X111674117Y-105295988D01*
X111842853Y-105314915D01*
X111855000Y-105315000D01*
X112025000Y-105315000D01*
X112025000Y-105580000D01*
X112150000Y-105705000D01*
X113625000Y-105705000D01*
X113625000Y-105685000D01*
X113645000Y-105685000D01*
X113645000Y-105705000D01*
X116355000Y-105705000D01*
X116355000Y-105685000D01*
X116375000Y-105685000D01*
X116375000Y-105705000D01*
X117850000Y-105705000D01*
X117975000Y-105580000D01*
X117975000Y-105315000D01*
X118155000Y-105315000D01*
X118323984Y-105298431D01*
X118486531Y-105249355D01*
X118636451Y-105169641D01*
X118735895Y-105088537D01*
X118720372Y-105177842D01*
X117358128Y-108715373D01*
X115334725Y-111920931D01*
X112727217Y-114672432D01*
X109634938Y-116865062D01*
X106175671Y-118415304D01*
X105161312Y-118648353D01*
X105162849Y-118646521D01*
X105244648Y-118497729D01*
X105295988Y-118335883D01*
X105314915Y-118167147D01*
X105315000Y-118155000D01*
X105315000Y-117975000D01*
X105580000Y-117975000D01*
X105705000Y-117850000D01*
X105705000Y-116375000D01*
X105725000Y-116375000D01*
X105725000Y-117850000D01*
X105850000Y-117975000D01*
X106134246Y-117975000D01*
X106230845Y-117955785D01*
X106321839Y-117918094D01*
X106403732Y-117863375D01*
X106473376Y-117793731D01*
X106528094Y-117711839D01*
X106565785Y-117620844D01*
X106585000Y-117524245D01*
X106585000Y-116500000D01*
X106460000Y-116375000D01*
X105725000Y-116375000D01*
X105705000Y-116375000D01*
X105685000Y-116375000D01*
X105685000Y-116355000D01*
X105705000Y-116355000D01*
X105705000Y-113645000D01*
X105725000Y-113645000D01*
X105725000Y-116355000D01*
X106460000Y-116355000D01*
X106585000Y-116230000D01*
X106585000Y-115837997D01*
X106588619Y-115841745D01*
X106765758Y-115964860D01*
X106963437Y-116051224D01*
X107174125Y-116097547D01*
X107389799Y-116102064D01*
X107602243Y-116064605D01*
X107803365Y-115986595D01*
X107985504Y-115871006D01*
X108141723Y-115722240D01*
X108266072Y-115545965D01*
X108353814Y-115348894D01*
X108401606Y-115138534D01*
X108405047Y-114892139D01*
X108363146Y-114680527D01*
X108280941Y-114481083D01*
X108161563Y-114301404D01*
X108009559Y-114148335D01*
X107830718Y-114027705D01*
X107631853Y-113944110D01*
X107420538Y-113900733D01*
X107204822Y-113899227D01*
X106992922Y-113939649D01*
X106792909Y-114020460D01*
X106612401Y-114138581D01*
X106585000Y-114165414D01*
X106585000Y-113770000D01*
X106460000Y-113645000D01*
X105725000Y-113645000D01*
X105705000Y-113645000D01*
X105685000Y-113645000D01*
X105685000Y-113625000D01*
X105705000Y-113625000D01*
X105705000Y-112150000D01*
X105725000Y-112150000D01*
X105725000Y-113625000D01*
X106460000Y-113625000D01*
X106585000Y-113500000D01*
X106585000Y-112475755D01*
X106565785Y-112379156D01*
X106528094Y-112288161D01*
X106473376Y-112206269D01*
X106403732Y-112136625D01*
X106321839Y-112081906D01*
X106230845Y-112044215D01*
X106134246Y-112025000D01*
X105850000Y-112025000D01*
X105725000Y-112150000D01*
X105705000Y-112150000D01*
X105580000Y-112025000D01*
X105315000Y-112025000D01*
X105315000Y-111845000D01*
X105298431Y-111676016D01*
X105249355Y-111513469D01*
X105169641Y-111363549D01*
X105062327Y-111231968D01*
X104931498Y-111123737D01*
X104782139Y-111042979D01*
X104619938Y-110992770D01*
X104451074Y-110975021D01*
X104281978Y-110990410D01*
X104119092Y-111038350D01*
X103968620Y-111117015D01*
X103836293Y-111223409D01*
X103818729Y-111244341D01*
X103792327Y-111211968D01*
X103661498Y-111103737D01*
X103512139Y-111022979D01*
X103349938Y-110972770D01*
X103181074Y-110955021D01*
X103011978Y-110970410D01*
X102849092Y-111018350D01*
X102698620Y-111097015D01*
X102566293Y-111203409D01*
X102548729Y-111224341D01*
X102522327Y-111191968D01*
X102391498Y-111083737D01*
X102242139Y-111002979D01*
X102079938Y-110952770D01*
X101911074Y-110935021D01*
X101741978Y-110950410D01*
X101579092Y-110998350D01*
X101428620Y-111077015D01*
X101296293Y-111183409D01*
X101258050Y-111228985D01*
X101252327Y-111221968D01*
X101121498Y-111113737D01*
X100972139Y-111032979D01*
X100809938Y-110982770D01*
X100641074Y-110965021D01*
X100471978Y-110980410D01*
X100309092Y-111028350D01*
X100158620Y-111107015D01*
X100026293Y-111213409D01*
X99988050Y-111258985D01*
X99982327Y-111251968D01*
X99851498Y-111143737D01*
X99702139Y-111062979D01*
X99539938Y-111012770D01*
X99371074Y-110995021D01*
X99201978Y-111010410D01*
X99039092Y-111058350D01*
X98888620Y-111137015D01*
X98756293Y-111243409D01*
X98755273Y-111244625D01*
X98712327Y-111191968D01*
X98581498Y-111083737D01*
X98432139Y-111002979D01*
X98269938Y-110952770D01*
X98101074Y-110935021D01*
X97931978Y-110950410D01*
X97769092Y-110998350D01*
X97618620Y-111077015D01*
X97486293Y-111183409D01*
X97452186Y-111224056D01*
X97442327Y-111211968D01*
X97311498Y-111103737D01*
X97162139Y-111022979D01*
X96999938Y-110972770D01*
X96831074Y-110955021D01*
X96661978Y-110970410D01*
X96499092Y-111018350D01*
X96348620Y-111097015D01*
X96216293Y-111203409D01*
X96182186Y-111244056D01*
X96172327Y-111231968D01*
X96041498Y-111123737D01*
X95892139Y-111042979D01*
X95729938Y-110992770D01*
X95561074Y-110975021D01*
X95391978Y-110990410D01*
X95229092Y-111038350D01*
X95078620Y-111117015D01*
X94946293Y-111223409D01*
X94837151Y-111353479D01*
X94755352Y-111502271D01*
X94704012Y-111664117D01*
X94685085Y-111832853D01*
X94685000Y-111845000D01*
X94685000Y-112025000D01*
X94420000Y-112025000D01*
X94295000Y-112150000D01*
X94295000Y-113625000D01*
X94315000Y-113625000D01*
X94315000Y-113645000D01*
X94295000Y-113645000D01*
X94295000Y-116355000D01*
X94315000Y-116355000D01*
X94315000Y-116375000D01*
X94295000Y-116375000D01*
X94295000Y-117850000D01*
X94420000Y-117975000D01*
X94685000Y-117975000D01*
X94685000Y-118155000D01*
X94701569Y-118323984D01*
X94750645Y-118486531D01*
X94830359Y-118636451D01*
X94916780Y-118742415D01*
X91406023Y-117418550D01*
X89928059Y-116500000D01*
X93415000Y-116500000D01*
X93415000Y-117524245D01*
X93434215Y-117620844D01*
X93471906Y-117711839D01*
X93526624Y-117793731D01*
X93596268Y-117863375D01*
X93678161Y-117918094D01*
X93769155Y-117955785D01*
X93865754Y-117975000D01*
X94150000Y-117975000D01*
X94275000Y-117850000D01*
X94275000Y-116375000D01*
X93540000Y-116375000D01*
X93415000Y-116500000D01*
X89928059Y-116500000D01*
X88186412Y-115417572D01*
X87838547Y-115092491D01*
X91593555Y-115092491D01*
X91632496Y-115304668D01*
X91711909Y-115505240D01*
X91828766Y-115686568D01*
X91978619Y-115841745D01*
X92155758Y-115964860D01*
X92353437Y-116051224D01*
X92564125Y-116097547D01*
X92779799Y-116102064D01*
X92992243Y-116064605D01*
X93193365Y-115986595D01*
X93375504Y-115871006D01*
X93415000Y-115833394D01*
X93415000Y-116230000D01*
X93540000Y-116355000D01*
X94275000Y-116355000D01*
X94275000Y-113645000D01*
X93540000Y-113645000D01*
X93415000Y-113770000D01*
X93415000Y-114163884D01*
X93399559Y-114148335D01*
X93220718Y-114027705D01*
X93021853Y-113944110D01*
X92810538Y-113900733D01*
X92594822Y-113899227D01*
X92382922Y-113939649D01*
X92182909Y-114020460D01*
X92002401Y-114138581D01*
X91848274Y-114289513D01*
X91726399Y-114467507D01*
X91641417Y-114665784D01*
X91596566Y-114876791D01*
X91593555Y-115092491D01*
X87838547Y-115092491D01*
X85416777Y-112829339D01*
X85162335Y-112475755D01*
X93415000Y-112475755D01*
X93415000Y-113500000D01*
X93540000Y-113625000D01*
X94275000Y-113625000D01*
X94275000Y-112150000D01*
X94150000Y-112025000D01*
X93865754Y-112025000D01*
X93769155Y-112044215D01*
X93678161Y-112081906D01*
X93596268Y-112136625D01*
X93526624Y-112206269D01*
X93471906Y-112288161D01*
X93434215Y-112379156D01*
X93415000Y-112475755D01*
X85162335Y-112475755D01*
X83202612Y-109752441D01*
X81628257Y-106304079D01*
X81520590Y-105850000D01*
X82025000Y-105850000D01*
X82025000Y-106134246D01*
X82044215Y-106230845D01*
X82081906Y-106321839D01*
X82136625Y-106403732D01*
X82206269Y-106473376D01*
X82288161Y-106528094D01*
X82379156Y-106565785D01*
X82475755Y-106585000D01*
X83500000Y-106585000D01*
X83625000Y-106460000D01*
X83625000Y-105725000D01*
X83645000Y-105725000D01*
X83645000Y-106460000D01*
X83770000Y-106585000D01*
X84162988Y-106585000D01*
X84153274Y-106594513D01*
X84031399Y-106772507D01*
X83946417Y-106970784D01*
X83901566Y-107181791D01*
X83898555Y-107397491D01*
X83937496Y-107609668D01*
X84016909Y-107810240D01*
X84133766Y-107991568D01*
X84283619Y-108146745D01*
X84460758Y-108269860D01*
X84658437Y-108356224D01*
X84869125Y-108402547D01*
X85084799Y-108407064D01*
X85297243Y-108369605D01*
X85498365Y-108291595D01*
X85680504Y-108176006D01*
X85836723Y-108027240D01*
X85961072Y-107850965D01*
X86048814Y-107653894D01*
X86096606Y-107443534D01*
X86100047Y-107197139D01*
X86058146Y-106985527D01*
X85975941Y-106786083D01*
X85856563Y-106606404D01*
X85835308Y-106585000D01*
X86230000Y-106585000D01*
X86355000Y-106460000D01*
X86355000Y-105725000D01*
X86375000Y-105725000D01*
X86375000Y-106460000D01*
X86500000Y-106585000D01*
X87524245Y-106585000D01*
X87620844Y-106565785D01*
X87711839Y-106528094D01*
X87793731Y-106473376D01*
X87799841Y-106467266D01*
X94198948Y-106467266D01*
X94227270Y-106621577D01*
X94285024Y-106767448D01*
X94370012Y-106899323D01*
X94478995Y-107012179D01*
X94607824Y-107101717D01*
X94751590Y-107164527D01*
X94904818Y-107198216D01*
X95061672Y-107201502D01*
X95216177Y-107174258D01*
X95362447Y-107117524D01*
X95390060Y-107100000D01*
X100205354Y-107100000D01*
X100207824Y-107101717D01*
X100351590Y-107164527D01*
X100504818Y-107198216D01*
X100661672Y-107201502D01*
X100816177Y-107174258D01*
X100962447Y-107117524D01*
X101094912Y-107033459D01*
X101208526Y-106925266D01*
X101298962Y-106797066D01*
X101362774Y-106653741D01*
X101397532Y-106500752D01*
X101400034Y-106321556D01*
X101369561Y-106167656D01*
X101309776Y-106022605D01*
X101300000Y-106007891D01*
X101300000Y-105850000D01*
X112025000Y-105850000D01*
X112025000Y-106134246D01*
X112044215Y-106230845D01*
X112081906Y-106321839D01*
X112136625Y-106403732D01*
X112206269Y-106473376D01*
X112288161Y-106528094D01*
X112379156Y-106565785D01*
X112475755Y-106585000D01*
X113500000Y-106585000D01*
X113625000Y-106460000D01*
X113625000Y-105725000D01*
X113645000Y-105725000D01*
X113645000Y-106460000D01*
X113770000Y-106585000D01*
X114162988Y-106585000D01*
X114153274Y-106594513D01*
X114031399Y-106772507D01*
X113946417Y-106970784D01*
X113901566Y-107181791D01*
X113898555Y-107397491D01*
X113937496Y-107609668D01*
X114016909Y-107810240D01*
X114133766Y-107991568D01*
X114283619Y-108146745D01*
X114460758Y-108269860D01*
X114658437Y-108356224D01*
X114869125Y-108402547D01*
X115084799Y-108407064D01*
X115297243Y-108369605D01*
X115498365Y-108291595D01*
X115680504Y-108176006D01*
X115836723Y-108027240D01*
X115961072Y-107850965D01*
X116048814Y-107653894D01*
X116096606Y-107443534D01*
X116100047Y-107197139D01*
X116058146Y-106985527D01*
X115975941Y-106786083D01*
X115856563Y-106606404D01*
X115835308Y-106585000D01*
X116230000Y-106585000D01*
X116355000Y-106460000D01*
X116355000Y-105725000D01*
X116375000Y-105725000D01*
X116375000Y-106460000D01*
X116500000Y-106585000D01*
X117524245Y-106585000D01*
X117620844Y-106565785D01*
X117711839Y-106528094D01*
X117793731Y-106473376D01*
X117863375Y-106403732D01*
X117918094Y-106321839D01*
X117955785Y-106230845D01*
X117975000Y-106134246D01*
X117975000Y-105850000D01*
X117850000Y-105725000D01*
X116375000Y-105725000D01*
X116355000Y-105725000D01*
X113645000Y-105725000D01*
X113625000Y-105725000D01*
X112150000Y-105725000D01*
X112025000Y-105850000D01*
X101300000Y-105850000D01*
X101300000Y-98189950D01*
X101542978Y-97946972D01*
X101569863Y-97933036D01*
X101680444Y-97844760D01*
X101687652Y-97837652D01*
X102749314Y-96775991D01*
X102845330Y-96797101D01*
X103100217Y-96802440D01*
X103351287Y-96758170D01*
X103588977Y-96665976D01*
X103804232Y-96529371D01*
X103988855Y-96353557D01*
X104135813Y-96145231D01*
X104239507Y-95912329D01*
X104295990Y-95663722D01*
X104300056Y-95372528D01*
X104250537Y-95122441D01*
X104153386Y-94886734D01*
X104012302Y-94674386D01*
X103832661Y-94493486D01*
X103621303Y-94350924D01*
X103386280Y-94252129D01*
X103136544Y-94200866D01*
X102881608Y-94199086D01*
X102631180Y-94246858D01*
X102394801Y-94342361D01*
X102181474Y-94481959D01*
X101999324Y-94660333D01*
X101965298Y-94710027D01*
X101842340Y-94671803D01*
X101014142Y-95500000D01*
X101028285Y-95514142D01*
X101014142Y-95528285D01*
X101000000Y-95514142D01*
X100171803Y-96342340D01*
X100240294Y-96562658D01*
X100462206Y-96690451D01*
X100702854Y-96771842D01*
X100662348Y-96812348D01*
X100572537Y-96921686D01*
X100554239Y-96955811D01*
X100105025Y-97405025D01*
X100063959Y-97455019D01*
X100022421Y-97504523D01*
X100020648Y-97507748D01*
X100018311Y-97510593D01*
X99987752Y-97567585D01*
X99956605Y-97624241D01*
X99955492Y-97627750D01*
X99953753Y-97630993D01*
X99934844Y-97692842D01*
X99915297Y-97754462D01*
X99914887Y-97758117D01*
X99913810Y-97761640D01*
X99907273Y-97825993D01*
X99900068Y-97890226D01*
X99900018Y-97897419D01*
X99900004Y-97897556D01*
X99900016Y-97897684D01*
X99900000Y-97900000D01*
X99900000Y-105700000D01*
X95392903Y-105700000D01*
X95382341Y-105692876D01*
X95237711Y-105632079D01*
X95084027Y-105600533D01*
X94927143Y-105599437D01*
X94773034Y-105628835D01*
X94627570Y-105687607D01*
X94496291Y-105773513D01*
X94384199Y-105883282D01*
X94295562Y-106012732D01*
X94233758Y-106156934D01*
X94201139Y-106310393D01*
X94198948Y-106467266D01*
X87799841Y-106467266D01*
X87863375Y-106403732D01*
X87918094Y-106321839D01*
X87955785Y-106230845D01*
X87975000Y-106134246D01*
X87975000Y-105850000D01*
X87850000Y-105725000D01*
X86375000Y-105725000D01*
X86355000Y-105725000D01*
X83645000Y-105725000D01*
X83625000Y-105725000D01*
X82150000Y-105725000D01*
X82025000Y-105850000D01*
X81520590Y-105850000D01*
X81358284Y-105165491D01*
X81502271Y-105244648D01*
X81664117Y-105295988D01*
X81832853Y-105314915D01*
X81845000Y-105315000D01*
X82025000Y-105315000D01*
X82025000Y-105580000D01*
X82150000Y-105705000D01*
X83625000Y-105705000D01*
X83625000Y-105685000D01*
X83645000Y-105685000D01*
X83645000Y-105705000D01*
X86355000Y-105705000D01*
X86355000Y-105685000D01*
X86375000Y-105685000D01*
X86375000Y-105705000D01*
X87850000Y-105705000D01*
X87975000Y-105580000D01*
X87975000Y-105315000D01*
X88155000Y-105315000D01*
X88323984Y-105298431D01*
X88486531Y-105249355D01*
X88636451Y-105169641D01*
X88768032Y-105062327D01*
X88876263Y-104931498D01*
X88957021Y-104782139D01*
X89007230Y-104619938D01*
X89024979Y-104451074D01*
X89009590Y-104281978D01*
X88961650Y-104119092D01*
X88882985Y-103968620D01*
X88776591Y-103836293D01*
X88755659Y-103818729D01*
X88788032Y-103792327D01*
X88896263Y-103661498D01*
X88977021Y-103512139D01*
X89027230Y-103349938D01*
X89044979Y-103181074D01*
X89029590Y-103011978D01*
X88981650Y-102849092D01*
X88902985Y-102698620D01*
X88796591Y-102566293D01*
X88775659Y-102548729D01*
X88808032Y-102522327D01*
X88916263Y-102391498D01*
X88997021Y-102242139D01*
X89047230Y-102079938D01*
X89053501Y-102020276D01*
X89068303Y-102030564D01*
X89221055Y-102097300D01*
X89383860Y-102133095D01*
X89550517Y-102136586D01*
X89714678Y-102107640D01*
X89870090Y-102047359D01*
X90010834Y-101958040D01*
X90131549Y-101843085D01*
X90227637Y-101706872D01*
X90295437Y-101554590D01*
X90332368Y-101392039D01*
X90335027Y-101201643D01*
X90302649Y-101038124D01*
X90239127Y-100884008D01*
X90146880Y-100745166D01*
X90029422Y-100626885D01*
X89891227Y-100533671D01*
X89737558Y-100469074D01*
X89574269Y-100435556D01*
X89407580Y-100434392D01*
X89243838Y-100465627D01*
X89089283Y-100528072D01*
X89028325Y-100567962D01*
X89019590Y-100471978D01*
X88971650Y-100309092D01*
X88892985Y-100158620D01*
X88786591Y-100026293D01*
X88755802Y-100000458D01*
X88778032Y-99982327D01*
X88886263Y-99851498D01*
X88967021Y-99702139D01*
X89017230Y-99539938D01*
X89034979Y-99371074D01*
X89019590Y-99201978D01*
X88971650Y-99039092D01*
X88892985Y-98888620D01*
X88786591Y-98756293D01*
X88770588Y-98742865D01*
X88808032Y-98712327D01*
X88916263Y-98581498D01*
X88997021Y-98432139D01*
X89047230Y-98269938D01*
X89064979Y-98101074D01*
X89049590Y-97931978D01*
X89001650Y-97769092D01*
X88922985Y-97618620D01*
X88816591Y-97486293D01*
X88775944Y-97452186D01*
X88788032Y-97442327D01*
X88896263Y-97311498D01*
X88977021Y-97162139D01*
X89027230Y-96999938D01*
X89044979Y-96831074D01*
X89029590Y-96661978D01*
X88981650Y-96499092D01*
X88902985Y-96348620D01*
X88796591Y-96216293D01*
X88751015Y-96178050D01*
X88758032Y-96172327D01*
X88866263Y-96041498D01*
X88947021Y-95892139D01*
X88997230Y-95729938D01*
X89009909Y-95609308D01*
X95698291Y-95609308D01*
X95744313Y-95860062D01*
X95838164Y-96097102D01*
X95976269Y-96311399D01*
X96153367Y-96494790D01*
X96362714Y-96640289D01*
X96596334Y-96742356D01*
X96845330Y-96797101D01*
X97100217Y-96802440D01*
X97351287Y-96758170D01*
X97588977Y-96665976D01*
X97804232Y-96529371D01*
X97988855Y-96353557D01*
X98000728Y-96336727D01*
X98153367Y-96494790D01*
X98362714Y-96640289D01*
X98596334Y-96742356D01*
X98845330Y-96797101D01*
X99100217Y-96802440D01*
X99351287Y-96758170D01*
X99588977Y-96665976D01*
X99804232Y-96529371D01*
X99988855Y-96353557D01*
X100033888Y-96289719D01*
X100157660Y-96328197D01*
X100985858Y-95500000D01*
X100157660Y-94671803D01*
X100035763Y-94709698D01*
X100012302Y-94674386D01*
X99995693Y-94657660D01*
X100171803Y-94657660D01*
X101000000Y-95485858D01*
X101828197Y-94657660D01*
X101759706Y-94437342D01*
X101537794Y-94309549D01*
X101295216Y-94227505D01*
X101041292Y-94194362D01*
X100785781Y-94211394D01*
X100538502Y-94277946D01*
X100308959Y-94391462D01*
X100240294Y-94437342D01*
X100171803Y-94657660D01*
X99995693Y-94657660D01*
X99832661Y-94493486D01*
X99621303Y-94350924D01*
X99386280Y-94252129D01*
X99136544Y-94200866D01*
X98881608Y-94199086D01*
X98631180Y-94246858D01*
X98394801Y-94342361D01*
X98181474Y-94481959D01*
X97999324Y-94660333D01*
X97998925Y-94660915D01*
X97832661Y-94493486D01*
X97621303Y-94350924D01*
X97386280Y-94252129D01*
X97136544Y-94200866D01*
X96881608Y-94199086D01*
X96631180Y-94246858D01*
X96394801Y-94342361D01*
X96181474Y-94481959D01*
X95999324Y-94660333D01*
X95855289Y-94870690D01*
X95754857Y-95105017D01*
X95701851Y-95354389D01*
X95698291Y-95609308D01*
X89009909Y-95609308D01*
X89014979Y-95561074D01*
X88999590Y-95391978D01*
X88951650Y-95229092D01*
X88872985Y-95078620D01*
X88766591Y-94946293D01*
X88636521Y-94837151D01*
X88487729Y-94755352D01*
X88325883Y-94704012D01*
X88157147Y-94685085D01*
X88145000Y-94685000D01*
X87975000Y-94685000D01*
X87975000Y-94420000D01*
X87850000Y-94295000D01*
X86375000Y-94295000D01*
X86375000Y-94315000D01*
X86355000Y-94315000D01*
X86355000Y-94295000D01*
X83645000Y-94295000D01*
X83645000Y-94315000D01*
X83625000Y-94315000D01*
X83625000Y-94295000D01*
X82150000Y-94295000D01*
X82025000Y-94420000D01*
X82025000Y-94685000D01*
X81845000Y-94685000D01*
X81676016Y-94701569D01*
X81513469Y-94750645D01*
X81363549Y-94830359D01*
X81276635Y-94901244D01*
X81658869Y-93865754D01*
X82025000Y-93865754D01*
X82025000Y-94150000D01*
X82150000Y-94275000D01*
X83625000Y-94275000D01*
X83625000Y-93540000D01*
X83645000Y-93540000D01*
X83645000Y-94275000D01*
X86355000Y-94275000D01*
X86355000Y-93540000D01*
X86375000Y-93540000D01*
X86375000Y-94275000D01*
X87850000Y-94275000D01*
X87975000Y-94150000D01*
X87975000Y-93865754D01*
X87955785Y-93769155D01*
X87918094Y-93678161D01*
X87863375Y-93596268D01*
X87793731Y-93526624D01*
X87742647Y-93492491D01*
X94398555Y-93492491D01*
X94437496Y-93704668D01*
X94516909Y-93905240D01*
X94633766Y-94086568D01*
X94783619Y-94241745D01*
X94960758Y-94364860D01*
X95158437Y-94451224D01*
X95369125Y-94497547D01*
X95584799Y-94502064D01*
X95797243Y-94464605D01*
X95998365Y-94386595D01*
X96180504Y-94271006D01*
X96336723Y-94122240D01*
X96461072Y-93945965D01*
X96548814Y-93748894D01*
X96596606Y-93538534D01*
X96597249Y-93492491D01*
X103398555Y-93492491D01*
X103437496Y-93704668D01*
X103516909Y-93905240D01*
X103633766Y-94086568D01*
X103783619Y-94241745D01*
X103960758Y-94364860D01*
X104158437Y-94451224D01*
X104369125Y-94497547D01*
X104584799Y-94502064D01*
X104797243Y-94464605D01*
X104998365Y-94386595D01*
X105180504Y-94271006D01*
X105336723Y-94122240D01*
X105461072Y-93945965D01*
X105496784Y-93865754D01*
X112025000Y-93865754D01*
X112025000Y-94150000D01*
X112150000Y-94275000D01*
X113625000Y-94275000D01*
X113625000Y-93540000D01*
X113645000Y-93540000D01*
X113645000Y-94275000D01*
X116355000Y-94275000D01*
X116355000Y-93540000D01*
X116375000Y-93540000D01*
X116375000Y-94275000D01*
X117850000Y-94275000D01*
X117975000Y-94150000D01*
X117975000Y-93865754D01*
X117955785Y-93769155D01*
X117918094Y-93678161D01*
X117863375Y-93596268D01*
X117793731Y-93526624D01*
X117711839Y-93471906D01*
X117620844Y-93434215D01*
X117524245Y-93415000D01*
X116500000Y-93415000D01*
X116375000Y-93540000D01*
X116355000Y-93540000D01*
X116230000Y-93415000D01*
X115838303Y-93415000D01*
X115961072Y-93240965D01*
X116048814Y-93043894D01*
X116096606Y-92833534D01*
X116100047Y-92587139D01*
X116058146Y-92375527D01*
X115975941Y-92176083D01*
X115856563Y-91996404D01*
X115704559Y-91843335D01*
X115525718Y-91722705D01*
X115326853Y-91639110D01*
X115115538Y-91595733D01*
X114899822Y-91594227D01*
X114687922Y-91634649D01*
X114487909Y-91715460D01*
X114307401Y-91833581D01*
X114153274Y-91984513D01*
X114031399Y-92162507D01*
X113946417Y-92360784D01*
X113901566Y-92571791D01*
X113898555Y-92787491D01*
X113937496Y-92999668D01*
X114016909Y-93200240D01*
X114133766Y-93381568D01*
X114166051Y-93415000D01*
X113770000Y-93415000D01*
X113645000Y-93540000D01*
X113625000Y-93540000D01*
X113500000Y-93415000D01*
X112475755Y-93415000D01*
X112379156Y-93434215D01*
X112288161Y-93471906D01*
X112206269Y-93526624D01*
X112136625Y-93596268D01*
X112081906Y-93678161D01*
X112044215Y-93769155D01*
X112025000Y-93865754D01*
X105496784Y-93865754D01*
X105548814Y-93748894D01*
X105596606Y-93538534D01*
X105600047Y-93292139D01*
X105558146Y-93080527D01*
X105475941Y-92881083D01*
X105356563Y-92701404D01*
X105204559Y-92548335D01*
X105025718Y-92427705D01*
X104826853Y-92344110D01*
X104615538Y-92300733D01*
X104399822Y-92299227D01*
X104187922Y-92339649D01*
X103987909Y-92420460D01*
X103807401Y-92538581D01*
X103653274Y-92689513D01*
X103531399Y-92867507D01*
X103446417Y-93065784D01*
X103401566Y-93276791D01*
X103398555Y-93492491D01*
X96597249Y-93492491D01*
X96600047Y-93292139D01*
X96558146Y-93080527D01*
X96475941Y-92881083D01*
X96356563Y-92701404D01*
X96204559Y-92548335D01*
X96025718Y-92427705D01*
X95826853Y-92344110D01*
X95615538Y-92300733D01*
X95399822Y-92299227D01*
X95187922Y-92339649D01*
X94987909Y-92420460D01*
X94807401Y-92538581D01*
X94653274Y-92689513D01*
X94531399Y-92867507D01*
X94446417Y-93065784D01*
X94401566Y-93276791D01*
X94398555Y-93492491D01*
X87742647Y-93492491D01*
X87711839Y-93471906D01*
X87620844Y-93434215D01*
X87524245Y-93415000D01*
X86500000Y-93415000D01*
X86375000Y-93540000D01*
X86355000Y-93540000D01*
X86230000Y-93415000D01*
X85838303Y-93415000D01*
X85961072Y-93240965D01*
X86048814Y-93043894D01*
X86096606Y-92833534D01*
X86100047Y-92587139D01*
X86058146Y-92375527D01*
X85975941Y-92176083D01*
X85856563Y-91996404D01*
X85704559Y-91843335D01*
X85525718Y-91722705D01*
X85326853Y-91639110D01*
X85115538Y-91595733D01*
X84899822Y-91594227D01*
X84687922Y-91634649D01*
X84487909Y-91715460D01*
X84307401Y-91833581D01*
X84153274Y-91984513D01*
X84031399Y-92162507D01*
X83946417Y-92360784D01*
X83901566Y-92571791D01*
X83898555Y-92787491D01*
X83937496Y-92999668D01*
X84016909Y-93200240D01*
X84133766Y-93381568D01*
X84166051Y-93415000D01*
X83770000Y-93415000D01*
X83645000Y-93540000D01*
X83625000Y-93540000D01*
X83500000Y-93415000D01*
X82475755Y-93415000D01*
X82379156Y-93434215D01*
X82288161Y-93471906D01*
X82206269Y-93526624D01*
X82136625Y-93596268D01*
X82081906Y-93678161D01*
X82044215Y-93769155D01*
X82025000Y-93865754D01*
X81658869Y-93865754D01*
X82521876Y-91527836D01*
X84510508Y-88277699D01*
X85075493Y-87575000D01*
X114900286Y-87575000D01*
X116931913Y-90483031D01*
X116931913Y-90483031D01*
G37*
X116931913Y-90483031D02*
X118457971Y-93953043D01*
X118656462Y-94845492D01*
X118646521Y-94837151D01*
X118497729Y-94755352D01*
X118335883Y-94704012D01*
X118167147Y-94685085D01*
X118155000Y-94685000D01*
X117975000Y-94685000D01*
X117975000Y-94420000D01*
X117850000Y-94295000D01*
X116375000Y-94295000D01*
X116375000Y-94315000D01*
X116355000Y-94315000D01*
X116355000Y-94295000D01*
X113645000Y-94295000D01*
X113645000Y-94315000D01*
X113625000Y-94315000D01*
X113625000Y-94295000D01*
X112150000Y-94295000D01*
X112025000Y-94420000D01*
X112025000Y-94685000D01*
X111845000Y-94685000D01*
X111676016Y-94701569D01*
X111513469Y-94750645D01*
X111363549Y-94830359D01*
X111231968Y-94937673D01*
X111123737Y-95068502D01*
X111042979Y-95217861D01*
X110992770Y-95380062D01*
X110975021Y-95548926D01*
X110990410Y-95718022D01*
X111038350Y-95880908D01*
X111117015Y-96031380D01*
X111223409Y-96163707D01*
X111244341Y-96181271D01*
X111211968Y-96207673D01*
X111103737Y-96338502D01*
X111022979Y-96487861D01*
X110972770Y-96650062D01*
X110955021Y-96818926D01*
X110970410Y-96988022D01*
X111018350Y-97150908D01*
X111097015Y-97301380D01*
X111203409Y-97433707D01*
X111224341Y-97451271D01*
X111191968Y-97477673D01*
X111083737Y-97608502D01*
X111002979Y-97757861D01*
X110952770Y-97920062D01*
X110935021Y-98088926D01*
X110950410Y-98258022D01*
X110998350Y-98420908D01*
X111077015Y-98571380D01*
X111183409Y-98703707D01*
X111228985Y-98741950D01*
X111221968Y-98747673D01*
X111113737Y-98878502D01*
X111032979Y-99027861D01*
X110982770Y-99190062D01*
X110965021Y-99358926D01*
X110980410Y-99528022D01*
X111028350Y-99690908D01*
X111107015Y-99841380D01*
X111213409Y-99973707D01*
X111258985Y-100011950D01*
X111251968Y-100017673D01*
X111143737Y-100148502D01*
X111062979Y-100297861D01*
X111012770Y-100460062D01*
X110995021Y-100628926D01*
X111010410Y-100798022D01*
X111058350Y-100960908D01*
X111137015Y-101111380D01*
X111243409Y-101243707D01*
X111244625Y-101244727D01*
X111191968Y-101287673D01*
X111083737Y-101418502D01*
X111002979Y-101567861D01*
X110952770Y-101730062D01*
X110935021Y-101898926D01*
X110950410Y-102068022D01*
X110998350Y-102230908D01*
X111077015Y-102381380D01*
X111183409Y-102513707D01*
X111251248Y-102570631D01*
X111153737Y-102688502D01*
X111072979Y-102837861D01*
X111022770Y-103000062D01*
X111005021Y-103168926D01*
X111020410Y-103338022D01*
X111068350Y-103500908D01*
X111147015Y-103651380D01*
X111253409Y-103783707D01*
X111274341Y-103801271D01*
X111241968Y-103827673D01*
X111133737Y-103958502D01*
X111052979Y-104107861D01*
X111002770Y-104270062D01*
X110985021Y-104438926D01*
X111000410Y-104608022D01*
X111048350Y-104770908D01*
X111127015Y-104921380D01*
X111233409Y-105053707D01*
X111363479Y-105162849D01*
X111512271Y-105244648D01*
X111674117Y-105295988D01*
X111842853Y-105314915D01*
X111855000Y-105315000D01*
X112025000Y-105315000D01*
X112025000Y-105580000D01*
X112150000Y-105705000D01*
X113625000Y-105705000D01*
X113625000Y-105685000D01*
X113645000Y-105685000D01*
X113645000Y-105705000D01*
X116355000Y-105705000D01*
X116355000Y-105685000D01*
X116375000Y-105685000D01*
X116375000Y-105705000D01*
X117850000Y-105705000D01*
X117975000Y-105580000D01*
X117975000Y-105315000D01*
X118155000Y-105315000D01*
X118323984Y-105298431D01*
X118486531Y-105249355D01*
X118636451Y-105169641D01*
X118735895Y-105088537D01*
X118720372Y-105177842D01*
X117358128Y-108715373D01*
X115334725Y-111920931D01*
X112727217Y-114672432D01*
X109634938Y-116865062D01*
X106175671Y-118415304D01*
X105161312Y-118648353D01*
X105162849Y-118646521D01*
X105244648Y-118497729D01*
X105295988Y-118335883D01*
X105314915Y-118167147D01*
X105315000Y-118155000D01*
X105315000Y-117975000D01*
X105580000Y-117975000D01*
X105705000Y-117850000D01*
X105705000Y-116375000D01*
X105725000Y-116375000D01*
X105725000Y-117850000D01*
X105850000Y-117975000D01*
X106134246Y-117975000D01*
X106230845Y-117955785D01*
X106321839Y-117918094D01*
X106403732Y-117863375D01*
X106473376Y-117793731D01*
X106528094Y-117711839D01*
X106565785Y-117620844D01*
X106585000Y-117524245D01*
X106585000Y-116500000D01*
X106460000Y-116375000D01*
X105725000Y-116375000D01*
X105705000Y-116375000D01*
X105685000Y-116375000D01*
X105685000Y-116355000D01*
X105705000Y-116355000D01*
X105705000Y-113645000D01*
X105725000Y-113645000D01*
X105725000Y-116355000D01*
X106460000Y-116355000D01*
X106585000Y-116230000D01*
X106585000Y-115837997D01*
X106588619Y-115841745D01*
X106765758Y-115964860D01*
X106963437Y-116051224D01*
X107174125Y-116097547D01*
X107389799Y-116102064D01*
X107602243Y-116064605D01*
X107803365Y-115986595D01*
X107985504Y-115871006D01*
X108141723Y-115722240D01*
X108266072Y-115545965D01*
X108353814Y-115348894D01*
X108401606Y-115138534D01*
X108405047Y-114892139D01*
X108363146Y-114680527D01*
X108280941Y-114481083D01*
X108161563Y-114301404D01*
X108009559Y-114148335D01*
X107830718Y-114027705D01*
X107631853Y-113944110D01*
X107420538Y-113900733D01*
X107204822Y-113899227D01*
X106992922Y-113939649D01*
X106792909Y-114020460D01*
X106612401Y-114138581D01*
X106585000Y-114165414D01*
X106585000Y-113770000D01*
X106460000Y-113645000D01*
X105725000Y-113645000D01*
X105705000Y-113645000D01*
X105685000Y-113645000D01*
X105685000Y-113625000D01*
X105705000Y-113625000D01*
X105705000Y-112150000D01*
X105725000Y-112150000D01*
X105725000Y-113625000D01*
X106460000Y-113625000D01*
X106585000Y-113500000D01*
X106585000Y-112475755D01*
X106565785Y-112379156D01*
X106528094Y-112288161D01*
X106473376Y-112206269D01*
X106403732Y-112136625D01*
X106321839Y-112081906D01*
X106230845Y-112044215D01*
X106134246Y-112025000D01*
X105850000Y-112025000D01*
X105725000Y-112150000D01*
X105705000Y-112150000D01*
X105580000Y-112025000D01*
X105315000Y-112025000D01*
X105315000Y-111845000D01*
X105298431Y-111676016D01*
X105249355Y-111513469D01*
X105169641Y-111363549D01*
X105062327Y-111231968D01*
X104931498Y-111123737D01*
X104782139Y-111042979D01*
X104619938Y-110992770D01*
X104451074Y-110975021D01*
X104281978Y-110990410D01*
X104119092Y-111038350D01*
X103968620Y-111117015D01*
X103836293Y-111223409D01*
X103818729Y-111244341D01*
X103792327Y-111211968D01*
X103661498Y-111103737D01*
X103512139Y-111022979D01*
X103349938Y-110972770D01*
X103181074Y-110955021D01*
X103011978Y-110970410D01*
X102849092Y-111018350D01*
X102698620Y-111097015D01*
X102566293Y-111203409D01*
X102548729Y-111224341D01*
X102522327Y-111191968D01*
X102391498Y-111083737D01*
X102242139Y-111002979D01*
X102079938Y-110952770D01*
X101911074Y-110935021D01*
X101741978Y-110950410D01*
X101579092Y-110998350D01*
X101428620Y-111077015D01*
X101296293Y-111183409D01*
X101258050Y-111228985D01*
X101252327Y-111221968D01*
X101121498Y-111113737D01*
X100972139Y-111032979D01*
X100809938Y-110982770D01*
X100641074Y-110965021D01*
X100471978Y-110980410D01*
X100309092Y-111028350D01*
X100158620Y-111107015D01*
X100026293Y-111213409D01*
X99988050Y-111258985D01*
X99982327Y-111251968D01*
X99851498Y-111143737D01*
X99702139Y-111062979D01*
X99539938Y-111012770D01*
X99371074Y-110995021D01*
X99201978Y-111010410D01*
X99039092Y-111058350D01*
X98888620Y-111137015D01*
X98756293Y-111243409D01*
X98755273Y-111244625D01*
X98712327Y-111191968D01*
X98581498Y-111083737D01*
X98432139Y-111002979D01*
X98269938Y-110952770D01*
X98101074Y-110935021D01*
X97931978Y-110950410D01*
X97769092Y-110998350D01*
X97618620Y-111077015D01*
X97486293Y-111183409D01*
X97452186Y-111224056D01*
X97442327Y-111211968D01*
X97311498Y-111103737D01*
X97162139Y-111022979D01*
X96999938Y-110972770D01*
X96831074Y-110955021D01*
X96661978Y-110970410D01*
X96499092Y-111018350D01*
X96348620Y-111097015D01*
X96216293Y-111203409D01*
X96182186Y-111244056D01*
X96172327Y-111231968D01*
X96041498Y-111123737D01*
X95892139Y-111042979D01*
X95729938Y-110992770D01*
X95561074Y-110975021D01*
X95391978Y-110990410D01*
X95229092Y-111038350D01*
X95078620Y-111117015D01*
X94946293Y-111223409D01*
X94837151Y-111353479D01*
X94755352Y-111502271D01*
X94704012Y-111664117D01*
X94685085Y-111832853D01*
X94685000Y-111845000D01*
X94685000Y-112025000D01*
X94420000Y-112025000D01*
X94295000Y-112150000D01*
X94295000Y-113625000D01*
X94315000Y-113625000D01*
X94315000Y-113645000D01*
X94295000Y-113645000D01*
X94295000Y-116355000D01*
X94315000Y-116355000D01*
X94315000Y-116375000D01*
X94295000Y-116375000D01*
X94295000Y-117850000D01*
X94420000Y-117975000D01*
X94685000Y-117975000D01*
X94685000Y-118155000D01*
X94701569Y-118323984D01*
X94750645Y-118486531D01*
X94830359Y-118636451D01*
X94916780Y-118742415D01*
X91406023Y-117418550D01*
X89928059Y-116500000D01*
X93415000Y-116500000D01*
X93415000Y-117524245D01*
X93434215Y-117620844D01*
X93471906Y-117711839D01*
X93526624Y-117793731D01*
X93596268Y-117863375D01*
X93678161Y-117918094D01*
X93769155Y-117955785D01*
X93865754Y-117975000D01*
X94150000Y-117975000D01*
X94275000Y-117850000D01*
X94275000Y-116375000D01*
X93540000Y-116375000D01*
X93415000Y-116500000D01*
X89928059Y-116500000D01*
X88186412Y-115417572D01*
X87838547Y-115092491D01*
X91593555Y-115092491D01*
X91632496Y-115304668D01*
X91711909Y-115505240D01*
X91828766Y-115686568D01*
X91978619Y-115841745D01*
X92155758Y-115964860D01*
X92353437Y-116051224D01*
X92564125Y-116097547D01*
X92779799Y-116102064D01*
X92992243Y-116064605D01*
X93193365Y-115986595D01*
X93375504Y-115871006D01*
X93415000Y-115833394D01*
X93415000Y-116230000D01*
X93540000Y-116355000D01*
X94275000Y-116355000D01*
X94275000Y-113645000D01*
X93540000Y-113645000D01*
X93415000Y-113770000D01*
X93415000Y-114163884D01*
X93399559Y-114148335D01*
X93220718Y-114027705D01*
X93021853Y-113944110D01*
X92810538Y-113900733D01*
X92594822Y-113899227D01*
X92382922Y-113939649D01*
X92182909Y-114020460D01*
X92002401Y-114138581D01*
X91848274Y-114289513D01*
X91726399Y-114467507D01*
X91641417Y-114665784D01*
X91596566Y-114876791D01*
X91593555Y-115092491D01*
X87838547Y-115092491D01*
X85416777Y-112829339D01*
X85162335Y-112475755D01*
X93415000Y-112475755D01*
X93415000Y-113500000D01*
X93540000Y-113625000D01*
X94275000Y-113625000D01*
X94275000Y-112150000D01*
X94150000Y-112025000D01*
X93865754Y-112025000D01*
X93769155Y-112044215D01*
X93678161Y-112081906D01*
X93596268Y-112136625D01*
X93526624Y-112206269D01*
X93471906Y-112288161D01*
X93434215Y-112379156D01*
X93415000Y-112475755D01*
X85162335Y-112475755D01*
X83202612Y-109752441D01*
X81628257Y-106304079D01*
X81520590Y-105850000D01*
X82025000Y-105850000D01*
X82025000Y-106134246D01*
X82044215Y-106230845D01*
X82081906Y-106321839D01*
X82136625Y-106403732D01*
X82206269Y-106473376D01*
X82288161Y-106528094D01*
X82379156Y-106565785D01*
X82475755Y-106585000D01*
X83500000Y-106585000D01*
X83625000Y-106460000D01*
X83625000Y-105725000D01*
X83645000Y-105725000D01*
X83645000Y-106460000D01*
X83770000Y-106585000D01*
X84162988Y-106585000D01*
X84153274Y-106594513D01*
X84031399Y-106772507D01*
X83946417Y-106970784D01*
X83901566Y-107181791D01*
X83898555Y-107397491D01*
X83937496Y-107609668D01*
X84016909Y-107810240D01*
X84133766Y-107991568D01*
X84283619Y-108146745D01*
X84460758Y-108269860D01*
X84658437Y-108356224D01*
X84869125Y-108402547D01*
X85084799Y-108407064D01*
X85297243Y-108369605D01*
X85498365Y-108291595D01*
X85680504Y-108176006D01*
X85836723Y-108027240D01*
X85961072Y-107850965D01*
X86048814Y-107653894D01*
X86096606Y-107443534D01*
X86100047Y-107197139D01*
X86058146Y-106985527D01*
X85975941Y-106786083D01*
X85856563Y-106606404D01*
X85835308Y-106585000D01*
X86230000Y-106585000D01*
X86355000Y-106460000D01*
X86355000Y-105725000D01*
X86375000Y-105725000D01*
X86375000Y-106460000D01*
X86500000Y-106585000D01*
X87524245Y-106585000D01*
X87620844Y-106565785D01*
X87711839Y-106528094D01*
X87793731Y-106473376D01*
X87799841Y-106467266D01*
X94198948Y-106467266D01*
X94227270Y-106621577D01*
X94285024Y-106767448D01*
X94370012Y-106899323D01*
X94478995Y-107012179D01*
X94607824Y-107101717D01*
X94751590Y-107164527D01*
X94904818Y-107198216D01*
X95061672Y-107201502D01*
X95216177Y-107174258D01*
X95362447Y-107117524D01*
X95390060Y-107100000D01*
X100205354Y-107100000D01*
X100207824Y-107101717D01*
X100351590Y-107164527D01*
X100504818Y-107198216D01*
X100661672Y-107201502D01*
X100816177Y-107174258D01*
X100962447Y-107117524D01*
X101094912Y-107033459D01*
X101208526Y-106925266D01*
X101298962Y-106797066D01*
X101362774Y-106653741D01*
X101397532Y-106500752D01*
X101400034Y-106321556D01*
X101369561Y-106167656D01*
X101309776Y-106022605D01*
X101300000Y-106007891D01*
X101300000Y-105850000D01*
X112025000Y-105850000D01*
X112025000Y-106134246D01*
X112044215Y-106230845D01*
X112081906Y-106321839D01*
X112136625Y-106403732D01*
X112206269Y-106473376D01*
X112288161Y-106528094D01*
X112379156Y-106565785D01*
X112475755Y-106585000D01*
X113500000Y-106585000D01*
X113625000Y-106460000D01*
X113625000Y-105725000D01*
X113645000Y-105725000D01*
X113645000Y-106460000D01*
X113770000Y-106585000D01*
X114162988Y-106585000D01*
X114153274Y-106594513D01*
X114031399Y-106772507D01*
X113946417Y-106970784D01*
X113901566Y-107181791D01*
X113898555Y-107397491D01*
X113937496Y-107609668D01*
X114016909Y-107810240D01*
X114133766Y-107991568D01*
X114283619Y-108146745D01*
X114460758Y-108269860D01*
X114658437Y-108356224D01*
X114869125Y-108402547D01*
X115084799Y-108407064D01*
X115297243Y-108369605D01*
X115498365Y-108291595D01*
X115680504Y-108176006D01*
X115836723Y-108027240D01*
X115961072Y-107850965D01*
X116048814Y-107653894D01*
X116096606Y-107443534D01*
X116100047Y-107197139D01*
X116058146Y-106985527D01*
X115975941Y-106786083D01*
X115856563Y-106606404D01*
X115835308Y-106585000D01*
X116230000Y-106585000D01*
X116355000Y-106460000D01*
X116355000Y-105725000D01*
X116375000Y-105725000D01*
X116375000Y-106460000D01*
X116500000Y-106585000D01*
X117524245Y-106585000D01*
X117620844Y-106565785D01*
X117711839Y-106528094D01*
X117793731Y-106473376D01*
X117863375Y-106403732D01*
X117918094Y-106321839D01*
X117955785Y-106230845D01*
X117975000Y-106134246D01*
X117975000Y-105850000D01*
X117850000Y-105725000D01*
X116375000Y-105725000D01*
X116355000Y-105725000D01*
X113645000Y-105725000D01*
X113625000Y-105725000D01*
X112150000Y-105725000D01*
X112025000Y-105850000D01*
X101300000Y-105850000D01*
X101300000Y-98189950D01*
X101542978Y-97946972D01*
X101569863Y-97933036D01*
X101680444Y-97844760D01*
X101687652Y-97837652D01*
X102749314Y-96775991D01*
X102845330Y-96797101D01*
X103100217Y-96802440D01*
X103351287Y-96758170D01*
X103588977Y-96665976D01*
X103804232Y-96529371D01*
X103988855Y-96353557D01*
X104135813Y-96145231D01*
X104239507Y-95912329D01*
X104295990Y-95663722D01*
X104300056Y-95372528D01*
X104250537Y-95122441D01*
X104153386Y-94886734D01*
X104012302Y-94674386D01*
X103832661Y-94493486D01*
X103621303Y-94350924D01*
X103386280Y-94252129D01*
X103136544Y-94200866D01*
X102881608Y-94199086D01*
X102631180Y-94246858D01*
X102394801Y-94342361D01*
X102181474Y-94481959D01*
X101999324Y-94660333D01*
X101965298Y-94710027D01*
X101842340Y-94671803D01*
X101014142Y-95500000D01*
X101028285Y-95514142D01*
X101014142Y-95528285D01*
X101000000Y-95514142D01*
X100171803Y-96342340D01*
X100240294Y-96562658D01*
X100462206Y-96690451D01*
X100702854Y-96771842D01*
X100662348Y-96812348D01*
X100572537Y-96921686D01*
X100554239Y-96955811D01*
X100105025Y-97405025D01*
X100063959Y-97455019D01*
X100022421Y-97504523D01*
X100020648Y-97507748D01*
X100018311Y-97510593D01*
X99987752Y-97567585D01*
X99956605Y-97624241D01*
X99955492Y-97627750D01*
X99953753Y-97630993D01*
X99934844Y-97692842D01*
X99915297Y-97754462D01*
X99914887Y-97758117D01*
X99913810Y-97761640D01*
X99907273Y-97825993D01*
X99900068Y-97890226D01*
X99900018Y-97897419D01*
X99900004Y-97897556D01*
X99900016Y-97897684D01*
X99900000Y-97900000D01*
X99900000Y-105700000D01*
X95392903Y-105700000D01*
X95382341Y-105692876D01*
X95237711Y-105632079D01*
X95084027Y-105600533D01*
X94927143Y-105599437D01*
X94773034Y-105628835D01*
X94627570Y-105687607D01*
X94496291Y-105773513D01*
X94384199Y-105883282D01*
X94295562Y-106012732D01*
X94233758Y-106156934D01*
X94201139Y-106310393D01*
X94198948Y-106467266D01*
X87799841Y-106467266D01*
X87863375Y-106403732D01*
X87918094Y-106321839D01*
X87955785Y-106230845D01*
X87975000Y-106134246D01*
X87975000Y-105850000D01*
X87850000Y-105725000D01*
X86375000Y-105725000D01*
X86355000Y-105725000D01*
X83645000Y-105725000D01*
X83625000Y-105725000D01*
X82150000Y-105725000D01*
X82025000Y-105850000D01*
X81520590Y-105850000D01*
X81358284Y-105165491D01*
X81502271Y-105244648D01*
X81664117Y-105295988D01*
X81832853Y-105314915D01*
X81845000Y-105315000D01*
X82025000Y-105315000D01*
X82025000Y-105580000D01*
X82150000Y-105705000D01*
X83625000Y-105705000D01*
X83625000Y-105685000D01*
X83645000Y-105685000D01*
X83645000Y-105705000D01*
X86355000Y-105705000D01*
X86355000Y-105685000D01*
X86375000Y-105685000D01*
X86375000Y-105705000D01*
X87850000Y-105705000D01*
X87975000Y-105580000D01*
X87975000Y-105315000D01*
X88155000Y-105315000D01*
X88323984Y-105298431D01*
X88486531Y-105249355D01*
X88636451Y-105169641D01*
X88768032Y-105062327D01*
X88876263Y-104931498D01*
X88957021Y-104782139D01*
X89007230Y-104619938D01*
X89024979Y-104451074D01*
X89009590Y-104281978D01*
X88961650Y-104119092D01*
X88882985Y-103968620D01*
X88776591Y-103836293D01*
X88755659Y-103818729D01*
X88788032Y-103792327D01*
X88896263Y-103661498D01*
X88977021Y-103512139D01*
X89027230Y-103349938D01*
X89044979Y-103181074D01*
X89029590Y-103011978D01*
X88981650Y-102849092D01*
X88902985Y-102698620D01*
X88796591Y-102566293D01*
X88775659Y-102548729D01*
X88808032Y-102522327D01*
X88916263Y-102391498D01*
X88997021Y-102242139D01*
X89047230Y-102079938D01*
X89053501Y-102020276D01*
X89068303Y-102030564D01*
X89221055Y-102097300D01*
X89383860Y-102133095D01*
X89550517Y-102136586D01*
X89714678Y-102107640D01*
X89870090Y-102047359D01*
X90010834Y-101958040D01*
X90131549Y-101843085D01*
X90227637Y-101706872D01*
X90295437Y-101554590D01*
X90332368Y-101392039D01*
X90335027Y-101201643D01*
X90302649Y-101038124D01*
X90239127Y-100884008D01*
X90146880Y-100745166D01*
X90029422Y-100626885D01*
X89891227Y-100533671D01*
X89737558Y-100469074D01*
X89574269Y-100435556D01*
X89407580Y-100434392D01*
X89243838Y-100465627D01*
X89089283Y-100528072D01*
X89028325Y-100567962D01*
X89019590Y-100471978D01*
X88971650Y-100309092D01*
X88892985Y-100158620D01*
X88786591Y-100026293D01*
X88755802Y-100000458D01*
X88778032Y-99982327D01*
X88886263Y-99851498D01*
X88967021Y-99702139D01*
X89017230Y-99539938D01*
X89034979Y-99371074D01*
X89019590Y-99201978D01*
X88971650Y-99039092D01*
X88892985Y-98888620D01*
X88786591Y-98756293D01*
X88770588Y-98742865D01*
X88808032Y-98712327D01*
X88916263Y-98581498D01*
X88997021Y-98432139D01*
X89047230Y-98269938D01*
X89064979Y-98101074D01*
X89049590Y-97931978D01*
X89001650Y-97769092D01*
X88922985Y-97618620D01*
X88816591Y-97486293D01*
X88775944Y-97452186D01*
X88788032Y-97442327D01*
X88896263Y-97311498D01*
X88977021Y-97162139D01*
X89027230Y-96999938D01*
X89044979Y-96831074D01*
X89029590Y-96661978D01*
X88981650Y-96499092D01*
X88902985Y-96348620D01*
X88796591Y-96216293D01*
X88751015Y-96178050D01*
X88758032Y-96172327D01*
X88866263Y-96041498D01*
X88947021Y-95892139D01*
X88997230Y-95729938D01*
X89009909Y-95609308D01*
X95698291Y-95609308D01*
X95744313Y-95860062D01*
X95838164Y-96097102D01*
X95976269Y-96311399D01*
X96153367Y-96494790D01*
X96362714Y-96640289D01*
X96596334Y-96742356D01*
X96845330Y-96797101D01*
X97100217Y-96802440D01*
X97351287Y-96758170D01*
X97588977Y-96665976D01*
X97804232Y-96529371D01*
X97988855Y-96353557D01*
X98000728Y-96336727D01*
X98153367Y-96494790D01*
X98362714Y-96640289D01*
X98596334Y-96742356D01*
X98845330Y-96797101D01*
X99100217Y-96802440D01*
X99351287Y-96758170D01*
X99588977Y-96665976D01*
X99804232Y-96529371D01*
X99988855Y-96353557D01*
X100033888Y-96289719D01*
X100157660Y-96328197D01*
X100985858Y-95500000D01*
X100157660Y-94671803D01*
X100035763Y-94709698D01*
X100012302Y-94674386D01*
X99995693Y-94657660D01*
X100171803Y-94657660D01*
X101000000Y-95485858D01*
X101828197Y-94657660D01*
X101759706Y-94437342D01*
X101537794Y-94309549D01*
X101295216Y-94227505D01*
X101041292Y-94194362D01*
X100785781Y-94211394D01*
X100538502Y-94277946D01*
X100308959Y-94391462D01*
X100240294Y-94437342D01*
X100171803Y-94657660D01*
X99995693Y-94657660D01*
X99832661Y-94493486D01*
X99621303Y-94350924D01*
X99386280Y-94252129D01*
X99136544Y-94200866D01*
X98881608Y-94199086D01*
X98631180Y-94246858D01*
X98394801Y-94342361D01*
X98181474Y-94481959D01*
X97999324Y-94660333D01*
X97998925Y-94660915D01*
X97832661Y-94493486D01*
X97621303Y-94350924D01*
X97386280Y-94252129D01*
X97136544Y-94200866D01*
X96881608Y-94199086D01*
X96631180Y-94246858D01*
X96394801Y-94342361D01*
X96181474Y-94481959D01*
X95999324Y-94660333D01*
X95855289Y-94870690D01*
X95754857Y-95105017D01*
X95701851Y-95354389D01*
X95698291Y-95609308D01*
X89009909Y-95609308D01*
X89014979Y-95561074D01*
X88999590Y-95391978D01*
X88951650Y-95229092D01*
X88872985Y-95078620D01*
X88766591Y-94946293D01*
X88636521Y-94837151D01*
X88487729Y-94755352D01*
X88325883Y-94704012D01*
X88157147Y-94685085D01*
X88145000Y-94685000D01*
X87975000Y-94685000D01*
X87975000Y-94420000D01*
X87850000Y-94295000D01*
X86375000Y-94295000D01*
X86375000Y-94315000D01*
X86355000Y-94315000D01*
X86355000Y-94295000D01*
X83645000Y-94295000D01*
X83645000Y-94315000D01*
X83625000Y-94315000D01*
X83625000Y-94295000D01*
X82150000Y-94295000D01*
X82025000Y-94420000D01*
X82025000Y-94685000D01*
X81845000Y-94685000D01*
X81676016Y-94701569D01*
X81513469Y-94750645D01*
X81363549Y-94830359D01*
X81276635Y-94901244D01*
X81658869Y-93865754D01*
X82025000Y-93865754D01*
X82025000Y-94150000D01*
X82150000Y-94275000D01*
X83625000Y-94275000D01*
X83625000Y-93540000D01*
X83645000Y-93540000D01*
X83645000Y-94275000D01*
X86355000Y-94275000D01*
X86355000Y-93540000D01*
X86375000Y-93540000D01*
X86375000Y-94275000D01*
X87850000Y-94275000D01*
X87975000Y-94150000D01*
X87975000Y-93865754D01*
X87955785Y-93769155D01*
X87918094Y-93678161D01*
X87863375Y-93596268D01*
X87793731Y-93526624D01*
X87742647Y-93492491D01*
X94398555Y-93492491D01*
X94437496Y-93704668D01*
X94516909Y-93905240D01*
X94633766Y-94086568D01*
X94783619Y-94241745D01*
X94960758Y-94364860D01*
X95158437Y-94451224D01*
X95369125Y-94497547D01*
X95584799Y-94502064D01*
X95797243Y-94464605D01*
X95998365Y-94386595D01*
X96180504Y-94271006D01*
X96336723Y-94122240D01*
X96461072Y-93945965D01*
X96548814Y-93748894D01*
X96596606Y-93538534D01*
X96597249Y-93492491D01*
X103398555Y-93492491D01*
X103437496Y-93704668D01*
X103516909Y-93905240D01*
X103633766Y-94086568D01*
X103783619Y-94241745D01*
X103960758Y-94364860D01*
X104158437Y-94451224D01*
X104369125Y-94497547D01*
X104584799Y-94502064D01*
X104797243Y-94464605D01*
X104998365Y-94386595D01*
X105180504Y-94271006D01*
X105336723Y-94122240D01*
X105461072Y-93945965D01*
X105496784Y-93865754D01*
X112025000Y-93865754D01*
X112025000Y-94150000D01*
X112150000Y-94275000D01*
X113625000Y-94275000D01*
X113625000Y-93540000D01*
X113645000Y-93540000D01*
X113645000Y-94275000D01*
X116355000Y-94275000D01*
X116355000Y-93540000D01*
X116375000Y-93540000D01*
X116375000Y-94275000D01*
X117850000Y-94275000D01*
X117975000Y-94150000D01*
X117975000Y-93865754D01*
X117955785Y-93769155D01*
X117918094Y-93678161D01*
X117863375Y-93596268D01*
X117793731Y-93526624D01*
X117711839Y-93471906D01*
X117620844Y-93434215D01*
X117524245Y-93415000D01*
X116500000Y-93415000D01*
X116375000Y-93540000D01*
X116355000Y-93540000D01*
X116230000Y-93415000D01*
X115838303Y-93415000D01*
X115961072Y-93240965D01*
X116048814Y-93043894D01*
X116096606Y-92833534D01*
X116100047Y-92587139D01*
X116058146Y-92375527D01*
X115975941Y-92176083D01*
X115856563Y-91996404D01*
X115704559Y-91843335D01*
X115525718Y-91722705D01*
X115326853Y-91639110D01*
X115115538Y-91595733D01*
X114899822Y-91594227D01*
X114687922Y-91634649D01*
X114487909Y-91715460D01*
X114307401Y-91833581D01*
X114153274Y-91984513D01*
X114031399Y-92162507D01*
X113946417Y-92360784D01*
X113901566Y-92571791D01*
X113898555Y-92787491D01*
X113937496Y-92999668D01*
X114016909Y-93200240D01*
X114133766Y-93381568D01*
X114166051Y-93415000D01*
X113770000Y-93415000D01*
X113645000Y-93540000D01*
X113625000Y-93540000D01*
X113500000Y-93415000D01*
X112475755Y-93415000D01*
X112379156Y-93434215D01*
X112288161Y-93471906D01*
X112206269Y-93526624D01*
X112136625Y-93596268D01*
X112081906Y-93678161D01*
X112044215Y-93769155D01*
X112025000Y-93865754D01*
X105496784Y-93865754D01*
X105548814Y-93748894D01*
X105596606Y-93538534D01*
X105600047Y-93292139D01*
X105558146Y-93080527D01*
X105475941Y-92881083D01*
X105356563Y-92701404D01*
X105204559Y-92548335D01*
X105025718Y-92427705D01*
X104826853Y-92344110D01*
X104615538Y-92300733D01*
X104399822Y-92299227D01*
X104187922Y-92339649D01*
X103987909Y-92420460D01*
X103807401Y-92538581D01*
X103653274Y-92689513D01*
X103531399Y-92867507D01*
X103446417Y-93065784D01*
X103401566Y-93276791D01*
X103398555Y-93492491D01*
X96597249Y-93492491D01*
X96600047Y-93292139D01*
X96558146Y-93080527D01*
X96475941Y-92881083D01*
X96356563Y-92701404D01*
X96204559Y-92548335D01*
X96025718Y-92427705D01*
X95826853Y-92344110D01*
X95615538Y-92300733D01*
X95399822Y-92299227D01*
X95187922Y-92339649D01*
X94987909Y-92420460D01*
X94807401Y-92538581D01*
X94653274Y-92689513D01*
X94531399Y-92867507D01*
X94446417Y-93065784D01*
X94401566Y-93276791D01*
X94398555Y-93492491D01*
X87742647Y-93492491D01*
X87711839Y-93471906D01*
X87620844Y-93434215D01*
X87524245Y-93415000D01*
X86500000Y-93415000D01*
X86375000Y-93540000D01*
X86355000Y-93540000D01*
X86230000Y-93415000D01*
X85838303Y-93415000D01*
X85961072Y-93240965D01*
X86048814Y-93043894D01*
X86096606Y-92833534D01*
X86100047Y-92587139D01*
X86058146Y-92375527D01*
X85975941Y-92176083D01*
X85856563Y-91996404D01*
X85704559Y-91843335D01*
X85525718Y-91722705D01*
X85326853Y-91639110D01*
X85115538Y-91595733D01*
X84899822Y-91594227D01*
X84687922Y-91634649D01*
X84487909Y-91715460D01*
X84307401Y-91833581D01*
X84153274Y-91984513D01*
X84031399Y-92162507D01*
X83946417Y-92360784D01*
X83901566Y-92571791D01*
X83898555Y-92787491D01*
X83937496Y-92999668D01*
X84016909Y-93200240D01*
X84133766Y-93381568D01*
X84166051Y-93415000D01*
X83770000Y-93415000D01*
X83645000Y-93540000D01*
X83625000Y-93540000D01*
X83500000Y-93415000D01*
X82475755Y-93415000D01*
X82379156Y-93434215D01*
X82288161Y-93471906D01*
X82206269Y-93526624D01*
X82136625Y-93596268D01*
X82081906Y-93678161D01*
X82044215Y-93769155D01*
X82025000Y-93865754D01*
X81658869Y-93865754D01*
X82521876Y-91527836D01*
X84510508Y-88277699D01*
X85075493Y-87575000D01*
X114900286Y-87575000D01*
X116931913Y-90483031D01*
M02*
