M48
;DRILL file {KiCad 4.0.2+e4-6225~38~ubuntu14.04.1-stable} date Wed 20 Jul 2016 03:53:57 BST
;FORMAT={-:-/ absolute / metric / decimal}
FMAT,2
METRIC,TZ
T1C0.400
T2C0.800
%
G90
G05
M71
T1
X81.805Y-98.095
X81.805Y-101.905
X81.815Y-94.285
X81.815Y-105.715
X81.825Y-96.825
X81.835Y-99.365
X81.835Y-100.635
X81.845Y-95.555
X81.845Y-104.445
X81.875Y-103.175
X88.145Y-95.555
X88.155Y-104.445
X88.165Y-99.365
X88.165Y-100.635
X88.175Y-96.825
X88.175Y-103.175
X88.185Y-94.285
X88.185Y-105.715
X88.195Y-98.095
X88.195Y-101.905
X89.485Y-101.285
X94.285Y-111.815
X94.285Y-118.185
X95.Y-106.4
X95.555Y-111.845
X95.555Y-118.155
X96.825Y-111.825
X96.825Y-118.125
X98.095Y-111.805
X98.095Y-118.195
X99.365Y-111.865
X99.365Y-118.165
X100.6Y-106.4
X100.635Y-111.835
X100.635Y-118.165
X101.905Y-111.805
X101.905Y-118.195
X103.175Y-111.825
X103.175Y-118.175
X104.445Y-111.845
X104.445Y-118.155
X105.715Y-111.815
X105.715Y-118.115
X111.805Y-98.095
X111.805Y-101.905
X111.815Y-94.285
X111.815Y-105.715
X111.825Y-96.825
X111.835Y-99.365
X111.845Y-95.555
X111.855Y-104.445
X111.865Y-100.635
X111.875Y-103.175
X118.135Y-100.635
X118.155Y-95.555
X118.155Y-104.445
X118.165Y-99.365
X118.175Y-96.825
X118.175Y-103.175
X118.185Y-94.285
X118.185Y-105.715
X118.195Y-98.095
X118.195Y-101.905
T2
X97.Y-95.5
X99.Y-95.5
X101.Y-95.5
X103.Y-95.5
T0
M30
