G04 #@! TF.FileFunction,Copper,L1,Top,Signal*
%FSLAX46Y46*%
G04 Gerber Fmt 4.6, Leading zero omitted, Abs format (unit mm)*
G04 Created by KiCad (PCBNEW 4.0.2+e4-6225~38~ubuntu14.04.1-stable) date Thu 21 Jul 2016 15:42:58 BST*
%MOMM*%
G01*
G04 APERTURE LIST*
%ADD10C,0.100000*%
%ADD11R,1.550000X0.600000*%
%ADD12R,0.520000X0.520000*%
%ADD13R,0.620000X0.620000*%
%ADD14R,0.400000X0.470000*%
%ADD15R,0.500000X0.500000*%
%ADD16R,1.700000X0.950000*%
%ADD17R,2.920000X0.740000*%
%ADD18C,1.600000*%
%ADD19R,0.740000X2.920000*%
%ADD20C,0.700000*%
%ADD21C,0.600000*%
%ADD22C,0.740000*%
%ADD23C,0.180000*%
%ADD24C,0.400000*%
%ADD25C,0.300000*%
%ADD26C,0.200000*%
%ADD27C,0.280000*%
G04 APERTURE END LIST*
D10*
D11*
X102700000Y-105405000D03*
X102700000Y-104135000D03*
X102700000Y-102865000D03*
X102700000Y-101595000D03*
X97300000Y-101595000D03*
X97300000Y-102865000D03*
X97300000Y-104135000D03*
X97300000Y-105405000D03*
D12*
X91100000Y-101300000D03*
X91900000Y-101300000D03*
X91350000Y-105950000D03*
X91350000Y-106750000D03*
D13*
X101550000Y-97100000D03*
X102450000Y-97100000D03*
D14*
X91350000Y-104315000D03*
X92000000Y-104315000D03*
X92650000Y-104315000D03*
X92650000Y-102485000D03*
X92000000Y-102485000D03*
X91350000Y-102485000D03*
D15*
X91650000Y-103400000D03*
X92350000Y-103400000D03*
D16*
X92000000Y-103400000D03*
D17*
X83285000Y-94285000D03*
X86715000Y-94285000D03*
X83285000Y-95555000D03*
X86715000Y-95555000D03*
X83285000Y-96825000D03*
X86715000Y-96825000D03*
X83285000Y-98095000D03*
X86715000Y-98095000D03*
X83285000Y-99365000D03*
X86715000Y-99365000D03*
X83285000Y-100635000D03*
X86715000Y-100635000D03*
X83285000Y-101905000D03*
X86715000Y-101905000D03*
X83285000Y-103175000D03*
X86715000Y-103175000D03*
X83285000Y-104445000D03*
X86715000Y-104445000D03*
X83285000Y-105715000D03*
X86715000Y-105715000D03*
X113285000Y-94285000D03*
X116715000Y-94285000D03*
X113285000Y-95555000D03*
X116715000Y-95555000D03*
X113285000Y-96825000D03*
X116715000Y-96825000D03*
X113285000Y-98095000D03*
X116715000Y-98095000D03*
X113285000Y-99365000D03*
X116715000Y-99365000D03*
X113285000Y-100635000D03*
X116715000Y-100635000D03*
X113285000Y-101905000D03*
X116715000Y-101905000D03*
X113285000Y-103175000D03*
X116715000Y-103175000D03*
X113285000Y-104445000D03*
X116715000Y-104445000D03*
X113285000Y-105715000D03*
X116715000Y-105715000D03*
D18*
X103000000Y-95500000D03*
X101000000Y-95500000D03*
X99000000Y-95500000D03*
X97000000Y-95500000D03*
D19*
X94285000Y-116715000D03*
X94285000Y-113285000D03*
X95555000Y-116715000D03*
X95555000Y-113285000D03*
X96825000Y-116715000D03*
X96825000Y-113285000D03*
X98095000Y-116715000D03*
X98095000Y-113285000D03*
X99365000Y-116715000D03*
X99365000Y-113285000D03*
X100635000Y-116715000D03*
X100635000Y-113285000D03*
X101905000Y-116715000D03*
X101905000Y-113285000D03*
X103175000Y-116715000D03*
X103175000Y-113285000D03*
X104445000Y-116715000D03*
X104445000Y-113285000D03*
X105715000Y-116715000D03*
X105715000Y-113285000D03*
D12*
X94000000Y-103800000D03*
X94000000Y-103000000D03*
D20*
X89484990Y-101284990D03*
X81835000Y-100635000D03*
D21*
X90000000Y-115000000D03*
X85000000Y-110000000D03*
X100000000Y-110000000D03*
X95000000Y-110000000D03*
X90000000Y-110000000D03*
X101400000Y-100000000D03*
X97300000Y-100000000D03*
X90000000Y-103400000D03*
X91350000Y-107750000D03*
X94000000Y-102000000D03*
X115000000Y-90000000D03*
X95000000Y-95000000D03*
X90000000Y-95000000D03*
X90000000Y-90000000D03*
X85000000Y-90000000D03*
X95000000Y-90000000D03*
X100000000Y-90000000D03*
X105000000Y-90000000D03*
X110000000Y-90000000D03*
X105000000Y-95000000D03*
X110000000Y-95000000D03*
X110000000Y-100000000D03*
X110000000Y-105000000D03*
X115000000Y-110000000D03*
X110000000Y-115000000D03*
X110000000Y-110000000D03*
X105000000Y-110000000D03*
X102500000Y-100000000D03*
X90000000Y-105000000D03*
X90000000Y-100000000D03*
X95000000Y-100000000D03*
D20*
X118185000Y-105715000D03*
X118185000Y-94285000D03*
X111815000Y-94285000D03*
X111815000Y-105715000D03*
X94285000Y-118185000D03*
X105715000Y-118115000D03*
X105715000Y-111815000D03*
X94285000Y-111815000D03*
X81815000Y-105715000D03*
X88185000Y-105715000D03*
X88185000Y-94285000D03*
X81815000Y-94285000D03*
D21*
X104400000Y-105400000D03*
X95400000Y-105950000D03*
D20*
X104445000Y-111845000D03*
X103175000Y-111825000D03*
X81845000Y-95555000D03*
X88145000Y-95555000D03*
X81825000Y-96825000D03*
X88175000Y-96825000D03*
X81805000Y-98095000D03*
X88195000Y-98095000D03*
X81835000Y-99365000D03*
X88165000Y-99365000D03*
X88165000Y-100635000D03*
X81805000Y-101905000D03*
X88195000Y-101905000D03*
X81875000Y-103175000D03*
X88175000Y-103175000D03*
X81845000Y-104445000D03*
X88155000Y-104445000D03*
X118155000Y-95555000D03*
X111845000Y-95555000D03*
X118175000Y-96825000D03*
X111825000Y-96825000D03*
X111805000Y-98095000D03*
X118195000Y-98095000D03*
X111835000Y-99365000D03*
X118165000Y-99365000D03*
X111865000Y-100635000D03*
X118135000Y-100635000D03*
X111805000Y-101905000D03*
X118195000Y-101905000D03*
X111875000Y-103175000D03*
X118175000Y-103175000D03*
X118155000Y-104445000D03*
X111855000Y-104445000D03*
X95555000Y-118155000D03*
X95555000Y-111845000D03*
X96825000Y-118125000D03*
X96825000Y-111825000D03*
X98095000Y-118195000D03*
X98095000Y-111805000D03*
X99365000Y-118165000D03*
X99365000Y-111865000D03*
X100635000Y-118165000D03*
X100635000Y-111835000D03*
X101905000Y-118195000D03*
X101905000Y-111805000D03*
X103175000Y-118175000D03*
X104445000Y-118155000D03*
D22*
X83285000Y-100635000D02*
X81835000Y-100635000D01*
D23*
X84375000Y-100635000D02*
X85024990Y-101284990D01*
X85024990Y-101284990D02*
X89484990Y-101284990D01*
D24*
X91100000Y-101300000D02*
X89500000Y-101300000D01*
X89500000Y-101300000D02*
X89484990Y-101284990D01*
D25*
X91350000Y-102485000D02*
X91350000Y-101875000D01*
X91350000Y-101875000D02*
X91100000Y-101625000D01*
X91100000Y-101625000D02*
X91100000Y-101300000D01*
D26*
X83285000Y-100635000D02*
X84375000Y-100635000D01*
D23*
X85000000Y-110000000D02*
X90000000Y-115000000D01*
X95000000Y-110000000D02*
X100000000Y-110000000D01*
X90000000Y-105000000D02*
X90000000Y-110000000D01*
X102500000Y-100000000D02*
X101400000Y-100000000D01*
X97300000Y-101595000D02*
X97300000Y-100000000D01*
X90970000Y-103400000D02*
X90000000Y-103400000D01*
X92000000Y-103400000D02*
X90970000Y-103400000D01*
X91350000Y-106750000D02*
X91350000Y-107750000D01*
X94000000Y-103000000D02*
X94000000Y-102000000D01*
X110000000Y-90000000D02*
X115000000Y-90000000D01*
X90000000Y-90000000D02*
X90000000Y-95000000D01*
X90000000Y-90000000D02*
X85000000Y-90000000D01*
X95000000Y-90000000D02*
X90000000Y-90000000D01*
X105000000Y-90000000D02*
X100000000Y-90000000D01*
X105000000Y-95000000D02*
X110000000Y-90000000D01*
X110000000Y-105000000D02*
X110000000Y-100000000D01*
X110000000Y-110000000D02*
X110000000Y-115000000D01*
X105000000Y-110000000D02*
X110000000Y-110000000D01*
X102700000Y-101595000D02*
X102700000Y-100200000D01*
X102700000Y-100200000D02*
X102500000Y-100000000D01*
X91660000Y-107500000D02*
X92500000Y-107500000D01*
X91350000Y-106750000D02*
X91350000Y-107190000D01*
X91350000Y-107190000D02*
X91660000Y-107500000D01*
X95905000Y-101595000D02*
X95000000Y-102500000D01*
X97300000Y-101595000D02*
X95905000Y-101595000D01*
D24*
X101550000Y-97100000D02*
X101550000Y-96050000D01*
X101550000Y-96050000D02*
X101000000Y-95500000D01*
D26*
X92750000Y-101500000D02*
X92550000Y-101300000D01*
X92550000Y-101300000D02*
X91900000Y-101300000D01*
X92750000Y-101750000D02*
X92750000Y-101500000D01*
X92650000Y-101850000D02*
X92750000Y-101750000D01*
X92650000Y-102485000D02*
X92650000Y-101850000D01*
X92000000Y-103400000D02*
X92150000Y-103400000D01*
X92150000Y-103400000D02*
X92650000Y-102900000D01*
D25*
X92650000Y-102485000D02*
X92650000Y-102900000D01*
X92000000Y-102485000D02*
X92000000Y-103400000D01*
D22*
X116715000Y-105715000D02*
X118185000Y-105715000D01*
X116715000Y-94285000D02*
X118185000Y-94285000D01*
X113285000Y-94285000D02*
X116715000Y-94285000D01*
X113285000Y-94285000D02*
X111815000Y-94285000D01*
X113285000Y-105715000D02*
X111815000Y-105715000D01*
X113285000Y-105715000D02*
X116715000Y-105715000D01*
X94285000Y-111815000D02*
X94285000Y-118185000D01*
X105715000Y-111815000D02*
X105715000Y-113285000D01*
X105715000Y-118115000D02*
X105715000Y-116715000D01*
X105715000Y-116715000D02*
X105715000Y-113285000D01*
X81815000Y-105715000D02*
X88185000Y-105715000D01*
X86715000Y-94285000D02*
X88185000Y-94285000D01*
X83285000Y-94285000D02*
X86715000Y-94285000D01*
X81815000Y-94285000D02*
X83285000Y-94285000D01*
D24*
X104400000Y-105400000D02*
X105000000Y-104800000D01*
X102700000Y-105405000D02*
X104395000Y-105405000D01*
X104395000Y-105405000D02*
X104400000Y-105400000D01*
X102450000Y-97100000D02*
X102450000Y-96050000D01*
X102450000Y-96050000D02*
X103000000Y-95500000D01*
X105000000Y-104800000D02*
X105000000Y-101050000D01*
X105000000Y-101050000D02*
X102450000Y-98500000D01*
X102450000Y-98500000D02*
X102450000Y-97100000D01*
X95450000Y-105950000D02*
X95995000Y-105405000D01*
D25*
X94550000Y-105950000D02*
X95450000Y-105950000D01*
X91350000Y-105950000D02*
X94550000Y-105950000D01*
X91350000Y-104850000D02*
X91350000Y-105950000D01*
D24*
X95995000Y-105405000D02*
X97300000Y-105405000D01*
D25*
X102170000Y-105405000D02*
X102700000Y-105405000D01*
X91350000Y-104850000D02*
X91350000Y-104315000D01*
X93625000Y-105000000D02*
X94000000Y-104625000D01*
X94000000Y-104625000D02*
X94000000Y-103800000D01*
X92275000Y-105000000D02*
X93625000Y-105000000D01*
X92000000Y-104725000D02*
X92275000Y-105000000D01*
X92000000Y-104315000D02*
X92000000Y-104725000D01*
D24*
X99250000Y-99250000D02*
X97000000Y-97000000D01*
X97000000Y-97000000D02*
X97000000Y-96631384D01*
X99250000Y-101860000D02*
X99250000Y-99250000D01*
X99250000Y-101860000D02*
X101525000Y-104135000D01*
X101525000Y-104135000D02*
X102700000Y-104135000D01*
X97000000Y-95500000D02*
X97000000Y-96631384D01*
X100250000Y-98750000D02*
X99000000Y-97500000D01*
X99000000Y-97500000D02*
X99000000Y-95500000D01*
X100250000Y-101590000D02*
X100250000Y-98750000D01*
X102700000Y-102865000D02*
X101525000Y-102865000D01*
X101525000Y-102865000D02*
X100250000Y-101590000D01*
X100094974Y-107000000D02*
X104445000Y-111350026D01*
X104445000Y-111350026D02*
X104445000Y-111845000D01*
X97300000Y-102865000D02*
X98475000Y-102865000D01*
X98475000Y-102865000D02*
X100094974Y-104484974D01*
X100094974Y-104484974D02*
X100094974Y-107000000D01*
D22*
X104445000Y-111845000D02*
X104445000Y-113285000D01*
D24*
X99000000Y-107036410D02*
X99000000Y-105000000D01*
X99000000Y-105000000D02*
X99000000Y-104760000D01*
X97300000Y-104135000D02*
X98475000Y-104135000D01*
X98475000Y-104135000D02*
X99000000Y-104660000D01*
X99000000Y-104660000D02*
X99000000Y-105000000D01*
X103175000Y-111825000D02*
X103175000Y-111211410D01*
X103175000Y-111211410D02*
X99000000Y-107036410D01*
D25*
X99000000Y-104760000D02*
X98375000Y-104135000D01*
X98375000Y-104135000D02*
X97300000Y-104135000D01*
D22*
X103175000Y-111825000D02*
X103175000Y-113285000D01*
X83285000Y-95555000D02*
X81845000Y-95555000D01*
X88145000Y-95555000D02*
X86715000Y-95555000D01*
X83285000Y-96825000D02*
X81825000Y-96825000D01*
X88175000Y-96825000D02*
X86715000Y-96825000D01*
X83285000Y-98095000D02*
X81805000Y-98095000D01*
X88195000Y-98095000D02*
X86715000Y-98095000D01*
X81835000Y-99365000D02*
X83285000Y-99365000D01*
X88165000Y-99365000D02*
X86715000Y-99365000D01*
X88165000Y-100635000D02*
X86715000Y-100635000D01*
X81805000Y-101905000D02*
X83285000Y-101905000D01*
X88195000Y-101905000D02*
X86715000Y-101905000D01*
X81875000Y-103175000D02*
X83285000Y-103175000D01*
X88175000Y-103175000D02*
X86715000Y-103175000D01*
X81845000Y-104445000D02*
X83285000Y-104445000D01*
X88155000Y-104445000D02*
X86715000Y-104445000D01*
X113285000Y-95555000D02*
X116715000Y-95555000D01*
X116715000Y-95555000D02*
X118155000Y-95555000D01*
X113285000Y-95555000D02*
X111845000Y-95555000D01*
X113285000Y-96825000D02*
X116715000Y-96825000D01*
X116715000Y-96825000D02*
X118175000Y-96825000D01*
X113285000Y-96825000D02*
X111825000Y-96825000D01*
X113285000Y-98095000D02*
X111805000Y-98095000D01*
X116715000Y-98095000D02*
X118195000Y-98095000D01*
X113285000Y-99365000D02*
X111835000Y-99365000D01*
X116715000Y-99365000D02*
X118165000Y-99365000D01*
X113285000Y-100635000D02*
X111865000Y-100635000D01*
X116715000Y-100635000D02*
X118135000Y-100635000D01*
X113285000Y-101905000D02*
X111805000Y-101905000D01*
X116715000Y-101905000D02*
X118195000Y-101905000D01*
X113285000Y-103175000D02*
X111875000Y-103175000D01*
X116715000Y-103175000D02*
X118175000Y-103175000D01*
X116715000Y-104445000D02*
X118155000Y-104445000D01*
X113285000Y-104445000D02*
X116715000Y-104445000D01*
X113285000Y-104445000D02*
X111855000Y-104445000D01*
X95555000Y-118155000D02*
X95555000Y-116715000D01*
X95555000Y-111845000D02*
X95555000Y-113285000D01*
X96825000Y-118125000D02*
X96825000Y-116715000D01*
X96825000Y-111825000D02*
X96825000Y-113285000D01*
X98095000Y-118195000D02*
X98095000Y-116715000D01*
X98095000Y-111805000D02*
X98095000Y-113285000D01*
X99365000Y-118165000D02*
X99365000Y-116715000D01*
X99365000Y-111865000D02*
X99365000Y-113285000D01*
X100635000Y-118165000D02*
X100635000Y-116715000D01*
X100635000Y-111835000D02*
X100635000Y-113285000D01*
X101905000Y-118195000D02*
X101905000Y-116715000D01*
X101905000Y-111805000D02*
X101905000Y-113285000D01*
X103175000Y-118175000D02*
X103175000Y-116715000D01*
X104445000Y-118155000D02*
X104445000Y-116715000D01*
D27*
G36*
X116984469Y-90453495D02*
X118324587Y-93500708D01*
X118303343Y-93491909D01*
X118218336Y-93475000D01*
X116830000Y-93475000D01*
X116720000Y-93585000D01*
X116720000Y-94280000D01*
X116740000Y-94280000D01*
X116740000Y-94290000D01*
X116720000Y-94290000D01*
X116720000Y-94310000D01*
X116710000Y-94310000D01*
X116710000Y-94290000D01*
X113290000Y-94290000D01*
X113290000Y-94310000D01*
X113280000Y-94310000D01*
X113280000Y-94290000D01*
X111495000Y-94290000D01*
X111385000Y-94400000D01*
X111385000Y-94698336D01*
X111401909Y-94783343D01*
X111433902Y-94860581D01*
X111396753Y-94880334D01*
X111274246Y-94980248D01*
X111173480Y-95102054D01*
X111098291Y-95241112D01*
X111051544Y-95392127D01*
X111035020Y-95549345D01*
X111049347Y-95706779D01*
X111093981Y-95858431D01*
X111167221Y-95998526D01*
X111266277Y-96121727D01*
X111338018Y-96181925D01*
X111254246Y-96250248D01*
X111153480Y-96372054D01*
X111078291Y-96511112D01*
X111031544Y-96662127D01*
X111015020Y-96819345D01*
X111029347Y-96976779D01*
X111073981Y-97128431D01*
X111147221Y-97268526D01*
X111246277Y-97391727D01*
X111318018Y-97451925D01*
X111234246Y-97520248D01*
X111133480Y-97642054D01*
X111058291Y-97781112D01*
X111011544Y-97932127D01*
X110995020Y-98089345D01*
X111009347Y-98246779D01*
X111053981Y-98398431D01*
X111127221Y-98538526D01*
X111226277Y-98661727D01*
X111322663Y-98742604D01*
X111264246Y-98790248D01*
X111163480Y-98912054D01*
X111088291Y-99051112D01*
X111041544Y-99202127D01*
X111025020Y-99359345D01*
X111039347Y-99516779D01*
X111083981Y-99668431D01*
X111157221Y-99808526D01*
X111256277Y-99931727D01*
X111352663Y-100012604D01*
X111294246Y-100060248D01*
X111193480Y-100182054D01*
X111118291Y-100321112D01*
X111071544Y-100472127D01*
X111055020Y-100629345D01*
X111069347Y-100786779D01*
X111113981Y-100938431D01*
X111187221Y-101078526D01*
X111286277Y-101201727D01*
X111338303Y-101245382D01*
X111234246Y-101330248D01*
X111133480Y-101452054D01*
X111058291Y-101591112D01*
X111011544Y-101742127D01*
X110995020Y-101899345D01*
X111009347Y-102056779D01*
X111053981Y-102208431D01*
X111127221Y-102348526D01*
X111226277Y-102471727D01*
X111342379Y-102569148D01*
X111304246Y-102600248D01*
X111203480Y-102722054D01*
X111128291Y-102861112D01*
X111081544Y-103012127D01*
X111065020Y-103169345D01*
X111079347Y-103326779D01*
X111123981Y-103478431D01*
X111197221Y-103618526D01*
X111296277Y-103741727D01*
X111368018Y-103801925D01*
X111284246Y-103870248D01*
X111183480Y-103992054D01*
X111108291Y-104131112D01*
X111061544Y-104282127D01*
X111045020Y-104439345D01*
X111059347Y-104596779D01*
X111103981Y-104748431D01*
X111177221Y-104888526D01*
X111276277Y-105011727D01*
X111397377Y-105113342D01*
X111436306Y-105134743D01*
X111435077Y-105136582D01*
X111401909Y-105216657D01*
X111385000Y-105301664D01*
X111385000Y-105600000D01*
X111495000Y-105710000D01*
X113280000Y-105710000D01*
X113280000Y-105690000D01*
X113290000Y-105690000D01*
X113290000Y-105710000D01*
X116710000Y-105710000D01*
X116710000Y-105690000D01*
X116720000Y-105690000D01*
X116720000Y-105710000D01*
X116740000Y-105710000D01*
X116740000Y-105720000D01*
X116720000Y-105720000D01*
X116720000Y-106415000D01*
X116830000Y-106525000D01*
X118218336Y-106525000D01*
X118269844Y-106514754D01*
X117412006Y-108742424D01*
X115382318Y-111957938D01*
X112766722Y-114717974D01*
X109664847Y-116917407D01*
X106493473Y-118338633D01*
X106508091Y-118303343D01*
X106525000Y-118218336D01*
X106525000Y-116830000D01*
X106415000Y-116720000D01*
X105720000Y-116720000D01*
X105720000Y-116740000D01*
X105710000Y-116740000D01*
X105710000Y-116720000D01*
X105690000Y-116720000D01*
X105690000Y-116710000D01*
X105710000Y-116710000D01*
X105710000Y-113290000D01*
X105720000Y-113290000D01*
X105720000Y-116710000D01*
X106415000Y-116710000D01*
X106525000Y-116600000D01*
X106525000Y-115689489D01*
X106627694Y-115795832D01*
X106795171Y-115912232D01*
X106982067Y-115993884D01*
X107181264Y-116037681D01*
X107385174Y-116041952D01*
X107586030Y-116006536D01*
X107776181Y-115932781D01*
X107948386Y-115823496D01*
X108096084Y-115682845D01*
X108213650Y-115516185D01*
X108296606Y-115329863D01*
X108341792Y-115130977D01*
X108345044Y-114898023D01*
X108305430Y-114697953D01*
X108227708Y-114509387D01*
X108114842Y-114339509D01*
X107971128Y-114194789D01*
X107802043Y-114080739D01*
X107614024Y-114001704D01*
X107414236Y-113960693D01*
X107210286Y-113959269D01*
X107009944Y-113997486D01*
X106820841Y-114073889D01*
X106650179Y-114185567D01*
X106525000Y-114308151D01*
X106525000Y-113400000D01*
X106415000Y-113290000D01*
X105720000Y-113290000D01*
X105710000Y-113290000D01*
X105690000Y-113290000D01*
X105690000Y-113280000D01*
X105710000Y-113280000D01*
X105710000Y-111495000D01*
X105720000Y-111495000D01*
X105720000Y-113280000D01*
X106415000Y-113280000D01*
X106525000Y-113170000D01*
X106525000Y-111781664D01*
X106508091Y-111696657D01*
X106474923Y-111616582D01*
X106426770Y-111544516D01*
X106365483Y-111483230D01*
X106293418Y-111435077D01*
X106213343Y-111401909D01*
X106128336Y-111385000D01*
X105830000Y-111385000D01*
X105720000Y-111495000D01*
X105710000Y-111495000D01*
X105600000Y-111385000D01*
X105301664Y-111385000D01*
X105216657Y-111401909D01*
X105139419Y-111433902D01*
X105119666Y-111396753D01*
X105085000Y-111354248D01*
X105085000Y-111350026D01*
X105079239Y-111291272D01*
X105074079Y-111232297D01*
X105073139Y-111229062D01*
X105072811Y-111225716D01*
X105055739Y-111169170D01*
X105039231Y-111112351D01*
X105037681Y-111109361D01*
X105036709Y-111106141D01*
X105008948Y-111053929D01*
X104981749Y-111001457D01*
X104979652Y-110998830D01*
X104978070Y-110995855D01*
X104940700Y-110950035D01*
X104903823Y-110903840D01*
X104899201Y-110899153D01*
X104899125Y-110899060D01*
X104899039Y-110898989D01*
X104897549Y-110897478D01*
X100734974Y-106734904D01*
X100734974Y-104484974D01*
X100729209Y-104426175D01*
X100724053Y-104367245D01*
X100723113Y-104364010D01*
X100722785Y-104360664D01*
X100705717Y-104304131D01*
X100689205Y-104247298D01*
X100687655Y-104244307D01*
X100686683Y-104241089D01*
X100658910Y-104188856D01*
X100642929Y-104158025D01*
X101072452Y-104587548D01*
X101118047Y-104625000D01*
X101163421Y-104663073D01*
X101166373Y-104664696D01*
X101168971Y-104666830D01*
X101221013Y-104694734D01*
X101272877Y-104723247D01*
X101276089Y-104724266D01*
X101279051Y-104725854D01*
X101335593Y-104743141D01*
X101391937Y-104761014D01*
X101395276Y-104761389D01*
X101398499Y-104762374D01*
X101457337Y-104768350D01*
X101516064Y-104774938D01*
X101522644Y-104774984D01*
X101522766Y-104774996D01*
X101522879Y-104774985D01*
X101525000Y-104775000D01*
X101631111Y-104775000D01*
X101551503Y-104868405D01*
X101500376Y-104981826D01*
X101482872Y-105105000D01*
X101482872Y-105705000D01*
X101488459Y-105775068D01*
X101525263Y-105893911D01*
X101593718Y-105997796D01*
X101688405Y-106078497D01*
X101801826Y-106129624D01*
X101925000Y-106147128D01*
X103475000Y-106147128D01*
X103545068Y-106141541D01*
X103663911Y-106104737D01*
X103754566Y-106045000D01*
X104031355Y-106045000D01*
X104037237Y-106049088D01*
X104170221Y-106107188D01*
X104311957Y-106138350D01*
X104457047Y-106141389D01*
X104599964Y-106116189D01*
X104735264Y-106063710D01*
X104857794Y-105985950D01*
X104962887Y-105885871D01*
X105002299Y-105830000D01*
X111385000Y-105830000D01*
X111385000Y-106128336D01*
X111401909Y-106213343D01*
X111435077Y-106293418D01*
X111483230Y-106365483D01*
X111544516Y-106426770D01*
X111616582Y-106474923D01*
X111696657Y-106508091D01*
X111781664Y-106525000D01*
X113170000Y-106525000D01*
X113280000Y-106415000D01*
X113280000Y-105720000D01*
X113290000Y-105720000D01*
X113290000Y-106415000D01*
X113400000Y-106525000D01*
X114310017Y-106525000D01*
X114199459Y-106633266D01*
X114084231Y-106801552D01*
X114003885Y-106989014D01*
X113961481Y-107188511D01*
X113958633Y-107392446D01*
X113995451Y-107593050D01*
X114070531Y-107782682D01*
X114181015Y-107954119D01*
X114322694Y-108100832D01*
X114490171Y-108217232D01*
X114677067Y-108298884D01*
X114876264Y-108342681D01*
X115080174Y-108346952D01*
X115281030Y-108311536D01*
X115471181Y-108237781D01*
X115643386Y-108128496D01*
X115791084Y-107987845D01*
X115908650Y-107821185D01*
X115991606Y-107634863D01*
X116036792Y-107435977D01*
X116040044Y-107203023D01*
X116000430Y-107002953D01*
X115922708Y-106814387D01*
X115809842Y-106644509D01*
X115691164Y-106525000D01*
X116600000Y-106525000D01*
X116710000Y-106415000D01*
X116710000Y-105720000D01*
X113290000Y-105720000D01*
X113280000Y-105720000D01*
X111495000Y-105720000D01*
X111385000Y-105830000D01*
X105002299Y-105830000D01*
X105046540Y-105767286D01*
X105105566Y-105634711D01*
X105115909Y-105589187D01*
X105452548Y-105252548D01*
X105490022Y-105206927D01*
X105528073Y-105161579D01*
X105529696Y-105158627D01*
X105531830Y-105156029D01*
X105559734Y-105103987D01*
X105588247Y-105052123D01*
X105589266Y-105048911D01*
X105590854Y-105045949D01*
X105608141Y-104989407D01*
X105626014Y-104933063D01*
X105626389Y-104929724D01*
X105627374Y-104926501D01*
X105633350Y-104867663D01*
X105639938Y-104808936D01*
X105639984Y-104802356D01*
X105639996Y-104802234D01*
X105639985Y-104802121D01*
X105640000Y-104800000D01*
X105640000Y-101050000D01*
X105634239Y-100991246D01*
X105629079Y-100932271D01*
X105628139Y-100929036D01*
X105627811Y-100925690D01*
X105610752Y-100869190D01*
X105594232Y-100812325D01*
X105592680Y-100809331D01*
X105591709Y-100806115D01*
X105563967Y-100753938D01*
X105536749Y-100701431D01*
X105534652Y-100698804D01*
X105533070Y-100695829D01*
X105495680Y-100649985D01*
X105458823Y-100603815D01*
X105454202Y-100599129D01*
X105454125Y-100599034D01*
X105454037Y-100598962D01*
X105452549Y-100597452D01*
X103090000Y-98234904D01*
X103090000Y-97697630D01*
X103133497Y-97646595D01*
X103184624Y-97533174D01*
X103202128Y-97410000D01*
X103202128Y-96790000D01*
X103196902Y-96724464D01*
X103335074Y-96700101D01*
X103561793Y-96612162D01*
X103767114Y-96481861D01*
X103943216Y-96314162D01*
X104083391Y-96115452D01*
X104182300Y-95893299D01*
X104236175Y-95656165D01*
X104240053Y-95378412D01*
X104192820Y-95139866D01*
X104100153Y-94915038D01*
X103965581Y-94712491D01*
X103794230Y-94539940D01*
X103592628Y-94403958D01*
X103368452Y-94309723D01*
X103130242Y-94260826D01*
X102887072Y-94259128D01*
X102648203Y-94304695D01*
X102422733Y-94395790D01*
X102219252Y-94528945D01*
X102045509Y-94699087D01*
X101998738Y-94767394D01*
X101806801Y-94700270D01*
X101007071Y-95500000D01*
X101021214Y-95514143D01*
X101014143Y-95521214D01*
X101000000Y-95507071D01*
X100200270Y-96306801D01*
X100271670Y-96510966D01*
X100482894Y-96633631D01*
X100713991Y-96712731D01*
X100804337Y-96724858D01*
X100800000Y-96746664D01*
X100800000Y-96985000D01*
X100910000Y-97095000D01*
X101545000Y-97095000D01*
X101545000Y-97075000D01*
X101555000Y-97075000D01*
X101555000Y-97095000D01*
X101575000Y-97095000D01*
X101575000Y-97105000D01*
X101555000Y-97105000D01*
X101555000Y-97740000D01*
X101665000Y-97850000D01*
X101810000Y-97850000D01*
X101810000Y-98500000D01*
X101815761Y-98558754D01*
X101820921Y-98617729D01*
X101821861Y-98620964D01*
X101822189Y-98624310D01*
X101839257Y-98680843D01*
X101855769Y-98737676D01*
X101857319Y-98740667D01*
X101858291Y-98743885D01*
X101886064Y-98796118D01*
X101913252Y-98848569D01*
X101915346Y-98851193D01*
X101916930Y-98854171D01*
X101954322Y-98900018D01*
X101991177Y-98946186D01*
X101995796Y-98950869D01*
X101995875Y-98950966D01*
X101995965Y-98951041D01*
X101997452Y-98952548D01*
X104360000Y-101315097D01*
X104360000Y-104534904D01*
X104212517Y-104682387D01*
X104190056Y-104686672D01*
X104055502Y-104741036D01*
X104018881Y-104765000D01*
X103768889Y-104765000D01*
X103848497Y-104671595D01*
X103899624Y-104558174D01*
X103917128Y-104435000D01*
X103917128Y-103835000D01*
X103911541Y-103764932D01*
X103874737Y-103646089D01*
X103806282Y-103542204D01*
X103759114Y-103502003D01*
X103767796Y-103496282D01*
X103848497Y-103401595D01*
X103899624Y-103288174D01*
X103917128Y-103165000D01*
X103917128Y-102565000D01*
X103911541Y-102494932D01*
X103874737Y-102376089D01*
X103806282Y-102272204D01*
X103759727Y-102232526D01*
X103816770Y-102175484D01*
X103864923Y-102103418D01*
X103898091Y-102023343D01*
X103915000Y-101938336D01*
X103915000Y-101710000D01*
X103805000Y-101600000D01*
X102705000Y-101600000D01*
X102705000Y-101620000D01*
X102695000Y-101620000D01*
X102695000Y-101600000D01*
X101595000Y-101600000D01*
X101485000Y-101710000D01*
X101485000Y-101919903D01*
X100890000Y-101324904D01*
X100890000Y-101251664D01*
X101485000Y-101251664D01*
X101485000Y-101480000D01*
X101595000Y-101590000D01*
X102695000Y-101590000D01*
X102695000Y-100965000D01*
X102705000Y-100965000D01*
X102705000Y-101590000D01*
X103805000Y-101590000D01*
X103915000Y-101480000D01*
X103915000Y-101251664D01*
X103898091Y-101166657D01*
X103864923Y-101086582D01*
X103816770Y-101014516D01*
X103755483Y-100953230D01*
X103683418Y-100905077D01*
X103603343Y-100871909D01*
X103518336Y-100855000D01*
X102815000Y-100855000D01*
X102705000Y-100965000D01*
X102695000Y-100965000D01*
X102585000Y-100855000D01*
X101881664Y-100855000D01*
X101796657Y-100871909D01*
X101716582Y-100905077D01*
X101644517Y-100953230D01*
X101583230Y-101014516D01*
X101535077Y-101086582D01*
X101501909Y-101166657D01*
X101485000Y-101251664D01*
X100890000Y-101251664D01*
X100890000Y-98750000D01*
X100884239Y-98691246D01*
X100879079Y-98632271D01*
X100878139Y-98629036D01*
X100877811Y-98625690D01*
X100860743Y-98569157D01*
X100844231Y-98512324D01*
X100842681Y-98509333D01*
X100841709Y-98506115D01*
X100813957Y-98453921D01*
X100786749Y-98401431D01*
X100784652Y-98398804D01*
X100783070Y-98395829D01*
X100745700Y-98350009D01*
X100708823Y-98303814D01*
X100704204Y-98299131D01*
X100704125Y-98299034D01*
X100704035Y-98298959D01*
X100702548Y-98297452D01*
X99640000Y-97234904D01*
X99640000Y-97215000D01*
X100800000Y-97215000D01*
X100800000Y-97453336D01*
X100816909Y-97538343D01*
X100850077Y-97618418D01*
X100898230Y-97690484D01*
X100959517Y-97751770D01*
X101031582Y-97799923D01*
X101111657Y-97833091D01*
X101196664Y-97850000D01*
X101435000Y-97850000D01*
X101545000Y-97740000D01*
X101545000Y-97105000D01*
X100910000Y-97105000D01*
X100800000Y-97215000D01*
X99640000Y-97215000D01*
X99640000Y-96562530D01*
X99767114Y-96481861D01*
X99943216Y-96314162D01*
X100000849Y-96232462D01*
X100193199Y-96299730D01*
X100992929Y-95500000D01*
X100193199Y-94700270D01*
X100001908Y-94767168D01*
X99965581Y-94712491D01*
X99946424Y-94693199D01*
X100200270Y-94693199D01*
X101000000Y-95492929D01*
X101799730Y-94693199D01*
X101728330Y-94489034D01*
X101517106Y-94366369D01*
X101286009Y-94287269D01*
X101043922Y-94254774D01*
X100800146Y-94270132D01*
X100564051Y-94332753D01*
X100344709Y-94440230D01*
X100271670Y-94489034D01*
X100200270Y-94693199D01*
X99946424Y-94693199D01*
X99794230Y-94539940D01*
X99592628Y-94403958D01*
X99368452Y-94309723D01*
X99130242Y-94260826D01*
X98887072Y-94259128D01*
X98648203Y-94304695D01*
X98422733Y-94395790D01*
X98219252Y-94528945D01*
X98045509Y-94699087D01*
X98000423Y-94764933D01*
X97965581Y-94712491D01*
X97794230Y-94539940D01*
X97592628Y-94403958D01*
X97368452Y-94309723D01*
X97130242Y-94260826D01*
X96887072Y-94259128D01*
X96648203Y-94304695D01*
X96422733Y-94395790D01*
X96219252Y-94528945D01*
X96045509Y-94699087D01*
X95908122Y-94899735D01*
X95812324Y-95123247D01*
X95761765Y-95361110D01*
X95758370Y-95604263D01*
X95802268Y-95843444D01*
X95891787Y-96069544D01*
X96023518Y-96273950D01*
X96192443Y-96448877D01*
X96360000Y-96565332D01*
X96360000Y-97000000D01*
X96365761Y-97058754D01*
X96370921Y-97117729D01*
X96371861Y-97120964D01*
X96372189Y-97124310D01*
X96389257Y-97180843D01*
X96405769Y-97237676D01*
X96407319Y-97240667D01*
X96408291Y-97243885D01*
X96436064Y-97296118D01*
X96463252Y-97348569D01*
X96465346Y-97351193D01*
X96466930Y-97354171D01*
X96504322Y-97400018D01*
X96541177Y-97446186D01*
X96545796Y-97450869D01*
X96545875Y-97450966D01*
X96545965Y-97451041D01*
X96547452Y-97452548D01*
X98610000Y-99515097D01*
X98610000Y-101860000D01*
X98615761Y-101918754D01*
X98620921Y-101977729D01*
X98621861Y-101980964D01*
X98622189Y-101984310D01*
X98639257Y-102040843D01*
X98655769Y-102097676D01*
X98657319Y-102100667D01*
X98658291Y-102103885D01*
X98686064Y-102156118D01*
X98713252Y-102208569D01*
X98715346Y-102211193D01*
X98716930Y-102214171D01*
X98754322Y-102260018D01*
X98791177Y-102306186D01*
X98795796Y-102310869D01*
X98795875Y-102310966D01*
X98795965Y-102311041D01*
X98797452Y-102312548D01*
X98803097Y-102318193D01*
X98778987Y-102305266D01*
X98727123Y-102276753D01*
X98723911Y-102275734D01*
X98720949Y-102274146D01*
X98664407Y-102256859D01*
X98608063Y-102238986D01*
X98604724Y-102238611D01*
X98601501Y-102237626D01*
X98542663Y-102231650D01*
X98483936Y-102225062D01*
X98477356Y-102225016D01*
X98477234Y-102225004D01*
X98477121Y-102225015D01*
X98475000Y-102225000D01*
X98367253Y-102225000D01*
X98416770Y-102175484D01*
X98464923Y-102103418D01*
X98498091Y-102023343D01*
X98515000Y-101938336D01*
X98515000Y-101710000D01*
X98405000Y-101600000D01*
X97305000Y-101600000D01*
X97305000Y-101620000D01*
X97295000Y-101620000D01*
X97295000Y-101600000D01*
X96195000Y-101600000D01*
X96085000Y-101710000D01*
X96085000Y-101938336D01*
X96101909Y-102023343D01*
X96135077Y-102103418D01*
X96183230Y-102175484D01*
X96237786Y-102230039D01*
X96232204Y-102233718D01*
X96151503Y-102328405D01*
X96100376Y-102441826D01*
X96082872Y-102565000D01*
X96082872Y-103165000D01*
X96088459Y-103235068D01*
X96125263Y-103353911D01*
X96193718Y-103457796D01*
X96240886Y-103497997D01*
X96232204Y-103503718D01*
X96151503Y-103598405D01*
X96100376Y-103711826D01*
X96082872Y-103835000D01*
X96082872Y-104435000D01*
X96088459Y-104505068D01*
X96125263Y-104623911D01*
X96193718Y-104727796D01*
X96237370Y-104765000D01*
X95995000Y-104765000D01*
X95936201Y-104770765D01*
X95877271Y-104775921D01*
X95874036Y-104776861D01*
X95870690Y-104777189D01*
X95814157Y-104794257D01*
X95757324Y-104810769D01*
X95754333Y-104812319D01*
X95751115Y-104813291D01*
X95698882Y-104841064D01*
X95646431Y-104868252D01*
X95643807Y-104870346D01*
X95640829Y-104871930D01*
X95594982Y-104909322D01*
X95548814Y-104946177D01*
X95544127Y-104950799D01*
X95544034Y-104950875D01*
X95543963Y-104950961D01*
X95542451Y-104952452D01*
X95274302Y-105220601D01*
X95190056Y-105236672D01*
X95055502Y-105291036D01*
X94950113Y-105360000D01*
X94099386Y-105360000D01*
X94417193Y-105042193D01*
X94451795Y-105000068D01*
X94486817Y-104958331D01*
X94488311Y-104955613D01*
X94490281Y-104953215D01*
X94516030Y-104905193D01*
X94542290Y-104857426D01*
X94543229Y-104854467D01*
X94544694Y-104851734D01*
X94560625Y-104799626D01*
X94577107Y-104747668D01*
X94577453Y-104744585D01*
X94578360Y-104741618D01*
X94583868Y-104687386D01*
X94589942Y-104633238D01*
X94589985Y-104627171D01*
X94589996Y-104627060D01*
X94589986Y-104626957D01*
X94590000Y-104625000D01*
X94590000Y-104347630D01*
X94633497Y-104296595D01*
X94684624Y-104183174D01*
X94702128Y-104060000D01*
X94702128Y-103540000D01*
X94696541Y-103469932D01*
X94676329Y-103404667D01*
X94683091Y-103388343D01*
X94700000Y-103303336D01*
X94700000Y-103115000D01*
X94590000Y-103005000D01*
X94005000Y-103005000D01*
X94005000Y-103025000D01*
X93995000Y-103025000D01*
X93995000Y-103005000D01*
X93410000Y-103005000D01*
X93300000Y-103115000D01*
X93300000Y-103303336D01*
X93316909Y-103388343D01*
X93322323Y-103401414D01*
X93315376Y-103416826D01*
X93297872Y-103540000D01*
X93297872Y-104060000D01*
X93303459Y-104130068D01*
X93340263Y-104248911D01*
X93408718Y-104352796D01*
X93410000Y-104353889D01*
X93410000Y-104380614D01*
X93380614Y-104410000D01*
X93292128Y-104410000D01*
X93292128Y-104080000D01*
X93286541Y-104009932D01*
X93277553Y-103980910D01*
X93290000Y-103918336D01*
X93290000Y-103515000D01*
X93180000Y-103405000D01*
X90820000Y-103405000D01*
X90710000Y-103515000D01*
X90710000Y-103918336D01*
X90722159Y-103979463D01*
X90707872Y-104080000D01*
X90707872Y-104550000D01*
X90713459Y-104620068D01*
X90750263Y-104738911D01*
X90760000Y-104753688D01*
X90760000Y-105402370D01*
X90716503Y-105453405D01*
X90665376Y-105566826D01*
X90647872Y-105690000D01*
X90647872Y-106210000D01*
X90653459Y-106280068D01*
X90673671Y-106345333D01*
X90666909Y-106361657D01*
X90650000Y-106446664D01*
X90650000Y-106635000D01*
X90760000Y-106745000D01*
X91345000Y-106745000D01*
X91345000Y-106725000D01*
X91355000Y-106725000D01*
X91355000Y-106745000D01*
X91940000Y-106745000D01*
X92050000Y-106635000D01*
X92050000Y-106540000D01*
X94952220Y-106540000D01*
X95037237Y-106599088D01*
X95170221Y-106657188D01*
X95311957Y-106688350D01*
X95457047Y-106691389D01*
X95599964Y-106666189D01*
X95735264Y-106613710D01*
X95857794Y-106535950D01*
X95962887Y-106435871D01*
X96046540Y-106317286D01*
X96093673Y-106211423D01*
X96255038Y-106050059D01*
X96288405Y-106078497D01*
X96401826Y-106129624D01*
X96525000Y-106147128D01*
X98075000Y-106147128D01*
X98145068Y-106141541D01*
X98263911Y-106104737D01*
X98360000Y-106041419D01*
X98360000Y-107036410D01*
X98365761Y-107095164D01*
X98370921Y-107154139D01*
X98371861Y-107157374D01*
X98372189Y-107160720D01*
X98389257Y-107217253D01*
X98405769Y-107274086D01*
X98407319Y-107277077D01*
X98408291Y-107280295D01*
X98436064Y-107332528D01*
X98463252Y-107384979D01*
X98465346Y-107387603D01*
X98466930Y-107390581D01*
X98504322Y-107436428D01*
X98541177Y-107482596D01*
X98545796Y-107487279D01*
X98545875Y-107487376D01*
X98545965Y-107487451D01*
X98547452Y-107488958D01*
X102071007Y-111012514D01*
X102067873Y-111011544D01*
X101910655Y-110995020D01*
X101753221Y-111009347D01*
X101601569Y-111053981D01*
X101461474Y-111127221D01*
X101338273Y-111226277D01*
X101257396Y-111322663D01*
X101209752Y-111264246D01*
X101087946Y-111163480D01*
X100948888Y-111088291D01*
X100797873Y-111041544D01*
X100640655Y-111025020D01*
X100483221Y-111039347D01*
X100331569Y-111083981D01*
X100191474Y-111157221D01*
X100068273Y-111256277D01*
X99987396Y-111352663D01*
X99939752Y-111294246D01*
X99817946Y-111193480D01*
X99678888Y-111118291D01*
X99527873Y-111071544D01*
X99370655Y-111055020D01*
X99213221Y-111069347D01*
X99061569Y-111113981D01*
X98921474Y-111187221D01*
X98798273Y-111286277D01*
X98754618Y-111338303D01*
X98669752Y-111234246D01*
X98547946Y-111133480D01*
X98408888Y-111058291D01*
X98257873Y-111011544D01*
X98100655Y-110995020D01*
X97943221Y-111009347D01*
X97791569Y-111053981D01*
X97651474Y-111127221D01*
X97528273Y-111226277D01*
X97451531Y-111317734D01*
X97399752Y-111254246D01*
X97277946Y-111153480D01*
X97138888Y-111078291D01*
X96987873Y-111031544D01*
X96830655Y-111015020D01*
X96673221Y-111029347D01*
X96521569Y-111073981D01*
X96381474Y-111147221D01*
X96258273Y-111246277D01*
X96181531Y-111337734D01*
X96129752Y-111274246D01*
X96007946Y-111173480D01*
X95868888Y-111098291D01*
X95717873Y-111051544D01*
X95560655Y-111035020D01*
X95403221Y-111049347D01*
X95251569Y-111093981D01*
X95111474Y-111167221D01*
X94988273Y-111266277D01*
X94886658Y-111387377D01*
X94860988Y-111434070D01*
X94783343Y-111401909D01*
X94698336Y-111385000D01*
X94400000Y-111385000D01*
X94290000Y-111495000D01*
X94290000Y-113280000D01*
X94310000Y-113280000D01*
X94310000Y-113290000D01*
X94290000Y-113290000D01*
X94290000Y-116710000D01*
X94310000Y-116710000D01*
X94310000Y-116720000D01*
X94290000Y-116720000D01*
X94290000Y-116740000D01*
X94280000Y-116740000D01*
X94280000Y-116720000D01*
X93585000Y-116720000D01*
X93475000Y-116830000D01*
X93475000Y-118218336D01*
X93484575Y-118266471D01*
X91379350Y-117472616D01*
X88149744Y-115465426D01*
X87745273Y-115087446D01*
X91653633Y-115087446D01*
X91690451Y-115288050D01*
X91765531Y-115477682D01*
X91876015Y-115649119D01*
X92017694Y-115795832D01*
X92185171Y-115912232D01*
X92372067Y-115993884D01*
X92571264Y-116037681D01*
X92775174Y-116041952D01*
X92976030Y-116006536D01*
X93166181Y-115932781D01*
X93338386Y-115823496D01*
X93475000Y-115693400D01*
X93475000Y-116600000D01*
X93585000Y-116710000D01*
X94280000Y-116710000D01*
X94280000Y-113290000D01*
X93585000Y-113290000D01*
X93475000Y-113400000D01*
X93475000Y-114309458D01*
X93361128Y-114194789D01*
X93192043Y-114080739D01*
X93004024Y-114001704D01*
X92804236Y-113960693D01*
X92600286Y-113959269D01*
X92399944Y-113997486D01*
X92210841Y-114073889D01*
X92040179Y-114185567D01*
X91894459Y-114328266D01*
X91779231Y-114496552D01*
X91698885Y-114684014D01*
X91656481Y-114883511D01*
X91653633Y-115087446D01*
X87745273Y-115087446D01*
X85371512Y-112869161D01*
X84588940Y-111781664D01*
X93475000Y-111781664D01*
X93475000Y-113170000D01*
X93585000Y-113280000D01*
X94280000Y-113280000D01*
X94280000Y-111495000D01*
X94170000Y-111385000D01*
X93871664Y-111385000D01*
X93786657Y-111401909D01*
X93706582Y-111435077D01*
X93634517Y-111483230D01*
X93573230Y-111544516D01*
X93525077Y-111616582D01*
X93491909Y-111696657D01*
X93475000Y-111781664D01*
X84588940Y-111781664D01*
X83150478Y-109782716D01*
X81645829Y-106487037D01*
X81696657Y-106508091D01*
X81781664Y-106525000D01*
X83170000Y-106525000D01*
X83280000Y-106415000D01*
X83280000Y-105720000D01*
X83290000Y-105720000D01*
X83290000Y-106415000D01*
X83400000Y-106525000D01*
X84310017Y-106525000D01*
X84199459Y-106633266D01*
X84084231Y-106801552D01*
X84003885Y-106989014D01*
X83961481Y-107188511D01*
X83958633Y-107392446D01*
X83995451Y-107593050D01*
X84070531Y-107782682D01*
X84181015Y-107954119D01*
X84322694Y-108100832D01*
X84490171Y-108217232D01*
X84677067Y-108298884D01*
X84876264Y-108342681D01*
X85080174Y-108346952D01*
X85281030Y-108311536D01*
X85471181Y-108237781D01*
X85643386Y-108128496D01*
X85791084Y-107987845D01*
X85908650Y-107821185D01*
X85991606Y-107634863D01*
X86036792Y-107435977D01*
X86040044Y-107203023D01*
X86000430Y-107002953D01*
X85943570Y-106865000D01*
X90650000Y-106865000D01*
X90650000Y-107053336D01*
X90666909Y-107138343D01*
X90700077Y-107218418D01*
X90748230Y-107290483D01*
X90809516Y-107351770D01*
X90881582Y-107399923D01*
X90961657Y-107433091D01*
X91046664Y-107450000D01*
X91235000Y-107450000D01*
X91345000Y-107340000D01*
X91345000Y-106755000D01*
X91355000Y-106755000D01*
X91355000Y-107340000D01*
X91465000Y-107450000D01*
X91653336Y-107450000D01*
X91738343Y-107433091D01*
X91818418Y-107399923D01*
X91890484Y-107351770D01*
X91951770Y-107290483D01*
X91999923Y-107218418D01*
X92033091Y-107138343D01*
X92050000Y-107053336D01*
X92050000Y-106865000D01*
X91940000Y-106755000D01*
X91355000Y-106755000D01*
X91345000Y-106755000D01*
X90760000Y-106755000D01*
X90650000Y-106865000D01*
X85943570Y-106865000D01*
X85922708Y-106814387D01*
X85809842Y-106644509D01*
X85691164Y-106525000D01*
X86600000Y-106525000D01*
X86710000Y-106415000D01*
X86710000Y-105720000D01*
X86720000Y-105720000D01*
X86720000Y-106415000D01*
X86830000Y-106525000D01*
X88218336Y-106525000D01*
X88303343Y-106508091D01*
X88383418Y-106474923D01*
X88455484Y-106426770D01*
X88516770Y-106365483D01*
X88564923Y-106293418D01*
X88598091Y-106213343D01*
X88615000Y-106128336D01*
X88615000Y-105830000D01*
X88505000Y-105720000D01*
X86720000Y-105720000D01*
X86710000Y-105720000D01*
X83290000Y-105720000D01*
X83280000Y-105720000D01*
X83260000Y-105720000D01*
X83260000Y-105710000D01*
X83280000Y-105710000D01*
X83280000Y-105690000D01*
X83290000Y-105690000D01*
X83290000Y-105710000D01*
X86710000Y-105710000D01*
X86710000Y-105690000D01*
X86720000Y-105690000D01*
X86720000Y-105710000D01*
X88505000Y-105710000D01*
X88615000Y-105600000D01*
X88615000Y-105301664D01*
X88598091Y-105216657D01*
X88566098Y-105139419D01*
X88603247Y-105119666D01*
X88725754Y-105019752D01*
X88826520Y-104897946D01*
X88901709Y-104758888D01*
X88948456Y-104607873D01*
X88964980Y-104450655D01*
X88950653Y-104293221D01*
X88906019Y-104141569D01*
X88832779Y-104001474D01*
X88733723Y-103878273D01*
X88661982Y-103818075D01*
X88745754Y-103749752D01*
X88846520Y-103627946D01*
X88921709Y-103488888D01*
X88968456Y-103337873D01*
X88984980Y-103180655D01*
X88970653Y-103023221D01*
X88926019Y-102871569D01*
X88852779Y-102731474D01*
X88753723Y-102608273D01*
X88681982Y-102548075D01*
X88765754Y-102479752D01*
X88866520Y-102357946D01*
X88941709Y-102218888D01*
X88988456Y-102067873D01*
X89004703Y-101913289D01*
X89097716Y-101977935D01*
X89239686Y-102039960D01*
X89390998Y-102073228D01*
X89545891Y-102076472D01*
X89698464Y-102049570D01*
X89842907Y-101993544D01*
X89927279Y-101940000D01*
X90601899Y-101940000D01*
X90605184Y-101946337D01*
X90607119Y-101948761D01*
X90608576Y-101951501D01*
X90643042Y-101993761D01*
X90677023Y-102036327D01*
X90681279Y-102040644D01*
X90681353Y-102040734D01*
X90681437Y-102040803D01*
X90682807Y-102042193D01*
X90738446Y-102097832D01*
X90725376Y-102126826D01*
X90707872Y-102250000D01*
X90707872Y-102720000D01*
X90713459Y-102790068D01*
X90722447Y-102819090D01*
X90710000Y-102881664D01*
X90710000Y-103285000D01*
X90820000Y-103395000D01*
X93180000Y-103395000D01*
X93290000Y-103285000D01*
X93290000Y-102881664D01*
X93278232Y-102822500D01*
X93290000Y-102763336D01*
X93290000Y-102696664D01*
X93300000Y-102696664D01*
X93300000Y-102885000D01*
X93410000Y-102995000D01*
X93995000Y-102995000D01*
X93995000Y-102410000D01*
X94005000Y-102410000D01*
X94005000Y-102995000D01*
X94590000Y-102995000D01*
X94700000Y-102885000D01*
X94700000Y-102696664D01*
X94683091Y-102611657D01*
X94649923Y-102531582D01*
X94601770Y-102459517D01*
X94540484Y-102398230D01*
X94468418Y-102350077D01*
X94388343Y-102316909D01*
X94303336Y-102300000D01*
X94115000Y-102300000D01*
X94005000Y-102410000D01*
X93995000Y-102410000D01*
X93885000Y-102300000D01*
X93696664Y-102300000D01*
X93611657Y-102316909D01*
X93531582Y-102350077D01*
X93459516Y-102398230D01*
X93398230Y-102459517D01*
X93350077Y-102531582D01*
X93316909Y-102611657D01*
X93300000Y-102696664D01*
X93290000Y-102696664D01*
X93290000Y-102600000D01*
X93180000Y-102490000D01*
X92918473Y-102490000D01*
X92893336Y-102485000D01*
X92115000Y-102485000D01*
X92110000Y-102490000D01*
X92005000Y-102490000D01*
X92005000Y-102510000D01*
X91995000Y-102510000D01*
X91995000Y-102490000D01*
X91992128Y-102490000D01*
X91992128Y-102480000D01*
X91995000Y-102480000D01*
X91995000Y-102460000D01*
X92005000Y-102460000D01*
X92005000Y-102480000D01*
X92645000Y-102480000D01*
X92645000Y-101920000D01*
X92655000Y-101920000D01*
X92655000Y-102480000D01*
X93180000Y-102480000D01*
X93290000Y-102370000D01*
X93290000Y-102206664D01*
X93273091Y-102121657D01*
X93239923Y-102041582D01*
X93191770Y-101969517D01*
X93130484Y-101908230D01*
X93058418Y-101860077D01*
X92978343Y-101826909D01*
X92893336Y-101810000D01*
X92765000Y-101810000D01*
X92655000Y-101920000D01*
X92645000Y-101920000D01*
X92535000Y-101810000D01*
X92522139Y-101810000D01*
X92549923Y-101768418D01*
X92583091Y-101688343D01*
X92600000Y-101603336D01*
X92600000Y-101415000D01*
X92490000Y-101305000D01*
X91905000Y-101305000D01*
X91905000Y-101325000D01*
X91895000Y-101325000D01*
X91895000Y-101305000D01*
X91875000Y-101305000D01*
X91875000Y-101295000D01*
X91895000Y-101295000D01*
X91895000Y-100710000D01*
X91905000Y-100710000D01*
X91905000Y-101295000D01*
X92490000Y-101295000D01*
X92533336Y-101251664D01*
X96085000Y-101251664D01*
X96085000Y-101480000D01*
X96195000Y-101590000D01*
X97295000Y-101590000D01*
X97295000Y-100965000D01*
X97305000Y-100965000D01*
X97305000Y-101590000D01*
X98405000Y-101590000D01*
X98515000Y-101480000D01*
X98515000Y-101251664D01*
X98498091Y-101166657D01*
X98464923Y-101086582D01*
X98416770Y-101014516D01*
X98355483Y-100953230D01*
X98283418Y-100905077D01*
X98203343Y-100871909D01*
X98118336Y-100855000D01*
X97415000Y-100855000D01*
X97305000Y-100965000D01*
X97295000Y-100965000D01*
X97185000Y-100855000D01*
X96481664Y-100855000D01*
X96396657Y-100871909D01*
X96316582Y-100905077D01*
X96244517Y-100953230D01*
X96183230Y-101014516D01*
X96135077Y-101086582D01*
X96101909Y-101166657D01*
X96085000Y-101251664D01*
X92533336Y-101251664D01*
X92600000Y-101185000D01*
X92600000Y-100996664D01*
X92583091Y-100911657D01*
X92549923Y-100831582D01*
X92501770Y-100759516D01*
X92440483Y-100698230D01*
X92368418Y-100650077D01*
X92288343Y-100616909D01*
X92203336Y-100600000D01*
X92015000Y-100600000D01*
X91905000Y-100710000D01*
X91895000Y-100710000D01*
X91785000Y-100600000D01*
X91596664Y-100600000D01*
X91511657Y-100616909D01*
X91498586Y-100622323D01*
X91483174Y-100615376D01*
X91360000Y-100597872D01*
X90840000Y-100597872D01*
X90769932Y-100603459D01*
X90651089Y-100640263D01*
X90621137Y-100660000D01*
X89971214Y-100660000D01*
X89862551Y-100586706D01*
X89719730Y-100526669D01*
X89567967Y-100495517D01*
X89413044Y-100494435D01*
X89260861Y-100523465D01*
X89117215Y-100581502D01*
X88987578Y-100666334D01*
X88970526Y-100683033D01*
X88974980Y-100640655D01*
X88960653Y-100483221D01*
X88916019Y-100331569D01*
X88842779Y-100191474D01*
X88743723Y-100068273D01*
X88662124Y-99999803D01*
X88735754Y-99939752D01*
X88836520Y-99817946D01*
X88911709Y-99678888D01*
X88958456Y-99527873D01*
X88974980Y-99370655D01*
X88960653Y-99213221D01*
X88916019Y-99061569D01*
X88842779Y-98921474D01*
X88743723Y-98798273D01*
X88676911Y-98742211D01*
X88765754Y-98669752D01*
X88866520Y-98547946D01*
X88941709Y-98408888D01*
X88988456Y-98257873D01*
X89004980Y-98100655D01*
X88990653Y-97943221D01*
X88946019Y-97791569D01*
X88872779Y-97651474D01*
X88773723Y-97528273D01*
X88682266Y-97451531D01*
X88745754Y-97399752D01*
X88846520Y-97277946D01*
X88921709Y-97138888D01*
X88968456Y-96987873D01*
X88984980Y-96830655D01*
X88970653Y-96673221D01*
X88926019Y-96521569D01*
X88852779Y-96381474D01*
X88753723Y-96258273D01*
X88657337Y-96177396D01*
X88715754Y-96129752D01*
X88816520Y-96007946D01*
X88891709Y-95868888D01*
X88938456Y-95717873D01*
X88954980Y-95560655D01*
X88940653Y-95403221D01*
X88896019Y-95251569D01*
X88822779Y-95111474D01*
X88723723Y-94988273D01*
X88602623Y-94886658D01*
X88563694Y-94865257D01*
X88564923Y-94863418D01*
X88598091Y-94783343D01*
X88615000Y-94698336D01*
X88615000Y-94400000D01*
X88505000Y-94290000D01*
X86720000Y-94290000D01*
X86720000Y-94310000D01*
X86710000Y-94310000D01*
X86710000Y-94290000D01*
X83290000Y-94290000D01*
X83290000Y-94310000D01*
X83280000Y-94310000D01*
X83280000Y-94290000D01*
X83260000Y-94290000D01*
X83260000Y-94280000D01*
X83280000Y-94280000D01*
X83280000Y-93585000D01*
X83290000Y-93585000D01*
X83290000Y-94280000D01*
X86710000Y-94280000D01*
X86710000Y-93585000D01*
X86720000Y-93585000D01*
X86720000Y-94280000D01*
X88505000Y-94280000D01*
X88615000Y-94170000D01*
X88615000Y-93871664D01*
X88598091Y-93786657D01*
X88564923Y-93706582D01*
X88516770Y-93634517D01*
X88455484Y-93573230D01*
X88383418Y-93525077D01*
X88303343Y-93491909D01*
X88280907Y-93487446D01*
X94458633Y-93487446D01*
X94495451Y-93688050D01*
X94570531Y-93877682D01*
X94681015Y-94049119D01*
X94822694Y-94195832D01*
X94990171Y-94312232D01*
X95177067Y-94393884D01*
X95376264Y-94437681D01*
X95580174Y-94441952D01*
X95781030Y-94406536D01*
X95971181Y-94332781D01*
X96143386Y-94223496D01*
X96291084Y-94082845D01*
X96408650Y-93916185D01*
X96491606Y-93729863D01*
X96536792Y-93530977D01*
X96537399Y-93487446D01*
X103458633Y-93487446D01*
X103495451Y-93688050D01*
X103570531Y-93877682D01*
X103681015Y-94049119D01*
X103822694Y-94195832D01*
X103990171Y-94312232D01*
X104177067Y-94393884D01*
X104376264Y-94437681D01*
X104580174Y-94441952D01*
X104781030Y-94406536D01*
X104971181Y-94332781D01*
X105143386Y-94223496D01*
X105291084Y-94082845D01*
X105408650Y-93916185D01*
X105428472Y-93871664D01*
X111385000Y-93871664D01*
X111385000Y-94170000D01*
X111495000Y-94280000D01*
X113280000Y-94280000D01*
X113280000Y-93585000D01*
X113290000Y-93585000D01*
X113290000Y-94280000D01*
X116710000Y-94280000D01*
X116710000Y-93585000D01*
X116600000Y-93475000D01*
X115689061Y-93475000D01*
X115791084Y-93377845D01*
X115908650Y-93211185D01*
X115991606Y-93024863D01*
X116036792Y-92825977D01*
X116040044Y-92593023D01*
X116000430Y-92392953D01*
X115922708Y-92204387D01*
X115809842Y-92034509D01*
X115666128Y-91889789D01*
X115497043Y-91775739D01*
X115309024Y-91696704D01*
X115109236Y-91655693D01*
X114905286Y-91654269D01*
X114704944Y-91692486D01*
X114515841Y-91768889D01*
X114345179Y-91880567D01*
X114199459Y-92023266D01*
X114084231Y-92191552D01*
X114003885Y-92379014D01*
X113961481Y-92578511D01*
X113958633Y-92782446D01*
X113995451Y-92983050D01*
X114070531Y-93172682D01*
X114181015Y-93344119D01*
X114307405Y-93475000D01*
X113400000Y-93475000D01*
X113290000Y-93585000D01*
X113280000Y-93585000D01*
X113170000Y-93475000D01*
X111781664Y-93475000D01*
X111696657Y-93491909D01*
X111616582Y-93525077D01*
X111544516Y-93573230D01*
X111483230Y-93634517D01*
X111435077Y-93706582D01*
X111401909Y-93786657D01*
X111385000Y-93871664D01*
X105428472Y-93871664D01*
X105491606Y-93729863D01*
X105536792Y-93530977D01*
X105540044Y-93298023D01*
X105500430Y-93097953D01*
X105422708Y-92909387D01*
X105309842Y-92739509D01*
X105166128Y-92594789D01*
X104997043Y-92480739D01*
X104809024Y-92401704D01*
X104609236Y-92360693D01*
X104405286Y-92359269D01*
X104204944Y-92397486D01*
X104015841Y-92473889D01*
X103845179Y-92585567D01*
X103699459Y-92728266D01*
X103584231Y-92896552D01*
X103503885Y-93084014D01*
X103461481Y-93283511D01*
X103458633Y-93487446D01*
X96537399Y-93487446D01*
X96540044Y-93298023D01*
X96500430Y-93097953D01*
X96422708Y-92909387D01*
X96309842Y-92739509D01*
X96166128Y-92594789D01*
X95997043Y-92480739D01*
X95809024Y-92401704D01*
X95609236Y-92360693D01*
X95405286Y-92359269D01*
X95204944Y-92397486D01*
X95015841Y-92473889D01*
X94845179Y-92585567D01*
X94699459Y-92728266D01*
X94584231Y-92896552D01*
X94503885Y-93084014D01*
X94461481Y-93283511D01*
X94458633Y-93487446D01*
X88280907Y-93487446D01*
X88218336Y-93475000D01*
X86830000Y-93475000D01*
X86720000Y-93585000D01*
X86710000Y-93585000D01*
X86600000Y-93475000D01*
X85689061Y-93475000D01*
X85791084Y-93377845D01*
X85908650Y-93211185D01*
X85991606Y-93024863D01*
X86036792Y-92825977D01*
X86040044Y-92593023D01*
X86000430Y-92392953D01*
X85922708Y-92204387D01*
X85809842Y-92034509D01*
X85666128Y-91889789D01*
X85497043Y-91775739D01*
X85309024Y-91696704D01*
X85109236Y-91655693D01*
X84905286Y-91654269D01*
X84704944Y-91692486D01*
X84515841Y-91768889D01*
X84345179Y-91880567D01*
X84199459Y-92023266D01*
X84084231Y-92191552D01*
X84003885Y-92379014D01*
X83961481Y-92578511D01*
X83958633Y-92782446D01*
X83995451Y-92983050D01*
X84070531Y-93172682D01*
X84181015Y-93344119D01*
X84307405Y-93475000D01*
X83400000Y-93475000D01*
X83290000Y-93585000D01*
X83280000Y-93585000D01*
X83170000Y-93475000D01*
X81781664Y-93475000D01*
X81735785Y-93484126D01*
X82467627Y-91501537D01*
X84461339Y-88243100D01*
X85046747Y-87515000D01*
X114931560Y-87515000D01*
X116984469Y-90453495D01*
X116984469Y-90453495D01*
G37*
X116984469Y-90453495D02*
X118324587Y-93500708D01*
X118303343Y-93491909D01*
X118218336Y-93475000D01*
X116830000Y-93475000D01*
X116720000Y-93585000D01*
X116720000Y-94280000D01*
X116740000Y-94280000D01*
X116740000Y-94290000D01*
X116720000Y-94290000D01*
X116720000Y-94310000D01*
X116710000Y-94310000D01*
X116710000Y-94290000D01*
X113290000Y-94290000D01*
X113290000Y-94310000D01*
X113280000Y-94310000D01*
X113280000Y-94290000D01*
X111495000Y-94290000D01*
X111385000Y-94400000D01*
X111385000Y-94698336D01*
X111401909Y-94783343D01*
X111433902Y-94860581D01*
X111396753Y-94880334D01*
X111274246Y-94980248D01*
X111173480Y-95102054D01*
X111098291Y-95241112D01*
X111051544Y-95392127D01*
X111035020Y-95549345D01*
X111049347Y-95706779D01*
X111093981Y-95858431D01*
X111167221Y-95998526D01*
X111266277Y-96121727D01*
X111338018Y-96181925D01*
X111254246Y-96250248D01*
X111153480Y-96372054D01*
X111078291Y-96511112D01*
X111031544Y-96662127D01*
X111015020Y-96819345D01*
X111029347Y-96976779D01*
X111073981Y-97128431D01*
X111147221Y-97268526D01*
X111246277Y-97391727D01*
X111318018Y-97451925D01*
X111234246Y-97520248D01*
X111133480Y-97642054D01*
X111058291Y-97781112D01*
X111011544Y-97932127D01*
X110995020Y-98089345D01*
X111009347Y-98246779D01*
X111053981Y-98398431D01*
X111127221Y-98538526D01*
X111226277Y-98661727D01*
X111322663Y-98742604D01*
X111264246Y-98790248D01*
X111163480Y-98912054D01*
X111088291Y-99051112D01*
X111041544Y-99202127D01*
X111025020Y-99359345D01*
X111039347Y-99516779D01*
X111083981Y-99668431D01*
X111157221Y-99808526D01*
X111256277Y-99931727D01*
X111352663Y-100012604D01*
X111294246Y-100060248D01*
X111193480Y-100182054D01*
X111118291Y-100321112D01*
X111071544Y-100472127D01*
X111055020Y-100629345D01*
X111069347Y-100786779D01*
X111113981Y-100938431D01*
X111187221Y-101078526D01*
X111286277Y-101201727D01*
X111338303Y-101245382D01*
X111234246Y-101330248D01*
X111133480Y-101452054D01*
X111058291Y-101591112D01*
X111011544Y-101742127D01*
X110995020Y-101899345D01*
X111009347Y-102056779D01*
X111053981Y-102208431D01*
X111127221Y-102348526D01*
X111226277Y-102471727D01*
X111342379Y-102569148D01*
X111304246Y-102600248D01*
X111203480Y-102722054D01*
X111128291Y-102861112D01*
X111081544Y-103012127D01*
X111065020Y-103169345D01*
X111079347Y-103326779D01*
X111123981Y-103478431D01*
X111197221Y-103618526D01*
X111296277Y-103741727D01*
X111368018Y-103801925D01*
X111284246Y-103870248D01*
X111183480Y-103992054D01*
X111108291Y-104131112D01*
X111061544Y-104282127D01*
X111045020Y-104439345D01*
X111059347Y-104596779D01*
X111103981Y-104748431D01*
X111177221Y-104888526D01*
X111276277Y-105011727D01*
X111397377Y-105113342D01*
X111436306Y-105134743D01*
X111435077Y-105136582D01*
X111401909Y-105216657D01*
X111385000Y-105301664D01*
X111385000Y-105600000D01*
X111495000Y-105710000D01*
X113280000Y-105710000D01*
X113280000Y-105690000D01*
X113290000Y-105690000D01*
X113290000Y-105710000D01*
X116710000Y-105710000D01*
X116710000Y-105690000D01*
X116720000Y-105690000D01*
X116720000Y-105710000D01*
X116740000Y-105710000D01*
X116740000Y-105720000D01*
X116720000Y-105720000D01*
X116720000Y-106415000D01*
X116830000Y-106525000D01*
X118218336Y-106525000D01*
X118269844Y-106514754D01*
X117412006Y-108742424D01*
X115382318Y-111957938D01*
X112766722Y-114717974D01*
X109664847Y-116917407D01*
X106493473Y-118338633D01*
X106508091Y-118303343D01*
X106525000Y-118218336D01*
X106525000Y-116830000D01*
X106415000Y-116720000D01*
X105720000Y-116720000D01*
X105720000Y-116740000D01*
X105710000Y-116740000D01*
X105710000Y-116720000D01*
X105690000Y-116720000D01*
X105690000Y-116710000D01*
X105710000Y-116710000D01*
X105710000Y-113290000D01*
X105720000Y-113290000D01*
X105720000Y-116710000D01*
X106415000Y-116710000D01*
X106525000Y-116600000D01*
X106525000Y-115689489D01*
X106627694Y-115795832D01*
X106795171Y-115912232D01*
X106982067Y-115993884D01*
X107181264Y-116037681D01*
X107385174Y-116041952D01*
X107586030Y-116006536D01*
X107776181Y-115932781D01*
X107948386Y-115823496D01*
X108096084Y-115682845D01*
X108213650Y-115516185D01*
X108296606Y-115329863D01*
X108341792Y-115130977D01*
X108345044Y-114898023D01*
X108305430Y-114697953D01*
X108227708Y-114509387D01*
X108114842Y-114339509D01*
X107971128Y-114194789D01*
X107802043Y-114080739D01*
X107614024Y-114001704D01*
X107414236Y-113960693D01*
X107210286Y-113959269D01*
X107009944Y-113997486D01*
X106820841Y-114073889D01*
X106650179Y-114185567D01*
X106525000Y-114308151D01*
X106525000Y-113400000D01*
X106415000Y-113290000D01*
X105720000Y-113290000D01*
X105710000Y-113290000D01*
X105690000Y-113290000D01*
X105690000Y-113280000D01*
X105710000Y-113280000D01*
X105710000Y-111495000D01*
X105720000Y-111495000D01*
X105720000Y-113280000D01*
X106415000Y-113280000D01*
X106525000Y-113170000D01*
X106525000Y-111781664D01*
X106508091Y-111696657D01*
X106474923Y-111616582D01*
X106426770Y-111544516D01*
X106365483Y-111483230D01*
X106293418Y-111435077D01*
X106213343Y-111401909D01*
X106128336Y-111385000D01*
X105830000Y-111385000D01*
X105720000Y-111495000D01*
X105710000Y-111495000D01*
X105600000Y-111385000D01*
X105301664Y-111385000D01*
X105216657Y-111401909D01*
X105139419Y-111433902D01*
X105119666Y-111396753D01*
X105085000Y-111354248D01*
X105085000Y-111350026D01*
X105079239Y-111291272D01*
X105074079Y-111232297D01*
X105073139Y-111229062D01*
X105072811Y-111225716D01*
X105055739Y-111169170D01*
X105039231Y-111112351D01*
X105037681Y-111109361D01*
X105036709Y-111106141D01*
X105008948Y-111053929D01*
X104981749Y-111001457D01*
X104979652Y-110998830D01*
X104978070Y-110995855D01*
X104940700Y-110950035D01*
X104903823Y-110903840D01*
X104899201Y-110899153D01*
X104899125Y-110899060D01*
X104899039Y-110898989D01*
X104897549Y-110897478D01*
X100734974Y-106734904D01*
X100734974Y-104484974D01*
X100729209Y-104426175D01*
X100724053Y-104367245D01*
X100723113Y-104364010D01*
X100722785Y-104360664D01*
X100705717Y-104304131D01*
X100689205Y-104247298D01*
X100687655Y-104244307D01*
X100686683Y-104241089D01*
X100658910Y-104188856D01*
X100642929Y-104158025D01*
X101072452Y-104587548D01*
X101118047Y-104625000D01*
X101163421Y-104663073D01*
X101166373Y-104664696D01*
X101168971Y-104666830D01*
X101221013Y-104694734D01*
X101272877Y-104723247D01*
X101276089Y-104724266D01*
X101279051Y-104725854D01*
X101335593Y-104743141D01*
X101391937Y-104761014D01*
X101395276Y-104761389D01*
X101398499Y-104762374D01*
X101457337Y-104768350D01*
X101516064Y-104774938D01*
X101522644Y-104774984D01*
X101522766Y-104774996D01*
X101522879Y-104774985D01*
X101525000Y-104775000D01*
X101631111Y-104775000D01*
X101551503Y-104868405D01*
X101500376Y-104981826D01*
X101482872Y-105105000D01*
X101482872Y-105705000D01*
X101488459Y-105775068D01*
X101525263Y-105893911D01*
X101593718Y-105997796D01*
X101688405Y-106078497D01*
X101801826Y-106129624D01*
X101925000Y-106147128D01*
X103475000Y-106147128D01*
X103545068Y-106141541D01*
X103663911Y-106104737D01*
X103754566Y-106045000D01*
X104031355Y-106045000D01*
X104037237Y-106049088D01*
X104170221Y-106107188D01*
X104311957Y-106138350D01*
X104457047Y-106141389D01*
X104599964Y-106116189D01*
X104735264Y-106063710D01*
X104857794Y-105985950D01*
X104962887Y-105885871D01*
X105002299Y-105830000D01*
X111385000Y-105830000D01*
X111385000Y-106128336D01*
X111401909Y-106213343D01*
X111435077Y-106293418D01*
X111483230Y-106365483D01*
X111544516Y-106426770D01*
X111616582Y-106474923D01*
X111696657Y-106508091D01*
X111781664Y-106525000D01*
X113170000Y-106525000D01*
X113280000Y-106415000D01*
X113280000Y-105720000D01*
X113290000Y-105720000D01*
X113290000Y-106415000D01*
X113400000Y-106525000D01*
X114310017Y-106525000D01*
X114199459Y-106633266D01*
X114084231Y-106801552D01*
X114003885Y-106989014D01*
X113961481Y-107188511D01*
X113958633Y-107392446D01*
X113995451Y-107593050D01*
X114070531Y-107782682D01*
X114181015Y-107954119D01*
X114322694Y-108100832D01*
X114490171Y-108217232D01*
X114677067Y-108298884D01*
X114876264Y-108342681D01*
X115080174Y-108346952D01*
X115281030Y-108311536D01*
X115471181Y-108237781D01*
X115643386Y-108128496D01*
X115791084Y-107987845D01*
X115908650Y-107821185D01*
X115991606Y-107634863D01*
X116036792Y-107435977D01*
X116040044Y-107203023D01*
X116000430Y-107002953D01*
X115922708Y-106814387D01*
X115809842Y-106644509D01*
X115691164Y-106525000D01*
X116600000Y-106525000D01*
X116710000Y-106415000D01*
X116710000Y-105720000D01*
X113290000Y-105720000D01*
X113280000Y-105720000D01*
X111495000Y-105720000D01*
X111385000Y-105830000D01*
X105002299Y-105830000D01*
X105046540Y-105767286D01*
X105105566Y-105634711D01*
X105115909Y-105589187D01*
X105452548Y-105252548D01*
X105490022Y-105206927D01*
X105528073Y-105161579D01*
X105529696Y-105158627D01*
X105531830Y-105156029D01*
X105559734Y-105103987D01*
X105588247Y-105052123D01*
X105589266Y-105048911D01*
X105590854Y-105045949D01*
X105608141Y-104989407D01*
X105626014Y-104933063D01*
X105626389Y-104929724D01*
X105627374Y-104926501D01*
X105633350Y-104867663D01*
X105639938Y-104808936D01*
X105639984Y-104802356D01*
X105639996Y-104802234D01*
X105639985Y-104802121D01*
X105640000Y-104800000D01*
X105640000Y-101050000D01*
X105634239Y-100991246D01*
X105629079Y-100932271D01*
X105628139Y-100929036D01*
X105627811Y-100925690D01*
X105610752Y-100869190D01*
X105594232Y-100812325D01*
X105592680Y-100809331D01*
X105591709Y-100806115D01*
X105563967Y-100753938D01*
X105536749Y-100701431D01*
X105534652Y-100698804D01*
X105533070Y-100695829D01*
X105495680Y-100649985D01*
X105458823Y-100603815D01*
X105454202Y-100599129D01*
X105454125Y-100599034D01*
X105454037Y-100598962D01*
X105452549Y-100597452D01*
X103090000Y-98234904D01*
X103090000Y-97697630D01*
X103133497Y-97646595D01*
X103184624Y-97533174D01*
X103202128Y-97410000D01*
X103202128Y-96790000D01*
X103196902Y-96724464D01*
X103335074Y-96700101D01*
X103561793Y-96612162D01*
X103767114Y-96481861D01*
X103943216Y-96314162D01*
X104083391Y-96115452D01*
X104182300Y-95893299D01*
X104236175Y-95656165D01*
X104240053Y-95378412D01*
X104192820Y-95139866D01*
X104100153Y-94915038D01*
X103965581Y-94712491D01*
X103794230Y-94539940D01*
X103592628Y-94403958D01*
X103368452Y-94309723D01*
X103130242Y-94260826D01*
X102887072Y-94259128D01*
X102648203Y-94304695D01*
X102422733Y-94395790D01*
X102219252Y-94528945D01*
X102045509Y-94699087D01*
X101998738Y-94767394D01*
X101806801Y-94700270D01*
X101007071Y-95500000D01*
X101021214Y-95514143D01*
X101014143Y-95521214D01*
X101000000Y-95507071D01*
X100200270Y-96306801D01*
X100271670Y-96510966D01*
X100482894Y-96633631D01*
X100713991Y-96712731D01*
X100804337Y-96724858D01*
X100800000Y-96746664D01*
X100800000Y-96985000D01*
X100910000Y-97095000D01*
X101545000Y-97095000D01*
X101545000Y-97075000D01*
X101555000Y-97075000D01*
X101555000Y-97095000D01*
X101575000Y-97095000D01*
X101575000Y-97105000D01*
X101555000Y-97105000D01*
X101555000Y-97740000D01*
X101665000Y-97850000D01*
X101810000Y-97850000D01*
X101810000Y-98500000D01*
X101815761Y-98558754D01*
X101820921Y-98617729D01*
X101821861Y-98620964D01*
X101822189Y-98624310D01*
X101839257Y-98680843D01*
X101855769Y-98737676D01*
X101857319Y-98740667D01*
X101858291Y-98743885D01*
X101886064Y-98796118D01*
X101913252Y-98848569D01*
X101915346Y-98851193D01*
X101916930Y-98854171D01*
X101954322Y-98900018D01*
X101991177Y-98946186D01*
X101995796Y-98950869D01*
X101995875Y-98950966D01*
X101995965Y-98951041D01*
X101997452Y-98952548D01*
X104360000Y-101315097D01*
X104360000Y-104534904D01*
X104212517Y-104682387D01*
X104190056Y-104686672D01*
X104055502Y-104741036D01*
X104018881Y-104765000D01*
X103768889Y-104765000D01*
X103848497Y-104671595D01*
X103899624Y-104558174D01*
X103917128Y-104435000D01*
X103917128Y-103835000D01*
X103911541Y-103764932D01*
X103874737Y-103646089D01*
X103806282Y-103542204D01*
X103759114Y-103502003D01*
X103767796Y-103496282D01*
X103848497Y-103401595D01*
X103899624Y-103288174D01*
X103917128Y-103165000D01*
X103917128Y-102565000D01*
X103911541Y-102494932D01*
X103874737Y-102376089D01*
X103806282Y-102272204D01*
X103759727Y-102232526D01*
X103816770Y-102175484D01*
X103864923Y-102103418D01*
X103898091Y-102023343D01*
X103915000Y-101938336D01*
X103915000Y-101710000D01*
X103805000Y-101600000D01*
X102705000Y-101600000D01*
X102705000Y-101620000D01*
X102695000Y-101620000D01*
X102695000Y-101600000D01*
X101595000Y-101600000D01*
X101485000Y-101710000D01*
X101485000Y-101919903D01*
X100890000Y-101324904D01*
X100890000Y-101251664D01*
X101485000Y-101251664D01*
X101485000Y-101480000D01*
X101595000Y-101590000D01*
X102695000Y-101590000D01*
X102695000Y-100965000D01*
X102705000Y-100965000D01*
X102705000Y-101590000D01*
X103805000Y-101590000D01*
X103915000Y-101480000D01*
X103915000Y-101251664D01*
X103898091Y-101166657D01*
X103864923Y-101086582D01*
X103816770Y-101014516D01*
X103755483Y-100953230D01*
X103683418Y-100905077D01*
X103603343Y-100871909D01*
X103518336Y-100855000D01*
X102815000Y-100855000D01*
X102705000Y-100965000D01*
X102695000Y-100965000D01*
X102585000Y-100855000D01*
X101881664Y-100855000D01*
X101796657Y-100871909D01*
X101716582Y-100905077D01*
X101644517Y-100953230D01*
X101583230Y-101014516D01*
X101535077Y-101086582D01*
X101501909Y-101166657D01*
X101485000Y-101251664D01*
X100890000Y-101251664D01*
X100890000Y-98750000D01*
X100884239Y-98691246D01*
X100879079Y-98632271D01*
X100878139Y-98629036D01*
X100877811Y-98625690D01*
X100860743Y-98569157D01*
X100844231Y-98512324D01*
X100842681Y-98509333D01*
X100841709Y-98506115D01*
X100813957Y-98453921D01*
X100786749Y-98401431D01*
X100784652Y-98398804D01*
X100783070Y-98395829D01*
X100745700Y-98350009D01*
X100708823Y-98303814D01*
X100704204Y-98299131D01*
X100704125Y-98299034D01*
X100704035Y-98298959D01*
X100702548Y-98297452D01*
X99640000Y-97234904D01*
X99640000Y-97215000D01*
X100800000Y-97215000D01*
X100800000Y-97453336D01*
X100816909Y-97538343D01*
X100850077Y-97618418D01*
X100898230Y-97690484D01*
X100959517Y-97751770D01*
X101031582Y-97799923D01*
X101111657Y-97833091D01*
X101196664Y-97850000D01*
X101435000Y-97850000D01*
X101545000Y-97740000D01*
X101545000Y-97105000D01*
X100910000Y-97105000D01*
X100800000Y-97215000D01*
X99640000Y-97215000D01*
X99640000Y-96562530D01*
X99767114Y-96481861D01*
X99943216Y-96314162D01*
X100000849Y-96232462D01*
X100193199Y-96299730D01*
X100992929Y-95500000D01*
X100193199Y-94700270D01*
X100001908Y-94767168D01*
X99965581Y-94712491D01*
X99946424Y-94693199D01*
X100200270Y-94693199D01*
X101000000Y-95492929D01*
X101799730Y-94693199D01*
X101728330Y-94489034D01*
X101517106Y-94366369D01*
X101286009Y-94287269D01*
X101043922Y-94254774D01*
X100800146Y-94270132D01*
X100564051Y-94332753D01*
X100344709Y-94440230D01*
X100271670Y-94489034D01*
X100200270Y-94693199D01*
X99946424Y-94693199D01*
X99794230Y-94539940D01*
X99592628Y-94403958D01*
X99368452Y-94309723D01*
X99130242Y-94260826D01*
X98887072Y-94259128D01*
X98648203Y-94304695D01*
X98422733Y-94395790D01*
X98219252Y-94528945D01*
X98045509Y-94699087D01*
X98000423Y-94764933D01*
X97965581Y-94712491D01*
X97794230Y-94539940D01*
X97592628Y-94403958D01*
X97368452Y-94309723D01*
X97130242Y-94260826D01*
X96887072Y-94259128D01*
X96648203Y-94304695D01*
X96422733Y-94395790D01*
X96219252Y-94528945D01*
X96045509Y-94699087D01*
X95908122Y-94899735D01*
X95812324Y-95123247D01*
X95761765Y-95361110D01*
X95758370Y-95604263D01*
X95802268Y-95843444D01*
X95891787Y-96069544D01*
X96023518Y-96273950D01*
X96192443Y-96448877D01*
X96360000Y-96565332D01*
X96360000Y-97000000D01*
X96365761Y-97058754D01*
X96370921Y-97117729D01*
X96371861Y-97120964D01*
X96372189Y-97124310D01*
X96389257Y-97180843D01*
X96405769Y-97237676D01*
X96407319Y-97240667D01*
X96408291Y-97243885D01*
X96436064Y-97296118D01*
X96463252Y-97348569D01*
X96465346Y-97351193D01*
X96466930Y-97354171D01*
X96504322Y-97400018D01*
X96541177Y-97446186D01*
X96545796Y-97450869D01*
X96545875Y-97450966D01*
X96545965Y-97451041D01*
X96547452Y-97452548D01*
X98610000Y-99515097D01*
X98610000Y-101860000D01*
X98615761Y-101918754D01*
X98620921Y-101977729D01*
X98621861Y-101980964D01*
X98622189Y-101984310D01*
X98639257Y-102040843D01*
X98655769Y-102097676D01*
X98657319Y-102100667D01*
X98658291Y-102103885D01*
X98686064Y-102156118D01*
X98713252Y-102208569D01*
X98715346Y-102211193D01*
X98716930Y-102214171D01*
X98754322Y-102260018D01*
X98791177Y-102306186D01*
X98795796Y-102310869D01*
X98795875Y-102310966D01*
X98795965Y-102311041D01*
X98797452Y-102312548D01*
X98803097Y-102318193D01*
X98778987Y-102305266D01*
X98727123Y-102276753D01*
X98723911Y-102275734D01*
X98720949Y-102274146D01*
X98664407Y-102256859D01*
X98608063Y-102238986D01*
X98604724Y-102238611D01*
X98601501Y-102237626D01*
X98542663Y-102231650D01*
X98483936Y-102225062D01*
X98477356Y-102225016D01*
X98477234Y-102225004D01*
X98477121Y-102225015D01*
X98475000Y-102225000D01*
X98367253Y-102225000D01*
X98416770Y-102175484D01*
X98464923Y-102103418D01*
X98498091Y-102023343D01*
X98515000Y-101938336D01*
X98515000Y-101710000D01*
X98405000Y-101600000D01*
X97305000Y-101600000D01*
X97305000Y-101620000D01*
X97295000Y-101620000D01*
X97295000Y-101600000D01*
X96195000Y-101600000D01*
X96085000Y-101710000D01*
X96085000Y-101938336D01*
X96101909Y-102023343D01*
X96135077Y-102103418D01*
X96183230Y-102175484D01*
X96237786Y-102230039D01*
X96232204Y-102233718D01*
X96151503Y-102328405D01*
X96100376Y-102441826D01*
X96082872Y-102565000D01*
X96082872Y-103165000D01*
X96088459Y-103235068D01*
X96125263Y-103353911D01*
X96193718Y-103457796D01*
X96240886Y-103497997D01*
X96232204Y-103503718D01*
X96151503Y-103598405D01*
X96100376Y-103711826D01*
X96082872Y-103835000D01*
X96082872Y-104435000D01*
X96088459Y-104505068D01*
X96125263Y-104623911D01*
X96193718Y-104727796D01*
X96237370Y-104765000D01*
X95995000Y-104765000D01*
X95936201Y-104770765D01*
X95877271Y-104775921D01*
X95874036Y-104776861D01*
X95870690Y-104777189D01*
X95814157Y-104794257D01*
X95757324Y-104810769D01*
X95754333Y-104812319D01*
X95751115Y-104813291D01*
X95698882Y-104841064D01*
X95646431Y-104868252D01*
X95643807Y-104870346D01*
X95640829Y-104871930D01*
X95594982Y-104909322D01*
X95548814Y-104946177D01*
X95544127Y-104950799D01*
X95544034Y-104950875D01*
X95543963Y-104950961D01*
X95542451Y-104952452D01*
X95274302Y-105220601D01*
X95190056Y-105236672D01*
X95055502Y-105291036D01*
X94950113Y-105360000D01*
X94099386Y-105360000D01*
X94417193Y-105042193D01*
X94451795Y-105000068D01*
X94486817Y-104958331D01*
X94488311Y-104955613D01*
X94490281Y-104953215D01*
X94516030Y-104905193D01*
X94542290Y-104857426D01*
X94543229Y-104854467D01*
X94544694Y-104851734D01*
X94560625Y-104799626D01*
X94577107Y-104747668D01*
X94577453Y-104744585D01*
X94578360Y-104741618D01*
X94583868Y-104687386D01*
X94589942Y-104633238D01*
X94589985Y-104627171D01*
X94589996Y-104627060D01*
X94589986Y-104626957D01*
X94590000Y-104625000D01*
X94590000Y-104347630D01*
X94633497Y-104296595D01*
X94684624Y-104183174D01*
X94702128Y-104060000D01*
X94702128Y-103540000D01*
X94696541Y-103469932D01*
X94676329Y-103404667D01*
X94683091Y-103388343D01*
X94700000Y-103303336D01*
X94700000Y-103115000D01*
X94590000Y-103005000D01*
X94005000Y-103005000D01*
X94005000Y-103025000D01*
X93995000Y-103025000D01*
X93995000Y-103005000D01*
X93410000Y-103005000D01*
X93300000Y-103115000D01*
X93300000Y-103303336D01*
X93316909Y-103388343D01*
X93322323Y-103401414D01*
X93315376Y-103416826D01*
X93297872Y-103540000D01*
X93297872Y-104060000D01*
X93303459Y-104130068D01*
X93340263Y-104248911D01*
X93408718Y-104352796D01*
X93410000Y-104353889D01*
X93410000Y-104380614D01*
X93380614Y-104410000D01*
X93292128Y-104410000D01*
X93292128Y-104080000D01*
X93286541Y-104009932D01*
X93277553Y-103980910D01*
X93290000Y-103918336D01*
X93290000Y-103515000D01*
X93180000Y-103405000D01*
X90820000Y-103405000D01*
X90710000Y-103515000D01*
X90710000Y-103918336D01*
X90722159Y-103979463D01*
X90707872Y-104080000D01*
X90707872Y-104550000D01*
X90713459Y-104620068D01*
X90750263Y-104738911D01*
X90760000Y-104753688D01*
X90760000Y-105402370D01*
X90716503Y-105453405D01*
X90665376Y-105566826D01*
X90647872Y-105690000D01*
X90647872Y-106210000D01*
X90653459Y-106280068D01*
X90673671Y-106345333D01*
X90666909Y-106361657D01*
X90650000Y-106446664D01*
X90650000Y-106635000D01*
X90760000Y-106745000D01*
X91345000Y-106745000D01*
X91345000Y-106725000D01*
X91355000Y-106725000D01*
X91355000Y-106745000D01*
X91940000Y-106745000D01*
X92050000Y-106635000D01*
X92050000Y-106540000D01*
X94952220Y-106540000D01*
X95037237Y-106599088D01*
X95170221Y-106657188D01*
X95311957Y-106688350D01*
X95457047Y-106691389D01*
X95599964Y-106666189D01*
X95735264Y-106613710D01*
X95857794Y-106535950D01*
X95962887Y-106435871D01*
X96046540Y-106317286D01*
X96093673Y-106211423D01*
X96255038Y-106050059D01*
X96288405Y-106078497D01*
X96401826Y-106129624D01*
X96525000Y-106147128D01*
X98075000Y-106147128D01*
X98145068Y-106141541D01*
X98263911Y-106104737D01*
X98360000Y-106041419D01*
X98360000Y-107036410D01*
X98365761Y-107095164D01*
X98370921Y-107154139D01*
X98371861Y-107157374D01*
X98372189Y-107160720D01*
X98389257Y-107217253D01*
X98405769Y-107274086D01*
X98407319Y-107277077D01*
X98408291Y-107280295D01*
X98436064Y-107332528D01*
X98463252Y-107384979D01*
X98465346Y-107387603D01*
X98466930Y-107390581D01*
X98504322Y-107436428D01*
X98541177Y-107482596D01*
X98545796Y-107487279D01*
X98545875Y-107487376D01*
X98545965Y-107487451D01*
X98547452Y-107488958D01*
X102071007Y-111012514D01*
X102067873Y-111011544D01*
X101910655Y-110995020D01*
X101753221Y-111009347D01*
X101601569Y-111053981D01*
X101461474Y-111127221D01*
X101338273Y-111226277D01*
X101257396Y-111322663D01*
X101209752Y-111264246D01*
X101087946Y-111163480D01*
X100948888Y-111088291D01*
X100797873Y-111041544D01*
X100640655Y-111025020D01*
X100483221Y-111039347D01*
X100331569Y-111083981D01*
X100191474Y-111157221D01*
X100068273Y-111256277D01*
X99987396Y-111352663D01*
X99939752Y-111294246D01*
X99817946Y-111193480D01*
X99678888Y-111118291D01*
X99527873Y-111071544D01*
X99370655Y-111055020D01*
X99213221Y-111069347D01*
X99061569Y-111113981D01*
X98921474Y-111187221D01*
X98798273Y-111286277D01*
X98754618Y-111338303D01*
X98669752Y-111234246D01*
X98547946Y-111133480D01*
X98408888Y-111058291D01*
X98257873Y-111011544D01*
X98100655Y-110995020D01*
X97943221Y-111009347D01*
X97791569Y-111053981D01*
X97651474Y-111127221D01*
X97528273Y-111226277D01*
X97451531Y-111317734D01*
X97399752Y-111254246D01*
X97277946Y-111153480D01*
X97138888Y-111078291D01*
X96987873Y-111031544D01*
X96830655Y-111015020D01*
X96673221Y-111029347D01*
X96521569Y-111073981D01*
X96381474Y-111147221D01*
X96258273Y-111246277D01*
X96181531Y-111337734D01*
X96129752Y-111274246D01*
X96007946Y-111173480D01*
X95868888Y-111098291D01*
X95717873Y-111051544D01*
X95560655Y-111035020D01*
X95403221Y-111049347D01*
X95251569Y-111093981D01*
X95111474Y-111167221D01*
X94988273Y-111266277D01*
X94886658Y-111387377D01*
X94860988Y-111434070D01*
X94783343Y-111401909D01*
X94698336Y-111385000D01*
X94400000Y-111385000D01*
X94290000Y-111495000D01*
X94290000Y-113280000D01*
X94310000Y-113280000D01*
X94310000Y-113290000D01*
X94290000Y-113290000D01*
X94290000Y-116710000D01*
X94310000Y-116710000D01*
X94310000Y-116720000D01*
X94290000Y-116720000D01*
X94290000Y-116740000D01*
X94280000Y-116740000D01*
X94280000Y-116720000D01*
X93585000Y-116720000D01*
X93475000Y-116830000D01*
X93475000Y-118218336D01*
X93484575Y-118266471D01*
X91379350Y-117472616D01*
X88149744Y-115465426D01*
X87745273Y-115087446D01*
X91653633Y-115087446D01*
X91690451Y-115288050D01*
X91765531Y-115477682D01*
X91876015Y-115649119D01*
X92017694Y-115795832D01*
X92185171Y-115912232D01*
X92372067Y-115993884D01*
X92571264Y-116037681D01*
X92775174Y-116041952D01*
X92976030Y-116006536D01*
X93166181Y-115932781D01*
X93338386Y-115823496D01*
X93475000Y-115693400D01*
X93475000Y-116600000D01*
X93585000Y-116710000D01*
X94280000Y-116710000D01*
X94280000Y-113290000D01*
X93585000Y-113290000D01*
X93475000Y-113400000D01*
X93475000Y-114309458D01*
X93361128Y-114194789D01*
X93192043Y-114080739D01*
X93004024Y-114001704D01*
X92804236Y-113960693D01*
X92600286Y-113959269D01*
X92399944Y-113997486D01*
X92210841Y-114073889D01*
X92040179Y-114185567D01*
X91894459Y-114328266D01*
X91779231Y-114496552D01*
X91698885Y-114684014D01*
X91656481Y-114883511D01*
X91653633Y-115087446D01*
X87745273Y-115087446D01*
X85371512Y-112869161D01*
X84588940Y-111781664D01*
X93475000Y-111781664D01*
X93475000Y-113170000D01*
X93585000Y-113280000D01*
X94280000Y-113280000D01*
X94280000Y-111495000D01*
X94170000Y-111385000D01*
X93871664Y-111385000D01*
X93786657Y-111401909D01*
X93706582Y-111435077D01*
X93634517Y-111483230D01*
X93573230Y-111544516D01*
X93525077Y-111616582D01*
X93491909Y-111696657D01*
X93475000Y-111781664D01*
X84588940Y-111781664D01*
X83150478Y-109782716D01*
X81645829Y-106487037D01*
X81696657Y-106508091D01*
X81781664Y-106525000D01*
X83170000Y-106525000D01*
X83280000Y-106415000D01*
X83280000Y-105720000D01*
X83290000Y-105720000D01*
X83290000Y-106415000D01*
X83400000Y-106525000D01*
X84310017Y-106525000D01*
X84199459Y-106633266D01*
X84084231Y-106801552D01*
X84003885Y-106989014D01*
X83961481Y-107188511D01*
X83958633Y-107392446D01*
X83995451Y-107593050D01*
X84070531Y-107782682D01*
X84181015Y-107954119D01*
X84322694Y-108100832D01*
X84490171Y-108217232D01*
X84677067Y-108298884D01*
X84876264Y-108342681D01*
X85080174Y-108346952D01*
X85281030Y-108311536D01*
X85471181Y-108237781D01*
X85643386Y-108128496D01*
X85791084Y-107987845D01*
X85908650Y-107821185D01*
X85991606Y-107634863D01*
X86036792Y-107435977D01*
X86040044Y-107203023D01*
X86000430Y-107002953D01*
X85943570Y-106865000D01*
X90650000Y-106865000D01*
X90650000Y-107053336D01*
X90666909Y-107138343D01*
X90700077Y-107218418D01*
X90748230Y-107290483D01*
X90809516Y-107351770D01*
X90881582Y-107399923D01*
X90961657Y-107433091D01*
X91046664Y-107450000D01*
X91235000Y-107450000D01*
X91345000Y-107340000D01*
X91345000Y-106755000D01*
X91355000Y-106755000D01*
X91355000Y-107340000D01*
X91465000Y-107450000D01*
X91653336Y-107450000D01*
X91738343Y-107433091D01*
X91818418Y-107399923D01*
X91890484Y-107351770D01*
X91951770Y-107290483D01*
X91999923Y-107218418D01*
X92033091Y-107138343D01*
X92050000Y-107053336D01*
X92050000Y-106865000D01*
X91940000Y-106755000D01*
X91355000Y-106755000D01*
X91345000Y-106755000D01*
X90760000Y-106755000D01*
X90650000Y-106865000D01*
X85943570Y-106865000D01*
X85922708Y-106814387D01*
X85809842Y-106644509D01*
X85691164Y-106525000D01*
X86600000Y-106525000D01*
X86710000Y-106415000D01*
X86710000Y-105720000D01*
X86720000Y-105720000D01*
X86720000Y-106415000D01*
X86830000Y-106525000D01*
X88218336Y-106525000D01*
X88303343Y-106508091D01*
X88383418Y-106474923D01*
X88455484Y-106426770D01*
X88516770Y-106365483D01*
X88564923Y-106293418D01*
X88598091Y-106213343D01*
X88615000Y-106128336D01*
X88615000Y-105830000D01*
X88505000Y-105720000D01*
X86720000Y-105720000D01*
X86710000Y-105720000D01*
X83290000Y-105720000D01*
X83280000Y-105720000D01*
X83260000Y-105720000D01*
X83260000Y-105710000D01*
X83280000Y-105710000D01*
X83280000Y-105690000D01*
X83290000Y-105690000D01*
X83290000Y-105710000D01*
X86710000Y-105710000D01*
X86710000Y-105690000D01*
X86720000Y-105690000D01*
X86720000Y-105710000D01*
X88505000Y-105710000D01*
X88615000Y-105600000D01*
X88615000Y-105301664D01*
X88598091Y-105216657D01*
X88566098Y-105139419D01*
X88603247Y-105119666D01*
X88725754Y-105019752D01*
X88826520Y-104897946D01*
X88901709Y-104758888D01*
X88948456Y-104607873D01*
X88964980Y-104450655D01*
X88950653Y-104293221D01*
X88906019Y-104141569D01*
X88832779Y-104001474D01*
X88733723Y-103878273D01*
X88661982Y-103818075D01*
X88745754Y-103749752D01*
X88846520Y-103627946D01*
X88921709Y-103488888D01*
X88968456Y-103337873D01*
X88984980Y-103180655D01*
X88970653Y-103023221D01*
X88926019Y-102871569D01*
X88852779Y-102731474D01*
X88753723Y-102608273D01*
X88681982Y-102548075D01*
X88765754Y-102479752D01*
X88866520Y-102357946D01*
X88941709Y-102218888D01*
X88988456Y-102067873D01*
X89004703Y-101913289D01*
X89097716Y-101977935D01*
X89239686Y-102039960D01*
X89390998Y-102073228D01*
X89545891Y-102076472D01*
X89698464Y-102049570D01*
X89842907Y-101993544D01*
X89927279Y-101940000D01*
X90601899Y-101940000D01*
X90605184Y-101946337D01*
X90607119Y-101948761D01*
X90608576Y-101951501D01*
X90643042Y-101993761D01*
X90677023Y-102036327D01*
X90681279Y-102040644D01*
X90681353Y-102040734D01*
X90681437Y-102040803D01*
X90682807Y-102042193D01*
X90738446Y-102097832D01*
X90725376Y-102126826D01*
X90707872Y-102250000D01*
X90707872Y-102720000D01*
X90713459Y-102790068D01*
X90722447Y-102819090D01*
X90710000Y-102881664D01*
X90710000Y-103285000D01*
X90820000Y-103395000D01*
X93180000Y-103395000D01*
X93290000Y-103285000D01*
X93290000Y-102881664D01*
X93278232Y-102822500D01*
X93290000Y-102763336D01*
X93290000Y-102696664D01*
X93300000Y-102696664D01*
X93300000Y-102885000D01*
X93410000Y-102995000D01*
X93995000Y-102995000D01*
X93995000Y-102410000D01*
X94005000Y-102410000D01*
X94005000Y-102995000D01*
X94590000Y-102995000D01*
X94700000Y-102885000D01*
X94700000Y-102696664D01*
X94683091Y-102611657D01*
X94649923Y-102531582D01*
X94601770Y-102459517D01*
X94540484Y-102398230D01*
X94468418Y-102350077D01*
X94388343Y-102316909D01*
X94303336Y-102300000D01*
X94115000Y-102300000D01*
X94005000Y-102410000D01*
X93995000Y-102410000D01*
X93885000Y-102300000D01*
X93696664Y-102300000D01*
X93611657Y-102316909D01*
X93531582Y-102350077D01*
X93459516Y-102398230D01*
X93398230Y-102459517D01*
X93350077Y-102531582D01*
X93316909Y-102611657D01*
X93300000Y-102696664D01*
X93290000Y-102696664D01*
X93290000Y-102600000D01*
X93180000Y-102490000D01*
X92918473Y-102490000D01*
X92893336Y-102485000D01*
X92115000Y-102485000D01*
X92110000Y-102490000D01*
X92005000Y-102490000D01*
X92005000Y-102510000D01*
X91995000Y-102510000D01*
X91995000Y-102490000D01*
X91992128Y-102490000D01*
X91992128Y-102480000D01*
X91995000Y-102480000D01*
X91995000Y-102460000D01*
X92005000Y-102460000D01*
X92005000Y-102480000D01*
X92645000Y-102480000D01*
X92645000Y-101920000D01*
X92655000Y-101920000D01*
X92655000Y-102480000D01*
X93180000Y-102480000D01*
X93290000Y-102370000D01*
X93290000Y-102206664D01*
X93273091Y-102121657D01*
X93239923Y-102041582D01*
X93191770Y-101969517D01*
X93130484Y-101908230D01*
X93058418Y-101860077D01*
X92978343Y-101826909D01*
X92893336Y-101810000D01*
X92765000Y-101810000D01*
X92655000Y-101920000D01*
X92645000Y-101920000D01*
X92535000Y-101810000D01*
X92522139Y-101810000D01*
X92549923Y-101768418D01*
X92583091Y-101688343D01*
X92600000Y-101603336D01*
X92600000Y-101415000D01*
X92490000Y-101305000D01*
X91905000Y-101305000D01*
X91905000Y-101325000D01*
X91895000Y-101325000D01*
X91895000Y-101305000D01*
X91875000Y-101305000D01*
X91875000Y-101295000D01*
X91895000Y-101295000D01*
X91895000Y-100710000D01*
X91905000Y-100710000D01*
X91905000Y-101295000D01*
X92490000Y-101295000D01*
X92533336Y-101251664D01*
X96085000Y-101251664D01*
X96085000Y-101480000D01*
X96195000Y-101590000D01*
X97295000Y-101590000D01*
X97295000Y-100965000D01*
X97305000Y-100965000D01*
X97305000Y-101590000D01*
X98405000Y-101590000D01*
X98515000Y-101480000D01*
X98515000Y-101251664D01*
X98498091Y-101166657D01*
X98464923Y-101086582D01*
X98416770Y-101014516D01*
X98355483Y-100953230D01*
X98283418Y-100905077D01*
X98203343Y-100871909D01*
X98118336Y-100855000D01*
X97415000Y-100855000D01*
X97305000Y-100965000D01*
X97295000Y-100965000D01*
X97185000Y-100855000D01*
X96481664Y-100855000D01*
X96396657Y-100871909D01*
X96316582Y-100905077D01*
X96244517Y-100953230D01*
X96183230Y-101014516D01*
X96135077Y-101086582D01*
X96101909Y-101166657D01*
X96085000Y-101251664D01*
X92533336Y-101251664D01*
X92600000Y-101185000D01*
X92600000Y-100996664D01*
X92583091Y-100911657D01*
X92549923Y-100831582D01*
X92501770Y-100759516D01*
X92440483Y-100698230D01*
X92368418Y-100650077D01*
X92288343Y-100616909D01*
X92203336Y-100600000D01*
X92015000Y-100600000D01*
X91905000Y-100710000D01*
X91895000Y-100710000D01*
X91785000Y-100600000D01*
X91596664Y-100600000D01*
X91511657Y-100616909D01*
X91498586Y-100622323D01*
X91483174Y-100615376D01*
X91360000Y-100597872D01*
X90840000Y-100597872D01*
X90769932Y-100603459D01*
X90651089Y-100640263D01*
X90621137Y-100660000D01*
X89971214Y-100660000D01*
X89862551Y-100586706D01*
X89719730Y-100526669D01*
X89567967Y-100495517D01*
X89413044Y-100494435D01*
X89260861Y-100523465D01*
X89117215Y-100581502D01*
X88987578Y-100666334D01*
X88970526Y-100683033D01*
X88974980Y-100640655D01*
X88960653Y-100483221D01*
X88916019Y-100331569D01*
X88842779Y-100191474D01*
X88743723Y-100068273D01*
X88662124Y-99999803D01*
X88735754Y-99939752D01*
X88836520Y-99817946D01*
X88911709Y-99678888D01*
X88958456Y-99527873D01*
X88974980Y-99370655D01*
X88960653Y-99213221D01*
X88916019Y-99061569D01*
X88842779Y-98921474D01*
X88743723Y-98798273D01*
X88676911Y-98742211D01*
X88765754Y-98669752D01*
X88866520Y-98547946D01*
X88941709Y-98408888D01*
X88988456Y-98257873D01*
X89004980Y-98100655D01*
X88990653Y-97943221D01*
X88946019Y-97791569D01*
X88872779Y-97651474D01*
X88773723Y-97528273D01*
X88682266Y-97451531D01*
X88745754Y-97399752D01*
X88846520Y-97277946D01*
X88921709Y-97138888D01*
X88968456Y-96987873D01*
X88984980Y-96830655D01*
X88970653Y-96673221D01*
X88926019Y-96521569D01*
X88852779Y-96381474D01*
X88753723Y-96258273D01*
X88657337Y-96177396D01*
X88715754Y-96129752D01*
X88816520Y-96007946D01*
X88891709Y-95868888D01*
X88938456Y-95717873D01*
X88954980Y-95560655D01*
X88940653Y-95403221D01*
X88896019Y-95251569D01*
X88822779Y-95111474D01*
X88723723Y-94988273D01*
X88602623Y-94886658D01*
X88563694Y-94865257D01*
X88564923Y-94863418D01*
X88598091Y-94783343D01*
X88615000Y-94698336D01*
X88615000Y-94400000D01*
X88505000Y-94290000D01*
X86720000Y-94290000D01*
X86720000Y-94310000D01*
X86710000Y-94310000D01*
X86710000Y-94290000D01*
X83290000Y-94290000D01*
X83290000Y-94310000D01*
X83280000Y-94310000D01*
X83280000Y-94290000D01*
X83260000Y-94290000D01*
X83260000Y-94280000D01*
X83280000Y-94280000D01*
X83280000Y-93585000D01*
X83290000Y-93585000D01*
X83290000Y-94280000D01*
X86710000Y-94280000D01*
X86710000Y-93585000D01*
X86720000Y-93585000D01*
X86720000Y-94280000D01*
X88505000Y-94280000D01*
X88615000Y-94170000D01*
X88615000Y-93871664D01*
X88598091Y-93786657D01*
X88564923Y-93706582D01*
X88516770Y-93634517D01*
X88455484Y-93573230D01*
X88383418Y-93525077D01*
X88303343Y-93491909D01*
X88280907Y-93487446D01*
X94458633Y-93487446D01*
X94495451Y-93688050D01*
X94570531Y-93877682D01*
X94681015Y-94049119D01*
X94822694Y-94195832D01*
X94990171Y-94312232D01*
X95177067Y-94393884D01*
X95376264Y-94437681D01*
X95580174Y-94441952D01*
X95781030Y-94406536D01*
X95971181Y-94332781D01*
X96143386Y-94223496D01*
X96291084Y-94082845D01*
X96408650Y-93916185D01*
X96491606Y-93729863D01*
X96536792Y-93530977D01*
X96537399Y-93487446D01*
X103458633Y-93487446D01*
X103495451Y-93688050D01*
X103570531Y-93877682D01*
X103681015Y-94049119D01*
X103822694Y-94195832D01*
X103990171Y-94312232D01*
X104177067Y-94393884D01*
X104376264Y-94437681D01*
X104580174Y-94441952D01*
X104781030Y-94406536D01*
X104971181Y-94332781D01*
X105143386Y-94223496D01*
X105291084Y-94082845D01*
X105408650Y-93916185D01*
X105428472Y-93871664D01*
X111385000Y-93871664D01*
X111385000Y-94170000D01*
X111495000Y-94280000D01*
X113280000Y-94280000D01*
X113280000Y-93585000D01*
X113290000Y-93585000D01*
X113290000Y-94280000D01*
X116710000Y-94280000D01*
X116710000Y-93585000D01*
X116600000Y-93475000D01*
X115689061Y-93475000D01*
X115791084Y-93377845D01*
X115908650Y-93211185D01*
X115991606Y-93024863D01*
X116036792Y-92825977D01*
X116040044Y-92593023D01*
X116000430Y-92392953D01*
X115922708Y-92204387D01*
X115809842Y-92034509D01*
X115666128Y-91889789D01*
X115497043Y-91775739D01*
X115309024Y-91696704D01*
X115109236Y-91655693D01*
X114905286Y-91654269D01*
X114704944Y-91692486D01*
X114515841Y-91768889D01*
X114345179Y-91880567D01*
X114199459Y-92023266D01*
X114084231Y-92191552D01*
X114003885Y-92379014D01*
X113961481Y-92578511D01*
X113958633Y-92782446D01*
X113995451Y-92983050D01*
X114070531Y-93172682D01*
X114181015Y-93344119D01*
X114307405Y-93475000D01*
X113400000Y-93475000D01*
X113290000Y-93585000D01*
X113280000Y-93585000D01*
X113170000Y-93475000D01*
X111781664Y-93475000D01*
X111696657Y-93491909D01*
X111616582Y-93525077D01*
X111544516Y-93573230D01*
X111483230Y-93634517D01*
X111435077Y-93706582D01*
X111401909Y-93786657D01*
X111385000Y-93871664D01*
X105428472Y-93871664D01*
X105491606Y-93729863D01*
X105536792Y-93530977D01*
X105540044Y-93298023D01*
X105500430Y-93097953D01*
X105422708Y-92909387D01*
X105309842Y-92739509D01*
X105166128Y-92594789D01*
X104997043Y-92480739D01*
X104809024Y-92401704D01*
X104609236Y-92360693D01*
X104405286Y-92359269D01*
X104204944Y-92397486D01*
X104015841Y-92473889D01*
X103845179Y-92585567D01*
X103699459Y-92728266D01*
X103584231Y-92896552D01*
X103503885Y-93084014D01*
X103461481Y-93283511D01*
X103458633Y-93487446D01*
X96537399Y-93487446D01*
X96540044Y-93298023D01*
X96500430Y-93097953D01*
X96422708Y-92909387D01*
X96309842Y-92739509D01*
X96166128Y-92594789D01*
X95997043Y-92480739D01*
X95809024Y-92401704D01*
X95609236Y-92360693D01*
X95405286Y-92359269D01*
X95204944Y-92397486D01*
X95015841Y-92473889D01*
X94845179Y-92585567D01*
X94699459Y-92728266D01*
X94584231Y-92896552D01*
X94503885Y-93084014D01*
X94461481Y-93283511D01*
X94458633Y-93487446D01*
X88280907Y-93487446D01*
X88218336Y-93475000D01*
X86830000Y-93475000D01*
X86720000Y-93585000D01*
X86710000Y-93585000D01*
X86600000Y-93475000D01*
X85689061Y-93475000D01*
X85791084Y-93377845D01*
X85908650Y-93211185D01*
X85991606Y-93024863D01*
X86036792Y-92825977D01*
X86040044Y-92593023D01*
X86000430Y-92392953D01*
X85922708Y-92204387D01*
X85809842Y-92034509D01*
X85666128Y-91889789D01*
X85497043Y-91775739D01*
X85309024Y-91696704D01*
X85109236Y-91655693D01*
X84905286Y-91654269D01*
X84704944Y-91692486D01*
X84515841Y-91768889D01*
X84345179Y-91880567D01*
X84199459Y-92023266D01*
X84084231Y-92191552D01*
X84003885Y-92379014D01*
X83961481Y-92578511D01*
X83958633Y-92782446D01*
X83995451Y-92983050D01*
X84070531Y-93172682D01*
X84181015Y-93344119D01*
X84307405Y-93475000D01*
X83400000Y-93475000D01*
X83290000Y-93585000D01*
X83280000Y-93585000D01*
X83170000Y-93475000D01*
X81781664Y-93475000D01*
X81735785Y-93484126D01*
X82467627Y-91501537D01*
X84461339Y-88243100D01*
X85046747Y-87515000D01*
X114931560Y-87515000D01*
X116984469Y-90453495D01*
M02*
