G04 #@! TF.FileFunction,Legend,Top*
%FSLAX46Y46*%
G04 Gerber Fmt 4.6, Leading zero omitted, Abs format (unit mm)*
G04 Created by KiCad (PCBNEW 4.0.2+e4-6225~38~ubuntu14.04.1-stable) date Wed 20 Jul 2016 03:53:55 BST*
%MOMM*%
G01*
G04 APERTURE LIST*
%ADD10C,0.100000*%
%ADD11C,0.150000*%
%ADD12R,0.520000X0.520000*%
%ADD13R,0.620000X0.620000*%
%ADD14R,0.400000X0.470000*%
%ADD15R,1.702000X0.952000*%
%ADD16R,1.550000X0.600000*%
%ADD17R,2.920000X0.740000*%
%ADD18C,1.200000*%
%ADD19C,1.600000*%
%ADD20R,0.740000X2.920000*%
G04 APERTURE END LIST*
D10*
D11*
X91000000Y-103800000D02*
X91000000Y-102400000D01*
X93000000Y-104400000D02*
X93000000Y-102400000D01*
X91000000Y-103800000D02*
G75*
G03X91000000Y-104400000I0J-300000D01*
G01*
X100825000Y-105405000D02*
X98575000Y-105405000D01*
X98575000Y-105405000D02*
X98575000Y-101595000D01*
X98575000Y-101595000D02*
X101425000Y-101595000D01*
X101425000Y-101595000D02*
X101425000Y-104805000D01*
X101425000Y-104805000D02*
X100825000Y-105405000D01*
X87785000Y-93635000D02*
X87785000Y-92135000D01*
X87785000Y-92135000D02*
X82215000Y-92135000D01*
X82215000Y-92135000D02*
X82215000Y-93635000D01*
X82215000Y-106365000D02*
X83715000Y-107865000D01*
X83715000Y-107865000D02*
X86285000Y-107865000D01*
X86285000Y-107865000D02*
X87785000Y-106365000D01*
X117785000Y-93635000D02*
X117785000Y-92135000D01*
X117785000Y-92135000D02*
X112215000Y-92135000D01*
X112215000Y-92135000D02*
X112215000Y-93635000D01*
X112215000Y-106365000D02*
X113715000Y-107865000D01*
X113715000Y-107865000D02*
X116285000Y-107865000D01*
X116285000Y-107865000D02*
X117785000Y-106365000D01*
X95000000Y-87300000D02*
X105000000Y-87300000D01*
X105000000Y-87300000D02*
X105000000Y-99000000D01*
X105000000Y-99000000D02*
X104000000Y-99000000D01*
X104000000Y-99000000D02*
X104000000Y-95000000D01*
X95000000Y-87300000D02*
X95000000Y-99000000D01*
X95000000Y-99000000D02*
X96000000Y-99000000D01*
X96000000Y-99000000D02*
X96000000Y-95000000D01*
X93635000Y-112215000D02*
X92135000Y-112215000D01*
X92135000Y-112215000D02*
X92135000Y-117785000D01*
X92135000Y-117785000D02*
X93635000Y-117785000D01*
X106365000Y-117785000D02*
X107865000Y-116285000D01*
X107865000Y-116285000D02*
X107865000Y-113715000D01*
X107865000Y-113715000D02*
X106365000Y-112215000D01*
%LPC*%
D12*
X91100000Y-101300000D03*
X91900000Y-101300000D03*
X91100000Y-105600000D03*
X91900000Y-105600000D03*
D13*
X101550000Y-97100000D03*
X102450000Y-97100000D03*
D14*
X91350000Y-104315000D03*
X92000000Y-104315000D03*
X92650000Y-104315000D03*
X92650000Y-102485000D03*
X92000000Y-102485000D03*
X91350000Y-102485000D03*
D15*
X92000000Y-103400000D03*
D16*
X102700000Y-105405000D03*
X102700000Y-104135000D03*
X102700000Y-102865000D03*
X102700000Y-101595000D03*
X97300000Y-101595000D03*
X97300000Y-102865000D03*
X97300000Y-104135000D03*
X97300000Y-105405000D03*
D17*
X83285000Y-94285000D03*
X86715000Y-94285000D03*
X83285000Y-95555000D03*
X86715000Y-95555000D03*
X83285000Y-96825000D03*
X86715000Y-96825000D03*
X83285000Y-98095000D03*
X86715000Y-98095000D03*
X83285000Y-99365000D03*
X86715000Y-99365000D03*
X83285000Y-100635000D03*
X86715000Y-100635000D03*
X83285000Y-101905000D03*
X86715000Y-101905000D03*
X83285000Y-103175000D03*
X86715000Y-103175000D03*
X83285000Y-104445000D03*
X86715000Y-104445000D03*
X83285000Y-105715000D03*
X86715000Y-105715000D03*
X113285000Y-94285000D03*
X116715000Y-94285000D03*
X113285000Y-95555000D03*
X116715000Y-95555000D03*
X113285000Y-96825000D03*
X116715000Y-96825000D03*
X113285000Y-98095000D03*
X116715000Y-98095000D03*
X113285000Y-99365000D03*
X116715000Y-99365000D03*
X113285000Y-100635000D03*
X116715000Y-100635000D03*
X113285000Y-101905000D03*
X116715000Y-101905000D03*
X113285000Y-103175000D03*
X116715000Y-103175000D03*
X113285000Y-104445000D03*
X116715000Y-104445000D03*
X113285000Y-105715000D03*
X116715000Y-105715000D03*
D18*
X85000000Y-107305000D03*
X85000000Y-92695000D03*
X104500000Y-93400000D03*
X95500000Y-93400000D03*
D19*
X103000000Y-95500000D03*
X101000000Y-95500000D03*
X99000000Y-95500000D03*
X97000000Y-95500000D03*
D18*
X115000000Y-107305000D03*
X115000000Y-92695000D03*
D20*
X94285000Y-116715000D03*
X94285000Y-113285000D03*
X95555000Y-116715000D03*
X95555000Y-113285000D03*
X96825000Y-116715000D03*
X96825000Y-113285000D03*
X98095000Y-116715000D03*
X98095000Y-113285000D03*
X99365000Y-116715000D03*
X99365000Y-113285000D03*
X100635000Y-116715000D03*
X100635000Y-113285000D03*
X101905000Y-116715000D03*
X101905000Y-113285000D03*
X103175000Y-116715000D03*
X103175000Y-113285000D03*
X104445000Y-116715000D03*
X104445000Y-113285000D03*
X105715000Y-116715000D03*
X105715000Y-113285000D03*
D18*
X107305000Y-115000000D03*
X92695000Y-115000000D03*
D12*
X94000000Y-103800000D03*
X94000000Y-103000000D03*
M02*
