G04 #@! TF.FileFunction,Paste,Bot*
%FSLAX46Y46*%
G04 Gerber Fmt 4.6, Leading zero omitted, Abs format (unit mm)*
G04 Created by KiCad (PCBNEW 4.0.2+e4-6225~38~ubuntu14.04.1-stable) date Wed 20 Jul 2016 03:53:55 BST*
%MOMM*%
G01*
G04 APERTURE LIST*
%ADD10C,0.100000*%
%ADD11R,2.220000X0.740000*%
%ADD12R,0.740000X2.220000*%
G04 APERTURE END LIST*
D10*
D11*
X83635000Y-94285000D03*
X86365000Y-94285000D03*
X83635000Y-95555000D03*
X86365000Y-95555000D03*
X83635000Y-96825000D03*
X86365000Y-96825000D03*
X83635000Y-98095000D03*
X86365000Y-98095000D03*
X83635000Y-99365000D03*
X86365000Y-99365000D03*
X83635000Y-100635000D03*
X86365000Y-100635000D03*
X83635000Y-101905000D03*
X86365000Y-101905000D03*
X83635000Y-103175000D03*
X86365000Y-103175000D03*
X83635000Y-104445000D03*
X86365000Y-104445000D03*
X83635000Y-105715000D03*
X86365000Y-105715000D03*
X113635000Y-94285000D03*
X116365000Y-94285000D03*
X113635000Y-95555000D03*
X116365000Y-95555000D03*
X113635000Y-96825000D03*
X116365000Y-96825000D03*
X113635000Y-98095000D03*
X116365000Y-98095000D03*
X113635000Y-99365000D03*
X116365000Y-99365000D03*
X113635000Y-100635000D03*
X116365000Y-100635000D03*
X113635000Y-101905000D03*
X116365000Y-101905000D03*
X113635000Y-103175000D03*
X116365000Y-103175000D03*
X113635000Y-104445000D03*
X116365000Y-104445000D03*
X113635000Y-105715000D03*
X116365000Y-105715000D03*
D12*
X94285000Y-116365000D03*
X94285000Y-113635000D03*
X95555000Y-116365000D03*
X95555000Y-113635000D03*
X96825000Y-116365000D03*
X96825000Y-113635000D03*
X98095000Y-116365000D03*
X98095000Y-113635000D03*
X99365000Y-116365000D03*
X99365000Y-113635000D03*
X100635000Y-116365000D03*
X100635000Y-113635000D03*
X101905000Y-116365000D03*
X101905000Y-113635000D03*
X103175000Y-116365000D03*
X103175000Y-113635000D03*
X104445000Y-116365000D03*
X104445000Y-113635000D03*
X105715000Y-116365000D03*
X105715000Y-113635000D03*
M02*
