M48
;DRILL file {KiCad 201609280951+7255~55~ubuntu14.04.1-} date Wed Jan 11 23:22:05 2017
;FORMAT={-:-/ absolute / inch / decimal}
FMAT,2
INCH,TZ
T1C0.008
T2C0.012
T3C0.016
%
G90
G05
M72
T1
X4.2736Y-3.4843
X4.2736Y-3.5315
X4.3209Y-3.4843
X4.3209Y-3.5315
T2
X4.5878Y-3.6764
T3
X3.2213Y-3.7118
X3.2213Y-3.7618
X3.2213Y-3.8122
X3.2213Y-3.8622
X3.2213Y-3.9122
X3.2213Y-3.9618
X3.2213Y-4.0118
X3.2213Y-4.0618
X3.2213Y-4.1118
X3.2862Y-4.2004
X3.3878Y-4.3661
X3.4059Y-4.2008
X3.4528Y-4.4616
X3.4715Y-4.062
X3.4717Y-3.7122
X3.4717Y-3.7618
X3.4717Y-3.8122
X3.4717Y-3.9122
X3.4717Y-3.9622
X3.4717Y-4.0118
X3.4724Y-4.1122
X3.5098Y-4.2677
X3.5217Y-4.5098
X3.5295Y-3.8622
X3.5807Y-4.3602
X3.5807Y-4.4764
X3.6417Y-3.9587
X3.6673Y-4.5276
X3.6866Y-4.4327
X3.689Y-4.372
X3.7736Y-3.6634
X3.7795Y-3.565
X3.7894Y-3.4665
X3.8606Y-4.6539
X3.874Y-3.563
X3.8878Y-3.4646
X3.9213Y-4.6835
X3.937Y-3.1988
X3.9803Y-3.878
X3.9862Y-3.1988
X4.0079Y-3.9075
X4.0079Y-3.9528
X4.0728Y-4.0354
X4.0886Y-3.7992
X4.0886Y-3.8366
X4.0886Y-3.874
X4.1051Y-4.1134
X4.126Y-3.4646
X4.1378Y-4.4744
X4.1461Y-4.2575
X4.1594Y-3.9488
X4.1634Y-3.3917
X4.2244Y-4.5354
X4.2343Y-3.565
X4.2697Y-4.2579
X4.3169Y-4.5846
X4.3547Y-4.3055
X4.3614Y-4.4697
X4.3701Y-3.5669
X4.4024Y-3.7118
X4.4024Y-3.7622
X4.4024Y-3.8122
X4.4024Y-3.8618
X4.4024Y-3.9118
X4.4024Y-3.9618
X4.4024Y-4.0118
X4.4024Y-4.0618
X4.4024Y-4.1122
X4.4024Y-4.1622
X4.4055Y-3.4823
X4.4134Y-3.4075
X4.5815Y-4.2004
X4.6528Y-3.7618
X4.6528Y-3.8118
X4.6528Y-3.8622
X4.6528Y-3.9118
X4.6528Y-3.9618
X4.6528Y-4.0118
X4.6528Y-4.0618
X4.6528Y-4.1118
T0
M30
