G04 #@! TF.FileFunction,Legend,Top*
%FSLAX46Y46*%
G04 Gerber Fmt 4.6, Leading zero omitted, Abs format (unit mm)*
G04 Created by KiCad (PCBNEW 4.1.0-alpha+201605071002+6776~44~ubuntu14.04.1-product) date Sun 03 Jul 2016 02:58:02 BST*
%MOMM*%
%LPD*%
G01*
G04 APERTURE LIST*
%ADD10C,0.100000*%
%ADD11C,0.125000*%
%ADD12C,0.200000*%
%ADD13C,0.150000*%
%ADD14R,0.620000X0.620000*%
%ADD15R,1.150000X1.450000*%
%ADD16R,1.450000X1.150000*%
%ADD17R,0.300000X1.500000*%
%ADD18R,1.500000X0.300000*%
%ADD19R,0.250000X0.600000*%
%ADD20R,0.600000X0.250000*%
%ADD21R,1.702000X1.702000*%
%ADD22R,0.350000X0.650000*%
%ADD23R,0.802000X0.802000*%
%ADD24R,0.250000X0.700000*%
%ADD25R,2.382000X1.652000*%
%ADD26R,2.920000X0.740000*%
%ADD27C,1.200000*%
%ADD28R,0.500000X1.600000*%
%ADD29R,0.400000X0.250000*%
%ADD30R,0.400000X0.700000*%
%ADD31R,0.250000X0.400000*%
%ADD32R,0.700000X0.400000*%
%ADD33R,0.950000X0.850000*%
%ADD34R,0.740000X2.920000*%
%ADD35R,0.475000X0.800000*%
%ADD36R,0.650000X0.550000*%
%ADD37R,0.750000X0.550000*%
%ADD38R,2.025000X3.900000*%
%ADD39R,0.650000X1.250000*%
%ADD40R,0.800000X0.475000*%
%ADD41R,0.550000X0.650000*%
%ADD42R,0.550000X0.750000*%
%ADD43R,3.900000X2.025000*%
%ADD44R,1.250000X0.650000*%
%ADD45R,0.400000X0.850000*%
%ADD46R,0.400000X0.455000*%
%ADD47R,1.050000X1.100000*%
G04 APERTURE END LIST*
D10*
D11*
X91878571Y-83788690D02*
X91640476Y-83788690D01*
X91640476Y-83288690D01*
X92045238Y-83741071D02*
X92069047Y-83764880D01*
X92045238Y-83788690D01*
X92021428Y-83764880D01*
X92045238Y-83741071D01*
X92045238Y-83788690D01*
X92592857Y-83288690D02*
X92878571Y-83288690D01*
X92735714Y-83788690D02*
X92735714Y-83288690D01*
X93021428Y-83645833D02*
X93259523Y-83645833D01*
X92973809Y-83788690D02*
X93140476Y-83288690D01*
X93307142Y-83788690D01*
X93473809Y-83788690D02*
X93473809Y-83288690D01*
X93759523Y-83788690D01*
X93759523Y-83288690D01*
X91402380Y-84163690D02*
X91402380Y-84520833D01*
X91378571Y-84592261D01*
X91330952Y-84639880D01*
X91259523Y-84663690D01*
X91211904Y-84663690D01*
X91640476Y-84616071D02*
X91664285Y-84639880D01*
X91640476Y-84663690D01*
X91616666Y-84639880D01*
X91640476Y-84616071D01*
X91640476Y-84663690D01*
X92211904Y-84163690D02*
X92330952Y-84663690D01*
X92426190Y-84306547D01*
X92521428Y-84663690D01*
X92640476Y-84163690D01*
X92926190Y-84163690D02*
X93021428Y-84163690D01*
X93069047Y-84187500D01*
X93116666Y-84235119D01*
X93140476Y-84330357D01*
X93140476Y-84497023D01*
X93116666Y-84592261D01*
X93069047Y-84639880D01*
X93021428Y-84663690D01*
X92926190Y-84663690D01*
X92878571Y-84639880D01*
X92830952Y-84592261D01*
X92807142Y-84497023D01*
X92807142Y-84330357D01*
X92830952Y-84235119D01*
X92878571Y-84187500D01*
X92926190Y-84163690D01*
X93450000Y-84163690D02*
X93545238Y-84163690D01*
X93592857Y-84187500D01*
X93640476Y-84235119D01*
X93664285Y-84330357D01*
X93664285Y-84497023D01*
X93640476Y-84592261D01*
X93592857Y-84639880D01*
X93545238Y-84663690D01*
X93450000Y-84663690D01*
X93402380Y-84639880D01*
X93354761Y-84592261D01*
X93330952Y-84497023D01*
X93330952Y-84330357D01*
X93354761Y-84235119D01*
X93402380Y-84187500D01*
X93450000Y-84163690D01*
X93878571Y-84663690D02*
X93878571Y-84163690D01*
X93997619Y-84163690D01*
X94069047Y-84187500D01*
X94116666Y-84235119D01*
X94140476Y-84282738D01*
X94164285Y-84377976D01*
X94164285Y-84449404D01*
X94140476Y-84544642D01*
X94116666Y-84592261D01*
X94069047Y-84639880D01*
X93997619Y-84663690D01*
X93878571Y-84663690D01*
X101011904Y-118126190D02*
X101011904Y-117792857D01*
X101011904Y-117888095D02*
X101035714Y-117840476D01*
X101059523Y-117816666D01*
X101107142Y-117792857D01*
X101154761Y-117792857D01*
X101583333Y-118126190D02*
X101297619Y-118126190D01*
X101440476Y-118126190D02*
X101440476Y-117626190D01*
X101392857Y-117697619D01*
X101345238Y-117745238D01*
X101297619Y-117769047D01*
X102154761Y-117673809D02*
X102178571Y-117650000D01*
X102226190Y-117626190D01*
X102345238Y-117626190D01*
X102392857Y-117650000D01*
X102416666Y-117673809D01*
X102440476Y-117721428D01*
X102440476Y-117769047D01*
X102416666Y-117840476D01*
X102130952Y-118126190D01*
X102440476Y-118126190D01*
X102750000Y-117626190D02*
X102797619Y-117626190D01*
X102845238Y-117650000D01*
X102869047Y-117673809D01*
X102892857Y-117721428D01*
X102916666Y-117816666D01*
X102916666Y-117935714D01*
X102892857Y-118030952D01*
X102869047Y-118078571D01*
X102845238Y-118102380D01*
X102797619Y-118126190D01*
X102750000Y-118126190D01*
X102702380Y-118102380D01*
X102678571Y-118078571D01*
X102654761Y-118030952D01*
X102630952Y-117935714D01*
X102630952Y-117816666D01*
X102654761Y-117721428D01*
X102678571Y-117673809D01*
X102702380Y-117650000D01*
X102750000Y-117626190D01*
X103392857Y-118126190D02*
X103107142Y-118126190D01*
X103250000Y-118126190D02*
X103250000Y-117626190D01*
X103202380Y-117697619D01*
X103154761Y-117745238D01*
X103107142Y-117769047D01*
X103821428Y-117626190D02*
X103726190Y-117626190D01*
X103678571Y-117650000D01*
X103654761Y-117673809D01*
X103607142Y-117745238D01*
X103583333Y-117840476D01*
X103583333Y-118030952D01*
X103607142Y-118078571D01*
X103630952Y-118102380D01*
X103678571Y-118126190D01*
X103773809Y-118126190D01*
X103821428Y-118102380D01*
X103845238Y-118078571D01*
X103869047Y-118030952D01*
X103869047Y-117911904D01*
X103845238Y-117864285D01*
X103821428Y-117840476D01*
X103773809Y-117816666D01*
X103678571Y-117816666D01*
X103630952Y-117840476D01*
X103607142Y-117864285D01*
X103583333Y-117911904D01*
X104083333Y-117935714D02*
X104464285Y-117935714D01*
X104797619Y-117626190D02*
X104845238Y-117626190D01*
X104892857Y-117650000D01*
X104916666Y-117673809D01*
X104940476Y-117721428D01*
X104964285Y-117816666D01*
X104964285Y-117935714D01*
X104940476Y-118030952D01*
X104916666Y-118078571D01*
X104892857Y-118102380D01*
X104845238Y-118126190D01*
X104797619Y-118126190D01*
X104750000Y-118102380D01*
X104726190Y-118078571D01*
X104702380Y-118030952D01*
X104678571Y-117935714D01*
X104678571Y-117816666D01*
X104702380Y-117721428D01*
X104726190Y-117673809D01*
X104750000Y-117650000D01*
X104797619Y-117626190D01*
X105392857Y-117626190D02*
X105297619Y-117626190D01*
X105250000Y-117650000D01*
X105226190Y-117673809D01*
X105178571Y-117745238D01*
X105154761Y-117840476D01*
X105154761Y-118030952D01*
X105178571Y-118078571D01*
X105202380Y-118102380D01*
X105250000Y-118126190D01*
X105345238Y-118126190D01*
X105392857Y-118102380D01*
X105416666Y-118078571D01*
X105440476Y-118030952D01*
X105440476Y-117911904D01*
X105416666Y-117864285D01*
X105392857Y-117840476D01*
X105345238Y-117816666D01*
X105250000Y-117816666D01*
X105202380Y-117840476D01*
X105178571Y-117864285D01*
X105154761Y-117911904D01*
X105654761Y-117935714D02*
X106035714Y-117935714D01*
X106250000Y-117673809D02*
X106273809Y-117650000D01*
X106321428Y-117626190D01*
X106440476Y-117626190D01*
X106488095Y-117650000D01*
X106511904Y-117673809D01*
X106535714Y-117721428D01*
X106535714Y-117769047D01*
X106511904Y-117840476D01*
X106226190Y-118126190D01*
X106535714Y-118126190D01*
X106773809Y-118126190D02*
X106869047Y-118126190D01*
X106916666Y-118102380D01*
X106940476Y-118078571D01*
X106988095Y-118007142D01*
X107011904Y-117911904D01*
X107011904Y-117721428D01*
X106988095Y-117673809D01*
X106964285Y-117650000D01*
X106916666Y-117626190D01*
X106821428Y-117626190D01*
X106773809Y-117650000D01*
X106750000Y-117673809D01*
X106726190Y-117721428D01*
X106726190Y-117840476D01*
X106750000Y-117888095D01*
X106773809Y-117911904D01*
X106821428Y-117935714D01*
X106916666Y-117935714D01*
X106964285Y-117911904D01*
X106988095Y-117888095D01*
X107011904Y-117840476D01*
D12*
X102152380Y-115761904D02*
X102152380Y-114961904D01*
X102419047Y-115533333D01*
X102685714Y-114961904D01*
X102685714Y-115761904D01*
X102990476Y-114961904D02*
X103485714Y-114961904D01*
X103219047Y-115266666D01*
X103333333Y-115266666D01*
X103409523Y-115304761D01*
X103447619Y-115342857D01*
X103485714Y-115419047D01*
X103485714Y-115609523D01*
X103447619Y-115685714D01*
X103409523Y-115723809D01*
X103333333Y-115761904D01*
X103104761Y-115761904D01*
X103028571Y-115723809D01*
X102990476Y-115685714D01*
X103828571Y-115761904D02*
X103828571Y-114961904D01*
X104133333Y-114961904D01*
X104209523Y-115000000D01*
X104247619Y-115038095D01*
X104285714Y-115114285D01*
X104285714Y-115228571D01*
X104247619Y-115304761D01*
X104209523Y-115342857D01*
X104133333Y-115380952D01*
X103828571Y-115380952D01*
X104590476Y-115723809D02*
X104704761Y-115761904D01*
X104895238Y-115761904D01*
X104971428Y-115723809D01*
X105009523Y-115685714D01*
X105047619Y-115609523D01*
X105047619Y-115533333D01*
X105009523Y-115457142D01*
X104971428Y-115419047D01*
X104895238Y-115380952D01*
X104742857Y-115342857D01*
X104666666Y-115304761D01*
X104628571Y-115266666D01*
X104590476Y-115190476D01*
X104590476Y-115114285D01*
X104628571Y-115038095D01*
X104666666Y-115000000D01*
X104742857Y-114961904D01*
X104933333Y-114961904D01*
X105047619Y-115000000D01*
X105390476Y-114961904D02*
X105390476Y-115609523D01*
X105428571Y-115685714D01*
X105466666Y-115723809D01*
X105542857Y-115761904D01*
X105695238Y-115761904D01*
X105771428Y-115723809D01*
X105809523Y-115685714D01*
X105847619Y-115609523D01*
X105847619Y-114961904D01*
X100876190Y-117161904D02*
X100876190Y-116361904D01*
X101142857Y-116933333D01*
X101409523Y-116361904D01*
X101409523Y-117161904D01*
X102247619Y-117085714D02*
X102209523Y-117123809D01*
X102095238Y-117161904D01*
X102019047Y-117161904D01*
X101904761Y-117123809D01*
X101828571Y-117047619D01*
X101790476Y-116971428D01*
X101752380Y-116819047D01*
X101752380Y-116704761D01*
X101790476Y-116552380D01*
X101828571Y-116476190D01*
X101904761Y-116400000D01*
X102019047Y-116361904D01*
X102095238Y-116361904D01*
X102209523Y-116400000D01*
X102247619Y-116438095D01*
X102590476Y-116361904D02*
X102590476Y-117009523D01*
X102628571Y-117085714D01*
X102666666Y-117123809D01*
X102742857Y-117161904D01*
X102895238Y-117161904D01*
X102971428Y-117123809D01*
X103009523Y-117085714D01*
X103047619Y-117009523D01*
X103047619Y-116361904D01*
X104304761Y-116742857D02*
X104419047Y-116780952D01*
X104457142Y-116819047D01*
X104495238Y-116895238D01*
X104495238Y-117009523D01*
X104457142Y-117085714D01*
X104419047Y-117123809D01*
X104342857Y-117161904D01*
X104038095Y-117161904D01*
X104038095Y-116361904D01*
X104304761Y-116361904D01*
X104380952Y-116400000D01*
X104419047Y-116438095D01*
X104457142Y-116514285D01*
X104457142Y-116590476D01*
X104419047Y-116666666D01*
X104380952Y-116704761D01*
X104304761Y-116742857D01*
X104038095Y-116742857D01*
X104952380Y-117161904D02*
X104876190Y-117123809D01*
X104838095Y-117085714D01*
X104800000Y-117009523D01*
X104800000Y-116780952D01*
X104838095Y-116704761D01*
X104876190Y-116666666D01*
X104952380Y-116628571D01*
X105066666Y-116628571D01*
X105142857Y-116666666D01*
X105180952Y-116704761D01*
X105219047Y-116780952D01*
X105219047Y-117009523D01*
X105180952Y-117085714D01*
X105142857Y-117123809D01*
X105066666Y-117161904D01*
X104952380Y-117161904D01*
X105904761Y-117161904D02*
X105904761Y-116742857D01*
X105866666Y-116666666D01*
X105790476Y-116628571D01*
X105638095Y-116628571D01*
X105561904Y-116666666D01*
X105904761Y-117123809D02*
X105828571Y-117161904D01*
X105638095Y-117161904D01*
X105561904Y-117123809D01*
X105523809Y-117047619D01*
X105523809Y-116971428D01*
X105561904Y-116895238D01*
X105638095Y-116857142D01*
X105828571Y-116857142D01*
X105904761Y-116819047D01*
X106285714Y-117161904D02*
X106285714Y-116628571D01*
X106285714Y-116780952D02*
X106323809Y-116704761D01*
X106361904Y-116666666D01*
X106438095Y-116628571D01*
X106514285Y-116628571D01*
X107123809Y-117161904D02*
X107123809Y-116361904D01*
X107123809Y-117123809D02*
X107047619Y-117161904D01*
X106895238Y-117161904D01*
X106819047Y-117123809D01*
X106780952Y-117085714D01*
X106742857Y-117009523D01*
X106742857Y-116780952D01*
X106780952Y-116704761D01*
X106819047Y-116666666D01*
X106895238Y-116628571D01*
X107047619Y-116628571D01*
X107123809Y-116666666D01*
X91320000Y-100780000D02*
X91320000Y-102680000D01*
X106530000Y-111180000D02*
X106530000Y-109280000D01*
X105660000Y-112410000D02*
X107580000Y-112410000D01*
X104560000Y-111430000D02*
X104560000Y-113350000D01*
D13*
X109525000Y-87230000D02*
X109275000Y-87230000D01*
X109275000Y-87230000D02*
X109275000Y-86130000D01*
X109275000Y-86130000D02*
X109525000Y-86130000D01*
X109525000Y-86130000D02*
X109525000Y-87230000D01*
X108130000Y-91115000D02*
X108130000Y-90865000D01*
X108130000Y-90865000D02*
X109230000Y-90865000D01*
X109230000Y-90865000D02*
X109230000Y-91115000D01*
X109230000Y-91115000D02*
X108130000Y-91115000D01*
X92336000Y-113232000D02*
X92336000Y-104932000D01*
X92336000Y-104932000D02*
X101236000Y-104932000D01*
X101236000Y-104932000D02*
X101236000Y-113832000D01*
X101236000Y-113832000D02*
X92936000Y-113832000D01*
X92936000Y-113832000D02*
X92336000Y-113232000D01*
X110240000Y-90890000D02*
X109890000Y-90540000D01*
X109890000Y-88240000D02*
X109890000Y-87890000D01*
X109890000Y-87890000D02*
X110240000Y-87890000D01*
X112890000Y-88240000D02*
X112890000Y-87890000D01*
X112890000Y-87890000D02*
X112540000Y-87890000D01*
X112890000Y-90540000D02*
X112890000Y-90890000D01*
X112890000Y-90890000D02*
X112540000Y-90890000D01*
X85490000Y-111920000D02*
X85490000Y-109420000D01*
X88590000Y-112520000D02*
X88590000Y-109420000D01*
X85490000Y-111920000D02*
G75*
G03X85490000Y-112520000I0J-300000D01*
G01*
X94180000Y-93860000D02*
X94180000Y-96360000D01*
X90080000Y-93260000D02*
X90080000Y-96360000D01*
X94180000Y-93860000D02*
G75*
G03X94180000Y-93260000I0J300000D01*
G01*
X111600000Y-110140000D02*
X111600000Y-112640000D01*
X108500000Y-109540000D02*
X108500000Y-112640000D01*
X111600000Y-110140000D02*
G75*
G03X111600000Y-109540000I0J300000D01*
G01*
X87785000Y-93635000D02*
X87785000Y-92135000D01*
X87785000Y-92135000D02*
X82215000Y-92135000D01*
X82215000Y-92135000D02*
X82215000Y-93635000D01*
X82215000Y-106365000D02*
X83715000Y-107865000D01*
X83715000Y-107865000D02*
X86285000Y-107865000D01*
X86285000Y-107865000D02*
X87785000Y-106365000D01*
X117785000Y-93635000D02*
X117785000Y-92135000D01*
X117785000Y-92135000D02*
X112215000Y-92135000D01*
X112215000Y-92135000D02*
X112215000Y-93635000D01*
X112215000Y-106365000D02*
X113715000Y-107865000D01*
X113715000Y-107865000D02*
X116285000Y-107865000D01*
X116285000Y-107865000D02*
X117785000Y-106365000D01*
X111000000Y-92875000D02*
X110400000Y-92875000D01*
X110400000Y-92875000D02*
X110400000Y-91425000D01*
X110400000Y-91425000D02*
X111000000Y-91425000D01*
X111000000Y-91425000D02*
X111000000Y-92875000D01*
X107825000Y-88115000D02*
X107825000Y-88565000D01*
X107825000Y-88565000D02*
X107975000Y-88390000D01*
X107975000Y-88390000D02*
X107975000Y-88115000D01*
X107975000Y-88115000D02*
X107825000Y-88115000D01*
X110795000Y-85315000D02*
X110795000Y-84865000D01*
X110795000Y-84865000D02*
X110645000Y-85040000D01*
X110645000Y-85040000D02*
X110645000Y-85315000D01*
X110645000Y-85315000D02*
X110795000Y-85315000D01*
X108215000Y-96505000D02*
X107765000Y-96505000D01*
X107765000Y-96505000D02*
X107940000Y-96655000D01*
X107940000Y-96655000D02*
X108215000Y-96655000D01*
X108215000Y-96655000D02*
X108215000Y-96505000D01*
X108625000Y-95005000D02*
X108175000Y-95005000D01*
X108175000Y-95005000D02*
X108350000Y-95155000D01*
X108350000Y-95155000D02*
X108625000Y-95155000D01*
X108625000Y-95155000D02*
X108625000Y-95005000D01*
X106775000Y-98175000D02*
X106775000Y-97725000D01*
X106775000Y-97725000D02*
X106625000Y-97900000D01*
X106625000Y-97900000D02*
X106625000Y-98175000D01*
X106625000Y-98175000D02*
X106775000Y-98175000D01*
X109205000Y-114265000D02*
X109205000Y-113815000D01*
X109205000Y-113815000D02*
X109055000Y-113990000D01*
X109055000Y-113990000D02*
X109055000Y-114265000D01*
X109055000Y-114265000D02*
X109205000Y-114265000D01*
X110460000Y-95465000D02*
X110460000Y-95715000D01*
X110460000Y-95715000D02*
X109360000Y-95715000D01*
X109360000Y-95715000D02*
X109360000Y-95465000D01*
X109360000Y-95465000D02*
X110460000Y-95465000D01*
X107070000Y-95505000D02*
X107070000Y-95755000D01*
X107070000Y-95755000D02*
X105970000Y-95755000D01*
X105970000Y-95755000D02*
X105970000Y-95505000D01*
X105970000Y-95505000D02*
X107070000Y-95505000D01*
X113430000Y-110305000D02*
X113430000Y-110555000D01*
X113430000Y-110555000D02*
X112330000Y-110555000D01*
X112330000Y-110555000D02*
X112330000Y-110305000D01*
X112330000Y-110305000D02*
X113430000Y-110305000D01*
X93100000Y-117040000D02*
X93100000Y-117140000D01*
X94150000Y-116390000D02*
X93850000Y-116390000D01*
X94900000Y-117040000D02*
X94900000Y-117140000D01*
X94150000Y-117790000D02*
X93850000Y-117790000D01*
X96810000Y-81715000D02*
X95310000Y-81715000D01*
X95310000Y-81715000D02*
X95310000Y-87285000D01*
X95310000Y-87285000D02*
X96810000Y-87285000D01*
X103190000Y-87285000D02*
X104690000Y-85785000D01*
X104690000Y-85785000D02*
X104690000Y-83215000D01*
X104690000Y-83215000D02*
X103190000Y-81715000D01*
X98300000Y-95740000D02*
G75*
G03X98300000Y-95740000I-200000J0D01*
G01*
X98170711Y-95740000D02*
G75*
G03X98170711Y-95740000I-70711J0D01*
G01*
X97400000Y-95030000D02*
X97400000Y-97190000D01*
X97400000Y-97190000D02*
X97690000Y-97190000D01*
X97400000Y-92580000D02*
X97400000Y-94070000D01*
X97700000Y-90790000D02*
X97400000Y-90790000D01*
X97400000Y-90790000D02*
X97400000Y-91620000D01*
X102600000Y-91620000D02*
X102600000Y-90790000D01*
X102600000Y-90790000D02*
X102300000Y-90790000D01*
X102600000Y-94070000D02*
X102600000Y-92580000D01*
X102600000Y-95030000D02*
X102600000Y-97190000D01*
X102600000Y-97190000D02*
X102310000Y-97190000D01*
X92275000Y-90335000D02*
G75*
G03X92275000Y-90335000I-200000J0D01*
G01*
X92145711Y-90335000D02*
G75*
G03X92145711Y-90335000I-70711J0D01*
G01*
X91365000Y-91035000D02*
X93525000Y-91035000D01*
X93525000Y-91035000D02*
X93525000Y-90745000D01*
X88915000Y-91035000D02*
X90405000Y-91035000D01*
X87125000Y-90735000D02*
X87125000Y-91035000D01*
X87125000Y-91035000D02*
X87955000Y-91035000D01*
X87955000Y-85835000D02*
X87125000Y-85835000D01*
X87125000Y-85835000D02*
X87125000Y-86135000D01*
X90405000Y-85835000D02*
X88915000Y-85835000D01*
X91365000Y-85835000D02*
X93525000Y-85835000D01*
X93525000Y-85835000D02*
X93525000Y-86125000D01*
X114204868Y-110960000D02*
G75*
G03X114204868Y-110960000I-94868J0D01*
G01*
X114215000Y-111150000D02*
X114140000Y-111150000D01*
X114140000Y-109150000D02*
X114215000Y-109150000D01*
X116065000Y-109150000D02*
X116140000Y-109150000D01*
X116140000Y-111150000D02*
X116065000Y-111150000D01*
X116140000Y-109150000D02*
X116140000Y-111150000D01*
X114140000Y-111150000D02*
X114140000Y-109150000D01*
%LPC*%
D14*
X106700000Y-87180000D03*
X106700000Y-86280000D03*
X106075000Y-110675000D03*
X106075000Y-109775000D03*
X106990000Y-109775000D03*
X106990000Y-110675000D03*
X96140000Y-118260000D03*
X96140000Y-117360000D03*
X91950000Y-117320000D03*
X91950000Y-116420000D03*
X105030000Y-112840000D03*
X105030000Y-111940000D03*
X104100000Y-104540000D03*
X104100000Y-105440000D03*
X90740000Y-115050000D03*
X90740000Y-114150000D03*
X98400000Y-116680000D03*
X99300000Y-116680000D03*
X104090000Y-112840000D03*
X104090000Y-111940000D03*
X90720000Y-101290000D03*
X90720000Y-102190000D03*
X98400000Y-117880000D03*
X99300000Y-117880000D03*
X91930000Y-102190000D03*
X91930000Y-101290000D03*
X104100000Y-106460000D03*
X104100000Y-107360000D03*
D15*
X110300000Y-86680000D03*
X108500000Y-86680000D03*
D14*
X111950000Y-86900000D03*
X112850000Y-86900000D03*
D16*
X108680000Y-91890000D03*
X108680000Y-90090000D03*
D14*
X94750000Y-97500000D03*
X94750000Y-98400000D03*
X87530000Y-113740000D03*
X88430000Y-113740000D03*
D10*
G36*
X92393396Y-98781802D02*
X92831802Y-98343396D01*
X93270208Y-98781802D01*
X92831802Y-99220208D01*
X92393396Y-98781802D01*
X92393396Y-98781802D01*
G37*
G36*
X93029792Y-99418198D02*
X93468198Y-98979792D01*
X93906604Y-99418198D01*
X93468198Y-99856604D01*
X93029792Y-99418198D01*
X93029792Y-99418198D01*
G37*
D14*
X91090000Y-92050000D03*
X90190000Y-92050000D03*
D17*
X93036000Y-115082000D03*
X93536000Y-115082000D03*
X94036000Y-115082000D03*
X94536000Y-115082000D03*
X95036000Y-115082000D03*
X95536000Y-115082000D03*
X96036000Y-115082000D03*
X96536000Y-115082000D03*
X97036000Y-115082000D03*
X97536000Y-115082000D03*
X98036000Y-115082000D03*
X98536000Y-115082000D03*
X99036000Y-115082000D03*
X99536000Y-115082000D03*
X100036000Y-115082000D03*
X100536000Y-115082000D03*
D18*
X102486000Y-113132000D03*
X102486000Y-112632000D03*
X102486000Y-112132000D03*
X102486000Y-111632000D03*
X102486000Y-111132000D03*
X102486000Y-110632000D03*
X102486000Y-110132000D03*
X102486000Y-109632000D03*
X102486000Y-109132000D03*
X102486000Y-108632000D03*
X102486000Y-108132000D03*
X102486000Y-107632000D03*
X102486000Y-107132000D03*
X102486000Y-106632000D03*
X102486000Y-106132000D03*
X102486000Y-105632000D03*
D17*
X100536000Y-103682000D03*
X100036000Y-103682000D03*
X99536000Y-103682000D03*
X99036000Y-103682000D03*
X98536000Y-103682000D03*
X98036000Y-103682000D03*
X97536000Y-103682000D03*
X97036000Y-103682000D03*
X96536000Y-103682000D03*
X96036000Y-103682000D03*
X95536000Y-103682000D03*
X95036000Y-103682000D03*
X94536000Y-103682000D03*
X94036000Y-103682000D03*
X93536000Y-103682000D03*
X93036000Y-103682000D03*
D18*
X91086000Y-105632000D03*
X91086000Y-106132000D03*
X91086000Y-106632000D03*
X91086000Y-107132000D03*
X91086000Y-107632000D03*
X91086000Y-108132000D03*
X91086000Y-108632000D03*
X91086000Y-109132000D03*
X91086000Y-109632000D03*
X91086000Y-110132000D03*
X91086000Y-110632000D03*
X91086000Y-111132000D03*
X91086000Y-111632000D03*
X91086000Y-112132000D03*
X91086000Y-112632000D03*
X91086000Y-113132000D03*
D19*
X110640000Y-90790000D03*
X111140000Y-90790000D03*
X111640000Y-90790000D03*
X112140000Y-90790000D03*
D20*
X112790000Y-90140000D03*
X112790000Y-89640000D03*
X112790000Y-89140000D03*
X112790000Y-88640000D03*
D19*
X112140000Y-87990000D03*
X111640000Y-87990000D03*
X111140000Y-87990000D03*
X110640000Y-87990000D03*
D20*
X109990000Y-88640000D03*
X109990000Y-89140000D03*
X109990000Y-89640000D03*
X109990000Y-90140000D03*
D21*
X111390000Y-89390000D03*
D22*
X86065000Y-112520000D03*
X86715000Y-112520000D03*
X87365000Y-112520000D03*
X88015000Y-112520000D03*
X88015000Y-109420000D03*
X87365000Y-109420000D03*
X86715000Y-109420000D03*
X86065000Y-109420000D03*
D23*
X86440000Y-110970000D03*
X87640000Y-110970000D03*
D24*
X93705000Y-93360000D03*
X93255000Y-93360000D03*
X92805000Y-93360000D03*
X92355000Y-93360000D03*
X91905000Y-93360000D03*
X91455000Y-93360000D03*
X91005000Y-93360000D03*
X90555000Y-93360000D03*
X90555000Y-96260000D03*
X91005000Y-96260000D03*
X91455000Y-96260000D03*
X91905000Y-96260000D03*
X92355000Y-96260000D03*
X92805000Y-96260000D03*
X93255000Y-96260000D03*
X93705000Y-96260000D03*
D23*
X93330000Y-94810000D03*
X92130000Y-94810000D03*
X90930000Y-94810000D03*
D24*
X111050000Y-109665000D03*
X110550000Y-109665000D03*
X110050000Y-109665000D03*
X109550000Y-109665000D03*
X109050000Y-109665000D03*
X109050000Y-112515000D03*
X109550000Y-112515000D03*
X110050000Y-112515000D03*
X110550000Y-112515000D03*
X111050000Y-112515000D03*
D25*
X110050000Y-111090000D03*
D26*
X83285000Y-94285000D03*
X86715000Y-94285000D03*
X83285000Y-95555000D03*
X86715000Y-95555000D03*
X83285000Y-96825000D03*
X86715000Y-96825000D03*
X83285000Y-98095000D03*
X86715000Y-98095000D03*
X83285000Y-99365000D03*
X86715000Y-99365000D03*
X83285000Y-100635000D03*
X86715000Y-100635000D03*
X83285000Y-101905000D03*
X86715000Y-101905000D03*
X83285000Y-103175000D03*
X86715000Y-103175000D03*
X83285000Y-104445000D03*
X86715000Y-104445000D03*
X83285000Y-105715000D03*
X86715000Y-105715000D03*
D27*
X85000000Y-107305000D03*
X85000000Y-92695000D03*
D26*
X113285000Y-94285000D03*
X116715000Y-94285000D03*
X113285000Y-95555000D03*
X116715000Y-95555000D03*
X113285000Y-96825000D03*
X116715000Y-96825000D03*
X113285000Y-98095000D03*
X116715000Y-98095000D03*
X113285000Y-99365000D03*
X116715000Y-99365000D03*
X113285000Y-100635000D03*
X116715000Y-100635000D03*
X113285000Y-101905000D03*
X116715000Y-101905000D03*
X113285000Y-103175000D03*
X116715000Y-103175000D03*
X113285000Y-104445000D03*
X116715000Y-104445000D03*
X113285000Y-105715000D03*
X116715000Y-105715000D03*
D27*
X115000000Y-107305000D03*
X115000000Y-92695000D03*
D28*
X111450000Y-92150000D03*
X109950000Y-92150000D03*
D29*
X108250000Y-88115000D03*
X108250000Y-88565000D03*
D30*
X107550000Y-88340000D03*
D29*
X110370000Y-85315000D03*
X110370000Y-84865000D03*
D30*
X111070000Y-85090000D03*
D31*
X108215000Y-96930000D03*
X107765000Y-96930000D03*
D32*
X107990000Y-96230000D03*
D31*
X108625000Y-95430000D03*
X108175000Y-95430000D03*
D32*
X108400000Y-94730000D03*
D29*
X106350000Y-98175000D03*
X106350000Y-97725000D03*
D30*
X107050000Y-97950000D03*
D29*
X108780000Y-114265000D03*
X108780000Y-113815000D03*
D30*
X109480000Y-114040000D03*
D14*
X109370000Y-85100000D03*
X108470000Y-85100000D03*
X107330000Y-89340000D03*
X107330000Y-90240000D03*
X96950000Y-116440000D03*
X96050000Y-116440000D03*
X108880000Y-83890000D03*
X109780000Y-83890000D03*
X106520000Y-84200000D03*
X106520000Y-85100000D03*
X100170000Y-88570000D03*
X101070000Y-88570000D03*
X103290000Y-88570000D03*
X102390000Y-88570000D03*
X95950000Y-97500000D03*
X95950000Y-98400000D03*
X104730000Y-89860000D03*
X104730000Y-88960000D03*
X95350000Y-96300000D03*
X95350000Y-95400000D03*
X110180000Y-98510000D03*
X109280000Y-98510000D03*
D16*
X109910000Y-94690000D03*
X109910000Y-96490000D03*
X106520000Y-94730000D03*
X106520000Y-96530000D03*
X112880000Y-109530000D03*
X112880000Y-111330000D03*
D14*
X111400000Y-114030000D03*
X110500000Y-114030000D03*
D33*
X94725000Y-116515000D03*
X93275000Y-116515000D03*
X93275000Y-117665000D03*
X94725000Y-117665000D03*
D34*
X97460000Y-86215000D03*
X97460000Y-82785000D03*
X98730000Y-86215000D03*
X98730000Y-82785000D03*
X100000000Y-86215000D03*
X100000000Y-82785000D03*
X101270000Y-86215000D03*
X101270000Y-82785000D03*
X102540000Y-86215000D03*
X102540000Y-82785000D03*
D35*
X97537500Y-94550000D03*
X97537500Y-92100000D03*
X102462500Y-94550000D03*
D36*
X98100000Y-90970000D03*
D37*
X99425000Y-90965000D03*
D38*
X98787500Y-93190000D03*
D39*
X98095000Y-96665000D03*
X99365000Y-96665000D03*
X100635000Y-96665000D03*
X101905000Y-96665000D03*
D37*
X100575000Y-90965000D03*
D38*
X101212500Y-93190000D03*
D36*
X101900000Y-90970000D03*
D35*
X102462500Y-92100000D03*
D40*
X90885000Y-90897500D03*
X88435000Y-90897500D03*
X90885000Y-85972500D03*
D41*
X87305000Y-90335000D03*
D42*
X87300000Y-89010000D03*
D43*
X89525000Y-89647500D03*
D44*
X93000000Y-90340000D03*
X93000000Y-89070000D03*
X93000000Y-87800000D03*
X93000000Y-86530000D03*
D42*
X87300000Y-87860000D03*
D43*
X89525000Y-87222500D03*
D41*
X87305000Y-86535000D03*
D40*
X88435000Y-85972500D03*
D14*
X107075000Y-111950000D03*
X106175000Y-111950000D03*
X106175000Y-112875000D03*
X107075000Y-112875000D03*
X111950000Y-85700000D03*
X112850000Y-85700000D03*
X110500000Y-108350000D03*
X110500000Y-107450000D03*
D45*
X115790000Y-110054000D03*
D46*
X115790000Y-109227500D03*
X115790000Y-111072500D03*
X115140000Y-109227500D03*
X114490000Y-109227500D03*
X114490000Y-111072500D03*
D47*
X114815000Y-110150000D03*
D46*
X115140000Y-111072500D03*
D14*
X108300000Y-99700000D03*
X108300000Y-98800000D03*
X106000000Y-99100000D03*
X106900000Y-99100000D03*
X106250000Y-114000000D03*
X105350000Y-114000000D03*
M02*
