G04 #@! TF.FileFunction,Legend,Top*
%FSLAX46Y46*%
G04 Gerber Fmt 4.6, Leading zero omitted, Abs format (unit mm)*
G04 Created by KiCad (PCBNEW 201609280951+7255~55~ubuntu14.04.1-) date Wed Jan 11 23:22:02 2017*
%MOMM*%
%LPD*%
G01*
G04 APERTURE LIST*
%ADD10C,0.100000*%
%ADD11C,0.200000*%
%ADD12C,0.125000*%
%ADD13C,0.150000*%
%ADD14R,0.620000X0.620000*%
%ADD15R,1.702000X1.702000*%
%ADD16R,0.600000X0.250000*%
%ADD17R,0.250000X0.600000*%
%ADD18R,1.150000X1.450000*%
%ADD19R,1.450000X1.150000*%
%ADD20R,1.500000X0.300000*%
%ADD21R,0.300000X1.500000*%
%ADD22R,0.802000X0.802000*%
%ADD23R,0.350000X0.650000*%
%ADD24R,2.382000X1.652000*%
%ADD25R,0.250000X0.700000*%
%ADD26R,2.920000X0.740000*%
%ADD27C,1.200000*%
%ADD28R,0.500000X1.600000*%
%ADD29R,0.400000X0.700000*%
%ADD30R,0.400000X0.250000*%
%ADD31R,0.950000X0.850000*%
%ADD32R,0.740000X2.920000*%
%ADD33R,0.400000X0.455000*%
%ADD34R,1.050000X1.100000*%
%ADD35R,0.400000X0.850000*%
%ADD36R,0.700000X0.400000*%
%ADD37R,0.250000X0.400000*%
G04 APERTURE END LIST*
D10*
D11*
X101860000Y-117750000D02*
X103780000Y-117750000D01*
D12*
X91878571Y-83788690D02*
X91640476Y-83788690D01*
X91640476Y-83288690D01*
X92045238Y-83741071D02*
X92069047Y-83764880D01*
X92045238Y-83788690D01*
X92021428Y-83764880D01*
X92045238Y-83741071D01*
X92045238Y-83788690D01*
X92592857Y-83288690D02*
X92878571Y-83288690D01*
X92735714Y-83788690D02*
X92735714Y-83288690D01*
X93021428Y-83645833D02*
X93259523Y-83645833D01*
X92973809Y-83788690D02*
X93140476Y-83288690D01*
X93307142Y-83788690D01*
X93473809Y-83788690D02*
X93473809Y-83288690D01*
X93759523Y-83788690D01*
X93759523Y-83288690D01*
X91402380Y-84163690D02*
X91402380Y-84520833D01*
X91378571Y-84592261D01*
X91330952Y-84639880D01*
X91259523Y-84663690D01*
X91211904Y-84663690D01*
X91640476Y-84616071D02*
X91664285Y-84639880D01*
X91640476Y-84663690D01*
X91616666Y-84639880D01*
X91640476Y-84616071D01*
X91640476Y-84663690D01*
X92211904Y-84163690D02*
X92330952Y-84663690D01*
X92426190Y-84306547D01*
X92521428Y-84663690D01*
X92640476Y-84163690D01*
X92926190Y-84163690D02*
X93021428Y-84163690D01*
X93069047Y-84187500D01*
X93116666Y-84235119D01*
X93140476Y-84330357D01*
X93140476Y-84497023D01*
X93116666Y-84592261D01*
X93069047Y-84639880D01*
X93021428Y-84663690D01*
X92926190Y-84663690D01*
X92878571Y-84639880D01*
X92830952Y-84592261D01*
X92807142Y-84497023D01*
X92807142Y-84330357D01*
X92830952Y-84235119D01*
X92878571Y-84187500D01*
X92926190Y-84163690D01*
X93450000Y-84163690D02*
X93545238Y-84163690D01*
X93592857Y-84187500D01*
X93640476Y-84235119D01*
X93664285Y-84330357D01*
X93664285Y-84497023D01*
X93640476Y-84592261D01*
X93592857Y-84639880D01*
X93545238Y-84663690D01*
X93450000Y-84663690D01*
X93402380Y-84639880D01*
X93354761Y-84592261D01*
X93330952Y-84497023D01*
X93330952Y-84330357D01*
X93354761Y-84235119D01*
X93402380Y-84187500D01*
X93450000Y-84163690D01*
X93878571Y-84663690D02*
X93878571Y-84163690D01*
X93997619Y-84163690D01*
X94069047Y-84187500D01*
X94116666Y-84235119D01*
X94140476Y-84282738D01*
X94164285Y-84377976D01*
X94164285Y-84449404D01*
X94140476Y-84544642D01*
X94116666Y-84592261D01*
X94069047Y-84639880D01*
X93997619Y-84663690D01*
X93878571Y-84663690D01*
X87061904Y-89576190D02*
X87061904Y-89242857D01*
X87061904Y-89338095D02*
X87085714Y-89290476D01*
X87109523Y-89266666D01*
X87157142Y-89242857D01*
X87204761Y-89242857D01*
X87347619Y-89123809D02*
X87371428Y-89100000D01*
X87419047Y-89076190D01*
X87538095Y-89076190D01*
X87585714Y-89100000D01*
X87609523Y-89123809D01*
X87633333Y-89171428D01*
X87633333Y-89219047D01*
X87609523Y-89290476D01*
X87323809Y-89576190D01*
X87633333Y-89576190D01*
X88204761Y-89123809D02*
X88228571Y-89100000D01*
X88276190Y-89076190D01*
X88395238Y-89076190D01*
X88442857Y-89100000D01*
X88466666Y-89123809D01*
X88490476Y-89171428D01*
X88490476Y-89219047D01*
X88466666Y-89290476D01*
X88180952Y-89576190D01*
X88490476Y-89576190D01*
X88800000Y-89076190D02*
X88847619Y-89076190D01*
X88895238Y-89100000D01*
X88919047Y-89123809D01*
X88942857Y-89171428D01*
X88966666Y-89266666D01*
X88966666Y-89385714D01*
X88942857Y-89480952D01*
X88919047Y-89528571D01*
X88895238Y-89552380D01*
X88847619Y-89576190D01*
X88800000Y-89576190D01*
X88752380Y-89552380D01*
X88728571Y-89528571D01*
X88704761Y-89480952D01*
X88680952Y-89385714D01*
X88680952Y-89266666D01*
X88704761Y-89171428D01*
X88728571Y-89123809D01*
X88752380Y-89100000D01*
X88800000Y-89076190D01*
X89442857Y-89576190D02*
X89157142Y-89576190D01*
X89300000Y-89576190D02*
X89300000Y-89076190D01*
X89252380Y-89147619D01*
X89204761Y-89195238D01*
X89157142Y-89219047D01*
X89609523Y-89076190D02*
X89942857Y-89076190D01*
X89728571Y-89576190D01*
X90133333Y-89385714D02*
X90514285Y-89385714D01*
X90847619Y-89076190D02*
X90895238Y-89076190D01*
X90942857Y-89100000D01*
X90966666Y-89123809D01*
X90990476Y-89171428D01*
X91014285Y-89266666D01*
X91014285Y-89385714D01*
X90990476Y-89480952D01*
X90966666Y-89528571D01*
X90942857Y-89552380D01*
X90895238Y-89576190D01*
X90847619Y-89576190D01*
X90800000Y-89552380D01*
X90776190Y-89528571D01*
X90752380Y-89480952D01*
X90728571Y-89385714D01*
X90728571Y-89266666D01*
X90752380Y-89171428D01*
X90776190Y-89123809D01*
X90800000Y-89100000D01*
X90847619Y-89076190D01*
X91490476Y-89576190D02*
X91204761Y-89576190D01*
X91347619Y-89576190D02*
X91347619Y-89076190D01*
X91300000Y-89147619D01*
X91252380Y-89195238D01*
X91204761Y-89219047D01*
X91704761Y-89385714D02*
X92085714Y-89385714D01*
X92585714Y-89576190D02*
X92300000Y-89576190D01*
X92442857Y-89576190D02*
X92442857Y-89076190D01*
X92395238Y-89147619D01*
X92347619Y-89195238D01*
X92300000Y-89219047D01*
X93061904Y-89576190D02*
X92776190Y-89576190D01*
X92919047Y-89576190D02*
X92919047Y-89076190D01*
X92871428Y-89147619D01*
X92823809Y-89195238D01*
X92776190Y-89219047D01*
D11*
X88202380Y-87211904D02*
X88202380Y-86411904D01*
X88469047Y-86983333D01*
X88735714Y-86411904D01*
X88735714Y-87211904D01*
X89040476Y-86411904D02*
X89535714Y-86411904D01*
X89269047Y-86716666D01*
X89383333Y-86716666D01*
X89459523Y-86754761D01*
X89497619Y-86792857D01*
X89535714Y-86869047D01*
X89535714Y-87059523D01*
X89497619Y-87135714D01*
X89459523Y-87173809D01*
X89383333Y-87211904D01*
X89154761Y-87211904D01*
X89078571Y-87173809D01*
X89040476Y-87135714D01*
X89878571Y-87211904D02*
X89878571Y-86411904D01*
X90183333Y-86411904D01*
X90259523Y-86450000D01*
X90297619Y-86488095D01*
X90335714Y-86564285D01*
X90335714Y-86678571D01*
X90297619Y-86754761D01*
X90259523Y-86792857D01*
X90183333Y-86830952D01*
X89878571Y-86830952D01*
X90640476Y-87173809D02*
X90754761Y-87211904D01*
X90945238Y-87211904D01*
X91021428Y-87173809D01*
X91059523Y-87135714D01*
X91097619Y-87059523D01*
X91097619Y-86983333D01*
X91059523Y-86907142D01*
X91021428Y-86869047D01*
X90945238Y-86830952D01*
X90792857Y-86792857D01*
X90716666Y-86754761D01*
X90678571Y-86716666D01*
X90640476Y-86640476D01*
X90640476Y-86564285D01*
X90678571Y-86488095D01*
X90716666Y-86450000D01*
X90792857Y-86411904D01*
X90983333Y-86411904D01*
X91097619Y-86450000D01*
X91440476Y-86411904D02*
X91440476Y-87059523D01*
X91478571Y-87135714D01*
X91516666Y-87173809D01*
X91592857Y-87211904D01*
X91745238Y-87211904D01*
X91821428Y-87173809D01*
X91859523Y-87135714D01*
X91897619Y-87059523D01*
X91897619Y-86411904D01*
X86926190Y-88611904D02*
X86926190Y-87811904D01*
X87192857Y-88383333D01*
X87459523Y-87811904D01*
X87459523Y-88611904D01*
X88297619Y-88535714D02*
X88259523Y-88573809D01*
X88145238Y-88611904D01*
X88069047Y-88611904D01*
X87954761Y-88573809D01*
X87878571Y-88497619D01*
X87840476Y-88421428D01*
X87802380Y-88269047D01*
X87802380Y-88154761D01*
X87840476Y-88002380D01*
X87878571Y-87926190D01*
X87954761Y-87850000D01*
X88069047Y-87811904D01*
X88145238Y-87811904D01*
X88259523Y-87850000D01*
X88297619Y-87888095D01*
X88640476Y-87811904D02*
X88640476Y-88459523D01*
X88678571Y-88535714D01*
X88716666Y-88573809D01*
X88792857Y-88611904D01*
X88945238Y-88611904D01*
X89021428Y-88573809D01*
X89059523Y-88535714D01*
X89097619Y-88459523D01*
X89097619Y-87811904D01*
X90354761Y-88192857D02*
X90469047Y-88230952D01*
X90507142Y-88269047D01*
X90545238Y-88345238D01*
X90545238Y-88459523D01*
X90507142Y-88535714D01*
X90469047Y-88573809D01*
X90392857Y-88611904D01*
X90088095Y-88611904D01*
X90088095Y-87811904D01*
X90354761Y-87811904D01*
X90430952Y-87850000D01*
X90469047Y-87888095D01*
X90507142Y-87964285D01*
X90507142Y-88040476D01*
X90469047Y-88116666D01*
X90430952Y-88154761D01*
X90354761Y-88192857D01*
X90088095Y-88192857D01*
X91002380Y-88611904D02*
X90926190Y-88573809D01*
X90888095Y-88535714D01*
X90850000Y-88459523D01*
X90850000Y-88230952D01*
X90888095Y-88154761D01*
X90926190Y-88116666D01*
X91002380Y-88078571D01*
X91116666Y-88078571D01*
X91192857Y-88116666D01*
X91230952Y-88154761D01*
X91269047Y-88230952D01*
X91269047Y-88459523D01*
X91230952Y-88535714D01*
X91192857Y-88573809D01*
X91116666Y-88611904D01*
X91002380Y-88611904D01*
X91954761Y-88611904D02*
X91954761Y-88192857D01*
X91916666Y-88116666D01*
X91840476Y-88078571D01*
X91688095Y-88078571D01*
X91611904Y-88116666D01*
X91954761Y-88573809D02*
X91878571Y-88611904D01*
X91688095Y-88611904D01*
X91611904Y-88573809D01*
X91573809Y-88497619D01*
X91573809Y-88421428D01*
X91611904Y-88345238D01*
X91688095Y-88307142D01*
X91878571Y-88307142D01*
X91954761Y-88269047D01*
X92335714Y-88611904D02*
X92335714Y-88078571D01*
X92335714Y-88230952D02*
X92373809Y-88154761D01*
X92411904Y-88116666D01*
X92488095Y-88078571D01*
X92564285Y-88078571D01*
X93173809Y-88611904D02*
X93173809Y-87811904D01*
X93173809Y-88573809D02*
X93097619Y-88611904D01*
X92945238Y-88611904D01*
X92869047Y-88573809D01*
X92830952Y-88535714D01*
X92792857Y-88459523D01*
X92792857Y-88230952D01*
X92830952Y-88154761D01*
X92869047Y-88116666D01*
X92945238Y-88078571D01*
X93097619Y-88078571D01*
X93173809Y-88116666D01*
X92520000Y-100730000D02*
X92520000Y-102630000D01*
X105760000Y-111380000D02*
X105760000Y-113300000D01*
D13*
X108000000Y-90600000D02*
X107650000Y-90250000D01*
X107650000Y-87950000D02*
X107650000Y-87600000D01*
X107650000Y-87600000D02*
X108000000Y-87600000D01*
X110650000Y-87950000D02*
X110650000Y-87600000D01*
X110650000Y-87600000D02*
X110300000Y-87600000D01*
X110650000Y-90250000D02*
X110650000Y-90600000D01*
X110650000Y-90600000D02*
X110300000Y-90600000D01*
X108025000Y-86700000D02*
X107775000Y-86700000D01*
X107775000Y-86700000D02*
X107775000Y-85600000D01*
X107775000Y-85600000D02*
X108025000Y-85600000D01*
X108025000Y-85600000D02*
X108025000Y-86700000D01*
X105700000Y-91225000D02*
X105700000Y-90975000D01*
X105700000Y-90975000D02*
X106800000Y-90975000D01*
X106800000Y-90975000D02*
X106800000Y-91225000D01*
X106800000Y-91225000D02*
X105700000Y-91225000D01*
X93536000Y-113182000D02*
X93536000Y-104882000D01*
X93536000Y-104882000D02*
X102436000Y-104882000D01*
X102436000Y-104882000D02*
X102436000Y-113782000D01*
X102436000Y-113782000D02*
X94136000Y-113782000D01*
X94136000Y-113782000D02*
X93536000Y-113182000D01*
X86490000Y-111870000D02*
X86490000Y-109370000D01*
X89590000Y-112470000D02*
X89590000Y-109370000D01*
X86490000Y-111870000D02*
G75*
G03X86490000Y-112470000I0J-300000D01*
G01*
X110600000Y-110490000D02*
X110600000Y-112990000D01*
X107500000Y-109890000D02*
X107500000Y-112990000D01*
X110600000Y-110490000D02*
G75*
G03X110600000Y-109890000I0J300000D01*
G01*
X87785000Y-93635000D02*
X87785000Y-92135000D01*
X87785000Y-92135000D02*
X82215000Y-92135000D01*
X82215000Y-92135000D02*
X82215000Y-93635000D01*
X82215000Y-106365000D02*
X83715000Y-107865000D01*
X83715000Y-107865000D02*
X86285000Y-107865000D01*
X86285000Y-107865000D02*
X87785000Y-106365000D01*
X117785000Y-93635000D02*
X117785000Y-92135000D01*
X117785000Y-92135000D02*
X112215000Y-92135000D01*
X112215000Y-92135000D02*
X112215000Y-93635000D01*
X112215000Y-106365000D02*
X113715000Y-107865000D01*
X113715000Y-107865000D02*
X116285000Y-107865000D01*
X116285000Y-107865000D02*
X117785000Y-106365000D01*
X108800000Y-92825000D02*
X108200000Y-92825000D01*
X108200000Y-92825000D02*
X108200000Y-91375000D01*
X108200000Y-91375000D02*
X108800000Y-91375000D01*
X108800000Y-91375000D02*
X108800000Y-92825000D01*
X108205000Y-114615000D02*
X108205000Y-114165000D01*
X108205000Y-114165000D02*
X108055000Y-114340000D01*
X108055000Y-114340000D02*
X108055000Y-114615000D01*
X108055000Y-114615000D02*
X108205000Y-114615000D01*
X112430000Y-110655000D02*
X112430000Y-110905000D01*
X112430000Y-110905000D02*
X111330000Y-110905000D01*
X111330000Y-110905000D02*
X111330000Y-110655000D01*
X111330000Y-110655000D02*
X112430000Y-110655000D01*
X94300000Y-116990000D02*
X94300000Y-117090000D01*
X95350000Y-116340000D02*
X95050000Y-116340000D01*
X96100000Y-116990000D02*
X96100000Y-117090000D01*
X95350000Y-117740000D02*
X95050000Y-117740000D01*
X96810000Y-81715000D02*
X95310000Y-81715000D01*
X95310000Y-81715000D02*
X95310000Y-87285000D01*
X95310000Y-87285000D02*
X96810000Y-87285000D01*
X103190000Y-87285000D02*
X104690000Y-85785000D01*
X104690000Y-85785000D02*
X104690000Y-83215000D01*
X104690000Y-83215000D02*
X103190000Y-81715000D01*
X113204868Y-111310000D02*
G75*
G03X113204868Y-111310000I-94868J0D01*
G01*
X113215000Y-111500000D02*
X113140000Y-111500000D01*
X113140000Y-109500000D02*
X113215000Y-109500000D01*
X115065000Y-109500000D02*
X115140000Y-109500000D01*
X115140000Y-111500000D02*
X115065000Y-111500000D01*
X115140000Y-109500000D02*
X115140000Y-111500000D01*
X113140000Y-111500000D02*
X113140000Y-109500000D01*
X100150000Y-91100000D02*
X100150000Y-93100000D01*
X98150000Y-93100000D02*
X98150000Y-91100000D01*
X98150000Y-91100000D02*
X98225000Y-91100000D01*
X98225000Y-93100000D02*
X98150000Y-93100000D01*
X100150000Y-93100000D02*
X100075000Y-93100000D01*
X100075000Y-91100000D02*
X100150000Y-91100000D01*
X100274868Y-91290000D02*
G75*
G03X100274868Y-91290000I-94868J0D01*
G01*
X95775000Y-91775000D02*
X95325000Y-91775000D01*
X95325000Y-91775000D02*
X95500000Y-91925000D01*
X95500000Y-91925000D02*
X95775000Y-91925000D01*
X95775000Y-91925000D02*
X95775000Y-91775000D01*
%LPC*%
D14*
X104750000Y-98400000D03*
X105650000Y-98400000D03*
D15*
X109150000Y-89100000D03*
D16*
X107750000Y-89850000D03*
X107750000Y-89350000D03*
X107750000Y-88850000D03*
X107750000Y-88350000D03*
D17*
X108400000Y-87700000D03*
X108900000Y-87700000D03*
X109400000Y-87700000D03*
X109900000Y-87700000D03*
D16*
X110550000Y-88350000D03*
X110550000Y-88850000D03*
X110550000Y-89350000D03*
X110550000Y-89850000D03*
D17*
X109900000Y-90500000D03*
X109400000Y-90500000D03*
X108900000Y-90500000D03*
X108400000Y-90500000D03*
D14*
X97340000Y-117310000D03*
X97340000Y-118210000D03*
X93150000Y-116370000D03*
X93150000Y-117270000D03*
X106230000Y-111890000D03*
X106230000Y-112790000D03*
X105300000Y-105390000D03*
X105300000Y-104490000D03*
X91940000Y-114100000D03*
X91940000Y-115000000D03*
X100500000Y-116880000D03*
X99600000Y-116880000D03*
X105290000Y-111890000D03*
X105290000Y-112790000D03*
X91920000Y-102140000D03*
X91920000Y-101240000D03*
X100500000Y-118080000D03*
X99600000Y-118080000D03*
X93130000Y-101240000D03*
X93130000Y-102140000D03*
X105300000Y-107310000D03*
X105300000Y-106410000D03*
D18*
X107000000Y-86150000D03*
X108800000Y-86150000D03*
D14*
X112400000Y-87500000D03*
X111500000Y-87500000D03*
D19*
X106250000Y-90200000D03*
X106250000Y-92000000D03*
D14*
X89430000Y-113690000D03*
X88530000Y-113690000D03*
D20*
X92286000Y-113082000D03*
X92286000Y-112582000D03*
X92286000Y-112082000D03*
X92286000Y-111582000D03*
X92286000Y-111082000D03*
X92286000Y-110582000D03*
X92286000Y-110082000D03*
X92286000Y-109582000D03*
X92286000Y-109082000D03*
X92286000Y-108582000D03*
X92286000Y-108082000D03*
X92286000Y-107582000D03*
X92286000Y-107082000D03*
X92286000Y-106582000D03*
X92286000Y-106082000D03*
X92286000Y-105582000D03*
D21*
X94236000Y-103632000D03*
X94736000Y-103632000D03*
X95236000Y-103632000D03*
X95736000Y-103632000D03*
X96236000Y-103632000D03*
X96736000Y-103632000D03*
X97236000Y-103632000D03*
X97736000Y-103632000D03*
X98236000Y-103632000D03*
X98736000Y-103632000D03*
X99236000Y-103632000D03*
X99736000Y-103632000D03*
X100236000Y-103632000D03*
X100736000Y-103632000D03*
X101236000Y-103632000D03*
X101736000Y-103632000D03*
D20*
X103686000Y-105582000D03*
X103686000Y-106082000D03*
X103686000Y-106582000D03*
X103686000Y-107082000D03*
X103686000Y-107582000D03*
X103686000Y-108082000D03*
X103686000Y-108582000D03*
X103686000Y-109082000D03*
X103686000Y-109582000D03*
X103686000Y-110082000D03*
X103686000Y-110582000D03*
X103686000Y-111082000D03*
X103686000Y-111582000D03*
X103686000Y-112082000D03*
X103686000Y-112582000D03*
X103686000Y-113082000D03*
D21*
X101736000Y-115032000D03*
X101236000Y-115032000D03*
X100736000Y-115032000D03*
X100236000Y-115032000D03*
X99736000Y-115032000D03*
X99236000Y-115032000D03*
X98736000Y-115032000D03*
X98236000Y-115032000D03*
X97736000Y-115032000D03*
X97236000Y-115032000D03*
X96736000Y-115032000D03*
X96236000Y-115032000D03*
X95736000Y-115032000D03*
X95236000Y-115032000D03*
X94736000Y-115032000D03*
X94236000Y-115032000D03*
D22*
X88640000Y-110920000D03*
X87440000Y-110920000D03*
D23*
X87065000Y-109370000D03*
X87715000Y-109370000D03*
X88365000Y-109370000D03*
X89015000Y-109370000D03*
X89015000Y-112470000D03*
X88365000Y-112470000D03*
X87715000Y-112470000D03*
X87065000Y-112470000D03*
D24*
X109050000Y-111440000D03*
D25*
X110050000Y-112865000D03*
X109550000Y-112865000D03*
X109050000Y-112865000D03*
X108550000Y-112865000D03*
X108050000Y-112865000D03*
X108050000Y-110015000D03*
X108550000Y-110015000D03*
X109050000Y-110015000D03*
X109550000Y-110015000D03*
X110050000Y-110015000D03*
D26*
X86715000Y-105715000D03*
X83285000Y-105715000D03*
X86715000Y-104445000D03*
X83285000Y-104445000D03*
X86715000Y-103175000D03*
X83285000Y-103175000D03*
X86715000Y-101905000D03*
X83285000Y-101905000D03*
X86715000Y-100635000D03*
X83285000Y-100635000D03*
X86715000Y-99365000D03*
X83285000Y-99365000D03*
X86715000Y-98095000D03*
X83285000Y-98095000D03*
X86715000Y-96825000D03*
X83285000Y-96825000D03*
X86715000Y-95555000D03*
X83285000Y-95555000D03*
X86715000Y-94285000D03*
X83285000Y-94285000D03*
D27*
X85000000Y-92695000D03*
X85000000Y-107305000D03*
D26*
X116715000Y-105715000D03*
X113285000Y-105715000D03*
X116715000Y-104445000D03*
X113285000Y-104445000D03*
X116715000Y-103175000D03*
X113285000Y-103175000D03*
X116715000Y-101905000D03*
X113285000Y-101905000D03*
X116715000Y-100635000D03*
X113285000Y-100635000D03*
X116715000Y-99365000D03*
X113285000Y-99365000D03*
X116715000Y-98095000D03*
X113285000Y-98095000D03*
X116715000Y-96825000D03*
X113285000Y-96825000D03*
X116715000Y-95555000D03*
X113285000Y-95555000D03*
X116715000Y-94285000D03*
X113285000Y-94285000D03*
D27*
X115000000Y-92695000D03*
X115000000Y-107305000D03*
D28*
X107750000Y-92100000D03*
X109250000Y-92100000D03*
D29*
X108480000Y-114390000D03*
D30*
X107780000Y-114165000D03*
X107780000Y-114615000D03*
D14*
X97250000Y-116390000D03*
X98150000Y-116390000D03*
X104750000Y-97450000D03*
X105650000Y-97450000D03*
X104750000Y-96500000D03*
X105650000Y-96500000D03*
D19*
X111880000Y-111680000D03*
X111880000Y-109880000D03*
D14*
X109500000Y-114380000D03*
X110400000Y-114380000D03*
D31*
X95925000Y-117615000D03*
X94475000Y-117615000D03*
X94475000Y-116465000D03*
X95925000Y-116465000D03*
D32*
X102540000Y-82785000D03*
X102540000Y-86215000D03*
X101270000Y-82785000D03*
X101270000Y-86215000D03*
X100000000Y-82785000D03*
X100000000Y-86215000D03*
X98730000Y-82785000D03*
X98730000Y-86215000D03*
X97460000Y-82785000D03*
X97460000Y-86215000D03*
D14*
X111150000Y-86550000D03*
X110250000Y-86550000D03*
X108500000Y-108950000D03*
X109400000Y-108950000D03*
D33*
X114140000Y-111422500D03*
D34*
X113815000Y-110500000D03*
D33*
X113490000Y-111422500D03*
X113490000Y-109577500D03*
X114140000Y-109577500D03*
X114790000Y-111422500D03*
X114790000Y-109577500D03*
D35*
X114790000Y-110404000D03*
D14*
X106250000Y-115200000D03*
X106250000Y-114300000D03*
D35*
X98500000Y-92196000D03*
D33*
X98500000Y-93022500D03*
X98500000Y-91177500D03*
X99150000Y-93022500D03*
X99800000Y-93022500D03*
X99800000Y-91177500D03*
D34*
X99475000Y-92100000D03*
D33*
X99150000Y-91177500D03*
D36*
X95550000Y-91500000D03*
D37*
X95325000Y-92200000D03*
X95775000Y-92200000D03*
D14*
X103250000Y-118250000D03*
X102350000Y-118250000D03*
X103250000Y-117250000D03*
X102350000Y-117250000D03*
X95100000Y-90350000D03*
X95100000Y-89450000D03*
X94900000Y-94050000D03*
X95800000Y-94050000D03*
M02*
