G04 #@! TF.FileFunction,Copper,L1,Top,Signal*
%FSLAX46Y46*%
G04 Gerber Fmt 4.6, Leading zero omitted, Abs format (unit mm)*
G04 Created by KiCad (PCBNEW 201609280951+7255~55~ubuntu14.04.1-) date Wed Jan 11 23:22:02 2017*
%MOMM*%
%LPD*%
G01*
G04 APERTURE LIST*
%ADD10C,0.100000*%
%ADD11R,0.620000X0.620000*%
%ADD12R,1.700000X1.700000*%
%ADD13C,0.300000*%
%ADD14R,1.500000X1.500000*%
%ADD15R,0.600000X0.250000*%
%ADD16R,0.250000X0.600000*%
%ADD17R,1.150000X1.450000*%
%ADD18R,1.450000X1.150000*%
%ADD19R,1.500000X0.300000*%
%ADD20R,0.300000X1.500000*%
%ADD21R,2.400000X1.550000*%
%ADD22R,0.800000X0.800000*%
%ADD23R,0.350000X0.650000*%
%ADD24R,2.380000X1.650000*%
%ADD25R,0.800000X1.200000*%
%ADD26R,0.250000X0.700000*%
%ADD27R,2.920000X0.740000*%
%ADD28R,0.500000X1.600000*%
%ADD29R,0.400000X0.700000*%
%ADD30R,0.400000X0.250000*%
%ADD31R,0.950000X0.850000*%
%ADD32R,0.740000X2.920000*%
%ADD33R,0.400000X0.455000*%
%ADD34R,1.050000X1.100000*%
%ADD35R,0.400000X0.850000*%
%ADD36R,0.700000X0.400000*%
%ADD37R,0.250000X0.400000*%
%ADD38C,0.700000*%
%ADD39C,0.800000*%
%ADD40C,0.600000*%
%ADD41C,0.450000*%
%ADD42C,0.200000*%
%ADD43C,0.280000*%
%ADD44C,0.800000*%
%ADD45C,0.600000*%
%ADD46C,1.000000*%
%ADD47C,0.300000*%
G04 APERTURE END LIST*
D10*
D11*
X104750000Y-98400000D03*
X105650000Y-98400000D03*
D12*
X109150000Y-89100000D03*
D13*
X109750000Y-88500000D03*
X108550000Y-88500000D03*
X109750000Y-89700000D03*
X108550000Y-89700000D03*
D14*
X109150000Y-89100000D03*
D15*
X107750000Y-89850000D03*
X107750000Y-89350000D03*
X107750000Y-88850000D03*
X107750000Y-88350000D03*
D16*
X108400000Y-87700000D03*
X108900000Y-87700000D03*
X109400000Y-87700000D03*
X109900000Y-87700000D03*
D15*
X110550000Y-88350000D03*
X110550000Y-88850000D03*
X110550000Y-89350000D03*
X110550000Y-89850000D03*
D16*
X109900000Y-90500000D03*
X109400000Y-90500000D03*
X108900000Y-90500000D03*
X108400000Y-90500000D03*
D11*
X97340000Y-117310000D03*
X97340000Y-118210000D03*
X93150000Y-116370000D03*
X93150000Y-117270000D03*
X106230000Y-111890000D03*
X106230000Y-112790000D03*
X105300000Y-105390000D03*
X105300000Y-104490000D03*
X91940000Y-114100000D03*
X91940000Y-115000000D03*
X100500000Y-116880000D03*
X99600000Y-116880000D03*
X105290000Y-111890000D03*
X105290000Y-112790000D03*
X91920000Y-102140000D03*
X91920000Y-101240000D03*
X100500000Y-118080000D03*
X99600000Y-118080000D03*
X93130000Y-101240000D03*
X93130000Y-102140000D03*
X105300000Y-107310000D03*
X105300000Y-106410000D03*
D17*
X107000000Y-86150000D03*
X108800000Y-86150000D03*
D11*
X112400000Y-87500000D03*
X111500000Y-87500000D03*
D18*
X106250000Y-90200000D03*
X106250000Y-92000000D03*
D11*
X89430000Y-113690000D03*
X88530000Y-113690000D03*
D19*
X92286000Y-113082000D03*
X92286000Y-112582000D03*
X92286000Y-112082000D03*
X92286000Y-111582000D03*
X92286000Y-111082000D03*
X92286000Y-110582000D03*
X92286000Y-110082000D03*
X92286000Y-109582000D03*
X92286000Y-109082000D03*
X92286000Y-108582000D03*
X92286000Y-108082000D03*
X92286000Y-107582000D03*
X92286000Y-107082000D03*
X92286000Y-106582000D03*
X92286000Y-106082000D03*
X92286000Y-105582000D03*
D20*
X94236000Y-103632000D03*
X94736000Y-103632000D03*
X95236000Y-103632000D03*
X95736000Y-103632000D03*
X96236000Y-103632000D03*
X96736000Y-103632000D03*
X97236000Y-103632000D03*
X97736000Y-103632000D03*
X98236000Y-103632000D03*
X98736000Y-103632000D03*
X99236000Y-103632000D03*
X99736000Y-103632000D03*
X100236000Y-103632000D03*
X100736000Y-103632000D03*
X101236000Y-103632000D03*
X101736000Y-103632000D03*
D19*
X103686000Y-105582000D03*
X103686000Y-106082000D03*
X103686000Y-106582000D03*
X103686000Y-107082000D03*
X103686000Y-107582000D03*
X103686000Y-108082000D03*
X103686000Y-108582000D03*
X103686000Y-109082000D03*
X103686000Y-109582000D03*
X103686000Y-110082000D03*
X103686000Y-110582000D03*
X103686000Y-111082000D03*
X103686000Y-111582000D03*
X103686000Y-112082000D03*
X103686000Y-112582000D03*
X103686000Y-113082000D03*
D20*
X101736000Y-115032000D03*
X101236000Y-115032000D03*
X100736000Y-115032000D03*
X100236000Y-115032000D03*
X99736000Y-115032000D03*
X99236000Y-115032000D03*
X98736000Y-115032000D03*
X98236000Y-115032000D03*
X97736000Y-115032000D03*
X97236000Y-115032000D03*
X96736000Y-115032000D03*
X96236000Y-115032000D03*
X95736000Y-115032000D03*
X95236000Y-115032000D03*
X94736000Y-115032000D03*
X94236000Y-115032000D03*
D21*
X88040000Y-110920000D03*
D22*
X88640000Y-110920000D03*
X87440000Y-110920000D03*
X88640000Y-110920000D03*
X87440000Y-110920000D03*
D23*
X87065000Y-109370000D03*
X87715000Y-109370000D03*
X88365000Y-109370000D03*
X89015000Y-109370000D03*
X89015000Y-112470000D03*
X88365000Y-112470000D03*
X87715000Y-112470000D03*
X87065000Y-112470000D03*
D24*
X109050000Y-111440000D03*
D25*
X108450000Y-111440000D03*
X109650000Y-111440000D03*
D26*
X110050000Y-112865000D03*
X109550000Y-112865000D03*
X109050000Y-112865000D03*
X108550000Y-112865000D03*
X108050000Y-112865000D03*
X108050000Y-110015000D03*
X108550000Y-110015000D03*
X109050000Y-110015000D03*
X109550000Y-110015000D03*
X110050000Y-110015000D03*
D27*
X86715000Y-105715000D03*
X83285000Y-105715000D03*
X86715000Y-104445000D03*
X83285000Y-104445000D03*
X86715000Y-103175000D03*
X83285000Y-103175000D03*
X86715000Y-101905000D03*
X83285000Y-101905000D03*
X86715000Y-100635000D03*
X83285000Y-100635000D03*
X86715000Y-99365000D03*
X83285000Y-99365000D03*
X86715000Y-98095000D03*
X83285000Y-98095000D03*
X86715000Y-96825000D03*
X83285000Y-96825000D03*
X86715000Y-95555000D03*
X83285000Y-95555000D03*
X86715000Y-94285000D03*
X83285000Y-94285000D03*
X116715000Y-105715000D03*
X113285000Y-105715000D03*
X116715000Y-104445000D03*
X113285000Y-104445000D03*
X116715000Y-103175000D03*
X113285000Y-103175000D03*
X116715000Y-101905000D03*
X113285000Y-101905000D03*
X116715000Y-100635000D03*
X113285000Y-100635000D03*
X116715000Y-99365000D03*
X113285000Y-99365000D03*
X116715000Y-98095000D03*
X113285000Y-98095000D03*
X116715000Y-96825000D03*
X113285000Y-96825000D03*
X116715000Y-95555000D03*
X113285000Y-95555000D03*
X116715000Y-94285000D03*
X113285000Y-94285000D03*
D28*
X107750000Y-92100000D03*
X109250000Y-92100000D03*
D29*
X108480000Y-114390000D03*
D30*
X107780000Y-114165000D03*
X107780000Y-114615000D03*
D11*
X97250000Y-116390000D03*
X98150000Y-116390000D03*
X104750000Y-97450000D03*
X105650000Y-97450000D03*
X104750000Y-96500000D03*
X105650000Y-96500000D03*
D18*
X111880000Y-111680000D03*
X111880000Y-109880000D03*
D11*
X109500000Y-114380000D03*
X110400000Y-114380000D03*
D31*
X95925000Y-117615000D03*
X94475000Y-117615000D03*
X94475000Y-116465000D03*
X95925000Y-116465000D03*
D32*
X102540000Y-82785000D03*
X102540000Y-86215000D03*
X101270000Y-82785000D03*
X101270000Y-86215000D03*
X100000000Y-82785000D03*
X100000000Y-86215000D03*
X98730000Y-82785000D03*
X98730000Y-86215000D03*
X97460000Y-82785000D03*
X97460000Y-86215000D03*
D11*
X111150000Y-86550000D03*
X110250000Y-86550000D03*
X108500000Y-108950000D03*
X109400000Y-108950000D03*
D33*
X114140000Y-111422500D03*
D34*
X113815000Y-110500000D03*
D33*
X113490000Y-111422500D03*
X113490000Y-109577500D03*
X114140000Y-109577500D03*
X114790000Y-111422500D03*
X114790000Y-109577500D03*
D35*
X114790000Y-110404000D03*
D11*
X106250000Y-115200000D03*
X106250000Y-114300000D03*
D35*
X98500000Y-92196000D03*
D33*
X98500000Y-93022500D03*
X98500000Y-91177500D03*
X99150000Y-93022500D03*
X99800000Y-93022500D03*
X99800000Y-91177500D03*
D34*
X99475000Y-92100000D03*
D33*
X99150000Y-91177500D03*
D36*
X95550000Y-91500000D03*
D37*
X95325000Y-92200000D03*
X95775000Y-92200000D03*
D11*
X103250000Y-118250000D03*
X102350000Y-118250000D03*
X103250000Y-117250000D03*
X102350000Y-117250000D03*
X95100000Y-90350000D03*
X95100000Y-89450000D03*
X94900000Y-94050000D03*
X95800000Y-94050000D03*
D38*
X86050000Y-110900000D03*
D39*
X107550000Y-90550000D03*
X105750000Y-86150000D03*
D38*
X112100000Y-86550000D03*
X111900000Y-88450000D03*
X111000000Y-90600000D03*
X93700000Y-111050000D03*
X95850000Y-93050000D03*
X108450000Y-108150000D03*
X105100000Y-113650000D03*
X92500000Y-100550000D03*
X107300000Y-115200000D03*
X99600000Y-118960000D03*
X89450000Y-114550000D03*
D39*
X101250000Y-81250000D03*
X100000000Y-81250000D03*
D38*
X116370000Y-106690000D03*
X83470000Y-106690000D03*
X86510000Y-106700000D03*
X105310000Y-108140000D03*
X104270000Y-104480000D03*
D40*
X116530000Y-93380000D03*
D38*
X111820000Y-94280000D03*
X111820000Y-105720000D03*
X81820000Y-94280000D03*
X93640000Y-112590000D03*
X93150000Y-115000000D03*
X98060000Y-118210000D03*
X88180000Y-94290000D03*
X90950000Y-113700000D03*
X90950000Y-110750000D03*
X105650000Y-100300000D03*
X103450000Y-102500000D03*
X89150000Y-108400000D03*
X87700000Y-113325002D03*
X88180000Y-101900000D03*
X104800000Y-88000000D03*
X96250000Y-88050000D03*
D39*
X98750000Y-88000000D03*
D38*
X103850000Y-98400000D03*
X101800000Y-100400000D03*
X103850000Y-97450000D03*
X101800000Y-99250000D03*
X103850000Y-96500000D03*
X101100000Y-98500000D03*
X88180000Y-95550000D03*
X88180000Y-96830000D03*
X89650000Y-98100000D03*
X88175000Y-103175000D03*
X88200000Y-104450000D03*
X110610000Y-109360000D03*
X110780000Y-113530000D03*
X81820000Y-95550000D03*
X81820000Y-96830000D03*
X81820000Y-98100000D03*
X81820000Y-99370000D03*
X88180000Y-99370000D03*
X81820000Y-100630000D03*
X88180000Y-100640000D03*
X81820000Y-101900000D03*
X81820000Y-103170000D03*
X81820000Y-104440000D03*
X111820000Y-95560000D03*
X118180000Y-95550000D03*
X111820000Y-96830000D03*
X118180000Y-96820000D03*
X111820000Y-98090000D03*
X118180000Y-98100000D03*
X111820000Y-99360000D03*
X111820000Y-100630000D03*
X111820000Y-101900000D03*
X111820000Y-103170000D03*
X109650000Y-116450000D03*
X118180000Y-103170000D03*
X118180000Y-99360000D03*
X118180000Y-100630000D03*
X118180000Y-101900000D03*
X96000000Y-90550000D03*
X98400000Y-90500000D03*
X111820000Y-104450000D03*
X118180000Y-104440000D03*
D41*
X88040000Y-110920000D02*
X86070000Y-110920000D01*
X86070000Y-110920000D02*
X86050000Y-110900000D01*
D42*
X107750000Y-89850000D02*
X106600000Y-89850000D01*
X106600000Y-89850000D02*
X106250000Y-90200000D01*
X107750000Y-89350000D02*
X107750000Y-89850000D01*
X106250000Y-90200000D02*
X107200000Y-90200000D01*
X107200000Y-90200000D02*
X107550000Y-90550000D01*
D41*
X107000000Y-86150000D02*
X105750000Y-86150000D01*
D43*
X112100000Y-86550000D02*
X112400000Y-86850000D01*
X112400000Y-86850000D02*
X112400000Y-87500000D01*
X111150000Y-86550000D02*
X112100000Y-86550000D01*
X112400000Y-87500000D02*
X112400000Y-87950000D01*
X112400000Y-87950000D02*
X111900000Y-88450000D01*
X110550000Y-88350000D02*
X111800000Y-88350000D01*
X111800000Y-88350000D02*
X111900000Y-88450000D01*
X110550000Y-89850000D02*
X110550000Y-90150000D01*
X110550000Y-90150000D02*
X111000000Y-90600000D01*
X110550000Y-89350000D02*
X110550000Y-89850000D01*
X92286000Y-111082000D02*
X93668000Y-111082000D01*
X93668000Y-111082000D02*
X93700000Y-111050000D01*
X106250000Y-115200000D02*
X107300000Y-115200000D01*
X95775000Y-92200000D02*
X95775000Y-92975000D01*
X95775000Y-92975000D02*
X95850000Y-93050000D01*
X95800000Y-94050000D02*
X95800000Y-93100000D01*
X95800000Y-93100000D02*
X95850000Y-93050000D01*
X108500000Y-108950000D02*
X108500000Y-108200000D01*
X108500000Y-108200000D02*
X108450000Y-108150000D01*
X108550000Y-110015000D02*
X108550000Y-109000000D01*
X108550000Y-109000000D02*
X108500000Y-108950000D01*
X105290000Y-112790000D02*
X105290000Y-113460000D01*
X105290000Y-113460000D02*
X105100000Y-113650000D01*
X91920000Y-101240000D02*
X91920000Y-101130000D01*
X91920000Y-101130000D02*
X92500000Y-100550000D01*
D42*
X107300000Y-114695000D02*
X107300000Y-115200000D01*
X107780000Y-114615000D02*
X107380000Y-114615000D01*
X107380000Y-114615000D02*
X107300000Y-114695000D01*
D43*
X99600000Y-118080000D02*
X99600000Y-118960000D01*
X89430000Y-113690000D02*
X89430000Y-114530000D01*
X89430000Y-114530000D02*
X89450000Y-114550000D01*
D44*
X101270000Y-82785000D02*
X100000000Y-82785000D01*
X101270000Y-82785000D02*
X101270000Y-81270000D01*
X101270000Y-81270000D02*
X101250000Y-81250000D01*
X100000000Y-82785000D02*
X100000000Y-81250000D01*
D43*
X99736000Y-115032000D02*
X99736000Y-116744000D01*
X99736000Y-116744000D02*
X99600000Y-116880000D01*
D42*
X100000000Y-82785000D02*
X100000000Y-83800000D01*
D43*
X116715000Y-94285000D02*
X113285000Y-94285000D01*
D45*
X116715000Y-106345000D02*
X116715000Y-105715000D01*
X116370000Y-106690000D02*
X116715000Y-106345000D01*
D41*
X83285000Y-106505000D02*
X83470000Y-106690000D01*
X83285000Y-105715000D02*
X83285000Y-106505000D01*
X86715000Y-106495000D02*
X86715000Y-105715000D01*
X86510000Y-106700000D02*
X86715000Y-106495000D01*
D43*
X109550000Y-112865000D02*
X109550000Y-111940000D01*
X109550000Y-111940000D02*
X109050000Y-111440000D01*
X108550000Y-110015000D02*
X108550000Y-110940000D01*
X108550000Y-110940000D02*
X109050000Y-111440000D01*
X108550000Y-110015000D02*
X108050000Y-110015000D01*
X108550000Y-110015000D02*
X109050000Y-110015000D01*
X105300000Y-107310000D02*
X105300000Y-108130000D01*
X105300000Y-108130000D02*
X105310000Y-108140000D01*
X105300000Y-104490000D02*
X104280000Y-104490000D01*
X104280000Y-104490000D02*
X104270000Y-104480000D01*
X116715000Y-94285000D02*
X116715000Y-93565000D01*
X116715000Y-93565000D02*
X116530000Y-93380000D01*
D45*
X113285000Y-94285000D02*
X111825000Y-94285000D01*
D43*
X111825000Y-94285000D02*
X111820000Y-94280000D01*
D45*
X113285000Y-105715000D02*
X111825000Y-105715000D01*
D43*
X111825000Y-105715000D02*
X111820000Y-105720000D01*
D45*
X83285000Y-94285000D02*
X81825000Y-94285000D01*
D43*
X81825000Y-94285000D02*
X81820000Y-94280000D01*
X91920000Y-101240000D02*
X93130000Y-101240000D01*
X92286000Y-112582000D02*
X93632000Y-112582000D01*
X93632000Y-112582000D02*
X93640000Y-112590000D01*
X105290000Y-112790000D02*
X106230000Y-112790000D01*
X103686000Y-112582000D02*
X105082000Y-112582000D01*
X105082000Y-112582000D02*
X105290000Y-112790000D01*
X91940000Y-115000000D02*
X93150000Y-115000000D01*
X93150000Y-115000000D02*
X93150000Y-116370000D01*
X94475000Y-116465000D02*
X93245000Y-116465000D01*
X91940000Y-115160000D02*
X91940000Y-115000000D01*
X99600000Y-116880000D02*
X99600000Y-118080000D01*
X97340000Y-118210000D02*
X98060000Y-118210000D01*
X97340000Y-118210000D02*
X97050000Y-118210000D01*
X97050000Y-118210000D02*
X96455000Y-117615000D01*
X96455000Y-117615000D02*
X95925000Y-117615000D01*
D41*
X87715000Y-112470000D02*
X87715000Y-111245000D01*
X87715000Y-111245000D02*
X88040000Y-110920000D01*
X87065000Y-109370000D02*
X87065000Y-110545000D01*
X87065000Y-110545000D02*
X87440000Y-110920000D01*
D43*
X88175000Y-94285000D02*
X88180000Y-94290000D01*
D45*
X86715000Y-94285000D02*
X88175000Y-94285000D01*
D43*
X96236000Y-115032000D02*
X96236000Y-116154000D01*
X96236000Y-116154000D02*
X95925000Y-116465000D01*
X96215000Y-116465000D02*
X97060000Y-117310000D01*
X97060000Y-117310000D02*
X97340000Y-117310000D01*
X96096000Y-116394000D02*
X96025000Y-116465000D01*
X98850000Y-118411602D02*
X98850000Y-117680000D01*
X98850000Y-117680000D02*
X98150000Y-116980000D01*
X98150000Y-116980000D02*
X98150000Y-116390000D01*
X97670000Y-118870000D02*
X97680001Y-118880001D01*
X97680001Y-118880001D02*
X98381601Y-118880001D01*
X98381601Y-118880001D02*
X98850000Y-118411602D01*
X96870000Y-118870000D02*
X97670000Y-118870000D01*
X95250000Y-118390000D02*
X94475000Y-117615000D01*
X96390000Y-118390000D02*
X95250000Y-118390000D01*
X96870000Y-118870000D02*
X96390000Y-118390000D01*
X94475000Y-117615000D02*
X93495000Y-117615000D01*
X93495000Y-117615000D02*
X93150000Y-117270000D01*
X91940000Y-114100000D02*
X91350000Y-114100000D01*
X91350000Y-114100000D02*
X90950000Y-113700000D01*
X89015000Y-109370000D02*
X89570000Y-109370000D01*
X89570000Y-109370000D02*
X90950000Y-110750000D01*
D42*
X105200000Y-89050000D02*
X105400000Y-88850000D01*
X105400000Y-88850000D02*
X107750000Y-88850000D01*
X105200000Y-91875000D02*
X105200000Y-89050000D01*
D43*
X109626002Y-93350000D02*
X108450000Y-93350000D01*
X108450000Y-93350000D02*
X107750000Y-92650000D01*
X107750000Y-92650000D02*
X107750000Y-92100000D01*
X110550000Y-88850000D02*
X111051002Y-88850000D01*
X111051002Y-88850000D02*
X111670001Y-89468999D01*
X111670001Y-89468999D02*
X111670001Y-91306001D01*
X111670001Y-91306001D02*
X109626002Y-93350000D01*
D42*
X106250000Y-92000000D02*
X105325000Y-92000000D01*
X105325000Y-92000000D02*
X105200000Y-91875000D01*
D41*
X105650000Y-98400000D02*
X105650000Y-100300000D01*
X105650000Y-96500000D02*
X105650000Y-92600000D01*
X105650000Y-92600000D02*
X106250000Y-92000000D01*
X105650000Y-97450000D02*
X105650000Y-96500000D01*
X105650000Y-98400000D02*
X105650000Y-97450000D01*
D42*
X106250000Y-92000000D02*
X107650000Y-92000000D01*
X107650000Y-92000000D02*
X107750000Y-92100000D01*
D43*
X91920000Y-114080000D02*
X91940000Y-114100000D01*
D41*
X102360000Y-103590000D02*
X103450000Y-102500000D01*
X102360000Y-104510000D02*
X102360000Y-103590000D01*
D42*
X102350000Y-118250000D02*
X100670000Y-118250000D01*
X100670000Y-118250000D02*
X100500000Y-118080000D01*
D43*
X100236000Y-115032000D02*
X100236000Y-116316000D01*
X100236000Y-116316000D02*
X100500000Y-116580000D01*
X100500000Y-116580000D02*
X100500000Y-116880000D01*
X94236000Y-103632000D02*
X94236000Y-102836000D01*
X94236000Y-102836000D02*
X94190001Y-102790001D01*
X94190001Y-102790001D02*
X91942129Y-102790001D01*
X91942129Y-102790001D02*
X91920000Y-102812130D01*
D41*
X102360000Y-104510000D02*
X101860000Y-105010000D01*
X101860000Y-105010000D02*
X94117870Y-105010000D01*
X94117870Y-105010000D02*
X91920000Y-102812130D01*
X91920000Y-102812130D02*
X91920000Y-102140000D01*
D43*
X102362000Y-105582000D02*
X102362000Y-105948000D01*
X102362000Y-105948000D02*
X102360000Y-105950000D01*
D41*
X102360000Y-104510000D02*
X102360000Y-105950000D01*
X102360000Y-105950000D02*
X102360000Y-112120000D01*
D43*
X103686000Y-112082000D02*
X102360000Y-112082000D01*
X102390000Y-112120000D02*
X102360000Y-112120000D01*
X102390000Y-112112000D02*
X102390000Y-112120000D01*
X102360000Y-112082000D02*
X102390000Y-112112000D01*
D41*
X102360000Y-112120000D02*
X102360000Y-112870000D01*
X102360000Y-112870000D02*
X101590000Y-113640000D01*
X100260000Y-113640000D02*
X101590000Y-113640000D01*
D43*
X103686000Y-105582000D02*
X105108000Y-105582000D01*
X105108000Y-105582000D02*
X105300000Y-105390000D01*
X103686000Y-105582000D02*
X102362000Y-105582000D01*
X100236000Y-115032000D02*
X100236000Y-113640000D01*
X100260000Y-113616000D02*
X100260000Y-113640000D01*
X100236000Y-113640000D02*
X100260000Y-113616000D01*
X94236000Y-115032000D02*
X94236000Y-114176000D01*
X94236000Y-114176000D02*
X94160000Y-114100000D01*
D41*
X91940000Y-114100000D02*
X94160000Y-114100000D01*
X94160000Y-114100000D02*
X94620000Y-113640000D01*
X94620000Y-113640000D02*
X100260000Y-113640000D01*
D43*
X100500000Y-118080000D02*
X100500000Y-116880000D01*
X91940000Y-114100000D02*
X91940000Y-113428000D01*
X91940000Y-113428000D02*
X92286000Y-113082000D01*
X94236000Y-114566000D02*
X94236000Y-115032000D01*
X105290000Y-111890000D02*
X106230000Y-111890000D01*
X103686000Y-112082000D02*
X105098000Y-112082000D01*
X105098000Y-112082000D02*
X105290000Y-111890000D01*
X94236000Y-103632000D02*
X94236000Y-103116000D01*
X94736000Y-103632000D02*
X94736000Y-102646000D01*
X94230000Y-102140000D02*
X93130000Y-102140000D01*
X94736000Y-102646000D02*
X94230000Y-102140000D01*
X103686000Y-106082000D02*
X104972000Y-106082000D01*
X104972000Y-106082000D02*
X105300000Y-106410000D01*
X109900000Y-87700000D02*
X111300000Y-87700000D01*
X111300000Y-87700000D02*
X111500000Y-87500000D01*
X89150000Y-108400000D02*
X89700000Y-107850000D01*
X89700000Y-107850000D02*
X89700000Y-103420000D01*
X88180000Y-101900000D02*
X89700000Y-103420000D01*
X88530000Y-113690000D02*
X88064998Y-113690000D01*
X88064998Y-113690000D02*
X87700000Y-113325002D01*
D42*
X86715000Y-101905000D02*
X85585000Y-101905000D01*
D43*
X88365000Y-112470000D02*
X88365000Y-113525000D01*
X88365000Y-113525000D02*
X88530000Y-113690000D01*
D42*
X86715000Y-101905000D02*
X85605000Y-101905000D01*
D45*
X86715000Y-101905000D02*
X88175000Y-101905000D01*
D43*
X88175000Y-101905000D02*
X88180000Y-101900000D01*
X107400000Y-88000000D02*
X107700000Y-87700000D01*
X107700000Y-87700000D02*
X108400000Y-87700000D01*
D42*
X108900000Y-87700000D02*
X108900000Y-86250000D01*
X108900000Y-86250000D02*
X108800000Y-86150000D01*
X108900000Y-87700000D02*
X109400000Y-87700000D01*
X108400000Y-87700000D02*
X108900000Y-87700000D01*
D43*
X108800000Y-86150000D02*
X109850000Y-86150000D01*
X109850000Y-86150000D02*
X110250000Y-86550000D01*
X104800000Y-88000000D02*
X107400000Y-88000000D01*
X107400000Y-88000000D02*
X107750000Y-88350000D01*
X96250000Y-88050000D02*
X96250000Y-88300000D01*
X96250000Y-88300000D02*
X95100000Y-89450000D01*
D44*
X98750000Y-88000000D02*
X98750000Y-89365685D01*
X98750000Y-89365685D02*
X99475000Y-90090685D01*
X99475000Y-90090685D02*
X99475000Y-92100000D01*
X98730000Y-86215000D02*
X98730000Y-87980000D01*
X98730000Y-87980000D02*
X98750000Y-88000000D01*
X98730000Y-82785000D02*
X98730000Y-86215000D01*
D43*
X96736000Y-115032000D02*
X96736000Y-115914000D01*
X96736000Y-115914000D02*
X97212000Y-116390000D01*
X97212000Y-116390000D02*
X97250000Y-116390000D01*
X101270000Y-86215000D02*
X101270000Y-96314974D01*
X103850000Y-98400000D02*
X103355026Y-98400000D01*
X103355026Y-98400000D02*
X101270000Y-96314974D01*
X104750000Y-98400000D02*
X103850000Y-98400000D01*
X100050000Y-101650000D02*
X103800000Y-101650000D01*
X99188000Y-101650000D02*
X100050000Y-101650000D01*
X100050000Y-101650000D02*
X100550000Y-101650000D01*
X100550000Y-101650000D02*
X101800000Y-100400000D01*
X98236000Y-103632000D02*
X98236000Y-102602000D01*
X98236000Y-102602000D02*
X99188000Y-101650000D01*
X107079998Y-112799998D02*
X107800000Y-113520000D01*
X103800000Y-101650000D02*
X107079998Y-104929998D01*
X107079998Y-104929998D02*
X107079998Y-112799998D01*
X107800000Y-113520000D02*
X108300000Y-113520000D01*
X108300000Y-113520000D02*
X108550000Y-113270000D01*
X108550000Y-113270000D02*
X108550000Y-112865000D01*
X103850000Y-97450000D02*
X102540000Y-96140000D01*
X102540000Y-96140000D02*
X102540000Y-86215000D01*
X107510000Y-104751876D02*
X102358123Y-99599999D01*
X102358123Y-99599999D02*
X102149999Y-99599999D01*
X102149999Y-99599999D02*
X101800000Y-99250000D01*
X104750000Y-97450000D02*
X103850000Y-97450000D01*
X97736000Y-103632000D02*
X97736000Y-102493876D01*
X99029876Y-101200000D02*
X99850000Y-101200000D01*
X97736000Y-102493876D02*
X99029876Y-101200000D01*
X99850000Y-101200000D02*
X101800000Y-99250000D01*
X108050000Y-112865000D02*
X107875000Y-112865000D01*
X107875000Y-112865000D02*
X107510000Y-112500000D01*
X107510000Y-112500000D02*
X107510000Y-104751876D01*
X103850000Y-96500000D02*
X103850000Y-83445000D01*
X103850000Y-83445000D02*
X103190000Y-82785000D01*
X103190000Y-82785000D02*
X102540000Y-82785000D01*
X97236000Y-102364000D02*
X101100000Y-98500000D01*
X97236000Y-103632000D02*
X97236000Y-102364000D01*
X104750000Y-96500000D02*
X103850000Y-96500000D01*
X89600000Y-95550000D02*
X95236000Y-101186000D01*
X95236000Y-101186000D02*
X95236000Y-103632000D01*
X88180000Y-95550000D02*
X89600000Y-95550000D01*
X88175000Y-95555000D02*
X88180000Y-95550000D01*
D45*
X86715000Y-95555000D02*
X88175000Y-95555000D01*
D43*
X92286000Y-105582000D02*
X91532000Y-105582000D01*
X91532000Y-105582000D02*
X91200000Y-105250000D01*
X91200000Y-105250000D02*
X91200000Y-97950000D01*
X91200000Y-97950000D02*
X90080000Y-96830000D01*
X90080000Y-96830000D02*
X88180000Y-96830000D01*
X92286000Y-105582000D02*
X91742002Y-105582000D01*
X92286000Y-105582000D02*
X92222000Y-105582000D01*
D45*
X86715000Y-96825000D02*
X88175000Y-96825000D01*
D43*
X88175000Y-96825000D02*
X88180000Y-96830000D01*
X90650000Y-98605026D02*
X90650000Y-105476000D01*
X90650000Y-105476000D02*
X91256000Y-106082000D01*
X91256000Y-106082000D02*
X92286000Y-106082000D01*
X89650000Y-98100000D02*
X90144974Y-98100000D01*
X90144974Y-98100000D02*
X90650000Y-98605026D01*
X91382000Y-108582000D02*
X90160010Y-107360010D01*
X90160010Y-107360010D02*
X90160010Y-99800010D01*
X90160010Y-99800010D02*
X88455000Y-98095000D01*
X88455000Y-98095000D02*
X86715000Y-98095000D01*
X92286000Y-108582000D02*
X91382000Y-108582000D01*
X86715000Y-98095000D02*
X87915000Y-98095000D01*
X89015000Y-112470000D02*
X89470000Y-112470000D01*
X89470000Y-112470000D02*
X90358000Y-111582000D01*
X90358000Y-111582000D02*
X92286000Y-111582000D01*
X90200000Y-114791602D02*
X90200000Y-113138000D01*
X90200000Y-113138000D02*
X91256000Y-112082000D01*
X91256000Y-112082000D02*
X92286000Y-112082000D01*
X87065000Y-112485000D02*
X87029999Y-112520001D01*
X87029999Y-112520001D02*
X87029999Y-113646603D01*
X87029999Y-113646603D02*
X88603397Y-115220001D01*
X88603397Y-115220001D02*
X89771601Y-115220001D01*
X89771601Y-115220001D02*
X90200000Y-114791602D01*
X87065000Y-112470000D02*
X87065000Y-112485000D01*
D42*
X108400000Y-90500000D02*
X108900000Y-90500000D01*
X109250000Y-92100000D02*
X109250000Y-90650000D01*
X109250000Y-90650000D02*
X109400000Y-90500000D01*
X109400000Y-90500000D02*
X108900000Y-90500000D01*
D43*
X89150000Y-106950000D02*
X89150000Y-104150000D01*
X88175000Y-103175000D02*
X89150000Y-104150000D01*
X88365000Y-107735000D02*
X89150000Y-106950000D01*
X88365000Y-109370000D02*
X88365000Y-107735000D01*
D45*
X88175000Y-103175000D02*
X86715000Y-103175000D01*
D43*
X88549999Y-106500001D02*
X87715000Y-107335000D01*
X87715000Y-107335000D02*
X87715000Y-109370000D01*
X88200000Y-104450000D02*
X88549999Y-104799999D01*
X88549999Y-104799999D02*
X88549999Y-106500001D01*
D45*
X86715000Y-104445000D02*
X88195000Y-104445000D01*
D43*
X88195000Y-104445000D02*
X88200000Y-104450000D01*
D45*
X97460000Y-93500000D02*
X108728402Y-104768402D01*
X97460000Y-92200000D02*
X97460000Y-93500000D01*
X108728402Y-104768402D02*
X108728402Y-107200000D01*
D42*
X97464000Y-92196000D02*
X97460000Y-92200000D01*
D45*
X108728402Y-107200000D02*
X109578402Y-108050000D01*
X109578402Y-108050000D02*
X110750000Y-108050000D01*
X110750000Y-108050000D02*
X111880000Y-109180000D01*
X111880000Y-109180000D02*
X111880000Y-109880000D01*
D46*
X97460000Y-88675000D02*
X97200000Y-88935000D01*
X97200000Y-88935000D02*
X97200000Y-91932000D01*
X97200000Y-91932000D02*
X97464000Y-92196000D01*
X97460000Y-86215000D02*
X97460000Y-88675000D01*
D42*
X98500000Y-92196000D02*
X97464000Y-92196000D01*
D43*
X98500000Y-92196000D02*
X98020000Y-92196000D01*
X109550000Y-110015000D02*
X109550000Y-109100000D01*
X109550000Y-109100000D02*
X109400000Y-108950000D01*
X109550000Y-110015000D02*
X110050000Y-110015000D01*
X110400000Y-114380000D02*
X110400000Y-113910000D01*
X110610000Y-109360000D02*
X110610000Y-110015000D01*
X110400000Y-113910000D02*
X110780000Y-113530000D01*
X110050000Y-110015000D02*
X110610000Y-110015000D01*
X110610000Y-110015000D02*
X111745000Y-110015000D01*
X111745000Y-110015000D02*
X111880000Y-109880000D01*
D46*
X97460000Y-82785000D02*
X97460000Y-86215000D01*
D41*
X114140000Y-109577500D02*
X113490000Y-109577500D01*
X113490000Y-109577500D02*
X113490000Y-110175000D01*
X113490000Y-111422500D02*
X113490000Y-110825000D01*
X114140000Y-111422500D02*
X113490000Y-111422500D01*
D43*
X113490000Y-110825000D02*
X113815000Y-110500000D01*
X113490000Y-110175000D02*
X113815000Y-110500000D01*
X110050000Y-112865000D02*
X110695000Y-112865000D01*
X110695000Y-112865000D02*
X111880000Y-111680000D01*
D41*
X111880000Y-111680000D02*
X111880000Y-111760000D01*
D45*
X111880000Y-111680000D02*
X112635000Y-111680000D01*
X112635000Y-111680000D02*
X113815000Y-110500000D01*
D43*
X81825000Y-95555000D02*
X81820000Y-95550000D01*
D45*
X83285000Y-95555000D02*
X81825000Y-95555000D01*
D43*
X81825000Y-96825000D02*
X81820000Y-96830000D01*
D45*
X83285000Y-96825000D02*
X81825000Y-96825000D01*
X83285000Y-98095000D02*
X81825000Y-98095000D01*
D43*
X81825000Y-98095000D02*
X81820000Y-98100000D01*
D45*
X83285000Y-99365000D02*
X81825000Y-99365000D01*
D43*
X81825000Y-99365000D02*
X81820000Y-99370000D01*
D45*
X86715000Y-99365000D02*
X88175000Y-99365000D01*
D43*
X88175000Y-99365000D02*
X88180000Y-99370000D01*
D45*
X83285000Y-100635000D02*
X81825000Y-100635000D01*
D43*
X81825000Y-100635000D02*
X81820000Y-100630000D01*
D45*
X86715000Y-100635000D02*
X88175000Y-100635000D01*
D43*
X88175000Y-100635000D02*
X88180000Y-100640000D01*
D45*
X83285000Y-101905000D02*
X81825000Y-101905000D01*
D43*
X81825000Y-101905000D02*
X81820000Y-101900000D01*
D45*
X83285000Y-103175000D02*
X81825000Y-103175000D01*
D43*
X81825000Y-103175000D02*
X81820000Y-103170000D01*
D45*
X83285000Y-104445000D02*
X81825000Y-104445000D01*
D43*
X81825000Y-104445000D02*
X81820000Y-104440000D01*
D45*
X111820000Y-95560000D02*
X111190000Y-95560000D01*
X110800000Y-106500000D02*
X112900000Y-108600000D01*
X111190000Y-95560000D02*
X110800000Y-95950000D01*
X114558004Y-108600000D02*
X115000000Y-109041996D01*
X110800000Y-95950000D02*
X110800000Y-106500000D01*
X112900000Y-108600000D02*
X114558004Y-108600000D01*
X115000000Y-109041996D02*
X115000000Y-110530000D01*
D42*
X114874000Y-110404000D02*
X115000000Y-110530000D01*
X114790000Y-110404000D02*
X114874000Y-110404000D01*
D44*
X116715000Y-95555000D02*
X113285000Y-95555000D01*
D43*
X114790000Y-109577500D02*
X114790000Y-110404000D01*
X114804000Y-110390000D02*
X114790000Y-110404000D01*
X111820000Y-95560000D02*
X111825000Y-95555000D01*
D45*
X111825000Y-95555000D02*
X113285000Y-95555000D01*
X116715000Y-95555000D02*
X118175000Y-95555000D01*
D43*
X118175000Y-95555000D02*
X118180000Y-95550000D01*
D44*
X116715000Y-96825000D02*
X113285000Y-96825000D01*
D45*
X113285000Y-96825000D02*
X111825000Y-96825000D01*
D43*
X111825000Y-96825000D02*
X111820000Y-96830000D01*
D45*
X116715000Y-96825000D02*
X118175000Y-96825000D01*
D43*
X118175000Y-96825000D02*
X118180000Y-96820000D01*
X111820000Y-98090000D02*
X111825000Y-98095000D01*
D45*
X111825000Y-98095000D02*
X113285000Y-98095000D01*
D43*
X118180000Y-98100000D02*
X118175000Y-98095000D01*
D45*
X118175000Y-98095000D02*
X116715000Y-98095000D01*
D43*
X111820000Y-99360000D02*
X111825000Y-99365000D01*
D45*
X111825000Y-99365000D02*
X113285000Y-99365000D01*
X113285000Y-100635000D02*
X111825000Y-100635000D01*
D43*
X111825000Y-100635000D02*
X111820000Y-100630000D01*
D45*
X113285000Y-101905000D02*
X111825000Y-101905000D01*
D43*
X111825000Y-101905000D02*
X111820000Y-101900000D01*
X111820000Y-103170000D02*
X111825000Y-103175000D01*
D45*
X111825000Y-103175000D02*
X113285000Y-103175000D01*
D42*
X106750000Y-116900000D02*
X106400000Y-117250000D01*
X106400000Y-117250000D02*
X103250000Y-117250000D01*
X108705026Y-116900000D02*
X106750000Y-116900000D01*
X109650000Y-116450000D02*
X109155026Y-116450000D01*
X109155026Y-116450000D02*
X108705026Y-116900000D01*
X103250000Y-118250000D02*
X103250000Y-117250000D01*
D43*
X118180000Y-103170000D02*
X118175000Y-103175000D01*
D45*
X118175000Y-103175000D02*
X116715000Y-103175000D01*
D43*
X101736000Y-115032000D02*
X102166000Y-115032000D01*
X102166000Y-115032000D02*
X102628001Y-114569999D01*
X102628001Y-114569999D02*
X105390001Y-114569999D01*
X105390001Y-114569999D02*
X105660000Y-114300000D01*
X105660000Y-114300000D02*
X106250000Y-114300000D01*
X107110000Y-114040000D02*
X106850000Y-114300000D01*
X106850000Y-114300000D02*
X106250000Y-114300000D01*
X107110000Y-114040000D02*
X107580000Y-114040000D01*
D42*
X107780000Y-114165000D02*
X107705000Y-114165000D01*
X107705000Y-114165000D02*
X107580000Y-114040000D01*
X107580000Y-114040000D02*
X107780000Y-114165000D01*
D45*
X116715000Y-99365000D02*
X118175000Y-99365000D01*
X118175000Y-99365000D02*
X118180000Y-99360000D01*
D43*
X118180000Y-100630000D02*
X118175000Y-100635000D01*
D45*
X118175000Y-100635000D02*
X116715000Y-100635000D01*
X116715000Y-101905000D02*
X118175000Y-101905000D01*
D43*
X118175000Y-101905000D02*
X118180000Y-101900000D01*
X114790000Y-111422500D02*
X114790000Y-111720000D01*
X109500000Y-114820000D02*
X109500000Y-114380000D01*
X109860000Y-115180000D02*
X109500000Y-114820000D01*
X110870000Y-115180000D02*
X109860000Y-115180000D01*
X111220000Y-114830000D02*
X110870000Y-115180000D01*
X111220000Y-114230000D02*
X111220000Y-114830000D01*
X113230000Y-112220000D02*
X111220000Y-114230000D01*
X114290000Y-112220000D02*
X113230000Y-112220000D01*
X114790000Y-111720000D02*
X114290000Y-112220000D01*
X108480000Y-114390000D02*
X109490000Y-114390000D01*
X109490000Y-114390000D02*
X109500000Y-114380000D01*
D42*
X102350000Y-117250000D02*
X102004000Y-117250000D01*
X102004000Y-117250000D02*
X100736000Y-115982000D01*
X100736000Y-115982000D02*
X100736000Y-115032000D01*
D43*
X94900000Y-94050000D02*
X94900000Y-94346002D01*
X96736000Y-96182002D02*
X96736000Y-103632000D01*
X94900000Y-94346002D02*
X96736000Y-96182002D01*
X94900000Y-94050000D02*
X94900000Y-92614990D01*
X94900000Y-92614990D02*
X95314990Y-92200000D01*
X95550000Y-90800000D02*
X95750000Y-90800000D01*
X95750000Y-90800000D02*
X96000000Y-90550000D01*
X95550000Y-91500000D02*
X95550000Y-90800000D01*
X95550000Y-90800000D02*
X95100000Y-90350000D01*
X98500000Y-91177500D02*
X98500000Y-90600000D01*
X98500000Y-90600000D02*
X98400000Y-90500000D01*
D45*
X113285000Y-104445000D02*
X111825000Y-104445000D01*
D43*
X111825000Y-104445000D02*
X111820000Y-104450000D01*
D45*
X116715000Y-104445000D02*
X118175000Y-104445000D01*
D43*
X118175000Y-104445000D02*
X118180000Y-104440000D01*
D44*
X116715000Y-104445000D02*
X113285000Y-104445000D01*
D42*
G36*
X99950000Y-93250000D02*
X99005877Y-93250000D01*
X99005877Y-92795000D01*
X99000000Y-92765455D01*
X99000000Y-92650545D01*
X99005877Y-92621000D01*
X99005877Y-91771000D01*
X99000000Y-91741455D01*
X99000000Y-91434545D01*
X99005877Y-91405000D01*
X99005877Y-90950000D01*
X99950000Y-90950000D01*
X99950000Y-93250000D01*
X99950000Y-93250000D01*
G37*
X99950000Y-93250000D02*
X99005877Y-93250000D01*
X99005877Y-92795000D01*
X99000000Y-92765455D01*
X99000000Y-92650545D01*
X99005877Y-92621000D01*
X99005877Y-91771000D01*
X99000000Y-91741455D01*
X99000000Y-91434545D01*
X99005877Y-91405000D01*
X99005877Y-90950000D01*
X99950000Y-90950000D01*
X99950000Y-93250000D01*
D47*
G36*
X98550000Y-93150000D02*
X97600000Y-93150000D01*
X97600000Y-91900000D01*
X98550000Y-91900000D01*
X98550000Y-93150000D01*
X98550000Y-93150000D01*
G37*
X98550000Y-93150000D02*
X97600000Y-93150000D01*
X97600000Y-91900000D01*
X98550000Y-91900000D01*
X98550000Y-93150000D01*
D42*
G36*
X109367164Y-90800000D02*
X109398209Y-90956072D01*
X109450000Y-91033584D01*
X109450000Y-92762326D01*
X109402326Y-92810000D01*
X109050000Y-92810000D01*
X109050000Y-91000000D01*
X109042388Y-90961732D01*
X109020711Y-90929289D01*
X108988268Y-90907612D01*
X108950000Y-90900000D01*
X108350000Y-90900000D01*
X108350000Y-90550698D01*
X108350139Y-90391568D01*
X108350000Y-90391232D01*
X108350000Y-90357836D01*
X109367164Y-90357836D01*
X109367164Y-90800000D01*
X109367164Y-90800000D01*
G37*
X109367164Y-90800000D02*
X109398209Y-90956072D01*
X109450000Y-91033584D01*
X109450000Y-92762326D01*
X109402326Y-92810000D01*
X109050000Y-92810000D01*
X109050000Y-91000000D01*
X109042388Y-90961732D01*
X109020711Y-90929289D01*
X108988268Y-90907612D01*
X108950000Y-90900000D01*
X108350000Y-90900000D01*
X108350000Y-90550698D01*
X108350139Y-90391568D01*
X108350000Y-90391232D01*
X108350000Y-90357836D01*
X109367164Y-90357836D01*
X109367164Y-90800000D01*
G36*
X107708432Y-91350139D02*
X107708768Y-91350000D01*
X107950000Y-91350000D01*
X107950000Y-92850000D01*
X105600000Y-92850000D01*
X105600000Y-91350000D01*
X107549302Y-91350000D01*
X107708432Y-91350139D01*
X107708432Y-91350139D01*
G37*
X107708432Y-91350139D02*
X107708768Y-91350000D01*
X107950000Y-91350000D01*
X107950000Y-92850000D01*
X105600000Y-92850000D01*
X105600000Y-91350000D01*
X107549302Y-91350000D01*
X107708432Y-91350139D01*
G36*
X107293928Y-89351791D02*
X107450000Y-89382836D01*
X107900000Y-89382836D01*
X107900000Y-89900000D01*
X107650000Y-89900000D01*
X107611732Y-89907612D01*
X107572389Y-89936941D01*
X106952404Y-90700000D01*
X105700000Y-90700000D01*
X105700000Y-89350000D01*
X107291248Y-89350000D01*
X107293928Y-89351791D01*
X107293928Y-89351791D01*
G37*
X107293928Y-89351791D02*
X107450000Y-89382836D01*
X107900000Y-89382836D01*
X107900000Y-89900000D01*
X107650000Y-89900000D01*
X107611732Y-89907612D01*
X107572389Y-89936941D01*
X106952404Y-90700000D01*
X105700000Y-90700000D01*
X105700000Y-89350000D01*
X107291248Y-89350000D01*
X107293928Y-89351791D01*
G36*
X109450000Y-87166416D02*
X109398209Y-87243928D01*
X109367164Y-87400000D01*
X109367164Y-87663984D01*
X109360000Y-87700000D01*
X109367164Y-87736016D01*
X109367164Y-87842164D01*
X108300000Y-87842164D01*
X108300000Y-85500000D01*
X109450000Y-85500000D01*
X109450000Y-87166416D01*
X109450000Y-87166416D01*
G37*
X109450000Y-87166416D02*
X109398209Y-87243928D01*
X109367164Y-87400000D01*
X109367164Y-87663984D01*
X109360000Y-87700000D01*
X109367164Y-87736016D01*
X109367164Y-87842164D01*
X108300000Y-87842164D01*
X108300000Y-85500000D01*
X109450000Y-85500000D01*
X109450000Y-87166416D01*
M02*
