M48
;DRILL file {KiCad 4.1.0-alpha+201605071002+6776~44~ubuntu14.04.1-product} date Sun 03 Jul 2016 02:58:03 BST
;FORMAT={-:-/ absolute / inch / decimal}
FMAT,2
INCH,TZ
T1C0.008
T2C0.012
T3C0.016
%
G90
G05
M72
T1
X4.3618Y-3.4957
X4.3618Y-3.5429
X4.4091Y-3.4957
X4.4091Y-3.5429
T2
X3.3437Y-4.3917
X3.4146Y-4.463
X3.485Y-4.5165
X3.4957Y-4.3689
X3.5106Y-3.624
X3.526Y-4.3492
X3.5283Y-3.9106
X3.539Y-3.6654
X3.5406Y-4.4933
X3.548Y-3.9358
X3.5681Y-3.8236
X3.5744Y-3.9547
X3.6201Y-4.5295
X3.6394Y-4.4346
X3.6398Y-3.8327
X3.6445Y-3.624
X3.6787Y-3.6323
X3.6969Y-3.8524
X3.6988Y-3.7559
X3.6993Y-3.7084
X3.7157Y-3.4567
X3.7165Y-3.4331
X3.7205Y-3.8031
X3.7323Y-3.9626
X3.7598Y-3.9075
X3.7598Y-3.9921
X3.8134Y-4.6559
X3.8189Y-3.9055
X3.8433Y-3.8504
X3.8455Y-4.0315
X3.8669Y-3.8744
X3.874Y-4.6756
X3.887Y-3.452
X3.887Y-3.4752
X3.9331Y-3.8827
X3.937Y-3.765
X3.9496Y-3.5228
X3.9587Y-3.9083
X3.9846Y-3.9339
X4.0031Y-3.9594
X4.0059Y-3.5476
X4.0244Y-3.8504
X4.0291Y-4.0323
X4.0508Y-3.5551
X4.0555Y-3.8567
X4.0579Y-4.1154
X4.0654Y-3.5217
X4.0701Y-3.885
X4.0787Y-3.452
X4.0909Y-3.5941
X4.0929Y-3.9079
X4.0961Y-4.4756
X4.0988Y-4.2594
X4.1079Y-3.6457
X4.1181Y-4.4882
X4.1209Y-3.5732
X4.1236Y-3.9378
X4.1331Y-4.1382
X4.1394Y-3.4701
X4.1465Y-3.9602
X4.1591Y-4.163
X4.1657Y-3.6728
X4.1693Y-3.9831
X4.1795Y-4.1878
X4.1917Y-4.0059
X4.1942Y-4.2907
X4.2008Y-3.4862
X4.2016Y-3.5969
X4.2067Y-4.2087
X4.2087Y-3.937
X4.2174Y-4.0326
X4.2303Y-3.3484
X4.2313Y-4.2309
X4.2402Y-4.0547
X4.2445Y-3.3039
X4.2445Y-4.4537
X4.2559Y-4.5134
X4.2638Y-3.8484
X4.2642Y-3.7016
X4.2921Y-3.2693
X4.2941Y-3.9531
X4.2965Y-3.5024
X4.2992Y-3.4606
X4.313Y-4.2827
X4.3268Y-3.5752
X4.3941Y-4.2917
X4.4008Y-4.4559
X4.4413Y-3.5748
X4.5291Y-4.4311
X4.5878Y-3.6764
T3
X3.2213Y-3.7118
X3.2213Y-3.7618
X3.2213Y-3.8122
X3.2213Y-3.8622
X3.2213Y-3.9122
X3.2213Y-3.9618
X3.2213Y-4.0118
X3.2213Y-4.0618
X3.2213Y-4.1118
X3.2862Y-4.2004
X3.4059Y-4.2008
X3.4715Y-4.062
X3.4717Y-3.7122
X3.4717Y-3.7618
X3.4717Y-3.8122
X3.4717Y-3.9122
X3.4717Y-3.9622
X3.4717Y-4.0118
X3.4724Y-4.1122
X3.987Y-3.2016
X4.0744Y-3.2567
X4.4024Y-3.7118
X4.4024Y-3.7622
X4.4024Y-3.8122
X4.4024Y-3.8618
X4.4024Y-3.9118
X4.4024Y-3.9618
X4.4024Y-4.0118
X4.4024Y-4.0618
X4.4024Y-4.1122
X4.4024Y-4.1622
X4.4803Y-3.4606
X4.5815Y-4.2004
X4.6528Y-3.7618
X4.6528Y-3.8118
X4.6528Y-3.8622
X4.6528Y-3.9118
X4.6528Y-3.9618
X4.6528Y-4.0118
X4.6528Y-4.0618
X4.6528Y-4.1118
T0
M30
