<?xml version="1.0" encoding="UTF-8" standalone="no"?>
<svg
   xmlns:dc="http://purl.org/dc/elements/1.1/"
   xmlns:cc="http://creativecommons.org/ns#"
   xmlns:rdf="http://www.w3.org/1999/02/22-rdf-syntax-ns#"
   xmlns:svg="http://www.w3.org/2000/svg"
   xmlns="http://www.w3.org/2000/svg"
   xmlns:sodipodi="http://sodipodi.sourceforge.net/DTD/sodipodi-0.dtd"
   xmlns:inkscape="http://www.inkscape.org/namespaces/inkscape"
   version="1.1"
   width="297mm"
   height="210mm"
   viewBox="0 0 116929.07 82677.162"
   id="svg4224"
   inkscape:version="0.91 r"
   sodipodi:docname="dart.pdf.2016_08_19_01_27_24.0.svg">
  <metadata
     id="metadata4272">
    <rdf:RDF>
      <cc:Work
         rdf:about="">
        <dc:format>image/svg+xml</dc:format>
        <dc:type
           rdf:resource="http://purl.org/dc/dcmitype/StillImage" />
        <dc:title>SVG Picture created as test_patch-F.Cu.svg date 2016/08/19 01:21:28 </dc:title>
      </cc:Work>
    </rdf:RDF>
  </metadata>
  <defs
     id="defs4270" />
  <sodipodi:namedview
     pagecolor="#ffffff"
     bordercolor="#666666"
     borderopacity="1"
     objecttolerance="10"
     gridtolerance="10"
     guidetolerance="10"
     inkscape:pageopacity="0"
     inkscape:pageshadow="2"
     inkscape:window-width="1918"
     inkscape:window-height="1179"
     id="namedview4268"
     showgrid="false"
     units="mm"
     inkscape:zoom="0.6845867"
     inkscape:cx="794.7548"
     inkscape:cy="290.00077"
     inkscape:window-x="0"
     inkscape:window-y="19"
     inkscape:window-maximized="1"
     inkscape:current-layer="svg4224" />
  <title
     id="title4226">SVG Picture created as test_patch-F.Cu.svg date 2016/08/19 01:21:28 </title>
  <desc
     id="desc4228">Picture generated by PCBNEW </desc>
  <g
     style="fill:#000000;fill-opacity:1;stroke:#000000;stroke-linecap:round;stroke-linejoin:round;stroke-opacity:1"
     id="g4230"
     transform="translate(0,-248422.83)" />
  <g
     style="fill:#000000;fill-opacity:0;stroke:#000000;stroke-width:-0.0003937;stroke-linecap:round;stroke-linejoin:round;stroke-opacity:1"
     id="g4232"
     transform="translate(0,-248422.83)" />
  <g
     style="fill:#000000;fill-opacity:1;stroke:#000000;stroke-width:39.37009811;stroke-linecap:round;stroke-linejoin:round;stroke-opacity:1"
     id="g4238"
     transform="translate(0,-248422.83)" />
  <g
     style="fill:#000000;fill-opacity:1;stroke:#000000;stroke-width:39.37009811;stroke-linecap:round;stroke-linejoin:round;stroke-opacity:1"
     id="g4244"
     transform="translate(0,-248422.83)" />
  <g
     style="fill:#000000;fill-opacity:1;stroke:#000000;stroke-width:39.37009811;stroke-linecap:round;stroke-linejoin:round;stroke-opacity:1"
     id="g4250"
     transform="translate(0,-248422.83)" />
  <g
     style="fill:#000000;fill-opacity:1;stroke:#000000;stroke-width:39.37009811;stroke-linecap:round;stroke-linejoin:round;stroke-opacity:1"
     id="g4256"
     transform="translate(0,-248422.83)" />
  <g
     id="g4288"
     transform="translate(-108222.19,0)">
    <g
       transform="translate(34733.039,77533.056)"
       id="g4283">
      <g
         style="fill:#000000;fill-opacity:1;stroke:#000000;stroke-width:0;stroke-linecap:round;stroke-linejoin:round;stroke-opacity:1"
         id="g4252"
         transform="translate(0,-248422.83)">
        <circle
           cx="77137.5"
           cy="192829"
           r="492.12601"
           id="circle4254" />
      </g>
      <polyline
         id="polyline4266"
         points="47507,192725 47507,192726 47508,192728 47509,192730 47510,192731 47512,192733 47513,192734 47515,192734 47517,192734 76940,192734 76942,192734 76944,192734 76946,192733 76947,192731 76948,192730 76949,192728 76950,192726 76950,192725 76950,192641 77033,192641 77035,192641 77037,192640 77039,192640 77040,192639 77041,192640 77042,192640 77044,192641 77046,192641 77228,192641 77230,192641 77232,192640 77233,192640 77234,192639 77235,192640 77237,192640 77239,192641 77241,192641 77324,192641 77324,192725 77324,192726 77325,192728 77326,192730 77327,192731 77328,192733 77330,192734 77332,192734 77334,192734 106757,192734 106759,192734 106761,192734 106762,192733 106764,192731 106765,192730 106766,192728 106767,192726 106767,192725 106767,192627 111468,192627 111970,193129 111970,200492 111970,200494 111970,200495 111971,200497 111972,200499 111974,200500 111976,200501 111977,200501 111979,200501 124646,200501 124646,200625 124646,200627 124646,200629 124647,200631 124648,200632 124650,200634 124652,200635 124654,200635 124655,200635 128903,200635 129152,200883 129152,209490 129152,209492 129152,209493 129153,209495 129154,209497 129156,209498 129158,209499 129159,209499 129161,209500 139608,209500 140390,210281 140390,232110 118561,232110 117779,231328 117779,209500 129008,209500 129010,209499 129012,209499 129013,209498 129015,209497 129016,209495 129017,209493 129017,209492 129018,209490 129018,200779 129017,200777 129017,200775 129016,200774 129015,200772 129013,200771 129012,200770 129010,200769 129008,200769 124655,200769 124654,200769 124652,200770 124650,200771 124648,200772 124647,200774 124646,200775 124646,200777 124646,200779 124646,200903 112070,200903 111862,200695 111861,200694 111859,200693 111857,200693 111855,200692 111682,200692 111680,200693 111679,200693 111677,200694 111675,200695 111468,200903 98892,200903 98892,200779 98892,200777 98891,200775 98890,200774 98889,200772 98887,200771 98886,200770 98884,200769 98882,200769 94530,200769 94528,200769 94526,200770 94524,200771 94523,200772 94521,200774 94521,200775 94520,200777 94520,200779 94520,209490 94520,209492 94521,209493 94521,209495 94523,209497 94524,209498 94526,209499 94528,209499 94530,209500 104976,209500 105758,210281 105758,232110 83929,232110 83148,231328 83148,209500 94376,209500 94378,209499 94380,209499 94382,209498 94383,209497 94384,209495 94385,209493 94386,209492 94386,209490 94386,200883 94634,200635 98882,200635 98884,200635 98886,200635 98887,200634 98889,200632 98890,200631 98891,200629 98892,200627 98892,200625 98892,200501 111558,200501 111560,200501 111562,200501 111564,200500 111565,200499 111566,200497 111567,200495 111568,200494 111568,200492 111568,193039 111568,193037 111567,193035 111566,193033 111565,193032 111564,193031 111562,193030 111560,193029 111558,193029 106767,193029 106767,192932 106767,192930 106766,192928 106765,192927 106764,192925 106762,192924 106761,192923 106759,192922 106757,192922 77351,192922 77341,192912 77339,192911 77338,192910 77336,192910 77334,192909 77332,192910 77330,192910 77328,192911 77327,192912 77326,192914 77325,192915 77324,192917 77324,192919 77324,193015 76950,193015 76950,192919 76950,192917 76949,192915 76948,192914 76947,192912 76946,192911 76944,192910 76942,192910 76940,192909 76938,192910 76936,192910 76935,192911 76933,192912 76923,192922 47517,192922 47515,192922 47513,192923 47512,192924 47510,192925 47509,192927 47508,192928 47507,192930 47507,192932 47507,193029 42716,193029 42714,193029 42712,193030 42710,193031 42709,193032 42708,193033 42707,193035 42706,193037 42706,193039 42706,200492 42706,200494 42707,200495 42708,200497 42709,200499 42710,200500 42712,200501 42714,200501 42716,200501 55382,200501 55382,200625 55382,200627 55383,200629 55384,200631 55385,200632 55387,200634 55388,200635 55390,200635 55392,200635 59640,200635 59888,200883 59888,209490 59888,209492 59889,209493 59890,209495 59891,209497 59892,209498 59894,209499 59896,209499 59898,209500 70345,209500 71126,210281 71126,232110 49298,232110 48516,231328 48516,209500 59744,209500 59746,209499 59748,209499 59750,209498 59751,209497 59753,209495 59753,209493 59754,209492 59754,209490 59754,200779 59754,200777 59753,200775 59753,200774 59751,200772 59750,200771 59748,200770 59746,200769 59744,200769 55392,200769 55390,200769 55388,200770 55387,200771 55385,200772 55384,200774 55383,200775 55382,200777 55382,200779 55382,200903 42806,200903 42599,200695 42597,200694 42595,200693 42594,200693 42592,200692 42419,200692 42417,200693 42415,200693 42413,200694 42412,200695 42204,200903 29628,200903 29628,200779 29628,200777 29628,200775 29627,200774 29625,200772 29624,200771 29622,200770 29620,200769 29619,200769 25266,200769 25264,200769 25262,200770 25261,200771 25259,200772 25258,200774 25257,200775 25257,200777 25256,200779 25256,209490 25257,209492 25257,209493 25258,209495 25259,209497 25261,209498 25262,209499 25264,209499 25266,209500 35713,209500 36495,210281 36495,232110 14666,232110 13884,231328 13884,209500 25113,209500 25115,209499 25116,209499 25118,209498 25120,209497 25121,209495 25122,209493 25122,209492 25122,209490 25122,200883 25370,200635 29619,200635 29620,200635 29622,200635 29624,200634 29625,200632 29627,200631 29628,200629 29628,200627 29628,200625 29628,200501 42295,200501 42297,200501 42298,200501 42300,200500 42302,200499 42303,200497 42304,200495 42304,200494 42304,200492 42304,193129 42806,192627 47507,192627 47507,192725 "
         style="fill:#000000;fill-opacity:1;fill-rule:evenodd;stroke:#000000;stroke-width:19.68499947;stroke-linecap:round;stroke-linejoin:round;stroke-opacity:1"
         transform="translate(0,-248422.83)" />
    </g>
    <g
       id="g4248">
      <path
         style="opacity:1;fill:#000000;fill-opacity:1;stroke:#000000;stroke-width:78.74015808;stroke-linecap:butt;stroke-linejoin:round;stroke-miterlimit:4;stroke-dasharray:none;stroke-dashoffset:0;stroke-opacity:1"
         d="m 109430.31,1251.104 0,7804.1036"
         id="path4355"
         inkscape:connector-curvature="0" />
      <path
         inkscape:connector-curvature="0"
         id="path4357"
         d="m 109874.76,1251.104 0,7804.1036"
         style="opacity:1;fill:#000000;fill-opacity:1;stroke:#000000;stroke-width:78.74015808;stroke-linecap:butt;stroke-linejoin:round;stroke-miterlimit:4;stroke-dasharray:none;stroke-dashoffset:0;stroke-opacity:1" />
      <path
         style="opacity:1;fill:#000000;fill-opacity:1;stroke:#000000;stroke-width:78.74015808;stroke-linecap:butt;stroke-linejoin:round;stroke-miterlimit:4;stroke-dasharray:none;stroke-dashoffset:0;stroke-opacity:1"
         d="m 110319.2,1251.104 0,7804.1036"
         id="path4359"
         inkscape:connector-curvature="0" />
      <path
         inkscape:connector-curvature="0"
         id="path4361"
         d="m 110763.64,1251.104 0,7804.1036"
         style="opacity:1;fill:#000000;fill-opacity:1;stroke:#000000;stroke-width:78.74015808;stroke-linecap:butt;stroke-linejoin:round;stroke-miterlimit:4;stroke-dasharray:none;stroke-dashoffset:0;stroke-opacity:1" />
      <path
         style="opacity:1;fill:#000000;fill-opacity:1;stroke:#000000;stroke-width:78.74015808;stroke-linecap:butt;stroke-linejoin:round;stroke-miterlimit:4;stroke-dasharray:none;stroke-dashoffset:0;stroke-opacity:1"
         d="m 111208.09,1251.104 0,7804.1036"
         id="path4363"
         inkscape:connector-curvature="0" />
      <path
         inkscape:connector-curvature="0"
         id="path4365"
         d="m 111652.53,1251.104 0,7804.1036"
         style="opacity:1;fill:#000000;fill-opacity:1;stroke:#000000;stroke-width:78.74015808;stroke-linecap:butt;stroke-linejoin:round;stroke-miterlimit:4;stroke-dasharray:none;stroke-dashoffset:0;stroke-opacity:1" />
      <path
         style="opacity:1;fill:#000000;fill-opacity:1;stroke:#000000;stroke-width:78.74015808;stroke-linecap:butt;stroke-linejoin:round;stroke-miterlimit:4;stroke-dasharray:none;stroke-dashoffset:0;stroke-opacity:1"
         d="m 112096.98,1251.104 0,7804.1036"
         id="path4367"
         inkscape:connector-curvature="0" />
      <path
         inkscape:connector-curvature="0"
         id="path4369"
         d="m 112541.42,1251.104 0,7804.1036"
         style="opacity:1;fill:#000000;fill-opacity:1;stroke:#000000;stroke-width:78.74015808;stroke-linecap:butt;stroke-linejoin:round;stroke-miterlimit:4;stroke-dasharray:none;stroke-dashoffset:0;stroke-opacity:1" />
      <path
         style="opacity:1;fill:#000000;fill-opacity:1;stroke:#000000;stroke-width:78.74015808;stroke-linecap:butt;stroke-linejoin:round;stroke-miterlimit:4;stroke-dasharray:none;stroke-dashoffset:0;stroke-opacity:1"
         d="m 112985.86,1251.104 0,7804.1036"
         id="path4371"
         inkscape:connector-curvature="0" />
      <path
         inkscape:connector-curvature="0"
         id="path4373"
         d="m 113430.31,1251.104 0,7804.1036"
         style="opacity:1;fill:#000000;fill-opacity:1;stroke:#000000;stroke-width:78.74015808;stroke-linecap:butt;stroke-linejoin:round;stroke-miterlimit:4;stroke-dasharray:none;stroke-dashoffset:0;stroke-opacity:1" />
      <path
         style="opacity:1;fill:#000000;fill-opacity:1;stroke:#000000;stroke-width:78.74015808;stroke-linecap:butt;stroke-linejoin:round;stroke-miterlimit:4;stroke-dasharray:none;stroke-dashoffset:0;stroke-opacity:1"
         d="m 113874.75,1251.104 0,7804.1036"
         id="path4375"
         inkscape:connector-curvature="0" />
      <path
         inkscape:connector-curvature="0"
         id="path4377"
         d="m 114319.2,1251.104 0,7804.1036"
         style="opacity:1;fill:#000000;fill-opacity:1;stroke:#000000;stroke-width:78.74015808;stroke-linecap:butt;stroke-linejoin:round;stroke-miterlimit:4;stroke-dasharray:none;stroke-dashoffset:0;stroke-opacity:1" />
    </g>
    <g
       transform="translate(0,71999.994)"
       id="g4262">
      <path
         inkscape:connector-curvature="0"
         id="path4264"
         d="m 109430.31,1251.104 0,7804.1036"
         style="opacity:1;fill:#000000;fill-opacity:1;stroke:#000000;stroke-width:78.74015808;stroke-linecap:butt;stroke-linejoin:round;stroke-miterlimit:4;stroke-dasharray:none;stroke-dashoffset:0;stroke-opacity:1" />
      <path
         style="opacity:1;fill:#000000;fill-opacity:1;stroke:#000000;stroke-width:78.74015808;stroke-linecap:butt;stroke-linejoin:round;stroke-miterlimit:4;stroke-dasharray:none;stroke-dashoffset:0;stroke-opacity:1"
         d="m 109874.76,1251.104 0,7804.1036"
         id="path4266"
         inkscape:connector-curvature="0" />
      <path
         inkscape:connector-curvature="0"
         id="path4268"
         d="m 110319.2,1251.104 0,7804.1036"
         style="opacity:1;fill:#000000;fill-opacity:1;stroke:#000000;stroke-width:78.74015808;stroke-linecap:butt;stroke-linejoin:round;stroke-miterlimit:4;stroke-dasharray:none;stroke-dashoffset:0;stroke-opacity:1" />
      <path
         style="opacity:1;fill:#000000;fill-opacity:1;stroke:#000000;stroke-width:78.74015808;stroke-linecap:butt;stroke-linejoin:round;stroke-miterlimit:4;stroke-dasharray:none;stroke-dashoffset:0;stroke-opacity:1"
         d="m 110763.64,1251.104 0,7804.1036"
         id="path4270"
         inkscape:connector-curvature="0" />
      <path
         inkscape:connector-curvature="0"
         id="path4272"
         d="m 111208.09,1251.104 0,7804.1036"
         style="opacity:1;fill:#000000;fill-opacity:1;stroke:#000000;stroke-width:78.74015808;stroke-linecap:butt;stroke-linejoin:round;stroke-miterlimit:4;stroke-dasharray:none;stroke-dashoffset:0;stroke-opacity:1" />
      <path
         style="opacity:1;fill:#000000;fill-opacity:1;stroke:#000000;stroke-width:78.74015808;stroke-linecap:butt;stroke-linejoin:round;stroke-miterlimit:4;stroke-dasharray:none;stroke-dashoffset:0;stroke-opacity:1"
         d="m 111652.53,1251.104 0,7804.1036"
         id="path4274"
         inkscape:connector-curvature="0" />
      <path
         inkscape:connector-curvature="0"
         id="path4276"
         d="m 112096.98,1251.104 0,7804.1036"
         style="opacity:1;fill:#000000;fill-opacity:1;stroke:#000000;stroke-width:78.74015808;stroke-linecap:butt;stroke-linejoin:round;stroke-miterlimit:4;stroke-dasharray:none;stroke-dashoffset:0;stroke-opacity:1" />
      <path
         style="opacity:1;fill:#000000;fill-opacity:1;stroke:#000000;stroke-width:78.74015808;stroke-linecap:butt;stroke-linejoin:round;stroke-miterlimit:4;stroke-dasharray:none;stroke-dashoffset:0;stroke-opacity:1"
         d="m 112541.42,1251.104 0,7804.1036"
         id="path4278"
         inkscape:connector-curvature="0" />
      <path
         inkscape:connector-curvature="0"
         id="path4280"
         d="m 112985.86,1251.104 0,7804.1036"
         style="opacity:1;fill:#000000;fill-opacity:1;stroke:#000000;stroke-width:78.74015808;stroke-linecap:butt;stroke-linejoin:round;stroke-miterlimit:4;stroke-dasharray:none;stroke-dashoffset:0;stroke-opacity:1" />
      <path
         style="opacity:1;fill:#000000;fill-opacity:1;stroke:#000000;stroke-width:78.74015808;stroke-linecap:butt;stroke-linejoin:round;stroke-miterlimit:4;stroke-dasharray:none;stroke-dashoffset:0;stroke-opacity:1"
         d="m 113430.31,1251.104 0,7804.1036"
         id="path4282"
         inkscape:connector-curvature="0" />
      <path
         inkscape:connector-curvature="0"
         id="path4284"
         d="m 113874.75,1251.104 0,7804.1036"
         style="opacity:1;fill:#000000;fill-opacity:1;stroke:#000000;stroke-width:78.74015808;stroke-linecap:butt;stroke-linejoin:round;stroke-miterlimit:4;stroke-dasharray:none;stroke-dashoffset:0;stroke-opacity:1" />
      <path
         style="opacity:1;fill:#000000;fill-opacity:1;stroke:#000000;stroke-width:78.74015808;stroke-linecap:butt;stroke-linejoin:round;stroke-miterlimit:4;stroke-dasharray:none;stroke-dashoffset:0;stroke-opacity:1"
         d="m 114319.2,1251.104 0,7804.1036"
         id="path4286"
         inkscape:connector-curvature="0" />
    </g>
  </g>
</svg>
