<?xml version="1.0" encoding="UTF-8" standalone="no"?>
<svg
   xmlns:dc="http://purl.org/dc/elements/1.1/"
   xmlns:cc="http://creativecommons.org/ns#"
   xmlns:rdf="http://www.w3.org/1999/02/22-rdf-syntax-ns#"
   xmlns:svg="http://www.w3.org/2000/svg"
   xmlns="http://www.w3.org/2000/svg"
   xmlns:sodipodi="http://sodipodi.sourceforge.net/DTD/sodipodi-0.dtd"
   xmlns:inkscape="http://www.inkscape.org/namespaces/inkscape"
   version="1.1"
   width="13cm"
   height="18cm"
   viewBox="0 0 51181.076 70866.139"
   id="svg2"
   inkscape:version="0.91 r"
   sodipodi:docname="dart-gps.svg">
  <metadata
     id="metadata50">
    <rdf:RDF>
      <cc:Work
         rdf:about="">
        <dc:format>image/svg+xml</dc:format>
        <dc:type
           rdf:resource="http://purl.org/dc/dcmitype/StillImage" />
        <dc:title>SVG Picture created as test_patch-F.Cu.svg date 2016/08/19 01:21:28 </dc:title>
      </cc:Work>
    </rdf:RDF>
  </metadata>
  <defs
     id="defs48" />
  <sodipodi:namedview
     pagecolor="#ffffff"
     bordercolor="#666666"
     borderopacity="1"
     objecttolerance="10"
     gridtolerance="10"
     guidetolerance="10"
     inkscape:pageopacity="0"
     inkscape:pageshadow="2"
     inkscape:window-width="958"
     inkscape:window-height="1179"
     id="namedview46"
     showgrid="false"
     units="mm"
     inkscape:zoom="22.627417"
     inkscape:cx="394.77532"
     inkscape:cy="320.03354"
     inkscape:window-x="0"
     inkscape:window-y="19"
     inkscape:window-maximized="0"
     inkscape:current-layer="svg2" />
  <title
     id="title4">SVG Picture created as test_patch-F.Cu.svg date 2016/08/19 01:21:28 </title>
  <desc
     id="desc6">Picture generated by PCBNEW </desc>
  <g
     style="fill:#000000;fill-opacity:1;stroke:#000000;stroke-linecap:round;stroke-linejoin:round;stroke-opacity:1"
     id="g8"
     transform="translate(0,-260233.86)" />
  <g
     style="fill:#000000;fill-opacity:0;stroke:#000000;stroke-width:-0.0003937;stroke-linecap:round;stroke-linejoin:round;stroke-opacity:1"
     id="g10"
     transform="translate(0,-260233.86)" />
  <g
     style="fill:#000000;fill-opacity:1;stroke:#000000;stroke-width:39.37009811;stroke-linecap:round;stroke-linejoin:round;stroke-opacity:1"
     id="g16"
     transform="translate(0,-260233.86)" />
  <g
     style="fill:#000000;fill-opacity:1;stroke:#000000;stroke-width:39.37009811;stroke-linecap:round;stroke-linejoin:round;stroke-opacity:1"
     id="g22"
     transform="translate(0,-260233.86)" />
  <g
     style="fill:#000000;fill-opacity:1;stroke:#000000;stroke-width:39.37009811;stroke-linecap:round;stroke-linejoin:round;stroke-opacity:1"
     id="g28"
     transform="translate(0,-260233.86)" />
  <g
     style="fill:#000000;fill-opacity:1;stroke:#000000;stroke-width:39.37009811;stroke-linecap:round;stroke-linejoin:round;stroke-opacity:1"
     id="g34"
     transform="translate(0,-260233.86)" />
  <circle
     style="fill:#000000;fill-opacity:1;stroke:#000000;stroke-width:0;stroke-linecap:round;stroke-linejoin:round;stroke-opacity:1"
     id="circle20"
     r="492.12601"
     cy="-43798.898"
     cx="35433.672"
     transform="matrix(0,1,-1,0,0,0)" />
  <polyline
     id="polyline40"
     points="34953,73796 34954,73797 34956,73798 34958,73799 34960,73799 35208,73799 35210,73799 35212,73798 35214,73797 35215,73796 35285,73726 35285,73789 35285,73791 35286,73793 35287,73794 35288,73796 35289,73797 35291,73798 35293,73799 35295,73799 47963,73799 47963,73923 47963,73925 47964,73926 47965,73928 47966,73930 47967,73931 47969,73932 47971,73932 47973,73933 48508,73933 48756,74181 48756,86500 48757,86501 48757,86503 48758,86505 48759,86506 48761,86508 48763,86509 48764,86509 48766,86509 60103,86509 60884,87291 60884,110899 37276,110899 36495,110117 36495,86509 48613,86509 48615,86509 48616,86509 48618,86508 48620,86506 48621,86505 48622,86503 48622,86501 48623,86500 48623,74076 48622,74074 48622,74073 48621,74071 48620,74069 48618,74068 48616,74067 48615,74067 48613,74066 47973,74066 47971,74067 47969,74067 47967,74068 47966,74069 47965,74071 47964,74073 47963,74074 47963,74076 47963,74200 35385,74200 35288,74103 35286,74102 35285,74101 35283,74100 35281,74100 35279,74100 35277,74101 35276,74102 35274,74103 35273,74104 35272,74106 35271,74108 35271,74110 35271,74187 34897,74187 34897,74110 34897,74108 34896,74106 34895,74104 34894,74103 34893,74102 34891,74101 34889,74100 34887,74100 34885,74100 34884,74101 34882,74102 34880,74103 34783,74200 22205,74200 22205,74076 22205,74074 22204,74073 22204,74071 22202,74069 22201,74068 22199,74067 22197,74067 22195,74066 21556,74066 21554,74067 21552,74067 21550,74068 21549,74069 21547,74071 21547,74073 21546,74074 21546,74076 21546,86500 21546,86501 21547,86503 21547,86505 21549,86506 21550,86508 21552,86509 21554,86509 21556,86509 32892,86509 33674,87291 33674,110899 10066,110899 9284,110117 9284,86509 21402,86509 21404,86509 21406,86509 21408,86508 21409,86506 21410,86505 21411,86503 21412,86501 21412,86500 21412,74181 21660,73933 22195,73933 22197,73932 22199,73932 22201,73931 22202,73930 22204,73928 22204,73926 22205,73925 22205,73923 22205,73799 34874,73799 34875,73799 34877,73798 34879,73797 34880,73796 34882,73794 34883,73793 34883,73791 34883,73789 34883,73726 34953,73796 "
     style="fill:#000000;fill-opacity:1;fill-rule:evenodd;stroke:#000000;stroke-width:19.68499947;stroke-linecap:round;stroke-linejoin:round;stroke-opacity:1"
     transform="matrix(0,1,-1,0,117798.9,349.06872)" />
  <circle
     style="opacity:1;fill:#ffffff;fill-opacity:1;stroke:none;stroke-width:1;stroke-linecap:butt;stroke-linejoin:round;stroke-miterlimit:4;stroke-dasharray:none;stroke-dashoffset:0;stroke-opacity:1"
     id="path4221"
     cx="43798.898"
     cy="35433.672"
     r="230.79178" />
</svg>
