G04 #@! TF.FileFunction,Legend,Top*
%FSLAX46Y46*%
G04 Gerber Fmt 4.6, Leading zero omitted, Abs format (unit mm)*
G04 Created by KiCad (PCBNEW 0.201604290946+6713~44~ubuntu14.04.1-product) date Mon 11 Jul 2016 15:01:41 CEST*
%MOMM*%
%LPD*%
G01*
G04 APERTURE LIST*
%ADD10C,0.100000*%
%ADD11C,0.280000*%
%ADD12C,0.250000*%
%ADD13C,0.150000*%
%ADD14C,6.300000*%
%ADD15C,0.600000*%
%ADD16C,0.787000*%
%ADD17C,1.000000*%
%ADD18R,2.000000X0.600000*%
%ADD19C,1.200000*%
%ADD20C,1.600000*%
%ADD21R,0.500000X1.200000*%
%ADD22R,1.200000X0.500000*%
%ADD23R,0.950000X1.000000*%
%ADD24R,0.620000X0.620000*%
G04 APERTURE END LIST*
D10*
D11*
X120012857Y-127878571D02*
X119212857Y-127878571D01*
X119327142Y-127878571D02*
X119270000Y-127821428D01*
X119212857Y-127707142D01*
X119212857Y-127535714D01*
X119270000Y-127421428D01*
X119384285Y-127364285D01*
X120012857Y-127364285D01*
X119384285Y-127364285D02*
X119270000Y-127307142D01*
X119212857Y-127192857D01*
X119212857Y-127021428D01*
X119270000Y-126907142D01*
X119384285Y-126850000D01*
X120012857Y-126850000D01*
X118812857Y-126392857D02*
X118812857Y-125650000D01*
X119270000Y-126050000D01*
X119270000Y-125878571D01*
X119327142Y-125764285D01*
X119384285Y-125707142D01*
X119498571Y-125650000D01*
X119784285Y-125650000D01*
X119898571Y-125707142D01*
X119955714Y-125764285D01*
X120012857Y-125878571D01*
X120012857Y-126221428D01*
X119955714Y-126335714D01*
X119898571Y-126392857D01*
X120012857Y-124621428D02*
X118812857Y-124621428D01*
X119955714Y-124621428D02*
X120012857Y-124735714D01*
X120012857Y-124964285D01*
X119955714Y-125078571D01*
X119898571Y-125135714D01*
X119784285Y-125192857D01*
X119441428Y-125192857D01*
X119327142Y-125135714D01*
X119270000Y-125078571D01*
X119212857Y-124964285D01*
X119212857Y-124735714D01*
X119270000Y-124621428D01*
X120012857Y-123878571D02*
X119955714Y-123992857D01*
X119841428Y-124050000D01*
X118812857Y-124050000D01*
X119955714Y-122050000D02*
X120012857Y-122164285D01*
X120012857Y-122392857D01*
X119955714Y-122507142D01*
X119841428Y-122564285D01*
X119384285Y-122564285D01*
X119270000Y-122507142D01*
X119212857Y-122392857D01*
X119212857Y-122164285D01*
X119270000Y-122050000D01*
X119384285Y-121992857D01*
X119498571Y-121992857D01*
X119612857Y-122564285D01*
X120012857Y-121592857D02*
X119212857Y-120964285D01*
X119212857Y-121592857D02*
X120012857Y-120964285D01*
X119212857Y-120678571D02*
X119212857Y-120221428D01*
X118812857Y-120507142D02*
X119841428Y-120507142D01*
X119955714Y-120450000D01*
X120012857Y-120335714D01*
X120012857Y-120221428D01*
X119898571Y-119821428D02*
X119955714Y-119764285D01*
X120012857Y-119821428D01*
X119955714Y-119878571D01*
X119898571Y-119821428D01*
X120012857Y-119821428D01*
X121292857Y-127392857D02*
X122492857Y-127392857D01*
X121350000Y-127392857D02*
X121292857Y-127278571D01*
X121292857Y-127050000D01*
X121350000Y-126935714D01*
X121407142Y-126878571D01*
X121521428Y-126821428D01*
X121864285Y-126821428D01*
X121978571Y-126878571D01*
X122035714Y-126935714D01*
X122092857Y-127050000D01*
X122092857Y-127278571D01*
X122035714Y-127392857D01*
X122092857Y-126307142D02*
X121292857Y-126307142D01*
X121521428Y-126307142D02*
X121407142Y-126250000D01*
X121350000Y-126192857D01*
X121292857Y-126078571D01*
X121292857Y-125964285D01*
X122035714Y-125107142D02*
X122092857Y-125221428D01*
X122092857Y-125450000D01*
X122035714Y-125564285D01*
X121921428Y-125621428D01*
X121464285Y-125621428D01*
X121350000Y-125564285D01*
X121292857Y-125450000D01*
X121292857Y-125221428D01*
X121350000Y-125107142D01*
X121464285Y-125050000D01*
X121578571Y-125050000D01*
X121692857Y-125621428D01*
X122035714Y-124592857D02*
X122092857Y-124478571D01*
X122092857Y-124250000D01*
X122035714Y-124135714D01*
X121921428Y-124078571D01*
X121864285Y-124078571D01*
X121750000Y-124135714D01*
X121692857Y-124250000D01*
X121692857Y-124421428D01*
X121635714Y-124535714D01*
X121521428Y-124592857D01*
X121464285Y-124592857D01*
X121350000Y-124535714D01*
X121292857Y-124421428D01*
X121292857Y-124250000D01*
X121350000Y-124135714D01*
X122035714Y-123621428D02*
X122092857Y-123507142D01*
X122092857Y-123278571D01*
X122035714Y-123164285D01*
X121921428Y-123107142D01*
X121864285Y-123107142D01*
X121750000Y-123164285D01*
X121692857Y-123278571D01*
X121692857Y-123450000D01*
X121635714Y-123564285D01*
X121521428Y-123621428D01*
X121464285Y-123621428D01*
X121350000Y-123564285D01*
X121292857Y-123450000D01*
X121292857Y-123278571D01*
X121350000Y-123164285D01*
X121292857Y-122078571D02*
X122092857Y-122078571D01*
X121292857Y-122592857D02*
X121921428Y-122592857D01*
X122035714Y-122535714D01*
X122092857Y-122421428D01*
X122092857Y-122250000D01*
X122035714Y-122135714D01*
X121978571Y-122078571D01*
X122092857Y-121507142D02*
X121292857Y-121507142D01*
X121521428Y-121507142D02*
X121407142Y-121450000D01*
X121350000Y-121392857D01*
X121292857Y-121278571D01*
X121292857Y-121164285D01*
X122035714Y-120307142D02*
X122092857Y-120421428D01*
X122092857Y-120650000D01*
X122035714Y-120764285D01*
X121921428Y-120821428D01*
X121464285Y-120821428D01*
X121350000Y-120764285D01*
X121292857Y-120650000D01*
X121292857Y-120421428D01*
X121350000Y-120307142D01*
X121464285Y-120250000D01*
X121578571Y-120250000D01*
X121692857Y-120821428D01*
X124172857Y-128450000D02*
X124172857Y-129135714D01*
X124172857Y-128792857D02*
X122972857Y-128792857D01*
X123144285Y-128907142D01*
X123258571Y-129021428D01*
X123315714Y-129135714D01*
X124172857Y-127307142D02*
X124172857Y-127992857D01*
X124172857Y-127650000D02*
X122972857Y-127650000D01*
X123144285Y-127764285D01*
X123258571Y-127878571D01*
X123315714Y-127992857D01*
X122915714Y-125935714D02*
X124458571Y-126964285D01*
X122972857Y-125650000D02*
X122972857Y-124850000D01*
X124172857Y-125364285D01*
X122915714Y-123535714D02*
X124458571Y-124564285D01*
X124172857Y-122507142D02*
X124172857Y-123192857D01*
X124172857Y-122850000D02*
X122972857Y-122850000D01*
X123144285Y-122964285D01*
X123258571Y-123078571D01*
X123315714Y-123192857D01*
X122972857Y-121478571D02*
X122972857Y-121707142D01*
X123030000Y-121821428D01*
X123087142Y-121878571D01*
X123258571Y-121992857D01*
X123487142Y-122050000D01*
X123944285Y-122050000D01*
X124058571Y-121992857D01*
X124115714Y-121935714D01*
X124172857Y-121821428D01*
X124172857Y-121592857D01*
X124115714Y-121478571D01*
X124058571Y-121421428D01*
X123944285Y-121364285D01*
X123658571Y-121364285D01*
X123544285Y-121421428D01*
X123487142Y-121478571D01*
X123430000Y-121592857D01*
X123430000Y-121821428D01*
X123487142Y-121935714D01*
X123544285Y-121992857D01*
X123658571Y-122050000D01*
X124172857Y-119935714D02*
X123372857Y-119935714D01*
X123601428Y-119935714D02*
X123487142Y-119878571D01*
X123430000Y-119821428D01*
X123372857Y-119707142D01*
X123372857Y-119592857D01*
X124172857Y-118564285D02*
X124172857Y-119250000D01*
X124172857Y-118907142D02*
X122972857Y-118907142D01*
X123144285Y-119021428D01*
X123258571Y-119135714D01*
X123315714Y-119250000D01*
X106714285Y-125642857D02*
X106714285Y-124442857D01*
X107171428Y-124442857D01*
X107285714Y-124500000D01*
X107342857Y-124557142D01*
X107400000Y-124671428D01*
X107400000Y-124842857D01*
X107342857Y-124957142D01*
X107285714Y-125014285D01*
X107171428Y-125071428D01*
X106714285Y-125071428D01*
X108428571Y-124842857D02*
X108428571Y-125642857D01*
X108142857Y-124385714D02*
X107857142Y-125242857D01*
X108600000Y-125242857D01*
X82664285Y-125492857D02*
X82664285Y-124292857D01*
X83121428Y-124292857D01*
X83235714Y-124350000D01*
X83292857Y-124407142D01*
X83350000Y-124521428D01*
X83350000Y-124692857D01*
X83292857Y-124807142D01*
X83235714Y-124864285D01*
X83121428Y-124921428D01*
X82664285Y-124921428D01*
X83750000Y-124292857D02*
X84492857Y-124292857D01*
X84092857Y-124750000D01*
X84264285Y-124750000D01*
X84378571Y-124807142D01*
X84435714Y-124864285D01*
X84492857Y-124978571D01*
X84492857Y-125264285D01*
X84435714Y-125378571D01*
X84378571Y-125435714D01*
X84264285Y-125492857D01*
X83921428Y-125492857D01*
X83807142Y-125435714D01*
X83750000Y-125378571D01*
X106664285Y-112592857D02*
X106664285Y-111392857D01*
X107121428Y-111392857D01*
X107235714Y-111450000D01*
X107292857Y-111507142D01*
X107350000Y-111621428D01*
X107350000Y-111792857D01*
X107292857Y-111907142D01*
X107235714Y-111964285D01*
X107121428Y-112021428D01*
X106664285Y-112021428D01*
X107807142Y-111507142D02*
X107864285Y-111450000D01*
X107978571Y-111392857D01*
X108264285Y-111392857D01*
X108378571Y-111450000D01*
X108435714Y-111507142D01*
X108492857Y-111621428D01*
X108492857Y-111735714D01*
X108435714Y-111907142D01*
X107750000Y-112592857D01*
X108492857Y-112592857D01*
X82614285Y-112692857D02*
X82614285Y-111492857D01*
X83071428Y-111492857D01*
X83185714Y-111550000D01*
X83242857Y-111607142D01*
X83300000Y-111721428D01*
X83300000Y-111892857D01*
X83242857Y-112007142D01*
X83185714Y-112064285D01*
X83071428Y-112121428D01*
X82614285Y-112121428D01*
X84442857Y-112692857D02*
X83757142Y-112692857D01*
X84100000Y-112692857D02*
X84100000Y-111492857D01*
X83985714Y-111664285D01*
X83871428Y-111778571D01*
X83757142Y-111835714D01*
D12*
X97302380Y-123452380D02*
X96935714Y-122976190D01*
X96673809Y-123452380D02*
X96673809Y-122452380D01*
X97092857Y-122452380D01*
X97197619Y-122500000D01*
X97250000Y-122547619D01*
X97302380Y-122642857D01*
X97302380Y-122785714D01*
X97250000Y-122880952D01*
X97197619Y-122928571D01*
X97092857Y-122976190D01*
X96673809Y-122976190D01*
X98454761Y-122452380D02*
X99083333Y-122452380D01*
X98769047Y-123452380D02*
X98769047Y-122452380D01*
X100288095Y-123071428D02*
X101126190Y-123071428D01*
X102488095Y-123071428D02*
X103326190Y-123071428D01*
X102907142Y-123452380D02*
X102907142Y-122690476D01*
X94835714Y-133928571D02*
X95169047Y-133928571D01*
X95311904Y-134452380D02*
X94835714Y-134452380D01*
X94835714Y-133452380D01*
X95311904Y-133452380D01*
X96311904Y-134452380D02*
X95978571Y-133976190D01*
X95740476Y-134452380D02*
X95740476Y-133452380D01*
X96121428Y-133452380D01*
X96216666Y-133500000D01*
X96264285Y-133547619D01*
X96311904Y-133642857D01*
X96311904Y-133785714D01*
X96264285Y-133880952D01*
X96216666Y-133928571D01*
X96121428Y-133976190D01*
X95740476Y-133976190D01*
X97311904Y-134452380D02*
X96978571Y-133976190D01*
X96740476Y-134452380D02*
X96740476Y-133452380D01*
X97121428Y-133452380D01*
X97216666Y-133500000D01*
X97264285Y-133547619D01*
X97311904Y-133642857D01*
X97311904Y-133785714D01*
X97264285Y-133880952D01*
X97216666Y-133928571D01*
X97121428Y-133976190D01*
X96740476Y-133976190D01*
X103154761Y-133452380D02*
X103345238Y-133452380D01*
X103440476Y-133500000D01*
X103535714Y-133595238D01*
X103583333Y-133785714D01*
X103583333Y-134119047D01*
X103535714Y-134309523D01*
X103440476Y-134404761D01*
X103345238Y-134452380D01*
X103154761Y-134452380D01*
X103059523Y-134404761D01*
X102964285Y-134309523D01*
X102916666Y-134119047D01*
X102916666Y-133785714D01*
X102964285Y-133595238D01*
X103059523Y-133500000D01*
X103154761Y-133452380D01*
X104011904Y-134452380D02*
X104011904Y-133452380D01*
X104583333Y-134452380D02*
X104154761Y-133880952D01*
X104583333Y-133452380D02*
X104011904Y-134023809D01*
D13*
X85500000Y-113190000D02*
X91100000Y-113190000D01*
X91100000Y-113190000D02*
X91100000Y-120810000D01*
X91100000Y-120810000D02*
X84900000Y-120810000D01*
X84900000Y-120810000D02*
X84900000Y-113790000D01*
X84900000Y-113790000D02*
X85500000Y-113190000D01*
X109500000Y-126190000D02*
X115100000Y-126190000D01*
X115100000Y-126190000D02*
X115100000Y-133810000D01*
X115100000Y-133810000D02*
X108900000Y-133810000D01*
X108900000Y-133810000D02*
X108900000Y-126790000D01*
X108900000Y-126790000D02*
X109500000Y-126190000D01*
X85500000Y-126190000D02*
X91100000Y-126190000D01*
X91100000Y-126190000D02*
X91100000Y-133810000D01*
X91100000Y-133810000D02*
X84900000Y-133810000D01*
X84900000Y-133810000D02*
X84900000Y-126790000D01*
X84900000Y-126790000D02*
X85500000Y-126190000D01*
X109500000Y-113190000D02*
X115100000Y-113190000D01*
X115100000Y-113190000D02*
X115100000Y-120810000D01*
X115100000Y-120810000D02*
X108900000Y-120810000D01*
X108900000Y-120810000D02*
X108900000Y-113790000D01*
X108900000Y-113790000D02*
X109500000Y-113190000D01*
X95000000Y-111200000D02*
X105000000Y-111200000D01*
X105000000Y-111200000D02*
X105000000Y-122900000D01*
X105000000Y-122900000D02*
X104000000Y-122900000D01*
X104000000Y-122900000D02*
X104000000Y-118900000D01*
X95000000Y-111200000D02*
X95000000Y-122900000D01*
X95000000Y-122900000D02*
X96000000Y-122900000D01*
X96000000Y-122900000D02*
X96000000Y-118900000D01*
X96900000Y-130900000D02*
X96900000Y-125300000D01*
X96900000Y-125300000D02*
X103100000Y-125300000D01*
X103100000Y-125300000D02*
X103100000Y-131500000D01*
X103100000Y-131500000D02*
X97500000Y-131500000D01*
X97500000Y-131500000D02*
X96900000Y-130900000D01*
X96425000Y-135100000D02*
X96175000Y-135425000D01*
X96425000Y-135100000D02*
X96175000Y-134775000D01*
X96175000Y-135425000D02*
X96175000Y-134775000D01*
X103475000Y-135100000D02*
X103725000Y-134775000D01*
X103475000Y-135100000D02*
X103725000Y-135425000D01*
X103725000Y-134775000D02*
X103725000Y-135425000D01*
%LPC*%
D14*
X121500000Y-114500000D03*
D15*
X121500000Y-112000000D03*
X124000000Y-114500000D03*
X121500000Y-117000000D03*
X119000000Y-114500000D03*
X119700000Y-112700000D03*
X123300000Y-112700000D03*
X119700000Y-116300000D03*
X123300000Y-116300000D03*
D14*
X121500000Y-132500000D03*
D15*
X121500000Y-130000000D03*
X124000000Y-132500000D03*
X121500000Y-135000000D03*
X119000000Y-132500000D03*
X119700000Y-130700000D03*
X123300000Y-130700000D03*
X119700000Y-134300000D03*
X123300000Y-134300000D03*
D14*
X78500000Y-132500000D03*
D15*
X78500000Y-130000000D03*
X81000000Y-132500000D03*
X78500000Y-135000000D03*
X76000000Y-132500000D03*
X76700000Y-130700000D03*
X80300000Y-130700000D03*
X76700000Y-134300000D03*
X80300000Y-134300000D03*
D14*
X78500000Y-114500000D03*
D15*
X78500000Y-112000000D03*
X81000000Y-114500000D03*
X78500000Y-117000000D03*
X76000000Y-114500000D03*
X76700000Y-112700000D03*
X80300000Y-112700000D03*
X76700000Y-116300000D03*
X80300000Y-116300000D03*
D16*
X77500000Y-122230000D03*
X78770000Y-122230000D03*
X77500000Y-123500000D03*
X78770000Y-123500000D03*
X77500000Y-124770000D03*
X78770000Y-124770000D03*
D17*
X78135000Y-120960000D03*
X77119000Y-126040000D03*
X79151000Y-126040000D03*
D18*
X83400000Y-113190000D03*
X83400000Y-114460000D03*
X83400000Y-115730000D03*
X83400000Y-117000000D03*
X83400000Y-118270000D03*
X83400000Y-119540000D03*
X83400000Y-120810000D03*
X92600000Y-120810000D03*
X92600000Y-119540000D03*
X92600000Y-118270000D03*
X92600000Y-117000000D03*
X92600000Y-115730000D03*
X92600000Y-114460000D03*
X92600000Y-113190000D03*
X107400000Y-126190000D03*
X107400000Y-127460000D03*
X107400000Y-128730000D03*
X107400000Y-130000000D03*
X107400000Y-131270000D03*
X107400000Y-132540000D03*
X107400000Y-133810000D03*
X116600000Y-133810000D03*
X116600000Y-132540000D03*
X116600000Y-131270000D03*
X116600000Y-130000000D03*
X116600000Y-128730000D03*
X116600000Y-127460000D03*
X116600000Y-126190000D03*
X83400000Y-126190000D03*
X83400000Y-127460000D03*
X83400000Y-128730000D03*
X83400000Y-130000000D03*
X83400000Y-131270000D03*
X83400000Y-132540000D03*
X83400000Y-133810000D03*
X92600000Y-133810000D03*
X92600000Y-132540000D03*
X92600000Y-131270000D03*
X92600000Y-130000000D03*
X92600000Y-128730000D03*
X92600000Y-127460000D03*
X92600000Y-126190000D03*
X107400000Y-113190000D03*
X107400000Y-114460000D03*
X107400000Y-115730000D03*
X107400000Y-117000000D03*
X107400000Y-118270000D03*
X107400000Y-119540000D03*
X107400000Y-120810000D03*
X116600000Y-120810000D03*
X116600000Y-119540000D03*
X116600000Y-118270000D03*
X116600000Y-117000000D03*
X116600000Y-115730000D03*
X116600000Y-114460000D03*
X116600000Y-113190000D03*
D19*
X104500000Y-117300000D03*
X95500000Y-117300000D03*
D20*
X103000000Y-119400000D03*
X101000000Y-119400000D03*
X99000000Y-119400000D03*
X97000000Y-119400000D03*
D21*
X97200000Y-132600000D03*
X98000000Y-132600000D03*
X98800000Y-132600000D03*
X99600000Y-132600000D03*
X100400000Y-132600000D03*
X101200000Y-132600000D03*
X102000000Y-132600000D03*
X102800000Y-132600000D03*
D22*
X104200000Y-131200000D03*
X104200000Y-130400000D03*
X104200000Y-129600000D03*
X104200000Y-128800000D03*
X104200000Y-128000000D03*
X104200000Y-127200000D03*
X104200000Y-126400000D03*
X104200000Y-125600000D03*
D21*
X102800000Y-124200000D03*
X102000000Y-124200000D03*
X101200000Y-124200000D03*
X100400000Y-124200000D03*
X99600000Y-124200000D03*
X98800000Y-124200000D03*
X98000000Y-124200000D03*
X97200000Y-124200000D03*
D22*
X95800000Y-125600000D03*
X95800000Y-126400000D03*
X95800000Y-127200000D03*
X95800000Y-128000000D03*
X95800000Y-128800000D03*
X95800000Y-129600000D03*
X95800000Y-130400000D03*
X95800000Y-131200000D03*
D23*
X97100000Y-135100000D03*
X95500000Y-135100000D03*
D24*
X116350000Y-135200000D03*
X117250000Y-135200000D03*
X92350000Y-135200000D03*
X93250000Y-135200000D03*
X92350000Y-122200000D03*
X93250000Y-122200000D03*
X105600000Y-123850000D03*
X105600000Y-124750000D03*
D10*
G36*
X103343396Y-123981802D02*
X103781802Y-123543396D01*
X104220208Y-123981802D01*
X103781802Y-124420208D01*
X103343396Y-123981802D01*
X103343396Y-123981802D01*
G37*
G36*
X103979792Y-124618198D02*
X104418198Y-124179792D01*
X104856604Y-124618198D01*
X104418198Y-125056604D01*
X103979792Y-124618198D01*
X103979792Y-124618198D01*
G37*
G36*
X96556604Y-132918198D02*
X96118198Y-133356604D01*
X95679792Y-132918198D01*
X96118198Y-132479792D01*
X96556604Y-132918198D01*
X96556604Y-132918198D01*
G37*
G36*
X95920208Y-132281802D02*
X95481802Y-132720208D01*
X95043396Y-132281802D01*
X95481802Y-131843396D01*
X95920208Y-132281802D01*
X95920208Y-132281802D01*
G37*
D24*
X99350000Y-134050000D03*
X98450000Y-134050000D03*
X100550000Y-134050000D03*
X101450000Y-134050000D03*
X98450000Y-135250000D03*
X99350000Y-135250000D03*
X116350000Y-122200000D03*
X117250000Y-122200000D03*
X101450000Y-135250000D03*
X100550000Y-135250000D03*
D23*
X102800000Y-135100000D03*
X104400000Y-135100000D03*
D24*
X97000000Y-121050000D03*
X97000000Y-121950000D03*
X103000000Y-121050000D03*
X103000000Y-121950000D03*
X99000000Y-121050000D03*
X99000000Y-121950000D03*
M02*
