G04 #@! TF.FileFunction,Copper,L1,Top,Signal*
%FSLAX46Y46*%
G04 Gerber Fmt 4.6, Leading zero omitted, Abs format (unit mm)*
G04 Created by KiCad (PCBNEW 0.201604290946+6713~44~ubuntu14.04.1-product) date Mon 11 Jul 2016 15:01:41 CEST*
%MOMM*%
%LPD*%
G01*
G04 APERTURE LIST*
%ADD10C,0.100000*%
%ADD11C,0.787000*%
%ADD12R,2.000000X0.600000*%
%ADD13C,1.600000*%
%ADD14R,0.500000X1.200000*%
%ADD15R,1.200000X0.500000*%
%ADD16R,0.950000X1.000000*%
%ADD17R,0.620000X0.620000*%
%ADD18C,0.600000*%
%ADD19C,0.280000*%
%ADD20C,0.250000*%
G04 APERTURE END LIST*
D10*
D11*
X77500000Y-122230000D03*
X78770000Y-122230000D03*
X77500000Y-123500000D03*
X78770000Y-123500000D03*
X77500000Y-124770000D03*
X78770000Y-124770000D03*
D12*
X83400000Y-113190000D03*
X83400000Y-114460000D03*
X83400000Y-115730000D03*
X83400000Y-117000000D03*
X83400000Y-118270000D03*
X83400000Y-119540000D03*
X83400000Y-120810000D03*
X92600000Y-120810000D03*
X92600000Y-119540000D03*
X92600000Y-118270000D03*
X92600000Y-117000000D03*
X92600000Y-115730000D03*
X92600000Y-114460000D03*
X92600000Y-113190000D03*
X107400000Y-126190000D03*
X107400000Y-127460000D03*
X107400000Y-128730000D03*
X107400000Y-130000000D03*
X107400000Y-131270000D03*
X107400000Y-132540000D03*
X107400000Y-133810000D03*
X116600000Y-133810000D03*
X116600000Y-132540000D03*
X116600000Y-131270000D03*
X116600000Y-130000000D03*
X116600000Y-128730000D03*
X116600000Y-127460000D03*
X116600000Y-126190000D03*
X83400000Y-126190000D03*
X83400000Y-127460000D03*
X83400000Y-128730000D03*
X83400000Y-130000000D03*
X83400000Y-131270000D03*
X83400000Y-132540000D03*
X83400000Y-133810000D03*
X92600000Y-133810000D03*
X92600000Y-132540000D03*
X92600000Y-131270000D03*
X92600000Y-130000000D03*
X92600000Y-128730000D03*
X92600000Y-127460000D03*
X92600000Y-126190000D03*
X107400000Y-113190000D03*
X107400000Y-114460000D03*
X107400000Y-115730000D03*
X107400000Y-117000000D03*
X107400000Y-118270000D03*
X107400000Y-119540000D03*
X107400000Y-120810000D03*
X116600000Y-120810000D03*
X116600000Y-119540000D03*
X116600000Y-118270000D03*
X116600000Y-117000000D03*
X116600000Y-115730000D03*
X116600000Y-114460000D03*
X116600000Y-113190000D03*
D13*
X103000000Y-119400000D03*
X101000000Y-119400000D03*
X99000000Y-119400000D03*
X97000000Y-119400000D03*
D14*
X97200000Y-132600000D03*
X98000000Y-132600000D03*
X98800000Y-132600000D03*
X99600000Y-132600000D03*
X100400000Y-132600000D03*
X101200000Y-132600000D03*
X102000000Y-132600000D03*
X102800000Y-132600000D03*
D15*
X104200000Y-131200000D03*
X104200000Y-130400000D03*
X104200000Y-129600000D03*
X104200000Y-128800000D03*
X104200000Y-128000000D03*
X104200000Y-127200000D03*
X104200000Y-126400000D03*
X104200000Y-125600000D03*
D14*
X102800000Y-124200000D03*
X102000000Y-124200000D03*
X101200000Y-124200000D03*
X100400000Y-124200000D03*
X99600000Y-124200000D03*
X98800000Y-124200000D03*
X98000000Y-124200000D03*
X97200000Y-124200000D03*
D15*
X95800000Y-125600000D03*
X95800000Y-126400000D03*
X95800000Y-127200000D03*
X95800000Y-128000000D03*
X95800000Y-128800000D03*
X95800000Y-129600000D03*
X95800000Y-130400000D03*
X95800000Y-131200000D03*
D16*
X97100000Y-135100000D03*
X95500000Y-135100000D03*
D17*
X116350000Y-135200000D03*
X117250000Y-135200000D03*
X92350000Y-135200000D03*
X93250000Y-135200000D03*
X92350000Y-122200000D03*
X93250000Y-122200000D03*
X105600000Y-123850000D03*
X105600000Y-124750000D03*
D10*
G36*
X103343396Y-123981802D02*
X103781802Y-123543396D01*
X104220208Y-123981802D01*
X103781802Y-124420208D01*
X103343396Y-123981802D01*
X103343396Y-123981802D01*
G37*
G36*
X103979792Y-124618198D02*
X104418198Y-124179792D01*
X104856604Y-124618198D01*
X104418198Y-125056604D01*
X103979792Y-124618198D01*
X103979792Y-124618198D01*
G37*
G36*
X96556604Y-132918198D02*
X96118198Y-133356604D01*
X95679792Y-132918198D01*
X96118198Y-132479792D01*
X96556604Y-132918198D01*
X96556604Y-132918198D01*
G37*
G36*
X95920208Y-132281802D02*
X95481802Y-132720208D01*
X95043396Y-132281802D01*
X95481802Y-131843396D01*
X95920208Y-132281802D01*
X95920208Y-132281802D01*
G37*
D17*
X99350000Y-134050000D03*
X98450000Y-134050000D03*
X100550000Y-134050000D03*
X101450000Y-134050000D03*
X98450000Y-135250000D03*
X99350000Y-135250000D03*
X116350000Y-122200000D03*
X117250000Y-122200000D03*
X101450000Y-135250000D03*
X100550000Y-135250000D03*
D16*
X102800000Y-135100000D03*
X104400000Y-135100000D03*
D17*
X97000000Y-121050000D03*
X97000000Y-121950000D03*
X103000000Y-121050000D03*
X103000000Y-121950000D03*
X99000000Y-121050000D03*
X99000000Y-121950000D03*
D18*
X114400000Y-131400000D03*
X115200000Y-125400000D03*
X104800000Y-132000000D03*
X102500000Y-131300000D03*
X91000000Y-135100000D03*
X95500000Y-133900000D03*
X93500000Y-123079990D03*
X95800000Y-124840000D03*
X109100000Y-128700000D03*
X109100000Y-130000000D03*
X97600000Y-134100000D03*
X102300000Y-134100000D03*
X76100000Y-124800000D03*
X96200000Y-122000000D03*
X109100000Y-118300000D03*
X109100000Y-131300000D03*
X85100000Y-118300000D03*
X95000000Y-133000000D03*
X94200000Y-134900000D03*
X94200000Y-121900000D03*
X118300000Y-121900000D03*
X118300000Y-134900000D03*
X85100000Y-131200000D03*
X99950000Y-135250000D03*
X99700000Y-122200000D03*
X106400000Y-124700000D03*
X99200000Y-127900000D03*
X94249999Y-129400000D03*
X89900000Y-129700000D03*
X89900000Y-122300000D03*
X97840000Y-128500000D03*
X94300000Y-128400000D03*
X89000000Y-128700000D03*
X89000000Y-122300000D03*
X113600000Y-128700000D03*
X113600000Y-126000000D03*
X97840000Y-127500000D03*
X94500000Y-127500000D03*
X88100000Y-127500000D03*
X88100000Y-122300000D03*
X112700000Y-128700000D03*
X112700000Y-126000000D03*
X94800000Y-122800000D03*
X94400000Y-124840000D03*
D19*
X114400000Y-131400000D02*
X114400000Y-131824264D01*
X114400000Y-131824264D02*
X115115736Y-132540000D01*
X115115736Y-132540000D02*
X115320000Y-132540000D01*
X116350000Y-122200000D02*
X116350000Y-124250000D01*
X116350000Y-124250000D02*
X115200000Y-125400000D01*
X115000000Y-134440000D02*
X115300000Y-134740000D01*
D20*
X106600000Y-135000000D02*
X115040000Y-135000000D01*
D19*
X115300000Y-134740000D02*
X115760000Y-135200000D01*
D20*
X115040000Y-135000000D02*
X115300000Y-134740000D01*
X105500000Y-133900000D02*
X106600000Y-135000000D01*
X105500000Y-132700000D02*
X105500000Y-133900000D01*
X104800000Y-132000000D02*
X105500000Y-132700000D01*
X100339999Y-131659999D02*
X102140001Y-131659999D01*
X102140001Y-131659999D02*
X102500000Y-131300000D01*
D19*
X91000000Y-134440000D02*
X91360000Y-134800000D01*
X91360000Y-134800000D02*
X91760000Y-135200000D01*
D20*
X91000000Y-135100000D02*
X91300000Y-134800000D01*
X91300000Y-134800000D02*
X91360000Y-134800000D01*
X96118198Y-132918198D02*
X96118198Y-133281802D01*
X96118198Y-133281802D02*
X95500000Y-133900000D01*
X93500000Y-123079990D02*
X92500000Y-123079990D01*
X92500000Y-123079990D02*
X92369990Y-123079990D01*
X92350000Y-122760000D02*
X92350000Y-122929990D01*
X92350000Y-122929990D02*
X92500000Y-123079990D01*
X92010000Y-123100000D02*
X92349980Y-123100000D01*
X92349980Y-123100000D02*
X92369990Y-123079990D01*
X92010000Y-123100000D02*
X92200000Y-122910000D01*
X92200000Y-122910000D02*
X92350000Y-122760000D01*
X92369990Y-123079990D02*
X92200000Y-122910000D01*
X97400000Y-125600000D02*
X97235002Y-125600000D01*
X97235002Y-125600000D02*
X96475002Y-124840000D01*
X96475002Y-124840000D02*
X95800000Y-124840000D01*
X77500000Y-122230000D02*
X76943507Y-122230000D01*
X81400000Y-123100000D02*
X92010000Y-123100000D01*
X76943507Y-122230000D02*
X75900000Y-121186493D01*
X75900000Y-121186493D02*
X75900000Y-119900000D01*
X75900000Y-119900000D02*
X76500000Y-119300000D01*
X76500000Y-119300000D02*
X80100000Y-119300000D01*
X80100000Y-119300000D02*
X80700000Y-119900000D01*
X80700000Y-119900000D02*
X80700000Y-122400000D01*
X80700000Y-122400000D02*
X81400000Y-123100000D01*
X92350000Y-122760000D02*
X92350000Y-122200000D01*
D19*
X97200000Y-131662002D02*
X97200000Y-131937998D01*
X97200000Y-125800000D02*
X97200000Y-131400000D01*
X97200000Y-131400000D02*
X97200000Y-131662002D01*
X97477999Y-131659999D02*
X97459999Y-131659999D01*
X97459999Y-131659999D02*
X97200000Y-131400000D01*
X97200000Y-131937998D02*
X97337998Y-131800000D01*
X97337998Y-131800000D02*
X97477999Y-131659999D01*
X97400000Y-125600000D02*
X97200000Y-125800000D01*
X97200000Y-131662002D02*
X97337998Y-131800000D01*
X102280000Y-125600000D02*
X97400000Y-125600000D01*
X102800000Y-124200000D02*
X102800000Y-125080000D01*
X102800000Y-125080000D02*
X102280000Y-125600000D01*
X97200000Y-132600000D02*
X97200000Y-131937998D01*
X97477999Y-131659999D02*
X100339999Y-131659999D01*
X100339999Y-131659999D02*
X100400000Y-131720000D01*
X100400000Y-131720000D02*
X100400000Y-132600000D01*
X96118198Y-132918198D02*
X96408111Y-133208111D01*
X96408111Y-133208111D02*
X96791889Y-133208111D01*
X96800000Y-133200000D02*
X97300000Y-133200000D01*
X96791889Y-133208111D02*
X96800000Y-133200000D01*
X97300000Y-133200000D02*
X97300000Y-132700000D01*
X97300000Y-132700000D02*
X97200000Y-132600000D01*
X115100000Y-119760000D02*
X115100000Y-121540000D01*
X115100000Y-121540000D02*
X115760000Y-122200000D01*
X115760000Y-122200000D02*
X116350000Y-122200000D01*
X116600000Y-119540000D02*
X115320000Y-119540000D01*
X115320000Y-119540000D02*
X115100000Y-119760000D01*
X115000000Y-132860000D02*
X115000000Y-134440000D01*
X115760000Y-135200000D02*
X116350000Y-135200000D01*
X116600000Y-132540000D02*
X115320000Y-132540000D01*
X115320000Y-132540000D02*
X115000000Y-132860000D01*
X91000000Y-132860000D02*
X91000000Y-134440000D01*
X91760000Y-135200000D02*
X92350000Y-135200000D01*
X92600000Y-132540000D02*
X91320000Y-132540000D01*
X91320000Y-132540000D02*
X91000000Y-132860000D01*
X91000000Y-119860000D02*
X91000000Y-121440000D01*
X91000000Y-121440000D02*
X91760000Y-122200000D01*
X91760000Y-122200000D02*
X92350000Y-122200000D01*
X92600000Y-119540000D02*
X91320000Y-119540000D01*
X91320000Y-119540000D02*
X91000000Y-119860000D01*
X100550000Y-134050000D02*
X99350000Y-134050000D01*
X100400000Y-132600000D02*
X100400000Y-133900000D01*
X100400000Y-133900000D02*
X100550000Y-134050000D01*
X103000000Y-121050000D02*
X103590000Y-121050000D01*
X103590000Y-121050000D02*
X105600000Y-123060000D01*
X105600000Y-123060000D02*
X105600000Y-123260000D01*
X105600000Y-123260000D02*
X105600000Y-123850000D01*
X103100000Y-123400000D02*
X103200000Y-123400000D01*
X103200000Y-123400000D02*
X103781802Y-123981802D01*
X102800000Y-123700000D02*
X103100000Y-123400000D01*
X102800000Y-124200000D02*
X102800000Y-123700000D01*
X105600000Y-123850000D02*
X104569254Y-123850000D01*
X104569254Y-123850000D02*
X104559036Y-123839782D01*
X103863604Y-123900000D02*
X103781802Y-123981802D01*
X104559036Y-123839782D02*
X104277360Y-123839782D01*
X104277360Y-123839782D02*
X104217142Y-123900000D01*
X104217142Y-123900000D02*
X103863604Y-123900000D01*
X103000000Y-121050000D02*
X103000000Y-119400000D01*
X98000000Y-124200000D02*
X98000000Y-123320000D01*
X98000000Y-123320000D02*
X97939999Y-123259999D01*
X97939999Y-123259999D02*
X96677999Y-123259999D01*
X96677999Y-123259999D02*
X96218008Y-123719990D01*
X96218008Y-123719990D02*
X80259990Y-123719990D01*
X80259990Y-123719990D02*
X78770000Y-122230000D01*
X97200000Y-124200000D02*
X79470000Y-124200000D01*
X79470000Y-124200000D02*
X78770000Y-123500000D01*
X107400000Y-128730000D02*
X109070000Y-128730000D01*
X109070000Y-128730000D02*
X109100000Y-128700000D01*
X107400000Y-130000000D02*
X109100000Y-130000000D01*
X98450000Y-134050000D02*
X97650000Y-134050000D01*
X97650000Y-134050000D02*
X97600000Y-134100000D01*
X101450000Y-134050000D02*
X102250000Y-134050000D01*
X102250000Y-134050000D02*
X102300000Y-134100000D01*
X77500000Y-124770000D02*
X76130000Y-124770000D01*
X76130000Y-124770000D02*
X76100000Y-124800000D01*
X97000000Y-121950000D02*
X96250000Y-121950000D01*
X96250000Y-121950000D02*
X96200000Y-122000000D01*
X107400000Y-118270000D02*
X109070000Y-118270000D01*
X109070000Y-118270000D02*
X109100000Y-118300000D01*
X107400000Y-131270000D02*
X109070000Y-131270000D01*
X109070000Y-131270000D02*
X109100000Y-131300000D01*
X83400000Y-118270000D02*
X85070000Y-118270000D01*
X85070000Y-118270000D02*
X85100000Y-118300000D01*
X107400000Y-120810000D02*
X107400000Y-119540000D01*
X107400000Y-118270000D02*
X107400000Y-119540000D01*
X107400000Y-117000000D02*
X107400000Y-118270000D01*
X107400000Y-115730000D02*
X107400000Y-117000000D01*
X95100000Y-131900000D02*
X95481802Y-132281802D01*
X94800000Y-131600000D02*
X95100000Y-131900000D01*
X95100000Y-131900000D02*
X95100000Y-132900000D01*
X95100000Y-132900000D02*
X95000000Y-133000000D01*
X93880000Y-134800000D02*
X93880000Y-135160000D01*
X93880000Y-134390000D02*
X93880000Y-134800000D01*
X93880000Y-134800000D02*
X94100000Y-134800000D01*
X94100000Y-134800000D02*
X94200000Y-134900000D01*
X93880000Y-121700000D02*
X93880000Y-122160000D01*
X93880000Y-121390000D02*
X93880000Y-121700000D01*
X93880000Y-121700000D02*
X94000000Y-121700000D01*
X94000000Y-121700000D02*
X94200000Y-121900000D01*
X117880000Y-121800000D02*
X117880000Y-122160000D01*
X117880000Y-121390000D02*
X117880000Y-121800000D01*
X117880000Y-121800000D02*
X118200000Y-121800000D01*
X118200000Y-121800000D02*
X118300000Y-121900000D01*
X117880000Y-134800000D02*
X117880000Y-135160000D01*
X117880000Y-134390000D02*
X117880000Y-134800000D01*
X117880000Y-134800000D02*
X118200000Y-134800000D01*
X118200000Y-134800000D02*
X118300000Y-134900000D01*
X107400000Y-132540000D02*
X107400000Y-131270000D01*
X107400000Y-133810000D02*
X107400000Y-132540000D01*
X83400000Y-131270000D02*
X85030000Y-131270000D01*
X85030000Y-131270000D02*
X85100000Y-131200000D01*
X83400000Y-115730000D02*
X83400000Y-117000000D01*
X83400000Y-117000000D02*
X83400000Y-118270000D01*
X83400000Y-119540000D02*
X83400000Y-118270000D01*
X83400000Y-120810000D02*
X83400000Y-119540000D01*
X83400000Y-130000000D02*
X83400000Y-128730000D01*
X83400000Y-132540000D02*
X83400000Y-133810000D01*
X83400000Y-131270000D02*
X83400000Y-132540000D01*
X83400000Y-130000000D02*
X83400000Y-131270000D01*
X92600000Y-133810000D02*
X93300000Y-133810000D01*
X93300000Y-133810000D02*
X93880000Y-134390000D01*
X93880000Y-135160000D02*
X93840000Y-135200000D01*
X93840000Y-135200000D02*
X93250000Y-135200000D01*
X92600000Y-120810000D02*
X93300000Y-120810000D01*
X93300000Y-120810000D02*
X93880000Y-121390000D01*
X93880000Y-122160000D02*
X93840000Y-122200000D01*
X93840000Y-122200000D02*
X93250000Y-122200000D01*
X116600000Y-133810000D02*
X117300000Y-133810000D01*
X117300000Y-133810000D02*
X117880000Y-134390000D01*
X117880000Y-135160000D02*
X117840000Y-135200000D01*
X117840000Y-135200000D02*
X117250000Y-135200000D01*
X116600000Y-120810000D02*
X117300000Y-120810000D01*
X117300000Y-120810000D02*
X117880000Y-121390000D01*
X117880000Y-122160000D02*
X117840000Y-122200000D01*
X117840000Y-122200000D02*
X117250000Y-122200000D01*
X99950000Y-135250000D02*
X99350000Y-135250000D01*
X100550000Y-135250000D02*
X99950000Y-135250000D01*
X99000000Y-121950000D02*
X99450000Y-121950000D01*
X99450000Y-121950000D02*
X99700000Y-122200000D01*
X103000000Y-121950000D02*
X102410000Y-121950000D01*
X101000000Y-120531370D02*
X101000000Y-119400000D01*
X102410000Y-121950000D02*
X101000000Y-120540000D01*
X101000000Y-120540000D02*
X101000000Y-120531370D01*
X104418198Y-124618198D02*
X105000000Y-124618198D01*
X105000000Y-124618198D02*
X105468198Y-124618198D01*
X105100000Y-125580000D02*
X105100000Y-124718198D01*
X105100000Y-124718198D02*
X105000000Y-124618198D01*
X104200000Y-125600000D02*
X105080000Y-125600000D01*
X105080000Y-125600000D02*
X105100000Y-125580000D01*
X94800000Y-131100000D02*
X94800000Y-131600000D01*
X94800000Y-131100000D02*
X94900000Y-131200000D01*
X94900000Y-131200000D02*
X95800000Y-131200000D01*
X94800000Y-130520000D02*
X94800000Y-131100000D01*
X95800000Y-130400000D02*
X94920000Y-130400000D01*
X94920000Y-130400000D02*
X94800000Y-130520000D01*
X105600000Y-124750000D02*
X106350000Y-124750000D01*
X106350000Y-124750000D02*
X106400000Y-124700000D01*
X105468198Y-124618198D02*
X105600000Y-124750000D01*
D20*
X89900000Y-122300000D02*
X89900000Y-119000000D01*
X99200000Y-127900000D02*
X104100000Y-127900000D01*
X104100000Y-127900000D02*
X104200000Y-128000000D01*
X92600000Y-130000000D02*
X93649999Y-130000000D01*
X93649999Y-130000000D02*
X94249999Y-129400000D01*
X90200000Y-130000000D02*
X92600000Y-130000000D01*
X89900000Y-129700000D02*
X90200000Y-130000000D01*
X92600000Y-117000000D02*
X91900000Y-117000000D01*
X91900000Y-117000000D02*
X89900000Y-119000000D01*
X106234999Y-126815001D02*
X114500000Y-126815001D01*
X114500000Y-126815001D02*
X117840003Y-126815001D01*
X116600000Y-117000000D02*
X115350000Y-117000000D01*
X115350000Y-117000000D02*
X114500000Y-117850000D01*
X114500000Y-117850000D02*
X114500000Y-126815001D01*
X104200000Y-128000000D02*
X105050000Y-128000000D01*
X105050000Y-128000000D02*
X106234999Y-126815001D01*
X117840003Y-126815001D02*
X118400000Y-127374998D01*
X118400000Y-127374998D02*
X118400000Y-129600000D01*
X118400000Y-129600000D02*
X118000000Y-130000000D01*
X118000000Y-130000000D02*
X116600000Y-130000000D01*
X89000000Y-118630000D02*
X89000000Y-122300000D01*
X104200000Y-129600000D02*
X98940000Y-129600000D01*
X98940000Y-129600000D02*
X97840000Y-128500000D01*
X92600000Y-128730000D02*
X93970000Y-128730000D01*
X93970000Y-128730000D02*
X94300000Y-128400000D01*
X89000000Y-128700000D02*
X92570000Y-128700000D01*
X92570000Y-128700000D02*
X92600000Y-128730000D01*
X92600000Y-115730000D02*
X91900000Y-115730000D01*
X91900000Y-115730000D02*
X89000000Y-118630000D01*
X105275001Y-129374999D02*
X113600000Y-129374999D01*
X113600000Y-129374999D02*
X114705001Y-129374999D01*
X113600000Y-128700000D02*
X113600000Y-129124264D01*
X113600000Y-129124264D02*
X113600000Y-129374999D01*
X113600000Y-117480000D02*
X113600000Y-126000000D01*
X116600000Y-115730000D02*
X115350000Y-115730000D01*
X115350000Y-115730000D02*
X113600000Y-117480000D01*
X104200000Y-129600000D02*
X105050000Y-129600000D01*
X105050000Y-129600000D02*
X105275001Y-129374999D01*
X114705001Y-129374999D02*
X115350000Y-128730000D01*
X115350000Y-128730000D02*
X116600000Y-128730000D01*
X88100000Y-122300000D02*
X88100000Y-118260000D01*
X104200000Y-128800000D02*
X99140000Y-128800000D01*
X99140000Y-128800000D02*
X97840000Y-127500000D01*
X92600000Y-127460000D02*
X94460000Y-127460000D01*
X94460000Y-127460000D02*
X94500000Y-127500000D01*
X88100000Y-127500000D02*
X92560000Y-127500000D01*
X92560000Y-127500000D02*
X92600000Y-127460000D01*
X92600000Y-114460000D02*
X91900000Y-114460000D01*
X91900000Y-114460000D02*
X88100000Y-118260000D01*
X109414998Y-127460000D02*
X112700000Y-127460000D01*
X112700000Y-127460000D02*
X115350000Y-127460000D01*
X112700000Y-128700000D02*
X112700000Y-128275736D01*
X112700000Y-128275736D02*
X112700000Y-127460000D01*
X116600000Y-114460000D02*
X115900000Y-114460000D01*
X115900000Y-114460000D02*
X112700000Y-117660000D01*
X112700000Y-117660000D02*
X112700000Y-126000000D01*
X104200000Y-128800000D02*
X105444998Y-128800000D01*
X105444998Y-128800000D02*
X106139999Y-128104999D01*
X106139999Y-128104999D02*
X108769999Y-128104999D01*
X108769999Y-128104999D02*
X109414998Y-127460000D01*
X115350000Y-127460000D02*
X116600000Y-127460000D01*
X94100000Y-118600000D02*
X94100000Y-113990000D01*
X94100000Y-113990000D02*
X93300000Y-113190000D01*
X93300000Y-113190000D02*
X92600000Y-113190000D01*
X94825001Y-119325001D02*
X94100000Y-118600000D01*
X94800000Y-122800000D02*
X94800000Y-122225002D01*
X94800000Y-122225002D02*
X94825001Y-122200001D01*
X94825001Y-122200001D02*
X94825001Y-119325001D01*
X95800000Y-125600000D02*
X95160000Y-125600000D01*
X95160000Y-125600000D02*
X94400000Y-124840000D01*
X104200000Y-131200000D02*
X105050000Y-131200000D01*
X105050000Y-131200000D02*
X105624999Y-130625001D01*
X108730000Y-130555002D02*
X108799999Y-130625001D01*
X117850000Y-126190000D02*
X116600000Y-126190000D01*
X105624999Y-130625001D02*
X108660001Y-130625001D01*
X118850010Y-129786400D02*
X118850009Y-127188597D01*
X108660001Y-130625001D02*
X108730000Y-130555002D01*
X108799999Y-130625001D02*
X118011409Y-130625001D01*
X118011409Y-130625001D02*
X118850010Y-129786400D01*
X118850009Y-127188597D02*
X117851412Y-126190000D01*
X117851412Y-126190000D02*
X117850000Y-126190000D01*
X95800000Y-126400000D02*
X92810000Y-126400000D01*
X92810000Y-126400000D02*
X92600000Y-126190000D01*
X104200000Y-126400000D02*
X105304998Y-126400000D01*
X105304998Y-126400000D02*
X106304998Y-125400000D01*
X106304998Y-125400000D02*
X109800000Y-125400000D01*
X115900000Y-113190000D02*
X116600000Y-113190000D01*
X109800000Y-125400000D02*
X112100000Y-123100000D01*
X112100000Y-123100000D02*
X112100000Y-116990000D01*
X112100000Y-116990000D02*
X115900000Y-113190000D01*
D19*
X99000000Y-121050000D02*
X99590000Y-121050000D01*
X99590000Y-121050000D02*
X101200000Y-122660000D01*
X101200000Y-122660000D02*
X101200000Y-123320000D01*
X101200000Y-123320000D02*
X101200000Y-124200000D01*
X99000000Y-121050000D02*
X99000000Y-119400000D01*
X98400000Y-123000000D02*
X100080000Y-123000000D01*
X100080000Y-123000000D02*
X100400000Y-123320000D01*
X100400000Y-123320000D02*
X100400000Y-124200000D01*
X98000000Y-122600000D02*
X98400000Y-123000000D01*
X98000000Y-121460000D02*
X98000000Y-122600000D01*
X97000000Y-121050000D02*
X97590000Y-121050000D01*
X97590000Y-121050000D02*
X98000000Y-121460000D01*
X97000000Y-121050000D02*
X97000000Y-119400000D01*
D20*
X94874999Y-129787378D02*
X94874999Y-128875001D01*
X94874999Y-128875001D02*
X94950000Y-128800000D01*
X94950000Y-128800000D02*
X95800000Y-128800000D01*
X94319990Y-133894990D02*
X94319990Y-130342387D01*
X94319990Y-130342387D02*
X94874999Y-129787378D01*
D19*
X94319990Y-133894990D02*
X95500000Y-135075000D01*
X95500000Y-135075000D02*
X95500000Y-135100000D01*
D20*
X104200000Y-130400000D02*
X103564998Y-130400000D01*
X103564998Y-130400000D02*
X103274999Y-130689999D01*
X103274999Y-130689999D02*
X103274999Y-131674999D01*
X103274999Y-131674999D02*
X104400000Y-132800000D01*
X104400000Y-132800000D02*
X104400000Y-134350000D01*
X104400000Y-134350000D02*
X104400000Y-135100000D01*
D19*
X104400000Y-135100000D02*
X104400000Y-135075000D01*
X98450000Y-135250000D02*
X97250000Y-135250000D01*
X97250000Y-135250000D02*
X97100000Y-135100000D01*
X101450000Y-135250000D02*
X102650000Y-135250000D01*
X102650000Y-135250000D02*
X102800000Y-135100000D01*
M02*
