G04 #@! TF.FileFunction,Soldermask,Top*
%FSLAX46Y46*%
G04 Gerber Fmt 4.6, Leading zero omitted, Abs format (unit mm)*
G04 Created by KiCad (PCBNEW 4.0.2+e4-6225~38~ubuntu14.04.1-stable) date Sun 12 Jun 2016 22:19:48 BST*
%MOMM*%
G01*
G04 APERTURE LIST*
%ADD10C,0.100000*%
%ADD11R,0.800000X0.800000*%
%ADD12O,0.800000X0.800000*%
%ADD13R,1.450000X0.450000*%
%ADD14R,0.950000X0.400000*%
%ADD15R,2.920000X0.740000*%
%ADD16C,1.200000*%
%ADD17R,0.740000X2.920000*%
%ADD18R,0.750000X0.900000*%
G04 APERTURE END LIST*
D10*
D11*
X109625000Y-91500000D03*
D12*
X108375000Y-91500000D03*
X107125000Y-91500000D03*
X105875000Y-91500000D03*
D11*
X101875000Y-91500000D03*
D12*
X100625000Y-91500000D03*
X99375000Y-91500000D03*
X98125000Y-91500000D03*
D11*
X94125000Y-91500000D03*
D12*
X92875000Y-91500000D03*
X91625000Y-91500000D03*
X90375000Y-91500000D03*
D13*
X109700000Y-97875000D03*
X109700000Y-97225000D03*
X109700000Y-96575000D03*
X109700000Y-95925000D03*
X105300000Y-95925000D03*
X105300000Y-96575000D03*
X105300000Y-97225000D03*
X105300000Y-97875000D03*
D14*
X107300000Y-100450000D03*
X107300000Y-99800000D03*
X107300000Y-99150000D03*
X105100000Y-99150000D03*
X105100000Y-100450000D03*
D13*
X94700000Y-97875000D03*
X94700000Y-97225000D03*
X94700000Y-96575000D03*
X94700000Y-95925000D03*
X90300000Y-95925000D03*
X90300000Y-96575000D03*
X90300000Y-97225000D03*
X90300000Y-97875000D03*
D14*
X92300000Y-100450000D03*
X92300000Y-99800000D03*
X92300000Y-99150000D03*
X90100000Y-99150000D03*
X90100000Y-100450000D03*
D13*
X90300000Y-103825000D03*
X90300000Y-104475000D03*
X90300000Y-105125000D03*
X90300000Y-105775000D03*
X94700000Y-105775000D03*
X94700000Y-105125000D03*
X94700000Y-104475000D03*
X94700000Y-103825000D03*
X102200000Y-97875000D03*
X102200000Y-97225000D03*
X102200000Y-96575000D03*
X102200000Y-95925000D03*
X97800000Y-95925000D03*
X97800000Y-96575000D03*
X97800000Y-97225000D03*
X97800000Y-97875000D03*
D14*
X99800000Y-100450000D03*
X99800000Y-99800000D03*
X99800000Y-99150000D03*
X97600000Y-99150000D03*
X97600000Y-100450000D03*
D13*
X97800000Y-103825000D03*
X97800000Y-104475000D03*
X97800000Y-105125000D03*
X97800000Y-105775000D03*
X102200000Y-105775000D03*
X102200000Y-105125000D03*
X102200000Y-104475000D03*
X102200000Y-103825000D03*
X105300000Y-103825000D03*
X105300000Y-104475000D03*
X105300000Y-105125000D03*
X105300000Y-105775000D03*
X109700000Y-105775000D03*
X109700000Y-105125000D03*
X109700000Y-104475000D03*
X109700000Y-103825000D03*
D15*
X83285000Y-94285000D03*
X86715000Y-94285000D03*
X83285000Y-95555000D03*
X86715000Y-95555000D03*
X83285000Y-96825000D03*
X86715000Y-96825000D03*
X83285000Y-98095000D03*
X86715000Y-98095000D03*
X83285000Y-99365000D03*
X86715000Y-99365000D03*
X83285000Y-100635000D03*
X86715000Y-100635000D03*
X83285000Y-101905000D03*
X86715000Y-101905000D03*
X83285000Y-103175000D03*
X86715000Y-103175000D03*
X83285000Y-104445000D03*
X86715000Y-104445000D03*
X83285000Y-105715000D03*
X86715000Y-105715000D03*
X113285000Y-94285000D03*
X116715000Y-94285000D03*
X113285000Y-95555000D03*
X116715000Y-95555000D03*
X113285000Y-96825000D03*
X116715000Y-96825000D03*
X113285000Y-98095000D03*
X116715000Y-98095000D03*
X113285000Y-99365000D03*
X116715000Y-99365000D03*
X113285000Y-100635000D03*
X116715000Y-100635000D03*
X113285000Y-101905000D03*
X116715000Y-101905000D03*
X113285000Y-103175000D03*
X116715000Y-103175000D03*
X113285000Y-104445000D03*
X116715000Y-104445000D03*
X113285000Y-105715000D03*
X116715000Y-105715000D03*
D16*
X85000000Y-107305000D03*
X85000000Y-92695000D03*
X115000000Y-107305000D03*
X115000000Y-92695000D03*
D17*
X94285000Y-116715000D03*
X94285000Y-113285000D03*
X95555000Y-116715000D03*
X95555000Y-113285000D03*
X96825000Y-116715000D03*
X96825000Y-113285000D03*
X98095000Y-116715000D03*
X98095000Y-113285000D03*
X99365000Y-116715000D03*
X99365000Y-113285000D03*
X100635000Y-116715000D03*
X100635000Y-113285000D03*
X101905000Y-116715000D03*
X101905000Y-113285000D03*
X103175000Y-116715000D03*
X103175000Y-113285000D03*
X104445000Y-116715000D03*
X104445000Y-113285000D03*
X105715000Y-116715000D03*
X105715000Y-113285000D03*
D16*
X107305000Y-115000000D03*
X92695000Y-115000000D03*
D18*
X101000000Y-108400000D03*
X102400000Y-108400000D03*
X98900000Y-107100000D03*
X97500000Y-107100000D03*
X98800000Y-102600000D03*
X97400000Y-102600000D03*
X101200000Y-101400000D03*
X102600000Y-101400000D03*
X101700000Y-94700000D03*
X103100000Y-94700000D03*
X99325000Y-94700000D03*
X100725000Y-94700000D03*
X96950000Y-94700000D03*
X98350000Y-94700000D03*
X93500000Y-108400000D03*
X94900000Y-108400000D03*
X108500000Y-108400000D03*
X109900000Y-108400000D03*
X91400000Y-107100000D03*
X90000000Y-107100000D03*
X106400000Y-107100000D03*
X105000000Y-107100000D03*
X91300000Y-102600000D03*
X89900000Y-102600000D03*
X106300000Y-102600000D03*
X104900000Y-102600000D03*
X93700000Y-101400000D03*
X95100000Y-101400000D03*
X108700000Y-101400000D03*
X110100000Y-101400000D03*
X94200000Y-94700000D03*
X95600000Y-94700000D03*
X91825000Y-94700000D03*
X93225000Y-94700000D03*
X89450000Y-94700000D03*
X90850000Y-94700000D03*
X109300000Y-94700000D03*
X110700000Y-94700000D03*
X106825000Y-94700000D03*
X108225000Y-94700000D03*
X104450000Y-94700000D03*
X105850000Y-94700000D03*
X102400000Y-107100000D03*
X101000000Y-107100000D03*
X97500000Y-108400000D03*
X98900000Y-108400000D03*
X101200000Y-102600000D03*
X102600000Y-102600000D03*
X98800000Y-101400000D03*
X97400000Y-101400000D03*
X102700000Y-100300000D03*
X101300000Y-100300000D03*
X101300000Y-99100000D03*
X102700000Y-99100000D03*
X102150000Y-93600000D03*
X100750000Y-93600000D03*
X98000000Y-93600000D03*
X99400000Y-93600000D03*
X94900000Y-107100000D03*
X93500000Y-107100000D03*
X109900000Y-107100000D03*
X108500000Y-107100000D03*
X90000000Y-108400000D03*
X91400000Y-108400000D03*
X105000000Y-108400000D03*
X106400000Y-108400000D03*
X93700000Y-102600000D03*
X95100000Y-102600000D03*
X108700000Y-102600000D03*
X110100000Y-102600000D03*
X91300000Y-101400000D03*
X89900000Y-101400000D03*
X106300000Y-101400000D03*
X104900000Y-101400000D03*
X95200000Y-100300000D03*
X93800000Y-100300000D03*
X93800000Y-99100000D03*
X95200000Y-99100000D03*
X110200000Y-100300000D03*
X108800000Y-100300000D03*
X108800000Y-99100000D03*
X110200000Y-99100000D03*
X94650000Y-93600000D03*
X93250000Y-93600000D03*
X90400000Y-93600000D03*
X91800000Y-93600000D03*
X109650000Y-93600000D03*
X108250000Y-93600000D03*
X105400000Y-93600000D03*
X106800000Y-93600000D03*
M02*
