G04 #@! TF.FileFunction,Paste,Top*
%FSLAX46Y46*%
G04 Gerber Fmt 4.6, Leading zero omitted, Abs format (unit mm)*
G04 Created by KiCad (PCBNEW 4.0.2+e4-6225~38~ubuntu14.04.1-stable) date Tue 28 Jun 2016 16:33:18 BST*
%MOMM*%
G01*
G04 APERTURE LIST*
%ADD10C,0.100000*%
%ADD11R,1.450000X0.450000*%
%ADD12R,0.950000X0.400000*%
%ADD13R,2.920000X0.740000*%
%ADD14R,0.740000X2.920000*%
%ADD15R,0.750000X0.900000*%
G04 APERTURE END LIST*
D10*
D11*
X109700000Y-97875000D03*
X109700000Y-97225000D03*
X109700000Y-96575000D03*
X109700000Y-95925000D03*
X105300000Y-95925000D03*
X105300000Y-96575000D03*
X105300000Y-97225000D03*
X105300000Y-97875000D03*
D12*
X107300000Y-100450000D03*
X107300000Y-99800000D03*
X107300000Y-99150000D03*
X105100000Y-99150000D03*
X105100000Y-100450000D03*
D11*
X94700000Y-97875000D03*
X94700000Y-97225000D03*
X94700000Y-96575000D03*
X94700000Y-95925000D03*
X90300000Y-95925000D03*
X90300000Y-96575000D03*
X90300000Y-97225000D03*
X90300000Y-97875000D03*
D12*
X92300000Y-100450000D03*
X92300000Y-99800000D03*
X92300000Y-99150000D03*
X90100000Y-99150000D03*
X90100000Y-100450000D03*
D11*
X90300000Y-103825000D03*
X90300000Y-104475000D03*
X90300000Y-105125000D03*
X90300000Y-105775000D03*
X94700000Y-105775000D03*
X94700000Y-105125000D03*
X94700000Y-104475000D03*
X94700000Y-103825000D03*
X102200000Y-97875000D03*
X102200000Y-97225000D03*
X102200000Y-96575000D03*
X102200000Y-95925000D03*
X97800000Y-95925000D03*
X97800000Y-96575000D03*
X97800000Y-97225000D03*
X97800000Y-97875000D03*
D12*
X99800000Y-100450000D03*
X99800000Y-99800000D03*
X99800000Y-99150000D03*
X97600000Y-99150000D03*
X97600000Y-100450000D03*
D11*
X97800000Y-103825000D03*
X97800000Y-104475000D03*
X97800000Y-105125000D03*
X97800000Y-105775000D03*
X102200000Y-105775000D03*
X102200000Y-105125000D03*
X102200000Y-104475000D03*
X102200000Y-103825000D03*
X105300000Y-103825000D03*
X105300000Y-104475000D03*
X105300000Y-105125000D03*
X105300000Y-105775000D03*
X109700000Y-105775000D03*
X109700000Y-105125000D03*
X109700000Y-104475000D03*
X109700000Y-103825000D03*
D13*
X83285000Y-94285000D03*
X86715000Y-94285000D03*
X83285000Y-95555000D03*
X86715000Y-95555000D03*
X83285000Y-96825000D03*
X86715000Y-96825000D03*
X83285000Y-98095000D03*
X86715000Y-98095000D03*
X83285000Y-99365000D03*
X86715000Y-99365000D03*
X83285000Y-100635000D03*
X86715000Y-100635000D03*
X83285000Y-101905000D03*
X86715000Y-101905000D03*
X83285000Y-103175000D03*
X86715000Y-103175000D03*
X83285000Y-104445000D03*
X86715000Y-104445000D03*
X83285000Y-105715000D03*
X86715000Y-105715000D03*
X113285000Y-94285000D03*
X116715000Y-94285000D03*
X113285000Y-95555000D03*
X116715000Y-95555000D03*
X113285000Y-96825000D03*
X116715000Y-96825000D03*
X113285000Y-98095000D03*
X116715000Y-98095000D03*
X113285000Y-99365000D03*
X116715000Y-99365000D03*
X113285000Y-100635000D03*
X116715000Y-100635000D03*
X113285000Y-101905000D03*
X116715000Y-101905000D03*
X113285000Y-103175000D03*
X116715000Y-103175000D03*
X113285000Y-104445000D03*
X116715000Y-104445000D03*
X113285000Y-105715000D03*
X116715000Y-105715000D03*
D14*
X94285000Y-116715000D03*
X94285000Y-113285000D03*
X95555000Y-116715000D03*
X95555000Y-113285000D03*
X96825000Y-116715000D03*
X96825000Y-113285000D03*
X98095000Y-116715000D03*
X98095000Y-113285000D03*
X99365000Y-116715000D03*
X99365000Y-113285000D03*
X100635000Y-116715000D03*
X100635000Y-113285000D03*
X101905000Y-116715000D03*
X101905000Y-113285000D03*
X103175000Y-116715000D03*
X103175000Y-113285000D03*
X104445000Y-116715000D03*
X104445000Y-113285000D03*
X105715000Y-116715000D03*
X105715000Y-113285000D03*
D15*
X101000000Y-108400000D03*
X102400000Y-108400000D03*
X98900000Y-107100000D03*
X97500000Y-107100000D03*
X98800000Y-102600000D03*
X97400000Y-102600000D03*
X101200000Y-101400000D03*
X102600000Y-101400000D03*
X101700000Y-94700000D03*
X103100000Y-94700000D03*
X99325000Y-94700000D03*
X100725000Y-94700000D03*
X96950000Y-94700000D03*
X98350000Y-94700000D03*
X93500000Y-108400000D03*
X94900000Y-108400000D03*
X108500000Y-108400000D03*
X109900000Y-108400000D03*
X91400000Y-107100000D03*
X90000000Y-107100000D03*
X106400000Y-107100000D03*
X105000000Y-107100000D03*
X91300000Y-102600000D03*
X89900000Y-102600000D03*
X106300000Y-102600000D03*
X104900000Y-102600000D03*
X93700000Y-101400000D03*
X95100000Y-101400000D03*
X108700000Y-101400000D03*
X110100000Y-101400000D03*
X94200000Y-94700000D03*
X95600000Y-94700000D03*
X91825000Y-94700000D03*
X93225000Y-94700000D03*
X89450000Y-94700000D03*
X90850000Y-94700000D03*
X109300000Y-94700000D03*
X110700000Y-94700000D03*
X106825000Y-94700000D03*
X108225000Y-94700000D03*
X104450000Y-94700000D03*
X105850000Y-94700000D03*
X102400000Y-107100000D03*
X101000000Y-107100000D03*
X97500000Y-108400000D03*
X98900000Y-108400000D03*
X101200000Y-102600000D03*
X102600000Y-102600000D03*
X98800000Y-101400000D03*
X97400000Y-101400000D03*
X102700000Y-100300000D03*
X101300000Y-100300000D03*
X101300000Y-99100000D03*
X102700000Y-99100000D03*
X102150000Y-93600000D03*
X100750000Y-93600000D03*
X98000000Y-93600000D03*
X99400000Y-93600000D03*
X94900000Y-107100000D03*
X93500000Y-107100000D03*
X109900000Y-107100000D03*
X108500000Y-107100000D03*
X90000000Y-108400000D03*
X91400000Y-108400000D03*
X105000000Y-108400000D03*
X106400000Y-108400000D03*
X93700000Y-102600000D03*
X95100000Y-102600000D03*
X108700000Y-102600000D03*
X110100000Y-102600000D03*
X91300000Y-101400000D03*
X89900000Y-101400000D03*
X106300000Y-101400000D03*
X104900000Y-101400000D03*
X95200000Y-100300000D03*
X93800000Y-100300000D03*
X93800000Y-99100000D03*
X95200000Y-99100000D03*
X110200000Y-100300000D03*
X108800000Y-100300000D03*
X108800000Y-99100000D03*
X110200000Y-99100000D03*
X94650000Y-93600000D03*
X93250000Y-93600000D03*
X90400000Y-93600000D03*
X91800000Y-93600000D03*
X109650000Y-93600000D03*
X108250000Y-93600000D03*
X105400000Y-93600000D03*
X106800000Y-93600000D03*
D10*
G36*
X85547309Y-110613927D02*
X85915005Y-110981623D01*
X85547309Y-111349319D01*
X85179613Y-110981623D01*
X85547309Y-110613927D01*
X85547309Y-110613927D01*
G37*
G36*
X84981623Y-111179613D02*
X85349319Y-111547309D01*
X84981623Y-111915005D01*
X84613927Y-111547309D01*
X84981623Y-111179613D01*
X84981623Y-111179613D01*
G37*
G36*
X87725197Y-114092893D02*
X88092893Y-113725197D01*
X88460589Y-114092893D01*
X88092893Y-114460589D01*
X87725197Y-114092893D01*
X87725197Y-114092893D01*
G37*
G36*
X88290883Y-114658579D02*
X88658579Y-114290883D01*
X89026275Y-114658579D01*
X88658579Y-115026275D01*
X88290883Y-114658579D01*
X88290883Y-114658579D01*
G37*
G36*
X88349461Y-113417157D02*
X88717157Y-113049461D01*
X89084853Y-113417157D01*
X88717157Y-113784853D01*
X88349461Y-113417157D01*
X88349461Y-113417157D01*
G37*
G36*
X88915147Y-113982843D02*
X89282843Y-113615147D01*
X89650539Y-113982843D01*
X89282843Y-114350539D01*
X88915147Y-113982843D01*
X88915147Y-113982843D01*
G37*
G36*
X87723345Y-113228371D02*
X87440503Y-113511213D01*
X87108163Y-113178873D01*
X87391005Y-112896031D01*
X87723345Y-113228371D01*
X87723345Y-113228371D01*
G37*
G36*
X88182965Y-112768752D02*
X87900123Y-113051594D01*
X87567783Y-112719254D01*
X87850625Y-112436412D01*
X88182965Y-112768752D01*
X88182965Y-112768752D01*
G37*
G36*
X88642584Y-112309132D02*
X88359742Y-112591974D01*
X88027402Y-112259634D01*
X88310244Y-111976792D01*
X88642584Y-112309132D01*
X88642584Y-112309132D01*
G37*
G36*
X87348579Y-111015127D02*
X87065737Y-111297969D01*
X86733397Y-110965629D01*
X87016239Y-110682787D01*
X87348579Y-111015127D01*
X87348579Y-111015127D01*
G37*
G36*
X86888959Y-111474746D02*
X86606117Y-111757588D01*
X86273777Y-111425248D01*
X86556619Y-111142406D01*
X86888959Y-111474746D01*
X86888959Y-111474746D01*
G37*
G36*
X86429340Y-111934366D02*
X86146498Y-112217208D01*
X85814158Y-111884868D01*
X86097000Y-111602026D01*
X86429340Y-111934366D01*
X86429340Y-111934366D01*
G37*
G36*
X87335852Y-112344487D02*
X86980884Y-112699455D01*
X86625916Y-112344487D01*
X86980884Y-111989519D01*
X87335852Y-112344487D01*
X87335852Y-112344487D01*
G37*
G36*
X87830826Y-111849513D02*
X87475858Y-112204481D01*
X87120890Y-111849513D01*
X87475858Y-111494545D01*
X87830826Y-111849513D01*
X87830826Y-111849513D01*
G37*
M02*
