G04 #@! TF.FileFunction,Legend,Bot*
%FSLAX46Y46*%
G04 Gerber Fmt 4.6, Leading zero omitted, Abs format (unit mm)*
G04 Created by KiCad (PCBNEW 4.0.2-4+6225~38~ubuntu14.04.1-stable) date Sun 08 May 2016 15:33:21 BST*
%MOMM*%
G01*
G04 APERTURE LIST*
%ADD10C,0.100000*%
%ADD11C,0.120000*%
%ADD12C,0.150000*%
%ADD13C,0.010000*%
%ADD14R,0.800000X0.800000*%
%ADD15O,0.800000X0.800000*%
%ADD16R,2.220000X0.740000*%
%ADD17C,1.200000*%
%ADD18R,0.740000X2.220000*%
%ADD19R,0.900000X0.750000*%
G04 APERTURE END LIST*
D10*
X107858333Y-107286667D02*
X107858333Y-106820000D01*
X107858333Y-106886667D02*
X107825000Y-106853333D01*
X107758333Y-106820000D01*
X107658333Y-106820000D01*
X107591667Y-106853333D01*
X107558333Y-106920000D01*
X107558333Y-107286667D01*
X107558333Y-106920000D02*
X107525000Y-106853333D01*
X107458333Y-106820000D01*
X107358333Y-106820000D01*
X107291667Y-106853333D01*
X107258333Y-106920000D01*
X107258333Y-107286667D01*
X106991667Y-106586667D02*
X106558334Y-106586667D01*
X106791667Y-106853333D01*
X106691667Y-106853333D01*
X106625000Y-106886667D01*
X106591667Y-106920000D01*
X106558334Y-106986667D01*
X106558334Y-107153333D01*
X106591667Y-107220000D01*
X106625000Y-107253333D01*
X106691667Y-107286667D01*
X106891667Y-107286667D01*
X106958334Y-107253333D01*
X106991667Y-107220000D01*
X105958333Y-107286667D02*
X105958333Y-106586667D01*
X105958333Y-107253333D02*
X106025000Y-107286667D01*
X106158333Y-107286667D01*
X106225000Y-107253333D01*
X106258333Y-107220000D01*
X106291667Y-107153333D01*
X106291667Y-106953333D01*
X106258333Y-106886667D01*
X106225000Y-106853333D01*
X106158333Y-106820000D01*
X106025000Y-106820000D01*
X105958333Y-106853333D01*
X105525000Y-107286667D02*
X105591667Y-107253333D01*
X105625000Y-107186667D01*
X105625000Y-106586667D01*
X104725000Y-107020000D02*
X104191667Y-107020000D01*
X103358334Y-107253333D02*
X103258334Y-107286667D01*
X103091667Y-107286667D01*
X103025000Y-107253333D01*
X102991667Y-107220000D01*
X102958334Y-107153333D01*
X102958334Y-107086667D01*
X102991667Y-107020000D01*
X103025000Y-106986667D01*
X103091667Y-106953333D01*
X103225000Y-106920000D01*
X103291667Y-106886667D01*
X103325000Y-106853333D01*
X103358334Y-106786667D01*
X103358334Y-106720000D01*
X103325000Y-106653333D01*
X103291667Y-106620000D01*
X103225000Y-106586667D01*
X103058334Y-106586667D01*
X102958334Y-106620000D01*
X102758333Y-106820000D02*
X102491667Y-106820000D01*
X102658333Y-106586667D02*
X102658333Y-107186667D01*
X102625000Y-107253333D01*
X102558333Y-107286667D01*
X102491667Y-107286667D01*
X102258333Y-107286667D02*
X102258333Y-106820000D01*
X102258333Y-106953333D02*
X102225000Y-106886667D01*
X102191667Y-106853333D01*
X102125000Y-106820000D01*
X102058333Y-106820000D01*
X101525000Y-107286667D02*
X101525000Y-106920000D01*
X101558334Y-106853333D01*
X101625000Y-106820000D01*
X101758334Y-106820000D01*
X101825000Y-106853333D01*
X101525000Y-107253333D02*
X101591667Y-107286667D01*
X101758334Y-107286667D01*
X101825000Y-107253333D01*
X101858334Y-107186667D01*
X101858334Y-107120000D01*
X101825000Y-107053333D01*
X101758334Y-107020000D01*
X101591667Y-107020000D01*
X101525000Y-106986667D01*
X101191667Y-107286667D02*
X101191667Y-106820000D01*
X101191667Y-106586667D02*
X101225001Y-106620000D01*
X101191667Y-106653333D01*
X101158334Y-106620000D01*
X101191667Y-106586667D01*
X101191667Y-106653333D01*
X100858334Y-106820000D02*
X100858334Y-107286667D01*
X100858334Y-106886667D02*
X100825001Y-106853333D01*
X100758334Y-106820000D01*
X100658334Y-106820000D01*
X100591668Y-106853333D01*
X100558334Y-106920000D01*
X100558334Y-107286667D01*
X99691668Y-107286667D02*
X99691668Y-106820000D01*
X99691668Y-106953333D02*
X99658335Y-106886667D01*
X99625002Y-106853333D01*
X99558335Y-106820000D01*
X99491668Y-106820000D01*
X98891669Y-107286667D02*
X99291669Y-107286667D01*
X99091669Y-107286667D02*
X99091669Y-106586667D01*
X99158335Y-106686667D01*
X99225002Y-106753333D01*
X99291669Y-106786667D01*
X107858333Y-108366667D02*
X107858333Y-107666667D01*
X107625000Y-108166667D01*
X107391667Y-107666667D01*
X107391667Y-108366667D01*
X106758333Y-108366667D02*
X106758333Y-108000000D01*
X106791667Y-107933333D01*
X106858333Y-107900000D01*
X106991667Y-107900000D01*
X107058333Y-107933333D01*
X106758333Y-108333333D02*
X106825000Y-108366667D01*
X106991667Y-108366667D01*
X107058333Y-108333333D01*
X107091667Y-108266667D01*
X107091667Y-108200000D01*
X107058333Y-108133333D01*
X106991667Y-108100000D01*
X106825000Y-108100000D01*
X106758333Y-108066667D01*
X106525000Y-107900000D02*
X106258334Y-107900000D01*
X106425000Y-107666667D02*
X106425000Y-108266667D01*
X106391667Y-108333333D01*
X106325000Y-108366667D01*
X106258334Y-108366667D01*
X106125000Y-107900000D02*
X105858334Y-107900000D01*
X106025000Y-107666667D02*
X106025000Y-108266667D01*
X105991667Y-108333333D01*
X105925000Y-108366667D01*
X105858334Y-108366667D01*
X104691667Y-108300000D02*
X104725001Y-108333333D01*
X104825001Y-108366667D01*
X104891667Y-108366667D01*
X104991667Y-108333333D01*
X105058334Y-108266667D01*
X105091667Y-108200000D01*
X105125001Y-108066667D01*
X105125001Y-107966667D01*
X105091667Y-107833333D01*
X105058334Y-107766667D01*
X104991667Y-107700000D01*
X104891667Y-107666667D01*
X104825001Y-107666667D01*
X104725001Y-107700000D01*
X104691667Y-107733333D01*
X104291667Y-108366667D02*
X104358334Y-108333333D01*
X104391667Y-108300000D01*
X104425001Y-108233333D01*
X104425001Y-108033333D01*
X104391667Y-107966667D01*
X104358334Y-107933333D01*
X104291667Y-107900000D01*
X104191667Y-107900000D01*
X104125001Y-107933333D01*
X104091667Y-107966667D01*
X104058334Y-108033333D01*
X104058334Y-108233333D01*
X104091667Y-108300000D01*
X104125001Y-108333333D01*
X104191667Y-108366667D01*
X104291667Y-108366667D01*
X103458334Y-108366667D02*
X103458334Y-108000000D01*
X103491668Y-107933333D01*
X103558334Y-107900000D01*
X103691668Y-107900000D01*
X103758334Y-107933333D01*
X103458334Y-108333333D02*
X103525001Y-108366667D01*
X103691668Y-108366667D01*
X103758334Y-108333333D01*
X103791668Y-108266667D01*
X103791668Y-108200000D01*
X103758334Y-108133333D01*
X103691668Y-108100000D01*
X103525001Y-108100000D01*
X103458334Y-108066667D01*
X103225001Y-107900000D02*
X102958335Y-107900000D01*
X103125001Y-107666667D02*
X103125001Y-108266667D01*
X103091668Y-108333333D01*
X103025001Y-108366667D01*
X102958335Y-108366667D01*
X102458335Y-108333333D02*
X102525001Y-108366667D01*
X102658335Y-108366667D01*
X102725001Y-108333333D01*
X102758335Y-108266667D01*
X102758335Y-108000000D01*
X102725001Y-107933333D01*
X102658335Y-107900000D01*
X102525001Y-107900000D01*
X102458335Y-107933333D01*
X102425001Y-108000000D01*
X102425001Y-108066667D01*
X102758335Y-108133333D01*
X102158335Y-108333333D02*
X102091668Y-108366667D01*
X101958335Y-108366667D01*
X101891668Y-108333333D01*
X101858335Y-108266667D01*
X101858335Y-108233333D01*
X101891668Y-108166667D01*
X101958335Y-108133333D01*
X102058335Y-108133333D01*
X102125001Y-108100000D01*
X102158335Y-108033333D01*
X102158335Y-108000000D01*
X102125001Y-107933333D01*
X102058335Y-107900000D01*
X101958335Y-107900000D01*
X101891668Y-107933333D01*
X107491667Y-109446667D02*
X107891667Y-109446667D01*
X107691667Y-109446667D02*
X107691667Y-108746667D01*
X107758333Y-108846667D01*
X107825000Y-108913333D01*
X107891667Y-108946667D01*
X106825000Y-109446667D02*
X107225000Y-109446667D01*
X107025000Y-109446667D02*
X107025000Y-108746667D01*
X107091666Y-108846667D01*
X107158333Y-108913333D01*
X107225000Y-108946667D01*
X106024999Y-108713333D02*
X106624999Y-109613333D01*
X105658333Y-108746667D02*
X105591666Y-108746667D01*
X105525000Y-108780000D01*
X105491666Y-108813333D01*
X105458333Y-108880000D01*
X105425000Y-109013333D01*
X105425000Y-109180000D01*
X105458333Y-109313333D01*
X105491666Y-109380000D01*
X105525000Y-109413333D01*
X105591666Y-109446667D01*
X105658333Y-109446667D01*
X105725000Y-109413333D01*
X105758333Y-109380000D01*
X105791666Y-109313333D01*
X105825000Y-109180000D01*
X105825000Y-109013333D01*
X105791666Y-108880000D01*
X105758333Y-108813333D01*
X105725000Y-108780000D01*
X105658333Y-108746667D01*
X105191666Y-108746667D02*
X104758333Y-108746667D01*
X104991666Y-109013333D01*
X104891666Y-109013333D01*
X104824999Y-109046667D01*
X104791666Y-109080000D01*
X104758333Y-109146667D01*
X104758333Y-109313333D01*
X104791666Y-109380000D01*
X104824999Y-109413333D01*
X104891666Y-109446667D01*
X105091666Y-109446667D01*
X105158333Y-109413333D01*
X105191666Y-109380000D01*
X103958332Y-108713333D02*
X104558332Y-109613333D01*
X103358333Y-109446667D02*
X103758333Y-109446667D01*
X103558333Y-109446667D02*
X103558333Y-108746667D01*
X103624999Y-108846667D01*
X103691666Y-108913333D01*
X103758333Y-108946667D01*
X102758332Y-108746667D02*
X102891666Y-108746667D01*
X102958332Y-108780000D01*
X102991666Y-108813333D01*
X103058332Y-108913333D01*
X103091666Y-109046667D01*
X103091666Y-109313333D01*
X103058332Y-109380000D01*
X103024999Y-109413333D01*
X102958332Y-109446667D01*
X102824999Y-109446667D01*
X102758332Y-109413333D01*
X102724999Y-109380000D01*
X102691666Y-109313333D01*
X102691666Y-109146667D01*
X102724999Y-109080000D01*
X102758332Y-109046667D01*
X102824999Y-109013333D01*
X102958332Y-109013333D01*
X103024999Y-109046667D01*
X103058332Y-109080000D01*
X103091666Y-109146667D01*
D11*
X110038095Y-90490476D02*
X110038095Y-89995238D01*
X109733333Y-90261905D01*
X109733333Y-90147619D01*
X109695238Y-90071429D01*
X109657143Y-90033333D01*
X109580952Y-89995238D01*
X109390476Y-89995238D01*
X109314286Y-90033333D01*
X109276190Y-90071429D01*
X109238095Y-90147619D01*
X109238095Y-90376191D01*
X109276190Y-90452381D01*
X109314286Y-90490476D01*
X110038095Y-89766667D02*
X109238095Y-89500000D01*
X110038095Y-89233333D01*
X110038095Y-89042857D02*
X110038095Y-88547619D01*
X109733333Y-88814286D01*
X109733333Y-88700000D01*
X109695238Y-88623810D01*
X109657143Y-88585714D01*
X109580952Y-88547619D01*
X109390476Y-88547619D01*
X109314286Y-88585714D01*
X109276190Y-88623810D01*
X109238095Y-88700000D01*
X109238095Y-88928572D01*
X109276190Y-89004762D01*
X109314286Y-89042857D01*
X108076190Y-90504762D02*
X108038095Y-90390476D01*
X108038095Y-90200000D01*
X108076190Y-90123810D01*
X108114286Y-90085714D01*
X108190476Y-90047619D01*
X108266667Y-90047619D01*
X108342857Y-90085714D01*
X108380952Y-90123810D01*
X108419048Y-90200000D01*
X108457143Y-90352381D01*
X108495238Y-90428572D01*
X108533333Y-90466667D01*
X108609524Y-90504762D01*
X108685714Y-90504762D01*
X108761905Y-90466667D01*
X108800000Y-90428572D01*
X108838095Y-90352381D01*
X108838095Y-90161905D01*
X108800000Y-90047619D01*
X108800000Y-89285714D02*
X108838095Y-89361905D01*
X108838095Y-89476190D01*
X108800000Y-89590476D01*
X108723810Y-89666667D01*
X108647619Y-89704762D01*
X108495238Y-89742857D01*
X108380952Y-89742857D01*
X108228571Y-89704762D01*
X108152381Y-89666667D01*
X108076190Y-89590476D01*
X108038095Y-89476190D01*
X108038095Y-89400000D01*
X108076190Y-89285714D01*
X108114286Y-89247619D01*
X108380952Y-89247619D01*
X108380952Y-89400000D01*
X108838095Y-88561905D02*
X108838095Y-88714286D01*
X108800000Y-88790476D01*
X108761905Y-88828571D01*
X108647619Y-88904762D01*
X108495238Y-88942857D01*
X108190476Y-88942857D01*
X108114286Y-88904762D01*
X108076190Y-88866667D01*
X108038095Y-88790476D01*
X108038095Y-88638095D01*
X108076190Y-88561905D01*
X108114286Y-88523809D01*
X108190476Y-88485714D01*
X108380952Y-88485714D01*
X108457143Y-88523809D01*
X108495238Y-88561905D01*
X108533333Y-88638095D01*
X108533333Y-88790476D01*
X108495238Y-88866667D01*
X108457143Y-88904762D01*
X108380952Y-88942857D01*
X108342857Y-88142857D02*
X108342857Y-87533333D01*
X108038095Y-87838095D02*
X108647619Y-87838095D01*
X106876190Y-90404762D02*
X106838095Y-90290476D01*
X106838095Y-90100000D01*
X106876190Y-90023810D01*
X106914286Y-89985714D01*
X106990476Y-89947619D01*
X107066667Y-89947619D01*
X107142857Y-89985714D01*
X107180952Y-90023810D01*
X107219048Y-90100000D01*
X107257143Y-90252381D01*
X107295238Y-90328572D01*
X107333333Y-90366667D01*
X107409524Y-90404762D01*
X107485714Y-90404762D01*
X107561905Y-90366667D01*
X107600000Y-90328572D01*
X107638095Y-90252381D01*
X107638095Y-90061905D01*
X107600000Y-89947619D01*
X107600000Y-89185714D02*
X107638095Y-89261905D01*
X107638095Y-89376190D01*
X107600000Y-89490476D01*
X107523810Y-89566667D01*
X107447619Y-89604762D01*
X107295238Y-89642857D01*
X107180952Y-89642857D01*
X107028571Y-89604762D01*
X106952381Y-89566667D01*
X106876190Y-89490476D01*
X106838095Y-89376190D01*
X106838095Y-89300000D01*
X106876190Y-89185714D01*
X106914286Y-89147619D01*
X107180952Y-89147619D01*
X107180952Y-89300000D01*
X107638095Y-88461905D02*
X107638095Y-88614286D01*
X107600000Y-88690476D01*
X107561905Y-88728571D01*
X107447619Y-88804762D01*
X107295238Y-88842857D01*
X106990476Y-88842857D01*
X106914286Y-88804762D01*
X106876190Y-88766667D01*
X106838095Y-88690476D01*
X106838095Y-88538095D01*
X106876190Y-88461905D01*
X106914286Y-88423809D01*
X106990476Y-88385714D01*
X107180952Y-88385714D01*
X107257143Y-88423809D01*
X107295238Y-88461905D01*
X107333333Y-88538095D01*
X107333333Y-88690476D01*
X107295238Y-88766667D01*
X107257143Y-88804762D01*
X107180952Y-88842857D01*
X107142857Y-88042857D02*
X107142857Y-87433333D01*
X106200000Y-89909523D02*
X106238095Y-89985714D01*
X106238095Y-90099999D01*
X106200000Y-90214285D01*
X106123810Y-90290476D01*
X106047619Y-90328571D01*
X105895238Y-90366666D01*
X105780952Y-90366666D01*
X105628571Y-90328571D01*
X105552381Y-90290476D01*
X105476190Y-90214285D01*
X105438095Y-90099999D01*
X105438095Y-90023809D01*
X105476190Y-89909523D01*
X105514286Y-89871428D01*
X105780952Y-89871428D01*
X105780952Y-90023809D01*
X105438095Y-89528571D02*
X106238095Y-89528571D01*
X105438095Y-89071428D01*
X106238095Y-89071428D01*
X105438095Y-88690476D02*
X106238095Y-88690476D01*
X106238095Y-88500000D01*
X106200000Y-88385714D01*
X106123810Y-88309523D01*
X106047619Y-88271428D01*
X105895238Y-88233333D01*
X105780952Y-88233333D01*
X105628571Y-88271428D01*
X105552381Y-88309523D01*
X105476190Y-88385714D01*
X105438095Y-88500000D01*
X105438095Y-88690476D01*
X98400000Y-89909523D02*
X98438095Y-89985714D01*
X98438095Y-90099999D01*
X98400000Y-90214285D01*
X98323810Y-90290476D01*
X98247619Y-90328571D01*
X98095238Y-90366666D01*
X97980952Y-90366666D01*
X97828571Y-90328571D01*
X97752381Y-90290476D01*
X97676190Y-90214285D01*
X97638095Y-90099999D01*
X97638095Y-90023809D01*
X97676190Y-89909523D01*
X97714286Y-89871428D01*
X97980952Y-89871428D01*
X97980952Y-90023809D01*
X97638095Y-89528571D02*
X98438095Y-89528571D01*
X97638095Y-89071428D01*
X98438095Y-89071428D01*
X97638095Y-88690476D02*
X98438095Y-88690476D01*
X98438095Y-88500000D01*
X98400000Y-88385714D01*
X98323810Y-88309523D01*
X98247619Y-88271428D01*
X98095238Y-88233333D01*
X97980952Y-88233333D01*
X97828571Y-88271428D01*
X97752381Y-88309523D01*
X97676190Y-88385714D01*
X97638095Y-88500000D01*
X97638095Y-88690476D01*
X102238095Y-90490476D02*
X102238095Y-89995238D01*
X101933333Y-90261905D01*
X101933333Y-90147619D01*
X101895238Y-90071429D01*
X101857143Y-90033333D01*
X101780952Y-89995238D01*
X101590476Y-89995238D01*
X101514286Y-90033333D01*
X101476190Y-90071429D01*
X101438095Y-90147619D01*
X101438095Y-90376191D01*
X101476190Y-90452381D01*
X101514286Y-90490476D01*
X102238095Y-89766667D02*
X101438095Y-89500000D01*
X102238095Y-89233333D01*
X102238095Y-89042857D02*
X102238095Y-88547619D01*
X101933333Y-88814286D01*
X101933333Y-88700000D01*
X101895238Y-88623810D01*
X101857143Y-88585714D01*
X101780952Y-88547619D01*
X101590476Y-88547619D01*
X101514286Y-88585714D01*
X101476190Y-88623810D01*
X101438095Y-88700000D01*
X101438095Y-88928572D01*
X101476190Y-89004762D01*
X101514286Y-89042857D01*
X99076190Y-90404762D02*
X99038095Y-90290476D01*
X99038095Y-90100000D01*
X99076190Y-90023810D01*
X99114286Y-89985714D01*
X99190476Y-89947619D01*
X99266667Y-89947619D01*
X99342857Y-89985714D01*
X99380952Y-90023810D01*
X99419048Y-90100000D01*
X99457143Y-90252381D01*
X99495238Y-90328572D01*
X99533333Y-90366667D01*
X99609524Y-90404762D01*
X99685714Y-90404762D01*
X99761905Y-90366667D01*
X99800000Y-90328572D01*
X99838095Y-90252381D01*
X99838095Y-90061905D01*
X99800000Y-89947619D01*
X99800000Y-89185714D02*
X99838095Y-89261905D01*
X99838095Y-89376190D01*
X99800000Y-89490476D01*
X99723810Y-89566667D01*
X99647619Y-89604762D01*
X99495238Y-89642857D01*
X99380952Y-89642857D01*
X99228571Y-89604762D01*
X99152381Y-89566667D01*
X99076190Y-89490476D01*
X99038095Y-89376190D01*
X99038095Y-89300000D01*
X99076190Y-89185714D01*
X99114286Y-89147619D01*
X99380952Y-89147619D01*
X99380952Y-89300000D01*
X99838095Y-88423809D02*
X99838095Y-88804762D01*
X99457143Y-88842857D01*
X99495238Y-88804762D01*
X99533333Y-88728571D01*
X99533333Y-88538095D01*
X99495238Y-88461905D01*
X99457143Y-88423809D01*
X99380952Y-88385714D01*
X99190476Y-88385714D01*
X99114286Y-88423809D01*
X99076190Y-88461905D01*
X99038095Y-88538095D01*
X99038095Y-88728571D01*
X99076190Y-88804762D01*
X99114286Y-88842857D01*
X99342857Y-88042857D02*
X99342857Y-87433333D01*
X100276190Y-90504762D02*
X100238095Y-90390476D01*
X100238095Y-90200000D01*
X100276190Y-90123810D01*
X100314286Y-90085714D01*
X100390476Y-90047619D01*
X100466667Y-90047619D01*
X100542857Y-90085714D01*
X100580952Y-90123810D01*
X100619048Y-90200000D01*
X100657143Y-90352381D01*
X100695238Y-90428572D01*
X100733333Y-90466667D01*
X100809524Y-90504762D01*
X100885714Y-90504762D01*
X100961905Y-90466667D01*
X101000000Y-90428572D01*
X101038095Y-90352381D01*
X101038095Y-90161905D01*
X101000000Y-90047619D01*
X101000000Y-89285714D02*
X101038095Y-89361905D01*
X101038095Y-89476190D01*
X101000000Y-89590476D01*
X100923810Y-89666667D01*
X100847619Y-89704762D01*
X100695238Y-89742857D01*
X100580952Y-89742857D01*
X100428571Y-89704762D01*
X100352381Y-89666667D01*
X100276190Y-89590476D01*
X100238095Y-89476190D01*
X100238095Y-89400000D01*
X100276190Y-89285714D01*
X100314286Y-89247619D01*
X100580952Y-89247619D01*
X100580952Y-89400000D01*
X101038095Y-88523809D02*
X101038095Y-88904762D01*
X100657143Y-88942857D01*
X100695238Y-88904762D01*
X100733333Y-88828571D01*
X100733333Y-88638095D01*
X100695238Y-88561905D01*
X100657143Y-88523809D01*
X100580952Y-88485714D01*
X100390476Y-88485714D01*
X100314286Y-88523809D01*
X100276190Y-88561905D01*
X100238095Y-88638095D01*
X100238095Y-88828571D01*
X100276190Y-88904762D01*
X100314286Y-88942857D01*
X100542857Y-88142857D02*
X100542857Y-87533333D01*
X100238095Y-87838095D02*
X100847619Y-87838095D01*
X90700000Y-89909523D02*
X90738095Y-89985714D01*
X90738095Y-90099999D01*
X90700000Y-90214285D01*
X90623810Y-90290476D01*
X90547619Y-90328571D01*
X90395238Y-90366666D01*
X90280952Y-90366666D01*
X90128571Y-90328571D01*
X90052381Y-90290476D01*
X89976190Y-90214285D01*
X89938095Y-90099999D01*
X89938095Y-90023809D01*
X89976190Y-89909523D01*
X90014286Y-89871428D01*
X90280952Y-89871428D01*
X90280952Y-90023809D01*
X89938095Y-89528571D02*
X90738095Y-89528571D01*
X89938095Y-89071428D01*
X90738095Y-89071428D01*
X89938095Y-88690476D02*
X90738095Y-88690476D01*
X90738095Y-88500000D01*
X90700000Y-88385714D01*
X90623810Y-88309523D01*
X90547619Y-88271428D01*
X90395238Y-88233333D01*
X90280952Y-88233333D01*
X90128571Y-88271428D01*
X90052381Y-88309523D01*
X89976190Y-88385714D01*
X89938095Y-88500000D01*
X89938095Y-88690476D01*
X91376190Y-90404762D02*
X91338095Y-90290476D01*
X91338095Y-90100000D01*
X91376190Y-90023810D01*
X91414286Y-89985714D01*
X91490476Y-89947619D01*
X91566667Y-89947619D01*
X91642857Y-89985714D01*
X91680952Y-90023810D01*
X91719048Y-90100000D01*
X91757143Y-90252381D01*
X91795238Y-90328572D01*
X91833333Y-90366667D01*
X91909524Y-90404762D01*
X91985714Y-90404762D01*
X92061905Y-90366667D01*
X92100000Y-90328572D01*
X92138095Y-90252381D01*
X92138095Y-90061905D01*
X92100000Y-89947619D01*
X92100000Y-89185714D02*
X92138095Y-89261905D01*
X92138095Y-89376190D01*
X92100000Y-89490476D01*
X92023810Y-89566667D01*
X91947619Y-89604762D01*
X91795238Y-89642857D01*
X91680952Y-89642857D01*
X91528571Y-89604762D01*
X91452381Y-89566667D01*
X91376190Y-89490476D01*
X91338095Y-89376190D01*
X91338095Y-89300000D01*
X91376190Y-89185714D01*
X91414286Y-89147619D01*
X91680952Y-89147619D01*
X91680952Y-89300000D01*
X91871429Y-88461905D02*
X91338095Y-88461905D01*
X92176190Y-88652381D02*
X91604762Y-88842857D01*
X91604762Y-88347619D01*
X91642857Y-88042857D02*
X91642857Y-87433333D01*
X92576190Y-90504762D02*
X92538095Y-90390476D01*
X92538095Y-90200000D01*
X92576190Y-90123810D01*
X92614286Y-90085714D01*
X92690476Y-90047619D01*
X92766667Y-90047619D01*
X92842857Y-90085714D01*
X92880952Y-90123810D01*
X92919048Y-90200000D01*
X92957143Y-90352381D01*
X92995238Y-90428572D01*
X93033333Y-90466667D01*
X93109524Y-90504762D01*
X93185714Y-90504762D01*
X93261905Y-90466667D01*
X93300000Y-90428572D01*
X93338095Y-90352381D01*
X93338095Y-90161905D01*
X93300000Y-90047619D01*
X93300000Y-89285714D02*
X93338095Y-89361905D01*
X93338095Y-89476190D01*
X93300000Y-89590476D01*
X93223810Y-89666667D01*
X93147619Y-89704762D01*
X92995238Y-89742857D01*
X92880952Y-89742857D01*
X92728571Y-89704762D01*
X92652381Y-89666667D01*
X92576190Y-89590476D01*
X92538095Y-89476190D01*
X92538095Y-89400000D01*
X92576190Y-89285714D01*
X92614286Y-89247619D01*
X92880952Y-89247619D01*
X92880952Y-89400000D01*
X93071429Y-88561905D02*
X92538095Y-88561905D01*
X93376190Y-88752381D02*
X92804762Y-88942857D01*
X92804762Y-88447619D01*
X92842857Y-88142857D02*
X92842857Y-87533333D01*
X92538095Y-87838095D02*
X93147619Y-87838095D01*
X94538095Y-90490476D02*
X94538095Y-89995238D01*
X94233333Y-90261905D01*
X94233333Y-90147619D01*
X94195238Y-90071429D01*
X94157143Y-90033333D01*
X94080952Y-89995238D01*
X93890476Y-89995238D01*
X93814286Y-90033333D01*
X93776190Y-90071429D01*
X93738095Y-90147619D01*
X93738095Y-90376191D01*
X93776190Y-90452381D01*
X93814286Y-90490476D01*
X94538095Y-89766667D02*
X93738095Y-89500000D01*
X94538095Y-89233333D01*
X94538095Y-89042857D02*
X94538095Y-88547619D01*
X94233333Y-88814286D01*
X94233333Y-88700000D01*
X94195238Y-88623810D01*
X94157143Y-88585714D01*
X94080952Y-88547619D01*
X93890476Y-88547619D01*
X93814286Y-88585714D01*
X93776190Y-88623810D01*
X93738095Y-88700000D01*
X93738095Y-88928572D01*
X93776190Y-89004762D01*
X93814286Y-89042857D01*
X109883333Y-99111905D02*
X110150000Y-98730952D01*
X110340476Y-99111905D02*
X110340476Y-98311905D01*
X110035714Y-98311905D01*
X109959523Y-98350000D01*
X109921428Y-98388095D01*
X109883333Y-98464286D01*
X109883333Y-98578571D01*
X109921428Y-98654762D01*
X109959523Y-98692857D01*
X110035714Y-98730952D01*
X110340476Y-98730952D01*
X109502381Y-99111905D02*
X109350000Y-99111905D01*
X109273809Y-99073810D01*
X109235714Y-99035714D01*
X109159523Y-98921429D01*
X109121428Y-98769048D01*
X109121428Y-98464286D01*
X109159523Y-98388095D01*
X109197619Y-98350000D01*
X109273809Y-98311905D01*
X109426190Y-98311905D01*
X109502381Y-98350000D01*
X109540476Y-98388095D01*
X109578571Y-98464286D01*
X109578571Y-98654762D01*
X109540476Y-98730952D01*
X109502381Y-98769048D01*
X109426190Y-98807143D01*
X109273809Y-98807143D01*
X109197619Y-98769048D01*
X109159523Y-98730952D01*
X109121428Y-98654762D01*
X102764286Y-99111905D02*
X103030953Y-98730952D01*
X103221429Y-99111905D02*
X103221429Y-98311905D01*
X102916667Y-98311905D01*
X102840476Y-98350000D01*
X102802381Y-98388095D01*
X102764286Y-98464286D01*
X102764286Y-98578571D01*
X102802381Y-98654762D01*
X102840476Y-98692857D01*
X102916667Y-98730952D01*
X103221429Y-98730952D01*
X102459524Y-98388095D02*
X102421429Y-98350000D01*
X102345238Y-98311905D01*
X102154762Y-98311905D01*
X102078572Y-98350000D01*
X102040476Y-98388095D01*
X102002381Y-98464286D01*
X102002381Y-98540476D01*
X102040476Y-98654762D01*
X102497619Y-99111905D01*
X102002381Y-99111905D01*
X101735714Y-98311905D02*
X101240476Y-98311905D01*
X101507143Y-98616667D01*
X101392857Y-98616667D01*
X101316667Y-98654762D01*
X101278571Y-98692857D01*
X101240476Y-98769048D01*
X101240476Y-98959524D01*
X101278571Y-99035714D01*
X101316667Y-99073810D01*
X101392857Y-99111905D01*
X101621429Y-99111905D01*
X101697619Y-99073810D01*
X101735714Y-99035714D01*
X95264286Y-99111905D02*
X95530953Y-98730952D01*
X95721429Y-99111905D02*
X95721429Y-98311905D01*
X95416667Y-98311905D01*
X95340476Y-98350000D01*
X95302381Y-98388095D01*
X95264286Y-98464286D01*
X95264286Y-98578571D01*
X95302381Y-98654762D01*
X95340476Y-98692857D01*
X95416667Y-98730952D01*
X95721429Y-98730952D01*
X94502381Y-99111905D02*
X94959524Y-99111905D01*
X94730953Y-99111905D02*
X94730953Y-98311905D01*
X94807143Y-98426190D01*
X94883334Y-98502381D01*
X94959524Y-98540476D01*
X94007143Y-98311905D02*
X93930952Y-98311905D01*
X93854762Y-98350000D01*
X93816667Y-98388095D01*
X93778571Y-98464286D01*
X93740476Y-98616667D01*
X93740476Y-98807143D01*
X93778571Y-98959524D01*
X93816667Y-99035714D01*
X93854762Y-99073810D01*
X93930952Y-99111905D01*
X94007143Y-99111905D01*
X94083333Y-99073810D01*
X94121429Y-99035714D01*
X94159524Y-98959524D01*
X94197619Y-98807143D01*
X94197619Y-98616667D01*
X94159524Y-98464286D01*
X94121429Y-98388095D01*
X94083333Y-98350000D01*
X94007143Y-98311905D01*
D12*
X83550000Y-106465000D02*
X84315000Y-106465000D01*
X84315000Y-106465000D02*
X84315000Y-108245000D01*
X84315000Y-108245000D02*
X85685000Y-108245000D01*
X85685000Y-108245000D02*
X85685000Y-106465000D01*
X85685000Y-106465000D02*
X86450000Y-106465000D01*
X86450000Y-106465000D02*
X86450000Y-106165000D01*
X86450000Y-93835000D02*
X86450000Y-93535000D01*
X86450000Y-93535000D02*
X85685000Y-93535000D01*
X85685000Y-93535000D02*
X85685000Y-91755000D01*
X85685000Y-91755000D02*
X84315000Y-91755000D01*
X84315000Y-91755000D02*
X84315000Y-93535000D01*
X84315000Y-93535000D02*
X83550000Y-93535000D01*
X113550000Y-106465000D02*
X114315000Y-106465000D01*
X114315000Y-106465000D02*
X114315000Y-108245000D01*
X114315000Y-108245000D02*
X115685000Y-108245000D01*
X115685000Y-108245000D02*
X115685000Y-106465000D01*
X115685000Y-106465000D02*
X116450000Y-106465000D01*
X116450000Y-106465000D02*
X116450000Y-106165000D01*
X116450000Y-93835000D02*
X116450000Y-93535000D01*
X116450000Y-93535000D02*
X115685000Y-93535000D01*
X115685000Y-93535000D02*
X115685000Y-91755000D01*
X115685000Y-91755000D02*
X114315000Y-91755000D01*
X114315000Y-91755000D02*
X114315000Y-93535000D01*
X114315000Y-93535000D02*
X113550000Y-93535000D01*
X106465000Y-116450000D02*
X106465000Y-115685000D01*
X106465000Y-115685000D02*
X108245000Y-115685000D01*
X108245000Y-115685000D02*
X108245000Y-114315000D01*
X108245000Y-114315000D02*
X106465000Y-114315000D01*
X106465000Y-114315000D02*
X106465000Y-113550000D01*
X106465000Y-113550000D02*
X106165000Y-113550000D01*
X93835000Y-113550000D02*
X93535000Y-113550000D01*
X93535000Y-113550000D02*
X93535000Y-114315000D01*
X93535000Y-114315000D02*
X91755000Y-114315000D01*
X91755000Y-114315000D02*
X91755000Y-115685000D01*
X91755000Y-115685000D02*
X93535000Y-115685000D01*
X93535000Y-115685000D02*
X93535000Y-116450000D01*
X101875000Y-96675000D02*
X101875000Y-96925000D01*
X101875000Y-96925000D02*
X102525000Y-96925000D01*
X102525000Y-96925000D02*
X102525000Y-96675000D01*
X102525000Y-96675000D02*
X101875000Y-96675000D01*
X94375000Y-96675000D02*
X94375000Y-96925000D01*
X94375000Y-96925000D02*
X95025000Y-96925000D01*
X95025000Y-96925000D02*
X95025000Y-96675000D01*
X95025000Y-96675000D02*
X94375000Y-96675000D01*
X109375000Y-96675000D02*
X109375000Y-96925000D01*
X109375000Y-96925000D02*
X110025000Y-96925000D01*
X110025000Y-96925000D02*
X110025000Y-96675000D01*
X110025000Y-96675000D02*
X109375000Y-96675000D01*
D13*
G36*
X110352031Y-108566705D02*
X110317847Y-108587074D01*
X110267055Y-108619287D01*
X110201712Y-108661923D01*
X110123876Y-108713562D01*
X110035606Y-108772784D01*
X109938961Y-108838167D01*
X109835997Y-108908292D01*
X109728774Y-108981739D01*
X109619350Y-109057086D01*
X109509782Y-109132914D01*
X109402130Y-109207802D01*
X109298451Y-109280329D01*
X109200803Y-109349077D01*
X109111245Y-109412623D01*
X109031834Y-109469548D01*
X108964630Y-109518431D01*
X108911690Y-109557852D01*
X108875072Y-109586391D01*
X108858025Y-109601333D01*
X108827032Y-109638505D01*
X108812822Y-109671069D01*
X108810400Y-109695758D01*
X108812552Y-109720237D01*
X108820332Y-109735526D01*
X108835724Y-109740802D01*
X108860715Y-109735246D01*
X108897289Y-109718036D01*
X108947433Y-109688350D01*
X109013131Y-109645369D01*
X109096370Y-109588270D01*
X109134250Y-109561833D01*
X109202023Y-109514460D01*
X109286702Y-109455392D01*
X109384315Y-109387396D01*
X109490885Y-109313237D01*
X109602438Y-109235681D01*
X109714999Y-109157494D01*
X109824594Y-109081441D01*
X109848615Y-109064782D01*
X109946495Y-108996692D01*
X110039297Y-108931710D01*
X110124630Y-108871540D01*
X110200103Y-108817889D01*
X110263323Y-108772462D01*
X110311899Y-108736963D01*
X110343441Y-108713097D01*
X110353440Y-108704848D01*
X110382321Y-108674095D01*
X110395248Y-108644941D01*
X110397900Y-108611862D01*
X110396214Y-108578474D01*
X110388441Y-108563398D01*
X110370511Y-108559625D01*
X110367548Y-108559600D01*
X110352031Y-108566705D01*
X110352031Y-108566705D01*
G37*
X110352031Y-108566705D02*
X110317847Y-108587074D01*
X110267055Y-108619287D01*
X110201712Y-108661923D01*
X110123876Y-108713562D01*
X110035606Y-108772784D01*
X109938961Y-108838167D01*
X109835997Y-108908292D01*
X109728774Y-108981739D01*
X109619350Y-109057086D01*
X109509782Y-109132914D01*
X109402130Y-109207802D01*
X109298451Y-109280329D01*
X109200803Y-109349077D01*
X109111245Y-109412623D01*
X109031834Y-109469548D01*
X108964630Y-109518431D01*
X108911690Y-109557852D01*
X108875072Y-109586391D01*
X108858025Y-109601333D01*
X108827032Y-109638505D01*
X108812822Y-109671069D01*
X108810400Y-109695758D01*
X108812552Y-109720237D01*
X108820332Y-109735526D01*
X108835724Y-109740802D01*
X108860715Y-109735246D01*
X108897289Y-109718036D01*
X108947433Y-109688350D01*
X109013131Y-109645369D01*
X109096370Y-109588270D01*
X109134250Y-109561833D01*
X109202023Y-109514460D01*
X109286702Y-109455392D01*
X109384315Y-109387396D01*
X109490885Y-109313237D01*
X109602438Y-109235681D01*
X109714999Y-109157494D01*
X109824594Y-109081441D01*
X109848615Y-109064782D01*
X109946495Y-108996692D01*
X110039297Y-108931710D01*
X110124630Y-108871540D01*
X110200103Y-108817889D01*
X110263323Y-108772462D01*
X110311899Y-108736963D01*
X110343441Y-108713097D01*
X110353440Y-108704848D01*
X110382321Y-108674095D01*
X110395248Y-108644941D01*
X110397900Y-108611862D01*
X110396214Y-108578474D01*
X110388441Y-108563398D01*
X110370511Y-108559625D01*
X110367548Y-108559600D01*
X110352031Y-108566705D01*
G36*
X110358904Y-108071445D02*
X110324992Y-108091940D01*
X110274472Y-108124369D01*
X110209373Y-108167317D01*
X110131727Y-108219369D01*
X110043563Y-108279112D01*
X109946911Y-108345130D01*
X109843802Y-108416009D01*
X109736266Y-108490333D01*
X109626333Y-108566689D01*
X109516033Y-108643661D01*
X109407397Y-108719835D01*
X109302455Y-108793796D01*
X109203236Y-108864130D01*
X109111772Y-108929422D01*
X109030092Y-108988256D01*
X108960226Y-109039219D01*
X108904206Y-109080896D01*
X108864060Y-109111872D01*
X108841820Y-109130732D01*
X108838534Y-109134359D01*
X108819308Y-109173320D01*
X108811557Y-109214433D01*
X108815060Y-109250672D01*
X108829597Y-109275008D01*
X108843141Y-109280922D01*
X108862474Y-109274603D01*
X108901717Y-109253134D01*
X108960549Y-109216718D01*
X109038646Y-109165559D01*
X109135687Y-109099861D01*
X109205091Y-109052009D01*
X109387389Y-108925572D01*
X109549898Y-108812798D01*
X109693725Y-108712909D01*
X109819978Y-108625128D01*
X109929763Y-108548677D01*
X110024189Y-108482781D01*
X110104363Y-108426661D01*
X110171391Y-108379540D01*
X110226382Y-108340642D01*
X110270442Y-108309188D01*
X110304679Y-108284403D01*
X110330201Y-108265509D01*
X110348114Y-108251728D01*
X110359526Y-108242283D01*
X110361848Y-108240179D01*
X110383255Y-108216595D01*
X110394069Y-108191240D01*
X110397697Y-108154209D01*
X110397900Y-108135404D01*
X110396732Y-108094375D01*
X110391924Y-108072842D01*
X110381526Y-108064955D01*
X110374177Y-108064300D01*
X110358904Y-108071445D01*
X110358904Y-108071445D01*
G37*
X110358904Y-108071445D02*
X110324992Y-108091940D01*
X110274472Y-108124369D01*
X110209373Y-108167317D01*
X110131727Y-108219369D01*
X110043563Y-108279112D01*
X109946911Y-108345130D01*
X109843802Y-108416009D01*
X109736266Y-108490333D01*
X109626333Y-108566689D01*
X109516033Y-108643661D01*
X109407397Y-108719835D01*
X109302455Y-108793796D01*
X109203236Y-108864130D01*
X109111772Y-108929422D01*
X109030092Y-108988256D01*
X108960226Y-109039219D01*
X108904206Y-109080896D01*
X108864060Y-109111872D01*
X108841820Y-109130732D01*
X108838534Y-109134359D01*
X108819308Y-109173320D01*
X108811557Y-109214433D01*
X108815060Y-109250672D01*
X108829597Y-109275008D01*
X108843141Y-109280922D01*
X108862474Y-109274603D01*
X108901717Y-109253134D01*
X108960549Y-109216718D01*
X109038646Y-109165559D01*
X109135687Y-109099861D01*
X109205091Y-109052009D01*
X109387389Y-108925572D01*
X109549898Y-108812798D01*
X109693725Y-108712909D01*
X109819978Y-108625128D01*
X109929763Y-108548677D01*
X110024189Y-108482781D01*
X110104363Y-108426661D01*
X110171391Y-108379540D01*
X110226382Y-108340642D01*
X110270442Y-108309188D01*
X110304679Y-108284403D01*
X110330201Y-108265509D01*
X110348114Y-108251728D01*
X110359526Y-108242283D01*
X110361848Y-108240179D01*
X110383255Y-108216595D01*
X110394069Y-108191240D01*
X110397697Y-108154209D01*
X110397900Y-108135404D01*
X110396732Y-108094375D01*
X110391924Y-108072842D01*
X110381526Y-108064955D01*
X110374177Y-108064300D01*
X110358904Y-108071445D01*
G36*
X110325497Y-107537530D02*
X110298454Y-107552089D01*
X110282416Y-107563377D01*
X110247324Y-107587879D01*
X110194994Y-107624334D01*
X110127240Y-107671478D01*
X110045879Y-107728050D01*
X109952727Y-107792788D01*
X109849599Y-107864427D01*
X109738312Y-107941708D01*
X109620681Y-108023365D01*
X109563297Y-108063191D01*
X109424173Y-108159809D01*
X109304454Y-108243152D01*
X109202624Y-108314348D01*
X109117168Y-108374524D01*
X109046568Y-108424809D01*
X108989310Y-108466331D01*
X108943876Y-108500218D01*
X108908751Y-108527598D01*
X108882419Y-108549598D01*
X108863363Y-108567347D01*
X108850067Y-108581973D01*
X108841016Y-108594604D01*
X108835493Y-108604686D01*
X108814406Y-108671958D01*
X108812846Y-108720692D01*
X108816697Y-108757982D01*
X108824591Y-108776867D01*
X108840386Y-108784343D01*
X108848645Y-108785576D01*
X108860022Y-108782989D01*
X108880925Y-108773072D01*
X108912535Y-108755044D01*
X108956033Y-108728125D01*
X109012602Y-108691534D01*
X109083424Y-108644490D01*
X109169681Y-108586213D01*
X109272555Y-108515923D01*
X109393228Y-108432839D01*
X109532882Y-108336181D01*
X109603604Y-108287096D01*
X109725573Y-108202249D01*
X109842096Y-108120933D01*
X109951380Y-108044415D01*
X110051632Y-107973962D01*
X110141059Y-107910842D01*
X110217868Y-107856323D01*
X110280267Y-107811671D01*
X110326463Y-107778155D01*
X110354662Y-107757041D01*
X110362285Y-107750769D01*
X110381568Y-107729716D01*
X110392302Y-107707750D01*
X110396932Y-107676612D01*
X110397900Y-107630365D01*
X110397287Y-107584486D01*
X110394018Y-107557818D01*
X110385949Y-107544181D01*
X110370936Y-107537391D01*
X110365129Y-107535858D01*
X110325497Y-107537530D01*
X110325497Y-107537530D01*
G37*
X110325497Y-107537530D02*
X110298454Y-107552089D01*
X110282416Y-107563377D01*
X110247324Y-107587879D01*
X110194994Y-107624334D01*
X110127240Y-107671478D01*
X110045879Y-107728050D01*
X109952727Y-107792788D01*
X109849599Y-107864427D01*
X109738312Y-107941708D01*
X109620681Y-108023365D01*
X109563297Y-108063191D01*
X109424173Y-108159809D01*
X109304454Y-108243152D01*
X109202624Y-108314348D01*
X109117168Y-108374524D01*
X109046568Y-108424809D01*
X108989310Y-108466331D01*
X108943876Y-108500218D01*
X108908751Y-108527598D01*
X108882419Y-108549598D01*
X108863363Y-108567347D01*
X108850067Y-108581973D01*
X108841016Y-108594604D01*
X108835493Y-108604686D01*
X108814406Y-108671958D01*
X108812846Y-108720692D01*
X108816697Y-108757982D01*
X108824591Y-108776867D01*
X108840386Y-108784343D01*
X108848645Y-108785576D01*
X108860022Y-108782989D01*
X108880925Y-108773072D01*
X108912535Y-108755044D01*
X108956033Y-108728125D01*
X109012602Y-108691534D01*
X109083424Y-108644490D01*
X109169681Y-108586213D01*
X109272555Y-108515923D01*
X109393228Y-108432839D01*
X109532882Y-108336181D01*
X109603604Y-108287096D01*
X109725573Y-108202249D01*
X109842096Y-108120933D01*
X109951380Y-108044415D01*
X110051632Y-107973962D01*
X110141059Y-107910842D01*
X110217868Y-107856323D01*
X110280267Y-107811671D01*
X110326463Y-107778155D01*
X110354662Y-107757041D01*
X110362285Y-107750769D01*
X110381568Y-107729716D01*
X110392302Y-107707750D01*
X110396932Y-107676612D01*
X110397900Y-107630365D01*
X110397287Y-107584486D01*
X110394018Y-107557818D01*
X110385949Y-107544181D01*
X110370936Y-107537391D01*
X110365129Y-107535858D01*
X110325497Y-107537530D01*
G36*
X110326293Y-106945190D02*
X110310709Y-106954740D01*
X110276065Y-106977605D01*
X110224134Y-107012568D01*
X110156689Y-107058417D01*
X110075504Y-107113935D01*
X109982354Y-107177909D01*
X109879010Y-107249123D01*
X109767248Y-107326362D01*
X109648841Y-107408413D01*
X109571200Y-107462327D01*
X109410287Y-107574446D01*
X109270038Y-107672787D01*
X109149999Y-107757682D01*
X109049712Y-107829461D01*
X108968723Y-107888457D01*
X108906576Y-107935001D01*
X108862813Y-107969423D01*
X108836980Y-107992055D01*
X108829198Y-108001287D01*
X108818793Y-108034229D01*
X108812571Y-108079390D01*
X108810670Y-108128497D01*
X108813229Y-108173278D01*
X108820385Y-108205464D01*
X108825640Y-108214160D01*
X108850780Y-108227812D01*
X108861503Y-108229400D01*
X108875152Y-108222324D01*
X108907889Y-108201878D01*
X108957977Y-108169235D01*
X109023678Y-108125565D01*
X109103256Y-108072042D01*
X109194973Y-108009836D01*
X109297092Y-107940121D01*
X109407875Y-107864067D01*
X109525586Y-107782847D01*
X109605088Y-107727770D01*
X109727086Y-107642921D01*
X109843614Y-107561489D01*
X109952879Y-107484751D01*
X110053088Y-107413985D01*
X110142446Y-107350469D01*
X110219159Y-107295481D01*
X110281436Y-107250299D01*
X110327481Y-107216199D01*
X110355502Y-107194462D01*
X110362975Y-107187820D01*
X110380625Y-107166231D01*
X110391078Y-107144489D01*
X110396189Y-107115154D01*
X110397812Y-107070787D01*
X110397900Y-107047701D01*
X110395963Y-106988988D01*
X110388839Y-106952653D01*
X110374560Y-106935880D01*
X110351159Y-106935851D01*
X110326293Y-106945190D01*
X110326293Y-106945190D01*
G37*
X110326293Y-106945190D02*
X110310709Y-106954740D01*
X110276065Y-106977605D01*
X110224134Y-107012568D01*
X110156689Y-107058417D01*
X110075504Y-107113935D01*
X109982354Y-107177909D01*
X109879010Y-107249123D01*
X109767248Y-107326362D01*
X109648841Y-107408413D01*
X109571200Y-107462327D01*
X109410287Y-107574446D01*
X109270038Y-107672787D01*
X109149999Y-107757682D01*
X109049712Y-107829461D01*
X108968723Y-107888457D01*
X108906576Y-107935001D01*
X108862813Y-107969423D01*
X108836980Y-107992055D01*
X108829198Y-108001287D01*
X108818793Y-108034229D01*
X108812571Y-108079390D01*
X108810670Y-108128497D01*
X108813229Y-108173278D01*
X108820385Y-108205464D01*
X108825640Y-108214160D01*
X108850780Y-108227812D01*
X108861503Y-108229400D01*
X108875152Y-108222324D01*
X108907889Y-108201878D01*
X108957977Y-108169235D01*
X109023678Y-108125565D01*
X109103256Y-108072042D01*
X109194973Y-108009836D01*
X109297092Y-107940121D01*
X109407875Y-107864067D01*
X109525586Y-107782847D01*
X109605088Y-107727770D01*
X109727086Y-107642921D01*
X109843614Y-107561489D01*
X109952879Y-107484751D01*
X110053088Y-107413985D01*
X110142446Y-107350469D01*
X110219159Y-107295481D01*
X110281436Y-107250299D01*
X110327481Y-107216199D01*
X110355502Y-107194462D01*
X110362975Y-107187820D01*
X110380625Y-107166231D01*
X110391078Y-107144489D01*
X110396189Y-107115154D01*
X110397812Y-107070787D01*
X110397900Y-107047701D01*
X110395963Y-106988988D01*
X110388839Y-106952653D01*
X110374560Y-106935880D01*
X110351159Y-106935851D01*
X110326293Y-106945190D01*
G36*
X110334400Y-106309033D02*
X110318145Y-106318321D01*
X110283275Y-106340880D01*
X110231870Y-106375252D01*
X110166008Y-106419979D01*
X110087769Y-106473604D01*
X109999231Y-106534670D01*
X109902476Y-106601719D01*
X109799580Y-106673294D01*
X109692625Y-106747936D01*
X109583689Y-106824189D01*
X109474850Y-106900595D01*
X109368189Y-106975696D01*
X109265785Y-107048036D01*
X109169717Y-107116155D01*
X109082064Y-107178598D01*
X109004906Y-107233907D01*
X108940321Y-107280623D01*
X108890389Y-107317290D01*
X108857189Y-107342449D01*
X108842855Y-107354579D01*
X108827479Y-107374982D01*
X108817895Y-107396064D01*
X108812756Y-107424381D01*
X108810713Y-107466489D01*
X108810400Y-107512377D01*
X108811024Y-107569410D01*
X108813515Y-107606264D01*
X108818809Y-107628142D01*
X108827839Y-107640247D01*
X108834070Y-107644273D01*
X108854027Y-107648630D01*
X108880633Y-107640255D01*
X108917185Y-107619242D01*
X108944704Y-107601129D01*
X108991861Y-107569286D01*
X109057474Y-107524528D01*
X109140359Y-107467671D01*
X109239335Y-107399530D01*
X109353217Y-107320922D01*
X109480822Y-107232663D01*
X109620968Y-107135568D01*
X109772472Y-107030455D01*
X109934151Y-106918138D01*
X109997850Y-106873850D01*
X110079505Y-106816508D01*
X110156155Y-106761628D01*
X110224787Y-106711448D01*
X110282389Y-106668206D01*
X110325948Y-106634143D01*
X110352450Y-106611496D01*
X110356625Y-106607261D01*
X110375990Y-106584655D01*
X110388096Y-106564609D01*
X110394648Y-106540361D01*
X110397347Y-106505148D01*
X110397898Y-106452207D01*
X110397900Y-106443380D01*
X110397201Y-106386237D01*
X110394521Y-106349394D01*
X110388990Y-106327776D01*
X110379736Y-106316307D01*
X110375676Y-106313862D01*
X110347676Y-106307280D01*
X110334400Y-106309033D01*
X110334400Y-106309033D01*
G37*
X110334400Y-106309033D02*
X110318145Y-106318321D01*
X110283275Y-106340880D01*
X110231870Y-106375252D01*
X110166008Y-106419979D01*
X110087769Y-106473604D01*
X109999231Y-106534670D01*
X109902476Y-106601719D01*
X109799580Y-106673294D01*
X109692625Y-106747936D01*
X109583689Y-106824189D01*
X109474850Y-106900595D01*
X109368189Y-106975696D01*
X109265785Y-107048036D01*
X109169717Y-107116155D01*
X109082064Y-107178598D01*
X109004906Y-107233907D01*
X108940321Y-107280623D01*
X108890389Y-107317290D01*
X108857189Y-107342449D01*
X108842855Y-107354579D01*
X108827479Y-107374982D01*
X108817895Y-107396064D01*
X108812756Y-107424381D01*
X108810713Y-107466489D01*
X108810400Y-107512377D01*
X108811024Y-107569410D01*
X108813515Y-107606264D01*
X108818809Y-107628142D01*
X108827839Y-107640247D01*
X108834070Y-107644273D01*
X108854027Y-107648630D01*
X108880633Y-107640255D01*
X108917185Y-107619242D01*
X108944704Y-107601129D01*
X108991861Y-107569286D01*
X109057474Y-107524528D01*
X109140359Y-107467671D01*
X109239335Y-107399530D01*
X109353217Y-107320922D01*
X109480822Y-107232663D01*
X109620968Y-107135568D01*
X109772472Y-107030455D01*
X109934151Y-106918138D01*
X109997850Y-106873850D01*
X110079505Y-106816508D01*
X110156155Y-106761628D01*
X110224787Y-106711448D01*
X110282389Y-106668206D01*
X110325948Y-106634143D01*
X110352450Y-106611496D01*
X110356625Y-106607261D01*
X110375990Y-106584655D01*
X110388096Y-106564609D01*
X110394648Y-106540361D01*
X110397347Y-106505148D01*
X110397898Y-106452207D01*
X110397900Y-106443380D01*
X110397201Y-106386237D01*
X110394521Y-106349394D01*
X110388990Y-106327776D01*
X110379736Y-106316307D01*
X110375676Y-106313862D01*
X110347676Y-106307280D01*
X110334400Y-106309033D01*
G36*
X109589285Y-99816462D02*
X109578277Y-99830374D01*
X109556321Y-99864108D01*
X109524781Y-99915270D01*
X109485024Y-99981467D01*
X109438415Y-100060304D01*
X109386320Y-100149388D01*
X109330103Y-100246324D01*
X109271130Y-100348721D01*
X109210768Y-100454182D01*
X109150380Y-100560316D01*
X109091333Y-100664727D01*
X109034993Y-100765023D01*
X108982723Y-100858810D01*
X108935891Y-100943693D01*
X108895862Y-101017279D01*
X108864000Y-101077175D01*
X108841672Y-101120986D01*
X108830242Y-101146319D01*
X108829582Y-101148280D01*
X108827434Y-101157476D01*
X108825450Y-101171135D01*
X108823623Y-101190223D01*
X108821946Y-101215705D01*
X108820415Y-101248548D01*
X108819022Y-101289717D01*
X108817761Y-101340180D01*
X108816625Y-101400901D01*
X108815609Y-101472846D01*
X108814707Y-101556983D01*
X108813911Y-101654276D01*
X108813215Y-101765693D01*
X108812614Y-101892198D01*
X108812101Y-102034759D01*
X108811670Y-102194340D01*
X108811314Y-102371909D01*
X108811027Y-102568430D01*
X108810803Y-102784871D01*
X108810635Y-103022197D01*
X108810517Y-103281374D01*
X108810443Y-103563369D01*
X108810407Y-103869147D01*
X108810400Y-104088965D01*
X108810429Y-104423400D01*
X108810519Y-104733208D01*
X108810673Y-105019164D01*
X108810896Y-105282041D01*
X108811192Y-105522611D01*
X108811565Y-105741649D01*
X108812019Y-105939929D01*
X108812558Y-106118223D01*
X108813186Y-106277305D01*
X108813907Y-106417949D01*
X108814725Y-106540929D01*
X108815645Y-106647017D01*
X108816670Y-106736987D01*
X108817805Y-106811613D01*
X108819054Y-106871669D01*
X108820420Y-106917928D01*
X108821907Y-106951162D01*
X108823521Y-106972147D01*
X108825265Y-106981655D01*
X108825640Y-106982259D01*
X108850445Y-106994771D01*
X108866915Y-106996839D01*
X108881435Y-106989625D01*
X108915010Y-106968988D01*
X108965909Y-106936093D01*
X109032396Y-106892110D01*
X109112739Y-106838205D01*
X109205204Y-106775547D01*
X109308058Y-106705304D01*
X109419565Y-106628643D01*
X109537994Y-106546733D01*
X109628326Y-106483943D01*
X109750737Y-106398419D01*
X109867238Y-106316528D01*
X109976112Y-106239508D01*
X110075639Y-106168598D01*
X110164103Y-106105037D01*
X110239784Y-106050064D01*
X110300965Y-106004917D01*
X110345928Y-105970836D01*
X110372954Y-105949059D01*
X110380351Y-105941678D01*
X110382438Y-105933995D01*
X110384354Y-105918144D01*
X110386106Y-105893151D01*
X110387700Y-105858043D01*
X110389144Y-105811846D01*
X110390445Y-105753588D01*
X110391609Y-105682294D01*
X110392644Y-105596992D01*
X110393556Y-105496708D01*
X110394352Y-105380468D01*
X110395040Y-105247300D01*
X110395626Y-105096229D01*
X110396118Y-104926284D01*
X110396277Y-104851200D01*
X110016900Y-104851200D01*
X110016900Y-105854500D01*
X109826400Y-105854500D01*
X109826400Y-105448615D01*
X109562875Y-105445182D01*
X109299350Y-105441750D01*
X109291788Y-105283000D01*
X109826400Y-105283000D01*
X109826400Y-105016300D01*
X109216800Y-105016300D01*
X109216800Y-104851200D01*
X110016900Y-104851200D01*
X110396277Y-104851200D01*
X110396521Y-104736489D01*
X110396844Y-104525872D01*
X110397093Y-104293460D01*
X110397093Y-104292400D01*
X110020313Y-104292400D01*
X110014026Y-104380272D01*
X110002130Y-104458569D01*
X109977334Y-104517691D01*
X109936922Y-104560363D01*
X109878175Y-104589308D01*
X109798374Y-104607253D01*
X109785876Y-104608977D01*
X109687131Y-104618634D01*
X109595313Y-104619893D01*
X109496338Y-104612821D01*
X109474728Y-104610445D01*
X109390592Y-104596863D01*
X109326808Y-104575923D01*
X109280822Y-104544506D01*
X109250080Y-104499492D01*
X109232027Y-104437762D01*
X109224110Y-104356197D01*
X109223150Y-104303169D01*
X109223784Y-104240142D01*
X109226278Y-104196681D01*
X109231519Y-104166970D01*
X109240395Y-104145194D01*
X109249370Y-104131388D01*
X109280664Y-104098665D01*
X109322818Y-104073962D01*
X109380027Y-104055686D01*
X109456488Y-104042246D01*
X109496844Y-104037503D01*
X109592620Y-104027190D01*
X109666153Y-104018415D01*
X109720505Y-104010465D01*
X109758732Y-104002622D01*
X109783894Y-103994172D01*
X109799049Y-103984400D01*
X109807256Y-103972589D01*
X109810119Y-103964219D01*
X109818938Y-103906404D01*
X109815731Y-103851759D01*
X109801429Y-103808434D01*
X109790640Y-103793794D01*
X109772892Y-103780138D01*
X109748522Y-103771176D01*
X109711419Y-103765496D01*
X109655474Y-103761690D01*
X109650508Y-103761449D01*
X109568188Y-103761161D01*
X109504628Y-103768733D01*
X109461711Y-103783751D01*
X109441323Y-103805801D01*
X109440838Y-103807409D01*
X109433702Y-103836038D01*
X109427289Y-103863775D01*
X109421947Y-103882055D01*
X109412091Y-103892498D01*
X109391671Y-103897295D01*
X109354634Y-103898638D01*
X109330859Y-103898700D01*
X109242200Y-103898700D01*
X109242479Y-103838375D01*
X109248398Y-103787199D01*
X109262756Y-103735094D01*
X109267504Y-103723527D01*
X109290983Y-103684770D01*
X109323827Y-103655579D01*
X109369539Y-103634605D01*
X109431621Y-103620495D01*
X109513577Y-103611901D01*
X109564069Y-103609210D01*
X109681951Y-103608497D01*
X109782654Y-103616502D01*
X109863954Y-103632904D01*
X109923628Y-103657384D01*
X109930949Y-103661981D01*
X109968135Y-103700982D01*
X109995414Y-103758684D01*
X110011736Y-103829982D01*
X110016050Y-103909773D01*
X110007305Y-103992950D01*
X110003155Y-104012812D01*
X109989144Y-104057472D01*
X109968007Y-104092910D01*
X109936696Y-104120597D01*
X109892160Y-104142001D01*
X109831351Y-104158591D01*
X109751218Y-104171838D01*
X109649697Y-104183117D01*
X109565805Y-104191594D01*
X109503897Y-104199987D01*
X109460637Y-104210231D01*
X109432691Y-104224260D01*
X109416721Y-104244008D01*
X109409393Y-104271410D01*
X109407372Y-104308401D01*
X109407300Y-104323690D01*
X109410175Y-104372895D01*
X109417822Y-104410945D01*
X109424362Y-104425178D01*
X109450318Y-104442594D01*
X109496408Y-104455452D01*
X109557663Y-104463057D01*
X109629112Y-104464713D01*
X109685452Y-104461714D01*
X109751732Y-104451946D01*
X109795700Y-104435104D01*
X109819813Y-104409730D01*
X109826574Y-104378125D01*
X109828868Y-104335874D01*
X109838494Y-104310339D01*
X109860517Y-104297370D01*
X109899998Y-104292818D01*
X109931188Y-104292400D01*
X110020313Y-104292400D01*
X110397093Y-104292400D01*
X110397275Y-104038279D01*
X110397397Y-103759355D01*
X110397450Y-103548528D01*
X110397673Y-102374700D01*
X110016900Y-102374700D01*
X110016900Y-102759744D01*
X110016636Y-102877309D01*
X110015765Y-102972310D01*
X110014166Y-103047580D01*
X110011723Y-103105951D01*
X110008315Y-103150255D01*
X110003825Y-103183324D01*
X109998132Y-103207989D01*
X109998080Y-103208165D01*
X109969982Y-103271487D01*
X109926857Y-103317841D01*
X109865786Y-103349584D01*
X109802630Y-103365934D01*
X109753250Y-103371459D01*
X109688484Y-103373758D01*
X109615090Y-103373126D01*
X109539826Y-103369861D01*
X109469450Y-103364259D01*
X109410720Y-103356616D01*
X109370394Y-103347230D01*
X109369562Y-103346933D01*
X109331976Y-103331939D01*
X109301090Y-103315129D01*
X109276252Y-103293993D01*
X109256808Y-103266021D01*
X109242105Y-103228702D01*
X109231490Y-103179526D01*
X109224310Y-103115982D01*
X109219912Y-103035561D01*
X109217644Y-102935752D01*
X109216851Y-102814045D01*
X109216800Y-102759744D01*
X109216800Y-102374700D01*
X109407300Y-102374700D01*
X109407300Y-102748752D01*
X109407761Y-102875633D01*
X109409162Y-102977966D01*
X109411534Y-103056586D01*
X109414908Y-103112328D01*
X109419314Y-103146026D01*
X109422021Y-103155113D01*
X109443303Y-103181088D01*
X109481258Y-103198866D01*
X109538498Y-103209191D01*
X109617634Y-103212807D01*
X109624480Y-103212829D01*
X109700711Y-103209646D01*
X109755389Y-103199330D01*
X109791598Y-103180921D01*
X109811950Y-103154520D01*
X109816899Y-103130818D01*
X109820799Y-103083492D01*
X109823663Y-103012138D01*
X109825506Y-102916351D01*
X109826343Y-102795726D01*
X109826400Y-102748752D01*
X109826400Y-102374700D01*
X110016900Y-102374700D01*
X110397673Y-102374700D01*
X110397814Y-101633684D01*
X110015274Y-101633684D01*
X110011285Y-101741832D01*
X110002652Y-101839399D01*
X109989807Y-101921999D01*
X109973180Y-101985243D01*
X109966910Y-102001178D01*
X109937252Y-102049852D01*
X109894957Y-102084844D01*
X109834523Y-102110319D01*
X109815623Y-102115774D01*
X109767638Y-102124179D01*
X109702058Y-102129608D01*
X109626523Y-102131991D01*
X109548670Y-102131255D01*
X109476138Y-102127330D01*
X109416566Y-102120146D01*
X109413064Y-102119516D01*
X109365830Y-102108893D01*
X109323901Y-102096273D01*
X109304082Y-102088113D01*
X109269373Y-102057067D01*
X109240669Y-102005026D01*
X109219723Y-101936036D01*
X109209586Y-101869875D01*
X109200819Y-101777800D01*
X109391674Y-101777800D01*
X109400240Y-101846363D01*
X109408427Y-101892611D01*
X109422281Y-101924784D01*
X109446056Y-101945611D01*
X109484006Y-101957823D01*
X109540386Y-101964149D01*
X109587191Y-101966339D01*
X109654841Y-101967773D01*
X109707944Y-101965050D01*
X109748257Y-101955495D01*
X109777539Y-101936433D01*
X109797549Y-101905189D01*
X109810046Y-101859089D01*
X109816787Y-101795456D01*
X109819531Y-101711616D01*
X109820038Y-101612141D01*
X109819753Y-101526864D01*
X109818675Y-101463123D01*
X109816486Y-101417057D01*
X109812869Y-101384808D01*
X109807505Y-101362514D01*
X109800078Y-101346317D01*
X109797859Y-101342765D01*
X109762887Y-101310793D01*
X109707812Y-101291627D01*
X109631850Y-101285079D01*
X109566050Y-101287885D01*
X109501929Y-101295751D01*
X109458651Y-101309107D01*
X109431757Y-101331219D01*
X109416787Y-101365352D01*
X109410599Y-101401727D01*
X109403997Y-101460300D01*
X109216800Y-101460300D01*
X109216800Y-101416475D01*
X109223828Y-101337672D01*
X109243489Y-101267344D01*
X109273654Y-101212219D01*
X109285929Y-101198131D01*
X109322373Y-101169054D01*
X109367272Y-101148408D01*
X109424862Y-101135184D01*
X109499376Y-101128374D01*
X109585100Y-101126899D01*
X109695313Y-101130706D01*
X109783788Y-101141616D01*
X109853475Y-101160763D01*
X109907324Y-101189280D01*
X109948287Y-101228301D01*
X109978971Y-101278243D01*
X109991175Y-101306900D01*
X109999903Y-101337154D01*
X110005959Y-101374512D01*
X110010148Y-101424477D01*
X110013274Y-101492558D01*
X110014190Y-101519343D01*
X110015274Y-101633684D01*
X110397814Y-101633684D01*
X110397900Y-101185406D01*
X110341857Y-101072028D01*
X110319578Y-101028531D01*
X110287978Y-100969093D01*
X110248433Y-100896142D01*
X110202316Y-100812108D01*
X110151003Y-100719419D01*
X110095869Y-100620505D01*
X110038287Y-100517793D01*
X109979633Y-100413713D01*
X109921282Y-100310693D01*
X109864607Y-100211163D01*
X109810985Y-100117550D01*
X109761789Y-100032285D01*
X109718394Y-99957795D01*
X109682175Y-99896510D01*
X109654507Y-99850859D01*
X109636765Y-99823269D01*
X109630921Y-99815960D01*
X109602641Y-99810519D01*
X109589285Y-99816462D01*
X109589285Y-99816462D01*
G37*
X109589285Y-99816462D02*
X109578277Y-99830374D01*
X109556321Y-99864108D01*
X109524781Y-99915270D01*
X109485024Y-99981467D01*
X109438415Y-100060304D01*
X109386320Y-100149388D01*
X109330103Y-100246324D01*
X109271130Y-100348721D01*
X109210768Y-100454182D01*
X109150380Y-100560316D01*
X109091333Y-100664727D01*
X109034993Y-100765023D01*
X108982723Y-100858810D01*
X108935891Y-100943693D01*
X108895862Y-101017279D01*
X108864000Y-101077175D01*
X108841672Y-101120986D01*
X108830242Y-101146319D01*
X108829582Y-101148280D01*
X108827434Y-101157476D01*
X108825450Y-101171135D01*
X108823623Y-101190223D01*
X108821946Y-101215705D01*
X108820415Y-101248548D01*
X108819022Y-101289717D01*
X108817761Y-101340180D01*
X108816625Y-101400901D01*
X108815609Y-101472846D01*
X108814707Y-101556983D01*
X108813911Y-101654276D01*
X108813215Y-101765693D01*
X108812614Y-101892198D01*
X108812101Y-102034759D01*
X108811670Y-102194340D01*
X108811314Y-102371909D01*
X108811027Y-102568430D01*
X108810803Y-102784871D01*
X108810635Y-103022197D01*
X108810517Y-103281374D01*
X108810443Y-103563369D01*
X108810407Y-103869147D01*
X108810400Y-104088965D01*
X108810429Y-104423400D01*
X108810519Y-104733208D01*
X108810673Y-105019164D01*
X108810896Y-105282041D01*
X108811192Y-105522611D01*
X108811565Y-105741649D01*
X108812019Y-105939929D01*
X108812558Y-106118223D01*
X108813186Y-106277305D01*
X108813907Y-106417949D01*
X108814725Y-106540929D01*
X108815645Y-106647017D01*
X108816670Y-106736987D01*
X108817805Y-106811613D01*
X108819054Y-106871669D01*
X108820420Y-106917928D01*
X108821907Y-106951162D01*
X108823521Y-106972147D01*
X108825265Y-106981655D01*
X108825640Y-106982259D01*
X108850445Y-106994771D01*
X108866915Y-106996839D01*
X108881435Y-106989625D01*
X108915010Y-106968988D01*
X108965909Y-106936093D01*
X109032396Y-106892110D01*
X109112739Y-106838205D01*
X109205204Y-106775547D01*
X109308058Y-106705304D01*
X109419565Y-106628643D01*
X109537994Y-106546733D01*
X109628326Y-106483943D01*
X109750737Y-106398419D01*
X109867238Y-106316528D01*
X109976112Y-106239508D01*
X110075639Y-106168598D01*
X110164103Y-106105037D01*
X110239784Y-106050064D01*
X110300965Y-106004917D01*
X110345928Y-105970836D01*
X110372954Y-105949059D01*
X110380351Y-105941678D01*
X110382438Y-105933995D01*
X110384354Y-105918144D01*
X110386106Y-105893151D01*
X110387700Y-105858043D01*
X110389144Y-105811846D01*
X110390445Y-105753588D01*
X110391609Y-105682294D01*
X110392644Y-105596992D01*
X110393556Y-105496708D01*
X110394352Y-105380468D01*
X110395040Y-105247300D01*
X110395626Y-105096229D01*
X110396118Y-104926284D01*
X110396277Y-104851200D01*
X110016900Y-104851200D01*
X110016900Y-105854500D01*
X109826400Y-105854500D01*
X109826400Y-105448615D01*
X109562875Y-105445182D01*
X109299350Y-105441750D01*
X109291788Y-105283000D01*
X109826400Y-105283000D01*
X109826400Y-105016300D01*
X109216800Y-105016300D01*
X109216800Y-104851200D01*
X110016900Y-104851200D01*
X110396277Y-104851200D01*
X110396521Y-104736489D01*
X110396844Y-104525872D01*
X110397093Y-104293460D01*
X110397093Y-104292400D01*
X110020313Y-104292400D01*
X110014026Y-104380272D01*
X110002130Y-104458569D01*
X109977334Y-104517691D01*
X109936922Y-104560363D01*
X109878175Y-104589308D01*
X109798374Y-104607253D01*
X109785876Y-104608977D01*
X109687131Y-104618634D01*
X109595313Y-104619893D01*
X109496338Y-104612821D01*
X109474728Y-104610445D01*
X109390592Y-104596863D01*
X109326808Y-104575923D01*
X109280822Y-104544506D01*
X109250080Y-104499492D01*
X109232027Y-104437762D01*
X109224110Y-104356197D01*
X109223150Y-104303169D01*
X109223784Y-104240142D01*
X109226278Y-104196681D01*
X109231519Y-104166970D01*
X109240395Y-104145194D01*
X109249370Y-104131388D01*
X109280664Y-104098665D01*
X109322818Y-104073962D01*
X109380027Y-104055686D01*
X109456488Y-104042246D01*
X109496844Y-104037503D01*
X109592620Y-104027190D01*
X109666153Y-104018415D01*
X109720505Y-104010465D01*
X109758732Y-104002622D01*
X109783894Y-103994172D01*
X109799049Y-103984400D01*
X109807256Y-103972589D01*
X109810119Y-103964219D01*
X109818938Y-103906404D01*
X109815731Y-103851759D01*
X109801429Y-103808434D01*
X109790640Y-103793794D01*
X109772892Y-103780138D01*
X109748522Y-103771176D01*
X109711419Y-103765496D01*
X109655474Y-103761690D01*
X109650508Y-103761449D01*
X109568188Y-103761161D01*
X109504628Y-103768733D01*
X109461711Y-103783751D01*
X109441323Y-103805801D01*
X109440838Y-103807409D01*
X109433702Y-103836038D01*
X109427289Y-103863775D01*
X109421947Y-103882055D01*
X109412091Y-103892498D01*
X109391671Y-103897295D01*
X109354634Y-103898638D01*
X109330859Y-103898700D01*
X109242200Y-103898700D01*
X109242479Y-103838375D01*
X109248398Y-103787199D01*
X109262756Y-103735094D01*
X109267504Y-103723527D01*
X109290983Y-103684770D01*
X109323827Y-103655579D01*
X109369539Y-103634605D01*
X109431621Y-103620495D01*
X109513577Y-103611901D01*
X109564069Y-103609210D01*
X109681951Y-103608497D01*
X109782654Y-103616502D01*
X109863954Y-103632904D01*
X109923628Y-103657384D01*
X109930949Y-103661981D01*
X109968135Y-103700982D01*
X109995414Y-103758684D01*
X110011736Y-103829982D01*
X110016050Y-103909773D01*
X110007305Y-103992950D01*
X110003155Y-104012812D01*
X109989144Y-104057472D01*
X109968007Y-104092910D01*
X109936696Y-104120597D01*
X109892160Y-104142001D01*
X109831351Y-104158591D01*
X109751218Y-104171838D01*
X109649697Y-104183117D01*
X109565805Y-104191594D01*
X109503897Y-104199987D01*
X109460637Y-104210231D01*
X109432691Y-104224260D01*
X109416721Y-104244008D01*
X109409393Y-104271410D01*
X109407372Y-104308401D01*
X109407300Y-104323690D01*
X109410175Y-104372895D01*
X109417822Y-104410945D01*
X109424362Y-104425178D01*
X109450318Y-104442594D01*
X109496408Y-104455452D01*
X109557663Y-104463057D01*
X109629112Y-104464713D01*
X109685452Y-104461714D01*
X109751732Y-104451946D01*
X109795700Y-104435104D01*
X109819813Y-104409730D01*
X109826574Y-104378125D01*
X109828868Y-104335874D01*
X109838494Y-104310339D01*
X109860517Y-104297370D01*
X109899998Y-104292818D01*
X109931188Y-104292400D01*
X110020313Y-104292400D01*
X110397093Y-104292400D01*
X110397275Y-104038279D01*
X110397397Y-103759355D01*
X110397450Y-103548528D01*
X110397673Y-102374700D01*
X110016900Y-102374700D01*
X110016900Y-102759744D01*
X110016636Y-102877309D01*
X110015765Y-102972310D01*
X110014166Y-103047580D01*
X110011723Y-103105951D01*
X110008315Y-103150255D01*
X110003825Y-103183324D01*
X109998132Y-103207989D01*
X109998080Y-103208165D01*
X109969982Y-103271487D01*
X109926857Y-103317841D01*
X109865786Y-103349584D01*
X109802630Y-103365934D01*
X109753250Y-103371459D01*
X109688484Y-103373758D01*
X109615090Y-103373126D01*
X109539826Y-103369861D01*
X109469450Y-103364259D01*
X109410720Y-103356616D01*
X109370394Y-103347230D01*
X109369562Y-103346933D01*
X109331976Y-103331939D01*
X109301090Y-103315129D01*
X109276252Y-103293993D01*
X109256808Y-103266021D01*
X109242105Y-103228702D01*
X109231490Y-103179526D01*
X109224310Y-103115982D01*
X109219912Y-103035561D01*
X109217644Y-102935752D01*
X109216851Y-102814045D01*
X109216800Y-102759744D01*
X109216800Y-102374700D01*
X109407300Y-102374700D01*
X109407300Y-102748752D01*
X109407761Y-102875633D01*
X109409162Y-102977966D01*
X109411534Y-103056586D01*
X109414908Y-103112328D01*
X109419314Y-103146026D01*
X109422021Y-103155113D01*
X109443303Y-103181088D01*
X109481258Y-103198866D01*
X109538498Y-103209191D01*
X109617634Y-103212807D01*
X109624480Y-103212829D01*
X109700711Y-103209646D01*
X109755389Y-103199330D01*
X109791598Y-103180921D01*
X109811950Y-103154520D01*
X109816899Y-103130818D01*
X109820799Y-103083492D01*
X109823663Y-103012138D01*
X109825506Y-102916351D01*
X109826343Y-102795726D01*
X109826400Y-102748752D01*
X109826400Y-102374700D01*
X110016900Y-102374700D01*
X110397673Y-102374700D01*
X110397814Y-101633684D01*
X110015274Y-101633684D01*
X110011285Y-101741832D01*
X110002652Y-101839399D01*
X109989807Y-101921999D01*
X109973180Y-101985243D01*
X109966910Y-102001178D01*
X109937252Y-102049852D01*
X109894957Y-102084844D01*
X109834523Y-102110319D01*
X109815623Y-102115774D01*
X109767638Y-102124179D01*
X109702058Y-102129608D01*
X109626523Y-102131991D01*
X109548670Y-102131255D01*
X109476138Y-102127330D01*
X109416566Y-102120146D01*
X109413064Y-102119516D01*
X109365830Y-102108893D01*
X109323901Y-102096273D01*
X109304082Y-102088113D01*
X109269373Y-102057067D01*
X109240669Y-102005026D01*
X109219723Y-101936036D01*
X109209586Y-101869875D01*
X109200819Y-101777800D01*
X109391674Y-101777800D01*
X109400240Y-101846363D01*
X109408427Y-101892611D01*
X109422281Y-101924784D01*
X109446056Y-101945611D01*
X109484006Y-101957823D01*
X109540386Y-101964149D01*
X109587191Y-101966339D01*
X109654841Y-101967773D01*
X109707944Y-101965050D01*
X109748257Y-101955495D01*
X109777539Y-101936433D01*
X109797549Y-101905189D01*
X109810046Y-101859089D01*
X109816787Y-101795456D01*
X109819531Y-101711616D01*
X109820038Y-101612141D01*
X109819753Y-101526864D01*
X109818675Y-101463123D01*
X109816486Y-101417057D01*
X109812869Y-101384808D01*
X109807505Y-101362514D01*
X109800078Y-101346317D01*
X109797859Y-101342765D01*
X109762887Y-101310793D01*
X109707812Y-101291627D01*
X109631850Y-101285079D01*
X109566050Y-101287885D01*
X109501929Y-101295751D01*
X109458651Y-101309107D01*
X109431757Y-101331219D01*
X109416787Y-101365352D01*
X109410599Y-101401727D01*
X109403997Y-101460300D01*
X109216800Y-101460300D01*
X109216800Y-101416475D01*
X109223828Y-101337672D01*
X109243489Y-101267344D01*
X109273654Y-101212219D01*
X109285929Y-101198131D01*
X109322373Y-101169054D01*
X109367272Y-101148408D01*
X109424862Y-101135184D01*
X109499376Y-101128374D01*
X109585100Y-101126899D01*
X109695313Y-101130706D01*
X109783788Y-101141616D01*
X109853475Y-101160763D01*
X109907324Y-101189280D01*
X109948287Y-101228301D01*
X109978971Y-101278243D01*
X109991175Y-101306900D01*
X109999903Y-101337154D01*
X110005959Y-101374512D01*
X110010148Y-101424477D01*
X110013274Y-101492558D01*
X110014190Y-101519343D01*
X110015274Y-101633684D01*
X110397814Y-101633684D01*
X110397900Y-101185406D01*
X110341857Y-101072028D01*
X110319578Y-101028531D01*
X110287978Y-100969093D01*
X110248433Y-100896142D01*
X110202316Y-100812108D01*
X110151003Y-100719419D01*
X110095869Y-100620505D01*
X110038287Y-100517793D01*
X109979633Y-100413713D01*
X109921282Y-100310693D01*
X109864607Y-100211163D01*
X109810985Y-100117550D01*
X109761789Y-100032285D01*
X109718394Y-99957795D01*
X109682175Y-99896510D01*
X109654507Y-99850859D01*
X109636765Y-99823269D01*
X109630921Y-99815960D01*
X109602641Y-99810519D01*
X109589285Y-99816462D01*
G36*
X106330493Y-104845535D02*
X106248813Y-104856410D01*
X106186848Y-104872803D01*
X106172434Y-104878862D01*
X106134977Y-104910288D01*
X106106537Y-104963574D01*
X106088186Y-105036453D01*
X106084485Y-105064819D01*
X106076282Y-105143300D01*
X106203669Y-105143300D01*
X106209872Y-105078740D01*
X106217121Y-105032635D01*
X106231276Y-105000044D01*
X106256462Y-104978093D01*
X106296804Y-104963910D01*
X106356427Y-104954621D01*
X106393203Y-104951048D01*
X106501314Y-104945653D01*
X106595978Y-104949013D01*
X106673177Y-104960852D01*
X106712183Y-104973002D01*
X106737093Y-104985747D01*
X106756447Y-105003324D01*
X106770944Y-105028831D01*
X106781283Y-105065367D01*
X106788164Y-105116034D01*
X106792285Y-105183929D01*
X106794347Y-105272152D01*
X106794903Y-105339671D01*
X106795017Y-105451349D01*
X106792968Y-105540284D01*
X106786931Y-105609131D01*
X106775083Y-105660545D01*
X106755598Y-105697181D01*
X106726654Y-105721695D01*
X106686427Y-105736741D01*
X106633091Y-105744973D01*
X106564823Y-105749048D01*
X106512515Y-105750699D01*
X106417922Y-105751646D01*
X106345637Y-105748143D01*
X106292877Y-105739684D01*
X106256858Y-105725767D01*
X106234798Y-105705887D01*
X106231040Y-105699744D01*
X106220890Y-105669784D01*
X106211703Y-105624428D01*
X106204715Y-105573169D01*
X106201160Y-105525504D01*
X106202274Y-105490928D01*
X106203249Y-105486090D01*
X106207730Y-105475524D01*
X106217515Y-105468390D01*
X106236928Y-105464019D01*
X106270292Y-105461744D01*
X106321933Y-105460899D01*
X106367132Y-105460800D01*
X106524400Y-105460800D01*
X106524400Y-105346500D01*
X106076251Y-105346500D01*
X106083664Y-105508425D01*
X106089929Y-105609990D01*
X106100261Y-105689471D01*
X106117559Y-105749671D01*
X106144724Y-105793393D01*
X106184654Y-105823440D01*
X106240248Y-105842615D01*
X106314407Y-105853722D01*
X106410030Y-105859564D01*
X106448200Y-105860856D01*
X106517397Y-105861984D01*
X106582724Y-105861365D01*
X106637269Y-105859174D01*
X106674119Y-105855584D01*
X106676800Y-105855110D01*
X106738662Y-105841233D01*
X106788741Y-105823786D01*
X106828255Y-105800130D01*
X106858422Y-105767631D01*
X106880461Y-105723650D01*
X106895589Y-105665551D01*
X106905024Y-105590697D01*
X106909986Y-105496452D01*
X106911690Y-105380178D01*
X106911750Y-105346500D01*
X106911507Y-105250779D01*
X106910605Y-105176662D01*
X106908790Y-105120355D01*
X106905806Y-105078063D01*
X106901395Y-105045994D01*
X106895304Y-105020353D01*
X106888392Y-105000206D01*
X106862899Y-104949645D01*
X106828152Y-104910652D01*
X106780981Y-104881799D01*
X106718213Y-104861658D01*
X106636677Y-104848800D01*
X106537100Y-104841953D01*
X106427913Y-104840582D01*
X106330493Y-104845535D01*
X106330493Y-104845535D01*
G37*
X106330493Y-104845535D02*
X106248813Y-104856410D01*
X106186848Y-104872803D01*
X106172434Y-104878862D01*
X106134977Y-104910288D01*
X106106537Y-104963574D01*
X106088186Y-105036453D01*
X106084485Y-105064819D01*
X106076282Y-105143300D01*
X106203669Y-105143300D01*
X106209872Y-105078740D01*
X106217121Y-105032635D01*
X106231276Y-105000044D01*
X106256462Y-104978093D01*
X106296804Y-104963910D01*
X106356427Y-104954621D01*
X106393203Y-104951048D01*
X106501314Y-104945653D01*
X106595978Y-104949013D01*
X106673177Y-104960852D01*
X106712183Y-104973002D01*
X106737093Y-104985747D01*
X106756447Y-105003324D01*
X106770944Y-105028831D01*
X106781283Y-105065367D01*
X106788164Y-105116034D01*
X106792285Y-105183929D01*
X106794347Y-105272152D01*
X106794903Y-105339671D01*
X106795017Y-105451349D01*
X106792968Y-105540284D01*
X106786931Y-105609131D01*
X106775083Y-105660545D01*
X106755598Y-105697181D01*
X106726654Y-105721695D01*
X106686427Y-105736741D01*
X106633091Y-105744973D01*
X106564823Y-105749048D01*
X106512515Y-105750699D01*
X106417922Y-105751646D01*
X106345637Y-105748143D01*
X106292877Y-105739684D01*
X106256858Y-105725767D01*
X106234798Y-105705887D01*
X106231040Y-105699744D01*
X106220890Y-105669784D01*
X106211703Y-105624428D01*
X106204715Y-105573169D01*
X106201160Y-105525504D01*
X106202274Y-105490928D01*
X106203249Y-105486090D01*
X106207730Y-105475524D01*
X106217515Y-105468390D01*
X106236928Y-105464019D01*
X106270292Y-105461744D01*
X106321933Y-105460899D01*
X106367132Y-105460800D01*
X106524400Y-105460800D01*
X106524400Y-105346500D01*
X106076251Y-105346500D01*
X106083664Y-105508425D01*
X106089929Y-105609990D01*
X106100261Y-105689471D01*
X106117559Y-105749671D01*
X106144724Y-105793393D01*
X106184654Y-105823440D01*
X106240248Y-105842615D01*
X106314407Y-105853722D01*
X106410030Y-105859564D01*
X106448200Y-105860856D01*
X106517397Y-105861984D01*
X106582724Y-105861365D01*
X106637269Y-105859174D01*
X106674119Y-105855584D01*
X106676800Y-105855110D01*
X106738662Y-105841233D01*
X106788741Y-105823786D01*
X106828255Y-105800130D01*
X106858422Y-105767631D01*
X106880461Y-105723650D01*
X106895589Y-105665551D01*
X106905024Y-105590697D01*
X106909986Y-105496452D01*
X106911690Y-105380178D01*
X106911750Y-105346500D01*
X106911507Y-105250779D01*
X106910605Y-105176662D01*
X106908790Y-105120355D01*
X106905806Y-105078063D01*
X106901395Y-105045994D01*
X106895304Y-105020353D01*
X106888392Y-105000206D01*
X106862899Y-104949645D01*
X106828152Y-104910652D01*
X106780981Y-104881799D01*
X106718213Y-104861658D01*
X106636677Y-104848800D01*
X106537100Y-104841953D01*
X106427913Y-104840582D01*
X106330493Y-104845535D01*
G36*
X108378600Y-105740200D02*
X107870600Y-105740200D01*
X107870600Y-105854500D01*
X108505600Y-105854500D01*
X108505600Y-104851200D01*
X108378600Y-104851200D01*
X108378600Y-105740200D01*
X108378600Y-105740200D01*
G37*
X108378600Y-105740200D02*
X107870600Y-105740200D01*
X107870600Y-105854500D01*
X108505600Y-105854500D01*
X108505600Y-104851200D01*
X108378600Y-104851200D01*
X108378600Y-105740200D01*
G36*
X107362600Y-105854500D02*
X107476900Y-105854500D01*
X107476900Y-104851200D01*
X107362600Y-104851200D01*
X107362600Y-105854500D01*
X107362600Y-105854500D01*
G37*
X107362600Y-105854500D02*
X107476900Y-105854500D01*
X107476900Y-104851200D01*
X107362600Y-104851200D01*
X107362600Y-105854500D01*
G36*
X105533800Y-105283000D02*
X104962300Y-105283000D01*
X104962300Y-104851200D01*
X104835300Y-104851200D01*
X104835300Y-105854500D01*
X104962300Y-105854500D01*
X104962300Y-105397300D01*
X105533800Y-105397300D01*
X105533800Y-105854500D01*
X105648100Y-105854500D01*
X105648100Y-104851200D01*
X105533800Y-104851200D01*
X105533800Y-105283000D01*
X105533800Y-105283000D01*
G37*
X105533800Y-105283000D02*
X104962300Y-105283000D01*
X104962300Y-104851200D01*
X104835300Y-104851200D01*
X104835300Y-105854500D01*
X104962300Y-105854500D01*
X104962300Y-105397300D01*
X105533800Y-105397300D01*
X105533800Y-105854500D01*
X105648100Y-105854500D01*
X105648100Y-104851200D01*
X105533800Y-104851200D01*
X105533800Y-105283000D01*
G36*
X103679600Y-104965500D02*
X103997100Y-104965500D01*
X103997100Y-105854500D01*
X104124100Y-105854500D01*
X104124100Y-104965500D01*
X104441600Y-104965500D01*
X104441600Y-104851200D01*
X103679600Y-104851200D01*
X103679600Y-104965500D01*
X103679600Y-104965500D01*
G37*
X103679600Y-104965500D02*
X103997100Y-104965500D01*
X103997100Y-105854500D01*
X104124100Y-105854500D01*
X104124100Y-104965500D01*
X104441600Y-104965500D01*
X104441600Y-104851200D01*
X103679600Y-104851200D01*
X103679600Y-104965500D01*
G36*
X105131625Y-103603105D02*
X105059780Y-103620890D01*
X105005696Y-103650534D01*
X104967285Y-103693242D01*
X104942458Y-103750219D01*
X104929128Y-103822672D01*
X104928042Y-103834340D01*
X104920517Y-103924100D01*
X105048148Y-103924100D01*
X105053695Y-103847406D01*
X105060479Y-103795273D01*
X105073279Y-103760680D01*
X105087324Y-103742631D01*
X105099988Y-103731529D01*
X105115009Y-103723809D01*
X105136922Y-103718862D01*
X105170263Y-103716076D01*
X105219566Y-103714843D01*
X105289367Y-103714550D01*
X105296028Y-103714550D01*
X105389152Y-103715929D01*
X105457943Y-103720114D01*
X105503320Y-103727175D01*
X105516836Y-103731514D01*
X105539768Y-103743361D01*
X105557459Y-103759249D01*
X105570552Y-103782331D01*
X105579687Y-103815762D01*
X105585507Y-103862693D01*
X105588655Y-103926278D01*
X105589770Y-104009671D01*
X105589650Y-104089200D01*
X105588352Y-104197630D01*
X105585360Y-104283569D01*
X105580224Y-104349893D01*
X105572489Y-104399479D01*
X105561704Y-104435205D01*
X105547416Y-104459949D01*
X105529172Y-104476587D01*
X105528676Y-104476914D01*
X105478803Y-104498226D01*
X105409109Y-104511389D01*
X105323990Y-104515919D01*
X105227840Y-104511329D01*
X105221940Y-104510766D01*
X105163112Y-104504368D01*
X105123757Y-104497853D01*
X105098003Y-104489461D01*
X105079976Y-104477434D01*
X105067659Y-104464582D01*
X105050744Y-104439839D01*
X105041810Y-104410093D01*
X105038652Y-104366590D01*
X105038500Y-104348841D01*
X105038500Y-104267000D01*
X104907920Y-104267000D01*
X104914507Y-104372576D01*
X104923158Y-104453089D01*
X104939546Y-104512508D01*
X104966605Y-104554677D01*
X105007269Y-104583445D01*
X105064474Y-104602658D01*
X105094808Y-104608925D01*
X105137722Y-104614024D01*
X105198124Y-104617756D01*
X105268580Y-104620029D01*
X105341656Y-104620750D01*
X105409916Y-104619827D01*
X105465926Y-104617166D01*
X105495700Y-104613929D01*
X105574033Y-104591145D01*
X105634134Y-104550975D01*
X105677159Y-104492449D01*
X105696191Y-104445152D01*
X105704412Y-104405147D01*
X105710931Y-104346675D01*
X105715749Y-104274252D01*
X105718869Y-104192389D01*
X105720291Y-104105600D01*
X105720016Y-104018398D01*
X105718047Y-103935295D01*
X105714384Y-103860805D01*
X105709029Y-103799441D01*
X105701983Y-103755715D01*
X105695979Y-103737896D01*
X105662767Y-103692249D01*
X105617181Y-103656835D01*
X105556361Y-103630540D01*
X105477447Y-103612254D01*
X105377578Y-103600863D01*
X105336950Y-103598289D01*
X105223319Y-103595973D01*
X105131625Y-103603105D01*
X105131625Y-103603105D01*
G37*
X105131625Y-103603105D02*
X105059780Y-103620890D01*
X105005696Y-103650534D01*
X104967285Y-103693242D01*
X104942458Y-103750219D01*
X104929128Y-103822672D01*
X104928042Y-103834340D01*
X104920517Y-103924100D01*
X105048148Y-103924100D01*
X105053695Y-103847406D01*
X105060479Y-103795273D01*
X105073279Y-103760680D01*
X105087324Y-103742631D01*
X105099988Y-103731529D01*
X105115009Y-103723809D01*
X105136922Y-103718862D01*
X105170263Y-103716076D01*
X105219566Y-103714843D01*
X105289367Y-103714550D01*
X105296028Y-103714550D01*
X105389152Y-103715929D01*
X105457943Y-103720114D01*
X105503320Y-103727175D01*
X105516836Y-103731514D01*
X105539768Y-103743361D01*
X105557459Y-103759249D01*
X105570552Y-103782331D01*
X105579687Y-103815762D01*
X105585507Y-103862693D01*
X105588655Y-103926278D01*
X105589770Y-104009671D01*
X105589650Y-104089200D01*
X105588352Y-104197630D01*
X105585360Y-104283569D01*
X105580224Y-104349893D01*
X105572489Y-104399479D01*
X105561704Y-104435205D01*
X105547416Y-104459949D01*
X105529172Y-104476587D01*
X105528676Y-104476914D01*
X105478803Y-104498226D01*
X105409109Y-104511389D01*
X105323990Y-104515919D01*
X105227840Y-104511329D01*
X105221940Y-104510766D01*
X105163112Y-104504368D01*
X105123757Y-104497853D01*
X105098003Y-104489461D01*
X105079976Y-104477434D01*
X105067659Y-104464582D01*
X105050744Y-104439839D01*
X105041810Y-104410093D01*
X105038652Y-104366590D01*
X105038500Y-104348841D01*
X105038500Y-104267000D01*
X104907920Y-104267000D01*
X104914507Y-104372576D01*
X104923158Y-104453089D01*
X104939546Y-104512508D01*
X104966605Y-104554677D01*
X105007269Y-104583445D01*
X105064474Y-104602658D01*
X105094808Y-104608925D01*
X105137722Y-104614024D01*
X105198124Y-104617756D01*
X105268580Y-104620029D01*
X105341656Y-104620750D01*
X105409916Y-104619827D01*
X105465926Y-104617166D01*
X105495700Y-104613929D01*
X105574033Y-104591145D01*
X105634134Y-104550975D01*
X105677159Y-104492449D01*
X105696191Y-104445152D01*
X105704412Y-104405147D01*
X105710931Y-104346675D01*
X105715749Y-104274252D01*
X105718869Y-104192389D01*
X105720291Y-104105600D01*
X105720016Y-104018398D01*
X105718047Y-103935295D01*
X105714384Y-103860805D01*
X105709029Y-103799441D01*
X105701983Y-103755715D01*
X105695979Y-103737896D01*
X105662767Y-103692249D01*
X105617181Y-103656835D01*
X105556361Y-103630540D01*
X105477447Y-103612254D01*
X105377578Y-103600863D01*
X105336950Y-103598289D01*
X105223319Y-103595973D01*
X105131625Y-103603105D01*
G36*
X108235725Y-103606902D02*
X108129482Y-103607531D01*
X108045273Y-103609412D01*
X107979744Y-103612940D01*
X107929546Y-103618510D01*
X107891324Y-103626516D01*
X107861729Y-103637351D01*
X107837406Y-103651410D01*
X107833483Y-103654201D01*
X107798771Y-103686732D01*
X107774469Y-103728263D01*
X107759223Y-103783083D01*
X107751679Y-103855479D01*
X107750257Y-103917750D01*
X107750902Y-103983062D01*
X107753610Y-104029451D01*
X107759311Y-104063370D01*
X107768938Y-104091270D01*
X107777977Y-104109677D01*
X107796941Y-104141082D01*
X107818452Y-104165248D01*
X107846016Y-104183181D01*
X107883141Y-104195890D01*
X107933335Y-104204381D01*
X108000105Y-104209663D01*
X108086958Y-104212742D01*
X108140475Y-104213794D01*
X108378600Y-104217739D01*
X108378600Y-104609900D01*
X108505600Y-104609900D01*
X108505600Y-104117582D01*
X108378600Y-104117582D01*
X108172225Y-104111836D01*
X108080714Y-104108221D01*
X108008587Y-104103097D01*
X107957891Y-104096653D01*
X107931784Y-104089648D01*
X107903260Y-104069141D01*
X107884482Y-104037598D01*
X107874293Y-103991072D01*
X107871539Y-103925611D01*
X107872489Y-103887053D01*
X107876187Y-103825954D01*
X107882224Y-103785291D01*
X107891548Y-103760135D01*
X107898665Y-103750878D01*
X107923629Y-103735715D01*
X107965677Y-103724227D01*
X108026847Y-103716146D01*
X108109175Y-103711206D01*
X108214698Y-103709138D01*
X108216675Y-103709127D01*
X108378600Y-103708200D01*
X108378600Y-104117582D01*
X108505600Y-104117582D01*
X108505600Y-103606600D01*
X108235725Y-103606902D01*
X108235725Y-103606902D01*
G37*
X108235725Y-103606902D02*
X108129482Y-103607531D01*
X108045273Y-103609412D01*
X107979744Y-103612940D01*
X107929546Y-103618510D01*
X107891324Y-103626516D01*
X107861729Y-103637351D01*
X107837406Y-103651410D01*
X107833483Y-103654201D01*
X107798771Y-103686732D01*
X107774469Y-103728263D01*
X107759223Y-103783083D01*
X107751679Y-103855479D01*
X107750257Y-103917750D01*
X107750902Y-103983062D01*
X107753610Y-104029451D01*
X107759311Y-104063370D01*
X107768938Y-104091270D01*
X107777977Y-104109677D01*
X107796941Y-104141082D01*
X107818452Y-104165248D01*
X107846016Y-104183181D01*
X107883141Y-104195890D01*
X107933335Y-104204381D01*
X108000105Y-104209663D01*
X108086958Y-104212742D01*
X108140475Y-104213794D01*
X108378600Y-104217739D01*
X108378600Y-104609900D01*
X108505600Y-104609900D01*
X108505600Y-104117582D01*
X108378600Y-104117582D01*
X108172225Y-104111836D01*
X108080714Y-104108221D01*
X108008587Y-104103097D01*
X107957891Y-104096653D01*
X107931784Y-104089648D01*
X107903260Y-104069141D01*
X107884482Y-104037598D01*
X107874293Y-103991072D01*
X107871539Y-103925611D01*
X107872489Y-103887053D01*
X107876187Y-103825954D01*
X107882224Y-103785291D01*
X107891548Y-103760135D01*
X107898665Y-103750878D01*
X107923629Y-103735715D01*
X107965677Y-103724227D01*
X108026847Y-103716146D01*
X108109175Y-103711206D01*
X108214698Y-103709138D01*
X108216675Y-103709127D01*
X108378600Y-103708200D01*
X108378600Y-104117582D01*
X108505600Y-104117582D01*
X108505600Y-103606600D01*
X108235725Y-103606902D01*
G36*
X106478743Y-104100727D02*
X106439244Y-104206294D01*
X106402675Y-104304521D01*
X106369972Y-104392851D01*
X106342076Y-104468727D01*
X106319922Y-104529594D01*
X106304451Y-104572893D01*
X106296600Y-104596070D01*
X106295800Y-104599202D01*
X106307215Y-104605350D01*
X106336350Y-104609218D01*
X106358228Y-104609900D01*
X106420655Y-104609900D01*
X106495573Y-104413050D01*
X106743897Y-104409609D01*
X106992220Y-104406169D01*
X107028185Y-104508001D01*
X107064150Y-104609834D01*
X107131681Y-104609867D01*
X107170668Y-104608829D01*
X107189559Y-104604376D01*
X107193618Y-104594569D01*
X107191936Y-104587675D01*
X107186073Y-104571183D01*
X107172427Y-104533535D01*
X107151977Y-104477416D01*
X107125706Y-104405510D01*
X107094593Y-104320501D01*
X107088949Y-104305100D01*
X106955062Y-104305100D01*
X106744723Y-104305100D01*
X106667222Y-104304924D01*
X106611720Y-104304150D01*
X106574816Y-104302400D01*
X106553109Y-104299300D01*
X106543198Y-104294476D01*
X106541682Y-104287552D01*
X106543131Y-104282875D01*
X106549927Y-104264744D01*
X106563998Y-104226571D01*
X106583942Y-104172184D01*
X106608357Y-104105409D01*
X106635838Y-104030077D01*
X106646420Y-104001028D01*
X106674257Y-103924887D01*
X106699210Y-103857206D01*
X106719974Y-103801485D01*
X106735239Y-103761221D01*
X106743700Y-103739912D01*
X106744897Y-103737469D01*
X106750206Y-103747481D01*
X106762480Y-103777692D01*
X106780278Y-103824334D01*
X106802157Y-103883640D01*
X106822438Y-103939941D01*
X106849223Y-104014852D01*
X106875472Y-104087903D01*
X106898981Y-104152988D01*
X106917547Y-104203999D01*
X106925552Y-104225725D01*
X106955062Y-104305100D01*
X107088949Y-104305100D01*
X107059620Y-104225073D01*
X107021768Y-104121910D01*
X107009758Y-104089200D01*
X106834857Y-103612950D01*
X106661685Y-103612950D01*
X106478743Y-104100727D01*
X106478743Y-104100727D01*
G37*
X106478743Y-104100727D02*
X106439244Y-104206294D01*
X106402675Y-104304521D01*
X106369972Y-104392851D01*
X106342076Y-104468727D01*
X106319922Y-104529594D01*
X106304451Y-104572893D01*
X106296600Y-104596070D01*
X106295800Y-104599202D01*
X106307215Y-104605350D01*
X106336350Y-104609218D01*
X106358228Y-104609900D01*
X106420655Y-104609900D01*
X106495573Y-104413050D01*
X106743897Y-104409609D01*
X106992220Y-104406169D01*
X107028185Y-104508001D01*
X107064150Y-104609834D01*
X107131681Y-104609867D01*
X107170668Y-104608829D01*
X107189559Y-104604376D01*
X107193618Y-104594569D01*
X107191936Y-104587675D01*
X107186073Y-104571183D01*
X107172427Y-104533535D01*
X107151977Y-104477416D01*
X107125706Y-104405510D01*
X107094593Y-104320501D01*
X107088949Y-104305100D01*
X106955062Y-104305100D01*
X106744723Y-104305100D01*
X106667222Y-104304924D01*
X106611720Y-104304150D01*
X106574816Y-104302400D01*
X106553109Y-104299300D01*
X106543198Y-104294476D01*
X106541682Y-104287552D01*
X106543131Y-104282875D01*
X106549927Y-104264744D01*
X106563998Y-104226571D01*
X106583942Y-104172184D01*
X106608357Y-104105409D01*
X106635838Y-104030077D01*
X106646420Y-104001028D01*
X106674257Y-103924887D01*
X106699210Y-103857206D01*
X106719974Y-103801485D01*
X106735239Y-103761221D01*
X106743700Y-103739912D01*
X106744897Y-103737469D01*
X106750206Y-103747481D01*
X106762480Y-103777692D01*
X106780278Y-103824334D01*
X106802157Y-103883640D01*
X106822438Y-103939941D01*
X106849223Y-104014852D01*
X106875472Y-104087903D01*
X106898981Y-104152988D01*
X106917547Y-104203999D01*
X106925552Y-104225725D01*
X106955062Y-104305100D01*
X107088949Y-104305100D01*
X107059620Y-104225073D01*
X107021768Y-104121910D01*
X107009758Y-104089200D01*
X106834857Y-103612950D01*
X106661685Y-103612950D01*
X106478743Y-104100727D01*
G36*
X103666900Y-103708200D02*
X104200300Y-103708200D01*
X104200300Y-104038400D01*
X103692300Y-104038400D01*
X103692300Y-104152700D01*
X104200300Y-104152700D01*
X104200300Y-104508300D01*
X103666900Y-104508300D01*
X103666900Y-104609900D01*
X104327300Y-104609900D01*
X104327300Y-103606600D01*
X103666900Y-103606600D01*
X103666900Y-103708200D01*
X103666900Y-103708200D01*
G37*
X103666900Y-103708200D02*
X104200300Y-103708200D01*
X104200300Y-104038400D01*
X103692300Y-104038400D01*
X103692300Y-104152700D01*
X104200300Y-104152700D01*
X104200300Y-104508300D01*
X103666900Y-104508300D01*
X103666900Y-104609900D01*
X104327300Y-104609900D01*
X104327300Y-103606600D01*
X103666900Y-103606600D01*
X103666900Y-103708200D01*
G36*
X107642000Y-103378000D02*
X107838850Y-103377030D01*
X108372250Y-102504084D01*
X108378930Y-103378000D01*
X108505600Y-103378000D01*
X108505600Y-102362000D01*
X108407175Y-102362327D01*
X108308750Y-102362655D01*
X107775350Y-103237973D01*
X107772011Y-102799986D01*
X107768671Y-102362000D01*
X107642000Y-102362000D01*
X107642000Y-103378000D01*
X107642000Y-103378000D01*
G37*
X107642000Y-103378000D02*
X107838850Y-103377030D01*
X108372250Y-102504084D01*
X108378930Y-103378000D01*
X108505600Y-103378000D01*
X108505600Y-102362000D01*
X108407175Y-102362327D01*
X108308750Y-102362655D01*
X107775350Y-103237973D01*
X107772011Y-102799986D01*
X107768671Y-102362000D01*
X107642000Y-102362000D01*
X107642000Y-103378000D01*
G36*
X107045100Y-103378000D02*
X107159400Y-103378000D01*
X107159400Y-102362000D01*
X107045100Y-102362000D01*
X107045100Y-103378000D01*
X107045100Y-103378000D01*
G37*
X107045100Y-103378000D02*
X107159400Y-103378000D01*
X107159400Y-102362000D01*
X107045100Y-102362000D01*
X107045100Y-103378000D01*
G36*
X105808415Y-102364976D02*
X105788996Y-102373552D01*
X105787800Y-102377280D01*
X105791917Y-102392201D01*
X105803671Y-102428448D01*
X105822170Y-102483420D01*
X105846521Y-102554519D01*
X105875831Y-102639143D01*
X105909208Y-102734694D01*
X105945758Y-102838571D01*
X105962273Y-102885280D01*
X106136746Y-103378000D01*
X106306113Y-103378000D01*
X106324949Y-103324025D01*
X106333473Y-103299883D01*
X106349462Y-103254877D01*
X106371827Y-103192057D01*
X106399482Y-103114477D01*
X106431337Y-103025187D01*
X106466306Y-102927241D01*
X106503300Y-102823689D01*
X106503943Y-102821890D01*
X106540041Y-102720711D01*
X106573295Y-102627177D01*
X106602767Y-102543955D01*
X106627518Y-102473710D01*
X106646609Y-102419105D01*
X106659101Y-102382808D01*
X106664056Y-102367482D01*
X106664100Y-102367201D01*
X106652671Y-102364215D01*
X106623307Y-102363536D01*
X106597425Y-102364511D01*
X106530750Y-102368350D01*
X106378350Y-102803141D01*
X106343286Y-102902613D01*
X106310659Y-102994091D01*
X106281449Y-103074905D01*
X106256639Y-103142385D01*
X106237211Y-103193860D01*
X106224145Y-103226660D01*
X106218436Y-103238116D01*
X106210673Y-103227262D01*
X106199829Y-103199655D01*
X106194991Y-103184325D01*
X106187645Y-103161417D01*
X106173272Y-103118266D01*
X106153160Y-103058627D01*
X106128597Y-102986257D01*
X106100870Y-102904912D01*
X106071268Y-102818348D01*
X106041079Y-102730323D01*
X106011589Y-102644592D01*
X105984088Y-102564911D01*
X105959863Y-102495038D01*
X105940202Y-102438729D01*
X105926392Y-102399740D01*
X105920688Y-102384225D01*
X105908246Y-102369910D01*
X105881338Y-102363205D01*
X105849942Y-102362000D01*
X105808415Y-102364976D01*
X105808415Y-102364976D01*
G37*
X105808415Y-102364976D02*
X105788996Y-102373552D01*
X105787800Y-102377280D01*
X105791917Y-102392201D01*
X105803671Y-102428448D01*
X105822170Y-102483420D01*
X105846521Y-102554519D01*
X105875831Y-102639143D01*
X105909208Y-102734694D01*
X105945758Y-102838571D01*
X105962273Y-102885280D01*
X106136746Y-103378000D01*
X106306113Y-103378000D01*
X106324949Y-103324025D01*
X106333473Y-103299883D01*
X106349462Y-103254877D01*
X106371827Y-103192057D01*
X106399482Y-103114477D01*
X106431337Y-103025187D01*
X106466306Y-102927241D01*
X106503300Y-102823689D01*
X106503943Y-102821890D01*
X106540041Y-102720711D01*
X106573295Y-102627177D01*
X106602767Y-102543955D01*
X106627518Y-102473710D01*
X106646609Y-102419105D01*
X106659101Y-102382808D01*
X106664056Y-102367482D01*
X106664100Y-102367201D01*
X106652671Y-102364215D01*
X106623307Y-102363536D01*
X106597425Y-102364511D01*
X106530750Y-102368350D01*
X106378350Y-102803141D01*
X106343286Y-102902613D01*
X106310659Y-102994091D01*
X106281449Y-103074905D01*
X106256639Y-103142385D01*
X106237211Y-103193860D01*
X106224145Y-103226660D01*
X106218436Y-103238116D01*
X106210673Y-103227262D01*
X106199829Y-103199655D01*
X106194991Y-103184325D01*
X106187645Y-103161417D01*
X106173272Y-103118266D01*
X106153160Y-103058627D01*
X106128597Y-102986257D01*
X106100870Y-102904912D01*
X106071268Y-102818348D01*
X106041079Y-102730323D01*
X106011589Y-102644592D01*
X105984088Y-102564911D01*
X105959863Y-102495038D01*
X105940202Y-102438729D01*
X105926392Y-102399740D01*
X105920688Y-102384225D01*
X105908246Y-102369910D01*
X105881338Y-102363205D01*
X105849942Y-102362000D01*
X105808415Y-102364976D01*
G36*
X104797200Y-102476300D02*
X105317900Y-102476300D01*
X105317900Y-102793800D01*
X104822600Y-102793800D01*
X104822600Y-102908100D01*
X105317900Y-102908100D01*
X105317900Y-103263700D01*
X104797200Y-103263700D01*
X104797200Y-103378000D01*
X105444900Y-103378000D01*
X105444900Y-102362000D01*
X104797200Y-102362000D01*
X104797200Y-102476300D01*
X104797200Y-102476300D01*
G37*
X104797200Y-102476300D02*
X105317900Y-102476300D01*
X105317900Y-102793800D01*
X104822600Y-102793800D01*
X104822600Y-102908100D01*
X105317900Y-102908100D01*
X105317900Y-103263700D01*
X104797200Y-103263700D01*
X104797200Y-103378000D01*
X105444900Y-103378000D01*
X105444900Y-102362000D01*
X104797200Y-102362000D01*
X104797200Y-102476300D01*
G36*
X104063775Y-102364462D02*
X103957842Y-102366513D01*
X103874017Y-102369299D01*
X103809007Y-102373414D01*
X103759520Y-102379451D01*
X103722266Y-102388006D01*
X103693951Y-102399671D01*
X103671285Y-102415040D01*
X103650974Y-102434707D01*
X103646435Y-102439738D01*
X103620252Y-102477998D01*
X103603037Y-102526106D01*
X103593593Y-102589054D01*
X103590720Y-102671833D01*
X103590720Y-102671870D01*
X103594318Y-102752757D01*
X103606096Y-102813049D01*
X103627574Y-102856660D01*
X103660276Y-102887506D01*
X103678628Y-102898052D01*
X103722105Y-102919754D01*
X103688158Y-102932660D01*
X103657241Y-102948913D01*
X103634540Y-102973141D01*
X103618934Y-103008924D01*
X103609303Y-103059843D01*
X103604527Y-103129479D01*
X103603448Y-103203375D01*
X103603400Y-103378000D01*
X103714214Y-103378000D01*
X103720710Y-103228775D01*
X103725153Y-103147820D01*
X103732604Y-103085914D01*
X103746177Y-103040506D01*
X103768988Y-103009043D01*
X103804149Y-102988974D01*
X103854775Y-102977747D01*
X103923980Y-102972811D01*
X104014878Y-102971615D01*
X104034570Y-102971600D01*
X104238400Y-102971600D01*
X104238400Y-103378000D01*
X104365400Y-103378000D01*
X104365400Y-102476300D01*
X104238400Y-102476300D01*
X104238400Y-102857300D01*
X104025675Y-102857112D01*
X103928488Y-102856037D01*
X103855775Y-102852969D01*
X103806685Y-102847850D01*
X103781200Y-102841061D01*
X103740988Y-102807580D01*
X103716718Y-102755058D01*
X103708236Y-102683072D01*
X103709423Y-102645733D01*
X103716482Y-102580045D01*
X103728468Y-102535046D01*
X103747313Y-102506200D01*
X103774947Y-102488974D01*
X103776449Y-102488392D01*
X103799477Y-102484353D01*
X103842917Y-102480888D01*
X103901783Y-102478238D01*
X103971089Y-102476650D01*
X104023327Y-102476300D01*
X104238400Y-102476300D01*
X104365400Y-102476300D01*
X104365400Y-102359658D01*
X104063775Y-102364462D01*
X104063775Y-102364462D01*
G37*
X104063775Y-102364462D02*
X103957842Y-102366513D01*
X103874017Y-102369299D01*
X103809007Y-102373414D01*
X103759520Y-102379451D01*
X103722266Y-102388006D01*
X103693951Y-102399671D01*
X103671285Y-102415040D01*
X103650974Y-102434707D01*
X103646435Y-102439738D01*
X103620252Y-102477998D01*
X103603037Y-102526106D01*
X103593593Y-102589054D01*
X103590720Y-102671833D01*
X103590720Y-102671870D01*
X103594318Y-102752757D01*
X103606096Y-102813049D01*
X103627574Y-102856660D01*
X103660276Y-102887506D01*
X103678628Y-102898052D01*
X103722105Y-102919754D01*
X103688158Y-102932660D01*
X103657241Y-102948913D01*
X103634540Y-102973141D01*
X103618934Y-103008924D01*
X103609303Y-103059843D01*
X103604527Y-103129479D01*
X103603448Y-103203375D01*
X103603400Y-103378000D01*
X103714214Y-103378000D01*
X103720710Y-103228775D01*
X103725153Y-103147820D01*
X103732604Y-103085914D01*
X103746177Y-103040506D01*
X103768988Y-103009043D01*
X103804149Y-102988974D01*
X103854775Y-102977747D01*
X103923980Y-102972811D01*
X104014878Y-102971615D01*
X104034570Y-102971600D01*
X104238400Y-102971600D01*
X104238400Y-103378000D01*
X104365400Y-103378000D01*
X104365400Y-102476300D01*
X104238400Y-102476300D01*
X104238400Y-102857300D01*
X104025675Y-102857112D01*
X103928488Y-102856037D01*
X103855775Y-102852969D01*
X103806685Y-102847850D01*
X103781200Y-102841061D01*
X103740988Y-102807580D01*
X103716718Y-102755058D01*
X103708236Y-102683072D01*
X103709423Y-102645733D01*
X103716482Y-102580045D01*
X103728468Y-102535046D01*
X103747313Y-102506200D01*
X103774947Y-102488974D01*
X103776449Y-102488392D01*
X103799477Y-102484353D01*
X103842917Y-102480888D01*
X103901783Y-102478238D01*
X103971089Y-102476650D01*
X104023327Y-102476300D01*
X104238400Y-102476300D01*
X104365400Y-102476300D01*
X104365400Y-102359658D01*
X104063775Y-102364462D01*
G36*
X102693302Y-102362056D02*
X102620812Y-102370707D01*
X102562794Y-102384026D01*
X102533508Y-102396419D01*
X102489039Y-102433974D01*
X102459084Y-102487704D01*
X102441893Y-102560859D01*
X102440928Y-102568375D01*
X102432074Y-102641400D01*
X102559116Y-102641400D01*
X102567824Y-102583334D01*
X102578224Y-102542529D01*
X102593926Y-102509448D01*
X102600100Y-102501700D01*
X102635638Y-102481265D01*
X102693759Y-102468785D01*
X102775045Y-102464177D01*
X102854723Y-102465987D01*
X102934770Y-102474380D01*
X102992668Y-102492314D01*
X103030616Y-102522097D01*
X103050814Y-102566037D01*
X103055461Y-102626442D01*
X103051572Y-102672575D01*
X103045647Y-102709035D01*
X103035924Y-102736491D01*
X103018909Y-102756663D01*
X102991107Y-102771274D01*
X102949024Y-102782045D01*
X102889168Y-102790697D01*
X102808043Y-102798952D01*
X102792088Y-102800421D01*
X102720614Y-102807551D01*
X102654032Y-102815278D01*
X102598398Y-102822823D01*
X102559769Y-102829406D01*
X102550942Y-102831458D01*
X102499780Y-102853746D01*
X102462318Y-102890589D01*
X102437703Y-102944048D01*
X102425080Y-103016186D01*
X102423595Y-103109064D01*
X102424869Y-103135843D01*
X102434286Y-103214068D01*
X102453589Y-103272358D01*
X102484915Y-103314967D01*
X102530402Y-103346148D01*
X102530604Y-103346250D01*
X102568867Y-103358287D01*
X102626436Y-103367512D01*
X102697359Y-103373817D01*
X102775685Y-103377091D01*
X102855464Y-103377227D01*
X102930746Y-103374114D01*
X102995579Y-103367645D01*
X103044013Y-103357709D01*
X103049917Y-103355764D01*
X103106290Y-103326475D01*
X103146341Y-103283155D01*
X103171429Y-103223293D01*
X103182913Y-103144380D01*
X103183998Y-103108125D01*
X103184300Y-103047800D01*
X103057300Y-103047800D01*
X103057300Y-103105357D01*
X103050541Y-103170149D01*
X103031494Y-103220524D01*
X103002009Y-103252521D01*
X102985112Y-103260072D01*
X102954751Y-103264623D01*
X102906009Y-103267750D01*
X102845821Y-103269448D01*
X102781126Y-103269712D01*
X102718859Y-103268538D01*
X102665956Y-103265920D01*
X102629356Y-103261855D01*
X102622486Y-103260323D01*
X102583130Y-103238348D01*
X102557700Y-103197519D01*
X102545457Y-103136389D01*
X102544105Y-103107270D01*
X102545673Y-103041521D01*
X102553644Y-102996119D01*
X102569505Y-102966492D01*
X102594741Y-102948069D01*
X102596037Y-102947469D01*
X102621347Y-102940827D01*
X102666136Y-102933804D01*
X102724506Y-102927158D01*
X102790562Y-102921644D01*
X102804272Y-102920738D01*
X102913391Y-102910654D01*
X102999777Y-102894508D01*
X103065730Y-102870524D01*
X103113554Y-102836927D01*
X103145551Y-102791939D01*
X103164021Y-102733786D01*
X103171269Y-102660691D01*
X103171600Y-102637353D01*
X103166933Y-102551624D01*
X103151917Y-102486396D01*
X103125029Y-102438354D01*
X103084748Y-102404181D01*
X103058534Y-102391015D01*
X103005527Y-102375384D01*
X102936377Y-102364736D01*
X102857207Y-102359007D01*
X102774141Y-102358135D01*
X102693302Y-102362056D01*
X102693302Y-102362056D01*
G37*
X102693302Y-102362056D02*
X102620812Y-102370707D01*
X102562794Y-102384026D01*
X102533508Y-102396419D01*
X102489039Y-102433974D01*
X102459084Y-102487704D01*
X102441893Y-102560859D01*
X102440928Y-102568375D01*
X102432074Y-102641400D01*
X102559116Y-102641400D01*
X102567824Y-102583334D01*
X102578224Y-102542529D01*
X102593926Y-102509448D01*
X102600100Y-102501700D01*
X102635638Y-102481265D01*
X102693759Y-102468785D01*
X102775045Y-102464177D01*
X102854723Y-102465987D01*
X102934770Y-102474380D01*
X102992668Y-102492314D01*
X103030616Y-102522097D01*
X103050814Y-102566037D01*
X103055461Y-102626442D01*
X103051572Y-102672575D01*
X103045647Y-102709035D01*
X103035924Y-102736491D01*
X103018909Y-102756663D01*
X102991107Y-102771274D01*
X102949024Y-102782045D01*
X102889168Y-102790697D01*
X102808043Y-102798952D01*
X102792088Y-102800421D01*
X102720614Y-102807551D01*
X102654032Y-102815278D01*
X102598398Y-102822823D01*
X102559769Y-102829406D01*
X102550942Y-102831458D01*
X102499780Y-102853746D01*
X102462318Y-102890589D01*
X102437703Y-102944048D01*
X102425080Y-103016186D01*
X102423595Y-103109064D01*
X102424869Y-103135843D01*
X102434286Y-103214068D01*
X102453589Y-103272358D01*
X102484915Y-103314967D01*
X102530402Y-103346148D01*
X102530604Y-103346250D01*
X102568867Y-103358287D01*
X102626436Y-103367512D01*
X102697359Y-103373817D01*
X102775685Y-103377091D01*
X102855464Y-103377227D01*
X102930746Y-103374114D01*
X102995579Y-103367645D01*
X103044013Y-103357709D01*
X103049917Y-103355764D01*
X103106290Y-103326475D01*
X103146341Y-103283155D01*
X103171429Y-103223293D01*
X103182913Y-103144380D01*
X103183998Y-103108125D01*
X103184300Y-103047800D01*
X103057300Y-103047800D01*
X103057300Y-103105357D01*
X103050541Y-103170149D01*
X103031494Y-103220524D01*
X103002009Y-103252521D01*
X102985112Y-103260072D01*
X102954751Y-103264623D01*
X102906009Y-103267750D01*
X102845821Y-103269448D01*
X102781126Y-103269712D01*
X102718859Y-103268538D01*
X102665956Y-103265920D01*
X102629356Y-103261855D01*
X102622486Y-103260323D01*
X102583130Y-103238348D01*
X102557700Y-103197519D01*
X102545457Y-103136389D01*
X102544105Y-103107270D01*
X102545673Y-103041521D01*
X102553644Y-102996119D01*
X102569505Y-102966492D01*
X102594741Y-102948069D01*
X102596037Y-102947469D01*
X102621347Y-102940827D01*
X102666136Y-102933804D01*
X102724506Y-102927158D01*
X102790562Y-102921644D01*
X102804272Y-102920738D01*
X102913391Y-102910654D01*
X102999777Y-102894508D01*
X103065730Y-102870524D01*
X103113554Y-102836927D01*
X103145551Y-102791939D01*
X103164021Y-102733786D01*
X103171269Y-102660691D01*
X103171600Y-102637353D01*
X103166933Y-102551624D01*
X103151917Y-102486396D01*
X103125029Y-102438354D01*
X103084748Y-102404181D01*
X103058534Y-102391015D01*
X103005527Y-102375384D01*
X102936377Y-102364736D01*
X102857207Y-102359007D01*
X102774141Y-102358135D01*
X102693302Y-102362056D01*
G36*
X101876200Y-103378000D02*
X102003200Y-103378000D01*
X102003200Y-102362000D01*
X101876200Y-102362000D01*
X101876200Y-103378000D01*
X101876200Y-103378000D01*
G37*
X101876200Y-103378000D02*
X102003200Y-103378000D01*
X102003200Y-102362000D01*
X101876200Y-102362000D01*
X101876200Y-103378000D01*
G36*
X100707800Y-102476300D02*
X101038000Y-102476300D01*
X101038000Y-103378000D01*
X101165000Y-103378000D01*
X101165000Y-102476300D01*
X101482500Y-102476300D01*
X101482500Y-102362000D01*
X100707800Y-102362000D01*
X100707800Y-102476300D01*
X100707800Y-102476300D01*
G37*
X100707800Y-102476300D02*
X101038000Y-102476300D01*
X101038000Y-103378000D01*
X101165000Y-103378000D01*
X101165000Y-102476300D01*
X101482500Y-102476300D01*
X101482500Y-102362000D01*
X100707800Y-102362000D01*
X100707800Y-102476300D01*
G36*
X99595854Y-102363903D02*
X99570770Y-102368808D01*
X99564800Y-102373453D01*
X99571458Y-102386754D01*
X99590224Y-102418399D01*
X99619285Y-102465486D01*
X99656832Y-102525112D01*
X99701053Y-102594373D01*
X99748950Y-102668543D01*
X99933100Y-102952181D01*
X99933100Y-103378000D01*
X100060100Y-103378000D01*
X100060100Y-102957846D01*
X100244250Y-102666368D01*
X100292733Y-102589378D01*
X100336435Y-102519498D01*
X100373605Y-102459569D01*
X100402489Y-102412433D01*
X100421335Y-102380933D01*
X100428388Y-102367911D01*
X100428400Y-102367811D01*
X100416914Y-102364606D01*
X100387173Y-102363594D01*
X100355658Y-102364541D01*
X100282915Y-102368350D01*
X100147835Y-102581887D01*
X100105868Y-102647903D01*
X100068066Y-102706751D01*
X100036682Y-102754973D01*
X100013969Y-102789111D01*
X100002181Y-102805708D01*
X100001503Y-102806462D01*
X99991522Y-102799660D01*
X99970231Y-102773637D01*
X99939438Y-102730921D01*
X99900950Y-102674041D01*
X99856576Y-102605525D01*
X99846587Y-102589750D01*
X99702923Y-102362000D01*
X99633862Y-102362000D01*
X99595854Y-102363903D01*
X99595854Y-102363903D01*
G37*
X99595854Y-102363903D02*
X99570770Y-102368808D01*
X99564800Y-102373453D01*
X99571458Y-102386754D01*
X99590224Y-102418399D01*
X99619285Y-102465486D01*
X99656832Y-102525112D01*
X99701053Y-102594373D01*
X99748950Y-102668543D01*
X99933100Y-102952181D01*
X99933100Y-103378000D01*
X100060100Y-103378000D01*
X100060100Y-102957846D01*
X100244250Y-102666368D01*
X100292733Y-102589378D01*
X100336435Y-102519498D01*
X100373605Y-102459569D01*
X100402489Y-102412433D01*
X100421335Y-102380933D01*
X100428388Y-102367911D01*
X100428400Y-102367811D01*
X100416914Y-102364606D01*
X100387173Y-102363594D01*
X100355658Y-102364541D01*
X100282915Y-102368350D01*
X100147835Y-102581887D01*
X100105868Y-102647903D01*
X100068066Y-102706751D01*
X100036682Y-102754973D01*
X100013969Y-102789111D01*
X100002181Y-102805708D01*
X100001503Y-102806462D01*
X99991522Y-102799660D01*
X99970231Y-102773637D01*
X99939438Y-102730921D01*
X99900950Y-102674041D01*
X99856576Y-102605525D01*
X99846587Y-102589750D01*
X99702923Y-102362000D01*
X99633862Y-102362000D01*
X99595854Y-102363903D01*
G36*
X100980850Y-101124120D02*
X100882305Y-101124969D01*
X100805692Y-101127768D01*
X100747563Y-101133431D01*
X100704471Y-101142873D01*
X100672970Y-101157009D01*
X100649611Y-101176754D01*
X100630948Y-101203023D01*
X100622075Y-101219328D01*
X100599380Y-101283849D01*
X100593500Y-101348690D01*
X100593500Y-101422200D01*
X100704528Y-101422200D01*
X100712814Y-101359736D01*
X100722850Y-101308955D01*
X100740167Y-101274393D01*
X100769553Y-101252001D01*
X100815795Y-101237735D01*
X100866727Y-101229633D01*
X100938522Y-101223590D01*
X101016238Y-101222299D01*
X101092250Y-101225430D01*
X101158933Y-101232649D01*
X101208663Y-101243627D01*
X101211598Y-101244629D01*
X101252535Y-101272284D01*
X101275098Y-101305609D01*
X101282931Y-101324041D01*
X101288809Y-101346038D01*
X101293002Y-101375322D01*
X101295782Y-101415616D01*
X101297419Y-101470643D01*
X101298184Y-101544126D01*
X101298350Y-101625400D01*
X101297966Y-101735857D01*
X101295572Y-101823603D01*
X101289309Y-101891323D01*
X101277318Y-101941707D01*
X101257740Y-101977441D01*
X101228715Y-102001212D01*
X101188384Y-102015709D01*
X101134888Y-102023618D01*
X101066366Y-102027627D01*
X101018950Y-102029225D01*
X100923939Y-102030742D01*
X100851097Y-102027339D01*
X100797369Y-102017096D01*
X100759704Y-101998094D01*
X100735047Y-101968416D01*
X100720345Y-101926140D01*
X100712545Y-101869349D01*
X100710297Y-101835242D01*
X100704615Y-101727000D01*
X101025300Y-101727000D01*
X101025300Y-101625400D01*
X100594651Y-101625400D01*
X100586382Y-101669480D01*
X100583459Y-101709616D01*
X100585024Y-101766854D01*
X100590250Y-101833460D01*
X100598309Y-101901698D01*
X100608375Y-101963833D01*
X100619622Y-102012130D01*
X100624540Y-102026530D01*
X100646501Y-102064781D01*
X100679792Y-102093167D01*
X100728366Y-102113662D01*
X100796176Y-102128236D01*
X100840075Y-102134099D01*
X100962505Y-102143401D01*
X101077734Y-102141084D01*
X101162795Y-102132453D01*
X101228476Y-102121235D01*
X101282320Y-102104691D01*
X101325396Y-102080475D01*
X101358775Y-102046240D01*
X101383529Y-101999638D01*
X101400727Y-101938323D01*
X101411440Y-101859948D01*
X101416740Y-101762165D01*
X101417696Y-101642628D01*
X101416904Y-101575424D01*
X101415296Y-101486663D01*
X101413465Y-101419230D01*
X101410972Y-101369052D01*
X101407380Y-101332057D01*
X101402251Y-101304175D01*
X101395148Y-101281332D01*
X101385632Y-101259458D01*
X101382183Y-101252355D01*
X101359888Y-101213632D01*
X101333848Y-101187024D01*
X101295026Y-101164060D01*
X101280583Y-101157105D01*
X101254104Y-101145190D01*
X101230057Y-101136520D01*
X101203838Y-101130588D01*
X101170846Y-101126888D01*
X101126477Y-101124913D01*
X101066129Y-101124157D01*
X100985199Y-101124113D01*
X100980850Y-101124120D01*
X100980850Y-101124120D01*
G37*
X100980850Y-101124120D02*
X100882305Y-101124969D01*
X100805692Y-101127768D01*
X100747563Y-101133431D01*
X100704471Y-101142873D01*
X100672970Y-101157009D01*
X100649611Y-101176754D01*
X100630948Y-101203023D01*
X100622075Y-101219328D01*
X100599380Y-101283849D01*
X100593500Y-101348690D01*
X100593500Y-101422200D01*
X100704528Y-101422200D01*
X100712814Y-101359736D01*
X100722850Y-101308955D01*
X100740167Y-101274393D01*
X100769553Y-101252001D01*
X100815795Y-101237735D01*
X100866727Y-101229633D01*
X100938522Y-101223590D01*
X101016238Y-101222299D01*
X101092250Y-101225430D01*
X101158933Y-101232649D01*
X101208663Y-101243627D01*
X101211598Y-101244629D01*
X101252535Y-101272284D01*
X101275098Y-101305609D01*
X101282931Y-101324041D01*
X101288809Y-101346038D01*
X101293002Y-101375322D01*
X101295782Y-101415616D01*
X101297419Y-101470643D01*
X101298184Y-101544126D01*
X101298350Y-101625400D01*
X101297966Y-101735857D01*
X101295572Y-101823603D01*
X101289309Y-101891323D01*
X101277318Y-101941707D01*
X101257740Y-101977441D01*
X101228715Y-102001212D01*
X101188384Y-102015709D01*
X101134888Y-102023618D01*
X101066366Y-102027627D01*
X101018950Y-102029225D01*
X100923939Y-102030742D01*
X100851097Y-102027339D01*
X100797369Y-102017096D01*
X100759704Y-101998094D01*
X100735047Y-101968416D01*
X100720345Y-101926140D01*
X100712545Y-101869349D01*
X100710297Y-101835242D01*
X100704615Y-101727000D01*
X101025300Y-101727000D01*
X101025300Y-101625400D01*
X100594651Y-101625400D01*
X100586382Y-101669480D01*
X100583459Y-101709616D01*
X100585024Y-101766854D01*
X100590250Y-101833460D01*
X100598309Y-101901698D01*
X100608375Y-101963833D01*
X100619622Y-102012130D01*
X100624540Y-102026530D01*
X100646501Y-102064781D01*
X100679792Y-102093167D01*
X100728366Y-102113662D01*
X100796176Y-102128236D01*
X100840075Y-102134099D01*
X100962505Y-102143401D01*
X101077734Y-102141084D01*
X101162795Y-102132453D01*
X101228476Y-102121235D01*
X101282320Y-102104691D01*
X101325396Y-102080475D01*
X101358775Y-102046240D01*
X101383529Y-101999638D01*
X101400727Y-101938323D01*
X101411440Y-101859948D01*
X101416740Y-101762165D01*
X101417696Y-101642628D01*
X101416904Y-101575424D01*
X101415296Y-101486663D01*
X101413465Y-101419230D01*
X101410972Y-101369052D01*
X101407380Y-101332057D01*
X101402251Y-101304175D01*
X101395148Y-101281332D01*
X101385632Y-101259458D01*
X101382183Y-101252355D01*
X101359888Y-101213632D01*
X101333848Y-101187024D01*
X101295026Y-101164060D01*
X101280583Y-101157105D01*
X101254104Y-101145190D01*
X101230057Y-101136520D01*
X101203838Y-101130588D01*
X101170846Y-101126888D01*
X101126477Y-101124913D01*
X101066129Y-101124157D01*
X100985199Y-101124113D01*
X100980850Y-101124120D01*
G36*
X108153734Y-101119459D02*
X108140628Y-101120034D01*
X108058585Y-101123750D01*
X107896761Y-101555550D01*
X107858341Y-101658078D01*
X107821645Y-101756023D01*
X107787898Y-101846111D01*
X107758327Y-101925073D01*
X107734155Y-101989635D01*
X107716609Y-102036526D01*
X107707698Y-102060375D01*
X107680457Y-102133400D01*
X107814018Y-102133400D01*
X107892004Y-101923850D01*
X108138542Y-101920416D01*
X108385080Y-101916983D01*
X108422589Y-102025191D01*
X108460098Y-102133400D01*
X108527299Y-102133400D01*
X108564730Y-102132686D01*
X108589127Y-102130852D01*
X108594500Y-102129217D01*
X108590303Y-102116817D01*
X108578456Y-102083638D01*
X108560080Y-102032743D01*
X108536295Y-101967190D01*
X108508220Y-101890041D01*
X108485815Y-101828600D01*
X108352830Y-101828600D01*
X108143465Y-101828600D01*
X108073760Y-101828129D01*
X108013886Y-101826825D01*
X107968031Y-101824854D01*
X107940383Y-101822380D01*
X107934100Y-101820385D01*
X107938313Y-101805374D01*
X107949931Y-101770809D01*
X107967424Y-101720868D01*
X107989263Y-101659730D01*
X108013918Y-101591573D01*
X108039859Y-101520575D01*
X108065558Y-101450915D01*
X108089483Y-101386771D01*
X108110107Y-101332321D01*
X108125898Y-101291743D01*
X108135327Y-101269217D01*
X108136993Y-101266176D01*
X108143741Y-101274359D01*
X108157274Y-101303079D01*
X108176154Y-101348840D01*
X108198943Y-101408149D01*
X108224203Y-101477510D01*
X108225823Y-101482076D01*
X108252815Y-101557958D01*
X108278596Y-101629852D01*
X108301312Y-101692628D01*
X108319108Y-101741157D01*
X108329329Y-101768275D01*
X108352830Y-101828600D01*
X108485815Y-101828600D01*
X108476974Y-101804356D01*
X108443677Y-101713197D01*
X108409450Y-101619623D01*
X108375411Y-101526694D01*
X108342680Y-101437473D01*
X108312377Y-101355018D01*
X108285622Y-101282391D01*
X108263533Y-101222652D01*
X108247232Y-101178862D01*
X108237836Y-101154082D01*
X108236928Y-101151784D01*
X108227824Y-101132711D01*
X108215459Y-101122461D01*
X108193031Y-101118791D01*
X108153734Y-101119459D01*
X108153734Y-101119459D01*
G37*
X108153734Y-101119459D02*
X108140628Y-101120034D01*
X108058585Y-101123750D01*
X107896761Y-101555550D01*
X107858341Y-101658078D01*
X107821645Y-101756023D01*
X107787898Y-101846111D01*
X107758327Y-101925073D01*
X107734155Y-101989635D01*
X107716609Y-102036526D01*
X107707698Y-102060375D01*
X107680457Y-102133400D01*
X107814018Y-102133400D01*
X107892004Y-101923850D01*
X108138542Y-101920416D01*
X108385080Y-101916983D01*
X108422589Y-102025191D01*
X108460098Y-102133400D01*
X108527299Y-102133400D01*
X108564730Y-102132686D01*
X108589127Y-102130852D01*
X108594500Y-102129217D01*
X108590303Y-102116817D01*
X108578456Y-102083638D01*
X108560080Y-102032743D01*
X108536295Y-101967190D01*
X108508220Y-101890041D01*
X108485815Y-101828600D01*
X108352830Y-101828600D01*
X108143465Y-101828600D01*
X108073760Y-101828129D01*
X108013886Y-101826825D01*
X107968031Y-101824854D01*
X107940383Y-101822380D01*
X107934100Y-101820385D01*
X107938313Y-101805374D01*
X107949931Y-101770809D01*
X107967424Y-101720868D01*
X107989263Y-101659730D01*
X108013918Y-101591573D01*
X108039859Y-101520575D01*
X108065558Y-101450915D01*
X108089483Y-101386771D01*
X108110107Y-101332321D01*
X108125898Y-101291743D01*
X108135327Y-101269217D01*
X108136993Y-101266176D01*
X108143741Y-101274359D01*
X108157274Y-101303079D01*
X108176154Y-101348840D01*
X108198943Y-101408149D01*
X108224203Y-101477510D01*
X108225823Y-101482076D01*
X108252815Y-101557958D01*
X108278596Y-101629852D01*
X108301312Y-101692628D01*
X108319108Y-101741157D01*
X108329329Y-101768275D01*
X108352830Y-101828600D01*
X108485815Y-101828600D01*
X108476974Y-101804356D01*
X108443677Y-101713197D01*
X108409450Y-101619623D01*
X108375411Y-101526694D01*
X108342680Y-101437473D01*
X108312377Y-101355018D01*
X108285622Y-101282391D01*
X108263533Y-101222652D01*
X108247232Y-101178862D01*
X108237836Y-101154082D01*
X108236928Y-101151784D01*
X108227824Y-101132711D01*
X108215459Y-101122461D01*
X108193031Y-101118791D01*
X108153734Y-101119459D01*
G36*
X106194200Y-102133400D02*
X106321200Y-102133400D01*
X106321884Y-101263450D01*
X106501966Y-101698997D01*
X106682047Y-102134545D01*
X106744947Y-102130797D01*
X106807848Y-102127050D01*
X107165750Y-101266638D01*
X107172434Y-102133400D01*
X107299100Y-102133400D01*
X107299100Y-101116372D01*
X107194425Y-101120061D01*
X107089749Y-101123750D01*
X106918577Y-101538994D01*
X106878828Y-101634866D01*
X106842014Y-101722592D01*
X106809261Y-101799573D01*
X106781693Y-101863210D01*
X106760435Y-101910903D01*
X106746613Y-101940054D01*
X106741437Y-101948269D01*
X106735398Y-101935521D01*
X106720918Y-101901970D01*
X106699133Y-101850337D01*
X106671179Y-101783345D01*
X106638194Y-101703716D01*
X106601314Y-101614170D01*
X106568051Y-101533025D01*
X106400633Y-101123750D01*
X106297417Y-101120061D01*
X106194200Y-101116372D01*
X106194200Y-102133400D01*
X106194200Y-102133400D01*
G37*
X106194200Y-102133400D02*
X106321200Y-102133400D01*
X106321884Y-101263450D01*
X106501966Y-101698997D01*
X106682047Y-102134545D01*
X106744947Y-102130797D01*
X106807848Y-102127050D01*
X107165750Y-101266638D01*
X107172434Y-102133400D01*
X107299100Y-102133400D01*
X107299100Y-101116372D01*
X107194425Y-101120061D01*
X107089749Y-101123750D01*
X106918577Y-101538994D01*
X106878828Y-101634866D01*
X106842014Y-101722592D01*
X106809261Y-101799573D01*
X106781693Y-101863210D01*
X106760435Y-101910903D01*
X106746613Y-101940054D01*
X106741437Y-101948269D01*
X106735398Y-101935521D01*
X106720918Y-101901970D01*
X106699133Y-101850337D01*
X106671179Y-101783345D01*
X106638194Y-101703716D01*
X106601314Y-101614170D01*
X106568051Y-101533025D01*
X106400633Y-101123750D01*
X106297417Y-101120061D01*
X106194200Y-101116372D01*
X106194200Y-102133400D01*
G36*
X105505225Y-101117625D02*
X105379936Y-101119288D01*
X105270907Y-101123861D01*
X105180111Y-101131157D01*
X105109527Y-101140990D01*
X105061127Y-101153171D01*
X105043884Y-101161315D01*
X105009093Y-101193274D01*
X104986100Y-101237874D01*
X104973501Y-101299105D01*
X104969887Y-101371400D01*
X104973614Y-101449830D01*
X104986575Y-101508376D01*
X105010313Y-101551362D01*
X105045229Y-101582365D01*
X105076829Y-101603070D01*
X105035440Y-101624700D01*
X104990235Y-101662185D01*
X104957878Y-101718832D01*
X104940028Y-101790997D01*
X104936971Y-101840815D01*
X104942411Y-101929603D01*
X104959680Y-101998802D01*
X104990459Y-102052107D01*
X105036427Y-102093213D01*
X105057550Y-102106031D01*
X105073559Y-102112877D01*
X105095976Y-102118257D01*
X105128033Y-102122407D01*
X105172957Y-102125561D01*
X105233980Y-102127954D01*
X105314329Y-102129821D01*
X105403625Y-102131217D01*
X105711600Y-102135384D01*
X105711600Y-102019100D01*
X105584600Y-102019100D01*
X105368070Y-102019100D01*
X105281477Y-102018550D01*
X105216630Y-102016719D01*
X105169897Y-102013336D01*
X105137643Y-102008129D01*
X105116236Y-102000827D01*
X105114970Y-102000189D01*
X105088565Y-101981725D01*
X105071882Y-101955723D01*
X105063106Y-101916827D01*
X105060421Y-101859680D01*
X105060515Y-101839518D01*
X105064719Y-101774750D01*
X105076712Y-101730342D01*
X105098288Y-101701968D01*
X105123318Y-101688038D01*
X105146593Y-101683439D01*
X105190246Y-101678599D01*
X105249264Y-101673934D01*
X105318633Y-101669859D01*
X105370195Y-101667596D01*
X105584600Y-101659502D01*
X105584600Y-102019100D01*
X105711600Y-102019100D01*
X105711600Y-101231700D01*
X105584600Y-101231700D01*
X105584600Y-101561900D01*
X105409975Y-101561597D01*
X105341153Y-101560649D01*
X105277168Y-101558274D01*
X105224504Y-101554811D01*
X105189646Y-101550601D01*
X105185938Y-101549831D01*
X105142683Y-101535755D01*
X105115300Y-101514152D01*
X105099824Y-101479408D01*
X105092293Y-101425914D01*
X105091629Y-101416334D01*
X105089396Y-101358609D01*
X105092864Y-101314313D01*
X105104859Y-101281680D01*
X105128207Y-101258946D01*
X105165736Y-101244345D01*
X105220271Y-101236114D01*
X105294640Y-101232488D01*
X105387343Y-101231700D01*
X105584600Y-101231700D01*
X105711600Y-101231700D01*
X105711600Y-101117400D01*
X105505225Y-101117625D01*
X105505225Y-101117625D01*
G37*
X105505225Y-101117625D02*
X105379936Y-101119288D01*
X105270907Y-101123861D01*
X105180111Y-101131157D01*
X105109527Y-101140990D01*
X105061127Y-101153171D01*
X105043884Y-101161315D01*
X105009093Y-101193274D01*
X104986100Y-101237874D01*
X104973501Y-101299105D01*
X104969887Y-101371400D01*
X104973614Y-101449830D01*
X104986575Y-101508376D01*
X105010313Y-101551362D01*
X105045229Y-101582365D01*
X105076829Y-101603070D01*
X105035440Y-101624700D01*
X104990235Y-101662185D01*
X104957878Y-101718832D01*
X104940028Y-101790997D01*
X104936971Y-101840815D01*
X104942411Y-101929603D01*
X104959680Y-101998802D01*
X104990459Y-102052107D01*
X105036427Y-102093213D01*
X105057550Y-102106031D01*
X105073559Y-102112877D01*
X105095976Y-102118257D01*
X105128033Y-102122407D01*
X105172957Y-102125561D01*
X105233980Y-102127954D01*
X105314329Y-102129821D01*
X105403625Y-102131217D01*
X105711600Y-102135384D01*
X105711600Y-102019100D01*
X105584600Y-102019100D01*
X105368070Y-102019100D01*
X105281477Y-102018550D01*
X105216630Y-102016719D01*
X105169897Y-102013336D01*
X105137643Y-102008129D01*
X105116236Y-102000827D01*
X105114970Y-102000189D01*
X105088565Y-101981725D01*
X105071882Y-101955723D01*
X105063106Y-101916827D01*
X105060421Y-101859680D01*
X105060515Y-101839518D01*
X105064719Y-101774750D01*
X105076712Y-101730342D01*
X105098288Y-101701968D01*
X105123318Y-101688038D01*
X105146593Y-101683439D01*
X105190246Y-101678599D01*
X105249264Y-101673934D01*
X105318633Y-101669859D01*
X105370195Y-101667596D01*
X105584600Y-101659502D01*
X105584600Y-102019100D01*
X105711600Y-102019100D01*
X105711600Y-101231700D01*
X105584600Y-101231700D01*
X105584600Y-101561900D01*
X105409975Y-101561597D01*
X105341153Y-101560649D01*
X105277168Y-101558274D01*
X105224504Y-101554811D01*
X105189646Y-101550601D01*
X105185938Y-101549831D01*
X105142683Y-101535755D01*
X105115300Y-101514152D01*
X105099824Y-101479408D01*
X105092293Y-101425914D01*
X105091629Y-101416334D01*
X105089396Y-101358609D01*
X105092864Y-101314313D01*
X105104859Y-101281680D01*
X105128207Y-101258946D01*
X105165736Y-101244345D01*
X105220271Y-101236114D01*
X105294640Y-101232488D01*
X105387343Y-101231700D01*
X105584600Y-101231700D01*
X105711600Y-101231700D01*
X105711600Y-101117400D01*
X105505225Y-101117625D01*
G36*
X104196419Y-101119614D02*
X104101655Y-101121460D01*
X104028564Y-101123347D01*
X103973424Y-101125652D01*
X103932510Y-101128756D01*
X103902100Y-101133037D01*
X103878469Y-101138875D01*
X103857893Y-101146649D01*
X103837857Y-101156137D01*
X103791756Y-101183778D01*
X103759376Y-101216550D01*
X103738281Y-101259427D01*
X103726036Y-101317385D01*
X103720204Y-101395399D01*
X103720162Y-101396487D01*
X103719787Y-101480205D01*
X103726711Y-101543537D01*
X103742243Y-101590777D01*
X103767688Y-101626223D01*
X103797147Y-101649682D01*
X103844800Y-101680519D01*
X103807552Y-101698559D01*
X103778868Y-101717021D01*
X103757966Y-101743016D01*
X103743764Y-101780315D01*
X103735177Y-101832690D01*
X103731122Y-101903909D01*
X103730400Y-101967044D01*
X103730400Y-102133400D01*
X103857400Y-102133400D01*
X103857400Y-101974850D01*
X103857588Y-101908862D01*
X103858800Y-101863020D01*
X103862008Y-101832072D01*
X103868186Y-101810763D01*
X103878306Y-101793842D01*
X103893340Y-101776054D01*
X103894437Y-101774825D01*
X103931473Y-101733350D01*
X104148437Y-101729104D01*
X104365400Y-101724859D01*
X104365400Y-102133400D01*
X104492400Y-102133400D01*
X104492400Y-101628698D01*
X104365400Y-101628698D01*
X104159025Y-101622989D01*
X104063903Y-101619332D01*
X103992481Y-101614201D01*
X103943092Y-101607434D01*
X103914550Y-101599100D01*
X103871814Y-101566864D01*
X103845858Y-101518150D01*
X103836105Y-101451489D01*
X103837717Y-101403150D01*
X103849149Y-101331120D01*
X103870272Y-101281016D01*
X103902113Y-101250886D01*
X103922045Y-101242793D01*
X103944860Y-101239801D01*
X103987982Y-101237102D01*
X104046317Y-101234907D01*
X104114774Y-101233426D01*
X104159025Y-101232965D01*
X104365400Y-101231700D01*
X104365400Y-101628698D01*
X104492400Y-101628698D01*
X104492400Y-101114202D01*
X104196419Y-101119614D01*
X104196419Y-101119614D01*
G37*
X104196419Y-101119614D02*
X104101655Y-101121460D01*
X104028564Y-101123347D01*
X103973424Y-101125652D01*
X103932510Y-101128756D01*
X103902100Y-101133037D01*
X103878469Y-101138875D01*
X103857893Y-101146649D01*
X103837857Y-101156137D01*
X103791756Y-101183778D01*
X103759376Y-101216550D01*
X103738281Y-101259427D01*
X103726036Y-101317385D01*
X103720204Y-101395399D01*
X103720162Y-101396487D01*
X103719787Y-101480205D01*
X103726711Y-101543537D01*
X103742243Y-101590777D01*
X103767688Y-101626223D01*
X103797147Y-101649682D01*
X103844800Y-101680519D01*
X103807552Y-101698559D01*
X103778868Y-101717021D01*
X103757966Y-101743016D01*
X103743764Y-101780315D01*
X103735177Y-101832690D01*
X103731122Y-101903909D01*
X103730400Y-101967044D01*
X103730400Y-102133400D01*
X103857400Y-102133400D01*
X103857400Y-101974850D01*
X103857588Y-101908862D01*
X103858800Y-101863020D01*
X103862008Y-101832072D01*
X103868186Y-101810763D01*
X103878306Y-101793842D01*
X103893340Y-101776054D01*
X103894437Y-101774825D01*
X103931473Y-101733350D01*
X104148437Y-101729104D01*
X104365400Y-101724859D01*
X104365400Y-102133400D01*
X104492400Y-102133400D01*
X104492400Y-101628698D01*
X104365400Y-101628698D01*
X104159025Y-101622989D01*
X104063903Y-101619332D01*
X103992481Y-101614201D01*
X103943092Y-101607434D01*
X103914550Y-101599100D01*
X103871814Y-101566864D01*
X103845858Y-101518150D01*
X103836105Y-101451489D01*
X103837717Y-101403150D01*
X103849149Y-101331120D01*
X103870272Y-101281016D01*
X103902113Y-101250886D01*
X103922045Y-101242793D01*
X103944860Y-101239801D01*
X103987982Y-101237102D01*
X104046317Y-101234907D01*
X104114774Y-101233426D01*
X104159025Y-101232965D01*
X104365400Y-101231700D01*
X104365400Y-101628698D01*
X104492400Y-101628698D01*
X104492400Y-101114202D01*
X104196419Y-101119614D01*
G36*
X103133500Y-102133400D02*
X103260500Y-102133400D01*
X103260500Y-101117400D01*
X103133500Y-101117400D01*
X103133500Y-102133400D01*
X103133500Y-102133400D01*
G37*
X103133500Y-102133400D02*
X103260500Y-102133400D01*
X103260500Y-101117400D01*
X103133500Y-101117400D01*
X103133500Y-102133400D01*
G36*
X102444525Y-101117496D02*
X102302666Y-101119023D01*
X102184051Y-101124526D01*
X102086637Y-101135593D01*
X102008382Y-101153810D01*
X101947243Y-101180765D01*
X101901176Y-101218044D01*
X101868138Y-101267235D01*
X101846088Y-101329924D01*
X101832982Y-101407699D01*
X101826776Y-101502146D01*
X101825400Y-101598452D01*
X101828086Y-101727945D01*
X101836765Y-101834768D01*
X101852368Y-101921140D01*
X101875826Y-101989281D01*
X101908071Y-102041412D01*
X101950034Y-102079752D01*
X102002647Y-102106522D01*
X102043749Y-102118952D01*
X102077267Y-102123797D01*
X102132403Y-102127824D01*
X102205383Y-102130874D01*
X102292434Y-102132785D01*
X102383474Y-102133400D01*
X102663600Y-102133400D01*
X102663600Y-102019100D01*
X102536600Y-102019100D01*
X102330225Y-102019029D01*
X102256493Y-102018210D01*
X102188229Y-102015997D01*
X102131024Y-102012678D01*
X102090470Y-102008543D01*
X102077042Y-102005957D01*
X102023984Y-101978641D01*
X101983451Y-101931796D01*
X101958823Y-101869591D01*
X101956345Y-101857114D01*
X101951577Y-101813824D01*
X101948488Y-101753779D01*
X101947004Y-101682829D01*
X101947055Y-101606827D01*
X101948568Y-101531624D01*
X101951472Y-101463072D01*
X101955693Y-101407020D01*
X101961162Y-101369322D01*
X101962398Y-101364504D01*
X101977188Y-101323435D01*
X101996799Y-101291650D01*
X102024394Y-101268007D01*
X102063137Y-101251366D01*
X102116191Y-101240584D01*
X102186721Y-101234519D01*
X102277891Y-101232030D01*
X102330225Y-101231770D01*
X102536600Y-101231700D01*
X102536600Y-102019100D01*
X102663600Y-102019100D01*
X102663600Y-101117400D01*
X102444525Y-101117496D01*
X102444525Y-101117496D01*
G37*
X102444525Y-101117496D02*
X102302666Y-101119023D01*
X102184051Y-101124526D01*
X102086637Y-101135593D01*
X102008382Y-101153810D01*
X101947243Y-101180765D01*
X101901176Y-101218044D01*
X101868138Y-101267235D01*
X101846088Y-101329924D01*
X101832982Y-101407699D01*
X101826776Y-101502146D01*
X101825400Y-101598452D01*
X101828086Y-101727945D01*
X101836765Y-101834768D01*
X101852368Y-101921140D01*
X101875826Y-101989281D01*
X101908071Y-102041412D01*
X101950034Y-102079752D01*
X102002647Y-102106522D01*
X102043749Y-102118952D01*
X102077267Y-102123797D01*
X102132403Y-102127824D01*
X102205383Y-102130874D01*
X102292434Y-102132785D01*
X102383474Y-102133400D01*
X102663600Y-102133400D01*
X102663600Y-102019100D01*
X102536600Y-102019100D01*
X102330225Y-102019029D01*
X102256493Y-102018210D01*
X102188229Y-102015997D01*
X102131024Y-102012678D01*
X102090470Y-102008543D01*
X102077042Y-102005957D01*
X102023984Y-101978641D01*
X101983451Y-101931796D01*
X101958823Y-101869591D01*
X101956345Y-101857114D01*
X101951577Y-101813824D01*
X101948488Y-101753779D01*
X101947004Y-101682829D01*
X101947055Y-101606827D01*
X101948568Y-101531624D01*
X101951472Y-101463072D01*
X101955693Y-101407020D01*
X101961162Y-101369322D01*
X101962398Y-101364504D01*
X101977188Y-101323435D01*
X101996799Y-101291650D01*
X102024394Y-101268007D01*
X102063137Y-101251366D01*
X102116191Y-101240584D01*
X102186721Y-101234519D01*
X102277891Y-101232030D01*
X102330225Y-101231770D01*
X102536600Y-101231700D01*
X102536600Y-102019100D01*
X102663600Y-102019100D01*
X102663600Y-101117400D01*
X102444525Y-101117496D01*
G36*
X99552100Y-101231700D02*
X100072800Y-101231700D01*
X100072800Y-101561900D01*
X99564800Y-101561900D01*
X99564800Y-101663500D01*
X100072800Y-101663500D01*
X100072800Y-102019100D01*
X99552100Y-102019100D01*
X99552100Y-102133400D01*
X100199800Y-102133400D01*
X100199800Y-101117400D01*
X99552100Y-101117400D01*
X99552100Y-101231700D01*
X99552100Y-101231700D01*
G37*
X99552100Y-101231700D02*
X100072800Y-101231700D01*
X100072800Y-101561900D01*
X99564800Y-101561900D01*
X99564800Y-101663500D01*
X100072800Y-101663500D01*
X100072800Y-102019100D01*
X99552100Y-102019100D01*
X99552100Y-102133400D01*
X100199800Y-102133400D01*
X100199800Y-101117400D01*
X99552100Y-101117400D01*
X99552100Y-101231700D01*
%LPC*%
D14*
X109625000Y-91500000D03*
D15*
X108375000Y-91500000D03*
X107125000Y-91500000D03*
X105875000Y-91500000D03*
D14*
X101875000Y-91500000D03*
D15*
X100625000Y-91500000D03*
X99375000Y-91500000D03*
X98125000Y-91500000D03*
D14*
X94125000Y-91500000D03*
D15*
X92875000Y-91500000D03*
X91625000Y-91500000D03*
X90375000Y-91500000D03*
D16*
X83635000Y-94285000D03*
X86365000Y-94285000D03*
X83635000Y-95555000D03*
X86365000Y-95555000D03*
X83635000Y-96825000D03*
X86365000Y-96825000D03*
X83635000Y-98095000D03*
X86365000Y-98095000D03*
X83635000Y-99365000D03*
X86365000Y-99365000D03*
X83635000Y-100635000D03*
X86365000Y-100635000D03*
X83635000Y-101905000D03*
X86365000Y-101905000D03*
X83635000Y-103175000D03*
X86365000Y-103175000D03*
X83635000Y-104445000D03*
X86365000Y-104445000D03*
X83635000Y-105715000D03*
X86365000Y-105715000D03*
D17*
X85000000Y-107305000D03*
X85000000Y-92695000D03*
D16*
X113635000Y-94285000D03*
X116365000Y-94285000D03*
X113635000Y-95555000D03*
X116365000Y-95555000D03*
X113635000Y-96825000D03*
X116365000Y-96825000D03*
X113635000Y-98095000D03*
X116365000Y-98095000D03*
X113635000Y-99365000D03*
X116365000Y-99365000D03*
X113635000Y-100635000D03*
X116365000Y-100635000D03*
X113635000Y-101905000D03*
X116365000Y-101905000D03*
X113635000Y-103175000D03*
X116365000Y-103175000D03*
X113635000Y-104445000D03*
X116365000Y-104445000D03*
X113635000Y-105715000D03*
X116365000Y-105715000D03*
D17*
X115000000Y-107305000D03*
X115000000Y-92695000D03*
D18*
X94285000Y-116365000D03*
X94285000Y-113635000D03*
X95555000Y-116365000D03*
X95555000Y-113635000D03*
X96825000Y-116365000D03*
X96825000Y-113635000D03*
X98095000Y-116365000D03*
X98095000Y-113635000D03*
X99365000Y-116365000D03*
X99365000Y-113635000D03*
X100635000Y-116365000D03*
X100635000Y-113635000D03*
X101905000Y-116365000D03*
X101905000Y-113635000D03*
X103175000Y-116365000D03*
X103175000Y-113635000D03*
X104445000Y-116365000D03*
X104445000Y-113635000D03*
X105715000Y-116365000D03*
X105715000Y-113635000D03*
D17*
X107305000Y-115000000D03*
X92695000Y-115000000D03*
D19*
X102200000Y-96100000D03*
X102200000Y-97500000D03*
X94700000Y-96100000D03*
X94700000Y-97500000D03*
X109700000Y-96100000D03*
X109700000Y-97500000D03*
M02*
