M48
;DRILL file {KiCad no-vcs-found-1fda668~58~ubuntu14.04.1} date Thu Jul  6 03:39:54 2017
;FORMAT={-:-/ absolute / inch / decimal}
FMAT,2
INCH,TZ
T1C0.024
T2C0.130
%
G90
G05
M72
T1
X5.3346Y-3.8583
X5.3622Y-3.7874
X5.3622Y-3.9291
X5.4331Y-3.7598
X5.4331Y-3.9567
X5.5039Y-3.7874
X5.5039Y-3.9291
X5.5315Y-3.8583
X4.5079Y-3.8583
X4.5354Y-3.7874
X4.5354Y-3.9291
X4.6063Y-3.7598
X4.6063Y-3.9567
X4.6772Y-3.7874
X4.6772Y-3.9291
X4.7047Y-3.8583
X5.3346Y-3.2283
X5.3622Y-3.1575
X5.3622Y-3.2992
X5.4331Y-3.1299
X5.4331Y-3.3268
X5.5039Y-3.1575
X5.5039Y-3.2992
X5.5315Y-3.2283
X4.5079Y-3.2283
X4.5354Y-3.1575
X4.5354Y-3.2992
X4.6063Y-3.1299
X4.6063Y-3.3268
X4.6772Y-3.1575
X4.6772Y-3.2992
X4.7047Y-3.2283
T2
X5.4331Y-3.8583
X4.6063Y-3.8583
X5.4331Y-3.2283
X4.6063Y-3.2283
T0
M30
