M48
;DRILL file {KiCad 4.1.0-alpha+201605071002+6776~44~ubuntu14.04.1-product} date Mon 27 Jun 2016 23:30:15 BST
;FORMAT={-:-/ absolute / inch / decimal}
FMAT,2
INCH,TZ
T1C0.012
T2C0.016
%
G90
G05
M72
T1
X3.248Y-3.6417
X3.248Y-4.2323
X3.3465Y-3.5433
X3.3465Y-4.3307
X3.3997Y-3.4706
X3.4431Y-3.4352
X3.4449Y-3.6417
X3.4449Y-4.2323
X3.4449Y-4.3307
X3.4449Y-4.4291
X3.5157Y-3.8425
X3.5197Y-4.3465
X3.5433Y-3.874
X3.5433Y-4.5276
X3.5512Y-3.8425
X3.563Y-4.3465
X3.5669Y-3.5669
X3.5827Y-3.622
X3.5984Y-3.8268
X3.6132Y-4.3455
X3.6142Y-4.3898
X3.626Y-3.8071
X3.6417Y-3.248
X3.6417Y-3.3465
X3.6417Y-3.4449
X3.6417Y-4.1378
X3.6417Y-4.4291
X3.6417Y-4.626
X3.6476Y-4.2402
X3.6535Y-3.5394
X3.6673Y-4.3661
X3.6929Y-3.4961
X3.7087Y-3.7008
X3.7441Y-3.7598
X3.7559Y-3.4094
X3.7598Y-4.378
X3.762Y-4.6514
X3.7992Y-3.4094
X3.7992Y-3.6024
X3.7992Y-4.0394
X3.811Y-4.378
X3.812Y-4.6526
X3.8189Y-4.0098
X3.8268Y-3.7913
X3.8386Y-3.248
X3.862Y-4.6533
X3.8622Y-4.378
X3.8701Y-3.4409
X3.8898Y-3.2992
X3.8898Y-3.9843
X3.8976Y-3.9252
X3.9094Y-4.0394
X3.9094Y-4.0984
X3.912Y-4.6522
X3.9134Y-3.8898
X3.9134Y-4.378
X3.937Y-3.248
X3.939Y-3.5925
X3.9488Y-3.7756
X3.9577Y-3.8907
X3.9606Y-4.378
X3.962Y-4.6522
X3.9764Y-3.5472
X3.9921Y-3.2992
X4.Y-3.7795
X4.0118Y-4.378
X4.012Y-4.6533
X4.0157Y-4.2441
X4.0236Y-4.0984
X4.0354Y-3.248
X4.0433Y-3.7756
X4.0433Y-3.8858
X4.0433Y-4.0276
X4.063Y-4.378
X4.0748Y-4.0945
X4.0945Y-3.4646
X4.112Y-4.378
X4.1181Y-3.7126
X4.2323Y-3.248
X4.2323Y-4.626
X4.2756Y-3.8898
X4.3228Y-3.6102
X4.3307Y-3.3465
X4.3307Y-3.937
X4.3307Y-4.2323
X4.3307Y-4.3307
X4.3307Y-4.4291
X4.3307Y-4.5276
X4.4291Y-3.6102
X4.4291Y-4.2323
X4.4291Y-4.4291
X4.4331Y-4.3307
X4.4488Y-3.5433
X4.4882Y-3.4646
X4.5276Y-3.5433
X4.5276Y-4.3307
X4.626Y-3.6417
X4.626Y-4.2323
T2
X3.2205Y-3.812
X3.2205Y-4.112
X3.2207Y-3.762
X3.2207Y-3.862
X3.2207Y-4.012
X3.2209Y-3.912
X3.2209Y-4.162
X3.2211Y-3.712
X3.2215Y-4.062
X3.2219Y-3.962
X3.4711Y-3.962
X3.4719Y-3.712
X3.472Y-3.912
X3.472Y-4.162
X3.4722Y-3.762
X3.4722Y-4.012
X3.4722Y-4.112
X3.4724Y-3.812
X3.4724Y-4.062
X3.5236Y-4.0059
X3.7992Y-4.0984
X4.0807Y-4.0453
X4.4016Y-3.812
X4.4016Y-4.062
X4.4018Y-3.762
X4.4018Y-3.862
X4.4018Y-4.012
X4.4018Y-4.112
X4.402Y-3.712
X4.402Y-3.912
X4.4022Y-3.962
X4.4022Y-4.162
X4.653Y-3.712
X4.653Y-4.162
X4.6531Y-3.912
X4.6531Y-3.962
X4.6533Y-3.762
X4.6533Y-3.862
X4.6533Y-4.012
X4.6533Y-4.112
X4.6535Y-3.812
X4.6535Y-4.062
T0
M30
