G04 #@! TF.FileFunction,Soldermask,Bot*
%FSLAX46Y46*%
G04 Gerber Fmt 4.6, Leading zero omitted, Abs format (unit mm)*
G04 Created by KiCad (PCBNEW 4.0.2+e4-6225~38~ubuntu14.04.1-stable) date Mon 27 Jun 2016 21:29:42 BST*
%MOMM*%
G01*
G04 APERTURE LIST*
%ADD10C,0.100000*%
%ADD11R,0.700000X1.100000*%
%ADD12R,1.140000X1.830000*%
%ADD13R,0.860000X2.800000*%
%ADD14R,0.700000X3.330000*%
%ADD15R,0.900000X0.930000*%
%ADD16R,1.050000X0.780000*%
%ADD17R,2.220000X0.740000*%
%ADD18C,1.200000*%
%ADD19R,0.740000X2.220000*%
%ADD20C,1.000000*%
%ADD21R,0.750000X0.900000*%
%ADD22R,0.900000X0.750000*%
G04 APERTURE END LIST*
D10*
D11*
X103000000Y-85300000D03*
X101900000Y-85300000D03*
X100800000Y-85300000D03*
X99700000Y-85300000D03*
X98700000Y-85300000D03*
X97600000Y-85300000D03*
X96500000Y-85300000D03*
X95400000Y-85300000D03*
D12*
X106880000Y-85315000D03*
D13*
X94220000Y-85800000D03*
D14*
X94140000Y-96565000D03*
X107100000Y-96565000D03*
D15*
X104790000Y-97765000D03*
D16*
X100525000Y-97840000D03*
D17*
X83635000Y-94285000D03*
X86365000Y-94285000D03*
X83635000Y-95555000D03*
X86365000Y-95555000D03*
X83635000Y-96825000D03*
X86365000Y-96825000D03*
X83635000Y-98095000D03*
X86365000Y-98095000D03*
X83635000Y-99365000D03*
X86365000Y-99365000D03*
X83635000Y-100635000D03*
X86365000Y-100635000D03*
X83635000Y-101905000D03*
X86365000Y-101905000D03*
X83635000Y-103175000D03*
X86365000Y-103175000D03*
X83635000Y-104445000D03*
X86365000Y-104445000D03*
X83635000Y-105715000D03*
X86365000Y-105715000D03*
D18*
X85000000Y-107305000D03*
X85000000Y-92695000D03*
D17*
X113635000Y-94285000D03*
X116365000Y-94285000D03*
X113635000Y-95555000D03*
X116365000Y-95555000D03*
X113635000Y-96825000D03*
X116365000Y-96825000D03*
X113635000Y-98095000D03*
X116365000Y-98095000D03*
X113635000Y-99365000D03*
X116365000Y-99365000D03*
X113635000Y-100635000D03*
X116365000Y-100635000D03*
X113635000Y-101905000D03*
X116365000Y-101905000D03*
X113635000Y-103175000D03*
X116365000Y-103175000D03*
X113635000Y-104445000D03*
X116365000Y-104445000D03*
X113635000Y-105715000D03*
X116365000Y-105715000D03*
D18*
X115000000Y-107305000D03*
X115000000Y-92695000D03*
D19*
X94285000Y-116365000D03*
X94285000Y-113635000D03*
X95555000Y-116365000D03*
X95555000Y-113635000D03*
X96825000Y-116365000D03*
X96825000Y-113635000D03*
X98095000Y-116365000D03*
X98095000Y-113635000D03*
X99365000Y-116365000D03*
X99365000Y-113635000D03*
X100635000Y-116365000D03*
X100635000Y-113635000D03*
X101905000Y-116365000D03*
X101905000Y-113635000D03*
X103175000Y-116365000D03*
X103175000Y-113635000D03*
X104445000Y-116365000D03*
X104445000Y-113635000D03*
X105715000Y-116365000D03*
X105715000Y-113635000D03*
D18*
X107305000Y-115000000D03*
X92695000Y-115000000D03*
D20*
X87307484Y-89499587D03*
X91618007Y-86625905D03*
X90181166Y-85189064D03*
D21*
X94200000Y-99700000D03*
X95600000Y-99700000D03*
X94200000Y-101300000D03*
X95600000Y-101300000D03*
X94200000Y-103000000D03*
X95600000Y-103000000D03*
D22*
X89500000Y-111550000D03*
X89500000Y-112950000D03*
X99500000Y-105400000D03*
X99500000Y-106800000D03*
X95600000Y-105400000D03*
X95600000Y-106800000D03*
D21*
X105400000Y-102700000D03*
X106800000Y-102700000D03*
D22*
X93750000Y-105400000D03*
X93750000Y-106800000D03*
X102300000Y-105400000D03*
X102300000Y-106800000D03*
M02*
