M48
;DRILL file {KiCad 4.0.2+e4-6225~38~ubuntu14.04.1-stable} date Wed 15 Jun 2016 00:56:22 BST
;FORMAT={-:-/ absolute / metric / decimal}
FMAT,2
METRIC,TZ
T1C0.300
T2C0.400
%
G90
G05
M71
T1
X82.5Y-92.5
X82.5Y-107.5
X85.Y-90.
X85.Y-110.
X86.353Y-88.153
X87.455Y-87.255
X87.5Y-92.5
X87.5Y-107.5
X87.5Y-110.
X87.5Y-112.5
X89.3Y-97.6
X89.4Y-110.4
X90.Y-98.4
X90.Y-115.
X90.2Y-97.6
X90.5Y-110.4
X90.6Y-90.6
X91.Y-92.
X91.4Y-97.2
X91.775Y-110.375
X91.8Y-111.5
X92.1Y-96.7
X92.5Y-82.5
X92.5Y-85.
X92.5Y-87.5
X92.5Y-105.1
X92.5Y-112.5
X92.5Y-117.5
X92.65Y-107.7
X92.8Y-89.9
X93.15Y-110.9
X93.8Y-88.8
X94.2Y-94.
X95.1Y-95.5
X95.4Y-86.6
X95.5Y-111.2
X95.555Y-118.145
X96.5Y-86.6
X96.5Y-91.5
X96.5Y-100.6
X96.8Y-99.3
X96.8Y-111.2
X96.825Y-118.175
X97.2Y-96.3
X97.5Y-82.5
X98.095Y-118.195
X98.1Y-111.2
X98.3Y-87.4
X98.8Y-83.8
X98.8Y-101.2
X99.Y-99.7
X99.3Y-102.6
X99.3Y-104.1
X99.365Y-118.165
X99.4Y-98.8
X99.4Y-111.2
X100.Y-82.5
X100.05Y-91.25
X100.3Y-95.9
X100.525Y-98.825
X100.6Y-111.2
X100.635Y-118.165
X101.Y-90.1
X101.4Y-83.8
X101.6Y-96.
X101.9Y-111.2
X101.905Y-118.195
X102.Y-107.8
X102.2Y-104.1
X102.5Y-82.5
X102.7Y-95.9
X102.7Y-98.7
X102.7Y-102.3
X103.2Y-111.2
X103.5Y-104.
X104.Y-88.
X104.445Y-111.2
X104.6Y-94.3
X107.5Y-82.5
X107.5Y-117.5
X108.6Y-98.8
X109.8Y-91.7
X110.Y-85.
X110.Y-100.
X110.Y-107.5
X110.Y-110.
X110.Y-112.5
X110.Y-115.
X112.5Y-91.7
X112.5Y-107.5
X112.5Y-112.5
X112.6Y-110.
X113.Y-90.
X114.Y-88.
X115.Y-90.
X115.Y-110.
X117.5Y-92.5
X117.5Y-107.5
T2
X81.8Y-96.825
X81.8Y-104.445
X81.805Y-95.555
X81.805Y-98.095
X81.805Y-101.905
X81.81Y-99.365
X81.81Y-105.715
X81.815Y-94.285
X81.825Y-103.175
X81.835Y-100.635
X88.165Y-100.635
X88.185Y-94.285
X88.19Y-99.365
X88.19Y-105.715
X88.195Y-95.555
X88.195Y-101.905
X88.195Y-104.445
X88.2Y-96.825
X88.2Y-103.175
X89.5Y-101.75
X96.5Y-104.1
X103.65Y-102.75
X111.8Y-96.825
X111.8Y-103.175
X111.805Y-95.555
X111.805Y-98.095
X111.805Y-101.905
X111.805Y-104.445
X111.81Y-94.285
X111.81Y-99.365
X111.815Y-100.635
X111.815Y-105.715
X118.185Y-94.285
X118.185Y-105.715
X118.19Y-99.365
X118.19Y-100.635
X118.195Y-95.555
X118.195Y-98.095
X118.195Y-101.905
X118.195Y-104.445
X118.2Y-96.825
X118.2Y-103.175
T0
M30
