G04 #@! TF.FileFunction,Legend,Top*
%FSLAX46Y46*%
G04 Gerber Fmt 4.6, Leading zero omitted, Abs format (unit mm)*
G04 Created by KiCad (PCBNEW 4.1.0-alpha+201605071002+6776~44~ubuntu14.04.1-product) date Sun 24 Jul 2016 22:36:45 BST*
%MOMM*%
%LPD*%
G01*
G04 APERTURE LIST*
%ADD10C,0.100000*%
%ADD11C,0.200000*%
%ADD12C,0.150000*%
%ADD13R,2.920000X0.740000*%
%ADD14R,0.300000X1.500000*%
%ADD15R,1.500000X0.300000*%
%ADD16C,1.200000*%
%ADD17R,0.620000X0.620000*%
%ADD18R,0.325000X0.300000*%
%ADD19R,0.952000X0.615000*%
%ADD20R,0.650000X0.350000*%
%ADD21R,0.802000X0.802000*%
%ADD22R,0.950000X0.850000*%
%ADD23R,0.300000X0.325000*%
%ADD24R,0.615000X0.952000*%
G04 APERTURE END LIST*
D10*
D11*
X112402857Y-88962857D02*
X111831428Y-88962857D01*
X111831428Y-87762857D01*
X112802857Y-88962857D02*
X112802857Y-87762857D01*
X112802857Y-88334285D02*
X113488571Y-88334285D01*
X113488571Y-88962857D02*
X113488571Y-87762857D01*
X108774285Y-89877142D02*
X108831428Y-89820000D01*
X108945714Y-89762857D01*
X109231428Y-89762857D01*
X109345714Y-89820000D01*
X109402857Y-89877142D01*
X109460000Y-89991428D01*
X109460000Y-90105714D01*
X109402857Y-90277142D01*
X108717142Y-90962857D01*
X109460000Y-90962857D01*
X110488571Y-90162857D02*
X110488571Y-90962857D01*
X110202857Y-89705714D02*
X109917142Y-90562857D01*
X110660000Y-90562857D01*
X111974285Y-89705714D02*
X110945714Y-91248571D01*
X112260000Y-89762857D02*
X113060000Y-89762857D01*
X112545714Y-90962857D01*
X114374285Y-89705714D02*
X113345714Y-91248571D01*
X115402857Y-90962857D02*
X114717142Y-90962857D01*
X115060000Y-90962857D02*
X115060000Y-89762857D01*
X114945714Y-89934285D01*
X114831428Y-90048571D01*
X114717142Y-90105714D01*
X116431428Y-89762857D02*
X116202857Y-89762857D01*
X116088571Y-89820000D01*
X116031428Y-89877142D01*
X115917142Y-90048571D01*
X115860000Y-90277142D01*
X115860000Y-90734285D01*
X115917142Y-90848571D01*
X115974285Y-90905714D01*
X116088571Y-90962857D01*
X116317142Y-90962857D01*
X116431428Y-90905714D01*
X116488571Y-90848571D01*
X116545714Y-90734285D01*
X116545714Y-90448571D01*
X116488571Y-90334285D01*
X116431428Y-90277142D01*
X116317142Y-90220000D01*
X116088571Y-90220000D01*
X115974285Y-90277142D01*
X115917142Y-90334285D01*
X115860000Y-90448571D01*
X84600000Y-88872857D02*
X84600000Y-87672857D01*
X85000000Y-88530000D01*
X85400000Y-87672857D01*
X85400000Y-88872857D01*
X85857142Y-87672857D02*
X86600000Y-87672857D01*
X86200000Y-88130000D01*
X86371428Y-88130000D01*
X86485714Y-88187142D01*
X86542857Y-88244285D01*
X86600000Y-88358571D01*
X86600000Y-88644285D01*
X86542857Y-88758571D01*
X86485714Y-88815714D01*
X86371428Y-88872857D01*
X86028571Y-88872857D01*
X85914285Y-88815714D01*
X85857142Y-88758571D01*
X88028571Y-88872857D02*
X88028571Y-87672857D01*
X88485714Y-87672857D01*
X88600000Y-87730000D01*
X88657142Y-87787142D01*
X88714285Y-87901428D01*
X88714285Y-88072857D01*
X88657142Y-88187142D01*
X88600000Y-88244285D01*
X88485714Y-88301428D01*
X88028571Y-88301428D01*
X89114285Y-88072857D02*
X89400000Y-88872857D01*
X89685714Y-88072857D02*
X89400000Y-88872857D01*
X89285714Y-89158571D01*
X89228571Y-89215714D01*
X89114285Y-89272857D01*
X90142857Y-88872857D02*
X90142857Y-88072857D01*
X90142857Y-88301428D02*
X90200000Y-88187142D01*
X90257142Y-88130000D01*
X90371428Y-88072857D01*
X90485714Y-88072857D01*
X91057142Y-88872857D02*
X90942857Y-88815714D01*
X90885714Y-88758571D01*
X90828571Y-88644285D01*
X90828571Y-88301428D01*
X90885714Y-88187142D01*
X90942857Y-88130000D01*
X91057142Y-88072857D01*
X91228571Y-88072857D01*
X91342857Y-88130000D01*
X91400000Y-88187142D01*
X91457142Y-88301428D01*
X91457142Y-88644285D01*
X91400000Y-88758571D01*
X91342857Y-88815714D01*
X91228571Y-88872857D01*
X91057142Y-88872857D01*
X87342857Y-90872857D02*
X87342857Y-90072857D01*
X87342857Y-90301428D02*
X87400000Y-90187142D01*
X87457142Y-90130000D01*
X87571428Y-90072857D01*
X87685714Y-90072857D01*
X88714285Y-90872857D02*
X88028571Y-90872857D01*
X88371428Y-90872857D02*
X88371428Y-89672857D01*
X88257142Y-89844285D01*
X88142857Y-89958571D01*
X88028571Y-90015714D01*
D12*
X87785000Y-93635000D02*
X87785000Y-92135000D01*
X87785000Y-92135000D02*
X82215000Y-92135000D01*
X82215000Y-92135000D02*
X82215000Y-93635000D01*
X82215000Y-106365000D02*
X83715000Y-107865000D01*
X83715000Y-107865000D02*
X86285000Y-107865000D01*
X86285000Y-107865000D02*
X87785000Y-106365000D01*
X95679340Y-104139360D02*
X95679340Y-95839360D01*
X95679340Y-95839360D02*
X104579340Y-95839360D01*
X104579340Y-95839360D02*
X104579340Y-104739360D01*
X104579340Y-104739360D02*
X96279340Y-104739360D01*
X96279340Y-104739360D02*
X95679340Y-104139360D01*
X117785000Y-93635000D02*
X117785000Y-92135000D01*
X117785000Y-92135000D02*
X112215000Y-92135000D01*
X112215000Y-92135000D02*
X112215000Y-93635000D01*
X112215000Y-106365000D02*
X113715000Y-107865000D01*
X113715000Y-107865000D02*
X116285000Y-107865000D01*
X116285000Y-107865000D02*
X117785000Y-106365000D01*
X108756385Y-110994537D02*
X110206385Y-110994537D01*
X108156385Y-113044537D02*
X110206385Y-113044537D01*
X108756385Y-110994537D02*
G75*
G03X108156385Y-110994537I-300000J0D01*
G01*
X89354700Y-113800780D02*
X86854700Y-113800780D01*
X89954700Y-110700780D02*
X86854700Y-110700780D01*
X89354700Y-113800780D02*
G75*
G03X89954700Y-113800780I300000J0D01*
G01*
X95663180Y-109548460D02*
X95663180Y-109648460D01*
X96713180Y-108898460D02*
X96413180Y-108898460D01*
X97463180Y-109548460D02*
X97463180Y-109648460D01*
X96713180Y-110298460D02*
X96413180Y-110298460D01*
X104067500Y-85030720D02*
X104067500Y-83580720D01*
X106117500Y-85630720D02*
X106117500Y-83580720D01*
X104067500Y-85030720D02*
G75*
G03X104067500Y-85630720I0J-300000D01*
G01*
X92002500Y-84280560D02*
X92002500Y-82830560D01*
X94052500Y-84880560D02*
X94052500Y-82830560D01*
X92002500Y-84280560D02*
G75*
G03X92002500Y-84880560I0J-300000D01*
G01*
X99010178Y-116242808D02*
X99010178Y-117692808D01*
X96960178Y-115642808D02*
X96960178Y-117692808D01*
X99010178Y-116242808D02*
G75*
G03X99010178Y-115642808I0J300000D01*
G01*
%LPC*%
D13*
X83285000Y-94285000D03*
X86715000Y-94285000D03*
X83285000Y-95555000D03*
X86715000Y-95555000D03*
X83285000Y-96825000D03*
X86715000Y-96825000D03*
X83285000Y-98095000D03*
X86715000Y-98095000D03*
X83285000Y-99365000D03*
X86715000Y-99365000D03*
X83285000Y-100635000D03*
X86715000Y-100635000D03*
X83285000Y-101905000D03*
X86715000Y-101905000D03*
X83285000Y-103175000D03*
X86715000Y-103175000D03*
X83285000Y-104445000D03*
X86715000Y-104445000D03*
X83285000Y-105715000D03*
X86715000Y-105715000D03*
D14*
X96379340Y-105989360D03*
X96879340Y-105989360D03*
X97379340Y-105989360D03*
X97879340Y-105989360D03*
X98379340Y-105989360D03*
X98879340Y-105989360D03*
X99379340Y-105989360D03*
X99879340Y-105989360D03*
X100379340Y-105989360D03*
X100879340Y-105989360D03*
X101379340Y-105989360D03*
X101879340Y-105989360D03*
X102379340Y-105989360D03*
X102879340Y-105989360D03*
X103379340Y-105989360D03*
X103879340Y-105989360D03*
D15*
X105829340Y-104039360D03*
X105829340Y-103539360D03*
X105829340Y-103039360D03*
X105829340Y-102539360D03*
X105829340Y-102039360D03*
X105829340Y-101539360D03*
X105829340Y-101039360D03*
X105829340Y-100539360D03*
X105829340Y-100039360D03*
X105829340Y-99539360D03*
X105829340Y-99039360D03*
X105829340Y-98539360D03*
X105829340Y-98039360D03*
X105829340Y-97539360D03*
X105829340Y-97039360D03*
X105829340Y-96539360D03*
D14*
X103879340Y-94589360D03*
X103379340Y-94589360D03*
X102879340Y-94589360D03*
X102379340Y-94589360D03*
X101879340Y-94589360D03*
X101379340Y-94589360D03*
X100879340Y-94589360D03*
X100379340Y-94589360D03*
X99879340Y-94589360D03*
X99379340Y-94589360D03*
X98879340Y-94589360D03*
X98379340Y-94589360D03*
X97879340Y-94589360D03*
X97379340Y-94589360D03*
X96879340Y-94589360D03*
X96379340Y-94589360D03*
D15*
X94429340Y-96539360D03*
X94429340Y-97039360D03*
X94429340Y-97539360D03*
X94429340Y-98039360D03*
X94429340Y-98539360D03*
X94429340Y-99039360D03*
X94429340Y-99539360D03*
X94429340Y-100039360D03*
X94429340Y-100539360D03*
X94429340Y-101039360D03*
X94429340Y-101539360D03*
X94429340Y-102039360D03*
X94429340Y-102539360D03*
X94429340Y-103039360D03*
X94429340Y-103539360D03*
X94429340Y-104039360D03*
D13*
X113285000Y-94285000D03*
X116715000Y-94285000D03*
X113285000Y-95555000D03*
X116715000Y-95555000D03*
X113285000Y-96825000D03*
X116715000Y-96825000D03*
X113285000Y-98095000D03*
X116715000Y-98095000D03*
X113285000Y-99365000D03*
X116715000Y-99365000D03*
X113285000Y-100635000D03*
X116715000Y-100635000D03*
X113285000Y-101905000D03*
X116715000Y-101905000D03*
X113285000Y-103175000D03*
X116715000Y-103175000D03*
X113285000Y-104445000D03*
X116715000Y-104445000D03*
X113285000Y-105715000D03*
X116715000Y-105715000D03*
D16*
X115000000Y-107305000D03*
X115000000Y-92695000D03*
D17*
X105442600Y-92900500D03*
X106342600Y-92900500D03*
X94388940Y-111399740D03*
X94388940Y-110499740D03*
X96817600Y-89494360D03*
X95917600Y-89494360D03*
X104923485Y-114488837D03*
X104923485Y-113588837D03*
D18*
X108268885Y-111369537D03*
X108268885Y-112019537D03*
X108268885Y-112669537D03*
X110093885Y-112669537D03*
X110093885Y-112019537D03*
X110093885Y-111369537D03*
D19*
X109181385Y-112486037D03*
X109181385Y-111553037D03*
D17*
X103243380Y-109215340D03*
X103243380Y-108315340D03*
X92778580Y-105661880D03*
X92778580Y-104761880D03*
X107528360Y-101632600D03*
X107528360Y-102532600D03*
X94068480Y-107657900D03*
X94968480Y-107657900D03*
X95003620Y-83944460D03*
X95003620Y-83044460D03*
X94475300Y-85900260D03*
X94475300Y-86800260D03*
X104598365Y-112233317D03*
X104598365Y-111333317D03*
X93226040Y-85887560D03*
X92326040Y-85887560D03*
D20*
X89954700Y-113225780D03*
X89954700Y-112575780D03*
X89954700Y-111925780D03*
X89954700Y-111275780D03*
X86854700Y-111275780D03*
X86854700Y-111925780D03*
X86854700Y-112575780D03*
X86854700Y-113225780D03*
D21*
X88404700Y-112850780D03*
X88404700Y-111650780D03*
D17*
X107007660Y-84750480D03*
X107007660Y-83850480D03*
X96242720Y-107632500D03*
X97142720Y-107632500D03*
X94899480Y-91937420D03*
X94899480Y-92837420D03*
X104584500Y-109197560D03*
X104584500Y-108297560D03*
X96890840Y-92888220D03*
X96890840Y-91988220D03*
X107482640Y-96167360D03*
X107482640Y-95267360D03*
X91183460Y-111899280D03*
X91183460Y-112799280D03*
D16*
X85000000Y-107305000D03*
X85000000Y-92695000D03*
D17*
X99179380Y-108534620D03*
X99179380Y-107634620D03*
D22*
X97288180Y-109023460D03*
X95838180Y-109023460D03*
X95838180Y-110173460D03*
X97288180Y-110173460D03*
D17*
X105295700Y-89151460D03*
X104395700Y-89151460D03*
X97778778Y-112163748D03*
X98678778Y-112163748D03*
X107470360Y-88742520D03*
X106570360Y-88742520D03*
X107800140Y-87503000D03*
X107800140Y-86603000D03*
X95735140Y-86736340D03*
X95735140Y-85836340D03*
X95272218Y-113758868D03*
X95272218Y-114658868D03*
X105311360Y-87848440D03*
X104411360Y-87848440D03*
X105298660Y-86583520D03*
X104398660Y-86583520D03*
X106195605Y-114783057D03*
X107095605Y-114783057D03*
X106560620Y-86590300D03*
X106560620Y-87490300D03*
X95985958Y-116511808D03*
X95985958Y-117411808D03*
X109002305Y-114056617D03*
X109902305Y-114056617D03*
X93193020Y-87142320D03*
X92293020Y-87142320D03*
X97794018Y-113421048D03*
X98694018Y-113421048D03*
X105863285Y-112233317D03*
X105863285Y-111333317D03*
X96529518Y-114681308D03*
X96529518Y-113781308D03*
X107095605Y-113558777D03*
X106195605Y-113558777D03*
X97794018Y-114663108D03*
X98694018Y-114663108D03*
X107143445Y-112233317D03*
X107143445Y-111333317D03*
X108767880Y-100320260D03*
X108767880Y-99420260D03*
X107497880Y-99478680D03*
X107497880Y-100378680D03*
X95364720Y-88033860D03*
X94464720Y-88033860D03*
X95647718Y-112445688D03*
X96547718Y-112445688D03*
D23*
X104442500Y-85518220D03*
X105092500Y-85518220D03*
X105742500Y-85518220D03*
X105742500Y-83693220D03*
X105092500Y-83693220D03*
X104442500Y-83693220D03*
D24*
X105559000Y-84605720D03*
X104626000Y-84605720D03*
D23*
X92377500Y-84768060D03*
X93027500Y-84768060D03*
X93677500Y-84768060D03*
X93677500Y-82943060D03*
X93027500Y-82943060D03*
X92377500Y-82943060D03*
D24*
X93494000Y-83855560D03*
X92561000Y-83855560D03*
D23*
X98635178Y-115755308D03*
X97985178Y-115755308D03*
X97335178Y-115755308D03*
X97335178Y-117580308D03*
X97985178Y-117580308D03*
X98635178Y-117580308D03*
D24*
X97518678Y-116667808D03*
X98451678Y-116667808D03*
M02*
