G04 #@! TF.FileFunction,Copper,L1,Top,Signal*
%FSLAX46Y46*%
G04 Gerber Fmt 4.6, Leading zero omitted, Abs format (unit mm)*
G04 Created by KiCad (PCBNEW 4.1.0-alpha+201605071002+6776~44~ubuntu14.04.1-product) date Sun 24 Jul 2016 22:36:45 BST*
%MOMM*%
%LPD*%
G01*
G04 APERTURE LIST*
%ADD10C,0.100000*%
%ADD11R,2.920000X0.740000*%
%ADD12R,0.300000X1.500000*%
%ADD13R,1.500000X0.300000*%
%ADD14R,0.620000X0.620000*%
%ADD15R,0.325000X0.300000*%
%ADD16R,0.950000X0.613000*%
%ADD17R,0.650000X0.350000*%
%ADD18R,0.800000X0.800000*%
%ADD19R,1.550000X2.400000*%
%ADD20R,0.950000X0.850000*%
%ADD21R,0.300000X0.325000*%
%ADD22R,0.613000X0.950000*%
%ADD23C,0.800000*%
%ADD24C,0.280000*%
%ADD25C,0.160000*%
%ADD26C,0.200000*%
%ADD27C,0.600000*%
%ADD28C,0.800000*%
%ADD29C,1.000000*%
%ADD30C,0.400000*%
G04 APERTURE END LIST*
D10*
D11*
X83285000Y-94285000D03*
X86715000Y-94285000D03*
X83285000Y-95555000D03*
X86715000Y-95555000D03*
X83285000Y-96825000D03*
X86715000Y-96825000D03*
X83285000Y-98095000D03*
X86715000Y-98095000D03*
X83285000Y-99365000D03*
X86715000Y-99365000D03*
X83285000Y-100635000D03*
X86715000Y-100635000D03*
X83285000Y-101905000D03*
X86715000Y-101905000D03*
X83285000Y-103175000D03*
X86715000Y-103175000D03*
X83285000Y-104445000D03*
X86715000Y-104445000D03*
X83285000Y-105715000D03*
X86715000Y-105715000D03*
D12*
X96379340Y-105989360D03*
X96879340Y-105989360D03*
X97379340Y-105989360D03*
X97879340Y-105989360D03*
X98379340Y-105989360D03*
X98879340Y-105989360D03*
X99379340Y-105989360D03*
X99879340Y-105989360D03*
X100379340Y-105989360D03*
X100879340Y-105989360D03*
X101379340Y-105989360D03*
X101879340Y-105989360D03*
X102379340Y-105989360D03*
X102879340Y-105989360D03*
X103379340Y-105989360D03*
X103879340Y-105989360D03*
D13*
X105829340Y-104039360D03*
X105829340Y-103539360D03*
X105829340Y-103039360D03*
X105829340Y-102539360D03*
X105829340Y-102039360D03*
X105829340Y-101539360D03*
X105829340Y-101039360D03*
X105829340Y-100539360D03*
X105829340Y-100039360D03*
X105829340Y-99539360D03*
X105829340Y-99039360D03*
X105829340Y-98539360D03*
X105829340Y-98039360D03*
X105829340Y-97539360D03*
X105829340Y-97039360D03*
X105829340Y-96539360D03*
D12*
X103879340Y-94589360D03*
X103379340Y-94589360D03*
X102879340Y-94589360D03*
X102379340Y-94589360D03*
X101879340Y-94589360D03*
X101379340Y-94589360D03*
X100879340Y-94589360D03*
X100379340Y-94589360D03*
X99879340Y-94589360D03*
X99379340Y-94589360D03*
X98879340Y-94589360D03*
X98379340Y-94589360D03*
X97879340Y-94589360D03*
X97379340Y-94589360D03*
X96879340Y-94589360D03*
X96379340Y-94589360D03*
D13*
X94429340Y-96539360D03*
X94429340Y-97039360D03*
X94429340Y-97539360D03*
X94429340Y-98039360D03*
X94429340Y-98539360D03*
X94429340Y-99039360D03*
X94429340Y-99539360D03*
X94429340Y-100039360D03*
X94429340Y-100539360D03*
X94429340Y-101039360D03*
X94429340Y-101539360D03*
X94429340Y-102039360D03*
X94429340Y-102539360D03*
X94429340Y-103039360D03*
X94429340Y-103539360D03*
X94429340Y-104039360D03*
D11*
X113285000Y-94285000D03*
X116715000Y-94285000D03*
X113285000Y-95555000D03*
X116715000Y-95555000D03*
X113285000Y-96825000D03*
X116715000Y-96825000D03*
X113285000Y-98095000D03*
X116715000Y-98095000D03*
X113285000Y-99365000D03*
X116715000Y-99365000D03*
X113285000Y-100635000D03*
X116715000Y-100635000D03*
X113285000Y-101905000D03*
X116715000Y-101905000D03*
X113285000Y-103175000D03*
X116715000Y-103175000D03*
X113285000Y-104445000D03*
X116715000Y-104445000D03*
X113285000Y-105715000D03*
X116715000Y-105715000D03*
D14*
X105442600Y-92900500D03*
X106342600Y-92900500D03*
X94388940Y-111399740D03*
X94388940Y-110499740D03*
X96817600Y-89494360D03*
X95917600Y-89494360D03*
X104923485Y-114488837D03*
X104923485Y-113588837D03*
D15*
X108268885Y-111369537D03*
X108268885Y-112019537D03*
X108268885Y-112669537D03*
X110093885Y-112669537D03*
X110093885Y-112019537D03*
X110093885Y-111369537D03*
D16*
X109181385Y-112486037D03*
X109181385Y-111553037D03*
D14*
X103243380Y-109215340D03*
X103243380Y-108315340D03*
X92778580Y-105661880D03*
X92778580Y-104761880D03*
X107528360Y-101632600D03*
X107528360Y-102532600D03*
X94068480Y-107657900D03*
X94968480Y-107657900D03*
X95003620Y-83944460D03*
X95003620Y-83044460D03*
X94475300Y-85900260D03*
X94475300Y-86800260D03*
X104598365Y-112233317D03*
X104598365Y-111333317D03*
X93226040Y-85887560D03*
X92326040Y-85887560D03*
D17*
X89954700Y-113225780D03*
X89954700Y-112575780D03*
X89954700Y-111925780D03*
X89954700Y-111275780D03*
X86854700Y-111275780D03*
X86854700Y-111925780D03*
X86854700Y-112575780D03*
X86854700Y-113225780D03*
D18*
X88404700Y-112850780D03*
X88404700Y-111650780D03*
X88404700Y-112850780D03*
X88404700Y-111650780D03*
D19*
X88404700Y-112250780D03*
D14*
X107007660Y-84750480D03*
X107007660Y-83850480D03*
X96242720Y-107632500D03*
X97142720Y-107632500D03*
X94899480Y-91937420D03*
X94899480Y-92837420D03*
X104584500Y-109197560D03*
X104584500Y-108297560D03*
X96890840Y-92888220D03*
X96890840Y-91988220D03*
X107482640Y-96167360D03*
X107482640Y-95267360D03*
X91183460Y-111899280D03*
X91183460Y-112799280D03*
X99179380Y-108534620D03*
X99179380Y-107634620D03*
D20*
X97288180Y-109023460D03*
X95838180Y-109023460D03*
X95838180Y-110173460D03*
X97288180Y-110173460D03*
D14*
X105295700Y-89151460D03*
X104395700Y-89151460D03*
X97778778Y-112163748D03*
X98678778Y-112163748D03*
X107470360Y-88742520D03*
X106570360Y-88742520D03*
X107800140Y-87503000D03*
X107800140Y-86603000D03*
X95735140Y-86736340D03*
X95735140Y-85836340D03*
X95272218Y-113758868D03*
X95272218Y-114658868D03*
X105311360Y-87848440D03*
X104411360Y-87848440D03*
X105298660Y-86583520D03*
X104398660Y-86583520D03*
X106195605Y-114783057D03*
X107095605Y-114783057D03*
X106560620Y-86590300D03*
X106560620Y-87490300D03*
X95985958Y-116511808D03*
X95985958Y-117411808D03*
X109002305Y-114056617D03*
X109902305Y-114056617D03*
X93193020Y-87142320D03*
X92293020Y-87142320D03*
X97794018Y-113421048D03*
X98694018Y-113421048D03*
X105863285Y-112233317D03*
X105863285Y-111333317D03*
X96529518Y-114681308D03*
X96529518Y-113781308D03*
X107095605Y-113558777D03*
X106195605Y-113558777D03*
X97794018Y-114663108D03*
X98694018Y-114663108D03*
X107143445Y-112233317D03*
X107143445Y-111333317D03*
X108767880Y-100320260D03*
X108767880Y-99420260D03*
X107497880Y-99478680D03*
X107497880Y-100378680D03*
X95364720Y-88033860D03*
X94464720Y-88033860D03*
X95647718Y-112445688D03*
X96547718Y-112445688D03*
D21*
X104442500Y-85518220D03*
X105092500Y-85518220D03*
X105742500Y-85518220D03*
X105742500Y-83693220D03*
X105092500Y-83693220D03*
X104442500Y-83693220D03*
D22*
X105559000Y-84605720D03*
X104626000Y-84605720D03*
D21*
X92377500Y-84768060D03*
X93027500Y-84768060D03*
X93677500Y-84768060D03*
X93677500Y-82943060D03*
X93027500Y-82943060D03*
X92377500Y-82943060D03*
D22*
X93494000Y-83855560D03*
X92561000Y-83855560D03*
D21*
X98635178Y-115755308D03*
X97985178Y-115755308D03*
X97335178Y-115755308D03*
X97335178Y-117580308D03*
X97985178Y-117580308D03*
X98635178Y-117580308D03*
D22*
X97518678Y-116667808D03*
X98451678Y-116667808D03*
D23*
X116380000Y-106970000D03*
X92830000Y-88370000D03*
X105900000Y-110520000D03*
X103710000Y-111350000D03*
X105450000Y-109260000D03*
X94900000Y-109007911D03*
X94388940Y-109758480D03*
X107117021Y-103732829D03*
X108505994Y-102434163D03*
X93590000Y-92170000D03*
X87150000Y-106630000D03*
X111510000Y-106440000D03*
X107315000Y-94488000D03*
X111569500Y-94361000D03*
X88519000Y-94297500D03*
X91313000Y-113919000D03*
X91186000Y-84899500D03*
X99716533Y-115366605D03*
X95041720Y-89423871D03*
X97683320Y-92072460D03*
X98143392Y-110206406D03*
X92792328Y-101844085D03*
X93060520Y-103598980D03*
X106507280Y-90083640D03*
X108277660Y-110446820D03*
X102491540Y-110215680D03*
X99331780Y-112107980D03*
X94186691Y-106977201D03*
X92057220Y-105879900D03*
X103418640Y-88148160D03*
X103278940Y-85344000D03*
X111422180Y-105628440D03*
X118407180Y-94312740D03*
X81541620Y-94228920D03*
X81470500Y-105684320D03*
X101320476Y-89773884D03*
X100064605Y-91309155D03*
X93974920Y-116088160D03*
X81422240Y-99435920D03*
X101800660Y-103644700D03*
X104087956Y-102749324D03*
X90340180Y-103743760D03*
X106027220Y-91259660D03*
X96502220Y-104170480D03*
X94368035Y-104566135D03*
X99936300Y-116342160D03*
X88519000Y-101854000D03*
X91014961Y-106042460D03*
X88455000Y-95555000D03*
X88458040Y-96827340D03*
X89117329Y-97710797D03*
X88519000Y-103187500D03*
X88392000Y-104457500D03*
X81399380Y-95549720D03*
X81373980Y-96789240D03*
X81302860Y-98125280D03*
X88409780Y-99284991D03*
X81422240Y-100700840D03*
X88646000Y-100711000D03*
X81470500Y-101963220D03*
X81447640Y-103157020D03*
X81399380Y-104515920D03*
X118427500Y-95631000D03*
X111379000Y-95631000D03*
X111442500Y-97868466D03*
X110948564Y-99348477D03*
X110178824Y-101502184D03*
X111596470Y-102177595D03*
X111493300Y-103172260D03*
X118554500Y-103187500D03*
X118173500Y-104521000D03*
X111396780Y-104437180D03*
X102461060Y-96380300D03*
X102600847Y-91752333D03*
X118935500Y-96837500D03*
X110213140Y-96446340D03*
X109791500Y-100401120D03*
X118872000Y-98171000D03*
X102560000Y-90500000D03*
X118681500Y-99441000D03*
X107612180Y-92458540D03*
X100393500Y-118745000D03*
X94086036Y-118403674D03*
X110621282Y-102398975D03*
X118808500Y-100647500D03*
X112378564Y-115008564D03*
X107170220Y-115434459D03*
X119385080Y-101899720D03*
D24*
X116715000Y-105715000D02*
X116715000Y-106635000D01*
X116715000Y-106635000D02*
X116380000Y-106970000D01*
X92293020Y-87732320D02*
X92293020Y-87833020D01*
X92293020Y-87833020D02*
X92830000Y-88370000D01*
X105863285Y-111333317D02*
X105863285Y-110556715D01*
X105863285Y-110556715D02*
X105900000Y-110520000D01*
X104598365Y-111333317D02*
X103726683Y-111333317D01*
X103726683Y-111333317D02*
X103710000Y-111350000D01*
X104584500Y-109197560D02*
X105387560Y-109197560D01*
X105387560Y-109197560D02*
X105450000Y-109260000D01*
X95123960Y-109023460D02*
X94915549Y-109023460D01*
X94915549Y-109023460D02*
X94900000Y-109007911D01*
X105829340Y-103539360D02*
X106923552Y-103539360D01*
X106923552Y-103539360D02*
X107117021Y-103732829D01*
X108118360Y-101632600D02*
X108138361Y-101652601D01*
X108138361Y-101652601D02*
X108138361Y-102066530D01*
X108138361Y-102066530D02*
X108505994Y-102434163D01*
X94899480Y-91937420D02*
X93822580Y-91937420D01*
X93822580Y-91937420D02*
X93590000Y-92170000D01*
X87150000Y-106630000D02*
X87150000Y-106150000D01*
X87150000Y-106150000D02*
X86715000Y-105715000D01*
X113285000Y-105715000D02*
X112235000Y-105715000D01*
X112235000Y-105715000D02*
X111510000Y-106440000D01*
X113285000Y-105715000D02*
X115025000Y-105715000D01*
X115025000Y-105715000D02*
X116715000Y-105715000D01*
X107315000Y-94488000D02*
X107315000Y-95099720D01*
X107315000Y-95099720D02*
X107482640Y-95267360D01*
X111569500Y-94361000D02*
X113209000Y-94361000D01*
X113209000Y-94361000D02*
X113285000Y-94285000D01*
X86715000Y-94285000D02*
X88506500Y-94285000D01*
X88506500Y-94285000D02*
X88519000Y-94297500D01*
X91183460Y-112799280D02*
X91183460Y-113789460D01*
X91183460Y-113789460D02*
X91313000Y-113919000D01*
X104584500Y-111319452D02*
X104598365Y-111333317D01*
X107528360Y-101632600D02*
X107528360Y-100409160D01*
X107528360Y-100409160D02*
X107497880Y-100378680D01*
X92377500Y-84768060D02*
X91317440Y-84768060D01*
X91317440Y-84768060D02*
X91186000Y-84899500D01*
X105247020Y-91729980D02*
X105442600Y-91925560D01*
X105442600Y-91925560D02*
X105442600Y-92900500D01*
X105247020Y-90944658D02*
X105247020Y-91729980D01*
X89954700Y-112575780D02*
X90959960Y-112575780D01*
X90959960Y-112575780D02*
X91183460Y-112799280D01*
X89954700Y-112575780D02*
X88729700Y-112575780D01*
X88729700Y-112575780D02*
X88404700Y-112250780D01*
X86854700Y-113225780D02*
X87429700Y-113225780D01*
X87429700Y-113225780D02*
X88404700Y-112250780D01*
X106507280Y-90083640D02*
X106108038Y-90083640D01*
X106108038Y-90083640D02*
X105247020Y-90944658D01*
X98635178Y-115755308D02*
X99327830Y-115755308D01*
X99327830Y-115755308D02*
X99716533Y-115366605D01*
X92293020Y-87142320D02*
X92293020Y-87732320D01*
X95917600Y-89494360D02*
X95112209Y-89494360D01*
X95112209Y-89494360D02*
X95041720Y-89423871D01*
X96890840Y-91988220D02*
X97599080Y-91988220D01*
X97599080Y-91988220D02*
X97683320Y-92072460D01*
X97288180Y-110173460D02*
X98110446Y-110173460D01*
X98110446Y-110173460D02*
X98143392Y-110206406D01*
X94388940Y-110499740D02*
X94388940Y-109758480D01*
X95123960Y-109023460D02*
X95838180Y-109023460D01*
X94429340Y-102039360D02*
X92987603Y-102039360D01*
X92987603Y-102039360D02*
X92792328Y-101844085D01*
X94429340Y-103539360D02*
X93120140Y-103539360D01*
X93120140Y-103539360D02*
X93060520Y-103598980D01*
X107528360Y-101632600D02*
X108118360Y-101632600D01*
X105839339Y-103549359D02*
X105829340Y-103539360D01*
X108268885Y-111369537D02*
X108268885Y-110455595D01*
X108268885Y-110455595D02*
X108277660Y-110446820D01*
X104598365Y-109211425D02*
X104584500Y-109197560D01*
X102495480Y-109057440D02*
X102653380Y-109215340D01*
X101879340Y-108441300D02*
X102495480Y-109057440D01*
X102495480Y-109057440D02*
X102495480Y-110211740D01*
X102495480Y-110211740D02*
X102491540Y-110215680D01*
X101879340Y-105989360D02*
X101879340Y-108441300D01*
X102653380Y-109215340D02*
X103243380Y-109215340D01*
X103243380Y-109215340D02*
X104566720Y-109215340D01*
X104566720Y-109215340D02*
X104584500Y-109197560D01*
X104556560Y-109261060D02*
X104648000Y-109352500D01*
X98678778Y-112163748D02*
X99276012Y-112163748D01*
X99276012Y-112163748D02*
X99331780Y-112107980D01*
X98678778Y-112163748D02*
X98678778Y-113405808D01*
X98678778Y-113405808D02*
X98694018Y-113421048D01*
X95838180Y-109023460D02*
X95838180Y-108037040D01*
X95838180Y-108037040D02*
X96242720Y-107632500D01*
X94068480Y-107657900D02*
X94068480Y-107095412D01*
X94068480Y-107095412D02*
X94186691Y-106977201D01*
X92778580Y-105661880D02*
X92275240Y-105661880D01*
X92275240Y-105661880D02*
X92057220Y-105879900D01*
X104411360Y-87848440D02*
X103718360Y-87848440D01*
X103718360Y-87848440D02*
X103418640Y-88148160D01*
X104411360Y-87848440D02*
X104411360Y-89135800D01*
X104411360Y-89135800D02*
X104395700Y-89151460D01*
X103838280Y-85344000D02*
X103278940Y-85344000D01*
X104442500Y-85518220D02*
X104012500Y-85518220D01*
X104012500Y-85518220D02*
X103838280Y-85344000D01*
X111422180Y-105628440D02*
X113198440Y-105628440D01*
X113198440Y-105628440D02*
X113285000Y-105715000D01*
X116715000Y-94285000D02*
X118379440Y-94285000D01*
X118379440Y-94285000D02*
X118407180Y-94312740D01*
X113285000Y-94285000D02*
X115025000Y-94285000D01*
X115025000Y-94285000D02*
X116715000Y-94285000D01*
X83285000Y-105715000D02*
X85025000Y-105715000D01*
X85025000Y-105715000D02*
X86715000Y-105715000D01*
X83285000Y-94285000D02*
X85025000Y-94285000D01*
X85025000Y-94285000D02*
X86715000Y-94285000D01*
X81541620Y-94228920D02*
X83228920Y-94228920D01*
X83228920Y-94228920D02*
X83285000Y-94285000D01*
X83285000Y-105715000D02*
X81501180Y-105715000D01*
X81501180Y-105715000D02*
X81470500Y-105684320D01*
X97142720Y-107632500D02*
X97142720Y-108878000D01*
X97142720Y-108878000D02*
X97288180Y-109023460D01*
X98379340Y-105989360D02*
X98379340Y-107019360D01*
X98379340Y-107019360D02*
X97766200Y-107632500D01*
X97766200Y-107632500D02*
X97732720Y-107632500D01*
X97732720Y-107632500D02*
X97142720Y-107632500D01*
X99179380Y-109628940D02*
X99179380Y-109124620D01*
X99179380Y-109794262D02*
X99179380Y-109628940D01*
X95898181Y-110938461D02*
X98035181Y-110946407D01*
X98035181Y-110946407D02*
X98035181Y-110938461D01*
X99179380Y-109628940D02*
X99179380Y-110265620D01*
X99179380Y-110265620D02*
X98498593Y-110946407D01*
X98498593Y-110946407D02*
X98035181Y-110946407D01*
X94388940Y-111399740D02*
X94978940Y-111399740D01*
X94978940Y-111399740D02*
X95500220Y-110878460D01*
X95500220Y-110878460D02*
X95838180Y-110878460D01*
X95838180Y-110173460D02*
X95838180Y-110878460D01*
X95838180Y-110878460D02*
X95898181Y-110938461D01*
X99179380Y-109124620D02*
X99179380Y-108534620D01*
D25*
X84995001Y-99985001D02*
X85304999Y-99985001D01*
X85304999Y-99985001D02*
X89090500Y-99985001D01*
X84375000Y-99365000D02*
X84995001Y-99985001D01*
X83285000Y-99365000D02*
X84375000Y-99365000D01*
D26*
X89225141Y-99985001D02*
X89090500Y-99985001D01*
D24*
X101320476Y-89773884D02*
X99453700Y-88033860D01*
X101257100Y-89837260D02*
X101320476Y-89773884D01*
X89634501Y-99985001D02*
X89281000Y-99985001D01*
X89281000Y-99985001D02*
X89090500Y-99985001D01*
X89794941Y-103769160D02*
X89794941Y-100145441D01*
X89794941Y-100145441D02*
X89634501Y-99985001D01*
X89794941Y-106560620D02*
X89794941Y-103769160D01*
X86854700Y-111275780D02*
X86854700Y-109500861D01*
X86854700Y-109500861D02*
X89794941Y-106560620D01*
X106027220Y-91259660D02*
X106342600Y-91575040D01*
X106342600Y-91575040D02*
X106342600Y-92900500D01*
X105829340Y-96539360D02*
X106342600Y-96026100D01*
X106342600Y-96026100D02*
X106342600Y-92900500D01*
X107470360Y-88742520D02*
X107470360Y-91078600D01*
X107470360Y-91078600D02*
X106235920Y-92313040D01*
X106235920Y-92313040D02*
X106235920Y-92793820D01*
X106235920Y-92793820D02*
X106342600Y-92900500D01*
X94899480Y-93109500D02*
X96379340Y-94589360D01*
X103243380Y-108315340D02*
X104566720Y-108315340D01*
X104566720Y-108315340D02*
X104584500Y-108297560D01*
X102379340Y-105989360D02*
X102379340Y-108041300D01*
X102379340Y-108041300D02*
X102653380Y-108315340D01*
X102653380Y-108315340D02*
X103243380Y-108315340D01*
X94210857Y-108307901D02*
X93360240Y-109158518D01*
X93360240Y-109158518D02*
X93360240Y-111603042D01*
X93360240Y-111603042D02*
X94202886Y-112445688D01*
X94202886Y-112445688D02*
X95057718Y-112445688D01*
X99453700Y-88033860D02*
X95364720Y-88033860D01*
X96240839Y-92086061D02*
X96240839Y-91406219D01*
X96240839Y-91406219D02*
X96337903Y-91309155D01*
X96337903Y-91309155D02*
X100064605Y-91309155D01*
X93906340Y-114520980D02*
X93906340Y-116019580D01*
X93906340Y-116019580D02*
X93974920Y-116088160D01*
X94682218Y-113758868D02*
X94668452Y-113758868D01*
X94668452Y-113758868D02*
X93906340Y-114520980D01*
X104923485Y-114488837D02*
X104860862Y-114551460D01*
X104860862Y-114551460D02*
X102798880Y-114551460D01*
X102798880Y-114551460D02*
X101008180Y-116342160D01*
X101008180Y-116342160D02*
X99936300Y-116342160D01*
X81422240Y-99435920D02*
X83214080Y-99435920D01*
X83214080Y-99435920D02*
X83285000Y-99365000D01*
X101800660Y-103644700D02*
X97028000Y-103644700D01*
X97028000Y-103644700D02*
X96502220Y-104170480D01*
X102379340Y-104223380D02*
X101963220Y-103807260D01*
X101963220Y-103807260D02*
X101800660Y-103644700D01*
X102379340Y-105989360D02*
X102379340Y-104223380D01*
X105829340Y-103039360D02*
X107021600Y-103039360D01*
X107021600Y-103039360D02*
X107528360Y-102532600D01*
X104087956Y-102749324D02*
X104739339Y-102097941D01*
X104739339Y-102097941D02*
X104739339Y-96599361D01*
X104739339Y-96599361D02*
X104799340Y-96539360D01*
X104799340Y-96539360D02*
X105829340Y-96539360D01*
X104087956Y-102749324D02*
X104377992Y-103039360D01*
X104377992Y-103039360D02*
X105829340Y-103039360D01*
X89794941Y-103769160D02*
X90314780Y-103769160D01*
X90314780Y-103769160D02*
X90340180Y-103743760D01*
X96379340Y-105021380D02*
X96379340Y-105989360D01*
X96379340Y-104293360D02*
X96379340Y-105021380D01*
X95219520Y-88179060D02*
X95364720Y-88033860D01*
X94899480Y-92837420D02*
X95489480Y-92837420D01*
X95489480Y-92837420D02*
X96240839Y-92086061D01*
X96502220Y-104170480D02*
X96379340Y-104293360D01*
X94429340Y-104039360D02*
X94429340Y-104504830D01*
X94429340Y-104504830D02*
X94368035Y-104566135D01*
X95272218Y-113758868D02*
X94682218Y-113758868D01*
X94682218Y-113758868D02*
X94617540Y-113823546D01*
X95647718Y-112445688D02*
X95057718Y-112445688D01*
X94210857Y-108307901D02*
X94908479Y-108307901D01*
X94908479Y-108307901D02*
X94968480Y-108247900D01*
X94968480Y-108247900D02*
X94968480Y-107657900D01*
X104556560Y-108361060D02*
X104648000Y-108452500D01*
X94968480Y-107657900D02*
X94968480Y-107400220D01*
X94968480Y-107400220D02*
X96379340Y-105989360D01*
X92778580Y-104761880D02*
X93706820Y-104761880D01*
X93706820Y-104761880D02*
X94429340Y-104039360D01*
X94899480Y-92837420D02*
X94899480Y-93109500D01*
X106195605Y-114783057D02*
X105217705Y-114783057D01*
X105217705Y-114783057D02*
X104923485Y-114488837D01*
X95272218Y-113758868D02*
X95272218Y-112821188D01*
X95272218Y-112821188D02*
X95647718Y-112445688D01*
X95735140Y-86736340D02*
X95735140Y-87663440D01*
X95735140Y-87663440D02*
X95364720Y-88033860D01*
X107800140Y-87503000D02*
X107800140Y-88412740D01*
X107800140Y-88412740D02*
X107470360Y-88742520D01*
X96890840Y-92888220D02*
X96879340Y-92899720D01*
X96879340Y-92899720D02*
X96879340Y-94589360D01*
X107482640Y-96167360D02*
X107482640Y-96757360D01*
X107482640Y-96757360D02*
X107200640Y-97039360D01*
X107200640Y-97039360D02*
X106859340Y-97039360D01*
X106859340Y-97039360D02*
X105829340Y-97039360D01*
X86715000Y-101905000D02*
X88468000Y-101905000D01*
X88468000Y-101905000D02*
X88519000Y-101854000D01*
X91014961Y-106042460D02*
X91014961Y-111730781D01*
X91014961Y-111730781D02*
X91183460Y-111899280D01*
X86715000Y-101905000D02*
X87887002Y-101905000D01*
X89954700Y-111925780D02*
X91156960Y-111925780D01*
X91156960Y-111925780D02*
X91183460Y-111899280D01*
X99179380Y-107634620D02*
X98879340Y-107334580D01*
X98879340Y-107334580D02*
X98879340Y-105989360D01*
X103808660Y-86583520D02*
X102678639Y-87713541D01*
X102678639Y-87713541D02*
X102678639Y-88610759D01*
X102678639Y-88610759D02*
X103879340Y-89811460D01*
X103879340Y-89811460D02*
X103879340Y-94589360D01*
X103745699Y-86646481D02*
X103808660Y-86583520D01*
X103808660Y-86583520D02*
X104398660Y-86583520D01*
X100879340Y-105989360D02*
X100879340Y-113067786D01*
X100879340Y-113067786D02*
X99284018Y-114663108D01*
X99284018Y-114663108D02*
X98694018Y-114663108D01*
X100889339Y-105999359D02*
X100879340Y-105989360D01*
X105498080Y-107105900D02*
X107143445Y-108751265D01*
X107143445Y-108751265D02*
X107143445Y-111333317D01*
X102879340Y-107105900D02*
X105498080Y-107105900D01*
X107143445Y-111333317D02*
X107143445Y-110863380D01*
X102879340Y-105989360D02*
X102879340Y-107105900D01*
X86715000Y-95555000D02*
X88455000Y-95555000D01*
X88455000Y-95555000D02*
X88579361Y-95679361D01*
X88579361Y-95679361D02*
X97319339Y-95679361D01*
X97319339Y-95679361D02*
X97379340Y-95619360D01*
X97379340Y-95619360D02*
X97379340Y-94589360D01*
X88458040Y-96827340D02*
X86717340Y-96827340D01*
X86717340Y-96827340D02*
X86715000Y-96825000D01*
X86715000Y-96825000D02*
X88455000Y-96825000D01*
X88455000Y-96825000D02*
X88740640Y-96539360D01*
X88740640Y-96539360D02*
X93399340Y-96539360D01*
X93399340Y-96539360D02*
X94429340Y-96539360D01*
X92852240Y-97279370D02*
X89548756Y-97279370D01*
X89548756Y-97279370D02*
X89117329Y-97710797D01*
X92852240Y-97279370D02*
X93092250Y-97039360D01*
X93092250Y-97039360D02*
X94429340Y-97039360D01*
X86715000Y-98095000D02*
X88455000Y-98095000D01*
X88455000Y-98095000D02*
X89899360Y-99539360D01*
X89899360Y-99539360D02*
X93399340Y-99539360D01*
X93399340Y-99539360D02*
X94429340Y-99539360D01*
X92326040Y-85887560D02*
X91736040Y-85887560D01*
X91736040Y-85887560D02*
X91643019Y-85980581D01*
X94082424Y-90829146D02*
X99449412Y-90829146D01*
X91643019Y-85980581D02*
X91643019Y-88389741D01*
X91643019Y-88389741D02*
X94082424Y-90829146D01*
X99449412Y-90829146D02*
X99770738Y-90507820D01*
X99770738Y-90507820D02*
X100309802Y-90507820D01*
X100309802Y-90507820D02*
X103379340Y-93577358D01*
X103379340Y-93577358D02*
X103379340Y-93728540D01*
X103379340Y-93728540D02*
X103379340Y-94589360D01*
X103379340Y-93559360D02*
X103379340Y-93728540D01*
X93045720Y-102539360D02*
X90274951Y-105310129D01*
X90274951Y-105310129D02*
X90274951Y-108548529D01*
X90274951Y-108548529D02*
X89954700Y-108868780D01*
X89954700Y-108868780D02*
X89954700Y-111275780D01*
X94429340Y-102539360D02*
X93045720Y-102539360D01*
X92331540Y-114945160D02*
X92603391Y-114673309D01*
X92603391Y-114673309D02*
X92603391Y-111812009D01*
X90629740Y-114945160D02*
X92331540Y-114945160D01*
X90170000Y-114485420D02*
X90629740Y-114945160D01*
X90170000Y-113896080D02*
X90170000Y-114485420D01*
X89954700Y-113225780D02*
X89954700Y-113680780D01*
X89954700Y-113680780D02*
X90170000Y-113896080D01*
X92603391Y-108414820D02*
X92603391Y-111812009D01*
X92603391Y-108216629D02*
X92603391Y-108414820D01*
X93418479Y-106562223D02*
X93873320Y-106107382D01*
X93873320Y-106107382D02*
X95519341Y-104461361D01*
X92603391Y-108414820D02*
X92603391Y-107377311D01*
X92603391Y-107377311D02*
X93873320Y-106107382D01*
X95449341Y-103029361D02*
X95217639Y-103029361D01*
X95217639Y-103029361D02*
X95207640Y-103039360D01*
X95207640Y-103039360D02*
X94429340Y-103039360D01*
X95519341Y-104461361D02*
X95519341Y-103099361D01*
X95519341Y-103099361D02*
X95449341Y-103029361D01*
X88519000Y-103187500D02*
X89132001Y-103800501D01*
X89132001Y-103800501D02*
X89132001Y-106418837D01*
X89132001Y-106418837D02*
X86189699Y-109361139D01*
X86189699Y-109361139D02*
X86189699Y-111865779D01*
X86249700Y-111925780D02*
X86854700Y-111925780D01*
X86189699Y-111865779D02*
X86249700Y-111925780D01*
X86715000Y-103175000D02*
X87805000Y-103175000D01*
X88519000Y-103187500D02*
X86727500Y-103187500D01*
X86727500Y-103187500D02*
X86715000Y-103175000D01*
X86715000Y-104445000D02*
X88379500Y-104445000D01*
X88379500Y-104445000D02*
X88392000Y-104457500D01*
X85709689Y-112064605D02*
X86220864Y-112575780D01*
X88515001Y-106357001D02*
X85709689Y-109162313D01*
X85709689Y-109162313D02*
X85709689Y-112064605D01*
X86423500Y-112575780D02*
X86854700Y-112575780D01*
X85709690Y-112064606D02*
X86220864Y-112575780D01*
X86220864Y-112575780D02*
X86423500Y-112575780D01*
X86715000Y-104445000D02*
X87805000Y-104445000D01*
X87805000Y-104445000D02*
X88515001Y-105155001D01*
X88515001Y-105155001D02*
X88515001Y-106357001D01*
X83285000Y-95555000D02*
X81404660Y-95555000D01*
X81404660Y-95555000D02*
X81399380Y-95549720D01*
X81373980Y-96789240D02*
X83249240Y-96789240D01*
X83249240Y-96789240D02*
X83285000Y-96825000D01*
X83285000Y-98095000D02*
X81333140Y-98095000D01*
X81333140Y-98095000D02*
X81302860Y-98125280D01*
X88329771Y-99365000D02*
X88409780Y-99284991D01*
X86715000Y-99365000D02*
X88329771Y-99365000D01*
X83285000Y-100635000D02*
X81488080Y-100635000D01*
X81488080Y-100635000D02*
X81422240Y-100700840D01*
X86715000Y-100635000D02*
X88570000Y-100635000D01*
X88570000Y-100635000D02*
X88646000Y-100711000D01*
X81470500Y-101963220D02*
X83226780Y-101963220D01*
X83226780Y-101963220D02*
X83285000Y-101905000D01*
X83285000Y-103175000D02*
X81465620Y-103175000D01*
X81465620Y-103175000D02*
X81447640Y-103157020D01*
X81399380Y-104515920D02*
X83214080Y-104515920D01*
X83214080Y-104515920D02*
X83285000Y-104445000D01*
X116715000Y-95555000D02*
X118351500Y-95555000D01*
X118351500Y-95555000D02*
X118427500Y-95631000D01*
X116715000Y-95555000D02*
X114975000Y-95555000D01*
X114975000Y-95555000D02*
X113285000Y-95555000D01*
X113285000Y-95555000D02*
X111455000Y-95555000D01*
X111455000Y-95555000D02*
X111379000Y-95631000D01*
X113285000Y-98095000D02*
X111669034Y-98095000D01*
X111669034Y-98095000D02*
X111442500Y-97868466D01*
X113285000Y-99365000D02*
X110965087Y-99365000D01*
X110965087Y-99365000D02*
X110948564Y-99348477D01*
X111123704Y-101502184D02*
X111123704Y-101056296D01*
X111123704Y-101056296D02*
X111545000Y-100635000D01*
X111545000Y-100635000D02*
X113285000Y-100635000D01*
X110178824Y-101502184D02*
X111123704Y-101502184D01*
X113224597Y-100695403D02*
X113285000Y-100635000D01*
X113285000Y-101905000D02*
X111869065Y-101905000D01*
X111869065Y-101905000D02*
X111596470Y-102177595D01*
X111493300Y-103172260D02*
X113282260Y-103172260D01*
X113282260Y-103172260D02*
X113285000Y-103175000D01*
X116715000Y-103175000D02*
X118542000Y-103175000D01*
X118542000Y-103175000D02*
X118554500Y-103187500D01*
X116715000Y-104445000D02*
X118097500Y-104445000D01*
X118097500Y-104445000D02*
X118173500Y-104521000D01*
X113285000Y-104445000D02*
X111404600Y-104445000D01*
X111404600Y-104445000D02*
X111396780Y-104437180D01*
X113285000Y-104445000D02*
X115025000Y-104445000D01*
X115025000Y-104445000D02*
X116715000Y-104445000D01*
X105295700Y-89151460D02*
X105295700Y-89741460D01*
X105295700Y-89741460D02*
X104369341Y-90667819D01*
X104369341Y-90667819D02*
X104369341Y-95611361D01*
X104369341Y-95611361D02*
X103169720Y-96810982D01*
X103169720Y-96810982D02*
X103169720Y-102877620D01*
X103169720Y-102877620D02*
X103859349Y-103567249D01*
X103859349Y-103567249D02*
X103859349Y-104439369D01*
X103859349Y-104439369D02*
X103879340Y-104459360D01*
X103879340Y-104459360D02*
X103879340Y-105989360D01*
X106560620Y-87490300D02*
X106560620Y-88732780D01*
X106560620Y-88732780D02*
X106570360Y-88742520D01*
X105295700Y-89151460D02*
X106161420Y-89151460D01*
X106161420Y-89151460D02*
X106570360Y-88742520D01*
X99995140Y-89495080D02*
X100156980Y-89656920D01*
X100156980Y-89656920D02*
X102252393Y-91752333D01*
X96817600Y-89494360D02*
X99994420Y-89494360D01*
X99994420Y-89494360D02*
X100156980Y-89656920D01*
X96817600Y-89494360D02*
X96817600Y-89162358D01*
X96817600Y-89162358D02*
X96339103Y-88683861D01*
X96339103Y-88683861D02*
X94524721Y-88683861D01*
X94524721Y-88683861D02*
X94464720Y-88623860D01*
X94464720Y-88623860D02*
X94464720Y-88033860D01*
X101782880Y-102557580D02*
X101782880Y-97058480D01*
X101782880Y-97058480D02*
X102461060Y-96380300D01*
X103266663Y-104041363D02*
X101782880Y-102557580D01*
X103266663Y-104044341D02*
X103266663Y-104041363D01*
X103266663Y-104044341D02*
X103379340Y-104157018D01*
X103379340Y-104157018D02*
X103379340Y-105989360D01*
X102252393Y-91752333D02*
X102600847Y-91752333D01*
X94475300Y-86800260D02*
X94475300Y-88023280D01*
X94475300Y-88023280D02*
X94464720Y-88033860D01*
X97778778Y-112163748D02*
X97778778Y-111831746D01*
X97778778Y-111831746D02*
X98184107Y-111426417D01*
X98697420Y-111426416D02*
X100379340Y-109744496D01*
X98184107Y-111426417D02*
X98697420Y-111426416D01*
X100379340Y-109744496D02*
X100379340Y-107019360D01*
X100379340Y-107019360D02*
X100379340Y-105989360D01*
X97778778Y-112163748D02*
X97778778Y-111873700D01*
X97778778Y-112156128D02*
X96837278Y-112156128D01*
X96837278Y-112156128D02*
X96547718Y-112445688D01*
X96529518Y-113781308D02*
X96529518Y-112463888D01*
X96529518Y-112463888D02*
X96547718Y-112445688D01*
X101379020Y-111462820D02*
X102149517Y-112233317D01*
X102149517Y-112233317D02*
X104598365Y-112233317D01*
X101379020Y-109631130D02*
X101379020Y-111462820D01*
X101379340Y-105989360D02*
X101379340Y-109630810D01*
X101379340Y-109630810D02*
X101379020Y-109631130D01*
X104008365Y-112233317D02*
X104598365Y-112233317D01*
X104598365Y-112233317D02*
X104598365Y-113263717D01*
X104598365Y-113263717D02*
X104923485Y-113588837D01*
X106195605Y-113558777D02*
X104953545Y-113558777D01*
X104953545Y-113558777D02*
X104923485Y-113588837D01*
D27*
X111092000Y-111155150D02*
X111092000Y-111670042D01*
X111092000Y-111670042D02*
X111236396Y-111814438D01*
D28*
X107920000Y-82120000D02*
X97738080Y-82120000D01*
X97738080Y-82120000D02*
X97307371Y-82550709D01*
X110213140Y-84413140D02*
X107920000Y-82120000D01*
X110213140Y-85560850D02*
X110213140Y-84413140D01*
D27*
X109288696Y-114866618D02*
X109070063Y-114866618D01*
X109070063Y-114866618D02*
X107602221Y-116334460D01*
X107602221Y-116334460D02*
X105802219Y-116334460D01*
X105802219Y-116334460D02*
X104894518Y-117242161D01*
X104894518Y-117242161D02*
X100185827Y-117242161D01*
X100185827Y-117242161D02*
X98705169Y-118722819D01*
X98705169Y-118722819D02*
X95608819Y-118722819D01*
X95608819Y-118722819D02*
X95288818Y-118402818D01*
X95288818Y-118402818D02*
X95288818Y-118261682D01*
X95985958Y-116511808D02*
X95551584Y-116511808D01*
X95551584Y-116511808D02*
X94894792Y-117168600D01*
X94894792Y-117168600D02*
X94894792Y-118008792D01*
X94894792Y-118008792D02*
X95288818Y-118402818D01*
D24*
X109002305Y-114646617D02*
X109002305Y-114490500D01*
X109002305Y-114490500D02*
X109002305Y-114056617D01*
D27*
X109288696Y-114866618D02*
X109288696Y-114776891D01*
X109288696Y-114776891D02*
X109002305Y-114490500D01*
X111236396Y-111814438D02*
X111236396Y-114255658D01*
X111236396Y-114255658D02*
X110625436Y-114866618D01*
X110625436Y-114866618D02*
X109288696Y-114866618D01*
X108767880Y-100320260D02*
X108767880Y-101423242D01*
X108767880Y-101423242D02*
X109531384Y-102186746D01*
X109531384Y-102186746D02*
X109531384Y-109594534D01*
X109531384Y-109594534D02*
X111092000Y-111155150D01*
D28*
X109791500Y-100401120D02*
X109225815Y-100401120D01*
X109225815Y-100401120D02*
X109154956Y-100330261D01*
X109154956Y-100330261D02*
X108767880Y-100330261D01*
D24*
X107007660Y-84750480D02*
X106675658Y-84750480D01*
X106675658Y-84750480D02*
X106205501Y-84280323D01*
X106205501Y-84280323D02*
X106205501Y-83726221D01*
X106205501Y-83726221D02*
X106172500Y-83693220D01*
X106172500Y-83693220D02*
X105742500Y-83693220D01*
D28*
X110213140Y-96446340D02*
X110213140Y-87820500D01*
X110213140Y-87820500D02*
X110213140Y-87045960D01*
D27*
X95003620Y-83944460D02*
X95913620Y-83944460D01*
D28*
X95913620Y-83944460D02*
X97307371Y-82550709D01*
X110213140Y-85560850D02*
X110213140Y-87820500D01*
X110213140Y-87045960D02*
X107917660Y-84750480D01*
D27*
X107917660Y-84750480D02*
X107007660Y-84750480D01*
D29*
X113285000Y-96825000D02*
X112027036Y-96825000D01*
X112027036Y-96825000D02*
X111970501Y-96768465D01*
X111970501Y-96768465D02*
X110535265Y-96768465D01*
X110535265Y-96768465D02*
X110313149Y-96546349D01*
X110313149Y-96546349D02*
X110313149Y-96446340D01*
X116715000Y-96825000D02*
X113285000Y-96825000D01*
X118935500Y-96837500D02*
X116727500Y-96837500D01*
X116727500Y-96837500D02*
X116715000Y-96825000D01*
D24*
X109252304Y-114638618D02*
X109320304Y-114706618D01*
X109710640Y-100320260D02*
X109791500Y-100401120D01*
X113285000Y-96825000D02*
X113635000Y-96825000D01*
X110093885Y-112669537D02*
X110093885Y-113099537D01*
X110093885Y-113099537D02*
X109786806Y-113406616D01*
X109786806Y-113406616D02*
X109320304Y-113406616D01*
X109320304Y-113406616D02*
X109252304Y-113474616D01*
X109252304Y-113474616D02*
X109252304Y-114638618D01*
X109786806Y-113406616D02*
X109062306Y-113406616D01*
X109062306Y-113406616D02*
X109002305Y-113466617D01*
X109002305Y-113466617D02*
X109002305Y-114056617D01*
X97335178Y-117580308D02*
X96905178Y-117580308D01*
X96905178Y-117580308D02*
X96635959Y-117311089D01*
X96635959Y-117311089D02*
X96635959Y-116571809D01*
X96635959Y-116571809D02*
X96575958Y-116511808D01*
X96575958Y-116511808D02*
X95985958Y-116511808D01*
X93677500Y-82943060D02*
X94107500Y-82943060D01*
X94107500Y-82943060D02*
X94353619Y-83189179D01*
X94353619Y-83189179D02*
X94353619Y-83884459D01*
X94353619Y-83884459D02*
X94413620Y-83944460D01*
X94413620Y-83944460D02*
X95003620Y-83944460D01*
X107497880Y-99478680D02*
X108709460Y-99478680D01*
X108709460Y-99478680D02*
X108767880Y-99420260D01*
X105829340Y-99539360D02*
X107437200Y-99539360D01*
X107437200Y-99539360D02*
X107497880Y-99478680D01*
X111484999Y-98608476D02*
X111484999Y-98722999D01*
D25*
X111484999Y-98722999D02*
X115004999Y-98715001D01*
D30*
X108390140Y-86603000D02*
X109156500Y-87369360D01*
X109283500Y-97155000D02*
X109283500Y-87496360D01*
D24*
X109283500Y-87496360D02*
X109156500Y-87369360D01*
D30*
X110736976Y-98608476D02*
X109283500Y-97155000D01*
D24*
X111484999Y-98608476D02*
X110736976Y-98608476D01*
X118872000Y-98171000D02*
X116791000Y-98171000D01*
X116791000Y-98171000D02*
X116715000Y-98095000D01*
D30*
X107800140Y-86603000D02*
X108390140Y-86603000D01*
D25*
X115004999Y-98715001D02*
X115625000Y-98095000D01*
D26*
X115625000Y-98095000D02*
X116715000Y-98095000D01*
D24*
X116715000Y-98095000D02*
X117805000Y-98095000D01*
D30*
X106239920Y-85518220D02*
X106560620Y-85838920D01*
X106560620Y-85838920D02*
X106560620Y-86590300D01*
X105742500Y-85518220D02*
X106239920Y-85518220D01*
X105742500Y-85518220D02*
X105742500Y-84789220D01*
D24*
X105742500Y-84789220D02*
X105559000Y-84605720D01*
X106560620Y-86590300D02*
X106919600Y-86590300D01*
D27*
X107800140Y-86603000D02*
X106573320Y-86603000D01*
D24*
X106573320Y-86603000D02*
X106560620Y-86590300D01*
D27*
X101533960Y-88249760D02*
X101533960Y-88533960D01*
X101533960Y-88533960D02*
X102560000Y-89560000D01*
X102560000Y-89560000D02*
X102560000Y-90500000D01*
D24*
X101533960Y-88263960D02*
X101533960Y-88249760D01*
X101533960Y-88473960D02*
X101533960Y-88249760D01*
X108965744Y-98488244D02*
X108648500Y-98171000D01*
D30*
X108648500Y-98171000D02*
X108648500Y-97283689D01*
D24*
X108993129Y-98488244D02*
X108965744Y-98488244D01*
X111484999Y-100154990D02*
X110659875Y-100154990D01*
X110659875Y-100154990D02*
X108993129Y-98488244D01*
D30*
X108648500Y-97283689D02*
X108648500Y-93494860D01*
X108648500Y-93494860D02*
X108267500Y-93113860D01*
D27*
X107612180Y-92458540D02*
X108267500Y-93113860D01*
D25*
X116597500Y-100012500D02*
X111627489Y-100012500D01*
X116715000Y-99895000D02*
X116597500Y-100012500D01*
X111627489Y-100012500D02*
X111484999Y-100154990D01*
D24*
X111484999Y-100154990D02*
X111484999Y-100007001D01*
D25*
X116715000Y-99365000D02*
X116715000Y-99895000D01*
D24*
X116715000Y-99365000D02*
X118605500Y-99365000D01*
X118605500Y-99365000D02*
X118681500Y-99441000D01*
D27*
X96325140Y-85836340D02*
X96640520Y-86151720D01*
D24*
X100669575Y-87385375D02*
X100845620Y-87561420D01*
D27*
X100845620Y-87561420D02*
X101533960Y-88249760D01*
X96640520Y-86151720D02*
X99435920Y-86151720D01*
X99435920Y-86151720D02*
X100845620Y-87561420D01*
X101533960Y-88249760D02*
X101533960Y-88259458D01*
X95735140Y-85836340D02*
X96325140Y-85836340D01*
D24*
X117805000Y-99365000D02*
X116715000Y-99365000D01*
D27*
X94475300Y-85900260D02*
X95671220Y-85900260D01*
D24*
X95671220Y-85900260D02*
X95735140Y-85836340D01*
X93677500Y-84768060D02*
X93677500Y-85102460D01*
X93677500Y-85102460D02*
X94475300Y-85900260D01*
X93494000Y-83855560D02*
X93677500Y-84039060D01*
X93677500Y-84039060D02*
X93677500Y-84768060D01*
X110910000Y-115660000D02*
X110910000Y-115487164D01*
X110910000Y-115487164D02*
X113335414Y-113061750D01*
D30*
X109330000Y-117240000D02*
X110910000Y-115660000D01*
X107780000Y-117240000D02*
X109330000Y-117240000D01*
X107400000Y-117240000D02*
X107780000Y-117240000D01*
X106572459Y-117242181D02*
X107397819Y-117242181D01*
X107397819Y-117242181D02*
X107400000Y-117240000D01*
D24*
X94086036Y-118403674D02*
X94086036Y-117072246D01*
X94086036Y-117072246D02*
X94254782Y-116903500D01*
D30*
X113335414Y-111700000D02*
X113335414Y-113061750D01*
D24*
X111188500Y-109432704D02*
X111188500Y-109553086D01*
D30*
X111188500Y-109553086D02*
X113335414Y-111700000D01*
X105836720Y-117977920D02*
X102743000Y-117977920D01*
X102743000Y-117977920D02*
X102425500Y-118295420D01*
D24*
X100959185Y-118745000D02*
X100393500Y-118745000D01*
D30*
X106572459Y-117242181D02*
X105836720Y-117977920D01*
X101408765Y-118295420D02*
X100959185Y-118745000D01*
X102425500Y-118295420D02*
X101408765Y-118295420D01*
D24*
X94254782Y-118321282D02*
X94168428Y-118321282D01*
X94168428Y-118321282D02*
X94086036Y-118403674D01*
X95816420Y-115601806D02*
X95250735Y-115601806D01*
X94855947Y-116302335D02*
X94254782Y-116903500D01*
X95250735Y-115601806D02*
X94855947Y-115996594D01*
X94855947Y-115996594D02*
X94855947Y-116302335D01*
D30*
X111188500Y-109432704D02*
X111188500Y-108013500D01*
X110621282Y-107446282D02*
X110621282Y-102398975D01*
X111188500Y-108013500D02*
X110621282Y-107446282D01*
D24*
X118808500Y-100647500D02*
X116727500Y-100647500D01*
X116727500Y-100647500D02*
X116715000Y-100635000D01*
X116715000Y-100635000D02*
X118455000Y-100635000D01*
X97518678Y-116667808D02*
X96452676Y-115601806D01*
X96452676Y-115601806D02*
X95816420Y-115601806D01*
X97335178Y-115755308D02*
X97335178Y-116484308D01*
X97335178Y-116484308D02*
X97518678Y-116667808D01*
X96529518Y-114681308D02*
X95294658Y-114681308D01*
X95294658Y-114681308D02*
X95272218Y-114658868D01*
X97335178Y-115755308D02*
X97335178Y-115486968D01*
X97335178Y-115486968D02*
X96529518Y-114681308D01*
D30*
X112378564Y-115008564D02*
X116271040Y-111116088D01*
D24*
X116271040Y-110553500D02*
X116271040Y-110172500D01*
X116271040Y-111116088D02*
X116271040Y-110553500D01*
X119385080Y-101899720D02*
X119385080Y-103314500D01*
X119385080Y-103314500D02*
X119385080Y-103499920D01*
X118515001Y-105346500D02*
X118913501Y-104948000D01*
X118913501Y-104948000D02*
X118913501Y-103923701D01*
X118913501Y-103923701D02*
X119385080Y-103452122D01*
X119385080Y-103452122D02*
X119385080Y-103314500D01*
X118515001Y-106357001D02*
X118515001Y-105346500D01*
X118173500Y-106527600D02*
X118344402Y-106527600D01*
X118344402Y-106527600D02*
X118515001Y-106357001D01*
D30*
X116271040Y-111039296D02*
X116271040Y-110172500D01*
D24*
X116271040Y-110349670D02*
X116271040Y-110172500D01*
D30*
X116271040Y-110172500D02*
X116271040Y-109405420D01*
X116271040Y-108430060D02*
X116271040Y-109405420D01*
X118173500Y-106527600D02*
X116271040Y-108430060D01*
X116271040Y-109636023D02*
X116271040Y-109405420D01*
D24*
X107095605Y-115418555D02*
X107154316Y-115418555D01*
X107154316Y-115418555D02*
X107170220Y-115434459D01*
X117805000Y-101905000D02*
X116715000Y-101905000D01*
X116715000Y-101905000D02*
X118623080Y-101905000D01*
X118623080Y-101905000D02*
X119379800Y-101905000D01*
X119379800Y-101905000D02*
X119385080Y-101899720D01*
X107095605Y-114783057D02*
X107095605Y-115418555D01*
X107095605Y-113558777D02*
X107095605Y-114783057D01*
X108268885Y-112669537D02*
X107984845Y-112669537D01*
X107984845Y-112669537D02*
X107095605Y-113558777D01*
X109181385Y-112486037D02*
X108997885Y-112669537D01*
X108997885Y-112669537D02*
X108268885Y-112669537D01*
X105298660Y-86583520D02*
X105298660Y-87835740D01*
X105298660Y-87835740D02*
X105311360Y-87848440D01*
X105092500Y-85518220D02*
X105092500Y-86377360D01*
X105092500Y-86377360D02*
X105298660Y-86583520D01*
X105320499Y-83190719D02*
X106937899Y-83190719D01*
X106937899Y-83190719D02*
X107007660Y-83260480D01*
X107007660Y-83260480D02*
X107007660Y-83850480D01*
X105092500Y-83693220D02*
X105092500Y-83418718D01*
X105092500Y-83418718D02*
X105320499Y-83190719D01*
X104626000Y-84605720D02*
X104626000Y-83876720D01*
X104626000Y-83876720D02*
X104442500Y-83693220D01*
X104442500Y-83693220D02*
X105092500Y-83693220D01*
X93226040Y-85887560D02*
X93027500Y-85689020D01*
X93027500Y-85689020D02*
X93027500Y-84768060D01*
X93193020Y-87142320D02*
X93193020Y-85920580D01*
X93193020Y-85920580D02*
X93226040Y-85887560D01*
X93027500Y-82943060D02*
X93027500Y-82500560D01*
X93027500Y-82500560D02*
X93087501Y-82440559D01*
X93087501Y-82440559D02*
X94989719Y-82440559D01*
X94989719Y-82440559D02*
X95003620Y-82454460D01*
X95003620Y-82454460D02*
X95003620Y-83044460D01*
X92377500Y-82943060D02*
X93027500Y-82943060D01*
X92377500Y-82943060D02*
X92377500Y-83672060D01*
X92377500Y-83672060D02*
X92561000Y-83855560D01*
X97985178Y-115755308D02*
X97985178Y-114854268D01*
X97985178Y-114854268D02*
X97794018Y-114663108D01*
X97794018Y-113421048D02*
X97794018Y-114663108D01*
X97985178Y-117580308D02*
X98635178Y-117580308D01*
X97985178Y-117580308D02*
X97985178Y-117854810D01*
X97985178Y-117854810D02*
X97757179Y-118082809D01*
X95985958Y-118001808D02*
X95985958Y-117411808D01*
X97757179Y-118082809D02*
X96066959Y-118082809D01*
X96066959Y-118082809D02*
X95985958Y-118001808D01*
X98451678Y-116667808D02*
X98451678Y-117396808D01*
X98451678Y-117396808D02*
X98635178Y-117580308D01*
X105863285Y-112233317D02*
X107143445Y-112233317D01*
X107143445Y-112233317D02*
X107357225Y-112019537D01*
X107357225Y-112019537D02*
X108268885Y-112019537D01*
X110093885Y-112019537D02*
X110536385Y-112019537D01*
X110536385Y-112019537D02*
X110596386Y-112079538D01*
X110596386Y-112079538D02*
X110596386Y-113952536D01*
X110596386Y-113952536D02*
X110492305Y-114056617D01*
X110492305Y-114056617D02*
X109902305Y-114056617D01*
X110093885Y-111369537D02*
X110093885Y-112019537D01*
X109181385Y-111553037D02*
X109910385Y-111553037D01*
X109910385Y-111553037D02*
X110093885Y-111369537D01*
M02*
