  0
SECTION
  2
HEADER
  9
$ANGBASE
  50
0.0
  9
$ANGDIR
  70
  1
  9
$MEASUREMENT
  70
0
  0
ENDSEC
  0
SECTION
  2
TABLES
  0
TABLE
  2
LTYPE
  70
1
  0
LTYPE
  2
CONTINUOUS
  70
0
  3
Solid line
  72
65
  73
0
  40
0.0
  0
ENDTAB
  0
TABLE
  2
STYLE
  70
4
  0
STYLE
  2
KICAD
  70
0
  40
0
  41
1
  42
1
  50
0
  71
0
  3
isocp.shx
  0
STYLE
  2
KICADB
  70
0
  40
0
  41
1
  42
1
  50
0
  71
0
  3
isocp.shx
  0
STYLE
  2
KICADI
  70
0
  40
0
  41
1
  42
1
  50
15
  71
0
  3
isocp.shx
  0
STYLE
  2
KICADBI
  70
0
  40
0
  41
1
  42
1
  50
15
  71
0
  3
isocp.shx
  0
ENDTAB
  0
TABLE
  2
LAYER
  70
30
  0
LAYER
  2
BLACK
  70
0
  62
7
  6
CONTINUOUS
  0
LAYER
  2
GRAY1
  70
0
  62
251
  6
CONTINUOUS
  0
LAYER
  2
GRAY2
  70
0
  62
8
  6
CONTINUOUS
  0
LAYER
  2
GRAY3
  70
0
  62
9
  6
CONTINUOUS
  0
LAYER
  2
WHITE
  70
0
  62
7
  6
CONTINUOUS
  0
LAYER
  2
LYELLOW
  70
0
  62
51
  6
CONTINUOUS
  0
LAYER
  2
BLUE1
  70
0
  62
178
  6
CONTINUOUS
  0
LAYER
  2
GREEN1
  70
0
  62
98
  6
CONTINUOUS
  0
LAYER
  2
CYAN1
  70
0
  62
138
  6
CONTINUOUS
  0
LAYER
  2
RED1
  70
0
  62
18
  6
CONTINUOUS
  0
LAYER
  2
MAGENTA1
  70
0
  62
228
  6
CONTINUOUS
  0
LAYER
  2
BROWN1
  70
0
  62
58
  6
CONTINUOUS
  0
LAYER
  2
BLUE2
  70
0
  62
5
  6
CONTINUOUS
  0
LAYER
  2
GREEN2
  70
0
  62
3
  6
CONTINUOUS
  0
LAYER
  2
CYAN2
  70
0
  62
4
  6
CONTINUOUS
  0
LAYER
  2
RED2
  70
0
  62
1
  6
CONTINUOUS
  0
LAYER
  2
MAGENTA2
  70
0
  62
6
  6
CONTINUOUS
  0
LAYER
  2
BROWN2
  70
0
  62
54
  6
CONTINUOUS
  0
LAYER
  2
BLUE3
  70
0
  62
171
  6
CONTINUOUS
  0
LAYER
  2
GREEN3
  70
0
  62
91
  6
CONTINUOUS
  0
LAYER
  2
CYAN3
  70
0
  62
131
  6
CONTINUOUS
  0
LAYER
  2
RED3
  70
0
  62
11
  6
CONTINUOUS
  0
LAYER
  2
MAGENTA3
  70
0
  62
221
  6
CONTINUOUS
  0
LAYER
  2
YELLOW3
  70
0
  62
2
  6
CONTINUOUS
  0
LAYER
  2
BLUE4
  70
0
  62
5
  6
CONTINUOUS
  0
LAYER
  2
GREEN4
  70
0
  62
3
  6
CONTINUOUS
  0
LAYER
  2
CYAN4
  70
0
  62
4
  6
CONTINUOUS
  0
LAYER
  2
RED4
  70
0
  62
1
  6
CONTINUOUS
  0
LAYER
  2
MAGENTA4
  70
0
  62
6
  6
CONTINUOUS
  0
LAYER
  2
YELLOW4
  70
0
  62
2
  6
CONTINUOUS
  0
ENDTAB
  0
ENDSEC
  0
SECTION
  2
ENTITIES
0
LINE
8
Black
10
115.212
20
-86.9272
11
115.225
21
-86.9293
0
LINE
8
Black
10
115.225
20
-86.9293
11
115.225
21
-86.9295
0
LINE
8
Black
10
115.225
20
-86.9295
11
115.226
21
-86.9295
0
LINE
8
Black
10
115.226
20
-86.9295
11
115.237
21
-86.9359
0
LINE
8
Black
10
115.237
20
-86.9359
11
115.248
21
-86.9421
0
LINE
8
Black
10
115.248
20
-86.9421
11
115.248
21
-86.9424
0
LINE
8
Black
10
115.248
20
-86.9424
11
115.248
21
-86.9425
0
LINE
8
Black
10
115.248
20
-86.9425
11
115.256
21
-86.9522
0
LINE
8
Black
10
115.256
20
-86.9522
11
115.265
21
-86.9619
0
LINE
8
Black
10
115.265
20
-86.9619
11
118.794
21
-92.9446
0
LINE
8
Black
10
118.794
20
-92.9446
11
118.803
21
-92.969
0
LINE
8
Black
10
118.803
20
-92.969
11
120.074
21
-99.7981
0
LINE
8
Black
10
120.074
20
-99.7981
11
120.074
21
-99.8241
0
LINE
8
Black
10
120.074
20
-99.8241
11
118.932
21
-106.676
0
LINE
8
Black
10
118.932
20
-106.676
11
118.924
21
-106.7
0
LINE
8
Black
10
118.924
20
-106.7
11
118.924
21
-106.7
0
LINE
8
Black
10
118.924
20
-106.7
11
115.507
21
-112.749
0
LINE
8
Black
10
115.507
20
-112.749
11
115.491
21
-112.769
0
LINE
8
Black
10
115.491
20
-112.769
11
115.491
21
-112.769
0
LINE
8
Black
10
115.491
20
-112.769
11
110.212
21
-117.284
0
LINE
8
Black
10
110.212
20
-117.284
11
110.189
21
-117.297
0
LINE
8
Black
10
110.189
20
-117.297
11
103.685
21
-119.734
0
LINE
8
Black
10
103.685
20
-119.734
11
103.685
21
-119.734
0
LINE
8
Black
10
103.685
20
-119.734
11
103.659
21
-119.739
0
LINE
8
Black
10
103.659
20
-119.739
11
96.7131
21
-119.804
0
LINE
8
Black
10
96.7131
20
-119.804
11
96.6874
21
-119.8
0
LINE
8
Black
10
96.6874
20
-119.8
11
96.6874
21
-119.8
0
LINE
8
Black
10
96.6874
20
-119.8
11
90.1379
21
-117.485
0
LINE
8
Black
10
90.1379
20
-117.485
11
90.1153
21
-117.473
0
LINE
8
Black
10
90.1153
20
-117.473
11
90.1153
21
-117.473
0
LINE
8
Black
10
90.1153
20
-117.473
11
84.7523
21
-113.058
0
LINE
8
Black
10
84.7523
20
-113.058
11
84.7354
21
-113.038
0
LINE
8
Black
10
84.7354
20
-113.038
11
84.7354
21
-113.038
0
LINE
8
Black
10
84.7354
20
-113.038
11
81.2058
21
-107.055
0
LINE
8
Black
10
81.2058
20
-107.055
11
81.1967
21
-107.031
0
LINE
8
Black
10
81.1967
20
-107.031
11
79.9262
21
-100.202
0
LINE
8
Black
10
79.9262
20
-100.202
11
79.9259
21
-100.176
0
LINE
8
Black
10
79.9259
20
-100.176
11
79.9259
21
-100.176
0
LINE
8
Black
10
79.9259
20
-100.176
11
81.0677
21
-93.3241
0
LINE
8
Black
10
81.0677
20
-93.3241
11
81.0764
21
-93.2995
0
LINE
8
Black
10
81.0764
20
-93.2995
11
81.0764
21
-93.2995
0
LINE
8
Black
10
81.0764
20
-93.2995
11
84.4927
21
-87.2515
0
LINE
8
Black
10
84.4927
20
-87.2515
11
84.4971
21
-87.2461
0
LINE
8
Black
10
84.4971
20
-87.2461
11
84.5006
21
-87.2401
0
LINE
8
Black
10
84.5006
20
-87.2401
11
84.7425
21
-86.9518
0
LINE
8
Black
10
84.7425
20
-86.9518
11
84.7476
21
-86.9476
0
LINE
8
Black
10
84.7476
20
-86.9476
11
84.7518
21
-86.9425
0
LINE
8
Black
10
84.7518
20
-86.9425
11
84.7575
21
-86.9393
0
LINE
8
Black
10
84.7575
20
-86.9393
11
84.7625
21
-86.935
0
LINE
8
Black
10
84.7625
20
-86.935
11
84.7687
21
-86.9328
0
LINE
8
Black
10
84.7687
20
-86.9328
11
84.7743
21
-86.9295
0
LINE
8
Black
10
84.7743
20
-86.9295
11
84.7808
21
-86.9284
0
LINE
8
Black
10
84.7808
20
-86.9284
11
84.787
21
-86.9261
0
LINE
8
Black
10
84.787
20
-86.9261
11
84.7935
21
-86.9261
0
LINE
8
Black
10
84.7935
20
-86.9261
11
84.8
21
-86.925
0
LINE
8
Black
10
84.8
20
-86.925
11
115.2
21
-86.925
0
LINE
8
Black
10
115.2
20
-86.925
11
115.212
21
-86.9272
0
LINE
8
Black
10
84.835
20
-87.075
11
84.6199
21
-87.3313
0
LINE
8
Black
10
84.6199
20
-87.3313
11
81.2135
21
-93.3618
0
LINE
8
Black
10
81.2135
20
-93.3618
11
80.076
21
-100.187
0
LINE
8
Black
10
80.076
20
-100.187
11
81.3417
21
-106.991
0
LINE
8
Black
10
81.3417
20
-106.991
11
84.8579
21
-112.951
0
LINE
8
Black
10
84.8579
20
-112.951
11
90.2004
21
-117.348
0
LINE
8
Black
10
90.2004
20
-117.348
11
96.7249
21
-119.654
0
LINE
8
Black
10
96.7249
20
-119.654
11
103.644
21
-119.589
0
LINE
8
Black
10
103.644
20
-119.589
11
110.124
21
-117.161
0
LINE
8
Black
10
110.124
20
-117.161
11
115.383
21
-112.663
0
LINE
8
Black
10
115.383
20
-112.663
11
118.787
21
-106.638
0
LINE
8
Black
10
118.787
20
-106.638
11
119.924
21
-99.8125
0
LINE
8
Black
10
119.924
20
-99.8125
11
118.658
21
-93.0094
0
LINE
8
Black
10
118.658
20
-93.0094
11
115.157
21
-87.075
0
LINE
8
Black
10
115.157
20
-87.075
11
84.835
21
-87.075
0
LINE
8
Black
10
99.6504
20
-112.695
11
99.6509
21
-112.695
0
LINE
8
Black
10
99.6509
20
-112.695
11
99.6513
21
-112.695
0
LINE
8
Black
10
99.6513
20
-112.695
11
99.6517
21
-112.695
0
LINE
8
Black
10
99.6517
20
-112.695
11
99.6521
21
-112.696
0
LINE
8
Black
10
99.6521
20
-112.696
11
99.6525
21
-112.696
0
LINE
8
Black
10
99.6525
20
-112.696
11
99.6528
21
-112.696
0
LINE
8
Black
10
99.6528
20
-112.696
11
99.6532
21
-112.696
0
LINE
8
Black
10
99.6532
20
-112.696
11
99.6535
21
-112.697
0
LINE
8
Black
10
99.6535
20
-112.697
11
99.6538
21
-112.697
0
LINE
8
Black
10
99.6538
20
-112.697
11
99.654
21
-112.697
0
LINE
8
Black
10
99.654
20
-112.697
11
99.6543
21
-112.697
0
LINE
8
Black
10
99.6543
20
-112.697
11
99.6545
21
-112.698
0
LINE
8
Black
10
99.6545
20
-112.698
11
99.6547
21
-112.698
0
LINE
8
Black
10
99.6547
20
-112.698
11
99.6548
21
-112.699
0
LINE
8
Black
10
99.6548
20
-112.699
11
99.6549
21
-112.699
0
LINE
8
Black
10
99.6549
20
-112.699
11
99.6549
21
-112.7
0
LINE
8
Black
10
99.6549
20
-112.7
11
99.655
21
-112.7
0
LINE
8
Black
10
99.655
20
-112.7
11
99.655
21
-118.5
0
LINE
8
Black
10
99.655
20
-118.5
11
99.6549
21
-118.5
0
LINE
8
Black
10
99.6549
20
-118.5
11
99.6549
21
-118.501
0
LINE
8
Black
10
99.6549
20
-118.501
11
99.6548
21
-118.501
0
LINE
8
Black
10
99.6548
20
-118.501
11
99.6547
21
-118.502
0
LINE
8
Black
10
99.6547
20
-118.502
11
99.6545
21
-118.502
0
LINE
8
Black
10
99.6545
20
-118.502
11
99.6543
21
-118.502
0
LINE
8
Black
10
99.6543
20
-118.502
11
99.654
21
-118.503
0
LINE
8
Black
10
99.654
20
-118.503
11
99.6538
21
-118.503
0
LINE
8
Black
10
99.6538
20
-118.503
11
99.6535
21
-118.503
0
LINE
8
Black
10
99.6535
20
-118.503
11
99.6532
21
-118.504
0
LINE
8
Black
10
99.6532
20
-118.504
11
99.6528
21
-118.504
0
LINE
8
Black
10
99.6528
20
-118.504
11
99.6525
21
-118.504
0
LINE
8
Black
10
99.6525
20
-118.504
11
99.6521
21
-118.504
0
LINE
8
Black
10
99.6521
20
-118.504
11
99.6517
21
-118.505
0
LINE
8
Black
10
99.6517
20
-118.505
11
99.6513
21
-118.505
0
LINE
8
Black
10
99.6513
20
-118.505
11
99.6509
21
-118.505
0
LINE
8
Black
10
99.6509
20
-118.505
11
99.6504
21
-118.505
0
LINE
8
Black
10
99.6504
20
-118.505
11
99.65
21
-118.505
0
LINE
8
Black
10
99.65
20
-118.505
11
93.15
21
-118.505
0
LINE
8
Black
10
93.15
20
-118.505
11
93.1496
21
-118.505
0
LINE
8
Black
10
93.1496
20
-118.505
11
93.1491
21
-118.505
0
LINE
8
Black
10
93.1491
20
-118.505
11
93.1487
21
-118.505
0
LINE
8
Black
10
93.1487
20
-118.505
11
93.1483
21
-118.505
0
LINE
8
Black
10
93.1483
20
-118.505
11
93.1479
21
-118.504
0
LINE
8
Black
10
93.1479
20
-118.504
11
93.1475
21
-118.504
0
LINE
8
Black
10
93.1475
20
-118.504
11
93.1472
21
-118.504
0
LINE
8
Black
10
93.1472
20
-118.504
11
93.1468
21
-118.504
0
LINE
8
Black
10
93.1468
20
-118.504
11
93.1465
21
-118.503
0
LINE
8
Black
10
93.1465
20
-118.503
11
93.1462
21
-118.503
0
LINE
8
Black
10
93.1462
20
-118.503
11
93.146
21
-118.503
0
LINE
8
Black
10
93.146
20
-118.503
11
93.1457
21
-118.502
0
LINE
8
Black
10
93.1457
20
-118.502
11
93.1455
21
-118.502
0
LINE
8
Black
10
93.1455
20
-118.502
11
93.1453
21
-118.502
0
LINE
8
Black
10
93.1453
20
-118.502
11
93.1452
21
-118.501
0
LINE
8
Black
10
93.1452
20
-118.501
11
93.1451
21
-118.501
0
LINE
8
Black
10
93.1451
20
-118.501
11
93.1451
21
-118.5
0
LINE
8
Black
10
93.1451
20
-118.5
11
93.145
21
-118.5
0
LINE
8
Black
10
93.145
20
-118.5
11
93.145
21
-112.7
0
LINE
8
Black
10
93.145
20
-112.7
11
93.1451
21
-112.7
0
LINE
8
Black
10
93.1451
20
-112.7
11
93.1451
21
-112.699
0
LINE
8
Black
10
93.1451
20
-112.699
11
93.1452
21
-112.699
0
LINE
8
Black
10
93.1452
20
-112.699
11
93.1453
21
-112.698
0
LINE
8
Black
10
93.1453
20
-112.698
11
93.1455
21
-112.698
0
LINE
8
Black
10
93.1455
20
-112.698
11
93.1457
21
-112.697
0
LINE
8
Black
10
93.1457
20
-112.697
11
93.146
21
-112.697
0
LINE
8
Black
10
93.146
20
-112.697
11
93.1462
21
-112.697
0
LINE
8
Black
10
93.1462
20
-112.697
11
93.1465
21
-112.697
0
LINE
8
Black
10
93.1465
20
-112.697
11
93.1468
21
-112.696
0
LINE
8
Black
10
93.1468
20
-112.696
11
93.1472
21
-112.696
0
LINE
8
Black
10
93.1472
20
-112.696
11
93.1475
21
-112.696
0
LINE
8
Black
10
93.1475
20
-112.696
11
93.1479
21
-112.696
0
LINE
8
Black
10
93.1479
20
-112.696
11
93.1483
21
-112.695
0
LINE
8
Black
10
93.1483
20
-112.695
11
93.1487
21
-112.695
0
LINE
8
Black
10
93.1487
20
-112.695
11
93.1491
21
-112.695
0
LINE
8
Black
10
93.1491
20
-112.695
11
93.1496
21
-112.695
0
LINE
8
Black
10
93.1496
20
-112.695
11
93.15
21
-112.695
0
LINE
8
Black
10
93.15
20
-112.695
11
99.65
21
-112.695
0
LINE
8
Black
10
99.65
20
-112.695
11
99.6504
21
-112.695
0
LINE
8
Black
10
93.155
20
-112.705
11
93.155
21
-118.495
0
LINE
8
Black
10
93.155
20
-118.495
11
99.645
21
-118.495
0
LINE
8
Black
10
99.645
20
-118.495
11
99.645
21
-112.705
0
LINE
8
Black
10
99.645
20
-112.705
11
93.155
21
-112.705
0
LINE
8
Black
10
106.85
20
-112.695
11
106.851
21
-112.695
0
LINE
8
Black
10
106.851
20
-112.695
11
106.851
21
-112.695
0
LINE
8
Black
10
106.851
20
-112.695
11
106.852
21
-112.695
0
LINE
8
Black
10
106.852
20
-112.695
11
106.852
21
-112.696
0
LINE
8
Black
10
106.852
20
-112.696
11
106.852
21
-112.696
0
LINE
8
Black
10
106.852
20
-112.696
11
106.853
21
-112.696
0
LINE
8
Black
10
106.853
20
-112.696
11
106.853
21
-112.696
0
LINE
8
Black
10
106.853
20
-112.696
11
106.853
21
-112.697
0
LINE
8
Black
10
106.853
20
-112.697
11
106.854
21
-112.697
0
LINE
8
Black
10
106.854
20
-112.697
11
106.854
21
-112.697
0
LINE
8
Black
10
106.854
20
-112.697
11
106.854
21
-112.697
0
LINE
8
Black
10
106.854
20
-112.697
11
106.854
21
-112.698
0
LINE
8
Black
10
106.854
20
-112.698
11
106.855
21
-112.698
0
LINE
8
Black
10
106.855
20
-112.698
11
106.855
21
-112.699
0
LINE
8
Black
10
106.855
20
-112.699
11
106.855
21
-112.699
0
LINE
8
Black
10
106.855
20
-112.699
11
106.855
21
-112.7
0
LINE
8
Black
10
106.855
20
-112.7
11
106.855
21
-112.7
0
LINE
8
Black
10
106.855
20
-112.7
11
106.855
21
-118.5
0
LINE
8
Black
10
106.855
20
-118.5
11
106.855
21
-118.5
0
LINE
8
Black
10
106.855
20
-118.5
11
106.855
21
-118.501
0
LINE
8
Black
10
106.855
20
-118.501
11
106.855
21
-118.501
0
LINE
8
Black
10
106.855
20
-118.501
11
106.855
21
-118.502
0
LINE
8
Black
10
106.855
20
-118.502
11
106.854
21
-118.502
0
LINE
8
Black
10
106.854
20
-118.502
11
106.854
21
-118.502
0
LINE
8
Black
10
106.854
20
-118.502
11
106.854
21
-118.503
0
LINE
8
Black
10
106.854
20
-118.503
11
106.854
21
-118.503
0
LINE
8
Black
10
106.854
20
-118.503
11
106.853
21
-118.503
0
LINE
8
Black
10
106.853
20
-118.503
11
106.853
21
-118.504
0
LINE
8
Black
10
106.853
20
-118.504
11
106.853
21
-118.504
0
LINE
8
Black
10
106.853
20
-118.504
11
106.852
21
-118.504
0
LINE
8
Black
10
106.852
20
-118.504
11
106.852
21
-118.504
0
LINE
8
Black
10
106.852
20
-118.504
11
106.852
21
-118.505
0
LINE
8
Black
10
106.852
20
-118.505
11
106.851
21
-118.505
0
LINE
8
Black
10
106.851
20
-118.505
11
106.851
21
-118.505
0
LINE
8
Black
10
106.851
20
-118.505
11
106.85
21
-118.505
0
LINE
8
Black
10
106.85
20
-118.505
11
106.85
21
-118.505
0
LINE
8
Black
10
106.85
20
-118.505
11
100.35
21
-118.505
0
LINE
8
Black
10
100.35
20
-118.505
11
100.35
21
-118.505
0
LINE
8
Black
10
100.35
20
-118.505
11
100.349
21
-118.505
0
LINE
8
Black
10
100.349
20
-118.505
11
100.349
21
-118.505
0
LINE
8
Black
10
100.349
20
-118.505
11
100.348
21
-118.505
0
LINE
8
Black
10
100.348
20
-118.505
11
100.348
21
-118.504
0
LINE
8
Black
10
100.348
20
-118.504
11
100.347
21
-118.504
0
LINE
8
Black
10
100.347
20
-118.504
11
100.347
21
-118.504
0
LINE
8
Black
10
100.347
20
-118.504
11
100.347
21
-118.504
0
LINE
8
Black
10
100.347
20
-118.504
11
100.347
21
-118.503
0
LINE
8
Black
10
100.347
20
-118.503
11
100.346
21
-118.503
0
LINE
8
Black
10
100.346
20
-118.503
11
100.346
21
-118.503
0
LINE
8
Black
10
100.346
20
-118.503
11
100.346
21
-118.502
0
LINE
8
Black
10
100.346
20
-118.502
11
100.346
21
-118.502
0
LINE
8
Black
10
100.346
20
-118.502
11
100.345
21
-118.502
0
LINE
8
Black
10
100.345
20
-118.502
11
100.345
21
-118.501
0
LINE
8
Black
10
100.345
20
-118.501
11
100.345
21
-118.501
0
LINE
8
Black
10
100.345
20
-118.501
11
100.345
21
-118.5
0
LINE
8
Black
10
100.345
20
-118.5
11
100.345
21
-118.5
0
LINE
8
Black
10
100.345
20
-118.5
11
100.345
21
-112.7
0
LINE
8
Black
10
100.345
20
-112.7
11
100.345
21
-112.7
0
LINE
8
Black
10
100.345
20
-112.7
11
100.345
21
-112.699
0
LINE
8
Black
10
100.345
20
-112.699
11
100.345
21
-112.699
0
LINE
8
Black
10
100.345
20
-112.699
11
100.345
21
-112.698
0
LINE
8
Black
10
100.345
20
-112.698
11
100.346
21
-112.698
0
LINE
8
Black
10
100.346
20
-112.698
11
100.346
21
-112.697
0
LINE
8
Black
10
100.346
20
-112.697
11
100.346
21
-112.697
0
LINE
8
Black
10
100.346
20
-112.697
11
100.346
21
-112.697
0
LINE
8
Black
10
100.346
20
-112.697
11
100.347
21
-112.697
0
LINE
8
Black
10
100.347
20
-112.697
11
100.347
21
-112.696
0
LINE
8
Black
10
100.347
20
-112.696
11
100.347
21
-112.696
0
LINE
8
Black
10
100.347
20
-112.696
11
100.347
21
-112.696
0
LINE
8
Black
10
100.347
20
-112.696
11
100.348
21
-112.696
0
LINE
8
Black
10
100.348
20
-112.696
11
100.348
21
-112.695
0
LINE
8
Black
10
100.348
20
-112.695
11
100.349
21
-112.695
0
LINE
8
Black
10
100.349
20
-112.695
11
100.349
21
-112.695
0
LINE
8
Black
10
100.349
20
-112.695
11
100.35
21
-112.695
0
LINE
8
Black
10
100.35
20
-112.695
11
100.35
21
-112.695
0
LINE
8
Black
10
100.35
20
-112.695
11
106.85
21
-112.695
0
LINE
8
Black
10
106.85
20
-112.695
11
106.85
21
-112.695
0
LINE
8
Black
10
100.355
20
-112.705
11
100.355
21
-118.495
0
LINE
8
Black
10
100.355
20
-118.495
11
106.845
21
-118.495
0
LINE
8
Black
10
106.845
20
-118.495
11
106.845
21
-112.705
0
LINE
8
Black
10
106.845
20
-112.705
11
100.355
21
-112.705
0
LINE
8
Black
10
92.6504
20
-108.495
11
92.6509
21
-108.495
0
LINE
8
Black
10
92.6509
20
-108.495
11
92.6513
21
-108.495
0
LINE
8
Black
10
92.6513
20
-108.495
11
92.6517
21
-108.495
0
LINE
8
Black
10
92.6517
20
-108.495
11
92.6521
21
-108.496
0
LINE
8
Black
10
92.6521
20
-108.496
11
92.6525
21
-108.496
0
LINE
8
Black
10
92.6525
20
-108.496
11
92.6528
21
-108.496
0
LINE
8
Black
10
92.6528
20
-108.496
11
92.6532
21
-108.496
0
LINE
8
Black
10
92.6532
20
-108.496
11
92.6535
21
-108.497
0
LINE
8
Black
10
92.6535
20
-108.497
11
92.6538
21
-108.497
0
LINE
8
Black
10
92.6538
20
-108.497
11
92.654
21
-108.497
0
LINE
8
Black
10
92.654
20
-108.497
11
92.6543
21
-108.497
0
LINE
8
Black
10
92.6543
20
-108.497
11
92.6545
21
-108.498
0
LINE
8
Black
10
92.6545
20
-108.498
11
92.6547
21
-108.498
0
LINE
8
Black
10
92.6547
20
-108.498
11
92.6548
21
-108.499
0
LINE
8
Black
10
92.6548
20
-108.499
11
92.6549
21
-108.499
0
LINE
8
Black
10
92.6549
20
-108.499
11
92.6549
21
-108.5
0
LINE
8
Black
10
92.6549
20
-108.5
11
92.655
21
-108.5
0
LINE
8
Black
10
92.655
20
-108.5
11
92.655
21
-114.3
0
LINE
8
Black
10
92.655
20
-114.3
11
92.6549
21
-114.3
0
LINE
8
Black
10
92.6549
20
-114.3
11
92.6549
21
-114.301
0
LINE
8
Black
10
92.6549
20
-114.301
11
92.6548
21
-114.301
0
LINE
8
Black
10
92.6548
20
-114.301
11
92.6547
21
-114.302
0
LINE
8
Black
10
92.6547
20
-114.302
11
92.6545
21
-114.302
0
LINE
8
Black
10
92.6545
20
-114.302
11
92.6543
21
-114.302
0
LINE
8
Black
10
92.6543
20
-114.302
11
92.654
21
-114.303
0
LINE
8
Black
10
92.654
20
-114.303
11
92.6538
21
-114.303
0
LINE
8
Black
10
92.6538
20
-114.303
11
92.6535
21
-114.303
0
LINE
8
Black
10
92.6535
20
-114.303
11
92.6532
21
-114.304
0
LINE
8
Black
10
92.6532
20
-114.304
11
92.6528
21
-114.304
0
LINE
8
Black
10
92.6528
20
-114.304
11
92.6525
21
-114.304
0
LINE
8
Black
10
92.6525
20
-114.304
11
92.6521
21
-114.304
0
LINE
8
Black
10
92.6521
20
-114.304
11
92.6517
21
-114.305
0
LINE
8
Black
10
92.6517
20
-114.305
11
92.6513
21
-114.305
0
LINE
8
Black
10
92.6513
20
-114.305
11
92.6509
21
-114.305
0
LINE
8
Black
10
92.6509
20
-114.305
11
92.6504
21
-114.305
0
LINE
8
Black
10
92.6504
20
-114.305
11
92.65
21
-114.305
0
LINE
8
Black
10
92.65
20
-114.305
11
86.15
21
-114.305
0
LINE
8
Black
10
86.15
20
-114.305
11
86.1496
21
-114.305
0
LINE
8
Black
10
86.1496
20
-114.305
11
86.1491
21
-114.305
0
LINE
8
Black
10
86.1491
20
-114.305
11
86.1487
21
-114.305
0
LINE
8
Black
10
86.1487
20
-114.305
11
86.1483
21
-114.305
0
LINE
8
Black
10
86.1483
20
-114.305
11
86.1479
21
-114.304
0
LINE
8
Black
10
86.1479
20
-114.304
11
86.1475
21
-114.304
0
LINE
8
Black
10
86.1475
20
-114.304
11
86.1472
21
-114.304
0
LINE
8
Black
10
86.1472
20
-114.304
11
86.1468
21
-114.304
0
LINE
8
Black
10
86.1468
20
-114.304
11
86.1465
21
-114.303
0
LINE
8
Black
10
86.1465
20
-114.303
11
86.1462
21
-114.303
0
LINE
8
Black
10
86.1462
20
-114.303
11
86.146
21
-114.303
0
LINE
8
Black
10
86.146
20
-114.303
11
86.1457
21
-114.302
0
LINE
8
Black
10
86.1457
20
-114.302
11
86.1455
21
-114.302
0
LINE
8
Black
10
86.1455
20
-114.302
11
86.1453
21
-114.302
0
LINE
8
Black
10
86.1453
20
-114.302
11
86.1452
21
-114.301
0
LINE
8
Black
10
86.1452
20
-114.301
11
86.1451
21
-114.301
0
LINE
8
Black
10
86.1451
20
-114.301
11
86.1451
21
-114.3
0
LINE
8
Black
10
86.1451
20
-114.3
11
86.145
21
-114.3
0
LINE
8
Black
10
86.145
20
-114.3
11
86.145
21
-108.5
0
LINE
8
Black
10
86.145
20
-108.5
11
86.1451
21
-108.5
0
LINE
8
Black
10
86.1451
20
-108.5
11
86.1451
21
-108.499
0
LINE
8
Black
10
86.1451
20
-108.499
11
86.1452
21
-108.499
0
LINE
8
Black
10
86.1452
20
-108.499
11
86.1453
21
-108.498
0
LINE
8
Black
10
86.1453
20
-108.498
11
86.1455
21
-108.498
0
LINE
8
Black
10
86.1455
20
-108.498
11
86.1457
21
-108.497
0
LINE
8
Black
10
86.1457
20
-108.497
11
86.146
21
-108.497
0
LINE
8
Black
10
86.146
20
-108.497
11
86.1462
21
-108.497
0
LINE
8
Black
10
86.1462
20
-108.497
11
86.1465
21
-108.497
0
LINE
8
Black
10
86.1465
20
-108.497
11
86.1468
21
-108.496
0
LINE
8
Black
10
86.1468
20
-108.496
11
86.1472
21
-108.496
0
LINE
8
Black
10
86.1472
20
-108.496
11
86.1475
21
-108.496
0
LINE
8
Black
10
86.1475
20
-108.496
11
86.1479
21
-108.496
0
LINE
8
Black
10
86.1479
20
-108.496
11
86.1483
21
-108.495
0
LINE
8
Black
10
86.1483
20
-108.495
11
86.1487
21
-108.495
0
LINE
8
Black
10
86.1487
20
-108.495
11
86.1491
21
-108.495
0
LINE
8
Black
10
86.1491
20
-108.495
11
86.1496
21
-108.495
0
LINE
8
Black
10
86.1496
20
-108.495
11
86.15
21
-108.495
0
LINE
8
Black
10
86.15
20
-108.495
11
92.65
21
-108.495
0
LINE
8
Black
10
92.65
20
-108.495
11
92.6504
21
-108.495
0
LINE
8
Black
10
86.155
20
-108.505
11
86.155
21
-114.295
0
LINE
8
Black
10
86.155
20
-114.295
11
92.645
21
-114.295
0
LINE
8
Black
10
92.645
20
-114.295
11
92.645
21
-108.505
0
LINE
8
Black
10
92.645
20
-108.505
11
86.155
21
-108.505
0
LINE
8
Black
10
113.85
20
-108.495
11
113.851
21
-108.495
0
LINE
8
Black
10
113.851
20
-108.495
11
113.851
21
-108.495
0
LINE
8
Black
10
113.851
20
-108.495
11
113.852
21
-108.495
0
LINE
8
Black
10
113.852
20
-108.495
11
113.852
21
-108.496
0
LINE
8
Black
10
113.852
20
-108.496
11
113.852
21
-108.496
0
LINE
8
Black
10
113.852
20
-108.496
11
113.853
21
-108.496
0
LINE
8
Black
10
113.853
20
-108.496
11
113.853
21
-108.496
0
LINE
8
Black
10
113.853
20
-108.496
11
113.853
21
-108.497
0
LINE
8
Black
10
113.853
20
-108.497
11
113.854
21
-108.497
0
LINE
8
Black
10
113.854
20
-108.497
11
113.854
21
-108.497
0
LINE
8
Black
10
113.854
20
-108.497
11
113.854
21
-108.497
0
LINE
8
Black
10
113.854
20
-108.497
11
113.854
21
-108.498
0
LINE
8
Black
10
113.854
20
-108.498
11
113.855
21
-108.498
0
LINE
8
Black
10
113.855
20
-108.498
11
113.855
21
-108.499
0
LINE
8
Black
10
113.855
20
-108.499
11
113.855
21
-108.499
0
LINE
8
Black
10
113.855
20
-108.499
11
113.855
21
-108.5
0
LINE
8
Black
10
113.855
20
-108.5
11
113.855
21
-108.5
0
LINE
8
Black
10
113.855
20
-108.5
11
113.855
21
-114.3
0
LINE
8
Black
10
113.855
20
-114.3
11
113.855
21
-114.3
0
LINE
8
Black
10
113.855
20
-114.3
11
113.855
21
-114.301
0
LINE
8
Black
10
113.855
20
-114.301
11
113.855
21
-114.301
0
LINE
8
Black
10
113.855
20
-114.301
11
113.855
21
-114.302
0
LINE
8
Black
10
113.855
20
-114.302
11
113.854
21
-114.302
0
LINE
8
Black
10
113.854
20
-114.302
11
113.854
21
-114.302
0
LINE
8
Black
10
113.854
20
-114.302
11
113.854
21
-114.303
0
LINE
8
Black
10
113.854
20
-114.303
11
113.854
21
-114.303
0
LINE
8
Black
10
113.854
20
-114.303
11
113.853
21
-114.303
0
LINE
8
Black
10
113.853
20
-114.303
11
113.853
21
-114.304
0
LINE
8
Black
10
113.853
20
-114.304
11
113.853
21
-114.304
0
LINE
8
Black
10
113.853
20
-114.304
11
113.852
21
-114.304
0
LINE
8
Black
10
113.852
20
-114.304
11
113.852
21
-114.304
0
LINE
8
Black
10
113.852
20
-114.304
11
113.852
21
-114.305
0
LINE
8
Black
10
113.852
20
-114.305
11
113.851
21
-114.305
0
LINE
8
Black
10
113.851
20
-114.305
11
113.851
21
-114.305
0
LINE
8
Black
10
113.851
20
-114.305
11
113.85
21
-114.305
0
LINE
8
Black
10
113.85
20
-114.305
11
113.85
21
-114.305
0
LINE
8
Black
10
113.85
20
-114.305
11
107.35
21
-114.305
0
LINE
8
Black
10
107.35
20
-114.305
11
107.35
21
-114.305
0
LINE
8
Black
10
107.35
20
-114.305
11
107.349
21
-114.305
0
LINE
8
Black
10
107.349
20
-114.305
11
107.349
21
-114.305
0
LINE
8
Black
10
107.349
20
-114.305
11
107.348
21
-114.305
0
LINE
8
Black
10
107.348
20
-114.305
11
107.348
21
-114.304
0
LINE
8
Black
10
107.348
20
-114.304
11
107.347
21
-114.304
0
LINE
8
Black
10
107.347
20
-114.304
11
107.347
21
-114.304
0
LINE
8
Black
10
107.347
20
-114.304
11
107.347
21
-114.304
0
LINE
8
Black
10
107.347
20
-114.304
11
107.347
21
-114.303
0
LINE
8
Black
10
107.347
20
-114.303
11
107.346
21
-114.303
0
LINE
8
Black
10
107.346
20
-114.303
11
107.346
21
-114.303
0
LINE
8
Black
10
107.346
20
-114.303
11
107.346
21
-114.302
0
LINE
8
Black
10
107.346
20
-114.302
11
107.346
21
-114.302
0
LINE
8
Black
10
107.346
20
-114.302
11
107.345
21
-114.302
0
LINE
8
Black
10
107.345
20
-114.302
11
107.345
21
-114.301
0
LINE
8
Black
10
107.345
20
-114.301
11
107.345
21
-114.301
0
LINE
8
Black
10
107.345
20
-114.301
11
107.345
21
-114.3
0
LINE
8
Black
10
107.345
20
-114.3
11
107.345
21
-114.3
0
LINE
8
Black
10
107.345
20
-114.3
11
107.345
21
-108.5
0
LINE
8
Black
10
107.345
20
-108.5
11
107.345
21
-108.5
0
LINE
8
Black
10
107.345
20
-108.5
11
107.345
21
-108.499
0
LINE
8
Black
10
107.345
20
-108.499
11
107.345
21
-108.499
0
LINE
8
Black
10
107.345
20
-108.499
11
107.345
21
-108.498
0
LINE
8
Black
10
107.345
20
-108.498
11
107.346
21
-108.498
0
LINE
8
Black
10
107.346
20
-108.498
11
107.346
21
-108.497
0
LINE
8
Black
10
107.346
20
-108.497
11
107.346
21
-108.497
0
LINE
8
Black
10
107.346
20
-108.497
11
107.346
21
-108.497
0
LINE
8
Black
10
107.346
20
-108.497
11
107.347
21
-108.497
0
LINE
8
Black
10
107.347
20
-108.497
11
107.347
21
-108.496
0
LINE
8
Black
10
107.347
20
-108.496
11
107.347
21
-108.496
0
LINE
8
Black
10
107.347
20
-108.496
11
107.347
21
-108.496
0
LINE
8
Black
10
107.347
20
-108.496
11
107.348
21
-108.496
0
LINE
8
Black
10
107.348
20
-108.496
11
107.348
21
-108.495
0
LINE
8
Black
10
107.348
20
-108.495
11
107.349
21
-108.495
0
LINE
8
Black
10
107.349
20
-108.495
11
107.349
21
-108.495
0
LINE
8
Black
10
107.349
20
-108.495
11
107.35
21
-108.495
0
LINE
8
Black
10
107.35
20
-108.495
11
107.35
21
-108.495
0
LINE
8
Black
10
107.35
20
-108.495
11
113.85
21
-108.495
0
LINE
8
Black
10
113.85
20
-108.495
11
113.85
21
-108.495
0
LINE
8
Black
10
107.355
20
-108.505
11
107.355
21
-114.295
0
LINE
8
Black
10
107.355
20
-114.295
11
113.845
21
-114.295
0
LINE
8
Black
10
113.845
20
-114.295
11
113.845
21
-108.505
0
LINE
8
Black
10
113.845
20
-108.505
11
107.355
21
-108.505
0
LINE
8
Black
10
99.6504
20
-106.295
11
99.6509
21
-106.295
0
LINE
8
Black
10
99.6509
20
-106.295
11
99.6513
21
-106.295
0
LINE
8
Black
10
99.6513
20
-106.295
11
99.6517
21
-106.295
0
LINE
8
Black
10
99.6517
20
-106.295
11
99.6521
21
-106.296
0
LINE
8
Black
10
99.6521
20
-106.296
11
99.6525
21
-106.296
0
LINE
8
Black
10
99.6525
20
-106.296
11
99.6528
21
-106.296
0
LINE
8
Black
10
99.6528
20
-106.296
11
99.6532
21
-106.296
0
LINE
8
Black
10
99.6532
20
-106.296
11
99.6535
21
-106.297
0
LINE
8
Black
10
99.6535
20
-106.297
11
99.6538
21
-106.297
0
LINE
8
Black
10
99.6538
20
-106.297
11
99.654
21
-106.297
0
LINE
8
Black
10
99.654
20
-106.297
11
99.6543
21
-106.297
0
LINE
8
Black
10
99.6543
20
-106.297
11
99.6545
21
-106.298
0
LINE
8
Black
10
99.6545
20
-106.298
11
99.6547
21
-106.298
0
LINE
8
Black
10
99.6547
20
-106.298
11
99.6548
21
-106.299
0
LINE
8
Black
10
99.6548
20
-106.299
11
99.6549
21
-106.299
0
LINE
8
Black
10
99.6549
20
-106.299
11
99.6549
21
-106.3
0
LINE
8
Black
10
99.6549
20
-106.3
11
99.655
21
-106.3
0
LINE
8
Black
10
99.655
20
-106.3
11
99.655
21
-112.1
0
LINE
8
Black
10
99.655
20
-112.1
11
99.6549
21
-112.1
0
LINE
8
Black
10
99.6549
20
-112.1
11
99.6549
21
-112.101
0
LINE
8
Black
10
99.6549
20
-112.101
11
99.6548
21
-112.101
0
LINE
8
Black
10
99.6548
20
-112.101
11
99.6547
21
-112.102
0
LINE
8
Black
10
99.6547
20
-112.102
11
99.6545
21
-112.102
0
LINE
8
Black
10
99.6545
20
-112.102
11
99.6543
21
-112.102
0
LINE
8
Black
10
99.6543
20
-112.102
11
99.654
21
-112.103
0
LINE
8
Black
10
99.654
20
-112.103
11
99.6538
21
-112.103
0
LINE
8
Black
10
99.6538
20
-112.103
11
99.6535
21
-112.103
0
LINE
8
Black
10
99.6535
20
-112.103
11
99.6532
21
-112.104
0
LINE
8
Black
10
99.6532
20
-112.104
11
99.6528
21
-112.104
0
LINE
8
Black
10
99.6528
20
-112.104
11
99.6525
21
-112.104
0
LINE
8
Black
10
99.6525
20
-112.104
11
99.6521
21
-112.104
0
LINE
8
Black
10
99.6521
20
-112.104
11
99.6517
21
-112.105
0
LINE
8
Black
10
99.6517
20
-112.105
11
99.6513
21
-112.105
0
LINE
8
Black
10
99.6513
20
-112.105
11
99.6509
21
-112.105
0
LINE
8
Black
10
99.6509
20
-112.105
11
99.6504
21
-112.105
0
LINE
8
Black
10
99.6504
20
-112.105
11
99.65
21
-112.105
0
LINE
8
Black
10
99.65
20
-112.105
11
93.15
21
-112.105
0
LINE
8
Black
10
93.15
20
-112.105
11
93.1496
21
-112.105
0
LINE
8
Black
10
93.1496
20
-112.105
11
93.1491
21
-112.105
0
LINE
8
Black
10
93.1491
20
-112.105
11
93.1487
21
-112.105
0
LINE
8
Black
10
93.1487
20
-112.105
11
93.1483
21
-112.105
0
LINE
8
Black
10
93.1483
20
-112.105
11
93.1479
21
-112.104
0
LINE
8
Black
10
93.1479
20
-112.104
11
93.1475
21
-112.104
0
LINE
8
Black
10
93.1475
20
-112.104
11
93.1472
21
-112.104
0
LINE
8
Black
10
93.1472
20
-112.104
11
93.1468
21
-112.104
0
LINE
8
Black
10
93.1468
20
-112.104
11
93.1465
21
-112.103
0
LINE
8
Black
10
93.1465
20
-112.103
11
93.1462
21
-112.103
0
LINE
8
Black
10
93.1462
20
-112.103
11
93.146
21
-112.103
0
LINE
8
Black
10
93.146
20
-112.103
11
93.1457
21
-112.102
0
LINE
8
Black
10
93.1457
20
-112.102
11
93.1455
21
-112.102
0
LINE
8
Black
10
93.1455
20
-112.102
11
93.1453
21
-112.102
0
LINE
8
Black
10
93.1453
20
-112.102
11
93.1452
21
-112.101
0
LINE
8
Black
10
93.1452
20
-112.101
11
93.1451
21
-112.101
0
LINE
8
Black
10
93.1451
20
-112.101
11
93.1451
21
-112.1
0
LINE
8
Black
10
93.1451
20
-112.1
11
93.145
21
-112.1
0
LINE
8
Black
10
93.145
20
-112.1
11
93.145
21
-106.3
0
LINE
8
Black
10
93.145
20
-106.3
11
93.1451
21
-106.3
0
LINE
8
Black
10
93.1451
20
-106.3
11
93.1451
21
-106.299
0
LINE
8
Black
10
93.1451
20
-106.299
11
93.1452
21
-106.299
0
LINE
8
Black
10
93.1452
20
-106.299
11
93.1453
21
-106.298
0
LINE
8
Black
10
93.1453
20
-106.298
11
93.1455
21
-106.298
0
LINE
8
Black
10
93.1455
20
-106.298
11
93.1457
21
-106.297
0
LINE
8
Black
10
93.1457
20
-106.297
11
93.146
21
-106.297
0
LINE
8
Black
10
93.146
20
-106.297
11
93.1462
21
-106.297
0
LINE
8
Black
10
93.1462
20
-106.297
11
93.1465
21
-106.297
0
LINE
8
Black
10
93.1465
20
-106.297
11
93.1468
21
-106.296
0
LINE
8
Black
10
93.1468
20
-106.296
11
93.1472
21
-106.296
0
LINE
8
Black
10
93.1472
20
-106.296
11
93.1475
21
-106.296
0
LINE
8
Black
10
93.1475
20
-106.296
11
93.1479
21
-106.296
0
LINE
8
Black
10
93.1479
20
-106.296
11
93.1483
21
-106.295
0
LINE
8
Black
10
93.1483
20
-106.295
11
93.1487
21
-106.295
0
LINE
8
Black
10
93.1487
20
-106.295
11
93.1491
21
-106.295
0
LINE
8
Black
10
93.1491
20
-106.295
11
93.1496
21
-106.295
0
LINE
8
Black
10
93.1496
20
-106.295
11
93.15
21
-106.295
0
LINE
8
Black
10
93.15
20
-106.295
11
99.65
21
-106.295
0
LINE
8
Black
10
99.65
20
-106.295
11
99.6504
21
-106.295
0
LINE
8
Black
10
93.155
20
-106.305
11
93.155
21
-112.095
0
LINE
8
Black
10
93.155
20
-112.095
11
99.645
21
-112.095
0
LINE
8
Black
10
99.645
20
-112.095
11
99.645
21
-106.305
0
LINE
8
Black
10
99.645
20
-106.305
11
93.155
21
-106.305
0
LINE
8
Black
10
106.85
20
-106.295
11
106.851
21
-106.295
0
LINE
8
Black
10
106.851
20
-106.295
11
106.851
21
-106.295
0
LINE
8
Black
10
106.851
20
-106.295
11
106.852
21
-106.295
0
LINE
8
Black
10
106.852
20
-106.295
11
106.852
21
-106.296
0
LINE
8
Black
10
106.852
20
-106.296
11
106.852
21
-106.296
0
LINE
8
Black
10
106.852
20
-106.296
11
106.853
21
-106.296
0
LINE
8
Black
10
106.853
20
-106.296
11
106.853
21
-106.296
0
LINE
8
Black
10
106.853
20
-106.296
11
106.853
21
-106.297
0
LINE
8
Black
10
106.853
20
-106.297
11
106.854
21
-106.297
0
LINE
8
Black
10
106.854
20
-106.297
11
106.854
21
-106.297
0
LINE
8
Black
10
106.854
20
-106.297
11
106.854
21
-106.297
0
LINE
8
Black
10
106.854
20
-106.297
11
106.854
21
-106.298
0
LINE
8
Black
10
106.854
20
-106.298
11
106.855
21
-106.298
0
LINE
8
Black
10
106.855
20
-106.298
11
106.855
21
-106.299
0
LINE
8
Black
10
106.855
20
-106.299
11
106.855
21
-106.299
0
LINE
8
Black
10
106.855
20
-106.299
11
106.855
21
-106.3
0
LINE
8
Black
10
106.855
20
-106.3
11
106.855
21
-106.3
0
LINE
8
Black
10
106.855
20
-106.3
11
106.855
21
-112.1
0
LINE
8
Black
10
106.855
20
-112.1
11
106.855
21
-112.1
0
LINE
8
Black
10
106.855
20
-112.1
11
106.855
21
-112.101
0
LINE
8
Black
10
106.855
20
-112.101
11
106.855
21
-112.101
0
LINE
8
Black
10
106.855
20
-112.101
11
106.855
21
-112.102
0
LINE
8
Black
10
106.855
20
-112.102
11
106.854
21
-112.102
0
LINE
8
Black
10
106.854
20
-112.102
11
106.854
21
-112.102
0
LINE
8
Black
10
106.854
20
-112.102
11
106.854
21
-112.103
0
LINE
8
Black
10
106.854
20
-112.103
11
106.854
21
-112.103
0
LINE
8
Black
10
106.854
20
-112.103
11
106.853
21
-112.103
0
LINE
8
Black
10
106.853
20
-112.103
11
106.853
21
-112.104
0
LINE
8
Black
10
106.853
20
-112.104
11
106.853
21
-112.104
0
LINE
8
Black
10
106.853
20
-112.104
11
106.852
21
-112.104
0
LINE
8
Black
10
106.852
20
-112.104
11
106.852
21
-112.104
0
LINE
8
Black
10
106.852
20
-112.104
11
106.852
21
-112.105
0
LINE
8
Black
10
106.852
20
-112.105
11
106.851
21
-112.105
0
LINE
8
Black
10
106.851
20
-112.105
11
106.851
21
-112.105
0
LINE
8
Black
10
106.851
20
-112.105
11
106.85
21
-112.105
0
LINE
8
Black
10
106.85
20
-112.105
11
106.85
21
-112.105
0
LINE
8
Black
10
106.85
20
-112.105
11
100.35
21
-112.105
0
LINE
8
Black
10
100.35
20
-112.105
11
100.35
21
-112.105
0
LINE
8
Black
10
100.35
20
-112.105
11
100.349
21
-112.105
0
LINE
8
Black
10
100.349
20
-112.105
11
100.349
21
-112.105
0
LINE
8
Black
10
100.349
20
-112.105
11
100.348
21
-112.105
0
LINE
8
Black
10
100.348
20
-112.105
11
100.348
21
-112.104
0
LINE
8
Black
10
100.348
20
-112.104
11
100.347
21
-112.104
0
LINE
8
Black
10
100.347
20
-112.104
11
100.347
21
-112.104
0
LINE
8
Black
10
100.347
20
-112.104
11
100.347
21
-112.104
0
LINE
8
Black
10
100.347
20
-112.104
11
100.347
21
-112.103
0
LINE
8
Black
10
100.347
20
-112.103
11
100.346
21
-112.103
0
LINE
8
Black
10
100.346
20
-112.103
11
100.346
21
-112.103
0
LINE
8
Black
10
100.346
20
-112.103
11
100.346
21
-112.102
0
LINE
8
Black
10
100.346
20
-112.102
11
100.346
21
-112.102
0
LINE
8
Black
10
100.346
20
-112.102
11
100.345
21
-112.102
0
LINE
8
Black
10
100.345
20
-112.102
11
100.345
21
-112.101
0
LINE
8
Black
10
100.345
20
-112.101
11
100.345
21
-112.101
0
LINE
8
Black
10
100.345
20
-112.101
11
100.345
21
-112.1
0
LINE
8
Black
10
100.345
20
-112.1
11
100.345
21
-112.1
0
LINE
8
Black
10
100.345
20
-112.1
11
100.345
21
-106.3
0
LINE
8
Black
10
100.345
20
-106.3
11
100.345
21
-106.3
0
LINE
8
Black
10
100.345
20
-106.3
11
100.345
21
-106.299
0
LINE
8
Black
10
100.345
20
-106.299
11
100.345
21
-106.299
0
LINE
8
Black
10
100.345
20
-106.299
11
100.345
21
-106.298
0
LINE
8
Black
10
100.345
20
-106.298
11
100.346
21
-106.298
0
LINE
8
Black
10
100.346
20
-106.298
11
100.346
21
-106.297
0
LINE
8
Black
10
100.346
20
-106.297
11
100.346
21
-106.297
0
LINE
8
Black
10
100.346
20
-106.297
11
100.346
21
-106.297
0
LINE
8
Black
10
100.346
20
-106.297
11
100.347
21
-106.297
0
LINE
8
Black
10
100.347
20
-106.297
11
100.347
21
-106.296
0
LINE
8
Black
10
100.347
20
-106.296
11
100.347
21
-106.296
0
LINE
8
Black
10
100.347
20
-106.296
11
100.347
21
-106.296
0
LINE
8
Black
10
100.347
20
-106.296
11
100.348
21
-106.296
0
LINE
8
Black
10
100.348
20
-106.296
11
100.348
21
-106.295
0
LINE
8
Black
10
100.348
20
-106.295
11
100.349
21
-106.295
0
LINE
8
Black
10
100.349
20
-106.295
11
100.349
21
-106.295
0
LINE
8
Black
10
100.349
20
-106.295
11
100.35
21
-106.295
0
LINE
8
Black
10
100.35
20
-106.295
11
100.35
21
-106.295
0
LINE
8
Black
10
100.35
20
-106.295
11
106.85
21
-106.295
0
LINE
8
Black
10
106.85
20
-106.295
11
106.85
21
-106.295
0
LINE
8
Black
10
100.355
20
-106.305
11
100.355
21
-112.095
0
LINE
8
Black
10
100.355
20
-112.095
11
106.845
21
-112.095
0
LINE
8
Black
10
106.845
20
-112.095
11
106.845
21
-106.305
0
LINE
8
Black
10
106.845
20
-106.305
11
100.355
21
-106.305
0
LINE
8
Black
10
110.7
20
-96.7951
11
110.701
21
-96.7951
0
LINE
8
Black
10
110.701
20
-96.7951
11
110.701
21
-96.7952
0
LINE
8
Black
10
110.701
20
-96.7952
11
110.702
21
-96.7953
0
LINE
8
Black
10
110.702
20
-96.7953
11
110.702
21
-96.7955
0
LINE
8
Black
10
110.702
20
-96.7955
11
110.703
21
-96.7957
0
LINE
8
Black
10
110.703
20
-96.7957
11
110.703
21
-96.796
0
LINE
8
Black
10
110.703
20
-96.796
11
110.703
21
-96.7962
0
LINE
8
Black
10
110.703
20
-96.7962
11
110.703
21
-96.7965
0
LINE
8
Black
10
110.703
20
-96.7965
11
110.704
21
-96.7968
0
LINE
8
Black
10
110.704
20
-96.7968
11
110.704
21
-96.7972
0
LINE
8
Black
10
110.704
20
-96.7972
11
110.704
21
-96.7975
0
LINE
8
Black
10
110.704
20
-96.7975
11
110.704
21
-96.7979
0
LINE
8
Black
10
110.704
20
-96.7979
11
110.705
21
-96.7983
0
LINE
8
Black
10
110.705
20
-96.7983
11
110.705
21
-96.7987
0
LINE
8
Black
10
110.705
20
-96.7987
11
110.705
21
-96.7991
0
LINE
8
Black
10
110.705
20
-96.7991
11
110.705
21
-96.7996
0
LINE
8
Black
10
110.705
20
-96.7996
11
110.705
21
-96.8
0
LINE
8
Black
10
110.705
20
-96.8
11
110.705
21
-103.8
0
LINE
8
Black
10
110.705
20
-103.8
11
110.705
21
-103.8
0
LINE
8
Black
10
110.705
20
-103.8
11
110.705
21
-103.801
0
LINE
8
Black
10
110.705
20
-103.801
11
110.705
21
-103.801
0
LINE
8
Black
10
110.705
20
-103.801
11
110.705
21
-103.802
0
LINE
8
Black
10
110.705
20
-103.802
11
110.704
21
-103.802
0
LINE
8
Black
10
110.704
20
-103.802
11
110.704
21
-103.802
0
LINE
8
Black
10
110.704
20
-103.802
11
110.704
21
-103.803
0
LINE
8
Black
10
110.704
20
-103.803
11
110.704
21
-103.803
0
LINE
8
Black
10
110.704
20
-103.803
11
110.703
21
-103.803
0
LINE
8
Black
10
110.703
20
-103.803
11
110.703
21
-103.804
0
LINE
8
Black
10
110.703
20
-103.804
11
110.703
21
-103.804
0
LINE
8
Black
10
110.703
20
-103.804
11
110.703
21
-103.804
0
LINE
8
Black
10
110.703
20
-103.804
11
110.702
21
-103.804
0
LINE
8
Black
10
110.702
20
-103.804
11
110.702
21
-103.805
0
LINE
8
Black
10
110.702
20
-103.805
11
110.701
21
-103.805
0
LINE
8
Black
10
110.701
20
-103.805
11
110.701
21
-103.805
0
LINE
8
Black
10
110.701
20
-103.805
11
110.7
21
-103.805
0
LINE
8
Black
10
110.7
20
-103.805
11
110.7
21
-103.805
0
LINE
8
Black
10
110.7
20
-103.805
11
106.7
21
-103.805
0
LINE
8
Black
10
106.7
20
-103.805
11
106.7
21
-103.805
0
LINE
8
Black
10
106.7
20
-103.805
11
106.699
21
-103.805
0
LINE
8
Black
10
106.699
20
-103.805
11
106.699
21
-103.805
0
LINE
8
Black
10
106.699
20
-103.805
11
106.698
21
-103.805
0
LINE
8
Black
10
106.698
20
-103.805
11
106.698
21
-103.804
0
LINE
8
Black
10
106.698
20
-103.804
11
106.697
21
-103.804
0
LINE
8
Black
10
106.697
20
-103.804
11
106.697
21
-103.804
0
LINE
8
Black
10
106.697
20
-103.804
11
106.697
21
-103.804
0
LINE
8
Black
10
106.697
20
-103.804
11
106.697
21
-103.803
0
LINE
8
Black
10
106.697
20
-103.803
11
106.696
21
-103.803
0
LINE
8
Black
10
106.696
20
-103.803
11
106.696
21
-103.803
0
LINE
8
Black
10
106.696
20
-103.803
11
106.696
21
-103.802
0
LINE
8
Black
10
106.696
20
-103.802
11
106.696
21
-103.802
0
LINE
8
Black
10
106.696
20
-103.802
11
106.695
21
-103.802
0
LINE
8
Black
10
106.695
20
-103.802
11
106.695
21
-103.801
0
LINE
8
Black
10
106.695
20
-103.801
11
106.695
21
-103.801
0
LINE
8
Black
10
106.695
20
-103.801
11
106.695
21
-103.8
0
LINE
8
Black
10
106.695
20
-103.8
11
106.695
21
-103.8
0
LINE
8
Black
10
106.695
20
-103.8
11
106.695
21
-96.8
0
LINE
8
Black
10
106.695
20
-96.8
11
106.695
21
-96.7996
0
LINE
8
Black
10
106.695
20
-96.7996
11
106.695
21
-96.7991
0
LINE
8
Black
10
106.695
20
-96.7991
11
106.695
21
-96.7987
0
LINE
8
Black
10
106.695
20
-96.7987
11
106.695
21
-96.7983
0
LINE
8
Black
10
106.695
20
-96.7983
11
106.696
21
-96.7979
0
LINE
8
Black
10
106.696
20
-96.7979
11
106.696
21
-96.7975
0
LINE
8
Black
10
106.696
20
-96.7975
11
106.696
21
-96.7972
0
LINE
8
Black
10
106.696
20
-96.7972
11
106.696
21
-96.7968
0
LINE
8
Black
10
106.696
20
-96.7968
11
106.697
21
-96.7965
0
LINE
8
Black
10
106.697
20
-96.7965
11
106.697
21
-96.7962
0
LINE
8
Black
10
106.697
20
-96.7962
11
106.697
21
-96.796
0
LINE
8
Black
10
106.697
20
-96.796
11
106.697
21
-96.7957
0
LINE
8
Black
10
106.697
20
-96.7957
11
106.698
21
-96.7955
0
LINE
8
Black
10
106.698
20
-96.7955
11
106.698
21
-96.7953
0
LINE
8
Black
10
106.698
20
-96.7953
11
106.699
21
-96.7952
0
LINE
8
Black
10
106.699
20
-96.7952
11
106.699
21
-96.7951
0
LINE
8
Black
10
106.699
20
-96.7951
11
106.7
21
-96.7951
0
LINE
8
Black
10
106.7
20
-96.7951
11
106.7
21
-96.795
0
LINE
8
Black
10
106.7
20
-96.795
11
110.7
21
-96.795
0
LINE
8
Black
10
110.7
20
-96.795
11
110.7
21
-96.7951
0
LINE
8
Black
10
106.705
20
-96.805
11
106.705
21
-103.795
0
LINE
8
Black
10
106.705
20
-103.795
11
110.695
21
-103.795
0
LINE
8
Black
10
110.695
20
-103.795
11
110.695
21
-96.805
0
LINE
8
Black
10
110.695
20
-96.805
11
106.705
21
-96.805
0
LINE
8
Black
10
87.6004
20
-102.345
11
87.6009
21
-102.345
0
LINE
8
Black
10
87.6009
20
-102.345
11
87.6013
21
-102.345
0
LINE
8
Black
10
87.6013
20
-102.345
11
87.6017
21
-102.345
0
LINE
8
Black
10
87.6017
20
-102.345
11
87.6021
21
-102.346
0
LINE
8
Black
10
87.6021
20
-102.346
11
87.6025
21
-102.346
0
LINE
8
Black
10
87.6025
20
-102.346
11
87.6028
21
-102.346
0
LINE
8
Black
10
87.6028
20
-102.346
11
87.6032
21
-102.346
0
LINE
8
Black
10
87.6032
20
-102.346
11
87.6035
21
-102.347
0
LINE
8
Black
10
87.6035
20
-102.347
11
87.6038
21
-102.347
0
LINE
8
Black
10
87.6038
20
-102.347
11
87.604
21
-102.347
0
LINE
8
Black
10
87.604
20
-102.347
11
87.6043
21
-102.347
0
LINE
8
Black
10
87.6043
20
-102.347
11
87.6045
21
-102.348
0
LINE
8
Black
10
87.6045
20
-102.348
11
87.6047
21
-102.348
0
LINE
8
Black
10
87.6047
20
-102.348
11
87.6048
21
-102.349
0
LINE
8
Black
10
87.6048
20
-102.349
11
87.6049
21
-102.349
0
LINE
8
Black
10
87.6049
20
-102.349
11
87.6049
21
-102.35
0
LINE
8
Black
10
87.6049
20
-102.35
11
87.605
21
-102.35
0
LINE
8
Black
10
87.605
20
-102.35
11
87.605
21
-103.45
0
LINE
8
Black
10
87.605
20
-103.45
11
87.6049
21
-103.45
0
LINE
8
Black
10
87.6049
20
-103.45
11
87.6049
21
-103.451
0
LINE
8
Black
10
87.6049
20
-103.451
11
87.6048
21
-103.451
0
LINE
8
Black
10
87.6048
20
-103.451
11
87.6047
21
-103.452
0
LINE
8
Black
10
87.6047
20
-103.452
11
87.6045
21
-103.452
0
LINE
8
Black
10
87.6045
20
-103.452
11
87.6043
21
-103.453
0
LINE
8
Black
10
87.6043
20
-103.453
11
87.604
21
-103.453
0
LINE
8
Black
10
87.604
20
-103.453
11
87.6038
21
-103.453
0
LINE
8
Black
10
87.6038
20
-103.453
11
87.6035
21
-103.453
0
LINE
8
Black
10
87.6035
20
-103.453
11
87.6032
21
-103.454
0
LINE
8
Black
10
87.6032
20
-103.454
11
87.6028
21
-103.454
0
LINE
8
Black
10
87.6028
20
-103.454
11
87.6025
21
-103.454
0
LINE
8
Black
10
87.6025
20
-103.454
11
87.6021
21
-103.454
0
LINE
8
Black
10
87.6021
20
-103.454
11
87.6017
21
-103.455
0
LINE
8
Black
10
87.6017
20
-103.455
11
87.6013
21
-103.455
0
LINE
8
Black
10
87.6013
20
-103.455
11
87.6009
21
-103.455
0
LINE
8
Black
10
87.6009
20
-103.455
11
87.6004
21
-103.455
0
LINE
8
Black
10
87.6004
20
-103.455
11
87.6
21
-103.455
0
LINE
8
Black
10
87.6
20
-103.455
11
85.2
21
-103.455
0
LINE
8
Black
10
85.2
20
-103.455
11
85.1996
21
-103.455
0
LINE
8
Black
10
85.1996
20
-103.455
11
85.1991
21
-103.455
0
LINE
8
Black
10
85.1991
20
-103.455
11
85.1987
21
-103.455
0
LINE
8
Black
10
85.1987
20
-103.455
11
85.1983
21
-103.455
0
LINE
8
Black
10
85.1983
20
-103.455
11
85.1979
21
-103.454
0
LINE
8
Black
10
85.1979
20
-103.454
11
85.1975
21
-103.454
0
LINE
8
Black
10
85.1975
20
-103.454
11
85.1972
21
-103.454
0
LINE
8
Black
10
85.1972
20
-103.454
11
85.1968
21
-103.454
0
LINE
8
Black
10
85.1968
20
-103.454
11
85.1965
21
-103.453
0
LINE
8
Black
10
85.1965
20
-103.453
11
85.1962
21
-103.453
0
LINE
8
Black
10
85.1962
20
-103.453
11
85.196
21
-103.453
0
LINE
8
Black
10
85.196
20
-103.453
11
85.1957
21
-103.453
0
LINE
8
Black
10
85.1957
20
-103.453
11
85.1955
21
-103.452
0
LINE
8
Black
10
85.1955
20
-103.452
11
85.1953
21
-103.452
0
LINE
8
Black
10
85.1953
20
-103.452
11
85.1952
21
-103.451
0
LINE
8
Black
10
85.1952
20
-103.451
11
85.1951
21
-103.451
0
LINE
8
Black
10
85.1951
20
-103.451
11
85.1951
21
-103.45
0
LINE
8
Black
10
85.1951
20
-103.45
11
85.195
21
-103.45
0
LINE
8
Black
10
85.195
20
-103.45
11
85.195
21
-102.35
0
LINE
8
Black
10
85.195
20
-102.35
11
85.1951
21
-102.35
0
LINE
8
Black
10
85.1951
20
-102.35
11
85.1951
21
-102.349
0
LINE
8
Black
10
85.1951
20
-102.349
11
85.1952
21
-102.349
0
LINE
8
Black
10
85.1952
20
-102.349
11
85.1953
21
-102.348
0
LINE
8
Black
10
85.1953
20
-102.348
11
85.1955
21
-102.348
0
LINE
8
Black
10
85.1955
20
-102.348
11
85.1957
21
-102.347
0
LINE
8
Black
10
85.1957
20
-102.347
11
85.196
21
-102.347
0
LINE
8
Black
10
85.196
20
-102.347
11
85.1962
21
-102.347
0
LINE
8
Black
10
85.1962
20
-102.347
11
85.1965
21
-102.347
0
LINE
8
Black
10
85.1965
20
-102.347
11
85.1968
21
-102.346
0
LINE
8
Black
10
85.1968
20
-102.346
11
85.1972
21
-102.346
0
LINE
8
Black
10
85.1972
20
-102.346
11
85.1975
21
-102.346
0
LINE
8
Black
10
85.1975
20
-102.346
11
85.1979
21
-102.346
0
LINE
8
Black
10
85.1979
20
-102.346
11
85.1983
21
-102.345
0
LINE
8
Black
10
85.1983
20
-102.345
11
85.1987
21
-102.345
0
LINE
8
Black
10
85.1987
20
-102.345
11
85.1991
21
-102.345
0
LINE
8
Black
10
85.1991
20
-102.345
11
85.1996
21
-102.345
0
LINE
8
Black
10
85.1996
20
-102.345
11
85.2
21
-102.345
0
LINE
8
Black
10
85.2
20
-102.345
11
87.6
21
-102.345
0
LINE
8
Black
10
87.6
20
-102.345
11
87.6004
21
-102.345
0
LINE
8
Black
10
85.205
20
-102.355
11
85.205
21
-103.445
0
LINE
8
Black
10
85.205
20
-103.445
11
87.595
21
-103.445
0
LINE
8
Black
10
87.595
20
-103.445
11
87.595
21
-102.355
0
LINE
8
Black
10
87.595
20
-102.355
11
85.205
21
-102.355
0
LINE
8
Black
10
98.6301
20
-97.788
11
98.6306
21
-97.7881
0
LINE
8
Black
10
98.6306
20
-97.7881
11
98.631
21
-97.7882
0
LINE
8
Black
10
98.631
20
-97.7882
11
98.6314
21
-97.7884
0
LINE
8
Black
10
98.6314
20
-97.7884
11
98.6318
21
-97.7886
0
LINE
8
Black
10
98.6318
20
-97.7886
11
98.6322
21
-97.7888
0
LINE
8
Black
10
98.6322
20
-97.7888
11
98.6325
21
-97.7891
0
LINE
8
Black
10
98.6325
20
-97.7891
11
98.6328
21
-97.7894
0
LINE
8
Black
10
98.6328
20
-97.7894
11
99.4106
21
-98.5672
0
LINE
8
Black
10
99.4106
20
-98.5672
11
99.4109
21
-98.5675
0
LINE
8
Black
10
99.4109
20
-98.5675
11
99.4112
21
-98.5678
0
LINE
8
Black
10
99.4112
20
-98.5678
11
99.4114
21
-98.5682
0
LINE
8
Black
10
99.4114
20
-98.5682
11
99.4116
21
-98.5686
0
LINE
8
Black
10
99.4116
20
-98.5686
11
99.4117
21
-98.569
0
LINE
8
Black
10
99.4117
20
-98.569
11
99.4119
21
-98.5694
0
LINE
8
Black
10
99.4119
20
-98.5694
11
99.412
21
-98.5699
0
LINE
8
Black
10
99.412
20
-98.5699
11
99.4121
21
-98.5703
0
LINE
8
Black
10
99.4121
20
-98.5703
11
99.412
21
-98.5707
0
LINE
8
Black
10
99.412
20
-98.5707
11
99.4121
21
-98.5711
0
LINE
8
Black
10
99.4121
20
-98.5711
11
99.412
21
-98.5716
0
LINE
8
Black
10
99.412
20
-98.5716
11
99.4119
21
-98.572
0
LINE
8
Black
10
99.4119
20
-98.572
11
99.4117
21
-98.5724
0
LINE
8
Black
10
99.4117
20
-98.5724
11
99.4116
21
-98.5728
0
LINE
8
Black
10
99.4116
20
-98.5728
11
99.4114
21
-98.5732
0
LINE
8
Black
10
99.4114
20
-98.5732
11
99.4112
21
-98.5736
0
LINE
8
Black
10
99.4112
20
-98.5736
11
99.4109
21
-98.5739
0
LINE
8
Black
10
99.4109
20
-98.5739
11
99.4106
21
-98.5742
0
LINE
8
Black
10
99.4106
20
-98.5742
11
97.7136
21
-100.271
0
LINE
8
Black
10
97.7136
20
-100.271
11
97.7132
21
-100.272
0
LINE
8
Black
10
97.7132
20
-100.272
11
97.7129
21
-100.272
0
LINE
8
Black
10
97.7129
20
-100.272
11
97.7125
21
-100.272
0
LINE
8
Black
10
97.7125
20
-100.272
11
97.7122
21
-100.272
0
LINE
8
Black
10
97.7122
20
-100.272
11
97.7117
21
-100.272
0
LINE
8
Black
10
97.7117
20
-100.272
11
97.7113
21
-100.273
0
LINE
8
Black
10
97.7113
20
-100.273
11
97.7109
21
-100.273
0
LINE
8
Black
10
97.7109
20
-100.273
11
97.7105
21
-100.273
0
LINE
8
Black
10
97.7105
20
-100.273
11
97.7101
21
-100.273
0
LINE
8
Black
10
97.7101
20
-100.273
11
97.7096
21
-100.273
0
LINE
8
Black
10
97.7096
20
-100.273
11
97.7092
21
-100.273
0
LINE
8
Black
10
97.7092
20
-100.273
11
97.7088
21
-100.273
0
LINE
8
Black
10
97.7088
20
-100.273
11
97.7084
21
-100.272
0
LINE
8
Black
10
97.7084
20
-100.272
11
97.7079
21
-100.272
0
LINE
8
Black
10
97.7079
20
-100.272
11
97.7076
21
-100.272
0
LINE
8
Black
10
97.7076
20
-100.272
11
97.7072
21
-100.272
0
LINE
8
Black
10
97.7072
20
-100.272
11
97.7069
21
-100.272
0
LINE
8
Black
10
97.7069
20
-100.272
11
97.7065
21
-100.271
0
LINE
8
Black
10
97.7065
20
-100.271
11
96.9287
21
-99.4935
0
LINE
8
Black
10
96.9287
20
-99.4935
11
96.9284
21
-99.4931
0
LINE
8
Black
10
96.9284
20
-99.4931
11
96.9281
21
-99.4928
0
LINE
8
Black
10
96.9281
20
-99.4928
11
96.928
21
-99.4924
0
LINE
8
Black
10
96.928
20
-99.4924
11
96.9277
21
-99.4921
0
LINE
8
Black
10
96.9277
20
-99.4921
11
96.9276
21
-99.4916
0
LINE
8
Black
10
96.9276
20
-99.4916
11
96.9274
21
-99.4912
0
LINE
8
Black
10
96.9274
20
-99.4912
11
96.9274
21
-99.4908
0
LINE
8
Black
10
96.9274
20
-99.4908
11
96.9273
21
-99.4904
0
LINE
8
Black
10
96.9273
20
-99.4904
11
96.9273
21
-99.4899
0
LINE
8
Black
10
96.9273
20
-99.4899
11
96.9273
21
-99.4895
0
LINE
8
Black
10
96.9273
20
-99.4895
11
96.9274
21
-99.4891
0
LINE
8
Black
10
96.9274
20
-99.4891
11
96.9274
21
-99.4887
0
LINE
8
Black
10
96.9274
20
-99.4887
11
96.9276
21
-99.4883
0
LINE
8
Black
10
96.9276
20
-99.4883
11
96.9277
21
-99.4878
0
LINE
8
Black
10
96.9277
20
-99.4878
11
96.928
21
-99.4875
0
LINE
8
Black
10
96.928
20
-99.4875
11
96.9281
21
-99.4871
0
LINE
8
Black
10
96.9281
20
-99.4871
11
96.9284
21
-99.4868
0
LINE
8
Black
10
96.9284
20
-99.4868
11
96.9287
21
-99.4864
0
LINE
8
Black
10
96.9287
20
-99.4864
11
98.6258
21
-97.7894
0
LINE
8
Black
10
98.6258
20
-97.7894
11
98.6261
21
-97.7891
0
LINE
8
Black
10
98.6261
20
-97.7891
11
98.6264
21
-97.7888
0
LINE
8
Black
10
98.6264
20
-97.7888
11
98.6268
21
-97.7886
0
LINE
8
Black
10
98.6268
20
-97.7886
11
98.6272
21
-97.7884
0
LINE
8
Black
10
98.6272
20
-97.7884
11
98.6276
21
-97.7882
0
LINE
8
Black
10
98.6276
20
-97.7882
11
98.628
21
-97.7881
0
LINE
8
Black
10
98.628
20
-97.7881
11
98.6284
21
-97.788
0
LINE
8
Black
10
98.6284
20
-97.788
11
98.6289
21
-97.7879
0
LINE
8
Black
10
98.6289
20
-97.7879
11
98.6293
21
-97.7879
0
LINE
8
Black
10
98.6293
20
-97.7879
11
98.6297
21
-97.7879
0
LINE
8
Black
10
98.6297
20
-97.7879
11
98.6301
21
-97.788
0
LINE
8
Black
10
96.9393
20
-99.4899
11
97.7101
21
-100.261
0
LINE
8
Black
10
97.7101
20
-100.261
11
99.4
21
-98.5707
0
LINE
8
Black
10
99.4
20
-98.5707
11
98.6293
21
-97.8
0
LINE
8
Black
10
98.6293
20
-97.8
11
96.9393
21
-99.4899
0
LINE
8
Black
10
96.1004
20
-96.0451
11
96.1009
21
-96.0451
0
LINE
8
Black
10
96.1009
20
-96.0451
11
96.1013
21
-96.0452
0
LINE
8
Black
10
96.1013
20
-96.0452
11
96.1017
21
-96.0453
0
LINE
8
Black
10
96.1017
20
-96.0453
11
96.1021
21
-96.0455
0
LINE
8
Black
10
96.1021
20
-96.0455
11
96.1025
21
-96.0457
0
LINE
8
Black
10
96.1025
20
-96.0457
11
96.1028
21
-96.046
0
LINE
8
Black
10
96.1028
20
-96.046
11
96.1032
21
-96.0462
0
LINE
8
Black
10
96.1032
20
-96.0462
11
96.1035
21
-96.0465
0
LINE
8
Black
10
96.1035
20
-96.0465
11
96.1038
21
-96.0468
0
LINE
8
Black
10
96.1038
20
-96.0468
11
96.104
21
-96.0472
0
LINE
8
Black
10
96.104
20
-96.0472
11
96.1043
21
-96.0475
0
LINE
8
Black
10
96.1043
20
-96.0475
11
96.1045
21
-96.0479
0
LINE
8
Black
10
96.1045
20
-96.0479
11
96.1047
21
-96.0483
0
LINE
8
Black
10
96.1047
20
-96.0483
11
96.1048
21
-96.0487
0
LINE
8
Black
10
96.1048
20
-96.0487
11
96.1049
21
-96.0491
0
LINE
8
Black
10
96.1049
20
-96.0491
11
96.1049
21
-96.0496
0
LINE
8
Black
10
96.1049
20
-96.0496
11
96.105
21
-96.05
0
LINE
8
Black
10
96.105
20
-96.05
11
96.105
21
-97.15
0
LINE
8
Black
10
96.105
20
-97.15
11
96.1049
21
-97.1504
0
LINE
8
Black
10
96.1049
20
-97.1504
11
96.1049
21
-97.1509
0
LINE
8
Black
10
96.1049
20
-97.1509
11
96.1048
21
-97.1513
0
LINE
8
Black
10
96.1048
20
-97.1513
11
96.1047
21
-97.1517
0
LINE
8
Black
10
96.1047
20
-97.1517
11
96.1045
21
-97.1521
0
LINE
8
Black
10
96.1045
20
-97.1521
11
96.1043
21
-97.1525
0
LINE
8
Black
10
96.1043
20
-97.1525
11
96.104
21
-97.1528
0
LINE
8
Black
10
96.104
20
-97.1528
11
96.1038
21
-97.1532
0
LINE
8
Black
10
96.1038
20
-97.1532
11
96.1035
21
-97.1535
0
LINE
8
Black
10
96.1035
20
-97.1535
11
96.1032
21
-97.1538
0
LINE
8
Black
10
96.1032
20
-97.1538
11
96.1028
21
-97.154
0
LINE
8
Black
10
96.1028
20
-97.154
11
96.1025
21
-97.1543
0
LINE
8
Black
10
96.1025
20
-97.1543
11
96.1021
21
-97.1545
0
LINE
8
Black
10
96.1021
20
-97.1545
11
96.1017
21
-97.1547
0
LINE
8
Black
10
96.1017
20
-97.1547
11
96.1013
21
-97.1548
0
LINE
8
Black
10
96.1013
20
-97.1548
11
96.1009
21
-97.1549
0
LINE
8
Black
10
96.1009
20
-97.1549
11
96.1004
21
-97.1549
0
LINE
8
Black
10
96.1004
20
-97.1549
11
96.1
21
-97.155
0
LINE
8
Black
10
96.1
20
-97.155
11
93.7
21
-97.155
0
LINE
8
Black
10
93.7
20
-97.155
11
93.6996
21
-97.1549
0
LINE
8
Black
10
93.6996
20
-97.1549
11
93.6991
21
-97.1549
0
LINE
8
Black
10
93.6991
20
-97.1549
11
93.6987
21
-97.1548
0
LINE
8
Black
10
93.6987
20
-97.1548
11
93.6983
21
-97.1547
0
LINE
8
Black
10
93.6983
20
-97.1547
11
93.6979
21
-97.1545
0
LINE
8
Black
10
93.6979
20
-97.1545
11
93.6975
21
-97.1543
0
LINE
8
Black
10
93.6975
20
-97.1543
11
93.6972
21
-97.154
0
LINE
8
Black
10
93.6972
20
-97.154
11
93.6968
21
-97.1538
0
LINE
8
Black
10
93.6968
20
-97.1538
11
93.6965
21
-97.1535
0
LINE
8
Black
10
93.6965
20
-97.1535
11
93.6962
21
-97.1532
0
LINE
8
Black
10
93.6962
20
-97.1532
11
93.696
21
-97.1528
0
LINE
8
Black
10
93.696
20
-97.1528
11
93.6957
21
-97.1525
0
LINE
8
Black
10
93.6957
20
-97.1525
11
93.6955
21
-97.1521
0
LINE
8
Black
10
93.6955
20
-97.1521
11
93.6953
21
-97.1517
0
LINE
8
Black
10
93.6953
20
-97.1517
11
93.6952
21
-97.1513
0
LINE
8
Black
10
93.6952
20
-97.1513
11
93.6951
21
-97.1509
0
LINE
8
Black
10
93.6951
20
-97.1509
11
93.6951
21
-97.1504
0
LINE
8
Black
10
93.6951
20
-97.1504
11
93.695
21
-97.15
0
LINE
8
Black
10
93.695
20
-97.15
11
93.695
21
-96.05
0
LINE
8
Black
10
93.695
20
-96.05
11
93.6951
21
-96.0496
0
LINE
8
Black
10
93.6951
20
-96.0496
11
93.6951
21
-96.0491
0
LINE
8
Black
10
93.6951
20
-96.0491
11
93.6952
21
-96.0487
0
LINE
8
Black
10
93.6952
20
-96.0487
11
93.6953
21
-96.0483
0
LINE
8
Black
10
93.6953
20
-96.0483
11
93.6955
21
-96.0479
0
LINE
8
Black
10
93.6955
20
-96.0479
11
93.6957
21
-96.0475
0
LINE
8
Black
10
93.6957
20
-96.0475
11
93.696
21
-96.0472
0
LINE
8
Black
10
93.696
20
-96.0472
11
93.6962
21
-96.0468
0
LINE
8
Black
10
93.6962
20
-96.0468
11
93.6965
21
-96.0465
0
LINE
8
Black
10
93.6965
20
-96.0465
11
93.6968
21
-96.0462
0
LINE
8
Black
10
93.6968
20
-96.0462
11
93.6972
21
-96.046
0
LINE
8
Black
10
93.6972
20
-96.046
11
93.6975
21
-96.0457
0
LINE
8
Black
10
93.6975
20
-96.0457
11
93.6979
21
-96.0455
0
LINE
8
Black
10
93.6979
20
-96.0455
11
93.6983
21
-96.0453
0
LINE
8
Black
10
93.6983
20
-96.0453
11
93.6987
21
-96.0452
0
LINE
8
Black
10
93.6987
20
-96.0452
11
93.6991
21
-96.0451
0
LINE
8
Black
10
93.6991
20
-96.0451
11
93.6996
21
-96.0451
0
LINE
8
Black
10
93.6996
20
-96.0451
11
93.7
21
-96.045
0
LINE
8
Black
10
93.7
20
-96.045
11
96.1
21
-96.045
0
LINE
8
Black
10
96.1
20
-96.045
11
96.1004
21
-96.0451
0
LINE
8
Black
10
93.705
20
-96.055
11
93.705
21
-97.145
0
LINE
8
Black
10
93.705
20
-97.145
11
96.095
21
-97.145
0
LINE
8
Black
10
96.095
20
-97.145
11
96.095
21
-96.055
0
LINE
8
Black
10
96.095
20
-96.055
11
93.705
21
-96.055
0
LINE
8
Black
10
93.0004
20
-93.3451
11
93.0009
21
-93.3451
0
LINE
8
Black
10
93.0009
20
-93.3451
11
93.0013
21
-93.3452
0
LINE
8
Black
10
93.0013
20
-93.3452
11
93.0017
21
-93.3453
0
LINE
8
Black
10
93.0017
20
-93.3453
11
93.0021
21
-93.3455
0
LINE
8
Black
10
93.0021
20
-93.3455
11
93.0025
21
-93.3457
0
LINE
8
Black
10
93.0025
20
-93.3457
11
93.0028
21
-93.346
0
LINE
8
Black
10
93.0028
20
-93.346
11
93.0032
21
-93.3462
0
LINE
8
Black
10
93.0032
20
-93.3462
11
93.0035
21
-93.3465
0
LINE
8
Black
10
93.0035
20
-93.3465
11
93.0038
21
-93.3468
0
LINE
8
Black
10
93.0038
20
-93.3468
11
93.004
21
-93.3472
0
LINE
8
Black
10
93.004
20
-93.3472
11
93.0043
21
-93.3475
0
LINE
8
Black
10
93.0043
20
-93.3475
11
93.0045
21
-93.3479
0
LINE
8
Black
10
93.0045
20
-93.3479
11
93.0047
21
-93.3483
0
LINE
8
Black
10
93.0047
20
-93.3483
11
93.0048
21
-93.3487
0
LINE
8
Black
10
93.0048
20
-93.3487
11
93.0049
21
-93.3491
0
LINE
8
Black
10
93.0049
20
-93.3491
11
93.0049
21
-93.3496
0
LINE
8
Black
10
93.0049
20
-93.3496
11
93.005
21
-93.35
0
LINE
8
Black
10
93.005
20
-93.35
11
93.005
21
-94.45
0
LINE
8
Black
10
93.005
20
-94.45
11
93.0049
21
-94.4504
0
LINE
8
Black
10
93.0049
20
-94.4504
11
93.0049
21
-94.4509
0
LINE
8
Black
10
93.0049
20
-94.4509
11
93.0048
21
-94.4513
0
LINE
8
Black
10
93.0048
20
-94.4513
11
93.0047
21
-94.4517
0
LINE
8
Black
10
93.0047
20
-94.4517
11
93.0045
21
-94.4521
0
LINE
8
Black
10
93.0045
20
-94.4521
11
93.0043
21
-94.4525
0
LINE
8
Black
10
93.0043
20
-94.4525
11
93.004
21
-94.4528
0
LINE
8
Black
10
93.004
20
-94.4528
11
93.0038
21
-94.4532
0
LINE
8
Black
10
93.0038
20
-94.4532
11
93.0035
21
-94.4535
0
LINE
8
Black
10
93.0035
20
-94.4535
11
93.0032
21
-94.4538
0
LINE
8
Black
10
93.0032
20
-94.4538
11
93.0028
21
-94.454
0
LINE
8
Black
10
93.0028
20
-94.454
11
93.0025
21
-94.4543
0
LINE
8
Black
10
93.0025
20
-94.4543
11
93.0021
21
-94.4545
0
LINE
8
Black
10
93.0021
20
-94.4545
11
93.0017
21
-94.4547
0
LINE
8
Black
10
93.0017
20
-94.4547
11
93.0013
21
-94.4548
0
LINE
8
Black
10
93.0013
20
-94.4548
11
93.0009
21
-94.4549
0
LINE
8
Black
10
93.0009
20
-94.4549
11
93.0004
21
-94.4549
0
LINE
8
Black
10
93.0004
20
-94.4549
11
93
21
-94.455
0
LINE
8
Black
10
93
20
-94.455
11
90.6
21
-94.455
0
LINE
8
Black
10
90.6
20
-94.455
11
90.5996
21
-94.4549
0
LINE
8
Black
10
90.5996
20
-94.4549
11
90.5991
21
-94.4549
0
LINE
8
Black
10
90.5991
20
-94.4549
11
90.5987
21
-94.4548
0
LINE
8
Black
10
90.5987
20
-94.4548
11
90.5983
21
-94.4547
0
LINE
8
Black
10
90.5983
20
-94.4547
11
90.5979
21
-94.4545
0
LINE
8
Black
10
90.5979
20
-94.4545
11
90.5975
21
-94.4543
0
LINE
8
Black
10
90.5975
20
-94.4543
11
90.5972
21
-94.454
0
LINE
8
Black
10
90.5972
20
-94.454
11
90.5968
21
-94.4538
0
LINE
8
Black
10
90.5968
20
-94.4538
11
90.5965
21
-94.4535
0
LINE
8
Black
10
90.5965
20
-94.4535
11
90.5962
21
-94.4532
0
LINE
8
Black
10
90.5962
20
-94.4532
11
90.596
21
-94.4528
0
LINE
8
Black
10
90.596
20
-94.4528
11
90.5957
21
-94.4525
0
LINE
8
Black
10
90.5957
20
-94.4525
11
90.5955
21
-94.4521
0
LINE
8
Black
10
90.5955
20
-94.4521
11
90.5953
21
-94.4517
0
LINE
8
Black
10
90.5953
20
-94.4517
11
90.5952
21
-94.4513
0
LINE
8
Black
10
90.5952
20
-94.4513
11
90.5951
21
-94.4509
0
LINE
8
Black
10
90.5951
20
-94.4509
11
90.5951
21
-94.4504
0
LINE
8
Black
10
90.5951
20
-94.4504
11
90.595
21
-94.45
0
LINE
8
Black
10
90.595
20
-94.45
11
90.595
21
-93.35
0
LINE
8
Black
10
90.595
20
-93.35
11
90.5951
21
-93.3496
0
LINE
8
Black
10
90.5951
20
-93.3496
11
90.5951
21
-93.3491
0
LINE
8
Black
10
90.5951
20
-93.3491
11
90.5952
21
-93.3487
0
LINE
8
Black
10
90.5952
20
-93.3487
11
90.5953
21
-93.3483
0
LINE
8
Black
10
90.5953
20
-93.3483
11
90.5955
21
-93.3479
0
LINE
8
Black
10
90.5955
20
-93.3479
11
90.5957
21
-93.3475
0
LINE
8
Black
10
90.5957
20
-93.3475
11
90.596
21
-93.3472
0
LINE
8
Black
10
90.596
20
-93.3472
11
90.5962
21
-93.3468
0
LINE
8
Black
10
90.5962
20
-93.3468
11
90.5965
21
-93.3465
0
LINE
8
Black
10
90.5965
20
-93.3465
11
90.5968
21
-93.3462
0
LINE
8
Black
10
90.5968
20
-93.3462
11
90.5972
21
-93.346
0
LINE
8
Black
10
90.5972
20
-93.346
11
90.5975
21
-93.3457
0
LINE
8
Black
10
90.5975
20
-93.3457
11
90.5979
21
-93.3455
0
LINE
8
Black
10
90.5979
20
-93.3455
11
90.5983
21
-93.3453
0
LINE
8
Black
10
90.5983
20
-93.3453
11
90.5987
21
-93.3452
0
LINE
8
Black
10
90.5987
20
-93.3452
11
90.5991
21
-93.3451
0
LINE
8
Black
10
90.5991
20
-93.3451
11
90.5996
21
-93.3451
0
LINE
8
Black
10
90.5996
20
-93.3451
11
90.6
21
-93.345
0
LINE
8
Black
10
90.6
20
-93.345
11
93
21
-93.345
0
LINE
8
Black
10
93
20
-93.345
11
93.0004
21
-93.3451
0
LINE
8
Black
10
90.605
20
-93.355
11
90.605
21
-94.445
0
LINE
8
Black
10
90.605
20
-94.445
11
92.995
21
-94.445
0
LINE
8
Black
10
92.995
20
-94.445
11
92.995
21
-93.355
0
LINE
8
Black
10
92.995
20
-93.355
11
90.605
21
-93.355
0
LINE
8
Black
10
104.85
20
-86.9951
11
104.851
21
-86.9951
0
LINE
8
Black
10
104.851
20
-86.9951
11
104.851
21
-86.9952
0
LINE
8
Black
10
104.851
20
-86.9952
11
104.852
21
-86.9953
0
LINE
8
Black
10
104.852
20
-86.9953
11
104.852
21
-86.9955
0
LINE
8
Black
10
104.852
20
-86.9955
11
104.852
21
-86.9957
0
LINE
8
Black
10
104.852
20
-86.9957
11
104.853
21
-86.996
0
LINE
8
Black
10
104.853
20
-86.996
11
104.853
21
-86.9962
0
LINE
8
Black
10
104.853
20
-86.9962
11
104.853
21
-86.9965
0
LINE
8
Black
10
104.853
20
-86.9965
11
104.854
21
-86.9968
0
LINE
8
Black
10
104.854
20
-86.9968
11
104.854
21
-86.9972
0
LINE
8
Black
10
104.854
20
-86.9972
11
104.854
21
-86.9975
0
LINE
8
Black
10
104.854
20
-86.9975
11
104.854
21
-86.9979
0
LINE
8
Black
10
104.854
20
-86.9979
11
104.855
21
-86.9983
0
LINE
8
Black
10
104.855
20
-86.9983
11
104.855
21
-86.9987
0
LINE
8
Black
10
104.855
20
-86.9987
11
104.855
21
-86.9991
0
LINE
8
Black
10
104.855
20
-86.9991
11
104.855
21
-86.9996
0
LINE
8
Black
10
104.855
20
-86.9996
11
104.855
21
-87
0
LINE
8
Black
10
104.855
20
-87
11
104.855
21
-92.8
0
LINE
8
Black
10
104.855
20
-92.8
11
104.855
21
-92.8004
0
LINE
8
Black
10
104.855
20
-92.8004
11
104.855
21
-92.8009
0
LINE
8
Black
10
104.855
20
-92.8009
11
104.855
21
-92.8013
0
LINE
8
Black
10
104.855
20
-92.8013
11
104.855
21
-92.8017
0
LINE
8
Black
10
104.855
20
-92.8017
11
104.854
21
-92.8021
0
LINE
8
Black
10
104.854
20
-92.8021
11
104.854
21
-92.8025
0
LINE
8
Black
10
104.854
20
-92.8025
11
104.854
21
-92.8028
0
LINE
8
Black
10
104.854
20
-92.8028
11
104.854
21
-92.8032
0
LINE
8
Black
10
104.854
20
-92.8032
11
104.853
21
-92.8035
0
LINE
8
Black
10
104.853
20
-92.8035
11
104.853
21
-92.8038
0
LINE
8
Black
10
104.853
20
-92.8038
11
104.853
21
-92.804
0
LINE
8
Black
10
104.853
20
-92.804
11
104.852
21
-92.8043
0
LINE
8
Black
10
104.852
20
-92.8043
11
104.852
21
-92.8045
0
LINE
8
Black
10
104.852
20
-92.8045
11
104.852
21
-92.8047
0
LINE
8
Black
10
104.852
20
-92.8047
11
104.851
21
-92.8048
0
LINE
8
Black
10
104.851
20
-92.8048
11
104.851
21
-92.8049
0
LINE
8
Black
10
104.851
20
-92.8049
11
104.85
21
-92.8049
0
LINE
8
Black
10
104.85
20
-92.8049
11
104.85
21
-92.805
0
LINE
8
Black
10
104.85
20
-92.805
11
98.35
21
-92.805
0
LINE
8
Black
10
98.35
20
-92.805
11
98.3496
21
-92.8049
0
LINE
8
Black
10
98.3496
20
-92.8049
11
98.3491
21
-92.8049
0
LINE
8
Black
10
98.3491
20
-92.8049
11
98.3487
21
-92.8048
0
LINE
8
Black
10
98.3487
20
-92.8048
11
98.3483
21
-92.8047
0
LINE
8
Black
10
98.3483
20
-92.8047
11
98.3479
21
-92.8045
0
LINE
8
Black
10
98.3479
20
-92.8045
11
98.3475
21
-92.8043
0
LINE
8
Black
10
98.3475
20
-92.8043
11
98.3472
21
-92.804
0
LINE
8
Black
10
98.3472
20
-92.804
11
98.3468
21
-92.8038
0
LINE
8
Black
10
98.3468
20
-92.8038
11
98.3465
21
-92.8035
0
LINE
8
Black
10
98.3465
20
-92.8035
11
98.3462
21
-92.8032
0
LINE
8
Black
10
98.3462
20
-92.8032
11
98.346
21
-92.8028
0
LINE
8
Black
10
98.346
20
-92.8028
11
98.3457
21
-92.8025
0
LINE
8
Black
10
98.3457
20
-92.8025
11
98.3455
21
-92.8021
0
LINE
8
Black
10
98.3455
20
-92.8021
11
98.3453
21
-92.8017
0
LINE
8
Black
10
98.3453
20
-92.8017
11
98.3452
21
-92.8013
0
LINE
8
Black
10
98.3452
20
-92.8013
11
98.3451
21
-92.8009
0
LINE
8
Black
10
98.3451
20
-92.8009
11
98.3451
21
-92.8004
0
LINE
8
Black
10
98.3451
20
-92.8004
11
98.345
21
-92.8
0
LINE
8
Black
10
98.345
20
-92.8
11
98.345
21
-87
0
LINE
8
Black
10
98.345
20
-87
11
98.3451
21
-86.9996
0
LINE
8
Black
10
98.3451
20
-86.9996
11
98.3451
21
-86.9991
0
LINE
8
Black
10
98.3451
20
-86.9991
11
98.3452
21
-86.9987
0
LINE
8
Black
10
98.3452
20
-86.9987
11
98.3453
21
-86.9983
0
LINE
8
Black
10
98.3453
20
-86.9983
11
98.3455
21
-86.9979
0
LINE
8
Black
10
98.3455
20
-86.9979
11
98.3457
21
-86.9975
0
LINE
8
Black
10
98.3457
20
-86.9975
11
98.346
21
-86.9972
0
LINE
8
Black
10
98.346
20
-86.9972
11
98.3462
21
-86.9968
0
LINE
8
Black
10
98.3462
20
-86.9968
11
98.3465
21
-86.9965
0
LINE
8
Black
10
98.3465
20
-86.9965
11
98.3468
21
-86.9962
0
LINE
8
Black
10
98.3468
20
-86.9962
11
98.3472
21
-86.996
0
LINE
8
Black
10
98.3472
20
-86.996
11
98.3475
21
-86.9957
0
LINE
8
Black
10
98.3475
20
-86.9957
11
98.3479
21
-86.9955
0
LINE
8
Black
10
98.3479
20
-86.9955
11
98.3483
21
-86.9953
0
LINE
8
Black
10
98.3483
20
-86.9953
11
98.3487
21
-86.9952
0
LINE
8
Black
10
98.3487
20
-86.9952
11
98.3491
21
-86.9951
0
LINE
8
Black
10
98.3491
20
-86.9951
11
98.3496
21
-86.9951
0
LINE
8
Black
10
98.3496
20
-86.9951
11
98.35
21
-86.995
0
LINE
8
Black
10
98.35
20
-86.995
11
104.85
21
-86.995
0
LINE
8
Black
10
104.85
20
-86.995
11
104.85
21
-86.9951
0
LINE
8
Black
10
98.355
20
-87.005
11
98.355
21
-92.795
0
LINE
8
Black
10
98.355
20
-92.795
11
104.845
21
-92.795
0
LINE
8
Black
10
104.845
20
-92.795
11
104.845
21
-87.005
0
LINE
8
Black
10
104.845
20
-87.005
11
98.355
21
-87.005
0
LINE
8
Black
10
112.45
20
-86.9951
11
112.451
21
-86.9951
0
LINE
8
Black
10
112.451
20
-86.9951
11
112.451
21
-86.9952
0
LINE
8
Black
10
112.451
20
-86.9952
11
112.452
21
-86.9953
0
LINE
8
Black
10
112.452
20
-86.9953
11
112.452
21
-86.9955
0
LINE
8
Black
10
112.452
20
-86.9955
11
112.453
21
-86.9957
0
LINE
8
Black
10
112.453
20
-86.9957
11
112.453
21
-86.996
0
LINE
8
Black
10
112.453
20
-86.996
11
112.453
21
-86.9962
0
LINE
8
Black
10
112.453
20
-86.9962
11
112.453
21
-86.9965
0
LINE
8
Black
10
112.453
20
-86.9965
11
112.454
21
-86.9968
0
LINE
8
Black
10
112.454
20
-86.9968
11
112.454
21
-86.9972
0
LINE
8
Black
10
112.454
20
-86.9972
11
112.454
21
-86.9975
0
LINE
8
Black
10
112.454
20
-86.9975
11
112.454
21
-86.9979
0
LINE
8
Black
10
112.454
20
-86.9979
11
112.455
21
-86.9983
0
LINE
8
Black
10
112.455
20
-86.9983
11
112.455
21
-86.9987
0
LINE
8
Black
10
112.455
20
-86.9987
11
112.455
21
-86.9991
0
LINE
8
Black
10
112.455
20
-86.9991
11
112.455
21
-86.9996
0
LINE
8
Black
10
112.455
20
-86.9996
11
112.455
21
-87
0
LINE
8
Black
10
112.455
20
-87
11
112.455
21
-92.8
0
LINE
8
Black
10
112.455
20
-92.8
11
112.455
21
-92.8004
0
LINE
8
Black
10
112.455
20
-92.8004
11
112.455
21
-92.8009
0
LINE
8
Black
10
112.455
20
-92.8009
11
112.455
21
-92.8013
0
LINE
8
Black
10
112.455
20
-92.8013
11
112.455
21
-92.8017
0
LINE
8
Black
10
112.455
20
-92.8017
11
112.454
21
-92.8021
0
LINE
8
Black
10
112.454
20
-92.8021
11
112.454
21
-92.8025
0
LINE
8
Black
10
112.454
20
-92.8025
11
112.454
21
-92.8028
0
LINE
8
Black
10
112.454
20
-92.8028
11
112.454
21
-92.8032
0
LINE
8
Black
10
112.454
20
-92.8032
11
112.453
21
-92.8035
0
LINE
8
Black
10
112.453
20
-92.8035
11
112.453
21
-92.8038
0
LINE
8
Black
10
112.453
20
-92.8038
11
112.453
21
-92.804
0
LINE
8
Black
10
112.453
20
-92.804
11
112.453
21
-92.8043
0
LINE
8
Black
10
112.453
20
-92.8043
11
112.452
21
-92.8045
0
LINE
8
Black
10
112.452
20
-92.8045
11
112.452
21
-92.8047
0
LINE
8
Black
10
112.452
20
-92.8047
11
112.451
21
-92.8048
0
LINE
8
Black
10
112.451
20
-92.8048
11
112.451
21
-92.8049
0
LINE
8
Black
10
112.451
20
-92.8049
11
112.45
21
-92.8049
0
LINE
8
Black
10
112.45
20
-92.8049
11
112.45
21
-92.805
0
LINE
8
Black
10
112.45
20
-92.805
11
105.95
21
-92.805
0
LINE
8
Black
10
105.95
20
-92.805
11
105.95
21
-92.8049
0
LINE
8
Black
10
105.95
20
-92.8049
11
105.949
21
-92.8049
0
LINE
8
Black
10
105.949
20
-92.8049
11
105.949
21
-92.8048
0
LINE
8
Black
10
105.949
20
-92.8048
11
105.948
21
-92.8047
0
LINE
8
Black
10
105.948
20
-92.8047
11
105.948
21
-92.8045
0
LINE
8
Black
10
105.948
20
-92.8045
11
105.947
21
-92.8043
0
LINE
8
Black
10
105.947
20
-92.8043
11
105.947
21
-92.804
0
LINE
8
Black
10
105.947
20
-92.804
11
105.947
21
-92.8038
0
LINE
8
Black
10
105.947
20
-92.8038
11
105.947
21
-92.8035
0
LINE
8
Black
10
105.947
20
-92.8035
11
105.946
21
-92.8032
0
LINE
8
Black
10
105.946
20
-92.8032
11
105.946
21
-92.8028
0
LINE
8
Black
10
105.946
20
-92.8028
11
105.946
21
-92.8025
0
LINE
8
Black
10
105.946
20
-92.8025
11
105.946
21
-92.8021
0
LINE
8
Black
10
105.946
20
-92.8021
11
105.945
21
-92.8017
0
LINE
8
Black
10
105.945
20
-92.8017
11
105.945
21
-92.8013
0
LINE
8
Black
10
105.945
20
-92.8013
11
105.945
21
-92.8009
0
LINE
8
Black
10
105.945
20
-92.8009
11
105.945
21
-92.8004
0
LINE
8
Black
10
105.945
20
-92.8004
11
105.945
21
-92.8
0
LINE
8
Black
10
105.945
20
-92.8
11
105.945
21
-87
0
LINE
8
Black
10
105.945
20
-87
11
105.945
21
-86.9996
0
LINE
8
Black
10
105.945
20
-86.9996
11
105.945
21
-86.9991
0
LINE
8
Black
10
105.945
20
-86.9991
11
105.945
21
-86.9987
0
LINE
8
Black
10
105.945
20
-86.9987
11
105.945
21
-86.9983
0
LINE
8
Black
10
105.945
20
-86.9983
11
105.946
21
-86.9979
0
LINE
8
Black
10
105.946
20
-86.9979
11
105.946
21
-86.9975
0
LINE
8
Black
10
105.946
20
-86.9975
11
105.946
21
-86.9972
0
LINE
8
Black
10
105.946
20
-86.9972
11
105.946
21
-86.9968
0
LINE
8
Black
10
105.946
20
-86.9968
11
105.947
21
-86.9965
0
LINE
8
Black
10
105.947
20
-86.9965
11
105.947
21
-86.9962
0
LINE
8
Black
10
105.947
20
-86.9962
11
105.947
21
-86.996
0
LINE
8
Black
10
105.947
20
-86.996
11
105.947
21
-86.9957
0
LINE
8
Black
10
105.947
20
-86.9957
11
105.948
21
-86.9955
0
LINE
8
Black
10
105.948
20
-86.9955
11
105.948
21
-86.9953
0
LINE
8
Black
10
105.948
20
-86.9953
11
105.949
21
-86.9952
0
LINE
8
Black
10
105.949
20
-86.9952
11
105.949
21
-86.9951
0
LINE
8
Black
10
105.949
20
-86.9951
11
105.95
21
-86.9951
0
LINE
8
Black
10
105.95
20
-86.9951
11
105.95
21
-86.995
0
LINE
8
Black
10
105.95
20
-86.995
11
112.45
21
-86.995
0
LINE
8
Black
10
112.45
20
-86.995
11
112.45
21
-86.9951
0
LINE
8
Black
10
105.955
20
-87.005
11
105.955
21
-92.795
0
LINE
8
Black
10
105.955
20
-92.795
11
112.445
21
-92.795
0
LINE
8
Black
10
112.445
20
-92.795
11
112.445
21
-87.005
0
LINE
8
Black
10
112.445
20
-87.005
11
105.955
21
-87.005
0
LINE
8
Black
10
97.2504
20
-86.9951
11
97.2509
21
-86.9951
0
LINE
8
Black
10
97.2509
20
-86.9951
11
97.2513
21
-86.9952
0
LINE
8
Black
10
97.2513
20
-86.9952
11
97.2517
21
-86.9953
0
LINE
8
Black
10
97.2517
20
-86.9953
11
97.2521
21
-86.9955
0
LINE
8
Black
10
97.2521
20
-86.9955
11
97.2525
21
-86.9957
0
LINE
8
Black
10
97.2525
20
-86.9957
11
97.2528
21
-86.996
0
LINE
8
Black
10
97.2528
20
-86.996
11
97.2532
21
-86.9962
0
LINE
8
Black
10
97.2532
20
-86.9962
11
97.2535
21
-86.9965
0
LINE
8
Black
10
97.2535
20
-86.9965
11
97.2538
21
-86.9968
0
LINE
8
Black
10
97.2538
20
-86.9968
11
97.254
21
-86.9972
0
LINE
8
Black
10
97.254
20
-86.9972
11
97.2543
21
-86.9975
0
LINE
8
Black
10
97.2543
20
-86.9975
11
97.2545
21
-86.9979
0
LINE
8
Black
10
97.2545
20
-86.9979
11
97.2547
21
-86.9983
0
LINE
8
Black
10
97.2547
20
-86.9983
11
97.2548
21
-86.9987
0
LINE
8
Black
10
97.2548
20
-86.9987
11
97.2549
21
-86.9991
0
LINE
8
Black
10
97.2549
20
-86.9991
11
97.2549
21
-86.9996
0
LINE
8
Black
10
97.2549
20
-86.9996
11
97.255
21
-87
0
LINE
8
Black
10
97.255
20
-87
11
97.255
21
-92.8
0
LINE
8
Black
10
97.255
20
-92.8
11
97.2549
21
-92.8004
0
LINE
8
Black
10
97.2549
20
-92.8004
11
97.2549
21
-92.8009
0
LINE
8
Black
10
97.2549
20
-92.8009
11
97.2548
21
-92.8013
0
LINE
8
Black
10
97.2548
20
-92.8013
11
97.2547
21
-92.8017
0
LINE
8
Black
10
97.2547
20
-92.8017
11
97.2545
21
-92.8021
0
LINE
8
Black
10
97.2545
20
-92.8021
11
97.2543
21
-92.8025
0
LINE
8
Black
10
97.2543
20
-92.8025
11
97.254
21
-92.8028
0
LINE
8
Black
10
97.254
20
-92.8028
11
97.2538
21
-92.8032
0
LINE
8
Black
10
97.2538
20
-92.8032
11
97.2535
21
-92.8035
0
LINE
8
Black
10
97.2535
20
-92.8035
11
97.2532
21
-92.8038
0
LINE
8
Black
10
97.2532
20
-92.8038
11
97.2528
21
-92.804
0
LINE
8
Black
10
97.2528
20
-92.804
11
97.2525
21
-92.8043
0
LINE
8
Black
10
97.2525
20
-92.8043
11
97.2521
21
-92.8045
0
LINE
8
Black
10
97.2521
20
-92.8045
11
97.2517
21
-92.8047
0
LINE
8
Black
10
97.2517
20
-92.8047
11
97.2513
21
-92.8048
0
LINE
8
Black
10
97.2513
20
-92.8048
11
97.2509
21
-92.8049
0
LINE
8
Black
10
97.2509
20
-92.8049
11
97.2504
21
-92.8049
0
LINE
8
Black
10
97.2504
20
-92.8049
11
97.25
21
-92.805
0
LINE
8
Black
10
97.25
20
-92.805
11
86.75
21
-92.805
0
LINE
8
Black
10
86.75
20
-92.805
11
86.7496
21
-92.8049
0
LINE
8
Black
10
86.7496
20
-92.8049
11
86.7491
21
-92.8049
0
LINE
8
Black
10
86.7491
20
-92.8049
11
86.7487
21
-92.8048
0
LINE
8
Black
10
86.7487
20
-92.8048
11
86.7483
21
-92.8047
0
LINE
8
Black
10
86.7483
20
-92.8047
11
86.7479
21
-92.8045
0
LINE
8
Black
10
86.7479
20
-92.8045
11
86.7475
21
-92.8043
0
LINE
8
Black
10
86.7475
20
-92.8043
11
86.7472
21
-92.804
0
LINE
8
Black
10
86.7472
20
-92.804
11
86.7468
21
-92.8038
0
LINE
8
Black
10
86.7468
20
-92.8038
11
86.7465
21
-92.8035
0
LINE
8
Black
10
86.7465
20
-92.8035
11
86.7462
21
-92.8032
0
LINE
8
Black
10
86.7462
20
-92.8032
11
86.746
21
-92.8028
0
LINE
8
Black
10
86.746
20
-92.8028
11
86.7457
21
-92.8025
0
LINE
8
Black
10
86.7457
20
-92.8025
11
86.7455
21
-92.8021
0
LINE
8
Black
10
86.7455
20
-92.8021
11
86.7453
21
-92.8017
0
LINE
8
Black
10
86.7453
20
-92.8017
11
86.7452
21
-92.8013
0
LINE
8
Black
10
86.7452
20
-92.8013
11
86.7451
21
-92.8009
0
LINE
8
Black
10
86.7451
20
-92.8009
11
86.7451
21
-92.8004
0
LINE
8
Black
10
86.7451
20
-92.8004
11
86.745
21
-92.8
0
LINE
8
Black
10
86.745
20
-92.8
11
86.745
21
-87
0
LINE
8
Black
10
86.745
20
-87
11
86.7451
21
-86.9996
0
LINE
8
Black
10
86.7451
20
-86.9996
11
86.7451
21
-86.9991
0
LINE
8
Black
10
86.7451
20
-86.9991
11
86.7452
21
-86.9987
0
LINE
8
Black
10
86.7452
20
-86.9987
11
86.7453
21
-86.9983
0
LINE
8
Black
10
86.7453
20
-86.9983
11
86.7455
21
-86.9979
0
LINE
8
Black
10
86.7455
20
-86.9979
11
86.7457
21
-86.9975
0
LINE
8
Black
10
86.7457
20
-86.9975
11
86.746
21
-86.9972
0
LINE
8
Black
10
86.746
20
-86.9972
11
86.7462
21
-86.9968
0
LINE
8
Black
10
86.7462
20
-86.9968
11
86.7465
21
-86.9965
0
LINE
8
Black
10
86.7465
20
-86.9965
11
86.7468
21
-86.9962
0
LINE
8
Black
10
86.7468
20
-86.9962
11
86.7472
21
-86.996
0
LINE
8
Black
10
86.7472
20
-86.996
11
86.7475
21
-86.9957
0
LINE
8
Black
10
86.7475
20
-86.9957
11
86.7479
21
-86.9955
0
LINE
8
Black
10
86.7479
20
-86.9955
11
86.7483
21
-86.9953
0
LINE
8
Black
10
86.7483
20
-86.9953
11
86.7487
21
-86.9952
0
LINE
8
Black
10
86.7487
20
-86.9952
11
86.7491
21
-86.9951
0
LINE
8
Black
10
86.7491
20
-86.9951
11
86.7496
21
-86.9951
0
LINE
8
Black
10
86.7496
20
-86.9951
11
86.75
21
-86.995
0
LINE
8
Black
10
86.75
20
-86.995
11
97.25
21
-86.995
0
LINE
8
Black
10
97.25
20
-86.995
11
97.2504
21
-86.9951
0
LINE
8
Black
10
86.755
20
-87.005
11
86.755
21
-92.795
0
LINE
8
Black
10
86.755
20
-92.795
11
97.245
21
-92.795
0
LINE
8
Black
10
97.245
20
-92.795
11
97.245
21
-87.005
0
LINE
8
Black
10
97.245
20
-87.005
11
86.755
21
-87.005
  0
ENDSEC
  0
EOF
