  0
SECTION
  2
HEADER
  9
$ANGBASE
  50
0.0
  9
$ANGDIR
  70
  1
  9
$MEASUREMENT
  70
0
  0
ENDSEC
  0
SECTION
  2
TABLES
  0
TABLE
  2
LTYPE
  70
1
  0
LTYPE
  2
CONTINUOUS
  70
0
  3
Solid line
  72
65
  73
0
  40
0.0
  0
ENDTAB
  0
TABLE
  2
STYLE
  70
4
  0
STYLE
  2
KICAD
  70
0
  40
0
  41
1
  42
1
  50
0
  71
0
  3
isocp.shx
  0
STYLE
  2
KICADB
  70
0
  40
0
  41
1
  42
1
  50
0
  71
0
  3
isocp.shx
  0
STYLE
  2
KICADI
  70
0
  40
0
  41
1
  42
1
  50
15
  71
0
  3
isocp.shx
  0
STYLE
  2
KICADBI
  70
0
  40
0
  41
1
  42
1
  50
15
  71
0
  3
isocp.shx
  0
ENDTAB
  0
TABLE
  2
LAYER
  70
30
  0
LAYER
  2
BLACK
  70
0
  62
7
  6
CONTINUOUS
  0
LAYER
  2
GRAY1
  70
0
  62
251
  6
CONTINUOUS
  0
LAYER
  2
GRAY2
  70
0
  62
8
  6
CONTINUOUS
  0
LAYER
  2
GRAY3
  70
0
  62
9
  6
CONTINUOUS
  0
LAYER
  2
WHITE
  70
0
  62
7
  6
CONTINUOUS
  0
LAYER
  2
LYELLOW
  70
0
  62
51
  6
CONTINUOUS
  0
LAYER
  2
BLUE1
  70
0
  62
178
  6
CONTINUOUS
  0
LAYER
  2
GREEN1
  70
0
  62
98
  6
CONTINUOUS
  0
LAYER
  2
CYAN1
  70
0
  62
138
  6
CONTINUOUS
  0
LAYER
  2
RED1
  70
0
  62
18
  6
CONTINUOUS
  0
LAYER
  2
MAGENTA1
  70
0
  62
228
  6
CONTINUOUS
  0
LAYER
  2
BROWN1
  70
0
  62
58
  6
CONTINUOUS
  0
LAYER
  2
BLUE2
  70
0
  62
5
  6
CONTINUOUS
  0
LAYER
  2
GREEN2
  70
0
  62
3
  6
CONTINUOUS
  0
LAYER
  2
CYAN2
  70
0
  62
4
  6
CONTINUOUS
  0
LAYER
  2
RED2
  70
0
  62
1
  6
CONTINUOUS
  0
LAYER
  2
MAGENTA2
  70
0
  62
6
  6
CONTINUOUS
  0
LAYER
  2
BROWN2
  70
0
  62
54
  6
CONTINUOUS
  0
LAYER
  2
BLUE3
  70
0
  62
171
  6
CONTINUOUS
  0
LAYER
  2
GREEN3
  70
0
  62
91
  6
CONTINUOUS
  0
LAYER
  2
CYAN3
  70
0
  62
131
  6
CONTINUOUS
  0
LAYER
  2
RED3
  70
0
  62
11
  6
CONTINUOUS
  0
LAYER
  2
MAGENTA3
  70
0
  62
221
  6
CONTINUOUS
  0
LAYER
  2
YELLOW3
  70
0
  62
2
  6
CONTINUOUS
  0
LAYER
  2
BLUE4
  70
0
  62
5
  6
CONTINUOUS
  0
LAYER
  2
GREEN4
  70
0
  62
3
  6
CONTINUOUS
  0
LAYER
  2
CYAN4
  70
0
  62
4
  6
CONTINUOUS
  0
LAYER
  2
RED4
  70
0
  62
1
  6
CONTINUOUS
  0
LAYER
  2
MAGENTA4
  70
0
  62
6
  6
CONTINUOUS
  0
LAYER
  2
YELLOW4
  70
0
  62
2
  6
CONTINUOUS
  0
ENDTAB
  0
ENDSEC
  0
SECTION
  2
ENTITIES
0
LINE
8
Black
10
115.212
20
-86.9272
11
115.225
21
-86.9293
0
LINE
8
Black
10
115.225
20
-86.9293
11
115.225
21
-86.9295
0
LINE
8
Black
10
115.225
20
-86.9295
11
115.226
21
-86.9295
0
LINE
8
Black
10
115.226
20
-86.9295
11
115.237
21
-86.9359
0
LINE
8
Black
10
115.237
20
-86.9359
11
115.248
21
-86.9421
0
LINE
8
Black
10
115.248
20
-86.9421
11
115.248
21
-86.9424
0
LINE
8
Black
10
115.248
20
-86.9424
11
115.248
21
-86.9425
0
LINE
8
Black
10
115.248
20
-86.9425
11
115.256
21
-86.9522
0
LINE
8
Black
10
115.256
20
-86.9522
11
115.265
21
-86.9619
0
LINE
8
Black
10
115.265
20
-86.9619
11
118.794
21
-92.9446
0
LINE
8
Black
10
118.794
20
-92.9446
11
118.803
21
-92.969
0
LINE
8
Black
10
118.803
20
-92.969
11
120.074
21
-99.7981
0
LINE
8
Black
10
120.074
20
-99.7981
11
120.074
21
-99.8241
0
LINE
8
Black
10
120.074
20
-99.8241
11
118.932
21
-106.676
0
LINE
8
Black
10
118.932
20
-106.676
11
118.924
21
-106.7
0
LINE
8
Black
10
118.924
20
-106.7
11
118.924
21
-106.7
0
LINE
8
Black
10
118.924
20
-106.7
11
115.507
21
-112.749
0
LINE
8
Black
10
115.507
20
-112.749
11
115.491
21
-112.769
0
LINE
8
Black
10
115.491
20
-112.769
11
115.491
21
-112.769
0
LINE
8
Black
10
115.491
20
-112.769
11
110.212
21
-117.284
0
LINE
8
Black
10
110.212
20
-117.284
11
110.189
21
-117.297
0
LINE
8
Black
10
110.189
20
-117.297
11
103.685
21
-119.734
0
LINE
8
Black
10
103.685
20
-119.734
11
103.685
21
-119.734
0
LINE
8
Black
10
103.685
20
-119.734
11
103.659
21
-119.739
0
LINE
8
Black
10
103.659
20
-119.739
11
96.7131
21
-119.804
0
LINE
8
Black
10
96.7131
20
-119.804
11
96.6874
21
-119.8
0
LINE
8
Black
10
96.6874
20
-119.8
11
96.6874
21
-119.8
0
LINE
8
Black
10
96.6874
20
-119.8
11
90.1379
21
-117.485
0
LINE
8
Black
10
90.1379
20
-117.485
11
90.1153
21
-117.473
0
LINE
8
Black
10
90.1153
20
-117.473
11
90.1153
21
-117.473
0
LINE
8
Black
10
90.1153
20
-117.473
11
84.7523
21
-113.058
0
LINE
8
Black
10
84.7523
20
-113.058
11
84.7354
21
-113.038
0
LINE
8
Black
10
84.7354
20
-113.038
11
84.7354
21
-113.038
0
LINE
8
Black
10
84.7354
20
-113.038
11
81.2058
21
-107.055
0
LINE
8
Black
10
81.2058
20
-107.055
11
81.1967
21
-107.031
0
LINE
8
Black
10
81.1967
20
-107.031
11
79.9262
21
-100.202
0
LINE
8
Black
10
79.9262
20
-100.202
11
79.9259
21
-100.176
0
LINE
8
Black
10
79.9259
20
-100.176
11
79.9259
21
-100.176
0
LINE
8
Black
10
79.9259
20
-100.176
11
81.0677
21
-93.3241
0
LINE
8
Black
10
81.0677
20
-93.3241
11
81.0764
21
-93.2995
0
LINE
8
Black
10
81.0764
20
-93.2995
11
81.0764
21
-93.2995
0
LINE
8
Black
10
81.0764
20
-93.2995
11
84.4927
21
-87.2515
0
LINE
8
Black
10
84.4927
20
-87.2515
11
84.4971
21
-87.2461
0
LINE
8
Black
10
84.4971
20
-87.2461
11
84.5006
21
-87.2401
0
LINE
8
Black
10
84.5006
20
-87.2401
11
84.7425
21
-86.9518
0
LINE
8
Black
10
84.7425
20
-86.9518
11
84.7476
21
-86.9476
0
LINE
8
Black
10
84.7476
20
-86.9476
11
84.7518
21
-86.9425
0
LINE
8
Black
10
84.7518
20
-86.9425
11
84.7575
21
-86.9393
0
LINE
8
Black
10
84.7575
20
-86.9393
11
84.7625
21
-86.935
0
LINE
8
Black
10
84.7625
20
-86.935
11
84.7687
21
-86.9328
0
LINE
8
Black
10
84.7687
20
-86.9328
11
84.7743
21
-86.9295
0
LINE
8
Black
10
84.7743
20
-86.9295
11
84.7808
21
-86.9284
0
LINE
8
Black
10
84.7808
20
-86.9284
11
84.787
21
-86.9261
0
LINE
8
Black
10
84.787
20
-86.9261
11
84.7935
21
-86.9261
0
LINE
8
Black
10
84.7935
20
-86.9261
11
84.8
21
-86.925
0
LINE
8
Black
10
84.8
20
-86.925
11
115.2
21
-86.925
0
LINE
8
Black
10
115.2
20
-86.925
11
115.212
21
-86.9272
0
LINE
8
Black
10
84.835
20
-87.075
11
84.6199
21
-87.3313
0
LINE
8
Black
10
84.6199
20
-87.3313
11
81.2135
21
-93.3618
0
LINE
8
Black
10
81.2135
20
-93.3618
11
80.076
21
-100.187
0
LINE
8
Black
10
80.076
20
-100.187
11
81.3417
21
-106.991
0
LINE
8
Black
10
81.3417
20
-106.991
11
84.8579
21
-112.951
0
LINE
8
Black
10
84.8579
20
-112.951
11
90.2004
21
-117.348
0
LINE
8
Black
10
90.2004
20
-117.348
11
96.7249
21
-119.654
0
LINE
8
Black
10
96.7249
20
-119.654
11
103.644
21
-119.589
0
LINE
8
Black
10
103.644
20
-119.589
11
110.124
21
-117.161
0
LINE
8
Black
10
110.124
20
-117.161
11
115.383
21
-112.663
0
LINE
8
Black
10
115.383
20
-112.663
11
118.787
21
-106.638
0
LINE
8
Black
10
118.787
20
-106.638
11
119.924
21
-99.8125
0
LINE
8
Black
10
119.924
20
-99.8125
11
118.658
21
-93.0094
0
LINE
8
Black
10
118.658
20
-93.0094
11
115.157
21
-87.075
0
LINE
8
Black
10
115.157
20
-87.075
11
84.835
21
-87.075
  0
ENDSEC
  0
EOF
