G04 #@! TF.FileFunction,Legend,Bot*
%FSLAX46Y46*%
G04 Gerber Fmt 4.6, Leading zero omitted, Abs format (unit mm)*
G04 Created by KiCad (PCBNEW 4.1.0-alpha+201605071002+6776~44~ubuntu14.04.1-product) date Wed 29 Jun 2016 02:15:50 BST*
%MOMM*%
%LPD*%
G01*
G04 APERTURE LIST*
%ADD10C,0.100000*%
%ADD11C,0.150000*%
%ADD12C,0.010000*%
%ADD13R,2.220000X0.740000*%
%ADD14C,1.200000*%
%ADD15R,0.740000X2.220000*%
G04 APERTURE END LIST*
D10*
D11*
X83550000Y-106465000D02*
X84315000Y-106465000D01*
X84315000Y-106465000D02*
X84315000Y-108245000D01*
X84315000Y-108245000D02*
X85685000Y-108245000D01*
X85685000Y-108245000D02*
X85685000Y-106465000D01*
X85685000Y-106465000D02*
X86450000Y-106465000D01*
X86450000Y-106465000D02*
X86450000Y-106165000D01*
X86450000Y-93835000D02*
X86450000Y-93535000D01*
X86450000Y-93535000D02*
X85685000Y-93535000D01*
X85685000Y-93535000D02*
X85685000Y-91755000D01*
X85685000Y-91755000D02*
X84315000Y-91755000D01*
X84315000Y-91755000D02*
X84315000Y-93535000D01*
X84315000Y-93535000D02*
X83550000Y-93535000D01*
X113550000Y-106465000D02*
X114315000Y-106465000D01*
X114315000Y-106465000D02*
X114315000Y-108245000D01*
X114315000Y-108245000D02*
X115685000Y-108245000D01*
X115685000Y-108245000D02*
X115685000Y-106465000D01*
X115685000Y-106465000D02*
X116450000Y-106465000D01*
X116450000Y-106465000D02*
X116450000Y-106165000D01*
X116450000Y-93835000D02*
X116450000Y-93535000D01*
X116450000Y-93535000D02*
X115685000Y-93535000D01*
X115685000Y-93535000D02*
X115685000Y-91755000D01*
X115685000Y-91755000D02*
X114315000Y-91755000D01*
X114315000Y-91755000D02*
X114315000Y-93535000D01*
X114315000Y-93535000D02*
X113550000Y-93535000D01*
X103290000Y-85950000D02*
X103290000Y-85185000D01*
X103290000Y-85185000D02*
X105070000Y-85185000D01*
X105070000Y-85185000D02*
X105070000Y-83815000D01*
X105070000Y-83815000D02*
X103290000Y-83815000D01*
X103290000Y-83815000D02*
X103290000Y-83050000D01*
X103290000Y-83050000D02*
X102990000Y-83050000D01*
X97010000Y-83050000D02*
X96710000Y-83050000D01*
X96710000Y-83050000D02*
X96710000Y-83815000D01*
X96710000Y-83815000D02*
X94930000Y-83815000D01*
X94930000Y-83815000D02*
X94930000Y-85185000D01*
X94930000Y-85185000D02*
X96710000Y-85185000D01*
X96710000Y-85185000D02*
X96710000Y-85950000D01*
D12*
G36*
X109366746Y-105329605D02*
X109285442Y-105379704D01*
X109164060Y-105458223D01*
X109008517Y-105561089D01*
X108824731Y-105684226D01*
X108618620Y-105823561D01*
X108396102Y-105975019D01*
X108163093Y-106134527D01*
X107925513Y-106298010D01*
X107689277Y-106461395D01*
X107460305Y-106620607D01*
X107244514Y-106771572D01*
X107047820Y-106910216D01*
X106876143Y-107032464D01*
X106735400Y-107134244D01*
X106631508Y-107211480D01*
X106570385Y-107260098D01*
X106563790Y-107266051D01*
X106491248Y-107366783D01*
X106475500Y-107441941D01*
X106492938Y-107512282D01*
X106546104Y-107533818D01*
X106636275Y-107506377D01*
X106764731Y-107429792D01*
X106810460Y-107397544D01*
X106876864Y-107350318D01*
X106989038Y-107271609D01*
X107140455Y-107165953D01*
X107324589Y-107037886D01*
X107534915Y-106891943D01*
X107764906Y-106732660D01*
X108008035Y-106564574D01*
X108142375Y-106471824D01*
X108385283Y-106303745D01*
X108614565Y-106144229D01*
X108824362Y-105997414D01*
X109008816Y-105867438D01*
X109162068Y-105758440D01*
X109278261Y-105674559D01*
X109351535Y-105619933D01*
X109372688Y-105602714D01*
X109429417Y-105528503D01*
X109459796Y-105445162D01*
X109462046Y-105370285D01*
X109434394Y-105321467D01*
X109402055Y-105312000D01*
X109366746Y-105329605D01*
X109366746Y-105329605D01*
G37*
X109366746Y-105329605D02*
X109285442Y-105379704D01*
X109164060Y-105458223D01*
X109008517Y-105561089D01*
X108824731Y-105684226D01*
X108618620Y-105823561D01*
X108396102Y-105975019D01*
X108163093Y-106134527D01*
X107925513Y-106298010D01*
X107689277Y-106461395D01*
X107460305Y-106620607D01*
X107244514Y-106771572D01*
X107047820Y-106910216D01*
X106876143Y-107032464D01*
X106735400Y-107134244D01*
X106631508Y-107211480D01*
X106570385Y-107260098D01*
X106563790Y-107266051D01*
X106491248Y-107366783D01*
X106475500Y-107441941D01*
X106492938Y-107512282D01*
X106546104Y-107533818D01*
X106636275Y-107506377D01*
X106764731Y-107429792D01*
X106810460Y-107397544D01*
X106876864Y-107350318D01*
X106989038Y-107271609D01*
X107140455Y-107165953D01*
X107324589Y-107037886D01*
X107534915Y-106891943D01*
X107764906Y-106732660D01*
X108008035Y-106564574D01*
X108142375Y-106471824D01*
X108385283Y-106303745D01*
X108614565Y-106144229D01*
X108824362Y-105997414D01*
X109008816Y-105867438D01*
X109162068Y-105758440D01*
X109278261Y-105674559D01*
X109351535Y-105619933D01*
X109372688Y-105602714D01*
X109429417Y-105528503D01*
X109459796Y-105445162D01*
X109462046Y-105370285D01*
X109434394Y-105321467D01*
X109402055Y-105312000D01*
X109366746Y-105329605D01*
G36*
X109373151Y-104408983D02*
X109290766Y-104459461D01*
X109168413Y-104538601D01*
X109011974Y-104642322D01*
X108827331Y-104766541D01*
X108620366Y-104907176D01*
X108396959Y-105060144D01*
X108162992Y-105221364D01*
X107924346Y-105386753D01*
X107686904Y-105552229D01*
X107456547Y-105713709D01*
X107239155Y-105867111D01*
X107040612Y-106008354D01*
X106866797Y-106133354D01*
X106723592Y-106238031D01*
X106616880Y-106318300D01*
X106552541Y-106370080D01*
X106537415Y-106384851D01*
X106492331Y-106471052D01*
X106480089Y-106559578D01*
X106499518Y-106631386D01*
X106549444Y-106667432D01*
X106554875Y-106668217D01*
X106595308Y-106651635D01*
X106684290Y-106599944D01*
X106818829Y-106515119D01*
X106995931Y-106399140D01*
X107212602Y-106253985D01*
X107465850Y-106081632D01*
X107752682Y-105884059D01*
X107973012Y-105730997D01*
X108235943Y-105547497D01*
X108484569Y-105373482D01*
X108713726Y-105212598D01*
X108918249Y-105068497D01*
X109092974Y-104944825D01*
X109232738Y-104845234D01*
X109332376Y-104773371D01*
X109386724Y-104732885D01*
X109393825Y-104727046D01*
X109434942Y-104664412D01*
X109458510Y-104579566D01*
X109463584Y-104492489D01*
X109449222Y-104423161D01*
X109414478Y-104391565D01*
X109409688Y-104391250D01*
X109373151Y-104408983D01*
X109373151Y-104408983D01*
G37*
X109373151Y-104408983D02*
X109290766Y-104459461D01*
X109168413Y-104538601D01*
X109011974Y-104642322D01*
X108827331Y-104766541D01*
X108620366Y-104907176D01*
X108396959Y-105060144D01*
X108162992Y-105221364D01*
X107924346Y-105386753D01*
X107686904Y-105552229D01*
X107456547Y-105713709D01*
X107239155Y-105867111D01*
X107040612Y-106008354D01*
X106866797Y-106133354D01*
X106723592Y-106238031D01*
X106616880Y-106318300D01*
X106552541Y-106370080D01*
X106537415Y-106384851D01*
X106492331Y-106471052D01*
X106480089Y-106559578D01*
X106499518Y-106631386D01*
X106549444Y-106667432D01*
X106554875Y-106668217D01*
X106595308Y-106651635D01*
X106684290Y-106599944D01*
X106818829Y-106515119D01*
X106995931Y-106399140D01*
X107212602Y-106253985D01*
X107465850Y-106081632D01*
X107752682Y-105884059D01*
X107973012Y-105730997D01*
X108235943Y-105547497D01*
X108484569Y-105373482D01*
X108713726Y-105212598D01*
X108918249Y-105068497D01*
X109092974Y-104944825D01*
X109232738Y-104845234D01*
X109332376Y-104773371D01*
X109386724Y-104732885D01*
X109393825Y-104727046D01*
X109434942Y-104664412D01*
X109458510Y-104579566D01*
X109463584Y-104492489D01*
X109449222Y-104423161D01*
X109414478Y-104391565D01*
X109409688Y-104391250D01*
X109373151Y-104408983D01*
G36*
X109366509Y-103383936D02*
X109338166Y-103395906D01*
X109296346Y-103418744D01*
X109236958Y-103455127D01*
X109155910Y-103507734D01*
X109049110Y-103579247D01*
X108912467Y-103672343D01*
X108741889Y-103789701D01*
X108533286Y-103934002D01*
X108282565Y-104107924D01*
X107985634Y-104314148D01*
X107833582Y-104419775D01*
X107500640Y-104652106D01*
X107219183Y-104850812D01*
X106987593Y-105017090D01*
X106804253Y-105152136D01*
X106667548Y-105257148D01*
X106575860Y-105333323D01*
X106527573Y-105381857D01*
X106521262Y-105391293D01*
X106486709Y-105489500D01*
X106477745Y-105592525D01*
X106492606Y-105681643D01*
X106529528Y-105738127D01*
X106554875Y-105748186D01*
X106596075Y-105731776D01*
X106686102Y-105679917D01*
X106822312Y-105594351D01*
X107002060Y-105476817D01*
X107222703Y-105329055D01*
X107481597Y-105152805D01*
X107776097Y-104949807D01*
X107920125Y-104849784D01*
X108180108Y-104668601D01*
X108427561Y-104495679D01*
X108656921Y-104334938D01*
X108862623Y-104190300D01*
X109039100Y-104065687D01*
X109180790Y-103965020D01*
X109282126Y-103892222D01*
X109337543Y-103851213D01*
X109340938Y-103848539D01*
X109410244Y-103787937D01*
X109445665Y-103733192D01*
X109458465Y-103658811D01*
X109460000Y-103579132D01*
X109453992Y-103466146D01*
X109434098Y-103404531D01*
X109411589Y-103386429D01*
X109399129Y-103381876D01*
X109385466Y-103380152D01*
X109366509Y-103383936D01*
X109366509Y-103383936D01*
G37*
X109366509Y-103383936D02*
X109338166Y-103395906D01*
X109296346Y-103418744D01*
X109236958Y-103455127D01*
X109155910Y-103507734D01*
X109049110Y-103579247D01*
X108912467Y-103672343D01*
X108741889Y-103789701D01*
X108533286Y-103934002D01*
X108282565Y-104107924D01*
X107985634Y-104314148D01*
X107833582Y-104419775D01*
X107500640Y-104652106D01*
X107219183Y-104850812D01*
X106987593Y-105017090D01*
X106804253Y-105152136D01*
X106667548Y-105257148D01*
X106575860Y-105333323D01*
X106527573Y-105381857D01*
X106521262Y-105391293D01*
X106486709Y-105489500D01*
X106477745Y-105592525D01*
X106492606Y-105681643D01*
X106529528Y-105738127D01*
X106554875Y-105748186D01*
X106596075Y-105731776D01*
X106686102Y-105679917D01*
X106822312Y-105594351D01*
X107002060Y-105476817D01*
X107222703Y-105329055D01*
X107481597Y-105152805D01*
X107776097Y-104949807D01*
X107920125Y-104849784D01*
X108180108Y-104668601D01*
X108427561Y-104495679D01*
X108656921Y-104334938D01*
X108862623Y-104190300D01*
X109039100Y-104065687D01*
X109180790Y-103965020D01*
X109282126Y-103892222D01*
X109337543Y-103851213D01*
X109340938Y-103848539D01*
X109410244Y-103787937D01*
X109445665Y-103733192D01*
X109458465Y-103658811D01*
X109460000Y-103579132D01*
X109453992Y-103466146D01*
X109434098Y-103404531D01*
X109411589Y-103386429D01*
X109399129Y-103381876D01*
X109385466Y-103380152D01*
X109366509Y-103383936D01*
G36*
X109350469Y-102285271D02*
X109265510Y-102333706D01*
X109140394Y-102411706D01*
X108980856Y-102515565D01*
X108792630Y-102641579D01*
X108581450Y-102786042D01*
X108452912Y-102875286D01*
X108213328Y-103042396D01*
X107963726Y-103216323D01*
X107715798Y-103388933D01*
X107481235Y-103552091D01*
X107271729Y-103697662D01*
X107098971Y-103817511D01*
X107054836Y-103848079D01*
X106893973Y-103961262D01*
X106750304Y-104065804D01*
X106632445Y-104155156D01*
X106549008Y-104222771D01*
X106508607Y-104262100D01*
X106507149Y-104264440D01*
X106483668Y-104341165D01*
X106474088Y-104442561D01*
X106477498Y-104547753D01*
X106492985Y-104635866D01*
X106519637Y-104686024D01*
X106525722Y-104689478D01*
X106569651Y-104703375D01*
X106608447Y-104700588D01*
X106660045Y-104674807D01*
X106742383Y-104619723D01*
X106761250Y-104606627D01*
X107203371Y-104299240D01*
X107595917Y-104026005D01*
X107941583Y-103785011D01*
X108243060Y-103574347D01*
X108503040Y-103392102D01*
X108724216Y-103236366D01*
X108909280Y-103105226D01*
X109060923Y-102996772D01*
X109181839Y-102909094D01*
X109274720Y-102840279D01*
X109342257Y-102788416D01*
X109387143Y-102751596D01*
X109412070Y-102727906D01*
X109417393Y-102721172D01*
X109445344Y-102646292D01*
X109457347Y-102545527D01*
X109454607Y-102438373D01*
X109438327Y-102344324D01*
X109409712Y-102282874D01*
X109389537Y-102270105D01*
X109350469Y-102285271D01*
X109350469Y-102285271D01*
G37*
X109350469Y-102285271D02*
X109265510Y-102333706D01*
X109140394Y-102411706D01*
X108980856Y-102515565D01*
X108792630Y-102641579D01*
X108581450Y-102786042D01*
X108452912Y-102875286D01*
X108213328Y-103042396D01*
X107963726Y-103216323D01*
X107715798Y-103388933D01*
X107481235Y-103552091D01*
X107271729Y-103697662D01*
X107098971Y-103817511D01*
X107054836Y-103848079D01*
X106893973Y-103961262D01*
X106750304Y-104065804D01*
X106632445Y-104155156D01*
X106549008Y-104222771D01*
X106508607Y-104262100D01*
X106507149Y-104264440D01*
X106483668Y-104341165D01*
X106474088Y-104442561D01*
X106477498Y-104547753D01*
X106492985Y-104635866D01*
X106519637Y-104686024D01*
X106525722Y-104689478D01*
X106569651Y-104703375D01*
X106608447Y-104700588D01*
X106660045Y-104674807D01*
X106742383Y-104619723D01*
X106761250Y-104606627D01*
X107203371Y-104299240D01*
X107595917Y-104026005D01*
X107941583Y-103785011D01*
X108243060Y-103574347D01*
X108503040Y-103392102D01*
X108724216Y-103236366D01*
X108909280Y-103105226D01*
X109060923Y-102996772D01*
X109181839Y-102909094D01*
X109274720Y-102840279D01*
X109342257Y-102788416D01*
X109387143Y-102751596D01*
X109412070Y-102727906D01*
X109417393Y-102721172D01*
X109445344Y-102646292D01*
X109457347Y-102545527D01*
X109454607Y-102438373D01*
X109438327Y-102344324D01*
X109409712Y-102282874D01*
X109389537Y-102270105D01*
X109350469Y-102285271D01*
G36*
X109372688Y-101095954D02*
X109330564Y-101116366D01*
X109242702Y-101169327D01*
X109115170Y-101250662D01*
X108954033Y-101356198D01*
X108765357Y-101481759D01*
X108555210Y-101623172D01*
X108329658Y-101776261D01*
X108094766Y-101936853D01*
X107856603Y-102100772D01*
X107621232Y-102263845D01*
X107394723Y-102421896D01*
X107183139Y-102570753D01*
X106992549Y-102706239D01*
X106829019Y-102824180D01*
X106698614Y-102920403D01*
X106607401Y-102990732D01*
X106562813Y-103029507D01*
X106513712Y-103089900D01*
X106487304Y-103153073D01*
X106476882Y-103241774D01*
X106475500Y-103325529D01*
X106480005Y-103475596D01*
X106494883Y-103570741D01*
X106522181Y-103618995D01*
X106552868Y-103629250D01*
X106585934Y-103611672D01*
X106665922Y-103561257D01*
X106787663Y-103481479D01*
X106945985Y-103375812D01*
X107135720Y-103247731D01*
X107351696Y-103100710D01*
X107588744Y-102938225D01*
X107841694Y-102763751D01*
X107875034Y-102740675D01*
X108134905Y-102560241D01*
X108383338Y-102386790D01*
X108614519Y-102224449D01*
X108822636Y-102077341D01*
X109001875Y-101949594D01*
X109146422Y-101845332D01*
X109250464Y-101768681D01*
X109308187Y-101723766D01*
X109309188Y-101722913D01*
X109460000Y-101593726D01*
X109460000Y-101082042D01*
X109372688Y-101095954D01*
X109372688Y-101095954D01*
G37*
X109372688Y-101095954D02*
X109330564Y-101116366D01*
X109242702Y-101169327D01*
X109115170Y-101250662D01*
X108954033Y-101356198D01*
X108765357Y-101481759D01*
X108555210Y-101623172D01*
X108329658Y-101776261D01*
X108094766Y-101936853D01*
X107856603Y-102100772D01*
X107621232Y-102263845D01*
X107394723Y-102421896D01*
X107183139Y-102570753D01*
X106992549Y-102706239D01*
X106829019Y-102824180D01*
X106698614Y-102920403D01*
X106607401Y-102990732D01*
X106562813Y-103029507D01*
X106513712Y-103089900D01*
X106487304Y-103153073D01*
X106476882Y-103241774D01*
X106475500Y-103325529D01*
X106480005Y-103475596D01*
X106494883Y-103570741D01*
X106522181Y-103618995D01*
X106552868Y-103629250D01*
X106585934Y-103611672D01*
X106665922Y-103561257D01*
X106787663Y-103481479D01*
X106945985Y-103375812D01*
X107135720Y-103247731D01*
X107351696Y-103100710D01*
X107588744Y-102938225D01*
X107841694Y-102763751D01*
X107875034Y-102740675D01*
X108134905Y-102560241D01*
X108383338Y-102386790D01*
X108614519Y-102224449D01*
X108822636Y-102077341D01*
X109001875Y-101949594D01*
X109146422Y-101845332D01*
X109250464Y-101768681D01*
X109308187Y-101723766D01*
X109309188Y-101722913D01*
X109460000Y-101593726D01*
X109460000Y-101082042D01*
X109372688Y-101095954D01*
G36*
X107945802Y-88918264D02*
X107896605Y-88982676D01*
X107823792Y-89092539D01*
X107726090Y-89249908D01*
X107602227Y-89456836D01*
X107450930Y-89715378D01*
X107270928Y-90027586D01*
X107252505Y-90059735D01*
X107107939Y-90313144D01*
X106971522Y-90554239D01*
X106846912Y-90776407D01*
X106737771Y-90973035D01*
X106647757Y-91137512D01*
X106580531Y-91263225D01*
X106539754Y-91343563D01*
X106530972Y-91363240D01*
X106523909Y-91383729D01*
X106517479Y-91409665D01*
X106511657Y-91443911D01*
X106506420Y-91489331D01*
X106501742Y-91548789D01*
X106497600Y-91625149D01*
X106493968Y-91721275D01*
X106490823Y-91840030D01*
X106488139Y-91984278D01*
X106485894Y-92156883D01*
X106484061Y-92360709D01*
X106482616Y-92598619D01*
X106481536Y-92873477D01*
X106480795Y-93188148D01*
X106480369Y-93545494D01*
X106480234Y-93948380D01*
X106480365Y-94399670D01*
X106480738Y-94902226D01*
X106481329Y-95458914D01*
X106482112Y-96072597D01*
X106483063Y-96746138D01*
X106483347Y-96939692D01*
X106491375Y-102375125D01*
X106570750Y-102380748D01*
X106606360Y-102370566D01*
X106673722Y-102335935D01*
X106775491Y-102275112D01*
X106914320Y-102186350D01*
X107092863Y-102067908D01*
X107313774Y-101918039D01*
X107579708Y-101735000D01*
X107893318Y-101517046D01*
X108028804Y-101422426D01*
X108292515Y-101237512D01*
X108540669Y-101062478D01*
X108768342Y-100900868D01*
X108970607Y-100756229D01*
X109142538Y-100632105D01*
X109279210Y-100532042D01*
X109375696Y-100459585D01*
X109427071Y-100418280D01*
X109434066Y-100410979D01*
X109437143Y-100374153D01*
X109440003Y-100277453D01*
X109442634Y-100124506D01*
X109445019Y-99918938D01*
X109447145Y-99664376D01*
X109448997Y-99364446D01*
X109450559Y-99022774D01*
X109451818Y-98642986D01*
X109452463Y-98358750D01*
X108761500Y-98358750D01*
X108761500Y-100232000D01*
X108380500Y-100232000D01*
X108380500Y-99470000D01*
X107396250Y-99470000D01*
X107396250Y-99152500D01*
X108380500Y-99152500D01*
X108380500Y-98676250D01*
X107237500Y-98676250D01*
X107237500Y-98358750D01*
X108761500Y-98358750D01*
X109452463Y-98358750D01*
X109452759Y-98228709D01*
X109453367Y-97783569D01*
X109453628Y-97311193D01*
X109453628Y-97311000D01*
X108769681Y-97311000D01*
X108747964Y-97474715D01*
X108728744Y-97572431D01*
X108699317Y-97673895D01*
X108666405Y-97760141D01*
X108636733Y-97812205D01*
X108625748Y-97819478D01*
X108594560Y-97829760D01*
X108524650Y-97855027D01*
X108491625Y-97867252D01*
X108396225Y-97888699D01*
X108257406Y-97902384D01*
X108091472Y-97908577D01*
X107914730Y-97907549D01*
X107743484Y-97899568D01*
X107594039Y-97884907D01*
X107482701Y-97863835D01*
X107444165Y-97849886D01*
X107360667Y-97786192D01*
X107301290Y-97707585D01*
X107273794Y-97615178D01*
X107257645Y-97483701D01*
X107252942Y-97334768D01*
X107259788Y-97189990D01*
X107278284Y-97070979D01*
X107298040Y-97014906D01*
X107354630Y-96948568D01*
X107449744Y-96895948D01*
X107590063Y-96854905D01*
X107782268Y-96823296D01*
X107950870Y-96805671D01*
X108115382Y-96789047D01*
X108227138Y-96771663D01*
X108296864Y-96751144D01*
X108335283Y-96725113D01*
X108339808Y-96719513D01*
X108375348Y-96624497D01*
X108373126Y-96510035D01*
X108334799Y-96406463D01*
X108321717Y-96388190D01*
X108285461Y-96351764D01*
X108238715Y-96329736D01*
X108165516Y-96318380D01*
X108049901Y-96313965D01*
X108001529Y-96313412D01*
X107844414Y-96318445D01*
X107740332Y-96340136D01*
X107679856Y-96383692D01*
X107653560Y-96454319D01*
X107650250Y-96507443D01*
X107645452Y-96547846D01*
X107621253Y-96569830D01*
X107562953Y-96578947D01*
X107456145Y-96580750D01*
X107262040Y-96580750D01*
X107283995Y-96429937D01*
X107314361Y-96292277D01*
X107365256Y-96188679D01*
X107444555Y-96114810D01*
X107560138Y-96066336D01*
X107719883Y-96038925D01*
X107931667Y-96028244D01*
X108015375Y-96027652D01*
X108251022Y-96034971D01*
X108431169Y-96059929D01*
X108562534Y-96107448D01*
X108651830Y-96182450D01*
X108705772Y-96289858D01*
X108731077Y-96434592D01*
X108735353Y-96555376D01*
X108727724Y-96727630D01*
X108699482Y-96856636D01*
X108642597Y-96949737D01*
X108549040Y-97014272D01*
X108410781Y-97057581D01*
X108219789Y-97087006D01*
X108145284Y-97094779D01*
X107955935Y-97114202D01*
X107820029Y-97132102D01*
X107727673Y-97151488D01*
X107668970Y-97175368D01*
X107634026Y-97206752D01*
X107612948Y-97248648D01*
X107609837Y-97257616D01*
X107595130Y-97352072D01*
X107600919Y-97455930D01*
X107601120Y-97457014D01*
X107627284Y-97533500D01*
X107678703Y-97584278D01*
X107765899Y-97613879D01*
X107899393Y-97626831D01*
X107999500Y-97628500D01*
X108160099Y-97623830D01*
X108268795Y-97606266D01*
X108336731Y-97570471D01*
X108375052Y-97511113D01*
X108392296Y-97440479D01*
X108413001Y-97311000D01*
X108769681Y-97311000D01*
X109453628Y-97311000D01*
X109453526Y-96815206D01*
X109453048Y-96299235D01*
X109452387Y-95876551D01*
X109448394Y-93707375D01*
X108745625Y-93707375D01*
X108745625Y-94469375D01*
X108745251Y-94711903D01*
X108743709Y-94899760D01*
X108740367Y-95041774D01*
X108734595Y-95146771D01*
X108725764Y-95223579D01*
X108713241Y-95281023D01*
X108696398Y-95327932D01*
X108682125Y-95358375D01*
X108617702Y-95451813D01*
X108526416Y-95518906D01*
X108400050Y-95562218D01*
X108230384Y-95584314D01*
X108009198Y-95587759D01*
X107951875Y-95586239D01*
X107743942Y-95573861D01*
X107584464Y-95552322D01*
X107485672Y-95524694D01*
X107419734Y-95493038D01*
X107367547Y-95456104D01*
X107327389Y-95406455D01*
X107297542Y-95336658D01*
X107276286Y-95239277D01*
X107261902Y-95106878D01*
X107252669Y-94932025D01*
X107246868Y-94707285D01*
X107243426Y-94477312D01*
X107233476Y-93691500D01*
X107582458Y-93691500D01*
X107592542Y-94424605D01*
X107595918Y-94658586D01*
X107599366Y-94837340D01*
X107603771Y-94969136D01*
X107610018Y-95062241D01*
X107618994Y-95124924D01*
X107631585Y-95165452D01*
X107648676Y-95192095D01*
X107671153Y-95213118D01*
X107677580Y-95218355D01*
X107733652Y-95251606D01*
X107810660Y-95270490D01*
X107925745Y-95278260D01*
X107996950Y-95279000D01*
X108107436Y-95279296D01*
X108193223Y-95275431D01*
X108257602Y-95260271D01*
X108303867Y-95226683D01*
X108335312Y-95167534D01*
X108355228Y-95075691D01*
X108366909Y-94944020D01*
X108373648Y-94765389D01*
X108378737Y-94532665D01*
X108380500Y-94448176D01*
X108396375Y-93707375D01*
X108745625Y-93707375D01*
X109448394Y-93707375D01*
X109445619Y-92200718D01*
X108757772Y-92200718D01*
X108742515Y-92516908D01*
X108733647Y-92605727D01*
X108704050Y-92818190D01*
X108664099Y-92976450D01*
X108607530Y-93089671D01*
X108528080Y-93167020D01*
X108419487Y-93217661D01*
X108295179Y-93247350D01*
X108183318Y-93258759D01*
X108036945Y-93261979D01*
X107875533Y-93257908D01*
X107718557Y-93247448D01*
X107585492Y-93231498D01*
X107495812Y-93210957D01*
X107494147Y-93210337D01*
X107408120Y-93164178D01*
X107341174Y-93112807D01*
X107302869Y-93069466D01*
X107275558Y-93014501D01*
X107255078Y-92933507D01*
X107237268Y-92812077D01*
X107226278Y-92715187D01*
X107211793Y-92580250D01*
X107586750Y-92580250D01*
X107586750Y-92687857D01*
X107605324Y-92805381D01*
X107665426Y-92885163D01*
X107773627Y-92932924D01*
X107888980Y-92951058D01*
X108070652Y-92956906D01*
X108201242Y-92935551D01*
X108288153Y-92884519D01*
X108338791Y-92801337D01*
X108339021Y-92800676D01*
X108353400Y-92725519D01*
X108364368Y-92603360D01*
X108371704Y-92450612D01*
X108375188Y-92283694D01*
X108374600Y-92119020D01*
X108369721Y-91973007D01*
X108360330Y-91862072D01*
X108352185Y-91818250D01*
X108300340Y-91744484D01*
X108198011Y-91693733D01*
X108055014Y-91669099D01*
X107891625Y-91672597D01*
X107753465Y-91693590D01*
X107668585Y-91726998D01*
X107627097Y-91778714D01*
X107618500Y-91835415D01*
X107610581Y-91928137D01*
X107577976Y-91980763D01*
X107507412Y-92004031D01*
X107404287Y-92008750D01*
X107228617Y-92008750D01*
X107246774Y-91832817D01*
X107272414Y-91677305D01*
X107318003Y-91559499D01*
X107390988Y-91475006D01*
X107498814Y-91419430D01*
X107648929Y-91388378D01*
X107848778Y-91377455D01*
X108015375Y-91379241D01*
X108184424Y-91385291D01*
X108304334Y-91394214D01*
X108389467Y-91408393D01*
X108454182Y-91430210D01*
X108512235Y-91461672D01*
X108619166Y-91565312D01*
X108695879Y-91723788D01*
X108742154Y-91935967D01*
X108757772Y-92200718D01*
X109445619Y-92200718D01*
X109444125Y-91389625D01*
X108795933Y-90230750D01*
X108624580Y-89924550D01*
X108481316Y-89669194D01*
X108363291Y-89460069D01*
X108267658Y-89292562D01*
X108191570Y-89162061D01*
X108132179Y-89063953D01*
X108086637Y-88993627D01*
X108052098Y-88946471D01*
X108025713Y-88917871D01*
X108004635Y-88903216D01*
X107986017Y-88897893D01*
X107972655Y-88897250D01*
X107945802Y-88918264D01*
X107945802Y-88918264D01*
G37*
X107945802Y-88918264D02*
X107896605Y-88982676D01*
X107823792Y-89092539D01*
X107726090Y-89249908D01*
X107602227Y-89456836D01*
X107450930Y-89715378D01*
X107270928Y-90027586D01*
X107252505Y-90059735D01*
X107107939Y-90313144D01*
X106971522Y-90554239D01*
X106846912Y-90776407D01*
X106737771Y-90973035D01*
X106647757Y-91137512D01*
X106580531Y-91263225D01*
X106539754Y-91343563D01*
X106530972Y-91363240D01*
X106523909Y-91383729D01*
X106517479Y-91409665D01*
X106511657Y-91443911D01*
X106506420Y-91489331D01*
X106501742Y-91548789D01*
X106497600Y-91625149D01*
X106493968Y-91721275D01*
X106490823Y-91840030D01*
X106488139Y-91984278D01*
X106485894Y-92156883D01*
X106484061Y-92360709D01*
X106482616Y-92598619D01*
X106481536Y-92873477D01*
X106480795Y-93188148D01*
X106480369Y-93545494D01*
X106480234Y-93948380D01*
X106480365Y-94399670D01*
X106480738Y-94902226D01*
X106481329Y-95458914D01*
X106482112Y-96072597D01*
X106483063Y-96746138D01*
X106483347Y-96939692D01*
X106491375Y-102375125D01*
X106570750Y-102380748D01*
X106606360Y-102370566D01*
X106673722Y-102335935D01*
X106775491Y-102275112D01*
X106914320Y-102186350D01*
X107092863Y-102067908D01*
X107313774Y-101918039D01*
X107579708Y-101735000D01*
X107893318Y-101517046D01*
X108028804Y-101422426D01*
X108292515Y-101237512D01*
X108540669Y-101062478D01*
X108768342Y-100900868D01*
X108970607Y-100756229D01*
X109142538Y-100632105D01*
X109279210Y-100532042D01*
X109375696Y-100459585D01*
X109427071Y-100418280D01*
X109434066Y-100410979D01*
X109437143Y-100374153D01*
X109440003Y-100277453D01*
X109442634Y-100124506D01*
X109445019Y-99918938D01*
X109447145Y-99664376D01*
X109448997Y-99364446D01*
X109450559Y-99022774D01*
X109451818Y-98642986D01*
X109452463Y-98358750D01*
X108761500Y-98358750D01*
X108761500Y-100232000D01*
X108380500Y-100232000D01*
X108380500Y-99470000D01*
X107396250Y-99470000D01*
X107396250Y-99152500D01*
X108380500Y-99152500D01*
X108380500Y-98676250D01*
X107237500Y-98676250D01*
X107237500Y-98358750D01*
X108761500Y-98358750D01*
X109452463Y-98358750D01*
X109452759Y-98228709D01*
X109453367Y-97783569D01*
X109453628Y-97311193D01*
X109453628Y-97311000D01*
X108769681Y-97311000D01*
X108747964Y-97474715D01*
X108728744Y-97572431D01*
X108699317Y-97673895D01*
X108666405Y-97760141D01*
X108636733Y-97812205D01*
X108625748Y-97819478D01*
X108594560Y-97829760D01*
X108524650Y-97855027D01*
X108491625Y-97867252D01*
X108396225Y-97888699D01*
X108257406Y-97902384D01*
X108091472Y-97908577D01*
X107914730Y-97907549D01*
X107743484Y-97899568D01*
X107594039Y-97884907D01*
X107482701Y-97863835D01*
X107444165Y-97849886D01*
X107360667Y-97786192D01*
X107301290Y-97707585D01*
X107273794Y-97615178D01*
X107257645Y-97483701D01*
X107252942Y-97334768D01*
X107259788Y-97189990D01*
X107278284Y-97070979D01*
X107298040Y-97014906D01*
X107354630Y-96948568D01*
X107449744Y-96895948D01*
X107590063Y-96854905D01*
X107782268Y-96823296D01*
X107950870Y-96805671D01*
X108115382Y-96789047D01*
X108227138Y-96771663D01*
X108296864Y-96751144D01*
X108335283Y-96725113D01*
X108339808Y-96719513D01*
X108375348Y-96624497D01*
X108373126Y-96510035D01*
X108334799Y-96406463D01*
X108321717Y-96388190D01*
X108285461Y-96351764D01*
X108238715Y-96329736D01*
X108165516Y-96318380D01*
X108049901Y-96313965D01*
X108001529Y-96313412D01*
X107844414Y-96318445D01*
X107740332Y-96340136D01*
X107679856Y-96383692D01*
X107653560Y-96454319D01*
X107650250Y-96507443D01*
X107645452Y-96547846D01*
X107621253Y-96569830D01*
X107562953Y-96578947D01*
X107456145Y-96580750D01*
X107262040Y-96580750D01*
X107283995Y-96429937D01*
X107314361Y-96292277D01*
X107365256Y-96188679D01*
X107444555Y-96114810D01*
X107560138Y-96066336D01*
X107719883Y-96038925D01*
X107931667Y-96028244D01*
X108015375Y-96027652D01*
X108251022Y-96034971D01*
X108431169Y-96059929D01*
X108562534Y-96107448D01*
X108651830Y-96182450D01*
X108705772Y-96289858D01*
X108731077Y-96434592D01*
X108735353Y-96555376D01*
X108727724Y-96727630D01*
X108699482Y-96856636D01*
X108642597Y-96949737D01*
X108549040Y-97014272D01*
X108410781Y-97057581D01*
X108219789Y-97087006D01*
X108145284Y-97094779D01*
X107955935Y-97114202D01*
X107820029Y-97132102D01*
X107727673Y-97151488D01*
X107668970Y-97175368D01*
X107634026Y-97206752D01*
X107612948Y-97248648D01*
X107609837Y-97257616D01*
X107595130Y-97352072D01*
X107600919Y-97455930D01*
X107601120Y-97457014D01*
X107627284Y-97533500D01*
X107678703Y-97584278D01*
X107765899Y-97613879D01*
X107899393Y-97626831D01*
X107999500Y-97628500D01*
X108160099Y-97623830D01*
X108268795Y-97606266D01*
X108336731Y-97570471D01*
X108375052Y-97511113D01*
X108392296Y-97440479D01*
X108413001Y-97311000D01*
X108769681Y-97311000D01*
X109453628Y-97311000D01*
X109453526Y-96815206D01*
X109453048Y-96299235D01*
X109452387Y-95876551D01*
X109448394Y-93707375D01*
X108745625Y-93707375D01*
X108745625Y-94469375D01*
X108745251Y-94711903D01*
X108743709Y-94899760D01*
X108740367Y-95041774D01*
X108734595Y-95146771D01*
X108725764Y-95223579D01*
X108713241Y-95281023D01*
X108696398Y-95327932D01*
X108682125Y-95358375D01*
X108617702Y-95451813D01*
X108526416Y-95518906D01*
X108400050Y-95562218D01*
X108230384Y-95584314D01*
X108009198Y-95587759D01*
X107951875Y-95586239D01*
X107743942Y-95573861D01*
X107584464Y-95552322D01*
X107485672Y-95524694D01*
X107419734Y-95493038D01*
X107367547Y-95456104D01*
X107327389Y-95406455D01*
X107297542Y-95336658D01*
X107276286Y-95239277D01*
X107261902Y-95106878D01*
X107252669Y-94932025D01*
X107246868Y-94707285D01*
X107243426Y-94477312D01*
X107233476Y-93691500D01*
X107582458Y-93691500D01*
X107592542Y-94424605D01*
X107595918Y-94658586D01*
X107599366Y-94837340D01*
X107603771Y-94969136D01*
X107610018Y-95062241D01*
X107618994Y-95124924D01*
X107631585Y-95165452D01*
X107648676Y-95192095D01*
X107671153Y-95213118D01*
X107677580Y-95218355D01*
X107733652Y-95251606D01*
X107810660Y-95270490D01*
X107925745Y-95278260D01*
X107996950Y-95279000D01*
X108107436Y-95279296D01*
X108193223Y-95275431D01*
X108257602Y-95260271D01*
X108303867Y-95226683D01*
X108335312Y-95167534D01*
X108355228Y-95075691D01*
X108366909Y-94944020D01*
X108373648Y-94765389D01*
X108378737Y-94532665D01*
X108380500Y-94448176D01*
X108396375Y-93707375D01*
X108745625Y-93707375D01*
X109448394Y-93707375D01*
X109445619Y-92200718D01*
X108757772Y-92200718D01*
X108742515Y-92516908D01*
X108733647Y-92605727D01*
X108704050Y-92818190D01*
X108664099Y-92976450D01*
X108607530Y-93089671D01*
X108528080Y-93167020D01*
X108419487Y-93217661D01*
X108295179Y-93247350D01*
X108183318Y-93258759D01*
X108036945Y-93261979D01*
X107875533Y-93257908D01*
X107718557Y-93247448D01*
X107585492Y-93231498D01*
X107495812Y-93210957D01*
X107494147Y-93210337D01*
X107408120Y-93164178D01*
X107341174Y-93112807D01*
X107302869Y-93069466D01*
X107275558Y-93014501D01*
X107255078Y-92933507D01*
X107237268Y-92812077D01*
X107226278Y-92715187D01*
X107211793Y-92580250D01*
X107586750Y-92580250D01*
X107586750Y-92687857D01*
X107605324Y-92805381D01*
X107665426Y-92885163D01*
X107773627Y-92932924D01*
X107888980Y-92951058D01*
X108070652Y-92956906D01*
X108201242Y-92935551D01*
X108288153Y-92884519D01*
X108338791Y-92801337D01*
X108339021Y-92800676D01*
X108353400Y-92725519D01*
X108364368Y-92603360D01*
X108371704Y-92450612D01*
X108375188Y-92283694D01*
X108374600Y-92119020D01*
X108369721Y-91973007D01*
X108360330Y-91862072D01*
X108352185Y-91818250D01*
X108300340Y-91744484D01*
X108198011Y-91693733D01*
X108055014Y-91669099D01*
X107891625Y-91672597D01*
X107753465Y-91693590D01*
X107668585Y-91726998D01*
X107627097Y-91778714D01*
X107618500Y-91835415D01*
X107610581Y-91928137D01*
X107577976Y-91980763D01*
X107507412Y-92004031D01*
X107404287Y-92008750D01*
X107228617Y-92008750D01*
X107246774Y-91832817D01*
X107272414Y-91677305D01*
X107318003Y-91559499D01*
X107390988Y-91475006D01*
X107498814Y-91419430D01*
X107648929Y-91388378D01*
X107848778Y-91377455D01*
X108015375Y-91379241D01*
X108184424Y-91385291D01*
X108304334Y-91394214D01*
X108389467Y-91408393D01*
X108454182Y-91430210D01*
X108512235Y-91461672D01*
X108619166Y-91565312D01*
X108695879Y-91723788D01*
X108742154Y-91935967D01*
X108757772Y-92200718D01*
X109445619Y-92200718D01*
X109444125Y-91389625D01*
X108795933Y-90230750D01*
X108624580Y-89924550D01*
X108481316Y-89669194D01*
X108363291Y-89460069D01*
X108267658Y-89292562D01*
X108191570Y-89162061D01*
X108132179Y-89063953D01*
X108086637Y-88993627D01*
X108052098Y-88946471D01*
X108025713Y-88917871D01*
X108004635Y-88903216D01*
X107986017Y-88897893D01*
X107972655Y-88897250D01*
X107945802Y-88918264D01*
G36*
X105681750Y-100009750D02*
X104697500Y-100009750D01*
X104697500Y-100263750D01*
X105904000Y-100263750D01*
X105904000Y-98358750D01*
X105681750Y-98358750D01*
X105681750Y-100009750D01*
X105681750Y-100009750D01*
G37*
X105681750Y-100009750D02*
X104697500Y-100009750D01*
X104697500Y-100263750D01*
X105904000Y-100263750D01*
X105904000Y-98358750D01*
X105681750Y-98358750D01*
X105681750Y-100009750D01*
G36*
X103745000Y-100263750D02*
X103999000Y-100263750D01*
X103999000Y-98358750D01*
X103745000Y-98358750D01*
X103745000Y-100263750D01*
X103745000Y-100263750D01*
G37*
X103745000Y-100263750D02*
X103999000Y-100263750D01*
X103999000Y-98358750D01*
X103745000Y-98358750D01*
X103745000Y-100263750D01*
G36*
X101888113Y-98346351D02*
X101720475Y-98358423D01*
X101597883Y-98381555D01*
X101511256Y-98418214D01*
X101451516Y-98470864D01*
X101414280Y-98531739D01*
X101382186Y-98632824D01*
X101364781Y-98752737D01*
X101363750Y-98784235D01*
X101366090Y-98873273D01*
X101381364Y-98915903D01*
X101421958Y-98929219D01*
X101469554Y-98930250D01*
X101534094Y-98925892D01*
X101569873Y-98901827D01*
X101591711Y-98841565D01*
X101604492Y-98780129D01*
X101627410Y-98691569D01*
X101662838Y-98628675D01*
X101720578Y-98587530D01*
X101810432Y-98564217D01*
X101942203Y-98554820D01*
X102125693Y-98555420D01*
X102164643Y-98556280D01*
X102330091Y-98560415D01*
X102455862Y-98569111D01*
X102547390Y-98590136D01*
X102610104Y-98631257D01*
X102649436Y-98700243D01*
X102670818Y-98804863D01*
X102679680Y-98952886D01*
X102681454Y-99152079D01*
X102681375Y-99295375D01*
X102680993Y-99502571D01*
X102679188Y-99655837D01*
X102674972Y-99764743D01*
X102667356Y-99838856D01*
X102655354Y-99887745D01*
X102637975Y-99920979D01*
X102614234Y-99948127D01*
X102613939Y-99948422D01*
X102534314Y-99994129D01*
X102409995Y-100027365D01*
X102257374Y-100047749D01*
X102092843Y-100054901D01*
X101932794Y-100048437D01*
X101793619Y-100027977D01*
X101691711Y-99993138D01*
X101660271Y-99970627D01*
X101628072Y-99906750D01*
X101603523Y-99794747D01*
X101594147Y-99711547D01*
X101577307Y-99501750D01*
X102189250Y-99501750D01*
X102189250Y-99279500D01*
X101355760Y-99279500D01*
X101369752Y-99645055D01*
X101381455Y-99840928D01*
X101402627Y-99983713D01*
X101438299Y-100083669D01*
X101493503Y-100151051D01*
X101573268Y-100196118D01*
X101652475Y-100221507D01*
X101751479Y-100237968D01*
X101893946Y-100249576D01*
X102060515Y-100256056D01*
X102231825Y-100257134D01*
X102388517Y-100252537D01*
X102511230Y-100241992D01*
X102554375Y-100234263D01*
X102661356Y-100203501D01*
X102744152Y-100163863D01*
X102806013Y-100107324D01*
X102850192Y-100025862D01*
X102879939Y-99911455D01*
X102898505Y-99756077D01*
X102909142Y-99551708D01*
X102914147Y-99346409D01*
X102916807Y-99092893D01*
X102913113Y-98894446D01*
X102900898Y-98742778D01*
X102877992Y-98629595D01*
X102842227Y-98546607D01*
X102791434Y-98485521D01*
X102723446Y-98438045D01*
X102669458Y-98410766D01*
X102598387Y-98381818D01*
X102523674Y-98362322D01*
X102430758Y-98350513D01*
X102305080Y-98344624D01*
X102132078Y-98342888D01*
X102109875Y-98342875D01*
X101888113Y-98346351D01*
X101888113Y-98346351D01*
G37*
X101888113Y-98346351D02*
X101720475Y-98358423D01*
X101597883Y-98381555D01*
X101511256Y-98418214D01*
X101451516Y-98470864D01*
X101414280Y-98531739D01*
X101382186Y-98632824D01*
X101364781Y-98752737D01*
X101363750Y-98784235D01*
X101366090Y-98873273D01*
X101381364Y-98915903D01*
X101421958Y-98929219D01*
X101469554Y-98930250D01*
X101534094Y-98925892D01*
X101569873Y-98901827D01*
X101591711Y-98841565D01*
X101604492Y-98780129D01*
X101627410Y-98691569D01*
X101662838Y-98628675D01*
X101720578Y-98587530D01*
X101810432Y-98564217D01*
X101942203Y-98554820D01*
X102125693Y-98555420D01*
X102164643Y-98556280D01*
X102330091Y-98560415D01*
X102455862Y-98569111D01*
X102547390Y-98590136D01*
X102610104Y-98631257D01*
X102649436Y-98700243D01*
X102670818Y-98804863D01*
X102679680Y-98952886D01*
X102681454Y-99152079D01*
X102681375Y-99295375D01*
X102680993Y-99502571D01*
X102679188Y-99655837D01*
X102674972Y-99764743D01*
X102667356Y-99838856D01*
X102655354Y-99887745D01*
X102637975Y-99920979D01*
X102614234Y-99948127D01*
X102613939Y-99948422D01*
X102534314Y-99994129D01*
X102409995Y-100027365D01*
X102257374Y-100047749D01*
X102092843Y-100054901D01*
X101932794Y-100048437D01*
X101793619Y-100027977D01*
X101691711Y-99993138D01*
X101660271Y-99970627D01*
X101628072Y-99906750D01*
X101603523Y-99794747D01*
X101594147Y-99711547D01*
X101577307Y-99501750D01*
X102189250Y-99501750D01*
X102189250Y-99279500D01*
X101355760Y-99279500D01*
X101369752Y-99645055D01*
X101381455Y-99840928D01*
X101402627Y-99983713D01*
X101438299Y-100083669D01*
X101493503Y-100151051D01*
X101573268Y-100196118D01*
X101652475Y-100221507D01*
X101751479Y-100237968D01*
X101893946Y-100249576D01*
X102060515Y-100256056D01*
X102231825Y-100257134D01*
X102388517Y-100252537D01*
X102511230Y-100241992D01*
X102554375Y-100234263D01*
X102661356Y-100203501D01*
X102744152Y-100163863D01*
X102806013Y-100107324D01*
X102850192Y-100025862D01*
X102879939Y-99911455D01*
X102898505Y-99756077D01*
X102909142Y-99551708D01*
X102914147Y-99346409D01*
X102916807Y-99092893D01*
X102913113Y-98894446D01*
X102900898Y-98742778D01*
X102877992Y-98629595D01*
X102842227Y-98546607D01*
X102791434Y-98485521D01*
X102723446Y-98438045D01*
X102669458Y-98410766D01*
X102598387Y-98381818D01*
X102523674Y-98362322D01*
X102430758Y-98350513D01*
X102305080Y-98344624D01*
X102132078Y-98342888D01*
X102109875Y-98342875D01*
X101888113Y-98346351D01*
G36*
X100316000Y-99184250D02*
X99268250Y-99184250D01*
X99268250Y-98358750D01*
X99014250Y-98358750D01*
X99014250Y-100263750D01*
X99268250Y-100263750D01*
X99268250Y-99374750D01*
X100316000Y-99374750D01*
X100316000Y-100263750D01*
X100570000Y-100263750D01*
X100570000Y-98358750D01*
X100316000Y-98358750D01*
X100316000Y-99184250D01*
X100316000Y-99184250D01*
G37*
X100316000Y-99184250D02*
X99268250Y-99184250D01*
X99268250Y-98358750D01*
X99014250Y-98358750D01*
X99014250Y-100263750D01*
X99268250Y-100263750D01*
X99268250Y-99374750D01*
X100316000Y-99374750D01*
X100316000Y-100263750D01*
X100570000Y-100263750D01*
X100570000Y-98358750D01*
X100316000Y-98358750D01*
X100316000Y-99184250D01*
G36*
X96855250Y-98581000D02*
X97458500Y-98581000D01*
X97458500Y-100263750D01*
X97680750Y-100263750D01*
X97680750Y-98581000D01*
X98284000Y-98581000D01*
X98284000Y-98358750D01*
X96855250Y-98358750D01*
X96855250Y-98581000D01*
X96855250Y-98581000D01*
G37*
X96855250Y-98581000D02*
X97458500Y-98581000D01*
X97458500Y-100263750D01*
X97680750Y-100263750D01*
X97680750Y-98581000D01*
X98284000Y-98581000D01*
X98284000Y-98358750D01*
X96855250Y-98358750D01*
X96855250Y-98581000D01*
G36*
X99624329Y-96016182D02*
X99465161Y-96040889D01*
X99350961Y-96089240D01*
X99273026Y-96167100D01*
X99222652Y-96280338D01*
X99191138Y-96434820D01*
X99189619Y-96445812D01*
X99167042Y-96612500D01*
X99418742Y-96612500D01*
X99435523Y-96463618D01*
X99459811Y-96349909D01*
X99510320Y-96277551D01*
X99600350Y-96234177D01*
X99705469Y-96212676D01*
X99822242Y-96205372D01*
X99961624Y-96211530D01*
X100105469Y-96228526D01*
X100235634Y-96253737D01*
X100333973Y-96284541D01*
X100375766Y-96309574D01*
X100394392Y-96336655D01*
X100407976Y-96381003D01*
X100417243Y-96451653D01*
X100422921Y-96557639D01*
X100425736Y-96707996D01*
X100426413Y-96911757D01*
X100426387Y-96939237D01*
X100423991Y-97187679D01*
X100417421Y-97375182D01*
X100406526Y-97504181D01*
X100391160Y-97577109D01*
X100386943Y-97586269D01*
X100320848Y-97653394D01*
X100208497Y-97697052D01*
X100045288Y-97718312D01*
X99826614Y-97718245D01*
X99819982Y-97717961D01*
X99654644Y-97706931D01*
X99541786Y-97686053D01*
X99470438Y-97648032D01*
X99429631Y-97585571D01*
X99408396Y-97491374D01*
X99402653Y-97440370D01*
X99391440Y-97345639D01*
X99373362Y-97297995D01*
X99336111Y-97281259D01*
X99280086Y-97279250D01*
X99173000Y-97279250D01*
X99173000Y-97449137D01*
X99185416Y-97627276D01*
X99224880Y-97754312D01*
X99294717Y-97838044D01*
X99352802Y-97870834D01*
X99441010Y-97893717D01*
X99574805Y-97912112D01*
X99736382Y-97925192D01*
X99907933Y-97932128D01*
X100071651Y-97932094D01*
X100209730Y-97924261D01*
X100280432Y-97913944D01*
X100397436Y-97883917D01*
X100489255Y-97844351D01*
X100558900Y-97787790D01*
X100609380Y-97706778D01*
X100643706Y-97593860D01*
X100664886Y-97441578D01*
X100675930Y-97242478D01*
X100679848Y-96989102D01*
X100680055Y-96923920D01*
X100681125Y-96298715D01*
X100573294Y-96187367D01*
X100488756Y-96116825D01*
X100385680Y-96066373D01*
X100253207Y-96033383D01*
X100080477Y-96015227D01*
X99856630Y-96009277D01*
X99837168Y-96009250D01*
X99624329Y-96016182D01*
X99624329Y-96016182D01*
G37*
X99624329Y-96016182D02*
X99465161Y-96040889D01*
X99350961Y-96089240D01*
X99273026Y-96167100D01*
X99222652Y-96280338D01*
X99191138Y-96434820D01*
X99189619Y-96445812D01*
X99167042Y-96612500D01*
X99418742Y-96612500D01*
X99435523Y-96463618D01*
X99459811Y-96349909D01*
X99510320Y-96277551D01*
X99600350Y-96234177D01*
X99705469Y-96212676D01*
X99822242Y-96205372D01*
X99961624Y-96211530D01*
X100105469Y-96228526D01*
X100235634Y-96253737D01*
X100333973Y-96284541D01*
X100375766Y-96309574D01*
X100394392Y-96336655D01*
X100407976Y-96381003D01*
X100417243Y-96451653D01*
X100422921Y-96557639D01*
X100425736Y-96707996D01*
X100426413Y-96911757D01*
X100426387Y-96939237D01*
X100423991Y-97187679D01*
X100417421Y-97375182D01*
X100406526Y-97504181D01*
X100391160Y-97577109D01*
X100386943Y-97586269D01*
X100320848Y-97653394D01*
X100208497Y-97697052D01*
X100045288Y-97718312D01*
X99826614Y-97718245D01*
X99819982Y-97717961D01*
X99654644Y-97706931D01*
X99541786Y-97686053D01*
X99470438Y-97648032D01*
X99429631Y-97585571D01*
X99408396Y-97491374D01*
X99402653Y-97440370D01*
X99391440Y-97345639D01*
X99373362Y-97297995D01*
X99336111Y-97281259D01*
X99280086Y-97279250D01*
X99173000Y-97279250D01*
X99173000Y-97449137D01*
X99185416Y-97627276D01*
X99224880Y-97754312D01*
X99294717Y-97838044D01*
X99352802Y-97870834D01*
X99441010Y-97893717D01*
X99574805Y-97912112D01*
X99736382Y-97925192D01*
X99907933Y-97932128D01*
X100071651Y-97932094D01*
X100209730Y-97924261D01*
X100280432Y-97913944D01*
X100397436Y-97883917D01*
X100489255Y-97844351D01*
X100558900Y-97787790D01*
X100609380Y-97706778D01*
X100643706Y-97593860D01*
X100664886Y-97441578D01*
X100675930Y-97242478D01*
X100679848Y-96989102D01*
X100680055Y-96923920D01*
X100681125Y-96298715D01*
X100573294Y-96187367D01*
X100488756Y-96116825D01*
X100385680Y-96066373D01*
X100253207Y-96033383D01*
X100080477Y-96015227D01*
X99856630Y-96009277D01*
X99837168Y-96009250D01*
X99624329Y-96016182D01*
G36*
X105340438Y-96015104D02*
X105085666Y-96023651D01*
X104887352Y-96039388D01*
X104738501Y-96067105D01*
X104632115Y-96111592D01*
X104561199Y-96177640D01*
X104518756Y-96270039D01*
X104497790Y-96393579D01*
X104491305Y-96553050D01*
X104491125Y-96596625D01*
X104496704Y-96776184D01*
X104518355Y-96913730D01*
X104563452Y-97015071D01*
X104639368Y-97086017D01*
X104753478Y-97132375D01*
X104913154Y-97159954D01*
X105125769Y-97174562D01*
X105229313Y-97178132D01*
X105681750Y-97191061D01*
X105681750Y-97914250D01*
X105904000Y-97914250D01*
X105904000Y-96231500D01*
X105681750Y-96231500D01*
X105681750Y-96966669D01*
X105254622Y-96956272D01*
X105059292Y-96948715D01*
X104912776Y-96937020D01*
X104820445Y-96921738D01*
X104790451Y-96908741D01*
X104747852Y-96830689D01*
X104724616Y-96715016D01*
X104720079Y-96581552D01*
X104733576Y-96450128D01*
X104764442Y-96340575D01*
X104811756Y-96272909D01*
X104866512Y-96252997D01*
X104970214Y-96239813D01*
X105128155Y-96232883D01*
X105275069Y-96231500D01*
X105681750Y-96231500D01*
X105904000Y-96231500D01*
X105904000Y-96002169D01*
X105340438Y-96015104D01*
X105340438Y-96015104D01*
G37*
X105340438Y-96015104D02*
X105085666Y-96023651D01*
X104887352Y-96039388D01*
X104738501Y-96067105D01*
X104632115Y-96111592D01*
X104561199Y-96177640D01*
X104518756Y-96270039D01*
X104497790Y-96393579D01*
X104491305Y-96553050D01*
X104491125Y-96596625D01*
X104496704Y-96776184D01*
X104518355Y-96913730D01*
X104563452Y-97015071D01*
X104639368Y-97086017D01*
X104753478Y-97132375D01*
X104913154Y-97159954D01*
X105125769Y-97174562D01*
X105229313Y-97178132D01*
X105681750Y-97191061D01*
X105681750Y-97914250D01*
X105904000Y-97914250D01*
X105904000Y-96231500D01*
X105681750Y-96231500D01*
X105681750Y-96966669D01*
X105254622Y-96956272D01*
X105059292Y-96948715D01*
X104912776Y-96937020D01*
X104820445Y-96921738D01*
X104790451Y-96908741D01*
X104747852Y-96830689D01*
X104724616Y-96715016D01*
X104720079Y-96581552D01*
X104733576Y-96450128D01*
X104764442Y-96340575D01*
X104811756Y-96272909D01*
X104866512Y-96252997D01*
X104970214Y-96239813D01*
X105128155Y-96232883D01*
X105275069Y-96231500D01*
X105681750Y-96231500D01*
X105904000Y-96231500D01*
X105904000Y-96002169D01*
X105340438Y-96015104D01*
G36*
X102116113Y-96904662D02*
X102031189Y-97132432D01*
X101952704Y-97342775D01*
X101883603Y-97527811D01*
X101826831Y-97679658D01*
X101785334Y-97790434D01*
X101762057Y-97852259D01*
X101758821Y-97860717D01*
X101752137Y-97896152D01*
X101778433Y-97910601D01*
X101851356Y-97909793D01*
X101872232Y-97908342D01*
X101947998Y-97900160D01*
X101994809Y-97879740D01*
X102028118Y-97832269D01*
X102063377Y-97742932D01*
X102073064Y-97715812D01*
X102138062Y-97533250D01*
X103072959Y-97533250D01*
X103133635Y-97715812D01*
X103169143Y-97816781D01*
X103200144Y-97872289D01*
X103241663Y-97897299D01*
X103308725Y-97906772D01*
X103326781Y-97908138D01*
X103407645Y-97908702D01*
X103453450Y-97898523D01*
X103457450Y-97892263D01*
X103446399Y-97857165D01*
X103415956Y-97769963D01*
X103368803Y-97638091D01*
X103307624Y-97468985D01*
X103247127Y-97303062D01*
X102975966Y-97303062D01*
X102966836Y-97320502D01*
X102920143Y-97332351D01*
X102828364Y-97339405D01*
X102683976Y-97342464D01*
X102602000Y-97342750D01*
X102432396Y-97341211D01*
X102318690Y-97336059D01*
X102253341Y-97326492D01*
X102228809Y-97311708D01*
X102229106Y-97303062D01*
X102244660Y-97260611D01*
X102277686Y-97169831D01*
X102324051Y-97042103D01*
X102379621Y-96888810D01*
X102410701Y-96803000D01*
X102469700Y-96642341D01*
X102522462Y-96502910D01*
X102564732Y-96395637D01*
X102592248Y-96331452D01*
X102599407Y-96318629D01*
X102612437Y-96328173D01*
X102637002Y-96376121D01*
X102674510Y-96466156D01*
X102726370Y-96601959D01*
X102793991Y-96787215D01*
X102878781Y-97025606D01*
X102975966Y-97303062D01*
X103247127Y-97303062D01*
X103235100Y-97270079D01*
X103153914Y-97048809D01*
X103115990Y-96945875D01*
X102776330Y-96025125D01*
X102450982Y-96006199D01*
X102116113Y-96904662D01*
X102116113Y-96904662D01*
G37*
X102116113Y-96904662D02*
X102031189Y-97132432D01*
X101952704Y-97342775D01*
X101883603Y-97527811D01*
X101826831Y-97679658D01*
X101785334Y-97790434D01*
X101762057Y-97852259D01*
X101758821Y-97860717D01*
X101752137Y-97896152D01*
X101778433Y-97910601D01*
X101851356Y-97909793D01*
X101872232Y-97908342D01*
X101947998Y-97900160D01*
X101994809Y-97879740D01*
X102028118Y-97832269D01*
X102063377Y-97742932D01*
X102073064Y-97715812D01*
X102138062Y-97533250D01*
X103072959Y-97533250D01*
X103133635Y-97715812D01*
X103169143Y-97816781D01*
X103200144Y-97872289D01*
X103241663Y-97897299D01*
X103308725Y-97906772D01*
X103326781Y-97908138D01*
X103407645Y-97908702D01*
X103453450Y-97898523D01*
X103457450Y-97892263D01*
X103446399Y-97857165D01*
X103415956Y-97769963D01*
X103368803Y-97638091D01*
X103307624Y-97468985D01*
X103247127Y-97303062D01*
X102975966Y-97303062D01*
X102966836Y-97320502D01*
X102920143Y-97332351D01*
X102828364Y-97339405D01*
X102683976Y-97342464D01*
X102602000Y-97342750D01*
X102432396Y-97341211D01*
X102318690Y-97336059D01*
X102253341Y-97326492D01*
X102228809Y-97311708D01*
X102229106Y-97303062D01*
X102244660Y-97260611D01*
X102277686Y-97169831D01*
X102324051Y-97042103D01*
X102379621Y-96888810D01*
X102410701Y-96803000D01*
X102469700Y-96642341D01*
X102522462Y-96502910D01*
X102564732Y-96395637D01*
X102592248Y-96331452D01*
X102599407Y-96318629D01*
X102612437Y-96328173D01*
X102637002Y-96376121D01*
X102674510Y-96466156D01*
X102726370Y-96601959D01*
X102793991Y-96787215D01*
X102878781Y-97025606D01*
X102975966Y-97303062D01*
X103247127Y-97303062D01*
X103235100Y-97270079D01*
X103153914Y-97048809D01*
X103115990Y-96945875D01*
X102776330Y-96025125D01*
X102450982Y-96006199D01*
X102116113Y-96904662D01*
G36*
X96823500Y-96231500D02*
X97807750Y-96231500D01*
X97807750Y-96834750D01*
X96887000Y-96834750D01*
X96887000Y-97057000D01*
X97807750Y-97057000D01*
X97807750Y-97723750D01*
X96823500Y-97723750D01*
X96823500Y-97914250D01*
X98061750Y-97914250D01*
X98061750Y-96009250D01*
X96823500Y-96009250D01*
X96823500Y-96231500D01*
X96823500Y-96231500D01*
G37*
X96823500Y-96231500D02*
X97807750Y-96231500D01*
X97807750Y-96834750D01*
X96887000Y-96834750D01*
X96887000Y-97057000D01*
X97807750Y-97057000D01*
X97807750Y-97723750D01*
X96823500Y-97723750D01*
X96823500Y-97914250D01*
X98061750Y-97914250D01*
X98061750Y-96009250D01*
X96823500Y-96009250D01*
X96823500Y-96231500D01*
G36*
X105043591Y-94493187D02*
X104554625Y-95294875D01*
X104546143Y-94493187D01*
X104537660Y-93691500D01*
X104284750Y-93691500D01*
X104284750Y-95596500D01*
X104657669Y-95596500D01*
X105161772Y-94773544D01*
X105665875Y-93950589D01*
X105674340Y-94773544D01*
X105682805Y-95596500D01*
X105904000Y-95596500D01*
X105904000Y-93691500D01*
X105718278Y-93691500D01*
X105532556Y-93691499D01*
X105043591Y-94493187D01*
X105043591Y-94493187D01*
G37*
X105043591Y-94493187D02*
X104554625Y-95294875D01*
X104546143Y-94493187D01*
X104537660Y-93691500D01*
X104284750Y-93691500D01*
X104284750Y-95596500D01*
X104657669Y-95596500D01*
X105161772Y-94773544D01*
X105665875Y-93950589D01*
X105674340Y-94773544D01*
X105682805Y-95596500D01*
X105904000Y-95596500D01*
X105904000Y-93691500D01*
X105718278Y-93691500D01*
X105532556Y-93691499D01*
X105043591Y-94493187D01*
G36*
X103141750Y-95596500D02*
X103395750Y-95596500D01*
X103395750Y-93691500D01*
X103141750Y-93691500D01*
X103141750Y-95596500D01*
X103141750Y-95596500D01*
G37*
X103141750Y-95596500D02*
X103395750Y-95596500D01*
X103395750Y-93691500D01*
X103141750Y-93691500D01*
X103141750Y-95596500D01*
G36*
X101915792Y-94498402D02*
X101840893Y-94710508D01*
X101772353Y-94900644D01*
X101713012Y-95061249D01*
X101665708Y-95184763D01*
X101633282Y-95263626D01*
X101618574Y-95290276D01*
X101618410Y-95290166D01*
X101604284Y-95257287D01*
X101572320Y-95172459D01*
X101525429Y-95043744D01*
X101466522Y-94879207D01*
X101398512Y-94686912D01*
X101329979Y-94491201D01*
X101056763Y-93707375D01*
X100924507Y-93697611D01*
X100843156Y-93694036D01*
X100796548Y-93696694D01*
X100792250Y-93699257D01*
X100802383Y-93731230D01*
X100830665Y-93814034D01*
X100873923Y-93938685D01*
X100928985Y-94096202D01*
X100992678Y-94277602D01*
X101061829Y-94473901D01*
X101133264Y-94676119D01*
X101203812Y-94875271D01*
X101270298Y-95062376D01*
X101329551Y-95228451D01*
X101378397Y-95364513D01*
X101413663Y-95461580D01*
X101431574Y-95509187D01*
X101460087Y-95562485D01*
X101502984Y-95588241D01*
X101581158Y-95596152D01*
X101619729Y-95596500D01*
X101712452Y-95591423D01*
X101775512Y-95578519D01*
X101789219Y-95569857D01*
X101805148Y-95531719D01*
X101838495Y-95443239D01*
X101886069Y-95313430D01*
X101944683Y-95151301D01*
X102011146Y-94965866D01*
X102082271Y-94766135D01*
X102154867Y-94561120D01*
X102225745Y-94359832D01*
X102291717Y-94171284D01*
X102349594Y-94004487D01*
X102396185Y-93868451D01*
X102428303Y-93772190D01*
X102442757Y-93724713D01*
X102443250Y-93721746D01*
X102415145Y-93702532D01*
X102345213Y-93692115D01*
X102320604Y-93691500D01*
X102197958Y-93691500D01*
X101915792Y-94498402D01*
X101915792Y-94498402D01*
G37*
X101915792Y-94498402D02*
X101840893Y-94710508D01*
X101772353Y-94900644D01*
X101713012Y-95061249D01*
X101665708Y-95184763D01*
X101633282Y-95263626D01*
X101618574Y-95290276D01*
X101618410Y-95290166D01*
X101604284Y-95257287D01*
X101572320Y-95172459D01*
X101525429Y-95043744D01*
X101466522Y-94879207D01*
X101398512Y-94686912D01*
X101329979Y-94491201D01*
X101056763Y-93707375D01*
X100924507Y-93697611D01*
X100843156Y-93694036D01*
X100796548Y-93696694D01*
X100792250Y-93699257D01*
X100802383Y-93731230D01*
X100830665Y-93814034D01*
X100873923Y-93938685D01*
X100928985Y-94096202D01*
X100992678Y-94277602D01*
X101061829Y-94473901D01*
X101133264Y-94676119D01*
X101203812Y-94875271D01*
X101270298Y-95062376D01*
X101329551Y-95228451D01*
X101378397Y-95364513D01*
X101413663Y-95461580D01*
X101431574Y-95509187D01*
X101460087Y-95562485D01*
X101502984Y-95588241D01*
X101581158Y-95596152D01*
X101619729Y-95596500D01*
X101712452Y-95591423D01*
X101775512Y-95578519D01*
X101789219Y-95569857D01*
X101805148Y-95531719D01*
X101838495Y-95443239D01*
X101886069Y-95313430D01*
X101944683Y-95151301D01*
X102011146Y-94965866D01*
X102082271Y-94766135D01*
X102154867Y-94561120D01*
X102225745Y-94359832D01*
X102291717Y-94171284D01*
X102349594Y-94004487D01*
X102396185Y-93868451D01*
X102428303Y-93772190D01*
X102442757Y-93724713D01*
X102443250Y-93721746D01*
X102415145Y-93702532D01*
X102345213Y-93692115D01*
X102320604Y-93691500D01*
X102197958Y-93691500D01*
X101915792Y-94498402D01*
G36*
X98950750Y-93913750D02*
X99935000Y-93913750D01*
X99935000Y-94517000D01*
X98982500Y-94517000D01*
X98982500Y-94707500D01*
X99935000Y-94707500D01*
X99935000Y-95374250D01*
X98950750Y-95374250D01*
X98950750Y-95596500D01*
X100189000Y-95596500D01*
X100189000Y-93691500D01*
X98950750Y-93691500D01*
X98950750Y-93913750D01*
X98950750Y-93913750D01*
G37*
X98950750Y-93913750D02*
X99935000Y-93913750D01*
X99935000Y-94517000D01*
X98982500Y-94517000D01*
X98982500Y-94707500D01*
X99935000Y-94707500D01*
X99935000Y-95374250D01*
X98950750Y-95374250D01*
X98950750Y-95596500D01*
X100189000Y-95596500D01*
X100189000Y-93691500D01*
X98950750Y-93691500D01*
X98950750Y-93913750D01*
G36*
X97334815Y-93694686D02*
X97124304Y-93706913D01*
X96963875Y-93732183D01*
X96846921Y-93774500D01*
X96766833Y-93837864D01*
X96717002Y-93926279D01*
X96690820Y-94043748D01*
X96681679Y-94194273D01*
X96681273Y-94249160D01*
X96692699Y-94438253D01*
X96728287Y-94573920D01*
X96790487Y-94662407D01*
X96859169Y-94702736D01*
X96899984Y-94721847D01*
X96890799Y-94741565D01*
X96842962Y-94769080D01*
X96780226Y-94819606D01*
X96736927Y-94899025D01*
X96710445Y-95016832D01*
X96698158Y-95182523D01*
X96696500Y-95299612D01*
X96696500Y-95596500D01*
X96950500Y-95596500D01*
X96950500Y-95293431D01*
X96951793Y-95150077D01*
X96957754Y-95054931D01*
X96971506Y-94992724D01*
X96996174Y-94948183D01*
X97028432Y-94912431D01*
X97064148Y-94880028D01*
X97102966Y-94858121D01*
X97157399Y-94844662D01*
X97239958Y-94837605D01*
X97363153Y-94834903D01*
X97504682Y-94834500D01*
X97903000Y-94834500D01*
X97903000Y-95596500D01*
X98157000Y-95596500D01*
X98157000Y-94612250D01*
X97903000Y-94612250D01*
X97488807Y-94612250D01*
X97318899Y-94611663D01*
X97200313Y-94608617D01*
X97120871Y-94601185D01*
X97068397Y-94587437D01*
X97030714Y-94565445D01*
X96996682Y-94534318D01*
X96952365Y-94480181D01*
X96928674Y-94416728D01*
X96919638Y-94322535D01*
X96918750Y-94254636D01*
X96925425Y-94131872D01*
X96943148Y-94035872D01*
X96960320Y-93996037D01*
X97026417Y-93948203D01*
X97146463Y-93913844D01*
X97323147Y-93892480D01*
X97559161Y-93883634D01*
X97593438Y-93883382D01*
X97903000Y-93882000D01*
X97903000Y-94612250D01*
X98157000Y-94612250D01*
X98157000Y-93691500D01*
X97602018Y-93691500D01*
X97334815Y-93694686D01*
X97334815Y-93694686D01*
G37*
X97334815Y-93694686D02*
X97124304Y-93706913D01*
X96963875Y-93732183D01*
X96846921Y-93774500D01*
X96766833Y-93837864D01*
X96717002Y-93926279D01*
X96690820Y-94043748D01*
X96681679Y-94194273D01*
X96681273Y-94249160D01*
X96692699Y-94438253D01*
X96728287Y-94573920D01*
X96790487Y-94662407D01*
X96859169Y-94702736D01*
X96899984Y-94721847D01*
X96890799Y-94741565D01*
X96842962Y-94769080D01*
X96780226Y-94819606D01*
X96736927Y-94899025D01*
X96710445Y-95016832D01*
X96698158Y-95182523D01*
X96696500Y-95299612D01*
X96696500Y-95596500D01*
X96950500Y-95596500D01*
X96950500Y-95293431D01*
X96951793Y-95150077D01*
X96957754Y-95054931D01*
X96971506Y-94992724D01*
X96996174Y-94948183D01*
X97028432Y-94912431D01*
X97064148Y-94880028D01*
X97102966Y-94858121D01*
X97157399Y-94844662D01*
X97239958Y-94837605D01*
X97363153Y-94834903D01*
X97504682Y-94834500D01*
X97903000Y-94834500D01*
X97903000Y-95596500D01*
X98157000Y-95596500D01*
X98157000Y-94612250D01*
X97903000Y-94612250D01*
X97488807Y-94612250D01*
X97318899Y-94611663D01*
X97200313Y-94608617D01*
X97120871Y-94601185D01*
X97068397Y-94587437D01*
X97030714Y-94565445D01*
X96996682Y-94534318D01*
X96952365Y-94480181D01*
X96928674Y-94416728D01*
X96919638Y-94322535D01*
X96918750Y-94254636D01*
X96925425Y-94131872D01*
X96943148Y-94035872D01*
X96960320Y-93996037D01*
X97026417Y-93948203D01*
X97146463Y-93913844D01*
X97323147Y-93892480D01*
X97559161Y-93883634D01*
X97593438Y-93883382D01*
X97903000Y-93882000D01*
X97903000Y-94612250D01*
X98157000Y-94612250D01*
X98157000Y-93691500D01*
X97602018Y-93691500D01*
X97334815Y-93694686D01*
G36*
X94996957Y-93685725D02*
X94828504Y-93704331D01*
X94706628Y-93741390D01*
X94623191Y-93801612D01*
X94570053Y-93889707D01*
X94539077Y-94010388D01*
X94529779Y-94080437D01*
X94513551Y-94231250D01*
X94630553Y-94231250D01*
X94704671Y-94226806D01*
X94744033Y-94201919D01*
X94767578Y-94139252D01*
X94777465Y-94096788D01*
X94806434Y-94006188D01*
X94852943Y-93944493D01*
X94927488Y-93907244D01*
X95040567Y-93889982D01*
X95202678Y-93888249D01*
X95263953Y-93890146D01*
X95435508Y-93902106D01*
X95553395Y-93927719D01*
X95627097Y-93973968D01*
X95666095Y-94047838D01*
X95679869Y-94156310D01*
X95680500Y-94196949D01*
X95674107Y-94309117D01*
X95647789Y-94385364D01*
X95590840Y-94434599D01*
X95492554Y-94465733D01*
X95342225Y-94487675D01*
X95329465Y-94489099D01*
X95103388Y-94514784D01*
X94931693Y-94536670D01*
X94805523Y-94556723D01*
X94716022Y-94576913D01*
X94654334Y-94599206D01*
X94611602Y-94625570D01*
X94581209Y-94655354D01*
X94527178Y-94756766D01*
X94494785Y-94900426D01*
X94486389Y-95068079D01*
X94504347Y-95241470D01*
X94505024Y-95245042D01*
X94544345Y-95388748D01*
X94603360Y-95483340D01*
X94692912Y-95542587D01*
X94756573Y-95564394D01*
X94852055Y-95580244D01*
X94989818Y-95589939D01*
X95151898Y-95593662D01*
X95320333Y-95591597D01*
X95477159Y-95583926D01*
X95604414Y-95570832D01*
X95677527Y-95555020D01*
X95792341Y-95489918D01*
X95869779Y-95384273D01*
X95914716Y-95230535D01*
X95922371Y-95175812D01*
X95943243Y-94993250D01*
X95680500Y-94993250D01*
X95680500Y-95116732D01*
X95661120Y-95235417D01*
X95619786Y-95315170D01*
X95589374Y-95347893D01*
X95552850Y-95369395D01*
X95497240Y-95382012D01*
X95409567Y-95388081D01*
X95276854Y-95389939D01*
X95204151Y-95390025D01*
X95048505Y-95389152D01*
X94943379Y-95385077D01*
X94875801Y-95375458D01*
X94832796Y-95357957D01*
X94801391Y-95330233D01*
X94788615Y-95315070D01*
X94749906Y-95232819D01*
X94729149Y-95118899D01*
X94726848Y-94996519D01*
X94743506Y-94888889D01*
X94777893Y-94820892D01*
X94798330Y-94798698D01*
X94814421Y-94783574D01*
X94837678Y-94773367D01*
X94879611Y-94765928D01*
X94951730Y-94759104D01*
X95065546Y-94750744D01*
X95208001Y-94740507D01*
X95435338Y-94717875D01*
X95607091Y-94684136D01*
X95730922Y-94633850D01*
X95814493Y-94561574D01*
X95865468Y-94461865D01*
X95891508Y-94329282D01*
X95897480Y-94250816D01*
X95897258Y-94064280D01*
X95871102Y-93921748D01*
X95812638Y-93817857D01*
X95715494Y-93747244D01*
X95573297Y-93704548D01*
X95379673Y-93684405D01*
X95220125Y-93680860D01*
X94996957Y-93685725D01*
X94996957Y-93685725D01*
G37*
X94996957Y-93685725D02*
X94828504Y-93704331D01*
X94706628Y-93741390D01*
X94623191Y-93801612D01*
X94570053Y-93889707D01*
X94539077Y-94010388D01*
X94529779Y-94080437D01*
X94513551Y-94231250D01*
X94630553Y-94231250D01*
X94704671Y-94226806D01*
X94744033Y-94201919D01*
X94767578Y-94139252D01*
X94777465Y-94096788D01*
X94806434Y-94006188D01*
X94852943Y-93944493D01*
X94927488Y-93907244D01*
X95040567Y-93889982D01*
X95202678Y-93888249D01*
X95263953Y-93890146D01*
X95435508Y-93902106D01*
X95553395Y-93927719D01*
X95627097Y-93973968D01*
X95666095Y-94047838D01*
X95679869Y-94156310D01*
X95680500Y-94196949D01*
X95674107Y-94309117D01*
X95647789Y-94385364D01*
X95590840Y-94434599D01*
X95492554Y-94465733D01*
X95342225Y-94487675D01*
X95329465Y-94489099D01*
X95103388Y-94514784D01*
X94931693Y-94536670D01*
X94805523Y-94556723D01*
X94716022Y-94576913D01*
X94654334Y-94599206D01*
X94611602Y-94625570D01*
X94581209Y-94655354D01*
X94527178Y-94756766D01*
X94494785Y-94900426D01*
X94486389Y-95068079D01*
X94504347Y-95241470D01*
X94505024Y-95245042D01*
X94544345Y-95388748D01*
X94603360Y-95483340D01*
X94692912Y-95542587D01*
X94756573Y-95564394D01*
X94852055Y-95580244D01*
X94989818Y-95589939D01*
X95151898Y-95593662D01*
X95320333Y-95591597D01*
X95477159Y-95583926D01*
X95604414Y-95570832D01*
X95677527Y-95555020D01*
X95792341Y-95489918D01*
X95869779Y-95384273D01*
X95914716Y-95230535D01*
X95922371Y-95175812D01*
X95943243Y-94993250D01*
X95680500Y-94993250D01*
X95680500Y-95116732D01*
X95661120Y-95235417D01*
X95619786Y-95315170D01*
X95589374Y-95347893D01*
X95552850Y-95369395D01*
X95497240Y-95382012D01*
X95409567Y-95388081D01*
X95276854Y-95389939D01*
X95204151Y-95390025D01*
X95048505Y-95389152D01*
X94943379Y-95385077D01*
X94875801Y-95375458D01*
X94832796Y-95357957D01*
X94801391Y-95330233D01*
X94788615Y-95315070D01*
X94749906Y-95232819D01*
X94729149Y-95118899D01*
X94726848Y-94996519D01*
X94743506Y-94888889D01*
X94777893Y-94820892D01*
X94798330Y-94798698D01*
X94814421Y-94783574D01*
X94837678Y-94773367D01*
X94879611Y-94765928D01*
X94951730Y-94759104D01*
X95065546Y-94750744D01*
X95208001Y-94740507D01*
X95435338Y-94717875D01*
X95607091Y-94684136D01*
X95730922Y-94633850D01*
X95814493Y-94561574D01*
X95865468Y-94461865D01*
X95891508Y-94329282D01*
X95897480Y-94250816D01*
X95897258Y-94064280D01*
X95871102Y-93921748D01*
X95812638Y-93817857D01*
X95715494Y-93747244D01*
X95573297Y-93704548D01*
X95379673Y-93684405D01*
X95220125Y-93680860D01*
X94996957Y-93685725D01*
G36*
X93458000Y-95596500D02*
X93712000Y-95596500D01*
X93712000Y-93691500D01*
X93458000Y-93691500D01*
X93458000Y-95596500D01*
X93458000Y-95596500D01*
G37*
X93458000Y-95596500D02*
X93712000Y-95596500D01*
X93712000Y-93691500D01*
X93458000Y-93691500D01*
X93458000Y-95596500D01*
G36*
X91267250Y-93913750D02*
X91870500Y-93913750D01*
X91870500Y-95596500D01*
X92124500Y-95596500D01*
X92124500Y-93913750D01*
X92727750Y-93913750D01*
X92727750Y-93691500D01*
X91267250Y-93691500D01*
X91267250Y-93913750D01*
X91267250Y-93913750D01*
G37*
X91267250Y-93913750D02*
X91870500Y-93913750D01*
X91870500Y-95596500D01*
X92124500Y-95596500D01*
X92124500Y-93913750D01*
X92727750Y-93913750D01*
X92727750Y-93691500D01*
X91267250Y-93691500D01*
X91267250Y-93913750D01*
G36*
X90625347Y-93691477D02*
X90619868Y-93691500D01*
X90478252Y-93691500D01*
X90215877Y-94104250D01*
X90124429Y-94246351D01*
X90044502Y-94367234D01*
X89982340Y-94457716D01*
X89944185Y-94508613D01*
X89935689Y-94516407D01*
X89913460Y-94490713D01*
X89864534Y-94420522D01*
X89795365Y-94315498D01*
X89712404Y-94185305D01*
X89679750Y-94133084D01*
X89591273Y-93992819D01*
X89512179Y-93871023D01*
X89449604Y-93778423D01*
X89410686Y-93725750D01*
X89404284Y-93718986D01*
X89350690Y-93701265D01*
X89263866Y-93696177D01*
X89238191Y-93697497D01*
X89109438Y-93707375D01*
X89473249Y-94263000D01*
X89837059Y-94818625D01*
X89837780Y-95207562D01*
X89838500Y-95596500D01*
X90060750Y-95596500D01*
X90060750Y-94814840D01*
X90381040Y-94309371D01*
X90507481Y-94110321D01*
X90603265Y-93958959D01*
X90670893Y-93848819D01*
X90712863Y-93773434D01*
X90731675Y-93726336D01*
X90729830Y-93701059D01*
X90709828Y-93691135D01*
X90674167Y-93690097D01*
X90625347Y-93691477D01*
X90625347Y-93691477D01*
G37*
X90625347Y-93691477D02*
X90619868Y-93691500D01*
X90478252Y-93691500D01*
X90215877Y-94104250D01*
X90124429Y-94246351D01*
X90044502Y-94367234D01*
X89982340Y-94457716D01*
X89944185Y-94508613D01*
X89935689Y-94516407D01*
X89913460Y-94490713D01*
X89864534Y-94420522D01*
X89795365Y-94315498D01*
X89712404Y-94185305D01*
X89679750Y-94133084D01*
X89591273Y-93992819D01*
X89512179Y-93871023D01*
X89449604Y-93778423D01*
X89410686Y-93725750D01*
X89404284Y-93718986D01*
X89350690Y-93701265D01*
X89263866Y-93696177D01*
X89238191Y-93697497D01*
X89109438Y-93707375D01*
X89473249Y-94263000D01*
X89837059Y-94818625D01*
X89837780Y-95207562D01*
X89838500Y-95596500D01*
X90060750Y-95596500D01*
X90060750Y-94814840D01*
X90381040Y-94309371D01*
X90507481Y-94110321D01*
X90603265Y-93958959D01*
X90670893Y-93848819D01*
X90712863Y-93773434D01*
X90731675Y-93726336D01*
X90729830Y-93701059D01*
X90709828Y-93691135D01*
X90674167Y-93690097D01*
X90625347Y-93691477D01*
G36*
X91577699Y-91360850D02*
X91417633Y-91370928D01*
X91300937Y-91391298D01*
X91217619Y-91424942D01*
X91157687Y-91474846D01*
X91111150Y-91543992D01*
X91100612Y-91564286D01*
X91063852Y-91671832D01*
X91045516Y-91792054D01*
X91045050Y-91810312D01*
X91045000Y-91945250D01*
X91172000Y-91945250D01*
X91253294Y-91942084D01*
X91289417Y-91920951D01*
X91298698Y-91864400D01*
X91299000Y-91824318D01*
X91303984Y-91729608D01*
X91325245Y-91662773D01*
X91372253Y-91618568D01*
X91454474Y-91591750D01*
X91581376Y-91577076D01*
X91759307Y-91569392D01*
X91961552Y-91567199D01*
X92110206Y-91575799D01*
X92214641Y-91597777D01*
X92284234Y-91635717D01*
X92328357Y-91692201D01*
X92344690Y-91730736D01*
X92358386Y-91804530D01*
X92368418Y-91926955D01*
X92374797Y-92083249D01*
X92377534Y-92258650D01*
X92376642Y-92438394D01*
X92372130Y-92607721D01*
X92364012Y-92751866D01*
X92352299Y-92856069D01*
X92343778Y-92892628D01*
X92305503Y-92960070D01*
X92239623Y-93007733D01*
X92137939Y-93037747D01*
X91992252Y-93052240D01*
X91794365Y-93053342D01*
X91731518Y-93051639D01*
X91574862Y-93045062D01*
X91469452Y-93035834D01*
X91403035Y-93021725D01*
X91363359Y-93000509D01*
X91345856Y-92981511D01*
X91317540Y-92916862D01*
X91293370Y-92818460D01*
X91276810Y-92709546D01*
X91271327Y-92613361D01*
X91280386Y-92553147D01*
X91281641Y-92550901D01*
X91322925Y-92534235D01*
X91415817Y-92522492D01*
X91548527Y-92516994D01*
X91586624Y-92516750D01*
X91870500Y-92516750D01*
X91870500Y-92294500D01*
X91036844Y-92294500D01*
X91051335Y-92635812D01*
X91065485Y-92839674D01*
X91090498Y-92989884D01*
X91129998Y-93095878D01*
X91187613Y-93167091D01*
X91266969Y-93212957D01*
X91274223Y-93215761D01*
X91355300Y-93233913D01*
X91482798Y-93248732D01*
X91639697Y-93259609D01*
X91808975Y-93265939D01*
X91973613Y-93267113D01*
X92116590Y-93262525D01*
X92220886Y-93251567D01*
X92229745Y-93249847D01*
X92335454Y-93215488D01*
X92429773Y-93165866D01*
X92436120Y-93161318D01*
X92494575Y-93108404D01*
X92539038Y-93041828D01*
X92571317Y-92952802D01*
X92593225Y-92832538D01*
X92606570Y-92672249D01*
X92613164Y-92463147D01*
X92614696Y-92294500D01*
X92614706Y-92088773D01*
X92612439Y-91935538D01*
X92606902Y-91823797D01*
X92597104Y-91742555D01*
X92582053Y-91680816D01*
X92560757Y-91627584D01*
X92553125Y-91611875D01*
X92498443Y-91521864D01*
X92430724Y-91455241D01*
X92340292Y-91408783D01*
X92217469Y-91379267D01*
X92052580Y-91363469D01*
X91835948Y-91358167D01*
X91791125Y-91358079D01*
X91577699Y-91360850D01*
X91577699Y-91360850D01*
G37*
X91577699Y-91360850D02*
X91417633Y-91370928D01*
X91300937Y-91391298D01*
X91217619Y-91424942D01*
X91157687Y-91474846D01*
X91111150Y-91543992D01*
X91100612Y-91564286D01*
X91063852Y-91671832D01*
X91045516Y-91792054D01*
X91045050Y-91810312D01*
X91045000Y-91945250D01*
X91172000Y-91945250D01*
X91253294Y-91942084D01*
X91289417Y-91920951D01*
X91298698Y-91864400D01*
X91299000Y-91824318D01*
X91303984Y-91729608D01*
X91325245Y-91662773D01*
X91372253Y-91618568D01*
X91454474Y-91591750D01*
X91581376Y-91577076D01*
X91759307Y-91569392D01*
X91961552Y-91567199D01*
X92110206Y-91575799D01*
X92214641Y-91597777D01*
X92284234Y-91635717D01*
X92328357Y-91692201D01*
X92344690Y-91730736D01*
X92358386Y-91804530D01*
X92368418Y-91926955D01*
X92374797Y-92083249D01*
X92377534Y-92258650D01*
X92376642Y-92438394D01*
X92372130Y-92607721D01*
X92364012Y-92751866D01*
X92352299Y-92856069D01*
X92343778Y-92892628D01*
X92305503Y-92960070D01*
X92239623Y-93007733D01*
X92137939Y-93037747D01*
X91992252Y-93052240D01*
X91794365Y-93053342D01*
X91731518Y-93051639D01*
X91574862Y-93045062D01*
X91469452Y-93035834D01*
X91403035Y-93021725D01*
X91363359Y-93000509D01*
X91345856Y-92981511D01*
X91317540Y-92916862D01*
X91293370Y-92818460D01*
X91276810Y-92709546D01*
X91271327Y-92613361D01*
X91280386Y-92553147D01*
X91281641Y-92550901D01*
X91322925Y-92534235D01*
X91415817Y-92522492D01*
X91548527Y-92516994D01*
X91586624Y-92516750D01*
X91870500Y-92516750D01*
X91870500Y-92294500D01*
X91036844Y-92294500D01*
X91051335Y-92635812D01*
X91065485Y-92839674D01*
X91090498Y-92989884D01*
X91129998Y-93095878D01*
X91187613Y-93167091D01*
X91266969Y-93212957D01*
X91274223Y-93215761D01*
X91355300Y-93233913D01*
X91482798Y-93248732D01*
X91639697Y-93259609D01*
X91808975Y-93265939D01*
X91973613Y-93267113D01*
X92116590Y-93262525D01*
X92220886Y-93251567D01*
X92229745Y-93249847D01*
X92335454Y-93215488D01*
X92429773Y-93165866D01*
X92436120Y-93161318D01*
X92494575Y-93108404D01*
X92539038Y-93041828D01*
X92571317Y-92952802D01*
X92593225Y-92832538D01*
X92606570Y-92672249D01*
X92613164Y-92463147D01*
X92614696Y-92294500D01*
X92614706Y-92088773D01*
X92612439Y-91935538D01*
X92606902Y-91823797D01*
X92597104Y-91742555D01*
X92582053Y-91680816D01*
X92560757Y-91627584D01*
X92553125Y-91611875D01*
X92498443Y-91521864D01*
X92430724Y-91455241D01*
X92340292Y-91408783D01*
X92217469Y-91379267D01*
X92052580Y-91363469D01*
X91835948Y-91358167D01*
X91791125Y-91358079D01*
X91577699Y-91360850D01*
G36*
X104719118Y-92285151D02*
X104634875Y-92512904D01*
X104558260Y-92721484D01*
X104491963Y-92903456D01*
X104438672Y-93051385D01*
X104401074Y-93157837D01*
X104381859Y-93215377D01*
X104379917Y-93223187D01*
X104408120Y-93238233D01*
X104478297Y-93246470D01*
X104504355Y-93247000D01*
X104573869Y-93244345D01*
X104616833Y-93226936D01*
X104647616Y-93180604D01*
X104680589Y-93091181D01*
X104689524Y-93064437D01*
X104750339Y-92881875D01*
X105677729Y-92864325D01*
X105747494Y-93055662D01*
X105786904Y-93159065D01*
X105818735Y-93216302D01*
X105856720Y-93241024D01*
X105914594Y-93246880D01*
X105940005Y-93247000D01*
X106017967Y-93241312D01*
X106060246Y-93227162D01*
X106062750Y-93222175D01*
X106052271Y-93187194D01*
X106022610Y-93100106D01*
X105976430Y-92968426D01*
X105916395Y-92799672D01*
X105871799Y-92675500D01*
X105610092Y-92675500D01*
X105233171Y-92675500D01*
X105086941Y-92673377D01*
X104967154Y-92667597D01*
X104886146Y-92659041D01*
X104856251Y-92648591D01*
X104856250Y-92648551D01*
X104866497Y-92611128D01*
X104894887Y-92524364D01*
X104937892Y-92398606D01*
X104991987Y-92244202D01*
X105039562Y-92110676D01*
X105222873Y-91599749D01*
X105416482Y-92137624D01*
X105610092Y-92675500D01*
X105871799Y-92675500D01*
X105845171Y-92601360D01*
X105765420Y-92381005D01*
X105733591Y-92293488D01*
X105404432Y-91389625D01*
X105231417Y-91380276D01*
X105058402Y-91370928D01*
X104719118Y-92285151D01*
X104719118Y-92285151D01*
G37*
X104719118Y-92285151D02*
X104634875Y-92512904D01*
X104558260Y-92721484D01*
X104491963Y-92903456D01*
X104438672Y-93051385D01*
X104401074Y-93157837D01*
X104381859Y-93215377D01*
X104379917Y-93223187D01*
X104408120Y-93238233D01*
X104478297Y-93246470D01*
X104504355Y-93247000D01*
X104573869Y-93244345D01*
X104616833Y-93226936D01*
X104647616Y-93180604D01*
X104680589Y-93091181D01*
X104689524Y-93064437D01*
X104750339Y-92881875D01*
X105677729Y-92864325D01*
X105747494Y-93055662D01*
X105786904Y-93159065D01*
X105818735Y-93216302D01*
X105856720Y-93241024D01*
X105914594Y-93246880D01*
X105940005Y-93247000D01*
X106017967Y-93241312D01*
X106060246Y-93227162D01*
X106062750Y-93222175D01*
X106052271Y-93187194D01*
X106022610Y-93100106D01*
X105976430Y-92968426D01*
X105916395Y-92799672D01*
X105871799Y-92675500D01*
X105610092Y-92675500D01*
X105233171Y-92675500D01*
X105086941Y-92673377D01*
X104967154Y-92667597D01*
X104886146Y-92659041D01*
X104856251Y-92648591D01*
X104856250Y-92648551D01*
X104866497Y-92611128D01*
X104894887Y-92524364D01*
X104937892Y-92398606D01*
X104991987Y-92244202D01*
X105039562Y-92110676D01*
X105222873Y-91599749D01*
X105416482Y-92137624D01*
X105610092Y-92675500D01*
X105871799Y-92675500D01*
X105845171Y-92601360D01*
X105765420Y-92381005D01*
X105733591Y-92293488D01*
X105404432Y-91389625D01*
X105231417Y-91380276D01*
X105058402Y-91370928D01*
X104719118Y-92285151D01*
G36*
X101554250Y-93247000D02*
X101807160Y-93247000D01*
X101815643Y-92454708D01*
X101824125Y-91662416D01*
X102146683Y-92446770D01*
X102469240Y-93231125D01*
X102736656Y-93231125D01*
X103058266Y-92453250D01*
X103379875Y-91675375D01*
X103388368Y-92461187D01*
X103396860Y-93247000D01*
X103649750Y-93247000D01*
X103649750Y-91373750D01*
X103243351Y-91373750D01*
X103134212Y-91635687D01*
X103083449Y-91758206D01*
X103015985Y-91922012D01*
X102939024Y-92109567D01*
X102859768Y-92303330D01*
X102821474Y-92397197D01*
X102753401Y-92561465D01*
X102692568Y-92703074D01*
X102643278Y-92812415D01*
X102609833Y-92879883D01*
X102597505Y-92897259D01*
X102574616Y-92871147D01*
X102558030Y-92826312D01*
X102540783Y-92777266D01*
X102502892Y-92678886D01*
X102448064Y-92540482D01*
X102380005Y-92371365D01*
X102302421Y-92180846D01*
X102257833Y-92072250D01*
X101976739Y-91389625D01*
X101765495Y-91380236D01*
X101554250Y-91370848D01*
X101554250Y-93247000D01*
X101554250Y-93247000D01*
G37*
X101554250Y-93247000D02*
X101807160Y-93247000D01*
X101815643Y-92454708D01*
X101824125Y-91662416D01*
X102146683Y-92446770D01*
X102469240Y-93231125D01*
X102736656Y-93231125D01*
X103058266Y-92453250D01*
X103379875Y-91675375D01*
X103388368Y-92461187D01*
X103396860Y-93247000D01*
X103649750Y-93247000D01*
X103649750Y-91373750D01*
X103243351Y-91373750D01*
X103134212Y-91635687D01*
X103083449Y-91758206D01*
X103015985Y-91922012D01*
X102939024Y-92109567D01*
X102859768Y-92303330D01*
X102821474Y-92397197D01*
X102753401Y-92561465D01*
X102692568Y-92703074D01*
X102643278Y-92812415D01*
X102609833Y-92879883D01*
X102597505Y-92897259D01*
X102574616Y-92871147D01*
X102558030Y-92826312D01*
X102540783Y-92777266D01*
X102502892Y-92678886D01*
X102448064Y-92540482D01*
X102380005Y-92371365D01*
X102302421Y-92180846D01*
X102257833Y-92072250D01*
X101976739Y-91389625D01*
X101765495Y-91380236D01*
X101554250Y-91370848D01*
X101554250Y-93247000D01*
G36*
X99869339Y-91375445D02*
X99685322Y-91381927D01*
X99548365Y-91395286D01*
X99450276Y-91417614D01*
X99382862Y-91451002D01*
X99337932Y-91497542D01*
X99307294Y-91559324D01*
X99299978Y-91580192D01*
X99273132Y-91714714D01*
X99270128Y-91864916D01*
X99288795Y-92009739D01*
X99326963Y-92128123D01*
X99362005Y-92181782D01*
X99437005Y-92261616D01*
X99354926Y-92326179D01*
X99265758Y-92436274D01*
X99217888Y-92592072D01*
X99212286Y-92790226D01*
X99214066Y-92811989D01*
X99249892Y-92991370D01*
X99321929Y-93121801D01*
X99430061Y-93206844D01*
X99493298Y-93223479D01*
X99610921Y-93235498D01*
X99785701Y-93243069D01*
X100020414Y-93246360D01*
X100085813Y-93246531D01*
X100665250Y-93247000D01*
X100665250Y-93056500D01*
X100443000Y-93056500D01*
X100066738Y-93056500D01*
X99908344Y-93053633D01*
X99764341Y-93045855D01*
X99651761Y-93034396D01*
X99592112Y-93022210D01*
X99504675Y-92966671D01*
X99458268Y-92880412D01*
X99439720Y-92773308D01*
X99442850Y-92651845D01*
X99464613Y-92539453D01*
X99501967Y-92459561D01*
X99514650Y-92446335D01*
X99571387Y-92425932D01*
X99687638Y-92410274D01*
X99864872Y-92399203D01*
X100003323Y-92394642D01*
X100443000Y-92383660D01*
X100443000Y-93056500D01*
X100665250Y-93056500D01*
X100665250Y-92167500D01*
X100443000Y-92167500D01*
X100069938Y-92167066D01*
X99915896Y-92165350D01*
X99779914Y-92161020D01*
X99677662Y-92154751D01*
X99627435Y-92148010D01*
X99561472Y-92100498D01*
X99516114Y-92011040D01*
X99494309Y-91898686D01*
X99499007Y-91782486D01*
X99533158Y-91681491D01*
X99551123Y-91655079D01*
X99579636Y-91624346D01*
X99614563Y-91602968D01*
X99667610Y-91588847D01*
X99750480Y-91579884D01*
X99874876Y-91573980D01*
X100027373Y-91569664D01*
X100443000Y-91559203D01*
X100443000Y-92167500D01*
X100665250Y-92167500D01*
X100665250Y-91373750D01*
X100108606Y-91373750D01*
X99869339Y-91375445D01*
X99869339Y-91375445D01*
G37*
X99869339Y-91375445D02*
X99685322Y-91381927D01*
X99548365Y-91395286D01*
X99450276Y-91417614D01*
X99382862Y-91451002D01*
X99337932Y-91497542D01*
X99307294Y-91559324D01*
X99299978Y-91580192D01*
X99273132Y-91714714D01*
X99270128Y-91864916D01*
X99288795Y-92009739D01*
X99326963Y-92128123D01*
X99362005Y-92181782D01*
X99437005Y-92261616D01*
X99354926Y-92326179D01*
X99265758Y-92436274D01*
X99217888Y-92592072D01*
X99212286Y-92790226D01*
X99214066Y-92811989D01*
X99249892Y-92991370D01*
X99321929Y-93121801D01*
X99430061Y-93206844D01*
X99493298Y-93223479D01*
X99610921Y-93235498D01*
X99785701Y-93243069D01*
X100020414Y-93246360D01*
X100085813Y-93246531D01*
X100665250Y-93247000D01*
X100665250Y-93056500D01*
X100443000Y-93056500D01*
X100066738Y-93056500D01*
X99908344Y-93053633D01*
X99764341Y-93045855D01*
X99651761Y-93034396D01*
X99592112Y-93022210D01*
X99504675Y-92966671D01*
X99458268Y-92880412D01*
X99439720Y-92773308D01*
X99442850Y-92651845D01*
X99464613Y-92539453D01*
X99501967Y-92459561D01*
X99514650Y-92446335D01*
X99571387Y-92425932D01*
X99687638Y-92410274D01*
X99864872Y-92399203D01*
X100003323Y-92394642D01*
X100443000Y-92383660D01*
X100443000Y-93056500D01*
X100665250Y-93056500D01*
X100665250Y-92167500D01*
X100443000Y-92167500D01*
X100069938Y-92167066D01*
X99915896Y-92165350D01*
X99779914Y-92161020D01*
X99677662Y-92154751D01*
X99627435Y-92148010D01*
X99561472Y-92100498D01*
X99516114Y-92011040D01*
X99494309Y-91898686D01*
X99499007Y-91782486D01*
X99533158Y-91681491D01*
X99551123Y-91655079D01*
X99579636Y-91624346D01*
X99614563Y-91602968D01*
X99667610Y-91588847D01*
X99750480Y-91579884D01*
X99874876Y-91573980D01*
X100027373Y-91569664D01*
X100443000Y-91559203D01*
X100443000Y-92167500D01*
X100665250Y-92167500D01*
X100665250Y-91373750D01*
X100108606Y-91373750D01*
X99869339Y-91375445D01*
G36*
X97799813Y-91374218D02*
X97573810Y-91375423D01*
X97401736Y-91379970D01*
X97274038Y-91389876D01*
X97181158Y-91407157D01*
X97113540Y-91433829D01*
X97061629Y-91471911D01*
X97015869Y-91523417D01*
X97001186Y-91542765D01*
X96969090Y-91595154D01*
X96949124Y-91657705D01*
X96938604Y-91746293D01*
X96934842Y-91876794D01*
X96934625Y-91936207D01*
X96935365Y-92077293D01*
X96940122Y-92169843D01*
X96952706Y-92228823D01*
X96976928Y-92269196D01*
X97016598Y-92305927D01*
X97031912Y-92318337D01*
X97129199Y-92396666D01*
X97039850Y-92486016D01*
X97000056Y-92528718D01*
X96974266Y-92570831D01*
X96959448Y-92626786D01*
X96952569Y-92711015D01*
X96950596Y-92837950D01*
X96950500Y-92911182D01*
X96950500Y-93247000D01*
X97172750Y-93247000D01*
X97172750Y-93013612D01*
X97184263Y-92805897D01*
X97218710Y-92656359D01*
X97275956Y-92565493D01*
X97301003Y-92547829D01*
X97353992Y-92535904D01*
X97456042Y-92526097D01*
X97592727Y-92519387D01*
X97749618Y-92516756D01*
X97758038Y-92516750D01*
X98157000Y-92516750D01*
X98157000Y-93247000D01*
X98379250Y-93247000D01*
X98379250Y-91564250D01*
X98157000Y-91564250D01*
X98157000Y-92299419D01*
X97729167Y-92289022D01*
X97553803Y-92283882D01*
X97430309Y-92277226D01*
X97347054Y-92267239D01*
X97292409Y-92252105D01*
X97254743Y-92230009D01*
X97234645Y-92211846D01*
X97175898Y-92113040D01*
X97149053Y-91977430D01*
X97156957Y-91824673D01*
X97169981Y-91765036D01*
X97197279Y-91691377D01*
X97239768Y-91637908D01*
X97306820Y-91601547D01*
X97407813Y-91579212D01*
X97552120Y-91567821D01*
X97749118Y-91564292D01*
X97780738Y-91564250D01*
X98157000Y-91564250D01*
X98379250Y-91564250D01*
X98379250Y-91373750D01*
X97799813Y-91374218D01*
X97799813Y-91374218D01*
G37*
X97799813Y-91374218D02*
X97573810Y-91375423D01*
X97401736Y-91379970D01*
X97274038Y-91389876D01*
X97181158Y-91407157D01*
X97113540Y-91433829D01*
X97061629Y-91471911D01*
X97015869Y-91523417D01*
X97001186Y-91542765D01*
X96969090Y-91595154D01*
X96949124Y-91657705D01*
X96938604Y-91746293D01*
X96934842Y-91876794D01*
X96934625Y-91936207D01*
X96935365Y-92077293D01*
X96940122Y-92169843D01*
X96952706Y-92228823D01*
X96976928Y-92269196D01*
X97016598Y-92305927D01*
X97031912Y-92318337D01*
X97129199Y-92396666D01*
X97039850Y-92486016D01*
X97000056Y-92528718D01*
X96974266Y-92570831D01*
X96959448Y-92626786D01*
X96952569Y-92711015D01*
X96950596Y-92837950D01*
X96950500Y-92911182D01*
X96950500Y-93247000D01*
X97172750Y-93247000D01*
X97172750Y-93013612D01*
X97184263Y-92805897D01*
X97218710Y-92656359D01*
X97275956Y-92565493D01*
X97301003Y-92547829D01*
X97353992Y-92535904D01*
X97456042Y-92526097D01*
X97592727Y-92519387D01*
X97749618Y-92516756D01*
X97758038Y-92516750D01*
X98157000Y-92516750D01*
X98157000Y-93247000D01*
X98379250Y-93247000D01*
X98379250Y-91564250D01*
X98157000Y-91564250D01*
X98157000Y-92299419D01*
X97729167Y-92289022D01*
X97553803Y-92283882D01*
X97430309Y-92277226D01*
X97347054Y-92267239D01*
X97292409Y-92252105D01*
X97254743Y-92230009D01*
X97234645Y-92211846D01*
X97175898Y-92113040D01*
X97149053Y-91977430D01*
X97156957Y-91824673D01*
X97169981Y-91765036D01*
X97197279Y-91691377D01*
X97239768Y-91637908D01*
X97306820Y-91601547D01*
X97407813Y-91579212D01*
X97552120Y-91567821D01*
X97749118Y-91564292D01*
X97780738Y-91564250D01*
X98157000Y-91564250D01*
X98379250Y-91564250D01*
X98379250Y-91373750D01*
X97799813Y-91374218D01*
G36*
X95839250Y-93247000D02*
X96061500Y-93247000D01*
X96061500Y-91373750D01*
X95839250Y-91373750D01*
X95839250Y-93247000D01*
X95839250Y-93247000D01*
G37*
X95839250Y-93247000D02*
X96061500Y-93247000D01*
X96061500Y-91373750D01*
X95839250Y-91373750D01*
X95839250Y-93247000D01*
G36*
X94161218Y-91374263D02*
X94005441Y-91376521D01*
X93891381Y-91381600D01*
X93808151Y-91390578D01*
X93744861Y-91404531D01*
X93690621Y-91424536D01*
X93647290Y-91445187D01*
X93558528Y-91496563D01*
X93491445Y-91555429D01*
X93443111Y-91631052D01*
X93410593Y-91732701D01*
X93390961Y-91869642D01*
X93381283Y-92051143D01*
X93378627Y-92286471D01*
X93378625Y-92294500D01*
X93379159Y-92490609D01*
X93381691Y-92635252D01*
X93387621Y-92740455D01*
X93398347Y-92818250D01*
X93415268Y-92880664D01*
X93439784Y-92939728D01*
X93458000Y-92977125D01*
X93504502Y-93062471D01*
X93553651Y-93127708D01*
X93614359Y-93175515D01*
X93695536Y-93208574D01*
X93806092Y-93229564D01*
X93954939Y-93241166D01*
X94150986Y-93246061D01*
X94354938Y-93246950D01*
X94950250Y-93247000D01*
X94950250Y-93056500D01*
X94696250Y-93056500D01*
X94323188Y-93054707D01*
X94163665Y-93050766D01*
X94016829Y-93041452D01*
X93900511Y-93028228D01*
X93839000Y-93015020D01*
X93754046Y-92973726D01*
X93690950Y-92910313D01*
X93646979Y-92816454D01*
X93619398Y-92683826D01*
X93605473Y-92504103D01*
X93602359Y-92294500D01*
X93607134Y-92060677D01*
X93624786Y-91882601D01*
X93662560Y-91752768D01*
X93727699Y-91663676D01*
X93827447Y-91607820D01*
X93969047Y-91577698D01*
X94159743Y-91565807D01*
X94307313Y-91564299D01*
X94696250Y-91564250D01*
X94696250Y-93056500D01*
X94950250Y-93056500D01*
X94950250Y-91373750D01*
X94369603Y-91373750D01*
X94161218Y-91374263D01*
X94161218Y-91374263D01*
G37*
X94161218Y-91374263D02*
X94005441Y-91376521D01*
X93891381Y-91381600D01*
X93808151Y-91390578D01*
X93744861Y-91404531D01*
X93690621Y-91424536D01*
X93647290Y-91445187D01*
X93558528Y-91496563D01*
X93491445Y-91555429D01*
X93443111Y-91631052D01*
X93410593Y-91732701D01*
X93390961Y-91869642D01*
X93381283Y-92051143D01*
X93378627Y-92286471D01*
X93378625Y-92294500D01*
X93379159Y-92490609D01*
X93381691Y-92635252D01*
X93387621Y-92740455D01*
X93398347Y-92818250D01*
X93415268Y-92880664D01*
X93439784Y-92939728D01*
X93458000Y-92977125D01*
X93504502Y-93062471D01*
X93553651Y-93127708D01*
X93614359Y-93175515D01*
X93695536Y-93208574D01*
X93806092Y-93229564D01*
X93954939Y-93241166D01*
X94150986Y-93246061D01*
X94354938Y-93246950D01*
X94950250Y-93247000D01*
X94950250Y-93056500D01*
X94696250Y-93056500D01*
X94323188Y-93054707D01*
X94163665Y-93050766D01*
X94016829Y-93041452D01*
X93900511Y-93028228D01*
X93839000Y-93015020D01*
X93754046Y-92973726D01*
X93690950Y-92910313D01*
X93646979Y-92816454D01*
X93619398Y-92683826D01*
X93605473Y-92504103D01*
X93602359Y-92294500D01*
X93607134Y-92060677D01*
X93624786Y-91882601D01*
X93662560Y-91752768D01*
X93727699Y-91663676D01*
X93827447Y-91607820D01*
X93969047Y-91577698D01*
X94159743Y-91565807D01*
X94307313Y-91564299D01*
X94696250Y-91564250D01*
X94696250Y-93056500D01*
X94950250Y-93056500D01*
X94950250Y-91373750D01*
X94369603Y-91373750D01*
X94161218Y-91374263D01*
G36*
X89108250Y-91564250D02*
X90092500Y-91564250D01*
X90092500Y-92167500D01*
X89140000Y-92167500D01*
X89140000Y-92389750D01*
X90092500Y-92389750D01*
X90092500Y-93056500D01*
X89108250Y-93056500D01*
X89108250Y-93247000D01*
X90314750Y-93247000D01*
X90314750Y-91373750D01*
X89108250Y-91373750D01*
X89108250Y-91564250D01*
X89108250Y-91564250D01*
G37*
X89108250Y-91564250D02*
X90092500Y-91564250D01*
X90092500Y-92167500D01*
X89140000Y-92167500D01*
X89140000Y-92389750D01*
X90092500Y-92389750D01*
X90092500Y-93056500D01*
X89108250Y-93056500D01*
X89108250Y-93247000D01*
X90314750Y-93247000D01*
X90314750Y-91373750D01*
X89108250Y-91373750D01*
X89108250Y-91564250D01*
%LPC*%
D10*
G36*
X89549009Y-106552408D02*
X89597545Y-106559607D01*
X89645142Y-106571530D01*
X89691342Y-106588060D01*
X89735698Y-106609039D01*
X89777785Y-106634265D01*
X89817197Y-106663495D01*
X89853553Y-106696447D01*
X89886505Y-106732803D01*
X89915735Y-106772215D01*
X89940961Y-106814302D01*
X89961940Y-106858658D01*
X89978470Y-106904858D01*
X89990393Y-106952455D01*
X89997592Y-107000991D01*
X90000000Y-107050000D01*
X90000000Y-112550000D01*
X89997592Y-112599009D01*
X89990393Y-112647545D01*
X89978470Y-112695142D01*
X89961940Y-112741342D01*
X89940961Y-112785698D01*
X89915735Y-112827785D01*
X89886505Y-112867197D01*
X89853553Y-112903553D01*
X89817197Y-112936505D01*
X89777785Y-112965735D01*
X89735698Y-112990961D01*
X89691342Y-113011940D01*
X89645142Y-113028470D01*
X89597545Y-113040393D01*
X89549009Y-113047592D01*
X89500000Y-113050000D01*
X88500000Y-113050000D01*
X88450991Y-113047592D01*
X88402455Y-113040393D01*
X88354858Y-113028470D01*
X88308658Y-113011940D01*
X88264302Y-112990961D01*
X88222215Y-112965735D01*
X88182803Y-112936505D01*
X88146447Y-112903553D01*
X88113495Y-112867197D01*
X88084265Y-112827785D01*
X88059039Y-112785698D01*
X88038060Y-112741342D01*
X88021530Y-112695142D01*
X88009607Y-112647545D01*
X88002408Y-112599009D01*
X88000000Y-112550000D01*
X88000000Y-107050000D01*
X88002408Y-107000991D01*
X88009607Y-106952455D01*
X88021530Y-106904858D01*
X88038060Y-106858658D01*
X88059039Y-106814302D01*
X88084265Y-106772215D01*
X88113495Y-106732803D01*
X88146447Y-106696447D01*
X88182803Y-106663495D01*
X88222215Y-106634265D01*
X88264302Y-106609039D01*
X88308658Y-106588060D01*
X88354858Y-106571530D01*
X88402455Y-106559607D01*
X88450991Y-106552408D01*
X88500000Y-106550000D01*
X89500000Y-106550000D01*
X89549009Y-106552408D01*
X89549009Y-106552408D01*
G37*
G36*
X111549009Y-86952408D02*
X111597545Y-86959607D01*
X111645142Y-86971530D01*
X111691342Y-86988060D01*
X111735698Y-87009039D01*
X111777785Y-87034265D01*
X111817197Y-87063495D01*
X111853553Y-87096447D01*
X111886505Y-87132803D01*
X111915735Y-87172215D01*
X111940961Y-87214302D01*
X111961940Y-87258658D01*
X111978470Y-87304858D01*
X111990393Y-87352455D01*
X111997592Y-87400991D01*
X112000000Y-87450000D01*
X112000000Y-92950000D01*
X111997592Y-92999009D01*
X111990393Y-93047545D01*
X111978470Y-93095142D01*
X111961940Y-93141342D01*
X111940961Y-93185698D01*
X111915735Y-93227785D01*
X111886505Y-93267197D01*
X111853553Y-93303553D01*
X111817197Y-93336505D01*
X111777785Y-93365735D01*
X111735698Y-93390961D01*
X111691342Y-93411940D01*
X111645142Y-93428470D01*
X111597545Y-93440393D01*
X111549009Y-93447592D01*
X111500000Y-93450000D01*
X110500000Y-93450000D01*
X110450991Y-93447592D01*
X110402455Y-93440393D01*
X110354858Y-93428470D01*
X110308658Y-93411940D01*
X110264302Y-93390961D01*
X110222215Y-93365735D01*
X110182803Y-93336505D01*
X110146447Y-93303553D01*
X110113495Y-93267197D01*
X110084265Y-93227785D01*
X110059039Y-93185698D01*
X110038060Y-93141342D01*
X110021530Y-93095142D01*
X110009607Y-93047545D01*
X110002408Y-92999009D01*
X110000000Y-92950000D01*
X110000000Y-87450000D01*
X110002408Y-87400991D01*
X110009607Y-87352455D01*
X110021530Y-87304858D01*
X110038060Y-87258658D01*
X110059039Y-87214302D01*
X110084265Y-87172215D01*
X110113495Y-87132803D01*
X110146447Y-87096447D01*
X110182803Y-87063495D01*
X110222215Y-87034265D01*
X110264302Y-87009039D01*
X110308658Y-86988060D01*
X110354858Y-86971530D01*
X110402455Y-86959607D01*
X110450991Y-86952408D01*
X110500000Y-86950000D01*
X111500000Y-86950000D01*
X111549009Y-86952408D01*
X111549009Y-86952408D01*
G37*
D13*
X83635000Y-94285000D03*
X86365000Y-94285000D03*
X83635000Y-95555000D03*
X86365000Y-95555000D03*
X83635000Y-96825000D03*
X86365000Y-96825000D03*
X83635000Y-98095000D03*
X86365000Y-98095000D03*
X83635000Y-99365000D03*
X86365000Y-99365000D03*
X83635000Y-100635000D03*
X86365000Y-100635000D03*
X83635000Y-101905000D03*
X86365000Y-101905000D03*
X83635000Y-103175000D03*
X86365000Y-103175000D03*
X83635000Y-104445000D03*
X86365000Y-104445000D03*
X83635000Y-105715000D03*
X86365000Y-105715000D03*
D14*
X85000000Y-107305000D03*
X85000000Y-92695000D03*
D13*
X113635000Y-94285000D03*
X116365000Y-94285000D03*
X113635000Y-95555000D03*
X116365000Y-95555000D03*
X113635000Y-96825000D03*
X116365000Y-96825000D03*
X113635000Y-98095000D03*
X116365000Y-98095000D03*
X113635000Y-99365000D03*
X116365000Y-99365000D03*
X113635000Y-100635000D03*
X116365000Y-100635000D03*
X113635000Y-101905000D03*
X116365000Y-101905000D03*
X113635000Y-103175000D03*
X116365000Y-103175000D03*
X113635000Y-104445000D03*
X116365000Y-104445000D03*
X113635000Y-105715000D03*
X116365000Y-105715000D03*
D14*
X115000000Y-107305000D03*
X115000000Y-92695000D03*
D15*
X97460000Y-85865000D03*
X97460000Y-83135000D03*
X98730000Y-85865000D03*
X98730000Y-83135000D03*
X100000000Y-85865000D03*
X100000000Y-83135000D03*
X101270000Y-85865000D03*
X101270000Y-83135000D03*
X102540000Y-85865000D03*
X102540000Y-83135000D03*
D14*
X104130000Y-84500000D03*
X95870000Y-84500000D03*
D10*
G36*
X114521558Y-88552287D02*
X114567668Y-88559127D01*
X114612885Y-88570453D01*
X114656775Y-88586157D01*
X114698913Y-88606087D01*
X114738896Y-88630052D01*
X114776337Y-88657820D01*
X114810876Y-88689124D01*
X114842180Y-88723663D01*
X114869948Y-88761104D01*
X114893913Y-88801087D01*
X114913843Y-88843225D01*
X114929547Y-88887115D01*
X114940873Y-88932332D01*
X114947713Y-88978442D01*
X114950000Y-89025000D01*
X114950000Y-89975000D01*
X114947713Y-90021558D01*
X114940873Y-90067668D01*
X114929547Y-90112885D01*
X114913843Y-90156775D01*
X114893913Y-90198913D01*
X114869948Y-90238896D01*
X114842180Y-90276337D01*
X114810876Y-90310876D01*
X114776337Y-90342180D01*
X114738896Y-90369948D01*
X114698913Y-90393913D01*
X114656775Y-90413843D01*
X114612885Y-90429547D01*
X114567668Y-90440873D01*
X114521558Y-90447713D01*
X114475000Y-90450000D01*
X113525000Y-90450000D01*
X113478442Y-90447713D01*
X113432332Y-90440873D01*
X113387115Y-90429547D01*
X113343225Y-90413843D01*
X113301087Y-90393913D01*
X113261104Y-90369948D01*
X113223663Y-90342180D01*
X113189124Y-90310876D01*
X113157820Y-90276337D01*
X113130052Y-90238896D01*
X113106087Y-90198913D01*
X113086157Y-90156775D01*
X113070453Y-90112885D01*
X113059127Y-90067668D01*
X113052287Y-90021558D01*
X113050000Y-89975000D01*
X113050000Y-89025000D01*
X113052287Y-88978442D01*
X113059127Y-88932332D01*
X113070453Y-88887115D01*
X113086157Y-88843225D01*
X113106087Y-88801087D01*
X113130052Y-88761104D01*
X113157820Y-88723663D01*
X113189124Y-88689124D01*
X113223663Y-88657820D01*
X113261104Y-88630052D01*
X113301087Y-88606087D01*
X113343225Y-88586157D01*
X113387115Y-88570453D01*
X113432332Y-88559127D01*
X113478442Y-88552287D01*
X113525000Y-88550000D01*
X114475000Y-88550000D01*
X114521558Y-88552287D01*
X114521558Y-88552287D01*
G37*
M02*
