G04 #@! TF.FileFunction,Copper,L2,Bot,Signal*
%FSLAX46Y46*%
G04 Gerber Fmt 4.6, Leading zero omitted, Abs format (unit mm)*
G04 Created by KiCad (PCBNEW 201609280951+7255~55~ubuntu14.04.1-) date Wed Jan 11 23:22:20 2017*
%MOMM*%
%LPD*%
G01*
G04 APERTURE LIST*
%ADD10C,0.100000*%
%ADD11C,0.400000*%
%ADD12R,0.740000X2.220000*%
%ADD13C,2.000000*%
%ADD14R,2.220000X0.740000*%
%ADD15C,1.900000*%
%ADD16C,0.700000*%
%ADD17C,0.800000*%
%ADD18C,1.000000*%
%ADD19C,0.450000*%
%ADD20C,0.200000*%
%ADD21C,0.280000*%
%ADD22C,0.800000*%
%ADD23C,0.600000*%
G04 APERTURE END LIST*
D10*
D11*
X96100000Y-97850000D03*
X94700000Y-97850000D03*
X93300000Y-97850000D03*
X96100000Y-99250000D03*
X94700000Y-99250000D03*
X93300000Y-99250000D03*
X96100000Y-100650000D03*
X94700000Y-100650000D03*
X93300000Y-100650000D03*
D12*
X102540000Y-83135000D03*
X102540000Y-85865000D03*
X101270000Y-83135000D03*
X101270000Y-85865000D03*
X100000000Y-83135000D03*
X100000000Y-85865000D03*
X98730000Y-83135000D03*
X98730000Y-85865000D03*
X97460000Y-83135000D03*
X97460000Y-85865000D03*
D10*
G36*
X91549009Y-106552408D02*
X91597545Y-106559607D01*
X91645142Y-106571530D01*
X91691342Y-106588060D01*
X91735698Y-106609039D01*
X91777785Y-106634265D01*
X91817197Y-106663495D01*
X91853553Y-106696447D01*
X91886505Y-106732803D01*
X91915735Y-106772215D01*
X91940961Y-106814302D01*
X91961940Y-106858658D01*
X91978470Y-106904858D01*
X91990393Y-106952455D01*
X91997592Y-107000991D01*
X92000000Y-107050000D01*
X92000000Y-112550000D01*
X91997592Y-112599009D01*
X91990393Y-112647545D01*
X91978470Y-112695142D01*
X91961940Y-112741342D01*
X91940961Y-112785698D01*
X91915735Y-112827785D01*
X91886505Y-112867197D01*
X91853553Y-112903553D01*
X91817197Y-112936505D01*
X91777785Y-112965735D01*
X91735698Y-112990961D01*
X91691342Y-113011940D01*
X91645142Y-113028470D01*
X91597545Y-113040393D01*
X91549009Y-113047592D01*
X91500000Y-113050000D01*
X90500000Y-113050000D01*
X90450991Y-113047592D01*
X90402455Y-113040393D01*
X90354858Y-113028470D01*
X90308658Y-113011940D01*
X90264302Y-112990961D01*
X90222215Y-112965735D01*
X90182803Y-112936505D01*
X90146447Y-112903553D01*
X90113495Y-112867197D01*
X90084265Y-112827785D01*
X90059039Y-112785698D01*
X90038060Y-112741342D01*
X90021530Y-112695142D01*
X90009607Y-112647545D01*
X90002408Y-112599009D01*
X90000000Y-112550000D01*
X90000000Y-107050000D01*
X90002408Y-107000991D01*
X90009607Y-106952455D01*
X90021530Y-106904858D01*
X90038060Y-106858658D01*
X90059039Y-106814302D01*
X90084265Y-106772215D01*
X90113495Y-106732803D01*
X90146447Y-106696447D01*
X90182803Y-106663495D01*
X90222215Y-106634265D01*
X90264302Y-106609039D01*
X90308658Y-106588060D01*
X90354858Y-106571530D01*
X90402455Y-106559607D01*
X90450991Y-106552408D01*
X90500000Y-106550000D01*
X91500000Y-106550000D01*
X91549009Y-106552408D01*
X91549009Y-106552408D01*
G37*
D13*
X91000000Y-109800000D03*
D10*
G36*
X109549009Y-86952408D02*
X109597545Y-86959607D01*
X109645142Y-86971530D01*
X109691342Y-86988060D01*
X109735698Y-87009039D01*
X109777785Y-87034265D01*
X109817197Y-87063495D01*
X109853553Y-87096447D01*
X109886505Y-87132803D01*
X109915735Y-87172215D01*
X109940961Y-87214302D01*
X109961940Y-87258658D01*
X109978470Y-87304858D01*
X109990393Y-87352455D01*
X109997592Y-87400991D01*
X110000000Y-87450000D01*
X110000000Y-92950000D01*
X109997592Y-92999009D01*
X109990393Y-93047545D01*
X109978470Y-93095142D01*
X109961940Y-93141342D01*
X109940961Y-93185698D01*
X109915735Y-93227785D01*
X109886505Y-93267197D01*
X109853553Y-93303553D01*
X109817197Y-93336505D01*
X109777785Y-93365735D01*
X109735698Y-93390961D01*
X109691342Y-93411940D01*
X109645142Y-93428470D01*
X109597545Y-93440393D01*
X109549009Y-93447592D01*
X109500000Y-93450000D01*
X108500000Y-93450000D01*
X108450991Y-93447592D01*
X108402455Y-93440393D01*
X108354858Y-93428470D01*
X108308658Y-93411940D01*
X108264302Y-93390961D01*
X108222215Y-93365735D01*
X108182803Y-93336505D01*
X108146447Y-93303553D01*
X108113495Y-93267197D01*
X108084265Y-93227785D01*
X108059039Y-93185698D01*
X108038060Y-93141342D01*
X108021530Y-93095142D01*
X108009607Y-93047545D01*
X108002408Y-92999009D01*
X108000000Y-92950000D01*
X108000000Y-87450000D01*
X108002408Y-87400991D01*
X108009607Y-87352455D01*
X108021530Y-87304858D01*
X108038060Y-87258658D01*
X108059039Y-87214302D01*
X108084265Y-87172215D01*
X108113495Y-87132803D01*
X108146447Y-87096447D01*
X108182803Y-87063495D01*
X108222215Y-87034265D01*
X108264302Y-87009039D01*
X108308658Y-86988060D01*
X108354858Y-86971530D01*
X108402455Y-86959607D01*
X108450991Y-86952408D01*
X108500000Y-86950000D01*
X109500000Y-86950000D01*
X109549009Y-86952408D01*
X109549009Y-86952408D01*
G37*
D13*
X109000000Y-90200000D03*
D14*
X86365000Y-105715000D03*
X83635000Y-105715000D03*
X86365000Y-104445000D03*
X83635000Y-104445000D03*
X86365000Y-103175000D03*
X83635000Y-103175000D03*
X86365000Y-101905000D03*
X83635000Y-101905000D03*
X86365000Y-100635000D03*
X83635000Y-100635000D03*
X86365000Y-99365000D03*
X83635000Y-99365000D03*
X86365000Y-98095000D03*
X83635000Y-98095000D03*
X86365000Y-96825000D03*
X83635000Y-96825000D03*
X86365000Y-95555000D03*
X83635000Y-95555000D03*
X86365000Y-94285000D03*
X83635000Y-94285000D03*
X116365000Y-105715000D03*
X113635000Y-105715000D03*
X116365000Y-104445000D03*
X113635000Y-104445000D03*
X116365000Y-103175000D03*
X113635000Y-103175000D03*
X116365000Y-101905000D03*
X113635000Y-101905000D03*
X116365000Y-100635000D03*
X113635000Y-100635000D03*
X116365000Y-99365000D03*
X113635000Y-99365000D03*
X116365000Y-98095000D03*
X113635000Y-98095000D03*
X116365000Y-96825000D03*
X113635000Y-96825000D03*
X116365000Y-95555000D03*
X113635000Y-95555000D03*
X116365000Y-94285000D03*
X113635000Y-94285000D03*
D10*
G36*
X114921558Y-89152287D02*
X114967668Y-89159127D01*
X115012885Y-89170453D01*
X115056775Y-89186157D01*
X115098913Y-89206087D01*
X115138896Y-89230052D01*
X115176337Y-89257820D01*
X115210876Y-89289124D01*
X115242180Y-89323663D01*
X115269948Y-89361104D01*
X115293913Y-89401087D01*
X115313843Y-89443225D01*
X115329547Y-89487115D01*
X115340873Y-89532332D01*
X115347713Y-89578442D01*
X115350000Y-89625000D01*
X115350000Y-90575000D01*
X115347713Y-90621558D01*
X115340873Y-90667668D01*
X115329547Y-90712885D01*
X115313843Y-90756775D01*
X115293913Y-90798913D01*
X115269948Y-90838896D01*
X115242180Y-90876337D01*
X115210876Y-90910876D01*
X115176337Y-90942180D01*
X115138896Y-90969948D01*
X115098913Y-90993913D01*
X115056775Y-91013843D01*
X115012885Y-91029547D01*
X114967668Y-91040873D01*
X114921558Y-91047713D01*
X114875000Y-91050000D01*
X113925000Y-91050000D01*
X113878442Y-91047713D01*
X113832332Y-91040873D01*
X113787115Y-91029547D01*
X113743225Y-91013843D01*
X113701087Y-90993913D01*
X113661104Y-90969948D01*
X113623663Y-90942180D01*
X113589124Y-90910876D01*
X113557820Y-90876337D01*
X113530052Y-90838896D01*
X113506087Y-90798913D01*
X113486157Y-90756775D01*
X113470453Y-90712885D01*
X113459127Y-90667668D01*
X113452287Y-90621558D01*
X113450000Y-90575000D01*
X113450000Y-89625000D01*
X113452287Y-89578442D01*
X113459127Y-89532332D01*
X113470453Y-89487115D01*
X113486157Y-89443225D01*
X113506087Y-89401087D01*
X113530052Y-89361104D01*
X113557820Y-89323663D01*
X113589124Y-89289124D01*
X113623663Y-89257820D01*
X113661104Y-89230052D01*
X113701087Y-89206087D01*
X113743225Y-89186157D01*
X113787115Y-89170453D01*
X113832332Y-89159127D01*
X113878442Y-89152287D01*
X113925000Y-89150000D01*
X114875000Y-89150000D01*
X114921558Y-89152287D01*
X114921558Y-89152287D01*
G37*
D15*
X114400000Y-90100000D03*
D16*
X100450000Y-96450000D03*
D17*
X93650000Y-111500000D03*
X92600000Y-111500000D03*
D16*
X90300000Y-104350000D03*
X91750000Y-103050000D03*
X94989998Y-104550000D03*
X103500000Y-101500000D03*
X93700000Y-94550000D03*
X97850000Y-104350000D03*
X99000000Y-92650000D03*
X105650000Y-93450000D03*
X92200000Y-88250000D03*
X93350000Y-88300000D03*
X81820000Y-95560000D03*
X88180000Y-95570000D03*
X81820000Y-96820000D03*
X88180000Y-96820000D03*
X81820000Y-98090000D03*
X81750000Y-99350000D03*
X88200000Y-99350000D03*
X81750000Y-100650000D03*
X88180000Y-100640000D03*
X81800000Y-101900000D03*
X88180000Y-101910000D03*
X81820000Y-103180000D03*
X88200000Y-103200000D03*
X81820000Y-104450000D03*
X88200000Y-104450000D03*
X88180000Y-98100000D03*
X111820000Y-95550000D03*
X118180000Y-95560000D03*
X111820000Y-96830000D03*
X118180000Y-96820000D03*
X111820000Y-98090000D03*
X118200000Y-98100000D03*
X111820000Y-99370000D03*
X118180000Y-99360000D03*
X111820000Y-100640000D03*
X118180000Y-100640000D03*
X111800000Y-101900000D03*
X118180000Y-101910000D03*
X111820000Y-103180000D03*
X118180000Y-103170000D03*
X107650000Y-103350000D03*
X108500000Y-105950000D03*
X97670000Y-87690000D03*
X98730000Y-87690000D03*
D17*
X93650000Y-109600000D03*
X92800000Y-109600000D03*
D16*
X98650000Y-102000000D03*
X111000000Y-106700000D03*
D17*
X105650000Y-112650000D03*
X107400000Y-112650000D03*
X108450000Y-112650000D03*
X109500000Y-112650000D03*
X110550000Y-112650000D03*
X93100000Y-107050000D03*
D16*
X107950000Y-100000000D03*
X111800000Y-105700000D03*
X88200000Y-105700000D03*
X81820000Y-94280000D03*
X111820000Y-94290000D03*
X118180000Y-94290000D03*
X118180000Y-105720000D03*
X81820000Y-105720000D03*
X88180000Y-94290000D03*
X103250000Y-107000000D03*
X100600000Y-101900000D03*
X106300000Y-94650000D03*
X97150000Y-94650000D03*
X104950000Y-94950000D03*
X95750000Y-94100000D03*
X92150000Y-101600000D03*
X91650000Y-92900000D03*
X92500000Y-102439998D03*
X90500000Y-92750000D03*
X104600000Y-107500000D03*
X99800000Y-101460002D03*
X98650000Y-100050000D03*
X98550000Y-105200000D03*
X101450000Y-98300000D03*
X93850000Y-93350000D03*
X94100000Y-90200000D03*
X95450000Y-90200000D03*
X97450000Y-96850000D03*
X95050000Y-93400000D03*
X118170000Y-104445000D03*
X111820000Y-104450000D03*
X98000000Y-93250000D03*
X104850000Y-94000000D03*
X105100000Y-87900000D03*
X99050000Y-90150000D03*
X94600000Y-86000000D03*
X94600000Y-88300000D03*
X92850000Y-92800000D03*
X103850000Y-83050000D03*
X92050000Y-96500000D03*
D18*
X92600000Y-111500000D02*
X93650000Y-111500000D01*
X93650000Y-111500000D02*
X93650000Y-111320710D01*
X93650000Y-111320710D02*
X93200000Y-110870710D01*
X91000000Y-109800000D02*
X92070710Y-110870710D01*
X92070710Y-110870710D02*
X93200000Y-110870710D01*
D19*
X90300000Y-104350000D02*
X90300000Y-103550000D01*
D20*
X91050000Y-102800000D02*
X91149999Y-102700001D01*
X91149999Y-102700001D02*
X91400001Y-102700001D01*
X91400001Y-102700001D02*
X91750000Y-103050000D01*
D19*
X90300000Y-103550000D02*
X91050000Y-102800000D01*
D20*
X105650000Y-93450000D02*
X105350001Y-93150001D01*
X105350001Y-93150001D02*
X99500001Y-93150001D01*
X99500001Y-93150001D02*
X99000000Y-92650000D01*
X101450000Y-89300000D02*
X102540000Y-88210000D01*
X102540000Y-88210000D02*
X102540000Y-85865000D01*
X98850000Y-89300000D02*
X101450000Y-89300000D01*
X98650000Y-89500000D02*
X98850000Y-89300000D01*
X92955026Y-89500000D02*
X98650000Y-89500000D01*
X92200000Y-88250000D02*
X92200000Y-88744974D01*
X92200000Y-88744974D02*
X92955026Y-89500000D01*
X102540000Y-86605000D02*
X102540000Y-85865000D01*
X98484311Y-89099990D02*
X94149990Y-89099990D01*
X94149990Y-89099990D02*
X93350000Y-88300000D01*
X101270000Y-85865000D02*
X101270000Y-87175000D01*
X101270000Y-87175000D02*
X99545010Y-88899990D01*
X99545010Y-88899990D02*
X98684311Y-88899990D01*
X98684311Y-88899990D02*
X98484311Y-89099990D01*
D21*
X81820000Y-95560000D02*
X81825000Y-95555000D01*
D22*
X81825000Y-95555000D02*
X83635000Y-95555000D01*
D21*
X88180000Y-95570000D02*
X88165000Y-95555000D01*
D22*
X88165000Y-95555000D02*
X86365000Y-95555000D01*
X83635000Y-96825000D02*
X81825000Y-96825000D01*
D21*
X81825000Y-96825000D02*
X81820000Y-96820000D01*
D22*
X86365000Y-96825000D02*
X88175000Y-96825000D01*
D21*
X88175000Y-96825000D02*
X88180000Y-96820000D01*
X81820000Y-98090000D02*
X81825000Y-98095000D01*
D22*
X81825000Y-98095000D02*
X83635000Y-98095000D01*
X83635000Y-99365000D02*
X81765000Y-99365000D01*
X81765000Y-99365000D02*
X81750000Y-99350000D01*
X86365000Y-99365000D02*
X88185000Y-99365000D01*
X88185000Y-99365000D02*
X88200000Y-99350000D01*
X83635000Y-100635000D02*
X81765000Y-100635000D01*
X81765000Y-100635000D02*
X81750000Y-100650000D01*
D21*
X88180000Y-100640000D02*
X88175000Y-100635000D01*
D22*
X88175000Y-100635000D02*
X86365000Y-100635000D01*
X83635000Y-101905000D02*
X81805000Y-101905000D01*
X81805000Y-101905000D02*
X81800000Y-101900000D01*
X86365000Y-101905000D02*
X88175000Y-101905000D01*
D21*
X88175000Y-101905000D02*
X88180000Y-101910000D01*
X81820000Y-103180000D02*
X81825000Y-103175000D01*
D22*
X81825000Y-103175000D02*
X83635000Y-103175000D01*
X86365000Y-103175000D02*
X88175000Y-103175000D01*
X88175000Y-103175000D02*
X88200000Y-103200000D01*
X83635000Y-104445000D02*
X81825000Y-104445000D01*
D21*
X81825000Y-104445000D02*
X81820000Y-104450000D01*
D22*
X86365000Y-104445000D02*
X88195000Y-104445000D01*
X88195000Y-104445000D02*
X88200000Y-104450000D01*
D21*
X88180000Y-98100000D02*
X88175000Y-98095000D01*
D22*
X88175000Y-98095000D02*
X86365000Y-98095000D01*
X113635000Y-95555000D02*
X116365000Y-95555000D01*
X113635000Y-95555000D02*
X111825000Y-95555000D01*
D21*
X111825000Y-95555000D02*
X111820000Y-95550000D01*
X118180000Y-95560000D02*
X118175000Y-95555000D01*
D22*
X118175000Y-95555000D02*
X116365000Y-95555000D01*
X116365000Y-96825000D02*
X113635000Y-96825000D01*
X113635000Y-96825000D02*
X111825000Y-96825000D01*
D21*
X111825000Y-96825000D02*
X111820000Y-96830000D01*
D22*
X116365000Y-96825000D02*
X118175000Y-96825000D01*
D21*
X118175000Y-96825000D02*
X118180000Y-96820000D01*
D22*
X113635000Y-98095000D02*
X111825000Y-98095000D01*
D21*
X111825000Y-98095000D02*
X111820000Y-98090000D01*
D22*
X116365000Y-98095000D02*
X118195000Y-98095000D01*
X118195000Y-98095000D02*
X118200000Y-98100000D01*
X113635000Y-99365000D02*
X111825000Y-99365000D01*
D21*
X111825000Y-99365000D02*
X111820000Y-99370000D01*
D22*
X116365000Y-99365000D02*
X118175000Y-99365000D01*
D21*
X118175000Y-99365000D02*
X118180000Y-99360000D01*
D22*
X113635000Y-100635000D02*
X111825000Y-100635000D01*
D21*
X111825000Y-100635000D02*
X111820000Y-100640000D01*
X118180000Y-100640000D02*
X118175000Y-100635000D01*
D22*
X118175000Y-100635000D02*
X116365000Y-100635000D01*
X111800000Y-101900000D02*
X113630000Y-101900000D01*
X113630000Y-101900000D02*
X113635000Y-101905000D01*
X116365000Y-101905000D02*
X118175000Y-101905000D01*
D21*
X118175000Y-101905000D02*
X118180000Y-101910000D01*
D22*
X113635000Y-103175000D02*
X111825000Y-103175000D01*
D21*
X111825000Y-103175000D02*
X111820000Y-103180000D01*
D22*
X116365000Y-103175000D02*
X118175000Y-103175000D01*
D21*
X118175000Y-103175000D02*
X118180000Y-103170000D01*
D20*
X107650000Y-103350000D02*
X108700000Y-104400000D01*
X108700000Y-104400000D02*
X108700000Y-105750000D01*
X108700000Y-105750000D02*
X108500000Y-105950000D01*
D23*
X97445000Y-83135000D02*
X97460000Y-83135000D01*
D22*
X97460000Y-83135000D02*
X97460000Y-85865000D01*
D18*
X98730000Y-85865000D02*
X98730000Y-83135000D01*
X98730000Y-87690000D02*
X97670000Y-87690000D01*
X98730000Y-85865000D02*
X98730000Y-87690000D01*
D22*
X92800000Y-109600000D02*
X93650000Y-109600000D01*
D20*
X99250000Y-102600000D02*
X99250000Y-107100000D01*
X98650000Y-102000000D02*
X99250000Y-102600000D01*
X108450000Y-112650000D02*
X107400000Y-112650000D01*
X110550000Y-112650000D02*
X109500000Y-112650000D01*
D22*
X86365000Y-94285000D02*
X83635000Y-94285000D01*
X113635000Y-105715000D02*
X111815000Y-105715000D01*
X111815000Y-105715000D02*
X111800000Y-105700000D01*
X86365000Y-105715000D02*
X88185000Y-105715000D01*
X88185000Y-105715000D02*
X88200000Y-105700000D01*
X83635000Y-105715000D02*
X86365000Y-105715000D01*
X113635000Y-105715000D02*
X116365000Y-105715000D01*
X113635000Y-94285000D02*
X116365000Y-94285000D01*
X83635000Y-94285000D02*
X81825000Y-94285000D01*
D23*
X81825000Y-94285000D02*
X81820000Y-94280000D01*
D22*
X113635000Y-94285000D02*
X111825000Y-94285000D01*
X111825000Y-94285000D02*
X111820000Y-94290000D01*
X116365000Y-94285000D02*
X118175000Y-94285000D01*
X118175000Y-94285000D02*
X118180000Y-94290000D01*
X118180000Y-105720000D02*
X118175000Y-105715000D01*
X118175000Y-105715000D02*
X116365000Y-105715000D01*
X81820000Y-105720000D02*
X81825000Y-105715000D01*
X81825000Y-105715000D02*
X83635000Y-105715000D01*
D21*
X88180000Y-94290000D02*
X88175000Y-94285000D01*
D22*
X88175000Y-94285000D02*
X86365000Y-94285000D01*
D20*
X100650000Y-102494974D02*
X100650000Y-104894974D01*
X103250000Y-107000000D02*
X102755026Y-107000000D01*
X102755026Y-107000000D02*
X100650000Y-104894974D01*
X100650000Y-102494974D02*
X100600000Y-102444974D01*
X100600000Y-102444974D02*
X100600000Y-101900000D01*
X105250000Y-95700000D02*
X106300000Y-94650000D01*
X97150000Y-94650000D02*
X97574264Y-94650000D01*
X97574264Y-94650000D02*
X97674264Y-94750000D01*
X97674264Y-94750000D02*
X103550000Y-94750000D01*
X103550000Y-94750000D02*
X104500000Y-95700000D01*
X104500000Y-95700000D02*
X105250000Y-95700000D01*
X104000000Y-94200000D02*
X104750000Y-94950000D01*
X104750000Y-94950000D02*
X104950000Y-94950000D01*
X97850000Y-94200000D02*
X104000000Y-94200000D01*
X97550000Y-93900000D02*
X97850000Y-94200000D01*
X96374264Y-93900000D02*
X97550000Y-93900000D01*
X95750000Y-94100000D02*
X96174264Y-94100000D01*
X96174264Y-94100000D02*
X96374264Y-93900000D01*
X91150000Y-100600000D02*
X91150000Y-93400000D01*
X92150000Y-101600000D02*
X91150000Y-100600000D01*
X91150000Y-93400000D02*
X91650000Y-92900000D01*
X90500000Y-92750000D02*
X90500000Y-100934972D01*
X92500000Y-102439998D02*
X92005026Y-102439998D01*
X92005026Y-102439998D02*
X90500000Y-100934972D01*
X104600000Y-107500000D02*
X104149999Y-107950001D01*
X104149999Y-107950001D02*
X102800001Y-107950001D01*
X102800001Y-107950001D02*
X100100000Y-105250000D01*
X100100000Y-105250000D02*
X100100000Y-102404976D01*
X100100000Y-102404976D02*
X99949999Y-102254975D01*
X99949999Y-102254975D02*
X99949999Y-101610001D01*
X99949999Y-101610001D02*
X99800000Y-101460002D01*
X98650000Y-100050000D02*
X97803403Y-100896597D01*
X98550000Y-105200000D02*
X98550000Y-102862002D01*
X98550000Y-102862002D02*
X97803403Y-102115405D01*
X97803403Y-102115405D02*
X97803403Y-100896597D01*
X101500000Y-96200000D02*
X101500000Y-98250000D01*
X101500000Y-98250000D02*
X101450000Y-98300000D01*
X100750000Y-95450000D02*
X101500000Y-96200000D01*
X99500000Y-95450000D02*
X100750000Y-95450000D01*
X98550000Y-96400000D02*
X99500000Y-95450000D01*
X98550000Y-96788002D02*
X98550000Y-96400000D01*
X97183573Y-97550000D02*
X97788002Y-97550000D01*
X97788002Y-97550000D02*
X98550000Y-96788002D01*
X97183573Y-97550000D02*
X94499990Y-94866417D01*
X94499990Y-93849990D02*
X94349990Y-93849990D01*
X94349990Y-93849990D02*
X93850000Y-93350000D01*
X94499990Y-93849990D02*
X94499990Y-94866417D01*
X95450000Y-90200000D02*
X94100000Y-90200000D01*
X97450000Y-96850000D02*
X97450000Y-96355026D01*
X97450000Y-96355026D02*
X97145005Y-96050031D01*
X97145005Y-96050031D02*
X96249302Y-96050031D01*
X96249302Y-96050031D02*
X94900000Y-94700729D01*
X94900000Y-94700729D02*
X94900000Y-93550000D01*
X94900000Y-93550000D02*
X95050000Y-93400000D01*
D22*
X116370000Y-104450000D02*
X116365000Y-104445000D01*
X116365000Y-104445000D02*
X113635000Y-104445000D01*
X113635000Y-104445000D02*
X111825000Y-104445000D01*
D21*
X111825000Y-104445000D02*
X111820000Y-104450000D01*
D20*
X104850000Y-94000000D02*
X104550001Y-93700001D01*
X98450001Y-93700001D02*
X98000000Y-93250000D01*
X104550001Y-93700001D02*
X98450001Y-93700001D01*
X102850000Y-90150000D02*
X105100000Y-87900000D01*
X99050000Y-90150000D02*
X102850000Y-90150000D01*
X94600000Y-88300000D02*
X94600000Y-86000000D01*
X92050000Y-96500000D02*
X92050000Y-93600000D01*
X92050000Y-93600000D02*
X92850000Y-92800000D01*
X102540000Y-83135000D02*
X103765000Y-83135000D01*
X103765000Y-83135000D02*
X103850000Y-83050000D01*
G36*
X103875777Y-81118687D02*
X107469363Y-82231088D01*
X110778443Y-84020301D01*
X113676976Y-86418176D01*
X116054557Y-89333378D01*
X117820625Y-92654868D01*
X118472537Y-94814103D01*
X118341329Y-94772482D01*
X118186170Y-94755078D01*
X118175000Y-94755000D01*
X117862945Y-94755000D01*
X117875000Y-94694397D01*
X117875000Y-94410000D01*
X117775000Y-94310000D01*
X116390000Y-94310000D01*
X116390000Y-94330000D01*
X116340000Y-94330000D01*
X116340000Y-94310000D01*
X113660000Y-94310000D01*
X113660000Y-94330000D01*
X113610000Y-94330000D01*
X113610000Y-94310000D01*
X112225000Y-94310000D01*
X112125000Y-94410000D01*
X112125000Y-94694397D01*
X112137055Y-94755000D01*
X111825000Y-94755000D01*
X111669613Y-94770236D01*
X111520144Y-94815363D01*
X111382287Y-94888663D01*
X111261293Y-94987343D01*
X111161770Y-95107646D01*
X111087509Y-95244988D01*
X111041340Y-95394138D01*
X111025019Y-95549415D01*
X111039170Y-95704905D01*
X111083253Y-95854685D01*
X111155589Y-95993051D01*
X111253422Y-96114731D01*
X111343489Y-96190306D01*
X111261293Y-96257343D01*
X111161770Y-96377646D01*
X111087509Y-96514988D01*
X111041340Y-96664138D01*
X111025019Y-96819415D01*
X111039170Y-96974905D01*
X111083253Y-97124685D01*
X111155589Y-97263051D01*
X111253422Y-97384731D01*
X111343489Y-97460306D01*
X111261293Y-97527343D01*
X111161770Y-97647646D01*
X111087509Y-97784988D01*
X111041340Y-97934138D01*
X111025019Y-98089415D01*
X111039170Y-98244905D01*
X111083253Y-98394685D01*
X111155589Y-98533051D01*
X111253422Y-98654731D01*
X111343489Y-98730306D01*
X111261293Y-98797343D01*
X111161770Y-98917646D01*
X111087509Y-99054988D01*
X111041340Y-99204138D01*
X111025019Y-99359415D01*
X111039170Y-99514905D01*
X111083253Y-99664685D01*
X111155589Y-99803051D01*
X111253422Y-99924731D01*
X111343489Y-100000306D01*
X111261293Y-100067343D01*
X111161770Y-100187646D01*
X111087509Y-100324988D01*
X111041340Y-100474138D01*
X111025019Y-100629415D01*
X111039170Y-100784905D01*
X111083253Y-100934685D01*
X111155589Y-101073051D01*
X111253422Y-101194731D01*
X111328145Y-101257431D01*
X111236293Y-101332343D01*
X111136770Y-101452646D01*
X111062509Y-101589988D01*
X111016340Y-101739138D01*
X111000019Y-101894415D01*
X111014170Y-102049905D01*
X111058253Y-102199685D01*
X111130589Y-102338051D01*
X111228422Y-102459731D01*
X111333833Y-102548181D01*
X111261293Y-102607343D01*
X111161770Y-102727646D01*
X111087509Y-102864988D01*
X111041340Y-103014138D01*
X111025019Y-103169415D01*
X111039170Y-103324905D01*
X111083253Y-103474685D01*
X111155589Y-103613051D01*
X111253422Y-103734731D01*
X111343489Y-103810306D01*
X111261293Y-103877343D01*
X111161770Y-103997646D01*
X111087509Y-104134988D01*
X111041340Y-104284138D01*
X111025019Y-104439415D01*
X111039170Y-104594905D01*
X111083253Y-104744685D01*
X111155589Y-104883051D01*
X111253422Y-105004731D01*
X111373026Y-105105091D01*
X111509846Y-105180308D01*
X111658671Y-105227518D01*
X111813830Y-105244922D01*
X111825000Y-105245000D01*
X112137055Y-105245000D01*
X112125000Y-105305603D01*
X112125000Y-105590000D01*
X112225000Y-105690000D01*
X113610000Y-105690000D01*
X113610000Y-105670000D01*
X113660000Y-105670000D01*
X113660000Y-105690000D01*
X116340000Y-105690000D01*
X116340000Y-105670000D01*
X116390000Y-105670000D01*
X116390000Y-105690000D01*
X117775000Y-105690000D01*
X117875000Y-105590000D01*
X117875000Y-105305603D01*
X117859628Y-105228324D01*
X117829475Y-105155529D01*
X117787301Y-105092410D01*
X117802335Y-105102859D01*
X117937116Y-105161744D01*
X118080767Y-105193328D01*
X118227818Y-105196408D01*
X118372666Y-105170867D01*
X118509794Y-105117679D01*
X118515296Y-105114188D01*
X117608589Y-107839849D01*
X115750468Y-111110733D01*
X113292417Y-113958413D01*
X110328061Y-116274421D01*
X106970314Y-117970541D01*
X103347069Y-118982169D01*
X99596335Y-119270773D01*
X95860977Y-118825358D01*
X92283272Y-117662892D01*
X88999496Y-115827651D01*
X86134725Y-113389540D01*
X83798079Y-110441426D01*
X82078558Y-107095601D01*
X81718521Y-105840000D01*
X82125000Y-105840000D01*
X82125000Y-106124397D01*
X82140372Y-106201676D01*
X82170525Y-106274471D01*
X82214300Y-106339986D01*
X82270015Y-106395701D01*
X82335529Y-106439476D01*
X82408325Y-106469628D01*
X82485604Y-106485000D01*
X83510000Y-106485000D01*
X83610000Y-106385000D01*
X83610000Y-105740000D01*
X83660000Y-105740000D01*
X83660000Y-106385000D01*
X83760000Y-106485000D01*
X84426739Y-106485000D01*
X84370364Y-106521891D01*
X84230249Y-106659102D01*
X84119453Y-106820915D01*
X84042197Y-107001167D01*
X84001423Y-107192992D01*
X83998685Y-107389083D01*
X84034087Y-107581971D01*
X84106280Y-107764310D01*
X84212514Y-107929154D01*
X84348744Y-108070223D01*
X84509780Y-108182146D01*
X84689488Y-108260659D01*
X84881023Y-108302770D01*
X85077090Y-108306877D01*
X85270221Y-108272823D01*
X85453059Y-108201905D01*
X85618641Y-108096824D01*
X85760658Y-107961583D01*
X85873702Y-107801332D01*
X85953468Y-107622176D01*
X85996916Y-107430940D01*
X86000043Y-107206945D01*
X85968968Y-107050000D01*
X89598065Y-107050000D01*
X89598065Y-112550000D01*
X89615395Y-112725959D01*
X89666721Y-112895156D01*
X89750068Y-113051088D01*
X89862236Y-113187764D01*
X89998912Y-113299932D01*
X90154844Y-113383279D01*
X90324041Y-113434605D01*
X90500000Y-113451935D01*
X91500000Y-113451935D01*
X91675959Y-113434605D01*
X91845156Y-113383279D01*
X92001088Y-113299932D01*
X92137764Y-113187764D01*
X92249932Y-113051088D01*
X92333279Y-112895156D01*
X92384605Y-112725959D01*
X92401935Y-112550000D01*
X92401935Y-112376861D01*
X92412879Y-112380333D01*
X92587434Y-112399912D01*
X92600000Y-112400000D01*
X93650000Y-112400000D01*
X93734289Y-112391736D01*
X93818643Y-112384059D01*
X93821671Y-112383168D01*
X93824811Y-112382860D01*
X93905890Y-112358380D01*
X93987146Y-112334465D01*
X93989943Y-112333003D01*
X93992963Y-112332091D01*
X94067708Y-112292349D01*
X94142807Y-112253088D01*
X94145268Y-112251109D01*
X94148052Y-112249629D01*
X94213701Y-112196088D01*
X94279697Y-112143025D01*
X94281723Y-112140611D01*
X94284171Y-112138614D01*
X94338221Y-112073279D01*
X94392602Y-112008470D01*
X94394120Y-112005708D01*
X94396134Y-112003274D01*
X94436433Y-111928742D01*
X94477222Y-111854548D01*
X94478176Y-111851539D01*
X94479677Y-111848764D01*
X94504719Y-111767867D01*
X94530333Y-111687121D01*
X94530685Y-111683985D01*
X94531618Y-111680970D01*
X94540473Y-111596717D01*
X94549912Y-111512566D01*
X94549954Y-111506507D01*
X94549978Y-111506283D01*
X94549958Y-111506059D01*
X94550000Y-111500000D01*
X94550000Y-111320710D01*
X94541879Y-111237887D01*
X94534641Y-111155154D01*
X94533322Y-111150615D01*
X94532860Y-111145899D01*
X94508832Y-111066315D01*
X94485638Y-110986479D01*
X94483457Y-110982272D01*
X94482091Y-110977747D01*
X94443103Y-110904421D01*
X94404804Y-110830535D01*
X94401849Y-110826834D01*
X94399629Y-110822658D01*
X94347068Y-110758212D01*
X94295219Y-110693262D01*
X94288729Y-110686680D01*
X94288614Y-110686539D01*
X94288483Y-110686431D01*
X94286396Y-110684314D01*
X93836396Y-110234314D01*
X93772141Y-110181534D01*
X93708470Y-110128108D01*
X93704324Y-110125829D01*
X93700666Y-110122824D01*
X93627407Y-110083543D01*
X93554548Y-110043488D01*
X93550035Y-110042056D01*
X93545866Y-110039821D01*
X93466393Y-110015524D01*
X93387121Y-109990377D01*
X93382417Y-109989849D01*
X93377892Y-109988466D01*
X93295156Y-109980062D01*
X93212566Y-109970798D01*
X93203322Y-109970733D01*
X93203142Y-109970715D01*
X93202975Y-109970731D01*
X93200000Y-109970710D01*
X92443502Y-109970710D01*
X92401935Y-109929143D01*
X92401935Y-107050000D01*
X92384605Y-106874041D01*
X92333279Y-106704844D01*
X92249932Y-106548912D01*
X92137764Y-106412236D01*
X92001088Y-106300068D01*
X91845156Y-106216721D01*
X91675959Y-106165395D01*
X91500000Y-106148065D01*
X90500000Y-106148065D01*
X90324041Y-106165395D01*
X90154844Y-106216721D01*
X89998912Y-106300068D01*
X89862236Y-106412236D01*
X89750068Y-106548912D01*
X89666721Y-106704844D01*
X89615395Y-106874041D01*
X89598065Y-107050000D01*
X85968968Y-107050000D01*
X85961952Y-107014570D01*
X85887220Y-106833257D01*
X85778694Y-106669912D01*
X85640508Y-106530758D01*
X85572669Y-106485000D01*
X86240000Y-106485000D01*
X86340000Y-106385000D01*
X86340000Y-105740000D01*
X86390000Y-105740000D01*
X86390000Y-106385000D01*
X86490000Y-106485000D01*
X87514396Y-106485000D01*
X87591675Y-106469628D01*
X87664471Y-106439476D01*
X87729985Y-106395701D01*
X87785700Y-106339986D01*
X87829475Y-106274471D01*
X87859628Y-106201676D01*
X87875000Y-106124397D01*
X87875000Y-105840000D01*
X87775000Y-105740000D01*
X86390000Y-105740000D01*
X86340000Y-105740000D01*
X83660000Y-105740000D01*
X83610000Y-105740000D01*
X82225000Y-105740000D01*
X82125000Y-105840000D01*
X81718521Y-105840000D01*
X81531309Y-105187116D01*
X81658671Y-105227518D01*
X81813830Y-105244922D01*
X81825000Y-105245000D01*
X82137055Y-105245000D01*
X82125000Y-105305603D01*
X82125000Y-105590000D01*
X82225000Y-105690000D01*
X83610000Y-105690000D01*
X83610000Y-105670000D01*
X83660000Y-105670000D01*
X83660000Y-105690000D01*
X86340000Y-105690000D01*
X86340000Y-105670000D01*
X86390000Y-105670000D01*
X86390000Y-105690000D01*
X87775000Y-105690000D01*
X87875000Y-105590000D01*
X87875000Y-105305603D01*
X87862945Y-105245000D01*
X88148032Y-105245000D01*
X88197207Y-105249995D01*
X88352647Y-105235301D01*
X88502273Y-105190696D01*
X88640385Y-105117878D01*
X88761723Y-105019621D01*
X88861665Y-104899667D01*
X88936404Y-104762585D01*
X88983094Y-104613596D01*
X88999956Y-104458377D01*
X88995992Y-104413062D01*
X89549014Y-104413062D01*
X89575565Y-104557728D01*
X89629710Y-104694482D01*
X89709386Y-104818115D01*
X89811558Y-104923917D01*
X89932335Y-105007859D01*
X90067116Y-105066744D01*
X90210767Y-105098328D01*
X90357818Y-105101408D01*
X90502666Y-105075867D01*
X90639794Y-105022679D01*
X90763980Y-104943868D01*
X90870493Y-104842437D01*
X90955277Y-104722249D01*
X91015100Y-104587882D01*
X91047686Y-104444455D01*
X91050032Y-104276459D01*
X91021464Y-104132177D01*
X90965415Y-103996193D01*
X90925000Y-103935363D01*
X90925000Y-103808884D01*
X91106399Y-103627485D01*
X94930700Y-106134526D01*
X95150000Y-106200000D01*
X99350000Y-106200000D01*
X99503073Y-106169552D01*
X99632843Y-106082843D01*
X99719552Y-105953073D01*
X99750000Y-105800000D01*
X99750000Y-105607106D01*
X102446448Y-108303554D01*
X102482093Y-108332833D01*
X102517517Y-108362558D01*
X102519824Y-108363826D01*
X102521853Y-108365493D01*
X102562522Y-108387300D01*
X102603030Y-108409569D01*
X102605537Y-108410364D01*
X102607853Y-108411606D01*
X102652016Y-108425108D01*
X102696045Y-108439075D01*
X102698656Y-108439368D01*
X102701172Y-108440137D01*
X102747148Y-108444807D01*
X102793020Y-108449952D01*
X102798158Y-108449988D01*
X102798256Y-108449998D01*
X102798347Y-108449989D01*
X102800001Y-108450001D01*
X104149999Y-108450001D01*
X104195943Y-108445496D01*
X104241975Y-108441469D01*
X104244500Y-108440736D01*
X104247116Y-108440479D01*
X104291322Y-108427132D01*
X104335683Y-108414244D01*
X104338018Y-108413034D01*
X104340534Y-108412274D01*
X104381284Y-108390607D01*
X104422319Y-108369337D01*
X104424375Y-108367695D01*
X104426695Y-108366462D01*
X104462484Y-108337273D01*
X104498581Y-108308456D01*
X104502239Y-108304849D01*
X104502316Y-108304786D01*
X104502375Y-108304715D01*
X104503552Y-108303554D01*
X104557793Y-108249313D01*
X104657818Y-108251408D01*
X104802666Y-108225867D01*
X104939794Y-108172679D01*
X105063980Y-108093868D01*
X105170493Y-107992437D01*
X105255277Y-107872249D01*
X105315100Y-107737882D01*
X105347686Y-107594455D01*
X105350032Y-107426459D01*
X105321464Y-107282177D01*
X105265415Y-107146193D01*
X105184021Y-107023684D01*
X105080381Y-106919319D01*
X104958444Y-106837071D01*
X104822854Y-106780075D01*
X104678776Y-106750499D01*
X104531697Y-106749473D01*
X104387219Y-106777033D01*
X104250847Y-106832131D01*
X104127773Y-106912668D01*
X104022687Y-107015577D01*
X103998290Y-107051208D01*
X104000032Y-106926459D01*
X103971464Y-106782177D01*
X103915415Y-106646193D01*
X103834021Y-106523684D01*
X103730381Y-106419319D01*
X103608444Y-106337071D01*
X103472854Y-106280075D01*
X103328776Y-106250499D01*
X103181697Y-106249473D01*
X103037219Y-106277033D01*
X102900847Y-106332131D01*
X102836422Y-106374289D01*
X101150000Y-104687868D01*
X101150000Y-103413062D01*
X106899014Y-103413062D01*
X106925565Y-103557728D01*
X106979710Y-103694482D01*
X107059386Y-103818115D01*
X107161558Y-103923917D01*
X107282335Y-104007859D01*
X107417116Y-104066744D01*
X107560767Y-104098328D01*
X107694012Y-104101119D01*
X108200000Y-104607107D01*
X108200000Y-105262272D01*
X108150847Y-105282131D01*
X108027773Y-105362668D01*
X107922687Y-105465577D01*
X107839590Y-105586936D01*
X107781648Y-105722125D01*
X107751068Y-105865994D01*
X107749014Y-106013062D01*
X107775565Y-106157728D01*
X107829710Y-106294482D01*
X107909386Y-106418115D01*
X108011558Y-106523917D01*
X108132335Y-106607859D01*
X108267116Y-106666744D01*
X108410767Y-106698328D01*
X108557818Y-106701408D01*
X108702666Y-106675867D01*
X108839794Y-106622679D01*
X108963980Y-106543868D01*
X109070493Y-106442437D01*
X109155277Y-106322249D01*
X109215100Y-106187882D01*
X109247686Y-106044455D01*
X109250032Y-105876459D01*
X109242814Y-105840000D01*
X112125000Y-105840000D01*
X112125000Y-106124397D01*
X112140372Y-106201676D01*
X112170525Y-106274471D01*
X112214300Y-106339986D01*
X112270015Y-106395701D01*
X112335529Y-106439476D01*
X112408325Y-106469628D01*
X112485604Y-106485000D01*
X113510000Y-106485000D01*
X113610000Y-106385000D01*
X113610000Y-105740000D01*
X113660000Y-105740000D01*
X113660000Y-106385000D01*
X113760000Y-106485000D01*
X114426739Y-106485000D01*
X114370364Y-106521891D01*
X114230249Y-106659102D01*
X114119453Y-106820915D01*
X114042197Y-107001167D01*
X114001423Y-107192992D01*
X113998685Y-107389083D01*
X114034087Y-107581971D01*
X114106280Y-107764310D01*
X114212514Y-107929154D01*
X114348744Y-108070223D01*
X114509780Y-108182146D01*
X114689488Y-108260659D01*
X114881023Y-108302770D01*
X115077090Y-108306877D01*
X115270221Y-108272823D01*
X115453059Y-108201905D01*
X115618641Y-108096824D01*
X115760658Y-107961583D01*
X115873702Y-107801332D01*
X115953468Y-107622176D01*
X115996916Y-107430940D01*
X116000043Y-107206945D01*
X115961952Y-107014570D01*
X115887220Y-106833257D01*
X115778694Y-106669912D01*
X115640508Y-106530758D01*
X115572669Y-106485000D01*
X116240000Y-106485000D01*
X116340000Y-106385000D01*
X116340000Y-105740000D01*
X116390000Y-105740000D01*
X116390000Y-106385000D01*
X116490000Y-106485000D01*
X117514396Y-106485000D01*
X117591675Y-106469628D01*
X117664471Y-106439476D01*
X117729985Y-106395701D01*
X117785700Y-106339986D01*
X117829475Y-106274471D01*
X117859628Y-106201676D01*
X117875000Y-106124397D01*
X117875000Y-105840000D01*
X117775000Y-105740000D01*
X116390000Y-105740000D01*
X116340000Y-105740000D01*
X113660000Y-105740000D01*
X113610000Y-105740000D01*
X112225000Y-105740000D01*
X112125000Y-105840000D01*
X109242814Y-105840000D01*
X109221464Y-105732177D01*
X109200000Y-105680102D01*
X109200000Y-104400000D01*
X109195491Y-104354011D01*
X109191468Y-104308024D01*
X109190735Y-104305499D01*
X109190478Y-104302883D01*
X109177131Y-104258677D01*
X109164243Y-104214316D01*
X109163033Y-104211981D01*
X109162273Y-104209465D01*
X109140585Y-104168675D01*
X109119335Y-104127680D01*
X109117696Y-104125627D01*
X109116461Y-104123304D01*
X109087270Y-104087512D01*
X109058455Y-104051417D01*
X109054843Y-104047754D01*
X109054785Y-104047683D01*
X109054719Y-104047628D01*
X109053553Y-104046446D01*
X108398428Y-103391322D01*
X108400032Y-103276459D01*
X108371464Y-103132177D01*
X108315415Y-102996193D01*
X108234021Y-102873684D01*
X108130381Y-102769319D01*
X108008444Y-102687071D01*
X107872854Y-102630075D01*
X107728776Y-102600499D01*
X107581697Y-102599473D01*
X107437219Y-102627033D01*
X107300847Y-102682131D01*
X107177773Y-102762668D01*
X107072687Y-102865577D01*
X106989590Y-102986936D01*
X106931648Y-103122125D01*
X106901068Y-103265994D01*
X106899014Y-103413062D01*
X101150000Y-103413062D01*
X101150000Y-103400000D01*
X104050000Y-103400000D01*
X104203073Y-103369552D01*
X104332843Y-103282843D01*
X104419552Y-103153073D01*
X104450000Y-103000000D01*
X104450000Y-98150000D01*
X104419552Y-97996927D01*
X104332843Y-97867157D01*
X104203073Y-97780448D01*
X104050000Y-97750000D01*
X102350000Y-97750000D01*
X102350000Y-95250000D01*
X103342894Y-95250000D01*
X104146447Y-96053553D01*
X104182092Y-96082832D01*
X104217516Y-96112557D01*
X104219823Y-96113825D01*
X104221852Y-96115492D01*
X104262521Y-96137299D01*
X104303029Y-96159568D01*
X104305536Y-96160363D01*
X104307852Y-96161605D01*
X104352015Y-96175107D01*
X104396044Y-96189074D01*
X104398655Y-96189367D01*
X104401171Y-96190136D01*
X104447147Y-96194806D01*
X104493019Y-96199951D01*
X104498157Y-96199987D01*
X104498255Y-96199997D01*
X104498346Y-96199988D01*
X104500000Y-96200000D01*
X105250000Y-96200000D01*
X105295944Y-96195495D01*
X105341976Y-96191468D01*
X105344501Y-96190735D01*
X105347117Y-96190478D01*
X105391323Y-96177131D01*
X105435684Y-96164243D01*
X105438019Y-96163033D01*
X105440535Y-96162273D01*
X105481285Y-96140606D01*
X105522320Y-96119336D01*
X105524376Y-96117694D01*
X105526696Y-96116461D01*
X105562485Y-96087272D01*
X105598582Y-96058455D01*
X105602240Y-96054848D01*
X105602317Y-96054785D01*
X105602376Y-96054714D01*
X105603553Y-96053553D01*
X106257794Y-95399313D01*
X106357818Y-95401408D01*
X106502666Y-95375867D01*
X106639794Y-95322679D01*
X106763980Y-95243868D01*
X106870493Y-95142437D01*
X106955277Y-95022249D01*
X107015100Y-94887882D01*
X107047686Y-94744455D01*
X107050032Y-94576459D01*
X107021464Y-94432177D01*
X106965415Y-94296193D01*
X106884021Y-94173684D01*
X106780381Y-94069319D01*
X106658444Y-93987071D01*
X106522854Y-93930075D01*
X106378776Y-93900499D01*
X106250707Y-93899606D01*
X106267639Y-93875603D01*
X112125000Y-93875603D01*
X112125000Y-94160000D01*
X112225000Y-94260000D01*
X113610000Y-94260000D01*
X113610000Y-93615000D01*
X113660000Y-93615000D01*
X113660000Y-94260000D01*
X116340000Y-94260000D01*
X116340000Y-93615000D01*
X116390000Y-93615000D01*
X116390000Y-94260000D01*
X117775000Y-94260000D01*
X117875000Y-94160000D01*
X117875000Y-93875603D01*
X117859628Y-93798324D01*
X117829475Y-93725529D01*
X117785700Y-93660014D01*
X117729985Y-93604299D01*
X117664471Y-93560524D01*
X117591675Y-93530372D01*
X117514396Y-93515000D01*
X116490000Y-93515000D01*
X116390000Y-93615000D01*
X116340000Y-93615000D01*
X116240000Y-93515000D01*
X115574243Y-93515000D01*
X115618641Y-93486824D01*
X115760658Y-93351583D01*
X115873702Y-93191332D01*
X115953468Y-93012176D01*
X115996916Y-92820940D01*
X116000043Y-92596945D01*
X115961952Y-92404570D01*
X115887220Y-92223257D01*
X115778694Y-92059912D01*
X115640508Y-91920758D01*
X115477926Y-91811095D01*
X115297139Y-91735099D01*
X115105034Y-91695666D01*
X114908929Y-91694297D01*
X114716292Y-91731044D01*
X114534462Y-91804508D01*
X114370364Y-91911891D01*
X114230249Y-92049102D01*
X114119453Y-92210915D01*
X114042197Y-92391167D01*
X114001423Y-92582992D01*
X113998685Y-92779083D01*
X114034087Y-92971971D01*
X114106280Y-93154310D01*
X114212514Y-93319154D01*
X114348744Y-93460223D01*
X114427558Y-93515000D01*
X113760000Y-93515000D01*
X113660000Y-93615000D01*
X113610000Y-93615000D01*
X113510000Y-93515000D01*
X112485604Y-93515000D01*
X112408325Y-93530372D01*
X112335529Y-93560524D01*
X112270015Y-93604299D01*
X112214300Y-93660014D01*
X112170525Y-93725529D01*
X112140372Y-93798324D01*
X112125000Y-93875603D01*
X106267639Y-93875603D01*
X106305277Y-93822249D01*
X106365100Y-93687882D01*
X106397686Y-93544455D01*
X106400032Y-93376459D01*
X106371464Y-93232177D01*
X106315415Y-93096193D01*
X106234021Y-92973684D01*
X106130381Y-92869319D01*
X106008444Y-92787071D01*
X105872854Y-92730075D01*
X105728776Y-92700499D01*
X105581697Y-92699473D01*
X105568125Y-92702062D01*
X105546972Y-92690433D01*
X105544465Y-92689638D01*
X105542149Y-92688396D01*
X105497986Y-92674894D01*
X105453957Y-92660927D01*
X105451346Y-92660634D01*
X105448830Y-92659865D01*
X105402854Y-92655195D01*
X105356982Y-92650050D01*
X105351844Y-92650014D01*
X105351746Y-92650004D01*
X105351655Y-92650013D01*
X105350001Y-92650001D01*
X99749005Y-92650001D01*
X99750032Y-92576459D01*
X99721464Y-92432177D01*
X99665415Y-92296193D01*
X99584021Y-92173684D01*
X99480381Y-92069319D01*
X99358444Y-91987071D01*
X99222854Y-91930075D01*
X99078776Y-91900499D01*
X98931697Y-91899473D01*
X98787219Y-91927033D01*
X98650847Y-91982131D01*
X98527773Y-92062668D01*
X98422687Y-92165577D01*
X98339590Y-92286936D01*
X98281648Y-92422125D01*
X98255762Y-92543908D01*
X98222854Y-92530075D01*
X98078776Y-92500499D01*
X97931697Y-92499473D01*
X97787219Y-92527033D01*
X97650847Y-92582131D01*
X97527773Y-92662668D01*
X97422687Y-92765577D01*
X97339590Y-92886936D01*
X97281648Y-93022125D01*
X97251068Y-93165994D01*
X97249014Y-93313062D01*
X97264970Y-93400000D01*
X96374264Y-93400000D01*
X96328312Y-93404505D01*
X96282289Y-93408532D01*
X96279765Y-93409265D01*
X96277147Y-93409522D01*
X96232929Y-93422873D01*
X96188580Y-93435757D01*
X96186245Y-93436967D01*
X96183729Y-93437727D01*
X96142958Y-93459405D01*
X96142165Y-93459816D01*
X96108444Y-93437071D01*
X95972854Y-93380075D01*
X95828776Y-93350499D01*
X95799699Y-93350296D01*
X95800032Y-93326459D01*
X95771464Y-93182177D01*
X95715415Y-93046193D01*
X95634021Y-92923684D01*
X95530381Y-92819319D01*
X95408444Y-92737071D01*
X95272854Y-92680075D01*
X95128776Y-92650499D01*
X94981697Y-92649473D01*
X94837219Y-92677033D01*
X94700847Y-92732131D01*
X94577773Y-92812668D01*
X94472687Y-92915577D01*
X94467189Y-92923606D01*
X94434021Y-92873684D01*
X94330381Y-92769319D01*
X94208444Y-92687071D01*
X94072854Y-92630075D01*
X93928776Y-92600499D01*
X93781697Y-92599473D01*
X93637219Y-92627033D01*
X93584558Y-92648309D01*
X93571464Y-92582177D01*
X93515415Y-92446193D01*
X93434021Y-92323684D01*
X93330381Y-92219319D01*
X93208444Y-92137071D01*
X93072854Y-92080075D01*
X92928776Y-92050499D01*
X92781697Y-92049473D01*
X92637219Y-92077033D01*
X92500847Y-92132131D01*
X92377773Y-92212668D01*
X92272687Y-92315577D01*
X92213094Y-92402610D01*
X92130381Y-92319319D01*
X92008444Y-92237071D01*
X91872854Y-92180075D01*
X91728776Y-92150499D01*
X91581697Y-92149473D01*
X91437219Y-92177033D01*
X91300847Y-92232131D01*
X91177773Y-92312668D01*
X91136667Y-92352923D01*
X91084021Y-92273684D01*
X90980381Y-92169319D01*
X90858444Y-92087071D01*
X90722854Y-92030075D01*
X90578776Y-92000499D01*
X90431697Y-91999473D01*
X90287219Y-92027033D01*
X90150847Y-92082131D01*
X90027773Y-92162668D01*
X89922687Y-92265577D01*
X89839590Y-92386936D01*
X89781648Y-92522125D01*
X89751068Y-92665994D01*
X89749014Y-92813062D01*
X89775565Y-92957728D01*
X89829710Y-93094482D01*
X89909386Y-93218115D01*
X90000000Y-93311948D01*
X90000000Y-100934972D01*
X90004505Y-100980916D01*
X90008532Y-101026948D01*
X90009265Y-101029473D01*
X90009522Y-101032089D01*
X90022869Y-101076295D01*
X90035757Y-101120656D01*
X90036967Y-101122991D01*
X90037727Y-101125507D01*
X90059394Y-101166257D01*
X90080664Y-101207292D01*
X90082306Y-101209348D01*
X90083539Y-101211668D01*
X90112728Y-101247457D01*
X90141545Y-101283554D01*
X90145152Y-101287212D01*
X90145215Y-101287289D01*
X90145286Y-101287348D01*
X90146447Y-101288525D01*
X90241710Y-101383788D01*
X90249241Y-102716875D01*
X89858058Y-103108058D01*
X89821399Y-103152688D01*
X89784304Y-103196896D01*
X89782721Y-103199775D01*
X89780635Y-103202315D01*
X89753379Y-103253147D01*
X89725540Y-103303786D01*
X89724544Y-103306924D01*
X89722994Y-103309816D01*
X89706119Y-103365010D01*
X89688658Y-103420055D01*
X89688292Y-103423317D01*
X89687330Y-103426464D01*
X89681492Y-103483937D01*
X89675061Y-103541274D01*
X89675016Y-103547699D01*
X89675004Y-103547818D01*
X89675014Y-103547929D01*
X89675000Y-103550000D01*
X89675000Y-103935221D01*
X89639590Y-103986936D01*
X89581648Y-104122125D01*
X89551068Y-104265994D01*
X89549014Y-104413062D01*
X88995992Y-104413062D01*
X88986349Y-104302839D01*
X88942789Y-104152906D01*
X88870936Y-104014289D01*
X88773529Y-103892268D01*
X88765685Y-103884315D01*
X88760685Y-103879315D01*
X88703631Y-103832450D01*
X88694056Y-103824416D01*
X88761723Y-103769621D01*
X88861664Y-103649667D01*
X88936403Y-103512585D01*
X88983094Y-103363596D01*
X88999956Y-103208377D01*
X88986348Y-103052839D01*
X88942789Y-102902906D01*
X88870936Y-102764288D01*
X88773528Y-102642268D01*
X88765685Y-102634314D01*
X88740685Y-102609315D01*
X88683631Y-102562450D01*
X88656511Y-102539694D01*
X88738707Y-102472657D01*
X88838230Y-102352354D01*
X88912491Y-102215012D01*
X88958660Y-102065862D01*
X88974981Y-101910585D01*
X88960830Y-101755095D01*
X88916747Y-101605315D01*
X88844411Y-101466949D01*
X88746578Y-101345269D01*
X88656511Y-101269694D01*
X88738707Y-101202657D01*
X88838230Y-101082354D01*
X88912491Y-100945012D01*
X88958660Y-100795862D01*
X88974981Y-100640585D01*
X88960830Y-100485095D01*
X88916747Y-100335315D01*
X88844411Y-100196949D01*
X88746578Y-100075269D01*
X88661440Y-100003830D01*
X88684981Y-99984631D01*
X88742732Y-99938529D01*
X88748583Y-99932758D01*
X88748707Y-99932657D01*
X88748802Y-99932542D01*
X88750685Y-99930685D01*
X88765685Y-99915686D01*
X88864787Y-99795037D01*
X88938568Y-99657437D01*
X88984217Y-99508126D01*
X88999995Y-99352793D01*
X88985301Y-99197353D01*
X88940696Y-99047727D01*
X88867878Y-98909615D01*
X88769621Y-98788277D01*
X88678137Y-98712056D01*
X88738707Y-98662657D01*
X88838230Y-98542354D01*
X88912491Y-98405012D01*
X88958660Y-98255862D01*
X88974981Y-98100585D01*
X88960830Y-97945095D01*
X88916747Y-97795315D01*
X88844411Y-97656949D01*
X88746578Y-97535269D01*
X88656511Y-97459694D01*
X88738707Y-97392657D01*
X88838230Y-97272354D01*
X88912491Y-97135012D01*
X88958660Y-96985862D01*
X88974981Y-96830585D01*
X88960830Y-96675095D01*
X88916747Y-96525315D01*
X88844411Y-96386949D01*
X88746578Y-96265269D01*
X88651582Y-96185558D01*
X88728707Y-96122657D01*
X88828230Y-96002354D01*
X88902491Y-95865012D01*
X88948660Y-95715862D01*
X88964981Y-95560585D01*
X88950830Y-95405095D01*
X88906747Y-95255315D01*
X88834411Y-95116949D01*
X88736578Y-94995269D01*
X88616974Y-94894909D01*
X88480154Y-94819692D01*
X88331329Y-94772482D01*
X88176170Y-94755078D01*
X88165000Y-94755000D01*
X87862945Y-94755000D01*
X87875000Y-94694397D01*
X87875000Y-94410000D01*
X87775000Y-94310000D01*
X86390000Y-94310000D01*
X86390000Y-94330000D01*
X86340000Y-94330000D01*
X86340000Y-94310000D01*
X83660000Y-94310000D01*
X83660000Y-94330000D01*
X83610000Y-94330000D01*
X83610000Y-94310000D01*
X82225000Y-94310000D01*
X82125000Y-94410000D01*
X82125000Y-94694397D01*
X82137055Y-94755000D01*
X81825000Y-94755000D01*
X81669613Y-94770236D01*
X81520144Y-94815363D01*
X81519508Y-94815701D01*
X81817724Y-93875603D01*
X82125000Y-93875603D01*
X82125000Y-94160000D01*
X82225000Y-94260000D01*
X83610000Y-94260000D01*
X83610000Y-93615000D01*
X83660000Y-93615000D01*
X83660000Y-94260000D01*
X86340000Y-94260000D01*
X86340000Y-93615000D01*
X86390000Y-93615000D01*
X86390000Y-94260000D01*
X87775000Y-94260000D01*
X87875000Y-94160000D01*
X87875000Y-93875603D01*
X87859628Y-93798324D01*
X87829475Y-93725529D01*
X87785700Y-93660014D01*
X87729985Y-93604299D01*
X87664471Y-93560524D01*
X87591675Y-93530372D01*
X87514396Y-93515000D01*
X86490000Y-93515000D01*
X86390000Y-93615000D01*
X86340000Y-93615000D01*
X86240000Y-93515000D01*
X85574243Y-93515000D01*
X85618641Y-93486824D01*
X85760658Y-93351583D01*
X85873702Y-93191332D01*
X85953468Y-93012176D01*
X85996916Y-92820940D01*
X86000043Y-92596945D01*
X85961952Y-92404570D01*
X85887220Y-92223257D01*
X85778694Y-92059912D01*
X85640508Y-91920758D01*
X85477926Y-91811095D01*
X85297139Y-91735099D01*
X85105034Y-91695666D01*
X84908929Y-91694297D01*
X84716292Y-91731044D01*
X84534462Y-91804508D01*
X84370364Y-91911891D01*
X84230249Y-92049102D01*
X84119453Y-92210915D01*
X84042197Y-92391167D01*
X84001423Y-92582992D01*
X83998685Y-92779083D01*
X84034087Y-92971971D01*
X84106280Y-93154310D01*
X84212514Y-93319154D01*
X84348744Y-93460223D01*
X84427558Y-93515000D01*
X83760000Y-93515000D01*
X83660000Y-93615000D01*
X83610000Y-93615000D01*
X83510000Y-93515000D01*
X82485604Y-93515000D01*
X82408325Y-93530372D01*
X82335529Y-93560524D01*
X82270015Y-93604299D01*
X82214300Y-93660014D01*
X82170525Y-93725529D01*
X82140372Y-93798324D01*
X82125000Y-93875603D01*
X81817724Y-93875603D01*
X82283666Y-92406770D01*
X84095937Y-89110261D01*
X84764866Y-88313062D01*
X91449014Y-88313062D01*
X91475565Y-88457728D01*
X91529710Y-88594482D01*
X91609386Y-88718115D01*
X91706977Y-88819173D01*
X91708532Y-88836950D01*
X91709265Y-88839475D01*
X91709522Y-88842091D01*
X91722869Y-88886297D01*
X91735757Y-88930658D01*
X91736967Y-88932993D01*
X91737727Y-88935509D01*
X91759394Y-88976259D01*
X91780664Y-89017294D01*
X91782306Y-89019350D01*
X91783539Y-89021670D01*
X91812728Y-89057459D01*
X91841545Y-89093556D01*
X91845152Y-89097214D01*
X91845215Y-89097291D01*
X91845286Y-89097350D01*
X91846447Y-89098527D01*
X92601473Y-89853553D01*
X92637118Y-89882832D01*
X92672542Y-89912557D01*
X92674849Y-89913825D01*
X92676878Y-89915492D01*
X92717547Y-89937299D01*
X92758055Y-89959568D01*
X92760562Y-89960363D01*
X92762878Y-89961605D01*
X92807041Y-89975107D01*
X92851070Y-89989074D01*
X92853681Y-89989367D01*
X92856197Y-89990136D01*
X92902173Y-89994806D01*
X92948045Y-89999951D01*
X92953183Y-89999987D01*
X92953281Y-89999997D01*
X92953372Y-89999988D01*
X92955026Y-90000000D01*
X93375723Y-90000000D01*
X93351068Y-90115994D01*
X93349014Y-90263062D01*
X93375565Y-90407728D01*
X93429710Y-90544482D01*
X93509386Y-90668115D01*
X93611558Y-90773917D01*
X93732335Y-90857859D01*
X93867116Y-90916744D01*
X94010767Y-90948328D01*
X94157818Y-90951408D01*
X94302666Y-90925867D01*
X94439794Y-90872679D01*
X94563980Y-90793868D01*
X94662551Y-90700000D01*
X94890177Y-90700000D01*
X94961558Y-90773917D01*
X95082335Y-90857859D01*
X95217116Y-90916744D01*
X95360767Y-90948328D01*
X95507818Y-90951408D01*
X95652666Y-90925867D01*
X95789794Y-90872679D01*
X95913980Y-90793868D01*
X96020493Y-90692437D01*
X96105277Y-90572249D01*
X96165100Y-90437882D01*
X96197686Y-90294455D01*
X96200032Y-90126459D01*
X96174993Y-90000000D01*
X98315095Y-90000000D01*
X98301068Y-90065994D01*
X98299014Y-90213062D01*
X98325565Y-90357728D01*
X98379710Y-90494482D01*
X98459386Y-90618115D01*
X98561558Y-90723917D01*
X98682335Y-90807859D01*
X98817116Y-90866744D01*
X98960767Y-90898328D01*
X99107818Y-90901408D01*
X99252666Y-90875867D01*
X99389794Y-90822679D01*
X99513980Y-90743868D01*
X99612551Y-90650000D01*
X102850000Y-90650000D01*
X102895944Y-90645495D01*
X102941976Y-90641468D01*
X102944501Y-90640735D01*
X102947117Y-90640478D01*
X102991323Y-90627131D01*
X103035684Y-90614243D01*
X103038019Y-90613033D01*
X103040535Y-90612273D01*
X103081285Y-90590606D01*
X103122320Y-90569336D01*
X103124376Y-90567694D01*
X103126696Y-90566461D01*
X103162485Y-90537272D01*
X103198582Y-90508455D01*
X103202240Y-90504848D01*
X103202317Y-90504785D01*
X103202376Y-90504714D01*
X103203553Y-90503553D01*
X105057794Y-88649313D01*
X105157818Y-88651408D01*
X105302666Y-88625867D01*
X105439794Y-88572679D01*
X105563980Y-88493868D01*
X105670493Y-88392437D01*
X105755277Y-88272249D01*
X105815100Y-88137882D01*
X105847686Y-87994455D01*
X105850032Y-87826459D01*
X105821464Y-87682177D01*
X105765415Y-87546193D01*
X105701506Y-87450000D01*
X107598065Y-87450000D01*
X107598065Y-92950000D01*
X107615395Y-93125959D01*
X107666721Y-93295156D01*
X107750068Y-93451088D01*
X107862236Y-93587764D01*
X107998912Y-93699932D01*
X108154844Y-93783279D01*
X108324041Y-93834605D01*
X108500000Y-93851935D01*
X109500000Y-93851935D01*
X109675959Y-93834605D01*
X109845156Y-93783279D01*
X110001088Y-93699932D01*
X110137764Y-93587764D01*
X110249932Y-93451088D01*
X110333279Y-93295156D01*
X110384605Y-93125959D01*
X110401935Y-92950000D01*
X110401935Y-89625000D01*
X113048065Y-89625000D01*
X113048065Y-90575000D01*
X113064915Y-90746082D01*
X113114818Y-90910588D01*
X113195855Y-91062199D01*
X113304913Y-91195087D01*
X113437801Y-91304145D01*
X113589412Y-91385182D01*
X113753918Y-91435085D01*
X113925000Y-91451935D01*
X114875000Y-91451935D01*
X115046082Y-91435085D01*
X115210588Y-91385182D01*
X115362199Y-91304145D01*
X115495087Y-91195087D01*
X115604145Y-91062199D01*
X115685182Y-90910588D01*
X115735085Y-90746082D01*
X115751935Y-90575000D01*
X115751935Y-89625000D01*
X115735085Y-89453918D01*
X115685182Y-89289412D01*
X115604145Y-89137801D01*
X115495087Y-89004913D01*
X115362199Y-88895855D01*
X115210588Y-88814818D01*
X115046082Y-88764915D01*
X114875000Y-88748065D01*
X113925000Y-88748065D01*
X113753918Y-88764915D01*
X113589412Y-88814818D01*
X113437801Y-88895855D01*
X113304913Y-89004913D01*
X113195855Y-89137801D01*
X113114818Y-89289412D01*
X113064915Y-89453918D01*
X113048065Y-89625000D01*
X110401935Y-89625000D01*
X110401935Y-87450000D01*
X110384605Y-87274041D01*
X110333279Y-87104844D01*
X110249932Y-86948912D01*
X110137764Y-86812236D01*
X110001088Y-86700068D01*
X109845156Y-86616721D01*
X109675959Y-86565395D01*
X109500000Y-86548065D01*
X108500000Y-86548065D01*
X108324041Y-86565395D01*
X108154844Y-86616721D01*
X107998912Y-86700068D01*
X107862236Y-86812236D01*
X107750068Y-86948912D01*
X107666721Y-87104844D01*
X107615395Y-87274041D01*
X107598065Y-87450000D01*
X105701506Y-87450000D01*
X105684021Y-87423684D01*
X105580381Y-87319319D01*
X105458444Y-87237071D01*
X105322854Y-87180075D01*
X105178776Y-87150499D01*
X105031697Y-87149473D01*
X104887219Y-87177033D01*
X104750847Y-87232131D01*
X104627773Y-87312668D01*
X104522687Y-87415577D01*
X104439590Y-87536936D01*
X104381648Y-87672125D01*
X104351068Y-87815994D01*
X104349286Y-87943607D01*
X102642894Y-89650000D01*
X101807106Y-89650000D01*
X102893554Y-88563553D01*
X102922880Y-88527852D01*
X102952557Y-88492484D01*
X102953823Y-88490181D01*
X102955493Y-88488148D01*
X102977320Y-88447440D01*
X102999568Y-88406971D01*
X103000363Y-88404464D01*
X103001605Y-88402148D01*
X103015107Y-88357985D01*
X103029074Y-88313956D01*
X103029367Y-88311345D01*
X103030136Y-88308829D01*
X103034806Y-88262853D01*
X103039951Y-88216981D01*
X103039987Y-88211843D01*
X103039997Y-88211745D01*
X103039988Y-88211654D01*
X103040000Y-88210000D01*
X103040000Y-87353564D01*
X103063814Y-87346340D01*
X103133303Y-87309197D01*
X103194211Y-87259211D01*
X103244197Y-87198303D01*
X103281340Y-87128814D01*
X103304212Y-87053414D01*
X103311935Y-86975000D01*
X103311935Y-85076704D01*
X103342514Y-85124154D01*
X103478744Y-85265223D01*
X103639780Y-85377146D01*
X103819488Y-85455659D01*
X104011023Y-85497770D01*
X104207090Y-85501877D01*
X104400221Y-85467823D01*
X104583059Y-85396905D01*
X104748641Y-85291824D01*
X104890658Y-85156583D01*
X105003702Y-84996332D01*
X105083468Y-84817176D01*
X105126916Y-84625940D01*
X105130043Y-84401945D01*
X105091952Y-84209570D01*
X105017220Y-84028257D01*
X104908694Y-83864912D01*
X104770508Y-83725758D01*
X104607926Y-83616095D01*
X104427139Y-83540099D01*
X104422774Y-83539203D01*
X104505277Y-83422249D01*
X104565100Y-83287882D01*
X104597686Y-83144455D01*
X104600032Y-82976459D01*
X104571464Y-82832177D01*
X104515415Y-82696193D01*
X104434021Y-82573684D01*
X104330381Y-82469319D01*
X104208444Y-82387071D01*
X104072854Y-82330075D01*
X103928776Y-82300499D01*
X103781697Y-82299473D01*
X103637219Y-82327033D01*
X103500847Y-82382131D01*
X103377773Y-82462668D01*
X103311935Y-82527142D01*
X103311935Y-82025000D01*
X103304212Y-81946586D01*
X103281340Y-81871186D01*
X103244197Y-81801697D01*
X103194211Y-81740789D01*
X103133303Y-81690803D01*
X103063814Y-81653660D01*
X102988414Y-81630788D01*
X102910000Y-81623065D01*
X102170000Y-81623065D01*
X102091586Y-81630788D01*
X102016186Y-81653660D01*
X101946697Y-81690803D01*
X101905389Y-81724703D01*
X101894986Y-81714300D01*
X101829471Y-81670525D01*
X101756676Y-81640372D01*
X101679397Y-81625000D01*
X101395000Y-81625000D01*
X101295000Y-81725000D01*
X101295000Y-83110000D01*
X101315000Y-83110000D01*
X101315000Y-83160000D01*
X101295000Y-83160000D01*
X101295000Y-83180000D01*
X101245000Y-83180000D01*
X101245000Y-83160000D01*
X100025000Y-83160000D01*
X100025000Y-83180000D01*
X99975000Y-83180000D01*
X99975000Y-83160000D01*
X99955000Y-83160000D01*
X99955000Y-83110000D01*
X99975000Y-83110000D01*
X99975000Y-81725000D01*
X100025000Y-81725000D01*
X100025000Y-83110000D01*
X101245000Y-83110000D01*
X101245000Y-81725000D01*
X101145000Y-81625000D01*
X100860603Y-81625000D01*
X100783324Y-81640372D01*
X100710529Y-81670525D01*
X100645014Y-81714300D01*
X100635000Y-81724314D01*
X100624986Y-81714300D01*
X100559471Y-81670525D01*
X100486676Y-81640372D01*
X100409397Y-81625000D01*
X100125000Y-81625000D01*
X100025000Y-81725000D01*
X99975000Y-81725000D01*
X99875000Y-81625000D01*
X99590603Y-81625000D01*
X99513324Y-81640372D01*
X99440529Y-81670525D01*
X99375014Y-81714300D01*
X99364611Y-81724703D01*
X99323303Y-81690803D01*
X99253814Y-81653660D01*
X99178414Y-81630788D01*
X99100000Y-81623065D01*
X98360000Y-81623065D01*
X98281586Y-81630788D01*
X98206186Y-81653660D01*
X98136697Y-81690803D01*
X98095000Y-81725023D01*
X98053303Y-81690803D01*
X97983814Y-81653660D01*
X97908414Y-81630788D01*
X97830000Y-81623065D01*
X97090000Y-81623065D01*
X97011586Y-81630788D01*
X96936186Y-81653660D01*
X96866697Y-81690803D01*
X96805789Y-81740789D01*
X96755803Y-81801697D01*
X96718660Y-81871186D01*
X96695788Y-81946586D01*
X96688065Y-82025000D01*
X96688065Y-82935309D01*
X96677482Y-82968671D01*
X96660078Y-83123830D01*
X96660000Y-83135000D01*
X96660000Y-83881929D01*
X96648694Y-83864912D01*
X96510508Y-83725758D01*
X96347926Y-83616095D01*
X96167139Y-83540099D01*
X95975034Y-83500666D01*
X95778929Y-83499297D01*
X95586292Y-83536044D01*
X95404462Y-83609508D01*
X95240364Y-83716891D01*
X95100249Y-83854102D01*
X94989453Y-84015915D01*
X94912197Y-84196167D01*
X94871423Y-84387992D01*
X94868685Y-84584083D01*
X94904087Y-84776971D01*
X94976280Y-84959310D01*
X95082514Y-85124154D01*
X95218744Y-85265223D01*
X95379780Y-85377146D01*
X95559488Y-85455659D01*
X95751023Y-85497770D01*
X95947090Y-85501877D01*
X96140221Y-85467823D01*
X96323059Y-85396905D01*
X96488641Y-85291824D01*
X96630658Y-85156583D01*
X96660000Y-85114988D01*
X96660000Y-85865000D01*
X96675236Y-86020387D01*
X96688065Y-86062879D01*
X96688065Y-86975000D01*
X96695788Y-87053414D01*
X96718660Y-87128814D01*
X96755803Y-87198303D01*
X96805789Y-87259211D01*
X96860428Y-87304052D01*
X96840323Y-87341236D01*
X96788382Y-87509030D01*
X96770022Y-87683717D01*
X96785941Y-87858643D01*
X96835535Y-88027146D01*
X96916912Y-88182807D01*
X97026975Y-88319697D01*
X97161530Y-88432602D01*
X97315452Y-88517222D01*
X97482879Y-88570333D01*
X97657434Y-88589912D01*
X97670000Y-88590000D01*
X98287194Y-88590000D01*
X98277204Y-88599990D01*
X95287448Y-88599990D01*
X95315100Y-88537882D01*
X95347686Y-88394455D01*
X95350032Y-88226459D01*
X95321464Y-88082177D01*
X95265415Y-87946193D01*
X95184021Y-87823684D01*
X95100000Y-87739075D01*
X95100000Y-86559567D01*
X95170493Y-86492437D01*
X95255277Y-86372249D01*
X95315100Y-86237882D01*
X95347686Y-86094455D01*
X95350032Y-85926459D01*
X95321464Y-85782177D01*
X95265415Y-85646193D01*
X95184021Y-85523684D01*
X95080381Y-85419319D01*
X94958444Y-85337071D01*
X94822854Y-85280075D01*
X94678776Y-85250499D01*
X94531697Y-85249473D01*
X94387219Y-85277033D01*
X94250847Y-85332131D01*
X94127773Y-85412668D01*
X94022687Y-85515577D01*
X93939590Y-85636936D01*
X93881648Y-85772125D01*
X93851068Y-85915994D01*
X93849014Y-86063062D01*
X93875565Y-86207728D01*
X93929710Y-86344482D01*
X94009386Y-86468115D01*
X94100000Y-86561948D01*
X94100000Y-87739866D01*
X94022687Y-87815577D01*
X93974952Y-87885291D01*
X93934021Y-87823684D01*
X93830381Y-87719319D01*
X93708444Y-87637071D01*
X93572854Y-87580075D01*
X93428776Y-87550499D01*
X93281697Y-87549473D01*
X93137219Y-87577033D01*
X93000847Y-87632131D01*
X92877773Y-87712668D01*
X92796416Y-87792340D01*
X92784021Y-87773684D01*
X92680381Y-87669319D01*
X92558444Y-87587071D01*
X92422854Y-87530075D01*
X92278776Y-87500499D01*
X92131697Y-87499473D01*
X91987219Y-87527033D01*
X91850847Y-87582131D01*
X91727773Y-87662668D01*
X91622687Y-87765577D01*
X91539590Y-87886936D01*
X91481648Y-88022125D01*
X91451068Y-88165994D01*
X91449014Y-88313062D01*
X84764866Y-88313062D01*
X86513989Y-86228539D01*
X89445719Y-83871368D01*
X92779458Y-82128531D01*
X96388225Y-81066413D01*
X100134564Y-80725470D01*
X103875777Y-81118687D01*
X103875777Y-81118687D01*
G37*
X103875777Y-81118687D02*
X107469363Y-82231088D01*
X110778443Y-84020301D01*
X113676976Y-86418176D01*
X116054557Y-89333378D01*
X117820625Y-92654868D01*
X118472537Y-94814103D01*
X118341329Y-94772482D01*
X118186170Y-94755078D01*
X118175000Y-94755000D01*
X117862945Y-94755000D01*
X117875000Y-94694397D01*
X117875000Y-94410000D01*
X117775000Y-94310000D01*
X116390000Y-94310000D01*
X116390000Y-94330000D01*
X116340000Y-94330000D01*
X116340000Y-94310000D01*
X113660000Y-94310000D01*
X113660000Y-94330000D01*
X113610000Y-94330000D01*
X113610000Y-94310000D01*
X112225000Y-94310000D01*
X112125000Y-94410000D01*
X112125000Y-94694397D01*
X112137055Y-94755000D01*
X111825000Y-94755000D01*
X111669613Y-94770236D01*
X111520144Y-94815363D01*
X111382287Y-94888663D01*
X111261293Y-94987343D01*
X111161770Y-95107646D01*
X111087509Y-95244988D01*
X111041340Y-95394138D01*
X111025019Y-95549415D01*
X111039170Y-95704905D01*
X111083253Y-95854685D01*
X111155589Y-95993051D01*
X111253422Y-96114731D01*
X111343489Y-96190306D01*
X111261293Y-96257343D01*
X111161770Y-96377646D01*
X111087509Y-96514988D01*
X111041340Y-96664138D01*
X111025019Y-96819415D01*
X111039170Y-96974905D01*
X111083253Y-97124685D01*
X111155589Y-97263051D01*
X111253422Y-97384731D01*
X111343489Y-97460306D01*
X111261293Y-97527343D01*
X111161770Y-97647646D01*
X111087509Y-97784988D01*
X111041340Y-97934138D01*
X111025019Y-98089415D01*
X111039170Y-98244905D01*
X111083253Y-98394685D01*
X111155589Y-98533051D01*
X111253422Y-98654731D01*
X111343489Y-98730306D01*
X111261293Y-98797343D01*
X111161770Y-98917646D01*
X111087509Y-99054988D01*
X111041340Y-99204138D01*
X111025019Y-99359415D01*
X111039170Y-99514905D01*
X111083253Y-99664685D01*
X111155589Y-99803051D01*
X111253422Y-99924731D01*
X111343489Y-100000306D01*
X111261293Y-100067343D01*
X111161770Y-100187646D01*
X111087509Y-100324988D01*
X111041340Y-100474138D01*
X111025019Y-100629415D01*
X111039170Y-100784905D01*
X111083253Y-100934685D01*
X111155589Y-101073051D01*
X111253422Y-101194731D01*
X111328145Y-101257431D01*
X111236293Y-101332343D01*
X111136770Y-101452646D01*
X111062509Y-101589988D01*
X111016340Y-101739138D01*
X111000019Y-101894415D01*
X111014170Y-102049905D01*
X111058253Y-102199685D01*
X111130589Y-102338051D01*
X111228422Y-102459731D01*
X111333833Y-102548181D01*
X111261293Y-102607343D01*
X111161770Y-102727646D01*
X111087509Y-102864988D01*
X111041340Y-103014138D01*
X111025019Y-103169415D01*
X111039170Y-103324905D01*
X111083253Y-103474685D01*
X111155589Y-103613051D01*
X111253422Y-103734731D01*
X111343489Y-103810306D01*
X111261293Y-103877343D01*
X111161770Y-103997646D01*
X111087509Y-104134988D01*
X111041340Y-104284138D01*
X111025019Y-104439415D01*
X111039170Y-104594905D01*
X111083253Y-104744685D01*
X111155589Y-104883051D01*
X111253422Y-105004731D01*
X111373026Y-105105091D01*
X111509846Y-105180308D01*
X111658671Y-105227518D01*
X111813830Y-105244922D01*
X111825000Y-105245000D01*
X112137055Y-105245000D01*
X112125000Y-105305603D01*
X112125000Y-105590000D01*
X112225000Y-105690000D01*
X113610000Y-105690000D01*
X113610000Y-105670000D01*
X113660000Y-105670000D01*
X113660000Y-105690000D01*
X116340000Y-105690000D01*
X116340000Y-105670000D01*
X116390000Y-105670000D01*
X116390000Y-105690000D01*
X117775000Y-105690000D01*
X117875000Y-105590000D01*
X117875000Y-105305603D01*
X117859628Y-105228324D01*
X117829475Y-105155529D01*
X117787301Y-105092410D01*
X117802335Y-105102859D01*
X117937116Y-105161744D01*
X118080767Y-105193328D01*
X118227818Y-105196408D01*
X118372666Y-105170867D01*
X118509794Y-105117679D01*
X118515296Y-105114188D01*
X117608589Y-107839849D01*
X115750468Y-111110733D01*
X113292417Y-113958413D01*
X110328061Y-116274421D01*
X106970314Y-117970541D01*
X103347069Y-118982169D01*
X99596335Y-119270773D01*
X95860977Y-118825358D01*
X92283272Y-117662892D01*
X88999496Y-115827651D01*
X86134725Y-113389540D01*
X83798079Y-110441426D01*
X82078558Y-107095601D01*
X81718521Y-105840000D01*
X82125000Y-105840000D01*
X82125000Y-106124397D01*
X82140372Y-106201676D01*
X82170525Y-106274471D01*
X82214300Y-106339986D01*
X82270015Y-106395701D01*
X82335529Y-106439476D01*
X82408325Y-106469628D01*
X82485604Y-106485000D01*
X83510000Y-106485000D01*
X83610000Y-106385000D01*
X83610000Y-105740000D01*
X83660000Y-105740000D01*
X83660000Y-106385000D01*
X83760000Y-106485000D01*
X84426739Y-106485000D01*
X84370364Y-106521891D01*
X84230249Y-106659102D01*
X84119453Y-106820915D01*
X84042197Y-107001167D01*
X84001423Y-107192992D01*
X83998685Y-107389083D01*
X84034087Y-107581971D01*
X84106280Y-107764310D01*
X84212514Y-107929154D01*
X84348744Y-108070223D01*
X84509780Y-108182146D01*
X84689488Y-108260659D01*
X84881023Y-108302770D01*
X85077090Y-108306877D01*
X85270221Y-108272823D01*
X85453059Y-108201905D01*
X85618641Y-108096824D01*
X85760658Y-107961583D01*
X85873702Y-107801332D01*
X85953468Y-107622176D01*
X85996916Y-107430940D01*
X86000043Y-107206945D01*
X85968968Y-107050000D01*
X89598065Y-107050000D01*
X89598065Y-112550000D01*
X89615395Y-112725959D01*
X89666721Y-112895156D01*
X89750068Y-113051088D01*
X89862236Y-113187764D01*
X89998912Y-113299932D01*
X90154844Y-113383279D01*
X90324041Y-113434605D01*
X90500000Y-113451935D01*
X91500000Y-113451935D01*
X91675959Y-113434605D01*
X91845156Y-113383279D01*
X92001088Y-113299932D01*
X92137764Y-113187764D01*
X92249932Y-113051088D01*
X92333279Y-112895156D01*
X92384605Y-112725959D01*
X92401935Y-112550000D01*
X92401935Y-112376861D01*
X92412879Y-112380333D01*
X92587434Y-112399912D01*
X92600000Y-112400000D01*
X93650000Y-112400000D01*
X93734289Y-112391736D01*
X93818643Y-112384059D01*
X93821671Y-112383168D01*
X93824811Y-112382860D01*
X93905890Y-112358380D01*
X93987146Y-112334465D01*
X93989943Y-112333003D01*
X93992963Y-112332091D01*
X94067708Y-112292349D01*
X94142807Y-112253088D01*
X94145268Y-112251109D01*
X94148052Y-112249629D01*
X94213701Y-112196088D01*
X94279697Y-112143025D01*
X94281723Y-112140611D01*
X94284171Y-112138614D01*
X94338221Y-112073279D01*
X94392602Y-112008470D01*
X94394120Y-112005708D01*
X94396134Y-112003274D01*
X94436433Y-111928742D01*
X94477222Y-111854548D01*
X94478176Y-111851539D01*
X94479677Y-111848764D01*
X94504719Y-111767867D01*
X94530333Y-111687121D01*
X94530685Y-111683985D01*
X94531618Y-111680970D01*
X94540473Y-111596717D01*
X94549912Y-111512566D01*
X94549954Y-111506507D01*
X94549978Y-111506283D01*
X94549958Y-111506059D01*
X94550000Y-111500000D01*
X94550000Y-111320710D01*
X94541879Y-111237887D01*
X94534641Y-111155154D01*
X94533322Y-111150615D01*
X94532860Y-111145899D01*
X94508832Y-111066315D01*
X94485638Y-110986479D01*
X94483457Y-110982272D01*
X94482091Y-110977747D01*
X94443103Y-110904421D01*
X94404804Y-110830535D01*
X94401849Y-110826834D01*
X94399629Y-110822658D01*
X94347068Y-110758212D01*
X94295219Y-110693262D01*
X94288729Y-110686680D01*
X94288614Y-110686539D01*
X94288483Y-110686431D01*
X94286396Y-110684314D01*
X93836396Y-110234314D01*
X93772141Y-110181534D01*
X93708470Y-110128108D01*
X93704324Y-110125829D01*
X93700666Y-110122824D01*
X93627407Y-110083543D01*
X93554548Y-110043488D01*
X93550035Y-110042056D01*
X93545866Y-110039821D01*
X93466393Y-110015524D01*
X93387121Y-109990377D01*
X93382417Y-109989849D01*
X93377892Y-109988466D01*
X93295156Y-109980062D01*
X93212566Y-109970798D01*
X93203322Y-109970733D01*
X93203142Y-109970715D01*
X93202975Y-109970731D01*
X93200000Y-109970710D01*
X92443502Y-109970710D01*
X92401935Y-109929143D01*
X92401935Y-107050000D01*
X92384605Y-106874041D01*
X92333279Y-106704844D01*
X92249932Y-106548912D01*
X92137764Y-106412236D01*
X92001088Y-106300068D01*
X91845156Y-106216721D01*
X91675959Y-106165395D01*
X91500000Y-106148065D01*
X90500000Y-106148065D01*
X90324041Y-106165395D01*
X90154844Y-106216721D01*
X89998912Y-106300068D01*
X89862236Y-106412236D01*
X89750068Y-106548912D01*
X89666721Y-106704844D01*
X89615395Y-106874041D01*
X89598065Y-107050000D01*
X85968968Y-107050000D01*
X85961952Y-107014570D01*
X85887220Y-106833257D01*
X85778694Y-106669912D01*
X85640508Y-106530758D01*
X85572669Y-106485000D01*
X86240000Y-106485000D01*
X86340000Y-106385000D01*
X86340000Y-105740000D01*
X86390000Y-105740000D01*
X86390000Y-106385000D01*
X86490000Y-106485000D01*
X87514396Y-106485000D01*
X87591675Y-106469628D01*
X87664471Y-106439476D01*
X87729985Y-106395701D01*
X87785700Y-106339986D01*
X87829475Y-106274471D01*
X87859628Y-106201676D01*
X87875000Y-106124397D01*
X87875000Y-105840000D01*
X87775000Y-105740000D01*
X86390000Y-105740000D01*
X86340000Y-105740000D01*
X83660000Y-105740000D01*
X83610000Y-105740000D01*
X82225000Y-105740000D01*
X82125000Y-105840000D01*
X81718521Y-105840000D01*
X81531309Y-105187116D01*
X81658671Y-105227518D01*
X81813830Y-105244922D01*
X81825000Y-105245000D01*
X82137055Y-105245000D01*
X82125000Y-105305603D01*
X82125000Y-105590000D01*
X82225000Y-105690000D01*
X83610000Y-105690000D01*
X83610000Y-105670000D01*
X83660000Y-105670000D01*
X83660000Y-105690000D01*
X86340000Y-105690000D01*
X86340000Y-105670000D01*
X86390000Y-105670000D01*
X86390000Y-105690000D01*
X87775000Y-105690000D01*
X87875000Y-105590000D01*
X87875000Y-105305603D01*
X87862945Y-105245000D01*
X88148032Y-105245000D01*
X88197207Y-105249995D01*
X88352647Y-105235301D01*
X88502273Y-105190696D01*
X88640385Y-105117878D01*
X88761723Y-105019621D01*
X88861665Y-104899667D01*
X88936404Y-104762585D01*
X88983094Y-104613596D01*
X88999956Y-104458377D01*
X88995992Y-104413062D01*
X89549014Y-104413062D01*
X89575565Y-104557728D01*
X89629710Y-104694482D01*
X89709386Y-104818115D01*
X89811558Y-104923917D01*
X89932335Y-105007859D01*
X90067116Y-105066744D01*
X90210767Y-105098328D01*
X90357818Y-105101408D01*
X90502666Y-105075867D01*
X90639794Y-105022679D01*
X90763980Y-104943868D01*
X90870493Y-104842437D01*
X90955277Y-104722249D01*
X91015100Y-104587882D01*
X91047686Y-104444455D01*
X91050032Y-104276459D01*
X91021464Y-104132177D01*
X90965415Y-103996193D01*
X90925000Y-103935363D01*
X90925000Y-103808884D01*
X91106399Y-103627485D01*
X94930700Y-106134526D01*
X95150000Y-106200000D01*
X99350000Y-106200000D01*
X99503073Y-106169552D01*
X99632843Y-106082843D01*
X99719552Y-105953073D01*
X99750000Y-105800000D01*
X99750000Y-105607106D01*
X102446448Y-108303554D01*
X102482093Y-108332833D01*
X102517517Y-108362558D01*
X102519824Y-108363826D01*
X102521853Y-108365493D01*
X102562522Y-108387300D01*
X102603030Y-108409569D01*
X102605537Y-108410364D01*
X102607853Y-108411606D01*
X102652016Y-108425108D01*
X102696045Y-108439075D01*
X102698656Y-108439368D01*
X102701172Y-108440137D01*
X102747148Y-108444807D01*
X102793020Y-108449952D01*
X102798158Y-108449988D01*
X102798256Y-108449998D01*
X102798347Y-108449989D01*
X102800001Y-108450001D01*
X104149999Y-108450001D01*
X104195943Y-108445496D01*
X104241975Y-108441469D01*
X104244500Y-108440736D01*
X104247116Y-108440479D01*
X104291322Y-108427132D01*
X104335683Y-108414244D01*
X104338018Y-108413034D01*
X104340534Y-108412274D01*
X104381284Y-108390607D01*
X104422319Y-108369337D01*
X104424375Y-108367695D01*
X104426695Y-108366462D01*
X104462484Y-108337273D01*
X104498581Y-108308456D01*
X104502239Y-108304849D01*
X104502316Y-108304786D01*
X104502375Y-108304715D01*
X104503552Y-108303554D01*
X104557793Y-108249313D01*
X104657818Y-108251408D01*
X104802666Y-108225867D01*
X104939794Y-108172679D01*
X105063980Y-108093868D01*
X105170493Y-107992437D01*
X105255277Y-107872249D01*
X105315100Y-107737882D01*
X105347686Y-107594455D01*
X105350032Y-107426459D01*
X105321464Y-107282177D01*
X105265415Y-107146193D01*
X105184021Y-107023684D01*
X105080381Y-106919319D01*
X104958444Y-106837071D01*
X104822854Y-106780075D01*
X104678776Y-106750499D01*
X104531697Y-106749473D01*
X104387219Y-106777033D01*
X104250847Y-106832131D01*
X104127773Y-106912668D01*
X104022687Y-107015577D01*
X103998290Y-107051208D01*
X104000032Y-106926459D01*
X103971464Y-106782177D01*
X103915415Y-106646193D01*
X103834021Y-106523684D01*
X103730381Y-106419319D01*
X103608444Y-106337071D01*
X103472854Y-106280075D01*
X103328776Y-106250499D01*
X103181697Y-106249473D01*
X103037219Y-106277033D01*
X102900847Y-106332131D01*
X102836422Y-106374289D01*
X101150000Y-104687868D01*
X101150000Y-103413062D01*
X106899014Y-103413062D01*
X106925565Y-103557728D01*
X106979710Y-103694482D01*
X107059386Y-103818115D01*
X107161558Y-103923917D01*
X107282335Y-104007859D01*
X107417116Y-104066744D01*
X107560767Y-104098328D01*
X107694012Y-104101119D01*
X108200000Y-104607107D01*
X108200000Y-105262272D01*
X108150847Y-105282131D01*
X108027773Y-105362668D01*
X107922687Y-105465577D01*
X107839590Y-105586936D01*
X107781648Y-105722125D01*
X107751068Y-105865994D01*
X107749014Y-106013062D01*
X107775565Y-106157728D01*
X107829710Y-106294482D01*
X107909386Y-106418115D01*
X108011558Y-106523917D01*
X108132335Y-106607859D01*
X108267116Y-106666744D01*
X108410767Y-106698328D01*
X108557818Y-106701408D01*
X108702666Y-106675867D01*
X108839794Y-106622679D01*
X108963980Y-106543868D01*
X109070493Y-106442437D01*
X109155277Y-106322249D01*
X109215100Y-106187882D01*
X109247686Y-106044455D01*
X109250032Y-105876459D01*
X109242814Y-105840000D01*
X112125000Y-105840000D01*
X112125000Y-106124397D01*
X112140372Y-106201676D01*
X112170525Y-106274471D01*
X112214300Y-106339986D01*
X112270015Y-106395701D01*
X112335529Y-106439476D01*
X112408325Y-106469628D01*
X112485604Y-106485000D01*
X113510000Y-106485000D01*
X113610000Y-106385000D01*
X113610000Y-105740000D01*
X113660000Y-105740000D01*
X113660000Y-106385000D01*
X113760000Y-106485000D01*
X114426739Y-106485000D01*
X114370364Y-106521891D01*
X114230249Y-106659102D01*
X114119453Y-106820915D01*
X114042197Y-107001167D01*
X114001423Y-107192992D01*
X113998685Y-107389083D01*
X114034087Y-107581971D01*
X114106280Y-107764310D01*
X114212514Y-107929154D01*
X114348744Y-108070223D01*
X114509780Y-108182146D01*
X114689488Y-108260659D01*
X114881023Y-108302770D01*
X115077090Y-108306877D01*
X115270221Y-108272823D01*
X115453059Y-108201905D01*
X115618641Y-108096824D01*
X115760658Y-107961583D01*
X115873702Y-107801332D01*
X115953468Y-107622176D01*
X115996916Y-107430940D01*
X116000043Y-107206945D01*
X115961952Y-107014570D01*
X115887220Y-106833257D01*
X115778694Y-106669912D01*
X115640508Y-106530758D01*
X115572669Y-106485000D01*
X116240000Y-106485000D01*
X116340000Y-106385000D01*
X116340000Y-105740000D01*
X116390000Y-105740000D01*
X116390000Y-106385000D01*
X116490000Y-106485000D01*
X117514396Y-106485000D01*
X117591675Y-106469628D01*
X117664471Y-106439476D01*
X117729985Y-106395701D01*
X117785700Y-106339986D01*
X117829475Y-106274471D01*
X117859628Y-106201676D01*
X117875000Y-106124397D01*
X117875000Y-105840000D01*
X117775000Y-105740000D01*
X116390000Y-105740000D01*
X116340000Y-105740000D01*
X113660000Y-105740000D01*
X113610000Y-105740000D01*
X112225000Y-105740000D01*
X112125000Y-105840000D01*
X109242814Y-105840000D01*
X109221464Y-105732177D01*
X109200000Y-105680102D01*
X109200000Y-104400000D01*
X109195491Y-104354011D01*
X109191468Y-104308024D01*
X109190735Y-104305499D01*
X109190478Y-104302883D01*
X109177131Y-104258677D01*
X109164243Y-104214316D01*
X109163033Y-104211981D01*
X109162273Y-104209465D01*
X109140585Y-104168675D01*
X109119335Y-104127680D01*
X109117696Y-104125627D01*
X109116461Y-104123304D01*
X109087270Y-104087512D01*
X109058455Y-104051417D01*
X109054843Y-104047754D01*
X109054785Y-104047683D01*
X109054719Y-104047628D01*
X109053553Y-104046446D01*
X108398428Y-103391322D01*
X108400032Y-103276459D01*
X108371464Y-103132177D01*
X108315415Y-102996193D01*
X108234021Y-102873684D01*
X108130381Y-102769319D01*
X108008444Y-102687071D01*
X107872854Y-102630075D01*
X107728776Y-102600499D01*
X107581697Y-102599473D01*
X107437219Y-102627033D01*
X107300847Y-102682131D01*
X107177773Y-102762668D01*
X107072687Y-102865577D01*
X106989590Y-102986936D01*
X106931648Y-103122125D01*
X106901068Y-103265994D01*
X106899014Y-103413062D01*
X101150000Y-103413062D01*
X101150000Y-103400000D01*
X104050000Y-103400000D01*
X104203073Y-103369552D01*
X104332843Y-103282843D01*
X104419552Y-103153073D01*
X104450000Y-103000000D01*
X104450000Y-98150000D01*
X104419552Y-97996927D01*
X104332843Y-97867157D01*
X104203073Y-97780448D01*
X104050000Y-97750000D01*
X102350000Y-97750000D01*
X102350000Y-95250000D01*
X103342894Y-95250000D01*
X104146447Y-96053553D01*
X104182092Y-96082832D01*
X104217516Y-96112557D01*
X104219823Y-96113825D01*
X104221852Y-96115492D01*
X104262521Y-96137299D01*
X104303029Y-96159568D01*
X104305536Y-96160363D01*
X104307852Y-96161605D01*
X104352015Y-96175107D01*
X104396044Y-96189074D01*
X104398655Y-96189367D01*
X104401171Y-96190136D01*
X104447147Y-96194806D01*
X104493019Y-96199951D01*
X104498157Y-96199987D01*
X104498255Y-96199997D01*
X104498346Y-96199988D01*
X104500000Y-96200000D01*
X105250000Y-96200000D01*
X105295944Y-96195495D01*
X105341976Y-96191468D01*
X105344501Y-96190735D01*
X105347117Y-96190478D01*
X105391323Y-96177131D01*
X105435684Y-96164243D01*
X105438019Y-96163033D01*
X105440535Y-96162273D01*
X105481285Y-96140606D01*
X105522320Y-96119336D01*
X105524376Y-96117694D01*
X105526696Y-96116461D01*
X105562485Y-96087272D01*
X105598582Y-96058455D01*
X105602240Y-96054848D01*
X105602317Y-96054785D01*
X105602376Y-96054714D01*
X105603553Y-96053553D01*
X106257794Y-95399313D01*
X106357818Y-95401408D01*
X106502666Y-95375867D01*
X106639794Y-95322679D01*
X106763980Y-95243868D01*
X106870493Y-95142437D01*
X106955277Y-95022249D01*
X107015100Y-94887882D01*
X107047686Y-94744455D01*
X107050032Y-94576459D01*
X107021464Y-94432177D01*
X106965415Y-94296193D01*
X106884021Y-94173684D01*
X106780381Y-94069319D01*
X106658444Y-93987071D01*
X106522854Y-93930075D01*
X106378776Y-93900499D01*
X106250707Y-93899606D01*
X106267639Y-93875603D01*
X112125000Y-93875603D01*
X112125000Y-94160000D01*
X112225000Y-94260000D01*
X113610000Y-94260000D01*
X113610000Y-93615000D01*
X113660000Y-93615000D01*
X113660000Y-94260000D01*
X116340000Y-94260000D01*
X116340000Y-93615000D01*
X116390000Y-93615000D01*
X116390000Y-94260000D01*
X117775000Y-94260000D01*
X117875000Y-94160000D01*
X117875000Y-93875603D01*
X117859628Y-93798324D01*
X117829475Y-93725529D01*
X117785700Y-93660014D01*
X117729985Y-93604299D01*
X117664471Y-93560524D01*
X117591675Y-93530372D01*
X117514396Y-93515000D01*
X116490000Y-93515000D01*
X116390000Y-93615000D01*
X116340000Y-93615000D01*
X116240000Y-93515000D01*
X115574243Y-93515000D01*
X115618641Y-93486824D01*
X115760658Y-93351583D01*
X115873702Y-93191332D01*
X115953468Y-93012176D01*
X115996916Y-92820940D01*
X116000043Y-92596945D01*
X115961952Y-92404570D01*
X115887220Y-92223257D01*
X115778694Y-92059912D01*
X115640508Y-91920758D01*
X115477926Y-91811095D01*
X115297139Y-91735099D01*
X115105034Y-91695666D01*
X114908929Y-91694297D01*
X114716292Y-91731044D01*
X114534462Y-91804508D01*
X114370364Y-91911891D01*
X114230249Y-92049102D01*
X114119453Y-92210915D01*
X114042197Y-92391167D01*
X114001423Y-92582992D01*
X113998685Y-92779083D01*
X114034087Y-92971971D01*
X114106280Y-93154310D01*
X114212514Y-93319154D01*
X114348744Y-93460223D01*
X114427558Y-93515000D01*
X113760000Y-93515000D01*
X113660000Y-93615000D01*
X113610000Y-93615000D01*
X113510000Y-93515000D01*
X112485604Y-93515000D01*
X112408325Y-93530372D01*
X112335529Y-93560524D01*
X112270015Y-93604299D01*
X112214300Y-93660014D01*
X112170525Y-93725529D01*
X112140372Y-93798324D01*
X112125000Y-93875603D01*
X106267639Y-93875603D01*
X106305277Y-93822249D01*
X106365100Y-93687882D01*
X106397686Y-93544455D01*
X106400032Y-93376459D01*
X106371464Y-93232177D01*
X106315415Y-93096193D01*
X106234021Y-92973684D01*
X106130381Y-92869319D01*
X106008444Y-92787071D01*
X105872854Y-92730075D01*
X105728776Y-92700499D01*
X105581697Y-92699473D01*
X105568125Y-92702062D01*
X105546972Y-92690433D01*
X105544465Y-92689638D01*
X105542149Y-92688396D01*
X105497986Y-92674894D01*
X105453957Y-92660927D01*
X105451346Y-92660634D01*
X105448830Y-92659865D01*
X105402854Y-92655195D01*
X105356982Y-92650050D01*
X105351844Y-92650014D01*
X105351746Y-92650004D01*
X105351655Y-92650013D01*
X105350001Y-92650001D01*
X99749005Y-92650001D01*
X99750032Y-92576459D01*
X99721464Y-92432177D01*
X99665415Y-92296193D01*
X99584021Y-92173684D01*
X99480381Y-92069319D01*
X99358444Y-91987071D01*
X99222854Y-91930075D01*
X99078776Y-91900499D01*
X98931697Y-91899473D01*
X98787219Y-91927033D01*
X98650847Y-91982131D01*
X98527773Y-92062668D01*
X98422687Y-92165577D01*
X98339590Y-92286936D01*
X98281648Y-92422125D01*
X98255762Y-92543908D01*
X98222854Y-92530075D01*
X98078776Y-92500499D01*
X97931697Y-92499473D01*
X97787219Y-92527033D01*
X97650847Y-92582131D01*
X97527773Y-92662668D01*
X97422687Y-92765577D01*
X97339590Y-92886936D01*
X97281648Y-93022125D01*
X97251068Y-93165994D01*
X97249014Y-93313062D01*
X97264970Y-93400000D01*
X96374264Y-93400000D01*
X96328312Y-93404505D01*
X96282289Y-93408532D01*
X96279765Y-93409265D01*
X96277147Y-93409522D01*
X96232929Y-93422873D01*
X96188580Y-93435757D01*
X96186245Y-93436967D01*
X96183729Y-93437727D01*
X96142958Y-93459405D01*
X96142165Y-93459816D01*
X96108444Y-93437071D01*
X95972854Y-93380075D01*
X95828776Y-93350499D01*
X95799699Y-93350296D01*
X95800032Y-93326459D01*
X95771464Y-93182177D01*
X95715415Y-93046193D01*
X95634021Y-92923684D01*
X95530381Y-92819319D01*
X95408444Y-92737071D01*
X95272854Y-92680075D01*
X95128776Y-92650499D01*
X94981697Y-92649473D01*
X94837219Y-92677033D01*
X94700847Y-92732131D01*
X94577773Y-92812668D01*
X94472687Y-92915577D01*
X94467189Y-92923606D01*
X94434021Y-92873684D01*
X94330381Y-92769319D01*
X94208444Y-92687071D01*
X94072854Y-92630075D01*
X93928776Y-92600499D01*
X93781697Y-92599473D01*
X93637219Y-92627033D01*
X93584558Y-92648309D01*
X93571464Y-92582177D01*
X93515415Y-92446193D01*
X93434021Y-92323684D01*
X93330381Y-92219319D01*
X93208444Y-92137071D01*
X93072854Y-92080075D01*
X92928776Y-92050499D01*
X92781697Y-92049473D01*
X92637219Y-92077033D01*
X92500847Y-92132131D01*
X92377773Y-92212668D01*
X92272687Y-92315577D01*
X92213094Y-92402610D01*
X92130381Y-92319319D01*
X92008444Y-92237071D01*
X91872854Y-92180075D01*
X91728776Y-92150499D01*
X91581697Y-92149473D01*
X91437219Y-92177033D01*
X91300847Y-92232131D01*
X91177773Y-92312668D01*
X91136667Y-92352923D01*
X91084021Y-92273684D01*
X90980381Y-92169319D01*
X90858444Y-92087071D01*
X90722854Y-92030075D01*
X90578776Y-92000499D01*
X90431697Y-91999473D01*
X90287219Y-92027033D01*
X90150847Y-92082131D01*
X90027773Y-92162668D01*
X89922687Y-92265577D01*
X89839590Y-92386936D01*
X89781648Y-92522125D01*
X89751068Y-92665994D01*
X89749014Y-92813062D01*
X89775565Y-92957728D01*
X89829710Y-93094482D01*
X89909386Y-93218115D01*
X90000000Y-93311948D01*
X90000000Y-100934972D01*
X90004505Y-100980916D01*
X90008532Y-101026948D01*
X90009265Y-101029473D01*
X90009522Y-101032089D01*
X90022869Y-101076295D01*
X90035757Y-101120656D01*
X90036967Y-101122991D01*
X90037727Y-101125507D01*
X90059394Y-101166257D01*
X90080664Y-101207292D01*
X90082306Y-101209348D01*
X90083539Y-101211668D01*
X90112728Y-101247457D01*
X90141545Y-101283554D01*
X90145152Y-101287212D01*
X90145215Y-101287289D01*
X90145286Y-101287348D01*
X90146447Y-101288525D01*
X90241710Y-101383788D01*
X90249241Y-102716875D01*
X89858058Y-103108058D01*
X89821399Y-103152688D01*
X89784304Y-103196896D01*
X89782721Y-103199775D01*
X89780635Y-103202315D01*
X89753379Y-103253147D01*
X89725540Y-103303786D01*
X89724544Y-103306924D01*
X89722994Y-103309816D01*
X89706119Y-103365010D01*
X89688658Y-103420055D01*
X89688292Y-103423317D01*
X89687330Y-103426464D01*
X89681492Y-103483937D01*
X89675061Y-103541274D01*
X89675016Y-103547699D01*
X89675004Y-103547818D01*
X89675014Y-103547929D01*
X89675000Y-103550000D01*
X89675000Y-103935221D01*
X89639590Y-103986936D01*
X89581648Y-104122125D01*
X89551068Y-104265994D01*
X89549014Y-104413062D01*
X88995992Y-104413062D01*
X88986349Y-104302839D01*
X88942789Y-104152906D01*
X88870936Y-104014289D01*
X88773529Y-103892268D01*
X88765685Y-103884315D01*
X88760685Y-103879315D01*
X88703631Y-103832450D01*
X88694056Y-103824416D01*
X88761723Y-103769621D01*
X88861664Y-103649667D01*
X88936403Y-103512585D01*
X88983094Y-103363596D01*
X88999956Y-103208377D01*
X88986348Y-103052839D01*
X88942789Y-102902906D01*
X88870936Y-102764288D01*
X88773528Y-102642268D01*
X88765685Y-102634314D01*
X88740685Y-102609315D01*
X88683631Y-102562450D01*
X88656511Y-102539694D01*
X88738707Y-102472657D01*
X88838230Y-102352354D01*
X88912491Y-102215012D01*
X88958660Y-102065862D01*
X88974981Y-101910585D01*
X88960830Y-101755095D01*
X88916747Y-101605315D01*
X88844411Y-101466949D01*
X88746578Y-101345269D01*
X88656511Y-101269694D01*
X88738707Y-101202657D01*
X88838230Y-101082354D01*
X88912491Y-100945012D01*
X88958660Y-100795862D01*
X88974981Y-100640585D01*
X88960830Y-100485095D01*
X88916747Y-100335315D01*
X88844411Y-100196949D01*
X88746578Y-100075269D01*
X88661440Y-100003830D01*
X88684981Y-99984631D01*
X88742732Y-99938529D01*
X88748583Y-99932758D01*
X88748707Y-99932657D01*
X88748802Y-99932542D01*
X88750685Y-99930685D01*
X88765685Y-99915686D01*
X88864787Y-99795037D01*
X88938568Y-99657437D01*
X88984217Y-99508126D01*
X88999995Y-99352793D01*
X88985301Y-99197353D01*
X88940696Y-99047727D01*
X88867878Y-98909615D01*
X88769621Y-98788277D01*
X88678137Y-98712056D01*
X88738707Y-98662657D01*
X88838230Y-98542354D01*
X88912491Y-98405012D01*
X88958660Y-98255862D01*
X88974981Y-98100585D01*
X88960830Y-97945095D01*
X88916747Y-97795315D01*
X88844411Y-97656949D01*
X88746578Y-97535269D01*
X88656511Y-97459694D01*
X88738707Y-97392657D01*
X88838230Y-97272354D01*
X88912491Y-97135012D01*
X88958660Y-96985862D01*
X88974981Y-96830585D01*
X88960830Y-96675095D01*
X88916747Y-96525315D01*
X88844411Y-96386949D01*
X88746578Y-96265269D01*
X88651582Y-96185558D01*
X88728707Y-96122657D01*
X88828230Y-96002354D01*
X88902491Y-95865012D01*
X88948660Y-95715862D01*
X88964981Y-95560585D01*
X88950830Y-95405095D01*
X88906747Y-95255315D01*
X88834411Y-95116949D01*
X88736578Y-94995269D01*
X88616974Y-94894909D01*
X88480154Y-94819692D01*
X88331329Y-94772482D01*
X88176170Y-94755078D01*
X88165000Y-94755000D01*
X87862945Y-94755000D01*
X87875000Y-94694397D01*
X87875000Y-94410000D01*
X87775000Y-94310000D01*
X86390000Y-94310000D01*
X86390000Y-94330000D01*
X86340000Y-94330000D01*
X86340000Y-94310000D01*
X83660000Y-94310000D01*
X83660000Y-94330000D01*
X83610000Y-94330000D01*
X83610000Y-94310000D01*
X82225000Y-94310000D01*
X82125000Y-94410000D01*
X82125000Y-94694397D01*
X82137055Y-94755000D01*
X81825000Y-94755000D01*
X81669613Y-94770236D01*
X81520144Y-94815363D01*
X81519508Y-94815701D01*
X81817724Y-93875603D01*
X82125000Y-93875603D01*
X82125000Y-94160000D01*
X82225000Y-94260000D01*
X83610000Y-94260000D01*
X83610000Y-93615000D01*
X83660000Y-93615000D01*
X83660000Y-94260000D01*
X86340000Y-94260000D01*
X86340000Y-93615000D01*
X86390000Y-93615000D01*
X86390000Y-94260000D01*
X87775000Y-94260000D01*
X87875000Y-94160000D01*
X87875000Y-93875603D01*
X87859628Y-93798324D01*
X87829475Y-93725529D01*
X87785700Y-93660014D01*
X87729985Y-93604299D01*
X87664471Y-93560524D01*
X87591675Y-93530372D01*
X87514396Y-93515000D01*
X86490000Y-93515000D01*
X86390000Y-93615000D01*
X86340000Y-93615000D01*
X86240000Y-93515000D01*
X85574243Y-93515000D01*
X85618641Y-93486824D01*
X85760658Y-93351583D01*
X85873702Y-93191332D01*
X85953468Y-93012176D01*
X85996916Y-92820940D01*
X86000043Y-92596945D01*
X85961952Y-92404570D01*
X85887220Y-92223257D01*
X85778694Y-92059912D01*
X85640508Y-91920758D01*
X85477926Y-91811095D01*
X85297139Y-91735099D01*
X85105034Y-91695666D01*
X84908929Y-91694297D01*
X84716292Y-91731044D01*
X84534462Y-91804508D01*
X84370364Y-91911891D01*
X84230249Y-92049102D01*
X84119453Y-92210915D01*
X84042197Y-92391167D01*
X84001423Y-92582992D01*
X83998685Y-92779083D01*
X84034087Y-92971971D01*
X84106280Y-93154310D01*
X84212514Y-93319154D01*
X84348744Y-93460223D01*
X84427558Y-93515000D01*
X83760000Y-93515000D01*
X83660000Y-93615000D01*
X83610000Y-93615000D01*
X83510000Y-93515000D01*
X82485604Y-93515000D01*
X82408325Y-93530372D01*
X82335529Y-93560524D01*
X82270015Y-93604299D01*
X82214300Y-93660014D01*
X82170525Y-93725529D01*
X82140372Y-93798324D01*
X82125000Y-93875603D01*
X81817724Y-93875603D01*
X82283666Y-92406770D01*
X84095937Y-89110261D01*
X84764866Y-88313062D01*
X91449014Y-88313062D01*
X91475565Y-88457728D01*
X91529710Y-88594482D01*
X91609386Y-88718115D01*
X91706977Y-88819173D01*
X91708532Y-88836950D01*
X91709265Y-88839475D01*
X91709522Y-88842091D01*
X91722869Y-88886297D01*
X91735757Y-88930658D01*
X91736967Y-88932993D01*
X91737727Y-88935509D01*
X91759394Y-88976259D01*
X91780664Y-89017294D01*
X91782306Y-89019350D01*
X91783539Y-89021670D01*
X91812728Y-89057459D01*
X91841545Y-89093556D01*
X91845152Y-89097214D01*
X91845215Y-89097291D01*
X91845286Y-89097350D01*
X91846447Y-89098527D01*
X92601473Y-89853553D01*
X92637118Y-89882832D01*
X92672542Y-89912557D01*
X92674849Y-89913825D01*
X92676878Y-89915492D01*
X92717547Y-89937299D01*
X92758055Y-89959568D01*
X92760562Y-89960363D01*
X92762878Y-89961605D01*
X92807041Y-89975107D01*
X92851070Y-89989074D01*
X92853681Y-89989367D01*
X92856197Y-89990136D01*
X92902173Y-89994806D01*
X92948045Y-89999951D01*
X92953183Y-89999987D01*
X92953281Y-89999997D01*
X92953372Y-89999988D01*
X92955026Y-90000000D01*
X93375723Y-90000000D01*
X93351068Y-90115994D01*
X93349014Y-90263062D01*
X93375565Y-90407728D01*
X93429710Y-90544482D01*
X93509386Y-90668115D01*
X93611558Y-90773917D01*
X93732335Y-90857859D01*
X93867116Y-90916744D01*
X94010767Y-90948328D01*
X94157818Y-90951408D01*
X94302666Y-90925867D01*
X94439794Y-90872679D01*
X94563980Y-90793868D01*
X94662551Y-90700000D01*
X94890177Y-90700000D01*
X94961558Y-90773917D01*
X95082335Y-90857859D01*
X95217116Y-90916744D01*
X95360767Y-90948328D01*
X95507818Y-90951408D01*
X95652666Y-90925867D01*
X95789794Y-90872679D01*
X95913980Y-90793868D01*
X96020493Y-90692437D01*
X96105277Y-90572249D01*
X96165100Y-90437882D01*
X96197686Y-90294455D01*
X96200032Y-90126459D01*
X96174993Y-90000000D01*
X98315095Y-90000000D01*
X98301068Y-90065994D01*
X98299014Y-90213062D01*
X98325565Y-90357728D01*
X98379710Y-90494482D01*
X98459386Y-90618115D01*
X98561558Y-90723917D01*
X98682335Y-90807859D01*
X98817116Y-90866744D01*
X98960767Y-90898328D01*
X99107818Y-90901408D01*
X99252666Y-90875867D01*
X99389794Y-90822679D01*
X99513980Y-90743868D01*
X99612551Y-90650000D01*
X102850000Y-90650000D01*
X102895944Y-90645495D01*
X102941976Y-90641468D01*
X102944501Y-90640735D01*
X102947117Y-90640478D01*
X102991323Y-90627131D01*
X103035684Y-90614243D01*
X103038019Y-90613033D01*
X103040535Y-90612273D01*
X103081285Y-90590606D01*
X103122320Y-90569336D01*
X103124376Y-90567694D01*
X103126696Y-90566461D01*
X103162485Y-90537272D01*
X103198582Y-90508455D01*
X103202240Y-90504848D01*
X103202317Y-90504785D01*
X103202376Y-90504714D01*
X103203553Y-90503553D01*
X105057794Y-88649313D01*
X105157818Y-88651408D01*
X105302666Y-88625867D01*
X105439794Y-88572679D01*
X105563980Y-88493868D01*
X105670493Y-88392437D01*
X105755277Y-88272249D01*
X105815100Y-88137882D01*
X105847686Y-87994455D01*
X105850032Y-87826459D01*
X105821464Y-87682177D01*
X105765415Y-87546193D01*
X105701506Y-87450000D01*
X107598065Y-87450000D01*
X107598065Y-92950000D01*
X107615395Y-93125959D01*
X107666721Y-93295156D01*
X107750068Y-93451088D01*
X107862236Y-93587764D01*
X107998912Y-93699932D01*
X108154844Y-93783279D01*
X108324041Y-93834605D01*
X108500000Y-93851935D01*
X109500000Y-93851935D01*
X109675959Y-93834605D01*
X109845156Y-93783279D01*
X110001088Y-93699932D01*
X110137764Y-93587764D01*
X110249932Y-93451088D01*
X110333279Y-93295156D01*
X110384605Y-93125959D01*
X110401935Y-92950000D01*
X110401935Y-89625000D01*
X113048065Y-89625000D01*
X113048065Y-90575000D01*
X113064915Y-90746082D01*
X113114818Y-90910588D01*
X113195855Y-91062199D01*
X113304913Y-91195087D01*
X113437801Y-91304145D01*
X113589412Y-91385182D01*
X113753918Y-91435085D01*
X113925000Y-91451935D01*
X114875000Y-91451935D01*
X115046082Y-91435085D01*
X115210588Y-91385182D01*
X115362199Y-91304145D01*
X115495087Y-91195087D01*
X115604145Y-91062199D01*
X115685182Y-90910588D01*
X115735085Y-90746082D01*
X115751935Y-90575000D01*
X115751935Y-89625000D01*
X115735085Y-89453918D01*
X115685182Y-89289412D01*
X115604145Y-89137801D01*
X115495087Y-89004913D01*
X115362199Y-88895855D01*
X115210588Y-88814818D01*
X115046082Y-88764915D01*
X114875000Y-88748065D01*
X113925000Y-88748065D01*
X113753918Y-88764915D01*
X113589412Y-88814818D01*
X113437801Y-88895855D01*
X113304913Y-89004913D01*
X113195855Y-89137801D01*
X113114818Y-89289412D01*
X113064915Y-89453918D01*
X113048065Y-89625000D01*
X110401935Y-89625000D01*
X110401935Y-87450000D01*
X110384605Y-87274041D01*
X110333279Y-87104844D01*
X110249932Y-86948912D01*
X110137764Y-86812236D01*
X110001088Y-86700068D01*
X109845156Y-86616721D01*
X109675959Y-86565395D01*
X109500000Y-86548065D01*
X108500000Y-86548065D01*
X108324041Y-86565395D01*
X108154844Y-86616721D01*
X107998912Y-86700068D01*
X107862236Y-86812236D01*
X107750068Y-86948912D01*
X107666721Y-87104844D01*
X107615395Y-87274041D01*
X107598065Y-87450000D01*
X105701506Y-87450000D01*
X105684021Y-87423684D01*
X105580381Y-87319319D01*
X105458444Y-87237071D01*
X105322854Y-87180075D01*
X105178776Y-87150499D01*
X105031697Y-87149473D01*
X104887219Y-87177033D01*
X104750847Y-87232131D01*
X104627773Y-87312668D01*
X104522687Y-87415577D01*
X104439590Y-87536936D01*
X104381648Y-87672125D01*
X104351068Y-87815994D01*
X104349286Y-87943607D01*
X102642894Y-89650000D01*
X101807106Y-89650000D01*
X102893554Y-88563553D01*
X102922880Y-88527852D01*
X102952557Y-88492484D01*
X102953823Y-88490181D01*
X102955493Y-88488148D01*
X102977320Y-88447440D01*
X102999568Y-88406971D01*
X103000363Y-88404464D01*
X103001605Y-88402148D01*
X103015107Y-88357985D01*
X103029074Y-88313956D01*
X103029367Y-88311345D01*
X103030136Y-88308829D01*
X103034806Y-88262853D01*
X103039951Y-88216981D01*
X103039987Y-88211843D01*
X103039997Y-88211745D01*
X103039988Y-88211654D01*
X103040000Y-88210000D01*
X103040000Y-87353564D01*
X103063814Y-87346340D01*
X103133303Y-87309197D01*
X103194211Y-87259211D01*
X103244197Y-87198303D01*
X103281340Y-87128814D01*
X103304212Y-87053414D01*
X103311935Y-86975000D01*
X103311935Y-85076704D01*
X103342514Y-85124154D01*
X103478744Y-85265223D01*
X103639780Y-85377146D01*
X103819488Y-85455659D01*
X104011023Y-85497770D01*
X104207090Y-85501877D01*
X104400221Y-85467823D01*
X104583059Y-85396905D01*
X104748641Y-85291824D01*
X104890658Y-85156583D01*
X105003702Y-84996332D01*
X105083468Y-84817176D01*
X105126916Y-84625940D01*
X105130043Y-84401945D01*
X105091952Y-84209570D01*
X105017220Y-84028257D01*
X104908694Y-83864912D01*
X104770508Y-83725758D01*
X104607926Y-83616095D01*
X104427139Y-83540099D01*
X104422774Y-83539203D01*
X104505277Y-83422249D01*
X104565100Y-83287882D01*
X104597686Y-83144455D01*
X104600032Y-82976459D01*
X104571464Y-82832177D01*
X104515415Y-82696193D01*
X104434021Y-82573684D01*
X104330381Y-82469319D01*
X104208444Y-82387071D01*
X104072854Y-82330075D01*
X103928776Y-82300499D01*
X103781697Y-82299473D01*
X103637219Y-82327033D01*
X103500847Y-82382131D01*
X103377773Y-82462668D01*
X103311935Y-82527142D01*
X103311935Y-82025000D01*
X103304212Y-81946586D01*
X103281340Y-81871186D01*
X103244197Y-81801697D01*
X103194211Y-81740789D01*
X103133303Y-81690803D01*
X103063814Y-81653660D01*
X102988414Y-81630788D01*
X102910000Y-81623065D01*
X102170000Y-81623065D01*
X102091586Y-81630788D01*
X102016186Y-81653660D01*
X101946697Y-81690803D01*
X101905389Y-81724703D01*
X101894986Y-81714300D01*
X101829471Y-81670525D01*
X101756676Y-81640372D01*
X101679397Y-81625000D01*
X101395000Y-81625000D01*
X101295000Y-81725000D01*
X101295000Y-83110000D01*
X101315000Y-83110000D01*
X101315000Y-83160000D01*
X101295000Y-83160000D01*
X101295000Y-83180000D01*
X101245000Y-83180000D01*
X101245000Y-83160000D01*
X100025000Y-83160000D01*
X100025000Y-83180000D01*
X99975000Y-83180000D01*
X99975000Y-83160000D01*
X99955000Y-83160000D01*
X99955000Y-83110000D01*
X99975000Y-83110000D01*
X99975000Y-81725000D01*
X100025000Y-81725000D01*
X100025000Y-83110000D01*
X101245000Y-83110000D01*
X101245000Y-81725000D01*
X101145000Y-81625000D01*
X100860603Y-81625000D01*
X100783324Y-81640372D01*
X100710529Y-81670525D01*
X100645014Y-81714300D01*
X100635000Y-81724314D01*
X100624986Y-81714300D01*
X100559471Y-81670525D01*
X100486676Y-81640372D01*
X100409397Y-81625000D01*
X100125000Y-81625000D01*
X100025000Y-81725000D01*
X99975000Y-81725000D01*
X99875000Y-81625000D01*
X99590603Y-81625000D01*
X99513324Y-81640372D01*
X99440529Y-81670525D01*
X99375014Y-81714300D01*
X99364611Y-81724703D01*
X99323303Y-81690803D01*
X99253814Y-81653660D01*
X99178414Y-81630788D01*
X99100000Y-81623065D01*
X98360000Y-81623065D01*
X98281586Y-81630788D01*
X98206186Y-81653660D01*
X98136697Y-81690803D01*
X98095000Y-81725023D01*
X98053303Y-81690803D01*
X97983814Y-81653660D01*
X97908414Y-81630788D01*
X97830000Y-81623065D01*
X97090000Y-81623065D01*
X97011586Y-81630788D01*
X96936186Y-81653660D01*
X96866697Y-81690803D01*
X96805789Y-81740789D01*
X96755803Y-81801697D01*
X96718660Y-81871186D01*
X96695788Y-81946586D01*
X96688065Y-82025000D01*
X96688065Y-82935309D01*
X96677482Y-82968671D01*
X96660078Y-83123830D01*
X96660000Y-83135000D01*
X96660000Y-83881929D01*
X96648694Y-83864912D01*
X96510508Y-83725758D01*
X96347926Y-83616095D01*
X96167139Y-83540099D01*
X95975034Y-83500666D01*
X95778929Y-83499297D01*
X95586292Y-83536044D01*
X95404462Y-83609508D01*
X95240364Y-83716891D01*
X95100249Y-83854102D01*
X94989453Y-84015915D01*
X94912197Y-84196167D01*
X94871423Y-84387992D01*
X94868685Y-84584083D01*
X94904087Y-84776971D01*
X94976280Y-84959310D01*
X95082514Y-85124154D01*
X95218744Y-85265223D01*
X95379780Y-85377146D01*
X95559488Y-85455659D01*
X95751023Y-85497770D01*
X95947090Y-85501877D01*
X96140221Y-85467823D01*
X96323059Y-85396905D01*
X96488641Y-85291824D01*
X96630658Y-85156583D01*
X96660000Y-85114988D01*
X96660000Y-85865000D01*
X96675236Y-86020387D01*
X96688065Y-86062879D01*
X96688065Y-86975000D01*
X96695788Y-87053414D01*
X96718660Y-87128814D01*
X96755803Y-87198303D01*
X96805789Y-87259211D01*
X96860428Y-87304052D01*
X96840323Y-87341236D01*
X96788382Y-87509030D01*
X96770022Y-87683717D01*
X96785941Y-87858643D01*
X96835535Y-88027146D01*
X96916912Y-88182807D01*
X97026975Y-88319697D01*
X97161530Y-88432602D01*
X97315452Y-88517222D01*
X97482879Y-88570333D01*
X97657434Y-88589912D01*
X97670000Y-88590000D01*
X98287194Y-88590000D01*
X98277204Y-88599990D01*
X95287448Y-88599990D01*
X95315100Y-88537882D01*
X95347686Y-88394455D01*
X95350032Y-88226459D01*
X95321464Y-88082177D01*
X95265415Y-87946193D01*
X95184021Y-87823684D01*
X95100000Y-87739075D01*
X95100000Y-86559567D01*
X95170493Y-86492437D01*
X95255277Y-86372249D01*
X95315100Y-86237882D01*
X95347686Y-86094455D01*
X95350032Y-85926459D01*
X95321464Y-85782177D01*
X95265415Y-85646193D01*
X95184021Y-85523684D01*
X95080381Y-85419319D01*
X94958444Y-85337071D01*
X94822854Y-85280075D01*
X94678776Y-85250499D01*
X94531697Y-85249473D01*
X94387219Y-85277033D01*
X94250847Y-85332131D01*
X94127773Y-85412668D01*
X94022687Y-85515577D01*
X93939590Y-85636936D01*
X93881648Y-85772125D01*
X93851068Y-85915994D01*
X93849014Y-86063062D01*
X93875565Y-86207728D01*
X93929710Y-86344482D01*
X94009386Y-86468115D01*
X94100000Y-86561948D01*
X94100000Y-87739866D01*
X94022687Y-87815577D01*
X93974952Y-87885291D01*
X93934021Y-87823684D01*
X93830381Y-87719319D01*
X93708444Y-87637071D01*
X93572854Y-87580075D01*
X93428776Y-87550499D01*
X93281697Y-87549473D01*
X93137219Y-87577033D01*
X93000847Y-87632131D01*
X92877773Y-87712668D01*
X92796416Y-87792340D01*
X92784021Y-87773684D01*
X92680381Y-87669319D01*
X92558444Y-87587071D01*
X92422854Y-87530075D01*
X92278776Y-87500499D01*
X92131697Y-87499473D01*
X91987219Y-87527033D01*
X91850847Y-87582131D01*
X91727773Y-87662668D01*
X91622687Y-87765577D01*
X91539590Y-87886936D01*
X91481648Y-88022125D01*
X91451068Y-88165994D01*
X91449014Y-88313062D01*
X84764866Y-88313062D01*
X86513989Y-86228539D01*
X89445719Y-83871368D01*
X92779458Y-82128531D01*
X96388225Y-81066413D01*
X100134564Y-80725470D01*
X103875777Y-81118687D01*
G36*
X93894012Y-94101119D02*
X93996437Y-94203544D01*
X93999990Y-94206462D01*
X93999990Y-94866417D01*
X94004495Y-94912361D01*
X94008522Y-94958393D01*
X94009255Y-94960918D01*
X94009512Y-94963534D01*
X94022859Y-95007740D01*
X94035747Y-95052101D01*
X94036957Y-95054436D01*
X94037717Y-95056952D01*
X94059384Y-95097702D01*
X94080654Y-95138737D01*
X94082296Y-95140793D01*
X94083529Y-95143113D01*
X94112718Y-95178902D01*
X94141535Y-95214999D01*
X94145142Y-95218657D01*
X94145205Y-95218734D01*
X94145276Y-95218793D01*
X94146437Y-95219970D01*
X96830019Y-97903553D01*
X96865711Y-97932871D01*
X96901089Y-97962557D01*
X96903393Y-97963823D01*
X96905424Y-97965492D01*
X96946115Y-97987310D01*
X96986602Y-98009568D01*
X96989109Y-98010363D01*
X96991425Y-98011605D01*
X97035588Y-98025107D01*
X97079617Y-98039074D01*
X97082228Y-98039367D01*
X97084744Y-98040136D01*
X97130676Y-98044801D01*
X97176592Y-98049951D01*
X97181741Y-98049987D01*
X97181828Y-98049996D01*
X97181909Y-98049988D01*
X97183573Y-98050000D01*
X97788002Y-98050000D01*
X97833946Y-98045495D01*
X97879978Y-98041468D01*
X97882503Y-98040735D01*
X97885119Y-98040478D01*
X97929325Y-98027131D01*
X97973686Y-98014243D01*
X97976021Y-98013033D01*
X97978537Y-98012273D01*
X98019287Y-97990606D01*
X98060322Y-97969336D01*
X98062378Y-97967694D01*
X98064698Y-97966461D01*
X98100487Y-97937272D01*
X98136584Y-97908455D01*
X98140242Y-97904848D01*
X98140319Y-97904785D01*
X98140378Y-97904714D01*
X98141555Y-97903553D01*
X98903553Y-97141555D01*
X98932832Y-97105910D01*
X98962557Y-97070486D01*
X98963825Y-97068179D01*
X98965492Y-97066150D01*
X98987299Y-97025481D01*
X99009568Y-96984973D01*
X99010363Y-96982466D01*
X99011605Y-96980150D01*
X99025107Y-96935987D01*
X99039074Y-96891958D01*
X99039367Y-96889347D01*
X99040136Y-96886831D01*
X99044806Y-96840855D01*
X99049951Y-96794983D01*
X99049987Y-96789845D01*
X99049997Y-96789747D01*
X99049988Y-96789656D01*
X99050000Y-96788002D01*
X99050000Y-96607106D01*
X99707106Y-95950000D01*
X100542894Y-95950000D01*
X101000000Y-96407107D01*
X101000000Y-97698123D01*
X100977773Y-97712668D01*
X100872687Y-97815577D01*
X100789590Y-97936936D01*
X100731648Y-98072125D01*
X100701068Y-98215994D01*
X100699014Y-98363062D01*
X100725565Y-98507728D01*
X100779710Y-98644482D01*
X100859386Y-98768115D01*
X100961558Y-98873917D01*
X101082335Y-98957859D01*
X101217116Y-99016744D01*
X101360767Y-99048328D01*
X101507818Y-99051408D01*
X101652666Y-99025867D01*
X101789794Y-98972679D01*
X101913980Y-98893868D01*
X102020493Y-98792437D01*
X102105277Y-98672249D01*
X102165100Y-98537882D01*
X102197686Y-98394455D01*
X102199703Y-98250000D01*
X103950000Y-98250000D01*
X103950000Y-102900000D01*
X101150000Y-102900000D01*
X101150000Y-102494974D01*
X101145495Y-102449022D01*
X101142847Y-102418764D01*
X101170493Y-102392437D01*
X101255277Y-102272249D01*
X101315100Y-102137882D01*
X101347686Y-101994455D01*
X101350032Y-101826459D01*
X101321464Y-101682177D01*
X101265415Y-101546193D01*
X101184021Y-101423684D01*
X101080381Y-101319319D01*
X100958444Y-101237071D01*
X100822854Y-101180075D01*
X100678776Y-101150499D01*
X100531697Y-101149473D01*
X100486784Y-101158040D01*
X100465415Y-101106195D01*
X100384021Y-100983686D01*
X100280381Y-100879321D01*
X100158444Y-100797073D01*
X100022854Y-100740077D01*
X99878776Y-100710501D01*
X99731697Y-100709475D01*
X99587219Y-100737035D01*
X99450847Y-100792133D01*
X99327773Y-100872670D01*
X99222687Y-100975579D01*
X99139590Y-101096938D01*
X99081648Y-101232127D01*
X99052959Y-101367097D01*
X99008444Y-101337071D01*
X98872854Y-101280075D01*
X98728776Y-101250499D01*
X98581697Y-101249473D01*
X98437219Y-101277033D01*
X98303403Y-101331098D01*
X98303403Y-101103703D01*
X98607793Y-100799313D01*
X98707818Y-100801408D01*
X98852666Y-100775867D01*
X98989794Y-100722679D01*
X99113980Y-100643868D01*
X99220493Y-100542437D01*
X99305277Y-100422249D01*
X99365100Y-100287882D01*
X99397686Y-100144455D01*
X99400032Y-99976459D01*
X99371464Y-99832177D01*
X99315415Y-99696193D01*
X99234021Y-99573684D01*
X99130381Y-99469319D01*
X99008444Y-99387071D01*
X98872854Y-99330075D01*
X98728776Y-99300499D01*
X98581697Y-99299473D01*
X98437219Y-99327033D01*
X98300847Y-99382131D01*
X98177773Y-99462668D01*
X98072687Y-99565577D01*
X97989590Y-99686936D01*
X97931648Y-99822125D01*
X97901068Y-99965994D01*
X97899286Y-100093608D01*
X97449850Y-100543044D01*
X97420571Y-100578689D01*
X97390846Y-100614113D01*
X97389578Y-100616420D01*
X97387911Y-100618449D01*
X97366104Y-100659118D01*
X97343835Y-100699626D01*
X97343040Y-100702133D01*
X97341798Y-100704449D01*
X97328296Y-100748612D01*
X97314329Y-100792641D01*
X97314036Y-100795252D01*
X97313267Y-100797768D01*
X97308597Y-100843744D01*
X97303452Y-100889616D01*
X97303416Y-100894754D01*
X97303406Y-100894852D01*
X97303415Y-100894943D01*
X97303403Y-100896597D01*
X97303403Y-102115405D01*
X97307908Y-102161349D01*
X97311935Y-102207381D01*
X97312668Y-102209906D01*
X97312925Y-102212522D01*
X97326272Y-102256728D01*
X97339160Y-102301089D01*
X97340370Y-102303424D01*
X97341130Y-102305940D01*
X97362797Y-102346690D01*
X97384067Y-102387725D01*
X97385709Y-102389781D01*
X97386942Y-102392101D01*
X97416131Y-102427890D01*
X97444948Y-102463987D01*
X97448555Y-102467645D01*
X97448618Y-102467722D01*
X97448689Y-102467781D01*
X97449850Y-102468958D01*
X98050000Y-103069109D01*
X98050000Y-104639866D01*
X97972687Y-104715577D01*
X97889590Y-104836936D01*
X97831648Y-104972125D01*
X97801068Y-105115994D01*
X97799014Y-105263062D01*
X97825565Y-105407728D01*
X97879710Y-105544482D01*
X97959386Y-105668115D01*
X97990177Y-105700000D01*
X95179855Y-105700000D01*
X90749695Y-102795784D01*
X90744559Y-101886637D01*
X91651472Y-102793551D01*
X91687142Y-102822851D01*
X91722542Y-102852555D01*
X91724849Y-102853823D01*
X91726878Y-102855490D01*
X91767547Y-102877297D01*
X91808055Y-102899566D01*
X91810562Y-102900361D01*
X91812878Y-102901603D01*
X91857041Y-102915105D01*
X91901070Y-102929072D01*
X91903681Y-102929365D01*
X91906197Y-102930134D01*
X91933311Y-102932888D01*
X92011558Y-103013915D01*
X92132335Y-103097857D01*
X92267116Y-103156742D01*
X92410767Y-103188326D01*
X92557818Y-103191406D01*
X92702666Y-103165865D01*
X92839794Y-103112677D01*
X92963980Y-103033866D01*
X93070493Y-102932435D01*
X93155277Y-102812247D01*
X93215100Y-102677880D01*
X93247686Y-102534453D01*
X93250032Y-102366457D01*
X93221464Y-102222175D01*
X93165415Y-102086191D01*
X93084021Y-101963682D01*
X92980381Y-101859317D01*
X92876196Y-101789043D01*
X92897686Y-101694455D01*
X92900032Y-101526459D01*
X92871464Y-101382177D01*
X92815415Y-101246193D01*
X92734021Y-101123684D01*
X92630381Y-101019319D01*
X92508444Y-100937071D01*
X92372854Y-100880075D01*
X92228776Y-100850499D01*
X92106754Y-100849648D01*
X91650000Y-100392894D01*
X91650000Y-97135386D01*
X91682335Y-97157859D01*
X91817116Y-97216744D01*
X91960767Y-97248328D01*
X92107818Y-97251408D01*
X92252666Y-97225867D01*
X92389794Y-97172679D01*
X92513980Y-97093868D01*
X92620493Y-96992437D01*
X92705277Y-96872249D01*
X92765100Y-96737882D01*
X92797686Y-96594455D01*
X92800032Y-96426459D01*
X92771464Y-96282177D01*
X92715415Y-96146193D01*
X92634021Y-96023684D01*
X92550000Y-95939075D01*
X92550000Y-94100000D01*
X93840590Y-94100000D01*
X93894012Y-94101119D01*
X93894012Y-94101119D01*
G37*
X93894012Y-94101119D02*
X93996437Y-94203544D01*
X93999990Y-94206462D01*
X93999990Y-94866417D01*
X94004495Y-94912361D01*
X94008522Y-94958393D01*
X94009255Y-94960918D01*
X94009512Y-94963534D01*
X94022859Y-95007740D01*
X94035747Y-95052101D01*
X94036957Y-95054436D01*
X94037717Y-95056952D01*
X94059384Y-95097702D01*
X94080654Y-95138737D01*
X94082296Y-95140793D01*
X94083529Y-95143113D01*
X94112718Y-95178902D01*
X94141535Y-95214999D01*
X94145142Y-95218657D01*
X94145205Y-95218734D01*
X94145276Y-95218793D01*
X94146437Y-95219970D01*
X96830019Y-97903553D01*
X96865711Y-97932871D01*
X96901089Y-97962557D01*
X96903393Y-97963823D01*
X96905424Y-97965492D01*
X96946115Y-97987310D01*
X96986602Y-98009568D01*
X96989109Y-98010363D01*
X96991425Y-98011605D01*
X97035588Y-98025107D01*
X97079617Y-98039074D01*
X97082228Y-98039367D01*
X97084744Y-98040136D01*
X97130676Y-98044801D01*
X97176592Y-98049951D01*
X97181741Y-98049987D01*
X97181828Y-98049996D01*
X97181909Y-98049988D01*
X97183573Y-98050000D01*
X97788002Y-98050000D01*
X97833946Y-98045495D01*
X97879978Y-98041468D01*
X97882503Y-98040735D01*
X97885119Y-98040478D01*
X97929325Y-98027131D01*
X97973686Y-98014243D01*
X97976021Y-98013033D01*
X97978537Y-98012273D01*
X98019287Y-97990606D01*
X98060322Y-97969336D01*
X98062378Y-97967694D01*
X98064698Y-97966461D01*
X98100487Y-97937272D01*
X98136584Y-97908455D01*
X98140242Y-97904848D01*
X98140319Y-97904785D01*
X98140378Y-97904714D01*
X98141555Y-97903553D01*
X98903553Y-97141555D01*
X98932832Y-97105910D01*
X98962557Y-97070486D01*
X98963825Y-97068179D01*
X98965492Y-97066150D01*
X98987299Y-97025481D01*
X99009568Y-96984973D01*
X99010363Y-96982466D01*
X99011605Y-96980150D01*
X99025107Y-96935987D01*
X99039074Y-96891958D01*
X99039367Y-96889347D01*
X99040136Y-96886831D01*
X99044806Y-96840855D01*
X99049951Y-96794983D01*
X99049987Y-96789845D01*
X99049997Y-96789747D01*
X99049988Y-96789656D01*
X99050000Y-96788002D01*
X99050000Y-96607106D01*
X99707106Y-95950000D01*
X100542894Y-95950000D01*
X101000000Y-96407107D01*
X101000000Y-97698123D01*
X100977773Y-97712668D01*
X100872687Y-97815577D01*
X100789590Y-97936936D01*
X100731648Y-98072125D01*
X100701068Y-98215994D01*
X100699014Y-98363062D01*
X100725565Y-98507728D01*
X100779710Y-98644482D01*
X100859386Y-98768115D01*
X100961558Y-98873917D01*
X101082335Y-98957859D01*
X101217116Y-99016744D01*
X101360767Y-99048328D01*
X101507818Y-99051408D01*
X101652666Y-99025867D01*
X101789794Y-98972679D01*
X101913980Y-98893868D01*
X102020493Y-98792437D01*
X102105277Y-98672249D01*
X102165100Y-98537882D01*
X102197686Y-98394455D01*
X102199703Y-98250000D01*
X103950000Y-98250000D01*
X103950000Y-102900000D01*
X101150000Y-102900000D01*
X101150000Y-102494974D01*
X101145495Y-102449022D01*
X101142847Y-102418764D01*
X101170493Y-102392437D01*
X101255277Y-102272249D01*
X101315100Y-102137882D01*
X101347686Y-101994455D01*
X101350032Y-101826459D01*
X101321464Y-101682177D01*
X101265415Y-101546193D01*
X101184021Y-101423684D01*
X101080381Y-101319319D01*
X100958444Y-101237071D01*
X100822854Y-101180075D01*
X100678776Y-101150499D01*
X100531697Y-101149473D01*
X100486784Y-101158040D01*
X100465415Y-101106195D01*
X100384021Y-100983686D01*
X100280381Y-100879321D01*
X100158444Y-100797073D01*
X100022854Y-100740077D01*
X99878776Y-100710501D01*
X99731697Y-100709475D01*
X99587219Y-100737035D01*
X99450847Y-100792133D01*
X99327773Y-100872670D01*
X99222687Y-100975579D01*
X99139590Y-101096938D01*
X99081648Y-101232127D01*
X99052959Y-101367097D01*
X99008444Y-101337071D01*
X98872854Y-101280075D01*
X98728776Y-101250499D01*
X98581697Y-101249473D01*
X98437219Y-101277033D01*
X98303403Y-101331098D01*
X98303403Y-101103703D01*
X98607793Y-100799313D01*
X98707818Y-100801408D01*
X98852666Y-100775867D01*
X98989794Y-100722679D01*
X99113980Y-100643868D01*
X99220493Y-100542437D01*
X99305277Y-100422249D01*
X99365100Y-100287882D01*
X99397686Y-100144455D01*
X99400032Y-99976459D01*
X99371464Y-99832177D01*
X99315415Y-99696193D01*
X99234021Y-99573684D01*
X99130381Y-99469319D01*
X99008444Y-99387071D01*
X98872854Y-99330075D01*
X98728776Y-99300499D01*
X98581697Y-99299473D01*
X98437219Y-99327033D01*
X98300847Y-99382131D01*
X98177773Y-99462668D01*
X98072687Y-99565577D01*
X97989590Y-99686936D01*
X97931648Y-99822125D01*
X97901068Y-99965994D01*
X97899286Y-100093608D01*
X97449850Y-100543044D01*
X97420571Y-100578689D01*
X97390846Y-100614113D01*
X97389578Y-100616420D01*
X97387911Y-100618449D01*
X97366104Y-100659118D01*
X97343835Y-100699626D01*
X97343040Y-100702133D01*
X97341798Y-100704449D01*
X97328296Y-100748612D01*
X97314329Y-100792641D01*
X97314036Y-100795252D01*
X97313267Y-100797768D01*
X97308597Y-100843744D01*
X97303452Y-100889616D01*
X97303416Y-100894754D01*
X97303406Y-100894852D01*
X97303415Y-100894943D01*
X97303403Y-100896597D01*
X97303403Y-102115405D01*
X97307908Y-102161349D01*
X97311935Y-102207381D01*
X97312668Y-102209906D01*
X97312925Y-102212522D01*
X97326272Y-102256728D01*
X97339160Y-102301089D01*
X97340370Y-102303424D01*
X97341130Y-102305940D01*
X97362797Y-102346690D01*
X97384067Y-102387725D01*
X97385709Y-102389781D01*
X97386942Y-102392101D01*
X97416131Y-102427890D01*
X97444948Y-102463987D01*
X97448555Y-102467645D01*
X97448618Y-102467722D01*
X97448689Y-102467781D01*
X97449850Y-102468958D01*
X98050000Y-103069109D01*
X98050000Y-104639866D01*
X97972687Y-104715577D01*
X97889590Y-104836936D01*
X97831648Y-104972125D01*
X97801068Y-105115994D01*
X97799014Y-105263062D01*
X97825565Y-105407728D01*
X97879710Y-105544482D01*
X97959386Y-105668115D01*
X97990177Y-105700000D01*
X95179855Y-105700000D01*
X90749695Y-102795784D01*
X90744559Y-101886637D01*
X91651472Y-102793551D01*
X91687142Y-102822851D01*
X91722542Y-102852555D01*
X91724849Y-102853823D01*
X91726878Y-102855490D01*
X91767547Y-102877297D01*
X91808055Y-102899566D01*
X91810562Y-102900361D01*
X91812878Y-102901603D01*
X91857041Y-102915105D01*
X91901070Y-102929072D01*
X91903681Y-102929365D01*
X91906197Y-102930134D01*
X91933311Y-102932888D01*
X92011558Y-103013915D01*
X92132335Y-103097857D01*
X92267116Y-103156742D01*
X92410767Y-103188326D01*
X92557818Y-103191406D01*
X92702666Y-103165865D01*
X92839794Y-103112677D01*
X92963980Y-103033866D01*
X93070493Y-102932435D01*
X93155277Y-102812247D01*
X93215100Y-102677880D01*
X93247686Y-102534453D01*
X93250032Y-102366457D01*
X93221464Y-102222175D01*
X93165415Y-102086191D01*
X93084021Y-101963682D01*
X92980381Y-101859317D01*
X92876196Y-101789043D01*
X92897686Y-101694455D01*
X92900032Y-101526459D01*
X92871464Y-101382177D01*
X92815415Y-101246193D01*
X92734021Y-101123684D01*
X92630381Y-101019319D01*
X92508444Y-100937071D01*
X92372854Y-100880075D01*
X92228776Y-100850499D01*
X92106754Y-100849648D01*
X91650000Y-100392894D01*
X91650000Y-97135386D01*
X91682335Y-97157859D01*
X91817116Y-97216744D01*
X91960767Y-97248328D01*
X92107818Y-97251408D01*
X92252666Y-97225867D01*
X92389794Y-97172679D01*
X92513980Y-97093868D01*
X92620493Y-96992437D01*
X92705277Y-96872249D01*
X92765100Y-96737882D01*
X92797686Y-96594455D01*
X92800032Y-96426459D01*
X92771464Y-96282177D01*
X92715415Y-96146193D01*
X92634021Y-96023684D01*
X92550000Y-95939075D01*
X92550000Y-94100000D01*
X93840590Y-94100000D01*
X93894012Y-94101119D01*
M02*
