G04 #@! TF.FileFunction,Soldermask,Bot*
%FSLAX46Y46*%
G04 Gerber Fmt 4.6, Leading zero omitted, Abs format (unit mm)*
G04 Created by KiCad (PCBNEW 4.1.0-alpha+201605071002+6776~44~ubuntu14.04.1-product) date Wed 29 Jun 2016 02:15:50 BST*
%MOMM*%
%LPD*%
G01*
G04 APERTURE LIST*
%ADD10C,0.100000*%
%ADD11R,2.220000X0.740000*%
%ADD12C,1.200000*%
%ADD13R,0.740000X2.220000*%
G04 APERTURE END LIST*
D10*
G36*
X89549009Y-106552408D02*
X89597545Y-106559607D01*
X89645142Y-106571530D01*
X89691342Y-106588060D01*
X89735698Y-106609039D01*
X89777785Y-106634265D01*
X89817197Y-106663495D01*
X89853553Y-106696447D01*
X89886505Y-106732803D01*
X89915735Y-106772215D01*
X89940961Y-106814302D01*
X89961940Y-106858658D01*
X89978470Y-106904858D01*
X89990393Y-106952455D01*
X89997592Y-107000991D01*
X90000000Y-107050000D01*
X90000000Y-112550000D01*
X89997592Y-112599009D01*
X89990393Y-112647545D01*
X89978470Y-112695142D01*
X89961940Y-112741342D01*
X89940961Y-112785698D01*
X89915735Y-112827785D01*
X89886505Y-112867197D01*
X89853553Y-112903553D01*
X89817197Y-112936505D01*
X89777785Y-112965735D01*
X89735698Y-112990961D01*
X89691342Y-113011940D01*
X89645142Y-113028470D01*
X89597545Y-113040393D01*
X89549009Y-113047592D01*
X89500000Y-113050000D01*
X88500000Y-113050000D01*
X88450991Y-113047592D01*
X88402455Y-113040393D01*
X88354858Y-113028470D01*
X88308658Y-113011940D01*
X88264302Y-112990961D01*
X88222215Y-112965735D01*
X88182803Y-112936505D01*
X88146447Y-112903553D01*
X88113495Y-112867197D01*
X88084265Y-112827785D01*
X88059039Y-112785698D01*
X88038060Y-112741342D01*
X88021530Y-112695142D01*
X88009607Y-112647545D01*
X88002408Y-112599009D01*
X88000000Y-112550000D01*
X88000000Y-107050000D01*
X88002408Y-107000991D01*
X88009607Y-106952455D01*
X88021530Y-106904858D01*
X88038060Y-106858658D01*
X88059039Y-106814302D01*
X88084265Y-106772215D01*
X88113495Y-106732803D01*
X88146447Y-106696447D01*
X88182803Y-106663495D01*
X88222215Y-106634265D01*
X88264302Y-106609039D01*
X88308658Y-106588060D01*
X88354858Y-106571530D01*
X88402455Y-106559607D01*
X88450991Y-106552408D01*
X88500000Y-106550000D01*
X89500000Y-106550000D01*
X89549009Y-106552408D01*
X89549009Y-106552408D01*
G37*
G36*
X111549009Y-86952408D02*
X111597545Y-86959607D01*
X111645142Y-86971530D01*
X111691342Y-86988060D01*
X111735698Y-87009039D01*
X111777785Y-87034265D01*
X111817197Y-87063495D01*
X111853553Y-87096447D01*
X111886505Y-87132803D01*
X111915735Y-87172215D01*
X111940961Y-87214302D01*
X111961940Y-87258658D01*
X111978470Y-87304858D01*
X111990393Y-87352455D01*
X111997592Y-87400991D01*
X112000000Y-87450000D01*
X112000000Y-92950000D01*
X111997592Y-92999009D01*
X111990393Y-93047545D01*
X111978470Y-93095142D01*
X111961940Y-93141342D01*
X111940961Y-93185698D01*
X111915735Y-93227785D01*
X111886505Y-93267197D01*
X111853553Y-93303553D01*
X111817197Y-93336505D01*
X111777785Y-93365735D01*
X111735698Y-93390961D01*
X111691342Y-93411940D01*
X111645142Y-93428470D01*
X111597545Y-93440393D01*
X111549009Y-93447592D01*
X111500000Y-93450000D01*
X110500000Y-93450000D01*
X110450991Y-93447592D01*
X110402455Y-93440393D01*
X110354858Y-93428470D01*
X110308658Y-93411940D01*
X110264302Y-93390961D01*
X110222215Y-93365735D01*
X110182803Y-93336505D01*
X110146447Y-93303553D01*
X110113495Y-93267197D01*
X110084265Y-93227785D01*
X110059039Y-93185698D01*
X110038060Y-93141342D01*
X110021530Y-93095142D01*
X110009607Y-93047545D01*
X110002408Y-92999009D01*
X110000000Y-92950000D01*
X110000000Y-87450000D01*
X110002408Y-87400991D01*
X110009607Y-87352455D01*
X110021530Y-87304858D01*
X110038060Y-87258658D01*
X110059039Y-87214302D01*
X110084265Y-87172215D01*
X110113495Y-87132803D01*
X110146447Y-87096447D01*
X110182803Y-87063495D01*
X110222215Y-87034265D01*
X110264302Y-87009039D01*
X110308658Y-86988060D01*
X110354858Y-86971530D01*
X110402455Y-86959607D01*
X110450991Y-86952408D01*
X110500000Y-86950000D01*
X111500000Y-86950000D01*
X111549009Y-86952408D01*
X111549009Y-86952408D01*
G37*
D11*
X83635000Y-94285000D03*
X86365000Y-94285000D03*
X83635000Y-95555000D03*
X86365000Y-95555000D03*
X83635000Y-96825000D03*
X86365000Y-96825000D03*
X83635000Y-98095000D03*
X86365000Y-98095000D03*
X83635000Y-99365000D03*
X86365000Y-99365000D03*
X83635000Y-100635000D03*
X86365000Y-100635000D03*
X83635000Y-101905000D03*
X86365000Y-101905000D03*
X83635000Y-103175000D03*
X86365000Y-103175000D03*
X83635000Y-104445000D03*
X86365000Y-104445000D03*
X83635000Y-105715000D03*
X86365000Y-105715000D03*
D12*
X85000000Y-107305000D03*
X85000000Y-92695000D03*
D11*
X113635000Y-94285000D03*
X116365000Y-94285000D03*
X113635000Y-95555000D03*
X116365000Y-95555000D03*
X113635000Y-96825000D03*
X116365000Y-96825000D03*
X113635000Y-98095000D03*
X116365000Y-98095000D03*
X113635000Y-99365000D03*
X116365000Y-99365000D03*
X113635000Y-100635000D03*
X116365000Y-100635000D03*
X113635000Y-101905000D03*
X116365000Y-101905000D03*
X113635000Y-103175000D03*
X116365000Y-103175000D03*
X113635000Y-104445000D03*
X116365000Y-104445000D03*
X113635000Y-105715000D03*
X116365000Y-105715000D03*
D12*
X115000000Y-107305000D03*
X115000000Y-92695000D03*
D13*
X97460000Y-85865000D03*
X97460000Y-83135000D03*
X98730000Y-85865000D03*
X98730000Y-83135000D03*
X100000000Y-85865000D03*
X100000000Y-83135000D03*
X101270000Y-85865000D03*
X101270000Y-83135000D03*
X102540000Y-85865000D03*
X102540000Y-83135000D03*
D12*
X104130000Y-84500000D03*
X95870000Y-84500000D03*
D10*
G36*
X114521558Y-88552287D02*
X114567668Y-88559127D01*
X114612885Y-88570453D01*
X114656775Y-88586157D01*
X114698913Y-88606087D01*
X114738896Y-88630052D01*
X114776337Y-88657820D01*
X114810876Y-88689124D01*
X114842180Y-88723663D01*
X114869948Y-88761104D01*
X114893913Y-88801087D01*
X114913843Y-88843225D01*
X114929547Y-88887115D01*
X114940873Y-88932332D01*
X114947713Y-88978442D01*
X114950000Y-89025000D01*
X114950000Y-89975000D01*
X114947713Y-90021558D01*
X114940873Y-90067668D01*
X114929547Y-90112885D01*
X114913843Y-90156775D01*
X114893913Y-90198913D01*
X114869948Y-90238896D01*
X114842180Y-90276337D01*
X114810876Y-90310876D01*
X114776337Y-90342180D01*
X114738896Y-90369948D01*
X114698913Y-90393913D01*
X114656775Y-90413843D01*
X114612885Y-90429547D01*
X114567668Y-90440873D01*
X114521558Y-90447713D01*
X114475000Y-90450000D01*
X113525000Y-90450000D01*
X113478442Y-90447713D01*
X113432332Y-90440873D01*
X113387115Y-90429547D01*
X113343225Y-90413843D01*
X113301087Y-90393913D01*
X113261104Y-90369948D01*
X113223663Y-90342180D01*
X113189124Y-90310876D01*
X113157820Y-90276337D01*
X113130052Y-90238896D01*
X113106087Y-90198913D01*
X113086157Y-90156775D01*
X113070453Y-90112885D01*
X113059127Y-90067668D01*
X113052287Y-90021558D01*
X113050000Y-89975000D01*
X113050000Y-89025000D01*
X113052287Y-88978442D01*
X113059127Y-88932332D01*
X113070453Y-88887115D01*
X113086157Y-88843225D01*
X113106087Y-88801087D01*
X113130052Y-88761104D01*
X113157820Y-88723663D01*
X113189124Y-88689124D01*
X113223663Y-88657820D01*
X113261104Y-88630052D01*
X113301087Y-88606087D01*
X113343225Y-88586157D01*
X113387115Y-88570453D01*
X113432332Y-88559127D01*
X113478442Y-88552287D01*
X113525000Y-88550000D01*
X114475000Y-88550000D01*
X114521558Y-88552287D01*
X114521558Y-88552287D01*
G37*
M02*
