  0
SECTION
  2
HEADER
  9
$ANGBASE
  50
0.0
  9
$ANGDIR
  70
  1
  9
$MEASUREMENT
  70
0
  0
ENDSEC
  0
SECTION
  2
TABLES
  0
TABLE
  2
LTYPE
  70
1
  0
LTYPE
  2
CONTINUOUS
  70
0
  3
Solid line
  72
65
  73
0
  40
0.0
  0
ENDTAB
  0
TABLE
  2
STYLE
  70
4
  0
STYLE
  2
KICAD
  70
0
  40
0
  41
1
  42
1
  50
0
  71
0
  3
isocp.shx
  0
STYLE
  2
KICADB
  70
0
  40
0
  41
1
  42
1
  50
0
  71
0
  3
isocp.shx
  0
STYLE
  2
KICADI
  70
0
  40
0
  41
1
  42
1
  50
15
  71
0
  3
isocp.shx
  0
STYLE
  2
KICADBI
  70
0
  40
0
  41
1
  42
1
  50
15
  71
0
  3
isocp.shx
  0
ENDTAB
  0
TABLE
  2
LAYER
  70
30
  0
LAYER
  2
BLACK
  70
0
  62
7
  6
CONTINUOUS
  0
LAYER
  2
GRAY1
  70
0
  62
251
  6
CONTINUOUS
  0
LAYER
  2
GRAY2
  70
0
  62
8
  6
CONTINUOUS
  0
LAYER
  2
GRAY3
  70
0
  62
9
  6
CONTINUOUS
  0
LAYER
  2
WHITE
  70
0
  62
7
  6
CONTINUOUS
  0
LAYER
  2
LYELLOW
  70
0
  62
51
  6
CONTINUOUS
  0
LAYER
  2
BLUE1
  70
0
  62
178
  6
CONTINUOUS
  0
LAYER
  2
GREEN1
  70
0
  62
98
  6
CONTINUOUS
  0
LAYER
  2
CYAN1
  70
0
  62
138
  6
CONTINUOUS
  0
LAYER
  2
RED1
  70
0
  62
18
  6
CONTINUOUS
  0
LAYER
  2
MAGENTA1
  70
0
  62
228
  6
CONTINUOUS
  0
LAYER
  2
BROWN1
  70
0
  62
58
  6
CONTINUOUS
  0
LAYER
  2
BLUE2
  70
0
  62
5
  6
CONTINUOUS
  0
LAYER
  2
GREEN2
  70
0
  62
3
  6
CONTINUOUS
  0
LAYER
  2
CYAN2
  70
0
  62
4
  6
CONTINUOUS
  0
LAYER
  2
RED2
  70
0
  62
1
  6
CONTINUOUS
  0
LAYER
  2
MAGENTA2
  70
0
  62
6
  6
CONTINUOUS
  0
LAYER
  2
BROWN2
  70
0
  62
54
  6
CONTINUOUS
  0
LAYER
  2
BLUE3
  70
0
  62
171
  6
CONTINUOUS
  0
LAYER
  2
GREEN3
  70
0
  62
91
  6
CONTINUOUS
  0
LAYER
  2
CYAN3
  70
0
  62
131
  6
CONTINUOUS
  0
LAYER
  2
RED3
  70
0
  62
11
  6
CONTINUOUS
  0
LAYER
  2
MAGENTA3
  70
0
  62
221
  6
CONTINUOUS
  0
LAYER
  2
YELLOW3
  70
0
  62
2
  6
CONTINUOUS
  0
LAYER
  2
BLUE4
  70
0
  62
5
  6
CONTINUOUS
  0
LAYER
  2
GREEN4
  70
0
  62
3
  6
CONTINUOUS
  0
LAYER
  2
CYAN4
  70
0
  62
4
  6
CONTINUOUS
  0
LAYER
  2
RED4
  70
0
  62
1
  6
CONTINUOUS
  0
LAYER
  2
MAGENTA4
  70
0
  62
6
  6
CONTINUOUS
  0
LAYER
  2
YELLOW4
  70
0
  62
2
  6
CONTINUOUS
  0
ENDTAB
  0
ENDSEC
  0
SECTION
  2
ENTITIES
0
LINE
8
Black
10
117.388
20
-108.5
11
117.5
21
-108.5
0
LINE
8
Black
10
117.5
20
-108.5
11
117.534
21
-108.506
0
LINE
8
Black
10
117.534
20
-108.506
11
117.564
21
-108.523
0
LINE
8
Black
10
117.564
20
-108.523
11
117.587
21
-108.55
0
LINE
8
Black
10
117.587
20
-108.55
11
117.598
21
-108.583
0
LINE
8
Black
10
117.598
20
-108.583
11
117.598
21
-108.617
0
LINE
8
Black
10
117.598
20
-108.617
11
117.587
21
-108.65
0
LINE
8
Black
10
117.587
20
-108.65
11
117.564
21
-108.677
0
LINE
8
Black
10
117.564
20
-108.677
11
117.534
21
-108.694
0
LINE
8
Black
10
117.534
20
-108.694
11
117.5
21
-108.7
0
LINE
8
Black
10
117.5
20
-108.7
11
117.273
21
-108.7
0
LINE
8
Black
10
117.273
20
-108.7
11
115.019
21
-112.603
0
LINE
8
Black
10
115.019
20
-112.603
11
109.803
21
-116.98
0
LINE
8
Black
10
109.803
20
-116.98
11
108.7
21
-117.381
0
LINE
8
Black
10
108.7
20
-117.381
11
108.7
21
-117.5
0
LINE
8
Black
10
108.7
20
-117.5
11
108.694
21
-117.534
0
LINE
8
Black
10
108.694
20
-117.534
11
108.677
21
-117.564
0
LINE
8
Black
10
108.677
20
-117.564
11
108.65
21
-117.587
0
LINE
8
Black
10
108.65
20
-117.587
11
108.617
21
-117.598
0
LINE
8
Black
10
108.617
20
-117.598
11
108.583
21
-117.598
0
LINE
8
Black
10
108.583
20
-117.598
11
108.55
21
-117.587
0
LINE
8
Black
10
108.55
20
-117.587
11
108.523
21
-117.564
0
LINE
8
Black
10
108.523
20
-117.564
11
108.506
21
-117.534
0
LINE
8
Black
10
108.506
20
-117.534
11
108.5
21
-117.5
0
LINE
8
Black
10
108.5
20
-117.5
11
108.5
21
-117.454
0
LINE
8
Black
10
108.5
20
-117.454
11
103.405
21
-119.309
0
LINE
8
Black
10
103.405
20
-119.309
11
96.5954
21
-119.309
0
LINE
8
Black
10
96.5954
20
-119.309
11
91.3971
21
-117.417
0
LINE
8
Black
10
91.3971
20
-117.417
11
91.394
21
-117.434
0
LINE
8
Black
10
91.394
20
-117.434
11
91.3766
21
-117.464
0
LINE
8
Black
10
91.3766
20
-117.464
11
91.35
21
-117.487
0
LINE
8
Black
10
91.35
20
-117.487
11
91.3174
21
-117.498
0
LINE
8
Black
10
91.3174
20
-117.498
11
91.2826
21
-117.498
0
LINE
8
Black
10
91.2826
20
-117.498
11
91.25
21
-117.487
0
LINE
8
Black
10
91.25
20
-117.487
11
91.2234
21
-117.464
0
LINE
8
Black
10
91.2234
20
-117.464
11
91.206
21
-117.434
0
LINE
8
Black
10
91.206
20
-117.434
11
91.2
21
-117.4
0
LINE
8
Black
10
91.2
20
-117.4
11
91.2
21
-117.345
0
LINE
8
Black
10
91.2
20
-117.345
11
90.1968
21
-116.98
0
LINE
8
Black
10
90.1968
20
-116.98
11
84.9806
21
-112.603
0
LINE
8
Black
10
84.9806
20
-112.603
11
83.016
21
-109.2
0
LINE
8
Black
10
83.016
20
-109.2
11
82.8
21
-109.2
0
LINE
8
Black
10
82.8
20
-109.2
11
82.7658
21
-109.194
0
LINE
8
Black
10
82.7658
20
-109.194
11
82.7357
21
-109.177
0
LINE
8
Black
10
82.7357
20
-109.177
11
82.7134
21
-109.15
0
LINE
8
Black
10
82.7134
20
-109.15
11
82.7015
21
-109.117
0
LINE
8
Black
10
82.7015
20
-109.117
11
82.7015
21
-109.083
0
LINE
8
Black
10
82.7015
20
-109.083
11
82.7134
21
-109.05
0
LINE
8
Black
10
82.7134
20
-109.05
11
82.7357
21
-109.023
0
LINE
8
Black
10
82.7357
20
-109.023
11
82.7658
21
-109.006
0
LINE
8
Black
10
82.7658
20
-109.006
11
82.8
21
-109
0
LINE
8
Black
10
82.8
20
-109
11
82.9006
21
-109
0
LINE
8
Black
10
82.9006
20
-109
11
81.576
21
-106.706
0
LINE
8
Black
10
81.576
20
-106.706
11
80.3936
21
-100
0
LINE
8
Black
10
80.3936
20
-100
11
81.576
21
-93.2942
0
LINE
8
Black
10
81.576
20
-93.2942
11
82.6696
21
-91.4
0
LINE
8
Black
10
82.6696
20
-91.4
11
82.6
21
-91.4
0
LINE
8
Black
10
82.6
20
-91.4
11
82.5658
21
-91.394
0
LINE
8
Black
10
82.5658
20
-91.394
11
82.5357
21
-91.3766
0
LINE
8
Black
10
82.5357
20
-91.3766
11
82.5134
21
-91.35
0
LINE
8
Black
10
82.5134
20
-91.35
11
82.5015
21
-91.3174
0
LINE
8
Black
10
82.5015
20
-91.3174
11
82.5015
21
-91.2826
0
LINE
8
Black
10
82.5015
20
-91.2826
11
82.5134
21
-91.25
0
LINE
8
Black
10
82.5134
20
-91.25
11
82.5357
21
-91.2234
0
LINE
8
Black
10
82.5357
20
-91.2234
11
82.5658
21
-91.206
0
LINE
8
Black
10
82.5658
20
-91.206
11
82.6
21
-91.2
0
LINE
8
Black
10
82.6
20
-91.2
11
82.7851
21
-91.2
0
LINE
8
Black
10
82.7851
20
-91.2
11
84.9806
21
-87.3972
0
LINE
8
Black
10
84.9806
20
-87.3972
11
90.1968
21
-83.0204
0
LINE
8
Black
10
90.1968
20
-83.0204
11
96.5954
21
-80.6915
0
LINE
8
Black
10
96.5954
20
-80.6915
11
103.405
21
-80.6915
0
LINE
8
Black
10
103.405
20
-80.6915
11
109.803
21
-83.0204
0
LINE
8
Black
10
109.803
20
-83.0204
11
114.308
21
-86.8
0
LINE
8
Black
10
114.308
20
-86.8
11
114.4
21
-86.8
0
LINE
8
Black
10
114.4
20
-86.8
11
114.434
21
-86.806
0
LINE
8
Black
10
114.434
20
-86.806
11
114.464
21
-86.8234
0
LINE
8
Black
10
114.464
20
-86.8234
11
114.487
21
-86.85
0
LINE
8
Black
10
114.487
20
-86.85
11
114.498
21
-86.8826
0
LINE
8
Black
10
114.498
20
-86.8826
11
114.498
21
-86.9174
0
LINE
8
Black
10
114.498
20
-86.9174
11
114.487
21
-86.95
0
LINE
8
Black
10
114.487
20
-86.95
11
114.487
21
-86.9501
0
LINE
8
Black
10
114.487
20
-86.9501
11
115.019
21
-87.3972
0
LINE
8
Black
10
115.019
20
-87.3972
11
118.424
21
-93.2942
0
LINE
8
Black
10
118.424
20
-93.2942
11
119.606
21
-100
0
LINE
8
Black
10
119.606
20
-100
11
118.424
21
-106.706
0
LINE
8
Black
10
118.424
20
-106.706
11
117.388
21
-108.5
0
LINE
8
Black
10
112.441
20
-108.7
11
111.9
21
-109.241
0
LINE
8
Black
10
111.9
20
-109.241
11
111.9
21
-112.7
0
LINE
8
Black
10
111.9
20
-112.7
11
111.899
21
-112.704
0
LINE
8
Black
10
111.899
20
-112.704
11
111.9
21
-112.709
0
LINE
8
Black
10
111.9
20
-112.709
11
111.896
21
-112.721
0
LINE
8
Black
10
111.896
20
-112.721
11
111.894
21
-112.734
0
LINE
8
Black
10
111.894
20
-112.734
11
111.892
21
-112.738
0
LINE
8
Black
10
111.892
20
-112.738
11
111.891
21
-112.742
0
LINE
8
Black
10
111.891
20
-112.742
11
111.883
21
-112.753
0
LINE
8
Black
10
111.883
20
-112.753
11
111.877
21
-112.764
0
LINE
8
Black
10
111.877
20
-112.764
11
111.873
21
-112.767
0
LINE
8
Black
10
111.873
20
-112.767
11
111.871
21
-112.771
0
LINE
8
Black
10
111.871
20
-112.771
11
108.7
21
-115.941
0
LINE
8
Black
10
108.7
20
-115.941
11
108.7
21
-117.172
0
LINE
8
Black
10
108.7
20
-117.172
11
109.703
21
-116.806
0
LINE
8
Black
10
109.703
20
-116.806
11
114.866
21
-112.474
0
LINE
8
Black
10
114.866
20
-112.474
11
117.045
21
-108.7
0
LINE
8
Black
10
117.045
20
-108.7
11
112.441
21
-108.7
0
LINE
8
Black
10
83.2435
20
-109.2
11
85.1338
21
-112.474
0
LINE
8
Black
10
85.1338
20
-112.474
11
90.2968
21
-116.806
0
LINE
8
Black
10
90.2968
20
-116.806
11
91.2
21
-117.135
0
LINE
8
Black
10
91.2
20
-117.135
11
91.2
21
-115.241
0
LINE
8
Black
10
91.2
20
-115.241
11
89.1293
21
-113.171
0
LINE
8
Black
10
89.1293
20
-113.171
11
89.1268
21
-113.167
0
LINE
8
Black
10
89.1268
20
-113.167
11
89.1234
21
-113.164
0
LINE
8
Black
10
89.1234
20
-113.164
11
89.1169
21
-113.153
0
LINE
8
Black
10
89.1169
20
-113.153
11
89.1094
21
-113.142
0
LINE
8
Black
10
89.1094
20
-113.142
11
89.1082
21
-113.138
0
LINE
8
Black
10
89.1082
20
-113.138
11
89.106
21
-113.134
0
LINE
8
Black
10
89.106
20
-113.134
11
89.1038
21
-113.121
0
LINE
8
Black
10
89.1038
20
-113.121
11
89.1004
21
-113.109
0
LINE
8
Black
10
89.1004
20
-113.109
11
89.1008
21
-113.104
0
LINE
8
Black
10
89.1008
20
-113.104
11
89.1
21
-113.1
0
LINE
8
Black
10
89.1
20
-113.1
11
89.1
21
-110.241
0
LINE
8
Black
10
89.1
20
-110.241
11
88.0586
21
-109.2
0
LINE
8
Black
10
88.0586
20
-109.2
11
83.2435
21
-109.2
0
LINE
8
Black
10
90.1
20
-106.7
11
90.1
21
-112.9
0
LINE
8
Black
10
90.1
20
-112.9
11
90.9554
21
-112.9
0
LINE
8
Black
10
90.9554
20
-112.9
11
90.4
21
-109.75
0
LINE
8
Black
10
90.4
20
-109.75
11
90.9378
21
-106.7
0
LINE
8
Black
10
90.9378
20
-106.7
11
90.1
21
-106.7
0
LINE
8
Black
10
91.1378
20
-106.7
11
90.6
21
-109.75
0
LINE
8
Black
10
90.6
20
-109.75
11
91.1554
21
-112.9
0
LINE
8
Black
10
91.1554
20
-112.9
11
91.9
21
-112.9
0
LINE
8
Black
10
91.9
20
-112.9
11
91.9
21
-106.7
0
LINE
8
Black
10
91.9
20
-106.7
11
91.1378
21
-106.7
0
LINE
8
Black
10
108.178
20
-85.9
11
107.841
21
-85.9
0
LINE
8
Black
10
107.841
20
-85.9
11
106.871
21
-86.8707
0
LINE
8
Black
10
106.871
20
-86.8707
11
106.867
21
-86.8732
0
LINE
8
Black
10
106.867
20
-86.8732
11
106.864
21
-86.8766
0
LINE
8
Black
10
106.864
20
-86.8766
11
106.853
21
-86.8831
0
LINE
8
Black
10
106.853
20
-86.8831
11
106.842
21
-86.8906
0
LINE
8
Black
10
106.842
20
-86.8906
11
106.838
21
-86.8918
0
LINE
8
Black
10
106.838
20
-86.8918
11
106.834
21
-86.894
0
LINE
8
Black
10
106.834
20
-86.894
11
106.821
21
-86.8962
0
LINE
8
Black
10
106.821
20
-86.8962
11
106.809
21
-86.8996
0
LINE
8
Black
10
106.809
20
-86.8996
11
106.804
21
-86.8992
0
LINE
8
Black
10
106.804
20
-86.8992
11
106.8
21
-86.9
0
LINE
8
Black
10
106.8
20
-86.9
11
96.5414
21
-86.9
0
LINE
8
Black
10
96.5414
20
-86.9
11
94.8707
21
-88.5707
0
LINE
8
Black
10
94.8707
20
-88.5707
11
94.8671
21
-88.5732
0
LINE
8
Black
10
94.8671
20
-88.5732
11
94.8643
21
-88.5766
0
LINE
8
Black
10
94.8643
20
-88.5766
11
94.853
21
-88.5831
0
LINE
8
Black
10
94.853
20
-88.5831
11
94.8423
21
-88.5906
0
LINE
8
Black
10
94.8423
20
-88.5906
11
94.838
21
-88.5918
0
LINE
8
Black
10
94.838
20
-88.5918
11
94.8342
21
-88.594
0
LINE
8
Black
10
94.8342
20
-88.594
11
94.8213
21
-88.5962
0
LINE
8
Black
10
94.8213
20
-88.5962
11
94.8087
21
-88.5996
0
LINE
8
Black
10
94.8087
20
-88.5996
11
94.8043
21
-88.5992
0
LINE
8
Black
10
94.8043
20
-88.5992
11
94.8
21
-88.6
0
LINE
8
Black
10
94.8
20
-88.6
11
90.8909
21
-88.6
0
LINE
8
Black
10
90.8909
20
-88.6
11
90.6
21
-90.25
0
LINE
8
Black
10
90.6
20
-90.25
11
91.1669
21
-93.465
0
LINE
8
Black
10
91.1669
20
-93.465
11
92.7992
21
-96.2922
0
LINE
8
Black
10
92.7992
20
-96.2922
11
95.3
21
-98.3906
0
LINE
8
Black
10
95.3
20
-98.3906
11
98.3677
21
-99.5072
0
LINE
8
Black
10
98.3677
20
-99.5072
11
101.632
21
-99.5072
0
LINE
8
Black
10
101.632
20
-99.5072
11
104.7
21
-98.3906
0
LINE
8
Black
10
104.7
20
-98.3906
11
107.201
21
-96.2922
0
LINE
8
Black
10
107.201
20
-96.2922
11
108.813
21
-93.5
0
LINE
8
Black
10
108.813
20
-93.5
11
108
21
-93.5
0
LINE
8
Black
10
108
20
-93.5
11
107.991
21
-93.4985
0
LINE
8
Black
10
107.991
20
-93.4985
11
107.983
21
-93.4985
0
LINE
8
Black
10
107.983
20
-93.4985
11
107.974
21
-93.4955
0
LINE
8
Black
10
107.974
20
-93.4955
11
107.966
21
-93.494
0
LINE
8
Black
10
107.966
20
-93.494
11
107.958
21
-93.4896
0
LINE
8
Black
10
107.958
20
-93.4896
11
107.95
21
-93.4866
0
LINE
8
Black
10
107.95
20
-93.4866
11
107.943
21
-93.481
0
LINE
8
Black
10
107.943
20
-93.481
11
107.936
21
-93.4766
0
LINE
8
Black
10
107.936
20
-93.4766
11
107.93
21
-93.4699
0
LINE
8
Black
10
107.93
20
-93.4699
11
107.923
21
-93.4643
0
LINE
8
Black
10
107.923
20
-93.4643
11
107.919
21
-93.4567
0
LINE
8
Black
10
107.919
20
-93.4567
11
107.913
21
-93.45
0
LINE
8
Black
10
107.913
20
-93.45
11
107.91
21
-93.4418
0
LINE
8
Black
10
107.91
20
-93.4418
11
107.906
21
-93.4342
0
LINE
8
Black
10
107.906
20
-93.4342
11
107.905
21
-93.4256
0
LINE
8
Black
10
107.905
20
-93.4256
11
107.902
21
-93.4174
0
LINE
8
Black
10
107.902
20
-93.4174
11
107.902
21
-93.4086
0
LINE
8
Black
10
107.902
20
-93.4086
11
107.9
21
-93.4
0
LINE
8
Black
10
107.9
20
-93.4
11
107.9
21
-87
0
LINE
8
Black
10
107.9
20
-87
11
107.902
21
-86.9914
0
LINE
8
Black
10
107.902
20
-86.9914
11
107.902
21
-86.9826
0
LINE
8
Black
10
107.902
20
-86.9826
11
107.905
21
-86.9744
0
LINE
8
Black
10
107.905
20
-86.9744
11
107.906
21
-86.9658
0
LINE
8
Black
10
107.906
20
-86.9658
11
107.91
21
-86.9582
0
LINE
8
Black
10
107.91
20
-86.9582
11
107.913
21
-86.95
0
LINE
8
Black
10
107.913
20
-86.95
11
107.919
21
-86.9433
0
LINE
8
Black
10
107.919
20
-86.9433
11
107.923
21
-86.9357
0
LINE
8
Black
10
107.923
20
-86.9357
11
107.93
21
-86.9301
0
LINE
8
Black
10
107.93
20
-86.9301
11
107.936
21
-86.9234
0
LINE
8
Black
10
107.936
20
-86.9234
11
107.943
21
-86.919
0
LINE
8
Black
10
107.943
20
-86.919
11
107.95
21
-86.9134
0
LINE
8
Black
10
107.95
20
-86.9134
11
107.958
21
-86.9104
0
LINE
8
Black
10
107.958
20
-86.9104
11
107.966
21
-86.906
0
LINE
8
Black
10
107.966
20
-86.906
11
107.974
21
-86.9045
0
LINE
8
Black
10
107.974
20
-86.9045
11
107.983
21
-86.9015
0
LINE
8
Black
10
107.983
20
-86.9015
11
107.991
21
-86.9015
0
LINE
8
Black
10
107.991
20
-86.9015
11
108
21
-86.9
0
LINE
8
Black
10
108
20
-86.9
11
108.755
21
-86.9
0
LINE
8
Black
10
108.755
20
-86.9
11
108.178
21
-85.9
0
LINE
8
Black
10
109.9
20
-93.3
11
109.9
21
-87.1
0
LINE
8
Black
10
109.9
20
-87.1
11
109.045
21
-87.1
0
LINE
8
Black
10
109.045
20
-87.1
11
109.6
21
-90.25
0
LINE
8
Black
10
109.6
20
-90.25
11
109.062
21
-93.3
0
LINE
8
Black
10
109.062
20
-93.3
11
109.9
21
-93.3
0
LINE
8
Black
10
96.6301
20
-80.8884
11
90.2968
21
-83.1936
0
LINE
8
Black
10
90.2968
20
-83.1936
11
85.1338
21
-87.5258
0
LINE
8
Black
10
85.1338
20
-87.5258
11
83.0125
21
-91.2
0
LINE
8
Black
10
83.0125
20
-91.2
11
87.5586
21
-91.2
0
LINE
8
Black
10
87.5586
20
-91.2
11
90.3293
21
-88.4293
0
LINE
8
Black
10
90.3293
20
-88.4293
11
90.3329
21
-88.4268
0
LINE
8
Black
10
90.3329
20
-88.4268
11
90.3357
21
-88.4234
0
LINE
8
Black
10
90.3357
20
-88.4234
11
90.347
21
-88.4169
0
LINE
8
Black
10
90.347
20
-88.4169
11
90.3577
21
-88.4094
0
LINE
8
Black
10
90.3577
20
-88.4094
11
90.362
21
-88.4082
0
LINE
8
Black
10
90.362
20
-88.4082
11
90.3658
21
-88.406
0
LINE
8
Black
10
90.3658
20
-88.406
11
90.3787
21
-88.4038
0
LINE
8
Black
10
90.3787
20
-88.4038
11
90.3913
21
-88.4004
0
LINE
8
Black
10
90.3913
20
-88.4004
11
90.3957
21
-88.4008
0
LINE
8
Black
10
90.3957
20
-88.4008
11
90.4
21
-88.4
0
LINE
8
Black
10
90.4
20
-88.4
11
90.7262
21
-88.4
0
LINE
8
Black
10
90.7262
20
-88.4
11
90.979
21
-86.9666
0
LINE
8
Black
10
90.979
20
-86.9666
11
92.646
21
-84.0792
0
LINE
8
Black
10
92.646
20
-84.0792
11
95.2
21
-81.9362
0
LINE
8
Black
10
95.2
20
-81.9362
11
98.0786
21
-80.8884
0
LINE
8
Black
10
98.0786
20
-80.8884
11
96.6301
21
-80.8884
0
LINE
8
Black
10
98.3677
20
-80.9928
11
95.3
21
-82.1094
0
LINE
8
Black
10
95.3
20
-82.1094
11
92.7992
21
-84.2078
0
LINE
8
Black
10
92.7992
20
-84.2078
11
91.1669
21
-87.035
0
LINE
8
Black
10
91.1669
20
-87.035
11
90.9262
21
-88.4
0
LINE
8
Black
10
90.9262
20
-88.4
11
94.7586
21
-88.4
0
LINE
8
Black
10
94.7586
20
-88.4
11
96.4293
21
-86.7293
0
LINE
8
Black
10
96.4293
20
-86.7293
11
96.4329
21
-86.7268
0
LINE
8
Black
10
96.4329
20
-86.7268
11
96.4357
21
-86.7234
0
LINE
8
Black
10
96.4357
20
-86.7234
11
96.447
21
-86.7169
0
LINE
8
Black
10
96.447
20
-86.7169
11
96.4577
21
-86.7094
0
LINE
8
Black
10
96.4577
20
-86.7094
11
96.462
21
-86.7082
0
LINE
8
Black
10
96.462
20
-86.7082
11
96.4658
21
-86.706
0
LINE
8
Black
10
96.4658
20
-86.706
11
96.4787
21
-86.7038
0
LINE
8
Black
10
96.4787
20
-86.7038
11
96.4913
21
-86.7004
0
LINE
8
Black
10
96.4913
20
-86.7004
11
96.4957
21
-86.7008
0
LINE
8
Black
10
96.4957
20
-86.7008
11
96.5
21
-86.7
0
LINE
8
Black
10
96.5
20
-86.7
11
106.759
21
-86.7
0
LINE
8
Black
10
106.759
20
-86.7
11
107.729
21
-85.7293
0
LINE
8
Black
10
107.729
20
-85.7293
11
107.733
21
-85.7268
0
LINE
8
Black
10
107.733
20
-85.7268
11
107.736
21
-85.7234
0
LINE
8
Black
10
107.736
20
-85.7234
11
107.747
21
-85.7169
0
LINE
8
Black
10
107.747
20
-85.7169
11
107.758
21
-85.7094
0
LINE
8
Black
10
107.758
20
-85.7094
11
107.762
21
-85.7082
0
LINE
8
Black
10
107.762
20
-85.7082
11
107.766
21
-85.706
0
LINE
8
Black
10
107.766
20
-85.706
11
107.779
21
-85.7038
0
LINE
8
Black
10
107.779
20
-85.7038
11
107.791
21
-85.7004
0
LINE
8
Black
10
107.791
20
-85.7004
11
107.796
21
-85.7008
0
LINE
8
Black
10
107.796
20
-85.7008
11
107.8
21
-85.7
0
LINE
8
Black
10
107.8
20
-85.7
11
108.062
21
-85.7
0
LINE
8
Black
10
108.062
20
-85.7
11
107.201
21
-84.2078
0
LINE
8
Black
10
107.201
20
-84.2078
11
104.7
21
-82.1094
0
LINE
8
Black
10
104.7
20
-82.1094
11
101.632
21
-80.9928
0
LINE
8
Black
10
101.632
20
-80.9928
11
98.3677
21
-80.9928
0
LINE
8
Black
10
101.921
20
-80.8884
11
104.8
21
-81.9362
0
LINE
8
Black
10
104.8
20
-81.9362
11
107.354
21
-84.0792
0
LINE
8
Black
10
107.354
20
-84.0792
11
108.29
21
-85.7
0
LINE
8
Black
10
108.29
20
-85.7
11
110.1
21
-85.7
0
LINE
8
Black
10
110.1
20
-85.7
11
110.104
21
-85.7008
0
LINE
8
Black
10
110.104
20
-85.7008
11
110.109
21
-85.7004
0
LINE
8
Black
10
110.109
20
-85.7004
11
110.121
21
-85.7038
0
LINE
8
Black
10
110.121
20
-85.7038
11
110.134
21
-85.706
0
LINE
8
Black
10
110.134
20
-85.706
11
110.138
21
-85.7082
0
LINE
8
Black
10
110.138
20
-85.7082
11
110.142
21
-85.7094
0
LINE
8
Black
10
110.142
20
-85.7094
11
110.153
21
-85.7169
0
LINE
8
Black
10
110.153
20
-85.7169
11
110.164
21
-85.7234
0
LINE
8
Black
10
110.164
20
-85.7234
11
110.167
21
-85.7268
0
LINE
8
Black
10
110.167
20
-85.7268
11
110.171
21
-85.7293
0
LINE
8
Black
10
110.171
20
-85.7293
11
111.241
21
-86.8
0
LINE
8
Black
10
111.241
20
-86.8
11
114.001
21
-86.8
0
LINE
8
Black
10
114.001
20
-86.8
11
109.703
21
-83.1936
0
LINE
8
Black
10
109.703
20
-83.1936
11
103.37
21
-80.8884
0
LINE
8
Black
10
103.37
20
-80.8884
11
101.921
21
-80.8884
0
LINE
8
Black
10
107.201
20
-103.708
11
104.7
21
-101.609
0
LINE
8
Black
10
104.7
20
-101.609
11
101.632
21
-100.493
0
LINE
8
Black
10
101.632
20
-100.493
11
98.3677
21
-100.493
0
LINE
8
Black
10
98.3677
20
-100.493
11
95.3
21
-101.609
0
LINE
8
Black
10
95.3
20
-101.609
11
92.7992
21
-103.708
0
LINE
8
Black
10
92.7992
20
-103.708
11
91.1871
21
-106.5
0
LINE
8
Black
10
91.1871
20
-106.5
11
92
21
-106.5
0
LINE
8
Black
10
92
20
-106.5
11
92.0086
21
-106.502
0
LINE
8
Black
10
92.0086
20
-106.502
11
92.0174
21
-106.502
0
LINE
8
Black
10
92.0174
20
-106.502
11
92.0256
21
-106.505
0
LINE
8
Black
10
92.0256
20
-106.505
11
92.0342
21
-106.506
0
LINE
8
Black
10
92.0342
20
-106.506
11
92.0418
21
-106.51
0
LINE
8
Black
10
92.0418
20
-106.51
11
92.05
21
-106.513
0
LINE
8
Black
10
92.05
20
-106.513
11
92.0567
21
-106.519
0
LINE
8
Black
10
92.0567
20
-106.519
11
92.0643
21
-106.523
0
LINE
8
Black
10
92.0643
20
-106.523
11
92.0699
21
-106.53
0
LINE
8
Black
10
92.0699
20
-106.53
11
92.0766
21
-106.536
0
LINE
8
Black
10
92.0766
20
-106.536
11
92.081
21
-106.543
0
LINE
8
Black
10
92.081
20
-106.543
11
92.0866
21
-106.55
0
LINE
8
Black
10
92.0866
20
-106.55
11
92.0896
21
-106.558
0
LINE
8
Black
10
92.0896
20
-106.558
11
92.094
21
-106.566
0
LINE
8
Black
10
92.094
20
-106.566
11
92.0955
21
-106.574
0
LINE
8
Black
10
92.0955
20
-106.574
11
92.0985
21
-106.583
0
LINE
8
Black
10
92.0985
20
-106.583
11
92.0985
21
-106.591
0
LINE
8
Black
10
92.0985
20
-106.591
11
92.1
21
-106.6
0
LINE
8
Black
10
92.1
20
-106.6
11
92.1
21
-113
0
LINE
8
Black
10
92.1
20
-113
11
92.0985
21
-113.009
0
LINE
8
Black
10
92.0985
20
-113.009
11
92.0985
21
-113.017
0
LINE
8
Black
10
92.0985
20
-113.017
11
92.0955
21
-113.026
0
LINE
8
Black
10
92.0955
20
-113.026
11
92.094
21
-113.034
0
LINE
8
Black
10
92.094
20
-113.034
11
92.0896
21
-113.042
0
LINE
8
Black
10
92.0896
20
-113.042
11
92.0866
21
-113.05
0
LINE
8
Black
10
92.0866
20
-113.05
11
92.081
21
-113.057
0
LINE
8
Black
10
92.081
20
-113.057
11
92.0766
21
-113.064
0
LINE
8
Black
10
92.0766
20
-113.064
11
92.0699
21
-113.07
0
LINE
8
Black
10
92.0699
20
-113.07
11
92.0643
21
-113.077
0
LINE
8
Black
10
92.0643
20
-113.077
11
92.0567
21
-113.081
0
LINE
8
Black
10
92.0567
20
-113.081
11
92.05
21
-113.087
0
LINE
8
Black
10
92.05
20
-113.087
11
92.0418
21
-113.09
0
LINE
8
Black
10
92.0418
20
-113.09
11
92.0342
21
-113.094
0
LINE
8
Black
10
92.0342
20
-113.094
11
92.0256
21
-113.095
0
LINE
8
Black
10
92.0256
20
-113.095
11
92.0174
21
-113.098
0
LINE
8
Black
10
92.0174
20
-113.098
11
92.0086
21
-113.098
0
LINE
8
Black
10
92.0086
20
-113.098
11
92
21
-113.1
0
LINE
8
Black
10
92
20
-113.1
11
91.2448
21
-113.1
0
LINE
8
Black
10
91.2448
20
-113.1
11
92.7992
21
-115.792
0
LINE
8
Black
10
92.7992
20
-115.792
11
95.3
21
-117.891
0
LINE
8
Black
10
95.3
20
-117.891
11
98.3677
21
-119.007
0
LINE
8
Black
10
98.3677
20
-119.007
11
101.632
21
-119.007
0
LINE
8
Black
10
101.632
20
-119.007
11
104.7
21
-117.891
0
LINE
8
Black
10
104.7
20
-117.891
11
107.201
21
-115.792
0
LINE
8
Black
10
107.201
20
-115.792
11
108.833
21
-112.965
0
LINE
8
Black
10
108.833
20
-112.965
11
109.4
21
-109.75
0
LINE
8
Black
10
109.4
20
-109.75
11
108.833
21
-106.535
0
LINE
8
Black
10
108.833
20
-106.535
11
107.201
21
-103.708
0
LINE
8
Black
10
107.354
20
-115.921
11
104.8
21
-118.064
0
LINE
8
Black
10
104.8
20
-118.064
11
101.921
21
-119.112
0
LINE
8
Black
10
101.921
20
-119.112
11
103.37
21
-119.112
0
LINE
8
Black
10
103.37
20
-119.112
11
108.5
21
-117.244
0
LINE
8
Black
10
108.5
20
-117.244
11
108.5
21
-115.9
0
LINE
8
Black
10
108.5
20
-115.9
11
108.501
21
-115.896
0
LINE
8
Black
10
108.501
20
-115.896
11
108.5
21
-115.891
0
LINE
8
Black
10
108.5
20
-115.891
11
108.504
21
-115.879
0
LINE
8
Black
10
108.504
20
-115.879
11
108.506
21
-115.866
0
LINE
8
Black
10
108.506
20
-115.866
11
108.508
21
-115.862
0
LINE
8
Black
10
108.508
20
-115.862
11
108.509
21
-115.858
0
LINE
8
Black
10
108.509
20
-115.858
11
108.517
21
-115.847
0
LINE
8
Black
10
108.517
20
-115.847
11
108.523
21
-115.836
0
LINE
8
Black
10
108.523
20
-115.836
11
108.527
21
-115.833
0
LINE
8
Black
10
108.527
20
-115.833
11
108.529
21
-115.829
0
LINE
8
Black
10
108.529
20
-115.829
11
111.7
21
-112.659
0
LINE
8
Black
10
111.7
20
-112.659
11
111.7
21
-109.2
0
LINE
8
Black
10
111.7
20
-109.2
11
111.701
21
-109.196
0
LINE
8
Black
10
111.701
20
-109.196
11
111.7
21
-109.191
0
LINE
8
Black
10
111.7
20
-109.191
11
111.704
21
-109.179
0
LINE
8
Black
10
111.704
20
-109.179
11
111.706
21
-109.166
0
LINE
8
Black
10
111.706
20
-109.166
11
111.708
21
-109.162
0
LINE
8
Black
10
111.708
20
-109.162
11
111.709
21
-109.158
0
LINE
8
Black
10
111.709
20
-109.158
11
111.717
21
-109.147
0
LINE
8
Black
10
111.717
20
-109.147
11
111.723
21
-109.136
0
LINE
8
Black
10
111.723
20
-109.136
11
111.727
21
-109.133
0
LINE
8
Black
10
111.727
20
-109.133
11
111.729
21
-109.129
0
LINE
8
Black
10
111.729
20
-109.129
11
112.329
21
-108.529
0
LINE
8
Black
10
112.329
20
-108.529
11
112.333
21
-108.527
0
LINE
8
Black
10
112.333
20
-108.527
11
112.336
21
-108.523
0
LINE
8
Black
10
112.336
20
-108.523
11
112.347
21
-108.517
0
LINE
8
Black
10
112.347
20
-108.517
11
112.358
21
-108.509
0
LINE
8
Black
10
112.358
20
-108.509
11
112.362
21
-108.508
0
LINE
8
Black
10
112.362
20
-108.508
11
112.366
21
-108.506
0
LINE
8
Black
10
112.366
20
-108.506
11
112.379
21
-108.504
0
LINE
8
Black
10
112.379
20
-108.504
11
112.391
21
-108.5
0
LINE
8
Black
10
112.391
20
-108.5
11
112.396
21
-108.501
0
LINE
8
Black
10
112.396
20
-108.501
11
112.4
21
-108.5
0
LINE
8
Black
10
112.4
20
-108.5
11
117.161
21
-108.5
0
LINE
8
Black
10
117.161
20
-108.5
11
118.236
21
-106.637
0
LINE
8
Black
10
118.236
20
-106.637
11
119.406
21
-100
0
LINE
8
Black
10
119.406
20
-100
11
118.236
21
-93.3626
0
LINE
8
Black
10
118.236
20
-93.3626
11
114.866
21
-87.5258
0
LINE
8
Black
10
114.866
20
-87.5258
11
114.24
21
-87
0
LINE
8
Black
10
114.24
20
-87
11
111.2
21
-87
0
LINE
8
Black
10
111.2
20
-87
11
111.196
21
-86.9992
0
LINE
8
Black
10
111.196
20
-86.9992
11
111.191
21
-86.9996
0
LINE
8
Black
10
111.191
20
-86.9996
11
111.179
21
-86.9962
0
LINE
8
Black
10
111.179
20
-86.9962
11
111.166
21
-86.994
0
LINE
8
Black
10
111.166
20
-86.994
11
111.162
21
-86.9918
0
LINE
8
Black
10
111.162
20
-86.9918
11
111.158
21
-86.9906
0
LINE
8
Black
10
111.158
20
-86.9906
11
111.147
21
-86.9831
0
LINE
8
Black
10
111.147
20
-86.9831
11
111.136
21
-86.9766
0
LINE
8
Black
10
111.136
20
-86.9766
11
111.133
21
-86.9732
0
LINE
8
Black
10
111.133
20
-86.9732
11
111.129
21
-86.9707
0
LINE
8
Black
10
111.129
20
-86.9707
11
110.059
21
-85.9
0
LINE
8
Black
10
110.059
20
-85.9
11
108.405
21
-85.9
0
LINE
8
Black
10
108.405
20
-85.9
11
108.983
21
-86.9
0
LINE
8
Black
10
108.983
20
-86.9
11
110
21
-86.9
0
LINE
8
Black
10
110
20
-86.9
11
110.009
21
-86.9015
0
LINE
8
Black
10
110.009
20
-86.9015
11
110.017
21
-86.9015
0
LINE
8
Black
10
110.017
20
-86.9015
11
110.026
21
-86.9045
0
LINE
8
Black
10
110.026
20
-86.9045
11
110.034
21
-86.906
0
LINE
8
Black
10
110.034
20
-86.906
11
110.042
21
-86.9104
0
LINE
8
Black
10
110.042
20
-86.9104
11
110.05
21
-86.9134
0
LINE
8
Black
10
110.05
20
-86.9134
11
110.057
21
-86.919
0
LINE
8
Black
10
110.057
20
-86.919
11
110.064
21
-86.9234
0
LINE
8
Black
10
110.064
20
-86.9234
11
110.07
21
-86.9301
0
LINE
8
Black
10
110.07
20
-86.9301
11
110.077
21
-86.9357
0
LINE
8
Black
10
110.077
20
-86.9357
11
110.081
21
-86.9433
0
LINE
8
Black
10
110.081
20
-86.9433
11
110.087
21
-86.95
0
LINE
8
Black
10
110.087
20
-86.95
11
110.09
21
-86.9582
0
LINE
8
Black
10
110.09
20
-86.9582
11
110.094
21
-86.9658
0
LINE
8
Black
10
110.094
20
-86.9658
11
110.095
21
-86.9744
0
LINE
8
Black
10
110.095
20
-86.9744
11
110.098
21
-86.9826
0
LINE
8
Black
10
110.098
20
-86.9826
11
110.098
21
-86.9914
0
LINE
8
Black
10
110.098
20
-86.9914
11
110.1
21
-87
0
LINE
8
Black
10
110.1
20
-87
11
110.1
21
-93.4
0
LINE
8
Black
10
110.1
20
-93.4
11
110.098
21
-93.4086
0
LINE
8
Black
10
110.098
20
-93.4086
11
110.098
21
-93.4174
0
LINE
8
Black
10
110.098
20
-93.4174
11
110.095
21
-93.4256
0
LINE
8
Black
10
110.095
20
-93.4256
11
110.094
21
-93.4342
0
LINE
8
Black
10
110.094
20
-93.4342
11
110.09
21
-93.4418
0
LINE
8
Black
10
110.09
20
-93.4418
11
110.087
21
-93.45
0
LINE
8
Black
10
110.087
20
-93.45
11
110.081
21
-93.4567
0
LINE
8
Black
10
110.081
20
-93.4567
11
110.077
21
-93.4643
0
LINE
8
Black
10
110.077
20
-93.4643
11
110.07
21
-93.4699
0
LINE
8
Black
10
110.07
20
-93.4699
11
110.064
21
-93.4766
0
LINE
8
Black
10
110.064
20
-93.4766
11
110.057
21
-93.481
0
LINE
8
Black
10
110.057
20
-93.481
11
110.05
21
-93.4866
0
LINE
8
Black
10
110.05
20
-93.4866
11
110.042
21
-93.4896
0
LINE
8
Black
10
110.042
20
-93.4896
11
110.034
21
-93.494
0
LINE
8
Black
10
110.034
20
-93.494
11
110.026
21
-93.4955
0
LINE
8
Black
10
110.026
20
-93.4955
11
110.017
21
-93.4985
0
LINE
8
Black
10
110.017
20
-93.4985
11
110.009
21
-93.4985
0
LINE
8
Black
10
110.009
20
-93.4985
11
110
21
-93.5
0
LINE
8
Black
10
110
20
-93.5
11
109.027
21
-93.5
0
LINE
8
Black
10
109.027
20
-93.5
11
109.021
21
-93.5334
0
LINE
8
Black
10
109.021
20
-93.5334
11
107.354
21
-96.4208
0
LINE
8
Black
10
107.354
20
-96.4208
11
104.8
21
-98.5638
0
LINE
8
Black
10
104.8
20
-98.5638
11
101.667
21
-99.7042
0
LINE
8
Black
10
101.667
20
-99.7042
11
98.333
21
-99.7042
0
LINE
8
Black
10
98.333
20
-99.7042
11
95.2
21
-98.5638
0
LINE
8
Black
10
95.2
20
-98.5638
11
92.646
21
-96.4208
0
LINE
8
Black
10
92.646
20
-96.4208
11
90.979
21
-93.5334
0
LINE
8
Black
10
90.979
20
-93.5334
11
90.4
21
-90.25
0
LINE
8
Black
10
90.4
20
-90.25
11
90.6909
21
-88.6
0
LINE
8
Black
10
90.6909
20
-88.6
11
90.4414
21
-88.6
0
LINE
8
Black
10
90.4414
20
-88.6
11
87.6707
21
-91.3707
0
LINE
8
Black
10
87.6707
20
-91.3707
11
87.6671
21
-91.3732
0
LINE
8
Black
10
87.6671
20
-91.3732
11
87.6643
21
-91.3766
0
LINE
8
Black
10
87.6643
20
-91.3766
11
87.653
21
-91.3831
0
LINE
8
Black
10
87.653
20
-91.3831
11
87.6423
21
-91.3906
0
LINE
8
Black
10
87.6423
20
-91.3906
11
87.638
21
-91.3918
0
LINE
8
Black
10
87.638
20
-91.3918
11
87.6342
21
-91.394
0
LINE
8
Black
10
87.6342
20
-91.394
11
87.6213
21
-91.3962
0
LINE
8
Black
10
87.6213
20
-91.3962
11
87.6087
21
-91.3996
0
LINE
8
Black
10
87.6087
20
-91.3996
11
87.6043
21
-91.3992
0
LINE
8
Black
10
87.6043
20
-91.3992
11
87.6
21
-91.4
0
LINE
8
Black
10
87.6
20
-91.4
11
82.8971
21
-91.4
0
LINE
8
Black
10
82.8971
20
-91.4
11
81.7639
21
-93.3626
0
LINE
8
Black
10
81.7639
20
-93.3626
11
80.5936
21
-100
0
LINE
8
Black
10
80.5936
20
-100
11
81.7639
21
-106.637
0
LINE
8
Black
10
81.7639
20
-106.637
11
83.128
21
-109
0
LINE
8
Black
10
83.128
20
-109
11
88.1
21
-109
0
LINE
8
Black
10
88.1
20
-109
11
88.1043
21
-109.001
0
LINE
8
Black
10
88.1043
20
-109.001
11
88.1087
21
-109
0
LINE
8
Black
10
88.1087
20
-109
11
88.1213
21
-109.004
0
LINE
8
Black
10
88.1213
20
-109.004
11
88.1342
21
-109.006
0
LINE
8
Black
10
88.1342
20
-109.006
11
88.138
21
-109.008
0
LINE
8
Black
10
88.138
20
-109.008
11
88.1423
21
-109.009
0
LINE
8
Black
10
88.1423
20
-109.009
11
88.153
21
-109.017
0
LINE
8
Black
10
88.153
20
-109.017
11
88.1643
21
-109.023
0
LINE
8
Black
10
88.1643
20
-109.023
11
88.1671
21
-109.027
0
LINE
8
Black
10
88.1671
20
-109.027
11
88.1707
21
-109.029
0
LINE
8
Black
10
88.1707
20
-109.029
11
89.2707
21
-110.129
0
LINE
8
Black
10
89.2707
20
-110.129
11
89.2732
21
-110.133
0
LINE
8
Black
10
89.2732
20
-110.133
11
89.2766
21
-110.136
0
LINE
8
Black
10
89.2766
20
-110.136
11
89.2831
21
-110.147
0
LINE
8
Black
10
89.2831
20
-110.147
11
89.2906
21
-110.158
0
LINE
8
Black
10
89.2906
20
-110.158
11
89.2918
21
-110.162
0
LINE
8
Black
10
89.2918
20
-110.162
11
89.294
21
-110.166
0
LINE
8
Black
10
89.294
20
-110.166
11
89.2962
21
-110.179
0
LINE
8
Black
10
89.2962
20
-110.179
11
89.2996
21
-110.191
0
LINE
8
Black
10
89.2996
20
-110.191
11
89.2992
21
-110.196
0
LINE
8
Black
10
89.2992
20
-110.196
11
89.3
21
-110.2
0
LINE
8
Black
10
89.3
20
-110.2
11
89.3
21
-113.059
0
LINE
8
Black
10
89.3
20
-113.059
11
91.3707
21
-115.129
0
LINE
8
Black
10
91.3707
20
-115.129
11
91.3732
21
-115.133
0
LINE
8
Black
10
91.3732
20
-115.133
11
91.3766
21
-115.136
0
LINE
8
Black
10
91.3766
20
-115.136
11
91.3831
21
-115.147
0
LINE
8
Black
10
91.3831
20
-115.147
11
91.3906
21
-115.158
0
LINE
8
Black
10
91.3906
20
-115.158
11
91.3918
21
-115.162
0
LINE
8
Black
10
91.3918
20
-115.162
11
91.394
21
-115.166
0
LINE
8
Black
10
91.394
20
-115.166
11
91.3962
21
-115.179
0
LINE
8
Black
10
91.3962
20
-115.179
11
91.3996
21
-115.191
0
LINE
8
Black
10
91.3996
20
-115.191
11
91.3992
21
-115.196
0
LINE
8
Black
10
91.3992
20
-115.196
11
91.4
21
-115.2
0
LINE
8
Black
10
91.4
20
-115.2
11
91.4
21
-117.208
0
LINE
8
Black
10
91.4
20
-117.208
11
96.6301
21
-119.112
0
LINE
8
Black
10
96.6301
20
-119.112
11
98.0786
21
-119.112
0
LINE
8
Black
10
98.0786
20
-119.112
11
95.2
21
-118.064
0
LINE
8
Black
10
95.2
20
-118.064
11
92.646
21
-115.921
0
LINE
8
Black
10
92.646
20
-115.921
11
91.0174
21
-113.1
0
LINE
8
Black
10
91.0174
20
-113.1
11
90
21
-113.1
0
LINE
8
Black
10
90
20
-113.1
11
89.9914
21
-113.098
0
LINE
8
Black
10
89.9914
20
-113.098
11
89.9826
21
-113.098
0
LINE
8
Black
10
89.9826
20
-113.098
11
89.9744
21
-113.095
0
LINE
8
Black
10
89.9744
20
-113.095
11
89.9658
21
-113.094
0
LINE
8
Black
10
89.9658
20
-113.094
11
89.9582
21
-113.09
0
LINE
8
Black
10
89.9582
20
-113.09
11
89.95
21
-113.087
0
LINE
8
Black
10
89.95
20
-113.087
11
89.9433
21
-113.081
0
LINE
8
Black
10
89.9433
20
-113.081
11
89.9357
21
-113.077
0
LINE
8
Black
10
89.9357
20
-113.077
11
89.9301
21
-113.07
0
LINE
8
Black
10
89.9301
20
-113.07
11
89.9234
21
-113.064
0
LINE
8
Black
10
89.9234
20
-113.064
11
89.919
21
-113.057
0
LINE
8
Black
10
89.919
20
-113.057
11
89.9134
21
-113.05
0
LINE
8
Black
10
89.9134
20
-113.05
11
89.9104
21
-113.042
0
LINE
8
Black
10
89.9104
20
-113.042
11
89.906
21
-113.034
0
LINE
8
Black
10
89.906
20
-113.034
11
89.9045
21
-113.026
0
LINE
8
Black
10
89.9045
20
-113.026
11
89.9015
21
-113.017
0
LINE
8
Black
10
89.9015
20
-113.017
11
89.9015
21
-113.009
0
LINE
8
Black
10
89.9015
20
-113.009
11
89.9
21
-113
0
LINE
8
Black
10
89.9
20
-113
11
89.9
21
-106.6
0
LINE
8
Black
10
89.9
20
-106.6
11
89.9015
21
-106.591
0
LINE
8
Black
10
89.9015
20
-106.591
11
89.9015
21
-106.583
0
LINE
8
Black
10
89.9015
20
-106.583
11
89.9045
21
-106.574
0
LINE
8
Black
10
89.9045
20
-106.574
11
89.906
21
-106.566
0
LINE
8
Black
10
89.906
20
-106.566
11
89.9104
21
-106.558
0
LINE
8
Black
10
89.9104
20
-106.558
11
89.9134
21
-106.55
0
LINE
8
Black
10
89.9134
20
-106.55
11
89.919
21
-106.543
0
LINE
8
Black
10
89.919
20
-106.543
11
89.9234
21
-106.536
0
LINE
8
Black
10
89.9234
20
-106.536
11
89.9301
21
-106.53
0
LINE
8
Black
10
89.9301
20
-106.53
11
89.9357
21
-106.523
0
LINE
8
Black
10
89.9357
20
-106.523
11
89.9433
21
-106.519
0
LINE
8
Black
10
89.9433
20
-106.519
11
89.95
21
-106.513
0
LINE
8
Black
10
89.95
20
-106.513
11
89.9582
21
-106.51
0
LINE
8
Black
10
89.9582
20
-106.51
11
89.9658
21
-106.506
0
LINE
8
Black
10
89.9658
20
-106.506
11
89.9744
21
-106.505
0
LINE
8
Black
10
89.9744
20
-106.505
11
89.9826
21
-106.502
0
LINE
8
Black
10
89.9826
20
-106.502
11
89.9914
21
-106.502
0
LINE
8
Black
10
89.9914
20
-106.502
11
90
21
-106.5
0
LINE
8
Black
10
90
20
-106.5
11
90.9731
21
-106.5
0
LINE
8
Black
10
90.9731
20
-106.5
11
90.979
21
-106.467
0
LINE
8
Black
10
90.979
20
-106.467
11
92.646
21
-103.579
0
LINE
8
Black
10
92.646
20
-103.579
11
95.2
21
-101.436
0
LINE
8
Black
10
95.2
20
-101.436
11
98.333
21
-100.296
0
LINE
8
Black
10
98.333
20
-100.296
11
101.667
21
-100.296
0
LINE
8
Black
10
101.667
20
-100.296
11
104.8
21
-101.436
0
LINE
8
Black
10
104.8
20
-101.436
11
107.354
21
-103.579
0
LINE
8
Black
10
107.354
20
-103.579
11
109.021
21
-106.467
0
LINE
8
Black
10
109.021
20
-106.467
11
109.6
21
-109.75
0
LINE
8
Black
10
109.6
20
-109.75
11
109.021
21
-113.033
0
LINE
8
Black
10
109.021
20
-113.033
11
107.354
21
-115.921
0
LINE
8
Black
10
108.1
20
-93.3
11
108.862
21
-93.3
0
LINE
8
Black
10
108.862
20
-93.3
11
109.4
21
-90.25
0
LINE
8
Black
10
109.4
20
-90.25
11
108.845
21
-87.1
0
LINE
8
Black
10
108.845
20
-87.1
11
108.1
21
-87.1
0
LINE
8
Black
10
108.1
20
-87.1
11
108.1
21
-93.3
0
LINE
8
Black
10
115.187
20
-112.743
11
109.912
21
-117.169
0
LINE
8
Black
10
109.912
20
-117.169
11
103.443
21
-119.524
0
LINE
8
Black
10
103.443
20
-119.524
11
96.5574
21
-119.524
0
LINE
8
Black
10
96.5574
20
-119.524
11
90.0875
21
-117.169
0
LINE
8
Black
10
90.0875
20
-117.169
11
84.8132
21
-112.743
0
LINE
8
Black
10
84.8132
20
-112.743
11
81.3706
21
-106.781
0
LINE
8
Black
10
81.3706
20
-106.781
11
80.175
21
-100
0
LINE
8
Black
10
80.175
20
-100
11
81.3706
21
-93.2195
0
LINE
8
Black
10
81.3706
20
-93.2195
11
84.8132
21
-87.2567
0
LINE
8
Black
10
84.8132
20
-87.2567
11
90.0875
21
-82.831
0
LINE
8
Black
10
90.0875
20
-82.831
11
96.5574
21
-80.4762
0
LINE
8
Black
10
96.5574
20
-80.4762
11
103.443
21
-80.4762
0
LINE
8
Black
10
103.443
20
-80.4762
11
109.912
21
-82.831
0
LINE
8
Black
10
109.912
20
-82.831
11
115.187
21
-87.2567
0
LINE
8
Black
10
115.187
20
-87.2567
11
118.629
21
-93.2195
0
LINE
8
Black
10
118.629
20
-93.2195
11
119.825
21
-100
0
LINE
8
Black
10
119.825
20
-100
11
118.629
21
-106.781
0
LINE
8
Black
10
118.629
20
-106.781
11
115.187
21
-112.743
0
LINE
8
Black
10
115.072
20
-87.3532
11
109.837
21
-82.9609
0
LINE
8
Black
10
109.837
20
-82.9609
11
103.417
21
-80.6239
0
LINE
8
Black
10
103.417
20
-80.6239
11
96.5835
21
-80.6239
0
LINE
8
Black
10
96.5835
20
-80.6239
11
90.1625
21
-82.9609
0
LINE
8
Black
10
90.1625
20
-82.9609
11
84.9281
21
-87.3532
0
LINE
8
Black
10
84.9281
20
-87.3532
11
81.5115
21
-93.2708
0
LINE
8
Black
10
81.5115
20
-93.2708
11
80.325
21
-100
0
LINE
8
Black
10
80.325
20
-100
11
81.5115
21
-106.729
0
LINE
8
Black
10
81.5115
20
-106.729
11
84.9281
21
-112.647
0
LINE
8
Black
10
84.9281
20
-112.647
11
90.1625
21
-117.039
0
LINE
8
Black
10
90.1625
20
-117.039
11
96.5835
21
-119.376
0
LINE
8
Black
10
96.5835
20
-119.376
11
103.417
21
-119.376
0
LINE
8
Black
10
103.417
20
-119.376
11
109.837
21
-117.039
0
LINE
8
Black
10
109.837
20
-117.039
11
115.072
21
-112.647
0
LINE
8
Black
10
115.072
20
-112.647
11
118.488
21
-106.729
0
LINE
8
Black
10
118.488
20
-106.729
11
119.675
21
-100
0
LINE
8
Black
10
119.675
20
-100
11
118.488
21
-93.2708
0
LINE
8
Black
10
118.488
20
-93.2708
11
115.072
21
-87.3532
0
LINE
8
Black
10
109.409
20
-87.5015
11
109.417
21
-87.5015
0
LINE
8
Black
10
109.417
20
-87.5015
11
109.426
21
-87.5045
0
LINE
8
Black
10
109.426
20
-87.5045
11
109.434
21
-87.506
0
LINE
8
Black
10
109.434
20
-87.506
11
109.442
21
-87.5104
0
LINE
8
Black
10
109.442
20
-87.5104
11
109.45
21
-87.5134
0
LINE
8
Black
10
109.45
20
-87.5134
11
109.457
21
-87.519
0
LINE
8
Black
10
109.457
20
-87.519
11
109.464
21
-87.5234
0
LINE
8
Black
10
109.464
20
-87.5234
11
109.47
21
-87.5301
0
LINE
8
Black
10
109.47
20
-87.5301
11
109.477
21
-87.5357
0
LINE
8
Black
10
109.477
20
-87.5357
11
109.481
21
-87.5433
0
LINE
8
Black
10
109.481
20
-87.5433
11
109.487
21
-87.55
0
LINE
8
Black
10
109.487
20
-87.55
11
109.49
21
-87.5582
0
LINE
8
Black
10
109.49
20
-87.5582
11
109.494
21
-87.5658
0
LINE
8
Black
10
109.494
20
-87.5658
11
109.495
21
-87.5744
0
LINE
8
Black
10
109.495
20
-87.5744
11
109.498
21
-87.5826
0
LINE
8
Black
10
109.498
20
-87.5826
11
109.498
21
-87.5914
0
LINE
8
Black
10
109.498
20
-87.5914
11
109.5
21
-87.6
0
LINE
8
Black
10
109.5
20
-87.6
11
109.5
21
-92.8
0
LINE
8
Black
10
109.5
20
-92.8
11
109.498
21
-92.8086
0
LINE
8
Black
10
109.498
20
-92.8086
11
109.498
21
-92.8174
0
LINE
8
Black
10
109.498
20
-92.8174
11
109.495
21
-92.8256
0
LINE
8
Black
10
109.495
20
-92.8256
11
109.494
21
-92.8342
0
LINE
8
Black
10
109.494
20
-92.8342
11
109.49
21
-92.8418
0
LINE
8
Black
10
109.49
20
-92.8418
11
109.487
21
-92.85
0
LINE
8
Black
10
109.487
20
-92.85
11
109.481
21
-92.8567
0
LINE
8
Black
10
109.481
20
-92.8567
11
109.477
21
-92.8643
0
LINE
8
Black
10
109.477
20
-92.8643
11
109.47
21
-92.8699
0
LINE
8
Black
10
109.47
20
-92.8699
11
109.464
21
-92.8766
0
LINE
8
Black
10
109.464
20
-92.8766
11
109.457
21
-92.881
0
LINE
8
Black
10
109.457
20
-92.881
11
109.45
21
-92.8866
0
LINE
8
Black
10
109.45
20
-92.8866
11
109.442
21
-92.8896
0
LINE
8
Black
10
109.442
20
-92.8896
11
109.434
21
-92.894
0
LINE
8
Black
10
109.434
20
-92.894
11
109.426
21
-92.8955
0
LINE
8
Black
10
109.426
20
-92.8955
11
109.417
21
-92.8985
0
LINE
8
Black
10
109.417
20
-92.8985
11
109.409
21
-92.8985
0
LINE
8
Black
10
109.409
20
-92.8985
11
109.4
21
-92.9
0
LINE
8
Black
10
109.4
20
-92.9
11
108.6
21
-92.9
0
LINE
8
Black
10
108.6
20
-92.9
11
108.591
21
-92.8985
0
LINE
8
Black
10
108.591
20
-92.8985
11
108.583
21
-92.8985
0
LINE
8
Black
10
108.583
20
-92.8985
11
108.574
21
-92.8955
0
LINE
8
Black
10
108.574
20
-92.8955
11
108.566
21
-92.894
0
LINE
8
Black
10
108.566
20
-92.894
11
108.558
21
-92.8896
0
LINE
8
Black
10
108.558
20
-92.8896
11
108.55
21
-92.8866
0
LINE
8
Black
10
108.55
20
-92.8866
11
108.543
21
-92.881
0
LINE
8
Black
10
108.543
20
-92.881
11
108.536
21
-92.8766
0
LINE
8
Black
10
108.536
20
-92.8766
11
108.53
21
-92.8699
0
LINE
8
Black
10
108.53
20
-92.8699
11
108.523
21
-92.8643
0
LINE
8
Black
10
108.523
20
-92.8643
11
108.519
21
-92.8567
0
LINE
8
Black
10
108.519
20
-92.8567
11
108.513
21
-92.85
0
LINE
8
Black
10
108.513
20
-92.85
11
108.51
21
-92.8418
0
LINE
8
Black
10
108.51
20
-92.8418
11
108.506
21
-92.8342
0
LINE
8
Black
10
108.506
20
-92.8342
11
108.505
21
-92.8256
0
LINE
8
Black
10
108.505
20
-92.8256
11
108.502
21
-92.8174
0
LINE
8
Black
10
108.502
20
-92.8174
11
108.502
21
-92.8086
0
LINE
8
Black
10
108.502
20
-92.8086
11
108.5
21
-92.8
0
LINE
8
Black
10
108.5
20
-92.8
11
108.5
21
-87.6
0
LINE
8
Black
10
108.5
20
-87.6
11
108.502
21
-87.5914
0
LINE
8
Black
10
108.502
20
-87.5914
11
108.502
21
-87.5826
0
LINE
8
Black
10
108.502
20
-87.5826
11
108.505
21
-87.5744
0
LINE
8
Black
10
108.505
20
-87.5744
11
108.506
21
-87.5658
0
LINE
8
Black
10
108.506
20
-87.5658
11
108.51
21
-87.5582
0
LINE
8
Black
10
108.51
20
-87.5582
11
108.513
21
-87.55
0
LINE
8
Black
10
108.513
20
-87.55
11
108.519
21
-87.5433
0
LINE
8
Black
10
108.519
20
-87.5433
11
108.523
21
-87.5357
0
LINE
8
Black
10
108.523
20
-87.5357
11
108.53
21
-87.5301
0
LINE
8
Black
10
108.53
20
-87.5301
11
108.536
21
-87.5234
0
LINE
8
Black
10
108.536
20
-87.5234
11
108.543
21
-87.519
0
LINE
8
Black
10
108.543
20
-87.519
11
108.55
21
-87.5134
0
LINE
8
Black
10
108.55
20
-87.5134
11
108.558
21
-87.5104
0
LINE
8
Black
10
108.558
20
-87.5104
11
108.566
21
-87.506
0
LINE
8
Black
10
108.566
20
-87.506
11
108.574
21
-87.5045
0
LINE
8
Black
10
108.574
20
-87.5045
11
108.583
21
-87.5015
0
LINE
8
Black
10
108.583
20
-87.5015
11
108.591
21
-87.5015
0
LINE
8
Black
10
108.591
20
-87.5015
11
108.6
21
-87.5
0
LINE
8
Black
10
108.6
20
-87.5
11
109.4
21
-87.5
0
LINE
8
Black
10
109.4
20
-87.5
11
109.409
21
-87.5015
0
LINE
8
Black
10
108.7
20
-87.7
11
108.7
21
-92.7
0
LINE
8
Black
10
108.7
20
-92.7
11
109.3
21
-92.7
0
LINE
8
Black
10
109.3
20
-92.7
11
109.3
21
-87.7
0
LINE
8
Black
10
109.3
20
-87.7
11
108.7
21
-87.7
  0
ENDSEC
  0
EOF
