G04 #@! TF.FileFunction,Soldermask,Top*
%FSLAX46Y46*%
G04 Gerber Fmt 4.6, Leading zero omitted, Abs format (unit mm)*
G04 Created by KiCad (PCBNEW 201609280951+7255~55~ubuntu14.04.1-) date Wed Jan 11 23:22:20 2017*
%MOMM*%
%LPD*%
G01*
G04 APERTURE LIST*
%ADD10C,0.100000*%
%ADD11R,0.280000X0.850000*%
%ADD12R,0.850000X0.280000*%
%ADD13R,3.452000X3.452000*%
%ADD14R,0.900000X0.500000*%
%ADD15R,1.150000X1.450000*%
%ADD16R,0.450000X0.450000*%
%ADD17R,1.036000X2.450000*%
%ADD18R,0.562000X2.450000*%
%ADD19R,0.620000X0.620000*%
%ADD20R,0.950000X1.000000*%
%ADD21R,2.700000X1.150000*%
%ADD22C,1.200000*%
%ADD23C,2.000000*%
%ADD24R,2.920000X0.740000*%
%ADD25C,1.900000*%
%ADD26R,1.800000X2.000000*%
%ADD27R,0.800000X0.475000*%
%ADD28R,0.550000X0.650000*%
%ADD29R,3.900000X2.025000*%
%ADD30R,0.550000X0.750000*%
%ADD31R,1.250000X0.650000*%
%ADD32R,0.400000X0.700000*%
%ADD33R,0.400000X0.250000*%
%ADD34R,0.400000X0.455000*%
%ADD35R,1.050000X1.100000*%
%ADD36R,0.400000X0.850000*%
G04 APERTURE END LIST*
D10*
D11*
X96450000Y-96775000D03*
X95950000Y-96775000D03*
X95450000Y-96775000D03*
X94950000Y-96775000D03*
X94450000Y-96775000D03*
X93950000Y-96775000D03*
X93450000Y-96775000D03*
X92950000Y-96775000D03*
D12*
X92225000Y-97500000D03*
X92225000Y-98000000D03*
X92225000Y-98500000D03*
X92225000Y-99000000D03*
X92225000Y-99500000D03*
X92225000Y-100000000D03*
X92225000Y-100500000D03*
X92225000Y-101000000D03*
D11*
X92950000Y-101725000D03*
X93450000Y-101725000D03*
X93950000Y-101725000D03*
X94450000Y-101725000D03*
X94950000Y-101725000D03*
X95450000Y-101725000D03*
X95950000Y-101725000D03*
X96450000Y-101725000D03*
D12*
X97175000Y-101000000D03*
X97175000Y-100500000D03*
X97175000Y-100000000D03*
X97175000Y-99500000D03*
X97175000Y-99000000D03*
X97175000Y-98500000D03*
X97175000Y-98000000D03*
X97175000Y-97500000D03*
D13*
X94700000Y-99250000D03*
D14*
X104350000Y-96850000D03*
X101750000Y-96850000D03*
D15*
X95050000Y-108400000D03*
X93250000Y-108400000D03*
D16*
X101114000Y-110025000D03*
X101114000Y-109375000D03*
X101114000Y-108075000D03*
X101114000Y-108725000D03*
X103886000Y-108075000D03*
X103886000Y-108725000D03*
X103886000Y-109375000D03*
X103886000Y-110025000D03*
D17*
X102934000Y-109050000D03*
D18*
X101829000Y-109050000D03*
D19*
X91500000Y-94600000D03*
X91500000Y-95500000D03*
D20*
X95650000Y-111900000D03*
X97250000Y-111900000D03*
D21*
X96550000Y-113800000D03*
X96550000Y-116800000D03*
D22*
X95870000Y-84500000D03*
X104130000Y-84500000D03*
D10*
G36*
X91549009Y-106552408D02*
X91597545Y-106559607D01*
X91645142Y-106571530D01*
X91691342Y-106588060D01*
X91735698Y-106609039D01*
X91777785Y-106634265D01*
X91817197Y-106663495D01*
X91853553Y-106696447D01*
X91886505Y-106732803D01*
X91915735Y-106772215D01*
X91940961Y-106814302D01*
X91961940Y-106858658D01*
X91978470Y-106904858D01*
X91990393Y-106952455D01*
X91997592Y-107000991D01*
X92000000Y-107050000D01*
X92000000Y-112550000D01*
X91997592Y-112599009D01*
X91990393Y-112647545D01*
X91978470Y-112695142D01*
X91961940Y-112741342D01*
X91940961Y-112785698D01*
X91915735Y-112827785D01*
X91886505Y-112867197D01*
X91853553Y-112903553D01*
X91817197Y-112936505D01*
X91777785Y-112965735D01*
X91735698Y-112990961D01*
X91691342Y-113011940D01*
X91645142Y-113028470D01*
X91597545Y-113040393D01*
X91549009Y-113047592D01*
X91500000Y-113050000D01*
X90500000Y-113050000D01*
X90450991Y-113047592D01*
X90402455Y-113040393D01*
X90354858Y-113028470D01*
X90308658Y-113011940D01*
X90264302Y-112990961D01*
X90222215Y-112965735D01*
X90182803Y-112936505D01*
X90146447Y-112903553D01*
X90113495Y-112867197D01*
X90084265Y-112827785D01*
X90059039Y-112785698D01*
X90038060Y-112741342D01*
X90021530Y-112695142D01*
X90009607Y-112647545D01*
X90002408Y-112599009D01*
X90000000Y-112550000D01*
X90000000Y-107050000D01*
X90002408Y-107000991D01*
X90009607Y-106952455D01*
X90021530Y-106904858D01*
X90038060Y-106858658D01*
X90059039Y-106814302D01*
X90084265Y-106772215D01*
X90113495Y-106732803D01*
X90146447Y-106696447D01*
X90182803Y-106663495D01*
X90222215Y-106634265D01*
X90264302Y-106609039D01*
X90308658Y-106588060D01*
X90354858Y-106571530D01*
X90402455Y-106559607D01*
X90450991Y-106552408D01*
X90500000Y-106550000D01*
X91500000Y-106550000D01*
X91549009Y-106552408D01*
X91549009Y-106552408D01*
G37*
D23*
X91000000Y-109800000D03*
D10*
G36*
X109549009Y-86952408D02*
X109597545Y-86959607D01*
X109645142Y-86971530D01*
X109691342Y-86988060D01*
X109735698Y-87009039D01*
X109777785Y-87034265D01*
X109817197Y-87063495D01*
X109853553Y-87096447D01*
X109886505Y-87132803D01*
X109915735Y-87172215D01*
X109940961Y-87214302D01*
X109961940Y-87258658D01*
X109978470Y-87304858D01*
X109990393Y-87352455D01*
X109997592Y-87400991D01*
X110000000Y-87450000D01*
X110000000Y-92950000D01*
X109997592Y-92999009D01*
X109990393Y-93047545D01*
X109978470Y-93095142D01*
X109961940Y-93141342D01*
X109940961Y-93185698D01*
X109915735Y-93227785D01*
X109886505Y-93267197D01*
X109853553Y-93303553D01*
X109817197Y-93336505D01*
X109777785Y-93365735D01*
X109735698Y-93390961D01*
X109691342Y-93411940D01*
X109645142Y-93428470D01*
X109597545Y-93440393D01*
X109549009Y-93447592D01*
X109500000Y-93450000D01*
X108500000Y-93450000D01*
X108450991Y-93447592D01*
X108402455Y-93440393D01*
X108354858Y-93428470D01*
X108308658Y-93411940D01*
X108264302Y-93390961D01*
X108222215Y-93365735D01*
X108182803Y-93336505D01*
X108146447Y-93303553D01*
X108113495Y-93267197D01*
X108084265Y-93227785D01*
X108059039Y-93185698D01*
X108038060Y-93141342D01*
X108021530Y-93095142D01*
X108009607Y-93047545D01*
X108002408Y-92999009D01*
X108000000Y-92950000D01*
X108000000Y-87450000D01*
X108002408Y-87400991D01*
X108009607Y-87352455D01*
X108021530Y-87304858D01*
X108038060Y-87258658D01*
X108059039Y-87214302D01*
X108084265Y-87172215D01*
X108113495Y-87132803D01*
X108146447Y-87096447D01*
X108182803Y-87063495D01*
X108222215Y-87034265D01*
X108264302Y-87009039D01*
X108308658Y-86988060D01*
X108354858Y-86971530D01*
X108402455Y-86959607D01*
X108450991Y-86952408D01*
X108500000Y-86950000D01*
X109500000Y-86950000D01*
X109549009Y-86952408D01*
X109549009Y-86952408D01*
G37*
D23*
X109000000Y-90200000D03*
D24*
X86715000Y-105715000D03*
X83285000Y-105715000D03*
X86715000Y-104445000D03*
X83285000Y-104445000D03*
X86715000Y-103175000D03*
X83285000Y-103175000D03*
X86715000Y-101905000D03*
X83285000Y-101905000D03*
X86715000Y-100635000D03*
X83285000Y-100635000D03*
X86715000Y-99365000D03*
X83285000Y-99365000D03*
X86715000Y-98095000D03*
X83285000Y-98095000D03*
X86715000Y-96825000D03*
X83285000Y-96825000D03*
X86715000Y-95555000D03*
X83285000Y-95555000D03*
X86715000Y-94285000D03*
X83285000Y-94285000D03*
D22*
X85000000Y-92695000D03*
X85000000Y-107305000D03*
D24*
X116715000Y-105715000D03*
X113285000Y-105715000D03*
X116715000Y-104445000D03*
X113285000Y-104445000D03*
X116715000Y-103175000D03*
X113285000Y-103175000D03*
X116715000Y-101905000D03*
X113285000Y-101905000D03*
X116715000Y-100635000D03*
X113285000Y-100635000D03*
X116715000Y-99365000D03*
X113285000Y-99365000D03*
X116715000Y-98095000D03*
X113285000Y-98095000D03*
X116715000Y-96825000D03*
X113285000Y-96825000D03*
X116715000Y-95555000D03*
X113285000Y-95555000D03*
X116715000Y-94285000D03*
X113285000Y-94285000D03*
D22*
X115000000Y-92695000D03*
X115000000Y-107305000D03*
D10*
G36*
X114921558Y-89152287D02*
X114967668Y-89159127D01*
X115012885Y-89170453D01*
X115056775Y-89186157D01*
X115098913Y-89206087D01*
X115138896Y-89230052D01*
X115176337Y-89257820D01*
X115210876Y-89289124D01*
X115242180Y-89323663D01*
X115269948Y-89361104D01*
X115293913Y-89401087D01*
X115313843Y-89443225D01*
X115329547Y-89487115D01*
X115340873Y-89532332D01*
X115347713Y-89578442D01*
X115350000Y-89625000D01*
X115350000Y-90575000D01*
X115347713Y-90621558D01*
X115340873Y-90667668D01*
X115329547Y-90712885D01*
X115313843Y-90756775D01*
X115293913Y-90798913D01*
X115269948Y-90838896D01*
X115242180Y-90876337D01*
X115210876Y-90910876D01*
X115176337Y-90942180D01*
X115138896Y-90969948D01*
X115098913Y-90993913D01*
X115056775Y-91013843D01*
X115012885Y-91029547D01*
X114967668Y-91040873D01*
X114921558Y-91047713D01*
X114875000Y-91050000D01*
X113925000Y-91050000D01*
X113878442Y-91047713D01*
X113832332Y-91040873D01*
X113787115Y-91029547D01*
X113743225Y-91013843D01*
X113701087Y-90993913D01*
X113661104Y-90969948D01*
X113623663Y-90942180D01*
X113589124Y-90910876D01*
X113557820Y-90876337D01*
X113530052Y-90838896D01*
X113506087Y-90798913D01*
X113486157Y-90756775D01*
X113470453Y-90712885D01*
X113459127Y-90667668D01*
X113452287Y-90621558D01*
X113450000Y-90575000D01*
X113450000Y-89625000D01*
X113452287Y-89578442D01*
X113459127Y-89532332D01*
X113470453Y-89487115D01*
X113486157Y-89443225D01*
X113506087Y-89401087D01*
X113530052Y-89361104D01*
X113557820Y-89323663D01*
X113589124Y-89289124D01*
X113623663Y-89257820D01*
X113661104Y-89230052D01*
X113701087Y-89206087D01*
X113743225Y-89186157D01*
X113787115Y-89170453D01*
X113832332Y-89159127D01*
X113878442Y-89152287D01*
X113925000Y-89150000D01*
X114875000Y-89150000D01*
X114921558Y-89152287D01*
X114921558Y-89152287D01*
G37*
D25*
X114400000Y-90100000D03*
D19*
X97050000Y-91450000D03*
X96150000Y-91450000D03*
X97050000Y-89250000D03*
X96150000Y-89250000D03*
X99000000Y-103400000D03*
X99000000Y-104300000D03*
D15*
X98700000Y-95100000D03*
X100500000Y-95100000D03*
D21*
X106578206Y-108577916D03*
X106578206Y-111577916D03*
X109622756Y-108577916D03*
X109622756Y-111577916D03*
D15*
X107900000Y-98650000D03*
X109700000Y-98650000D03*
D19*
X99600000Y-99700000D03*
X99600000Y-100600000D03*
D20*
X101650000Y-102600000D03*
X103250000Y-102600000D03*
D19*
X95500000Y-94850000D03*
X96400000Y-94850000D03*
X94500000Y-95500000D03*
X94500000Y-94600000D03*
X99500000Y-96700000D03*
X98600000Y-96700000D03*
X92450000Y-95500000D03*
X92450000Y-94600000D03*
X96750000Y-105350000D03*
X97650000Y-105350000D03*
X96750000Y-104300000D03*
X95850000Y-104300000D03*
X94900000Y-105350000D03*
X95800000Y-105350000D03*
D21*
X93450000Y-116800000D03*
X93450000Y-113800000D03*
D19*
X92700000Y-104300000D03*
X92700000Y-105200000D03*
D14*
X101300000Y-100200000D03*
X103900000Y-100200000D03*
D26*
X103750000Y-113750000D03*
X99250000Y-113750000D03*
D27*
X101110000Y-88287500D03*
D28*
X99980000Y-88850000D03*
D29*
X102200000Y-89537500D03*
D30*
X99975000Y-90175000D03*
D31*
X105675000Y-88845000D03*
X105675000Y-90115000D03*
X105675000Y-91385000D03*
X105675000Y-92655000D03*
D29*
X102200000Y-91962500D03*
D30*
X99975000Y-91325000D03*
D28*
X99980000Y-92650000D03*
D27*
X103560000Y-88287500D03*
X101110000Y-93212500D03*
X103560000Y-93212500D03*
D32*
X109450000Y-106450000D03*
D33*
X110150000Y-106675000D03*
X110150000Y-106225000D03*
D19*
X106050000Y-102600000D03*
X106950000Y-102600000D03*
X98000000Y-92350000D03*
X98000000Y-91450000D03*
X106050000Y-103900000D03*
X106950000Y-103900000D03*
X97050000Y-92400000D03*
X96150000Y-92400000D03*
X110300000Y-105500000D03*
X109400000Y-105500000D03*
X97050000Y-90200000D03*
X96150000Y-90200000D03*
X98000000Y-90150000D03*
X98000000Y-89250000D03*
X92000000Y-89850000D03*
X92000000Y-90750000D03*
X91050000Y-90750000D03*
X91050000Y-89850000D03*
X109750000Y-101000000D03*
X108850000Y-101000000D03*
X108850000Y-100050000D03*
X109750000Y-100050000D03*
X100000000Y-103400000D03*
X100000000Y-104300000D03*
X108500000Y-94550000D03*
X108500000Y-95450000D03*
X109500000Y-95450000D03*
X109500000Y-94550000D03*
X102650000Y-95400000D03*
X103550000Y-95400000D03*
X93700000Y-104300000D03*
X93700000Y-105200000D03*
X93600000Y-103300000D03*
X92700000Y-103300000D03*
D34*
X109100000Y-104322500D03*
D35*
X108775000Y-103400000D03*
D34*
X108450000Y-104322500D03*
X108450000Y-102477500D03*
X109100000Y-102477500D03*
X109750000Y-104322500D03*
X109750000Y-102477500D03*
D36*
X109750000Y-103304000D03*
M02*
