G04 #@! TF.FileFunction,Copper,L1,Top,Signal*
%FSLAX46Y46*%
G04 Gerber Fmt 4.6, Leading zero omitted, Abs format (unit mm)*
G04 Created by KiCad (PCBNEW 4.1.0-alpha+201605071002+6776~44~ubuntu14.04.1-product) date Wed 29 Jun 2016 02:15:50 BST*
%MOMM*%
%LPD*%
G01*
G04 APERTURE LIST*
%ADD10C,0.100000*%
%ADD11R,0.620000X0.620000*%
%ADD12R,1.150000X2.700000*%
%ADD13R,2.700000X1.150000*%
%ADD14R,0.800000X0.300000*%
%ADD15R,0.300000X0.800000*%
%ADD16R,0.900000X0.900000*%
%ADD17R,2.600000X2.600000*%
%ADD18R,2.920000X0.740000*%
%ADD19R,2.000000X1.800000*%
%ADD20R,0.250000X0.400000*%
%ADD21R,0.700000X0.400000*%
%ADD22R,0.405000X0.760000*%
%ADD23R,2.235000X1.725000*%
%ADD24R,0.405000X0.990000*%
%ADD25R,0.400000X0.250000*%
%ADD26R,0.400000X0.700000*%
%ADD27R,0.610000X1.270000*%
%ADD28R,3.910000X3.810000*%
%ADD29R,1.000000X0.950000*%
%ADD30R,0.475000X0.800000*%
%ADD31R,0.650000X0.550000*%
%ADD32R,0.750000X0.550000*%
%ADD33R,2.025000X3.900000*%
%ADD34R,0.650000X1.250000*%
%ADD35R,0.450000X0.450000*%
%ADD36R,1.036000X2.450000*%
%ADD37R,0.562000X2.450000*%
%ADD38R,0.240000X0.900000*%
%ADD39R,0.900000X0.240000*%
%ADD40R,0.300000X0.300000*%
%ADD41R,1.500000X1.500000*%
%ADD42C,0.600000*%
%ADD43C,0.700000*%
%ADD44C,0.280000*%
%ADD45C,0.450000*%
%ADD46C,0.600000*%
%ADD47C,0.800000*%
%ADD48C,0.200000*%
%ADD49C,1.000000*%
G04 APERTURE END LIST*
D10*
G36*
X89549009Y-106552408D02*
X89597545Y-106559607D01*
X89645142Y-106571530D01*
X89691342Y-106588060D01*
X89735698Y-106609039D01*
X89777785Y-106634265D01*
X89817197Y-106663495D01*
X89853553Y-106696447D01*
X89886505Y-106732803D01*
X89915735Y-106772215D01*
X89940961Y-106814302D01*
X89961940Y-106858658D01*
X89978470Y-106904858D01*
X89990393Y-106952455D01*
X89997592Y-107000991D01*
X90000000Y-107050000D01*
X90000000Y-112550000D01*
X89997592Y-112599009D01*
X89990393Y-112647545D01*
X89978470Y-112695142D01*
X89961940Y-112741342D01*
X89940961Y-112785698D01*
X89915735Y-112827785D01*
X89886505Y-112867197D01*
X89853553Y-112903553D01*
X89817197Y-112936505D01*
X89777785Y-112965735D01*
X89735698Y-112990961D01*
X89691342Y-113011940D01*
X89645142Y-113028470D01*
X89597545Y-113040393D01*
X89549009Y-113047592D01*
X89500000Y-113050000D01*
X88500000Y-113050000D01*
X88450991Y-113047592D01*
X88402455Y-113040393D01*
X88354858Y-113028470D01*
X88308658Y-113011940D01*
X88264302Y-112990961D01*
X88222215Y-112965735D01*
X88182803Y-112936505D01*
X88146447Y-112903553D01*
X88113495Y-112867197D01*
X88084265Y-112827785D01*
X88059039Y-112785698D01*
X88038060Y-112741342D01*
X88021530Y-112695142D01*
X88009607Y-112647545D01*
X88002408Y-112599009D01*
X88000000Y-112550000D01*
X88000000Y-107050000D01*
X88002408Y-107000991D01*
X88009607Y-106952455D01*
X88021530Y-106904858D01*
X88038060Y-106858658D01*
X88059039Y-106814302D01*
X88084265Y-106772215D01*
X88113495Y-106732803D01*
X88146447Y-106696447D01*
X88182803Y-106663495D01*
X88222215Y-106634265D01*
X88264302Y-106609039D01*
X88308658Y-106588060D01*
X88354858Y-106571530D01*
X88402455Y-106559607D01*
X88450991Y-106552408D01*
X88500000Y-106550000D01*
X89500000Y-106550000D01*
X89549009Y-106552408D01*
X89549009Y-106552408D01*
G37*
G36*
X111549009Y-86952408D02*
X111597545Y-86959607D01*
X111645142Y-86971530D01*
X111691342Y-86988060D01*
X111735698Y-87009039D01*
X111777785Y-87034265D01*
X111817197Y-87063495D01*
X111853553Y-87096447D01*
X111886505Y-87132803D01*
X111915735Y-87172215D01*
X111940961Y-87214302D01*
X111961940Y-87258658D01*
X111978470Y-87304858D01*
X111990393Y-87352455D01*
X111997592Y-87400991D01*
X112000000Y-87450000D01*
X112000000Y-92950000D01*
X111997592Y-92999009D01*
X111990393Y-93047545D01*
X111978470Y-93095142D01*
X111961940Y-93141342D01*
X111940961Y-93185698D01*
X111915735Y-93227785D01*
X111886505Y-93267197D01*
X111853553Y-93303553D01*
X111817197Y-93336505D01*
X111777785Y-93365735D01*
X111735698Y-93390961D01*
X111691342Y-93411940D01*
X111645142Y-93428470D01*
X111597545Y-93440393D01*
X111549009Y-93447592D01*
X111500000Y-93450000D01*
X110500000Y-93450000D01*
X110450991Y-93447592D01*
X110402455Y-93440393D01*
X110354858Y-93428470D01*
X110308658Y-93411940D01*
X110264302Y-93390961D01*
X110222215Y-93365735D01*
X110182803Y-93336505D01*
X110146447Y-93303553D01*
X110113495Y-93267197D01*
X110084265Y-93227785D01*
X110059039Y-93185698D01*
X110038060Y-93141342D01*
X110021530Y-93095142D01*
X110009607Y-93047545D01*
X110002408Y-92999009D01*
X110000000Y-92950000D01*
X110000000Y-87450000D01*
X110002408Y-87400991D01*
X110009607Y-87352455D01*
X110021530Y-87304858D01*
X110038060Y-87258658D01*
X110059039Y-87214302D01*
X110084265Y-87172215D01*
X110113495Y-87132803D01*
X110146447Y-87096447D01*
X110182803Y-87063495D01*
X110222215Y-87034265D01*
X110264302Y-87009039D01*
X110308658Y-86988060D01*
X110354858Y-86971530D01*
X110402455Y-86959607D01*
X110450991Y-86952408D01*
X110500000Y-86950000D01*
X111500000Y-86950000D01*
X111549009Y-86952408D01*
X111549009Y-86952408D01*
G37*
D11*
X97110000Y-92920000D03*
X97110000Y-93820000D03*
X97030000Y-105450000D03*
X96130000Y-105450000D03*
X99625000Y-101195000D03*
X99625000Y-100295000D03*
X100835000Y-101195000D03*
X100835000Y-100295000D03*
X104110000Y-103010000D03*
X104110000Y-103910000D03*
X106680000Y-107720000D03*
X107580000Y-107720000D03*
X98425000Y-108155000D03*
X99325000Y-108155000D03*
D12*
X112010000Y-110290000D03*
X115010000Y-110290000D03*
D11*
X97030000Y-104250000D03*
X96130000Y-104250000D03*
D13*
X97840000Y-113790000D03*
X97840000Y-116790000D03*
D14*
X98890000Y-103645000D03*
X98890000Y-104145000D03*
X98890000Y-104645000D03*
X98890000Y-105145000D03*
X98890000Y-105645000D03*
X98890000Y-106145000D03*
D15*
X99595000Y-106850000D03*
X100095000Y-106850000D03*
X100595000Y-106850000D03*
X101095000Y-106850000D03*
X101595000Y-106850000D03*
X102095000Y-106850000D03*
D14*
X102800000Y-106145000D03*
X102800000Y-105645000D03*
X102800000Y-105145000D03*
X102800000Y-104645000D03*
X102800000Y-104145000D03*
X102800000Y-103645000D03*
D15*
X102095000Y-102940000D03*
X101595000Y-102940000D03*
X101095000Y-102940000D03*
X100595000Y-102940000D03*
X100095000Y-102940000D03*
X99595000Y-102940000D03*
D16*
X100195000Y-104245000D03*
X100195000Y-105545000D03*
X101495000Y-104245000D03*
X101495000Y-105545000D03*
X100195000Y-104245000D03*
X100195000Y-105545000D03*
X101495000Y-104245000D03*
X101495000Y-105545000D03*
D17*
X100845000Y-104895000D03*
D18*
X83285000Y-94285000D03*
X86715000Y-94285000D03*
X83285000Y-95555000D03*
X86715000Y-95555000D03*
X83285000Y-96825000D03*
X86715000Y-96825000D03*
X83285000Y-98095000D03*
X86715000Y-98095000D03*
X83285000Y-99365000D03*
X86715000Y-99365000D03*
X83285000Y-100635000D03*
X86715000Y-100635000D03*
X83285000Y-101905000D03*
X86715000Y-101905000D03*
X83285000Y-103175000D03*
X86715000Y-103175000D03*
X83285000Y-104445000D03*
X86715000Y-104445000D03*
X83285000Y-105715000D03*
X86715000Y-105715000D03*
X113285000Y-94285000D03*
X116715000Y-94285000D03*
X113285000Y-95555000D03*
X116715000Y-95555000D03*
X113285000Y-96825000D03*
X116715000Y-96825000D03*
X113285000Y-98095000D03*
X116715000Y-98095000D03*
X113285000Y-99365000D03*
X116715000Y-99365000D03*
X113285000Y-100635000D03*
X116715000Y-100635000D03*
X113285000Y-101905000D03*
X116715000Y-101905000D03*
X113285000Y-103175000D03*
X116715000Y-103175000D03*
X113285000Y-104445000D03*
X116715000Y-104445000D03*
X113285000Y-105715000D03*
X116715000Y-105715000D03*
D19*
X102500000Y-116500000D03*
X102500000Y-112000000D03*
D20*
X89975000Y-84630000D03*
X89525000Y-84630000D03*
D21*
X89750000Y-83930000D03*
D22*
X91360000Y-86820000D03*
X92020000Y-86820000D03*
X92680000Y-86820000D03*
D23*
X92350000Y-85830000D03*
D22*
X93340000Y-86820000D03*
D24*
X91360000Y-83835000D03*
X92020000Y-83835000D03*
X92680000Y-83835000D03*
X93340000Y-83835000D03*
D25*
X88250000Y-88545000D03*
X88250000Y-88095000D03*
D26*
X88950000Y-88320000D03*
D27*
X110130000Y-109205000D03*
X108860000Y-109205000D03*
X107590000Y-109205000D03*
X106320000Y-109205000D03*
X106320000Y-114545000D03*
X107590000Y-114545000D03*
X108860000Y-114545000D03*
X110130000Y-114545000D03*
D28*
X108225000Y-112565000D03*
D11*
X97880000Y-100680000D03*
X97880000Y-99780000D03*
X92520000Y-104890000D03*
X92520000Y-103990000D03*
X95975000Y-101345000D03*
X95975000Y-100445000D03*
X102045000Y-100295000D03*
X102045000Y-101195000D03*
X94700000Y-103550000D03*
X93800000Y-103550000D03*
X88820000Y-85820000D03*
X89720000Y-85820000D03*
X103255000Y-101195000D03*
X103255000Y-100295000D03*
X90255000Y-100365000D03*
X90255000Y-101265000D03*
X93840000Y-82280000D03*
X92940000Y-82280000D03*
X87850000Y-89500000D03*
X88750000Y-89500000D03*
X89980000Y-88420000D03*
X89980000Y-89320000D03*
X97110000Y-90810000D03*
X97110000Y-91710000D03*
D29*
X103330000Y-107740000D03*
X103330000Y-109340000D03*
D11*
X104295000Y-105335000D03*
X105195000Y-105335000D03*
X89980000Y-94160000D03*
X89980000Y-93260000D03*
D29*
X106530000Y-104090000D03*
X106530000Y-105690000D03*
D30*
X96012500Y-90810000D03*
X96012500Y-93260000D03*
X91087500Y-90810000D03*
D31*
X95450000Y-94390000D03*
D32*
X94125000Y-94395000D03*
D33*
X94762500Y-92170000D03*
D34*
X95455000Y-88695000D03*
X94185000Y-88695000D03*
X92915000Y-88695000D03*
X91645000Y-88695000D03*
D32*
X92975000Y-94395000D03*
D33*
X92337500Y-92170000D03*
D31*
X91650000Y-94390000D03*
D30*
X91087500Y-93260000D03*
D35*
X99216000Y-109645000D03*
X99216000Y-110295000D03*
X99216000Y-111595000D03*
X99216000Y-110945000D03*
X96444000Y-111595000D03*
X96444000Y-110945000D03*
X96444000Y-110295000D03*
X96444000Y-109645000D03*
D36*
X97396000Y-110620000D03*
D37*
X98501000Y-110620000D03*
D38*
X92365000Y-101955000D03*
X92865000Y-101955000D03*
X93365000Y-101955000D03*
X93865000Y-101955000D03*
D39*
X94665000Y-101155000D03*
X94665000Y-100655000D03*
X94665000Y-100155000D03*
X94665000Y-99655000D03*
D38*
X93865000Y-98855000D03*
X93365000Y-98855000D03*
X92865000Y-98855000D03*
X92365000Y-98855000D03*
D39*
X91565000Y-99655000D03*
X91565000Y-100155000D03*
X91565000Y-100655000D03*
X91565000Y-101155000D03*
D40*
X92810000Y-100710000D03*
X93420000Y-100710000D03*
X92810000Y-100100000D03*
X93420000Y-100100000D03*
D41*
X93115000Y-100405000D03*
D11*
X90200000Y-97650000D03*
X90200000Y-96750000D03*
D10*
G36*
X114521558Y-88552287D02*
X114567668Y-88559127D01*
X114612885Y-88570453D01*
X114656775Y-88586157D01*
X114698913Y-88606087D01*
X114738896Y-88630052D01*
X114776337Y-88657820D01*
X114810876Y-88689124D01*
X114842180Y-88723663D01*
X114869948Y-88761104D01*
X114893913Y-88801087D01*
X114913843Y-88843225D01*
X114929547Y-88887115D01*
X114940873Y-88932332D01*
X114947713Y-88978442D01*
X114950000Y-89025000D01*
X114950000Y-89975000D01*
X114947713Y-90021558D01*
X114940873Y-90067668D01*
X114929547Y-90112885D01*
X114913843Y-90156775D01*
X114893913Y-90198913D01*
X114869948Y-90238896D01*
X114842180Y-90276337D01*
X114810876Y-90310876D01*
X114776337Y-90342180D01*
X114738896Y-90369948D01*
X114698913Y-90393913D01*
X114656775Y-90413843D01*
X114612885Y-90429547D01*
X114567668Y-90440873D01*
X114521558Y-90447713D01*
X114475000Y-90450000D01*
X113525000Y-90450000D01*
X113478442Y-90447713D01*
X113432332Y-90440873D01*
X113387115Y-90429547D01*
X113343225Y-90413843D01*
X113301087Y-90393913D01*
X113261104Y-90369948D01*
X113223663Y-90342180D01*
X113189124Y-90310876D01*
X113157820Y-90276337D01*
X113130052Y-90238896D01*
X113106087Y-90198913D01*
X113086157Y-90156775D01*
X113070453Y-90112885D01*
X113059127Y-90067668D01*
X113052287Y-90021558D01*
X113050000Y-89975000D01*
X113050000Y-89025000D01*
X113052287Y-88978442D01*
X113059127Y-88932332D01*
X113070453Y-88887115D01*
X113086157Y-88843225D01*
X113106087Y-88801087D01*
X113130052Y-88761104D01*
X113157820Y-88723663D01*
X113189124Y-88689124D01*
X113223663Y-88657820D01*
X113261104Y-88630052D01*
X113301087Y-88606087D01*
X113343225Y-88586157D01*
X113387115Y-88570453D01*
X113432332Y-88559127D01*
X113478442Y-88552287D01*
X113525000Y-88550000D01*
X114475000Y-88550000D01*
X114521558Y-88552287D01*
X114521558Y-88552287D01*
G37*
D42*
X95540000Y-103490000D03*
X98460000Y-101710000D03*
D43*
X90200000Y-95800000D03*
D42*
X95710000Y-109650000D03*
X104470000Y-102370000D03*
X97840000Y-115610000D03*
X116090000Y-110290000D03*
D43*
X81820000Y-94280000D03*
D42*
X95935000Y-99395000D03*
X100840000Y-99480000D03*
X99200000Y-102040000D03*
X95390000Y-104850000D03*
X96340000Y-94400000D03*
X88580000Y-87460000D03*
D43*
X111820000Y-105710000D03*
X111820000Y-94290000D03*
X118180000Y-94290000D03*
X118180000Y-105720000D03*
X81820000Y-105720000D03*
X88180000Y-105720000D03*
X88180000Y-94290000D03*
D42*
X90280000Y-86800000D03*
X105420000Y-103980000D03*
X105420000Y-106170000D03*
X101270000Y-82020000D03*
X105000000Y-111470000D03*
X103859313Y-110329313D03*
X91780000Y-102610000D03*
X94550000Y-102610000D03*
X111330000Y-106520000D03*
X100690000Y-117160000D03*
X101840000Y-118310000D03*
X106540000Y-106690000D03*
X109060000Y-105880000D03*
X97670000Y-87690000D03*
X98730000Y-87690000D03*
X102540000Y-90470000D03*
X93650000Y-96580000D03*
X95940000Y-97550000D03*
X101270000Y-90470000D03*
X94170000Y-97920000D03*
X91720000Y-97760000D03*
X98830000Y-106820000D03*
X97460000Y-107050000D03*
X100940000Y-108160000D03*
X95910000Y-107040000D03*
X95990000Y-102170000D03*
X97780000Y-102170000D03*
D43*
X81820000Y-95560000D03*
X88180000Y-95570000D03*
X81820000Y-96820000D03*
X88180000Y-96820000D03*
X81820000Y-98090000D03*
X81820000Y-99360000D03*
X88180000Y-99370000D03*
X81820000Y-100630000D03*
X88180000Y-100640000D03*
X81820000Y-101900000D03*
X88180000Y-101910000D03*
X81820000Y-103180000D03*
X88180000Y-103180000D03*
X81820000Y-104450000D03*
X88180000Y-104450000D03*
X88180000Y-98100000D03*
D42*
X96560000Y-82780000D03*
X100000000Y-90470000D03*
X103700000Y-90460000D03*
X103700000Y-86650000D03*
D43*
X103590000Y-82785000D03*
X111820000Y-95550000D03*
X118180000Y-95560000D03*
X111820000Y-96830000D03*
X118180000Y-96820000D03*
X111820000Y-98090000D03*
X118180000Y-98100000D03*
X111820000Y-99370000D03*
X118180000Y-99360000D03*
X111820000Y-100640000D03*
X118180000Y-100640000D03*
X111820000Y-101910000D03*
X118180000Y-101910000D03*
X111820000Y-103180000D03*
X118180000Y-103170000D03*
X118175000Y-104450000D03*
X111820000Y-104450000D03*
D42*
X100000000Y-82020000D03*
D44*
X95540000Y-103490000D02*
X94760000Y-103490000D01*
X92520000Y-104890000D02*
X92530002Y-104890000D01*
X92530002Y-104890000D02*
X95430000Y-107789998D01*
X95430000Y-107789998D02*
X96312350Y-107789998D01*
X96312350Y-107789998D02*
X96780000Y-107322348D01*
X96780000Y-107322348D02*
X96780000Y-106120000D01*
X94700000Y-103550000D02*
X94700000Y-105140000D01*
X97030000Y-105870000D02*
X97030000Y-105450000D01*
X96780000Y-106120000D02*
X97030000Y-105870000D01*
X95680000Y-106120000D02*
X96780000Y-106120000D01*
X94700000Y-105140000D02*
X95680000Y-106120000D01*
X94760000Y-103490000D02*
X94700000Y-103550000D01*
X97880000Y-100680000D02*
X97880000Y-101130000D01*
X97880000Y-101130000D02*
X98460000Y-101710000D01*
X98890000Y-105145000D02*
X97335000Y-105145000D01*
X97335000Y-105145000D02*
X97030000Y-105450000D01*
D45*
X90200000Y-96750000D02*
X90200000Y-95800000D01*
D44*
X95715000Y-109645000D02*
X95710000Y-109650000D01*
X95715000Y-109645000D02*
X96444000Y-109645000D01*
X104110000Y-103010000D02*
X104110000Y-102730000D01*
X104110000Y-102730000D02*
X104470000Y-102370000D01*
D46*
X97840000Y-116790000D02*
X97840000Y-115610000D01*
X115010000Y-110290000D02*
X116090000Y-110290000D01*
X81820000Y-94280000D02*
X81825000Y-94285000D01*
D47*
X81825000Y-94285000D02*
X83285000Y-94285000D01*
D44*
X95975000Y-99435000D02*
X95935000Y-99395000D01*
X95975000Y-100445000D02*
X95975000Y-99435000D01*
X94665000Y-100655000D02*
X95765000Y-100655000D01*
X95765000Y-100655000D02*
X95975000Y-100445000D01*
D45*
X100835000Y-100295000D02*
X100835000Y-99485000D01*
X100835000Y-99485000D02*
X100840000Y-99480000D01*
D44*
X100095000Y-102940000D02*
X100095000Y-102345000D01*
X99790000Y-102040000D02*
X99200000Y-102040000D01*
X100095000Y-102345000D02*
X99790000Y-102040000D01*
D45*
X96130000Y-104850000D02*
X95390000Y-104850000D01*
X96130000Y-104250000D02*
X96130000Y-104850000D01*
X96130000Y-104850000D02*
X96130000Y-105450000D01*
X100835000Y-100295000D02*
X99625000Y-100295000D01*
X100835000Y-100295000D02*
X102045000Y-100295000D01*
D44*
X100095000Y-102940000D02*
X100095000Y-104145000D01*
X100095000Y-104145000D02*
X100195000Y-104245000D01*
X97110000Y-93820000D02*
X96920000Y-93820000D01*
X96920000Y-93820000D02*
X96340000Y-94400000D01*
D48*
X88250000Y-88095000D02*
X88250000Y-87790000D01*
X88250000Y-87790000D02*
X88580000Y-87460000D01*
D47*
X113285000Y-105715000D02*
X111825000Y-105715000D01*
X111825000Y-105715000D02*
X111820000Y-105710000D01*
X111820000Y-94290000D02*
X111825000Y-94285000D01*
X111825000Y-94285000D02*
X113285000Y-94285000D01*
X118180000Y-94290000D02*
X118175000Y-94285000D01*
X118175000Y-94285000D02*
X116715000Y-94285000D01*
X116715000Y-105715000D02*
X118175000Y-105715000D01*
X118175000Y-105715000D02*
X118180000Y-105720000D01*
X83285000Y-105715000D02*
X81825000Y-105715000D01*
X81825000Y-105715000D02*
X81820000Y-105720000D01*
X88180000Y-105720000D02*
X88175000Y-105715000D01*
X88175000Y-105715000D02*
X86715000Y-105715000D01*
D44*
X100095000Y-104145000D02*
X100195000Y-104245000D01*
X94665000Y-100655000D02*
X93365000Y-100655000D01*
X93365000Y-100655000D02*
X93115000Y-100405000D01*
X91565000Y-101155000D02*
X92365000Y-101155000D01*
X92365000Y-101155000D02*
X92810000Y-100710000D01*
X91565000Y-100655000D02*
X92755000Y-100655000D01*
X92755000Y-100655000D02*
X92810000Y-100710000D01*
D47*
X86715000Y-94285000D02*
X88175000Y-94285000D01*
D44*
X88175000Y-94285000D02*
X88180000Y-94290000D01*
X89720000Y-85820000D02*
X89720000Y-86240000D01*
X89720000Y-86240000D02*
X90280000Y-86800000D01*
X89720000Y-85820000D02*
X89870000Y-85820000D01*
X89870000Y-85820000D02*
X90080000Y-85610000D01*
X90080000Y-85610000D02*
X90080000Y-84810000D01*
D48*
X89975000Y-84630000D02*
X89975000Y-84705000D01*
X89975000Y-84705000D02*
X90100000Y-84830000D01*
X90100000Y-84830000D02*
X89975000Y-84630000D01*
D44*
X98970000Y-99830000D02*
X97930000Y-99830000D01*
X97930000Y-99830000D02*
X97880000Y-99780000D01*
X103255000Y-100295000D02*
X103165000Y-100295000D01*
X103165000Y-100295000D02*
X101690000Y-98820000D01*
X101690000Y-98820000D02*
X99980000Y-98820000D01*
X99980000Y-98820000D02*
X98970000Y-99830000D01*
X98970000Y-99830000D02*
X98970000Y-100220000D01*
X98970000Y-100220000D02*
X98970000Y-100300000D01*
X98970000Y-100300000D02*
X98970000Y-100890000D01*
X98970000Y-100890000D02*
X99275000Y-101195000D01*
X99275000Y-101195000D02*
X99625000Y-101195000D01*
X100595000Y-102940000D02*
X100595000Y-102165000D01*
X100595000Y-102165000D02*
X99625000Y-101195000D01*
X101095000Y-102940000D02*
X101095000Y-101455000D01*
X101095000Y-101455000D02*
X100835000Y-101195000D01*
X102800000Y-104145000D02*
X103875000Y-104145000D01*
X103875000Y-104145000D02*
X104110000Y-103910000D01*
X98845002Y-89335002D02*
X104665000Y-89335002D01*
X98300000Y-89335002D02*
X96354998Y-89335002D01*
X96354998Y-89335002D02*
X95940000Y-89750000D01*
X94160000Y-89750000D02*
X95940000Y-89750000D01*
X98300000Y-89335002D02*
X98845002Y-89335002D01*
X104720000Y-106870000D02*
X104700000Y-106870000D01*
X104720000Y-106870000D02*
X105420000Y-106170000D01*
X105420000Y-103640000D02*
X105420000Y-103980000D01*
X105889998Y-103170002D02*
X105420000Y-103640000D01*
X105889998Y-90560000D02*
X105889998Y-103170002D01*
X104665000Y-89335002D02*
X105889998Y-90560000D01*
X106680000Y-107720000D02*
X105550000Y-107720000D01*
X105550000Y-107720000D02*
X105585000Y-107755000D01*
X94185000Y-88695000D02*
X94185000Y-89750000D01*
X94185000Y-89750000D02*
X94160000Y-89750000D01*
X94160000Y-89750000D02*
X93640000Y-89750000D01*
X90410000Y-89750000D02*
X89980000Y-89320000D01*
X93640000Y-89750000D02*
X90410000Y-89750000D01*
X102800000Y-105645000D02*
X103475000Y-105645000D01*
X103475000Y-105645000D02*
X104700000Y-106870000D01*
X106320000Y-108490000D02*
X106320000Y-109205000D01*
X104700000Y-106870000D02*
X105585000Y-107755000D01*
X105585000Y-107755000D02*
X106320000Y-108490000D01*
D46*
X106530000Y-91390000D02*
X106530000Y-90294216D01*
X106530000Y-104090000D02*
X106530000Y-91390000D01*
X104930784Y-88695000D02*
X98573626Y-88695000D01*
X106530000Y-90294216D02*
X104930784Y-88695000D01*
D44*
X107580000Y-107720000D02*
X107590000Y-107720000D01*
X107590000Y-107720000D02*
X108315000Y-106995000D01*
D49*
X106530000Y-104090000D02*
X107080000Y-104090000D01*
X108860000Y-107540000D02*
X108860000Y-109205000D01*
X107850000Y-106530000D02*
X108315000Y-106995000D01*
X108315000Y-106995000D02*
X108860000Y-107540000D01*
X107850000Y-104860000D02*
X107850000Y-106530000D01*
X107080000Y-104090000D02*
X107850000Y-104860000D01*
D44*
X107580000Y-109195000D02*
X107590000Y-109205000D01*
X102800000Y-104645000D02*
X105975000Y-104645000D01*
X105975000Y-104645000D02*
X106530000Y-104090000D01*
D46*
X98573626Y-88695000D02*
X98575002Y-88695000D01*
X95455000Y-88695000D02*
X98573626Y-88695000D01*
D44*
X99595000Y-106850000D02*
X99595000Y-107175000D01*
X99595000Y-107175000D02*
X99275000Y-107495000D01*
X99275000Y-107495000D02*
X98685000Y-107495000D01*
X98685000Y-107495000D02*
X98425000Y-107755000D01*
X98425000Y-107755000D02*
X98425000Y-108155000D01*
D46*
X97396000Y-110620000D02*
X97396000Y-112074000D01*
X100970000Y-118030000D02*
X102500000Y-116500000D01*
X96380000Y-118030000D02*
X100970000Y-118030000D01*
X95900000Y-117550000D02*
X96380000Y-118030000D01*
X95900000Y-113010000D02*
X95900000Y-117550000D01*
X96300000Y-112610000D02*
X95900000Y-113010000D01*
X96860000Y-112610000D02*
X96300000Y-112610000D01*
X97396000Y-112074000D02*
X96860000Y-112610000D01*
D44*
X97396000Y-109224000D02*
X97396000Y-110620000D01*
X97690000Y-108930000D02*
X97396000Y-109224000D01*
X98850000Y-108930000D02*
X97690000Y-108930000D01*
X99325000Y-108455000D02*
X98850000Y-108930000D01*
X99325000Y-108155000D02*
X99325000Y-108455000D01*
X100095000Y-106850000D02*
X100095000Y-107385000D01*
X100095000Y-107385000D02*
X99325000Y-108155000D01*
X108730004Y-89600000D02*
X108730004Y-89880002D01*
X108730004Y-86221178D02*
X108730004Y-89600000D01*
D48*
X108730004Y-89600000D02*
X108730004Y-90250000D01*
D44*
X104598826Y-82090000D02*
X108730004Y-86221178D01*
X103700000Y-82090000D02*
X104598826Y-82090000D01*
X103200000Y-81590000D02*
X103700000Y-82090000D01*
X101700000Y-81590000D02*
X103200000Y-81590000D01*
X101270000Y-82020000D02*
X101700000Y-81590000D01*
D49*
X111000000Y-90250000D02*
X108730004Y-90250000D01*
X112010000Y-108650000D02*
X112010000Y-110290000D01*
X108730004Y-102300000D02*
X108730004Y-90250000D01*
X110270000Y-103839996D02*
X108730004Y-102300000D01*
X110270000Y-106910000D02*
X110270000Y-103839996D01*
X112010000Y-108650000D02*
X110270000Y-106910000D01*
D46*
X103330000Y-109340000D02*
X103330000Y-109800000D01*
X103330000Y-109800000D02*
X103859313Y-110329313D01*
X106095000Y-112565000D02*
X108225000Y-112565000D01*
X105000000Y-111470000D02*
X106095000Y-112565000D01*
X103330000Y-109340000D02*
X103440000Y-109340000D01*
X106665000Y-112565000D02*
X108225000Y-112565000D01*
X108020000Y-112770000D02*
X108225000Y-112565000D01*
D44*
X101595000Y-106850000D02*
X101595000Y-107605000D01*
X101595000Y-107605000D02*
X103330000Y-109340000D01*
D46*
X106320000Y-114545000D02*
X106320000Y-114560000D01*
X103330000Y-109340000D02*
X103339998Y-109340000D01*
D44*
X104280000Y-107130000D02*
X104281174Y-107130000D01*
X102800000Y-106145000D02*
X103295000Y-106145000D01*
X103295000Y-106145000D02*
X104280000Y-107130000D01*
X105640000Y-109980000D02*
X108225000Y-112565000D01*
X105640000Y-108488826D02*
X105640000Y-109980000D01*
X104281174Y-107130000D02*
X105640000Y-108488826D01*
D46*
X108225000Y-112565000D02*
X109735000Y-112565000D01*
D49*
X109735000Y-112565000D02*
X112010000Y-110290000D01*
D46*
X108230000Y-112570000D02*
X108225000Y-112565000D01*
D44*
X108135000Y-112565000D02*
X108225000Y-112565000D01*
D46*
X106690000Y-114100000D02*
X108225000Y-112565000D01*
D48*
X106320000Y-114545000D02*
X106320000Y-114470000D01*
X106320000Y-114470000D02*
X108225000Y-112565000D01*
X107590000Y-114545000D02*
X107590000Y-113200000D01*
X107590000Y-113200000D02*
X108225000Y-112565000D01*
X108860000Y-114545000D02*
X108860000Y-113200000D01*
X108860000Y-113200000D02*
X108225000Y-112565000D01*
X110130000Y-114545000D02*
X110130000Y-114470000D01*
X110130000Y-114470000D02*
X108225000Y-112565000D01*
D46*
X109475000Y-113815000D02*
X108225000Y-112565000D01*
D44*
X97030000Y-104250000D02*
X97030000Y-103790000D01*
X96820000Y-103580000D02*
X97030000Y-103790000D01*
X89410002Y-101560002D02*
X90460000Y-102610000D01*
X90460000Y-102610000D02*
X91780000Y-102610000D01*
X89410002Y-94740000D02*
X89980000Y-94170002D01*
X89410002Y-94740000D02*
X89410002Y-101560002D01*
X96080000Y-102840000D02*
X96820000Y-103580000D01*
X95630000Y-102840000D02*
X96080000Y-102840000D01*
X95400000Y-102610000D02*
X95630000Y-102840000D01*
X94550000Y-102610000D02*
X95400000Y-102610000D01*
X89980000Y-94160000D02*
X89980000Y-94170002D01*
X98890000Y-104645000D02*
X97425000Y-104645000D01*
X97425000Y-104645000D02*
X97030000Y-104250000D01*
D46*
X113320000Y-108510000D02*
X111330000Y-106520000D01*
X113320000Y-113450000D02*
X110930000Y-115840000D01*
X113320000Y-108780000D02*
X113320000Y-113450000D01*
X99190000Y-113790000D02*
X99720000Y-114320000D01*
X99720000Y-116190000D02*
X99720000Y-114320000D01*
X100690000Y-117160000D02*
X99720000Y-116190000D01*
X104430000Y-118310000D02*
X101840000Y-118310000D01*
X106900000Y-115840000D02*
X104430000Y-118310000D01*
X110930000Y-115840000D02*
X106900000Y-115840000D01*
X113320000Y-108780000D02*
X113320000Y-108510000D01*
D49*
X106530000Y-105690000D02*
X106530000Y-106680000D01*
X107530002Y-89880002D02*
X105344998Y-87694998D01*
X107530002Y-102820000D02*
X107530002Y-89880002D01*
X109050002Y-104340000D02*
X107530002Y-102820000D01*
X109050002Y-105870002D02*
X109050002Y-104340000D01*
X98730000Y-87690000D02*
X98734998Y-87694998D01*
X105344998Y-87694998D02*
X98734998Y-87694998D01*
D44*
X105195000Y-105335000D02*
X105404998Y-105125002D01*
X105404998Y-105125002D02*
X105965002Y-105125002D01*
X105965002Y-105125002D02*
X106530000Y-105690000D01*
D49*
X97670000Y-87690000D02*
X98730000Y-87690000D01*
D46*
X99190000Y-113790000D02*
X97840000Y-113790000D01*
X97840000Y-113890000D02*
X97840000Y-113790000D01*
X97840000Y-113790000D02*
X97840000Y-112871000D01*
X97840000Y-112871000D02*
X98490999Y-112220001D01*
X98490999Y-112220001D02*
X98490999Y-110630001D01*
X98490999Y-110630001D02*
X98501000Y-110620000D01*
D44*
X99200000Y-93810000D02*
X99200000Y-94607860D01*
X102540000Y-90470000D02*
X99200000Y-93810000D01*
X94993820Y-96415004D02*
X94870000Y-96415004D01*
X99200000Y-94607860D02*
X97392856Y-96415004D01*
X97392856Y-96415004D02*
X94993820Y-96415004D01*
X98890000Y-103645000D02*
X98242652Y-103645000D01*
X93640000Y-96570000D02*
X93640000Y-96415004D01*
X93650000Y-96580000D02*
X93640000Y-96570000D01*
X97130002Y-98740002D02*
X95940000Y-97550000D01*
X97130002Y-102532350D02*
X97130002Y-98740002D01*
X98242652Y-103645000D02*
X97130002Y-102532350D01*
X92365000Y-98855000D02*
X92365000Y-97562860D01*
X92365000Y-97562860D02*
X93512856Y-96415004D01*
X93512856Y-96415004D02*
X93640000Y-96415004D01*
X93640000Y-96415004D02*
X94870000Y-96415004D01*
X98890000Y-103645000D02*
X98890000Y-103620000D01*
X94870000Y-96415004D02*
X94794996Y-96415004D01*
X98715002Y-93024998D02*
X98715002Y-94414032D01*
X101270000Y-90470000D02*
X98715002Y-93024998D01*
X98715002Y-93744998D02*
X98715002Y-94414032D01*
X97194032Y-95935002D02*
X98715002Y-94414032D01*
X92410002Y-96839032D02*
X91594517Y-97654517D01*
X92410002Y-96839032D02*
X93314032Y-95935002D01*
X93314032Y-95935002D02*
X97194032Y-95935002D01*
X98890000Y-104145000D02*
X98063826Y-104145000D01*
X98063826Y-104145000D02*
X96650000Y-102731174D01*
X96650000Y-102731174D02*
X96650000Y-99170000D01*
X96650000Y-99170000D02*
X95400000Y-97920000D01*
X95400000Y-97920000D02*
X94170000Y-97920000D01*
X91720000Y-97760000D02*
X91614517Y-97654517D01*
X91614517Y-97654517D02*
X91594517Y-97654517D01*
X91565000Y-99655000D02*
X91165002Y-99655000D01*
X91165002Y-99655000D02*
X90820002Y-99310000D01*
X90820002Y-98429032D02*
X91594517Y-97654517D01*
X90820002Y-99310000D02*
X90820002Y-98429032D01*
X96115000Y-111595000D02*
X96444000Y-111595000D01*
X95060000Y-110540000D02*
X96115000Y-111595000D01*
X95060000Y-109360000D02*
X95060000Y-110540000D01*
X95669998Y-108750002D02*
X95060000Y-109360000D01*
X96139998Y-108750002D02*
X95669998Y-108750002D01*
X96709998Y-108750002D02*
X96139998Y-108750002D01*
X98110000Y-107350000D02*
X96709998Y-108750002D01*
X98110000Y-105870000D02*
X98110000Y-107350000D01*
X98335000Y-105645000D02*
X98110000Y-105870000D01*
X98890000Y-105645000D02*
X98335000Y-105645000D01*
X98890000Y-106760000D02*
X98830000Y-106820000D01*
X98890000Y-106145000D02*
X98890000Y-106760000D01*
X92020000Y-103990000D02*
X92520000Y-103990000D01*
X91670000Y-104340000D02*
X92020000Y-103990000D01*
X91670000Y-105910000D02*
X91670000Y-104340000D01*
X94030000Y-108270000D02*
X91670000Y-105910000D01*
X96511174Y-108270000D02*
X94030000Y-108270000D01*
X97450587Y-107330587D02*
X96511174Y-108270000D01*
X97450587Y-107059413D02*
X97450587Y-107330587D01*
X97460000Y-107050000D02*
X97450587Y-107059413D01*
X93365000Y-101955000D02*
X93365000Y-102723826D01*
X92520000Y-103568826D02*
X92520000Y-103990000D01*
X93365000Y-102723826D02*
X92520000Y-103568826D01*
X99535000Y-111595000D02*
X99216000Y-111595000D01*
X99980000Y-111150000D02*
X99535000Y-111595000D01*
X99980000Y-108178826D02*
X99980000Y-111150000D01*
X100595000Y-107563826D02*
X99980000Y-108178826D01*
X100595000Y-106850000D02*
X100595000Y-107563826D01*
X93800000Y-103550000D02*
X93800000Y-104930000D01*
X101095000Y-108005000D02*
X100940000Y-108160000D01*
X101095000Y-108005000D02*
X101095000Y-106850000D01*
X93800000Y-104930000D02*
X95910000Y-107040000D01*
X93865000Y-101955000D02*
X93865000Y-103485000D01*
X93865000Y-103485000D02*
X93800000Y-103550000D01*
D46*
X102500000Y-112000000D02*
X103320000Y-112000000D01*
X103320000Y-112000000D02*
X103980000Y-111340000D01*
X103330000Y-107740000D02*
X103959998Y-107740000D01*
X104990000Y-110330000D02*
X103980000Y-111340000D01*
X104990000Y-108770002D02*
X104990000Y-110330000D01*
X103959998Y-107740000D02*
X104990000Y-108770002D01*
D44*
X102095000Y-106850000D02*
X102095000Y-107426174D01*
X102719413Y-108050587D02*
X103019413Y-108050587D01*
X102095000Y-107426174D02*
X102719413Y-108050587D01*
X103019413Y-108050587D02*
X103330000Y-107740000D01*
X102800000Y-105145000D02*
X104105000Y-105145000D01*
X104105000Y-105145000D02*
X104295000Y-105335000D01*
X97110000Y-91710000D02*
X97390000Y-91710000D01*
X97390000Y-91710000D02*
X97830000Y-91270000D01*
X104550000Y-101320000D02*
X103860000Y-102010000D01*
X102095000Y-102265000D02*
X102095000Y-102940000D01*
X102350000Y-102010000D02*
X103860000Y-102010000D01*
X102095000Y-102265000D02*
X102350000Y-102010000D01*
X105409996Y-100460004D02*
X104550000Y-101320000D01*
X105409996Y-90770000D02*
X105409996Y-100460004D01*
X104455000Y-89815004D02*
X105409996Y-90770000D01*
X98340000Y-89815004D02*
X104455000Y-89815004D01*
X97830000Y-90325004D02*
X98340000Y-89815004D01*
X97830000Y-91270000D02*
X97830000Y-90325004D01*
X97110000Y-91710000D02*
X97110000Y-92920000D01*
X101595000Y-102940000D02*
X101595000Y-101645000D01*
X101595000Y-101645000D02*
X102045000Y-101195000D01*
X102045000Y-101195000D02*
X103255000Y-101195000D01*
X102045000Y-101195000D02*
X101936174Y-101195000D01*
X95975000Y-102155000D02*
X95990000Y-102170000D01*
X95975000Y-101345000D02*
X95975000Y-102155000D01*
X94665000Y-101155000D02*
X95785000Y-101155000D01*
X95785000Y-101155000D02*
X95975000Y-101345000D01*
X97780000Y-102170000D02*
X98550000Y-102940000D01*
X98550000Y-102940000D02*
X99595000Y-102940000D01*
D47*
X83285000Y-95555000D02*
X81825000Y-95555000D01*
D44*
X81825000Y-95555000D02*
X81820000Y-95560000D01*
D47*
X86715000Y-95555000D02*
X88165000Y-95555000D01*
D44*
X88165000Y-95555000D02*
X88180000Y-95570000D01*
X81820000Y-96820000D02*
X81825000Y-96825000D01*
D47*
X81825000Y-96825000D02*
X83285000Y-96825000D01*
D44*
X88180000Y-96820000D02*
X88175000Y-96825000D01*
D47*
X88175000Y-96825000D02*
X86715000Y-96825000D01*
X83285000Y-98095000D02*
X81825000Y-98095000D01*
D44*
X81825000Y-98095000D02*
X81820000Y-98090000D01*
X81820000Y-99360000D02*
X81825000Y-99365000D01*
D47*
X81825000Y-99365000D02*
X83285000Y-99365000D01*
D44*
X88180000Y-99370000D02*
X88175000Y-99365000D01*
D47*
X88175000Y-99365000D02*
X86715000Y-99365000D01*
X83285000Y-100635000D02*
X81825000Y-100635000D01*
D44*
X81825000Y-100635000D02*
X81820000Y-100630000D01*
D47*
X86715000Y-100635000D02*
X88175000Y-100635000D01*
D44*
X88175000Y-100635000D02*
X88180000Y-100640000D01*
X81820000Y-101900000D02*
X81825000Y-101905000D01*
D47*
X81825000Y-101905000D02*
X83285000Y-101905000D01*
D44*
X88180000Y-101910000D02*
X88175000Y-101905000D01*
D47*
X88175000Y-101905000D02*
X86715000Y-101905000D01*
X83285000Y-103175000D02*
X81825000Y-103175000D01*
D44*
X81825000Y-103175000D02*
X81820000Y-103180000D01*
D47*
X86715000Y-103175000D02*
X88175000Y-103175000D01*
D44*
X88175000Y-103175000D02*
X88180000Y-103180000D01*
X81820000Y-104450000D02*
X81825000Y-104445000D01*
D47*
X81825000Y-104445000D02*
X83285000Y-104445000D01*
D44*
X88180000Y-104450000D02*
X88175000Y-104445000D01*
D47*
X88175000Y-104445000D02*
X86715000Y-104445000D01*
X86715000Y-98095000D02*
X88175000Y-98095000D01*
D44*
X88175000Y-98095000D02*
X88180000Y-98100000D01*
D46*
X95095000Y-82785000D02*
X96555000Y-82785000D01*
X96555000Y-82785000D02*
X96560000Y-82780000D01*
X93340000Y-83835000D02*
X94045000Y-83835000D01*
X94045000Y-83835000D02*
X95095000Y-82785000D01*
D44*
X93840000Y-82280000D02*
X94590000Y-82280000D01*
X94590000Y-82280000D02*
X95095000Y-82785000D01*
D45*
X90200000Y-97650000D02*
X90200000Y-98140000D01*
X90200000Y-98140000D02*
X90255000Y-98195000D01*
X98150000Y-92320000D02*
X98150000Y-94180000D01*
X100000000Y-90470000D02*
X98150000Y-92320000D01*
X98150000Y-93030000D02*
X98150000Y-94180000D01*
X90255000Y-98195000D02*
X91845000Y-96605000D01*
X93080000Y-95370000D02*
X91845000Y-96605000D01*
X96960000Y-95370000D02*
X93080000Y-95370000D01*
X98150000Y-94180000D02*
X96960000Y-95370000D01*
X90255000Y-98195000D02*
X90255000Y-100365000D01*
D44*
X91565000Y-100155000D02*
X90465000Y-100155000D01*
X90465000Y-100155000D02*
X90255000Y-100365000D01*
X105530000Y-83700000D02*
X105530000Y-85340000D01*
X92865000Y-98855000D02*
X92865000Y-98285000D01*
X97591680Y-96895006D02*
X97392856Y-96895006D01*
X97392856Y-96895006D02*
X94993820Y-96895006D01*
X94254994Y-96895006D02*
X94993820Y-96895006D01*
X92865000Y-98285000D02*
X94254994Y-96895006D01*
X99680002Y-94806684D02*
X97591680Y-96895006D01*
X103700000Y-90460000D02*
X99680002Y-94479998D01*
X99680002Y-94479998D02*
X99680002Y-94806684D01*
X104615000Y-82785000D02*
X103590000Y-82785000D01*
X104615000Y-82785000D02*
X105530000Y-83700000D01*
X104220000Y-86650000D02*
X103700000Y-86650000D01*
X105530000Y-85340000D02*
X104220000Y-86650000D01*
D47*
X116715000Y-95555000D02*
X113285000Y-95555000D01*
D44*
X111820000Y-95550000D02*
X111825000Y-95555000D01*
D47*
X111825000Y-95555000D02*
X113285000Y-95555000D01*
X116715000Y-95555000D02*
X118175000Y-95555000D01*
D44*
X118175000Y-95555000D02*
X118180000Y-95560000D01*
D47*
X116715000Y-96825000D02*
X113285000Y-96825000D01*
D44*
X111820000Y-96830000D02*
X111825000Y-96825000D01*
D47*
X111825000Y-96825000D02*
X113285000Y-96825000D01*
D44*
X118180000Y-96820000D02*
X118175000Y-96825000D01*
D47*
X118175000Y-96825000D02*
X116715000Y-96825000D01*
D44*
X111820000Y-98090000D02*
X111825000Y-98095000D01*
D47*
X111825000Y-98095000D02*
X113285000Y-98095000D01*
X116715000Y-98095000D02*
X118175000Y-98095000D01*
D44*
X118175000Y-98095000D02*
X118180000Y-98100000D01*
X111820000Y-99370000D02*
X111825000Y-99365000D01*
D47*
X111825000Y-99365000D02*
X113285000Y-99365000D01*
D44*
X118180000Y-99360000D02*
X118175000Y-99365000D01*
D47*
X118175000Y-99365000D02*
X116715000Y-99365000D01*
D44*
X111820000Y-100640000D02*
X111825000Y-100635000D01*
D47*
X111825000Y-100635000D02*
X113285000Y-100635000D01*
X116715000Y-100635000D02*
X118175000Y-100635000D01*
D44*
X118175000Y-100635000D02*
X118180000Y-100640000D01*
X111820000Y-101910000D02*
X111825000Y-101905000D01*
D47*
X111825000Y-101905000D02*
X113285000Y-101905000D01*
D44*
X118180000Y-101910000D02*
X118175000Y-101905000D01*
D47*
X118175000Y-101905000D02*
X116715000Y-101905000D01*
D44*
X111820000Y-103180000D02*
X111825000Y-103175000D01*
D47*
X111825000Y-103175000D02*
X113285000Y-103175000D01*
D44*
X118180000Y-103170000D02*
X118175000Y-103175000D01*
D47*
X118175000Y-103175000D02*
X116715000Y-103175000D01*
X116715000Y-104445000D02*
X118170000Y-104445000D01*
X118170000Y-104445000D02*
X118175000Y-104450000D01*
X116715000Y-104445000D02*
X113285000Y-104445000D01*
D44*
X111820000Y-104450000D02*
X111825000Y-104445000D01*
D47*
X111825000Y-104445000D02*
X113285000Y-104445000D01*
D44*
X90431174Y-103260000D02*
X90210000Y-103260000D01*
X92865000Y-101955000D02*
X92865000Y-102545000D01*
X92150000Y-103260000D02*
X90431174Y-103260000D01*
X92865000Y-102545000D02*
X92150000Y-103260000D01*
X90210000Y-103260000D02*
X88930000Y-101980000D01*
X88930000Y-93980000D02*
X88930000Y-101980000D01*
X88820000Y-85820000D02*
X88600000Y-85820000D01*
X88600000Y-85820000D02*
X87160000Y-87260000D01*
X87160000Y-92210000D02*
X88930000Y-93980000D01*
X87160000Y-87260000D02*
X87160000Y-92210000D01*
X88820000Y-85820000D02*
X88820000Y-85220000D01*
X88820000Y-85220000D02*
X89410000Y-84630000D01*
D48*
X89525000Y-84630000D02*
X89410000Y-84630000D01*
D44*
X89750000Y-83930000D02*
X91265000Y-83930000D01*
X91265000Y-83930000D02*
X91360000Y-83835000D01*
X92940000Y-82280000D02*
X92290000Y-82280000D01*
X91360000Y-83210000D02*
X91360000Y-83835000D01*
X92290000Y-82280000D02*
X91360000Y-83210000D01*
X92915000Y-87660000D02*
X90010000Y-87660000D01*
X87680000Y-88710000D02*
X87850000Y-88880000D01*
X87680000Y-87430000D02*
X87680000Y-88710000D01*
X88370000Y-86740000D02*
X87680000Y-87430000D01*
X89090000Y-86740000D02*
X88370000Y-86740000D01*
X90010000Y-87660000D02*
X89090000Y-86740000D01*
X87850000Y-89500000D02*
X87850000Y-88880000D01*
X87850000Y-88880000D02*
X87850000Y-88860000D01*
X87850000Y-88860000D02*
X88030000Y-88680000D01*
D48*
X88030000Y-88680000D02*
X88165000Y-88545000D01*
X88250000Y-88545000D02*
X88165000Y-88545000D01*
D46*
X92915000Y-88695000D02*
X92915000Y-87660000D01*
X92915000Y-87660000D02*
X92915000Y-86395000D01*
X92915000Y-86395000D02*
X92350000Y-85830000D01*
X92895000Y-86375000D02*
X92350000Y-85830000D01*
D44*
X92680000Y-86820000D02*
X92020000Y-86820000D01*
X92020000Y-86820000D02*
X91360000Y-86820000D01*
X92680000Y-86820000D02*
X93340000Y-86820000D01*
D48*
X92680000Y-86820000D02*
X92680000Y-86160000D01*
X92680000Y-86160000D02*
X92350000Y-85830000D01*
X92020000Y-86820000D02*
X92020000Y-86160000D01*
X92020000Y-86160000D02*
X92350000Y-85830000D01*
D44*
X88950000Y-88320000D02*
X88950000Y-89300000D01*
X88950000Y-89300000D02*
X88750000Y-89500000D01*
X88950000Y-88320000D02*
X89880000Y-88320000D01*
X89880000Y-88320000D02*
X89980000Y-88420000D01*
X89980000Y-88420000D02*
X91370000Y-88420000D01*
X91370000Y-88420000D02*
X91645000Y-88695000D01*
X90255000Y-101265000D02*
X90255000Y-101505000D01*
X90255000Y-101505000D02*
X90705000Y-101955000D01*
X90705000Y-101955000D02*
X92365000Y-101955000D01*
X90255000Y-101265000D02*
X90255000Y-101315000D01*
X96012500Y-90810000D02*
X97110000Y-90810000D01*
D48*
X92975000Y-94375000D02*
X92975000Y-92787500D01*
X94125000Y-94375000D02*
X94125000Y-92787500D01*
X95450000Y-94370000D02*
X95450000Y-92837500D01*
D45*
X89980000Y-93260000D02*
X91087500Y-93260000D01*
D48*
X92337500Y-92170000D02*
X92337500Y-92060000D01*
X92337500Y-92060000D02*
X91087500Y-90810000D01*
X91087500Y-93260000D02*
X91247500Y-93260000D01*
X91247500Y-93260000D02*
X92337500Y-92170000D01*
X91650000Y-92857500D02*
X92337500Y-92170000D01*
X92975000Y-92807500D02*
X92337500Y-92170000D01*
X94125000Y-92807500D02*
X94762500Y-92170000D01*
X95450000Y-92857500D02*
X94762500Y-92170000D01*
X94762500Y-92170000D02*
X94922500Y-92170000D01*
X94922500Y-92170000D02*
X96012500Y-93260000D01*
X94762500Y-92170000D02*
X94762500Y-92060000D01*
X94762500Y-92060000D02*
X96012500Y-90810000D01*
X91650000Y-94370000D02*
X91650000Y-92837500D01*
D44*
X114000000Y-89500000D02*
X113750000Y-89500000D01*
X113750000Y-89500000D02*
X112880000Y-88630000D01*
X111660000Y-85930000D02*
X112880000Y-87150000D01*
X100000000Y-82020000D02*
X100910002Y-81109998D01*
X109117652Y-85930000D02*
X111660000Y-85930000D01*
X104797650Y-81609998D02*
X109117652Y-85930000D01*
X103900000Y-81609998D02*
X104797650Y-81609998D01*
X103400000Y-81109998D02*
X103900000Y-81609998D01*
X100910002Y-81109998D02*
X103400000Y-81109998D01*
X112880000Y-87150000D02*
X112880000Y-88630000D01*
D48*
G36*
X99340000Y-111068549D02*
X98991000Y-111068549D01*
X98976267Y-111070000D01*
X98320000Y-111070000D01*
X98320000Y-109520000D01*
X99340000Y-109520000D01*
X99340000Y-111068549D01*
X99340000Y-111068549D01*
G37*
X99340000Y-111068549D02*
X98991000Y-111068549D01*
X98976267Y-111070000D01*
X98320000Y-111070000D01*
X98320000Y-109520000D01*
X99340000Y-109520000D01*
X99340000Y-111068549D01*
G36*
X96570000Y-111068549D02*
X96320000Y-111068549D01*
X96320000Y-109520000D01*
X96570000Y-109520000D01*
X96570000Y-111068549D01*
X96570000Y-111068549D01*
G37*
X96570000Y-111068549D02*
X96320000Y-111068549D01*
X96320000Y-109520000D01*
X96570000Y-109520000D01*
X96570000Y-111068549D01*
G36*
X110330000Y-109740000D02*
X107390000Y-109740000D01*
X107390000Y-108670000D01*
X110330000Y-108670000D01*
X110330000Y-109740000D01*
X110330000Y-109740000D01*
G37*
X110330000Y-109740000D02*
X107390000Y-109740000D01*
X107390000Y-108670000D01*
X110330000Y-108670000D01*
X110330000Y-109740000D01*
G36*
X95670000Y-94020000D02*
X91430000Y-94020000D01*
X91430000Y-90320000D01*
X95670000Y-90320000D01*
X95670000Y-94020000D01*
X95670000Y-94020000D01*
G37*
X95670000Y-94020000D02*
X91430000Y-94020000D01*
X91430000Y-90320000D01*
X95670000Y-90320000D01*
X95670000Y-94020000D01*
G36*
X93440000Y-84230000D02*
X91920000Y-84230000D01*
X91920000Y-83440000D01*
X93440000Y-83440000D01*
X93440000Y-84230000D01*
X93440000Y-84230000D01*
G37*
X93440000Y-84230000D02*
X91920000Y-84230000D01*
X91920000Y-83440000D01*
X93440000Y-83440000D01*
X93440000Y-84230000D01*
M02*
