M48
;DRILL file {KiCad 201609280951+7255~55~ubuntu14.04.1-} date Wed Jan 11 23:22:21 2017
;FORMAT={-:-/ absolute / inch / decimal}
FMAT,2
INCH,TZ
T1C0.012
T2C0.016
T3C0.039
%
G90
G05
M72
T1
X3.6732Y-3.8524
X3.6732Y-3.9075
X3.6732Y-3.9626
X3.7283Y-3.8524
X3.7283Y-3.9075
X3.7283Y-3.9626
X3.7835Y-3.8524
X3.7835Y-3.9075
X3.7835Y-3.9626
T2
X3.2185Y-3.9114
X3.2185Y-3.9626
X3.2205Y-4.0118
X3.2213Y-3.7118
X3.2213Y-3.7622
X3.2213Y-3.8118
X3.2213Y-3.8618
X3.2213Y-4.0622
X3.2213Y-4.1122
X3.2213Y-4.1622
X3.4717Y-3.7122
X3.4717Y-3.7626
X3.4717Y-3.8118
X3.4717Y-3.8622
X3.4717Y-3.9622
X3.4717Y-4.0122
X3.4724Y-3.9114
X3.4724Y-4.063
X3.4724Y-4.1122
X3.4724Y-4.1614
X3.5551Y-4.1083
X3.563Y-3.6516
X3.6083Y-3.6575
X3.6122Y-4.0571
X3.624Y-3.7992
X3.628Y-4.
X3.6299Y-3.4744
X3.6417Y-4.0331
X3.6457Y-4.3898
X3.6535Y-4.315
X3.6555Y-3.6535
X3.6654Y-4.2146
X3.6752Y-3.4764
X3.687Y-4.315
X3.687Y-4.3898
X3.689Y-3.7224
X3.6949Y-3.6752
X3.7047Y-3.5512
X3.7244Y-3.3858
X3.7244Y-3.4764
X3.7398Y-4.1161
X3.7421Y-3.6772
X3.7579Y-3.5512
X3.7697Y-3.7047
X3.8248Y-3.7264
X3.8366Y-3.813
X3.8453Y-3.4524
X3.8524Y-4.1083
X3.8583Y-3.6713
X3.8799Y-4.1417
X3.8839Y-3.939
X3.8839Y-4.0157
X3.887Y-3.4524
X3.8976Y-3.6476
X3.8996Y-3.5492
X3.9291Y-3.9945
X3.9547Y-3.7972
X3.9606Y-4.0118
X3.9941Y-3.8701
X4.065Y-4.2126
X4.0748Y-3.9961
X4.0886Y-3.2697
X4.1181Y-4.2323
X4.128Y-3.7008
X4.1319Y-3.7382
X4.1378Y-3.4606
X4.1594Y-3.6791
X4.1594Y-4.435
X4.185Y-3.7264
X4.2283Y-4.435
X4.2382Y-4.0689
X4.25Y-3.937
X4.2697Y-4.435
X4.2717Y-4.1713
X4.311Y-4.435
X4.3524Y-4.435
X4.3701Y-4.2008
X4.4016Y-4.0118
X4.4016Y-4.1614
X4.4024Y-3.7122
X4.4024Y-3.7618
X4.4024Y-3.8122
X4.4024Y-3.8618
X4.4024Y-3.9122
X4.4024Y-3.9622
X4.4024Y-4.0622
X4.4024Y-4.1122
X4.6524Y-4.112
X4.6528Y-3.7122
X4.6528Y-3.7622
X4.6528Y-3.8118
X4.6528Y-3.9118
X4.6528Y-3.9622
X4.6528Y-4.0122
X4.6528Y-4.0618
X4.6528Y-4.1622
X4.6535Y-3.8622
T3
X4.5039Y-3.5472
T3
X3.5827Y-4.2343G85X3.5827Y-4.4114
G05
X4.2913Y-3.4626G85X4.2913Y-3.6398
G05
T0
M30
