M48
;DRILL file {KiCad no-vcs-found-d3b382c~59~ubuntu16.04.1} date Sat Jul 22 14:16:28 2017
;FORMAT={-:-/ absolute / inch / decimal}
FMAT,2
INCH,TZ
T1C0.008
T2C0.012
T3C0.016
%
G90
G05
M72
T1
X3.6594Y-3.315
X3.6594Y-3.3622
X3.7067Y-3.315
X3.7067Y-3.3622
X4.1673Y-3.315
X4.1673Y-3.3622
X4.2146Y-3.315
X4.2146Y-3.3622
T2
X3.3465Y-4.3012
X3.374Y-4.3622
X3.4508Y-4.4547
X3.498Y-4.3602
X3.502Y-4.5059
X3.5236Y-4.3071
X3.5285Y-3.9685
X3.5335Y-4.4409
X3.5512Y-4.1476
X3.563Y-3.3976
X3.5984Y-3.3287
X3.5984Y-3.3524
X3.5984Y-3.376
X3.6319Y-4.5571
X3.6654Y-3.4508
X3.6929Y-3.9882
X3.7087Y-4.3307
X3.7087Y-4.372
X3.7146Y-3.624
X3.7205Y-3.5217
X3.7244Y-3.774
X3.7421Y-3.6457
X3.7657Y-4.0787
X3.7795Y-4.1673
X3.8012Y-3.6496
X3.8268Y-3.5551
X3.8346Y-3.7343
X3.8346Y-3.7717
X3.8563Y-4.5925
X3.8996Y-3.5138
X3.8996Y-3.6791
X3.9094Y-4.1673
X3.9193Y-4.6358
X3.9232Y-4.4232
X3.9602Y-3.8315
X3.9783Y-3.6378
X3.9957Y-3.8315
X4.0433Y-4.3917
X4.0492Y-3.7835
X4.0531Y-4.4626
X4.0669Y-3.5604
X4.0689Y-3.7028
X4.128Y-4.0236
X4.1417Y-3.5138
X4.1417Y-3.6791
X4.1614Y-4.1752
X4.1909Y-3.4272
X4.1909Y-3.939
X4.2205Y-3.9276
X4.2244Y-3.6398
X4.2244Y-3.7953
X4.2299Y-3.898
X4.2548Y-3.8807
X4.2736Y-4.1654
X4.2795Y-3.3169
X4.2795Y-3.3406
X4.2795Y-3.3642
X4.2795Y-3.9941
X4.2815Y-4.1339
X4.2874Y-4.5571
X4.3071Y-3.5591
X4.3091Y-3.7008
X4.3169Y-3.3164
X4.3602Y-3.8583
X4.3638Y-4.1535
X4.3642Y-3.9626
X4.3681Y-3.8937
X4.3681Y-4.0236
X4.4173Y-4.4606
X4.5177Y-4.3504
T3
X3.2215Y-3.7628
X3.2215Y-3.812
X3.2215Y-3.8622
X3.2215Y-3.9124
X3.2215Y-3.9626
X3.2215Y-4.0118
X3.2215Y-4.062
X3.2215Y-4.1122
X3.2795Y-3.6693
X3.2795Y-4.2037
X3.4114Y-3.5787
X3.4134Y-3.4272
X3.4144Y-3.6693
X3.4144Y-4.2037
X3.4713Y-3.9134
X3.4715Y-3.7618
X3.4715Y-3.812
X3.4715Y-3.9616
X3.4715Y-4.0128
X3.4715Y-4.062
X3.4715Y-4.1112
X4.0453Y-3.435
X4.3622Y-3.3996
X4.4024Y-4.0634
X4.4026Y-3.7116
X4.4026Y-3.7618
X4.4026Y-3.811
X4.4026Y-3.862
X4.4026Y-3.912
X4.4026Y-3.962
X4.4026Y-4.012
X4.4026Y-4.1122
X4.4528Y-3.5
X4.4596Y-4.2037
X4.5955Y-4.2037
X4.5965Y-3.6703
X4.6526Y-3.7618
X4.6526Y-3.812
X4.6526Y-4.062
X4.6526Y-4.1122
T0
M30
