G04 #@! TF.FileFunction,Copper,L2,Bot,Signal*
%FSLAX46Y46*%
G04 Gerber Fmt 4.6, Leading zero omitted, Abs format (unit mm)*
G04 Created by KiCad (PCBNEW 4.1.0-alpha+201605071002+6776~44~ubuntu14.04.1-product) date Sun 29 May 2016 22:00:10 BST*
%MOMM*%
%LPD*%
G01*
G04 APERTURE LIST*
%ADD10C,0.100000*%
%ADD11C,2.500000*%
%ADD12C,2.800000*%
%ADD13R,5.000000X2.400000*%
%ADD14C,0.800000*%
%ADD15C,0.250000*%
%ADD16C,0.500000*%
%ADD17C,0.200000*%
G04 APERTURE END LIST*
D10*
D11*
X130000000Y-100000000D03*
D12*
X132540000Y-102540000D03*
X132540000Y-97460000D03*
X127460000Y-102540000D03*
X127460000Y-97460000D03*
D13*
X142450000Y-104375000D03*
X142450000Y-95625000D03*
D14*
X127250000Y-94850000D03*
X129250000Y-94850000D03*
X131250000Y-94850000D03*
X133250000Y-94850000D03*
X135250000Y-94850000D03*
X137250000Y-94850000D03*
X127250000Y-105150000D03*
X129250000Y-105150000D03*
X131250000Y-105150000D03*
X133250000Y-105150000D03*
X135250000Y-105150000D03*
X137250000Y-105150000D03*
X137900000Y-99863590D03*
X136950000Y-96800000D03*
X137900000Y-101050000D03*
X134800000Y-101950000D03*
X139250000Y-105150000D03*
X139250000Y-103550000D03*
X139250000Y-104350000D03*
X139250000Y-96450000D03*
X139250000Y-94850000D03*
X139250000Y-95650000D03*
D15*
X129250000Y-94850000D02*
X127250000Y-94850000D01*
X133250000Y-94850000D02*
X131250000Y-94850000D01*
X137250000Y-94850000D02*
X135250000Y-94850000D01*
X129250000Y-105150000D02*
X127250000Y-105150000D01*
X133250000Y-105150000D02*
X131250000Y-105150000D01*
X137250000Y-105150000D02*
X135250000Y-105150000D01*
D16*
X139250000Y-104350000D02*
X139250000Y-105150000D01*
X139250000Y-95600000D02*
X139250000Y-96400000D01*
D17*
G36*
X139550000Y-95475000D02*
X139650000Y-95575000D01*
X142400000Y-95575000D01*
X142400000Y-95555000D01*
X142500000Y-95555000D01*
X142500000Y-95575000D01*
X142520000Y-95575000D01*
X142520000Y-95675000D01*
X142500000Y-95675000D01*
X142500000Y-97125000D01*
X142600000Y-97225000D01*
X144545000Y-97225000D01*
X144545000Y-102775000D01*
X142600000Y-102775000D01*
X142500000Y-102875000D01*
X142500000Y-104325000D01*
X142520000Y-104325000D01*
X142520000Y-104425000D01*
X142500000Y-104425000D01*
X142500000Y-104445000D01*
X142400000Y-104445000D01*
X142400000Y-104425000D01*
X139650000Y-104425000D01*
X139550000Y-104525000D01*
X139550000Y-105195000D01*
X126355000Y-105195000D01*
X126355000Y-103943369D01*
X126422109Y-104053598D01*
X127080343Y-104335566D01*
X127796376Y-104344175D01*
X128461199Y-104078115D01*
X128497891Y-104053598D01*
X128651152Y-103801862D01*
X131348848Y-103801862D01*
X131502109Y-104053598D01*
X132160343Y-104335566D01*
X132876376Y-104344175D01*
X133541199Y-104078115D01*
X133577891Y-104053598D01*
X133731152Y-103801862D01*
X132540000Y-102610711D01*
X131348848Y-103801862D01*
X128651152Y-103801862D01*
X127460000Y-102610711D01*
X127445858Y-102624853D01*
X127375147Y-102554142D01*
X127389289Y-102540000D01*
X127530711Y-102540000D01*
X128721862Y-103731152D01*
X128973598Y-103577891D01*
X129255566Y-102919657D01*
X129256086Y-102876376D01*
X130735825Y-102876376D01*
X131001885Y-103541199D01*
X131026402Y-103577891D01*
X131278138Y-103731152D01*
X132469289Y-102540000D01*
X132610711Y-102540000D01*
X133801862Y-103731152D01*
X134053598Y-103577891D01*
X134260267Y-103095435D01*
X139550000Y-103095435D01*
X139550000Y-104225000D01*
X139650000Y-104325000D01*
X142400000Y-104325000D01*
X142400000Y-102875000D01*
X142300000Y-102775000D01*
X139870435Y-102775000D01*
X139723418Y-102835896D01*
X139610896Y-102948418D01*
X139550000Y-103095435D01*
X134260267Y-103095435D01*
X134335566Y-102919657D01*
X134344175Y-102203624D01*
X134078115Y-101538801D01*
X134053598Y-101502109D01*
X133801862Y-101348848D01*
X132610711Y-102540000D01*
X132469289Y-102540000D01*
X131278138Y-101348848D01*
X131026402Y-101502109D01*
X130744434Y-102160343D01*
X130735825Y-102876376D01*
X129256086Y-102876376D01*
X129264175Y-102203624D01*
X128998115Y-101538801D01*
X128973598Y-101502109D01*
X128721862Y-101348848D01*
X127530711Y-102540000D01*
X127389289Y-102540000D01*
X127375147Y-102525858D01*
X127445858Y-102455147D01*
X127460000Y-102469289D01*
X128651152Y-101278138D01*
X128497891Y-101026402D01*
X127839657Y-100744434D01*
X127123624Y-100735825D01*
X126458801Y-101001885D01*
X126422109Y-101026402D01*
X126355000Y-101136631D01*
X126355000Y-100326765D01*
X128349715Y-100326765D01*
X128600383Y-100933429D01*
X129064130Y-101397986D01*
X129670355Y-101649713D01*
X130326765Y-101650285D01*
X130933429Y-101399617D01*
X131055120Y-101278138D01*
X131348848Y-101278138D01*
X132540000Y-102469289D01*
X133731152Y-101278138D01*
X133577891Y-101026402D01*
X132919657Y-100744434D01*
X132203624Y-100735825D01*
X131538801Y-101001885D01*
X131502109Y-101026402D01*
X131348848Y-101278138D01*
X131055120Y-101278138D01*
X131397986Y-100935870D01*
X131649713Y-100329645D01*
X131650285Y-99673235D01*
X131399617Y-99066571D01*
X131055510Y-98721862D01*
X131348848Y-98721862D01*
X131502109Y-98973598D01*
X132160343Y-99255566D01*
X132876376Y-99264175D01*
X133541199Y-98998115D01*
X133577891Y-98973598D01*
X133731152Y-98721862D01*
X132540000Y-97530711D01*
X131348848Y-98721862D01*
X131055510Y-98721862D01*
X130935870Y-98602014D01*
X130329645Y-98350287D01*
X129673235Y-98349715D01*
X129066571Y-98600383D01*
X128602014Y-99064130D01*
X128350287Y-99670355D01*
X128349715Y-100326765D01*
X126355000Y-100326765D01*
X126355000Y-98863369D01*
X126422109Y-98973598D01*
X127080343Y-99255566D01*
X127796376Y-99264175D01*
X128461199Y-98998115D01*
X128497891Y-98973598D01*
X128651152Y-98721862D01*
X127460000Y-97530711D01*
X127445858Y-97544853D01*
X127375147Y-97474142D01*
X127389289Y-97460000D01*
X127530711Y-97460000D01*
X128721862Y-98651152D01*
X128973598Y-98497891D01*
X129255566Y-97839657D01*
X129256086Y-97796376D01*
X130735825Y-97796376D01*
X131001885Y-98461199D01*
X131026402Y-98497891D01*
X131278138Y-98651152D01*
X132469289Y-97460000D01*
X132610711Y-97460000D01*
X133801862Y-98651152D01*
X134053598Y-98497891D01*
X134335566Y-97839657D01*
X134344175Y-97123624D01*
X134078115Y-96458801D01*
X134053598Y-96422109D01*
X133801862Y-96268848D01*
X132610711Y-97460000D01*
X132469289Y-97460000D01*
X131278138Y-96268848D01*
X131026402Y-96422109D01*
X130744434Y-97080343D01*
X130735825Y-97796376D01*
X129256086Y-97796376D01*
X129264175Y-97123624D01*
X128998115Y-96458801D01*
X128973598Y-96422109D01*
X128721862Y-96268848D01*
X127530711Y-97460000D01*
X127389289Y-97460000D01*
X127375147Y-97445858D01*
X127445858Y-97375147D01*
X127460000Y-97389289D01*
X128651152Y-96198138D01*
X131348848Y-96198138D01*
X132540000Y-97389289D01*
X133731152Y-96198138D01*
X133577891Y-95946402D01*
X133177766Y-95775000D01*
X139550000Y-95775000D01*
X139550000Y-96904565D01*
X139610896Y-97051582D01*
X139723418Y-97164104D01*
X139870435Y-97225000D01*
X142300000Y-97225000D01*
X142400000Y-97125000D01*
X142400000Y-95675000D01*
X139650000Y-95675000D01*
X139550000Y-95775000D01*
X133177766Y-95775000D01*
X132919657Y-95664434D01*
X132203624Y-95655825D01*
X131538801Y-95921885D01*
X131502109Y-95946402D01*
X131348848Y-96198138D01*
X128651152Y-96198138D01*
X128497891Y-95946402D01*
X127839657Y-95664434D01*
X127123624Y-95655825D01*
X126458801Y-95921885D01*
X126422109Y-95946402D01*
X126355000Y-96056631D01*
X126355000Y-94805000D01*
X139550000Y-94805000D01*
X139550000Y-95475000D01*
X139550000Y-95475000D01*
G37*
X139550000Y-95475000D02*
X139650000Y-95575000D01*
X142400000Y-95575000D01*
X142400000Y-95555000D01*
X142500000Y-95555000D01*
X142500000Y-95575000D01*
X142520000Y-95575000D01*
X142520000Y-95675000D01*
X142500000Y-95675000D01*
X142500000Y-97125000D01*
X142600000Y-97225000D01*
X144545000Y-97225000D01*
X144545000Y-102775000D01*
X142600000Y-102775000D01*
X142500000Y-102875000D01*
X142500000Y-104325000D01*
X142520000Y-104325000D01*
X142520000Y-104425000D01*
X142500000Y-104425000D01*
X142500000Y-104445000D01*
X142400000Y-104445000D01*
X142400000Y-104425000D01*
X139650000Y-104425000D01*
X139550000Y-104525000D01*
X139550000Y-105195000D01*
X126355000Y-105195000D01*
X126355000Y-103943369D01*
X126422109Y-104053598D01*
X127080343Y-104335566D01*
X127796376Y-104344175D01*
X128461199Y-104078115D01*
X128497891Y-104053598D01*
X128651152Y-103801862D01*
X131348848Y-103801862D01*
X131502109Y-104053598D01*
X132160343Y-104335566D01*
X132876376Y-104344175D01*
X133541199Y-104078115D01*
X133577891Y-104053598D01*
X133731152Y-103801862D01*
X132540000Y-102610711D01*
X131348848Y-103801862D01*
X128651152Y-103801862D01*
X127460000Y-102610711D01*
X127445858Y-102624853D01*
X127375147Y-102554142D01*
X127389289Y-102540000D01*
X127530711Y-102540000D01*
X128721862Y-103731152D01*
X128973598Y-103577891D01*
X129255566Y-102919657D01*
X129256086Y-102876376D01*
X130735825Y-102876376D01*
X131001885Y-103541199D01*
X131026402Y-103577891D01*
X131278138Y-103731152D01*
X132469289Y-102540000D01*
X132610711Y-102540000D01*
X133801862Y-103731152D01*
X134053598Y-103577891D01*
X134260267Y-103095435D01*
X139550000Y-103095435D01*
X139550000Y-104225000D01*
X139650000Y-104325000D01*
X142400000Y-104325000D01*
X142400000Y-102875000D01*
X142300000Y-102775000D01*
X139870435Y-102775000D01*
X139723418Y-102835896D01*
X139610896Y-102948418D01*
X139550000Y-103095435D01*
X134260267Y-103095435D01*
X134335566Y-102919657D01*
X134344175Y-102203624D01*
X134078115Y-101538801D01*
X134053598Y-101502109D01*
X133801862Y-101348848D01*
X132610711Y-102540000D01*
X132469289Y-102540000D01*
X131278138Y-101348848D01*
X131026402Y-101502109D01*
X130744434Y-102160343D01*
X130735825Y-102876376D01*
X129256086Y-102876376D01*
X129264175Y-102203624D01*
X128998115Y-101538801D01*
X128973598Y-101502109D01*
X128721862Y-101348848D01*
X127530711Y-102540000D01*
X127389289Y-102540000D01*
X127375147Y-102525858D01*
X127445858Y-102455147D01*
X127460000Y-102469289D01*
X128651152Y-101278138D01*
X128497891Y-101026402D01*
X127839657Y-100744434D01*
X127123624Y-100735825D01*
X126458801Y-101001885D01*
X126422109Y-101026402D01*
X126355000Y-101136631D01*
X126355000Y-100326765D01*
X128349715Y-100326765D01*
X128600383Y-100933429D01*
X129064130Y-101397986D01*
X129670355Y-101649713D01*
X130326765Y-101650285D01*
X130933429Y-101399617D01*
X131055120Y-101278138D01*
X131348848Y-101278138D01*
X132540000Y-102469289D01*
X133731152Y-101278138D01*
X133577891Y-101026402D01*
X132919657Y-100744434D01*
X132203624Y-100735825D01*
X131538801Y-101001885D01*
X131502109Y-101026402D01*
X131348848Y-101278138D01*
X131055120Y-101278138D01*
X131397986Y-100935870D01*
X131649713Y-100329645D01*
X131650285Y-99673235D01*
X131399617Y-99066571D01*
X131055510Y-98721862D01*
X131348848Y-98721862D01*
X131502109Y-98973598D01*
X132160343Y-99255566D01*
X132876376Y-99264175D01*
X133541199Y-98998115D01*
X133577891Y-98973598D01*
X133731152Y-98721862D01*
X132540000Y-97530711D01*
X131348848Y-98721862D01*
X131055510Y-98721862D01*
X130935870Y-98602014D01*
X130329645Y-98350287D01*
X129673235Y-98349715D01*
X129066571Y-98600383D01*
X128602014Y-99064130D01*
X128350287Y-99670355D01*
X128349715Y-100326765D01*
X126355000Y-100326765D01*
X126355000Y-98863369D01*
X126422109Y-98973598D01*
X127080343Y-99255566D01*
X127796376Y-99264175D01*
X128461199Y-98998115D01*
X128497891Y-98973598D01*
X128651152Y-98721862D01*
X127460000Y-97530711D01*
X127445858Y-97544853D01*
X127375147Y-97474142D01*
X127389289Y-97460000D01*
X127530711Y-97460000D01*
X128721862Y-98651152D01*
X128973598Y-98497891D01*
X129255566Y-97839657D01*
X129256086Y-97796376D01*
X130735825Y-97796376D01*
X131001885Y-98461199D01*
X131026402Y-98497891D01*
X131278138Y-98651152D01*
X132469289Y-97460000D01*
X132610711Y-97460000D01*
X133801862Y-98651152D01*
X134053598Y-98497891D01*
X134335566Y-97839657D01*
X134344175Y-97123624D01*
X134078115Y-96458801D01*
X134053598Y-96422109D01*
X133801862Y-96268848D01*
X132610711Y-97460000D01*
X132469289Y-97460000D01*
X131278138Y-96268848D01*
X131026402Y-96422109D01*
X130744434Y-97080343D01*
X130735825Y-97796376D01*
X129256086Y-97796376D01*
X129264175Y-97123624D01*
X128998115Y-96458801D01*
X128973598Y-96422109D01*
X128721862Y-96268848D01*
X127530711Y-97460000D01*
X127389289Y-97460000D01*
X127375147Y-97445858D01*
X127445858Y-97375147D01*
X127460000Y-97389289D01*
X128651152Y-96198138D01*
X131348848Y-96198138D01*
X132540000Y-97389289D01*
X133731152Y-96198138D01*
X133577891Y-95946402D01*
X133177766Y-95775000D01*
X139550000Y-95775000D01*
X139550000Y-96904565D01*
X139610896Y-97051582D01*
X139723418Y-97164104D01*
X139870435Y-97225000D01*
X142300000Y-97225000D01*
X142400000Y-97125000D01*
X142400000Y-95675000D01*
X139650000Y-95675000D01*
X139550000Y-95775000D01*
X133177766Y-95775000D01*
X132919657Y-95664434D01*
X132203624Y-95655825D01*
X131538801Y-95921885D01*
X131502109Y-95946402D01*
X131348848Y-96198138D01*
X128651152Y-96198138D01*
X128497891Y-95946402D01*
X127839657Y-95664434D01*
X127123624Y-95655825D01*
X126458801Y-95921885D01*
X126422109Y-95946402D01*
X126355000Y-96056631D01*
X126355000Y-94805000D01*
X139550000Y-94805000D01*
X139550000Y-95475000D01*
M02*
