G04 #@! TF.FileFunction,Copper,L1,Top,Signal*
%FSLAX46Y46*%
G04 Gerber Fmt 4.6, Leading zero omitted, Abs format (unit mm)*
G04 Created by KiCad (PCBNEW 4.1.0-alpha+201605071002+6776~44~ubuntu14.04.1-product) date Sun 29 May 2016 22:00:10 BST*
%MOMM*%
%LPD*%
G01*
G04 APERTURE LIST*
%ADD10C,0.100000*%
%ADD11R,0.620000X0.620000*%
%ADD12R,0.280000X0.500000*%
%ADD13R,0.500000X0.500000*%
%ADD14R,1.500000X1.280000*%
%ADD15C,2.500000*%
%ADD16C,2.800000*%
%ADD17R,5.000000X2.300000*%
%ADD18R,5.000000X2.400000*%
%ADD19C,0.800000*%
%ADD20C,0.500000*%
%ADD21C,0.250000*%
%ADD22C,0.400000*%
%ADD23C,0.450000*%
%ADD24C,1.000000*%
%ADD25C,0.200000*%
G04 APERTURE END LIST*
D10*
D11*
X136050000Y-97650000D03*
X136950000Y-97650000D03*
X136050000Y-98850000D03*
X136950000Y-98850000D03*
X138200000Y-102050000D03*
X139100000Y-102050000D03*
D12*
X137040000Y-99960000D03*
X136500000Y-99960000D03*
X135960000Y-99960000D03*
X135960000Y-102140000D03*
X136500000Y-102140000D03*
X137040000Y-102140000D03*
D13*
X136850000Y-100700000D03*
X136150000Y-100700000D03*
X136850000Y-101400000D03*
X136150000Y-101400000D03*
D14*
X136500000Y-101050000D03*
D11*
X134800000Y-100050000D03*
X134800000Y-100950000D03*
X136050000Y-103250000D03*
X136950000Y-103250000D03*
X138200000Y-96650000D03*
X138200000Y-97550000D03*
X138200000Y-98750000D03*
X139100000Y-98750000D03*
X139100000Y-99950000D03*
X139100000Y-100850000D03*
D15*
X130000000Y-100000000D03*
D16*
X132540000Y-102540000D03*
X132540000Y-97460000D03*
X127460000Y-102540000D03*
X127460000Y-97460000D03*
D17*
X142450000Y-100000000D03*
D18*
X142450000Y-95625000D03*
X142450000Y-104375000D03*
D19*
X127250000Y-94850000D03*
X129250000Y-94850000D03*
X131250000Y-94850000D03*
X133250000Y-94850000D03*
X135250000Y-94850000D03*
X137250000Y-94850000D03*
X127250000Y-105150000D03*
X129250000Y-105150000D03*
X131250000Y-105150000D03*
X133250000Y-105150000D03*
X135250000Y-105150000D03*
X137250000Y-105150000D03*
X137900000Y-99863590D03*
X136950000Y-96800000D03*
X137900000Y-101050000D03*
X134800000Y-101950000D03*
X139250000Y-105150000D03*
X139250000Y-103550000D03*
X139250000Y-104350000D03*
X139250000Y-96450000D03*
X139250000Y-94850000D03*
X139250000Y-95650000D03*
D20*
X138200000Y-96650000D02*
X137499999Y-95949999D01*
X137499999Y-95949999D02*
X136541999Y-95949999D01*
X136541999Y-95949999D02*
X136050000Y-96441998D01*
X136050000Y-96441998D02*
X136050000Y-96840000D01*
X136050000Y-96840000D02*
X136050000Y-97650000D01*
D21*
X137040000Y-99960000D02*
X137040000Y-99640000D01*
X137040000Y-99640000D02*
X136924998Y-99524998D01*
X136924998Y-99524998D02*
X136500000Y-99524998D01*
X136500000Y-99960000D02*
X136500000Y-99524998D01*
X136500000Y-99524998D02*
X136050000Y-99074998D01*
X136050000Y-99074998D02*
X136050000Y-98850000D01*
D22*
X136050000Y-97650000D02*
X136050000Y-98850000D01*
D21*
X131250000Y-94850000D02*
X129250000Y-94850000D01*
X135250000Y-94850000D02*
X133250000Y-94850000D01*
X139250000Y-94850000D02*
X137250000Y-94850000D01*
X139250000Y-94850000D02*
X139250000Y-95650000D01*
X131250000Y-105150000D02*
X129250000Y-105150000D01*
X135250000Y-105150000D02*
X133250000Y-105150000D01*
X139250000Y-105150000D02*
X137250000Y-105150000D01*
X137900000Y-101050000D02*
X137900000Y-99863590D01*
X136950000Y-98850000D02*
X136950000Y-98913590D01*
X136950000Y-98913590D02*
X137900000Y-99863590D01*
D20*
X136950000Y-97650000D02*
X136950000Y-96800000D01*
X136500000Y-101050000D02*
X137900000Y-101050000D01*
X134800000Y-100950000D02*
X136400000Y-100950000D01*
X136400000Y-100950000D02*
X136500000Y-101050000D01*
X134800000Y-100950000D02*
X134800000Y-101950000D01*
X139250000Y-104350000D02*
X139250000Y-103550000D01*
X142450000Y-104375000D02*
X139275000Y-104375000D01*
X139275000Y-104375000D02*
X139250000Y-104350000D01*
X142450000Y-95625000D02*
X139275000Y-95625000D01*
X139275000Y-95625000D02*
X139250000Y-95600000D01*
D21*
X137040000Y-102140000D02*
X137140000Y-102140000D01*
D22*
X137140000Y-102140000D02*
X138110000Y-102140000D01*
X138110000Y-102140000D02*
X138200000Y-102050000D01*
D20*
X139100000Y-100850000D02*
X139100000Y-102050000D01*
X139100000Y-100850000D02*
X141600000Y-100850000D01*
X141600000Y-100850000D02*
X142450000Y-100000000D01*
D21*
X134150000Y-100000000D02*
X134200000Y-100050000D01*
X134200000Y-100050000D02*
X134800000Y-100050000D01*
D23*
X135810000Y-99960000D02*
X134790000Y-99960000D01*
D21*
X135960000Y-99960000D02*
X135810000Y-99960000D01*
D24*
X130000000Y-100000000D02*
X134150000Y-100000000D01*
D22*
X134890000Y-99960000D02*
X134800000Y-100050000D01*
D20*
X134750000Y-100000000D02*
X134800000Y-100050000D01*
D21*
X135960000Y-102140000D02*
X135960000Y-103160000D01*
X135960000Y-103160000D02*
X136050000Y-103250000D01*
X136950000Y-103250000D02*
X136950000Y-103025002D01*
X136950000Y-103025002D02*
X136500000Y-102575002D01*
X136500000Y-102575002D02*
X136500000Y-102140000D01*
D20*
X138200000Y-97550000D02*
X138200000Y-98750000D01*
X139100000Y-98750000D02*
X139100000Y-99950000D01*
D25*
G36*
X139550000Y-95475000D02*
X139650000Y-95575000D01*
X142400000Y-95575000D01*
X142400000Y-95555000D01*
X142500000Y-95555000D01*
X142500000Y-95575000D01*
X142520000Y-95575000D01*
X142520000Y-95675000D01*
X142500000Y-95675000D01*
X142500000Y-97125000D01*
X142600000Y-97225000D01*
X144545000Y-97225000D01*
X144545000Y-98442164D01*
X139950000Y-98442164D01*
X139817836Y-98468453D01*
X139817836Y-98440000D01*
X139786791Y-98283928D01*
X139698384Y-98151616D01*
X139566072Y-98063209D01*
X139410000Y-98032164D01*
X138876039Y-98032164D01*
X138886791Y-98016072D01*
X138917836Y-97860000D01*
X138917836Y-97240000D01*
X138889988Y-97100000D01*
X138917836Y-96960000D01*
X138917836Y-96340000D01*
X138886791Y-96183928D01*
X138798384Y-96051616D01*
X138666072Y-95963209D01*
X138510000Y-95932164D01*
X138401402Y-95932164D01*
X138244238Y-95775000D01*
X139550000Y-95775000D01*
X139550000Y-96904565D01*
X139610896Y-97051582D01*
X139723418Y-97164104D01*
X139870435Y-97225000D01*
X142300000Y-97225000D01*
X142400000Y-97125000D01*
X142400000Y-95675000D01*
X139650000Y-95675000D01*
X139550000Y-95775000D01*
X138244238Y-95775000D01*
X137959618Y-95490380D01*
X137748744Y-95349477D01*
X137707475Y-95341268D01*
X137499999Y-95299999D01*
X136541999Y-95299999D01*
X136293255Y-95349477D01*
X136082380Y-95490379D01*
X135590381Y-95982379D01*
X135449478Y-96193253D01*
X135448386Y-96198743D01*
X135400000Y-96441998D01*
X135400000Y-97128866D01*
X135363209Y-97183928D01*
X135332164Y-97340000D01*
X135332164Y-97960000D01*
X135363209Y-98116072D01*
X135450000Y-98245965D01*
X135450000Y-98254035D01*
X135363209Y-98383928D01*
X135332164Y-98540000D01*
X135332164Y-98800000D01*
X133683580Y-98800000D01*
X133731152Y-98721862D01*
X132540000Y-97530711D01*
X131348848Y-98721862D01*
X131396420Y-98800000D01*
X131133511Y-98800000D01*
X130935870Y-98602014D01*
X130329645Y-98350287D01*
X129673235Y-98349715D01*
X129066571Y-98600383D01*
X128602014Y-99064130D01*
X128350287Y-99670355D01*
X128349715Y-100326765D01*
X128600383Y-100933429D01*
X129064130Y-101397986D01*
X129670355Y-101649713D01*
X130326765Y-101650285D01*
X130933429Y-101399617D01*
X131133395Y-101200000D01*
X131396420Y-101200000D01*
X131348848Y-101278138D01*
X132540000Y-102469289D01*
X133731152Y-101278138D01*
X133683580Y-101200000D01*
X134090000Y-101200000D01*
X134090000Y-101339565D01*
X134150896Y-101486582D01*
X134263418Y-101599104D01*
X134410435Y-101660000D01*
X134650000Y-101660000D01*
X134750000Y-101560000D01*
X134750000Y-101000000D01*
X134730000Y-101000000D01*
X134730000Y-100900000D01*
X134750000Y-100900000D01*
X134750000Y-100880000D01*
X134850000Y-100880000D01*
X134850000Y-100900000D01*
X134870000Y-100900000D01*
X134870000Y-101000000D01*
X134850000Y-101000000D01*
X134850000Y-101560000D01*
X134950000Y-101660000D01*
X135189565Y-101660000D01*
X135336582Y-101599104D01*
X135350000Y-101585686D01*
X135350000Y-101769565D01*
X135410896Y-101916582D01*
X135412164Y-101917850D01*
X135412164Y-102390000D01*
X135435000Y-102504803D01*
X135435000Y-102676484D01*
X135363209Y-102783928D01*
X135332164Y-102940000D01*
X135332164Y-103560000D01*
X135363209Y-103716072D01*
X135451616Y-103848384D01*
X135583928Y-103936791D01*
X135740000Y-103967836D01*
X136360000Y-103967836D01*
X136500000Y-103939988D01*
X136640000Y-103967836D01*
X137260000Y-103967836D01*
X137416072Y-103936791D01*
X137548384Y-103848384D01*
X137636791Y-103716072D01*
X137667836Y-103560000D01*
X137667836Y-103095435D01*
X139550000Y-103095435D01*
X139550000Y-104225000D01*
X139650000Y-104325000D01*
X142400000Y-104325000D01*
X142400000Y-102875000D01*
X142300000Y-102775000D01*
X139870435Y-102775000D01*
X139723418Y-102835896D01*
X139610896Y-102948418D01*
X139550000Y-103095435D01*
X137667836Y-103095435D01*
X137667836Y-102940000D01*
X137636791Y-102783928D01*
X137607440Y-102740000D01*
X137750061Y-102740000D01*
X137890000Y-102767836D01*
X138510000Y-102767836D01*
X138650000Y-102739988D01*
X138790000Y-102767836D01*
X139410000Y-102767836D01*
X139566072Y-102736791D01*
X139698384Y-102648384D01*
X139786791Y-102516072D01*
X139817836Y-102360000D01*
X139817836Y-101740000D01*
X139786791Y-101583928D01*
X139750000Y-101528866D01*
X139750000Y-101500000D01*
X139753832Y-101500000D01*
X139793928Y-101526791D01*
X139950000Y-101557836D01*
X144545000Y-101557836D01*
X144545000Y-102775000D01*
X142600000Y-102775000D01*
X142500000Y-102875000D01*
X142500000Y-104325000D01*
X142520000Y-104325000D01*
X142520000Y-104425000D01*
X142500000Y-104425000D01*
X142500000Y-104445000D01*
X142400000Y-104445000D01*
X142400000Y-104425000D01*
X139650000Y-104425000D01*
X139550000Y-104525000D01*
X139550000Y-105195000D01*
X126355000Y-105195000D01*
X126355000Y-103943369D01*
X126422109Y-104053598D01*
X127080343Y-104335566D01*
X127796376Y-104344175D01*
X128461199Y-104078115D01*
X128497891Y-104053598D01*
X128651152Y-103801862D01*
X131348848Y-103801862D01*
X131502109Y-104053598D01*
X132160343Y-104335566D01*
X132876376Y-104344175D01*
X133541199Y-104078115D01*
X133577891Y-104053598D01*
X133731152Y-103801862D01*
X132540000Y-102610711D01*
X131348848Y-103801862D01*
X128651152Y-103801862D01*
X127460000Y-102610711D01*
X127445858Y-102624853D01*
X127375147Y-102554142D01*
X127389289Y-102540000D01*
X127530711Y-102540000D01*
X128721862Y-103731152D01*
X128973598Y-103577891D01*
X129255566Y-102919657D01*
X129256086Y-102876376D01*
X130735825Y-102876376D01*
X131001885Y-103541199D01*
X131026402Y-103577891D01*
X131278138Y-103731152D01*
X132469289Y-102540000D01*
X132610711Y-102540000D01*
X133801862Y-103731152D01*
X134053598Y-103577891D01*
X134335566Y-102919657D01*
X134344175Y-102203624D01*
X134078115Y-101538801D01*
X134053598Y-101502109D01*
X133801862Y-101348848D01*
X132610711Y-102540000D01*
X132469289Y-102540000D01*
X131278138Y-101348848D01*
X131026402Y-101502109D01*
X130744434Y-102160343D01*
X130735825Y-102876376D01*
X129256086Y-102876376D01*
X129264175Y-102203624D01*
X128998115Y-101538801D01*
X128973598Y-101502109D01*
X128721862Y-101348848D01*
X127530711Y-102540000D01*
X127389289Y-102540000D01*
X127375147Y-102525858D01*
X127445858Y-102455147D01*
X127460000Y-102469289D01*
X128651152Y-101278138D01*
X128497891Y-101026402D01*
X127839657Y-100744434D01*
X127123624Y-100735825D01*
X126458801Y-101001885D01*
X126422109Y-101026402D01*
X126355000Y-101136631D01*
X126355000Y-98863369D01*
X126422109Y-98973598D01*
X127080343Y-99255566D01*
X127796376Y-99264175D01*
X128461199Y-98998115D01*
X128497891Y-98973598D01*
X128651152Y-98721862D01*
X127460000Y-97530711D01*
X127445858Y-97544853D01*
X127375147Y-97474142D01*
X127389289Y-97460000D01*
X127530711Y-97460000D01*
X128721862Y-98651152D01*
X128973598Y-98497891D01*
X129255566Y-97839657D01*
X129256086Y-97796376D01*
X130735825Y-97796376D01*
X131001885Y-98461199D01*
X131026402Y-98497891D01*
X131278138Y-98651152D01*
X132469289Y-97460000D01*
X132610711Y-97460000D01*
X133801862Y-98651152D01*
X134053598Y-98497891D01*
X134335566Y-97839657D01*
X134344175Y-97123624D01*
X134078115Y-96458801D01*
X134053598Y-96422109D01*
X133801862Y-96268848D01*
X132610711Y-97460000D01*
X132469289Y-97460000D01*
X131278138Y-96268848D01*
X131026402Y-96422109D01*
X130744434Y-97080343D01*
X130735825Y-97796376D01*
X129256086Y-97796376D01*
X129264175Y-97123624D01*
X128998115Y-96458801D01*
X128973598Y-96422109D01*
X128721862Y-96268848D01*
X127530711Y-97460000D01*
X127389289Y-97460000D01*
X127375147Y-97445858D01*
X127445858Y-97375147D01*
X127460000Y-97389289D01*
X128651152Y-96198138D01*
X131348848Y-96198138D01*
X132540000Y-97389289D01*
X133731152Y-96198138D01*
X133577891Y-95946402D01*
X132919657Y-95664434D01*
X132203624Y-95655825D01*
X131538801Y-95921885D01*
X131502109Y-95946402D01*
X131348848Y-96198138D01*
X128651152Y-96198138D01*
X128497891Y-95946402D01*
X127839657Y-95664434D01*
X127123624Y-95655825D01*
X126458801Y-95921885D01*
X126422109Y-95946402D01*
X126355000Y-96056631D01*
X126355000Y-94805000D01*
X139550000Y-94805000D01*
X139550000Y-95475000D01*
X139550000Y-95475000D01*
G37*
X139550000Y-95475000D02*
X139650000Y-95575000D01*
X142400000Y-95575000D01*
X142400000Y-95555000D01*
X142500000Y-95555000D01*
X142500000Y-95575000D01*
X142520000Y-95575000D01*
X142520000Y-95675000D01*
X142500000Y-95675000D01*
X142500000Y-97125000D01*
X142600000Y-97225000D01*
X144545000Y-97225000D01*
X144545000Y-98442164D01*
X139950000Y-98442164D01*
X139817836Y-98468453D01*
X139817836Y-98440000D01*
X139786791Y-98283928D01*
X139698384Y-98151616D01*
X139566072Y-98063209D01*
X139410000Y-98032164D01*
X138876039Y-98032164D01*
X138886791Y-98016072D01*
X138917836Y-97860000D01*
X138917836Y-97240000D01*
X138889988Y-97100000D01*
X138917836Y-96960000D01*
X138917836Y-96340000D01*
X138886791Y-96183928D01*
X138798384Y-96051616D01*
X138666072Y-95963209D01*
X138510000Y-95932164D01*
X138401402Y-95932164D01*
X138244238Y-95775000D01*
X139550000Y-95775000D01*
X139550000Y-96904565D01*
X139610896Y-97051582D01*
X139723418Y-97164104D01*
X139870435Y-97225000D01*
X142300000Y-97225000D01*
X142400000Y-97125000D01*
X142400000Y-95675000D01*
X139650000Y-95675000D01*
X139550000Y-95775000D01*
X138244238Y-95775000D01*
X137959618Y-95490380D01*
X137748744Y-95349477D01*
X137707475Y-95341268D01*
X137499999Y-95299999D01*
X136541999Y-95299999D01*
X136293255Y-95349477D01*
X136082380Y-95490379D01*
X135590381Y-95982379D01*
X135449478Y-96193253D01*
X135448386Y-96198743D01*
X135400000Y-96441998D01*
X135400000Y-97128866D01*
X135363209Y-97183928D01*
X135332164Y-97340000D01*
X135332164Y-97960000D01*
X135363209Y-98116072D01*
X135450000Y-98245965D01*
X135450000Y-98254035D01*
X135363209Y-98383928D01*
X135332164Y-98540000D01*
X135332164Y-98800000D01*
X133683580Y-98800000D01*
X133731152Y-98721862D01*
X132540000Y-97530711D01*
X131348848Y-98721862D01*
X131396420Y-98800000D01*
X131133511Y-98800000D01*
X130935870Y-98602014D01*
X130329645Y-98350287D01*
X129673235Y-98349715D01*
X129066571Y-98600383D01*
X128602014Y-99064130D01*
X128350287Y-99670355D01*
X128349715Y-100326765D01*
X128600383Y-100933429D01*
X129064130Y-101397986D01*
X129670355Y-101649713D01*
X130326765Y-101650285D01*
X130933429Y-101399617D01*
X131133395Y-101200000D01*
X131396420Y-101200000D01*
X131348848Y-101278138D01*
X132540000Y-102469289D01*
X133731152Y-101278138D01*
X133683580Y-101200000D01*
X134090000Y-101200000D01*
X134090000Y-101339565D01*
X134150896Y-101486582D01*
X134263418Y-101599104D01*
X134410435Y-101660000D01*
X134650000Y-101660000D01*
X134750000Y-101560000D01*
X134750000Y-101000000D01*
X134730000Y-101000000D01*
X134730000Y-100900000D01*
X134750000Y-100900000D01*
X134750000Y-100880000D01*
X134850000Y-100880000D01*
X134850000Y-100900000D01*
X134870000Y-100900000D01*
X134870000Y-101000000D01*
X134850000Y-101000000D01*
X134850000Y-101560000D01*
X134950000Y-101660000D01*
X135189565Y-101660000D01*
X135336582Y-101599104D01*
X135350000Y-101585686D01*
X135350000Y-101769565D01*
X135410896Y-101916582D01*
X135412164Y-101917850D01*
X135412164Y-102390000D01*
X135435000Y-102504803D01*
X135435000Y-102676484D01*
X135363209Y-102783928D01*
X135332164Y-102940000D01*
X135332164Y-103560000D01*
X135363209Y-103716072D01*
X135451616Y-103848384D01*
X135583928Y-103936791D01*
X135740000Y-103967836D01*
X136360000Y-103967836D01*
X136500000Y-103939988D01*
X136640000Y-103967836D01*
X137260000Y-103967836D01*
X137416072Y-103936791D01*
X137548384Y-103848384D01*
X137636791Y-103716072D01*
X137667836Y-103560000D01*
X137667836Y-103095435D01*
X139550000Y-103095435D01*
X139550000Y-104225000D01*
X139650000Y-104325000D01*
X142400000Y-104325000D01*
X142400000Y-102875000D01*
X142300000Y-102775000D01*
X139870435Y-102775000D01*
X139723418Y-102835896D01*
X139610896Y-102948418D01*
X139550000Y-103095435D01*
X137667836Y-103095435D01*
X137667836Y-102940000D01*
X137636791Y-102783928D01*
X137607440Y-102740000D01*
X137750061Y-102740000D01*
X137890000Y-102767836D01*
X138510000Y-102767836D01*
X138650000Y-102739988D01*
X138790000Y-102767836D01*
X139410000Y-102767836D01*
X139566072Y-102736791D01*
X139698384Y-102648384D01*
X139786791Y-102516072D01*
X139817836Y-102360000D01*
X139817836Y-101740000D01*
X139786791Y-101583928D01*
X139750000Y-101528866D01*
X139750000Y-101500000D01*
X139753832Y-101500000D01*
X139793928Y-101526791D01*
X139950000Y-101557836D01*
X144545000Y-101557836D01*
X144545000Y-102775000D01*
X142600000Y-102775000D01*
X142500000Y-102875000D01*
X142500000Y-104325000D01*
X142520000Y-104325000D01*
X142520000Y-104425000D01*
X142500000Y-104425000D01*
X142500000Y-104445000D01*
X142400000Y-104445000D01*
X142400000Y-104425000D01*
X139650000Y-104425000D01*
X139550000Y-104525000D01*
X139550000Y-105195000D01*
X126355000Y-105195000D01*
X126355000Y-103943369D01*
X126422109Y-104053598D01*
X127080343Y-104335566D01*
X127796376Y-104344175D01*
X128461199Y-104078115D01*
X128497891Y-104053598D01*
X128651152Y-103801862D01*
X131348848Y-103801862D01*
X131502109Y-104053598D01*
X132160343Y-104335566D01*
X132876376Y-104344175D01*
X133541199Y-104078115D01*
X133577891Y-104053598D01*
X133731152Y-103801862D01*
X132540000Y-102610711D01*
X131348848Y-103801862D01*
X128651152Y-103801862D01*
X127460000Y-102610711D01*
X127445858Y-102624853D01*
X127375147Y-102554142D01*
X127389289Y-102540000D01*
X127530711Y-102540000D01*
X128721862Y-103731152D01*
X128973598Y-103577891D01*
X129255566Y-102919657D01*
X129256086Y-102876376D01*
X130735825Y-102876376D01*
X131001885Y-103541199D01*
X131026402Y-103577891D01*
X131278138Y-103731152D01*
X132469289Y-102540000D01*
X132610711Y-102540000D01*
X133801862Y-103731152D01*
X134053598Y-103577891D01*
X134335566Y-102919657D01*
X134344175Y-102203624D01*
X134078115Y-101538801D01*
X134053598Y-101502109D01*
X133801862Y-101348848D01*
X132610711Y-102540000D01*
X132469289Y-102540000D01*
X131278138Y-101348848D01*
X131026402Y-101502109D01*
X130744434Y-102160343D01*
X130735825Y-102876376D01*
X129256086Y-102876376D01*
X129264175Y-102203624D01*
X128998115Y-101538801D01*
X128973598Y-101502109D01*
X128721862Y-101348848D01*
X127530711Y-102540000D01*
X127389289Y-102540000D01*
X127375147Y-102525858D01*
X127445858Y-102455147D01*
X127460000Y-102469289D01*
X128651152Y-101278138D01*
X128497891Y-101026402D01*
X127839657Y-100744434D01*
X127123624Y-100735825D01*
X126458801Y-101001885D01*
X126422109Y-101026402D01*
X126355000Y-101136631D01*
X126355000Y-98863369D01*
X126422109Y-98973598D01*
X127080343Y-99255566D01*
X127796376Y-99264175D01*
X128461199Y-98998115D01*
X128497891Y-98973598D01*
X128651152Y-98721862D01*
X127460000Y-97530711D01*
X127445858Y-97544853D01*
X127375147Y-97474142D01*
X127389289Y-97460000D01*
X127530711Y-97460000D01*
X128721862Y-98651152D01*
X128973598Y-98497891D01*
X129255566Y-97839657D01*
X129256086Y-97796376D01*
X130735825Y-97796376D01*
X131001885Y-98461199D01*
X131026402Y-98497891D01*
X131278138Y-98651152D01*
X132469289Y-97460000D01*
X132610711Y-97460000D01*
X133801862Y-98651152D01*
X134053598Y-98497891D01*
X134335566Y-97839657D01*
X134344175Y-97123624D01*
X134078115Y-96458801D01*
X134053598Y-96422109D01*
X133801862Y-96268848D01*
X132610711Y-97460000D01*
X132469289Y-97460000D01*
X131278138Y-96268848D01*
X131026402Y-96422109D01*
X130744434Y-97080343D01*
X130735825Y-97796376D01*
X129256086Y-97796376D01*
X129264175Y-97123624D01*
X128998115Y-96458801D01*
X128973598Y-96422109D01*
X128721862Y-96268848D01*
X127530711Y-97460000D01*
X127389289Y-97460000D01*
X127375147Y-97445858D01*
X127445858Y-97375147D01*
X127460000Y-97389289D01*
X128651152Y-96198138D01*
X131348848Y-96198138D01*
X132540000Y-97389289D01*
X133731152Y-96198138D01*
X133577891Y-95946402D01*
X132919657Y-95664434D01*
X132203624Y-95655825D01*
X131538801Y-95921885D01*
X131502109Y-95946402D01*
X131348848Y-96198138D01*
X128651152Y-96198138D01*
X128497891Y-95946402D01*
X127839657Y-95664434D01*
X127123624Y-95655825D01*
X126458801Y-95921885D01*
X126422109Y-95946402D01*
X126355000Y-96056631D01*
X126355000Y-94805000D01*
X139550000Y-94805000D01*
X139550000Y-95475000D01*
G36*
X137733928Y-99436791D02*
X137890000Y-99467836D01*
X138423961Y-99467836D01*
X138413209Y-99483928D01*
X138382164Y-99640000D01*
X138382164Y-100260000D01*
X138410012Y-100400000D01*
X138382164Y-100540000D01*
X138382164Y-101160000D01*
X138413209Y-101316072D01*
X138423961Y-101332164D01*
X137890000Y-101332164D01*
X137733928Y-101363209D01*
X137650000Y-101419287D01*
X137650000Y-101200000D01*
X137550000Y-101100000D01*
X137500000Y-101100000D01*
X137500000Y-101070435D01*
X137491536Y-101050000D01*
X137500000Y-101029565D01*
X137500000Y-101000000D01*
X137550000Y-101000000D01*
X137650000Y-100900000D01*
X137650000Y-100330435D01*
X137589104Y-100183418D01*
X137587836Y-100182150D01*
X137587836Y-99710000D01*
X137556791Y-99553928D01*
X137544102Y-99534937D01*
X137528614Y-99457072D01*
X137599104Y-99386582D01*
X137612041Y-99355350D01*
X137733928Y-99436791D01*
X137733928Y-99436791D01*
G37*
X137733928Y-99436791D02*
X137890000Y-99467836D01*
X138423961Y-99467836D01*
X138413209Y-99483928D01*
X138382164Y-99640000D01*
X138382164Y-100260000D01*
X138410012Y-100400000D01*
X138382164Y-100540000D01*
X138382164Y-101160000D01*
X138413209Y-101316072D01*
X138423961Y-101332164D01*
X137890000Y-101332164D01*
X137733928Y-101363209D01*
X137650000Y-101419287D01*
X137650000Y-101200000D01*
X137550000Y-101100000D01*
X137500000Y-101100000D01*
X137500000Y-101070435D01*
X137491536Y-101050000D01*
X137500000Y-101029565D01*
X137500000Y-101000000D01*
X137550000Y-101000000D01*
X137650000Y-100900000D01*
X137650000Y-100330435D01*
X137589104Y-100183418D01*
X137587836Y-100182150D01*
X137587836Y-99710000D01*
X137556791Y-99553928D01*
X137544102Y-99534937D01*
X137528614Y-99457072D01*
X137599104Y-99386582D01*
X137612041Y-99355350D01*
X137733928Y-99436791D01*
G36*
X137482164Y-96851402D02*
X137482164Y-96960000D01*
X137491222Y-97005536D01*
X137486582Y-97000896D01*
X137339565Y-96940000D01*
X137100000Y-96940000D01*
X137000000Y-97040000D01*
X137000000Y-97600000D01*
X137020000Y-97600000D01*
X137020000Y-97700000D01*
X137000000Y-97700000D01*
X137000000Y-98800000D01*
X137020000Y-98800000D01*
X137020000Y-98900000D01*
X137000000Y-98900000D01*
X137000000Y-98920000D01*
X136900000Y-98920000D01*
X136900000Y-98900000D01*
X136880000Y-98900000D01*
X136880000Y-98800000D01*
X136900000Y-98800000D01*
X136900000Y-97700000D01*
X136880000Y-97700000D01*
X136880000Y-97600000D01*
X136900000Y-97600000D01*
X136900000Y-97040000D01*
X136800000Y-96940000D01*
X136700000Y-96940000D01*
X136700000Y-96711236D01*
X136811238Y-96599999D01*
X137230761Y-96599999D01*
X137482164Y-96851402D01*
X137482164Y-96851402D01*
G37*
X137482164Y-96851402D02*
X137482164Y-96960000D01*
X137491222Y-97005536D01*
X137486582Y-97000896D01*
X137339565Y-96940000D01*
X137100000Y-96940000D01*
X137000000Y-97040000D01*
X137000000Y-97600000D01*
X137020000Y-97600000D01*
X137020000Y-97700000D01*
X137000000Y-97700000D01*
X137000000Y-98800000D01*
X137020000Y-98800000D01*
X137020000Y-98900000D01*
X137000000Y-98900000D01*
X137000000Y-98920000D01*
X136900000Y-98920000D01*
X136900000Y-98900000D01*
X136880000Y-98900000D01*
X136880000Y-98800000D01*
X136900000Y-98800000D01*
X136900000Y-97700000D01*
X136880000Y-97700000D01*
X136880000Y-97600000D01*
X136900000Y-97600000D01*
X136900000Y-97040000D01*
X136800000Y-96940000D01*
X136700000Y-96940000D01*
X136700000Y-96711236D01*
X136811238Y-96599999D01*
X137230761Y-96599999D01*
X137482164Y-96851402D01*
M02*
