G04 #@! TF.FileFunction,Legend,Bot*
%FSLAX46Y46*%
G04 Gerber Fmt 4.6, Leading zero omitted, Abs format (unit mm)*
G04 Created by KiCad (PCBNEW 4.1.0-alpha+201605071002+6776~44~ubuntu14.04.1-product) date Sun 29 May 2016 22:00:10 BST*
%MOMM*%
%LPD*%
G01*
G04 APERTURE LIST*
%ADD10C,0.100000*%
%ADD11C,0.300000*%
%ADD12C,0.200000*%
%ADD13C,2.500000*%
%ADD14C,2.800000*%
%ADD15R,5.000000X2.400000*%
G04 APERTURE END LIST*
D10*
D11*
X137578571Y-96535714D02*
X137650000Y-96607142D01*
X137864285Y-96678571D01*
X138007142Y-96678571D01*
X138221428Y-96607142D01*
X138364285Y-96464285D01*
X138435714Y-96321428D01*
X138507142Y-96035714D01*
X138507142Y-95821428D01*
X138435714Y-95535714D01*
X138364285Y-95392857D01*
X138221428Y-95250000D01*
X138007142Y-95178571D01*
X137864285Y-95178571D01*
X137650000Y-95250000D01*
X137578571Y-95321428D01*
X136935714Y-95178571D02*
X136935714Y-96392857D01*
X136864285Y-96535714D01*
X136792857Y-96607142D01*
X136650000Y-96678571D01*
X136364285Y-96678571D01*
X136221428Y-96607142D01*
X136150000Y-96535714D01*
X136078571Y-96392857D01*
X136078571Y-95178571D01*
X135435714Y-96607142D02*
X135221428Y-96678571D01*
X134864285Y-96678571D01*
X134721428Y-96607142D01*
X134650000Y-96535714D01*
X134578571Y-96392857D01*
X134578571Y-96250000D01*
X134650000Y-96107142D01*
X134721428Y-96035714D01*
X134864285Y-95964285D01*
X135150000Y-95892857D01*
X135292857Y-95821428D01*
X135364285Y-95750000D01*
X135435714Y-95607142D01*
X135435714Y-95464285D01*
X135364285Y-95321428D01*
X135292857Y-95250000D01*
X135150000Y-95178571D01*
X134792857Y-95178571D01*
X134578571Y-95250000D01*
X133435714Y-95892857D02*
X133935714Y-95892857D01*
X133935714Y-96678571D02*
X133935714Y-95178571D01*
X133221428Y-95178571D01*
D12*
X138204761Y-103866666D02*
X137728571Y-103866666D01*
X138300000Y-104152380D02*
X137966666Y-103152380D01*
X137633333Y-104152380D01*
X136776190Y-103200000D02*
X136871428Y-103152380D01*
X137014285Y-103152380D01*
X137157142Y-103200000D01*
X137252380Y-103295238D01*
X137300000Y-103390476D01*
X137347619Y-103580952D01*
X137347619Y-103723809D01*
X137300000Y-103914285D01*
X137252380Y-104009523D01*
X137157142Y-104104761D01*
X137014285Y-104152380D01*
X136919047Y-104152380D01*
X136776190Y-104104761D01*
X136728571Y-104057142D01*
X136728571Y-103723809D01*
X136919047Y-103723809D01*
X135538095Y-104152380D02*
X135538095Y-103485714D01*
X135538095Y-103676190D02*
X135490476Y-103580952D01*
X135442857Y-103533333D01*
X135347619Y-103485714D01*
X135252380Y-103485714D01*
X134395238Y-104152380D02*
X134966666Y-104152380D01*
X134680952Y-104152380D02*
X134680952Y-103152380D01*
X134776190Y-103295238D01*
X134871428Y-103390476D01*
X134966666Y-103438095D01*
X143758095Y-97800000D02*
X143853333Y-97752380D01*
X143996190Y-97752380D01*
X144139047Y-97800000D01*
X144234285Y-97895238D01*
X144281904Y-97990476D01*
X144329523Y-98180952D01*
X144329523Y-98323809D01*
X144281904Y-98514285D01*
X144234285Y-98609523D01*
X144139047Y-98704761D01*
X143996190Y-98752380D01*
X143900952Y-98752380D01*
X143758095Y-98704761D01*
X143710476Y-98657142D01*
X143710476Y-98323809D01*
X143900952Y-98323809D01*
X143281904Y-98752380D02*
X143281904Y-97752380D01*
X142900952Y-97752380D01*
X142805714Y-97800000D01*
X142758095Y-97847619D01*
X142710476Y-97942857D01*
X142710476Y-98085714D01*
X142758095Y-98180952D01*
X142805714Y-98228571D01*
X142900952Y-98276190D01*
X143281904Y-98276190D01*
X142329523Y-98704761D02*
X142186666Y-98752380D01*
X141948571Y-98752380D01*
X141853333Y-98704761D01*
X141805714Y-98657142D01*
X141758095Y-98561904D01*
X141758095Y-98466666D01*
X141805714Y-98371428D01*
X141853333Y-98323809D01*
X141948571Y-98276190D01*
X142139047Y-98228571D01*
X142234285Y-98180952D01*
X142281904Y-98133333D01*
X142329523Y-98038095D01*
X142329523Y-97942857D01*
X142281904Y-97847619D01*
X142234285Y-97800000D01*
X142139047Y-97752380D01*
X141900952Y-97752380D01*
X141758095Y-97800000D01*
X140567619Y-98752380D02*
X140567619Y-97752380D01*
X140186666Y-97752380D01*
X140091428Y-97800000D01*
X140043809Y-97847619D01*
X139996190Y-97942857D01*
X139996190Y-98085714D01*
X140043809Y-98180952D01*
X140091428Y-98228571D01*
X140186666Y-98276190D01*
X140567619Y-98276190D01*
X139567619Y-98752380D02*
X139567619Y-98085714D01*
X139567619Y-98276190D02*
X139520000Y-98180952D01*
X139472380Y-98133333D01*
X139377142Y-98085714D01*
X139281904Y-98085714D01*
X138567619Y-98704761D02*
X138662857Y-98752380D01*
X138853333Y-98752380D01*
X138948571Y-98704761D01*
X138996190Y-98609523D01*
X138996190Y-98228571D01*
X138948571Y-98133333D01*
X138853333Y-98085714D01*
X138662857Y-98085714D01*
X138567619Y-98133333D01*
X138520000Y-98228571D01*
X138520000Y-98323809D01*
X138996190Y-98419047D01*
X138091428Y-98371428D02*
X137329523Y-98371428D01*
X136900952Y-98466666D02*
X136424761Y-98466666D01*
X136996190Y-98752380D02*
X136662857Y-97752380D01*
X136329523Y-98752380D01*
X135996190Y-98752380D02*
X135996190Y-98085714D01*
X135996190Y-98180952D02*
X135948571Y-98133333D01*
X135853333Y-98085714D01*
X135710476Y-98085714D01*
X135615238Y-98133333D01*
X135567619Y-98228571D01*
X135567619Y-98752380D01*
X135567619Y-98228571D02*
X135520000Y-98133333D01*
X135424761Y-98085714D01*
X135281904Y-98085714D01*
X135186666Y-98133333D01*
X135139047Y-98228571D01*
X135139047Y-98752380D01*
X134662857Y-98085714D02*
X134662857Y-99085714D01*
X134662857Y-98133333D02*
X134567619Y-98085714D01*
X134377142Y-98085714D01*
X134281904Y-98133333D01*
X134234285Y-98180952D01*
X134186666Y-98276190D01*
X134186666Y-98561904D01*
X134234285Y-98657142D01*
X134281904Y-98704761D01*
X134377142Y-98752380D01*
X134567619Y-98752380D01*
X134662857Y-98704761D01*
X143853333Y-99785714D02*
X143853333Y-100452380D01*
X144091428Y-99404761D02*
X144329523Y-100119047D01*
X143710476Y-100119047D01*
X143329523Y-100452380D02*
X143329523Y-99785714D01*
X143329523Y-99880952D02*
X143281904Y-99833333D01*
X143186666Y-99785714D01*
X143043809Y-99785714D01*
X142948571Y-99833333D01*
X142900952Y-99928571D01*
X142900952Y-100452380D01*
X142900952Y-99928571D02*
X142853333Y-99833333D01*
X142758095Y-99785714D01*
X142615238Y-99785714D01*
X142520000Y-99833333D01*
X142472380Y-99928571D01*
X142472380Y-100452380D01*
X142043809Y-100166666D02*
X141567619Y-100166666D01*
X142139047Y-100452380D02*
X141805714Y-99452380D01*
X141472380Y-100452380D01*
X139758095Y-99976190D02*
X139805714Y-99928571D01*
X139900952Y-99880952D01*
X139996190Y-99880952D01*
X140091428Y-99928571D01*
X140139047Y-99976190D01*
X140186666Y-100071428D01*
X140186666Y-100166666D01*
X140139047Y-100261904D01*
X140091428Y-100309523D01*
X139996190Y-100357142D01*
X139900952Y-100357142D01*
X139805714Y-100309523D01*
X139758095Y-100261904D01*
X139758095Y-99880952D02*
X139758095Y-100261904D01*
X139710476Y-100309523D01*
X139662857Y-100309523D01*
X139567619Y-100261904D01*
X139520000Y-100166666D01*
X139520000Y-99928571D01*
X139615238Y-99785714D01*
X139758095Y-99690476D01*
X139948571Y-99642857D01*
X140139047Y-99690476D01*
X140281904Y-99785714D01*
X140377142Y-99928571D01*
X140424761Y-100119047D01*
X140377142Y-100309523D01*
X140281904Y-100452380D01*
X140139047Y-100547619D01*
X139948571Y-100595238D01*
X139758095Y-100547619D01*
X139615238Y-100452380D01*
X137805714Y-100452380D02*
X138377142Y-100452380D01*
X138091428Y-100452380D02*
X138091428Y-99452380D01*
X138186666Y-99595238D01*
X138281904Y-99690476D01*
X138377142Y-99738095D01*
X137377142Y-100357142D02*
X137329523Y-100404761D01*
X137377142Y-100452380D01*
X137424761Y-100404761D01*
X137377142Y-100357142D01*
X137377142Y-100452380D01*
X136424761Y-99452380D02*
X136900952Y-99452380D01*
X136948571Y-99928571D01*
X136900952Y-99880952D01*
X136805714Y-99833333D01*
X136567619Y-99833333D01*
X136472380Y-99880952D01*
X136424761Y-99928571D01*
X136377142Y-100023809D01*
X136377142Y-100261904D01*
X136424761Y-100357142D01*
X136472380Y-100404761D01*
X136567619Y-100452380D01*
X136805714Y-100452380D01*
X136900952Y-100404761D01*
X136948571Y-100357142D01*
X135948571Y-100071428D02*
X135186666Y-100071428D01*
X134805714Y-99452380D02*
X134186666Y-99452380D01*
X134520000Y-99833333D01*
X134377142Y-99833333D01*
X134281904Y-99880952D01*
X134234285Y-99928571D01*
X134186666Y-100023809D01*
X134186666Y-100261904D01*
X134234285Y-100357142D01*
X134281904Y-100404761D01*
X134377142Y-100452380D01*
X134662857Y-100452380D01*
X134758095Y-100404761D01*
X134805714Y-100357142D01*
X133758095Y-100357142D02*
X133710476Y-100404761D01*
X133758095Y-100452380D01*
X133805714Y-100404761D01*
X133758095Y-100357142D01*
X133758095Y-100452380D01*
X132853333Y-99452380D02*
X133043809Y-99452380D01*
X133139047Y-99500000D01*
X133186666Y-99547619D01*
X133281904Y-99690476D01*
X133329523Y-99880952D01*
X133329523Y-100261904D01*
X133281904Y-100357142D01*
X133234285Y-100404761D01*
X133139047Y-100452380D01*
X132948571Y-100452380D01*
X132853333Y-100404761D01*
X132805714Y-100357142D01*
X132758095Y-100261904D01*
X132758095Y-100023809D01*
X132805714Y-99928571D01*
X132853333Y-99880952D01*
X132948571Y-99833333D01*
X133139047Y-99833333D01*
X133234285Y-99880952D01*
X133281904Y-99928571D01*
X133329523Y-100023809D01*
X132472380Y-99452380D02*
X132139047Y-100452380D01*
X131805714Y-99452380D01*
X143758095Y-102152380D02*
X144329523Y-102152380D01*
X144043809Y-102152380D02*
X144043809Y-101152380D01*
X144139047Y-101295238D01*
X144234285Y-101390476D01*
X144329523Y-101438095D01*
X142853333Y-101152380D02*
X143329523Y-101152380D01*
X143377142Y-101628571D01*
X143329523Y-101580952D01*
X143234285Y-101533333D01*
X142996190Y-101533333D01*
X142900952Y-101580952D01*
X142853333Y-101628571D01*
X142805714Y-101723809D01*
X142805714Y-101961904D01*
X142853333Y-102057142D01*
X142900952Y-102104761D01*
X142996190Y-102152380D01*
X143234285Y-102152380D01*
X143329523Y-102104761D01*
X143377142Y-102057142D01*
X141948571Y-102152380D02*
X141948571Y-101152380D01*
X141948571Y-102104761D02*
X142043809Y-102152380D01*
X142234285Y-102152380D01*
X142329523Y-102104761D01*
X142377142Y-102057142D01*
X142424761Y-101961904D01*
X142424761Y-101676190D01*
X142377142Y-101580952D01*
X142329523Y-101533333D01*
X142234285Y-101485714D01*
X142043809Y-101485714D01*
X141948571Y-101533333D01*
X141139047Y-101628571D02*
X140996190Y-101676190D01*
X140948571Y-101723809D01*
X140900952Y-101819047D01*
X140900952Y-101961904D01*
X140948571Y-102057142D01*
X140996190Y-102104761D01*
X141091428Y-102152380D01*
X141472380Y-102152380D01*
X141472380Y-101152380D01*
X141139047Y-101152380D01*
X141043809Y-101200000D01*
X140996190Y-101247619D01*
X140948571Y-101342857D01*
X140948571Y-101438095D01*
X140996190Y-101533333D01*
X141043809Y-101580952D01*
X141139047Y-101628571D01*
X141472380Y-101628571D01*
X139281904Y-101485714D02*
X139281904Y-102295238D01*
X139329523Y-102390476D01*
X139377142Y-102438095D01*
X139472380Y-102485714D01*
X139615238Y-102485714D01*
X139710476Y-102438095D01*
X139281904Y-102104761D02*
X139377142Y-102152380D01*
X139567619Y-102152380D01*
X139662857Y-102104761D01*
X139710476Y-102057142D01*
X139758095Y-101961904D01*
X139758095Y-101676190D01*
X139710476Y-101580952D01*
X139662857Y-101533333D01*
X139567619Y-101485714D01*
X139377142Y-101485714D01*
X139281904Y-101533333D01*
X138377142Y-102152380D02*
X138377142Y-101628571D01*
X138424761Y-101533333D01*
X138520000Y-101485714D01*
X138710476Y-101485714D01*
X138805714Y-101533333D01*
X138377142Y-102104761D02*
X138472380Y-102152380D01*
X138710476Y-102152380D01*
X138805714Y-102104761D01*
X138853333Y-102009523D01*
X138853333Y-101914285D01*
X138805714Y-101819047D01*
X138710476Y-101771428D01*
X138472380Y-101771428D01*
X138377142Y-101723809D01*
X137900952Y-102152380D02*
X137900952Y-101485714D01*
X137900952Y-101152380D02*
X137948571Y-101200000D01*
X137900952Y-101247619D01*
X137853333Y-101200000D01*
X137900952Y-101152380D01*
X137900952Y-101247619D01*
X137424761Y-101485714D02*
X137424761Y-102152380D01*
X137424761Y-101580952D02*
X137377142Y-101533333D01*
X137281904Y-101485714D01*
X137139047Y-101485714D01*
X137043809Y-101533333D01*
X136996190Y-101628571D01*
X136996190Y-102152380D01*
%LPC*%
D13*
X130000000Y-100000000D03*
D14*
X132540000Y-102540000D03*
X132540000Y-97460000D03*
X127460000Y-102540000D03*
X127460000Y-97460000D03*
D15*
X142450000Y-104375000D03*
X142450000Y-95625000D03*
M02*
