G04 #@! TF.FileFunction,Soldermask,Top*
%FSLAX46Y46*%
G04 Gerber Fmt 4.6, Leading zero omitted, Abs format (unit mm)*
G04 Created by KiCad (PCBNEW 4.1.0-alpha+201605071002+6776~44~ubuntu14.04.1-product) date Mon 30 May 2016 00:25:53 BST*
%MOMM*%
%LPD*%
G01*
G04 APERTURE LIST*
%ADD10C,0.100000*%
%ADD11R,1.000000X0.950000*%
%ADD12R,0.620000X0.620000*%
%ADD13R,1.900000X1.900000*%
%ADD14C,1.900000*%
%ADD15R,0.850000X0.950000*%
%ADD16C,0.787000*%
%ADD17C,1.000000*%
%ADD18R,0.400000X1.350000*%
%ADD19O,1.000000X1.250000*%
%ADD20R,1.800000X1.900000*%
%ADD21R,1.575000X1.900000*%
%ADD22O,1.000000X1.900000*%
%ADD23C,1.200000*%
%ADD24C,1.600000*%
%ADD25R,1.450000X0.450000*%
%ADD26R,0.350000X0.650000*%
%ADD27R,0.802000X0.802000*%
%ADD28R,0.300000X1.500000*%
%ADD29R,1.500000X0.300000*%
%ADD30R,0.950000X1.000000*%
G04 APERTURE END LIST*
D10*
D11*
X89286974Y-80404532D03*
X89286974Y-78804532D03*
D12*
X109800000Y-114550000D03*
X109800000Y-115450000D03*
D13*
X94690000Y-123500000D03*
D14*
X97230000Y-123500000D03*
X99770000Y-123500000D03*
X102310000Y-123500000D03*
D13*
X123500000Y-95430000D03*
D14*
X123500000Y-97970000D03*
D13*
X87730000Y-123500000D03*
D14*
X90270000Y-123500000D03*
D13*
X120830000Y-107700000D03*
D14*
X123370000Y-107700000D03*
D15*
X83725000Y-98575000D03*
X83725000Y-100025000D03*
X84875000Y-100025000D03*
X84875000Y-98575000D03*
D12*
X111000000Y-114550000D03*
X111000000Y-115450000D03*
X90000000Y-77300000D03*
X90900000Y-77300000D03*
X94950000Y-77300000D03*
X95850000Y-77300000D03*
X123450000Y-102400000D03*
X124350000Y-102400000D03*
X104150000Y-81600000D03*
X104150000Y-80700000D03*
X102950000Y-81600000D03*
X102950000Y-80700000D03*
X101750000Y-81600000D03*
X101750000Y-80700000D03*
X100550000Y-81600000D03*
X100550000Y-80700000D03*
X95450000Y-89800000D03*
X96350000Y-89800000D03*
X96350000Y-88600000D03*
X95450000Y-88600000D03*
D10*
G36*
X96156604Y-110218198D02*
X95718198Y-110656604D01*
X95279792Y-110218198D01*
X95718198Y-109779792D01*
X96156604Y-110218198D01*
X96156604Y-110218198D01*
G37*
G36*
X95520208Y-109581802D02*
X95081802Y-110020208D01*
X94643396Y-109581802D01*
X95081802Y-109143396D01*
X95520208Y-109581802D01*
X95520208Y-109581802D01*
G37*
D12*
X86200000Y-99750000D03*
X86200000Y-98850000D03*
X87050000Y-81800000D03*
X87050000Y-82700000D03*
X108600000Y-114550000D03*
X108600000Y-115450000D03*
X107400000Y-114550000D03*
X107400000Y-115450000D03*
X106200000Y-114550000D03*
X106200000Y-115450000D03*
D16*
X77660000Y-86230000D03*
X78930000Y-86230000D03*
X77660000Y-87500000D03*
X78930000Y-87500000D03*
X77660000Y-88770000D03*
X78930000Y-88770000D03*
D17*
X78295000Y-84960000D03*
X77279000Y-90040000D03*
X79311000Y-90040000D03*
D13*
X76480000Y-108130000D03*
D14*
X79020000Y-108130000D03*
X76480000Y-110670000D03*
X79020000Y-110670000D03*
X76480000Y-113210000D03*
X79020000Y-113210000D03*
X76480000Y-115750000D03*
X79020000Y-115750000D03*
X76480000Y-118290000D03*
X79020000Y-118290000D03*
X76480000Y-120830000D03*
X79020000Y-120830000D03*
X76480000Y-123370000D03*
X79020000Y-123370000D03*
D13*
X120980000Y-76670000D03*
D14*
X123520000Y-76670000D03*
X120980000Y-79210000D03*
X123520000Y-79210000D03*
X120980000Y-81750000D03*
X123520000Y-81750000D03*
X120980000Y-84290000D03*
X123520000Y-84290000D03*
X120980000Y-86830000D03*
X123520000Y-86830000D03*
D18*
X83600000Y-79175000D03*
X82950000Y-79175000D03*
X84250000Y-79175000D03*
X84900000Y-79175000D03*
X82300000Y-79175000D03*
D19*
X81375000Y-79500000D03*
X85825000Y-79500000D03*
D20*
X82450000Y-76500000D03*
X84750000Y-76500000D03*
D21*
X80212500Y-76500000D03*
D22*
X79425000Y-76500000D03*
D21*
X86987500Y-76500000D03*
D22*
X87775000Y-76500000D03*
D23*
X119000000Y-118600000D03*
X124000000Y-118600000D03*
D24*
X120500000Y-116500000D03*
X122500000Y-116500000D03*
D13*
X108190000Y-79020000D03*
D14*
X108190000Y-76480000D03*
X110730000Y-79020000D03*
X110730000Y-76480000D03*
X113270000Y-79020000D03*
X113270000Y-76480000D03*
X115810000Y-79020000D03*
X115810000Y-76480000D03*
D23*
X112500000Y-118600000D03*
X117500000Y-118600000D03*
D24*
X114000000Y-116500000D03*
X116000000Y-116500000D03*
D23*
X115750050Y-94505780D03*
X105419220Y-84174950D03*
D10*
G36*
X104036827Y-87282684D02*
X106101578Y-85217933D01*
X106624837Y-85741192D01*
X104560086Y-87805943D01*
X104036827Y-87282684D01*
X104036827Y-87282684D01*
G37*
G36*
X106462203Y-84857308D02*
X108526954Y-82792557D01*
X109050213Y-83315816D01*
X106985462Y-85380567D01*
X106462203Y-84857308D01*
X106462203Y-84857308D01*
G37*
G36*
X104934852Y-88180709D02*
X106999603Y-86115958D01*
X107522862Y-86639217D01*
X105458111Y-88703968D01*
X104934852Y-88180709D01*
X104934852Y-88180709D01*
G37*
G36*
X107360228Y-85755333D02*
X109424979Y-83690582D01*
X109948238Y-84213841D01*
X107883487Y-86278592D01*
X107360228Y-85755333D01*
X107360228Y-85755333D01*
G37*
G36*
X105832878Y-89078735D02*
X107897629Y-87013984D01*
X108420888Y-87537243D01*
X106356137Y-89601994D01*
X105832878Y-89078735D01*
X105832878Y-89078735D01*
G37*
G36*
X108258254Y-86653359D02*
X110323005Y-84588608D01*
X110846264Y-85111867D01*
X108781513Y-87176618D01*
X108258254Y-86653359D01*
X108258254Y-86653359D01*
G37*
G36*
X106730903Y-89976761D02*
X108795654Y-87912010D01*
X109318913Y-88435269D01*
X107254162Y-90500020D01*
X106730903Y-89976761D01*
X106730903Y-89976761D01*
G37*
G36*
X109156280Y-87551384D02*
X111221031Y-85486633D01*
X111744290Y-86009892D01*
X109679539Y-88074643D01*
X109156280Y-87551384D01*
X109156280Y-87551384D01*
G37*
G36*
X107628929Y-90874786D02*
X109693680Y-88810035D01*
X110216939Y-89333294D01*
X108152188Y-91398045D01*
X107628929Y-90874786D01*
X107628929Y-90874786D01*
G37*
G36*
X110054305Y-88449410D02*
X112119056Y-86384659D01*
X112642315Y-86907918D01*
X110577564Y-88972669D01*
X110054305Y-88449410D01*
X110054305Y-88449410D01*
G37*
G36*
X108526955Y-91772812D02*
X110591706Y-89708061D01*
X111114965Y-90231320D01*
X109050214Y-92296071D01*
X108526955Y-91772812D01*
X108526955Y-91772812D01*
G37*
G36*
X110952331Y-89347436D02*
X113017082Y-87282685D01*
X113540341Y-87805944D01*
X111475590Y-89870695D01*
X110952331Y-89347436D01*
X110952331Y-89347436D01*
G37*
G36*
X109424980Y-92670838D02*
X111489731Y-90606087D01*
X112012990Y-91129346D01*
X109948239Y-93194097D01*
X109424980Y-92670838D01*
X109424980Y-92670838D01*
G37*
G36*
X111850357Y-90245461D02*
X113915108Y-88180710D01*
X114438367Y-88703969D01*
X112373616Y-90768720D01*
X111850357Y-90245461D01*
X111850357Y-90245461D01*
G37*
G36*
X110323006Y-93568863D02*
X112387757Y-91504112D01*
X112911016Y-92027371D01*
X110846265Y-94092122D01*
X110323006Y-93568863D01*
X110323006Y-93568863D01*
G37*
G36*
X112748382Y-91143487D02*
X114813133Y-89078736D01*
X115336392Y-89601995D01*
X113271641Y-91666746D01*
X112748382Y-91143487D01*
X112748382Y-91143487D01*
G37*
G36*
X111221032Y-94466889D02*
X113285783Y-92402138D01*
X113809042Y-92925397D01*
X111744291Y-94990148D01*
X111221032Y-94466889D01*
X111221032Y-94466889D01*
G37*
G36*
X113646408Y-92041513D02*
X115711159Y-89976762D01*
X116234418Y-90500021D01*
X114169667Y-92564772D01*
X113646408Y-92041513D01*
X113646408Y-92041513D01*
G37*
G36*
X112119057Y-95364914D02*
X114183808Y-93300163D01*
X114707067Y-93823422D01*
X112642316Y-95888173D01*
X112119057Y-95364914D01*
X112119057Y-95364914D01*
G37*
G36*
X114544433Y-92939538D02*
X116609184Y-90874787D01*
X117132443Y-91398046D01*
X115067692Y-93462797D01*
X114544433Y-92939538D01*
X114544433Y-92939538D01*
G37*
D23*
X94536846Y-115718984D03*
X84206016Y-105388154D03*
D10*
G36*
X82823623Y-108495888D02*
X84888374Y-106431137D01*
X85411633Y-106954396D01*
X83346882Y-109019147D01*
X82823623Y-108495888D01*
X82823623Y-108495888D01*
G37*
G36*
X85248999Y-106070512D02*
X87313750Y-104005761D01*
X87837009Y-104529020D01*
X85772258Y-106593771D01*
X85248999Y-106070512D01*
X85248999Y-106070512D01*
G37*
G36*
X83721648Y-109393913D02*
X85786399Y-107329162D01*
X86309658Y-107852421D01*
X84244907Y-109917172D01*
X83721648Y-109393913D01*
X83721648Y-109393913D01*
G37*
G36*
X86147024Y-106968537D02*
X88211775Y-104903786D01*
X88735034Y-105427045D01*
X86670283Y-107491796D01*
X86147024Y-106968537D01*
X86147024Y-106968537D01*
G37*
G36*
X84619674Y-110291939D02*
X86684425Y-108227188D01*
X87207684Y-108750447D01*
X85142933Y-110815198D01*
X84619674Y-110291939D01*
X84619674Y-110291939D01*
G37*
G36*
X87045050Y-107866563D02*
X89109801Y-105801812D01*
X89633060Y-106325071D01*
X87568309Y-108389822D01*
X87045050Y-107866563D01*
X87045050Y-107866563D01*
G37*
G36*
X85517699Y-111189965D02*
X87582450Y-109125214D01*
X88105709Y-109648473D01*
X86040958Y-111713224D01*
X85517699Y-111189965D01*
X85517699Y-111189965D01*
G37*
G36*
X87943076Y-108764588D02*
X90007827Y-106699837D01*
X90531086Y-107223096D01*
X88466335Y-109287847D01*
X87943076Y-108764588D01*
X87943076Y-108764588D01*
G37*
G36*
X86415725Y-112087990D02*
X88480476Y-110023239D01*
X89003735Y-110546498D01*
X86938984Y-112611249D01*
X86415725Y-112087990D01*
X86415725Y-112087990D01*
G37*
G36*
X88841101Y-109662614D02*
X90905852Y-107597863D01*
X91429111Y-108121122D01*
X89364360Y-110185873D01*
X88841101Y-109662614D01*
X88841101Y-109662614D01*
G37*
G36*
X87313751Y-112986016D02*
X89378502Y-110921265D01*
X89901761Y-111444524D01*
X87837010Y-113509275D01*
X87313751Y-112986016D01*
X87313751Y-112986016D01*
G37*
G36*
X89739127Y-110560640D02*
X91803878Y-108495889D01*
X92327137Y-109019148D01*
X90262386Y-111083899D01*
X89739127Y-110560640D01*
X89739127Y-110560640D01*
G37*
G36*
X88211776Y-113884042D02*
X90276527Y-111819291D01*
X90799786Y-112342550D01*
X88735035Y-114407301D01*
X88211776Y-113884042D01*
X88211776Y-113884042D01*
G37*
G36*
X90637153Y-111458665D02*
X92701904Y-109393914D01*
X93225163Y-109917173D01*
X91160412Y-111981924D01*
X90637153Y-111458665D01*
X90637153Y-111458665D01*
G37*
G36*
X89109802Y-114782067D02*
X91174553Y-112717316D01*
X91697812Y-113240575D01*
X89633061Y-115305326D01*
X89109802Y-114782067D01*
X89109802Y-114782067D01*
G37*
G36*
X91535178Y-112356691D02*
X93599929Y-110291940D01*
X94123188Y-110815199D01*
X92058437Y-112879950D01*
X91535178Y-112356691D01*
X91535178Y-112356691D01*
G37*
G36*
X90007828Y-115680093D02*
X92072579Y-113615342D01*
X92595838Y-114138601D01*
X90531087Y-116203352D01*
X90007828Y-115680093D01*
X90007828Y-115680093D01*
G37*
G36*
X92433204Y-113254717D02*
X94497955Y-111189966D01*
X95021214Y-111713225D01*
X92956463Y-113777976D01*
X92433204Y-113254717D01*
X92433204Y-113254717D01*
G37*
G36*
X90905853Y-116578118D02*
X92970604Y-114513367D01*
X93493863Y-115036626D01*
X91429112Y-117101377D01*
X90905853Y-116578118D01*
X90905853Y-116578118D01*
G37*
G36*
X93331229Y-114152742D02*
X95395980Y-112087991D01*
X95919239Y-112611250D01*
X93854488Y-114676001D01*
X93331229Y-114152742D01*
X93331229Y-114152742D01*
G37*
D25*
X95486974Y-80779532D03*
X95486974Y-80129532D03*
X95486974Y-79479532D03*
X95486974Y-78829532D03*
X91086974Y-78829532D03*
X91086974Y-79479532D03*
X91086974Y-80129532D03*
X91086974Y-80779532D03*
D26*
X96400000Y-104200000D03*
X95750000Y-104200000D03*
X95100000Y-104200000D03*
X94450000Y-104200000D03*
X94450000Y-107300000D03*
X95100000Y-107300000D03*
X95750000Y-107300000D03*
X96400000Y-107300000D03*
D27*
X96025000Y-105750000D03*
X94825000Y-105750000D03*
D28*
X84050000Y-95700000D03*
X84550000Y-95700000D03*
X85050000Y-95700000D03*
X85550000Y-95700000D03*
X86050000Y-95700000D03*
X86550000Y-95700000D03*
X87050000Y-95700000D03*
X87550000Y-95700000D03*
X88050000Y-95700000D03*
X88550000Y-95700000D03*
X89050000Y-95700000D03*
X89550000Y-95700000D03*
X90050000Y-95700000D03*
X90550000Y-95700000D03*
X91050000Y-95700000D03*
X91550000Y-95700000D03*
D29*
X93500000Y-93750000D03*
X93500000Y-93250000D03*
X93500000Y-92750000D03*
X93500000Y-92250000D03*
X93500000Y-91750000D03*
X93500000Y-91250000D03*
X93500000Y-90750000D03*
X93500000Y-90250000D03*
X93500000Y-89750000D03*
X93500000Y-89250000D03*
X93500000Y-88750000D03*
X93500000Y-88250000D03*
X93500000Y-87750000D03*
X93500000Y-87250000D03*
X93500000Y-86750000D03*
X93500000Y-86250000D03*
D28*
X91550000Y-84300000D03*
X91050000Y-84300000D03*
X90550000Y-84300000D03*
X90050000Y-84300000D03*
X89550000Y-84300000D03*
X89050000Y-84300000D03*
X88550000Y-84300000D03*
X88050000Y-84300000D03*
X87550000Y-84300000D03*
X87050000Y-84300000D03*
X86550000Y-84300000D03*
X86050000Y-84300000D03*
X85550000Y-84300000D03*
X85050000Y-84300000D03*
X84550000Y-84300000D03*
X84050000Y-84300000D03*
D29*
X82100000Y-86250000D03*
X82100000Y-86750000D03*
X82100000Y-87250000D03*
X82100000Y-87750000D03*
X82100000Y-88250000D03*
X82100000Y-88750000D03*
X82100000Y-89250000D03*
X82100000Y-89750000D03*
X82100000Y-90250000D03*
X82100000Y-90750000D03*
X82100000Y-91250000D03*
X82100000Y-91750000D03*
X82100000Y-92250000D03*
X82100000Y-92750000D03*
X82100000Y-93250000D03*
X82100000Y-93750000D03*
D11*
X111100000Y-124200000D03*
X111100000Y-122600000D03*
D30*
X92500000Y-75900000D03*
X90900000Y-75900000D03*
X94100000Y-75900000D03*
X95700000Y-75900000D03*
D11*
X109500000Y-124200000D03*
X109500000Y-122600000D03*
X124200000Y-105400000D03*
X124200000Y-103800000D03*
X105500000Y-75900000D03*
X105500000Y-77500000D03*
X103400000Y-75900000D03*
X103400000Y-77500000D03*
X101300000Y-75900000D03*
X101300000Y-77500000D03*
X99200000Y-75900000D03*
X99200000Y-77500000D03*
X107900000Y-124200000D03*
X107900000Y-122600000D03*
X106300000Y-124200000D03*
X106300000Y-122600000D03*
X104700000Y-124200000D03*
X104700000Y-122600000D03*
D30*
X123500000Y-89100000D03*
X121900000Y-89100000D03*
X77000000Y-105800000D03*
X78600000Y-105800000D03*
D11*
X97286974Y-80404532D03*
X97286974Y-78804532D03*
D12*
X93750000Y-77300000D03*
X92850000Y-77300000D03*
X95150000Y-102700000D03*
X95150000Y-101800000D03*
X95450000Y-87400000D03*
X96350000Y-87400000D03*
X83550000Y-81400000D03*
X82650000Y-81400000D03*
X90200000Y-98550000D03*
X90200000Y-97650000D03*
X82650000Y-82600000D03*
X83550000Y-82600000D03*
X96350000Y-93000000D03*
X95450000Y-93000000D03*
X91400000Y-98550000D03*
X91400000Y-97650000D03*
X80500000Y-93650000D03*
X80500000Y-94550000D03*
X96350000Y-86200000D03*
X95450000Y-86200000D03*
X96350000Y-85000000D03*
X95450000Y-85000000D03*
X84650000Y-101400000D03*
X83750000Y-101400000D03*
X82400000Y-99750000D03*
X82400000Y-98850000D03*
M02*
