G04 #@! TF.GenerationSoftware,KiCad,Pcbnew,no-vcs-found-7587~57~ubuntu14.04.1*
G04 #@! TF.CreationDate,2017-02-07T01:28:41+00:00*
G04 #@! TF.ProjectId,dart_gps,646172745F6770732E6B696361645F70,rev?*
G04 #@! TF.FileFunction,Copper,L1,Top,Signal*
G04 #@! TF.FilePolarity,Positive*
%FSLAX46Y46*%
G04 Gerber Fmt 4.6, Leading zero omitted, Abs format (unit mm)*
G04 Created by KiCad (PCBNEW no-vcs-found-7587~57~ubuntu14.04.1) date Tue Feb  7 01:28:41 2017*
%MOMM*%
%LPD*%
G01*
G04 APERTURE LIST*
%ADD10C,0.100000*%
%ADD11C,2.500000*%
%ADD12C,0.050000*%
G04 APERTURE END LIST*
D10*
D11*
X87000000Y-178000000D03*
D12*
G36*
X87475000Y-177776000D02*
X87475480Y-177780877D01*
X87476903Y-177785567D01*
X87479213Y-177789889D01*
X87482322Y-177793678D01*
X87486111Y-177796787D01*
X87490433Y-177799097D01*
X87495123Y-177800520D01*
X87500000Y-177801000D01*
X94235000Y-177801000D01*
X94235000Y-177862500D01*
X94235480Y-177867377D01*
X94236903Y-177872067D01*
X94239213Y-177876389D01*
X94242322Y-177880178D01*
X94246111Y-177883287D01*
X94250433Y-177885597D01*
X94255123Y-177887020D01*
X94260000Y-177887500D01*
X120262244Y-177887500D01*
X120612500Y-178237756D01*
X120612500Y-188000000D01*
X120612980Y-188004877D01*
X120614403Y-188009567D01*
X120616713Y-188013889D01*
X120619822Y-188017678D01*
X120623611Y-188020787D01*
X120627933Y-188023097D01*
X120632623Y-188024520D01*
X120637500Y-188025000D01*
X149489644Y-188025000D01*
X151975000Y-190510356D01*
X151975000Y-250975000D01*
X91510356Y-250975000D01*
X89025000Y-248489644D01*
X89025000Y-188025000D01*
X120362500Y-188025000D01*
X120367377Y-188024520D01*
X120372067Y-188023097D01*
X120376389Y-188020787D01*
X120380178Y-188017678D01*
X120383287Y-188013889D01*
X120385597Y-188009567D01*
X120387020Y-188004877D01*
X120387500Y-188000000D01*
X120387500Y-178137500D01*
X120387020Y-178132623D01*
X120385597Y-178127933D01*
X120383287Y-178123611D01*
X120380178Y-178119822D01*
X120376389Y-178116713D01*
X120372067Y-178114403D01*
X120367377Y-178112980D01*
X120362500Y-178112500D01*
X94260000Y-178112500D01*
X94255123Y-178112980D01*
X94250433Y-178114403D01*
X94246111Y-178116713D01*
X94242322Y-178119822D01*
X94239213Y-178123611D01*
X94236903Y-178127933D01*
X94235480Y-178132623D01*
X94235000Y-178137500D01*
X94235000Y-178199000D01*
X87500000Y-178199000D01*
X87495123Y-178199480D01*
X87490433Y-178200903D01*
X87486111Y-178203213D01*
X87482322Y-178206322D01*
X87479213Y-178210111D01*
X87476903Y-178214433D01*
X87475480Y-178219123D01*
X87475000Y-178224000D01*
X87475000Y-178475000D01*
X86525000Y-178475000D01*
X86525000Y-178224000D01*
X86524520Y-178219123D01*
X86523097Y-178214433D01*
X86520787Y-178210111D01*
X86517678Y-178206322D01*
X86513889Y-178203213D01*
X86509567Y-178200903D01*
X86504877Y-178199480D01*
X86500000Y-178199000D01*
X79765000Y-178199000D01*
X79765000Y-178137500D01*
X79764520Y-178132623D01*
X79763097Y-178127933D01*
X79760787Y-178123611D01*
X79757678Y-178119822D01*
X79753889Y-178116713D01*
X79749567Y-178114403D01*
X79744877Y-178112980D01*
X79740000Y-178112500D01*
X53637500Y-178112500D01*
X53632623Y-178112980D01*
X53627933Y-178114403D01*
X53623611Y-178116713D01*
X53619822Y-178119822D01*
X53616713Y-178123611D01*
X53614403Y-178127933D01*
X53612980Y-178132623D01*
X53612500Y-178137500D01*
X53612500Y-188000000D01*
X53612980Y-188004877D01*
X53614403Y-188009567D01*
X53616713Y-188013889D01*
X53619822Y-188017678D01*
X53623611Y-188020787D01*
X53627933Y-188023097D01*
X53632623Y-188024520D01*
X53637500Y-188025000D01*
X82489644Y-188025000D01*
X84975000Y-190510356D01*
X84975000Y-250975000D01*
X24510356Y-250975000D01*
X22025000Y-248489644D01*
X22025000Y-188025000D01*
X53362500Y-188025000D01*
X53367377Y-188024520D01*
X53372067Y-188023097D01*
X53376389Y-188020787D01*
X53380178Y-188017678D01*
X53383287Y-188013889D01*
X53385597Y-188009567D01*
X53387020Y-188004877D01*
X53387500Y-188000000D01*
X53387500Y-178237756D01*
X53737756Y-177887500D01*
X79740000Y-177887500D01*
X79744877Y-177887020D01*
X79749567Y-177885597D01*
X79753889Y-177883287D01*
X79757678Y-177880178D01*
X79760787Y-177876389D01*
X79763097Y-177872067D01*
X79764520Y-177867377D01*
X79765000Y-177862500D01*
X79765000Y-177801000D01*
X86500000Y-177801000D01*
X86504877Y-177800520D01*
X86509567Y-177799097D01*
X86513889Y-177796787D01*
X86517678Y-177793678D01*
X86520787Y-177789889D01*
X86523097Y-177785567D01*
X86524520Y-177780877D01*
X86525000Y-177776000D01*
X86525000Y-177525000D01*
X87475000Y-177525000D01*
X87475000Y-177776000D01*
X87475000Y-177776000D01*
G37*
X87475000Y-177776000D02*
X87475480Y-177780877D01*
X87476903Y-177785567D01*
X87479213Y-177789889D01*
X87482322Y-177793678D01*
X87486111Y-177796787D01*
X87490433Y-177799097D01*
X87495123Y-177800520D01*
X87500000Y-177801000D01*
X94235000Y-177801000D01*
X94235000Y-177862500D01*
X94235480Y-177867377D01*
X94236903Y-177872067D01*
X94239213Y-177876389D01*
X94242322Y-177880178D01*
X94246111Y-177883287D01*
X94250433Y-177885597D01*
X94255123Y-177887020D01*
X94260000Y-177887500D01*
X120262244Y-177887500D01*
X120612500Y-178237756D01*
X120612500Y-188000000D01*
X120612980Y-188004877D01*
X120614403Y-188009567D01*
X120616713Y-188013889D01*
X120619822Y-188017678D01*
X120623611Y-188020787D01*
X120627933Y-188023097D01*
X120632623Y-188024520D01*
X120637500Y-188025000D01*
X149489644Y-188025000D01*
X151975000Y-190510356D01*
X151975000Y-250975000D01*
X91510356Y-250975000D01*
X89025000Y-248489644D01*
X89025000Y-188025000D01*
X120362500Y-188025000D01*
X120367377Y-188024520D01*
X120372067Y-188023097D01*
X120376389Y-188020787D01*
X120380178Y-188017678D01*
X120383287Y-188013889D01*
X120385597Y-188009567D01*
X120387020Y-188004877D01*
X120387500Y-188000000D01*
X120387500Y-178137500D01*
X120387020Y-178132623D01*
X120385597Y-178127933D01*
X120383287Y-178123611D01*
X120380178Y-178119822D01*
X120376389Y-178116713D01*
X120372067Y-178114403D01*
X120367377Y-178112980D01*
X120362500Y-178112500D01*
X94260000Y-178112500D01*
X94255123Y-178112980D01*
X94250433Y-178114403D01*
X94246111Y-178116713D01*
X94242322Y-178119822D01*
X94239213Y-178123611D01*
X94236903Y-178127933D01*
X94235480Y-178132623D01*
X94235000Y-178137500D01*
X94235000Y-178199000D01*
X87500000Y-178199000D01*
X87495123Y-178199480D01*
X87490433Y-178200903D01*
X87486111Y-178203213D01*
X87482322Y-178206322D01*
X87479213Y-178210111D01*
X87476903Y-178214433D01*
X87475480Y-178219123D01*
X87475000Y-178224000D01*
X87475000Y-178475000D01*
X86525000Y-178475000D01*
X86525000Y-178224000D01*
X86524520Y-178219123D01*
X86523097Y-178214433D01*
X86520787Y-178210111D01*
X86517678Y-178206322D01*
X86513889Y-178203213D01*
X86509567Y-178200903D01*
X86504877Y-178199480D01*
X86500000Y-178199000D01*
X79765000Y-178199000D01*
X79765000Y-178137500D01*
X79764520Y-178132623D01*
X79763097Y-178127933D01*
X79760787Y-178123611D01*
X79757678Y-178119822D01*
X79753889Y-178116713D01*
X79749567Y-178114403D01*
X79744877Y-178112980D01*
X79740000Y-178112500D01*
X53637500Y-178112500D01*
X53632623Y-178112980D01*
X53627933Y-178114403D01*
X53623611Y-178116713D01*
X53619822Y-178119822D01*
X53616713Y-178123611D01*
X53614403Y-178127933D01*
X53612980Y-178132623D01*
X53612500Y-178137500D01*
X53612500Y-188000000D01*
X53612980Y-188004877D01*
X53614403Y-188009567D01*
X53616713Y-188013889D01*
X53619822Y-188017678D01*
X53623611Y-188020787D01*
X53627933Y-188023097D01*
X53632623Y-188024520D01*
X53637500Y-188025000D01*
X82489644Y-188025000D01*
X84975000Y-190510356D01*
X84975000Y-250975000D01*
X24510356Y-250975000D01*
X22025000Y-248489644D01*
X22025000Y-188025000D01*
X53362500Y-188025000D01*
X53367377Y-188024520D01*
X53372067Y-188023097D01*
X53376389Y-188020787D01*
X53380178Y-188017678D01*
X53383287Y-188013889D01*
X53385597Y-188009567D01*
X53387020Y-188004877D01*
X53387500Y-188000000D01*
X53387500Y-178237756D01*
X53737756Y-177887500D01*
X79740000Y-177887500D01*
X79744877Y-177887020D01*
X79749567Y-177885597D01*
X79753889Y-177883287D01*
X79757678Y-177880178D01*
X79760787Y-177876389D01*
X79763097Y-177872067D01*
X79764520Y-177867377D01*
X79765000Y-177862500D01*
X79765000Y-177801000D01*
X86500000Y-177801000D01*
X86504877Y-177800520D01*
X86509567Y-177799097D01*
X86513889Y-177796787D01*
X86517678Y-177793678D01*
X86520787Y-177789889D01*
X86523097Y-177785567D01*
X86524520Y-177780877D01*
X86525000Y-177776000D01*
X86525000Y-177525000D01*
X87475000Y-177525000D01*
X87475000Y-177776000D01*
M02*
