G04 #@! TF.FileFunction,Soldermask,Bot*
%FSLAX46Y46*%
G04 Gerber Fmt 4.6, Leading zero omitted, Abs format (unit mm)*
G04 Created by KiCad (PCBNEW 0.201601071449+6428~40~ubuntu14.04.1-stable) date Thu 11 Feb 2016 16:27:28 GMT*
%MOMM*%
G01*
G04 APERTURE LIST*
%ADD10C,0.100000*%
%ADD11R,2.220000X0.740000*%
%ADD12C,1.200000*%
%ADD13O,1.000000X1.250000*%
%ADD14O,1.000000X1.900000*%
%ADD15C,1.000000*%
%ADD16C,3.000000*%
%ADD17C,1.600000*%
G04 APERTURE END LIST*
D10*
D11*
X83635000Y-94285000D03*
X86365000Y-94285000D03*
X83635000Y-95555000D03*
X86365000Y-95555000D03*
X83635000Y-96825000D03*
X86365000Y-96825000D03*
X83635000Y-98095000D03*
X86365000Y-98095000D03*
X83635000Y-99365000D03*
X86365000Y-99365000D03*
X83635000Y-100635000D03*
X86365000Y-100635000D03*
X83635000Y-101905000D03*
X86365000Y-101905000D03*
X83635000Y-103175000D03*
X86365000Y-103175000D03*
X83635000Y-104445000D03*
X86365000Y-104445000D03*
X83635000Y-105715000D03*
X86365000Y-105715000D03*
D12*
X85000000Y-107305000D03*
X85000000Y-92695000D03*
D11*
X113635000Y-94285000D03*
X116365000Y-94285000D03*
X113635000Y-95555000D03*
X116365000Y-95555000D03*
X113635000Y-96825000D03*
X116365000Y-96825000D03*
X113635000Y-98095000D03*
X116365000Y-98095000D03*
X113635000Y-99365000D03*
X116365000Y-99365000D03*
X113635000Y-100635000D03*
X116365000Y-100635000D03*
X113635000Y-101905000D03*
X116365000Y-101905000D03*
X113635000Y-103175000D03*
X116365000Y-103175000D03*
X113635000Y-104445000D03*
X116365000Y-104445000D03*
X113635000Y-105715000D03*
X116365000Y-105715000D03*
D12*
X115000000Y-107305000D03*
X115000000Y-92695000D03*
D13*
X98000000Y-85000000D03*
X102450000Y-85000000D03*
D14*
X96050000Y-82000000D03*
X104400000Y-82000000D03*
D15*
X90795000Y-85060000D03*
X89779000Y-90140000D03*
X91811000Y-90140000D03*
D16*
X99000000Y-123000000D03*
X99000000Y-118300000D03*
X99000000Y-127700000D03*
X106500000Y-123000000D03*
X106500000Y-118300000D03*
X106500000Y-127700000D03*
X91500000Y-123000000D03*
X91500000Y-118300000D03*
X91500000Y-127700000D03*
X84000000Y-123000000D03*
X84000000Y-118300000D03*
X84000000Y-127700000D03*
D12*
X119000000Y-123300000D03*
D17*
X117500000Y-125000000D03*
X115500000Y-125000000D03*
D12*
X119000000Y-115300000D03*
D17*
X117500000Y-117000000D03*
X115500000Y-117000000D03*
M02*
