G04 #@! TF.FileFunction,Copper,L2,Bot,Signal*
%FSLAX46Y46*%
G04 Gerber Fmt 4.6, Leading zero omitted, Abs format (unit mm)*
G04 Created by KiCad (PCBNEW 0.201601071449+6428~40~ubuntu14.04.1-stable) date Sun 13 Mar 2016 00:05:51 GMT*
%MOMM*%
G01*
G04 APERTURE LIST*
%ADD10C,0.100000*%
%ADD11R,1.900000X1.900000*%
%ADD12C,1.900000*%
%ADD13O,1.000000X1.250000*%
%ADD14O,1.000000X1.900000*%
%ADD15C,1.600000*%
%ADD16C,0.800000*%
%ADD17C,0.500000*%
%ADD18C,0.800000*%
%ADD19C,0.280000*%
%ADD20C,1.000000*%
%ADD21C,0.200000*%
G04 APERTURE END LIST*
D10*
D11*
X94690000Y-123500000D03*
D12*
X97230000Y-123500000D03*
X99770000Y-123500000D03*
X102310000Y-123500000D03*
D11*
X123500000Y-95430000D03*
D12*
X123500000Y-97970000D03*
D11*
X87730000Y-123500000D03*
D12*
X90270000Y-123500000D03*
D11*
X120830000Y-107700000D03*
D12*
X123370000Y-107700000D03*
D11*
X76480000Y-108130000D03*
D12*
X79020000Y-108130000D03*
X76480000Y-110670000D03*
X79020000Y-110670000D03*
X76480000Y-113210000D03*
X79020000Y-113210000D03*
X76480000Y-115750000D03*
X79020000Y-115750000D03*
X76480000Y-118290000D03*
X79020000Y-118290000D03*
X76480000Y-120830000D03*
X79020000Y-120830000D03*
X76480000Y-123370000D03*
X79020000Y-123370000D03*
D11*
X120980000Y-76670000D03*
D12*
X123520000Y-76670000D03*
X120980000Y-79210000D03*
X123520000Y-79210000D03*
X120980000Y-81750000D03*
X123520000Y-81750000D03*
X120980000Y-84290000D03*
X123520000Y-84290000D03*
X120980000Y-86830000D03*
X123520000Y-86830000D03*
D13*
X81375000Y-79500000D03*
X85825000Y-79500000D03*
D14*
X79425000Y-76500000D03*
X87775000Y-76500000D03*
D15*
X120500000Y-116500000D03*
X122500000Y-116500000D03*
D11*
X108190000Y-79020000D03*
D12*
X108190000Y-76480000D03*
X110730000Y-79020000D03*
X110730000Y-76480000D03*
X113270000Y-79020000D03*
X113270000Y-76480000D03*
X115810000Y-79020000D03*
X115810000Y-76480000D03*
D15*
X114000000Y-116500000D03*
X116000000Y-116500000D03*
D10*
G36*
X104531801Y-86787710D02*
X106101578Y-85217933D01*
X106624837Y-85741192D01*
X105055060Y-87310969D01*
X104531801Y-86787710D01*
X104531801Y-86787710D01*
G37*
G36*
X106462203Y-84857308D02*
X108031980Y-83287531D01*
X108555239Y-83810790D01*
X106985462Y-85380567D01*
X106462203Y-84857308D01*
X106462203Y-84857308D01*
G37*
G36*
X105429827Y-87685735D02*
X106999604Y-86115958D01*
X107522863Y-86639217D01*
X105953086Y-88208994D01*
X105429827Y-87685735D01*
X105429827Y-87685735D01*
G37*
G36*
X107360228Y-85755334D02*
X108930005Y-84185557D01*
X109453264Y-84708816D01*
X107883487Y-86278593D01*
X107360228Y-85755334D01*
X107360228Y-85755334D01*
G37*
G36*
X106327852Y-88583761D02*
X107897629Y-87013984D01*
X108420888Y-87537243D01*
X106851111Y-89107020D01*
X106327852Y-88583761D01*
X106327852Y-88583761D01*
G37*
G36*
X108258254Y-86653359D02*
X109828031Y-85083582D01*
X110351290Y-85606841D01*
X108781513Y-87176618D01*
X108258254Y-86653359D01*
X108258254Y-86653359D01*
G37*
G36*
X107225878Y-89481786D02*
X108795655Y-87912009D01*
X109318914Y-88435268D01*
X107749137Y-90005045D01*
X107225878Y-89481786D01*
X107225878Y-89481786D01*
G37*
G36*
X109156279Y-87551385D02*
X110726056Y-85981608D01*
X111249315Y-86504867D01*
X109679538Y-88074644D01*
X109156279Y-87551385D01*
X109156279Y-87551385D01*
G37*
G36*
X108123903Y-90379812D02*
X109693680Y-88810035D01*
X110216939Y-89333294D01*
X108647162Y-90903071D01*
X108123903Y-90379812D01*
X108123903Y-90379812D01*
G37*
G36*
X110054305Y-88449410D02*
X111624082Y-86879633D01*
X112147341Y-87402892D01*
X110577564Y-88972669D01*
X110054305Y-88449410D01*
X110054305Y-88449410D01*
G37*
G36*
X109021929Y-91277838D02*
X110591706Y-89708061D01*
X111114965Y-90231320D01*
X109545188Y-91801097D01*
X109021929Y-91277838D01*
X109021929Y-91277838D01*
G37*
G36*
X110952331Y-89347436D02*
X112522108Y-87777659D01*
X113045367Y-88300918D01*
X111475590Y-89870695D01*
X110952331Y-89347436D01*
X110952331Y-89347436D01*
G37*
G36*
X109919955Y-92175863D02*
X111489732Y-90606086D01*
X112012991Y-91129345D01*
X110443214Y-92699122D01*
X109919955Y-92175863D01*
X109919955Y-92175863D01*
G37*
G36*
X111850356Y-90245462D02*
X113420133Y-88675685D01*
X113943392Y-89198944D01*
X112373615Y-90768721D01*
X111850356Y-90245462D01*
X111850356Y-90245462D01*
G37*
G36*
X110817980Y-93073889D02*
X112387757Y-91504112D01*
X112911016Y-92027371D01*
X111341239Y-93597148D01*
X110817980Y-93073889D01*
X110817980Y-93073889D01*
G37*
G36*
X112748382Y-91143487D02*
X114318159Y-89573710D01*
X114841418Y-90096969D01*
X113271641Y-91666746D01*
X112748382Y-91143487D01*
X112748382Y-91143487D01*
G37*
G36*
X111716006Y-93971914D02*
X113285783Y-92402137D01*
X113809042Y-92925396D01*
X112239265Y-94495173D01*
X111716006Y-93971914D01*
X111716006Y-93971914D01*
G37*
G36*
X113646407Y-92041513D02*
X115216184Y-90471736D01*
X115739443Y-90994995D01*
X114169666Y-92564772D01*
X113646407Y-92041513D01*
X113646407Y-92041513D01*
G37*
G36*
X112614031Y-94869940D02*
X114183808Y-93300163D01*
X114707067Y-93823422D01*
X113137290Y-95393199D01*
X112614031Y-94869940D01*
X112614031Y-94869940D01*
G37*
G36*
X114544433Y-92939538D02*
X116114210Y-91369761D01*
X116637469Y-91893020D01*
X115067692Y-93462797D01*
X114544433Y-92939538D01*
X114544433Y-92939538D01*
G37*
G36*
X83318597Y-108000914D02*
X84888374Y-106431137D01*
X85411633Y-106954396D01*
X83841856Y-108524173D01*
X83318597Y-108000914D01*
X83318597Y-108000914D01*
G37*
G36*
X85248999Y-106070512D02*
X86818776Y-104500735D01*
X87342035Y-105023994D01*
X85772258Y-106593771D01*
X85248999Y-106070512D01*
X85248999Y-106070512D01*
G37*
G36*
X84216623Y-108898939D02*
X85786400Y-107329162D01*
X86309659Y-107852421D01*
X84739882Y-109422198D01*
X84216623Y-108898939D01*
X84216623Y-108898939D01*
G37*
G36*
X86147024Y-106968538D02*
X87716801Y-105398761D01*
X88240060Y-105922020D01*
X86670283Y-107491797D01*
X86147024Y-106968538D01*
X86147024Y-106968538D01*
G37*
G36*
X85114648Y-109796965D02*
X86684425Y-108227188D01*
X87207684Y-108750447D01*
X85637907Y-110320224D01*
X85114648Y-109796965D01*
X85114648Y-109796965D01*
G37*
G36*
X87045050Y-107866563D02*
X88614827Y-106296786D01*
X89138086Y-106820045D01*
X87568309Y-108389822D01*
X87045050Y-107866563D01*
X87045050Y-107866563D01*
G37*
G36*
X86012674Y-110694990D02*
X87582451Y-109125213D01*
X88105710Y-109648472D01*
X86535933Y-111218249D01*
X86012674Y-110694990D01*
X86012674Y-110694990D01*
G37*
G36*
X87943075Y-108764589D02*
X89512852Y-107194812D01*
X90036111Y-107718071D01*
X88466334Y-109287848D01*
X87943075Y-108764589D01*
X87943075Y-108764589D01*
G37*
G36*
X86910699Y-111593016D02*
X88480476Y-110023239D01*
X89003735Y-110546498D01*
X87433958Y-112116275D01*
X86910699Y-111593016D01*
X86910699Y-111593016D01*
G37*
G36*
X88841101Y-109662614D02*
X90410878Y-108092837D01*
X90934137Y-108616096D01*
X89364360Y-110185873D01*
X88841101Y-109662614D01*
X88841101Y-109662614D01*
G37*
G36*
X87808725Y-112491042D02*
X89378502Y-110921265D01*
X89901761Y-111444524D01*
X88331984Y-113014301D01*
X87808725Y-112491042D01*
X87808725Y-112491042D01*
G37*
G36*
X89739127Y-110560640D02*
X91308904Y-108990863D01*
X91832163Y-109514122D01*
X90262386Y-111083899D01*
X89739127Y-110560640D01*
X89739127Y-110560640D01*
G37*
G36*
X88706751Y-113389067D02*
X90276528Y-111819290D01*
X90799787Y-112342549D01*
X89230010Y-113912326D01*
X88706751Y-113389067D01*
X88706751Y-113389067D01*
G37*
G36*
X90637152Y-111458666D02*
X92206929Y-109888889D01*
X92730188Y-110412148D01*
X91160411Y-111981925D01*
X90637152Y-111458666D01*
X90637152Y-111458666D01*
G37*
G36*
X89604776Y-114287093D02*
X91174553Y-112717316D01*
X91697812Y-113240575D01*
X90128035Y-114810352D01*
X89604776Y-114287093D01*
X89604776Y-114287093D01*
G37*
G36*
X91535178Y-112356691D02*
X93104955Y-110786914D01*
X93628214Y-111310173D01*
X92058437Y-112879950D01*
X91535178Y-112356691D01*
X91535178Y-112356691D01*
G37*
G36*
X90502802Y-115185118D02*
X92072579Y-113615341D01*
X92595838Y-114138600D01*
X91026061Y-115708377D01*
X90502802Y-115185118D01*
X90502802Y-115185118D01*
G37*
G36*
X92433203Y-113254717D02*
X94002980Y-111684940D01*
X94526239Y-112208199D01*
X92956462Y-113777976D01*
X92433203Y-113254717D01*
X92433203Y-113254717D01*
G37*
G36*
X91400827Y-116083144D02*
X92970604Y-114513367D01*
X93493863Y-115036626D01*
X91924086Y-116606403D01*
X91400827Y-116083144D01*
X91400827Y-116083144D01*
G37*
G36*
X93331229Y-114152742D02*
X94901006Y-112582965D01*
X95424265Y-113106224D01*
X93854488Y-114676001D01*
X93331229Y-114152742D01*
X93331229Y-114152742D01*
G37*
D16*
X82900000Y-80450000D03*
X80650000Y-80600000D03*
X89900000Y-78200000D03*
X97500000Y-105700000D03*
X95100000Y-100800000D03*
X78300000Y-90800000D03*
X79600000Y-91500000D03*
X79600000Y-93600000D03*
X123100000Y-104800000D03*
X97300000Y-77700000D03*
X121900000Y-90250000D03*
X81700000Y-81400000D03*
X97400000Y-89800000D03*
X97400000Y-93050000D03*
X92400000Y-98550000D03*
X79750000Y-105800000D03*
X116600000Y-92950000D03*
X114200000Y-95350000D03*
X107050000Y-83400000D03*
X104600000Y-85800000D03*
X96400000Y-84000000D03*
X85823803Y-97928337D03*
X82500000Y-101400000D03*
X95300000Y-114100000D03*
X92900000Y-116500000D03*
X85800000Y-104600000D03*
X83400000Y-107000000D03*
X77400000Y-82900000D03*
X88900000Y-82150000D03*
X94000000Y-102700000D03*
X97100000Y-108800000D03*
X93300000Y-109300000D03*
X80950000Y-106350000D03*
X93100000Y-80150000D03*
X99000000Y-81000000D03*
X102900000Y-87950000D03*
X112950000Y-97100000D03*
X88800000Y-104800000D03*
X89700000Y-105700000D03*
X91800000Y-105500000D03*
X91800000Y-103900000D03*
X91450000Y-93250000D03*
X93400000Y-94650000D03*
X90700000Y-94050000D03*
X94200000Y-95550000D03*
X94200000Y-110200000D03*
X95100000Y-111100000D03*
X83600000Y-110000000D03*
X84500000Y-110900000D03*
X85400000Y-111800000D03*
X86300000Y-112700000D03*
X87200000Y-113600000D03*
X92400000Y-108400000D03*
X88100000Y-114500000D03*
X89000000Y-115400000D03*
X89900000Y-116300000D03*
X110050000Y-83600000D03*
X104850000Y-88800000D03*
X110950000Y-84450000D03*
X105750000Y-89700000D03*
X106650000Y-90600000D03*
X111850000Y-85250000D03*
X107550000Y-91500000D03*
X112750000Y-86250000D03*
X108450000Y-92400000D03*
X113650000Y-87150000D03*
X109350000Y-93300000D03*
X114550000Y-88050000D03*
X110200000Y-94150000D03*
X115450000Y-88950000D03*
X111150000Y-104800000D03*
X116350000Y-89850000D03*
X111150000Y-95100000D03*
D17*
X113660549Y-94346681D02*
X113660549Y-94810549D01*
X113660549Y-94810549D02*
X114200000Y-95350000D01*
X115590951Y-92416279D02*
X116066279Y-92416279D01*
X116066279Y-92416279D02*
X116600000Y-92950000D01*
X94377747Y-113629483D02*
X94829483Y-113629483D01*
X94829483Y-113629483D02*
X95300000Y-114100000D01*
X92447345Y-115559885D02*
X92447345Y-116047345D01*
X92447345Y-116047345D02*
X92900000Y-116500000D01*
X86295517Y-105547253D02*
X86295517Y-105095517D01*
X86295517Y-105095517D02*
X85800000Y-104600000D01*
X84365115Y-107477655D02*
X83877655Y-107477655D01*
X83877655Y-107477655D02*
X83400000Y-107000000D01*
X105578319Y-86264451D02*
X105064451Y-86264451D01*
X105064451Y-86264451D02*
X104600000Y-85800000D01*
X107508721Y-84334049D02*
X107508721Y-83858721D01*
X107508721Y-83858721D02*
X107050000Y-83400000D01*
X105578319Y-86264451D02*
X107508721Y-84334049D01*
X115590951Y-92416279D02*
X113660549Y-94346681D01*
X92447345Y-115559885D02*
X94377747Y-113629483D01*
X84365115Y-107477655D02*
X86295517Y-105547253D01*
D18*
X76480000Y-110670000D02*
X76480000Y-108130000D01*
X76480000Y-113210000D02*
X76480000Y-110670000D01*
X76480000Y-115750000D02*
X76480000Y-113210000D01*
X76480000Y-118290000D02*
X76480000Y-115750000D01*
X76480000Y-120830000D02*
X76480000Y-118290000D01*
X76480000Y-123370000D02*
X76480000Y-120830000D01*
D19*
X75800000Y-82850000D02*
X77350000Y-82850000D01*
X77350000Y-82850000D02*
X77400000Y-82900000D01*
D18*
X88900000Y-80250000D02*
X88900000Y-82150000D01*
X86350000Y-77700000D02*
X88900000Y-80250000D01*
X80950000Y-77700000D02*
X86350000Y-77700000D01*
X75800000Y-82850000D02*
X80950000Y-77700000D01*
X75800000Y-106550000D02*
X75800000Y-82850000D01*
X76480000Y-107230000D02*
X75800000Y-106550000D01*
X76480000Y-108130000D02*
X76480000Y-107230000D01*
D19*
X93300000Y-103400000D02*
X94000000Y-102700000D01*
X93300000Y-108550000D02*
X93300000Y-108250000D01*
X93300000Y-108250000D02*
X93300000Y-103400000D01*
X93800000Y-108800000D02*
X93800000Y-108750000D01*
X93800000Y-108750000D02*
X93300000Y-108250000D01*
X93300000Y-108750000D02*
X93300000Y-108550000D01*
X93800000Y-108800000D02*
X93550000Y-108800000D01*
X93550000Y-108800000D02*
X93300000Y-108550000D01*
X93300000Y-109300000D02*
X93300000Y-108750000D01*
X93800000Y-108800000D02*
X93350000Y-108800000D01*
X93350000Y-108800000D02*
X93300000Y-108750000D01*
D17*
X97100000Y-108800000D02*
X93800000Y-108800000D01*
X93800000Y-108800000D02*
X93300000Y-109300000D01*
X93300000Y-109300000D02*
X93300000Y-109319077D01*
X93300000Y-109319077D02*
X91683670Y-110935407D01*
X80800000Y-108100000D02*
X80800000Y-106500000D01*
X80800000Y-106500000D02*
X80950000Y-106350000D01*
D20*
X123520000Y-84290000D02*
X123520000Y-86830000D01*
X123520000Y-81750000D02*
X123520000Y-84290000D01*
X123520000Y-79210000D02*
X123520000Y-81750000D01*
X123520000Y-76670000D02*
X123520000Y-79210000D01*
X99000000Y-81000000D02*
X93950000Y-81000000D01*
X93950000Y-81000000D02*
X93100000Y-80150000D01*
X110800000Y-97100000D02*
X102900000Y-89200000D01*
X102900000Y-89200000D02*
X102900000Y-87950000D01*
X112950000Y-97100000D02*
X110800000Y-97100000D01*
D17*
X80800000Y-122800000D02*
X80800000Y-108100000D01*
X81500000Y-123500000D02*
X80800000Y-122800000D01*
X87730000Y-123500000D02*
X81500000Y-123500000D01*
X88800000Y-104800000D02*
X88800000Y-104838821D01*
X88800000Y-104838821D02*
X87193542Y-106445279D01*
X89700000Y-105700000D02*
X89700000Y-105734872D01*
X89700000Y-105734872D02*
X88091568Y-107343304D01*
D19*
X89887619Y-109139355D02*
X91800000Y-107226974D01*
X91800000Y-107226974D02*
X91800000Y-105500000D01*
X88989593Y-108241330D02*
X90390001Y-106840922D01*
X90390001Y-106840922D02*
X90390001Y-105309999D01*
X90390001Y-105309999D02*
X91800000Y-103900000D01*
X93400000Y-94650000D02*
X92850000Y-94650000D01*
X92850000Y-94650000D02*
X91450000Y-93250000D01*
X94200000Y-95550000D02*
X92200000Y-95550000D01*
X92200000Y-95550000D02*
X90700000Y-94050000D01*
D17*
X94200000Y-110200000D02*
X94200000Y-110215128D01*
X94200000Y-110215128D02*
X92581696Y-111833432D01*
X95100000Y-111100000D02*
X95100000Y-111111179D01*
X95100000Y-111111179D02*
X93479721Y-112731458D01*
X83600000Y-110000000D02*
X83638821Y-110000000D01*
X83638821Y-110000000D02*
X85263141Y-108375680D01*
X86161166Y-109273706D02*
X86126294Y-109273706D01*
X86126294Y-109273706D02*
X84500000Y-110900000D01*
X85400000Y-111800000D02*
X85430923Y-111800000D01*
X85430923Y-111800000D02*
X87059192Y-110171731D01*
X86300000Y-112700000D02*
X86326974Y-112700000D01*
X86326974Y-112700000D02*
X87957217Y-111069757D01*
X87200000Y-113600000D02*
X87223026Y-113600000D01*
X87223026Y-113600000D02*
X88855243Y-111967783D01*
X92400000Y-108400000D02*
X92400000Y-108423026D01*
X92400000Y-108423026D02*
X90785645Y-110037381D01*
X88100000Y-114500000D02*
X88119077Y-114500000D01*
X88119077Y-114500000D02*
X89753269Y-112865808D01*
X89000000Y-115400000D02*
X89015128Y-115400000D01*
X89015128Y-115400000D02*
X90651294Y-113763834D01*
X89900000Y-116300000D02*
X89911179Y-116300000D01*
X89911179Y-116300000D02*
X91549320Y-114661859D01*
X108406746Y-85232075D02*
X108417925Y-85232075D01*
X108417925Y-85232075D02*
X110050000Y-83600000D01*
X106476345Y-87162476D02*
X106476345Y-87173655D01*
X106476345Y-87173655D02*
X104850000Y-88800000D01*
X108406746Y-85232075D02*
X106476345Y-87162476D01*
X109304772Y-86130100D02*
X109304772Y-86095228D01*
X109304772Y-86095228D02*
X110950000Y-84450000D01*
X107374370Y-88060502D02*
X107374370Y-88075630D01*
X107374370Y-88075630D02*
X105750000Y-89700000D01*
X109304772Y-86130100D02*
X107374370Y-88060502D01*
X108272396Y-88958527D02*
X108272396Y-88977604D01*
X108272396Y-88977604D02*
X106650000Y-90600000D01*
X110202797Y-87028126D02*
X110202797Y-86897203D01*
X110202797Y-86897203D02*
X111850000Y-85250000D01*
X111850000Y-85250000D02*
X111850000Y-82680000D01*
X111850000Y-82680000D02*
X108190000Y-79020000D01*
X109170421Y-89856553D02*
X109170421Y-89879579D01*
X109170421Y-89879579D02*
X107550000Y-91500000D01*
X111100823Y-87926151D02*
X111100823Y-87899177D01*
X111100823Y-87899177D02*
X112750000Y-86250000D01*
X112750000Y-86250000D02*
X112750000Y-81040000D01*
X112750000Y-81040000D02*
X110730000Y-79020000D01*
X110068447Y-90754579D02*
X110068447Y-90781553D01*
X110068447Y-90781553D02*
X108450000Y-92400000D01*
X111998849Y-88824177D02*
X111998849Y-88801151D01*
X111998849Y-88801151D02*
X113650000Y-87150000D01*
X113650000Y-87150000D02*
X113650000Y-79400000D01*
X113650000Y-79400000D02*
X113270000Y-79020000D01*
X110966473Y-91652604D02*
X110966473Y-91683527D01*
X110966473Y-91683527D02*
X109350000Y-93300000D01*
X112896874Y-89722203D02*
X112896874Y-89703126D01*
X112896874Y-89703126D02*
X114550000Y-88050000D01*
X114550000Y-88050000D02*
X114550000Y-80280000D01*
X114550000Y-80280000D02*
X115810000Y-79020000D01*
X111864498Y-92550630D02*
X111799370Y-92550630D01*
X111799370Y-92550630D02*
X110200000Y-94150000D01*
X113794900Y-90620228D02*
X113794900Y-90605100D01*
X113794900Y-90605100D02*
X115450000Y-88950000D01*
X115450000Y-88950000D02*
X118470000Y-88950000D01*
X118470000Y-88950000D02*
X123500000Y-93980000D01*
X123500000Y-93980000D02*
X123500000Y-95430000D01*
D20*
X111150000Y-107150000D02*
X111150000Y-104800000D01*
D17*
X114692925Y-91518254D02*
X114692925Y-91507075D01*
X114692925Y-91507075D02*
X116350000Y-89850000D01*
X112762524Y-93448655D02*
X112762524Y-93487476D01*
X112762524Y-93487476D02*
X111150000Y-95100000D01*
D20*
X120500000Y-116500000D02*
X111150000Y-107150000D01*
D17*
X112762524Y-93448655D02*
X114692925Y-91518254D01*
D21*
G36*
X107323463Y-75542753D02*
X108190000Y-76409289D01*
X109056537Y-75542753D01*
X109011981Y-75450000D01*
X109908019Y-75450000D01*
X109863463Y-75542753D01*
X110730000Y-76409289D01*
X111596537Y-75542753D01*
X111551981Y-75450000D01*
X112448019Y-75450000D01*
X112403463Y-75542753D01*
X113270000Y-76409289D01*
X114136537Y-75542753D01*
X114091981Y-75450000D01*
X114988019Y-75450000D01*
X114943463Y-75542753D01*
X115810000Y-76409289D01*
X116676537Y-75542753D01*
X116631981Y-75450000D01*
X119730364Y-75450000D01*
X119654296Y-75561329D01*
X119622164Y-75720000D01*
X119622164Y-77620000D01*
X119650056Y-77768231D01*
X119737660Y-77904372D01*
X119871329Y-77995704D01*
X120030000Y-78027836D01*
X120305885Y-78027836D01*
X120216285Y-78064858D01*
X119836193Y-78444288D01*
X119630235Y-78940290D01*
X119629766Y-79477353D01*
X119834858Y-79973715D01*
X120214288Y-80353807D01*
X120518330Y-80480056D01*
X120216285Y-80604858D01*
X119836193Y-80984288D01*
X119630235Y-81480290D01*
X119629766Y-82017353D01*
X119834858Y-82513715D01*
X120214288Y-82893807D01*
X120518330Y-83020056D01*
X120216285Y-83144858D01*
X119836193Y-83524288D01*
X119630235Y-84020290D01*
X119629766Y-84557353D01*
X119834858Y-85053715D01*
X120214288Y-85433807D01*
X120518330Y-85560056D01*
X120216285Y-85684858D01*
X119836193Y-86064288D01*
X119630235Y-86560290D01*
X119629766Y-87097353D01*
X119834858Y-87593715D01*
X120214288Y-87973807D01*
X120710290Y-88179765D01*
X121247353Y-88180234D01*
X121743715Y-87975142D01*
X122123807Y-87595712D01*
X122250056Y-87291670D01*
X122374858Y-87593715D01*
X122754288Y-87973807D01*
X123250290Y-88179765D01*
X123787353Y-88180234D01*
X124283715Y-87975142D01*
X124550000Y-87709321D01*
X124550000Y-94092415D01*
X124450000Y-94072164D01*
X124150000Y-94072164D01*
X124150000Y-93980000D01*
X124104762Y-93752572D01*
X124100522Y-93731255D01*
X123959619Y-93520380D01*
X118929619Y-88490381D01*
X118718745Y-88349478D01*
X118673010Y-88340381D01*
X118470000Y-88300000D01*
X115931519Y-88300000D01*
X115903755Y-88272188D01*
X115609828Y-88150139D01*
X115349913Y-88149912D01*
X115350139Y-87891568D01*
X115228603Y-87597428D01*
X115200000Y-87568775D01*
X115200000Y-80549238D01*
X115426657Y-80322581D01*
X115540290Y-80369765D01*
X116077353Y-80370234D01*
X116573715Y-80165142D01*
X116953807Y-79785712D01*
X117159765Y-79289710D01*
X117160234Y-78752647D01*
X116955142Y-78256285D01*
X116575712Y-77876193D01*
X116271517Y-77749880D01*
X116571349Y-77626716D01*
X116578071Y-77622224D01*
X116676537Y-77417247D01*
X115810000Y-76550711D01*
X114943463Y-77417247D01*
X115041929Y-77622224D01*
X115348162Y-77750125D01*
X115046285Y-77874858D01*
X114666193Y-78254288D01*
X114539944Y-78558330D01*
X114415142Y-78256285D01*
X114035712Y-77876193D01*
X113731517Y-77749880D01*
X114031349Y-77626716D01*
X114038071Y-77622224D01*
X114136537Y-77417247D01*
X113270000Y-76550711D01*
X112403463Y-77417247D01*
X112501929Y-77622224D01*
X112808162Y-77750125D01*
X112506285Y-77874858D01*
X112126193Y-78254288D01*
X111999944Y-78558330D01*
X111875142Y-78256285D01*
X111495712Y-77876193D01*
X111191517Y-77749880D01*
X111491349Y-77626716D01*
X111498071Y-77622224D01*
X111596537Y-77417247D01*
X110730000Y-76550711D01*
X109863463Y-77417247D01*
X109961929Y-77622224D01*
X110268162Y-77750125D01*
X109966285Y-77874858D01*
X109586193Y-78254288D01*
X109547836Y-78346662D01*
X109547836Y-78070000D01*
X109519944Y-77921769D01*
X109432340Y-77785628D01*
X109298671Y-77694296D01*
X109140000Y-77662164D01*
X108865054Y-77662164D01*
X108951349Y-77626716D01*
X108958071Y-77622224D01*
X109056537Y-77417247D01*
X108190000Y-76550711D01*
X107323463Y-77417247D01*
X107421929Y-77622224D01*
X107517557Y-77662164D01*
X107240000Y-77662164D01*
X107091769Y-77690056D01*
X106955628Y-77777660D01*
X106864296Y-77911329D01*
X106832164Y-78070000D01*
X106832164Y-79970000D01*
X106860056Y-80118231D01*
X106947660Y-80254372D01*
X107081329Y-80345704D01*
X107240000Y-80377836D01*
X108628598Y-80377836D01*
X111200000Y-82949239D01*
X111200000Y-83687582D01*
X111109828Y-83650139D01*
X110849957Y-83649912D01*
X110850139Y-83441568D01*
X110728603Y-83147428D01*
X110503755Y-82922188D01*
X110209828Y-82800139D01*
X109891568Y-82799861D01*
X109597428Y-82921397D01*
X109372188Y-83146245D01*
X109250139Y-83440172D01*
X109250104Y-83480658D01*
X108955239Y-83775522D01*
X108955239Y-83731225D01*
X108894343Y-83584208D01*
X108682518Y-83372384D01*
X108541097Y-83372384D01*
X107579432Y-84334049D01*
X107593574Y-84348191D01*
X107522863Y-84418902D01*
X107508721Y-84404760D01*
X105649030Y-86264451D01*
X105663172Y-86278593D01*
X105592461Y-86349304D01*
X105578319Y-86335162D01*
X104616654Y-87296827D01*
X104616654Y-87438248D01*
X104828478Y-87650073D01*
X104975495Y-87710969D01*
X105019793Y-87710969D01*
X104730866Y-87999895D01*
X104691568Y-87999861D01*
X104397428Y-88121397D01*
X104172188Y-88346245D01*
X104050139Y-88640172D01*
X104049861Y-88958432D01*
X104133397Y-89160605D01*
X103800000Y-88827208D01*
X103800000Y-87950000D01*
X103731492Y-87605585D01*
X103536396Y-87313604D01*
X103244415Y-87118508D01*
X102900000Y-87050000D01*
X102555585Y-87118508D01*
X102263604Y-87313604D01*
X102068508Y-87605585D01*
X102000000Y-87950000D01*
X102000000Y-89200000D01*
X102068508Y-89544415D01*
X102263604Y-89836396D01*
X110163604Y-97736396D01*
X110455584Y-97931492D01*
X110800000Y-98000000D01*
X112950000Y-98000000D01*
X113294415Y-97931492D01*
X113586396Y-97736396D01*
X113781492Y-97444415D01*
X113850000Y-97100000D01*
X113781492Y-96755585D01*
X113586396Y-96463604D01*
X113294415Y-96268508D01*
X112950000Y-96200000D01*
X111172792Y-96200000D01*
X110789204Y-95816412D01*
X110990172Y-95899861D01*
X111308432Y-95900139D01*
X111602572Y-95778603D01*
X111827812Y-95553755D01*
X111900352Y-95379057D01*
X112698884Y-95379057D01*
X112698884Y-95520478D01*
X112910708Y-95732303D01*
X113057725Y-95793199D01*
X113216855Y-95793199D01*
X113363872Y-95732303D01*
X113476394Y-95619781D01*
X114098955Y-94997219D01*
X114098955Y-94855798D01*
X113660549Y-94417392D01*
X112698884Y-95379057D01*
X111900352Y-95379057D01*
X111949861Y-95259828D01*
X111949896Y-95219342D01*
X112215701Y-94953537D01*
X112274927Y-95096522D01*
X112486752Y-95308346D01*
X112628173Y-95308346D01*
X113589838Y-94346681D01*
X113731260Y-94346681D01*
X114169666Y-94785087D01*
X114311087Y-94785087D01*
X114750189Y-94345986D01*
X114749877Y-94703820D01*
X114901797Y-95071494D01*
X115182856Y-95353044D01*
X115550265Y-95505606D01*
X115948090Y-95505953D01*
X116315764Y-95354033D01*
X116597314Y-95072974D01*
X116749876Y-94705565D01*
X116750223Y-94307740D01*
X116598303Y-93940066D01*
X116317244Y-93658516D01*
X115949835Y-93505954D01*
X115590534Y-93505641D01*
X116029357Y-93066817D01*
X116029357Y-92925396D01*
X115590951Y-92486990D01*
X113731260Y-94346681D01*
X113589838Y-94346681D01*
X113575696Y-94332539D01*
X113646407Y-94261828D01*
X113660549Y-94275970D01*
X115520240Y-92416279D01*
X115661662Y-92416279D01*
X116100068Y-92854685D01*
X116241489Y-92854685D01*
X116864051Y-92232124D01*
X116976573Y-92119602D01*
X117037469Y-91972585D01*
X117037469Y-91813455D01*
X116976573Y-91666438D01*
X116764748Y-91454614D01*
X116623327Y-91454614D01*
X115661662Y-92416279D01*
X115520240Y-92416279D01*
X115506098Y-92402137D01*
X115576809Y-92331426D01*
X115590951Y-92345568D01*
X116552616Y-91383903D01*
X116552616Y-91242482D01*
X116340792Y-91030657D01*
X116193775Y-90969761D01*
X116149477Y-90969761D01*
X116469133Y-90650105D01*
X116508432Y-90650139D01*
X116802572Y-90528603D01*
X117027812Y-90303755D01*
X117149861Y-90009828D01*
X117150139Y-89691568D01*
X117112304Y-89600000D01*
X118200762Y-89600000D01*
X122672925Y-94072164D01*
X122550000Y-94072164D01*
X122401769Y-94100056D01*
X122265628Y-94187660D01*
X122174296Y-94321329D01*
X122142164Y-94480000D01*
X122142164Y-96380000D01*
X122170056Y-96528231D01*
X122257660Y-96664372D01*
X122391329Y-96755704D01*
X122550000Y-96787836D01*
X122824946Y-96787836D01*
X122738651Y-96823284D01*
X122731929Y-96827776D01*
X122633463Y-97032753D01*
X123500000Y-97899289D01*
X124366537Y-97032753D01*
X124268071Y-96827776D01*
X124172443Y-96787836D01*
X124450000Y-96787836D01*
X124550000Y-96769019D01*
X124550000Y-97157627D01*
X124437247Y-97103463D01*
X123570711Y-97970000D01*
X124437247Y-98836537D01*
X124550000Y-98782373D01*
X124550000Y-107020648D01*
X124515142Y-106936285D01*
X124135712Y-106556193D01*
X123639710Y-106350235D01*
X123102647Y-106349766D01*
X122606285Y-106554858D01*
X122226193Y-106934288D01*
X122187836Y-107026662D01*
X122187836Y-106750000D01*
X122159944Y-106601769D01*
X122072340Y-106465628D01*
X121938671Y-106374296D01*
X121780000Y-106342164D01*
X119880000Y-106342164D01*
X119731769Y-106370056D01*
X119595628Y-106457660D01*
X119504296Y-106591329D01*
X119472164Y-106750000D01*
X119472164Y-108650000D01*
X119500056Y-108798231D01*
X119587660Y-108934372D01*
X119721329Y-109025704D01*
X119880000Y-109057836D01*
X121780000Y-109057836D01*
X121928231Y-109029944D01*
X122064372Y-108942340D01*
X122155704Y-108808671D01*
X122187836Y-108650000D01*
X122187836Y-108374115D01*
X122224858Y-108463715D01*
X122604288Y-108843807D01*
X123100290Y-109049765D01*
X123637353Y-109050234D01*
X124133715Y-108845142D01*
X124513807Y-108465712D01*
X124550000Y-108378550D01*
X124550000Y-117745596D01*
X124199785Y-117600174D01*
X123801960Y-117599827D01*
X123434286Y-117751747D01*
X123152736Y-118032806D01*
X123000174Y-118400215D01*
X122999827Y-118798040D01*
X123151747Y-119165714D01*
X123432806Y-119447264D01*
X123800215Y-119599826D01*
X124198040Y-119600173D01*
X124550000Y-119454746D01*
X124550000Y-122955681D01*
X124423869Y-123589785D01*
X124089782Y-124089782D01*
X123589785Y-124423869D01*
X122955680Y-124550000D01*
X103122373Y-124550000D01*
X103176537Y-124437247D01*
X102310000Y-123570711D01*
X101443463Y-124437247D01*
X101497627Y-124550000D01*
X100582373Y-124550000D01*
X100636537Y-124437247D01*
X99770000Y-123570711D01*
X98903463Y-124437247D01*
X98957627Y-124550000D01*
X98042373Y-124550000D01*
X98096537Y-124437247D01*
X97230000Y-123570711D01*
X96363463Y-124437247D01*
X96417627Y-124550000D01*
X96031536Y-124550000D01*
X96040000Y-124529565D01*
X96040000Y-124155978D01*
X96083284Y-124261349D01*
X96087776Y-124268071D01*
X96292753Y-124366537D01*
X97159289Y-123500000D01*
X97300711Y-123500000D01*
X98167247Y-124366537D01*
X98372224Y-124268071D01*
X98500189Y-123961685D01*
X98623284Y-124261349D01*
X98627776Y-124268071D01*
X98832753Y-124366537D01*
X99699289Y-123500000D01*
X99840711Y-123500000D01*
X100707247Y-124366537D01*
X100912224Y-124268071D01*
X101040189Y-123961685D01*
X101163284Y-124261349D01*
X101167776Y-124268071D01*
X101372753Y-124366537D01*
X102239289Y-123500000D01*
X102380711Y-123500000D01*
X103247247Y-124366537D01*
X103452224Y-124268071D01*
X103659206Y-123772496D01*
X103660783Y-123235435D01*
X103456716Y-122738651D01*
X103452224Y-122731929D01*
X103247247Y-122633463D01*
X102380711Y-123500000D01*
X102239289Y-123500000D01*
X101372753Y-122633463D01*
X101167776Y-122731929D01*
X101039811Y-123038315D01*
X100916716Y-122738651D01*
X100912224Y-122731929D01*
X100707247Y-122633463D01*
X99840711Y-123500000D01*
X99699289Y-123500000D01*
X98832753Y-122633463D01*
X98627776Y-122731929D01*
X98499811Y-123038315D01*
X98376716Y-122738651D01*
X98372224Y-122731929D01*
X98167247Y-122633463D01*
X97300711Y-123500000D01*
X97159289Y-123500000D01*
X96292753Y-122633463D01*
X96087776Y-122731929D01*
X96040000Y-122846319D01*
X96040000Y-122562753D01*
X96363463Y-122562753D01*
X97230000Y-123429289D01*
X98096537Y-122562753D01*
X98903463Y-122562753D01*
X99770000Y-123429289D01*
X100636537Y-122562753D01*
X101443463Y-122562753D01*
X102310000Y-123429289D01*
X103176537Y-122562753D01*
X103078071Y-122357776D01*
X102582496Y-122150794D01*
X102045435Y-122149217D01*
X101548651Y-122353284D01*
X101541929Y-122357776D01*
X101443463Y-122562753D01*
X100636537Y-122562753D01*
X100538071Y-122357776D01*
X100042496Y-122150794D01*
X99505435Y-122149217D01*
X99008651Y-122353284D01*
X99001929Y-122357776D01*
X98903463Y-122562753D01*
X98096537Y-122562753D01*
X97998071Y-122357776D01*
X97502496Y-122150794D01*
X96965435Y-122149217D01*
X96468651Y-122353284D01*
X96461929Y-122357776D01*
X96363463Y-122562753D01*
X96040000Y-122562753D01*
X96040000Y-122470435D01*
X95979104Y-122323418D01*
X95866582Y-122210896D01*
X95719565Y-122150000D01*
X94840000Y-122150000D01*
X94740000Y-122250000D01*
X94740000Y-123450000D01*
X94760000Y-123450000D01*
X94760000Y-123550000D01*
X94740000Y-123550000D01*
X94740000Y-123570000D01*
X94640000Y-123570000D01*
X94640000Y-123550000D01*
X93440000Y-123550000D01*
X93340000Y-123650000D01*
X93340000Y-124529565D01*
X93348464Y-124550000D01*
X91129023Y-124550000D01*
X91413807Y-124265712D01*
X91619765Y-123769710D01*
X91620234Y-123232647D01*
X91415142Y-122736285D01*
X91149756Y-122470435D01*
X93340000Y-122470435D01*
X93340000Y-123350000D01*
X93440000Y-123450000D01*
X94640000Y-123450000D01*
X94640000Y-122250000D01*
X94540000Y-122150000D01*
X93660435Y-122150000D01*
X93513418Y-122210896D01*
X93400896Y-122323418D01*
X93340000Y-122470435D01*
X91149756Y-122470435D01*
X91035712Y-122356193D01*
X90539710Y-122150235D01*
X90002647Y-122149766D01*
X89506285Y-122354858D01*
X89126193Y-122734288D01*
X89087836Y-122826662D01*
X89087836Y-122550000D01*
X89059944Y-122401769D01*
X88972340Y-122265628D01*
X88838671Y-122174296D01*
X88680000Y-122142164D01*
X86780000Y-122142164D01*
X86631769Y-122170056D01*
X86495628Y-122257660D01*
X86404296Y-122391329D01*
X86372164Y-122550000D01*
X86372164Y-122850000D01*
X81769239Y-122850000D01*
X81450000Y-122530762D01*
X81450000Y-118798040D01*
X111499827Y-118798040D01*
X111651747Y-119165714D01*
X111932806Y-119447264D01*
X112300215Y-119599826D01*
X112698040Y-119600173D01*
X113065714Y-119448253D01*
X113347264Y-119167194D01*
X113499826Y-118799785D01*
X113499827Y-118798040D01*
X116499827Y-118798040D01*
X116651747Y-119165714D01*
X116932806Y-119447264D01*
X117300215Y-119599826D01*
X117698040Y-119600173D01*
X118065714Y-119448253D01*
X118250075Y-119264214D01*
X118432806Y-119447264D01*
X118800215Y-119599826D01*
X119198040Y-119600173D01*
X119565714Y-119448253D01*
X119847264Y-119167194D01*
X119999826Y-118799785D01*
X120000173Y-118401960D01*
X119848253Y-118034286D01*
X119567194Y-117752736D01*
X119199785Y-117600174D01*
X118801960Y-117599827D01*
X118434286Y-117751747D01*
X118249925Y-117935786D01*
X118067194Y-117752736D01*
X117699785Y-117600174D01*
X117301960Y-117599827D01*
X116934286Y-117751747D01*
X116652736Y-118032806D01*
X116500174Y-118400215D01*
X116499827Y-118798040D01*
X113499827Y-118798040D01*
X113500173Y-118401960D01*
X113348253Y-118034286D01*
X113067194Y-117752736D01*
X112699785Y-117600174D01*
X112301960Y-117599827D01*
X111934286Y-117751747D01*
X111652736Y-118032806D01*
X111500174Y-118400215D01*
X111499827Y-118798040D01*
X81450000Y-118798040D01*
X81450000Y-110158432D01*
X82799861Y-110158432D01*
X82921397Y-110452572D01*
X83146245Y-110677812D01*
X83440172Y-110799861D01*
X83700087Y-110800088D01*
X83699861Y-111058432D01*
X83821397Y-111352572D01*
X84046245Y-111577812D01*
X84340172Y-111699861D01*
X84600087Y-111700088D01*
X84599861Y-111958432D01*
X84721397Y-112252572D01*
X84946245Y-112477812D01*
X85240172Y-112599861D01*
X85500087Y-112600088D01*
X85499861Y-112858432D01*
X85621397Y-113152572D01*
X85846245Y-113377812D01*
X86140172Y-113499861D01*
X86400087Y-113500088D01*
X86399861Y-113758432D01*
X86521397Y-114052572D01*
X86746245Y-114277812D01*
X87040172Y-114399861D01*
X87300087Y-114400088D01*
X87299861Y-114658432D01*
X87421397Y-114952572D01*
X87646245Y-115177812D01*
X87940172Y-115299861D01*
X88200087Y-115300088D01*
X88199861Y-115558432D01*
X88321397Y-115852572D01*
X88546245Y-116077812D01*
X88840172Y-116199861D01*
X89100087Y-116200088D01*
X89099861Y-116458432D01*
X89221397Y-116752572D01*
X89446245Y-116977812D01*
X89740172Y-117099861D01*
X90058432Y-117100139D01*
X90352572Y-116978603D01*
X90577812Y-116753755D01*
X90644870Y-116592261D01*
X91485680Y-116592261D01*
X91485680Y-116733682D01*
X91697504Y-116945507D01*
X91844521Y-117006403D01*
X92003651Y-117006403D01*
X92150668Y-116945507D01*
X92263190Y-116832985D01*
X92358527Y-116737647D01*
X112799793Y-116737647D01*
X112982097Y-117178857D01*
X113319367Y-117516717D01*
X113760258Y-117699791D01*
X114237647Y-117700207D01*
X114678857Y-117517903D01*
X114868081Y-117329009D01*
X115241702Y-117329009D01*
X115321892Y-117518402D01*
X115763235Y-117700382D01*
X116240624Y-117699614D01*
X116678108Y-117518402D01*
X116758298Y-117329009D01*
X116000000Y-116570711D01*
X115241702Y-117329009D01*
X114868081Y-117329009D01*
X115008034Y-117189301D01*
X115170991Y-117258298D01*
X115929289Y-116500000D01*
X116070711Y-116500000D01*
X116829009Y-117258298D01*
X117018402Y-117178108D01*
X117200382Y-116736765D01*
X117199614Y-116259376D01*
X117018402Y-115821892D01*
X116829009Y-115741702D01*
X116070711Y-116500000D01*
X115929289Y-116500000D01*
X115170991Y-115741702D01*
X115007643Y-115810865D01*
X114868014Y-115670991D01*
X115241702Y-115670991D01*
X116000000Y-116429289D01*
X116758298Y-115670991D01*
X116678108Y-115481598D01*
X116236765Y-115299618D01*
X115759376Y-115300386D01*
X115321892Y-115481598D01*
X115241702Y-115670991D01*
X114868014Y-115670991D01*
X114680633Y-115483283D01*
X114239742Y-115300209D01*
X113762353Y-115299793D01*
X113321143Y-115482097D01*
X112983283Y-115819367D01*
X112800209Y-116260258D01*
X112799793Y-116737647D01*
X92358527Y-116737647D01*
X92885751Y-116210423D01*
X92885751Y-116069002D01*
X92447345Y-115630596D01*
X91485680Y-116592261D01*
X90644870Y-116592261D01*
X90699861Y-116459828D01*
X90699887Y-116430531D01*
X91000827Y-116129590D01*
X91000827Y-116162709D01*
X91061723Y-116309726D01*
X91273548Y-116521550D01*
X91414969Y-116521550D01*
X92376634Y-115559885D01*
X92518056Y-115559885D01*
X92956462Y-115998291D01*
X93097883Y-115998291D01*
X93536985Y-115559190D01*
X93536673Y-115917024D01*
X93688593Y-116284698D01*
X93969652Y-116566248D01*
X94337061Y-116718810D01*
X94734886Y-116719157D01*
X95102560Y-116567237D01*
X95384110Y-116286178D01*
X95536672Y-115918769D01*
X95537019Y-115520944D01*
X95385099Y-115153270D01*
X95104040Y-114871720D01*
X94736631Y-114719158D01*
X94377330Y-114718845D01*
X94816153Y-114280021D01*
X94816153Y-114138600D01*
X94377747Y-113700194D01*
X92518056Y-115559885D01*
X92376634Y-115559885D01*
X92362492Y-115545743D01*
X92433203Y-115475032D01*
X92447345Y-115489174D01*
X94307036Y-113629483D01*
X94448458Y-113629483D01*
X94886864Y-114067889D01*
X95028285Y-114067889D01*
X95650847Y-113445328D01*
X95763369Y-113332806D01*
X95824265Y-113185789D01*
X95824265Y-113026659D01*
X95763369Y-112879642D01*
X95551544Y-112667818D01*
X95410123Y-112667818D01*
X94448458Y-113629483D01*
X94307036Y-113629483D01*
X94292894Y-113615341D01*
X94363605Y-113544630D01*
X94377747Y-113558772D01*
X95339412Y-112597107D01*
X95339412Y-112455686D01*
X95127588Y-112243861D01*
X94980571Y-112182965D01*
X94947453Y-112182965D01*
X95230303Y-111900114D01*
X95258432Y-111900139D01*
X95552572Y-111778603D01*
X95777812Y-111553755D01*
X95899861Y-111259828D01*
X95900139Y-110941568D01*
X95778603Y-110647428D01*
X95553755Y-110422188D01*
X95259828Y-110300139D01*
X94999913Y-110299912D01*
X95000139Y-110041568D01*
X94878603Y-109747428D01*
X94653755Y-109522188D01*
X94479907Y-109450000D01*
X96618481Y-109450000D01*
X96646245Y-109477812D01*
X96940172Y-109599861D01*
X97258432Y-109600139D01*
X97552572Y-109478603D01*
X97777812Y-109253755D01*
X97899861Y-108959828D01*
X97900139Y-108641568D01*
X97778603Y-108347428D01*
X97553755Y-108122188D01*
X97259828Y-108000139D01*
X96941568Y-107999861D01*
X96647428Y-108121397D01*
X96618775Y-108150000D01*
X93963676Y-108150000D01*
X93840000Y-108026324D01*
X93840000Y-104800000D01*
X110250000Y-104800000D01*
X110250000Y-107150000D01*
X110318508Y-107494415D01*
X110513604Y-107786396D01*
X119299937Y-116572729D01*
X119299793Y-116737647D01*
X119482097Y-117178857D01*
X119819367Y-117516717D01*
X120260258Y-117699791D01*
X120737647Y-117700207D01*
X121178857Y-117517903D01*
X121368081Y-117329009D01*
X121741702Y-117329009D01*
X121821892Y-117518402D01*
X122263235Y-117700382D01*
X122740624Y-117699614D01*
X123178108Y-117518402D01*
X123258298Y-117329009D01*
X122500000Y-116570711D01*
X121741702Y-117329009D01*
X121368081Y-117329009D01*
X121508034Y-117189301D01*
X121670991Y-117258298D01*
X122429289Y-116500000D01*
X122570711Y-116500000D01*
X123329009Y-117258298D01*
X123518402Y-117178108D01*
X123700382Y-116736765D01*
X123699614Y-116259376D01*
X123518402Y-115821892D01*
X123329009Y-115741702D01*
X122570711Y-116500000D01*
X122429289Y-116500000D01*
X121670991Y-115741702D01*
X121507643Y-115810865D01*
X121368014Y-115670991D01*
X121741702Y-115670991D01*
X122500000Y-116429289D01*
X123258298Y-115670991D01*
X123178108Y-115481598D01*
X122736765Y-115299618D01*
X122259376Y-115300386D01*
X121821892Y-115481598D01*
X121741702Y-115670991D01*
X121368014Y-115670991D01*
X121180633Y-115483283D01*
X120739742Y-115300209D01*
X120572856Y-115300064D01*
X112050000Y-106777208D01*
X112050000Y-104800000D01*
X111981492Y-104455585D01*
X111786396Y-104163604D01*
X111494415Y-103968508D01*
X111150000Y-103900000D01*
X110805585Y-103968508D01*
X110513604Y-104163604D01*
X110318508Y-104455585D01*
X110250000Y-104800000D01*
X93840000Y-104800000D01*
X93840000Y-103623676D01*
X93963707Y-103499969D01*
X94158432Y-103500139D01*
X94452572Y-103378603D01*
X94677812Y-103153755D01*
X94799861Y-102859828D01*
X94800139Y-102541568D01*
X94678603Y-102247428D01*
X94453755Y-102022188D01*
X94159828Y-101900139D01*
X93841568Y-101899861D01*
X93547428Y-102021397D01*
X93322188Y-102246245D01*
X93200139Y-102540172D01*
X93199968Y-102736357D01*
X92918162Y-103018162D01*
X92801105Y-103193351D01*
X92760000Y-103400000D01*
X92760000Y-107683258D01*
X92559828Y-107600139D01*
X92241568Y-107599861D01*
X92155034Y-107635616D01*
X92181838Y-107608812D01*
X92298895Y-107433623D01*
X92340000Y-107226974D01*
X92340000Y-106091327D01*
X92477812Y-105953755D01*
X92599861Y-105659828D01*
X92600139Y-105341568D01*
X92478603Y-105047428D01*
X92253755Y-104822188D01*
X91959828Y-104700139D01*
X91958435Y-104700138D01*
X92252572Y-104578603D01*
X92477812Y-104353755D01*
X92599861Y-104059828D01*
X92600139Y-103741568D01*
X92478603Y-103447428D01*
X92253755Y-103222188D01*
X91959828Y-103100139D01*
X91641568Y-103099861D01*
X91347428Y-103221397D01*
X91122188Y-103446245D01*
X91000139Y-103740172D01*
X90999968Y-103936357D01*
X90008163Y-104928161D01*
X89990603Y-104954441D01*
X89859828Y-104900139D01*
X89599913Y-104899912D01*
X89600139Y-104641568D01*
X89478603Y-104347428D01*
X89253755Y-104122188D01*
X88959828Y-104000139D01*
X88641568Y-103999861D01*
X88347428Y-104121397D01*
X88122188Y-104346245D01*
X88000139Y-104640172D01*
X88000070Y-104719513D01*
X87742035Y-104977547D01*
X87742035Y-104944429D01*
X87681139Y-104797412D01*
X87469314Y-104585588D01*
X87327893Y-104585588D01*
X86366228Y-105547253D01*
X86380370Y-105561395D01*
X86309659Y-105632106D01*
X86295517Y-105617964D01*
X84435826Y-107477655D01*
X84449968Y-107491797D01*
X84379257Y-107562508D01*
X84365115Y-107548366D01*
X83403450Y-108510031D01*
X83403450Y-108651452D01*
X83615274Y-108863277D01*
X83762291Y-108924173D01*
X83795410Y-108924173D01*
X83519654Y-109199929D01*
X83441568Y-109199861D01*
X83147428Y-109321397D01*
X82922188Y-109546245D01*
X82800139Y-109840172D01*
X82799861Y-110158432D01*
X81450000Y-110158432D01*
X81450000Y-107921349D01*
X82918597Y-107921349D01*
X82918597Y-108080479D01*
X82979493Y-108227496D01*
X83191318Y-108439320D01*
X83332739Y-108439320D01*
X84294404Y-107477655D01*
X83855998Y-107039249D01*
X83714577Y-107039249D01*
X83092015Y-107661810D01*
X82979493Y-107774332D01*
X82918597Y-107921349D01*
X81450000Y-107921349D01*
X81450000Y-106981258D01*
X81627812Y-106803755D01*
X81749861Y-106509828D01*
X81750139Y-106191568D01*
X81628603Y-105897428D01*
X81403755Y-105672188D01*
X81196659Y-105586194D01*
X83205843Y-105586194D01*
X83357763Y-105953868D01*
X83638822Y-106235418D01*
X84006231Y-106387980D01*
X84365532Y-106388293D01*
X83926709Y-106827117D01*
X83926709Y-106968538D01*
X84365115Y-107406944D01*
X86224806Y-105547253D01*
X85786400Y-105108847D01*
X85644979Y-105108847D01*
X85205877Y-105547948D01*
X85206189Y-105190114D01*
X85084959Y-104896715D01*
X85857111Y-104896715D01*
X85857111Y-105038136D01*
X86295517Y-105476542D01*
X87257182Y-104514877D01*
X87257182Y-104373456D01*
X87045358Y-104161631D01*
X86898341Y-104100735D01*
X86739211Y-104100735D01*
X86592194Y-104161631D01*
X86479672Y-104274153D01*
X85857111Y-104896715D01*
X85084959Y-104896715D01*
X85054269Y-104822440D01*
X84773210Y-104540890D01*
X84405801Y-104388328D01*
X84007976Y-104387981D01*
X83640302Y-104539901D01*
X83358752Y-104820960D01*
X83206190Y-105188369D01*
X83205843Y-105586194D01*
X81196659Y-105586194D01*
X81109828Y-105550139D01*
X80791568Y-105549861D01*
X80497428Y-105671397D01*
X80272188Y-105896245D01*
X80150139Y-106190172D01*
X80149861Y-106508432D01*
X80150000Y-106508768D01*
X80150000Y-107351117D01*
X79785712Y-106986193D01*
X79289710Y-106780235D01*
X78752647Y-106779766D01*
X78256285Y-106984858D01*
X77876193Y-107364288D01*
X77837836Y-107456662D01*
X77837836Y-107180000D01*
X77809944Y-107031769D01*
X77722340Y-106895628D01*
X77588671Y-106804296D01*
X77430000Y-106772164D01*
X77117748Y-106772164D01*
X77045685Y-106664314D01*
X76600000Y-106218630D01*
X76600000Y-98907247D01*
X122633463Y-98907247D01*
X122731929Y-99112224D01*
X123227504Y-99319206D01*
X123764565Y-99320783D01*
X124261349Y-99116716D01*
X124268071Y-99112224D01*
X124366537Y-98907247D01*
X123500000Y-98040711D01*
X122633463Y-98907247D01*
X76600000Y-98907247D01*
X76600000Y-98234565D01*
X122149217Y-98234565D01*
X122353284Y-98731349D01*
X122357776Y-98738071D01*
X122562753Y-98836537D01*
X123429289Y-97970000D01*
X122562753Y-97103463D01*
X122357776Y-97201929D01*
X122150794Y-97697504D01*
X122149217Y-98234565D01*
X76600000Y-98234565D01*
X76600000Y-94208432D01*
X89899861Y-94208432D01*
X90021397Y-94502572D01*
X90246245Y-94727812D01*
X90540172Y-94849861D01*
X90736357Y-94850032D01*
X91818160Y-95931835D01*
X91818162Y-95931838D01*
X91925794Y-96003755D01*
X91993351Y-96048895D01*
X92200000Y-96090000D01*
X93608673Y-96090000D01*
X93746245Y-96227812D01*
X94040172Y-96349861D01*
X94358432Y-96350139D01*
X94652572Y-96228603D01*
X94877812Y-96003755D01*
X94999861Y-95709828D01*
X95000139Y-95391568D01*
X94878603Y-95097428D01*
X94653755Y-94872188D01*
X94359828Y-94750139D01*
X94199913Y-94749999D01*
X94200139Y-94491568D01*
X94078603Y-94197428D01*
X93853755Y-93972188D01*
X93559828Y-93850139D01*
X93241568Y-93849861D01*
X92947428Y-93971397D01*
X92941245Y-93977569D01*
X92249969Y-93286293D01*
X92250139Y-93091568D01*
X92128603Y-92797428D01*
X91903755Y-92572188D01*
X91609828Y-92450139D01*
X91291568Y-92449861D01*
X90997428Y-92571397D01*
X90772188Y-92796245D01*
X90650139Y-93090172D01*
X90649999Y-93249956D01*
X90541568Y-93249861D01*
X90247428Y-93371397D01*
X90022188Y-93596245D01*
X89900139Y-93890172D01*
X89899861Y-94208432D01*
X76600000Y-94208432D01*
X76600000Y-90633719D01*
X76768525Y-90802538D01*
X77099194Y-90939843D01*
X77457236Y-90940156D01*
X77788143Y-90803428D01*
X78041538Y-90550475D01*
X78178843Y-90219806D01*
X78178844Y-90218236D01*
X78410844Y-90218236D01*
X78547572Y-90549143D01*
X78800525Y-90802538D01*
X79131194Y-90939843D01*
X79489236Y-90940156D01*
X79820143Y-90803428D01*
X80073538Y-90550475D01*
X80210843Y-90219806D01*
X80211156Y-89861764D01*
X80074428Y-89530857D01*
X79821475Y-89277462D01*
X79490806Y-89140157D01*
X79132764Y-89139844D01*
X78801857Y-89276572D01*
X78548462Y-89529525D01*
X78411157Y-89860194D01*
X78410844Y-90218236D01*
X78178844Y-90218236D01*
X78179156Y-89861764D01*
X78042428Y-89530857D01*
X77789475Y-89277462D01*
X77458806Y-89140157D01*
X77100764Y-89139844D01*
X76769857Y-89276572D01*
X76600000Y-89446133D01*
X76600000Y-86708145D01*
X104131801Y-86708145D01*
X104131801Y-86867275D01*
X104192697Y-87014292D01*
X104404522Y-87226116D01*
X104545943Y-87226116D01*
X105507608Y-86264451D01*
X105069202Y-85826045D01*
X104927781Y-85826045D01*
X104305219Y-86448606D01*
X104192697Y-86561128D01*
X104131801Y-86708145D01*
X76600000Y-86708145D01*
X76600000Y-85138236D01*
X77394844Y-85138236D01*
X77531572Y-85469143D01*
X77784525Y-85722538D01*
X78115194Y-85859843D01*
X78473236Y-85860156D01*
X78804143Y-85723428D01*
X79057538Y-85470475D01*
X79194843Y-85139806D01*
X79195156Y-84781764D01*
X79058428Y-84450857D01*
X78980697Y-84372990D01*
X104419047Y-84372990D01*
X104570967Y-84740664D01*
X104852026Y-85022214D01*
X105219435Y-85174776D01*
X105578736Y-85175089D01*
X105139913Y-85613913D01*
X105139913Y-85755334D01*
X105578319Y-86193740D01*
X107438010Y-84334049D01*
X106999604Y-83895643D01*
X106858183Y-83895643D01*
X106419081Y-84334744D01*
X106419393Y-83976910D01*
X106298163Y-83683511D01*
X107070315Y-83683511D01*
X107070315Y-83824932D01*
X107508721Y-84263338D01*
X108470386Y-83301673D01*
X108470386Y-83160252D01*
X108258562Y-82948427D01*
X108111545Y-82887531D01*
X107952415Y-82887531D01*
X107805398Y-82948427D01*
X107692876Y-83060949D01*
X107070315Y-83683511D01*
X106298163Y-83683511D01*
X106267473Y-83609236D01*
X105986414Y-83327686D01*
X105619005Y-83175124D01*
X105221180Y-83174777D01*
X104853506Y-83326697D01*
X104571956Y-83607756D01*
X104419394Y-83975165D01*
X104419047Y-84372990D01*
X78980697Y-84372990D01*
X78805475Y-84197462D01*
X78474806Y-84060157D01*
X78116764Y-84059844D01*
X77785857Y-84196572D01*
X77532462Y-84449525D01*
X77395157Y-84780194D01*
X77394844Y-85138236D01*
X76600000Y-85138236D01*
X76600000Y-83390000D01*
X76758760Y-83390000D01*
X76946245Y-83577812D01*
X77240172Y-83699861D01*
X77558432Y-83700139D01*
X77852572Y-83578603D01*
X78077812Y-83353755D01*
X78199861Y-83059828D01*
X78200139Y-82741568D01*
X78078603Y-82447428D01*
X77853755Y-82222188D01*
X77645611Y-82135759D01*
X80487055Y-79294316D01*
X80475000Y-79354919D01*
X80475000Y-79645081D01*
X80543508Y-79989496D01*
X80738604Y-80281477D01*
X81030585Y-80476573D01*
X81375000Y-80545081D01*
X81719415Y-80476573D01*
X82011396Y-80281477D01*
X82206492Y-79989496D01*
X82275000Y-79645081D01*
X82275000Y-79354919D01*
X82206492Y-79010504D01*
X82011396Y-78718523D01*
X81719415Y-78523427D01*
X81601639Y-78500000D01*
X85598361Y-78500000D01*
X85480585Y-78523427D01*
X85188604Y-78718523D01*
X84993508Y-79010504D01*
X84925000Y-79354919D01*
X84925000Y-79645081D01*
X84993508Y-79989496D01*
X85188604Y-80281477D01*
X85480585Y-80476573D01*
X85825000Y-80545081D01*
X86169415Y-80476573D01*
X86461396Y-80281477D01*
X86656492Y-79989496D01*
X86725000Y-79645081D01*
X86725000Y-79354919D01*
X86688115Y-79169486D01*
X88100000Y-80581371D01*
X88100000Y-82149302D01*
X88099861Y-82308432D01*
X88221397Y-82602572D01*
X88446245Y-82827812D01*
X88740172Y-82949861D01*
X89058432Y-82950139D01*
X89352572Y-82828603D01*
X89577812Y-82603755D01*
X89699861Y-82309828D01*
X89700139Y-81991568D01*
X89700000Y-81991232D01*
X89700000Y-80250000D01*
X89680109Y-80150000D01*
X92200000Y-80150000D01*
X92268508Y-80494415D01*
X92463604Y-80786396D01*
X93313604Y-81636396D01*
X93605585Y-81831492D01*
X93950000Y-81900000D01*
X99000000Y-81900000D01*
X99344415Y-81831492D01*
X99636396Y-81636396D01*
X99831492Y-81344415D01*
X99900000Y-81000000D01*
X99831492Y-80655585D01*
X99636396Y-80363604D01*
X99344415Y-80168508D01*
X99000000Y-80100000D01*
X94322792Y-80100000D01*
X93736396Y-79513604D01*
X93444415Y-79318508D01*
X93100000Y-79250000D01*
X92755585Y-79318508D01*
X92463604Y-79513604D01*
X92268508Y-79805585D01*
X92200000Y-80150000D01*
X89680109Y-80150000D01*
X89639104Y-79943853D01*
X89465686Y-79684315D01*
X87628722Y-77847352D01*
X87775000Y-77876448D01*
X88119415Y-77807940D01*
X88411396Y-77612844D01*
X88606492Y-77320863D01*
X88675000Y-76976448D01*
X88675000Y-76744565D01*
X106839217Y-76744565D01*
X107043284Y-77241349D01*
X107047776Y-77248071D01*
X107252753Y-77346537D01*
X108119289Y-76480000D01*
X108260711Y-76480000D01*
X109127247Y-77346537D01*
X109332224Y-77248071D01*
X109460189Y-76941685D01*
X109583284Y-77241349D01*
X109587776Y-77248071D01*
X109792753Y-77346537D01*
X110659289Y-76480000D01*
X110800711Y-76480000D01*
X111667247Y-77346537D01*
X111872224Y-77248071D01*
X112000189Y-76941685D01*
X112123284Y-77241349D01*
X112127776Y-77248071D01*
X112332753Y-77346537D01*
X113199289Y-76480000D01*
X113340711Y-76480000D01*
X114207247Y-77346537D01*
X114412224Y-77248071D01*
X114540189Y-76941685D01*
X114663284Y-77241349D01*
X114667776Y-77248071D01*
X114872753Y-77346537D01*
X115739289Y-76480000D01*
X115880711Y-76480000D01*
X116747247Y-77346537D01*
X116952224Y-77248071D01*
X117159206Y-76752496D01*
X117160783Y-76215435D01*
X116956716Y-75718651D01*
X116952224Y-75711929D01*
X116747247Y-75613463D01*
X115880711Y-76480000D01*
X115739289Y-76480000D01*
X114872753Y-75613463D01*
X114667776Y-75711929D01*
X114539811Y-76018315D01*
X114416716Y-75718651D01*
X114412224Y-75711929D01*
X114207247Y-75613463D01*
X113340711Y-76480000D01*
X113199289Y-76480000D01*
X112332753Y-75613463D01*
X112127776Y-75711929D01*
X111999811Y-76018315D01*
X111876716Y-75718651D01*
X111872224Y-75711929D01*
X111667247Y-75613463D01*
X110800711Y-76480000D01*
X110659289Y-76480000D01*
X109792753Y-75613463D01*
X109587776Y-75711929D01*
X109459811Y-76018315D01*
X109336716Y-75718651D01*
X109332224Y-75711929D01*
X109127247Y-75613463D01*
X108260711Y-76480000D01*
X108119289Y-76480000D01*
X107252753Y-75613463D01*
X107047776Y-75711929D01*
X106840794Y-76207504D01*
X106839217Y-76744565D01*
X88675000Y-76744565D01*
X88675000Y-76023552D01*
X88606492Y-75679137D01*
X88453387Y-75450000D01*
X107368019Y-75450000D01*
X107323463Y-75542753D01*
X107323463Y-75542753D01*
G37*
X107323463Y-75542753D02*
X108190000Y-76409289D01*
X109056537Y-75542753D01*
X109011981Y-75450000D01*
X109908019Y-75450000D01*
X109863463Y-75542753D01*
X110730000Y-76409289D01*
X111596537Y-75542753D01*
X111551981Y-75450000D01*
X112448019Y-75450000D01*
X112403463Y-75542753D01*
X113270000Y-76409289D01*
X114136537Y-75542753D01*
X114091981Y-75450000D01*
X114988019Y-75450000D01*
X114943463Y-75542753D01*
X115810000Y-76409289D01*
X116676537Y-75542753D01*
X116631981Y-75450000D01*
X119730364Y-75450000D01*
X119654296Y-75561329D01*
X119622164Y-75720000D01*
X119622164Y-77620000D01*
X119650056Y-77768231D01*
X119737660Y-77904372D01*
X119871329Y-77995704D01*
X120030000Y-78027836D01*
X120305885Y-78027836D01*
X120216285Y-78064858D01*
X119836193Y-78444288D01*
X119630235Y-78940290D01*
X119629766Y-79477353D01*
X119834858Y-79973715D01*
X120214288Y-80353807D01*
X120518330Y-80480056D01*
X120216285Y-80604858D01*
X119836193Y-80984288D01*
X119630235Y-81480290D01*
X119629766Y-82017353D01*
X119834858Y-82513715D01*
X120214288Y-82893807D01*
X120518330Y-83020056D01*
X120216285Y-83144858D01*
X119836193Y-83524288D01*
X119630235Y-84020290D01*
X119629766Y-84557353D01*
X119834858Y-85053715D01*
X120214288Y-85433807D01*
X120518330Y-85560056D01*
X120216285Y-85684858D01*
X119836193Y-86064288D01*
X119630235Y-86560290D01*
X119629766Y-87097353D01*
X119834858Y-87593715D01*
X120214288Y-87973807D01*
X120710290Y-88179765D01*
X121247353Y-88180234D01*
X121743715Y-87975142D01*
X122123807Y-87595712D01*
X122250056Y-87291670D01*
X122374858Y-87593715D01*
X122754288Y-87973807D01*
X123250290Y-88179765D01*
X123787353Y-88180234D01*
X124283715Y-87975142D01*
X124550000Y-87709321D01*
X124550000Y-94092415D01*
X124450000Y-94072164D01*
X124150000Y-94072164D01*
X124150000Y-93980000D01*
X124104762Y-93752572D01*
X124100522Y-93731255D01*
X123959619Y-93520380D01*
X118929619Y-88490381D01*
X118718745Y-88349478D01*
X118673010Y-88340381D01*
X118470000Y-88300000D01*
X115931519Y-88300000D01*
X115903755Y-88272188D01*
X115609828Y-88150139D01*
X115349913Y-88149912D01*
X115350139Y-87891568D01*
X115228603Y-87597428D01*
X115200000Y-87568775D01*
X115200000Y-80549238D01*
X115426657Y-80322581D01*
X115540290Y-80369765D01*
X116077353Y-80370234D01*
X116573715Y-80165142D01*
X116953807Y-79785712D01*
X117159765Y-79289710D01*
X117160234Y-78752647D01*
X116955142Y-78256285D01*
X116575712Y-77876193D01*
X116271517Y-77749880D01*
X116571349Y-77626716D01*
X116578071Y-77622224D01*
X116676537Y-77417247D01*
X115810000Y-76550711D01*
X114943463Y-77417247D01*
X115041929Y-77622224D01*
X115348162Y-77750125D01*
X115046285Y-77874858D01*
X114666193Y-78254288D01*
X114539944Y-78558330D01*
X114415142Y-78256285D01*
X114035712Y-77876193D01*
X113731517Y-77749880D01*
X114031349Y-77626716D01*
X114038071Y-77622224D01*
X114136537Y-77417247D01*
X113270000Y-76550711D01*
X112403463Y-77417247D01*
X112501929Y-77622224D01*
X112808162Y-77750125D01*
X112506285Y-77874858D01*
X112126193Y-78254288D01*
X111999944Y-78558330D01*
X111875142Y-78256285D01*
X111495712Y-77876193D01*
X111191517Y-77749880D01*
X111491349Y-77626716D01*
X111498071Y-77622224D01*
X111596537Y-77417247D01*
X110730000Y-76550711D01*
X109863463Y-77417247D01*
X109961929Y-77622224D01*
X110268162Y-77750125D01*
X109966285Y-77874858D01*
X109586193Y-78254288D01*
X109547836Y-78346662D01*
X109547836Y-78070000D01*
X109519944Y-77921769D01*
X109432340Y-77785628D01*
X109298671Y-77694296D01*
X109140000Y-77662164D01*
X108865054Y-77662164D01*
X108951349Y-77626716D01*
X108958071Y-77622224D01*
X109056537Y-77417247D01*
X108190000Y-76550711D01*
X107323463Y-77417247D01*
X107421929Y-77622224D01*
X107517557Y-77662164D01*
X107240000Y-77662164D01*
X107091769Y-77690056D01*
X106955628Y-77777660D01*
X106864296Y-77911329D01*
X106832164Y-78070000D01*
X106832164Y-79970000D01*
X106860056Y-80118231D01*
X106947660Y-80254372D01*
X107081329Y-80345704D01*
X107240000Y-80377836D01*
X108628598Y-80377836D01*
X111200000Y-82949239D01*
X111200000Y-83687582D01*
X111109828Y-83650139D01*
X110849957Y-83649912D01*
X110850139Y-83441568D01*
X110728603Y-83147428D01*
X110503755Y-82922188D01*
X110209828Y-82800139D01*
X109891568Y-82799861D01*
X109597428Y-82921397D01*
X109372188Y-83146245D01*
X109250139Y-83440172D01*
X109250104Y-83480658D01*
X108955239Y-83775522D01*
X108955239Y-83731225D01*
X108894343Y-83584208D01*
X108682518Y-83372384D01*
X108541097Y-83372384D01*
X107579432Y-84334049D01*
X107593574Y-84348191D01*
X107522863Y-84418902D01*
X107508721Y-84404760D01*
X105649030Y-86264451D01*
X105663172Y-86278593D01*
X105592461Y-86349304D01*
X105578319Y-86335162D01*
X104616654Y-87296827D01*
X104616654Y-87438248D01*
X104828478Y-87650073D01*
X104975495Y-87710969D01*
X105019793Y-87710969D01*
X104730866Y-87999895D01*
X104691568Y-87999861D01*
X104397428Y-88121397D01*
X104172188Y-88346245D01*
X104050139Y-88640172D01*
X104049861Y-88958432D01*
X104133397Y-89160605D01*
X103800000Y-88827208D01*
X103800000Y-87950000D01*
X103731492Y-87605585D01*
X103536396Y-87313604D01*
X103244415Y-87118508D01*
X102900000Y-87050000D01*
X102555585Y-87118508D01*
X102263604Y-87313604D01*
X102068508Y-87605585D01*
X102000000Y-87950000D01*
X102000000Y-89200000D01*
X102068508Y-89544415D01*
X102263604Y-89836396D01*
X110163604Y-97736396D01*
X110455584Y-97931492D01*
X110800000Y-98000000D01*
X112950000Y-98000000D01*
X113294415Y-97931492D01*
X113586396Y-97736396D01*
X113781492Y-97444415D01*
X113850000Y-97100000D01*
X113781492Y-96755585D01*
X113586396Y-96463604D01*
X113294415Y-96268508D01*
X112950000Y-96200000D01*
X111172792Y-96200000D01*
X110789204Y-95816412D01*
X110990172Y-95899861D01*
X111308432Y-95900139D01*
X111602572Y-95778603D01*
X111827812Y-95553755D01*
X111900352Y-95379057D01*
X112698884Y-95379057D01*
X112698884Y-95520478D01*
X112910708Y-95732303D01*
X113057725Y-95793199D01*
X113216855Y-95793199D01*
X113363872Y-95732303D01*
X113476394Y-95619781D01*
X114098955Y-94997219D01*
X114098955Y-94855798D01*
X113660549Y-94417392D01*
X112698884Y-95379057D01*
X111900352Y-95379057D01*
X111949861Y-95259828D01*
X111949896Y-95219342D01*
X112215701Y-94953537D01*
X112274927Y-95096522D01*
X112486752Y-95308346D01*
X112628173Y-95308346D01*
X113589838Y-94346681D01*
X113731260Y-94346681D01*
X114169666Y-94785087D01*
X114311087Y-94785087D01*
X114750189Y-94345986D01*
X114749877Y-94703820D01*
X114901797Y-95071494D01*
X115182856Y-95353044D01*
X115550265Y-95505606D01*
X115948090Y-95505953D01*
X116315764Y-95354033D01*
X116597314Y-95072974D01*
X116749876Y-94705565D01*
X116750223Y-94307740D01*
X116598303Y-93940066D01*
X116317244Y-93658516D01*
X115949835Y-93505954D01*
X115590534Y-93505641D01*
X116029357Y-93066817D01*
X116029357Y-92925396D01*
X115590951Y-92486990D01*
X113731260Y-94346681D01*
X113589838Y-94346681D01*
X113575696Y-94332539D01*
X113646407Y-94261828D01*
X113660549Y-94275970D01*
X115520240Y-92416279D01*
X115661662Y-92416279D01*
X116100068Y-92854685D01*
X116241489Y-92854685D01*
X116864051Y-92232124D01*
X116976573Y-92119602D01*
X117037469Y-91972585D01*
X117037469Y-91813455D01*
X116976573Y-91666438D01*
X116764748Y-91454614D01*
X116623327Y-91454614D01*
X115661662Y-92416279D01*
X115520240Y-92416279D01*
X115506098Y-92402137D01*
X115576809Y-92331426D01*
X115590951Y-92345568D01*
X116552616Y-91383903D01*
X116552616Y-91242482D01*
X116340792Y-91030657D01*
X116193775Y-90969761D01*
X116149477Y-90969761D01*
X116469133Y-90650105D01*
X116508432Y-90650139D01*
X116802572Y-90528603D01*
X117027812Y-90303755D01*
X117149861Y-90009828D01*
X117150139Y-89691568D01*
X117112304Y-89600000D01*
X118200762Y-89600000D01*
X122672925Y-94072164D01*
X122550000Y-94072164D01*
X122401769Y-94100056D01*
X122265628Y-94187660D01*
X122174296Y-94321329D01*
X122142164Y-94480000D01*
X122142164Y-96380000D01*
X122170056Y-96528231D01*
X122257660Y-96664372D01*
X122391329Y-96755704D01*
X122550000Y-96787836D01*
X122824946Y-96787836D01*
X122738651Y-96823284D01*
X122731929Y-96827776D01*
X122633463Y-97032753D01*
X123500000Y-97899289D01*
X124366537Y-97032753D01*
X124268071Y-96827776D01*
X124172443Y-96787836D01*
X124450000Y-96787836D01*
X124550000Y-96769019D01*
X124550000Y-97157627D01*
X124437247Y-97103463D01*
X123570711Y-97970000D01*
X124437247Y-98836537D01*
X124550000Y-98782373D01*
X124550000Y-107020648D01*
X124515142Y-106936285D01*
X124135712Y-106556193D01*
X123639710Y-106350235D01*
X123102647Y-106349766D01*
X122606285Y-106554858D01*
X122226193Y-106934288D01*
X122187836Y-107026662D01*
X122187836Y-106750000D01*
X122159944Y-106601769D01*
X122072340Y-106465628D01*
X121938671Y-106374296D01*
X121780000Y-106342164D01*
X119880000Y-106342164D01*
X119731769Y-106370056D01*
X119595628Y-106457660D01*
X119504296Y-106591329D01*
X119472164Y-106750000D01*
X119472164Y-108650000D01*
X119500056Y-108798231D01*
X119587660Y-108934372D01*
X119721329Y-109025704D01*
X119880000Y-109057836D01*
X121780000Y-109057836D01*
X121928231Y-109029944D01*
X122064372Y-108942340D01*
X122155704Y-108808671D01*
X122187836Y-108650000D01*
X122187836Y-108374115D01*
X122224858Y-108463715D01*
X122604288Y-108843807D01*
X123100290Y-109049765D01*
X123637353Y-109050234D01*
X124133715Y-108845142D01*
X124513807Y-108465712D01*
X124550000Y-108378550D01*
X124550000Y-117745596D01*
X124199785Y-117600174D01*
X123801960Y-117599827D01*
X123434286Y-117751747D01*
X123152736Y-118032806D01*
X123000174Y-118400215D01*
X122999827Y-118798040D01*
X123151747Y-119165714D01*
X123432806Y-119447264D01*
X123800215Y-119599826D01*
X124198040Y-119600173D01*
X124550000Y-119454746D01*
X124550000Y-122955681D01*
X124423869Y-123589785D01*
X124089782Y-124089782D01*
X123589785Y-124423869D01*
X122955680Y-124550000D01*
X103122373Y-124550000D01*
X103176537Y-124437247D01*
X102310000Y-123570711D01*
X101443463Y-124437247D01*
X101497627Y-124550000D01*
X100582373Y-124550000D01*
X100636537Y-124437247D01*
X99770000Y-123570711D01*
X98903463Y-124437247D01*
X98957627Y-124550000D01*
X98042373Y-124550000D01*
X98096537Y-124437247D01*
X97230000Y-123570711D01*
X96363463Y-124437247D01*
X96417627Y-124550000D01*
X96031536Y-124550000D01*
X96040000Y-124529565D01*
X96040000Y-124155978D01*
X96083284Y-124261349D01*
X96087776Y-124268071D01*
X96292753Y-124366537D01*
X97159289Y-123500000D01*
X97300711Y-123500000D01*
X98167247Y-124366537D01*
X98372224Y-124268071D01*
X98500189Y-123961685D01*
X98623284Y-124261349D01*
X98627776Y-124268071D01*
X98832753Y-124366537D01*
X99699289Y-123500000D01*
X99840711Y-123500000D01*
X100707247Y-124366537D01*
X100912224Y-124268071D01*
X101040189Y-123961685D01*
X101163284Y-124261349D01*
X101167776Y-124268071D01*
X101372753Y-124366537D01*
X102239289Y-123500000D01*
X102380711Y-123500000D01*
X103247247Y-124366537D01*
X103452224Y-124268071D01*
X103659206Y-123772496D01*
X103660783Y-123235435D01*
X103456716Y-122738651D01*
X103452224Y-122731929D01*
X103247247Y-122633463D01*
X102380711Y-123500000D01*
X102239289Y-123500000D01*
X101372753Y-122633463D01*
X101167776Y-122731929D01*
X101039811Y-123038315D01*
X100916716Y-122738651D01*
X100912224Y-122731929D01*
X100707247Y-122633463D01*
X99840711Y-123500000D01*
X99699289Y-123500000D01*
X98832753Y-122633463D01*
X98627776Y-122731929D01*
X98499811Y-123038315D01*
X98376716Y-122738651D01*
X98372224Y-122731929D01*
X98167247Y-122633463D01*
X97300711Y-123500000D01*
X97159289Y-123500000D01*
X96292753Y-122633463D01*
X96087776Y-122731929D01*
X96040000Y-122846319D01*
X96040000Y-122562753D01*
X96363463Y-122562753D01*
X97230000Y-123429289D01*
X98096537Y-122562753D01*
X98903463Y-122562753D01*
X99770000Y-123429289D01*
X100636537Y-122562753D01*
X101443463Y-122562753D01*
X102310000Y-123429289D01*
X103176537Y-122562753D01*
X103078071Y-122357776D01*
X102582496Y-122150794D01*
X102045435Y-122149217D01*
X101548651Y-122353284D01*
X101541929Y-122357776D01*
X101443463Y-122562753D01*
X100636537Y-122562753D01*
X100538071Y-122357776D01*
X100042496Y-122150794D01*
X99505435Y-122149217D01*
X99008651Y-122353284D01*
X99001929Y-122357776D01*
X98903463Y-122562753D01*
X98096537Y-122562753D01*
X97998071Y-122357776D01*
X97502496Y-122150794D01*
X96965435Y-122149217D01*
X96468651Y-122353284D01*
X96461929Y-122357776D01*
X96363463Y-122562753D01*
X96040000Y-122562753D01*
X96040000Y-122470435D01*
X95979104Y-122323418D01*
X95866582Y-122210896D01*
X95719565Y-122150000D01*
X94840000Y-122150000D01*
X94740000Y-122250000D01*
X94740000Y-123450000D01*
X94760000Y-123450000D01*
X94760000Y-123550000D01*
X94740000Y-123550000D01*
X94740000Y-123570000D01*
X94640000Y-123570000D01*
X94640000Y-123550000D01*
X93440000Y-123550000D01*
X93340000Y-123650000D01*
X93340000Y-124529565D01*
X93348464Y-124550000D01*
X91129023Y-124550000D01*
X91413807Y-124265712D01*
X91619765Y-123769710D01*
X91620234Y-123232647D01*
X91415142Y-122736285D01*
X91149756Y-122470435D01*
X93340000Y-122470435D01*
X93340000Y-123350000D01*
X93440000Y-123450000D01*
X94640000Y-123450000D01*
X94640000Y-122250000D01*
X94540000Y-122150000D01*
X93660435Y-122150000D01*
X93513418Y-122210896D01*
X93400896Y-122323418D01*
X93340000Y-122470435D01*
X91149756Y-122470435D01*
X91035712Y-122356193D01*
X90539710Y-122150235D01*
X90002647Y-122149766D01*
X89506285Y-122354858D01*
X89126193Y-122734288D01*
X89087836Y-122826662D01*
X89087836Y-122550000D01*
X89059944Y-122401769D01*
X88972340Y-122265628D01*
X88838671Y-122174296D01*
X88680000Y-122142164D01*
X86780000Y-122142164D01*
X86631769Y-122170056D01*
X86495628Y-122257660D01*
X86404296Y-122391329D01*
X86372164Y-122550000D01*
X86372164Y-122850000D01*
X81769239Y-122850000D01*
X81450000Y-122530762D01*
X81450000Y-118798040D01*
X111499827Y-118798040D01*
X111651747Y-119165714D01*
X111932806Y-119447264D01*
X112300215Y-119599826D01*
X112698040Y-119600173D01*
X113065714Y-119448253D01*
X113347264Y-119167194D01*
X113499826Y-118799785D01*
X113499827Y-118798040D01*
X116499827Y-118798040D01*
X116651747Y-119165714D01*
X116932806Y-119447264D01*
X117300215Y-119599826D01*
X117698040Y-119600173D01*
X118065714Y-119448253D01*
X118250075Y-119264214D01*
X118432806Y-119447264D01*
X118800215Y-119599826D01*
X119198040Y-119600173D01*
X119565714Y-119448253D01*
X119847264Y-119167194D01*
X119999826Y-118799785D01*
X120000173Y-118401960D01*
X119848253Y-118034286D01*
X119567194Y-117752736D01*
X119199785Y-117600174D01*
X118801960Y-117599827D01*
X118434286Y-117751747D01*
X118249925Y-117935786D01*
X118067194Y-117752736D01*
X117699785Y-117600174D01*
X117301960Y-117599827D01*
X116934286Y-117751747D01*
X116652736Y-118032806D01*
X116500174Y-118400215D01*
X116499827Y-118798040D01*
X113499827Y-118798040D01*
X113500173Y-118401960D01*
X113348253Y-118034286D01*
X113067194Y-117752736D01*
X112699785Y-117600174D01*
X112301960Y-117599827D01*
X111934286Y-117751747D01*
X111652736Y-118032806D01*
X111500174Y-118400215D01*
X111499827Y-118798040D01*
X81450000Y-118798040D01*
X81450000Y-110158432D01*
X82799861Y-110158432D01*
X82921397Y-110452572D01*
X83146245Y-110677812D01*
X83440172Y-110799861D01*
X83700087Y-110800088D01*
X83699861Y-111058432D01*
X83821397Y-111352572D01*
X84046245Y-111577812D01*
X84340172Y-111699861D01*
X84600087Y-111700088D01*
X84599861Y-111958432D01*
X84721397Y-112252572D01*
X84946245Y-112477812D01*
X85240172Y-112599861D01*
X85500087Y-112600088D01*
X85499861Y-112858432D01*
X85621397Y-113152572D01*
X85846245Y-113377812D01*
X86140172Y-113499861D01*
X86400087Y-113500088D01*
X86399861Y-113758432D01*
X86521397Y-114052572D01*
X86746245Y-114277812D01*
X87040172Y-114399861D01*
X87300087Y-114400088D01*
X87299861Y-114658432D01*
X87421397Y-114952572D01*
X87646245Y-115177812D01*
X87940172Y-115299861D01*
X88200087Y-115300088D01*
X88199861Y-115558432D01*
X88321397Y-115852572D01*
X88546245Y-116077812D01*
X88840172Y-116199861D01*
X89100087Y-116200088D01*
X89099861Y-116458432D01*
X89221397Y-116752572D01*
X89446245Y-116977812D01*
X89740172Y-117099861D01*
X90058432Y-117100139D01*
X90352572Y-116978603D01*
X90577812Y-116753755D01*
X90644870Y-116592261D01*
X91485680Y-116592261D01*
X91485680Y-116733682D01*
X91697504Y-116945507D01*
X91844521Y-117006403D01*
X92003651Y-117006403D01*
X92150668Y-116945507D01*
X92263190Y-116832985D01*
X92358527Y-116737647D01*
X112799793Y-116737647D01*
X112982097Y-117178857D01*
X113319367Y-117516717D01*
X113760258Y-117699791D01*
X114237647Y-117700207D01*
X114678857Y-117517903D01*
X114868081Y-117329009D01*
X115241702Y-117329009D01*
X115321892Y-117518402D01*
X115763235Y-117700382D01*
X116240624Y-117699614D01*
X116678108Y-117518402D01*
X116758298Y-117329009D01*
X116000000Y-116570711D01*
X115241702Y-117329009D01*
X114868081Y-117329009D01*
X115008034Y-117189301D01*
X115170991Y-117258298D01*
X115929289Y-116500000D01*
X116070711Y-116500000D01*
X116829009Y-117258298D01*
X117018402Y-117178108D01*
X117200382Y-116736765D01*
X117199614Y-116259376D01*
X117018402Y-115821892D01*
X116829009Y-115741702D01*
X116070711Y-116500000D01*
X115929289Y-116500000D01*
X115170991Y-115741702D01*
X115007643Y-115810865D01*
X114868014Y-115670991D01*
X115241702Y-115670991D01*
X116000000Y-116429289D01*
X116758298Y-115670991D01*
X116678108Y-115481598D01*
X116236765Y-115299618D01*
X115759376Y-115300386D01*
X115321892Y-115481598D01*
X115241702Y-115670991D01*
X114868014Y-115670991D01*
X114680633Y-115483283D01*
X114239742Y-115300209D01*
X113762353Y-115299793D01*
X113321143Y-115482097D01*
X112983283Y-115819367D01*
X112800209Y-116260258D01*
X112799793Y-116737647D01*
X92358527Y-116737647D01*
X92885751Y-116210423D01*
X92885751Y-116069002D01*
X92447345Y-115630596D01*
X91485680Y-116592261D01*
X90644870Y-116592261D01*
X90699861Y-116459828D01*
X90699887Y-116430531D01*
X91000827Y-116129590D01*
X91000827Y-116162709D01*
X91061723Y-116309726D01*
X91273548Y-116521550D01*
X91414969Y-116521550D01*
X92376634Y-115559885D01*
X92518056Y-115559885D01*
X92956462Y-115998291D01*
X93097883Y-115998291D01*
X93536985Y-115559190D01*
X93536673Y-115917024D01*
X93688593Y-116284698D01*
X93969652Y-116566248D01*
X94337061Y-116718810D01*
X94734886Y-116719157D01*
X95102560Y-116567237D01*
X95384110Y-116286178D01*
X95536672Y-115918769D01*
X95537019Y-115520944D01*
X95385099Y-115153270D01*
X95104040Y-114871720D01*
X94736631Y-114719158D01*
X94377330Y-114718845D01*
X94816153Y-114280021D01*
X94816153Y-114138600D01*
X94377747Y-113700194D01*
X92518056Y-115559885D01*
X92376634Y-115559885D01*
X92362492Y-115545743D01*
X92433203Y-115475032D01*
X92447345Y-115489174D01*
X94307036Y-113629483D01*
X94448458Y-113629483D01*
X94886864Y-114067889D01*
X95028285Y-114067889D01*
X95650847Y-113445328D01*
X95763369Y-113332806D01*
X95824265Y-113185789D01*
X95824265Y-113026659D01*
X95763369Y-112879642D01*
X95551544Y-112667818D01*
X95410123Y-112667818D01*
X94448458Y-113629483D01*
X94307036Y-113629483D01*
X94292894Y-113615341D01*
X94363605Y-113544630D01*
X94377747Y-113558772D01*
X95339412Y-112597107D01*
X95339412Y-112455686D01*
X95127588Y-112243861D01*
X94980571Y-112182965D01*
X94947453Y-112182965D01*
X95230303Y-111900114D01*
X95258432Y-111900139D01*
X95552572Y-111778603D01*
X95777812Y-111553755D01*
X95899861Y-111259828D01*
X95900139Y-110941568D01*
X95778603Y-110647428D01*
X95553755Y-110422188D01*
X95259828Y-110300139D01*
X94999913Y-110299912D01*
X95000139Y-110041568D01*
X94878603Y-109747428D01*
X94653755Y-109522188D01*
X94479907Y-109450000D01*
X96618481Y-109450000D01*
X96646245Y-109477812D01*
X96940172Y-109599861D01*
X97258432Y-109600139D01*
X97552572Y-109478603D01*
X97777812Y-109253755D01*
X97899861Y-108959828D01*
X97900139Y-108641568D01*
X97778603Y-108347428D01*
X97553755Y-108122188D01*
X97259828Y-108000139D01*
X96941568Y-107999861D01*
X96647428Y-108121397D01*
X96618775Y-108150000D01*
X93963676Y-108150000D01*
X93840000Y-108026324D01*
X93840000Y-104800000D01*
X110250000Y-104800000D01*
X110250000Y-107150000D01*
X110318508Y-107494415D01*
X110513604Y-107786396D01*
X119299937Y-116572729D01*
X119299793Y-116737647D01*
X119482097Y-117178857D01*
X119819367Y-117516717D01*
X120260258Y-117699791D01*
X120737647Y-117700207D01*
X121178857Y-117517903D01*
X121368081Y-117329009D01*
X121741702Y-117329009D01*
X121821892Y-117518402D01*
X122263235Y-117700382D01*
X122740624Y-117699614D01*
X123178108Y-117518402D01*
X123258298Y-117329009D01*
X122500000Y-116570711D01*
X121741702Y-117329009D01*
X121368081Y-117329009D01*
X121508034Y-117189301D01*
X121670991Y-117258298D01*
X122429289Y-116500000D01*
X122570711Y-116500000D01*
X123329009Y-117258298D01*
X123518402Y-117178108D01*
X123700382Y-116736765D01*
X123699614Y-116259376D01*
X123518402Y-115821892D01*
X123329009Y-115741702D01*
X122570711Y-116500000D01*
X122429289Y-116500000D01*
X121670991Y-115741702D01*
X121507643Y-115810865D01*
X121368014Y-115670991D01*
X121741702Y-115670991D01*
X122500000Y-116429289D01*
X123258298Y-115670991D01*
X123178108Y-115481598D01*
X122736765Y-115299618D01*
X122259376Y-115300386D01*
X121821892Y-115481598D01*
X121741702Y-115670991D01*
X121368014Y-115670991D01*
X121180633Y-115483283D01*
X120739742Y-115300209D01*
X120572856Y-115300064D01*
X112050000Y-106777208D01*
X112050000Y-104800000D01*
X111981492Y-104455585D01*
X111786396Y-104163604D01*
X111494415Y-103968508D01*
X111150000Y-103900000D01*
X110805585Y-103968508D01*
X110513604Y-104163604D01*
X110318508Y-104455585D01*
X110250000Y-104800000D01*
X93840000Y-104800000D01*
X93840000Y-103623676D01*
X93963707Y-103499969D01*
X94158432Y-103500139D01*
X94452572Y-103378603D01*
X94677812Y-103153755D01*
X94799861Y-102859828D01*
X94800139Y-102541568D01*
X94678603Y-102247428D01*
X94453755Y-102022188D01*
X94159828Y-101900139D01*
X93841568Y-101899861D01*
X93547428Y-102021397D01*
X93322188Y-102246245D01*
X93200139Y-102540172D01*
X93199968Y-102736357D01*
X92918162Y-103018162D01*
X92801105Y-103193351D01*
X92760000Y-103400000D01*
X92760000Y-107683258D01*
X92559828Y-107600139D01*
X92241568Y-107599861D01*
X92155034Y-107635616D01*
X92181838Y-107608812D01*
X92298895Y-107433623D01*
X92340000Y-107226974D01*
X92340000Y-106091327D01*
X92477812Y-105953755D01*
X92599861Y-105659828D01*
X92600139Y-105341568D01*
X92478603Y-105047428D01*
X92253755Y-104822188D01*
X91959828Y-104700139D01*
X91958435Y-104700138D01*
X92252572Y-104578603D01*
X92477812Y-104353755D01*
X92599861Y-104059828D01*
X92600139Y-103741568D01*
X92478603Y-103447428D01*
X92253755Y-103222188D01*
X91959828Y-103100139D01*
X91641568Y-103099861D01*
X91347428Y-103221397D01*
X91122188Y-103446245D01*
X91000139Y-103740172D01*
X90999968Y-103936357D01*
X90008163Y-104928161D01*
X89990603Y-104954441D01*
X89859828Y-104900139D01*
X89599913Y-104899912D01*
X89600139Y-104641568D01*
X89478603Y-104347428D01*
X89253755Y-104122188D01*
X88959828Y-104000139D01*
X88641568Y-103999861D01*
X88347428Y-104121397D01*
X88122188Y-104346245D01*
X88000139Y-104640172D01*
X88000070Y-104719513D01*
X87742035Y-104977547D01*
X87742035Y-104944429D01*
X87681139Y-104797412D01*
X87469314Y-104585588D01*
X87327893Y-104585588D01*
X86366228Y-105547253D01*
X86380370Y-105561395D01*
X86309659Y-105632106D01*
X86295517Y-105617964D01*
X84435826Y-107477655D01*
X84449968Y-107491797D01*
X84379257Y-107562508D01*
X84365115Y-107548366D01*
X83403450Y-108510031D01*
X83403450Y-108651452D01*
X83615274Y-108863277D01*
X83762291Y-108924173D01*
X83795410Y-108924173D01*
X83519654Y-109199929D01*
X83441568Y-109199861D01*
X83147428Y-109321397D01*
X82922188Y-109546245D01*
X82800139Y-109840172D01*
X82799861Y-110158432D01*
X81450000Y-110158432D01*
X81450000Y-107921349D01*
X82918597Y-107921349D01*
X82918597Y-108080479D01*
X82979493Y-108227496D01*
X83191318Y-108439320D01*
X83332739Y-108439320D01*
X84294404Y-107477655D01*
X83855998Y-107039249D01*
X83714577Y-107039249D01*
X83092015Y-107661810D01*
X82979493Y-107774332D01*
X82918597Y-107921349D01*
X81450000Y-107921349D01*
X81450000Y-106981258D01*
X81627812Y-106803755D01*
X81749861Y-106509828D01*
X81750139Y-106191568D01*
X81628603Y-105897428D01*
X81403755Y-105672188D01*
X81196659Y-105586194D01*
X83205843Y-105586194D01*
X83357763Y-105953868D01*
X83638822Y-106235418D01*
X84006231Y-106387980D01*
X84365532Y-106388293D01*
X83926709Y-106827117D01*
X83926709Y-106968538D01*
X84365115Y-107406944D01*
X86224806Y-105547253D01*
X85786400Y-105108847D01*
X85644979Y-105108847D01*
X85205877Y-105547948D01*
X85206189Y-105190114D01*
X85084959Y-104896715D01*
X85857111Y-104896715D01*
X85857111Y-105038136D01*
X86295517Y-105476542D01*
X87257182Y-104514877D01*
X87257182Y-104373456D01*
X87045358Y-104161631D01*
X86898341Y-104100735D01*
X86739211Y-104100735D01*
X86592194Y-104161631D01*
X86479672Y-104274153D01*
X85857111Y-104896715D01*
X85084959Y-104896715D01*
X85054269Y-104822440D01*
X84773210Y-104540890D01*
X84405801Y-104388328D01*
X84007976Y-104387981D01*
X83640302Y-104539901D01*
X83358752Y-104820960D01*
X83206190Y-105188369D01*
X83205843Y-105586194D01*
X81196659Y-105586194D01*
X81109828Y-105550139D01*
X80791568Y-105549861D01*
X80497428Y-105671397D01*
X80272188Y-105896245D01*
X80150139Y-106190172D01*
X80149861Y-106508432D01*
X80150000Y-106508768D01*
X80150000Y-107351117D01*
X79785712Y-106986193D01*
X79289710Y-106780235D01*
X78752647Y-106779766D01*
X78256285Y-106984858D01*
X77876193Y-107364288D01*
X77837836Y-107456662D01*
X77837836Y-107180000D01*
X77809944Y-107031769D01*
X77722340Y-106895628D01*
X77588671Y-106804296D01*
X77430000Y-106772164D01*
X77117748Y-106772164D01*
X77045685Y-106664314D01*
X76600000Y-106218630D01*
X76600000Y-98907247D01*
X122633463Y-98907247D01*
X122731929Y-99112224D01*
X123227504Y-99319206D01*
X123764565Y-99320783D01*
X124261349Y-99116716D01*
X124268071Y-99112224D01*
X124366537Y-98907247D01*
X123500000Y-98040711D01*
X122633463Y-98907247D01*
X76600000Y-98907247D01*
X76600000Y-98234565D01*
X122149217Y-98234565D01*
X122353284Y-98731349D01*
X122357776Y-98738071D01*
X122562753Y-98836537D01*
X123429289Y-97970000D01*
X122562753Y-97103463D01*
X122357776Y-97201929D01*
X122150794Y-97697504D01*
X122149217Y-98234565D01*
X76600000Y-98234565D01*
X76600000Y-94208432D01*
X89899861Y-94208432D01*
X90021397Y-94502572D01*
X90246245Y-94727812D01*
X90540172Y-94849861D01*
X90736357Y-94850032D01*
X91818160Y-95931835D01*
X91818162Y-95931838D01*
X91925794Y-96003755D01*
X91993351Y-96048895D01*
X92200000Y-96090000D01*
X93608673Y-96090000D01*
X93746245Y-96227812D01*
X94040172Y-96349861D01*
X94358432Y-96350139D01*
X94652572Y-96228603D01*
X94877812Y-96003755D01*
X94999861Y-95709828D01*
X95000139Y-95391568D01*
X94878603Y-95097428D01*
X94653755Y-94872188D01*
X94359828Y-94750139D01*
X94199913Y-94749999D01*
X94200139Y-94491568D01*
X94078603Y-94197428D01*
X93853755Y-93972188D01*
X93559828Y-93850139D01*
X93241568Y-93849861D01*
X92947428Y-93971397D01*
X92941245Y-93977569D01*
X92249969Y-93286293D01*
X92250139Y-93091568D01*
X92128603Y-92797428D01*
X91903755Y-92572188D01*
X91609828Y-92450139D01*
X91291568Y-92449861D01*
X90997428Y-92571397D01*
X90772188Y-92796245D01*
X90650139Y-93090172D01*
X90649999Y-93249956D01*
X90541568Y-93249861D01*
X90247428Y-93371397D01*
X90022188Y-93596245D01*
X89900139Y-93890172D01*
X89899861Y-94208432D01*
X76600000Y-94208432D01*
X76600000Y-90633719D01*
X76768525Y-90802538D01*
X77099194Y-90939843D01*
X77457236Y-90940156D01*
X77788143Y-90803428D01*
X78041538Y-90550475D01*
X78178843Y-90219806D01*
X78178844Y-90218236D01*
X78410844Y-90218236D01*
X78547572Y-90549143D01*
X78800525Y-90802538D01*
X79131194Y-90939843D01*
X79489236Y-90940156D01*
X79820143Y-90803428D01*
X80073538Y-90550475D01*
X80210843Y-90219806D01*
X80211156Y-89861764D01*
X80074428Y-89530857D01*
X79821475Y-89277462D01*
X79490806Y-89140157D01*
X79132764Y-89139844D01*
X78801857Y-89276572D01*
X78548462Y-89529525D01*
X78411157Y-89860194D01*
X78410844Y-90218236D01*
X78178844Y-90218236D01*
X78179156Y-89861764D01*
X78042428Y-89530857D01*
X77789475Y-89277462D01*
X77458806Y-89140157D01*
X77100764Y-89139844D01*
X76769857Y-89276572D01*
X76600000Y-89446133D01*
X76600000Y-86708145D01*
X104131801Y-86708145D01*
X104131801Y-86867275D01*
X104192697Y-87014292D01*
X104404522Y-87226116D01*
X104545943Y-87226116D01*
X105507608Y-86264451D01*
X105069202Y-85826045D01*
X104927781Y-85826045D01*
X104305219Y-86448606D01*
X104192697Y-86561128D01*
X104131801Y-86708145D01*
X76600000Y-86708145D01*
X76600000Y-85138236D01*
X77394844Y-85138236D01*
X77531572Y-85469143D01*
X77784525Y-85722538D01*
X78115194Y-85859843D01*
X78473236Y-85860156D01*
X78804143Y-85723428D01*
X79057538Y-85470475D01*
X79194843Y-85139806D01*
X79195156Y-84781764D01*
X79058428Y-84450857D01*
X78980697Y-84372990D01*
X104419047Y-84372990D01*
X104570967Y-84740664D01*
X104852026Y-85022214D01*
X105219435Y-85174776D01*
X105578736Y-85175089D01*
X105139913Y-85613913D01*
X105139913Y-85755334D01*
X105578319Y-86193740D01*
X107438010Y-84334049D01*
X106999604Y-83895643D01*
X106858183Y-83895643D01*
X106419081Y-84334744D01*
X106419393Y-83976910D01*
X106298163Y-83683511D01*
X107070315Y-83683511D01*
X107070315Y-83824932D01*
X107508721Y-84263338D01*
X108470386Y-83301673D01*
X108470386Y-83160252D01*
X108258562Y-82948427D01*
X108111545Y-82887531D01*
X107952415Y-82887531D01*
X107805398Y-82948427D01*
X107692876Y-83060949D01*
X107070315Y-83683511D01*
X106298163Y-83683511D01*
X106267473Y-83609236D01*
X105986414Y-83327686D01*
X105619005Y-83175124D01*
X105221180Y-83174777D01*
X104853506Y-83326697D01*
X104571956Y-83607756D01*
X104419394Y-83975165D01*
X104419047Y-84372990D01*
X78980697Y-84372990D01*
X78805475Y-84197462D01*
X78474806Y-84060157D01*
X78116764Y-84059844D01*
X77785857Y-84196572D01*
X77532462Y-84449525D01*
X77395157Y-84780194D01*
X77394844Y-85138236D01*
X76600000Y-85138236D01*
X76600000Y-83390000D01*
X76758760Y-83390000D01*
X76946245Y-83577812D01*
X77240172Y-83699861D01*
X77558432Y-83700139D01*
X77852572Y-83578603D01*
X78077812Y-83353755D01*
X78199861Y-83059828D01*
X78200139Y-82741568D01*
X78078603Y-82447428D01*
X77853755Y-82222188D01*
X77645611Y-82135759D01*
X80487055Y-79294316D01*
X80475000Y-79354919D01*
X80475000Y-79645081D01*
X80543508Y-79989496D01*
X80738604Y-80281477D01*
X81030585Y-80476573D01*
X81375000Y-80545081D01*
X81719415Y-80476573D01*
X82011396Y-80281477D01*
X82206492Y-79989496D01*
X82275000Y-79645081D01*
X82275000Y-79354919D01*
X82206492Y-79010504D01*
X82011396Y-78718523D01*
X81719415Y-78523427D01*
X81601639Y-78500000D01*
X85598361Y-78500000D01*
X85480585Y-78523427D01*
X85188604Y-78718523D01*
X84993508Y-79010504D01*
X84925000Y-79354919D01*
X84925000Y-79645081D01*
X84993508Y-79989496D01*
X85188604Y-80281477D01*
X85480585Y-80476573D01*
X85825000Y-80545081D01*
X86169415Y-80476573D01*
X86461396Y-80281477D01*
X86656492Y-79989496D01*
X86725000Y-79645081D01*
X86725000Y-79354919D01*
X86688115Y-79169486D01*
X88100000Y-80581371D01*
X88100000Y-82149302D01*
X88099861Y-82308432D01*
X88221397Y-82602572D01*
X88446245Y-82827812D01*
X88740172Y-82949861D01*
X89058432Y-82950139D01*
X89352572Y-82828603D01*
X89577812Y-82603755D01*
X89699861Y-82309828D01*
X89700139Y-81991568D01*
X89700000Y-81991232D01*
X89700000Y-80250000D01*
X89680109Y-80150000D01*
X92200000Y-80150000D01*
X92268508Y-80494415D01*
X92463604Y-80786396D01*
X93313604Y-81636396D01*
X93605585Y-81831492D01*
X93950000Y-81900000D01*
X99000000Y-81900000D01*
X99344415Y-81831492D01*
X99636396Y-81636396D01*
X99831492Y-81344415D01*
X99900000Y-81000000D01*
X99831492Y-80655585D01*
X99636396Y-80363604D01*
X99344415Y-80168508D01*
X99000000Y-80100000D01*
X94322792Y-80100000D01*
X93736396Y-79513604D01*
X93444415Y-79318508D01*
X93100000Y-79250000D01*
X92755585Y-79318508D01*
X92463604Y-79513604D01*
X92268508Y-79805585D01*
X92200000Y-80150000D01*
X89680109Y-80150000D01*
X89639104Y-79943853D01*
X89465686Y-79684315D01*
X87628722Y-77847352D01*
X87775000Y-77876448D01*
X88119415Y-77807940D01*
X88411396Y-77612844D01*
X88606492Y-77320863D01*
X88675000Y-76976448D01*
X88675000Y-76744565D01*
X106839217Y-76744565D01*
X107043284Y-77241349D01*
X107047776Y-77248071D01*
X107252753Y-77346537D01*
X108119289Y-76480000D01*
X108260711Y-76480000D01*
X109127247Y-77346537D01*
X109332224Y-77248071D01*
X109460189Y-76941685D01*
X109583284Y-77241349D01*
X109587776Y-77248071D01*
X109792753Y-77346537D01*
X110659289Y-76480000D01*
X110800711Y-76480000D01*
X111667247Y-77346537D01*
X111872224Y-77248071D01*
X112000189Y-76941685D01*
X112123284Y-77241349D01*
X112127776Y-77248071D01*
X112332753Y-77346537D01*
X113199289Y-76480000D01*
X113340711Y-76480000D01*
X114207247Y-77346537D01*
X114412224Y-77248071D01*
X114540189Y-76941685D01*
X114663284Y-77241349D01*
X114667776Y-77248071D01*
X114872753Y-77346537D01*
X115739289Y-76480000D01*
X115880711Y-76480000D01*
X116747247Y-77346537D01*
X116952224Y-77248071D01*
X117159206Y-76752496D01*
X117160783Y-76215435D01*
X116956716Y-75718651D01*
X116952224Y-75711929D01*
X116747247Y-75613463D01*
X115880711Y-76480000D01*
X115739289Y-76480000D01*
X114872753Y-75613463D01*
X114667776Y-75711929D01*
X114539811Y-76018315D01*
X114416716Y-75718651D01*
X114412224Y-75711929D01*
X114207247Y-75613463D01*
X113340711Y-76480000D01*
X113199289Y-76480000D01*
X112332753Y-75613463D01*
X112127776Y-75711929D01*
X111999811Y-76018315D01*
X111876716Y-75718651D01*
X111872224Y-75711929D01*
X111667247Y-75613463D01*
X110800711Y-76480000D01*
X110659289Y-76480000D01*
X109792753Y-75613463D01*
X109587776Y-75711929D01*
X109459811Y-76018315D01*
X109336716Y-75718651D01*
X109332224Y-75711929D01*
X109127247Y-75613463D01*
X108260711Y-76480000D01*
X108119289Y-76480000D01*
X107252753Y-75613463D01*
X107047776Y-75711929D01*
X106840794Y-76207504D01*
X106839217Y-76744565D01*
X88675000Y-76744565D01*
X88675000Y-76023552D01*
X88606492Y-75679137D01*
X88453387Y-75450000D01*
X107368019Y-75450000D01*
X107323463Y-75542753D01*
M02*
