G04 #@! TF.FileFunction,Copper,L1,Top,Signal*
%FSLAX46Y46*%
G04 Gerber Fmt 4.6, Leading zero omitted, Abs format (unit mm)*
G04 Created by KiCad (PCBNEW 0.201601071449+6428~40~ubuntu14.04.1-stable) date Sun 13 Mar 2016 00:05:51 GMT*
%MOMM*%
G01*
G04 APERTURE LIST*
%ADD10C,0.100000*%
%ADD11R,1.000000X0.950000*%
%ADD12R,0.620000X0.620000*%
%ADD13R,1.900000X1.900000*%
%ADD14C,1.900000*%
%ADD15R,0.850000X0.950000*%
%ADD16C,0.787000*%
%ADD17R,0.400000X1.350000*%
%ADD18O,1.000000X1.250000*%
%ADD19R,1.800000X1.900000*%
%ADD20R,1.575000X1.900000*%
%ADD21O,1.000000X1.900000*%
%ADD22C,1.600000*%
%ADD23R,1.450000X0.450000*%
%ADD24R,0.350000X0.650000*%
%ADD25R,0.800000X0.800000*%
%ADD26R,2.400000X1.550000*%
%ADD27R,0.300000X1.500000*%
%ADD28R,1.500000X0.300000*%
%ADD29R,0.950000X1.000000*%
%ADD30C,0.800000*%
%ADD31C,0.280000*%
%ADD32C,0.500000*%
%ADD33C,0.400000*%
%ADD34C,0.800000*%
%ADD35C,1.000000*%
%ADD36C,0.200000*%
%ADD37C,0.150000*%
G04 APERTURE END LIST*
D10*
D11*
X89286974Y-80404532D03*
X89286974Y-78804532D03*
D12*
X109800000Y-114550000D03*
X109800000Y-115450000D03*
D13*
X94690000Y-123500000D03*
D14*
X97230000Y-123500000D03*
X99770000Y-123500000D03*
X102310000Y-123500000D03*
D13*
X123500000Y-95430000D03*
D14*
X123500000Y-97970000D03*
D13*
X87730000Y-123500000D03*
D14*
X90270000Y-123500000D03*
D13*
X120830000Y-107700000D03*
D14*
X123370000Y-107700000D03*
D15*
X83725000Y-98575000D03*
X83725000Y-100025000D03*
X84875000Y-100025000D03*
X84875000Y-98575000D03*
D12*
X111000000Y-114550000D03*
X111000000Y-115450000D03*
X90000000Y-77300000D03*
X90900000Y-77300000D03*
X94950000Y-77300000D03*
X95850000Y-77300000D03*
X123450000Y-102400000D03*
X124350000Y-102400000D03*
X104150000Y-81600000D03*
X104150000Y-80700000D03*
X102950000Y-81600000D03*
X102950000Y-80700000D03*
X101750000Y-81600000D03*
X101750000Y-80700000D03*
X100550000Y-81600000D03*
X100550000Y-80700000D03*
X95450000Y-89800000D03*
X96350000Y-89800000D03*
X96350000Y-88600000D03*
X95450000Y-88600000D03*
D10*
G36*
X96156604Y-110218198D02*
X95718198Y-110656604D01*
X95279792Y-110218198D01*
X95718198Y-109779792D01*
X96156604Y-110218198D01*
X96156604Y-110218198D01*
G37*
G36*
X95520208Y-109581802D02*
X95081802Y-110020208D01*
X94643396Y-109581802D01*
X95081802Y-109143396D01*
X95520208Y-109581802D01*
X95520208Y-109581802D01*
G37*
D12*
X86200000Y-99750000D03*
X86200000Y-98850000D03*
X87050000Y-81800000D03*
X87050000Y-82700000D03*
X108600000Y-114550000D03*
X108600000Y-115450000D03*
X107400000Y-114550000D03*
X107400000Y-115450000D03*
X106200000Y-114550000D03*
X106200000Y-115450000D03*
D16*
X77660000Y-86230000D03*
X78930000Y-86230000D03*
X77660000Y-87500000D03*
X78930000Y-87500000D03*
X77660000Y-88770000D03*
X78930000Y-88770000D03*
D13*
X76480000Y-108130000D03*
D14*
X79020000Y-108130000D03*
X76480000Y-110670000D03*
X79020000Y-110670000D03*
X76480000Y-113210000D03*
X79020000Y-113210000D03*
X76480000Y-115750000D03*
X79020000Y-115750000D03*
X76480000Y-118290000D03*
X79020000Y-118290000D03*
X76480000Y-120830000D03*
X79020000Y-120830000D03*
X76480000Y-123370000D03*
X79020000Y-123370000D03*
D13*
X120980000Y-76670000D03*
D14*
X123520000Y-76670000D03*
X120980000Y-79210000D03*
X123520000Y-79210000D03*
X120980000Y-81750000D03*
X123520000Y-81750000D03*
X120980000Y-84290000D03*
X123520000Y-84290000D03*
X120980000Y-86830000D03*
X123520000Y-86830000D03*
D17*
X83600000Y-79175000D03*
X82950000Y-79175000D03*
X84250000Y-79175000D03*
X84900000Y-79175000D03*
X82300000Y-79175000D03*
D18*
X81375000Y-79500000D03*
X85825000Y-79500000D03*
D19*
X82450000Y-76500000D03*
X84750000Y-76500000D03*
D20*
X80212500Y-76500000D03*
D21*
X79425000Y-76500000D03*
D20*
X86987500Y-76500000D03*
D21*
X87775000Y-76500000D03*
D22*
X120500000Y-116500000D03*
X122500000Y-116500000D03*
D13*
X108190000Y-79020000D03*
D14*
X108190000Y-76480000D03*
X110730000Y-79020000D03*
X110730000Y-76480000D03*
X113270000Y-79020000D03*
X113270000Y-76480000D03*
X115810000Y-79020000D03*
X115810000Y-76480000D03*
D22*
X114000000Y-116500000D03*
X116000000Y-116500000D03*
D10*
G36*
X104036827Y-87282684D02*
X106101578Y-85217933D01*
X106624837Y-85741192D01*
X104560086Y-87805943D01*
X104036827Y-87282684D01*
X104036827Y-87282684D01*
G37*
G36*
X106462203Y-84857308D02*
X108526954Y-82792557D01*
X109050213Y-83315816D01*
X106985462Y-85380567D01*
X106462203Y-84857308D01*
X106462203Y-84857308D01*
G37*
G36*
X104934852Y-88180709D02*
X106999603Y-86115958D01*
X107522862Y-86639217D01*
X105458111Y-88703968D01*
X104934852Y-88180709D01*
X104934852Y-88180709D01*
G37*
G36*
X107360228Y-85755333D02*
X109424979Y-83690582D01*
X109948238Y-84213841D01*
X107883487Y-86278592D01*
X107360228Y-85755333D01*
X107360228Y-85755333D01*
G37*
G36*
X105832878Y-89078735D02*
X107897629Y-87013984D01*
X108420888Y-87537243D01*
X106356137Y-89601994D01*
X105832878Y-89078735D01*
X105832878Y-89078735D01*
G37*
G36*
X108258254Y-86653359D02*
X110323005Y-84588608D01*
X110846264Y-85111867D01*
X108781513Y-87176618D01*
X108258254Y-86653359D01*
X108258254Y-86653359D01*
G37*
G36*
X106730903Y-89976761D02*
X108795654Y-87912010D01*
X109318913Y-88435269D01*
X107254162Y-90500020D01*
X106730903Y-89976761D01*
X106730903Y-89976761D01*
G37*
G36*
X109156280Y-87551384D02*
X111221031Y-85486633D01*
X111744290Y-86009892D01*
X109679539Y-88074643D01*
X109156280Y-87551384D01*
X109156280Y-87551384D01*
G37*
G36*
X107628929Y-90874786D02*
X109693680Y-88810035D01*
X110216939Y-89333294D01*
X108152188Y-91398045D01*
X107628929Y-90874786D01*
X107628929Y-90874786D01*
G37*
G36*
X110054305Y-88449410D02*
X112119056Y-86384659D01*
X112642315Y-86907918D01*
X110577564Y-88972669D01*
X110054305Y-88449410D01*
X110054305Y-88449410D01*
G37*
G36*
X108526955Y-91772812D02*
X110591706Y-89708061D01*
X111114965Y-90231320D01*
X109050214Y-92296071D01*
X108526955Y-91772812D01*
X108526955Y-91772812D01*
G37*
G36*
X110952331Y-89347436D02*
X113017082Y-87282685D01*
X113540341Y-87805944D01*
X111475590Y-89870695D01*
X110952331Y-89347436D01*
X110952331Y-89347436D01*
G37*
G36*
X109424980Y-92670838D02*
X111489731Y-90606087D01*
X112012990Y-91129346D01*
X109948239Y-93194097D01*
X109424980Y-92670838D01*
X109424980Y-92670838D01*
G37*
G36*
X111850357Y-90245461D02*
X113915108Y-88180710D01*
X114438367Y-88703969D01*
X112373616Y-90768720D01*
X111850357Y-90245461D01*
X111850357Y-90245461D01*
G37*
G36*
X110323006Y-93568863D02*
X112387757Y-91504112D01*
X112911016Y-92027371D01*
X110846265Y-94092122D01*
X110323006Y-93568863D01*
X110323006Y-93568863D01*
G37*
G36*
X112748382Y-91143487D02*
X114813133Y-89078736D01*
X115336392Y-89601995D01*
X113271641Y-91666746D01*
X112748382Y-91143487D01*
X112748382Y-91143487D01*
G37*
G36*
X111221032Y-94466889D02*
X113285783Y-92402138D01*
X113809042Y-92925397D01*
X111744291Y-94990148D01*
X111221032Y-94466889D01*
X111221032Y-94466889D01*
G37*
G36*
X113646408Y-92041513D02*
X115711159Y-89976762D01*
X116234418Y-90500021D01*
X114169667Y-92564772D01*
X113646408Y-92041513D01*
X113646408Y-92041513D01*
G37*
G36*
X112119057Y-95364914D02*
X114183808Y-93300163D01*
X114707067Y-93823422D01*
X112642316Y-95888173D01*
X112119057Y-95364914D01*
X112119057Y-95364914D01*
G37*
G36*
X114544433Y-92939538D02*
X116609184Y-90874787D01*
X117132443Y-91398046D01*
X115067692Y-93462797D01*
X114544433Y-92939538D01*
X114544433Y-92939538D01*
G37*
G36*
X82823623Y-108495888D02*
X84888374Y-106431137D01*
X85411633Y-106954396D01*
X83346882Y-109019147D01*
X82823623Y-108495888D01*
X82823623Y-108495888D01*
G37*
G36*
X85248999Y-106070512D02*
X87313750Y-104005761D01*
X87837009Y-104529020D01*
X85772258Y-106593771D01*
X85248999Y-106070512D01*
X85248999Y-106070512D01*
G37*
G36*
X83721648Y-109393913D02*
X85786399Y-107329162D01*
X86309658Y-107852421D01*
X84244907Y-109917172D01*
X83721648Y-109393913D01*
X83721648Y-109393913D01*
G37*
G36*
X86147024Y-106968537D02*
X88211775Y-104903786D01*
X88735034Y-105427045D01*
X86670283Y-107491796D01*
X86147024Y-106968537D01*
X86147024Y-106968537D01*
G37*
G36*
X84619674Y-110291939D02*
X86684425Y-108227188D01*
X87207684Y-108750447D01*
X85142933Y-110815198D01*
X84619674Y-110291939D01*
X84619674Y-110291939D01*
G37*
G36*
X87045050Y-107866563D02*
X89109801Y-105801812D01*
X89633060Y-106325071D01*
X87568309Y-108389822D01*
X87045050Y-107866563D01*
X87045050Y-107866563D01*
G37*
G36*
X85517699Y-111189965D02*
X87582450Y-109125214D01*
X88105709Y-109648473D01*
X86040958Y-111713224D01*
X85517699Y-111189965D01*
X85517699Y-111189965D01*
G37*
G36*
X87943076Y-108764588D02*
X90007827Y-106699837D01*
X90531086Y-107223096D01*
X88466335Y-109287847D01*
X87943076Y-108764588D01*
X87943076Y-108764588D01*
G37*
G36*
X86415725Y-112087990D02*
X88480476Y-110023239D01*
X89003735Y-110546498D01*
X86938984Y-112611249D01*
X86415725Y-112087990D01*
X86415725Y-112087990D01*
G37*
G36*
X88841101Y-109662614D02*
X90905852Y-107597863D01*
X91429111Y-108121122D01*
X89364360Y-110185873D01*
X88841101Y-109662614D01*
X88841101Y-109662614D01*
G37*
G36*
X87313751Y-112986016D02*
X89378502Y-110921265D01*
X89901761Y-111444524D01*
X87837010Y-113509275D01*
X87313751Y-112986016D01*
X87313751Y-112986016D01*
G37*
G36*
X89739127Y-110560640D02*
X91803878Y-108495889D01*
X92327137Y-109019148D01*
X90262386Y-111083899D01*
X89739127Y-110560640D01*
X89739127Y-110560640D01*
G37*
G36*
X88211776Y-113884042D02*
X90276527Y-111819291D01*
X90799786Y-112342550D01*
X88735035Y-114407301D01*
X88211776Y-113884042D01*
X88211776Y-113884042D01*
G37*
G36*
X90637153Y-111458665D02*
X92701904Y-109393914D01*
X93225163Y-109917173D01*
X91160412Y-111981924D01*
X90637153Y-111458665D01*
X90637153Y-111458665D01*
G37*
G36*
X89109802Y-114782067D02*
X91174553Y-112717316D01*
X91697812Y-113240575D01*
X89633061Y-115305326D01*
X89109802Y-114782067D01*
X89109802Y-114782067D01*
G37*
G36*
X91535178Y-112356691D02*
X93599929Y-110291940D01*
X94123188Y-110815199D01*
X92058437Y-112879950D01*
X91535178Y-112356691D01*
X91535178Y-112356691D01*
G37*
G36*
X90007828Y-115680093D02*
X92072579Y-113615342D01*
X92595838Y-114138601D01*
X90531087Y-116203352D01*
X90007828Y-115680093D01*
X90007828Y-115680093D01*
G37*
G36*
X92433204Y-113254717D02*
X94497955Y-111189966D01*
X95021214Y-111713225D01*
X92956463Y-113777976D01*
X92433204Y-113254717D01*
X92433204Y-113254717D01*
G37*
G36*
X90905853Y-116578118D02*
X92970604Y-114513367D01*
X93493863Y-115036626D01*
X91429112Y-117101377D01*
X90905853Y-116578118D01*
X90905853Y-116578118D01*
G37*
G36*
X93331229Y-114152742D02*
X95395980Y-112087991D01*
X95919239Y-112611250D01*
X93854488Y-114676001D01*
X93331229Y-114152742D01*
X93331229Y-114152742D01*
G37*
D23*
X95486974Y-80779532D03*
X95486974Y-80129532D03*
X95486974Y-79479532D03*
X95486974Y-78829532D03*
X91086974Y-78829532D03*
X91086974Y-79479532D03*
X91086974Y-80129532D03*
X91086974Y-80779532D03*
D24*
X96400000Y-104200000D03*
X95750000Y-104200000D03*
X95100000Y-104200000D03*
X94450000Y-104200000D03*
X94450000Y-107300000D03*
X95100000Y-107300000D03*
X95750000Y-107300000D03*
X96400000Y-107300000D03*
D25*
X96025000Y-105750000D03*
X94825000Y-105750000D03*
X96025000Y-105750000D03*
X94825000Y-105750000D03*
D26*
X95425000Y-105750000D03*
D27*
X84050000Y-95700000D03*
X84550000Y-95700000D03*
X85050000Y-95700000D03*
X85550000Y-95700000D03*
X86050000Y-95700000D03*
X86550000Y-95700000D03*
X87050000Y-95700000D03*
X87550000Y-95700000D03*
X88050000Y-95700000D03*
X88550000Y-95700000D03*
X89050000Y-95700000D03*
X89550000Y-95700000D03*
X90050000Y-95700000D03*
X90550000Y-95700000D03*
X91050000Y-95700000D03*
X91550000Y-95700000D03*
D28*
X93500000Y-93750000D03*
X93500000Y-93250000D03*
X93500000Y-92750000D03*
X93500000Y-92250000D03*
X93500000Y-91750000D03*
X93500000Y-91250000D03*
X93500000Y-90750000D03*
X93500000Y-90250000D03*
X93500000Y-89750000D03*
X93500000Y-89250000D03*
X93500000Y-88750000D03*
X93500000Y-88250000D03*
X93500000Y-87750000D03*
X93500000Y-87250000D03*
X93500000Y-86750000D03*
X93500000Y-86250000D03*
D27*
X91550000Y-84300000D03*
X91050000Y-84300000D03*
X90550000Y-84300000D03*
X90050000Y-84300000D03*
X89550000Y-84300000D03*
X89050000Y-84300000D03*
X88550000Y-84300000D03*
X88050000Y-84300000D03*
X87550000Y-84300000D03*
X87050000Y-84300000D03*
X86550000Y-84300000D03*
X86050000Y-84300000D03*
X85550000Y-84300000D03*
X85050000Y-84300000D03*
X84550000Y-84300000D03*
X84050000Y-84300000D03*
D28*
X82100000Y-86250000D03*
X82100000Y-86750000D03*
X82100000Y-87250000D03*
X82100000Y-87750000D03*
X82100000Y-88250000D03*
X82100000Y-88750000D03*
X82100000Y-89250000D03*
X82100000Y-89750000D03*
X82100000Y-90250000D03*
X82100000Y-90750000D03*
X82100000Y-91250000D03*
X82100000Y-91750000D03*
X82100000Y-92250000D03*
X82100000Y-92750000D03*
X82100000Y-93250000D03*
X82100000Y-93750000D03*
D11*
X111100000Y-124200000D03*
X111100000Y-122600000D03*
D29*
X92500000Y-75900000D03*
X90900000Y-75900000D03*
X94100000Y-75900000D03*
X95700000Y-75900000D03*
D11*
X109500000Y-124200000D03*
X109500000Y-122600000D03*
X124200000Y-105400000D03*
X124200000Y-103800000D03*
X105500000Y-75900000D03*
X105500000Y-77500000D03*
X103400000Y-75900000D03*
X103400000Y-77500000D03*
X101300000Y-75900000D03*
X101300000Y-77500000D03*
X99200000Y-75900000D03*
X99200000Y-77500000D03*
X107900000Y-124200000D03*
X107900000Y-122600000D03*
X106300000Y-124200000D03*
X106300000Y-122600000D03*
X104700000Y-124200000D03*
X104700000Y-122600000D03*
D29*
X123500000Y-89100000D03*
X121900000Y-89100000D03*
X77000000Y-105800000D03*
X78600000Y-105800000D03*
D11*
X97286974Y-80404532D03*
X97286974Y-78804532D03*
D12*
X93750000Y-77300000D03*
X92850000Y-77300000D03*
X95150000Y-102700000D03*
X95150000Y-101800000D03*
X95450000Y-87400000D03*
X96350000Y-87400000D03*
X83550000Y-81400000D03*
X82650000Y-81400000D03*
X90200000Y-98550000D03*
X90200000Y-97650000D03*
X82650000Y-82600000D03*
X83550000Y-82600000D03*
X96350000Y-93000000D03*
X95450000Y-93000000D03*
X91400000Y-98550000D03*
X91400000Y-97650000D03*
X80500000Y-93650000D03*
X80500000Y-94550000D03*
X96350000Y-86200000D03*
X95450000Y-86200000D03*
X96350000Y-85000000D03*
X95450000Y-85000000D03*
X84650000Y-101400000D03*
X83750000Y-101400000D03*
X82400000Y-99750000D03*
X82400000Y-98850000D03*
D30*
X82900000Y-80450000D03*
X80650000Y-80600000D03*
X89900000Y-78200000D03*
X97500000Y-105700000D03*
X95100000Y-100800000D03*
X78300000Y-90800000D03*
X79600000Y-91500000D03*
X79600000Y-93600000D03*
X123100000Y-104800000D03*
X97300000Y-77700000D03*
X121900000Y-90250000D03*
X81700000Y-81400000D03*
X97400000Y-89800000D03*
X97400000Y-93050000D03*
X92400000Y-98550000D03*
X79750000Y-105800000D03*
X116600000Y-92950000D03*
X114200000Y-95350000D03*
X107050000Y-83400000D03*
X104600000Y-85800000D03*
X96400000Y-84000000D03*
X85823803Y-97928337D03*
X82500000Y-101400000D03*
X95300000Y-114100000D03*
X92900000Y-116500000D03*
X85800000Y-104600000D03*
X83400000Y-107000000D03*
X77400000Y-82900000D03*
X88900000Y-82150000D03*
X94000000Y-102700000D03*
X97100000Y-108800000D03*
X93300000Y-109300000D03*
X80950000Y-106350000D03*
X93100000Y-80150000D03*
X99000000Y-81000000D03*
X102900000Y-87950000D03*
X112950000Y-97100000D03*
X88800000Y-104800000D03*
X89700000Y-105700000D03*
X91800000Y-105500000D03*
X91800000Y-103900000D03*
X91450000Y-93250000D03*
X93400000Y-94650000D03*
X90700000Y-94050000D03*
X94200000Y-95550000D03*
X94200000Y-110200000D03*
X95100000Y-111100000D03*
X83600000Y-110000000D03*
X84500000Y-110900000D03*
X85400000Y-111800000D03*
X86300000Y-112700000D03*
X87200000Y-113600000D03*
X92400000Y-108400000D03*
X88100000Y-114500000D03*
X89000000Y-115400000D03*
X89900000Y-116300000D03*
X110050000Y-83600000D03*
X104850000Y-88800000D03*
X110950000Y-84450000D03*
X105750000Y-89700000D03*
X106650000Y-90600000D03*
X111850000Y-85250000D03*
X107550000Y-91500000D03*
X112750000Y-86250000D03*
X108450000Y-92400000D03*
X113650000Y-87150000D03*
X109350000Y-93300000D03*
X114550000Y-88050000D03*
X110200000Y-94150000D03*
X115450000Y-88950000D03*
X111150000Y-104800000D03*
X116350000Y-89850000D03*
X111150000Y-95100000D03*
D31*
X81830000Y-80600000D02*
X81700000Y-80730000D01*
X81700000Y-80730000D02*
X81700000Y-81400000D01*
X82300000Y-80130000D02*
X82580000Y-80130000D01*
X82580000Y-80130000D02*
X82900000Y-80450000D01*
X82300000Y-79175000D02*
X82300000Y-80130000D01*
X82300000Y-80130000D02*
X81830000Y-80600000D01*
X81830000Y-80600000D02*
X80650000Y-80600000D01*
X91800000Y-76625000D02*
X91800000Y-77542002D01*
X91800000Y-77542002D02*
X91142002Y-78200000D01*
X91142002Y-78200000D02*
X90465685Y-78200000D01*
X90465685Y-78200000D02*
X89900000Y-78200000D01*
X89286974Y-78804532D02*
X89295468Y-78804532D01*
X89295468Y-78804532D02*
X89900000Y-78200000D01*
X92500000Y-75900000D02*
X92500000Y-75925000D01*
X92500000Y-75925000D02*
X91800000Y-76625000D01*
X89286974Y-78804532D02*
X89345468Y-78804532D01*
X104700000Y-124200000D02*
X103010000Y-124200000D01*
X103010000Y-124200000D02*
X102310000Y-123500000D01*
X106300000Y-124200000D02*
X104700000Y-124200000D01*
X107900000Y-124200000D02*
X106300000Y-124200000D01*
X107900000Y-124200000D02*
X109500000Y-124200000D01*
X111100000Y-124200000D02*
X109500000Y-124200000D01*
X95425000Y-105750000D02*
X96600000Y-105750000D01*
X96600000Y-105750000D02*
X97450000Y-105750000D01*
X96400000Y-105950000D02*
X96600000Y-105750000D01*
X96400000Y-107300000D02*
X96400000Y-105950000D01*
X97450000Y-105750000D02*
X97500000Y-105700000D01*
X95750000Y-104200000D02*
X95750000Y-105425000D01*
X95750000Y-105425000D02*
X95425000Y-105750000D01*
X95150000Y-101800000D02*
X95150000Y-100850000D01*
X95150000Y-100850000D02*
X95100000Y-100800000D01*
X77660000Y-88770000D02*
X78300000Y-89410000D01*
X78300000Y-89410000D02*
X78300000Y-90800000D01*
X82100000Y-91750000D02*
X79850000Y-91750000D01*
X79850000Y-91750000D02*
X79600000Y-91500000D01*
X80500000Y-93650000D02*
X79650000Y-93650000D01*
X79650000Y-93650000D02*
X79600000Y-93600000D01*
X82100000Y-93250000D02*
X80900000Y-93250000D01*
X80900000Y-93250000D02*
X80500000Y-93650000D01*
X124200000Y-105400000D02*
X123700000Y-105400000D01*
X123700000Y-105400000D02*
X123100000Y-104800000D01*
X97286974Y-78804532D02*
X97286974Y-77713026D01*
X97286974Y-77713026D02*
X97300000Y-77700000D01*
D32*
X121900000Y-89100000D02*
X121900000Y-90250000D01*
D31*
X82650000Y-81400000D02*
X81700000Y-81400000D01*
X82650000Y-82600000D02*
X82650000Y-81400000D01*
D32*
X96350000Y-89800000D02*
X97400000Y-89800000D01*
X96350000Y-93000000D02*
X97350000Y-93000000D01*
X97350000Y-93000000D02*
X97400000Y-93050000D01*
X91400000Y-98550000D02*
X92400000Y-98550000D01*
X78600000Y-105800000D02*
X79750000Y-105800000D01*
X115838438Y-92168792D02*
X115838438Y-92188438D01*
X115838438Y-92188438D02*
X116600000Y-92950000D01*
X113413062Y-94594168D02*
X113444168Y-94594168D01*
X113444168Y-94594168D02*
X114200000Y-95350000D01*
X107756208Y-84086562D02*
X107736562Y-84086562D01*
X107736562Y-84086562D02*
X107050000Y-83400000D01*
X105330832Y-86511938D02*
X105311938Y-86511938D01*
X105311938Y-86511938D02*
X104600000Y-85800000D01*
D31*
X105500000Y-75900000D02*
X107610000Y-75900000D01*
X107610000Y-75900000D02*
X108190000Y-76480000D01*
X99200000Y-75900000D02*
X101300000Y-75900000D01*
X103400000Y-75900000D02*
X101300000Y-75900000D01*
X105500000Y-75900000D02*
X103400000Y-75900000D01*
D33*
X92500000Y-75900000D02*
X93300000Y-75900000D01*
X93300000Y-75900000D02*
X94100000Y-75900000D01*
X95486974Y-78829532D02*
X97261974Y-78829532D01*
X97261974Y-78829532D02*
X97286974Y-78804532D01*
D31*
X96350000Y-85000000D02*
X96350000Y-84050000D01*
X96350000Y-84050000D02*
X96400000Y-84000000D01*
X96350000Y-86200000D02*
X96350000Y-85000000D01*
X96350000Y-86200000D02*
X96350000Y-87400000D01*
X93500000Y-93250000D02*
X94530000Y-93250000D01*
X94530000Y-93250000D02*
X94980000Y-93700000D01*
X94980000Y-93700000D02*
X96240000Y-93700000D01*
X96240000Y-93700000D02*
X96350000Y-93590000D01*
X96350000Y-93590000D02*
X96350000Y-93000000D01*
X89550000Y-95700000D02*
X89550000Y-98490000D01*
X89550000Y-98490000D02*
X89610000Y-98550000D01*
X89610000Y-98550000D02*
X90200000Y-98550000D01*
X91400000Y-98550000D02*
X90200000Y-98550000D01*
X84875000Y-98575000D02*
X85177140Y-98575000D01*
X85177140Y-98575000D02*
X85823803Y-97928337D01*
X82400000Y-99750000D02*
X82400000Y-101300000D01*
X82400000Y-101300000D02*
X82500000Y-101400000D01*
X83750000Y-101400000D02*
X82500000Y-101400000D01*
X82400000Y-99750000D02*
X83450000Y-99750000D01*
X83450000Y-99750000D02*
X83725000Y-100025000D01*
X83750000Y-101400000D02*
X83750000Y-100050000D01*
X83750000Y-100050000D02*
X83725000Y-100025000D01*
D32*
X94625234Y-113381996D02*
X94625234Y-113425234D01*
X94625234Y-113425234D02*
X95300000Y-114100000D01*
X92199858Y-115807372D02*
X92207372Y-115807372D01*
X92207372Y-115807372D02*
X92900000Y-116500000D01*
X86543004Y-105299766D02*
X86499766Y-105299766D01*
X86499766Y-105299766D02*
X85800000Y-104600000D01*
X84117628Y-107725142D02*
X84117628Y-107717628D01*
X84117628Y-107717628D02*
X83400000Y-107000000D01*
X107756208Y-84086562D02*
X105330832Y-86511938D01*
X113413062Y-94594168D02*
X115838438Y-92168792D01*
X94625234Y-113381996D02*
X92199858Y-115807372D01*
X86543004Y-105299766D02*
X84117628Y-107725142D01*
D31*
X86050000Y-95700000D02*
X86050000Y-96730000D01*
X86050000Y-96730000D02*
X85380000Y-97400000D01*
X85380000Y-97400000D02*
X84145000Y-97400000D01*
X84145000Y-97400000D02*
X83725000Y-97820000D01*
X83725000Y-97820000D02*
X83725000Y-98575000D01*
X82400000Y-98850000D02*
X83450000Y-98850000D01*
X83450000Y-98850000D02*
X83725000Y-98575000D01*
X84650000Y-101400000D02*
X84650000Y-100250000D01*
X84650000Y-100250000D02*
X84875000Y-100025000D01*
X86200000Y-99750000D02*
X85150000Y-99750000D01*
X85150000Y-99750000D02*
X84875000Y-100025000D01*
X81800000Y-97000000D02*
X81150000Y-96350000D01*
X81150000Y-96350000D02*
X80500000Y-95700000D01*
X89630000Y-94250000D02*
X83250000Y-94250000D01*
X83250000Y-94250000D02*
X81150000Y-96350000D01*
X90050000Y-95700000D02*
X90050000Y-94670000D01*
X90050000Y-94670000D02*
X89630000Y-94250000D01*
X77400000Y-82900000D02*
X77400000Y-83500000D01*
X77400000Y-83500000D02*
X77500000Y-83600000D01*
X83550000Y-83200000D02*
X83150000Y-83600000D01*
X83150000Y-83600000D02*
X77500000Y-83600000D01*
X77500000Y-83600000D02*
X76550000Y-84550000D01*
X76550000Y-84550000D02*
X76550000Y-85850000D01*
X76550000Y-85850000D02*
X76930000Y-86230000D01*
X76930000Y-86230000D02*
X77660000Y-86230000D01*
X92400000Y-97650000D02*
X92850000Y-97650000D01*
X91400000Y-97650000D02*
X92400000Y-97650000D01*
X92400000Y-97650000D02*
X92400000Y-92750000D01*
X92850000Y-97650000D02*
X93400000Y-98200000D01*
X91900000Y-92250000D02*
X92400000Y-92750000D01*
X92400000Y-92750000D02*
X93500000Y-92750000D01*
X91900000Y-86927998D02*
X91900000Y-92250000D01*
D34*
X88900000Y-82150000D02*
X96816506Y-82150000D01*
X96816506Y-82150000D02*
X97286974Y-81679532D01*
X76480000Y-108130000D02*
X76480000Y-106700000D01*
X76480000Y-106700000D02*
X76480000Y-106320000D01*
D31*
X84050000Y-96730000D02*
X83780000Y-97000000D01*
X84050000Y-95700000D02*
X84050000Y-96730000D01*
X83780000Y-97000000D02*
X81800000Y-97000000D01*
X80500000Y-95700000D02*
X80500000Y-94550000D01*
D34*
X97286974Y-80404532D02*
X97286974Y-81679532D01*
X97286974Y-81679532D02*
X96566506Y-82400000D01*
D31*
X91800000Y-101200000D02*
X91800000Y-102921202D01*
X91800000Y-102921202D02*
X93257596Y-104378798D01*
X93257596Y-104378798D02*
X93300000Y-104378798D01*
X93400000Y-99600000D02*
X91800000Y-101200000D01*
X93400000Y-98200000D02*
X93400000Y-99600000D01*
X93300000Y-106605000D02*
X93300000Y-104378798D01*
X94450000Y-107300000D02*
X93995000Y-107300000D01*
X93995000Y-107300000D02*
X93300000Y-106605000D01*
X82100000Y-93750000D02*
X81350000Y-93750000D01*
X81350000Y-93750000D02*
X81200000Y-93900000D01*
X81200000Y-93900000D02*
X81200000Y-94440000D01*
X81200000Y-94440000D02*
X81090000Y-94550000D01*
X81090000Y-94550000D02*
X80500000Y-94550000D01*
X93500000Y-86250000D02*
X92577998Y-86250000D01*
X92577998Y-86250000D02*
X91900000Y-86927998D01*
X84050000Y-84300000D02*
X84050000Y-83250000D01*
X84050000Y-83250000D02*
X84050000Y-83100000D01*
X84000000Y-83200000D02*
X84050000Y-83250000D01*
X83550000Y-83200000D02*
X84000000Y-83200000D01*
X83550000Y-83200000D02*
X83850000Y-82900000D01*
X83550000Y-82600000D02*
X83550000Y-83200000D01*
X84050000Y-83100000D02*
X83850000Y-82900000D01*
X83850000Y-82900000D02*
X83550000Y-82600000D01*
X95450000Y-83350000D02*
X96450000Y-82350000D01*
X97350000Y-88190000D02*
X97350000Y-83250000D01*
X96450000Y-82350000D02*
X97286974Y-81513026D01*
X97350000Y-83250000D02*
X96450000Y-82350000D01*
X96350000Y-88600000D02*
X96940000Y-88600000D01*
X96940000Y-88600000D02*
X97350000Y-88190000D01*
D33*
X93750000Y-77300000D02*
X94200000Y-77300000D01*
X94200000Y-77300000D02*
X94950000Y-77300000D01*
X94200000Y-79317558D02*
X94200000Y-77300000D01*
X95486974Y-79479532D02*
X94361974Y-79479532D01*
X94361974Y-79479532D02*
X94200000Y-79317558D01*
X95486974Y-79479532D02*
X96361974Y-79479532D01*
X96361974Y-79479532D02*
X97286974Y-80404532D01*
X95486974Y-80129532D02*
X97011974Y-80129532D01*
X97011974Y-80129532D02*
X97286974Y-80404532D01*
X95486974Y-80779532D02*
X96911974Y-80779532D01*
X96911974Y-80779532D02*
X97286974Y-80404532D01*
D31*
X97286974Y-81513026D02*
X97286974Y-80404532D01*
X95450000Y-85000000D02*
X95450000Y-83350000D01*
X95450000Y-85000000D02*
X95450000Y-86200000D01*
X93500000Y-86250000D02*
X95400000Y-86250000D01*
X95400000Y-86250000D02*
X95450000Y-86200000D01*
X93500000Y-92750000D02*
X95200000Y-92750000D01*
X95200000Y-92750000D02*
X95450000Y-93000000D01*
X90050000Y-95700000D02*
X90050000Y-97500000D01*
X90050000Y-97500000D02*
X90200000Y-97650000D01*
X91400000Y-97650000D02*
X90200000Y-97650000D01*
D34*
X76480000Y-106320000D02*
X77000000Y-105800000D01*
D31*
X84550000Y-84300000D02*
X84550000Y-81810000D01*
X84550000Y-81810000D02*
X84140000Y-81400000D01*
X84140000Y-81400000D02*
X83550000Y-81400000D01*
X93500000Y-86750000D02*
X94800000Y-86750000D01*
X94800000Y-86750000D02*
X95450000Y-87400000D01*
X94000000Y-102700000D02*
X95150000Y-102700000D01*
D32*
X97700000Y-109400000D02*
X97100000Y-108800000D01*
X97700000Y-116070000D02*
X97700000Y-109400000D01*
X90270000Y-123500000D02*
X97700000Y-116070000D01*
D31*
X95100000Y-104200000D02*
X95100000Y-102750000D01*
X95100000Y-102750000D02*
X95150000Y-102700000D01*
D32*
X91931158Y-110687919D02*
X91931158Y-110668842D01*
X91931158Y-110668842D02*
X93300000Y-109300000D01*
X80950000Y-106350000D02*
X80950000Y-105450000D01*
X75650000Y-82750000D02*
X80450000Y-77950000D01*
X80950000Y-105450000D02*
X79800000Y-104300000D01*
X75950000Y-104300000D02*
X75650000Y-104000000D01*
X79800000Y-104300000D02*
X75950000Y-104300000D01*
X80450000Y-77950000D02*
X84700000Y-77950000D01*
X75650000Y-104000000D02*
X75650000Y-82750000D01*
D33*
X91086974Y-80779532D02*
X91586974Y-80779532D01*
X91586974Y-80779532D02*
X92236974Y-80129532D01*
X91086974Y-80129532D02*
X92236974Y-80129532D01*
X92236974Y-80129532D02*
X92257442Y-80150000D01*
X91086974Y-79479532D02*
X91586974Y-79479532D01*
X91586974Y-79479532D02*
X92257442Y-80150000D01*
X92257442Y-80150000D02*
X92350000Y-80150000D01*
D35*
X93100000Y-80150000D02*
X92350000Y-80150000D01*
X99000000Y-84050000D02*
X99000000Y-81000000D01*
X102900000Y-87950000D02*
X99000000Y-84050000D01*
X117350000Y-97400000D02*
X113250000Y-97400000D01*
X113250000Y-97400000D02*
X112950000Y-97100000D01*
X123500000Y-91250000D02*
X117350000Y-97400000D01*
X123500000Y-89100000D02*
X123500000Y-91250000D01*
D33*
X84900000Y-79175000D02*
X84900000Y-78100000D01*
X84900000Y-78100000D02*
X84750000Y-77950000D01*
X84750000Y-77950000D02*
X84700000Y-77950000D01*
D32*
X84700000Y-77950000D02*
X84900000Y-78150000D01*
X88150000Y-78150000D02*
X89000000Y-77300000D01*
X89000000Y-77300000D02*
X90000000Y-77300000D01*
D34*
X88150000Y-80404532D02*
X88150000Y-78150000D01*
X89286974Y-80404532D02*
X88150000Y-80404532D01*
X88150000Y-80404532D02*
X86795468Y-80404532D01*
D31*
X86350000Y-80850000D02*
X85952095Y-80850000D01*
X85952095Y-80850000D02*
X85900000Y-80902095D01*
D34*
X86795468Y-80404532D02*
X86350000Y-80850000D01*
D35*
X123520000Y-86830000D02*
X123520000Y-89080000D01*
X123520000Y-89080000D02*
X123500000Y-89100000D01*
D33*
X84900000Y-79902095D02*
X85900000Y-80902095D01*
X85900000Y-80902095D02*
X86797905Y-81800000D01*
X84900000Y-79175000D02*
X84900000Y-79902095D01*
X86797905Y-81800000D02*
X87050000Y-81800000D01*
X91086974Y-79479532D02*
X90211974Y-79479532D01*
X90211974Y-79479532D02*
X89286974Y-80404532D01*
X91086974Y-80129532D02*
X89561974Y-80129532D01*
X89561974Y-80129532D02*
X89286974Y-80404532D01*
X91086974Y-80779532D02*
X89661974Y-80779532D01*
X89661974Y-80779532D02*
X89286974Y-80404532D01*
X92060000Y-78800000D02*
X91116506Y-78800000D01*
X91116506Y-78800000D02*
X91086974Y-78829532D01*
X92850000Y-77300000D02*
X92850000Y-78010000D01*
X92850000Y-78010000D02*
X92060000Y-78800000D01*
D31*
X104700000Y-122600000D02*
X103900000Y-121800000D01*
X103900000Y-121800000D02*
X103900000Y-118400000D01*
X103900000Y-118400000D02*
X106200000Y-116100000D01*
X106200000Y-116100000D02*
X106200000Y-115450000D01*
X105500000Y-121800000D02*
X105500000Y-117940000D01*
X105500000Y-117940000D02*
X107400000Y-116040000D01*
X106300000Y-122600000D02*
X105500000Y-121800000D01*
X107400000Y-116040000D02*
X107400000Y-115450000D01*
X107900000Y-122600000D02*
X107100000Y-121800000D01*
X107100000Y-121800000D02*
X107100000Y-117800000D01*
X108600000Y-116300000D02*
X108600000Y-115450000D01*
X107100000Y-117800000D02*
X108600000Y-116300000D01*
D36*
X100550000Y-80700000D02*
X100550000Y-78825000D01*
X100550000Y-78825000D02*
X99225000Y-77500000D01*
X99225000Y-77500000D02*
X99200000Y-77500000D01*
X101750000Y-80700000D02*
X101750000Y-77950000D01*
X101750000Y-77950000D02*
X101300000Y-77500000D01*
D31*
X101750000Y-80650000D02*
X101750000Y-80700000D01*
D36*
X102950000Y-80700000D02*
X102950000Y-77950000D01*
X102950000Y-77950000D02*
X103400000Y-77500000D01*
X104150000Y-80700000D02*
X104150000Y-78825000D01*
X104150000Y-78825000D02*
X105475000Y-77500000D01*
X105475000Y-77500000D02*
X105500000Y-77500000D01*
D31*
X124350000Y-102400000D02*
X124350000Y-103650000D01*
X124350000Y-103650000D02*
X124200000Y-103800000D01*
X108700000Y-117500000D02*
X109800000Y-116400000D01*
X109800000Y-116400000D02*
X109800000Y-116200000D01*
X108700000Y-121825000D02*
X108700000Y-117500000D01*
X109800000Y-116200000D02*
X109800000Y-115450000D01*
X109500000Y-122600000D02*
X109475000Y-122600000D01*
X109475000Y-122600000D02*
X108700000Y-121825000D01*
D33*
X95850000Y-77300000D02*
X95850000Y-76050000D01*
X95850000Y-76050000D02*
X95700000Y-75900000D01*
D31*
X90900000Y-75900000D02*
X90900000Y-77300000D01*
X110300000Y-117100000D02*
X111000000Y-116400000D01*
X111000000Y-116400000D02*
X111000000Y-115450000D01*
X110300000Y-121825000D02*
X110300000Y-117100000D01*
X111100000Y-122600000D02*
X111075000Y-122600000D01*
X111075000Y-122600000D02*
X110300000Y-121825000D01*
X86550000Y-95700000D02*
X86550000Y-98500000D01*
X86550000Y-98500000D02*
X86200000Y-98850000D01*
X87050000Y-95700000D02*
X87050000Y-100500000D01*
X87050000Y-100500000D02*
X85250000Y-102300000D01*
X85250000Y-102300000D02*
X78250000Y-102300000D01*
X78250000Y-102300000D02*
X77650000Y-101700000D01*
X77650000Y-101700000D02*
X77650000Y-92700000D01*
X77650000Y-92700000D02*
X76450000Y-91500000D01*
X76450000Y-91500000D02*
X76450000Y-88153507D01*
X76450000Y-88153507D02*
X77103507Y-87500000D01*
X77103507Y-87500000D02*
X77660000Y-87500000D01*
X98800000Y-105900000D02*
X106200000Y-113300000D01*
X106200000Y-113300000D02*
X106200000Y-114550000D01*
X98800000Y-93428798D02*
X98800000Y-105900000D01*
X93500000Y-92250000D02*
X97621202Y-92250000D01*
X97621202Y-92250000D02*
X98800000Y-93428798D01*
X99230010Y-93250683D02*
X99230010Y-105721886D01*
X107400000Y-113960000D02*
X107400000Y-114550000D01*
X99230010Y-105721886D02*
X107400000Y-113891876D01*
X107400000Y-113891876D02*
X107400000Y-113960000D01*
X93500000Y-91750000D02*
X97729327Y-91750000D01*
X97729327Y-91750000D02*
X99230010Y-93250683D01*
X108000000Y-113883752D02*
X108523752Y-113883752D01*
X108523752Y-113883752D02*
X108600000Y-113960000D01*
X108600000Y-113960000D02*
X108600000Y-114550000D01*
X99660020Y-105543772D02*
X108000000Y-113883752D01*
X99660020Y-93072568D02*
X99660020Y-105543772D01*
X93500000Y-91250000D02*
X97837452Y-91250000D01*
X97837452Y-91250000D02*
X99660020Y-93072568D01*
X95450000Y-88600000D02*
X95450000Y-89200000D01*
X95450000Y-89200000D02*
X95450000Y-89800000D01*
X93500000Y-89250000D02*
X95400000Y-89250000D01*
X95400000Y-89250000D02*
X95450000Y-89200000D01*
X87050000Y-84300000D02*
X87050000Y-82700000D01*
X86050000Y-84300000D02*
X86050000Y-81941875D01*
X84250000Y-80130000D02*
X84250000Y-79175000D01*
X86050000Y-81941875D02*
X84250000Y-80141875D01*
X84250000Y-80141875D02*
X84250000Y-80130000D01*
X83600000Y-79175000D02*
X83600000Y-80130000D01*
X83600000Y-80130000D02*
X85550000Y-82080000D01*
X85550000Y-82080000D02*
X85550000Y-84300000D01*
X85030000Y-85350000D02*
X79810000Y-85350000D01*
X79810000Y-85350000D02*
X78930000Y-86230000D01*
X85050000Y-84300000D02*
X85050000Y-85330000D01*
X85050000Y-85330000D02*
X85030000Y-85350000D01*
X80180000Y-86250000D02*
X78930000Y-87500000D01*
X82100000Y-86250000D02*
X80180000Y-86250000D01*
X87550000Y-95700000D02*
X87550000Y-103550000D01*
X87550000Y-103550000D02*
X88800000Y-104800000D01*
D32*
X87441029Y-106197791D02*
X87441029Y-106158971D01*
X87441029Y-106158971D02*
X88800000Y-104800000D01*
D31*
X88050000Y-95700000D02*
X88050000Y-103028798D01*
X88050000Y-103028798D02*
X89700000Y-104678798D01*
X89700000Y-104678798D02*
X89700000Y-105134315D01*
X89700000Y-105134315D02*
X89700000Y-105700000D01*
D32*
X88339055Y-107095817D02*
X88339055Y-107060945D01*
X88339055Y-107060945D02*
X89700000Y-105700000D01*
D31*
X88550000Y-95700000D02*
X88550000Y-102250000D01*
X88550000Y-102250000D02*
X91800000Y-105500000D01*
X89237081Y-107993842D02*
X91730923Y-105500000D01*
X91730923Y-105500000D02*
X91800000Y-105500000D01*
X89050000Y-95700000D02*
X89050000Y-101150000D01*
X89050000Y-101150000D02*
X91800000Y-103900000D01*
X92700000Y-104800000D02*
X92700000Y-106326974D01*
X92700000Y-106326974D02*
X90135106Y-108891868D01*
X91800000Y-103900000D02*
X92700000Y-104800000D01*
X94450000Y-104200000D02*
X93995000Y-104200000D01*
X93995000Y-104200000D02*
X92550000Y-102755000D01*
X92550000Y-102755000D02*
X92550000Y-101400000D01*
X94100000Y-97900000D02*
X93400000Y-97200000D01*
X92550000Y-101400000D02*
X94100000Y-99850000D01*
X94100000Y-99850000D02*
X94100000Y-97900000D01*
X93400000Y-97200000D02*
X93400000Y-94650000D01*
X91450000Y-93250000D02*
X90450000Y-92250000D01*
X90450000Y-92250000D02*
X82100000Y-92250000D01*
X90700000Y-94050000D02*
X89400000Y-92750000D01*
X89400000Y-92750000D02*
X82100000Y-92750000D01*
X94750000Y-97600000D02*
X94200000Y-97050000D01*
X94200000Y-97050000D02*
X94200000Y-95550000D01*
X94750000Y-98350000D02*
X94750000Y-97600000D01*
X94750000Y-99428798D02*
X94750000Y-98350000D01*
X96400000Y-104200000D02*
X96400000Y-101078798D01*
X96400000Y-101078798D02*
X94750000Y-99428798D01*
D36*
X95371715Y-108271715D02*
X95100000Y-108000000D01*
X95100000Y-108000000D02*
X95100000Y-107300000D01*
X95081802Y-109581802D02*
X95371715Y-109291889D01*
X95371715Y-109291889D02*
X95371715Y-108271715D01*
X95100000Y-109563604D02*
X95081802Y-109581802D01*
D32*
X94200000Y-110200000D02*
X94463604Y-110200000D01*
X94463604Y-110200000D02*
X95081802Y-109581802D01*
X92829183Y-111585945D02*
X92829183Y-111570817D01*
X92829183Y-111570817D02*
X94200000Y-110200000D01*
D36*
X95750000Y-107300000D02*
X95750000Y-107825000D01*
X95750000Y-107825000D02*
X96008111Y-108083111D01*
X96008111Y-108083111D02*
X96008111Y-109928285D01*
X96008111Y-109928285D02*
X95718198Y-110218198D01*
D32*
X95100000Y-111100000D02*
X95100000Y-110836396D01*
X95100000Y-110836396D02*
X95718198Y-110218198D01*
X93727209Y-112483971D02*
X93727209Y-112472791D01*
X93727209Y-112472791D02*
X95100000Y-111100000D01*
D34*
X83600000Y-110000000D02*
X80890000Y-110000000D01*
X80890000Y-110000000D02*
X79020000Y-108130000D01*
D32*
X85015653Y-108623167D02*
X84976833Y-108623167D01*
X84976833Y-108623167D02*
X83600000Y-110000000D01*
D34*
X79020000Y-110670000D02*
X79969999Y-111619999D01*
X79969999Y-111619999D02*
X83780001Y-111619999D01*
X83780001Y-111619999D02*
X84100001Y-111299999D01*
X84100001Y-111299999D02*
X84500000Y-110900000D01*
D32*
X84500000Y-110900000D02*
X84534872Y-110900000D01*
X84534872Y-110900000D02*
X85913679Y-109521193D01*
D34*
X79020000Y-113210000D02*
X83990000Y-113210000D01*
X83990000Y-113210000D02*
X85400000Y-111800000D01*
D32*
X86811704Y-110419219D02*
X86780781Y-110419219D01*
X86780781Y-110419219D02*
X85400000Y-111800000D01*
D34*
X79020000Y-115750000D02*
X83250000Y-115750000D01*
X83250000Y-115750000D02*
X86300000Y-112700000D01*
D32*
X87709730Y-111317244D02*
X87682756Y-111317244D01*
X87682756Y-111317244D02*
X86300000Y-112700000D01*
D34*
X79020000Y-118290000D02*
X82510000Y-118290000D01*
X82510000Y-118290000D02*
X87200000Y-113600000D01*
D32*
X88607756Y-112215270D02*
X88584730Y-112215270D01*
X88584730Y-112215270D02*
X87200000Y-113600000D01*
X91033132Y-109789894D02*
X91033132Y-109766868D01*
X91033132Y-109766868D02*
X92400000Y-108400000D01*
D34*
X88100000Y-114500000D02*
X81770000Y-120830000D01*
X81770000Y-120830000D02*
X79020000Y-120830000D01*
D32*
X89505781Y-113113296D02*
X89486704Y-113113296D01*
X89486704Y-113113296D02*
X88100000Y-114500000D01*
D34*
X89000000Y-115400000D02*
X81030000Y-123370000D01*
X81030000Y-123370000D02*
X79020000Y-123370000D01*
D32*
X90403807Y-114011321D02*
X90388679Y-114011321D01*
X90388679Y-114011321D02*
X89000000Y-115400000D01*
X91301833Y-114909347D02*
X91290653Y-114909347D01*
X91290653Y-114909347D02*
X89900000Y-116300000D01*
D35*
X104850000Y-88800000D02*
X103600000Y-90050000D01*
X103600000Y-90050000D02*
X103600000Y-102180000D01*
X103600000Y-102180000D02*
X114000000Y-112580000D01*
X114000000Y-116500000D02*
X114000000Y-112580000D01*
X114000000Y-112580000D02*
X118880000Y-107700000D01*
X118880000Y-107700000D02*
X120830000Y-107700000D01*
D32*
X108654233Y-84984587D02*
X108665413Y-84984587D01*
X108665413Y-84984587D02*
X110050000Y-83600000D01*
X106228857Y-87409963D02*
X108654233Y-84984587D01*
X106228857Y-87409963D02*
X106228857Y-87421143D01*
X106228857Y-87421143D02*
X104850000Y-88800000D01*
D31*
X109800000Y-114550000D02*
X109800000Y-113960000D01*
X109800000Y-113960000D02*
X110160000Y-113600000D01*
X110160000Y-113600000D02*
X111500000Y-113600000D01*
X111500000Y-113600000D02*
X114000000Y-116100000D01*
X114000000Y-116100000D02*
X114000000Y-116500000D01*
D35*
X105750000Y-89700000D02*
X105350001Y-90099999D01*
X105350001Y-90099999D02*
X105350001Y-101550001D01*
X105350001Y-101550001D02*
X112800000Y-109000000D01*
X118800000Y-105100000D02*
X121300002Y-105100000D01*
X112800000Y-109000000D02*
X114900000Y-109000000D01*
X114900000Y-109000000D02*
X118800000Y-105100000D01*
D31*
X123450000Y-102400000D02*
X122860000Y-102400000D01*
X122860000Y-102400000D02*
X121300002Y-103959998D01*
X121300002Y-103959998D02*
X121300002Y-105100000D01*
D35*
X121300002Y-105100000D02*
X123370000Y-107169998D01*
X123370000Y-107169998D02*
X123370000Y-107700000D01*
D32*
X109552259Y-85882613D02*
X109552259Y-85847741D01*
X109552259Y-85847741D02*
X110950000Y-84450000D01*
X107126883Y-88307989D02*
X109552259Y-85882613D01*
X107126883Y-88307989D02*
X107126883Y-88323117D01*
X107126883Y-88323117D02*
X105750000Y-89700000D01*
X112900000Y-85174998D02*
X113017000Y-85174998D01*
X113017000Y-85174998D02*
X120980000Y-77211998D01*
X120980000Y-77211998D02*
X120980000Y-76670000D01*
D37*
X108024908Y-89206015D02*
X108868983Y-89206015D01*
X108868983Y-89206015D02*
X112900000Y-85174998D01*
X120980000Y-77094998D02*
X120980000Y-76670000D01*
D32*
X108024908Y-89206015D02*
X108024908Y-89225092D01*
X108024908Y-89225092D02*
X106650000Y-90600000D01*
D36*
X100550000Y-82110000D02*
X101740000Y-83300000D01*
X101740000Y-83300000D02*
X105100000Y-83300000D01*
X105100000Y-83300000D02*
X105857453Y-82542547D01*
X111092547Y-82542547D02*
X111850000Y-83300000D01*
X111850000Y-83300000D02*
X111850000Y-85250000D01*
X100550000Y-81600000D02*
X100550000Y-82110000D01*
X105849990Y-82550010D02*
X105857453Y-82542547D01*
X105857453Y-82542547D02*
X111092547Y-82542547D01*
D32*
X110450285Y-86780638D02*
X110450285Y-86649715D01*
X110450285Y-86649715D02*
X111850000Y-85250000D01*
X110450285Y-86780638D02*
X110450285Y-86749715D01*
X110450285Y-86780638D02*
X110469362Y-86780638D01*
X113850000Y-86050000D02*
X114140000Y-86050000D01*
X114140000Y-86050000D02*
X120980000Y-79210000D01*
D37*
X109795960Y-90104040D02*
X113850000Y-86050000D01*
X108922934Y-90104040D02*
X109795960Y-90104040D01*
D32*
X108922934Y-90104040D02*
X108922934Y-90127066D01*
X108922934Y-90127066D02*
X107550000Y-91500000D01*
D36*
X106374999Y-76774999D02*
X107280001Y-77680001D01*
X107280001Y-77680001D02*
X109390001Y-77680001D01*
X109390001Y-77680001D02*
X109780001Y-78070001D01*
X109780001Y-78070001D02*
X110730000Y-79020000D01*
X101750000Y-81600000D02*
X101920002Y-81600000D01*
X102310001Y-77164997D02*
X102699999Y-76774999D01*
X101920002Y-81600000D02*
X102310001Y-81210001D01*
X102310001Y-81210001D02*
X102310001Y-77164997D01*
X102699999Y-76774999D02*
X106374999Y-76774999D01*
D32*
X111348310Y-87678664D02*
X111348310Y-87651690D01*
X111348310Y-87651690D02*
X112750000Y-86250000D01*
X114700000Y-87000000D02*
X115730000Y-87000000D01*
X115730000Y-87000000D02*
X120980000Y-81750000D01*
D37*
X110697934Y-91002066D02*
X114700000Y-87000000D01*
X109820960Y-91002066D02*
X110697934Y-91002066D01*
D32*
X109820960Y-91002066D02*
X109820960Y-91029040D01*
X109820960Y-91029040D02*
X108450000Y-92400000D01*
D36*
X113270000Y-79020000D02*
X114540000Y-77750000D01*
X114750000Y-82100000D02*
X105250000Y-82100000D01*
X114540000Y-77750000D02*
X116550000Y-77750000D01*
X102950000Y-82110000D02*
X102950000Y-81600000D01*
X116550000Y-77750000D02*
X117200000Y-78400000D01*
X117200000Y-78400000D02*
X117200000Y-79650000D01*
X117200000Y-79650000D02*
X114750000Y-82100000D01*
X105250000Y-82100000D02*
X104650000Y-82700000D01*
X104650000Y-82700000D02*
X103540000Y-82700000D01*
X103540000Y-82700000D02*
X102950000Y-82110000D01*
D32*
X112246336Y-88576690D02*
X112246336Y-88553664D01*
X112246336Y-88553664D02*
X113650000Y-87150000D01*
X115600000Y-87900000D02*
X117370000Y-87900000D01*
X117370000Y-87900000D02*
X120980000Y-84290000D01*
D37*
X111599908Y-91900092D02*
X115600000Y-87900000D01*
X110718985Y-91900092D02*
X111599908Y-91900092D01*
X110718985Y-91900092D02*
X111625347Y-90993730D01*
D32*
X110718985Y-91900092D02*
X110718985Y-91931015D01*
X110718985Y-91931015D02*
X109350000Y-93300000D01*
D36*
X104150000Y-81600000D02*
X113230000Y-81600000D01*
X113230000Y-81600000D02*
X115810000Y-79020000D01*
D32*
X113144362Y-89474715D02*
X113144362Y-89455638D01*
X113144362Y-89455638D02*
X114550000Y-88050000D01*
X116500000Y-88800000D02*
X119010000Y-88800000D01*
X119010000Y-88800000D02*
X120980000Y-86830000D01*
D37*
X112501883Y-92798117D02*
X116500000Y-88800000D01*
X111617011Y-92798117D02*
X112501883Y-92798117D01*
D32*
X111617011Y-92798117D02*
X111551883Y-92798117D01*
X111551883Y-92798117D02*
X110200000Y-94150000D01*
X114042387Y-90372741D02*
X114042387Y-90357613D01*
X114042387Y-90357613D02*
X115450000Y-88950000D01*
D35*
X111150000Y-104800000D02*
X111150000Y-95100000D01*
D32*
X114940413Y-91270767D02*
X114940413Y-91259587D01*
X114940413Y-91259587D02*
X116350000Y-89850000D01*
X112515037Y-93696143D02*
X114940413Y-91270767D01*
X112515037Y-93696143D02*
X112515037Y-93734963D01*
X112515037Y-93734963D02*
X111150000Y-95100000D01*
D31*
X119700000Y-119900000D02*
X120500000Y-119100000D01*
X120500000Y-119100000D02*
X120500000Y-116500000D01*
X115600000Y-119900000D02*
X119700000Y-119900000D01*
X112400000Y-116700000D02*
X115600000Y-119900000D01*
X112400000Y-115360000D02*
X112400000Y-116700000D01*
X111000000Y-114550000D02*
X111590000Y-114550000D01*
X111590000Y-114550000D02*
X112400000Y-115360000D01*
M02*
