M48
;DRILL file {KiCad 0.201601071449+6428~40~ubuntu14.04.1-stable} date Thu 11 Feb 2016 16:26:04 GMT
;FORMAT={-:-/ absolute / inch / decimal}
FMAT,2
INCH,TZ
T1C0.016
T2C0.024
T3C0.026
T4C0.031
T5C0.073
%
G90
G05
M72
T1
X3.2205Y-3.7126
X3.2205Y-3.7638
X3.2205Y-3.811
X3.2205Y-3.8622
X3.2205Y-3.9134
X3.2205Y-3.9606
X3.2205Y-4.0118
X3.2205Y-4.063
X3.2205Y-4.1102
X3.2205Y-4.1614
X3.4213Y-4.3858
X3.4252Y-3.6654
X3.4252Y-4.5906
X3.4724Y-3.7087
X3.4724Y-3.7598
X3.4724Y-3.811
X3.4724Y-3.9606
X3.4724Y-4.0118
X3.4724Y-4.063
X3.4724Y-4.1102
X3.4724Y-4.1614
X3.4803Y-3.3898
X3.4803Y-3.4331
X3.4803Y-3.5
X3.5039Y-3.8622
X3.5276Y-4.0315
X3.5276Y-4.1457
X3.5354Y-3.9094
X3.622Y-4.1654
X3.6772Y-3.4646
X3.7087Y-3.5197
X3.7205Y-4.5906
X3.7244Y-4.0197
X3.7362Y-3.4016
X3.7717Y-3.8819
X3.8189Y-4.2244
X3.8701Y-3.4016
X3.9961Y-4.1575
X4.0157Y-4.5866
X4.0787Y-3.378
X4.1063Y-3.9094
X4.1654Y-4.1457
X4.1811Y-3.2283
X4.252Y-4.3701
X4.2618Y-3.7047
X4.2992Y-3.8976
X4.3504Y-3.4803
X4.3661Y-4.4173
X4.4016Y-3.7126
X4.4016Y-3.7598
X4.4016Y-3.811
X4.4016Y-3.8622
X4.4016Y-3.9134
X4.4016Y-3.9606
X4.4016Y-4.0118
X4.4016Y-4.063
X4.4016Y-4.1102
X4.4016Y-4.1614
X4.4016Y-4.248
X4.5039Y-4.4055
X4.6535Y-3.7126
X4.6535Y-3.7598
X4.6535Y-3.811
X4.6535Y-3.8622
X4.6535Y-3.9134
X4.6535Y-3.9606
X4.6535Y-4.0118
X4.6535Y-4.063
X4.6535Y-4.1142
X4.6535Y-4.1614
X4.6654Y-4.4134
T4
X4.5472Y-4.6063
X4.5472Y-4.9213
X4.626Y-4.6063
X4.626Y-4.9213
T5
X3.3071Y-4.6575
X3.3071Y-4.8425
X3.3071Y-5.0276
X3.6024Y-4.6575
X3.6024Y-4.8425
X3.6024Y-5.0276
X3.8976Y-4.6575
X3.8976Y-4.8425
X3.8976Y-5.0276
X4.1929Y-4.6575
X4.1929Y-4.8425
X4.1929Y-5.0276
T2
X3.7815Y-3.2421G85X3.7815Y-3.2146
G05
X4.1102Y-3.2421G85X4.1102Y-3.2146
G05
T3
X3.8583Y-3.3504G85X3.8583Y-3.3425
G05
X4.0335Y-3.3504G85X4.0335Y-3.3425
G05
T0
M30
