M48
;DRILL file {KiCad 0.201601071449+6428~40~ubuntu14.04.1-stable} date Tue 26 Apr 2016 00:29:13 BST
;FORMAT={-:-/ absolute / inch / decimal}
FMAT,2
INCH,TZ
T1C0.016
T2C0.024
T3C0.026
T4C0.031
T5C0.039
%
G90
G05
M72
T1
X3.0472Y-3.2638
X3.0827Y-3.5748
X3.1339Y-3.6024
X3.1339Y-3.685
X3.1398Y-4.1654
X3.1752Y-3.1732
X3.187Y-4.187
X3.2165Y-3.2047
X3.248Y-3.9921
X3.2638Y-3.1673
X3.2835Y-4.2126
X3.2913Y-4.3307
X3.3268Y-4.3661
X3.3622Y-4.4016
X3.378Y-4.1181
X3.3789Y-3.8554
X3.3976Y-4.437
X3.4331Y-4.4724
X3.4685Y-4.5079
X3.4961Y-4.126
X3.5Y-3.2343
X3.5039Y-4.5433
X3.5315Y-4.1614
X3.5394Y-3.0787
X3.5394Y-4.5787
X3.5709Y-3.7028
X3.6004Y-3.6713
X3.6142Y-4.0906
X3.6142Y-4.1535
X3.6378Y-3.8799
X3.6378Y-4.2677
X3.6575Y-4.5866
X3.6654Y-3.1555
X3.6732Y-4.3031
X3.6772Y-3.7264
X3.7008Y-4.0433
X3.7087Y-3.7618
X3.7087Y-4.3386
X3.7441Y-3.9685
X3.7441Y-4.374
X3.752Y-4.4921
X3.7953Y-3.3071
X3.8228Y-4.2835
X3.8307Y-3.0591
X3.8346Y-3.5354
X3.8346Y-3.6634
X3.8386Y-4.1614
X3.8976Y-3.189
X4.0512Y-3.4626
X4.1181Y-3.378
X4.128Y-3.4961
X4.1634Y-3.5315
X4.1988Y-3.5669
X4.2146Y-3.2835
X4.2343Y-3.6024
X4.2697Y-3.6378
X4.3051Y-3.6732
X4.3327Y-3.2913
X4.3386Y-3.7067
X4.3681Y-3.3248
X4.376Y-3.7441
X4.376Y-4.126
X4.4035Y-3.3563
X4.439Y-3.3957
X4.4469Y-3.8228
X4.4744Y-3.4311
X4.4961Y-3.7539
X4.5098Y-3.4665
X4.5453Y-3.502
X4.5807Y-3.5374
X4.5906Y-3.6594
X4.7992Y-3.5531
X4.8465Y-4.126
T4
X4.4882Y-4.5866
X4.5669Y-4.5866
X4.7441Y-4.5866
X4.8228Y-4.5866
T5
X3.011Y-4.2571
X3.011Y-4.3571
X3.011Y-4.4571
X3.011Y-4.5571
X3.011Y-4.6571
X3.011Y-4.7571
X3.011Y-4.8571
X3.111Y-4.2571
X3.111Y-4.3571
X3.111Y-4.4571
X3.111Y-4.5571
X3.111Y-4.6571
X3.111Y-4.7571
X3.111Y-4.8571
X3.4539Y-4.8622
X3.5539Y-4.8622
X3.728Y-4.8622
X3.828Y-4.8622
X3.928Y-4.8622
X4.028Y-4.8622
X4.2594Y-3.011
X4.2594Y-3.111
X4.3594Y-3.011
X4.3594Y-3.111
X4.4594Y-3.011
X4.4594Y-3.111
X4.5594Y-3.011
X4.5594Y-3.111
X4.7571Y-4.2402
X4.763Y-3.0185
X4.763Y-3.1185
X4.763Y-3.2185
X4.763Y-3.3185
X4.763Y-3.4185
X4.8571Y-4.2402
X4.8622Y-3.7571
X4.8622Y-3.8571
X4.863Y-3.0185
X4.863Y-3.1185
X4.863Y-3.2185
X4.863Y-3.3185
X4.863Y-3.4185
T2
X3.127Y-3.0256G85X3.127Y-2.998
G05
X3.4557Y-3.0256G85X3.4557Y-2.998
G05
T3
X3.2037Y-3.1339G85X3.2037Y-3.126
G05
X3.3789Y-3.1339G85X3.3789Y-3.126
G05
T0
M30
