M48
;DRILL file {KiCad 4.1.0-alpha+201605071002+6776~44~ubuntu14.04.1-product} date Mon 25 Jul 2016 09:44:23 BST
;FORMAT={-:-/ absolute / inch / decimal}
FMAT,2
INCH,TZ
T1C0.008
T2C0.012
T3C0.016
T4C0.020
T5C0.024
T6C0.025
T7C0.026
T8C0.028
T9C0.031
T10C0.039
T11C0.040
%
G90
G05
M72
T1
X7.8992Y-1.6374
X7.8992Y-1.6846
X7.9465Y-1.6374
X7.9465Y-1.6846
T2
X1.3583Y-7.2244
X1.3583Y-7.815
X1.4567Y-7.126
X1.4567Y-7.9134
X1.5551Y-7.126
X1.5551Y-7.2244
X1.5551Y-7.815
X1.5551Y-7.9134
X1.5965Y-1.6535
X1.6134Y-7.5197
X1.6142Y-1.9843
X1.6181Y-1.6102
X1.624Y-1.565
X1.626Y-3.9016
X1.6378Y-2.3189
X1.6378Y-3.6732
X1.6535Y-3.5512
X1.6535Y-3.9213
X1.6535Y-7.126
X1.6535Y-7.3228
X1.6535Y-7.4213
X1.6535Y-7.7559
X1.6535Y-8.1102
X1.6929Y-4.0079
X1.6988Y-2.2352
X1.7087Y-4.1138
X1.7126Y-7.3228
X1.7244Y-2.0335
X1.7323Y-3.9685
X1.7346Y-4.1138
X1.7387Y-3.4385
X1.7421Y-7.687
X1.75Y-1.5591
X1.752Y-7.4055
X1.752Y-7.815
X1.752Y-8.0118
X1.752Y-8.2087
X1.7559Y-1.6043
X1.7598Y-3.4173
X1.7598Y-4.1138
X1.7717Y-1.961
X1.7913Y-3.5236
X1.7913Y-7.5
X1.7913Y-7.5
X1.8012Y-7.7461
X1.8071Y-2.1831
X1.8071Y-2.2894
X1.8071Y-3.4252
X1.811Y-7.3228
X1.815Y-3.9173
X1.8445Y-1.4567
X1.8445Y-1.4961
X1.8504Y-7.5
X1.8504Y-7.9134
X1.8543Y-3.3937
X1.8646Y-4.1138
X1.8661Y-3.4252
X1.874Y-3.9567
X1.878Y-3.4606
X1.8898Y-4.1142
X1.8917Y-1.4961
X1.8949Y-3.8941
X1.896Y-3.5613
X1.8976Y-4.0709
X1.8976Y-7.7984
X1.9094Y-7.3228
X1.9154Y-4.1138
X1.9171Y-3.5825
X1.9232Y-7.872
X1.9252Y-2.313
X1.9449Y-7.5591
X1.9449Y-7.622
X1.9449Y-7.6772
X1.9606Y-3.9488
X1.9669Y-4.1
X1.9669Y-4.1217
X1.9685Y-7.7362
X1.9882Y-3.6969
X1.9961Y-3.5906
X1.9996Y-4.078
X2.0079Y-7.3228
X2.0118Y-3.4843
X2.0118Y-3.622
X2.0118Y-3.6732
X2.0118Y-7.5591
X2.0118Y-7.622
X2.0118Y-7.6772
X2.0122Y-4.1087
X2.0374Y-7.7657
X2.0472Y-1.3799
X2.0472Y-2.2067
X2.0479Y-3.8937
X2.0787Y-7.622
X2.0787Y-7.6772
X2.0827Y-4.039
X2.0827Y-4.0689
X2.0846Y-4.2854
X2.0984Y-1.6024
X2.1063Y-4.311
X2.1063Y-7.3228
X2.1083Y-2.2677
X2.1102Y-3.6142
X2.122Y-3.5512
X2.1299Y-7.6142
X2.1378Y-4.2992
X2.1417Y-3.7677
X2.1417Y-7.563
X2.1535Y-1.6024
X2.1575Y-2.4941
X2.1645Y-4.0056
X2.1772Y-2.2008
X2.1949Y-7.8051
X2.1988Y-3.9744
X2.2047Y-7.3228
X2.2205Y-2.3228
X2.2323Y-2.1457
X2.2539Y-7.4114
X2.2539Y-2.5591
X2.2638Y-3.3937
X2.2835Y-3.4173
X2.2835Y-7.6476
X2.2854Y-3.9193
X2.2913Y-3.4488
X2.2913Y-3.5079
X2.3031Y-7.3228
X2.3292Y-3.3489
X2.3425Y-3.9587
X2.3425Y-7.6181
X2.3425Y-7.7165
X2.3425Y-8.0118
X2.3425Y-8.2087
X2.3445Y-2.0827
X2.3504Y-3.3701
X2.3504Y-3.4173
X2.3504Y-3.4488
X2.3524Y-7.4213
X2.3524Y-7.5
X2.3618Y-4.1146
X2.363Y-3.885
X2.374Y-4.0709
X2.387Y-4.1146
X2.3897Y-2.445
X2.4035Y-2.6398
X2.4055Y-1.6752
X2.4055Y-1.7697
X2.4126Y-4.1146
X2.4272Y-2.4094
X2.4409Y-7.126
X2.4409Y-7.2244
X2.4409Y-7.3228
X2.4409Y-7.4213
X2.4409Y-7.5197
X2.4409Y-7.6181
X2.4409Y-7.7165
X2.4409Y-8.1102
X2.4411Y-3.5379
X2.4449Y-3.9705
X2.4646Y-3.8661
X2.4704Y-4.1181
X2.4803Y-3.8976
X2.4843Y-3.3701
X2.4921Y-4.1654
X2.5079Y-3.3504
X2.5315Y-3.4173
X2.5394Y-7.126
X2.5394Y-7.2244
X2.5394Y-7.815
X2.5472Y-3.4764
X2.563Y-3.4158
X2.6378Y-7.126
X2.6378Y-7.9134
X2.7362Y-7.2244
X2.7362Y-7.815
X3.1142Y-7.2756
X3.1693Y-5.4134
X3.1693Y-6.0039
X3.2677Y-5.315
X3.2677Y-6.1024
X3.321Y-5.2422
X3.3644Y-5.2069
X3.3661Y-5.4134
X3.3661Y-6.0039
X3.3661Y-6.1024
X3.3661Y-6.2008
X3.437Y-3.9016
X3.437Y-5.6142
X3.4409Y-6.1181
X3.4488Y-3.6732
X3.4646Y-3.5512
X3.4646Y-3.9213
X3.4646Y-5.6457
X3.4646Y-6.2992
X3.4685Y-7.0197
X3.4685Y-7.5276
X3.4724Y-5.6142
X3.4843Y-6.1181
X3.4882Y-5.3386
X3.5039Y-4.0079
X3.5039Y-5.3937
X3.5197Y-4.1138
X3.5197Y-5.5984
X3.5344Y-6.1171
X3.5354Y-6.1614
X3.5433Y-3.9685
X3.5457Y-4.1138
X3.5472Y-5.5787
X3.5497Y-3.4385
X3.563Y-5.0197
X3.563Y-5.1181
X3.563Y-5.2165
X3.563Y-5.9094
X3.563Y-6.2008
X3.563Y-6.3976
X3.5689Y-6.0118
X3.5709Y-3.4173
X3.5709Y-4.1138
X3.5748Y-5.311
X3.5866Y-7.1772
X3.5866Y-7.3819
X3.5886Y-6.1378
X3.6024Y-3.5236
X3.6142Y-5.2677
X3.6181Y-3.4252
X3.622Y-7.1772
X3.622Y-7.4291
X3.626Y-3.9173
X3.6299Y-5.4724
X3.6575Y-7.1772
X3.6575Y-7.4685
X3.6654Y-3.3937
X3.6654Y-5.5315
X3.6756Y-4.1138
X3.6772Y-3.4252
X3.6772Y-5.1811
X3.6811Y-6.1496
X3.6833Y-6.423
X3.685Y-3.9567
X3.689Y-3.4606
X3.7008Y-4.1142
X3.7008Y-7.6811
X3.7059Y-3.8941
X3.707Y-3.5613
X3.7087Y-4.0709
X3.7205Y-5.1811
X3.7205Y-5.374
X3.7205Y-5.811
X3.7264Y-4.1138
X3.7281Y-3.5825
X3.7323Y-6.1496
X3.7333Y-6.4242
X3.7402Y-5.7815
X3.748Y-5.563
X3.7598Y-5.0197
X3.7717Y-3.9488
X3.778Y-4.1
X3.778Y-4.1217
X3.7833Y-6.425
X3.7835Y-6.1496
X3.7913Y-5.2126
X3.7992Y-3.6969
X3.7992Y-7.2079
X3.8071Y-3.5906
X3.8106Y-4.078
X3.811Y-5.0709
X3.811Y-5.7559
X3.8189Y-5.6969
X3.8228Y-3.4843
X3.8228Y-3.622
X3.8228Y-3.6732
X3.8232Y-4.1087
X3.8268Y-7.1614
X3.8268Y-7.6732
X3.8287Y-7.4567
X3.8307Y-5.811
X3.8307Y-5.8701
X3.8307Y-7.4173
X3.8333Y-6.4238
X3.8346Y-5.6614
X3.8346Y-6.1496
X3.8346Y-7.2772
X3.8386Y-7.3819
X3.8504Y-7.1969
X3.8583Y-5.0197
X3.8583Y-7.5984
X3.8589Y-3.8937
X3.8602Y-5.3642
X3.8701Y-5.5472
X3.878Y-7.6339
X3.8789Y-5.6624
X3.8819Y-6.1496
X3.8833Y-6.4238
X3.8898Y-7.2772
X3.8937Y-4.039
X3.8937Y-4.0689
X3.8957Y-4.2854
X3.8976Y-5.3189
X3.9055Y-7.1654
X3.9134Y-5.0709
X3.9173Y-4.311
X3.9213Y-3.6142
X3.9213Y-5.5512
X3.9331Y-3.5512
X3.9331Y-6.1496
X3.9333Y-6.425
X3.937Y-6.0157
X3.9449Y-5.8701
X3.9488Y-4.2992
X3.9528Y-3.7677
X3.9567Y-5.0197
X3.9606Y-7.6417
X3.9646Y-5.5472
X3.9646Y-5.6575
X3.9646Y-5.7992
X3.9701Y-7.3819
X3.9701Y-7.4213
X3.9755Y-4.0056
X3.9843Y-6.1496
X3.9961Y-5.8661
X4.0098Y-3.9744
X4.0157Y-5.2362
X4.0236Y-7.3976
X4.0333Y-6.1496
X4.0394Y-5.4843
X4.0433Y-7.1732
X4.0531Y-7.687
X4.0748Y-3.3937
X4.0945Y-3.4173
X4.0965Y-3.9193
X4.1024Y-3.4488
X4.1024Y-3.5079
X4.1403Y-3.3489
X4.1457Y-7.6417
X4.1535Y-3.9587
X4.1535Y-5.0197
X4.1535Y-6.3976
X4.1535Y-7.5315
X4.1614Y-3.3701
X4.1614Y-3.4173
X4.1614Y-3.4488
X4.1728Y-4.1146
X4.174Y-3.885
X4.185Y-4.0709
X4.1969Y-5.6614
X4.198Y-4.1146
X4.2236Y-4.1146
X4.2441Y-5.3819
X4.2441Y-7.5591
X4.252Y-5.1181
X4.252Y-5.7087
X4.252Y-6.0039
X4.252Y-6.1024
X4.252Y-6.2008
X4.252Y-6.2992
X4.2521Y-3.5379
X4.2559Y-3.9705
X4.2756Y-3.8661
X4.2814Y-4.1181
X4.2913Y-3.8976
X4.2953Y-3.3701
X4.3031Y-4.1654
X4.3071Y-7.2717
X4.3189Y-3.3504
X4.3425Y-3.4173
X4.3504Y-5.3819
X4.3504Y-6.0039
X4.3504Y-6.2008
X4.3543Y-6.1024
X4.3583Y-3.4764
X4.3701Y-5.315
X4.374Y-3.4158
X4.4094Y-5.2362
X4.4134Y-7.0197
X4.4134Y-7.4291
X4.4134Y-7.4803
X4.4134Y-7.5315
X4.4488Y-5.315
X4.4488Y-6.1024
X4.5472Y-5.4134
X4.5472Y-6.0039
X4.5551Y-7.3228
X4.5551Y-7.4291
X4.5906Y-7.3228
X4.5906Y-7.4291
X4.622Y-7.5354
X4.6535Y-7.2992
X4.7756Y-7.1614
X4.7756Y-7.6732
X5.248Y-3.9016
X5.2598Y-3.6732
X5.2756Y-3.5512
X5.2756Y-3.9213
X5.315Y-4.0079
X5.3307Y-4.1138
X5.3543Y-3.9685
X5.3567Y-4.1138
X5.3607Y-3.4385
X5.3819Y-3.4173
X5.3819Y-4.1138
X5.4134Y-3.5236
X5.4291Y-3.4252
X5.437Y-3.9173
X5.4764Y-3.3937
X5.4866Y-4.1138
X5.4882Y-3.4252
X5.4961Y-3.9567
X5.5Y-3.4606
X5.5118Y-4.1142
X5.5169Y-3.8941
X5.518Y-3.5613
X5.5197Y-4.0709
X5.5374Y-4.1138
X5.5392Y-3.5825
X5.5827Y-3.9488
X5.589Y-4.1
X5.589Y-4.1217
X5.6102Y-3.6969
X5.6181Y-3.5906
X5.6217Y-4.078
X5.6339Y-3.4843
X5.6339Y-3.622
X5.6339Y-3.6732
X5.6343Y-4.1087
X5.6699Y-3.8937
X5.7047Y-4.039
X5.7047Y-4.0689
X5.7067Y-4.2854
X5.7283Y-4.311
X5.7323Y-3.6142
X5.7441Y-3.5512
X5.7598Y-4.2992
X5.7638Y-3.7677
X5.7866Y-4.0056
X5.8209Y-3.9744
X5.8858Y-3.3937
X5.9055Y-3.4173
X5.9075Y-3.9193
X5.9134Y-3.4488
X5.9134Y-3.5079
X5.9513Y-3.3489
X5.9646Y-3.9587
X5.9724Y-3.3701
X5.9724Y-3.4173
X5.9724Y-3.4488
X5.9839Y-4.1146
X5.985Y-3.885
X5.9961Y-4.0709
X6.0091Y-4.1146
X6.0346Y-4.1146
X6.0631Y-3.5379
X6.0669Y-3.9705
X6.0866Y-3.8661
X6.0894Y-4.1724
X6.1024Y-3.8976
X6.1063Y-3.3701
X6.1142Y-4.2031
X6.1299Y-3.3504
X6.1535Y-3.4173
X6.1693Y-3.4764
X6.185Y-3.4158
X6.7913Y-5.4134
X6.8811Y-2.5335
X6.8898Y-5.315
X6.8976Y-6.1024
X6.9331Y-6.2283
X6.952Y-2.6047
X6.9882Y-5.315
X6.9882Y-5.4134
X7.0224Y-2.6583
X7.0331Y-2.5106
X7.0461Y-5.7587
X7.048Y-1.7657
X7.0634Y-2.4909
X7.0657Y-2.0524
X7.0764Y-1.8071
X7.078Y-2.635
X7.0854Y-2.0776
X7.0866Y-5.315
X7.0866Y-6.1024
X7.0866Y-6.2008
X7.0866Y-6.2992
X7.0906Y-5.7028
X7.1055Y-1.9654
X7.1118Y-2.0965
X7.1299Y-5.6535
X7.1575Y-2.6713
X7.1654Y-5.7638
X7.1768Y-2.5764
X7.1772Y-1.9744
X7.1772Y-5.622
X7.1819Y-1.7657
X7.185Y-5.315
X7.185Y-5.9449
X7.185Y-6.1024
X7.185Y-6.2008
X7.185Y-6.3976
X7.1925Y-5.7843
X7.1988Y-5.6457
X7.2008Y-5.8898
X7.2126Y-5.5669
X7.2146Y-5.6161
X7.2161Y-1.774
X7.2343Y-1.9941
X7.2362Y-1.8976
X7.2367Y-1.8501
X7.2531Y-1.5984
X7.2539Y-1.5748
X7.2579Y-1.9449
X7.2697Y-2.1043
X7.2972Y-2.0492
X7.2972Y-2.1339
X7.3228Y-5.3937
X7.3228Y-5.7579
X7.3346Y-5.5512
X7.3346Y-5.7972
X7.3346Y-5.8465
X7.3508Y-2.7976
X7.3563Y-2.0472
X7.3807Y-1.9921
X7.3819Y-6.1024
X7.3829Y-2.1732
X7.3858Y-5.7028
X7.4043Y-2.0161
X7.4114Y-2.8173
X7.4244Y-1.5937
X7.4244Y-1.6169
X7.4252Y-5.6535
X7.4685Y-5.7638
X7.4705Y-2.0244
X7.4724Y-5.626
X7.4744Y-1.9067
X7.4823Y-5.9449
X7.487Y-1.6646
X7.4925Y-5.7858
X7.4961Y-2.05
X7.498Y-5.6437
X7.5Y-5.8898
X7.5039Y-5.5669
X7.5138Y-5.6161
X7.522Y-2.0756
X7.5406Y-2.1012
X7.5433Y-1.6894
X7.5618Y-1.9921
X7.5665Y-2.174
X7.5882Y-1.6969
X7.5929Y-1.9984
X7.5953Y-2.2571
X7.6028Y-1.6634
X7.6075Y-2.0268
X7.6161Y-1.5937
X7.6181Y-5.7579
X7.6283Y-1.7358
X7.6299Y-5.5551
X7.6299Y-5.7972
X7.6299Y-5.8465
X7.6303Y-2.0496
X7.6335Y-2.6173
X7.6362Y-2.4012
X7.6378Y-5.3937
X7.6453Y-1.7874
X7.6555Y-2.6299
X7.6583Y-1.715
X7.661Y-2.0795
X7.6705Y-2.2799
X7.6768Y-1.6118
X7.6772Y-6.1024
X7.6811Y-5.7047
X7.6839Y-2.102
X7.6965Y-2.3047
X7.7031Y-1.8146
X7.7067Y-2.1248
X7.7169Y-2.3295
X7.7244Y-5.6535
X7.7291Y-2.1476
X7.7316Y-2.4324
X7.7382Y-1.628
X7.739Y-1.7386
X7.7441Y-2.3504
X7.7461Y-2.0787
X7.7548Y-2.1744
X7.7638Y-5.622
X7.7638Y-5.7638
X7.7677Y-1.4902
X7.7687Y-2.3726
X7.7699Y-5.936
X7.7756Y-6.1024
X7.7756Y-6.2008
X7.7756Y-6.3976
X7.7776Y-2.1965
X7.7819Y-1.4457
X7.7819Y-2.5955
X7.787Y-5.7862
X7.7933Y-2.6551
X7.7933Y-5.6437
X7.7992Y-5.5669
X7.7992Y-5.8858
X7.8012Y-1.9902
X7.8016Y-1.8433
X7.8071Y-5.6142
X7.8295Y-1.411
X7.8315Y-2.0949
X7.8339Y-1.6441
X7.8366Y-1.6024
X7.8504Y-2.4244
X7.8642Y-1.7169
X7.874Y-5.315
X7.874Y-6.1024
X7.874Y-6.2008
X7.874Y-6.2992
X7.9134Y-5.6004
X7.9173Y-5.5551
X7.9315Y-2.4335
X7.9382Y-2.5976
X7.9724Y-5.315
X7.9724Y-5.4134
X7.9724Y-6.1024
X7.9724Y-6.2008
X7.9787Y-1.7165
X8.0665Y-2.5728
X8.0709Y-5.315
X8.0709Y-6.1024
X8.1252Y-1.8181
X8.1693Y-5.4134
X8.6024Y-4.1929
X8.6024Y-5.4134
X8.7008Y-3.5039
X8.7008Y-3.6024
X8.7008Y-4.1929
X8.7008Y-4.2913
X8.7008Y-5.315
X8.7087Y-6.1024
X8.7441Y-6.2283
X8.7992Y-3.6024
X8.7992Y-4.2913
X8.7992Y-5.315
X8.7992Y-5.4134
X8.8189Y-4.1654
X8.8571Y-5.7587
X8.8583Y-3.9724
X8.8622Y-4.1654
X8.8878Y-3.9272
X8.8976Y-4.4882
X8.8976Y-5.315
X8.8976Y-6.1024
X8.8976Y-6.2008
X8.8976Y-6.2992
X8.9016Y-5.7028
X8.9409Y-5.6535
X8.9764Y-5.7638
X8.9882Y-5.622
X8.9961Y-4.4882
X8.9961Y-4.5866
X8.9961Y-5.315
X8.9961Y-5.9449
X8.9961Y-6.1024
X8.9961Y-6.2008
X8.9961Y-6.3976
X9.0035Y-5.7843
X9.0098Y-5.6457
X9.0118Y-5.8898
X9.0236Y-5.5669
X9.0256Y-5.6161
X9.0276Y-4.1654
X9.0945Y-4.3898
X9.0945Y-4.5866
X9.0945Y-6.1024
X9.122Y-3.9764
X9.1339Y-5.3937
X9.1339Y-5.7579
X9.1457Y-5.5512
X9.1457Y-5.7972
X9.1457Y-5.8465
X9.1604Y-3.7362
X9.1654Y-3.9016
X9.1811Y-4.0512
X9.1929Y-3.5039
X9.1929Y-6.1024
X9.1969Y-5.7028
X9.2126Y-3.7244
X9.2362Y-5.6535
X9.2421Y-3.9469
X9.2618Y-3.7559
X9.2795Y-5.7638
X9.2835Y-5.626
X9.2913Y-3.9961
X9.2913Y-4.4882
X9.2913Y-6.1024
X9.2933Y-5.9449
X9.3031Y-3.7953
X9.3031Y-3.9016
X9.3035Y-5.7858
X9.3091Y-5.6437
X9.311Y-5.8898
X9.315Y-5.5669
X9.3248Y-5.6161
X9.3406Y-3.9469
X9.3898Y-3.9961
X9.3898Y-4.5866
X9.4203Y-3.8455
X9.4291Y-5.7579
X9.4341Y-3.7933
X9.437Y-3.7559
X9.439Y-3.9469
X9.4409Y-5.5551
X9.4409Y-5.7972
X9.4409Y-5.8465
X9.4488Y-5.3937
X9.4528Y-3.8219
X9.4843Y-3.6693
X9.4882Y-3.5039
X9.4882Y-3.6024
X9.4882Y-6.1024
X9.4921Y-5.7047
X9.5354Y-5.6535
X9.5748Y-5.622
X9.5748Y-5.7638
X9.5809Y-5.936
X9.5866Y-4.4882
X9.5866Y-4.5866
X9.5866Y-6.1024
X9.5866Y-6.2008
X9.5866Y-6.3976
X9.598Y-5.7862
X9.6043Y-5.6437
X9.6102Y-5.5669
X9.6102Y-5.8858
X9.6181Y-5.6142
X9.685Y-4.4882
X9.685Y-5.315
X9.685Y-6.1024
X9.685Y-6.2008
X9.685Y-6.2992
X9.7244Y-5.6004
X9.7283Y-5.5551
X9.7835Y-5.315
X9.7835Y-5.4134
X9.7835Y-6.1024
X9.7835Y-6.2008
X9.8819Y-3.5039
X9.8819Y-4.1929
X9.8819Y-4.2913
X9.8819Y-5.315
X9.8819Y-6.1024
X9.9803Y-3.6024
X9.9803Y-4.1929
X9.9803Y-5.4134
T3
X1.3307Y-1.8622
X1.3307Y-1.9114
X1.3307Y-1.9626
X1.3307Y-2.0118
X1.3307Y-2.061
X1.3307Y-2.1122
X1.3307Y-2.1614
X1.3307Y-2.2126
X1.3307Y-2.2618
X1.3307Y-2.313
X1.3309Y-5.7837
X1.3309Y-7.5947
X1.3313Y-5.4837
X1.3313Y-5.9337
X1.3313Y-7.2947
X1.3313Y-7.7447
X1.3315Y-3.6728
X1.3315Y-3.7228
X1.3315Y-3.7724
X1.3315Y-3.8224
X1.3315Y-3.8728
X1.3315Y-3.9224
X1.3315Y-3.9728
X1.3315Y-4.0228
X1.3315Y-4.0724
X1.3317Y-5.5837
X1.3317Y-5.8337
X1.3317Y-7.3947
X1.3321Y-5.6837
X1.3321Y-7.4947
X1.3325Y-5.5337
X1.3325Y-5.8837
X1.3325Y-7.3447
X1.3325Y-7.6947
X1.3333Y-5.7337
X1.3333Y-7.5447
X1.3337Y-7.6447
X1.3344Y-5.6337
X1.3348Y-7.4447
X1.4173Y-4.1614
X1.5236Y-3.6339
X1.5276Y-4.3583
X1.5374Y-3.5984
X1.561Y-3.6299
X1.5789Y-7.5947
X1.5797Y-5.8337
X1.5797Y-7.3947
X1.5805Y-7.3447
X1.5809Y-5.5337
X1.5809Y-5.8837
X1.5809Y-7.6947
X1.5813Y-5.6837
X1.5813Y-5.7337
X1.5813Y-7.4947
X1.5813Y-7.5447
X1.5817Y-5.5837
X1.5817Y-7.6447
X1.5819Y-3.7224
X1.5819Y-3.7728
X1.5819Y-3.8228
X1.5819Y-3.8728
X1.5819Y-3.9224
X1.5819Y-3.9724
X1.5819Y-4.0228
X1.5819Y-4.0728
X1.5819Y-4.1228
X1.5821Y-5.4837
X1.5821Y-5.9337
X1.5821Y-7.2947
X1.5821Y-7.7447
X1.5825Y-5.6337
X1.5825Y-5.7837
X1.5825Y-7.4447
X1.5827Y-1.8622
X1.5827Y-1.9114
X1.5827Y-1.9606
X1.5827Y-2.063
X1.5827Y-2.1122
X1.5827Y-2.1614
X1.5827Y-2.2126
X1.5827Y-2.2618
X1.5827Y-2.313
X1.628Y-2.0689
X1.7087Y-3.8465
X1.7185Y-2.0689
X1.7283Y-4.315
X1.7441Y-4.2992
X1.7465Y-3.7008
X1.7807Y-3.6665
X1.7807Y-3.735
X1.7953Y-4.1535
X1.7953Y-4.1772
X1.7953Y-4.1969
X1.8031Y-2.7402
X1.811Y-4.5433
X1.815Y-3.6323
X1.815Y-3.7008
X1.815Y-3.7693
X1.8222Y-7.9848
X1.8222Y-8.2356
X1.8492Y-3.6665
X1.8492Y-3.735
X1.8722Y-7.9864
X1.8722Y-8.2341
X1.8819Y-4.6339
X1.8834Y-3.7008
X1.9055Y-3.3661
X1.9134Y-3.4724
X1.9222Y-7.9872
X1.9222Y-8.2333
X1.9409Y-4.1772
X1.9409Y-4.3031
X1.9409Y-4.3268
X1.9411Y-4.1536
X1.9472Y-3.1622
X1.9472Y-3.4126
X1.9685Y-2.7953
X1.9722Y-7.9844
X1.9722Y-8.236
X1.9972Y-3.1622
X1.9972Y-3.4126
X2.0079Y-4.2756
X2.0079Y-4.311
X2.0222Y-7.9856
X2.0222Y-8.2348
X2.0472Y-3.1622
X2.0472Y-3.4126
X2.0722Y-7.9868
X2.0722Y-8.2348
X2.0972Y-3.1622
X2.0972Y-3.413
X2.1004Y-4.1181
X2.1102Y-3.8661
X2.1102Y-3.9213
X2.1102Y-3.9783
X2.1181Y-4.1043
X2.1222Y-7.988
X2.1222Y-8.236
X2.1472Y-3.1622
X2.1472Y-3.413
X2.1555Y-7.7461
X2.1722Y-7.9852
X2.1722Y-8.2333
X2.2047Y-4.1142
X2.215Y-3.7008
X2.2222Y-7.986
X2.2222Y-8.2344
X2.2295Y-4.1146
X2.2362Y-4.6299
X2.2492Y-3.6665
X2.2492Y-3.735
X2.2551Y-4.1146
X2.2598Y-3.5236
X2.2722Y-7.9848
X2.2722Y-8.2317
X2.2835Y-3.6323
X2.2835Y-3.7008
X2.2835Y-3.7693
X2.2874Y-4.189
X2.2874Y-4.2126
X2.2874Y-4.2362
X2.2874Y-4.3031
X2.2874Y-4.3268
X2.2913Y-2.7402
X2.2913Y-4.5472
X2.3177Y-3.6665
X2.3177Y-3.735
X2.3519Y-3.7008
X2.4691Y-5.7081
X2.4695Y-5.6093
X2.4703Y-5.7581
X2.4705Y-5.8091
X2.4707Y-5.6593
X2.5118Y-1.8602
X2.5118Y-1.9114
X2.5118Y-1.9606
X2.5118Y-2.0118
X2.5118Y-2.061
X2.5118Y-2.1122
X2.5118Y-2.1614
X2.5118Y-2.2106
X2.5118Y-2.2618
X2.5118Y-2.311
X2.512Y-5.6337
X2.512Y-5.7837
X2.512Y-7.4447
X2.512Y-7.5947
X2.5124Y-5.4837
X2.5124Y-5.9337
X2.5124Y-7.2947
X2.5124Y-7.7447
X2.5126Y-3.7224
X2.5126Y-3.7728
X2.5126Y-3.8224
X2.5126Y-3.8724
X2.5126Y-3.9228
X2.5126Y-3.9724
X2.5126Y-4.0228
X2.5126Y-4.0724
X2.5128Y-5.8337
X2.5128Y-7.6447
X2.5132Y-5.7337
X2.5132Y-7.4947
X2.5136Y-5.5337
X2.5136Y-5.8837
X2.5136Y-7.3447
X2.514Y-7.6947
X2.5144Y-5.6837
X2.5144Y-7.5447
X2.5148Y-5.5837
X2.5148Y-7.3947
X2.5709Y-4.3504
X2.5843Y-4.1598
X2.5945Y-3.6339
X2.7047Y-4.1614
X2.76Y-5.7837
X2.7608Y-5.5837
X2.7608Y-7.3947
X2.7612Y-5.7337
X2.7616Y-5.8837
X2.7616Y-7.3447
X2.762Y-5.5337
X2.762Y-7.6947
X2.7624Y-5.6837
X2.7624Y-7.4947
X2.7624Y-7.5447
X2.7628Y-5.8337
X2.7628Y-7.6447
X2.763Y-3.6728
X2.763Y-3.7228
X2.763Y-3.7728
X2.763Y-3.8224
X2.763Y-3.8724
X2.763Y-3.9224
X2.763Y-3.9724
X2.763Y-4.0228
X2.763Y-4.0724
X2.7632Y-5.4837
X2.7632Y-5.9337
X2.7632Y-7.2947
X2.7632Y-7.7447
X2.7636Y-5.6337
X2.7636Y-7.4447
X2.7636Y-7.5947
X2.7638Y-1.8602
X2.7638Y-1.9114
X2.7638Y-1.9626
X2.7638Y-2.0118
X2.7638Y-2.063
X2.7638Y-2.1122
X2.7638Y-2.1614
X2.7638Y-2.2126
X2.7638Y-2.2618
X2.7638Y-2.311
X3.1417Y-5.5837
X3.1417Y-5.8837
X3.1419Y-5.5337
X3.1419Y-5.6337
X3.1419Y-5.7837
X3.1421Y-5.6837
X3.1421Y-5.9337
X3.1423Y-5.4837
X3.1425Y-3.6728
X3.1425Y-3.7228
X3.1425Y-3.7724
X3.1425Y-3.8224
X3.1425Y-3.8728
X3.1425Y-3.9224
X3.1425Y-3.9728
X3.1425Y-4.0228
X3.1425Y-4.0724
X3.1427Y-5.8337
X3.1431Y-5.7337
X3.1811Y-1.7795
X3.1939Y-2.3209
X3.2138Y-4.1591
X3.3071Y-1.7244
X3.3307Y-2.3228
X3.3346Y-3.6339
X3.3386Y-1.7785
X3.3386Y-4.3583
X3.3484Y-3.5984
X3.372Y-3.6299
X3.3858Y-2.3071
X3.3906Y-1.9641
X3.3914Y-2.4406
X3.3918Y-1.9251
X3.3921Y-2.0354
X3.3923Y-5.7337
X3.3929Y-3.7224
X3.3929Y-3.7728
X3.3929Y-3.8228
X3.3929Y-3.8728
X3.3929Y-3.9224
X3.3929Y-3.9724
X3.3929Y-4.0228
X3.3929Y-4.0728
X3.3929Y-4.1228
X3.3931Y-5.4837
X3.3933Y-5.6837
X3.3933Y-5.9337
X3.3935Y-5.5337
X3.3935Y-5.7837
X3.3935Y-5.8837
X3.3937Y-5.5837
X3.3937Y-5.8337
X3.4026Y-2.3405
X3.4222Y-2.1732
X3.4233Y-2.0059
X3.435Y-2.2122
X3.4449Y-5.7776
X3.4715Y-2.3335
X3.4811Y-2.4008
X3.4895Y-2.1878
X3.5108Y-2.4281
X3.5157Y-1.8283
X3.5177Y-2.0404
X3.5187Y-2.2303
X3.5197Y-3.8465
X3.5366Y-2.4559
X3.5394Y-4.315
X3.5551Y-4.2992
X3.5575Y-3.7008
X3.5858Y-2.4839
X3.5917Y-3.6665
X3.5917Y-3.735
X3.6063Y-4.1535
X3.6063Y-4.1772
X3.6063Y-4.1969
X3.622Y-4.5433
X3.6241Y-2.0728
X3.626Y-3.6323
X3.626Y-3.7008
X3.626Y-3.7693
X3.6602Y-3.6665
X3.6602Y-3.735
X3.6661Y-2.2008
X3.6772Y-2.3598
X3.6839Y-2.411
X3.6929Y-4.6339
X3.6945Y-3.7008
X3.7008Y-2.2913
X3.7165Y-2.7008
X3.7165Y-3.3661
X3.7205Y-5.8701
X3.7244Y-3.4724
X3.752Y-4.1772
X3.752Y-4.3031
X3.752Y-4.3268
X3.7521Y-4.1536
X3.7583Y-3.1622
X3.7583Y-3.4126
X3.7629Y-2.3071
X3.7795Y-2.065
X3.7864Y-2.4882
X3.7874Y-2.2224
X3.8083Y-3.1622
X3.8083Y-3.4126
X3.813Y-1.6909
X3.8189Y-4.2756
X3.8189Y-4.311
X3.8327Y-1.9858
X3.8435Y-2.4843
X3.8524Y-2.2638
X3.8583Y-3.1622
X3.8583Y-3.4126
X3.8829Y-2.3947
X3.9016Y-2.2805
X3.9083Y-3.1622
X3.9083Y-3.413
X3.9114Y-4.1181
X3.9213Y-3.8661
X3.9213Y-3.9213
X3.9213Y-3.9783
X3.9291Y-4.1043
X3.9341Y-2.2047
X3.9583Y-3.1622
X3.9583Y-3.413
X3.9685Y-2.2835
X3.9793Y-2.5039
X3.9902Y-2.1505
X3.9921Y-2.7008
X4.002Y-5.8169
X4.003Y-2.0128
X4.0059Y-1.7972
X4.0157Y-4.1142
X4.026Y-3.7008
X4.0406Y-4.1146
X4.0496Y-4.6283
X4.0602Y-3.6665
X4.0602Y-3.735
X4.0661Y-4.1146
X4.0709Y-2.1969
X4.0709Y-3.5236
X4.0945Y-3.6323
X4.0945Y-3.7008
X4.0945Y-3.7693
X4.0984Y-4.189
X4.0984Y-4.2126
X4.0984Y-4.2362
X4.0984Y-4.3031
X4.0984Y-4.3268
X4.1024Y-4.5472
X4.1073Y-2.226
X4.1112Y-1.622
X4.1287Y-3.6665
X4.1287Y-3.735
X4.1593Y-1.8791
X4.163Y-3.7008
X4.1673Y-2.3524
X4.2451Y-1.8278
X4.253Y-2.0453
X4.2815Y-2.2126
X4.2904Y-2.4754
X4.2913Y-1.9282
X4.2913Y-2.0157
X4.3209Y-2.0748
X4.3219Y-1.8317
X4.3228Y-5.5837
X4.3228Y-5.8337
X4.323Y-5.5337
X4.323Y-5.6337
X4.323Y-5.7837
X4.323Y-5.8837
X4.3232Y-5.4837
X4.3232Y-5.6837
X4.3234Y-5.7337
X4.3234Y-5.9337
X4.3236Y-3.7224
X4.3236Y-3.7728
X4.3236Y-3.8224
X4.3236Y-3.8724
X4.3236Y-3.9228
X4.3236Y-3.9724
X4.3236Y-4.0228
X4.3236Y-4.0724
X4.3327Y-2.3701
X4.3701Y-2.3228
X4.3819Y-4.3504
X4.3953Y-4.1598
X4.4055Y-3.6339
X4.502Y-4.1594
X4.5276Y-2.3209
X4.574Y-3.6728
X4.574Y-3.7228
X4.574Y-3.7728
X4.574Y-3.8224
X4.574Y-3.8724
X4.574Y-3.9224
X4.574Y-3.9724
X4.574Y-4.0228
X4.574Y-4.0724
X4.5742Y-5.4837
X4.5742Y-5.9337
X4.5744Y-5.6837
X4.5744Y-5.7337
X4.5746Y-5.5337
X4.5746Y-5.6337
X4.5746Y-5.7837
X4.5746Y-5.8837
X4.5748Y-5.5837
X4.5748Y-5.8337
X4.9332Y-2.0128
X4.936Y-1.9602
X4.937Y-1.9114
X4.937Y-2.2644
X4.9379Y-2.0644
X4.9379Y-2.1142
X4.9389Y-2.2109
X4.9398Y-2.1639
X4.9398Y-2.3104
X4.9426Y-1.8594
X4.953Y-5.6337
X4.953Y-5.7837
X4.9533Y-5.4837
X4.9533Y-5.9337
X4.9535Y-3.6728
X4.9535Y-3.7228
X4.9535Y-3.7724
X4.9535Y-3.8224
X4.9535Y-3.8728
X4.9535Y-3.9224
X4.9535Y-3.9728
X4.9535Y-4.0228
X4.9535Y-4.0724
X4.9537Y-5.5837
X4.9541Y-5.6837
X4.9541Y-5.7337
X4.9545Y-5.5337
X4.9545Y-5.8837
X4.9557Y-5.8337
X5.0252Y-4.1583
X5.0441Y-4.2236
X5.0787Y-5.315
X5.0787Y-6.1024
X5.1457Y-3.6339
X5.1594Y-3.5984
X5.1614Y-4.3252
X5.1634Y-2.3476
X5.1831Y-3.6299
X5.2026Y-5.5337
X5.203Y-5.8837
X5.2033Y-5.6837
X5.2033Y-5.7337
X5.2037Y-5.5837
X5.2037Y-5.8337
X5.2039Y-3.7224
X5.2039Y-3.7728
X5.2039Y-3.8228
X5.2039Y-3.8728
X5.2039Y-3.9224
X5.2039Y-3.9724
X5.2039Y-4.0228
X5.2039Y-4.0728
X5.2039Y-4.1228
X5.2041Y-5.4837
X5.2041Y-5.9337
X5.2045Y-5.6337
X5.2045Y-5.7837
X5.2123Y-2.2621
X5.213Y-2.0585
X5.2148Y-1.9116
X5.2149Y-1.9617
X5.2173Y-1.8621
X5.2173Y-2.1596
X5.2173Y-2.2121
X5.2223Y-2.1146
X5.2408Y-1.9965
X5.2553Y-5.7593
X5.2756Y-5.315
X5.2756Y-5.5118
X5.2756Y-5.7087
X5.2756Y-5.8425
X5.2756Y-5.9055
X5.2756Y-6.1024
X5.2756Y-6.2992
X5.289Y-2.234
X5.3155Y-2.3245
X5.3223Y-1.4921
X5.3273Y-2.6346
X5.3287Y-6.0138
X5.3307Y-3.8465
X5.3504Y-4.315
X5.3566Y-2.3181
X5.3661Y-4.2992
X5.3685Y-3.7008
X5.374Y-7.126
X5.374Y-7.3228
X5.374Y-7.5197
X5.374Y-7.7165
X5.374Y-7.9134
X5.374Y-8.1102
X5.374Y-8.3071
X5.3855Y-2.1592
X5.387Y-1.6287
X5.3961Y-2.2283
X5.4028Y-3.6665
X5.4028Y-3.735
X5.4169Y-1.7783
X5.4173Y-4.1535
X5.4173Y-4.1772
X5.4173Y-4.1969
X5.4321Y-2.72
X5.4331Y-5.7874
X5.4365Y-2.8112
X5.437Y-3.6323
X5.437Y-3.7008
X5.437Y-3.7693
X5.4404Y-2.3613
X5.4433Y-4.5315
X5.4443Y-6.1738
X5.4443Y-6.4246
X5.4476Y-2.2664
X5.4484Y-2.4708
X5.4685Y-2.4413
X5.4712Y-3.6665
X5.4712Y-3.735
X5.4724Y-5.315
X5.4724Y-5.5118
X5.4724Y-5.7087
X5.4724Y-6.1024
X5.4741Y-1.6702
X5.4882Y-5.9429
X5.4943Y-6.175
X5.4943Y-6.4234
X5.5039Y-4.6339
X5.5055Y-3.7008
X5.5276Y-3.3661
X5.5316Y-2.2508
X5.5354Y-3.4724
X5.5443Y-6.1742
X5.5443Y-6.4222
X5.563Y-4.1772
X5.563Y-4.3031
X5.563Y-4.3268
X5.563Y-5.7087
X5.5631Y-4.1536
X5.5693Y-3.1622
X5.5693Y-3.4126
X5.5781Y-1.7745
X5.5943Y-6.1734
X5.5943Y-6.425
X5.5962Y-2.4884
X5.6193Y-3.1622
X5.6193Y-3.4126
X5.6299Y-4.2756
X5.6299Y-4.311
X5.643Y-2.5633
X5.6443Y-6.1758
X5.6443Y-6.4238
X5.6581Y-2.6916
X5.6668Y-2.73
X5.6693Y-3.1622
X5.6693Y-3.4126
X5.6693Y-5.315
X5.6693Y-6.1024
X5.6693Y-6.8307
X5.6693Y-7.126
X5.6693Y-8.5039
X5.6718Y-1.7445
X5.6848Y-2.8246
X5.6943Y-6.1746
X5.6943Y-6.4238
X5.7087Y-7.5197
X5.7087Y-7.9528
X5.7193Y-3.1622
X5.7193Y-3.413
X5.7213Y-1.684
X5.7224Y-4.1181
X5.7244Y-5.7087
X5.7323Y-3.8661
X5.7323Y-3.9213
X5.7323Y-3.9783
X5.7402Y-4.1043
X5.7402Y-2.2301
X5.7443Y-6.1734
X5.7443Y-6.425
X5.7662Y-1.9441
X5.7674Y-2.4888
X5.7677Y-5.7087
X5.7693Y-3.1622
X5.7693Y-3.413
X5.7701Y-1.7126
X5.7717Y-1.7619
X5.7874Y-8.0709
X5.7943Y-6.1742
X5.7943Y-6.4242
X5.7984Y-1.5096
X5.8031Y-7.8031
X5.8039Y-1.62
X5.8154Y-2.5335
X5.8268Y-4.1142
X5.8302Y-2.1949
X5.837Y-3.7008
X5.8425Y-5.9213
X5.8443Y-6.175
X5.8443Y-6.4234
X5.8516Y-4.1146
X5.8579Y-4.6283
X5.8661Y-5.315
X5.8661Y-5.5118
X5.8661Y-6.1024
X5.8661Y-6.8307
X5.8661Y-7.3228
X5.8661Y-8.3071
X5.8713Y-3.6665
X5.8713Y-3.735
X5.8772Y-4.1146
X5.8819Y-3.5236
X5.8839Y-2.4512
X5.8943Y-6.1738
X5.8943Y-6.4219
X5.9016Y-2.5008
X5.9055Y-3.6323
X5.9055Y-3.7008
X5.9055Y-3.7693
X5.9066Y-1.7425
X5.9094Y-4.189
X5.9094Y-4.2126
X5.9094Y-4.2362
X5.9094Y-4.3031
X5.9094Y-4.3268
X5.9134Y-4.5472
X5.9255Y-1.6962
X5.9398Y-3.6665
X5.9398Y-3.735
X5.9495Y-2.2336
X5.9516Y-2.6943
X5.9573Y-1.8696
X5.969Y-1.7897
X5.974Y-3.7008
X5.9764Y-8.126
X5.9843Y-7.8346
X5.9843Y-8.0787
X5.9952Y-2.4979
X6.0042Y-2.1824
X6.0548Y-2.1024
X6.063Y-5.315
X6.063Y-5.5118
X6.063Y-5.7087
X6.063Y-5.9055
X6.063Y-6.1024
X6.063Y-6.2992
X6.063Y-6.8307
X6.063Y-7.5197
X6.07Y-2.1458
X6.0714Y-1.9467
X6.0875Y-2.1811
X6.1003Y-2.061
X6.1173Y-1.9146
X6.118Y-2.2613
X6.1181Y-8.2362
X6.119Y-2.3082
X6.1198Y-2.0027
X6.1218Y-2.2115
X6.1224Y-2.3402
X6.1248Y-1.8646
X6.1258Y-2.1723
X6.1341Y-5.6337
X6.1341Y-5.7837
X6.1344Y-5.4837
X6.1344Y-5.9337
X6.1346Y-3.7224
X6.1346Y-3.7728
X6.1346Y-3.8224
X6.1346Y-3.8724
X6.1346Y-3.9228
X6.1346Y-3.9724
X6.1346Y-4.0228
X6.1346Y-4.0724
X6.1348Y-5.5837
X6.1352Y-5.6837
X6.1356Y-5.5337
X6.136Y-5.8837
X6.1364Y-5.7337
X6.1368Y-5.8337
X6.1496Y-7.2441
X6.1566Y-2.6775
X6.1575Y-7.6535
X6.1929Y-4.3504
X6.2063Y-4.1598
X6.2165Y-3.6339
X6.2598Y-5.315
X6.2598Y-6.1024
X6.2598Y-6.8307
X6.2598Y-7.6181
X6.2598Y-7.815
X6.2598Y-8.3071
X6.291Y-7.4488
X6.3142Y-2.361
X6.3583Y-7.126
X6.3833Y-5.7337
X6.3841Y-5.5337
X6.3841Y-5.8837
X6.3844Y-5.6837
X6.3848Y-2.2646
X6.3848Y-5.5837
X6.3848Y-5.8337
X6.385Y-3.6728
X6.385Y-3.7228
X6.385Y-3.7728
X6.385Y-3.8224
X6.385Y-3.8724
X6.385Y-3.9224
X6.385Y-3.9724
X6.385Y-4.0228
X6.385Y-4.0724
X6.3852Y-5.4837
X6.3852Y-5.9337
X6.3854Y-4.1228
X6.3856Y-5.6337
X6.3856Y-5.7837
X6.3937Y-8.5906
X6.394Y-1.8627
X6.3948Y-1.9146
X6.3998Y-2.2121
X6.4048Y-2.0646
X6.4098Y-2.1121
X6.4123Y-2.0146
X6.4148Y-1.9621
X6.4325Y-2.1614
X6.4567Y-6.8307
X6.4567Y-7.6181
X6.4567Y-7.815
X6.4567Y-8.1102
X6.4567Y-8.3071
X6.4961Y-8.5118
X6.5276Y-7.8976
X6.5276Y-8.0157
X6.5512Y-8.5591
X6.5551Y-7.2244
X6.5748Y-7.4094
X6.5827Y-8.0157
X6.6142Y-8.0709
X6.6398Y-7.7687
X6.6535Y-6.8307
X6.6535Y-7.4213
X6.6535Y-8.1496
X6.7394Y-4.0242
X6.7402Y-7.6063
X6.752Y-7.9134
X6.752Y-8.0118
X6.7559Y-8.4488
X6.7587Y-1.8535
X6.7587Y-1.9035
X6.7587Y-1.9539
X6.7587Y-2.0039
X6.7587Y-2.0539
X6.7587Y-2.1035
X6.7587Y-2.1535
X6.7587Y-2.2035
X6.7587Y-2.2535
X6.7602Y-3.9709
X6.7628Y-3.7726
X6.7638Y-3.7224
X6.7638Y-3.9232
X6.7638Y-4.0728
X6.7638Y-4.123
X6.764Y-5.6337
X6.764Y-5.7837
X6.7644Y-5.4837
X6.7644Y-5.9337
X6.7648Y-3.6722
X6.7648Y-3.8228
X6.7648Y-3.873
X6.7648Y-5.5837
X6.7652Y-5.7337
X6.7656Y-5.8837
X6.7659Y-5.5337
X6.7663Y-5.6837
X6.7667Y-5.8337
X6.7953Y-7.6063
X6.8228Y-4.1969
X6.8236Y-2.3421
X6.8299Y-4.2945
X6.8346Y-3.5886
X6.8504Y-6.8307
X6.8504Y-7.2244
X6.8504Y-7.4213
X6.8504Y-7.6063
X6.8504Y-8.3071
X6.8504Y-8.5433
X6.874Y-4.3346
X6.8898Y-7.9134
X6.928Y-4.2765
X6.9291Y-3.4252
X6.9291Y-3.5039
X6.9337Y-4.4089
X6.9433Y-2.3425
X6.9567Y-3.6063
X6.9685Y-4.1732
X6.9685Y-8.6614
X6.9794Y-4.4089
X6.9882Y-6.2874
X7.0079Y-3.3465
X7.0079Y-3.4252
X7.0079Y-3.5039
X7.0089Y-2.2037
X7.0091Y-1.8539
X7.0091Y-1.9035
X7.0091Y-1.9539
X7.0091Y-2.0539
X7.0091Y-2.1039
X7.0091Y-2.1535
X7.0098Y-2.2539
X7.0128Y-5.5837
X7.0128Y-5.8337
X7.0132Y-5.6837
X7.014Y-5.5337
X7.014Y-5.8837
X7.0144Y-5.7337
X7.0148Y-3.6732
X7.0148Y-3.7224
X7.0148Y-3.7687
X7.0148Y-3.9232
X7.0148Y-4.0728
X7.0152Y-5.4837
X7.0152Y-5.9337
X7.0156Y-5.6337
X7.0156Y-5.7837
X7.0157Y-3.873
X7.0157Y-4.123
X7.0197Y-4.0244
X7.0255Y-4.4089
X7.04Y-3.8278
X7.0472Y-4.1732
X7.0472Y-7.2244
X7.0472Y-7.4213
X7.0551Y-7.8661
X7.0594Y-3.972
X7.061Y-3.3031
X7.063Y-3.6378
X7.063Y-7.6614
X7.063Y-7.7165
X7.0659Y-4.3228
X7.0669Y-4.4039
X7.0749Y-3.7842
X7.0866Y-3.3465
X7.0866Y-3.4252
X7.0866Y-3.5039
X7.1028Y-3.8268
X7.1102Y-3.2677
X7.1181Y-8.3307
X7.126Y-4.1732
X7.1272Y-4.5551
X7.1279Y-4.3233
X7.128Y-3.4016
X7.1457Y-7.6181
X7.1457Y-7.815
X7.1457Y-8.0118
X7.1476Y-3.8642
X7.1654Y-3.4252
X7.1654Y-3.5039
X7.2047Y-4.1732
X7.2047Y-8.4252
X7.2087Y-3.3996
X7.2241Y-3.9642
X7.2244Y-4.5236
X7.2283Y-3.185
X7.2382Y-4.4016
X7.2441Y-3.4252
X7.2441Y-3.5039
X7.2553Y-6.1738
X7.2553Y-6.4246
X7.263Y-3.3425
X7.263Y-3.3867
X7.2677Y-4.0079
X7.2697Y-3.2106
X7.2759Y-3.1594
X7.2812Y-3.9072
X7.3053Y-6.175
X7.3053Y-6.4234
X7.311Y-3.8622
X7.3213Y-3.3189
X7.3553Y-6.1742
X7.3553Y-6.4242
X7.3565Y-4.0848
X7.3606Y-4.1992
X7.3661Y-3.9823
X7.374Y-3.3189
X7.4016Y-4.0354
X7.4016Y-4.2913
X7.4016Y-4.3701
X7.4016Y-4.4488
X7.4016Y-4.5276
X7.4016Y-4.6063
X7.402Y-4.2402
X7.4053Y-6.1734
X7.4053Y-6.425
X7.4194Y-3.481
X7.4299Y-3.1287
X7.437Y-4.1575
X7.4553Y-6.1746
X7.4553Y-6.4238
X7.4646Y-3.9016
X7.4803Y-4.2913
X7.4803Y-4.3701
X7.4803Y-4.4488
X7.4803Y-4.5276
X7.4803Y-4.6063
X7.4961Y-3.9724
X7.5053Y-6.1746
X7.5053Y-6.4238
X7.5244Y-1.3433
X7.5276Y-3.3583
X7.5276Y-3.4094
X7.5553Y-6.1734
X7.5553Y-6.4215
X7.5591Y-4.2913
X7.5591Y-4.3701
X7.5591Y-4.4488
X7.5591Y-4.5276
X7.5591Y-4.6063
X7.5644Y-3.5307
X7.5787Y-3.3583
X7.5787Y-3.4094
X7.6053Y-6.1742
X7.6053Y-6.4242
X7.6118Y-1.3984
X7.6131Y-3.5212
X7.6421Y-3.9571
X7.6553Y-6.1754
X7.6553Y-6.4234
X7.6659Y-3.5248
X7.6713Y-3.3642
X7.6744Y-4.2138
X7.6862Y-3.4602
X7.6949Y-3.1949
X7.6988Y-3.3051
X7.7053Y-6.1738
X7.7053Y-6.4246
X7.7126Y-3.6319
X7.7165Y-3.9724
X7.7323Y-3.2126
X7.7362Y-3.2874
X7.7384Y-4.2813
X7.7441Y-3.8543
X7.7441Y-4.4331
X7.7559Y-3.248
X7.7559Y-3.3268
X7.7559Y-6.901
X7.7559Y-7.351
X7.7559Y-7.9246
X7.7559Y-8.3746
X7.7614Y-4.1555
X7.7638Y-4.5827
X7.7953Y-7.4528
X7.7953Y-7.7927
X7.7953Y-8.5079
X7.8268Y-3.5827
X7.8346Y-3.248
X7.8346Y-3.3268
X7.8346Y-6.8321
X7.8346Y-7.4199
X7.8346Y-7.8242
X7.8346Y-8.4764
X7.8583Y-3.9921
X7.874Y-6.8656
X7.874Y-7.3898
X7.874Y-7.8557
X7.874Y-8.4449
X7.8976Y-3.4882
X7.8976Y-3.8701
X7.9055Y-3.8268
X7.9134Y-3.3268
X7.9134Y-7.8892
X7.9134Y-8.4134
X7.9291Y-4.122
X7.9398Y-1.8535
X7.9398Y-1.9039
X7.9398Y-1.9539
X7.9398Y-2.0035
X7.9398Y-2.0535
X7.9398Y-2.1035
X7.9398Y-2.1535
X7.9398Y-2.2035
X7.9398Y-2.2539
X7.9398Y-2.3039
X7.9429Y-3.7726
X7.9439Y-3.7224
X7.9449Y-3.9222
X7.9449Y-4.0226
X7.9451Y-5.6337
X7.9451Y-5.7837
X7.9455Y-5.9337
X7.9459Y-3.6722
X7.9459Y-3.8228
X7.9459Y-3.872
X7.9459Y-3.9724
X7.9459Y-4.0728
X7.9459Y-5.5837
X7.9463Y-5.6837
X7.9463Y-5.7337
X7.9467Y-5.8837
X7.947Y-5.5337
X7.9478Y-5.8337
X7.9482Y-5.4837
X7.9685Y-4.4488
X8.002Y-4.2618
X8.0177Y-1.6024
X8.0315Y-6.8701
X8.0315Y-7.3622
X8.0315Y-7.8937
X8.0315Y-8.3858
X8.0551Y-3.4488
X8.0866Y-3.5236
X8.1063Y-4.2598
X8.1189Y-2.3421
X8.1496Y-3.5827
X8.1902Y-1.9035
X8.1902Y-1.9535
X8.1902Y-2.0039
X8.1902Y-2.0535
X8.1902Y-2.1035
X8.1902Y-2.1535
X8.1902Y-2.2035
X8.1902Y-2.2535
X8.1939Y-5.5837
X8.1943Y-5.7337
X8.1951Y-5.5337
X8.1951Y-5.8837
X8.1955Y-5.6837
X8.1959Y-3.9232
X8.1959Y-3.9724
X8.1959Y-4.0226
X8.1959Y-4.0728
X8.1959Y-5.8337
X8.1963Y-5.4837
X8.1963Y-5.9337
X8.1967Y-5.6337
X8.1967Y-5.7837
X8.1969Y-3.7224
X8.1969Y-3.8228
X8.2035Y-3.8728
X8.2037Y-3.7726
X8.2087Y-3.6732
X8.212Y-4.1226
X8.2283Y-6.8701
X8.2283Y-7.3622
X8.2283Y-7.8937
X8.2283Y-8.3858
X8.4252Y-6.8701
X8.4252Y-7.3622
X8.4252Y-7.8937
X8.4252Y-8.3858
X8.5738Y-3.9226
X8.575Y-5.6337
X8.575Y-5.7837
X8.5754Y-5.4837
X8.5754Y-5.9337
X8.5756Y-1.8614
X8.5756Y-1.9118
X8.5756Y-1.9614
X8.5756Y-2.0114
X8.5756Y-2.0614
X8.5756Y-2.1114
X8.5756Y-2.1614
X8.5756Y-2.2118
X8.5756Y-2.2618
X8.5756Y-2.3118
X8.5758Y-5.5837
X8.5762Y-5.7337
X8.5766Y-5.8837
X8.577Y-5.5337
X8.5774Y-5.6837
X8.5778Y-5.8337
X8.622Y-6.8701
X8.622Y-7.3622
X8.622Y-7.8937
X8.622Y-8.3858
X8.7992Y-6.2874
X8.8189Y-6.8701
X8.8189Y-7.3622
X8.8189Y-7.8937
X8.8189Y-8.3858
X8.8238Y-5.5837
X8.8238Y-5.8337
X8.8242Y-5.6837
X8.825Y-5.5337
X8.825Y-5.8837
X8.8254Y-5.7337
X8.826Y-1.8618
X8.826Y-1.9122
X8.826Y-1.9614
X8.826Y-2.0118
X8.826Y-2.0618
X8.826Y-2.1118
X8.826Y-2.1618
X8.826Y-2.2118
X8.826Y-2.2618
X8.826Y-2.3118
X8.8262Y-5.4837
X8.8262Y-5.9337
X8.8266Y-5.6337
X8.8266Y-5.7837
X8.8417Y-1.5929
X8.9055Y-1.9213
X8.9087Y-1.5669
X8.9654Y-1.9984
X8.9677Y-2.1894
X9.0157Y-6.8701
X9.0157Y-7.3622
X9.0157Y-7.8937
X9.0157Y-8.3858
X9.0413Y-1.952
X9.0618Y-2.0047
X9.0663Y-6.1738
X9.0663Y-6.4246
X9.0768Y-2.1894
X9.1098Y-2.2776
X9.1157Y-2.224
X9.1163Y-6.175
X9.1163Y-6.4234
X9.1224Y-2.4665
X9.126Y-3.7126
X9.1303Y-2.3638
X9.1313Y-2.0628
X9.1315Y-1.9902
X9.1335Y-2.172
X9.1472Y-1.8661
X9.1559Y-1.4087
X9.1663Y-6.1742
X9.1663Y-6.4242
X9.1913Y-2.3642
X9.1996Y-1.602
X9.2039Y-2.172
X9.2063Y-2.7012
X9.2126Y-6.8701
X9.2126Y-7.3622
X9.2126Y-7.8937
X9.2126Y-8.3858
X9.2163Y-6.1734
X9.2163Y-6.425
X9.2307Y-2.1539
X9.2413Y-1.602
X9.2453Y-2.3551
X9.2598Y-2.1669
X9.2663Y-6.1746
X9.2663Y-6.4238
X9.2913Y-1.3787
X9.2913Y-1.7114
X9.3163Y-6.1746
X9.3163Y-6.4238
X9.3185Y-2.7622
X9.3244Y-2.0661
X9.3283Y-2.4079
X9.3413Y-1.3787
X9.3413Y-1.7114
X9.3638Y-2.8075
X9.3663Y-6.1734
X9.3663Y-6.4215
X9.3913Y-1.7114
X9.4094Y-6.8701
X9.4094Y-7.3622
X9.4094Y-7.8937
X9.4094Y-8.3858
X9.4163Y-6.1742
X9.4163Y-6.4242
X9.4327Y-1.4089
X9.437Y-1.561
X9.437Y-1.711
X9.4433Y-2.4933
X9.4663Y-6.1754
X9.4663Y-6.4234
X9.4673Y-2.1799
X9.4882Y-2.5382
X9.5047Y-2.2433
X9.5047Y-2.3295
X9.5163Y-6.1738
X9.5163Y-6.4246
X9.5488Y-2.35
X9.6063Y-6.8701
X9.6063Y-7.3622
X9.6063Y-7.8937
X9.6063Y-8.3858
X9.648Y-2.3181
X9.7374Y-2.3433
X9.7561Y-5.6337
X9.7561Y-5.7837
X9.7565Y-5.9337
X9.7567Y-1.8618
X9.7567Y-1.9114
X9.7567Y-1.9618
X9.7567Y-2.0114
X9.7567Y-2.0618
X9.7567Y-2.1118
X9.7567Y-2.1618
X9.7567Y-2.2118
X9.7567Y-2.2618
X9.7567Y-2.3114
X9.7569Y-5.5837
X9.7573Y-5.6837
X9.7573Y-5.7337
X9.7577Y-5.8837
X9.7581Y-5.5337
X9.7589Y-5.8337
X9.7593Y-5.4837
X9.8031Y-6.8701
X9.8031Y-7.3622
X9.8031Y-7.8937
X9.8031Y-8.3858
X9.9248Y-2.4917
X9.9606Y-6.8504
X9.9606Y-7.4016
X9.9606Y-7.874
X9.9606Y-8.4252
X9.9685Y-6.9016
X9.9685Y-7.3504
X10.0049Y-5.5837
X10.0053Y-3.8726
X10.0053Y-5.7337
X10.0061Y-5.5337
X10.0061Y-5.8837
X10.0065Y-3.9226
X10.0065Y-5.6837
X10.0069Y-2.2618
X10.0069Y-4.0226
X10.0069Y-5.8337
X10.0071Y-1.8618
X10.0071Y-1.9118
X10.0071Y-1.9614
X10.0071Y-2.0118
X10.0071Y-2.0614
X10.0071Y-2.1118
X10.0071Y-2.1618
X10.0071Y-2.2114
X10.0071Y-2.3118
X10.0073Y-5.4837
X10.0073Y-5.9337
X10.0077Y-3.8226
X10.0077Y-3.9726
X10.0077Y-5.6337
X10.0077Y-5.7837
X10.0945Y-7.0354
X10.0945Y-7.0866
X10.0945Y-7.1378
X10.0945Y-7.189
X10.0945Y-7.2402
X10.0945Y-7.9606
X10.0945Y-8.0118
X10.0945Y-8.063
X10.0945Y-8.1102
X10.0945Y-8.1614
X10.0945Y-8.2126
X10.0945Y-8.2638
X10.0945Y-8.311
X10.1181Y-6.9291
X10.1181Y-7.3228
X10.1181Y-7.9134
X10.1181Y-8.3858
T4
X1.5361Y-8.0065
X1.5709Y-8.0413
X1.7126Y-7.185
X1.7618Y-7.185
X1.811Y-7.185
X1.8602Y-7.185
X1.9094Y-7.185
X1.9587Y-7.185
X2.0079Y-7.185
X2.0571Y-7.185
X2.1063Y-7.185
X2.1555Y-7.185
X2.2047Y-7.185
X2.2539Y-7.185
X2.3031Y-7.185
X2.3524Y-7.185
X2.5243Y-8.0368
X2.5591Y-8.002
X7.1014Y-5.374
X7.1506Y-5.374
X7.1998Y-5.374
X7.249Y-5.374
X7.4065Y-5.374
X7.4557Y-5.374
X7.5049Y-5.374
X7.5541Y-5.374
X7.7116Y-5.374
X7.7608Y-5.374
X7.81Y-5.374
X7.8593Y-5.374
X8.9124Y-5.374
X8.9616Y-5.374
X9.0108Y-5.374
X9.06Y-5.374
X9.2175Y-5.374
X9.2667Y-5.374
X9.3159Y-5.374
X9.3652Y-5.374
X9.5226Y-5.374
X9.5719Y-5.374
X9.6211Y-5.374
X9.6703Y-5.374
T6
X7.6441Y-6.901
X7.6441Y-6.951
X7.6441Y-7.001
X7.6441Y-7.051
X7.6441Y-7.101
X7.6441Y-7.151
X7.6441Y-7.201
X7.6441Y-7.251
X7.6441Y-7.301
X7.6441Y-7.351
X7.6441Y-7.9246
X7.6441Y-7.9746
X7.6441Y-8.0246
X7.6441Y-8.0746
X7.6441Y-8.1246
X7.6441Y-8.1746
X7.6441Y-8.2246
X7.6441Y-8.2746
X7.6441Y-8.3246
X7.6441Y-8.3746
X7.6941Y-6.901
X7.6941Y-6.951
X7.6941Y-7.001
X7.6941Y-7.051
X7.6941Y-7.101
X7.6941Y-7.151
X7.6941Y-7.201
X7.6941Y-7.251
X7.6941Y-7.301
X7.6941Y-7.351
X7.6941Y-7.9246
X7.6941Y-7.9746
X7.6941Y-8.0246
X7.6941Y-8.0746
X7.6941Y-8.1246
X7.6941Y-8.1746
X7.6941Y-8.2246
X7.6941Y-8.2746
X7.6941Y-8.3246
X7.6941Y-8.3746
T8
X10.0606Y-6.841
X10.0606Y-7.411
X10.0606Y-7.8646
X10.0606Y-8.4346
X10.1492Y-6.841
X10.1492Y-7.411
X10.1492Y-7.8646
X10.1492Y-8.4346
T9
X1.7717Y-5.5118
X1.7717Y-5.9055
X1.8504Y-5.5118
X1.8504Y-5.9055
X1.9291Y-5.5118
X1.9291Y-5.9055
X2.0079Y-5.5118
X2.0079Y-5.9055
X2.0866Y-5.5118
X2.0866Y-5.9055
X2.1654Y-5.5118
X2.1654Y-5.9055
X2.2441Y-5.5118
X2.2441Y-5.9055
X2.3228Y-5.5118
X2.3228Y-5.9055
X3.937Y-7.063
X4.0157Y-7.063
X4.0945Y-7.063
X4.1732Y-7.063
X5.5512Y-5.5315
X5.6299Y-5.5315
X5.6339Y-7.3425
X5.6339Y-7.4213
X5.6339Y-7.6181
X5.6339Y-7.6969
X5.6339Y-7.8937
X5.6339Y-7.9724
X5.6339Y-8.1693
X5.6339Y-8.248
X5.7087Y-5.5315
X5.7874Y-5.5315
X5.8858Y-7.0906
X5.9646Y-7.0906
X6.1614Y-7.0906
X6.2402Y-7.0906
X6.437Y-7.0906
X6.5157Y-7.0906
X6.7126Y-7.0906
X6.7913Y-7.0906
X8.8346Y-4.3465
X8.8583Y-3.5
X8.9134Y-4.3465
X8.937Y-3.5
X9.0157Y-3.5
X9.0945Y-3.5
X9.1102Y-4.2598
X9.1102Y-4.5118
X9.189Y-4.2598
X9.189Y-4.5118
X9.315Y-3.5
X9.3937Y-3.5
X9.3937Y-4.2598
X9.3937Y-4.5118
X9.4724Y-4.2598
X9.4724Y-4.5118
X9.6142Y-3.5
X9.6693Y-4.3465
X9.6929Y-3.5
X9.748Y-4.3465
T10
X1.765Y-3.3122
X3.576Y-3.3122
X5.387Y-3.3122
X9.8425Y-1.6732
T11
X5.7843Y-8.5591
X5.8843Y-8.5591
X5.9843Y-8.5591
X6.0843Y-8.5591
T5
X3.2675Y-2.4366G85X3.287Y-2.4172
G05
X3.5Y-2.6691G85X3.5195Y-2.6496
G05
X6.5049Y-8.6161G85X6.5049Y-8.6437
G05
X6.8337Y-8.6161G85X6.8337Y-8.6437
G05
T7
X3.4123Y-2.4004G85X3.4179Y-2.3949
G05
X3.5362Y-2.5243G85X3.5418Y-2.5188
G05
X6.5817Y-8.5079G85X6.5817Y-8.5157
G05
X6.7569Y-8.5079G85X6.7569Y-8.5157
G05
T10
X8.8583Y-2.3839G85X8.8583Y-2.561
G05
X9.7244Y-1.6122G85X9.7244Y-1.7894
G05
T0
M30
