G04 #@! TF.FileFunction,Copper,L1,Top,Signal*
%FSLAX46Y46*%
G04 Gerber Fmt 4.6, Leading zero omitted, Abs format (unit mm)*
G04 Created by KiCad (PCBNEW 4.0.2+e4-6225~38~ubuntu14.04.1-stable) date Sun 12 Jun 2016 23:41:07 BST*
%MOMM*%
G01*
G04 APERTURE LIST*
%ADD10C,0.100000*%
%ADD11C,1.600000*%
%ADD12R,2.920000X0.740000*%
%ADD13C,0.700000*%
%ADD14C,0.600000*%
%ADD15C,0.740000*%
%ADD16C,0.350000*%
%ADD17C,0.200000*%
G04 APERTURE END LIST*
D10*
D11*
X107000000Y-95000000D03*
X105000000Y-95000000D03*
X103000000Y-95000000D03*
X101000000Y-95000000D03*
X99000000Y-95000000D03*
X97000000Y-95000000D03*
X95000000Y-95000000D03*
X93000000Y-95000000D03*
D12*
X83285000Y-94285000D03*
X86715000Y-94285000D03*
X83285000Y-95555000D03*
X86715000Y-95555000D03*
X83285000Y-96825000D03*
X86715000Y-96825000D03*
X83285000Y-98095000D03*
X86715000Y-98095000D03*
X83285000Y-99365000D03*
X86715000Y-99365000D03*
X83285000Y-100635000D03*
X86715000Y-100635000D03*
X83285000Y-101905000D03*
X86715000Y-101905000D03*
X83285000Y-103175000D03*
X86715000Y-103175000D03*
X83285000Y-104445000D03*
X86715000Y-104445000D03*
X83285000Y-105715000D03*
X86715000Y-105715000D03*
X113285000Y-94285000D03*
X116715000Y-94285000D03*
X113285000Y-95555000D03*
X116715000Y-95555000D03*
X113285000Y-96825000D03*
X116715000Y-96825000D03*
X113285000Y-98095000D03*
X116715000Y-98095000D03*
X113285000Y-99365000D03*
X116715000Y-99365000D03*
X113285000Y-100635000D03*
X116715000Y-100635000D03*
X113285000Y-101905000D03*
X116715000Y-101905000D03*
X113285000Y-103175000D03*
X116715000Y-103175000D03*
X113285000Y-104445000D03*
X116715000Y-104445000D03*
X113285000Y-105715000D03*
X116715000Y-105715000D03*
D11*
X93000000Y-105000000D03*
X95000000Y-105000000D03*
X97000000Y-105000000D03*
X99000000Y-105000000D03*
X101000000Y-105000000D03*
X103000000Y-105000000D03*
X105000000Y-105000000D03*
X107000000Y-105000000D03*
D13*
X118185000Y-105715000D03*
X118185000Y-94285000D03*
X111815000Y-94285000D03*
X111815000Y-105715000D03*
X88185000Y-94285000D03*
X88185000Y-105715000D03*
X81815000Y-105715000D03*
X81815000Y-94285000D03*
X81845000Y-95555000D03*
X88155000Y-95555000D03*
X81825000Y-96825000D03*
X88175000Y-96825000D03*
X81895000Y-98095000D03*
X81835000Y-99365000D03*
X88165000Y-99365000D03*
X88165000Y-100635000D03*
X81805000Y-101905000D03*
X88195000Y-101905000D03*
X81825000Y-103175000D03*
X88125000Y-103175000D03*
X81845000Y-104445000D03*
X88155000Y-104445000D03*
X118155000Y-95555000D03*
X111845000Y-95555000D03*
X118125000Y-96825000D03*
X111875000Y-96825000D03*
X111805000Y-98095000D03*
D14*
X111025010Y-97474990D03*
D13*
X118195000Y-98095000D03*
X111865000Y-99365000D03*
D14*
X111005001Y-98744999D03*
D13*
X118165000Y-99365000D03*
X111835000Y-100635000D03*
D14*
X111014990Y-99985010D03*
D13*
X118135000Y-100635000D03*
X111805000Y-101905000D03*
D14*
X111005010Y-101255010D03*
D13*
X118105000Y-101905000D03*
X111825000Y-103175000D03*
D14*
X111000000Y-102550000D03*
D13*
X118175000Y-103175000D03*
X118145000Y-104445000D03*
X111845000Y-104445000D03*
X88195000Y-98095000D03*
X81865000Y-100635000D03*
D15*
X116715000Y-105715000D02*
X113285000Y-105715000D01*
X116715000Y-105715000D02*
X118185000Y-105715000D01*
X116715000Y-94285000D02*
X118185000Y-94285000D01*
X113285000Y-94285000D02*
X116715000Y-94285000D01*
X113285000Y-94285000D02*
X111815000Y-94285000D01*
X113285000Y-105715000D02*
X111815000Y-105715000D01*
X86715000Y-94285000D02*
X83285000Y-94285000D01*
X86715000Y-94285000D02*
X88185000Y-94285000D01*
X86715000Y-105715000D02*
X88185000Y-105715000D01*
X83285000Y-105715000D02*
X86715000Y-105715000D01*
X83285000Y-105715000D02*
X81815000Y-105715000D01*
X83285000Y-94285000D02*
X81815000Y-94285000D01*
X83285000Y-95555000D02*
X81845000Y-95555000D01*
X86715000Y-95555000D02*
X88155000Y-95555000D01*
X83285000Y-96825000D02*
X81825000Y-96825000D01*
X86715000Y-96825000D02*
X88175000Y-96825000D01*
X83285000Y-98095000D02*
X81895000Y-98095000D01*
X83285000Y-99365000D02*
X81835000Y-99365000D01*
X86715000Y-99365000D02*
X88165000Y-99365000D01*
X86715000Y-100635000D02*
X88165000Y-100635000D01*
X83285000Y-101905000D02*
X81805000Y-101905000D01*
X86715000Y-101905000D02*
X88195000Y-101905000D01*
X83285000Y-103175000D02*
X81825000Y-103175000D01*
X86715000Y-103175000D02*
X88125000Y-103175000D01*
X83285000Y-104445000D02*
X81845000Y-104445000D01*
X86715000Y-104445000D02*
X88155000Y-104445000D01*
D16*
X111845000Y-95555000D02*
X107555000Y-95555000D01*
X107555000Y-95555000D02*
X107000000Y-95000000D01*
D15*
X113285000Y-95555000D02*
X116715000Y-95555000D01*
X116715000Y-95555000D02*
X118155000Y-95555000D01*
X113285000Y-95555000D02*
X111845000Y-95555000D01*
D16*
X111875000Y-96825000D02*
X111400000Y-96350000D01*
X111400000Y-96350000D02*
X106350000Y-96350000D01*
X106350000Y-96350000D02*
X105000000Y-95000000D01*
D15*
X113285000Y-96825000D02*
X116715000Y-96825000D01*
X116715000Y-96825000D02*
X118125000Y-96825000D01*
X113285000Y-96825000D02*
X111875000Y-96825000D01*
X113285000Y-98095000D02*
X111805000Y-98095000D01*
D16*
X111025010Y-97474990D02*
X105474990Y-97474990D01*
X105474990Y-97474990D02*
X103000000Y-95000000D01*
D17*
X111025010Y-97474990D02*
X115024990Y-97474990D01*
X115024990Y-97474990D02*
X115645000Y-98095000D01*
X115645000Y-98095000D02*
X116715000Y-98095000D01*
D15*
X116715000Y-98095000D02*
X118195000Y-98095000D01*
X113285000Y-99365000D02*
X111865000Y-99365000D01*
D16*
X111005001Y-98744999D02*
X102744999Y-98744999D01*
X102744999Y-98744999D02*
X99000000Y-95000000D01*
D17*
X115665000Y-99365000D02*
X115044999Y-98744999D01*
X115044999Y-98744999D02*
X111005001Y-98744999D01*
X116715000Y-99365000D02*
X115665000Y-99365000D01*
D15*
X116715000Y-99365000D02*
X118165000Y-99365000D01*
X113285000Y-100635000D02*
X111835000Y-100635000D01*
D16*
X111014990Y-99985010D02*
X99985010Y-99985010D01*
X99985010Y-99985010D02*
X95000000Y-95000000D01*
D17*
X115635000Y-100635000D02*
X114985010Y-99985010D01*
X114985010Y-99985010D02*
X111014990Y-99985010D01*
X116715000Y-100635000D02*
X115635000Y-100635000D01*
D15*
X116715000Y-100635000D02*
X118135000Y-100635000D01*
X113285000Y-101905000D02*
X111805000Y-101905000D01*
D16*
X111005010Y-101255010D02*
X96744990Y-101255010D01*
X96744990Y-101255010D02*
X93000000Y-105000000D01*
D17*
X115655000Y-101905000D02*
X115005010Y-101255010D01*
X115005010Y-101255010D02*
X111005010Y-101255010D01*
X116715000Y-101905000D02*
X115655000Y-101905000D01*
D15*
X116715000Y-101905000D02*
X118105000Y-101905000D01*
D16*
X101000000Y-105000000D02*
X103000000Y-103000000D01*
X103000000Y-103000000D02*
X110300000Y-103000000D01*
X110300000Y-103000000D02*
X110700000Y-103400000D01*
X110700000Y-103400000D02*
X111600000Y-103400000D01*
X111600000Y-103400000D02*
X111825000Y-103175000D01*
X111700000Y-103300000D02*
X111825000Y-103175000D01*
D15*
X113285000Y-103175000D02*
X111825000Y-103175000D01*
D16*
X97000000Y-105000000D02*
X99900000Y-102100000D01*
X99900000Y-102100000D02*
X110550000Y-102100000D01*
X110550000Y-102100000D02*
X111000000Y-102550000D01*
D17*
X115050000Y-102550000D02*
X111000000Y-102550000D01*
X115675000Y-103175000D02*
X115050000Y-102550000D01*
X116715000Y-103175000D02*
X115675000Y-103175000D01*
D15*
X116715000Y-103175000D02*
X118175000Y-103175000D01*
D16*
X110000000Y-103700000D02*
X110745000Y-104445000D01*
X110745000Y-104445000D02*
X111845000Y-104445000D01*
X106300000Y-103700000D02*
X110000000Y-103700000D01*
X105000000Y-105000000D02*
X106300000Y-103700000D01*
D15*
X113285000Y-104445000D02*
X116715000Y-104445000D01*
X116715000Y-104445000D02*
X118145000Y-104445000D01*
X113285000Y-104445000D02*
X111845000Y-104445000D01*
X86715000Y-98095000D02*
X88195000Y-98095000D01*
M02*
