M48
;DRILL file {KiCad 4.0.2+e4-6225~38~ubuntu14.04.1-stable} date Sun 12 Jun 2016 23:41:08 BST
;FORMAT={-:-/ absolute / metric / decimal}
FMAT,2
METRIC,TZ
T1C0.300
T2C0.400
T3C0.800
%
G90
G05
M71
T1
X111.Y-102.55
X111.005Y-98.745
X111.005Y-101.255
X111.015Y-99.985
X111.025Y-97.475
T2
X81.805Y-101.905
X81.815Y-94.285
X81.815Y-105.715
X81.825Y-96.825
X81.825Y-103.175
X81.835Y-99.365
X81.845Y-95.555
X81.845Y-104.445
X81.865Y-100.635
X81.895Y-98.095
X88.125Y-103.175
X88.155Y-95.555
X88.155Y-104.445
X88.165Y-99.365
X88.165Y-100.635
X88.175Y-96.825
X88.185Y-94.285
X88.185Y-105.715
X88.195Y-98.095
X88.195Y-101.905
X111.805Y-98.095
X111.805Y-101.905
X111.815Y-94.285
X111.815Y-105.715
X111.825Y-103.175
X111.835Y-100.635
X111.845Y-95.555
X111.845Y-104.445
X111.865Y-99.365
X111.875Y-96.825
X118.105Y-101.905
X118.125Y-96.825
X118.135Y-100.635
X118.145Y-104.445
X118.155Y-95.555
X118.165Y-99.365
X118.175Y-103.175
X118.185Y-94.285
X118.185Y-105.715
X118.195Y-98.095
T3
X93.Y-95.
X93.Y-105.
X95.Y-95.
X95.Y-105.
X97.Y-95.
X97.Y-105.
X99.Y-95.
X99.Y-105.
X101.Y-95.
X101.Y-105.
X103.Y-95.
X103.Y-105.
X105.Y-95.
X105.Y-105.
X107.Y-95.
X107.Y-105.
T0
M30
