G04 #@! TF.FileFunction,Copper,L2,Bot,Signal*
%FSLAX46Y46*%
G04 Gerber Fmt 4.6, Leading zero omitted, Abs format (unit mm)*
G04 Created by KiCad (PCBNEW 4.0.2+e4-6225~38~ubuntu14.04.1-stable) date Mon 27 Jun 2016 22:43:40 BST*
%MOMM*%
G01*
G04 APERTURE LIST*
%ADD10C,0.100000*%
%ADD11C,1.600000*%
%ADD12R,2.220000X0.740000*%
%ADD13R,0.620000X0.620000*%
%ADD14C,0.700000*%
%ADD15C,0.800000*%
%ADD16C,0.740000*%
%ADD17C,0.280000*%
%ADD18C,0.200000*%
%ADD19C,0.250000*%
G04 APERTURE END LIST*
D10*
D11*
X107000000Y-95000000D03*
X105000000Y-95000000D03*
X103000000Y-95000000D03*
X101000000Y-95000000D03*
X99000000Y-95000000D03*
X97000000Y-95000000D03*
X95000000Y-95000000D03*
X93000000Y-95000000D03*
D12*
X83635000Y-94285000D03*
X86365000Y-94285000D03*
X83635000Y-95555000D03*
X86365000Y-95555000D03*
X83635000Y-96825000D03*
X86365000Y-96825000D03*
X83635000Y-98095000D03*
X86365000Y-98095000D03*
X83635000Y-99365000D03*
X86365000Y-99365000D03*
X83635000Y-100635000D03*
X86365000Y-100635000D03*
X83635000Y-101905000D03*
X86365000Y-101905000D03*
X83635000Y-103175000D03*
X86365000Y-103175000D03*
X83635000Y-104445000D03*
X86365000Y-104445000D03*
X83635000Y-105715000D03*
X86365000Y-105715000D03*
X113635000Y-94285000D03*
X116365000Y-94285000D03*
X113635000Y-95555000D03*
X116365000Y-95555000D03*
X113635000Y-96825000D03*
X116365000Y-96825000D03*
X113635000Y-98095000D03*
X116365000Y-98095000D03*
X113635000Y-99365000D03*
X116365000Y-99365000D03*
X113635000Y-100635000D03*
X116365000Y-100635000D03*
X113635000Y-101905000D03*
X116365000Y-101905000D03*
X113635000Y-103175000D03*
X116365000Y-103175000D03*
X113635000Y-104445000D03*
X116365000Y-104445000D03*
X113635000Y-105715000D03*
X116365000Y-105715000D03*
D13*
X95000000Y-96700000D03*
X95000000Y-97600000D03*
X99000000Y-96700000D03*
X99000000Y-97600000D03*
X103000000Y-96700000D03*
X103000000Y-97600000D03*
X93000000Y-103250000D03*
X93000000Y-102350000D03*
X105000000Y-103250000D03*
X105000000Y-102350000D03*
X101000000Y-103250000D03*
X101000000Y-102350000D03*
X97000000Y-103250000D03*
X97000000Y-102350000D03*
X105000000Y-96700000D03*
X105000000Y-97600000D03*
X107000000Y-96700000D03*
X107000000Y-97600000D03*
D11*
X93000000Y-105000000D03*
X95000000Y-105000000D03*
X97000000Y-105000000D03*
X99000000Y-105000000D03*
X101000000Y-105000000D03*
X103000000Y-105000000D03*
X105000000Y-105000000D03*
X107000000Y-105000000D03*
D14*
X118185000Y-105715000D03*
X118185000Y-94285000D03*
X111815000Y-94285000D03*
X111815000Y-105715000D03*
X88185000Y-94285000D03*
X88185000Y-105715000D03*
X81815000Y-105715000D03*
X81815000Y-94285000D03*
X81845000Y-95555000D03*
X88155000Y-95555000D03*
X81825000Y-96825000D03*
X88175000Y-96825000D03*
X81895000Y-98095000D03*
X81835000Y-99365000D03*
X88165000Y-99365000D03*
X88165000Y-100635000D03*
X81805000Y-101905000D03*
X88195000Y-101905000D03*
X81825000Y-103175000D03*
X88125000Y-103175000D03*
X81845000Y-104445000D03*
X88155000Y-104445000D03*
X118155000Y-95555000D03*
X111845000Y-95555000D03*
X118125000Y-96825000D03*
X111875000Y-96825000D03*
X111805000Y-98095000D03*
D15*
X110725010Y-97474990D03*
D14*
X118195000Y-98095000D03*
X111865000Y-99365000D03*
D15*
X110755001Y-98744999D03*
D14*
X118165000Y-99365000D03*
X111835000Y-100635000D03*
D15*
X110714990Y-99985010D03*
D14*
X118135000Y-100635000D03*
X111805000Y-101905000D03*
D15*
X110744990Y-101255010D03*
D14*
X118105000Y-101905000D03*
X111825000Y-103175000D03*
D15*
X110750000Y-102550000D03*
D14*
X118175000Y-103175000D03*
X118145000Y-104445000D03*
X111845000Y-104445000D03*
X88195000Y-98095000D03*
X81865000Y-100635000D03*
D16*
X113635000Y-105715000D02*
X111815000Y-105715000D01*
X116365000Y-105715000D02*
X113635000Y-105715000D01*
X118185000Y-105715000D02*
X116365000Y-105715000D01*
X116365000Y-94285000D02*
X118185000Y-94285000D01*
X113635000Y-94285000D02*
X116365000Y-94285000D01*
X111815000Y-94285000D02*
X113635000Y-94285000D01*
X88185000Y-105715000D02*
X81815000Y-105715000D01*
X86365000Y-94285000D02*
X88185000Y-94285000D01*
X83635000Y-94285000D02*
X86365000Y-94285000D01*
X83635000Y-94285000D02*
X81815000Y-94285000D01*
X82345000Y-95555000D02*
X81845000Y-95555000D01*
X83635000Y-95555000D02*
X82345000Y-95555000D01*
X88155000Y-95555000D02*
X86365000Y-95555000D01*
X81825000Y-96825000D02*
X83635000Y-96825000D01*
X86365000Y-96825000D02*
X88175000Y-96825000D01*
X81895000Y-98095000D02*
X83635000Y-98095000D01*
X81835000Y-99365000D02*
X83635000Y-99365000D01*
X86365000Y-99365000D02*
X88165000Y-99365000D01*
X86365000Y-100635000D02*
X88165000Y-100635000D01*
X81805000Y-101905000D02*
X83635000Y-101905000D01*
X86365000Y-101905000D02*
X88195000Y-101905000D01*
X81825000Y-103175000D02*
X83635000Y-103175000D01*
X86365000Y-103175000D02*
X88125000Y-103175000D01*
X81845000Y-104445000D02*
X83635000Y-104445000D01*
X86365000Y-104445000D02*
X88155000Y-104445000D01*
D17*
X107000000Y-96700000D02*
X107000000Y-95000000D01*
D16*
X113635000Y-95555000D02*
X116365000Y-95555000D01*
X111845000Y-95555000D02*
X113635000Y-95555000D01*
X118155000Y-95555000D02*
X116365000Y-95555000D01*
D17*
X105000000Y-96700000D02*
X105000000Y-95000000D01*
D16*
X113635000Y-96825000D02*
X116365000Y-96825000D01*
X116365000Y-96825000D02*
X118125000Y-96825000D01*
X111875000Y-96825000D02*
X113635000Y-96825000D01*
X113635000Y-98095000D02*
X111805000Y-98095000D01*
D18*
X113891816Y-97474990D02*
X111500000Y-97474990D01*
X111500000Y-97474990D02*
X111025010Y-97474990D01*
X110725010Y-97474990D02*
X111500000Y-97474990D01*
D17*
X103000000Y-96700000D02*
X103000000Y-95000000D01*
D18*
X113891825Y-97474999D02*
X113891816Y-97474990D01*
X116365000Y-98095000D02*
X115645000Y-98095000D01*
X115645000Y-98095000D02*
X115024999Y-97474999D01*
X115024999Y-97474999D02*
X113891825Y-97474999D01*
D16*
X118195000Y-98095000D02*
X116365000Y-98095000D01*
X111865000Y-99365000D02*
X113635000Y-99365000D01*
D18*
X114945001Y-98744999D02*
X111400000Y-98744999D01*
X111400000Y-98744999D02*
X111005001Y-98744999D01*
X110755001Y-98744999D02*
X111400000Y-98744999D01*
D17*
X99000000Y-96700000D02*
X99000000Y-95000000D01*
D18*
X115665000Y-99365000D02*
X115044999Y-98744999D01*
X115044999Y-98744999D02*
X114945001Y-98744999D01*
X116365000Y-99365000D02*
X115665000Y-99365000D01*
D16*
X116365000Y-99365000D02*
X118165000Y-99365000D01*
X113635000Y-100635000D02*
X111835000Y-100635000D01*
D18*
X114985010Y-99985010D02*
X111400000Y-99985010D01*
X111400000Y-99985010D02*
X111014990Y-99985010D01*
X110714990Y-99985010D02*
X111400000Y-99985010D01*
D17*
X95000000Y-96700000D02*
X95000000Y-95000000D01*
D18*
X115635000Y-100635000D02*
X114985010Y-99985010D01*
X116365000Y-100635000D02*
X115635000Y-100635000D01*
D16*
X118135000Y-100635000D02*
X116365000Y-100635000D01*
X111805000Y-101905000D02*
X113635000Y-101905000D01*
D18*
X115005010Y-101255010D02*
X111500000Y-101255010D01*
X111500000Y-101255010D02*
X111005010Y-101255010D01*
X110744990Y-101255010D02*
X111500000Y-101255010D01*
D17*
X93000000Y-103250000D02*
X93000000Y-105000000D01*
D18*
X115655000Y-101905000D02*
X115005010Y-101255010D01*
X116365000Y-101905000D02*
X115655000Y-101905000D01*
D16*
X116365000Y-101905000D02*
X118105000Y-101905000D01*
D17*
X101000000Y-103250000D02*
X101000000Y-105000000D01*
D16*
X113635000Y-103175000D02*
X111825000Y-103175000D01*
D18*
X115050000Y-102550000D02*
X111400000Y-102550000D01*
X111400000Y-102550000D02*
X111000000Y-102550000D01*
X110750000Y-102550000D02*
X111400000Y-102550000D01*
D17*
X97000000Y-103250000D02*
X97000000Y-105000000D01*
D18*
X115675000Y-103175000D02*
X115050000Y-102550000D01*
X116365000Y-103175000D02*
X115675000Y-103175000D01*
D16*
X118175000Y-103175000D02*
X116365000Y-103175000D01*
D17*
X105000000Y-103250000D02*
X105000000Y-105000000D01*
D16*
X113635000Y-104445000D02*
X116365000Y-104445000D01*
X116365000Y-104445000D02*
X118145000Y-104445000D01*
X111845000Y-104445000D02*
X113635000Y-104445000D01*
X88195000Y-98095000D02*
X86365000Y-98095000D01*
D18*
X83635000Y-100635000D02*
X84415000Y-100635000D01*
D16*
X83635000Y-100635000D02*
X81865000Y-100635000D01*
D19*
X85013675Y-87450000D02*
X114965441Y-87450000D01*
X84851211Y-87649200D02*
X115104607Y-87649200D01*
X84688747Y-87848400D02*
X115243773Y-87848400D01*
X84537320Y-88047600D02*
X115382939Y-88047600D01*
X84411581Y-88246800D02*
X115522106Y-88246800D01*
X84285843Y-88446000D02*
X115661272Y-88446000D01*
X84160104Y-88645200D02*
X115800438Y-88645200D01*
X84034366Y-88844400D02*
X115939605Y-88844400D01*
X83908627Y-89043600D02*
X116078771Y-89043600D01*
X83782889Y-89242800D02*
X116217937Y-89242800D01*
X83657150Y-89442000D02*
X116357104Y-89442000D01*
X83531412Y-89641200D02*
X116496270Y-89641200D01*
X83405673Y-89840400D02*
X116635436Y-89840400D01*
X83279935Y-90039600D02*
X116774602Y-90039600D01*
X83154196Y-90238800D02*
X116913769Y-90238800D01*
X83028458Y-90438000D02*
X117048663Y-90438000D01*
X82902720Y-90637200D02*
X117136268Y-90637200D01*
X82776981Y-90836400D02*
X117223873Y-90836400D01*
X82651243Y-91035600D02*
X117311478Y-91035600D01*
X82527112Y-91234800D02*
X117399083Y-91234800D01*
X82450403Y-91434000D02*
X117486688Y-91434000D01*
X82373694Y-91633200D02*
X117574293Y-91633200D01*
X82296986Y-91832400D02*
X84537498Y-91832400D01*
X85464094Y-91832400D02*
X114537498Y-91832400D01*
X115464094Y-91832400D02*
X117661898Y-91832400D01*
X82220277Y-92031600D02*
X84283854Y-92031600D01*
X85715345Y-92031600D02*
X91046522Y-92031600D01*
X91950296Y-92031600D02*
X108046522Y-92031600D01*
X108950296Y-92031600D02*
X114283854Y-92031600D01*
X115715345Y-92031600D02*
X117749503Y-92031600D01*
X82143568Y-92230800D02*
X84138132Y-92230800D01*
X85862217Y-92230800D02*
X90789777Y-92230800D01*
X92209586Y-92230800D02*
X107789777Y-92230800D01*
X109209586Y-92230800D02*
X114138132Y-92230800D01*
X115862217Y-92230800D02*
X117837108Y-92230800D01*
X82066860Y-92430000D02*
X84059503Y-92430000D01*
X85941501Y-92430000D02*
X90640618Y-92430000D01*
X92358363Y-92430000D02*
X107640618Y-92430000D01*
X109358363Y-92430000D02*
X114059503Y-92430000D01*
X115941501Y-92430000D02*
X117924713Y-92430000D01*
X81990151Y-92629200D02*
X84025782Y-92629200D01*
X85974625Y-92629200D02*
X90560736Y-92629200D01*
X92440353Y-92629200D02*
X107560736Y-92629200D01*
X109440353Y-92629200D02*
X114025782Y-92629200D01*
X115974625Y-92629200D02*
X118012318Y-92629200D01*
X81913442Y-92828400D02*
X84033155Y-92828400D01*
X85969582Y-92828400D02*
X90525863Y-92828400D01*
X92474706Y-92828400D02*
X107525863Y-92828400D01*
X109474706Y-92828400D02*
X114033155Y-92828400D01*
X115969582Y-92828400D02*
X118099923Y-92828400D01*
X81836734Y-93027600D02*
X84083001Y-93027600D01*
X85919233Y-93027600D02*
X90532090Y-93027600D01*
X92470900Y-93027600D02*
X107532090Y-93027600D01*
X109470900Y-93027600D02*
X114083001Y-93027600D01*
X115919233Y-93027600D02*
X118187528Y-93027600D01*
X81760025Y-93226800D02*
X84182739Y-93226800D01*
X85818087Y-93226800D02*
X90580705Y-93226800D01*
X92421815Y-93226800D02*
X107580705Y-93226800D01*
X109421815Y-93226800D02*
X114182739Y-93226800D01*
X115818087Y-93226800D02*
X118275133Y-93226800D01*
X81683316Y-93426000D02*
X82333659Y-93426000D01*
X83464750Y-93426000D02*
X83805250Y-93426000D01*
X86194750Y-93426000D02*
X86535250Y-93426000D01*
X87666342Y-93426000D02*
X90679001Y-93426000D01*
X92322178Y-93426000D02*
X107679001Y-93426000D01*
X109322178Y-93426000D02*
X112333659Y-93426000D01*
X113464750Y-93426000D02*
X113805250Y-93426000D01*
X116194750Y-93426000D02*
X116535250Y-93426000D01*
X117666342Y-93426000D02*
X118362738Y-93426000D01*
X81606608Y-93625200D02*
X82087226Y-93625200D01*
X83560000Y-93625200D02*
X83710000Y-93625200D01*
X86290000Y-93625200D02*
X86440000Y-93625200D01*
X87912775Y-93625200D02*
X90844848Y-93625200D01*
X92152349Y-93625200D02*
X107844848Y-93625200D01*
X109152349Y-93625200D02*
X112087226Y-93625200D01*
X113560000Y-93625200D02*
X113710000Y-93625200D01*
X116290000Y-93625200D02*
X116440000Y-93625200D01*
X117912775Y-93625200D02*
X118450343Y-93625200D01*
X81529899Y-93824400D02*
X82007736Y-93824400D01*
X83560000Y-93824400D02*
X83710000Y-93824400D01*
X86290000Y-93824400D02*
X86440000Y-93824400D01*
X87992265Y-93824400D02*
X91180387Y-93824400D01*
X91813038Y-93824400D02*
X92384276Y-93824400D01*
X93611269Y-93824400D02*
X94891807Y-93824400D01*
X94925357Y-93824400D02*
X96384276Y-93824400D01*
X97611269Y-93824400D02*
X98891807Y-93824400D01*
X98925357Y-93824400D02*
X100384276Y-93824400D01*
X101611269Y-93824400D02*
X102891807Y-93824400D01*
X102925357Y-93824400D02*
X104891807Y-93824400D01*
X104925357Y-93824400D02*
X106891807Y-93824400D01*
X106925357Y-93824400D02*
X108180387Y-93824400D01*
X108813038Y-93824400D02*
X112007736Y-93824400D01*
X113560000Y-93824400D02*
X113710000Y-93824400D01*
X116290000Y-93824400D02*
X116440000Y-93824400D01*
X117992265Y-93824400D02*
X118537948Y-93824400D01*
X81453191Y-94023600D02*
X82000000Y-94023600D01*
X83560000Y-94023600D02*
X83710000Y-94023600D01*
X86290000Y-94023600D02*
X86440000Y-94023600D01*
X88000000Y-94023600D02*
X92231554Y-94023600D01*
X93768447Y-94023600D02*
X94346133Y-94023600D01*
X95653760Y-94023600D02*
X96231554Y-94023600D01*
X97768447Y-94023600D02*
X98346133Y-94023600D01*
X99653760Y-94023600D02*
X100231554Y-94023600D01*
X101768447Y-94023600D02*
X102346133Y-94023600D01*
X103653760Y-94023600D02*
X104346133Y-94023600D01*
X105653760Y-94023600D02*
X106346133Y-94023600D01*
X107653760Y-94023600D02*
X112000000Y-94023600D01*
X113560000Y-94023600D02*
X113710000Y-94023600D01*
X116290000Y-94023600D02*
X116440000Y-94023600D01*
X118000000Y-94023600D02*
X118601716Y-94023600D01*
X81376482Y-94222800D02*
X92049817Y-94222800D01*
X92116734Y-94222800D02*
X92328866Y-94222800D01*
X93671134Y-94222800D02*
X93883266Y-94222800D01*
X93950184Y-94222800D02*
X94114200Y-94222800D01*
X95884209Y-94222800D02*
X96049817Y-94222800D01*
X96116734Y-94222800D02*
X96328866Y-94222800D01*
X97671134Y-94222800D02*
X97883266Y-94222800D01*
X97950184Y-94222800D02*
X98114200Y-94222800D01*
X99884209Y-94222800D02*
X100049817Y-94222800D01*
X100116734Y-94222800D02*
X100328866Y-94222800D01*
X101671134Y-94222800D02*
X101883266Y-94222800D01*
X101950184Y-94222800D02*
X102114200Y-94222800D01*
X103884209Y-94222800D02*
X104114200Y-94222800D01*
X105884209Y-94222800D02*
X106114200Y-94222800D01*
X107884209Y-94222800D02*
X118646021Y-94222800D01*
X81299774Y-94422000D02*
X82069250Y-94422000D01*
X87930750Y-94422000D02*
X91807342Y-94422000D01*
X92315934Y-94422000D02*
X92528066Y-94422000D01*
X93471934Y-94422000D02*
X93684066Y-94422000D01*
X96315934Y-94422000D02*
X96528066Y-94422000D01*
X97471934Y-94422000D02*
X97684066Y-94422000D01*
X100315934Y-94422000D02*
X100528066Y-94422000D01*
X101471934Y-94422000D02*
X101684066Y-94422000D01*
X108026736Y-94422000D02*
X112069250Y-94422000D01*
X117930750Y-94422000D02*
X118690325Y-94422000D01*
X81223065Y-94621200D02*
X82000000Y-94621200D01*
X88000000Y-94621200D02*
X91730193Y-94621200D01*
X92515134Y-94621200D02*
X92727266Y-94621200D01*
X93272734Y-94621200D02*
X93484866Y-94621200D01*
X96515134Y-94621200D02*
X96727266Y-94621200D01*
X97272734Y-94621200D02*
X97484866Y-94621200D01*
X100515134Y-94621200D02*
X100727266Y-94621200D01*
X101272734Y-94621200D02*
X101484866Y-94621200D01*
X108114819Y-94621200D02*
X112000000Y-94621200D01*
X118000000Y-94621200D02*
X118734629Y-94621200D01*
X81153059Y-94820400D02*
X81738930Y-94820400D01*
X88257472Y-94820400D02*
X91685227Y-94820400D01*
X92714334Y-94820400D02*
X92926466Y-94820400D01*
X93073534Y-94820400D02*
X93285666Y-94820400D01*
X96714334Y-94820400D02*
X96926466Y-94820400D01*
X97073534Y-94820400D02*
X97285666Y-94820400D01*
X100714334Y-94820400D02*
X100926466Y-94820400D01*
X101073534Y-94820400D02*
X101285666Y-94820400D01*
X108162302Y-94820400D02*
X111738930Y-94820400D01*
X118257472Y-94820400D02*
X118778934Y-94820400D01*
X81118433Y-95019600D02*
X81328349Y-95019600D01*
X88670419Y-95019600D02*
X91669040Y-95019600D01*
X92874334Y-95019600D02*
X93125666Y-95019600D01*
X96874334Y-95019600D02*
X97125666Y-95019600D01*
X100874334Y-95019600D02*
X101125666Y-95019600D01*
X108173167Y-95019600D02*
X111328349Y-95019600D01*
X118670418Y-95019600D02*
X118823238Y-95019600D01*
X81083808Y-95218800D02*
X81183896Y-95218800D01*
X88815892Y-95218800D02*
X91691481Y-95218800D01*
X92675134Y-95218800D02*
X92887266Y-95218800D01*
X93112734Y-95218800D02*
X93324866Y-95218800D01*
X96675134Y-95218800D02*
X96887266Y-95218800D01*
X97112734Y-95218800D02*
X97324866Y-95218800D01*
X100675134Y-95218800D02*
X100887266Y-95218800D01*
X101112734Y-95218800D02*
X101324866Y-95218800D01*
X108155284Y-95218800D02*
X111183896Y-95218800D01*
X118815892Y-95218800D02*
X118867543Y-95218800D01*
X81049182Y-95418000D02*
X81113871Y-95418000D01*
X88887041Y-95418000D02*
X91742600Y-95418000D01*
X92475934Y-95418000D02*
X92688066Y-95418000D01*
X93311934Y-95418000D02*
X93524066Y-95418000D01*
X96475934Y-95418000D02*
X96688066Y-95418000D01*
X97311934Y-95418000D02*
X97524066Y-95418000D01*
X100475934Y-95418000D02*
X100688066Y-95418000D01*
X101311934Y-95418000D02*
X101524066Y-95418000D01*
X108100147Y-95418000D02*
X111113871Y-95418000D01*
X118887041Y-95418000D02*
X118911847Y-95418000D01*
X81014556Y-95617200D02*
X81106152Y-95617200D01*
X88893991Y-95617200D02*
X91825188Y-95617200D01*
X92276734Y-95617200D02*
X92488866Y-95617200D01*
X93511134Y-95617200D02*
X93723266Y-95617200D01*
X96276734Y-95617200D02*
X96488866Y-95617200D01*
X97511134Y-95617200D02*
X97723266Y-95617200D01*
X100276734Y-95617200D02*
X100488866Y-95617200D01*
X101511134Y-95617200D02*
X101723266Y-95617200D01*
X108002608Y-95617200D02*
X111106152Y-95617200D01*
X118893991Y-95617200D02*
X118956151Y-95617200D01*
X80979931Y-95816400D02*
X81149043Y-95816400D01*
X88850238Y-95816400D02*
X92289666Y-95816400D01*
X93710334Y-95816400D02*
X94154876Y-95816400D01*
X95846606Y-95816400D02*
X96289666Y-95816400D01*
X97710334Y-95816400D02*
X98154876Y-95816400D01*
X99846606Y-95816400D02*
X100289666Y-95816400D01*
X101710334Y-95816400D02*
X102154876Y-95816400D01*
X103846606Y-95816400D02*
X104154876Y-95816400D01*
X105846606Y-95816400D02*
X106154876Y-95816400D01*
X107846606Y-95816400D02*
X111149043Y-95816400D01*
X118850238Y-95816400D02*
X119000456Y-95816400D01*
X80945305Y-96015600D02*
X81263954Y-96015600D01*
X88736231Y-96015600D02*
X92244641Y-96015600D01*
X93755358Y-96015600D02*
X94402342Y-96015600D01*
X95592636Y-96015600D02*
X96244641Y-96015600D01*
X97755358Y-96015600D02*
X98402342Y-96015600D01*
X99592636Y-96015600D02*
X100244641Y-96015600D01*
X101755358Y-96015600D02*
X102402342Y-96015600D01*
X103592636Y-96015600D02*
X104402342Y-96015600D01*
X105592636Y-96015600D02*
X106402342Y-96015600D01*
X107592636Y-96015600D02*
X111263954Y-96015600D01*
X118736231Y-96015600D02*
X119044760Y-96015600D01*
X80910679Y-96214800D02*
X81400063Y-96214800D01*
X88601275Y-96214800D02*
X92465183Y-96214800D01*
X93542385Y-96214800D02*
X94359759Y-96214800D01*
X95641331Y-96214800D02*
X96465183Y-96214800D01*
X97542385Y-96214800D02*
X98359759Y-96214800D01*
X99641331Y-96214800D02*
X100465183Y-96214800D01*
X101542385Y-96214800D02*
X102359759Y-96214800D01*
X103641331Y-96214800D02*
X104359759Y-96214800D01*
X105641331Y-96214800D02*
X106359759Y-96214800D01*
X107641331Y-96214800D02*
X111450063Y-96214800D01*
X118551275Y-96214800D02*
X119089065Y-96214800D01*
X80876053Y-96414000D02*
X81204340Y-96414000D01*
X88795925Y-96414000D02*
X94313186Y-96414000D01*
X95686814Y-96414000D02*
X98313186Y-96414000D01*
X99686814Y-96414000D02*
X102313186Y-96414000D01*
X103686814Y-96414000D02*
X104313186Y-96414000D01*
X105686814Y-96414000D02*
X106313186Y-96414000D01*
X107686814Y-96414000D02*
X111254340Y-96414000D01*
X118745925Y-96414000D02*
X119133369Y-96414000D01*
X80841428Y-96613200D02*
X81114408Y-96613200D01*
X88885555Y-96613200D02*
X94313186Y-96613200D01*
X95686814Y-96613200D02*
X98313186Y-96613200D01*
X99686814Y-96613200D02*
X102313186Y-96613200D01*
X103686814Y-96613200D02*
X104313186Y-96613200D01*
X105686814Y-96613200D02*
X106313186Y-96613200D01*
X107686814Y-96613200D02*
X111164408Y-96613200D01*
X118835555Y-96613200D02*
X119177673Y-96613200D01*
X80806802Y-96812400D02*
X81080796Y-96812400D01*
X88918362Y-96812400D02*
X94313186Y-96812400D01*
X95686814Y-96812400D02*
X98313186Y-96812400D01*
X99686814Y-96812400D02*
X102313186Y-96812400D01*
X103686814Y-96812400D02*
X104313186Y-96812400D01*
X105686814Y-96812400D02*
X106313186Y-96812400D01*
X107686814Y-96812400D02*
X110322132Y-96812400D01*
X111128666Y-96812400D02*
X111130797Y-96812400D01*
X118868362Y-96812400D02*
X119221978Y-96812400D01*
X80772176Y-97011600D02*
X81107029Y-97011600D01*
X88893393Y-97011600D02*
X94244609Y-97011600D01*
X95755392Y-97011600D02*
X98244609Y-97011600D01*
X99755392Y-97011600D02*
X102244609Y-97011600D01*
X103755392Y-97011600D02*
X104244609Y-97011600D01*
X105755392Y-97011600D02*
X106244609Y-97011600D01*
X107755392Y-97011600D02*
X110102995Y-97011600D01*
X118843393Y-97011600D02*
X119266282Y-97011600D01*
X80737551Y-97210800D02*
X81190039Y-97210800D01*
X88809285Y-97210800D02*
X94170469Y-97210800D01*
X95829532Y-97210800D02*
X98170469Y-97210800D01*
X99829532Y-97210800D02*
X102170469Y-97210800D01*
X103829532Y-97210800D02*
X104170469Y-97210800D01*
X105829532Y-97210800D02*
X106170469Y-97210800D01*
X107829532Y-97210800D02*
X109995022Y-97210800D01*
X118759285Y-97210800D02*
X119310587Y-97210800D01*
X80702925Y-97410000D02*
X81368693Y-97410000D01*
X88630835Y-97410000D02*
X94181250Y-97410000D01*
X95818750Y-97410000D02*
X98181250Y-97410000D01*
X99818750Y-97410000D02*
X102181250Y-97410000D01*
X103818750Y-97410000D02*
X104181250Y-97410000D01*
X105818750Y-97410000D02*
X106181250Y-97410000D01*
X107818750Y-97410000D02*
X109950809Y-97410000D01*
X118580836Y-97410000D02*
X119354891Y-97410000D01*
X80668299Y-97609200D02*
X81334616Y-97609200D01*
X88755784Y-97609200D02*
X109961663Y-97609200D01*
X118755784Y-97609200D02*
X119399195Y-97609200D01*
X80633674Y-97808400D02*
X81207563Y-97808400D01*
X88881822Y-97808400D02*
X94165000Y-97808400D01*
X94925000Y-97808400D02*
X95075000Y-97808400D01*
X95835000Y-97808400D02*
X98165000Y-97808400D01*
X98925000Y-97808400D02*
X99075000Y-97808400D01*
X99835000Y-97808400D02*
X102165000Y-97808400D01*
X102925000Y-97808400D02*
X103075000Y-97808400D01*
X103835000Y-97808400D02*
X104165000Y-97808400D01*
X104925000Y-97808400D02*
X105075000Y-97808400D01*
X105835000Y-97808400D02*
X106165000Y-97808400D01*
X106925000Y-97808400D02*
X107075000Y-97808400D01*
X107835000Y-97808400D02*
X110023446Y-97808400D01*
X118881822Y-97808400D02*
X119409625Y-97808400D01*
X80599048Y-98007600D02*
X81158658Y-98007600D01*
X88931555Y-98007600D02*
X94174128Y-98007600D01*
X94925000Y-98007600D02*
X95075000Y-98007600D01*
X95825871Y-98007600D02*
X98174128Y-98007600D01*
X98925000Y-98007600D02*
X99075000Y-98007600D01*
X99825871Y-98007600D02*
X102174128Y-98007600D01*
X102925000Y-98007600D02*
X103075000Y-98007600D01*
X103825871Y-98007600D02*
X104174128Y-98007600D01*
X104925000Y-98007600D02*
X105075000Y-98007600D01*
X105825871Y-98007600D02*
X106174128Y-98007600D01*
X106925000Y-98007600D02*
X107075000Y-98007600D01*
X107825871Y-98007600D02*
X110161922Y-98007600D01*
X118931555Y-98007600D02*
X119414282Y-98007600D01*
X80564422Y-98206800D02*
X81160666Y-98206800D01*
X88928778Y-98206800D02*
X94256903Y-98206800D01*
X94925000Y-98206800D02*
X95075000Y-98206800D01*
X95743096Y-98206800D02*
X98256903Y-98206800D01*
X98925000Y-98206800D02*
X99075000Y-98206800D01*
X99743096Y-98206800D02*
X102256903Y-98206800D01*
X102925000Y-98206800D02*
X103075000Y-98206800D01*
X103743096Y-98206800D02*
X104256903Y-98206800D01*
X104925000Y-98206800D02*
X105075000Y-98206800D01*
X105743096Y-98206800D02*
X106256903Y-98206800D01*
X106925000Y-98206800D02*
X107075000Y-98206800D01*
X107743096Y-98206800D02*
X110196869Y-98206800D01*
X118928778Y-98206800D02*
X119418939Y-98206800D01*
X80529797Y-98406000D02*
X81220934Y-98406000D01*
X88869729Y-98406000D02*
X94515557Y-98406000D01*
X94822750Y-98406000D02*
X95177250Y-98406000D01*
X95484442Y-98406000D02*
X98515557Y-98406000D01*
X98822750Y-98406000D02*
X99177250Y-98406000D01*
X99484442Y-98406000D02*
X102515557Y-98406000D01*
X102822750Y-98406000D02*
X103177250Y-98406000D01*
X103484442Y-98406000D02*
X104515557Y-98406000D01*
X104822750Y-98406000D02*
X105177250Y-98406000D01*
X105484442Y-98406000D02*
X106515557Y-98406000D01*
X106822750Y-98406000D02*
X107177250Y-98406000D01*
X107484442Y-98406000D02*
X110057076Y-98406000D01*
X118869729Y-98406000D02*
X119423595Y-98406000D01*
X80506536Y-98605200D02*
X81353834Y-98605200D01*
X88735198Y-98605200D02*
X109992369Y-98605200D01*
X118735198Y-98605200D02*
X119428252Y-98605200D01*
X80511192Y-98804400D02*
X81349247Y-98804400D01*
X88650386Y-98804400D02*
X109979063Y-98804400D01*
X118650386Y-98804400D02*
X119432909Y-98804400D01*
X80515849Y-99003600D02*
X81187522Y-99003600D01*
X88812718Y-99003600D02*
X110023818Y-99003600D01*
X118812718Y-99003600D02*
X119437565Y-99003600D01*
X80520506Y-99202800D02*
X81109054Y-99202800D01*
X88890153Y-99202800D02*
X110127996Y-99202800D01*
X118890153Y-99202800D02*
X119442222Y-99202800D01*
X80525162Y-99402000D02*
X81093858Y-99402000D01*
X88906639Y-99402000D02*
X110202618Y-99402000D01*
X118906639Y-99402000D02*
X119446879Y-99402000D01*
X80529819Y-99601200D02*
X81131627Y-99601200D01*
X88868039Y-99601200D02*
X110038485Y-99601200D01*
X118868039Y-99601200D02*
X119451535Y-99601200D01*
X80534476Y-99800400D02*
X81233693Y-99800400D01*
X88767079Y-99800400D02*
X109961883Y-99800400D01*
X118767079Y-99800400D02*
X119456192Y-99800400D01*
X80539133Y-99999600D02*
X81450280Y-99999600D01*
X88550807Y-99999600D02*
X109939678Y-99999600D01*
X118550807Y-99999600D02*
X119460849Y-99999600D01*
X80543789Y-100198800D02*
X81263583Y-100198800D01*
X88765664Y-100198800D02*
X109966248Y-100198800D01*
X118735664Y-100198800D02*
X119465506Y-100198800D01*
X80548446Y-100398000D02*
X81162209Y-100398000D01*
X88868138Y-100398000D02*
X110059107Y-100398000D01*
X118838138Y-100398000D02*
X119470162Y-100398000D01*
X80553103Y-100597200D02*
X81123445Y-100597200D01*
X88906069Y-100597200D02*
X110237808Y-100597200D01*
X118876069Y-100597200D02*
X119474819Y-100597200D01*
X80557759Y-100796400D02*
X81139612Y-100796400D01*
X88891194Y-100796400D02*
X110119702Y-100796400D01*
X118861194Y-100796400D02*
X119479476Y-100796400D01*
X80562416Y-100995600D02*
X81216864Y-100995600D01*
X88812911Y-100995600D02*
X110012954Y-100995600D01*
X118782911Y-100995600D02*
X119484132Y-100995600D01*
X80567073Y-101194800D02*
X81378661Y-101194800D01*
X88651734Y-101194800D02*
X109970722Y-101194800D01*
X118621734Y-101194800D02*
X119488789Y-101194800D01*
X80571729Y-101394000D02*
X81265464Y-101394000D01*
X88735523Y-101394000D02*
X109982520Y-101394000D01*
X118645523Y-101394000D02*
X119493446Y-101394000D01*
X80576386Y-101593200D02*
X81130703Y-101593200D01*
X88868648Y-101593200D02*
X92413709Y-101593200D01*
X92871950Y-101593200D02*
X93128050Y-101593200D01*
X93586292Y-101593200D02*
X96413709Y-101593200D01*
X96871950Y-101593200D02*
X97128050Y-101593200D01*
X97586292Y-101593200D02*
X100413709Y-101593200D01*
X100871950Y-101593200D02*
X101128050Y-101593200D01*
X101586292Y-101593200D02*
X104413709Y-101593200D01*
X104871950Y-101593200D02*
X105128050Y-101593200D01*
X105586292Y-101593200D02*
X110045319Y-101593200D01*
X118778648Y-101593200D02*
X119470342Y-101593200D01*
X80581043Y-101792400D02*
X81071306Y-101792400D01*
X88929262Y-101792400D02*
X92224304Y-101792400D01*
X92925000Y-101792400D02*
X93075000Y-101792400D01*
X93775697Y-101792400D02*
X96224304Y-101792400D01*
X96925000Y-101792400D02*
X97075000Y-101792400D01*
X97775697Y-101792400D02*
X100224304Y-101792400D01*
X100925000Y-101792400D02*
X101075000Y-101792400D01*
X101775697Y-101792400D02*
X104224304Y-101792400D01*
X104925000Y-101792400D02*
X105075000Y-101792400D01*
X105775697Y-101792400D02*
X110186518Y-101792400D01*
X118839262Y-101792400D02*
X119435717Y-101792400D01*
X80585700Y-101991600D02*
X81068372Y-101991600D01*
X88931426Y-101991600D02*
X92165000Y-101991600D01*
X92925000Y-101991600D02*
X93075000Y-101991600D01*
X93835000Y-101991600D02*
X96165000Y-101991600D01*
X96925000Y-101991600D02*
X97075000Y-101991600D01*
X97835000Y-101991600D02*
X100165000Y-101991600D01*
X100925000Y-101991600D02*
X101075000Y-101991600D01*
X101835000Y-101991600D02*
X104165000Y-101991600D01*
X104925000Y-101991600D02*
X105075000Y-101991600D01*
X105835000Y-101991600D02*
X110212497Y-101991600D01*
X118841426Y-101991600D02*
X119401091Y-101991600D01*
X80590356Y-102190800D02*
X81117760Y-102190800D01*
X88882685Y-102190800D02*
X92212050Y-102190800D01*
X92925000Y-102190800D02*
X93075000Y-102190800D01*
X93787950Y-102190800D02*
X96212050Y-102190800D01*
X96925000Y-102190800D02*
X97075000Y-102190800D01*
X97787950Y-102190800D02*
X100212050Y-102190800D01*
X100925000Y-102190800D02*
X101075000Y-102190800D01*
X101787950Y-102190800D02*
X104212050Y-102190800D01*
X104925000Y-102190800D02*
X105075000Y-102190800D01*
X105787950Y-102190800D02*
X110060734Y-102190800D01*
X118792685Y-102190800D02*
X119366465Y-102190800D01*
X80600627Y-102390000D02*
X81243572Y-102390000D01*
X88756046Y-102390000D02*
X109991662Y-102390000D01*
X118666046Y-102390000D02*
X119331840Y-102390000D01*
X80644931Y-102589200D02*
X81370145Y-102589200D01*
X88580354Y-102589200D02*
X92165000Y-102589200D01*
X93835000Y-102589200D02*
X96165000Y-102589200D01*
X97835000Y-102589200D02*
X100165000Y-102589200D01*
X101835000Y-102589200D02*
X104165000Y-102589200D01*
X105835000Y-102589200D02*
X109974344Y-102589200D01*
X118630354Y-102589200D02*
X119297214Y-102589200D01*
X80689236Y-102788400D02*
X81191147Y-102788400D01*
X88759543Y-102788400D02*
X92180254Y-102788400D01*
X93819745Y-102788400D02*
X96180254Y-102788400D01*
X97819745Y-102788400D02*
X100180254Y-102788400D01*
X101819745Y-102788400D02*
X104180254Y-102788400D01*
X105819745Y-102788400D02*
X110010819Y-102788400D01*
X118809543Y-102788400D02*
X119262588Y-102788400D01*
X80733540Y-102987600D02*
X81106855Y-102987600D01*
X88842736Y-102987600D02*
X92277483Y-102987600D01*
X93722516Y-102987600D02*
X96277483Y-102987600D01*
X97722516Y-102987600D02*
X100277483Y-102987600D01*
X101722516Y-102987600D02*
X104277483Y-102987600D01*
X105722516Y-102987600D02*
X110109977Y-102987600D01*
X118892736Y-102987600D02*
X119227962Y-102987600D01*
X80777844Y-103186800D02*
X81081565Y-103186800D01*
X88869288Y-103186800D02*
X92313186Y-103186800D01*
X93686814Y-103186800D02*
X96313186Y-103186800D01*
X97686814Y-103186800D02*
X100313186Y-103186800D01*
X101686814Y-103186800D02*
X104313186Y-103186800D01*
X105686814Y-103186800D02*
X110308227Y-103186800D01*
X118919288Y-103186800D02*
X119193337Y-103186800D01*
X80822149Y-103386000D02*
X81114210Y-103386000D01*
X88835840Y-103386000D02*
X92313186Y-103386000D01*
X93686814Y-103386000D02*
X96313186Y-103386000D01*
X97686814Y-103386000D02*
X100313186Y-103386000D01*
X101686814Y-103386000D02*
X104313186Y-103386000D01*
X105686814Y-103386000D02*
X111114210Y-103386000D01*
X118885840Y-103386000D02*
X119158711Y-103386000D01*
X80866453Y-103585200D02*
X81203432Y-103585200D01*
X88746092Y-103585200D02*
X92315195Y-103585200D01*
X93683232Y-103585200D02*
X96315195Y-103585200D01*
X97683232Y-103585200D02*
X100315195Y-103585200D01*
X101683232Y-103585200D02*
X104315195Y-103585200D01*
X105683232Y-103585200D02*
X111203432Y-103585200D01*
X118796092Y-103585200D02*
X119124085Y-103585200D01*
X80910758Y-103784400D02*
X81397771Y-103784400D01*
X88550918Y-103784400D02*
X92391089Y-103784400D01*
X93608926Y-103784400D02*
X94459112Y-103784400D01*
X95533256Y-103784400D02*
X96391089Y-103784400D01*
X97608926Y-103784400D02*
X98459112Y-103784400D01*
X99533256Y-103784400D02*
X100391089Y-103784400D01*
X101608926Y-103784400D02*
X102459112Y-103784400D01*
X103533256Y-103784400D02*
X104391089Y-103784400D01*
X105608926Y-103784400D02*
X106459112Y-103784400D01*
X107533256Y-103784400D02*
X111397771Y-103784400D01*
X118600918Y-103784400D02*
X119089460Y-103784400D01*
X80955062Y-103983600D02*
X81264430Y-103983600D01*
X88735402Y-103983600D02*
X92407260Y-103983600D01*
X93594457Y-103983600D02*
X94244909Y-103983600D01*
X95755092Y-103983600D02*
X96407260Y-103983600D01*
X97594457Y-103983600D02*
X98244909Y-103983600D01*
X99755092Y-103983600D02*
X100407260Y-103983600D01*
X101594457Y-103983600D02*
X102244909Y-103983600D01*
X103755092Y-103983600D02*
X104407260Y-103983600D01*
X105594457Y-103983600D02*
X106244909Y-103983600D01*
X107755092Y-103983600D02*
X111264430Y-103983600D01*
X118725402Y-103983600D02*
X119054834Y-103983600D01*
X80999367Y-104182800D02*
X81150010Y-104182800D01*
X88850721Y-104182800D02*
X92155047Y-104182800D01*
X93844487Y-104182800D02*
X94288866Y-104182800D01*
X95711134Y-104182800D02*
X96155047Y-104182800D01*
X97844487Y-104182800D02*
X98288866Y-104182800D01*
X99711134Y-104182800D02*
X100155047Y-104182800D01*
X101844487Y-104182800D02*
X102288866Y-104182800D01*
X103711134Y-104182800D02*
X104155047Y-104182800D01*
X105844487Y-104182800D02*
X106288866Y-104182800D01*
X107711134Y-104182800D02*
X111150010Y-104182800D01*
X118840721Y-104182800D02*
X119020208Y-104182800D01*
X81043671Y-104382000D02*
X81106093Y-104382000D01*
X88893776Y-104382000D02*
X91999047Y-104382000D01*
X94275934Y-104382000D02*
X94488066Y-104382000D01*
X95511934Y-104382000D02*
X95724066Y-104382000D01*
X98275934Y-104382000D02*
X98488066Y-104382000D01*
X99511934Y-104382000D02*
X99724066Y-104382000D01*
X102275934Y-104382000D02*
X102488066Y-104382000D01*
X103511934Y-104382000D02*
X103724066Y-104382000D01*
X106275934Y-104382000D02*
X106488066Y-104382000D01*
X107511934Y-104382000D02*
X107724066Y-104382000D01*
X108174384Y-104382000D02*
X111106093Y-104382000D01*
X118883776Y-104382000D02*
X118985582Y-104382000D01*
X81087975Y-104581200D02*
X81112886Y-104581200D01*
X88886213Y-104581200D02*
X91901068Y-104581200D01*
X94475134Y-104581200D02*
X94687266Y-104581200D01*
X95312734Y-104581200D02*
X95524866Y-104581200D01*
X98475134Y-104581200D02*
X98687266Y-104581200D01*
X99312734Y-104581200D02*
X99524866Y-104581200D01*
X102475134Y-104581200D02*
X102687266Y-104581200D01*
X103312734Y-104581200D02*
X103524866Y-104581200D01*
X106475134Y-104581200D02*
X106687266Y-104581200D01*
X107312734Y-104581200D02*
X107524866Y-104581200D01*
X108257142Y-104581200D02*
X111112886Y-104581200D01*
X118876213Y-104581200D02*
X118950957Y-104581200D01*
X81132280Y-104780400D02*
X81183690Y-104780400D01*
X88816536Y-104780400D02*
X91845376Y-104780400D01*
X94674334Y-104780400D02*
X94886466Y-104780400D01*
X95113534Y-104780400D02*
X95325666Y-104780400D01*
X98674334Y-104780400D02*
X98886466Y-104780400D01*
X99113534Y-104780400D02*
X99325666Y-104780400D01*
X102674334Y-104780400D02*
X102886466Y-104780400D01*
X103113534Y-104780400D02*
X103325666Y-104780400D01*
X106674334Y-104780400D02*
X106886466Y-104780400D01*
X107113534Y-104780400D02*
X107325666Y-104780400D01*
X108308427Y-104780400D02*
X111183690Y-104780400D01*
X118806536Y-104780400D02*
X118916331Y-104780400D01*
X81176584Y-104979600D02*
X81328629Y-104979600D01*
X88672632Y-104979600D02*
X91825121Y-104979600D01*
X94873534Y-104979600D02*
X95126466Y-104979600D01*
X98873534Y-104979600D02*
X99126466Y-104979600D01*
X102873534Y-104979600D02*
X103126466Y-104979600D01*
X106873534Y-104979600D02*
X107126466Y-104979600D01*
X108331025Y-104979600D02*
X111328629Y-104979600D01*
X118662632Y-104979600D02*
X118881705Y-104979600D01*
X81220889Y-105178800D02*
X81735396Y-105178800D01*
X88269230Y-105178800D02*
X91838139Y-105178800D01*
X94715134Y-105178800D02*
X94927266Y-105178800D01*
X95072734Y-105178800D02*
X95284866Y-105178800D01*
X98715134Y-105178800D02*
X98927266Y-105178800D01*
X99072734Y-105178800D02*
X99284866Y-105178800D01*
X102715134Y-105178800D02*
X102927266Y-105178800D01*
X103072734Y-105178800D02*
X103284866Y-105178800D01*
X106715134Y-105178800D02*
X106927266Y-105178800D01*
X107072734Y-105178800D02*
X107284866Y-105178800D01*
X108314838Y-105178800D02*
X111735396Y-105178800D01*
X118259230Y-105178800D02*
X118847079Y-105178800D01*
X81265193Y-105378000D02*
X82000000Y-105378000D01*
X88000000Y-105378000D02*
X91885862Y-105378000D01*
X94515934Y-105378000D02*
X94728066Y-105378000D01*
X95271934Y-105378000D02*
X95484066Y-105378000D01*
X98515934Y-105378000D02*
X98728066Y-105378000D01*
X99271934Y-105378000D02*
X99484066Y-105378000D01*
X102515934Y-105378000D02*
X102728066Y-105378000D01*
X103271934Y-105378000D02*
X103484066Y-105378000D01*
X106515934Y-105378000D02*
X106728066Y-105378000D01*
X107271934Y-105378000D02*
X107484066Y-105378000D01*
X108270035Y-105378000D02*
X112000000Y-105378000D01*
X118000000Y-105378000D02*
X118777243Y-105378000D01*
X81309498Y-105577200D02*
X82068450Y-105577200D01*
X87931550Y-105577200D02*
X91974053Y-105577200D01*
X94316734Y-105577200D02*
X94528866Y-105577200D01*
X95471134Y-105577200D02*
X95683266Y-105577200D01*
X98316734Y-105577200D02*
X98528866Y-105577200D01*
X99471134Y-105577200D02*
X99683266Y-105577200D01*
X102316734Y-105577200D02*
X102528866Y-105577200D01*
X103471134Y-105577200D02*
X103683266Y-105577200D01*
X106316734Y-105577200D02*
X106528866Y-105577200D01*
X107471134Y-105577200D02*
X107683266Y-105577200D01*
X108193068Y-105577200D02*
X112068450Y-105577200D01*
X117931550Y-105577200D02*
X118700534Y-105577200D01*
X81353802Y-105776400D02*
X92116249Y-105776400D01*
X93888610Y-105776400D02*
X94047420Y-105776400D01*
X94117534Y-105776400D02*
X94329666Y-105776400D01*
X95670334Y-105776400D02*
X95882466Y-105776400D01*
X95952580Y-105776400D02*
X96116248Y-105776400D01*
X97888610Y-105776400D02*
X98047420Y-105776400D01*
X98117534Y-105776400D02*
X98329666Y-105776400D01*
X99670334Y-105776400D02*
X99882466Y-105776400D01*
X99952580Y-105776400D02*
X100116248Y-105776400D01*
X101888610Y-105776400D02*
X102047420Y-105776400D01*
X102117534Y-105776400D02*
X102329666Y-105776400D01*
X103670334Y-105776400D02*
X103882466Y-105776400D01*
X103952580Y-105776400D02*
X104116248Y-105776400D01*
X105888610Y-105776400D02*
X106047420Y-105776400D01*
X106117534Y-105776400D02*
X106329666Y-105776400D01*
X107670334Y-105776400D02*
X107882466Y-105776400D01*
X107952579Y-105776400D02*
X118623825Y-105776400D01*
X81398106Y-105975600D02*
X82000000Y-105975600D01*
X83560000Y-105975600D02*
X83710000Y-105975600D01*
X86290000Y-105975600D02*
X86440000Y-105975600D01*
X88000000Y-105975600D02*
X92344790Y-105975600D01*
X93655666Y-105975600D02*
X94231285Y-105975600D01*
X95768714Y-105975600D02*
X96344790Y-105975600D01*
X97655666Y-105975600D02*
X98231285Y-105975600D01*
X99768714Y-105975600D02*
X100344790Y-105975600D01*
X101655666Y-105975600D02*
X102231285Y-105975600D01*
X103768714Y-105975600D02*
X104344790Y-105975600D01*
X105655666Y-105975600D02*
X106231285Y-105975600D01*
X107768713Y-105975600D02*
X112000000Y-105975600D01*
X113560000Y-105975600D02*
X113710000Y-105975600D01*
X116290000Y-105975600D02*
X116440000Y-105975600D01*
X118000000Y-105975600D02*
X118547117Y-105975600D01*
X81461699Y-106174800D02*
X82007576Y-106174800D01*
X83560000Y-106174800D02*
X83710000Y-106174800D01*
X86290000Y-106174800D02*
X86440000Y-106174800D01*
X87992423Y-106174800D02*
X91187108Y-106174800D01*
X91815172Y-106174800D02*
X92975773Y-106174800D01*
X93104220Y-106174800D02*
X94387171Y-106174800D01*
X95617221Y-106174800D02*
X96975773Y-106174800D01*
X97104220Y-106174800D02*
X98387171Y-106174800D01*
X99617221Y-106174800D02*
X100975773Y-106174800D01*
X101104220Y-106174800D02*
X102387171Y-106174800D01*
X103617221Y-106174800D02*
X104975773Y-106174800D01*
X105104220Y-106174800D02*
X106387171Y-106174800D01*
X107617221Y-106174800D02*
X108187108Y-106174800D01*
X108815172Y-106174800D02*
X112007576Y-106174800D01*
X113560000Y-106174800D02*
X113710000Y-106174800D01*
X116290000Y-106174800D02*
X116440000Y-106174800D01*
X117992423Y-106174800D02*
X118470408Y-106174800D01*
X81549304Y-106374000D02*
X82086691Y-106374000D01*
X83560000Y-106374000D02*
X83710000Y-106374000D01*
X86290000Y-106374000D02*
X86440000Y-106374000D01*
X87913308Y-106374000D02*
X90847780Y-106374000D01*
X92153181Y-106374000D02*
X107847780Y-106374000D01*
X109153181Y-106374000D02*
X112086691Y-106374000D01*
X113560000Y-106374000D02*
X113710000Y-106374000D01*
X116290000Y-106374000D02*
X116440000Y-106374000D01*
X117913308Y-106374000D02*
X118393700Y-106374000D01*
X81636909Y-106573200D02*
X82331727Y-106573200D01*
X83465550Y-106573200D02*
X83804450Y-106573200D01*
X86195550Y-106573200D02*
X86534450Y-106573200D01*
X87668272Y-106573200D02*
X90679001Y-106573200D01*
X92320625Y-106573200D02*
X107679001Y-106573200D01*
X109320625Y-106573200D02*
X112331727Y-106573200D01*
X113465550Y-106573200D02*
X113804450Y-106573200D01*
X116195550Y-106573200D02*
X116534450Y-106573200D01*
X117668272Y-106573200D02*
X118316991Y-106573200D01*
X81724514Y-106772400D02*
X84182972Y-106772400D01*
X85816772Y-106772400D02*
X90579585Y-106772400D01*
X92419591Y-106772400D02*
X107579585Y-106772400D01*
X109419591Y-106772400D02*
X114182972Y-106772400D01*
X115816772Y-106772400D02*
X118240282Y-106772400D01*
X81812119Y-106971600D02*
X84082071Y-106971600D01*
X85917200Y-106971600D02*
X90530468Y-106971600D01*
X92468549Y-106971600D02*
X107530468Y-106971600D01*
X109468549Y-106971600D02*
X114082071Y-106971600D01*
X115917200Y-106971600D02*
X118163574Y-106971600D01*
X81899724Y-107170800D02*
X84031701Y-107170800D01*
X85967401Y-107170800D02*
X90523875Y-107170800D01*
X92472718Y-107170800D02*
X107523875Y-107170800D01*
X109472718Y-107170800D02*
X114031701Y-107170800D01*
X115967400Y-107170800D02*
X118086865Y-107170800D01*
X81987329Y-107370000D02*
X84023956Y-107370000D01*
X85972799Y-107370000D02*
X90558226Y-107370000D01*
X92438547Y-107370000D02*
X107558226Y-107370000D01*
X109438547Y-107370000D02*
X114023956Y-107370000D01*
X115972799Y-107370000D02*
X118010157Y-107370000D01*
X82074935Y-107569200D02*
X84057161Y-107569200D01*
X85939865Y-107569200D02*
X90642396Y-107569200D01*
X92358415Y-107569200D02*
X107642396Y-107569200D01*
X109358415Y-107569200D02*
X114057161Y-107569200D01*
X115939865Y-107569200D02*
X117933448Y-107569200D01*
X82162540Y-107768400D02*
X84138659Y-107768400D01*
X85860997Y-107768400D02*
X90789997Y-107768400D01*
X92211995Y-107768400D02*
X107789997Y-107768400D01*
X109211995Y-107768400D02*
X114138659Y-107768400D01*
X115860997Y-107768400D02*
X117856739Y-107768400D01*
X82250145Y-107967600D02*
X84284396Y-107967600D01*
X85718086Y-107967600D02*
X91050378Y-107967600D01*
X91952577Y-107967600D02*
X108050378Y-107967600D01*
X108952577Y-107967600D02*
X114284396Y-107967600D01*
X115718086Y-107967600D02*
X117780031Y-107967600D01*
X82337750Y-108166800D02*
X84537102Y-108166800D01*
X85461716Y-108166800D02*
X114537102Y-108166800D01*
X115461716Y-108166800D02*
X117703322Y-108166800D01*
X82425355Y-108366000D02*
X117626614Y-108366000D01*
X82512960Y-108565200D02*
X117549905Y-108565200D01*
X82600565Y-108764400D02*
X117473196Y-108764400D01*
X82688170Y-108963600D02*
X117349263Y-108963600D01*
X82775775Y-109162800D02*
X117223524Y-109162800D01*
X82863380Y-109362000D02*
X117097786Y-109362000D01*
X82950986Y-109561200D02*
X116972047Y-109561200D01*
X83085672Y-109760400D02*
X116846309Y-109760400D01*
X83224839Y-109959600D02*
X116720570Y-109959600D01*
X83364005Y-110158800D02*
X116594832Y-110158800D01*
X83503171Y-110358000D02*
X116469093Y-110358000D01*
X83642338Y-110557200D02*
X116343355Y-110557200D01*
X83781504Y-110756400D02*
X116217616Y-110756400D01*
X83920670Y-110955600D02*
X116091878Y-110955600D01*
X84059836Y-111154800D02*
X115966139Y-111154800D01*
X84199003Y-111354000D02*
X115840401Y-111354000D01*
X84338169Y-111553200D02*
X115714662Y-111553200D01*
X84477335Y-111752400D02*
X115588924Y-111752400D01*
X84616502Y-111951600D02*
X115463185Y-111951600D01*
X84755668Y-112150800D02*
X115311905Y-112150800D01*
X84894834Y-112350000D02*
X115149442Y-112350000D01*
X85034001Y-112549200D02*
X114986978Y-112549200D01*
X117041404Y-90421494D02*
X118577327Y-93913940D01*
X119405647Y-97638205D01*
X119494812Y-101452425D01*
X118841425Y-105211327D01*
X117470372Y-108771733D01*
X115424893Y-112012263D01*
X114986325Y-112550000D01*
X85034559Y-112550000D01*
X82958596Y-109578506D01*
X81422674Y-106086065D01*
X81386018Y-105921250D01*
X82000000Y-105921250D01*
X82000000Y-106136708D01*
X82020175Y-106238137D01*
X82059751Y-106333681D01*
X82117206Y-106419668D01*
X82190332Y-106492794D01*
X82276319Y-106550249D01*
X82371863Y-106589825D01*
X82473292Y-106610000D01*
X83428750Y-106610000D01*
X83560000Y-106478750D01*
X83560000Y-105790000D01*
X83710000Y-105790000D01*
X83710000Y-106478750D01*
X83841250Y-106610000D01*
X84316123Y-106610000D01*
X84249492Y-106675249D01*
X84141467Y-106833017D01*
X84066142Y-107008763D01*
X84026388Y-107195792D01*
X84023718Y-107386981D01*
X84058235Y-107575047D01*
X84128623Y-107752827D01*
X84232201Y-107913550D01*
X84365025Y-108051093D01*
X84522035Y-108160217D01*
X84697250Y-108236767D01*
X84883998Y-108277826D01*
X85075163Y-108281831D01*
X85263466Y-108248628D01*
X85441733Y-108179482D01*
X85603175Y-108077028D01*
X85741642Y-107945168D01*
X85851860Y-107788924D01*
X85929631Y-107614247D01*
X85971993Y-107427791D01*
X85975042Y-107209396D01*
X85969614Y-107181981D01*
X90523718Y-107181981D01*
X90558235Y-107370047D01*
X90628623Y-107547827D01*
X90732201Y-107708550D01*
X90865025Y-107846093D01*
X91022035Y-107955217D01*
X91197250Y-108031767D01*
X91383998Y-108072826D01*
X91575163Y-108076831D01*
X91763466Y-108043628D01*
X91941733Y-107974482D01*
X92103175Y-107872028D01*
X92241642Y-107740168D01*
X92351860Y-107583924D01*
X92429631Y-107409247D01*
X92471993Y-107222791D01*
X92472562Y-107181981D01*
X107523718Y-107181981D01*
X107558235Y-107370047D01*
X107628623Y-107547827D01*
X107732201Y-107708550D01*
X107865025Y-107846093D01*
X108022035Y-107955217D01*
X108197250Y-108031767D01*
X108383998Y-108072826D01*
X108575163Y-108076831D01*
X108763466Y-108043628D01*
X108941733Y-107974482D01*
X109103175Y-107872028D01*
X109241642Y-107740168D01*
X109351860Y-107583924D01*
X109429631Y-107409247D01*
X109471993Y-107222791D01*
X109475042Y-107004396D01*
X109437903Y-106816830D01*
X109365040Y-106640050D01*
X109259227Y-106480790D01*
X109124496Y-106345114D01*
X108965978Y-106238192D01*
X108789710Y-106164097D01*
X108602408Y-106125649D01*
X108411206Y-106124314D01*
X108223385Y-106160143D01*
X108046101Y-106231770D01*
X107886105Y-106336469D01*
X107749492Y-106470249D01*
X107641467Y-106628017D01*
X107566142Y-106803763D01*
X107526388Y-106990792D01*
X107523718Y-107181981D01*
X92472562Y-107181981D01*
X92475042Y-107004396D01*
X92437903Y-106816830D01*
X92365040Y-106640050D01*
X92259227Y-106480790D01*
X92124496Y-106345114D01*
X91965978Y-106238192D01*
X91789710Y-106164097D01*
X91602408Y-106125649D01*
X91411206Y-106124314D01*
X91223385Y-106160143D01*
X91046101Y-106231770D01*
X90886105Y-106336469D01*
X90749492Y-106470249D01*
X90641467Y-106628017D01*
X90566142Y-106803763D01*
X90526388Y-106990792D01*
X90523718Y-107181981D01*
X85969614Y-107181981D01*
X85937903Y-107021830D01*
X85865040Y-106845050D01*
X85759227Y-106685790D01*
X85683965Y-106610000D01*
X86158750Y-106610000D01*
X86290000Y-106478750D01*
X86290000Y-105790000D01*
X86440000Y-105790000D01*
X86440000Y-106478750D01*
X86571250Y-106610000D01*
X87526708Y-106610000D01*
X87628137Y-106589825D01*
X87723681Y-106550249D01*
X87809668Y-106492794D01*
X87882794Y-106419668D01*
X87940249Y-106333681D01*
X87979825Y-106238137D01*
X88000000Y-106136708D01*
X88000000Y-105921250D01*
X87868750Y-105790000D01*
X86440000Y-105790000D01*
X86290000Y-105790000D01*
X83710000Y-105790000D01*
X83560000Y-105790000D01*
X82131250Y-105790000D01*
X82000000Y-105921250D01*
X81386018Y-105921250D01*
X80594353Y-102361795D01*
X80583553Y-101899799D01*
X81060018Y-101899799D01*
X81073196Y-102044599D01*
X81114248Y-102184082D01*
X81181611Y-102312935D01*
X81272718Y-102426249D01*
X81384100Y-102519710D01*
X81430318Y-102545119D01*
X81412723Y-102554474D01*
X81300048Y-102646370D01*
X81207367Y-102758401D01*
X81138212Y-102886301D01*
X81095216Y-103025197D01*
X81080018Y-103169799D01*
X81093196Y-103314599D01*
X81134248Y-103454082D01*
X81201611Y-103582935D01*
X81292718Y-103696249D01*
X81404100Y-103789710D01*
X81450318Y-103815119D01*
X81432723Y-103824474D01*
X81320048Y-103916370D01*
X81227367Y-104028401D01*
X81158212Y-104156301D01*
X81115216Y-104295197D01*
X81100018Y-104439799D01*
X81113196Y-104584599D01*
X81154248Y-104724082D01*
X81221611Y-104852935D01*
X81312718Y-104966249D01*
X81424100Y-105059710D01*
X81551513Y-105129756D01*
X81690106Y-105173720D01*
X81834598Y-105189927D01*
X81845000Y-105190000D01*
X82020947Y-105190000D01*
X82020175Y-105191863D01*
X82000000Y-105293292D01*
X82000000Y-105508750D01*
X82131250Y-105640000D01*
X83560000Y-105640000D01*
X83560000Y-105620000D01*
X83710000Y-105620000D01*
X83710000Y-105640000D01*
X86290000Y-105640000D01*
X86290000Y-105620000D01*
X86440000Y-105620000D01*
X86440000Y-105640000D01*
X87868750Y-105640000D01*
X88000000Y-105508750D01*
X88000000Y-105293292D01*
X87979825Y-105191863D01*
X87979053Y-105190000D01*
X88155000Y-105190000D01*
X88299705Y-105175812D01*
X88438897Y-105133787D01*
X88504703Y-105098797D01*
X91823456Y-105098797D01*
X91865053Y-105325441D01*
X91949879Y-105539689D01*
X92074705Y-105733380D01*
X92234775Y-105899137D01*
X92423991Y-106030646D01*
X92635148Y-106122898D01*
X92860202Y-106172379D01*
X93090581Y-106177205D01*
X93317510Y-106137192D01*
X93532344Y-106053863D01*
X93726902Y-105930392D01*
X93758800Y-105900016D01*
X94206050Y-105900016D01*
X94279334Y-106119508D01*
X94511586Y-106238592D01*
X94762608Y-106310077D01*
X95022753Y-106331217D01*
X95282023Y-106301199D01*
X95530455Y-106221177D01*
X95720666Y-106119508D01*
X95793950Y-105900016D01*
X95000000Y-105106066D01*
X94206050Y-105900016D01*
X93758800Y-105900016D01*
X93893773Y-105771484D01*
X93920256Y-105733942D01*
X94099984Y-105793950D01*
X94893934Y-105000000D01*
X95106066Y-105000000D01*
X95900016Y-105793950D01*
X96076344Y-105735078D01*
X96234775Y-105899137D01*
X96423991Y-106030646D01*
X96635148Y-106122898D01*
X96860202Y-106172379D01*
X97090581Y-106177205D01*
X97317510Y-106137192D01*
X97532344Y-106053863D01*
X97726902Y-105930392D01*
X97758800Y-105900016D01*
X98206050Y-105900016D01*
X98279334Y-106119508D01*
X98511586Y-106238592D01*
X98762608Y-106310077D01*
X99022753Y-106331217D01*
X99282023Y-106301199D01*
X99530455Y-106221177D01*
X99720666Y-106119508D01*
X99793950Y-105900016D01*
X99000000Y-105106066D01*
X98206050Y-105900016D01*
X97758800Y-105900016D01*
X97893773Y-105771484D01*
X97920256Y-105733942D01*
X98099984Y-105793950D01*
X98893934Y-105000000D01*
X99106066Y-105000000D01*
X99900016Y-105793950D01*
X100076344Y-105735078D01*
X100234775Y-105899137D01*
X100423991Y-106030646D01*
X100635148Y-106122898D01*
X100860202Y-106172379D01*
X101090581Y-106177205D01*
X101317510Y-106137192D01*
X101532344Y-106053863D01*
X101726902Y-105930392D01*
X101758800Y-105900016D01*
X102206050Y-105900016D01*
X102279334Y-106119508D01*
X102511586Y-106238592D01*
X102762608Y-106310077D01*
X103022753Y-106331217D01*
X103282023Y-106301199D01*
X103530455Y-106221177D01*
X103720666Y-106119508D01*
X103793950Y-105900016D01*
X103000000Y-105106066D01*
X102206050Y-105900016D01*
X101758800Y-105900016D01*
X101893773Y-105771484D01*
X101920256Y-105733942D01*
X102099984Y-105793950D01*
X102893934Y-105000000D01*
X103106066Y-105000000D01*
X103900016Y-105793950D01*
X104076344Y-105735078D01*
X104234775Y-105899137D01*
X104423991Y-106030646D01*
X104635148Y-106122898D01*
X104860202Y-106172379D01*
X105090581Y-106177205D01*
X105317510Y-106137192D01*
X105532344Y-106053863D01*
X105726902Y-105930392D01*
X105758800Y-105900016D01*
X106206050Y-105900016D01*
X106279334Y-106119508D01*
X106511586Y-106238592D01*
X106762608Y-106310077D01*
X107022753Y-106331217D01*
X107282023Y-106301199D01*
X107530455Y-106221177D01*
X107720666Y-106119508D01*
X107786860Y-105921250D01*
X112000000Y-105921250D01*
X112000000Y-106136708D01*
X112020175Y-106238137D01*
X112059751Y-106333681D01*
X112117206Y-106419668D01*
X112190332Y-106492794D01*
X112276319Y-106550249D01*
X112371863Y-106589825D01*
X112473292Y-106610000D01*
X113428750Y-106610000D01*
X113560000Y-106478750D01*
X113560000Y-105790000D01*
X113710000Y-105790000D01*
X113710000Y-106478750D01*
X113841250Y-106610000D01*
X114316123Y-106610000D01*
X114249492Y-106675249D01*
X114141467Y-106833017D01*
X114066142Y-107008763D01*
X114026388Y-107195792D01*
X114023718Y-107386981D01*
X114058235Y-107575047D01*
X114128623Y-107752827D01*
X114232201Y-107913550D01*
X114365025Y-108051093D01*
X114522035Y-108160217D01*
X114697250Y-108236767D01*
X114883998Y-108277826D01*
X115075163Y-108281831D01*
X115263466Y-108248628D01*
X115441733Y-108179482D01*
X115603175Y-108077028D01*
X115741642Y-107945168D01*
X115851860Y-107788924D01*
X115929631Y-107614247D01*
X115971993Y-107427791D01*
X115975042Y-107209396D01*
X115937903Y-107021830D01*
X115865040Y-106845050D01*
X115759227Y-106685790D01*
X115683965Y-106610000D01*
X116158750Y-106610000D01*
X116290000Y-106478750D01*
X116290000Y-105790000D01*
X116440000Y-105790000D01*
X116440000Y-106478750D01*
X116571250Y-106610000D01*
X117526708Y-106610000D01*
X117628137Y-106589825D01*
X117723681Y-106550249D01*
X117809668Y-106492794D01*
X117882794Y-106419668D01*
X117940249Y-106333681D01*
X117979825Y-106238137D01*
X118000000Y-106136708D01*
X118000000Y-105921250D01*
X117868750Y-105790000D01*
X116440000Y-105790000D01*
X116290000Y-105790000D01*
X113710000Y-105790000D01*
X113560000Y-105790000D01*
X112131250Y-105790000D01*
X112000000Y-105921250D01*
X107786860Y-105921250D01*
X107793950Y-105900016D01*
X107000000Y-105106066D01*
X106206050Y-105900016D01*
X105758800Y-105900016D01*
X105893773Y-105771484D01*
X105920256Y-105733942D01*
X106099984Y-105793950D01*
X106893934Y-105000000D01*
X107106066Y-105000000D01*
X107900016Y-105793950D01*
X108119508Y-105720666D01*
X108238592Y-105488414D01*
X108310077Y-105237392D01*
X108331217Y-104977247D01*
X108301199Y-104717977D01*
X108221177Y-104469545D01*
X108119508Y-104279334D01*
X107900016Y-104206050D01*
X107106066Y-105000000D01*
X106893934Y-105000000D01*
X106099984Y-104206050D01*
X105922606Y-104265273D01*
X105914965Y-104253772D01*
X105762247Y-104099984D01*
X106206050Y-104099984D01*
X107000000Y-104893934D01*
X107793950Y-104099984D01*
X107720666Y-103880492D01*
X107488414Y-103761408D01*
X107237392Y-103689923D01*
X106977247Y-103668783D01*
X106717977Y-103698801D01*
X106469545Y-103778823D01*
X106279334Y-103880492D01*
X106206050Y-104099984D01*
X105762247Y-104099984D01*
X105752597Y-104090267D01*
X105561562Y-103961412D01*
X105515000Y-103941839D01*
X105515000Y-103871694D01*
X105559543Y-103842343D01*
X105628322Y-103761643D01*
X105671896Y-103664978D01*
X105686814Y-103560000D01*
X105686814Y-103025648D01*
X105717794Y-102994668D01*
X105775249Y-102908681D01*
X105814825Y-102813137D01*
X105835000Y-102711708D01*
X105835000Y-102556250D01*
X105703750Y-102425000D01*
X105075000Y-102425000D01*
X105075000Y-102445000D01*
X104925000Y-102445000D01*
X104925000Y-102425000D01*
X104296250Y-102425000D01*
X104165000Y-102556250D01*
X104165000Y-102711708D01*
X104185175Y-102813137D01*
X104224751Y-102908681D01*
X104282206Y-102994668D01*
X104313186Y-103025648D01*
X104313186Y-103560000D01*
X104317948Y-103619717D01*
X104349315Y-103721004D01*
X104407657Y-103809543D01*
X104485000Y-103875461D01*
X104485000Y-103940741D01*
X104452993Y-103953673D01*
X104260178Y-104079847D01*
X104095543Y-104241070D01*
X104078678Y-104265702D01*
X103900016Y-104206050D01*
X103106066Y-105000000D01*
X102893934Y-105000000D01*
X102099984Y-104206050D01*
X101922606Y-104265273D01*
X101914965Y-104253772D01*
X101762247Y-104099984D01*
X102206050Y-104099984D01*
X103000000Y-104893934D01*
X103793950Y-104099984D01*
X103720666Y-103880492D01*
X103488414Y-103761408D01*
X103237392Y-103689923D01*
X102977247Y-103668783D01*
X102717977Y-103698801D01*
X102469545Y-103778823D01*
X102279334Y-103880492D01*
X102206050Y-104099984D01*
X101762247Y-104099984D01*
X101752597Y-104090267D01*
X101561562Y-103961412D01*
X101515000Y-103941839D01*
X101515000Y-103871694D01*
X101559543Y-103842343D01*
X101628322Y-103761643D01*
X101671896Y-103664978D01*
X101686814Y-103560000D01*
X101686814Y-103025648D01*
X101717794Y-102994668D01*
X101775249Y-102908681D01*
X101814825Y-102813137D01*
X101835000Y-102711708D01*
X101835000Y-102556250D01*
X101703750Y-102425000D01*
X101075000Y-102425000D01*
X101075000Y-102445000D01*
X100925000Y-102445000D01*
X100925000Y-102425000D01*
X100296250Y-102425000D01*
X100165000Y-102556250D01*
X100165000Y-102711708D01*
X100185175Y-102813137D01*
X100224751Y-102908681D01*
X100282206Y-102994668D01*
X100313186Y-103025648D01*
X100313186Y-103560000D01*
X100317948Y-103619717D01*
X100349315Y-103721004D01*
X100407657Y-103809543D01*
X100485000Y-103875461D01*
X100485000Y-103940741D01*
X100452993Y-103953673D01*
X100260178Y-104079847D01*
X100095543Y-104241070D01*
X100078678Y-104265702D01*
X99900016Y-104206050D01*
X99106066Y-105000000D01*
X98893934Y-105000000D01*
X98099984Y-104206050D01*
X97922606Y-104265273D01*
X97914965Y-104253772D01*
X97762247Y-104099984D01*
X98206050Y-104099984D01*
X99000000Y-104893934D01*
X99793950Y-104099984D01*
X99720666Y-103880492D01*
X99488414Y-103761408D01*
X99237392Y-103689923D01*
X98977247Y-103668783D01*
X98717977Y-103698801D01*
X98469545Y-103778823D01*
X98279334Y-103880492D01*
X98206050Y-104099984D01*
X97762247Y-104099984D01*
X97752597Y-104090267D01*
X97561562Y-103961412D01*
X97515000Y-103941839D01*
X97515000Y-103871694D01*
X97559543Y-103842343D01*
X97628322Y-103761643D01*
X97671896Y-103664978D01*
X97686814Y-103560000D01*
X97686814Y-103025648D01*
X97717794Y-102994668D01*
X97775249Y-102908681D01*
X97814825Y-102813137D01*
X97835000Y-102711708D01*
X97835000Y-102556250D01*
X97703750Y-102425000D01*
X97075000Y-102425000D01*
X97075000Y-102445000D01*
X96925000Y-102445000D01*
X96925000Y-102425000D01*
X96296250Y-102425000D01*
X96165000Y-102556250D01*
X96165000Y-102711708D01*
X96185175Y-102813137D01*
X96224751Y-102908681D01*
X96282206Y-102994668D01*
X96313186Y-103025648D01*
X96313186Y-103560000D01*
X96317948Y-103619717D01*
X96349315Y-103721004D01*
X96407657Y-103809543D01*
X96485000Y-103875461D01*
X96485000Y-103940741D01*
X96452993Y-103953673D01*
X96260178Y-104079847D01*
X96095543Y-104241070D01*
X96078678Y-104265702D01*
X95900016Y-104206050D01*
X95106066Y-105000000D01*
X94893934Y-105000000D01*
X94099984Y-104206050D01*
X93922606Y-104265273D01*
X93914965Y-104253772D01*
X93762247Y-104099984D01*
X94206050Y-104099984D01*
X95000000Y-104893934D01*
X95793950Y-104099984D01*
X95720666Y-103880492D01*
X95488414Y-103761408D01*
X95237392Y-103689923D01*
X94977247Y-103668783D01*
X94717977Y-103698801D01*
X94469545Y-103778823D01*
X94279334Y-103880492D01*
X94206050Y-104099984D01*
X93762247Y-104099984D01*
X93752597Y-104090267D01*
X93561562Y-103961412D01*
X93515000Y-103941839D01*
X93515000Y-103871694D01*
X93559543Y-103842343D01*
X93628322Y-103761643D01*
X93671896Y-103664978D01*
X93686814Y-103560000D01*
X93686814Y-103025648D01*
X93717794Y-102994668D01*
X93775249Y-102908681D01*
X93814825Y-102813137D01*
X93835000Y-102711708D01*
X93835000Y-102556250D01*
X93703750Y-102425000D01*
X93075000Y-102425000D01*
X93075000Y-102445000D01*
X92925000Y-102445000D01*
X92925000Y-102425000D01*
X92296250Y-102425000D01*
X92165000Y-102556250D01*
X92165000Y-102711708D01*
X92185175Y-102813137D01*
X92224751Y-102908681D01*
X92282206Y-102994668D01*
X92313186Y-103025648D01*
X92313186Y-103560000D01*
X92317948Y-103619717D01*
X92349315Y-103721004D01*
X92407657Y-103809543D01*
X92485000Y-103875461D01*
X92485000Y-103940741D01*
X92452993Y-103953673D01*
X92260178Y-104079847D01*
X92095543Y-104241070D01*
X91965358Y-104431201D01*
X91874582Y-104642996D01*
X91826673Y-104868390D01*
X91823456Y-105098797D01*
X88504703Y-105098797D01*
X88567277Y-105065526D01*
X88679952Y-104973630D01*
X88772633Y-104861599D01*
X88841788Y-104733699D01*
X88884784Y-104594803D01*
X88899982Y-104450201D01*
X88886804Y-104305401D01*
X88845752Y-104165918D01*
X88778389Y-104037065D01*
X88687282Y-103923751D01*
X88575900Y-103830290D01*
X88524765Y-103802179D01*
X88537277Y-103795526D01*
X88649952Y-103703630D01*
X88742633Y-103591599D01*
X88811788Y-103463699D01*
X88854784Y-103324803D01*
X88869982Y-103180201D01*
X88856804Y-103035401D01*
X88815752Y-102895918D01*
X88748389Y-102767065D01*
X88657282Y-102653751D01*
X88545900Y-102560290D01*
X88543931Y-102559208D01*
X88607277Y-102525526D01*
X88719952Y-102433630D01*
X88812633Y-102321599D01*
X88881788Y-102193699D01*
X88924784Y-102054803D01*
X88931774Y-101988292D01*
X92165000Y-101988292D01*
X92165000Y-102143750D01*
X92296250Y-102275000D01*
X92925000Y-102275000D01*
X92925000Y-101646250D01*
X93075000Y-101646250D01*
X93075000Y-102275000D01*
X93703750Y-102275000D01*
X93835000Y-102143750D01*
X93835000Y-101988292D01*
X96165000Y-101988292D01*
X96165000Y-102143750D01*
X96296250Y-102275000D01*
X96925000Y-102275000D01*
X96925000Y-101646250D01*
X97075000Y-101646250D01*
X97075000Y-102275000D01*
X97703750Y-102275000D01*
X97835000Y-102143750D01*
X97835000Y-101988292D01*
X100165000Y-101988292D01*
X100165000Y-102143750D01*
X100296250Y-102275000D01*
X100925000Y-102275000D01*
X100925000Y-101646250D01*
X101075000Y-101646250D01*
X101075000Y-102275000D01*
X101703750Y-102275000D01*
X101835000Y-102143750D01*
X101835000Y-101988292D01*
X104165000Y-101988292D01*
X104165000Y-102143750D01*
X104296250Y-102275000D01*
X104925000Y-102275000D01*
X104925000Y-101646250D01*
X105075000Y-101646250D01*
X105075000Y-102275000D01*
X105703750Y-102275000D01*
X105835000Y-102143750D01*
X105835000Y-101988292D01*
X105814825Y-101886863D01*
X105775249Y-101791319D01*
X105717794Y-101705332D01*
X105644668Y-101632206D01*
X105558681Y-101574751D01*
X105463137Y-101535175D01*
X105361708Y-101515000D01*
X105206250Y-101515000D01*
X105075000Y-101646250D01*
X104925000Y-101646250D01*
X104793750Y-101515000D01*
X104638292Y-101515000D01*
X104536863Y-101535175D01*
X104441319Y-101574751D01*
X104355332Y-101632206D01*
X104282206Y-101705332D01*
X104224751Y-101791319D01*
X104185175Y-101886863D01*
X104165000Y-101988292D01*
X101835000Y-101988292D01*
X101814825Y-101886863D01*
X101775249Y-101791319D01*
X101717794Y-101705332D01*
X101644668Y-101632206D01*
X101558681Y-101574751D01*
X101463137Y-101535175D01*
X101361708Y-101515000D01*
X101206250Y-101515000D01*
X101075000Y-101646250D01*
X100925000Y-101646250D01*
X100793750Y-101515000D01*
X100638292Y-101515000D01*
X100536863Y-101535175D01*
X100441319Y-101574751D01*
X100355332Y-101632206D01*
X100282206Y-101705332D01*
X100224751Y-101791319D01*
X100185175Y-101886863D01*
X100165000Y-101988292D01*
X97835000Y-101988292D01*
X97814825Y-101886863D01*
X97775249Y-101791319D01*
X97717794Y-101705332D01*
X97644668Y-101632206D01*
X97558681Y-101574751D01*
X97463137Y-101535175D01*
X97361708Y-101515000D01*
X97206250Y-101515000D01*
X97075000Y-101646250D01*
X96925000Y-101646250D01*
X96793750Y-101515000D01*
X96638292Y-101515000D01*
X96536863Y-101535175D01*
X96441319Y-101574751D01*
X96355332Y-101632206D01*
X96282206Y-101705332D01*
X96224751Y-101791319D01*
X96185175Y-101886863D01*
X96165000Y-101988292D01*
X93835000Y-101988292D01*
X93814825Y-101886863D01*
X93775249Y-101791319D01*
X93717794Y-101705332D01*
X93644668Y-101632206D01*
X93558681Y-101574751D01*
X93463137Y-101535175D01*
X93361708Y-101515000D01*
X93206250Y-101515000D01*
X93075000Y-101646250D01*
X92925000Y-101646250D01*
X92793750Y-101515000D01*
X92638292Y-101515000D01*
X92536863Y-101535175D01*
X92441319Y-101574751D01*
X92355332Y-101632206D01*
X92282206Y-101705332D01*
X92224751Y-101791319D01*
X92185175Y-101886863D01*
X92165000Y-101988292D01*
X88931774Y-101988292D01*
X88939982Y-101910201D01*
X88926804Y-101765401D01*
X88885752Y-101625918D01*
X88818389Y-101497065D01*
X88727282Y-101383751D01*
X88615900Y-101290290D01*
X88564765Y-101262179D01*
X88577277Y-101255526D01*
X88689952Y-101163630D01*
X88782633Y-101051599D01*
X88851788Y-100923699D01*
X88894784Y-100784803D01*
X88909982Y-100640201D01*
X88896804Y-100495401D01*
X88855752Y-100355918D01*
X88788389Y-100227065D01*
X88697282Y-100113751D01*
X88621515Y-100050174D01*
X109938971Y-100050174D01*
X109966407Y-100199663D01*
X110022357Y-100340975D01*
X110104689Y-100468729D01*
X110210267Y-100578058D01*
X110284847Y-100629893D01*
X110257022Y-100648101D01*
X110148433Y-100754439D01*
X110062566Y-100879844D01*
X110002693Y-101019539D01*
X109971093Y-101168204D01*
X109968971Y-101320174D01*
X109996407Y-101469663D01*
X110052357Y-101610975D01*
X110134689Y-101738729D01*
X110240267Y-101848058D01*
X110321248Y-101904341D01*
X110262032Y-101943091D01*
X110153443Y-102049429D01*
X110067576Y-102174834D01*
X110007703Y-102314529D01*
X109976103Y-102463194D01*
X109973981Y-102615164D01*
X110001417Y-102764653D01*
X110057367Y-102905965D01*
X110139699Y-103033719D01*
X110245277Y-103143048D01*
X110370079Y-103229788D01*
X110509353Y-103290635D01*
X110657793Y-103323272D01*
X110809745Y-103326455D01*
X110959421Y-103300063D01*
X111087357Y-103250440D01*
X111093196Y-103314599D01*
X111134248Y-103454082D01*
X111201611Y-103582935D01*
X111292718Y-103696249D01*
X111404100Y-103789710D01*
X111450318Y-103815119D01*
X111432723Y-103824474D01*
X111320048Y-103916370D01*
X111227367Y-104028401D01*
X111158212Y-104156301D01*
X111115216Y-104295197D01*
X111100018Y-104439799D01*
X111113196Y-104584599D01*
X111154248Y-104724082D01*
X111221611Y-104852935D01*
X111312718Y-104966249D01*
X111424100Y-105059710D01*
X111551513Y-105129756D01*
X111690106Y-105173720D01*
X111834598Y-105189927D01*
X111845000Y-105190000D01*
X112020947Y-105190000D01*
X112020175Y-105191863D01*
X112000000Y-105293292D01*
X112000000Y-105508750D01*
X112131250Y-105640000D01*
X113560000Y-105640000D01*
X113560000Y-105620000D01*
X113710000Y-105620000D01*
X113710000Y-105640000D01*
X116290000Y-105640000D01*
X116290000Y-105620000D01*
X116440000Y-105620000D01*
X116440000Y-105640000D01*
X117868750Y-105640000D01*
X118000000Y-105508750D01*
X118000000Y-105293292D01*
X117979825Y-105191863D01*
X117979053Y-105190000D01*
X118145000Y-105190000D01*
X118289705Y-105175812D01*
X118428897Y-105133787D01*
X118557277Y-105065526D01*
X118669952Y-104973630D01*
X118762633Y-104861599D01*
X118831788Y-104733699D01*
X118874784Y-104594803D01*
X118889982Y-104450201D01*
X118876804Y-104305401D01*
X118835752Y-104165918D01*
X118768389Y-104037065D01*
X118677282Y-103923751D01*
X118565900Y-103830290D01*
X118544265Y-103818396D01*
X118587277Y-103795526D01*
X118699952Y-103703630D01*
X118792633Y-103591599D01*
X118861788Y-103463699D01*
X118904784Y-103324803D01*
X118919982Y-103180201D01*
X118906804Y-103035401D01*
X118865752Y-102895918D01*
X118798389Y-102767065D01*
X118707282Y-102653751D01*
X118595900Y-102560290D01*
X118523473Y-102520473D01*
X118629952Y-102433630D01*
X118722633Y-102321599D01*
X118791788Y-102193699D01*
X118834784Y-102054803D01*
X118849982Y-101910201D01*
X118836804Y-101765401D01*
X118795752Y-101625918D01*
X118728389Y-101497065D01*
X118637282Y-101383751D01*
X118525900Y-101290290D01*
X118504265Y-101278396D01*
X118547277Y-101255526D01*
X118659952Y-101163630D01*
X118752633Y-101051599D01*
X118821788Y-100923699D01*
X118864784Y-100784803D01*
X118879982Y-100640201D01*
X118866804Y-100495401D01*
X118825752Y-100355918D01*
X118758389Y-100227065D01*
X118667282Y-100113751D01*
X118555900Y-100020290D01*
X118534265Y-100008396D01*
X118577277Y-99985526D01*
X118689952Y-99893630D01*
X118782633Y-99781599D01*
X118851788Y-99653699D01*
X118894784Y-99514803D01*
X118909982Y-99370201D01*
X118896804Y-99225401D01*
X118855752Y-99085918D01*
X118788389Y-98957065D01*
X118697282Y-98843751D01*
X118585900Y-98750290D01*
X118564265Y-98738396D01*
X118607277Y-98715526D01*
X118719952Y-98623630D01*
X118812633Y-98511599D01*
X118881788Y-98383699D01*
X118924784Y-98244803D01*
X118939982Y-98100201D01*
X118926804Y-97955401D01*
X118885752Y-97815918D01*
X118818389Y-97687065D01*
X118727282Y-97573751D01*
X118615900Y-97480290D01*
X118543473Y-97440473D01*
X118649952Y-97353630D01*
X118742633Y-97241599D01*
X118811788Y-97113699D01*
X118854784Y-96974803D01*
X118869982Y-96830201D01*
X118856804Y-96685401D01*
X118815752Y-96545918D01*
X118748389Y-96417065D01*
X118657282Y-96303751D01*
X118545900Y-96210290D01*
X118524265Y-96198396D01*
X118567277Y-96175526D01*
X118679952Y-96083630D01*
X118772633Y-95971599D01*
X118841788Y-95843699D01*
X118884784Y-95704803D01*
X118899982Y-95560201D01*
X118886804Y-95415401D01*
X118845752Y-95275918D01*
X118778389Y-95147065D01*
X118687282Y-95033751D01*
X118575900Y-94940290D01*
X118448487Y-94870244D01*
X118309894Y-94826280D01*
X118165402Y-94810073D01*
X118155000Y-94810000D01*
X117979053Y-94810000D01*
X117979825Y-94808137D01*
X118000000Y-94706708D01*
X118000000Y-94491250D01*
X117868750Y-94360000D01*
X116440000Y-94360000D01*
X116440000Y-94380000D01*
X116290000Y-94380000D01*
X116290000Y-94360000D01*
X113710000Y-94360000D01*
X113710000Y-94380000D01*
X113560000Y-94380000D01*
X113560000Y-94360000D01*
X112131250Y-94360000D01*
X112000000Y-94491250D01*
X112000000Y-94706708D01*
X112020175Y-94808137D01*
X112020947Y-94810000D01*
X111845000Y-94810000D01*
X111700295Y-94824188D01*
X111561103Y-94866213D01*
X111432723Y-94934474D01*
X111320048Y-95026370D01*
X111227367Y-95138401D01*
X111158212Y-95266301D01*
X111115216Y-95405197D01*
X111100018Y-95549799D01*
X111113196Y-95694599D01*
X111154248Y-95834082D01*
X111221611Y-95962935D01*
X111312718Y-96076249D01*
X111424100Y-96169710D01*
X111475235Y-96197821D01*
X111462723Y-96204474D01*
X111350048Y-96296370D01*
X111257367Y-96408401D01*
X111188212Y-96536301D01*
X111145216Y-96675197D01*
X111130655Y-96813742D01*
X111095402Y-96789964D01*
X110955293Y-96731067D01*
X110806412Y-96700506D01*
X110654430Y-96699445D01*
X110505137Y-96727924D01*
X110364218Y-96784859D01*
X110237042Y-96868081D01*
X110128453Y-96974419D01*
X110042586Y-97099824D01*
X109982713Y-97239519D01*
X109951113Y-97388184D01*
X109948991Y-97540154D01*
X109976427Y-97689643D01*
X110032377Y-97830955D01*
X110114709Y-97958709D01*
X110220287Y-98068038D01*
X110294869Y-98119874D01*
X110267033Y-98138090D01*
X110158444Y-98244428D01*
X110072577Y-98369833D01*
X110012704Y-98509528D01*
X109981104Y-98658193D01*
X109978982Y-98810163D01*
X110006418Y-98959652D01*
X110062368Y-99100964D01*
X110144700Y-99228718D01*
X110250278Y-99338047D01*
X110268683Y-99350839D01*
X110227022Y-99378101D01*
X110118433Y-99484439D01*
X110032566Y-99609844D01*
X109972693Y-99749539D01*
X109941093Y-99898204D01*
X109938971Y-100050174D01*
X88621515Y-100050174D01*
X88585900Y-100020290D01*
X88549515Y-100000287D01*
X88577277Y-99985526D01*
X88689952Y-99893630D01*
X88782633Y-99781599D01*
X88851788Y-99653699D01*
X88894784Y-99514803D01*
X88909982Y-99370201D01*
X88896804Y-99225401D01*
X88855752Y-99085918D01*
X88788389Y-98957065D01*
X88697282Y-98843751D01*
X88585900Y-98750290D01*
X88564265Y-98738396D01*
X88607277Y-98715526D01*
X88719952Y-98623630D01*
X88812633Y-98511599D01*
X88881788Y-98383699D01*
X88924784Y-98244803D01*
X88939982Y-98100201D01*
X88926804Y-97955401D01*
X88885752Y-97815918D01*
X88880698Y-97806250D01*
X94165000Y-97806250D01*
X94165000Y-97961708D01*
X94185175Y-98063137D01*
X94224751Y-98158681D01*
X94282206Y-98244668D01*
X94355332Y-98317794D01*
X94441319Y-98375249D01*
X94536863Y-98414825D01*
X94638292Y-98435000D01*
X94793750Y-98435000D01*
X94925000Y-98303750D01*
X94925000Y-97675000D01*
X95075000Y-97675000D01*
X95075000Y-98303750D01*
X95206250Y-98435000D01*
X95361708Y-98435000D01*
X95463137Y-98414825D01*
X95558681Y-98375249D01*
X95644668Y-98317794D01*
X95717794Y-98244668D01*
X95775249Y-98158681D01*
X95814825Y-98063137D01*
X95835000Y-97961708D01*
X95835000Y-97806250D01*
X98165000Y-97806250D01*
X98165000Y-97961708D01*
X98185175Y-98063137D01*
X98224751Y-98158681D01*
X98282206Y-98244668D01*
X98355332Y-98317794D01*
X98441319Y-98375249D01*
X98536863Y-98414825D01*
X98638292Y-98435000D01*
X98793750Y-98435000D01*
X98925000Y-98303750D01*
X98925000Y-97675000D01*
X99075000Y-97675000D01*
X99075000Y-98303750D01*
X99206250Y-98435000D01*
X99361708Y-98435000D01*
X99463137Y-98414825D01*
X99558681Y-98375249D01*
X99644668Y-98317794D01*
X99717794Y-98244668D01*
X99775249Y-98158681D01*
X99814825Y-98063137D01*
X99835000Y-97961708D01*
X99835000Y-97806250D01*
X102165000Y-97806250D01*
X102165000Y-97961708D01*
X102185175Y-98063137D01*
X102224751Y-98158681D01*
X102282206Y-98244668D01*
X102355332Y-98317794D01*
X102441319Y-98375249D01*
X102536863Y-98414825D01*
X102638292Y-98435000D01*
X102793750Y-98435000D01*
X102925000Y-98303750D01*
X102925000Y-97675000D01*
X103075000Y-97675000D01*
X103075000Y-98303750D01*
X103206250Y-98435000D01*
X103361708Y-98435000D01*
X103463137Y-98414825D01*
X103558681Y-98375249D01*
X103644668Y-98317794D01*
X103717794Y-98244668D01*
X103775249Y-98158681D01*
X103814825Y-98063137D01*
X103835000Y-97961708D01*
X103835000Y-97806250D01*
X104165000Y-97806250D01*
X104165000Y-97961708D01*
X104185175Y-98063137D01*
X104224751Y-98158681D01*
X104282206Y-98244668D01*
X104355332Y-98317794D01*
X104441319Y-98375249D01*
X104536863Y-98414825D01*
X104638292Y-98435000D01*
X104793750Y-98435000D01*
X104925000Y-98303750D01*
X104925000Y-97675000D01*
X105075000Y-97675000D01*
X105075000Y-98303750D01*
X105206250Y-98435000D01*
X105361708Y-98435000D01*
X105463137Y-98414825D01*
X105558681Y-98375249D01*
X105644668Y-98317794D01*
X105717794Y-98244668D01*
X105775249Y-98158681D01*
X105814825Y-98063137D01*
X105835000Y-97961708D01*
X105835000Y-97806250D01*
X106165000Y-97806250D01*
X106165000Y-97961708D01*
X106185175Y-98063137D01*
X106224751Y-98158681D01*
X106282206Y-98244668D01*
X106355332Y-98317794D01*
X106441319Y-98375249D01*
X106536863Y-98414825D01*
X106638292Y-98435000D01*
X106793750Y-98435000D01*
X106925000Y-98303750D01*
X106925000Y-97675000D01*
X107075000Y-97675000D01*
X107075000Y-98303750D01*
X107206250Y-98435000D01*
X107361708Y-98435000D01*
X107463137Y-98414825D01*
X107558681Y-98375249D01*
X107644668Y-98317794D01*
X107717794Y-98244668D01*
X107775249Y-98158681D01*
X107814825Y-98063137D01*
X107835000Y-97961708D01*
X107835000Y-97806250D01*
X107703750Y-97675000D01*
X107075000Y-97675000D01*
X106925000Y-97675000D01*
X106296250Y-97675000D01*
X106165000Y-97806250D01*
X105835000Y-97806250D01*
X105703750Y-97675000D01*
X105075000Y-97675000D01*
X104925000Y-97675000D01*
X104296250Y-97675000D01*
X104165000Y-97806250D01*
X103835000Y-97806250D01*
X103703750Y-97675000D01*
X103075000Y-97675000D01*
X102925000Y-97675000D01*
X102296250Y-97675000D01*
X102165000Y-97806250D01*
X99835000Y-97806250D01*
X99703750Y-97675000D01*
X99075000Y-97675000D01*
X98925000Y-97675000D01*
X98296250Y-97675000D01*
X98165000Y-97806250D01*
X95835000Y-97806250D01*
X95703750Y-97675000D01*
X95075000Y-97675000D01*
X94925000Y-97675000D01*
X94296250Y-97675000D01*
X94165000Y-97806250D01*
X88880698Y-97806250D01*
X88818389Y-97687065D01*
X88727282Y-97573751D01*
X88615900Y-97480290D01*
X88569682Y-97454881D01*
X88587277Y-97445526D01*
X88699952Y-97353630D01*
X88792633Y-97241599D01*
X88861788Y-97113699D01*
X88904784Y-96974803D01*
X88919982Y-96830201D01*
X88906804Y-96685401D01*
X88865752Y-96545918D01*
X88798389Y-96417065D01*
X88707282Y-96303751D01*
X88595900Y-96210290D01*
X88549682Y-96184881D01*
X88567277Y-96175526D01*
X88679952Y-96083630D01*
X88772633Y-95971599D01*
X88811337Y-95900016D01*
X92206050Y-95900016D01*
X92279334Y-96119508D01*
X92511586Y-96238592D01*
X92762608Y-96310077D01*
X93022753Y-96331217D01*
X93282023Y-96301199D01*
X93530455Y-96221177D01*
X93720666Y-96119508D01*
X93793950Y-95900016D01*
X93000000Y-95106066D01*
X92206050Y-95900016D01*
X88811337Y-95900016D01*
X88841788Y-95843699D01*
X88884784Y-95704803D01*
X88899982Y-95560201D01*
X88886804Y-95415401D01*
X88845752Y-95275918D01*
X88778389Y-95147065D01*
X88687282Y-95033751D01*
X88674176Y-95022753D01*
X91668783Y-95022753D01*
X91698801Y-95282023D01*
X91778823Y-95530455D01*
X91880492Y-95720666D01*
X92099984Y-95793950D01*
X92893934Y-95000000D01*
X93106066Y-95000000D01*
X93900016Y-95793950D01*
X94076344Y-95735078D01*
X94234775Y-95899137D01*
X94423991Y-96030646D01*
X94485000Y-96057300D01*
X94485000Y-96078306D01*
X94440457Y-96107657D01*
X94371678Y-96188357D01*
X94328104Y-96285022D01*
X94313186Y-96390000D01*
X94313186Y-96924352D01*
X94282206Y-96955332D01*
X94224751Y-97041319D01*
X94185175Y-97136863D01*
X94165000Y-97238292D01*
X94165000Y-97393750D01*
X94296250Y-97525000D01*
X94925000Y-97525000D01*
X94925000Y-97505000D01*
X95075000Y-97505000D01*
X95075000Y-97525000D01*
X95703750Y-97525000D01*
X95835000Y-97393750D01*
X95835000Y-97238292D01*
X95814825Y-97136863D01*
X95775249Y-97041319D01*
X95717794Y-96955332D01*
X95686814Y-96924352D01*
X95686814Y-96390000D01*
X95682052Y-96330283D01*
X95650685Y-96228996D01*
X95592343Y-96140457D01*
X95515000Y-96074539D01*
X95515000Y-96060590D01*
X95532344Y-96053863D01*
X95726902Y-95930392D01*
X95758800Y-95900016D01*
X96206050Y-95900016D01*
X96279334Y-96119508D01*
X96511586Y-96238592D01*
X96762608Y-96310077D01*
X97022753Y-96331217D01*
X97282023Y-96301199D01*
X97530455Y-96221177D01*
X97720666Y-96119508D01*
X97793950Y-95900016D01*
X97000000Y-95106066D01*
X96206050Y-95900016D01*
X95758800Y-95900016D01*
X95893773Y-95771484D01*
X95920256Y-95733942D01*
X96099984Y-95793950D01*
X96893934Y-95000000D01*
X97106066Y-95000000D01*
X97900016Y-95793950D01*
X98076344Y-95735078D01*
X98234775Y-95899137D01*
X98423991Y-96030646D01*
X98485000Y-96057300D01*
X98485000Y-96078306D01*
X98440457Y-96107657D01*
X98371678Y-96188357D01*
X98328104Y-96285022D01*
X98313186Y-96390000D01*
X98313186Y-96924352D01*
X98282206Y-96955332D01*
X98224751Y-97041319D01*
X98185175Y-97136863D01*
X98165000Y-97238292D01*
X98165000Y-97393750D01*
X98296250Y-97525000D01*
X98925000Y-97525000D01*
X98925000Y-97505000D01*
X99075000Y-97505000D01*
X99075000Y-97525000D01*
X99703750Y-97525000D01*
X99835000Y-97393750D01*
X99835000Y-97238292D01*
X99814825Y-97136863D01*
X99775249Y-97041319D01*
X99717794Y-96955332D01*
X99686814Y-96924352D01*
X99686814Y-96390000D01*
X99682052Y-96330283D01*
X99650685Y-96228996D01*
X99592343Y-96140457D01*
X99515000Y-96074539D01*
X99515000Y-96060590D01*
X99532344Y-96053863D01*
X99726902Y-95930392D01*
X99758800Y-95900016D01*
X100206050Y-95900016D01*
X100279334Y-96119508D01*
X100511586Y-96238592D01*
X100762608Y-96310077D01*
X101022753Y-96331217D01*
X101282023Y-96301199D01*
X101530455Y-96221177D01*
X101720666Y-96119508D01*
X101793950Y-95900016D01*
X101000000Y-95106066D01*
X100206050Y-95900016D01*
X99758800Y-95900016D01*
X99893773Y-95771484D01*
X99920256Y-95733942D01*
X100099984Y-95793950D01*
X100893934Y-95000000D01*
X101106066Y-95000000D01*
X101900016Y-95793950D01*
X102076344Y-95735078D01*
X102234775Y-95899137D01*
X102423991Y-96030646D01*
X102485000Y-96057300D01*
X102485000Y-96078306D01*
X102440457Y-96107657D01*
X102371678Y-96188357D01*
X102328104Y-96285022D01*
X102313186Y-96390000D01*
X102313186Y-96924352D01*
X102282206Y-96955332D01*
X102224751Y-97041319D01*
X102185175Y-97136863D01*
X102165000Y-97238292D01*
X102165000Y-97393750D01*
X102296250Y-97525000D01*
X102925000Y-97525000D01*
X102925000Y-97505000D01*
X103075000Y-97505000D01*
X103075000Y-97525000D01*
X103703750Y-97525000D01*
X103835000Y-97393750D01*
X103835000Y-97238292D01*
X103814825Y-97136863D01*
X103775249Y-97041319D01*
X103717794Y-96955332D01*
X103686814Y-96924352D01*
X103686814Y-96390000D01*
X103682052Y-96330283D01*
X103650685Y-96228996D01*
X103592343Y-96140457D01*
X103515000Y-96074539D01*
X103515000Y-96060590D01*
X103532344Y-96053863D01*
X103726902Y-95930392D01*
X103893773Y-95771484D01*
X104001157Y-95619257D01*
X104074705Y-95733380D01*
X104234775Y-95899137D01*
X104423991Y-96030646D01*
X104485000Y-96057300D01*
X104485000Y-96078306D01*
X104440457Y-96107657D01*
X104371678Y-96188357D01*
X104328104Y-96285022D01*
X104313186Y-96390000D01*
X104313186Y-96924352D01*
X104282206Y-96955332D01*
X104224751Y-97041319D01*
X104185175Y-97136863D01*
X104165000Y-97238292D01*
X104165000Y-97393750D01*
X104296250Y-97525000D01*
X104925000Y-97525000D01*
X104925000Y-97505000D01*
X105075000Y-97505000D01*
X105075000Y-97525000D01*
X105703750Y-97525000D01*
X105835000Y-97393750D01*
X105835000Y-97238292D01*
X105814825Y-97136863D01*
X105775249Y-97041319D01*
X105717794Y-96955332D01*
X105686814Y-96924352D01*
X105686814Y-96390000D01*
X105682052Y-96330283D01*
X105650685Y-96228996D01*
X105592343Y-96140457D01*
X105515000Y-96074539D01*
X105515000Y-96060590D01*
X105532344Y-96053863D01*
X105726902Y-95930392D01*
X105893773Y-95771484D01*
X106001157Y-95619257D01*
X106074705Y-95733380D01*
X106234775Y-95899137D01*
X106423991Y-96030646D01*
X106485000Y-96057300D01*
X106485000Y-96078306D01*
X106440457Y-96107657D01*
X106371678Y-96188357D01*
X106328104Y-96285022D01*
X106313186Y-96390000D01*
X106313186Y-96924352D01*
X106282206Y-96955332D01*
X106224751Y-97041319D01*
X106185175Y-97136863D01*
X106165000Y-97238292D01*
X106165000Y-97393750D01*
X106296250Y-97525000D01*
X106925000Y-97525000D01*
X106925000Y-97505000D01*
X107075000Y-97505000D01*
X107075000Y-97525000D01*
X107703750Y-97525000D01*
X107835000Y-97393750D01*
X107835000Y-97238292D01*
X107814825Y-97136863D01*
X107775249Y-97041319D01*
X107717794Y-96955332D01*
X107686814Y-96924352D01*
X107686814Y-96390000D01*
X107682052Y-96330283D01*
X107650685Y-96228996D01*
X107592343Y-96140457D01*
X107515000Y-96074539D01*
X107515000Y-96060590D01*
X107532344Y-96053863D01*
X107726902Y-95930392D01*
X107893773Y-95771484D01*
X108026600Y-95583190D01*
X108120324Y-95372682D01*
X108171375Y-95147979D01*
X108175050Y-94884785D01*
X108130293Y-94658744D01*
X108042483Y-94445702D01*
X107914965Y-94253772D01*
X107752597Y-94090267D01*
X107561562Y-93961412D01*
X107349138Y-93872117D01*
X107123415Y-93825783D01*
X106892991Y-93824174D01*
X106666644Y-93867352D01*
X106452993Y-93953673D01*
X106260178Y-94079847D01*
X106095543Y-94241070D01*
X105999611Y-94381175D01*
X105914965Y-94253772D01*
X105752597Y-94090267D01*
X105561562Y-93961412D01*
X105349138Y-93872117D01*
X105123415Y-93825783D01*
X104892991Y-93824174D01*
X104666644Y-93867352D01*
X104452993Y-93953673D01*
X104260178Y-94079847D01*
X104095543Y-94241070D01*
X103999611Y-94381175D01*
X103914965Y-94253772D01*
X103752597Y-94090267D01*
X103561562Y-93961412D01*
X103349138Y-93872117D01*
X103123415Y-93825783D01*
X102892991Y-93824174D01*
X102666644Y-93867352D01*
X102452993Y-93953673D01*
X102260178Y-94079847D01*
X102095543Y-94241070D01*
X102078678Y-94265702D01*
X101900016Y-94206050D01*
X101106066Y-95000000D01*
X100893934Y-95000000D01*
X100099984Y-94206050D01*
X99922606Y-94265273D01*
X99914965Y-94253772D01*
X99762247Y-94099984D01*
X100206050Y-94099984D01*
X101000000Y-94893934D01*
X101793950Y-94099984D01*
X101720666Y-93880492D01*
X101488414Y-93761408D01*
X101237392Y-93689923D01*
X100977247Y-93668783D01*
X100717977Y-93698801D01*
X100469545Y-93778823D01*
X100279334Y-93880492D01*
X100206050Y-94099984D01*
X99762247Y-94099984D01*
X99752597Y-94090267D01*
X99561562Y-93961412D01*
X99349138Y-93872117D01*
X99123415Y-93825783D01*
X98892991Y-93824174D01*
X98666644Y-93867352D01*
X98452993Y-93953673D01*
X98260178Y-94079847D01*
X98095543Y-94241070D01*
X98078678Y-94265702D01*
X97900016Y-94206050D01*
X97106066Y-95000000D01*
X96893934Y-95000000D01*
X96099984Y-94206050D01*
X95922606Y-94265273D01*
X95914965Y-94253772D01*
X95762247Y-94099984D01*
X96206050Y-94099984D01*
X97000000Y-94893934D01*
X97793950Y-94099984D01*
X97720666Y-93880492D01*
X97488414Y-93761408D01*
X97237392Y-93689923D01*
X96977247Y-93668783D01*
X96717977Y-93698801D01*
X96469545Y-93778823D01*
X96279334Y-93880492D01*
X96206050Y-94099984D01*
X95762247Y-94099984D01*
X95752597Y-94090267D01*
X95561562Y-93961412D01*
X95349138Y-93872117D01*
X95123415Y-93825783D01*
X94892991Y-93824174D01*
X94666644Y-93867352D01*
X94452993Y-93953673D01*
X94260178Y-94079847D01*
X94095543Y-94241070D01*
X94078678Y-94265702D01*
X93900016Y-94206050D01*
X93106066Y-95000000D01*
X92893934Y-95000000D01*
X92099984Y-94206050D01*
X91880492Y-94279334D01*
X91761408Y-94511586D01*
X91689923Y-94762608D01*
X91668783Y-95022753D01*
X88674176Y-95022753D01*
X88575900Y-94940290D01*
X88448487Y-94870244D01*
X88309894Y-94826280D01*
X88165402Y-94810073D01*
X88155000Y-94810000D01*
X87979053Y-94810000D01*
X87979825Y-94808137D01*
X88000000Y-94706708D01*
X88000000Y-94491250D01*
X87868750Y-94360000D01*
X86440000Y-94360000D01*
X86440000Y-94380000D01*
X86290000Y-94380000D01*
X86290000Y-94360000D01*
X83710000Y-94360000D01*
X83710000Y-94380000D01*
X83560000Y-94380000D01*
X83560000Y-94360000D01*
X82131250Y-94360000D01*
X82000000Y-94491250D01*
X82000000Y-94706708D01*
X82020175Y-94808137D01*
X82020947Y-94810000D01*
X81845000Y-94810000D01*
X81700295Y-94824188D01*
X81561103Y-94866213D01*
X81432723Y-94934474D01*
X81320048Y-95026370D01*
X81227367Y-95138401D01*
X81158212Y-95266301D01*
X81115216Y-95405197D01*
X81100018Y-95549799D01*
X81113196Y-95694599D01*
X81154248Y-95834082D01*
X81221611Y-95962935D01*
X81312718Y-96076249D01*
X81424100Y-96169710D01*
X81450652Y-96184307D01*
X81412723Y-96204474D01*
X81300048Y-96296370D01*
X81207367Y-96408401D01*
X81138212Y-96536301D01*
X81095216Y-96675197D01*
X81080018Y-96819799D01*
X81093196Y-96964599D01*
X81134248Y-97104082D01*
X81201611Y-97232935D01*
X81292718Y-97346249D01*
X81404100Y-97439710D01*
X81476527Y-97479527D01*
X81370048Y-97566370D01*
X81277367Y-97678401D01*
X81208212Y-97806301D01*
X81165216Y-97945197D01*
X81150018Y-98089799D01*
X81163196Y-98234599D01*
X81204248Y-98374082D01*
X81271611Y-98502935D01*
X81362718Y-98616249D01*
X81474100Y-98709710D01*
X81480985Y-98713495D01*
X81422723Y-98744474D01*
X81310048Y-98836370D01*
X81217367Y-98948401D01*
X81148212Y-99076301D01*
X81105216Y-99215197D01*
X81090018Y-99359799D01*
X81103196Y-99504599D01*
X81144248Y-99644082D01*
X81211611Y-99772935D01*
X81302718Y-99886249D01*
X81414100Y-99979710D01*
X81465235Y-100007821D01*
X81452723Y-100014474D01*
X81340048Y-100106370D01*
X81247367Y-100218401D01*
X81178212Y-100346301D01*
X81135216Y-100485197D01*
X81120018Y-100629799D01*
X81133196Y-100774599D01*
X81174248Y-100914082D01*
X81241611Y-101042935D01*
X81332718Y-101156249D01*
X81444100Y-101249710D01*
X81450985Y-101253495D01*
X81392723Y-101284474D01*
X81280048Y-101376370D01*
X81187367Y-101488401D01*
X81118212Y-101616301D01*
X81075216Y-101755197D01*
X81060018Y-101899799D01*
X80583553Y-101899799D01*
X80505188Y-98547575D01*
X81158574Y-94788675D01*
X81514923Y-93863292D01*
X82000000Y-93863292D01*
X82000000Y-94078750D01*
X82131250Y-94210000D01*
X83560000Y-94210000D01*
X83560000Y-93521250D01*
X83710000Y-93521250D01*
X83710000Y-94210000D01*
X86290000Y-94210000D01*
X86290000Y-93521250D01*
X86440000Y-93521250D01*
X86440000Y-94210000D01*
X87868750Y-94210000D01*
X87978766Y-94099984D01*
X92206050Y-94099984D01*
X93000000Y-94893934D01*
X93793950Y-94099984D01*
X93720666Y-93880492D01*
X93488414Y-93761408D01*
X93237392Y-93689923D01*
X92977247Y-93668783D01*
X92717977Y-93698801D01*
X92469545Y-93778823D01*
X92279334Y-93880492D01*
X92206050Y-94099984D01*
X87978766Y-94099984D01*
X88000000Y-94078750D01*
X88000000Y-93863292D01*
X87979825Y-93761863D01*
X87940249Y-93666319D01*
X87882794Y-93580332D01*
X87809668Y-93507206D01*
X87723681Y-93449751D01*
X87628137Y-93410175D01*
X87526708Y-93390000D01*
X86571250Y-93390000D01*
X86440000Y-93521250D01*
X86290000Y-93521250D01*
X86158750Y-93390000D01*
X85684063Y-93390000D01*
X85741642Y-93335168D01*
X85851860Y-93178924D01*
X85929631Y-93004247D01*
X85934689Y-92981981D01*
X90523718Y-92981981D01*
X90558235Y-93170047D01*
X90628623Y-93347827D01*
X90732201Y-93508550D01*
X90865025Y-93646093D01*
X91022035Y-93755217D01*
X91197250Y-93831767D01*
X91383998Y-93872826D01*
X91575163Y-93876831D01*
X91763466Y-93843628D01*
X91941733Y-93774482D01*
X92103175Y-93672028D01*
X92241642Y-93540168D01*
X92351860Y-93383924D01*
X92429631Y-93209247D01*
X92471993Y-93022791D01*
X92472562Y-92981981D01*
X107523718Y-92981981D01*
X107558235Y-93170047D01*
X107628623Y-93347827D01*
X107732201Y-93508550D01*
X107865025Y-93646093D01*
X108022035Y-93755217D01*
X108197250Y-93831767D01*
X108383998Y-93872826D01*
X108575163Y-93876831D01*
X108651946Y-93863292D01*
X112000000Y-93863292D01*
X112000000Y-94078750D01*
X112131250Y-94210000D01*
X113560000Y-94210000D01*
X113560000Y-93521250D01*
X113710000Y-93521250D01*
X113710000Y-94210000D01*
X116290000Y-94210000D01*
X116290000Y-93521250D01*
X116440000Y-93521250D01*
X116440000Y-94210000D01*
X117868750Y-94210000D01*
X118000000Y-94078750D01*
X118000000Y-93863292D01*
X117979825Y-93761863D01*
X117940249Y-93666319D01*
X117882794Y-93580332D01*
X117809668Y-93507206D01*
X117723681Y-93449751D01*
X117628137Y-93410175D01*
X117526708Y-93390000D01*
X116571250Y-93390000D01*
X116440000Y-93521250D01*
X116290000Y-93521250D01*
X116158750Y-93390000D01*
X115684063Y-93390000D01*
X115741642Y-93335168D01*
X115851860Y-93178924D01*
X115929631Y-93004247D01*
X115971993Y-92817791D01*
X115975042Y-92599396D01*
X115937903Y-92411830D01*
X115865040Y-92235050D01*
X115759227Y-92075790D01*
X115624496Y-91940114D01*
X115465978Y-91833192D01*
X115289710Y-91759097D01*
X115102408Y-91720649D01*
X114911206Y-91719314D01*
X114723385Y-91755143D01*
X114546101Y-91826770D01*
X114386105Y-91931469D01*
X114249492Y-92065249D01*
X114141467Y-92223017D01*
X114066142Y-92398763D01*
X114026388Y-92585792D01*
X114023718Y-92776981D01*
X114058235Y-92965047D01*
X114128623Y-93142827D01*
X114232201Y-93303550D01*
X114315685Y-93390000D01*
X113841250Y-93390000D01*
X113710000Y-93521250D01*
X113560000Y-93521250D01*
X113428750Y-93390000D01*
X112473292Y-93390000D01*
X112371863Y-93410175D01*
X112276319Y-93449751D01*
X112190332Y-93507206D01*
X112117206Y-93580332D01*
X112059751Y-93666319D01*
X112020175Y-93761863D01*
X112000000Y-93863292D01*
X108651946Y-93863292D01*
X108763466Y-93843628D01*
X108941733Y-93774482D01*
X109103175Y-93672028D01*
X109241642Y-93540168D01*
X109351860Y-93383924D01*
X109429631Y-93209247D01*
X109471993Y-93022791D01*
X109475042Y-92804396D01*
X109437903Y-92616830D01*
X109365040Y-92440050D01*
X109259227Y-92280790D01*
X109124496Y-92145114D01*
X108965978Y-92038192D01*
X108789710Y-91964097D01*
X108602408Y-91925649D01*
X108411206Y-91924314D01*
X108223385Y-91960143D01*
X108046101Y-92031770D01*
X107886105Y-92136469D01*
X107749492Y-92270249D01*
X107641467Y-92428017D01*
X107566142Y-92603763D01*
X107526388Y-92790792D01*
X107523718Y-92981981D01*
X92472562Y-92981981D01*
X92475042Y-92804396D01*
X92437903Y-92616830D01*
X92365040Y-92440050D01*
X92259227Y-92280790D01*
X92124496Y-92145114D01*
X91965978Y-92038192D01*
X91789710Y-91964097D01*
X91602408Y-91925649D01*
X91411206Y-91924314D01*
X91223385Y-91960143D01*
X91046101Y-92031770D01*
X90886105Y-92136469D01*
X90749492Y-92270249D01*
X90641467Y-92428017D01*
X90566142Y-92603763D01*
X90526388Y-92790792D01*
X90523718Y-92981981D01*
X85934689Y-92981981D01*
X85971993Y-92817791D01*
X85975042Y-92599396D01*
X85937903Y-92411830D01*
X85865040Y-92235050D01*
X85759227Y-92075790D01*
X85624496Y-91940114D01*
X85465978Y-91833192D01*
X85289710Y-91759097D01*
X85102408Y-91720649D01*
X84911206Y-91719314D01*
X84723385Y-91755143D01*
X84546101Y-91826770D01*
X84386105Y-91931469D01*
X84249492Y-92065249D01*
X84141467Y-92223017D01*
X84066142Y-92398763D01*
X84026388Y-92585792D01*
X84023718Y-92776981D01*
X84058235Y-92965047D01*
X84128623Y-93142827D01*
X84232201Y-93303550D01*
X84315685Y-93390000D01*
X83841250Y-93390000D01*
X83710000Y-93521250D01*
X83560000Y-93521250D01*
X83428750Y-93390000D01*
X82473292Y-93390000D01*
X82371863Y-93410175D01*
X82276319Y-93449751D01*
X82190332Y-93507206D01*
X82117206Y-93580332D01*
X82059751Y-93666319D01*
X82020175Y-93761863D01*
X82000000Y-93863292D01*
X81514923Y-93863292D01*
X82529627Y-91228269D01*
X84575107Y-87987737D01*
X85013675Y-87450000D01*
X114965441Y-87450000D01*
X117041404Y-90421494D01*
M02*
