G04 #@! TF.FileFunction,Legend,Top*
%FSLAX46Y46*%
G04 Gerber Fmt 4.6, Leading zero omitted, Abs format (unit mm)*
G04 Created by KiCad (PCBNEW 4.0.2+e4-6225~38~ubuntu14.04.1-stable) date Mon 27 Jun 2016 22:43:40 BST*
%MOMM*%
G01*
G04 APERTURE LIST*
%ADD10C,0.100000*%
%ADD11C,0.150000*%
%ADD12C,1.200000*%
%ADD13C,1.600000*%
%ADD14R,2.920000X0.740000*%
G04 APERTURE END LIST*
D10*
X93166667Y-99236667D02*
X93166667Y-98770000D01*
X93166667Y-98836667D02*
X93200000Y-98803333D01*
X93266667Y-98770000D01*
X93366667Y-98770000D01*
X93433333Y-98803333D01*
X93466667Y-98870000D01*
X93466667Y-99236667D01*
X93466667Y-98870000D02*
X93500000Y-98803333D01*
X93566667Y-98770000D01*
X93666667Y-98770000D01*
X93733333Y-98803333D01*
X93766667Y-98870000D01*
X93766667Y-99236667D01*
X94033333Y-98536667D02*
X94466666Y-98536667D01*
X94233333Y-98803333D01*
X94333333Y-98803333D01*
X94400000Y-98836667D01*
X94433333Y-98870000D01*
X94466666Y-98936667D01*
X94466666Y-99103333D01*
X94433333Y-99170000D01*
X94400000Y-99203333D01*
X94333333Y-99236667D01*
X94133333Y-99236667D01*
X94066666Y-99203333D01*
X94033333Y-99170000D01*
X95066667Y-99236667D02*
X95066667Y-98870000D01*
X95033333Y-98803333D01*
X94966667Y-98770000D01*
X94833333Y-98770000D01*
X94766667Y-98803333D01*
X95066667Y-99203333D02*
X95000000Y-99236667D01*
X94833333Y-99236667D01*
X94766667Y-99203333D01*
X94733333Y-99136667D01*
X94733333Y-99070000D01*
X94766667Y-99003333D01*
X94833333Y-98970000D01*
X95000000Y-98970000D01*
X95066667Y-98936667D01*
X95933333Y-98970000D02*
X96466666Y-98970000D01*
X97566666Y-98870000D02*
X97666666Y-98903333D01*
X97699999Y-98936667D01*
X97733333Y-99003333D01*
X97733333Y-99103333D01*
X97699999Y-99170000D01*
X97666666Y-99203333D01*
X97599999Y-99236667D01*
X97333333Y-99236667D01*
X97333333Y-98536667D01*
X97566666Y-98536667D01*
X97633333Y-98570000D01*
X97666666Y-98603333D01*
X97699999Y-98670000D01*
X97699999Y-98736667D01*
X97666666Y-98803333D01*
X97633333Y-98836667D01*
X97566666Y-98870000D01*
X97333333Y-98870000D01*
X98033333Y-99236667D02*
X98033333Y-98770000D01*
X98033333Y-98903333D02*
X98066666Y-98836667D01*
X98099999Y-98803333D01*
X98166666Y-98770000D01*
X98233333Y-98770000D01*
X98733332Y-99203333D02*
X98666666Y-99236667D01*
X98533332Y-99236667D01*
X98466666Y-99203333D01*
X98433332Y-99136667D01*
X98433332Y-98870000D01*
X98466666Y-98803333D01*
X98533332Y-98770000D01*
X98666666Y-98770000D01*
X98733332Y-98803333D01*
X98766666Y-98870000D01*
X98766666Y-98936667D01*
X98433332Y-99003333D01*
X99366666Y-99236667D02*
X99366666Y-98870000D01*
X99333332Y-98803333D01*
X99266666Y-98770000D01*
X99133332Y-98770000D01*
X99066666Y-98803333D01*
X99366666Y-99203333D02*
X99299999Y-99236667D01*
X99133332Y-99236667D01*
X99066666Y-99203333D01*
X99033332Y-99136667D01*
X99033332Y-99070000D01*
X99066666Y-99003333D01*
X99133332Y-98970000D01*
X99299999Y-98970000D01*
X99366666Y-98936667D01*
X99699999Y-99236667D02*
X99699999Y-98536667D01*
X99766665Y-98970000D02*
X99966665Y-99236667D01*
X99966665Y-98770000D02*
X99699999Y-99036667D01*
X100366666Y-99236667D02*
X100299999Y-99203333D01*
X100266666Y-99170000D01*
X100233332Y-99103333D01*
X100233332Y-98903333D01*
X100266666Y-98836667D01*
X100299999Y-98803333D01*
X100366666Y-98770000D01*
X100466666Y-98770000D01*
X100533332Y-98803333D01*
X100566666Y-98836667D01*
X100599999Y-98903333D01*
X100599999Y-99103333D01*
X100566666Y-99170000D01*
X100533332Y-99203333D01*
X100466666Y-99236667D01*
X100366666Y-99236667D01*
X101199999Y-98770000D02*
X101199999Y-99236667D01*
X100899999Y-98770000D02*
X100899999Y-99136667D01*
X100933332Y-99203333D01*
X100999999Y-99236667D01*
X101099999Y-99236667D01*
X101166665Y-99203333D01*
X101199999Y-99170000D01*
X101433332Y-98770000D02*
X101699998Y-98770000D01*
X101533332Y-98536667D02*
X101533332Y-99136667D01*
X101566665Y-99203333D01*
X101633332Y-99236667D01*
X101699998Y-99236667D01*
X102699998Y-98870000D02*
X102799998Y-98903333D01*
X102833331Y-98936667D01*
X102866665Y-99003333D01*
X102866665Y-99103333D01*
X102833331Y-99170000D01*
X102799998Y-99203333D01*
X102733331Y-99236667D01*
X102466665Y-99236667D01*
X102466665Y-98536667D01*
X102699998Y-98536667D01*
X102766665Y-98570000D01*
X102799998Y-98603333D01*
X102833331Y-98670000D01*
X102833331Y-98736667D01*
X102799998Y-98803333D01*
X102766665Y-98836667D01*
X102699998Y-98870000D01*
X102466665Y-98870000D01*
X103266665Y-99236667D02*
X103199998Y-99203333D01*
X103166665Y-99170000D01*
X103133331Y-99103333D01*
X103133331Y-98903333D01*
X103166665Y-98836667D01*
X103199998Y-98803333D01*
X103266665Y-98770000D01*
X103366665Y-98770000D01*
X103433331Y-98803333D01*
X103466665Y-98836667D01*
X103499998Y-98903333D01*
X103499998Y-99103333D01*
X103466665Y-99170000D01*
X103433331Y-99203333D01*
X103366665Y-99236667D01*
X103266665Y-99236667D01*
X104099998Y-99236667D02*
X104099998Y-98870000D01*
X104066664Y-98803333D01*
X103999998Y-98770000D01*
X103866664Y-98770000D01*
X103799998Y-98803333D01*
X104099998Y-99203333D02*
X104033331Y-99236667D01*
X103866664Y-99236667D01*
X103799998Y-99203333D01*
X103766664Y-99136667D01*
X103766664Y-99070000D01*
X103799998Y-99003333D01*
X103866664Y-98970000D01*
X104033331Y-98970000D01*
X104099998Y-98936667D01*
X104433331Y-99236667D02*
X104433331Y-98770000D01*
X104433331Y-98903333D02*
X104466664Y-98836667D01*
X104499997Y-98803333D01*
X104566664Y-98770000D01*
X104633331Y-98770000D01*
X105166664Y-99236667D02*
X105166664Y-98536667D01*
X105166664Y-99203333D02*
X105099997Y-99236667D01*
X104966664Y-99236667D01*
X104899997Y-99203333D01*
X104866664Y-99170000D01*
X104833330Y-99103333D01*
X104833330Y-98903333D01*
X104866664Y-98836667D01*
X104899997Y-98803333D01*
X104966664Y-98770000D01*
X105099997Y-98770000D01*
X105166664Y-98803333D01*
X106033330Y-99236667D02*
X106033330Y-98770000D01*
X106033330Y-98903333D02*
X106066663Y-98836667D01*
X106099996Y-98803333D01*
X106166663Y-98770000D01*
X106233330Y-98770000D01*
X106833329Y-99236667D02*
X106433329Y-99236667D01*
X106633329Y-99236667D02*
X106633329Y-98536667D01*
X106566663Y-98636667D01*
X106499996Y-98703333D01*
X106433329Y-98736667D01*
X93166667Y-100316667D02*
X93166667Y-99616667D01*
X93400000Y-100116667D01*
X93633333Y-99616667D01*
X93633333Y-100316667D01*
X94266667Y-100316667D02*
X94266667Y-99950000D01*
X94233333Y-99883333D01*
X94166667Y-99850000D01*
X94033333Y-99850000D01*
X93966667Y-99883333D01*
X94266667Y-100283333D02*
X94200000Y-100316667D01*
X94033333Y-100316667D01*
X93966667Y-100283333D01*
X93933333Y-100216667D01*
X93933333Y-100150000D01*
X93966667Y-100083333D01*
X94033333Y-100050000D01*
X94200000Y-100050000D01*
X94266667Y-100016667D01*
X94500000Y-99850000D02*
X94766666Y-99850000D01*
X94600000Y-99616667D02*
X94600000Y-100216667D01*
X94633333Y-100283333D01*
X94700000Y-100316667D01*
X94766666Y-100316667D01*
X94900000Y-99850000D02*
X95166666Y-99850000D01*
X95000000Y-99616667D02*
X95000000Y-100216667D01*
X95033333Y-100283333D01*
X95100000Y-100316667D01*
X95166666Y-100316667D01*
X96333333Y-100250000D02*
X96299999Y-100283333D01*
X96199999Y-100316667D01*
X96133333Y-100316667D01*
X96033333Y-100283333D01*
X95966666Y-100216667D01*
X95933333Y-100150000D01*
X95899999Y-100016667D01*
X95899999Y-99916667D01*
X95933333Y-99783333D01*
X95966666Y-99716667D01*
X96033333Y-99650000D01*
X96133333Y-99616667D01*
X96199999Y-99616667D01*
X96299999Y-99650000D01*
X96333333Y-99683333D01*
X96733333Y-100316667D02*
X96666666Y-100283333D01*
X96633333Y-100250000D01*
X96599999Y-100183333D01*
X96599999Y-99983333D01*
X96633333Y-99916667D01*
X96666666Y-99883333D01*
X96733333Y-99850000D01*
X96833333Y-99850000D01*
X96899999Y-99883333D01*
X96933333Y-99916667D01*
X96966666Y-99983333D01*
X96966666Y-100183333D01*
X96933333Y-100250000D01*
X96899999Y-100283333D01*
X96833333Y-100316667D01*
X96733333Y-100316667D01*
X97566666Y-100316667D02*
X97566666Y-99950000D01*
X97533332Y-99883333D01*
X97466666Y-99850000D01*
X97333332Y-99850000D01*
X97266666Y-99883333D01*
X97566666Y-100283333D02*
X97499999Y-100316667D01*
X97333332Y-100316667D01*
X97266666Y-100283333D01*
X97233332Y-100216667D01*
X97233332Y-100150000D01*
X97266666Y-100083333D01*
X97333332Y-100050000D01*
X97499999Y-100050000D01*
X97566666Y-100016667D01*
X97799999Y-99850000D02*
X98066665Y-99850000D01*
X97899999Y-99616667D02*
X97899999Y-100216667D01*
X97933332Y-100283333D01*
X97999999Y-100316667D01*
X98066665Y-100316667D01*
X98566665Y-100283333D02*
X98499999Y-100316667D01*
X98366665Y-100316667D01*
X98299999Y-100283333D01*
X98266665Y-100216667D01*
X98266665Y-99950000D01*
X98299999Y-99883333D01*
X98366665Y-99850000D01*
X98499999Y-99850000D01*
X98566665Y-99883333D01*
X98599999Y-99950000D01*
X98599999Y-100016667D01*
X98266665Y-100083333D01*
X98866665Y-100283333D02*
X98933332Y-100316667D01*
X99066665Y-100316667D01*
X99133332Y-100283333D01*
X99166665Y-100216667D01*
X99166665Y-100183333D01*
X99133332Y-100116667D01*
X99066665Y-100083333D01*
X98966665Y-100083333D01*
X98899999Y-100050000D01*
X98866665Y-99983333D01*
X98866665Y-99950000D01*
X98899999Y-99883333D01*
X98966665Y-99850000D01*
X99066665Y-99850000D01*
X99133332Y-99883333D01*
X93533333Y-101396667D02*
X93133333Y-101396667D01*
X93333333Y-101396667D02*
X93333333Y-100696667D01*
X93266667Y-100796667D01*
X93200000Y-100863333D01*
X93133333Y-100896667D01*
X93800000Y-100763333D02*
X93833334Y-100730000D01*
X93900000Y-100696667D01*
X94066667Y-100696667D01*
X94133334Y-100730000D01*
X94166667Y-100763333D01*
X94200000Y-100830000D01*
X94200000Y-100896667D01*
X94166667Y-100996667D01*
X93766667Y-101396667D01*
X94200000Y-101396667D01*
X95000001Y-100663333D02*
X94400001Y-101563333D01*
X95366667Y-100696667D02*
X95433334Y-100696667D01*
X95500000Y-100730000D01*
X95533334Y-100763333D01*
X95566667Y-100830000D01*
X95600000Y-100963333D01*
X95600000Y-101130000D01*
X95566667Y-101263333D01*
X95533334Y-101330000D01*
X95500000Y-101363333D01*
X95433334Y-101396667D01*
X95366667Y-101396667D01*
X95300000Y-101363333D01*
X95266667Y-101330000D01*
X95233334Y-101263333D01*
X95200000Y-101130000D01*
X95200000Y-100963333D01*
X95233334Y-100830000D01*
X95266667Y-100763333D01*
X95300000Y-100730000D01*
X95366667Y-100696667D01*
X96200001Y-100696667D02*
X96066667Y-100696667D01*
X96000001Y-100730000D01*
X95966667Y-100763333D01*
X95900001Y-100863333D01*
X95866667Y-100996667D01*
X95866667Y-101263333D01*
X95900001Y-101330000D01*
X95933334Y-101363333D01*
X96000001Y-101396667D01*
X96133334Y-101396667D01*
X96200001Y-101363333D01*
X96233334Y-101330000D01*
X96266667Y-101263333D01*
X96266667Y-101096667D01*
X96233334Y-101030000D01*
X96200001Y-100996667D01*
X96133334Y-100963333D01*
X96000001Y-100963333D01*
X95933334Y-100996667D01*
X95900001Y-101030000D01*
X95866667Y-101096667D01*
X97066668Y-100663333D02*
X96466668Y-101563333D01*
X97666667Y-101396667D02*
X97266667Y-101396667D01*
X97466667Y-101396667D02*
X97466667Y-100696667D01*
X97400001Y-100796667D01*
X97333334Y-100863333D01*
X97266667Y-100896667D01*
X98266668Y-100696667D02*
X98133334Y-100696667D01*
X98066668Y-100730000D01*
X98033334Y-100763333D01*
X97966668Y-100863333D01*
X97933334Y-100996667D01*
X97933334Y-101263333D01*
X97966668Y-101330000D01*
X98000001Y-101363333D01*
X98066668Y-101396667D01*
X98200001Y-101396667D01*
X98266668Y-101363333D01*
X98300001Y-101330000D01*
X98333334Y-101263333D01*
X98333334Y-101096667D01*
X98300001Y-101030000D01*
X98266668Y-100996667D01*
X98200001Y-100963333D01*
X98066668Y-100963333D01*
X98000001Y-100996667D01*
X97966668Y-101030000D01*
X97933334Y-101096667D01*
D11*
X91000000Y-86800000D02*
X109000000Y-86800000D01*
X109000000Y-86800000D02*
X109000000Y-98500000D01*
X109000000Y-98500000D02*
X108000000Y-98500000D01*
X108000000Y-98500000D02*
X108000000Y-94500000D01*
X91000000Y-86800000D02*
X91000000Y-98500000D01*
X91000000Y-98500000D02*
X92000000Y-98500000D01*
X92000000Y-98500000D02*
X92000000Y-94500000D01*
X87785000Y-93635000D02*
X87785000Y-92135000D01*
X87785000Y-92135000D02*
X82215000Y-92135000D01*
X82215000Y-92135000D02*
X82215000Y-93635000D01*
X82215000Y-106365000D02*
X83715000Y-107865000D01*
X83715000Y-107865000D02*
X86285000Y-107865000D01*
X86285000Y-107865000D02*
X87785000Y-106365000D01*
X117785000Y-93635000D02*
X117785000Y-92135000D01*
X117785000Y-92135000D02*
X112215000Y-92135000D01*
X112215000Y-92135000D02*
X112215000Y-93635000D01*
X112215000Y-106365000D02*
X113715000Y-107865000D01*
X113715000Y-107865000D02*
X116285000Y-107865000D01*
X116285000Y-107865000D02*
X117785000Y-106365000D01*
X109000000Y-113200000D02*
X91000000Y-113200000D01*
X91000000Y-113200000D02*
X91000000Y-101500000D01*
X91000000Y-101500000D02*
X92000000Y-101500000D01*
X92000000Y-101500000D02*
X92000000Y-105500000D01*
X109000000Y-113200000D02*
X109000000Y-101500000D01*
X109000000Y-101500000D02*
X108000000Y-101500000D01*
X108000000Y-101500000D02*
X108000000Y-105500000D01*
%LPC*%
D12*
X108500000Y-92900000D03*
X91500000Y-92900000D03*
D13*
X107000000Y-95000000D03*
X105000000Y-95000000D03*
X103000000Y-95000000D03*
X101000000Y-95000000D03*
X99000000Y-95000000D03*
X97000000Y-95000000D03*
X95000000Y-95000000D03*
X93000000Y-95000000D03*
D14*
X83285000Y-94285000D03*
X86715000Y-94285000D03*
X83285000Y-95555000D03*
X86715000Y-95555000D03*
X83285000Y-96825000D03*
X86715000Y-96825000D03*
X83285000Y-98095000D03*
X86715000Y-98095000D03*
X83285000Y-99365000D03*
X86715000Y-99365000D03*
X83285000Y-100635000D03*
X86715000Y-100635000D03*
X83285000Y-101905000D03*
X86715000Y-101905000D03*
X83285000Y-103175000D03*
X86715000Y-103175000D03*
X83285000Y-104445000D03*
X86715000Y-104445000D03*
X83285000Y-105715000D03*
X86715000Y-105715000D03*
X113285000Y-94285000D03*
X116715000Y-94285000D03*
X113285000Y-95555000D03*
X116715000Y-95555000D03*
X113285000Y-96825000D03*
X116715000Y-96825000D03*
X113285000Y-98095000D03*
X116715000Y-98095000D03*
X113285000Y-99365000D03*
X116715000Y-99365000D03*
X113285000Y-100635000D03*
X116715000Y-100635000D03*
X113285000Y-101905000D03*
X116715000Y-101905000D03*
X113285000Y-103175000D03*
X116715000Y-103175000D03*
X113285000Y-104445000D03*
X116715000Y-104445000D03*
X113285000Y-105715000D03*
X116715000Y-105715000D03*
D12*
X85000000Y-107305000D03*
X85000000Y-92695000D03*
X115000000Y-107305000D03*
X115000000Y-92695000D03*
X91500000Y-107100000D03*
X108500000Y-107100000D03*
D13*
X93000000Y-105000000D03*
X95000000Y-105000000D03*
X97000000Y-105000000D03*
X99000000Y-105000000D03*
X101000000Y-105000000D03*
X103000000Y-105000000D03*
X105000000Y-105000000D03*
X107000000Y-105000000D03*
M02*
