G04 #@! TF.FileFunction,Legend,Bot*
%FSLAX46Y46*%
G04 Gerber Fmt 4.6, Leading zero omitted, Abs format (unit mm)*
G04 Created by KiCad (PCBNEW 4.1.0-alpha+201605071002+6776~44~ubuntu14.04.1-product) date Tue 05 Jul 2016 00:44:42 BST*
%MOMM*%
%LPD*%
G01*
G04 APERTURE LIST*
%ADD10C,0.100000*%
%ADD11C,0.200000*%
%ADD12C,0.010000*%
%ADD13C,0.150000*%
%ADD14R,0.620000X0.620000*%
%ADD15R,2.220000X0.740000*%
%ADD16C,1.200000*%
%ADD17R,0.740000X2.220000*%
G04 APERTURE END LIST*
D10*
D11*
X100330000Y-94570000D02*
X102170000Y-94570000D01*
X100330000Y-95520000D02*
X102170000Y-95520000D01*
X93030000Y-88060000D02*
X91080000Y-88060000D01*
X97460000Y-92670000D02*
X99460000Y-92670000D01*
X97490000Y-91730000D02*
X99430000Y-91730000D01*
X104380000Y-89630000D02*
X102470000Y-89630000D01*
X108420000Y-91950000D02*
X110410000Y-91950000D01*
X108460000Y-92920000D02*
X110380000Y-92920000D01*
D12*
G36*
X110066746Y-114529605D02*
X109985442Y-114579704D01*
X109864060Y-114658223D01*
X109708517Y-114761089D01*
X109524731Y-114884226D01*
X109318620Y-115023561D01*
X109096102Y-115175019D01*
X108863093Y-115334527D01*
X108625513Y-115498010D01*
X108389277Y-115661395D01*
X108160305Y-115820607D01*
X107944514Y-115971572D01*
X107747820Y-116110216D01*
X107576143Y-116232464D01*
X107435400Y-116334244D01*
X107331508Y-116411480D01*
X107270385Y-116460098D01*
X107263790Y-116466051D01*
X107191248Y-116566783D01*
X107175500Y-116641941D01*
X107192938Y-116712282D01*
X107246104Y-116733818D01*
X107336275Y-116706377D01*
X107464731Y-116629792D01*
X107510460Y-116597544D01*
X107576864Y-116550318D01*
X107689038Y-116471609D01*
X107840455Y-116365953D01*
X108024589Y-116237886D01*
X108234915Y-116091943D01*
X108464906Y-115932660D01*
X108708035Y-115764574D01*
X108842375Y-115671824D01*
X109085283Y-115503745D01*
X109314565Y-115344229D01*
X109524362Y-115197414D01*
X109708816Y-115067438D01*
X109862068Y-114958440D01*
X109978261Y-114874559D01*
X110051535Y-114819933D01*
X110072688Y-114802714D01*
X110129417Y-114728503D01*
X110159796Y-114645162D01*
X110162046Y-114570285D01*
X110134394Y-114521467D01*
X110102055Y-114512000D01*
X110066746Y-114529605D01*
X110066746Y-114529605D01*
G37*
X110066746Y-114529605D02*
X109985442Y-114579704D01*
X109864060Y-114658223D01*
X109708517Y-114761089D01*
X109524731Y-114884226D01*
X109318620Y-115023561D01*
X109096102Y-115175019D01*
X108863093Y-115334527D01*
X108625513Y-115498010D01*
X108389277Y-115661395D01*
X108160305Y-115820607D01*
X107944514Y-115971572D01*
X107747820Y-116110216D01*
X107576143Y-116232464D01*
X107435400Y-116334244D01*
X107331508Y-116411480D01*
X107270385Y-116460098D01*
X107263790Y-116466051D01*
X107191248Y-116566783D01*
X107175500Y-116641941D01*
X107192938Y-116712282D01*
X107246104Y-116733818D01*
X107336275Y-116706377D01*
X107464731Y-116629792D01*
X107510460Y-116597544D01*
X107576864Y-116550318D01*
X107689038Y-116471609D01*
X107840455Y-116365953D01*
X108024589Y-116237886D01*
X108234915Y-116091943D01*
X108464906Y-115932660D01*
X108708035Y-115764574D01*
X108842375Y-115671824D01*
X109085283Y-115503745D01*
X109314565Y-115344229D01*
X109524362Y-115197414D01*
X109708816Y-115067438D01*
X109862068Y-114958440D01*
X109978261Y-114874559D01*
X110051535Y-114819933D01*
X110072688Y-114802714D01*
X110129417Y-114728503D01*
X110159796Y-114645162D01*
X110162046Y-114570285D01*
X110134394Y-114521467D01*
X110102055Y-114512000D01*
X110066746Y-114529605D01*
G36*
X110073151Y-113608983D02*
X109990766Y-113659461D01*
X109868413Y-113738601D01*
X109711974Y-113842322D01*
X109527331Y-113966541D01*
X109320366Y-114107176D01*
X109096959Y-114260144D01*
X108862992Y-114421364D01*
X108624346Y-114586753D01*
X108386904Y-114752229D01*
X108156547Y-114913709D01*
X107939155Y-115067111D01*
X107740612Y-115208354D01*
X107566797Y-115333354D01*
X107423592Y-115438031D01*
X107316880Y-115518300D01*
X107252541Y-115570080D01*
X107237415Y-115584851D01*
X107192331Y-115671052D01*
X107180089Y-115759578D01*
X107199518Y-115831386D01*
X107249444Y-115867432D01*
X107254875Y-115868217D01*
X107295308Y-115851635D01*
X107384290Y-115799944D01*
X107518829Y-115715119D01*
X107695931Y-115599140D01*
X107912602Y-115453985D01*
X108165850Y-115281632D01*
X108452682Y-115084059D01*
X108673012Y-114930997D01*
X108935943Y-114747497D01*
X109184569Y-114573482D01*
X109413726Y-114412598D01*
X109618249Y-114268497D01*
X109792974Y-114144825D01*
X109932738Y-114045234D01*
X110032376Y-113973371D01*
X110086724Y-113932885D01*
X110093825Y-113927046D01*
X110134942Y-113864412D01*
X110158510Y-113779566D01*
X110163584Y-113692489D01*
X110149222Y-113623161D01*
X110114478Y-113591565D01*
X110109688Y-113591250D01*
X110073151Y-113608983D01*
X110073151Y-113608983D01*
G37*
X110073151Y-113608983D02*
X109990766Y-113659461D01*
X109868413Y-113738601D01*
X109711974Y-113842322D01*
X109527331Y-113966541D01*
X109320366Y-114107176D01*
X109096959Y-114260144D01*
X108862992Y-114421364D01*
X108624346Y-114586753D01*
X108386904Y-114752229D01*
X108156547Y-114913709D01*
X107939155Y-115067111D01*
X107740612Y-115208354D01*
X107566797Y-115333354D01*
X107423592Y-115438031D01*
X107316880Y-115518300D01*
X107252541Y-115570080D01*
X107237415Y-115584851D01*
X107192331Y-115671052D01*
X107180089Y-115759578D01*
X107199518Y-115831386D01*
X107249444Y-115867432D01*
X107254875Y-115868217D01*
X107295308Y-115851635D01*
X107384290Y-115799944D01*
X107518829Y-115715119D01*
X107695931Y-115599140D01*
X107912602Y-115453985D01*
X108165850Y-115281632D01*
X108452682Y-115084059D01*
X108673012Y-114930997D01*
X108935943Y-114747497D01*
X109184569Y-114573482D01*
X109413726Y-114412598D01*
X109618249Y-114268497D01*
X109792974Y-114144825D01*
X109932738Y-114045234D01*
X110032376Y-113973371D01*
X110086724Y-113932885D01*
X110093825Y-113927046D01*
X110134942Y-113864412D01*
X110158510Y-113779566D01*
X110163584Y-113692489D01*
X110149222Y-113623161D01*
X110114478Y-113591565D01*
X110109688Y-113591250D01*
X110073151Y-113608983D01*
G36*
X110066509Y-112583936D02*
X110038166Y-112595906D01*
X109996346Y-112618744D01*
X109936958Y-112655127D01*
X109855910Y-112707734D01*
X109749110Y-112779247D01*
X109612467Y-112872343D01*
X109441889Y-112989701D01*
X109233286Y-113134002D01*
X108982565Y-113307924D01*
X108685634Y-113514148D01*
X108533582Y-113619775D01*
X108200640Y-113852106D01*
X107919183Y-114050812D01*
X107687593Y-114217090D01*
X107504253Y-114352136D01*
X107367548Y-114457148D01*
X107275860Y-114533323D01*
X107227573Y-114581857D01*
X107221262Y-114591293D01*
X107186709Y-114689500D01*
X107177745Y-114792525D01*
X107192606Y-114881643D01*
X107229528Y-114938127D01*
X107254875Y-114948186D01*
X107296075Y-114931776D01*
X107386102Y-114879917D01*
X107522312Y-114794351D01*
X107702060Y-114676817D01*
X107922703Y-114529055D01*
X108181597Y-114352805D01*
X108476097Y-114149807D01*
X108620125Y-114049784D01*
X108880108Y-113868601D01*
X109127561Y-113695679D01*
X109356921Y-113534938D01*
X109562623Y-113390300D01*
X109739100Y-113265687D01*
X109880790Y-113165020D01*
X109982126Y-113092222D01*
X110037543Y-113051213D01*
X110040938Y-113048539D01*
X110110244Y-112987937D01*
X110145665Y-112933192D01*
X110158465Y-112858811D01*
X110160000Y-112779132D01*
X110153992Y-112666146D01*
X110134098Y-112604531D01*
X110111589Y-112586429D01*
X110099129Y-112581876D01*
X110085466Y-112580152D01*
X110066509Y-112583936D01*
X110066509Y-112583936D01*
G37*
X110066509Y-112583936D02*
X110038166Y-112595906D01*
X109996346Y-112618744D01*
X109936958Y-112655127D01*
X109855910Y-112707734D01*
X109749110Y-112779247D01*
X109612467Y-112872343D01*
X109441889Y-112989701D01*
X109233286Y-113134002D01*
X108982565Y-113307924D01*
X108685634Y-113514148D01*
X108533582Y-113619775D01*
X108200640Y-113852106D01*
X107919183Y-114050812D01*
X107687593Y-114217090D01*
X107504253Y-114352136D01*
X107367548Y-114457148D01*
X107275860Y-114533323D01*
X107227573Y-114581857D01*
X107221262Y-114591293D01*
X107186709Y-114689500D01*
X107177745Y-114792525D01*
X107192606Y-114881643D01*
X107229528Y-114938127D01*
X107254875Y-114948186D01*
X107296075Y-114931776D01*
X107386102Y-114879917D01*
X107522312Y-114794351D01*
X107702060Y-114676817D01*
X107922703Y-114529055D01*
X108181597Y-114352805D01*
X108476097Y-114149807D01*
X108620125Y-114049784D01*
X108880108Y-113868601D01*
X109127561Y-113695679D01*
X109356921Y-113534938D01*
X109562623Y-113390300D01*
X109739100Y-113265687D01*
X109880790Y-113165020D01*
X109982126Y-113092222D01*
X110037543Y-113051213D01*
X110040938Y-113048539D01*
X110110244Y-112987937D01*
X110145665Y-112933192D01*
X110158465Y-112858811D01*
X110160000Y-112779132D01*
X110153992Y-112666146D01*
X110134098Y-112604531D01*
X110111589Y-112586429D01*
X110099129Y-112581876D01*
X110085466Y-112580152D01*
X110066509Y-112583936D01*
G36*
X110050469Y-111485271D02*
X109965510Y-111533706D01*
X109840394Y-111611706D01*
X109680856Y-111715565D01*
X109492630Y-111841579D01*
X109281450Y-111986042D01*
X109152912Y-112075286D01*
X108913328Y-112242396D01*
X108663726Y-112416323D01*
X108415798Y-112588933D01*
X108181235Y-112752091D01*
X107971729Y-112897662D01*
X107798971Y-113017511D01*
X107754836Y-113048079D01*
X107593973Y-113161262D01*
X107450304Y-113265804D01*
X107332445Y-113355156D01*
X107249008Y-113422771D01*
X107208607Y-113462100D01*
X107207149Y-113464440D01*
X107183668Y-113541165D01*
X107174088Y-113642561D01*
X107177498Y-113747753D01*
X107192985Y-113835866D01*
X107219637Y-113886024D01*
X107225722Y-113889478D01*
X107269651Y-113903375D01*
X107308447Y-113900588D01*
X107360045Y-113874807D01*
X107442383Y-113819723D01*
X107461250Y-113806627D01*
X107903371Y-113499240D01*
X108295917Y-113226005D01*
X108641583Y-112985011D01*
X108943060Y-112774347D01*
X109203040Y-112592102D01*
X109424216Y-112436366D01*
X109609280Y-112305226D01*
X109760923Y-112196772D01*
X109881839Y-112109094D01*
X109974720Y-112040279D01*
X110042257Y-111988416D01*
X110087143Y-111951596D01*
X110112070Y-111927906D01*
X110117393Y-111921172D01*
X110145344Y-111846292D01*
X110157347Y-111745527D01*
X110154607Y-111638373D01*
X110138327Y-111544324D01*
X110109712Y-111482874D01*
X110089537Y-111470105D01*
X110050469Y-111485271D01*
X110050469Y-111485271D01*
G37*
X110050469Y-111485271D02*
X109965510Y-111533706D01*
X109840394Y-111611706D01*
X109680856Y-111715565D01*
X109492630Y-111841579D01*
X109281450Y-111986042D01*
X109152912Y-112075286D01*
X108913328Y-112242396D01*
X108663726Y-112416323D01*
X108415798Y-112588933D01*
X108181235Y-112752091D01*
X107971729Y-112897662D01*
X107798971Y-113017511D01*
X107754836Y-113048079D01*
X107593973Y-113161262D01*
X107450304Y-113265804D01*
X107332445Y-113355156D01*
X107249008Y-113422771D01*
X107208607Y-113462100D01*
X107207149Y-113464440D01*
X107183668Y-113541165D01*
X107174088Y-113642561D01*
X107177498Y-113747753D01*
X107192985Y-113835866D01*
X107219637Y-113886024D01*
X107225722Y-113889478D01*
X107269651Y-113903375D01*
X107308447Y-113900588D01*
X107360045Y-113874807D01*
X107442383Y-113819723D01*
X107461250Y-113806627D01*
X107903371Y-113499240D01*
X108295917Y-113226005D01*
X108641583Y-112985011D01*
X108943060Y-112774347D01*
X109203040Y-112592102D01*
X109424216Y-112436366D01*
X109609280Y-112305226D01*
X109760923Y-112196772D01*
X109881839Y-112109094D01*
X109974720Y-112040279D01*
X110042257Y-111988416D01*
X110087143Y-111951596D01*
X110112070Y-111927906D01*
X110117393Y-111921172D01*
X110145344Y-111846292D01*
X110157347Y-111745527D01*
X110154607Y-111638373D01*
X110138327Y-111544324D01*
X110109712Y-111482874D01*
X110089537Y-111470105D01*
X110050469Y-111485271D01*
G36*
X110072688Y-110295954D02*
X110030564Y-110316366D01*
X109942702Y-110369327D01*
X109815170Y-110450662D01*
X109654033Y-110556198D01*
X109465357Y-110681759D01*
X109255210Y-110823172D01*
X109029658Y-110976261D01*
X108794766Y-111136853D01*
X108556603Y-111300772D01*
X108321232Y-111463845D01*
X108094723Y-111621896D01*
X107883139Y-111770753D01*
X107692549Y-111906239D01*
X107529019Y-112024180D01*
X107398614Y-112120403D01*
X107307401Y-112190732D01*
X107262813Y-112229507D01*
X107213712Y-112289900D01*
X107187304Y-112353073D01*
X107176882Y-112441774D01*
X107175500Y-112525529D01*
X107180005Y-112675596D01*
X107194883Y-112770741D01*
X107222181Y-112818995D01*
X107252868Y-112829250D01*
X107285934Y-112811672D01*
X107365922Y-112761257D01*
X107487663Y-112681479D01*
X107645985Y-112575812D01*
X107835720Y-112447731D01*
X108051696Y-112300710D01*
X108288744Y-112138225D01*
X108541694Y-111963751D01*
X108575034Y-111940675D01*
X108834905Y-111760241D01*
X109083338Y-111586790D01*
X109314519Y-111424449D01*
X109522636Y-111277341D01*
X109701875Y-111149594D01*
X109846422Y-111045332D01*
X109950464Y-110968681D01*
X110008187Y-110923766D01*
X110009188Y-110922913D01*
X110160000Y-110793726D01*
X110160000Y-110282042D01*
X110072688Y-110295954D01*
X110072688Y-110295954D01*
G37*
X110072688Y-110295954D02*
X110030564Y-110316366D01*
X109942702Y-110369327D01*
X109815170Y-110450662D01*
X109654033Y-110556198D01*
X109465357Y-110681759D01*
X109255210Y-110823172D01*
X109029658Y-110976261D01*
X108794766Y-111136853D01*
X108556603Y-111300772D01*
X108321232Y-111463845D01*
X108094723Y-111621896D01*
X107883139Y-111770753D01*
X107692549Y-111906239D01*
X107529019Y-112024180D01*
X107398614Y-112120403D01*
X107307401Y-112190732D01*
X107262813Y-112229507D01*
X107213712Y-112289900D01*
X107187304Y-112353073D01*
X107176882Y-112441774D01*
X107175500Y-112525529D01*
X107180005Y-112675596D01*
X107194883Y-112770741D01*
X107222181Y-112818995D01*
X107252868Y-112829250D01*
X107285934Y-112811672D01*
X107365922Y-112761257D01*
X107487663Y-112681479D01*
X107645985Y-112575812D01*
X107835720Y-112447731D01*
X108051696Y-112300710D01*
X108288744Y-112138225D01*
X108541694Y-111963751D01*
X108575034Y-111940675D01*
X108834905Y-111760241D01*
X109083338Y-111586790D01*
X109314519Y-111424449D01*
X109522636Y-111277341D01*
X109701875Y-111149594D01*
X109846422Y-111045332D01*
X109950464Y-110968681D01*
X110008187Y-110923766D01*
X110009188Y-110922913D01*
X110160000Y-110793726D01*
X110160000Y-110282042D01*
X110072688Y-110295954D01*
G36*
X108645802Y-98118264D02*
X108596605Y-98182676D01*
X108523792Y-98292539D01*
X108426090Y-98449908D01*
X108302227Y-98656836D01*
X108150930Y-98915378D01*
X107970928Y-99227586D01*
X107952505Y-99259735D01*
X107807939Y-99513144D01*
X107671522Y-99754239D01*
X107546912Y-99976407D01*
X107437771Y-100173035D01*
X107347757Y-100337512D01*
X107280531Y-100463225D01*
X107239754Y-100543563D01*
X107230972Y-100563240D01*
X107223909Y-100583729D01*
X107217479Y-100609665D01*
X107211657Y-100643911D01*
X107206420Y-100689331D01*
X107201742Y-100748789D01*
X107197600Y-100825149D01*
X107193968Y-100921275D01*
X107190823Y-101040030D01*
X107188139Y-101184278D01*
X107185894Y-101356883D01*
X107184061Y-101560709D01*
X107182616Y-101798619D01*
X107181536Y-102073477D01*
X107180795Y-102388148D01*
X107180369Y-102745494D01*
X107180234Y-103148380D01*
X107180365Y-103599670D01*
X107180738Y-104102226D01*
X107181329Y-104658914D01*
X107182112Y-105272597D01*
X107183063Y-105946138D01*
X107183347Y-106139692D01*
X107191375Y-111575125D01*
X107270750Y-111580748D01*
X107306360Y-111570566D01*
X107373722Y-111535935D01*
X107475491Y-111475112D01*
X107614320Y-111386350D01*
X107792863Y-111267908D01*
X108013774Y-111118039D01*
X108279708Y-110935000D01*
X108593318Y-110717046D01*
X108728804Y-110622426D01*
X108992515Y-110437512D01*
X109240669Y-110262478D01*
X109468342Y-110100868D01*
X109670607Y-109956229D01*
X109842538Y-109832105D01*
X109979210Y-109732042D01*
X110075696Y-109659585D01*
X110127071Y-109618280D01*
X110134066Y-109610979D01*
X110137143Y-109574153D01*
X110140003Y-109477453D01*
X110142634Y-109324506D01*
X110145019Y-109118938D01*
X110147145Y-108864376D01*
X110148997Y-108564446D01*
X110150559Y-108222774D01*
X110151818Y-107842986D01*
X110152463Y-107558750D01*
X109461500Y-107558750D01*
X109461500Y-109432000D01*
X109080500Y-109432000D01*
X109080500Y-108670000D01*
X108096250Y-108670000D01*
X108096250Y-108352500D01*
X109080500Y-108352500D01*
X109080500Y-107876250D01*
X107937500Y-107876250D01*
X107937500Y-107558750D01*
X109461500Y-107558750D01*
X110152463Y-107558750D01*
X110152759Y-107428709D01*
X110153367Y-106983569D01*
X110153628Y-106511193D01*
X110153628Y-106511000D01*
X109469681Y-106511000D01*
X109447964Y-106674715D01*
X109428744Y-106772431D01*
X109399317Y-106873895D01*
X109366405Y-106960141D01*
X109336733Y-107012205D01*
X109325748Y-107019478D01*
X109294560Y-107029760D01*
X109224650Y-107055027D01*
X109191625Y-107067252D01*
X109096225Y-107088699D01*
X108957406Y-107102384D01*
X108791472Y-107108577D01*
X108614730Y-107107549D01*
X108443484Y-107099568D01*
X108294039Y-107084907D01*
X108182701Y-107063835D01*
X108144165Y-107049886D01*
X108060667Y-106986192D01*
X108001290Y-106907585D01*
X107973794Y-106815178D01*
X107957645Y-106683701D01*
X107952942Y-106534768D01*
X107959788Y-106389990D01*
X107978284Y-106270979D01*
X107998040Y-106214906D01*
X108054630Y-106148568D01*
X108149744Y-106095948D01*
X108290063Y-106054905D01*
X108482268Y-106023296D01*
X108650870Y-106005671D01*
X108815382Y-105989047D01*
X108927138Y-105971663D01*
X108996864Y-105951144D01*
X109035283Y-105925113D01*
X109039808Y-105919513D01*
X109075348Y-105824497D01*
X109073126Y-105710035D01*
X109034799Y-105606463D01*
X109021717Y-105588190D01*
X108985461Y-105551764D01*
X108938715Y-105529736D01*
X108865516Y-105518380D01*
X108749901Y-105513965D01*
X108701529Y-105513412D01*
X108544414Y-105518445D01*
X108440332Y-105540136D01*
X108379856Y-105583692D01*
X108353560Y-105654319D01*
X108350250Y-105707443D01*
X108345452Y-105747846D01*
X108321253Y-105769830D01*
X108262953Y-105778947D01*
X108156145Y-105780750D01*
X107962040Y-105780750D01*
X107983995Y-105629937D01*
X108014361Y-105492277D01*
X108065256Y-105388679D01*
X108144555Y-105314810D01*
X108260138Y-105266336D01*
X108419883Y-105238925D01*
X108631667Y-105228244D01*
X108715375Y-105227652D01*
X108951022Y-105234971D01*
X109131169Y-105259929D01*
X109262534Y-105307448D01*
X109351830Y-105382450D01*
X109405772Y-105489858D01*
X109431077Y-105634592D01*
X109435353Y-105755376D01*
X109427724Y-105927630D01*
X109399482Y-106056636D01*
X109342597Y-106149737D01*
X109249040Y-106214272D01*
X109110781Y-106257581D01*
X108919789Y-106287006D01*
X108845284Y-106294779D01*
X108655935Y-106314202D01*
X108520029Y-106332102D01*
X108427673Y-106351488D01*
X108368970Y-106375368D01*
X108334026Y-106406752D01*
X108312948Y-106448648D01*
X108309837Y-106457616D01*
X108295130Y-106552072D01*
X108300919Y-106655930D01*
X108301120Y-106657014D01*
X108327284Y-106733500D01*
X108378703Y-106784278D01*
X108465899Y-106813879D01*
X108599393Y-106826831D01*
X108699500Y-106828500D01*
X108860099Y-106823830D01*
X108968795Y-106806266D01*
X109036731Y-106770471D01*
X109075052Y-106711113D01*
X109092296Y-106640479D01*
X109113001Y-106511000D01*
X109469681Y-106511000D01*
X110153628Y-106511000D01*
X110153526Y-106015206D01*
X110153048Y-105499235D01*
X110152387Y-105076551D01*
X110148394Y-102907375D01*
X109445625Y-102907375D01*
X109445625Y-103669375D01*
X109445251Y-103911903D01*
X109443709Y-104099760D01*
X109440367Y-104241774D01*
X109434595Y-104346771D01*
X109425764Y-104423579D01*
X109413241Y-104481023D01*
X109396398Y-104527932D01*
X109382125Y-104558375D01*
X109317702Y-104651813D01*
X109226416Y-104718906D01*
X109100050Y-104762218D01*
X108930384Y-104784314D01*
X108709198Y-104787759D01*
X108651875Y-104786239D01*
X108443942Y-104773861D01*
X108284464Y-104752322D01*
X108185672Y-104724694D01*
X108119734Y-104693038D01*
X108067547Y-104656104D01*
X108027389Y-104606455D01*
X107997542Y-104536658D01*
X107976286Y-104439277D01*
X107961902Y-104306878D01*
X107952669Y-104132025D01*
X107946868Y-103907285D01*
X107943426Y-103677312D01*
X107933476Y-102891500D01*
X108282458Y-102891500D01*
X108292542Y-103624605D01*
X108295918Y-103858586D01*
X108299366Y-104037340D01*
X108303771Y-104169136D01*
X108310018Y-104262241D01*
X108318994Y-104324924D01*
X108331585Y-104365452D01*
X108348676Y-104392095D01*
X108371153Y-104413118D01*
X108377580Y-104418355D01*
X108433652Y-104451606D01*
X108510660Y-104470490D01*
X108625745Y-104478260D01*
X108696950Y-104479000D01*
X108807436Y-104479296D01*
X108893223Y-104475431D01*
X108957602Y-104460271D01*
X109003867Y-104426683D01*
X109035312Y-104367534D01*
X109055228Y-104275691D01*
X109066909Y-104144020D01*
X109073648Y-103965389D01*
X109078737Y-103732665D01*
X109080500Y-103648176D01*
X109096375Y-102907375D01*
X109445625Y-102907375D01*
X110148394Y-102907375D01*
X110145619Y-101400718D01*
X109457772Y-101400718D01*
X109442515Y-101716908D01*
X109433647Y-101805727D01*
X109404050Y-102018190D01*
X109364099Y-102176450D01*
X109307530Y-102289671D01*
X109228080Y-102367020D01*
X109119487Y-102417661D01*
X108995179Y-102447350D01*
X108883318Y-102458759D01*
X108736945Y-102461979D01*
X108575533Y-102457908D01*
X108418557Y-102447448D01*
X108285492Y-102431498D01*
X108195812Y-102410957D01*
X108194147Y-102410337D01*
X108108120Y-102364178D01*
X108041174Y-102312807D01*
X108002869Y-102269466D01*
X107975558Y-102214501D01*
X107955078Y-102133507D01*
X107937268Y-102012077D01*
X107926278Y-101915187D01*
X107911793Y-101780250D01*
X108286750Y-101780250D01*
X108286750Y-101887857D01*
X108305324Y-102005381D01*
X108365426Y-102085163D01*
X108473627Y-102132924D01*
X108588980Y-102151058D01*
X108770652Y-102156906D01*
X108901242Y-102135551D01*
X108988153Y-102084519D01*
X109038791Y-102001337D01*
X109039021Y-102000676D01*
X109053400Y-101925519D01*
X109064368Y-101803360D01*
X109071704Y-101650612D01*
X109075188Y-101483694D01*
X109074600Y-101319020D01*
X109069721Y-101173007D01*
X109060330Y-101062072D01*
X109052185Y-101018250D01*
X109000340Y-100944484D01*
X108898011Y-100893733D01*
X108755014Y-100869099D01*
X108591625Y-100872597D01*
X108453465Y-100893590D01*
X108368585Y-100926998D01*
X108327097Y-100978714D01*
X108318500Y-101035415D01*
X108310581Y-101128137D01*
X108277976Y-101180763D01*
X108207412Y-101204031D01*
X108104287Y-101208750D01*
X107928617Y-101208750D01*
X107946774Y-101032817D01*
X107972414Y-100877305D01*
X108018003Y-100759499D01*
X108090988Y-100675006D01*
X108198814Y-100619430D01*
X108348929Y-100588378D01*
X108548778Y-100577455D01*
X108715375Y-100579241D01*
X108884424Y-100585291D01*
X109004334Y-100594214D01*
X109089467Y-100608393D01*
X109154182Y-100630210D01*
X109212235Y-100661672D01*
X109319166Y-100765312D01*
X109395879Y-100923788D01*
X109442154Y-101135967D01*
X109457772Y-101400718D01*
X110145619Y-101400718D01*
X110144125Y-100589625D01*
X109495933Y-99430750D01*
X109324580Y-99124550D01*
X109181316Y-98869194D01*
X109063291Y-98660069D01*
X108967658Y-98492562D01*
X108891570Y-98362061D01*
X108832179Y-98263953D01*
X108786637Y-98193627D01*
X108752098Y-98146471D01*
X108725713Y-98117871D01*
X108704635Y-98103216D01*
X108686017Y-98097893D01*
X108672655Y-98097250D01*
X108645802Y-98118264D01*
X108645802Y-98118264D01*
G37*
X108645802Y-98118264D02*
X108596605Y-98182676D01*
X108523792Y-98292539D01*
X108426090Y-98449908D01*
X108302227Y-98656836D01*
X108150930Y-98915378D01*
X107970928Y-99227586D01*
X107952505Y-99259735D01*
X107807939Y-99513144D01*
X107671522Y-99754239D01*
X107546912Y-99976407D01*
X107437771Y-100173035D01*
X107347757Y-100337512D01*
X107280531Y-100463225D01*
X107239754Y-100543563D01*
X107230972Y-100563240D01*
X107223909Y-100583729D01*
X107217479Y-100609665D01*
X107211657Y-100643911D01*
X107206420Y-100689331D01*
X107201742Y-100748789D01*
X107197600Y-100825149D01*
X107193968Y-100921275D01*
X107190823Y-101040030D01*
X107188139Y-101184278D01*
X107185894Y-101356883D01*
X107184061Y-101560709D01*
X107182616Y-101798619D01*
X107181536Y-102073477D01*
X107180795Y-102388148D01*
X107180369Y-102745494D01*
X107180234Y-103148380D01*
X107180365Y-103599670D01*
X107180738Y-104102226D01*
X107181329Y-104658914D01*
X107182112Y-105272597D01*
X107183063Y-105946138D01*
X107183347Y-106139692D01*
X107191375Y-111575125D01*
X107270750Y-111580748D01*
X107306360Y-111570566D01*
X107373722Y-111535935D01*
X107475491Y-111475112D01*
X107614320Y-111386350D01*
X107792863Y-111267908D01*
X108013774Y-111118039D01*
X108279708Y-110935000D01*
X108593318Y-110717046D01*
X108728804Y-110622426D01*
X108992515Y-110437512D01*
X109240669Y-110262478D01*
X109468342Y-110100868D01*
X109670607Y-109956229D01*
X109842538Y-109832105D01*
X109979210Y-109732042D01*
X110075696Y-109659585D01*
X110127071Y-109618280D01*
X110134066Y-109610979D01*
X110137143Y-109574153D01*
X110140003Y-109477453D01*
X110142634Y-109324506D01*
X110145019Y-109118938D01*
X110147145Y-108864376D01*
X110148997Y-108564446D01*
X110150559Y-108222774D01*
X110151818Y-107842986D01*
X110152463Y-107558750D01*
X109461500Y-107558750D01*
X109461500Y-109432000D01*
X109080500Y-109432000D01*
X109080500Y-108670000D01*
X108096250Y-108670000D01*
X108096250Y-108352500D01*
X109080500Y-108352500D01*
X109080500Y-107876250D01*
X107937500Y-107876250D01*
X107937500Y-107558750D01*
X109461500Y-107558750D01*
X110152463Y-107558750D01*
X110152759Y-107428709D01*
X110153367Y-106983569D01*
X110153628Y-106511193D01*
X110153628Y-106511000D01*
X109469681Y-106511000D01*
X109447964Y-106674715D01*
X109428744Y-106772431D01*
X109399317Y-106873895D01*
X109366405Y-106960141D01*
X109336733Y-107012205D01*
X109325748Y-107019478D01*
X109294560Y-107029760D01*
X109224650Y-107055027D01*
X109191625Y-107067252D01*
X109096225Y-107088699D01*
X108957406Y-107102384D01*
X108791472Y-107108577D01*
X108614730Y-107107549D01*
X108443484Y-107099568D01*
X108294039Y-107084907D01*
X108182701Y-107063835D01*
X108144165Y-107049886D01*
X108060667Y-106986192D01*
X108001290Y-106907585D01*
X107973794Y-106815178D01*
X107957645Y-106683701D01*
X107952942Y-106534768D01*
X107959788Y-106389990D01*
X107978284Y-106270979D01*
X107998040Y-106214906D01*
X108054630Y-106148568D01*
X108149744Y-106095948D01*
X108290063Y-106054905D01*
X108482268Y-106023296D01*
X108650870Y-106005671D01*
X108815382Y-105989047D01*
X108927138Y-105971663D01*
X108996864Y-105951144D01*
X109035283Y-105925113D01*
X109039808Y-105919513D01*
X109075348Y-105824497D01*
X109073126Y-105710035D01*
X109034799Y-105606463D01*
X109021717Y-105588190D01*
X108985461Y-105551764D01*
X108938715Y-105529736D01*
X108865516Y-105518380D01*
X108749901Y-105513965D01*
X108701529Y-105513412D01*
X108544414Y-105518445D01*
X108440332Y-105540136D01*
X108379856Y-105583692D01*
X108353560Y-105654319D01*
X108350250Y-105707443D01*
X108345452Y-105747846D01*
X108321253Y-105769830D01*
X108262953Y-105778947D01*
X108156145Y-105780750D01*
X107962040Y-105780750D01*
X107983995Y-105629937D01*
X108014361Y-105492277D01*
X108065256Y-105388679D01*
X108144555Y-105314810D01*
X108260138Y-105266336D01*
X108419883Y-105238925D01*
X108631667Y-105228244D01*
X108715375Y-105227652D01*
X108951022Y-105234971D01*
X109131169Y-105259929D01*
X109262534Y-105307448D01*
X109351830Y-105382450D01*
X109405772Y-105489858D01*
X109431077Y-105634592D01*
X109435353Y-105755376D01*
X109427724Y-105927630D01*
X109399482Y-106056636D01*
X109342597Y-106149737D01*
X109249040Y-106214272D01*
X109110781Y-106257581D01*
X108919789Y-106287006D01*
X108845284Y-106294779D01*
X108655935Y-106314202D01*
X108520029Y-106332102D01*
X108427673Y-106351488D01*
X108368970Y-106375368D01*
X108334026Y-106406752D01*
X108312948Y-106448648D01*
X108309837Y-106457616D01*
X108295130Y-106552072D01*
X108300919Y-106655930D01*
X108301120Y-106657014D01*
X108327284Y-106733500D01*
X108378703Y-106784278D01*
X108465899Y-106813879D01*
X108599393Y-106826831D01*
X108699500Y-106828500D01*
X108860099Y-106823830D01*
X108968795Y-106806266D01*
X109036731Y-106770471D01*
X109075052Y-106711113D01*
X109092296Y-106640479D01*
X109113001Y-106511000D01*
X109469681Y-106511000D01*
X110153628Y-106511000D01*
X110153526Y-106015206D01*
X110153048Y-105499235D01*
X110152387Y-105076551D01*
X110148394Y-102907375D01*
X109445625Y-102907375D01*
X109445625Y-103669375D01*
X109445251Y-103911903D01*
X109443709Y-104099760D01*
X109440367Y-104241774D01*
X109434595Y-104346771D01*
X109425764Y-104423579D01*
X109413241Y-104481023D01*
X109396398Y-104527932D01*
X109382125Y-104558375D01*
X109317702Y-104651813D01*
X109226416Y-104718906D01*
X109100050Y-104762218D01*
X108930384Y-104784314D01*
X108709198Y-104787759D01*
X108651875Y-104786239D01*
X108443942Y-104773861D01*
X108284464Y-104752322D01*
X108185672Y-104724694D01*
X108119734Y-104693038D01*
X108067547Y-104656104D01*
X108027389Y-104606455D01*
X107997542Y-104536658D01*
X107976286Y-104439277D01*
X107961902Y-104306878D01*
X107952669Y-104132025D01*
X107946868Y-103907285D01*
X107943426Y-103677312D01*
X107933476Y-102891500D01*
X108282458Y-102891500D01*
X108292542Y-103624605D01*
X108295918Y-103858586D01*
X108299366Y-104037340D01*
X108303771Y-104169136D01*
X108310018Y-104262241D01*
X108318994Y-104324924D01*
X108331585Y-104365452D01*
X108348676Y-104392095D01*
X108371153Y-104413118D01*
X108377580Y-104418355D01*
X108433652Y-104451606D01*
X108510660Y-104470490D01*
X108625745Y-104478260D01*
X108696950Y-104479000D01*
X108807436Y-104479296D01*
X108893223Y-104475431D01*
X108957602Y-104460271D01*
X109003867Y-104426683D01*
X109035312Y-104367534D01*
X109055228Y-104275691D01*
X109066909Y-104144020D01*
X109073648Y-103965389D01*
X109078737Y-103732665D01*
X109080500Y-103648176D01*
X109096375Y-102907375D01*
X109445625Y-102907375D01*
X110148394Y-102907375D01*
X110145619Y-101400718D01*
X109457772Y-101400718D01*
X109442515Y-101716908D01*
X109433647Y-101805727D01*
X109404050Y-102018190D01*
X109364099Y-102176450D01*
X109307530Y-102289671D01*
X109228080Y-102367020D01*
X109119487Y-102417661D01*
X108995179Y-102447350D01*
X108883318Y-102458759D01*
X108736945Y-102461979D01*
X108575533Y-102457908D01*
X108418557Y-102447448D01*
X108285492Y-102431498D01*
X108195812Y-102410957D01*
X108194147Y-102410337D01*
X108108120Y-102364178D01*
X108041174Y-102312807D01*
X108002869Y-102269466D01*
X107975558Y-102214501D01*
X107955078Y-102133507D01*
X107937268Y-102012077D01*
X107926278Y-101915187D01*
X107911793Y-101780250D01*
X108286750Y-101780250D01*
X108286750Y-101887857D01*
X108305324Y-102005381D01*
X108365426Y-102085163D01*
X108473627Y-102132924D01*
X108588980Y-102151058D01*
X108770652Y-102156906D01*
X108901242Y-102135551D01*
X108988153Y-102084519D01*
X109038791Y-102001337D01*
X109039021Y-102000676D01*
X109053400Y-101925519D01*
X109064368Y-101803360D01*
X109071704Y-101650612D01*
X109075188Y-101483694D01*
X109074600Y-101319020D01*
X109069721Y-101173007D01*
X109060330Y-101062072D01*
X109052185Y-101018250D01*
X109000340Y-100944484D01*
X108898011Y-100893733D01*
X108755014Y-100869099D01*
X108591625Y-100872597D01*
X108453465Y-100893590D01*
X108368585Y-100926998D01*
X108327097Y-100978714D01*
X108318500Y-101035415D01*
X108310581Y-101128137D01*
X108277976Y-101180763D01*
X108207412Y-101204031D01*
X108104287Y-101208750D01*
X107928617Y-101208750D01*
X107946774Y-101032817D01*
X107972414Y-100877305D01*
X108018003Y-100759499D01*
X108090988Y-100675006D01*
X108198814Y-100619430D01*
X108348929Y-100588378D01*
X108548778Y-100577455D01*
X108715375Y-100579241D01*
X108884424Y-100585291D01*
X109004334Y-100594214D01*
X109089467Y-100608393D01*
X109154182Y-100630210D01*
X109212235Y-100661672D01*
X109319166Y-100765312D01*
X109395879Y-100923788D01*
X109442154Y-101135967D01*
X109457772Y-101400718D01*
X110145619Y-101400718D01*
X110144125Y-100589625D01*
X109495933Y-99430750D01*
X109324580Y-99124550D01*
X109181316Y-98869194D01*
X109063291Y-98660069D01*
X108967658Y-98492562D01*
X108891570Y-98362061D01*
X108832179Y-98263953D01*
X108786637Y-98193627D01*
X108752098Y-98146471D01*
X108725713Y-98117871D01*
X108704635Y-98103216D01*
X108686017Y-98097893D01*
X108672655Y-98097250D01*
X108645802Y-98118264D01*
G36*
X106381750Y-109209750D02*
X105397500Y-109209750D01*
X105397500Y-109463750D01*
X106604000Y-109463750D01*
X106604000Y-107558750D01*
X106381750Y-107558750D01*
X106381750Y-109209750D01*
X106381750Y-109209750D01*
G37*
X106381750Y-109209750D02*
X105397500Y-109209750D01*
X105397500Y-109463750D01*
X106604000Y-109463750D01*
X106604000Y-107558750D01*
X106381750Y-107558750D01*
X106381750Y-109209750D01*
G36*
X104445000Y-109463750D02*
X104699000Y-109463750D01*
X104699000Y-107558750D01*
X104445000Y-107558750D01*
X104445000Y-109463750D01*
X104445000Y-109463750D01*
G37*
X104445000Y-109463750D02*
X104699000Y-109463750D01*
X104699000Y-107558750D01*
X104445000Y-107558750D01*
X104445000Y-109463750D01*
G36*
X102588113Y-107546351D02*
X102420475Y-107558423D01*
X102297883Y-107581555D01*
X102211256Y-107618214D01*
X102151516Y-107670864D01*
X102114280Y-107731739D01*
X102082186Y-107832824D01*
X102064781Y-107952737D01*
X102063750Y-107984235D01*
X102066090Y-108073273D01*
X102081364Y-108115903D01*
X102121958Y-108129219D01*
X102169554Y-108130250D01*
X102234094Y-108125892D01*
X102269873Y-108101827D01*
X102291711Y-108041565D01*
X102304492Y-107980129D01*
X102327410Y-107891569D01*
X102362838Y-107828675D01*
X102420578Y-107787530D01*
X102510432Y-107764217D01*
X102642203Y-107754820D01*
X102825693Y-107755420D01*
X102864643Y-107756280D01*
X103030091Y-107760415D01*
X103155862Y-107769111D01*
X103247390Y-107790136D01*
X103310104Y-107831257D01*
X103349436Y-107900243D01*
X103370818Y-108004863D01*
X103379680Y-108152886D01*
X103381454Y-108352079D01*
X103381375Y-108495375D01*
X103380993Y-108702571D01*
X103379188Y-108855837D01*
X103374972Y-108964743D01*
X103367356Y-109038856D01*
X103355354Y-109087745D01*
X103337975Y-109120979D01*
X103314234Y-109148127D01*
X103313939Y-109148422D01*
X103234314Y-109194129D01*
X103109995Y-109227365D01*
X102957374Y-109247749D01*
X102792843Y-109254901D01*
X102632794Y-109248437D01*
X102493619Y-109227977D01*
X102391711Y-109193138D01*
X102360271Y-109170627D01*
X102328072Y-109106750D01*
X102303523Y-108994747D01*
X102294147Y-108911547D01*
X102277307Y-108701750D01*
X102889250Y-108701750D01*
X102889250Y-108479500D01*
X102055760Y-108479500D01*
X102069752Y-108845055D01*
X102081455Y-109040928D01*
X102102627Y-109183713D01*
X102138299Y-109283669D01*
X102193503Y-109351051D01*
X102273268Y-109396118D01*
X102352475Y-109421507D01*
X102451479Y-109437968D01*
X102593946Y-109449576D01*
X102760515Y-109456056D01*
X102931825Y-109457134D01*
X103088517Y-109452537D01*
X103211230Y-109441992D01*
X103254375Y-109434263D01*
X103361356Y-109403501D01*
X103444152Y-109363863D01*
X103506013Y-109307324D01*
X103550192Y-109225862D01*
X103579939Y-109111455D01*
X103598505Y-108956077D01*
X103609142Y-108751708D01*
X103614147Y-108546409D01*
X103616807Y-108292893D01*
X103613113Y-108094446D01*
X103600898Y-107942778D01*
X103577992Y-107829595D01*
X103542227Y-107746607D01*
X103491434Y-107685521D01*
X103423446Y-107638045D01*
X103369458Y-107610766D01*
X103298387Y-107581818D01*
X103223674Y-107562322D01*
X103130758Y-107550513D01*
X103005080Y-107544624D01*
X102832078Y-107542888D01*
X102809875Y-107542875D01*
X102588113Y-107546351D01*
X102588113Y-107546351D01*
G37*
X102588113Y-107546351D02*
X102420475Y-107558423D01*
X102297883Y-107581555D01*
X102211256Y-107618214D01*
X102151516Y-107670864D01*
X102114280Y-107731739D01*
X102082186Y-107832824D01*
X102064781Y-107952737D01*
X102063750Y-107984235D01*
X102066090Y-108073273D01*
X102081364Y-108115903D01*
X102121958Y-108129219D01*
X102169554Y-108130250D01*
X102234094Y-108125892D01*
X102269873Y-108101827D01*
X102291711Y-108041565D01*
X102304492Y-107980129D01*
X102327410Y-107891569D01*
X102362838Y-107828675D01*
X102420578Y-107787530D01*
X102510432Y-107764217D01*
X102642203Y-107754820D01*
X102825693Y-107755420D01*
X102864643Y-107756280D01*
X103030091Y-107760415D01*
X103155862Y-107769111D01*
X103247390Y-107790136D01*
X103310104Y-107831257D01*
X103349436Y-107900243D01*
X103370818Y-108004863D01*
X103379680Y-108152886D01*
X103381454Y-108352079D01*
X103381375Y-108495375D01*
X103380993Y-108702571D01*
X103379188Y-108855837D01*
X103374972Y-108964743D01*
X103367356Y-109038856D01*
X103355354Y-109087745D01*
X103337975Y-109120979D01*
X103314234Y-109148127D01*
X103313939Y-109148422D01*
X103234314Y-109194129D01*
X103109995Y-109227365D01*
X102957374Y-109247749D01*
X102792843Y-109254901D01*
X102632794Y-109248437D01*
X102493619Y-109227977D01*
X102391711Y-109193138D01*
X102360271Y-109170627D01*
X102328072Y-109106750D01*
X102303523Y-108994747D01*
X102294147Y-108911547D01*
X102277307Y-108701750D01*
X102889250Y-108701750D01*
X102889250Y-108479500D01*
X102055760Y-108479500D01*
X102069752Y-108845055D01*
X102081455Y-109040928D01*
X102102627Y-109183713D01*
X102138299Y-109283669D01*
X102193503Y-109351051D01*
X102273268Y-109396118D01*
X102352475Y-109421507D01*
X102451479Y-109437968D01*
X102593946Y-109449576D01*
X102760515Y-109456056D01*
X102931825Y-109457134D01*
X103088517Y-109452537D01*
X103211230Y-109441992D01*
X103254375Y-109434263D01*
X103361356Y-109403501D01*
X103444152Y-109363863D01*
X103506013Y-109307324D01*
X103550192Y-109225862D01*
X103579939Y-109111455D01*
X103598505Y-108956077D01*
X103609142Y-108751708D01*
X103614147Y-108546409D01*
X103616807Y-108292893D01*
X103613113Y-108094446D01*
X103600898Y-107942778D01*
X103577992Y-107829595D01*
X103542227Y-107746607D01*
X103491434Y-107685521D01*
X103423446Y-107638045D01*
X103369458Y-107610766D01*
X103298387Y-107581818D01*
X103223674Y-107562322D01*
X103130758Y-107550513D01*
X103005080Y-107544624D01*
X102832078Y-107542888D01*
X102809875Y-107542875D01*
X102588113Y-107546351D01*
G36*
X101016000Y-108384250D02*
X99968250Y-108384250D01*
X99968250Y-107558750D01*
X99714250Y-107558750D01*
X99714250Y-109463750D01*
X99968250Y-109463750D01*
X99968250Y-108574750D01*
X101016000Y-108574750D01*
X101016000Y-109463750D01*
X101270000Y-109463750D01*
X101270000Y-107558750D01*
X101016000Y-107558750D01*
X101016000Y-108384250D01*
X101016000Y-108384250D01*
G37*
X101016000Y-108384250D02*
X99968250Y-108384250D01*
X99968250Y-107558750D01*
X99714250Y-107558750D01*
X99714250Y-109463750D01*
X99968250Y-109463750D01*
X99968250Y-108574750D01*
X101016000Y-108574750D01*
X101016000Y-109463750D01*
X101270000Y-109463750D01*
X101270000Y-107558750D01*
X101016000Y-107558750D01*
X101016000Y-108384250D01*
G36*
X97555250Y-107781000D02*
X98158500Y-107781000D01*
X98158500Y-109463750D01*
X98380750Y-109463750D01*
X98380750Y-107781000D01*
X98984000Y-107781000D01*
X98984000Y-107558750D01*
X97555250Y-107558750D01*
X97555250Y-107781000D01*
X97555250Y-107781000D01*
G37*
X97555250Y-107781000D02*
X98158500Y-107781000D01*
X98158500Y-109463750D01*
X98380750Y-109463750D01*
X98380750Y-107781000D01*
X98984000Y-107781000D01*
X98984000Y-107558750D01*
X97555250Y-107558750D01*
X97555250Y-107781000D01*
G36*
X100324329Y-105216182D02*
X100165161Y-105240889D01*
X100050961Y-105289240D01*
X99973026Y-105367100D01*
X99922652Y-105480338D01*
X99891138Y-105634820D01*
X99889619Y-105645812D01*
X99867042Y-105812500D01*
X100118742Y-105812500D01*
X100135523Y-105663618D01*
X100159811Y-105549909D01*
X100210320Y-105477551D01*
X100300350Y-105434177D01*
X100405469Y-105412676D01*
X100522242Y-105405372D01*
X100661624Y-105411530D01*
X100805469Y-105428526D01*
X100935634Y-105453737D01*
X101033973Y-105484541D01*
X101075766Y-105509574D01*
X101094392Y-105536655D01*
X101107976Y-105581003D01*
X101117243Y-105651653D01*
X101122921Y-105757639D01*
X101125736Y-105907996D01*
X101126413Y-106111757D01*
X101126387Y-106139237D01*
X101123991Y-106387679D01*
X101117421Y-106575182D01*
X101106526Y-106704181D01*
X101091160Y-106777109D01*
X101086943Y-106786269D01*
X101020848Y-106853394D01*
X100908497Y-106897052D01*
X100745288Y-106918312D01*
X100526614Y-106918245D01*
X100519982Y-106917961D01*
X100354644Y-106906931D01*
X100241786Y-106886053D01*
X100170438Y-106848032D01*
X100129631Y-106785571D01*
X100108396Y-106691374D01*
X100102653Y-106640370D01*
X100091440Y-106545639D01*
X100073362Y-106497995D01*
X100036111Y-106481259D01*
X99980086Y-106479250D01*
X99873000Y-106479250D01*
X99873000Y-106649137D01*
X99885416Y-106827276D01*
X99924880Y-106954312D01*
X99994717Y-107038044D01*
X100052802Y-107070834D01*
X100141010Y-107093717D01*
X100274805Y-107112112D01*
X100436382Y-107125192D01*
X100607933Y-107132128D01*
X100771651Y-107132094D01*
X100909730Y-107124261D01*
X100980432Y-107113944D01*
X101097436Y-107083917D01*
X101189255Y-107044351D01*
X101258900Y-106987790D01*
X101309380Y-106906778D01*
X101343706Y-106793860D01*
X101364886Y-106641578D01*
X101375930Y-106442478D01*
X101379848Y-106189102D01*
X101380055Y-106123920D01*
X101381125Y-105498715D01*
X101273294Y-105387367D01*
X101188756Y-105316825D01*
X101085680Y-105266373D01*
X100953207Y-105233383D01*
X100780477Y-105215227D01*
X100556630Y-105209277D01*
X100537168Y-105209250D01*
X100324329Y-105216182D01*
X100324329Y-105216182D01*
G37*
X100324329Y-105216182D02*
X100165161Y-105240889D01*
X100050961Y-105289240D01*
X99973026Y-105367100D01*
X99922652Y-105480338D01*
X99891138Y-105634820D01*
X99889619Y-105645812D01*
X99867042Y-105812500D01*
X100118742Y-105812500D01*
X100135523Y-105663618D01*
X100159811Y-105549909D01*
X100210320Y-105477551D01*
X100300350Y-105434177D01*
X100405469Y-105412676D01*
X100522242Y-105405372D01*
X100661624Y-105411530D01*
X100805469Y-105428526D01*
X100935634Y-105453737D01*
X101033973Y-105484541D01*
X101075766Y-105509574D01*
X101094392Y-105536655D01*
X101107976Y-105581003D01*
X101117243Y-105651653D01*
X101122921Y-105757639D01*
X101125736Y-105907996D01*
X101126413Y-106111757D01*
X101126387Y-106139237D01*
X101123991Y-106387679D01*
X101117421Y-106575182D01*
X101106526Y-106704181D01*
X101091160Y-106777109D01*
X101086943Y-106786269D01*
X101020848Y-106853394D01*
X100908497Y-106897052D01*
X100745288Y-106918312D01*
X100526614Y-106918245D01*
X100519982Y-106917961D01*
X100354644Y-106906931D01*
X100241786Y-106886053D01*
X100170438Y-106848032D01*
X100129631Y-106785571D01*
X100108396Y-106691374D01*
X100102653Y-106640370D01*
X100091440Y-106545639D01*
X100073362Y-106497995D01*
X100036111Y-106481259D01*
X99980086Y-106479250D01*
X99873000Y-106479250D01*
X99873000Y-106649137D01*
X99885416Y-106827276D01*
X99924880Y-106954312D01*
X99994717Y-107038044D01*
X100052802Y-107070834D01*
X100141010Y-107093717D01*
X100274805Y-107112112D01*
X100436382Y-107125192D01*
X100607933Y-107132128D01*
X100771651Y-107132094D01*
X100909730Y-107124261D01*
X100980432Y-107113944D01*
X101097436Y-107083917D01*
X101189255Y-107044351D01*
X101258900Y-106987790D01*
X101309380Y-106906778D01*
X101343706Y-106793860D01*
X101364886Y-106641578D01*
X101375930Y-106442478D01*
X101379848Y-106189102D01*
X101380055Y-106123920D01*
X101381125Y-105498715D01*
X101273294Y-105387367D01*
X101188756Y-105316825D01*
X101085680Y-105266373D01*
X100953207Y-105233383D01*
X100780477Y-105215227D01*
X100556630Y-105209277D01*
X100537168Y-105209250D01*
X100324329Y-105216182D01*
G36*
X106040438Y-105215104D02*
X105785666Y-105223651D01*
X105587352Y-105239388D01*
X105438501Y-105267105D01*
X105332115Y-105311592D01*
X105261199Y-105377640D01*
X105218756Y-105470039D01*
X105197790Y-105593579D01*
X105191305Y-105753050D01*
X105191125Y-105796625D01*
X105196704Y-105976184D01*
X105218355Y-106113730D01*
X105263452Y-106215071D01*
X105339368Y-106286017D01*
X105453478Y-106332375D01*
X105613154Y-106359954D01*
X105825769Y-106374562D01*
X105929313Y-106378132D01*
X106381750Y-106391061D01*
X106381750Y-107114250D01*
X106604000Y-107114250D01*
X106604000Y-105431500D01*
X106381750Y-105431500D01*
X106381750Y-106166669D01*
X105954622Y-106156272D01*
X105759292Y-106148715D01*
X105612776Y-106137020D01*
X105520445Y-106121738D01*
X105490451Y-106108741D01*
X105447852Y-106030689D01*
X105424616Y-105915016D01*
X105420079Y-105781552D01*
X105433576Y-105650128D01*
X105464442Y-105540575D01*
X105511756Y-105472909D01*
X105566512Y-105452997D01*
X105670214Y-105439813D01*
X105828155Y-105432883D01*
X105975069Y-105431500D01*
X106381750Y-105431500D01*
X106604000Y-105431500D01*
X106604000Y-105202169D01*
X106040438Y-105215104D01*
X106040438Y-105215104D01*
G37*
X106040438Y-105215104D02*
X105785666Y-105223651D01*
X105587352Y-105239388D01*
X105438501Y-105267105D01*
X105332115Y-105311592D01*
X105261199Y-105377640D01*
X105218756Y-105470039D01*
X105197790Y-105593579D01*
X105191305Y-105753050D01*
X105191125Y-105796625D01*
X105196704Y-105976184D01*
X105218355Y-106113730D01*
X105263452Y-106215071D01*
X105339368Y-106286017D01*
X105453478Y-106332375D01*
X105613154Y-106359954D01*
X105825769Y-106374562D01*
X105929313Y-106378132D01*
X106381750Y-106391061D01*
X106381750Y-107114250D01*
X106604000Y-107114250D01*
X106604000Y-105431500D01*
X106381750Y-105431500D01*
X106381750Y-106166669D01*
X105954622Y-106156272D01*
X105759292Y-106148715D01*
X105612776Y-106137020D01*
X105520445Y-106121738D01*
X105490451Y-106108741D01*
X105447852Y-106030689D01*
X105424616Y-105915016D01*
X105420079Y-105781552D01*
X105433576Y-105650128D01*
X105464442Y-105540575D01*
X105511756Y-105472909D01*
X105566512Y-105452997D01*
X105670214Y-105439813D01*
X105828155Y-105432883D01*
X105975069Y-105431500D01*
X106381750Y-105431500D01*
X106604000Y-105431500D01*
X106604000Y-105202169D01*
X106040438Y-105215104D01*
G36*
X102816113Y-106104662D02*
X102731189Y-106332432D01*
X102652704Y-106542775D01*
X102583603Y-106727811D01*
X102526831Y-106879658D01*
X102485334Y-106990434D01*
X102462057Y-107052259D01*
X102458821Y-107060717D01*
X102452137Y-107096152D01*
X102478433Y-107110601D01*
X102551356Y-107109793D01*
X102572232Y-107108342D01*
X102647998Y-107100160D01*
X102694809Y-107079740D01*
X102728118Y-107032269D01*
X102763377Y-106942932D01*
X102773064Y-106915812D01*
X102838062Y-106733250D01*
X103772959Y-106733250D01*
X103833635Y-106915812D01*
X103869143Y-107016781D01*
X103900144Y-107072289D01*
X103941663Y-107097299D01*
X104008725Y-107106772D01*
X104026781Y-107108138D01*
X104107645Y-107108702D01*
X104153450Y-107098523D01*
X104157450Y-107092263D01*
X104146399Y-107057165D01*
X104115956Y-106969963D01*
X104068803Y-106838091D01*
X104007624Y-106668985D01*
X103947127Y-106503062D01*
X103675966Y-106503062D01*
X103666836Y-106520502D01*
X103620143Y-106532351D01*
X103528364Y-106539405D01*
X103383976Y-106542464D01*
X103302000Y-106542750D01*
X103132396Y-106541211D01*
X103018690Y-106536059D01*
X102953341Y-106526492D01*
X102928809Y-106511708D01*
X102929106Y-106503062D01*
X102944660Y-106460611D01*
X102977686Y-106369831D01*
X103024051Y-106242103D01*
X103079621Y-106088810D01*
X103110701Y-106003000D01*
X103169700Y-105842341D01*
X103222462Y-105702910D01*
X103264732Y-105595637D01*
X103292248Y-105531452D01*
X103299407Y-105518629D01*
X103312437Y-105528173D01*
X103337002Y-105576121D01*
X103374510Y-105666156D01*
X103426370Y-105801959D01*
X103493991Y-105987215D01*
X103578781Y-106225606D01*
X103675966Y-106503062D01*
X103947127Y-106503062D01*
X103935100Y-106470079D01*
X103853914Y-106248809D01*
X103815990Y-106145875D01*
X103476330Y-105225125D01*
X103150982Y-105206199D01*
X102816113Y-106104662D01*
X102816113Y-106104662D01*
G37*
X102816113Y-106104662D02*
X102731189Y-106332432D01*
X102652704Y-106542775D01*
X102583603Y-106727811D01*
X102526831Y-106879658D01*
X102485334Y-106990434D01*
X102462057Y-107052259D01*
X102458821Y-107060717D01*
X102452137Y-107096152D01*
X102478433Y-107110601D01*
X102551356Y-107109793D01*
X102572232Y-107108342D01*
X102647998Y-107100160D01*
X102694809Y-107079740D01*
X102728118Y-107032269D01*
X102763377Y-106942932D01*
X102773064Y-106915812D01*
X102838062Y-106733250D01*
X103772959Y-106733250D01*
X103833635Y-106915812D01*
X103869143Y-107016781D01*
X103900144Y-107072289D01*
X103941663Y-107097299D01*
X104008725Y-107106772D01*
X104026781Y-107108138D01*
X104107645Y-107108702D01*
X104153450Y-107098523D01*
X104157450Y-107092263D01*
X104146399Y-107057165D01*
X104115956Y-106969963D01*
X104068803Y-106838091D01*
X104007624Y-106668985D01*
X103947127Y-106503062D01*
X103675966Y-106503062D01*
X103666836Y-106520502D01*
X103620143Y-106532351D01*
X103528364Y-106539405D01*
X103383976Y-106542464D01*
X103302000Y-106542750D01*
X103132396Y-106541211D01*
X103018690Y-106536059D01*
X102953341Y-106526492D01*
X102928809Y-106511708D01*
X102929106Y-106503062D01*
X102944660Y-106460611D01*
X102977686Y-106369831D01*
X103024051Y-106242103D01*
X103079621Y-106088810D01*
X103110701Y-106003000D01*
X103169700Y-105842341D01*
X103222462Y-105702910D01*
X103264732Y-105595637D01*
X103292248Y-105531452D01*
X103299407Y-105518629D01*
X103312437Y-105528173D01*
X103337002Y-105576121D01*
X103374510Y-105666156D01*
X103426370Y-105801959D01*
X103493991Y-105987215D01*
X103578781Y-106225606D01*
X103675966Y-106503062D01*
X103947127Y-106503062D01*
X103935100Y-106470079D01*
X103853914Y-106248809D01*
X103815990Y-106145875D01*
X103476330Y-105225125D01*
X103150982Y-105206199D01*
X102816113Y-106104662D01*
G36*
X97523500Y-105431500D02*
X98507750Y-105431500D01*
X98507750Y-106034750D01*
X97587000Y-106034750D01*
X97587000Y-106257000D01*
X98507750Y-106257000D01*
X98507750Y-106923750D01*
X97523500Y-106923750D01*
X97523500Y-107114250D01*
X98761750Y-107114250D01*
X98761750Y-105209250D01*
X97523500Y-105209250D01*
X97523500Y-105431500D01*
X97523500Y-105431500D01*
G37*
X97523500Y-105431500D02*
X98507750Y-105431500D01*
X98507750Y-106034750D01*
X97587000Y-106034750D01*
X97587000Y-106257000D01*
X98507750Y-106257000D01*
X98507750Y-106923750D01*
X97523500Y-106923750D01*
X97523500Y-107114250D01*
X98761750Y-107114250D01*
X98761750Y-105209250D01*
X97523500Y-105209250D01*
X97523500Y-105431500D01*
G36*
X105743591Y-103693187D02*
X105254625Y-104494875D01*
X105246143Y-103693187D01*
X105237660Y-102891500D01*
X104984750Y-102891500D01*
X104984750Y-104796500D01*
X105357669Y-104796500D01*
X105861772Y-103973544D01*
X106365875Y-103150589D01*
X106374340Y-103973544D01*
X106382805Y-104796500D01*
X106604000Y-104796500D01*
X106604000Y-102891500D01*
X106418278Y-102891500D01*
X106232556Y-102891499D01*
X105743591Y-103693187D01*
X105743591Y-103693187D01*
G37*
X105743591Y-103693187D02*
X105254625Y-104494875D01*
X105246143Y-103693187D01*
X105237660Y-102891500D01*
X104984750Y-102891500D01*
X104984750Y-104796500D01*
X105357669Y-104796500D01*
X105861772Y-103973544D01*
X106365875Y-103150589D01*
X106374340Y-103973544D01*
X106382805Y-104796500D01*
X106604000Y-104796500D01*
X106604000Y-102891500D01*
X106418278Y-102891500D01*
X106232556Y-102891499D01*
X105743591Y-103693187D01*
G36*
X103841750Y-104796500D02*
X104095750Y-104796500D01*
X104095750Y-102891500D01*
X103841750Y-102891500D01*
X103841750Y-104796500D01*
X103841750Y-104796500D01*
G37*
X103841750Y-104796500D02*
X104095750Y-104796500D01*
X104095750Y-102891500D01*
X103841750Y-102891500D01*
X103841750Y-104796500D01*
G36*
X102615792Y-103698402D02*
X102540893Y-103910508D01*
X102472353Y-104100644D01*
X102413012Y-104261249D01*
X102365708Y-104384763D01*
X102333282Y-104463626D01*
X102318574Y-104490276D01*
X102318410Y-104490166D01*
X102304284Y-104457287D01*
X102272320Y-104372459D01*
X102225429Y-104243744D01*
X102166522Y-104079207D01*
X102098512Y-103886912D01*
X102029979Y-103691201D01*
X101756763Y-102907375D01*
X101624507Y-102897611D01*
X101543156Y-102894036D01*
X101496548Y-102896694D01*
X101492250Y-102899257D01*
X101502383Y-102931230D01*
X101530665Y-103014034D01*
X101573923Y-103138685D01*
X101628985Y-103296202D01*
X101692678Y-103477602D01*
X101761829Y-103673901D01*
X101833264Y-103876119D01*
X101903812Y-104075271D01*
X101970298Y-104262376D01*
X102029551Y-104428451D01*
X102078397Y-104564513D01*
X102113663Y-104661580D01*
X102131574Y-104709187D01*
X102160087Y-104762485D01*
X102202984Y-104788241D01*
X102281158Y-104796152D01*
X102319729Y-104796500D01*
X102412452Y-104791423D01*
X102475512Y-104778519D01*
X102489219Y-104769857D01*
X102505148Y-104731719D01*
X102538495Y-104643239D01*
X102586069Y-104513430D01*
X102644683Y-104351301D01*
X102711146Y-104165866D01*
X102782271Y-103966135D01*
X102854867Y-103761120D01*
X102925745Y-103559832D01*
X102991717Y-103371284D01*
X103049594Y-103204487D01*
X103096185Y-103068451D01*
X103128303Y-102972190D01*
X103142757Y-102924713D01*
X103143250Y-102921746D01*
X103115145Y-102902532D01*
X103045213Y-102892115D01*
X103020604Y-102891500D01*
X102897958Y-102891500D01*
X102615792Y-103698402D01*
X102615792Y-103698402D01*
G37*
X102615792Y-103698402D02*
X102540893Y-103910508D01*
X102472353Y-104100644D01*
X102413012Y-104261249D01*
X102365708Y-104384763D01*
X102333282Y-104463626D01*
X102318574Y-104490276D01*
X102318410Y-104490166D01*
X102304284Y-104457287D01*
X102272320Y-104372459D01*
X102225429Y-104243744D01*
X102166522Y-104079207D01*
X102098512Y-103886912D01*
X102029979Y-103691201D01*
X101756763Y-102907375D01*
X101624507Y-102897611D01*
X101543156Y-102894036D01*
X101496548Y-102896694D01*
X101492250Y-102899257D01*
X101502383Y-102931230D01*
X101530665Y-103014034D01*
X101573923Y-103138685D01*
X101628985Y-103296202D01*
X101692678Y-103477602D01*
X101761829Y-103673901D01*
X101833264Y-103876119D01*
X101903812Y-104075271D01*
X101970298Y-104262376D01*
X102029551Y-104428451D01*
X102078397Y-104564513D01*
X102113663Y-104661580D01*
X102131574Y-104709187D01*
X102160087Y-104762485D01*
X102202984Y-104788241D01*
X102281158Y-104796152D01*
X102319729Y-104796500D01*
X102412452Y-104791423D01*
X102475512Y-104778519D01*
X102489219Y-104769857D01*
X102505148Y-104731719D01*
X102538495Y-104643239D01*
X102586069Y-104513430D01*
X102644683Y-104351301D01*
X102711146Y-104165866D01*
X102782271Y-103966135D01*
X102854867Y-103761120D01*
X102925745Y-103559832D01*
X102991717Y-103371284D01*
X103049594Y-103204487D01*
X103096185Y-103068451D01*
X103128303Y-102972190D01*
X103142757Y-102924713D01*
X103143250Y-102921746D01*
X103115145Y-102902532D01*
X103045213Y-102892115D01*
X103020604Y-102891500D01*
X102897958Y-102891500D01*
X102615792Y-103698402D01*
G36*
X99650750Y-103113750D02*
X100635000Y-103113750D01*
X100635000Y-103717000D01*
X99682500Y-103717000D01*
X99682500Y-103907500D01*
X100635000Y-103907500D01*
X100635000Y-104574250D01*
X99650750Y-104574250D01*
X99650750Y-104796500D01*
X100889000Y-104796500D01*
X100889000Y-102891500D01*
X99650750Y-102891500D01*
X99650750Y-103113750D01*
X99650750Y-103113750D01*
G37*
X99650750Y-103113750D02*
X100635000Y-103113750D01*
X100635000Y-103717000D01*
X99682500Y-103717000D01*
X99682500Y-103907500D01*
X100635000Y-103907500D01*
X100635000Y-104574250D01*
X99650750Y-104574250D01*
X99650750Y-104796500D01*
X100889000Y-104796500D01*
X100889000Y-102891500D01*
X99650750Y-102891500D01*
X99650750Y-103113750D01*
G36*
X98034815Y-102894686D02*
X97824304Y-102906913D01*
X97663875Y-102932183D01*
X97546921Y-102974500D01*
X97466833Y-103037864D01*
X97417002Y-103126279D01*
X97390820Y-103243748D01*
X97381679Y-103394273D01*
X97381273Y-103449160D01*
X97392699Y-103638253D01*
X97428287Y-103773920D01*
X97490487Y-103862407D01*
X97559169Y-103902736D01*
X97599984Y-103921847D01*
X97590799Y-103941565D01*
X97542962Y-103969080D01*
X97480226Y-104019606D01*
X97436927Y-104099025D01*
X97410445Y-104216832D01*
X97398158Y-104382523D01*
X97396500Y-104499612D01*
X97396500Y-104796500D01*
X97650500Y-104796500D01*
X97650500Y-104493431D01*
X97651793Y-104350077D01*
X97657754Y-104254931D01*
X97671506Y-104192724D01*
X97696174Y-104148183D01*
X97728432Y-104112431D01*
X97764148Y-104080028D01*
X97802966Y-104058121D01*
X97857399Y-104044662D01*
X97939958Y-104037605D01*
X98063153Y-104034903D01*
X98204682Y-104034500D01*
X98603000Y-104034500D01*
X98603000Y-104796500D01*
X98857000Y-104796500D01*
X98857000Y-103812250D01*
X98603000Y-103812250D01*
X98188807Y-103812250D01*
X98018899Y-103811663D01*
X97900313Y-103808617D01*
X97820871Y-103801185D01*
X97768397Y-103787437D01*
X97730714Y-103765445D01*
X97696682Y-103734318D01*
X97652365Y-103680181D01*
X97628674Y-103616728D01*
X97619638Y-103522535D01*
X97618750Y-103454636D01*
X97625425Y-103331872D01*
X97643148Y-103235872D01*
X97660320Y-103196037D01*
X97726417Y-103148203D01*
X97846463Y-103113844D01*
X98023147Y-103092480D01*
X98259161Y-103083634D01*
X98293438Y-103083382D01*
X98603000Y-103082000D01*
X98603000Y-103812250D01*
X98857000Y-103812250D01*
X98857000Y-102891500D01*
X98302018Y-102891500D01*
X98034815Y-102894686D01*
X98034815Y-102894686D01*
G37*
X98034815Y-102894686D02*
X97824304Y-102906913D01*
X97663875Y-102932183D01*
X97546921Y-102974500D01*
X97466833Y-103037864D01*
X97417002Y-103126279D01*
X97390820Y-103243748D01*
X97381679Y-103394273D01*
X97381273Y-103449160D01*
X97392699Y-103638253D01*
X97428287Y-103773920D01*
X97490487Y-103862407D01*
X97559169Y-103902736D01*
X97599984Y-103921847D01*
X97590799Y-103941565D01*
X97542962Y-103969080D01*
X97480226Y-104019606D01*
X97436927Y-104099025D01*
X97410445Y-104216832D01*
X97398158Y-104382523D01*
X97396500Y-104499612D01*
X97396500Y-104796500D01*
X97650500Y-104796500D01*
X97650500Y-104493431D01*
X97651793Y-104350077D01*
X97657754Y-104254931D01*
X97671506Y-104192724D01*
X97696174Y-104148183D01*
X97728432Y-104112431D01*
X97764148Y-104080028D01*
X97802966Y-104058121D01*
X97857399Y-104044662D01*
X97939958Y-104037605D01*
X98063153Y-104034903D01*
X98204682Y-104034500D01*
X98603000Y-104034500D01*
X98603000Y-104796500D01*
X98857000Y-104796500D01*
X98857000Y-103812250D01*
X98603000Y-103812250D01*
X98188807Y-103812250D01*
X98018899Y-103811663D01*
X97900313Y-103808617D01*
X97820871Y-103801185D01*
X97768397Y-103787437D01*
X97730714Y-103765445D01*
X97696682Y-103734318D01*
X97652365Y-103680181D01*
X97628674Y-103616728D01*
X97619638Y-103522535D01*
X97618750Y-103454636D01*
X97625425Y-103331872D01*
X97643148Y-103235872D01*
X97660320Y-103196037D01*
X97726417Y-103148203D01*
X97846463Y-103113844D01*
X98023147Y-103092480D01*
X98259161Y-103083634D01*
X98293438Y-103083382D01*
X98603000Y-103082000D01*
X98603000Y-103812250D01*
X98857000Y-103812250D01*
X98857000Y-102891500D01*
X98302018Y-102891500D01*
X98034815Y-102894686D01*
G36*
X95696957Y-102885725D02*
X95528504Y-102904331D01*
X95406628Y-102941390D01*
X95323191Y-103001612D01*
X95270053Y-103089707D01*
X95239077Y-103210388D01*
X95229779Y-103280437D01*
X95213551Y-103431250D01*
X95330553Y-103431250D01*
X95404671Y-103426806D01*
X95444033Y-103401919D01*
X95467578Y-103339252D01*
X95477465Y-103296788D01*
X95506434Y-103206188D01*
X95552943Y-103144493D01*
X95627488Y-103107244D01*
X95740567Y-103089982D01*
X95902678Y-103088249D01*
X95963953Y-103090146D01*
X96135508Y-103102106D01*
X96253395Y-103127719D01*
X96327097Y-103173968D01*
X96366095Y-103247838D01*
X96379869Y-103356310D01*
X96380500Y-103396949D01*
X96374107Y-103509117D01*
X96347789Y-103585364D01*
X96290840Y-103634599D01*
X96192554Y-103665733D01*
X96042225Y-103687675D01*
X96029465Y-103689099D01*
X95803388Y-103714784D01*
X95631693Y-103736670D01*
X95505523Y-103756723D01*
X95416022Y-103776913D01*
X95354334Y-103799206D01*
X95311602Y-103825570D01*
X95281209Y-103855354D01*
X95227178Y-103956766D01*
X95194785Y-104100426D01*
X95186389Y-104268079D01*
X95204347Y-104441470D01*
X95205024Y-104445042D01*
X95244345Y-104588748D01*
X95303360Y-104683340D01*
X95392912Y-104742587D01*
X95456573Y-104764394D01*
X95552055Y-104780244D01*
X95689818Y-104789939D01*
X95851898Y-104793662D01*
X96020333Y-104791597D01*
X96177159Y-104783926D01*
X96304414Y-104770832D01*
X96377527Y-104755020D01*
X96492341Y-104689918D01*
X96569779Y-104584273D01*
X96614716Y-104430535D01*
X96622371Y-104375812D01*
X96643243Y-104193250D01*
X96380500Y-104193250D01*
X96380500Y-104316732D01*
X96361120Y-104435417D01*
X96319786Y-104515170D01*
X96289374Y-104547893D01*
X96252850Y-104569395D01*
X96197240Y-104582012D01*
X96109567Y-104588081D01*
X95976854Y-104589939D01*
X95904151Y-104590025D01*
X95748505Y-104589152D01*
X95643379Y-104585077D01*
X95575801Y-104575458D01*
X95532796Y-104557957D01*
X95501391Y-104530233D01*
X95488615Y-104515070D01*
X95449906Y-104432819D01*
X95429149Y-104318899D01*
X95426848Y-104196519D01*
X95443506Y-104088889D01*
X95477893Y-104020892D01*
X95498330Y-103998698D01*
X95514421Y-103983574D01*
X95537678Y-103973367D01*
X95579611Y-103965928D01*
X95651730Y-103959104D01*
X95765546Y-103950744D01*
X95908001Y-103940507D01*
X96135338Y-103917875D01*
X96307091Y-103884136D01*
X96430922Y-103833850D01*
X96514493Y-103761574D01*
X96565468Y-103661865D01*
X96591508Y-103529282D01*
X96597480Y-103450816D01*
X96597258Y-103264280D01*
X96571102Y-103121748D01*
X96512638Y-103017857D01*
X96415494Y-102947244D01*
X96273297Y-102904548D01*
X96079673Y-102884405D01*
X95920125Y-102880860D01*
X95696957Y-102885725D01*
X95696957Y-102885725D01*
G37*
X95696957Y-102885725D02*
X95528504Y-102904331D01*
X95406628Y-102941390D01*
X95323191Y-103001612D01*
X95270053Y-103089707D01*
X95239077Y-103210388D01*
X95229779Y-103280437D01*
X95213551Y-103431250D01*
X95330553Y-103431250D01*
X95404671Y-103426806D01*
X95444033Y-103401919D01*
X95467578Y-103339252D01*
X95477465Y-103296788D01*
X95506434Y-103206188D01*
X95552943Y-103144493D01*
X95627488Y-103107244D01*
X95740567Y-103089982D01*
X95902678Y-103088249D01*
X95963953Y-103090146D01*
X96135508Y-103102106D01*
X96253395Y-103127719D01*
X96327097Y-103173968D01*
X96366095Y-103247838D01*
X96379869Y-103356310D01*
X96380500Y-103396949D01*
X96374107Y-103509117D01*
X96347789Y-103585364D01*
X96290840Y-103634599D01*
X96192554Y-103665733D01*
X96042225Y-103687675D01*
X96029465Y-103689099D01*
X95803388Y-103714784D01*
X95631693Y-103736670D01*
X95505523Y-103756723D01*
X95416022Y-103776913D01*
X95354334Y-103799206D01*
X95311602Y-103825570D01*
X95281209Y-103855354D01*
X95227178Y-103956766D01*
X95194785Y-104100426D01*
X95186389Y-104268079D01*
X95204347Y-104441470D01*
X95205024Y-104445042D01*
X95244345Y-104588748D01*
X95303360Y-104683340D01*
X95392912Y-104742587D01*
X95456573Y-104764394D01*
X95552055Y-104780244D01*
X95689818Y-104789939D01*
X95851898Y-104793662D01*
X96020333Y-104791597D01*
X96177159Y-104783926D01*
X96304414Y-104770832D01*
X96377527Y-104755020D01*
X96492341Y-104689918D01*
X96569779Y-104584273D01*
X96614716Y-104430535D01*
X96622371Y-104375812D01*
X96643243Y-104193250D01*
X96380500Y-104193250D01*
X96380500Y-104316732D01*
X96361120Y-104435417D01*
X96319786Y-104515170D01*
X96289374Y-104547893D01*
X96252850Y-104569395D01*
X96197240Y-104582012D01*
X96109567Y-104588081D01*
X95976854Y-104589939D01*
X95904151Y-104590025D01*
X95748505Y-104589152D01*
X95643379Y-104585077D01*
X95575801Y-104575458D01*
X95532796Y-104557957D01*
X95501391Y-104530233D01*
X95488615Y-104515070D01*
X95449906Y-104432819D01*
X95429149Y-104318899D01*
X95426848Y-104196519D01*
X95443506Y-104088889D01*
X95477893Y-104020892D01*
X95498330Y-103998698D01*
X95514421Y-103983574D01*
X95537678Y-103973367D01*
X95579611Y-103965928D01*
X95651730Y-103959104D01*
X95765546Y-103950744D01*
X95908001Y-103940507D01*
X96135338Y-103917875D01*
X96307091Y-103884136D01*
X96430922Y-103833850D01*
X96514493Y-103761574D01*
X96565468Y-103661865D01*
X96591508Y-103529282D01*
X96597480Y-103450816D01*
X96597258Y-103264280D01*
X96571102Y-103121748D01*
X96512638Y-103017857D01*
X96415494Y-102947244D01*
X96273297Y-102904548D01*
X96079673Y-102884405D01*
X95920125Y-102880860D01*
X95696957Y-102885725D01*
G36*
X94158000Y-104796500D02*
X94412000Y-104796500D01*
X94412000Y-102891500D01*
X94158000Y-102891500D01*
X94158000Y-104796500D01*
X94158000Y-104796500D01*
G37*
X94158000Y-104796500D02*
X94412000Y-104796500D01*
X94412000Y-102891500D01*
X94158000Y-102891500D01*
X94158000Y-104796500D01*
G36*
X91967250Y-103113750D02*
X92570500Y-103113750D01*
X92570500Y-104796500D01*
X92824500Y-104796500D01*
X92824500Y-103113750D01*
X93427750Y-103113750D01*
X93427750Y-102891500D01*
X91967250Y-102891500D01*
X91967250Y-103113750D01*
X91967250Y-103113750D01*
G37*
X91967250Y-103113750D02*
X92570500Y-103113750D01*
X92570500Y-104796500D01*
X92824500Y-104796500D01*
X92824500Y-103113750D01*
X93427750Y-103113750D01*
X93427750Y-102891500D01*
X91967250Y-102891500D01*
X91967250Y-103113750D01*
G36*
X91325347Y-102891477D02*
X91319868Y-102891500D01*
X91178252Y-102891500D01*
X90915877Y-103304250D01*
X90824429Y-103446351D01*
X90744502Y-103567234D01*
X90682340Y-103657716D01*
X90644185Y-103708613D01*
X90635689Y-103716407D01*
X90613460Y-103690713D01*
X90564534Y-103620522D01*
X90495365Y-103515498D01*
X90412404Y-103385305D01*
X90379750Y-103333084D01*
X90291273Y-103192819D01*
X90212179Y-103071023D01*
X90149604Y-102978423D01*
X90110686Y-102925750D01*
X90104284Y-102918986D01*
X90050690Y-102901265D01*
X89963866Y-102896177D01*
X89938191Y-102897497D01*
X89809438Y-102907375D01*
X90173249Y-103463000D01*
X90537059Y-104018625D01*
X90537780Y-104407562D01*
X90538500Y-104796500D01*
X90760750Y-104796500D01*
X90760750Y-104014840D01*
X91081040Y-103509371D01*
X91207481Y-103310321D01*
X91303265Y-103158959D01*
X91370893Y-103048819D01*
X91412863Y-102973434D01*
X91431675Y-102926336D01*
X91429830Y-102901059D01*
X91409828Y-102891135D01*
X91374167Y-102890097D01*
X91325347Y-102891477D01*
X91325347Y-102891477D01*
G37*
X91325347Y-102891477D02*
X91319868Y-102891500D01*
X91178252Y-102891500D01*
X90915877Y-103304250D01*
X90824429Y-103446351D01*
X90744502Y-103567234D01*
X90682340Y-103657716D01*
X90644185Y-103708613D01*
X90635689Y-103716407D01*
X90613460Y-103690713D01*
X90564534Y-103620522D01*
X90495365Y-103515498D01*
X90412404Y-103385305D01*
X90379750Y-103333084D01*
X90291273Y-103192819D01*
X90212179Y-103071023D01*
X90149604Y-102978423D01*
X90110686Y-102925750D01*
X90104284Y-102918986D01*
X90050690Y-102901265D01*
X89963866Y-102896177D01*
X89938191Y-102897497D01*
X89809438Y-102907375D01*
X90173249Y-103463000D01*
X90537059Y-104018625D01*
X90537780Y-104407562D01*
X90538500Y-104796500D01*
X90760750Y-104796500D01*
X90760750Y-104014840D01*
X91081040Y-103509371D01*
X91207481Y-103310321D01*
X91303265Y-103158959D01*
X91370893Y-103048819D01*
X91412863Y-102973434D01*
X91431675Y-102926336D01*
X91429830Y-102901059D01*
X91409828Y-102891135D01*
X91374167Y-102890097D01*
X91325347Y-102891477D01*
G36*
X92277699Y-100560850D02*
X92117633Y-100570928D01*
X92000937Y-100591298D01*
X91917619Y-100624942D01*
X91857687Y-100674846D01*
X91811150Y-100743992D01*
X91800612Y-100764286D01*
X91763852Y-100871832D01*
X91745516Y-100992054D01*
X91745050Y-101010312D01*
X91745000Y-101145250D01*
X91872000Y-101145250D01*
X91953294Y-101142084D01*
X91989417Y-101120951D01*
X91998698Y-101064400D01*
X91999000Y-101024318D01*
X92003984Y-100929608D01*
X92025245Y-100862773D01*
X92072253Y-100818568D01*
X92154474Y-100791750D01*
X92281376Y-100777076D01*
X92459307Y-100769392D01*
X92661552Y-100767199D01*
X92810206Y-100775799D01*
X92914641Y-100797777D01*
X92984234Y-100835717D01*
X93028357Y-100892201D01*
X93044690Y-100930736D01*
X93058386Y-101004530D01*
X93068418Y-101126955D01*
X93074797Y-101283249D01*
X93077534Y-101458650D01*
X93076642Y-101638394D01*
X93072130Y-101807721D01*
X93064012Y-101951866D01*
X93052299Y-102056069D01*
X93043778Y-102092628D01*
X93005503Y-102160070D01*
X92939623Y-102207733D01*
X92837939Y-102237747D01*
X92692252Y-102252240D01*
X92494365Y-102253342D01*
X92431518Y-102251639D01*
X92274862Y-102245062D01*
X92169452Y-102235834D01*
X92103035Y-102221725D01*
X92063359Y-102200509D01*
X92045856Y-102181511D01*
X92017540Y-102116862D01*
X91993370Y-102018460D01*
X91976810Y-101909546D01*
X91971327Y-101813361D01*
X91980386Y-101753147D01*
X91981641Y-101750901D01*
X92022925Y-101734235D01*
X92115817Y-101722492D01*
X92248527Y-101716994D01*
X92286624Y-101716750D01*
X92570500Y-101716750D01*
X92570500Y-101494500D01*
X91736844Y-101494500D01*
X91751335Y-101835812D01*
X91765485Y-102039674D01*
X91790498Y-102189884D01*
X91829998Y-102295878D01*
X91887613Y-102367091D01*
X91966969Y-102412957D01*
X91974223Y-102415761D01*
X92055300Y-102433913D01*
X92182798Y-102448732D01*
X92339697Y-102459609D01*
X92508975Y-102465939D01*
X92673613Y-102467113D01*
X92816590Y-102462525D01*
X92920886Y-102451567D01*
X92929745Y-102449847D01*
X93035454Y-102415488D01*
X93129773Y-102365866D01*
X93136120Y-102361318D01*
X93194575Y-102308404D01*
X93239038Y-102241828D01*
X93271317Y-102152802D01*
X93293225Y-102032538D01*
X93306570Y-101872249D01*
X93313164Y-101663147D01*
X93314696Y-101494500D01*
X93314706Y-101288773D01*
X93312439Y-101135538D01*
X93306902Y-101023797D01*
X93297104Y-100942555D01*
X93282053Y-100880816D01*
X93260757Y-100827584D01*
X93253125Y-100811875D01*
X93198443Y-100721864D01*
X93130724Y-100655241D01*
X93040292Y-100608783D01*
X92917469Y-100579267D01*
X92752580Y-100563469D01*
X92535948Y-100558167D01*
X92491125Y-100558079D01*
X92277699Y-100560850D01*
X92277699Y-100560850D01*
G37*
X92277699Y-100560850D02*
X92117633Y-100570928D01*
X92000937Y-100591298D01*
X91917619Y-100624942D01*
X91857687Y-100674846D01*
X91811150Y-100743992D01*
X91800612Y-100764286D01*
X91763852Y-100871832D01*
X91745516Y-100992054D01*
X91745050Y-101010312D01*
X91745000Y-101145250D01*
X91872000Y-101145250D01*
X91953294Y-101142084D01*
X91989417Y-101120951D01*
X91998698Y-101064400D01*
X91999000Y-101024318D01*
X92003984Y-100929608D01*
X92025245Y-100862773D01*
X92072253Y-100818568D01*
X92154474Y-100791750D01*
X92281376Y-100777076D01*
X92459307Y-100769392D01*
X92661552Y-100767199D01*
X92810206Y-100775799D01*
X92914641Y-100797777D01*
X92984234Y-100835717D01*
X93028357Y-100892201D01*
X93044690Y-100930736D01*
X93058386Y-101004530D01*
X93068418Y-101126955D01*
X93074797Y-101283249D01*
X93077534Y-101458650D01*
X93076642Y-101638394D01*
X93072130Y-101807721D01*
X93064012Y-101951866D01*
X93052299Y-102056069D01*
X93043778Y-102092628D01*
X93005503Y-102160070D01*
X92939623Y-102207733D01*
X92837939Y-102237747D01*
X92692252Y-102252240D01*
X92494365Y-102253342D01*
X92431518Y-102251639D01*
X92274862Y-102245062D01*
X92169452Y-102235834D01*
X92103035Y-102221725D01*
X92063359Y-102200509D01*
X92045856Y-102181511D01*
X92017540Y-102116862D01*
X91993370Y-102018460D01*
X91976810Y-101909546D01*
X91971327Y-101813361D01*
X91980386Y-101753147D01*
X91981641Y-101750901D01*
X92022925Y-101734235D01*
X92115817Y-101722492D01*
X92248527Y-101716994D01*
X92286624Y-101716750D01*
X92570500Y-101716750D01*
X92570500Y-101494500D01*
X91736844Y-101494500D01*
X91751335Y-101835812D01*
X91765485Y-102039674D01*
X91790498Y-102189884D01*
X91829998Y-102295878D01*
X91887613Y-102367091D01*
X91966969Y-102412957D01*
X91974223Y-102415761D01*
X92055300Y-102433913D01*
X92182798Y-102448732D01*
X92339697Y-102459609D01*
X92508975Y-102465939D01*
X92673613Y-102467113D01*
X92816590Y-102462525D01*
X92920886Y-102451567D01*
X92929745Y-102449847D01*
X93035454Y-102415488D01*
X93129773Y-102365866D01*
X93136120Y-102361318D01*
X93194575Y-102308404D01*
X93239038Y-102241828D01*
X93271317Y-102152802D01*
X93293225Y-102032538D01*
X93306570Y-101872249D01*
X93313164Y-101663147D01*
X93314696Y-101494500D01*
X93314706Y-101288773D01*
X93312439Y-101135538D01*
X93306902Y-101023797D01*
X93297104Y-100942555D01*
X93282053Y-100880816D01*
X93260757Y-100827584D01*
X93253125Y-100811875D01*
X93198443Y-100721864D01*
X93130724Y-100655241D01*
X93040292Y-100608783D01*
X92917469Y-100579267D01*
X92752580Y-100563469D01*
X92535948Y-100558167D01*
X92491125Y-100558079D01*
X92277699Y-100560850D01*
G36*
X105419118Y-101485151D02*
X105334875Y-101712904D01*
X105258260Y-101921484D01*
X105191963Y-102103456D01*
X105138672Y-102251385D01*
X105101074Y-102357837D01*
X105081859Y-102415377D01*
X105079917Y-102423187D01*
X105108120Y-102438233D01*
X105178297Y-102446470D01*
X105204355Y-102447000D01*
X105273869Y-102444345D01*
X105316833Y-102426936D01*
X105347616Y-102380604D01*
X105380589Y-102291181D01*
X105389524Y-102264437D01*
X105450339Y-102081875D01*
X106377729Y-102064325D01*
X106447494Y-102255662D01*
X106486904Y-102359065D01*
X106518735Y-102416302D01*
X106556720Y-102441024D01*
X106614594Y-102446880D01*
X106640005Y-102447000D01*
X106717967Y-102441312D01*
X106760246Y-102427162D01*
X106762750Y-102422175D01*
X106752271Y-102387194D01*
X106722610Y-102300106D01*
X106676430Y-102168426D01*
X106616395Y-101999672D01*
X106571799Y-101875500D01*
X106310092Y-101875500D01*
X105933171Y-101875500D01*
X105786941Y-101873377D01*
X105667154Y-101867597D01*
X105586146Y-101859041D01*
X105556251Y-101848591D01*
X105556250Y-101848551D01*
X105566497Y-101811128D01*
X105594887Y-101724364D01*
X105637892Y-101598606D01*
X105691987Y-101444202D01*
X105739562Y-101310676D01*
X105922873Y-100799749D01*
X106116482Y-101337624D01*
X106310092Y-101875500D01*
X106571799Y-101875500D01*
X106545171Y-101801360D01*
X106465420Y-101581005D01*
X106433591Y-101493488D01*
X106104432Y-100589625D01*
X105931417Y-100580276D01*
X105758402Y-100570928D01*
X105419118Y-101485151D01*
X105419118Y-101485151D01*
G37*
X105419118Y-101485151D02*
X105334875Y-101712904D01*
X105258260Y-101921484D01*
X105191963Y-102103456D01*
X105138672Y-102251385D01*
X105101074Y-102357837D01*
X105081859Y-102415377D01*
X105079917Y-102423187D01*
X105108120Y-102438233D01*
X105178297Y-102446470D01*
X105204355Y-102447000D01*
X105273869Y-102444345D01*
X105316833Y-102426936D01*
X105347616Y-102380604D01*
X105380589Y-102291181D01*
X105389524Y-102264437D01*
X105450339Y-102081875D01*
X106377729Y-102064325D01*
X106447494Y-102255662D01*
X106486904Y-102359065D01*
X106518735Y-102416302D01*
X106556720Y-102441024D01*
X106614594Y-102446880D01*
X106640005Y-102447000D01*
X106717967Y-102441312D01*
X106760246Y-102427162D01*
X106762750Y-102422175D01*
X106752271Y-102387194D01*
X106722610Y-102300106D01*
X106676430Y-102168426D01*
X106616395Y-101999672D01*
X106571799Y-101875500D01*
X106310092Y-101875500D01*
X105933171Y-101875500D01*
X105786941Y-101873377D01*
X105667154Y-101867597D01*
X105586146Y-101859041D01*
X105556251Y-101848591D01*
X105556250Y-101848551D01*
X105566497Y-101811128D01*
X105594887Y-101724364D01*
X105637892Y-101598606D01*
X105691987Y-101444202D01*
X105739562Y-101310676D01*
X105922873Y-100799749D01*
X106116482Y-101337624D01*
X106310092Y-101875500D01*
X106571799Y-101875500D01*
X106545171Y-101801360D01*
X106465420Y-101581005D01*
X106433591Y-101493488D01*
X106104432Y-100589625D01*
X105931417Y-100580276D01*
X105758402Y-100570928D01*
X105419118Y-101485151D01*
G36*
X102254250Y-102447000D02*
X102507160Y-102447000D01*
X102515643Y-101654708D01*
X102524125Y-100862416D01*
X102846683Y-101646770D01*
X103169240Y-102431125D01*
X103436656Y-102431125D01*
X103758266Y-101653250D01*
X104079875Y-100875375D01*
X104088368Y-101661187D01*
X104096860Y-102447000D01*
X104349750Y-102447000D01*
X104349750Y-100573750D01*
X103943351Y-100573750D01*
X103834212Y-100835687D01*
X103783449Y-100958206D01*
X103715985Y-101122012D01*
X103639024Y-101309567D01*
X103559768Y-101503330D01*
X103521474Y-101597197D01*
X103453401Y-101761465D01*
X103392568Y-101903074D01*
X103343278Y-102012415D01*
X103309833Y-102079883D01*
X103297505Y-102097259D01*
X103274616Y-102071147D01*
X103258030Y-102026312D01*
X103240783Y-101977266D01*
X103202892Y-101878886D01*
X103148064Y-101740482D01*
X103080005Y-101571365D01*
X103002421Y-101380846D01*
X102957833Y-101272250D01*
X102676739Y-100589625D01*
X102465495Y-100580236D01*
X102254250Y-100570848D01*
X102254250Y-102447000D01*
X102254250Y-102447000D01*
G37*
X102254250Y-102447000D02*
X102507160Y-102447000D01*
X102515643Y-101654708D01*
X102524125Y-100862416D01*
X102846683Y-101646770D01*
X103169240Y-102431125D01*
X103436656Y-102431125D01*
X103758266Y-101653250D01*
X104079875Y-100875375D01*
X104088368Y-101661187D01*
X104096860Y-102447000D01*
X104349750Y-102447000D01*
X104349750Y-100573750D01*
X103943351Y-100573750D01*
X103834212Y-100835687D01*
X103783449Y-100958206D01*
X103715985Y-101122012D01*
X103639024Y-101309567D01*
X103559768Y-101503330D01*
X103521474Y-101597197D01*
X103453401Y-101761465D01*
X103392568Y-101903074D01*
X103343278Y-102012415D01*
X103309833Y-102079883D01*
X103297505Y-102097259D01*
X103274616Y-102071147D01*
X103258030Y-102026312D01*
X103240783Y-101977266D01*
X103202892Y-101878886D01*
X103148064Y-101740482D01*
X103080005Y-101571365D01*
X103002421Y-101380846D01*
X102957833Y-101272250D01*
X102676739Y-100589625D01*
X102465495Y-100580236D01*
X102254250Y-100570848D01*
X102254250Y-102447000D01*
G36*
X100569339Y-100575445D02*
X100385322Y-100581927D01*
X100248365Y-100595286D01*
X100150276Y-100617614D01*
X100082862Y-100651002D01*
X100037932Y-100697542D01*
X100007294Y-100759324D01*
X99999978Y-100780192D01*
X99973132Y-100914714D01*
X99970128Y-101064916D01*
X99988795Y-101209739D01*
X100026963Y-101328123D01*
X100062005Y-101381782D01*
X100137005Y-101461616D01*
X100054926Y-101526179D01*
X99965758Y-101636274D01*
X99917888Y-101792072D01*
X99912286Y-101990226D01*
X99914066Y-102011989D01*
X99949892Y-102191370D01*
X100021929Y-102321801D01*
X100130061Y-102406844D01*
X100193298Y-102423479D01*
X100310921Y-102435498D01*
X100485701Y-102443069D01*
X100720414Y-102446360D01*
X100785813Y-102446531D01*
X101365250Y-102447000D01*
X101365250Y-102256500D01*
X101143000Y-102256500D01*
X100766738Y-102256500D01*
X100608344Y-102253633D01*
X100464341Y-102245855D01*
X100351761Y-102234396D01*
X100292112Y-102222210D01*
X100204675Y-102166671D01*
X100158268Y-102080412D01*
X100139720Y-101973308D01*
X100142850Y-101851845D01*
X100164613Y-101739453D01*
X100201967Y-101659561D01*
X100214650Y-101646335D01*
X100271387Y-101625932D01*
X100387638Y-101610274D01*
X100564872Y-101599203D01*
X100703323Y-101594642D01*
X101143000Y-101583660D01*
X101143000Y-102256500D01*
X101365250Y-102256500D01*
X101365250Y-101367500D01*
X101143000Y-101367500D01*
X100769938Y-101367066D01*
X100615896Y-101365350D01*
X100479914Y-101361020D01*
X100377662Y-101354751D01*
X100327435Y-101348010D01*
X100261472Y-101300498D01*
X100216114Y-101211040D01*
X100194309Y-101098686D01*
X100199007Y-100982486D01*
X100233158Y-100881491D01*
X100251123Y-100855079D01*
X100279636Y-100824346D01*
X100314563Y-100802968D01*
X100367610Y-100788847D01*
X100450480Y-100779884D01*
X100574876Y-100773980D01*
X100727373Y-100769664D01*
X101143000Y-100759203D01*
X101143000Y-101367500D01*
X101365250Y-101367500D01*
X101365250Y-100573750D01*
X100808606Y-100573750D01*
X100569339Y-100575445D01*
X100569339Y-100575445D01*
G37*
X100569339Y-100575445D02*
X100385322Y-100581927D01*
X100248365Y-100595286D01*
X100150276Y-100617614D01*
X100082862Y-100651002D01*
X100037932Y-100697542D01*
X100007294Y-100759324D01*
X99999978Y-100780192D01*
X99973132Y-100914714D01*
X99970128Y-101064916D01*
X99988795Y-101209739D01*
X100026963Y-101328123D01*
X100062005Y-101381782D01*
X100137005Y-101461616D01*
X100054926Y-101526179D01*
X99965758Y-101636274D01*
X99917888Y-101792072D01*
X99912286Y-101990226D01*
X99914066Y-102011989D01*
X99949892Y-102191370D01*
X100021929Y-102321801D01*
X100130061Y-102406844D01*
X100193298Y-102423479D01*
X100310921Y-102435498D01*
X100485701Y-102443069D01*
X100720414Y-102446360D01*
X100785813Y-102446531D01*
X101365250Y-102447000D01*
X101365250Y-102256500D01*
X101143000Y-102256500D01*
X100766738Y-102256500D01*
X100608344Y-102253633D01*
X100464341Y-102245855D01*
X100351761Y-102234396D01*
X100292112Y-102222210D01*
X100204675Y-102166671D01*
X100158268Y-102080412D01*
X100139720Y-101973308D01*
X100142850Y-101851845D01*
X100164613Y-101739453D01*
X100201967Y-101659561D01*
X100214650Y-101646335D01*
X100271387Y-101625932D01*
X100387638Y-101610274D01*
X100564872Y-101599203D01*
X100703323Y-101594642D01*
X101143000Y-101583660D01*
X101143000Y-102256500D01*
X101365250Y-102256500D01*
X101365250Y-101367500D01*
X101143000Y-101367500D01*
X100769938Y-101367066D01*
X100615896Y-101365350D01*
X100479914Y-101361020D01*
X100377662Y-101354751D01*
X100327435Y-101348010D01*
X100261472Y-101300498D01*
X100216114Y-101211040D01*
X100194309Y-101098686D01*
X100199007Y-100982486D01*
X100233158Y-100881491D01*
X100251123Y-100855079D01*
X100279636Y-100824346D01*
X100314563Y-100802968D01*
X100367610Y-100788847D01*
X100450480Y-100779884D01*
X100574876Y-100773980D01*
X100727373Y-100769664D01*
X101143000Y-100759203D01*
X101143000Y-101367500D01*
X101365250Y-101367500D01*
X101365250Y-100573750D01*
X100808606Y-100573750D01*
X100569339Y-100575445D01*
G36*
X98499813Y-100574218D02*
X98273810Y-100575423D01*
X98101736Y-100579970D01*
X97974038Y-100589876D01*
X97881158Y-100607157D01*
X97813540Y-100633829D01*
X97761629Y-100671911D01*
X97715869Y-100723417D01*
X97701186Y-100742765D01*
X97669090Y-100795154D01*
X97649124Y-100857705D01*
X97638604Y-100946293D01*
X97634842Y-101076794D01*
X97634625Y-101136207D01*
X97635365Y-101277293D01*
X97640122Y-101369843D01*
X97652706Y-101428823D01*
X97676928Y-101469196D01*
X97716598Y-101505927D01*
X97731912Y-101518337D01*
X97829199Y-101596666D01*
X97739850Y-101686016D01*
X97700056Y-101728718D01*
X97674266Y-101770831D01*
X97659448Y-101826786D01*
X97652569Y-101911015D01*
X97650596Y-102037950D01*
X97650500Y-102111182D01*
X97650500Y-102447000D01*
X97872750Y-102447000D01*
X97872750Y-102213612D01*
X97884263Y-102005897D01*
X97918710Y-101856359D01*
X97975956Y-101765493D01*
X98001003Y-101747829D01*
X98053992Y-101735904D01*
X98156042Y-101726097D01*
X98292727Y-101719387D01*
X98449618Y-101716756D01*
X98458038Y-101716750D01*
X98857000Y-101716750D01*
X98857000Y-102447000D01*
X99079250Y-102447000D01*
X99079250Y-100764250D01*
X98857000Y-100764250D01*
X98857000Y-101499419D01*
X98429167Y-101489022D01*
X98253803Y-101483882D01*
X98130309Y-101477226D01*
X98047054Y-101467239D01*
X97992409Y-101452105D01*
X97954743Y-101430009D01*
X97934645Y-101411846D01*
X97875898Y-101313040D01*
X97849053Y-101177430D01*
X97856957Y-101024673D01*
X97869981Y-100965036D01*
X97897279Y-100891377D01*
X97939768Y-100837908D01*
X98006820Y-100801547D01*
X98107813Y-100779212D01*
X98252120Y-100767821D01*
X98449118Y-100764292D01*
X98480738Y-100764250D01*
X98857000Y-100764250D01*
X99079250Y-100764250D01*
X99079250Y-100573750D01*
X98499813Y-100574218D01*
X98499813Y-100574218D01*
G37*
X98499813Y-100574218D02*
X98273810Y-100575423D01*
X98101736Y-100579970D01*
X97974038Y-100589876D01*
X97881158Y-100607157D01*
X97813540Y-100633829D01*
X97761629Y-100671911D01*
X97715869Y-100723417D01*
X97701186Y-100742765D01*
X97669090Y-100795154D01*
X97649124Y-100857705D01*
X97638604Y-100946293D01*
X97634842Y-101076794D01*
X97634625Y-101136207D01*
X97635365Y-101277293D01*
X97640122Y-101369843D01*
X97652706Y-101428823D01*
X97676928Y-101469196D01*
X97716598Y-101505927D01*
X97731912Y-101518337D01*
X97829199Y-101596666D01*
X97739850Y-101686016D01*
X97700056Y-101728718D01*
X97674266Y-101770831D01*
X97659448Y-101826786D01*
X97652569Y-101911015D01*
X97650596Y-102037950D01*
X97650500Y-102111182D01*
X97650500Y-102447000D01*
X97872750Y-102447000D01*
X97872750Y-102213612D01*
X97884263Y-102005897D01*
X97918710Y-101856359D01*
X97975956Y-101765493D01*
X98001003Y-101747829D01*
X98053992Y-101735904D01*
X98156042Y-101726097D01*
X98292727Y-101719387D01*
X98449618Y-101716756D01*
X98458038Y-101716750D01*
X98857000Y-101716750D01*
X98857000Y-102447000D01*
X99079250Y-102447000D01*
X99079250Y-100764250D01*
X98857000Y-100764250D01*
X98857000Y-101499419D01*
X98429167Y-101489022D01*
X98253803Y-101483882D01*
X98130309Y-101477226D01*
X98047054Y-101467239D01*
X97992409Y-101452105D01*
X97954743Y-101430009D01*
X97934645Y-101411846D01*
X97875898Y-101313040D01*
X97849053Y-101177430D01*
X97856957Y-101024673D01*
X97869981Y-100965036D01*
X97897279Y-100891377D01*
X97939768Y-100837908D01*
X98006820Y-100801547D01*
X98107813Y-100779212D01*
X98252120Y-100767821D01*
X98449118Y-100764292D01*
X98480738Y-100764250D01*
X98857000Y-100764250D01*
X99079250Y-100764250D01*
X99079250Y-100573750D01*
X98499813Y-100574218D01*
G36*
X96539250Y-102447000D02*
X96761500Y-102447000D01*
X96761500Y-100573750D01*
X96539250Y-100573750D01*
X96539250Y-102447000D01*
X96539250Y-102447000D01*
G37*
X96539250Y-102447000D02*
X96761500Y-102447000D01*
X96761500Y-100573750D01*
X96539250Y-100573750D01*
X96539250Y-102447000D01*
G36*
X94861218Y-100574263D02*
X94705441Y-100576521D01*
X94591381Y-100581600D01*
X94508151Y-100590578D01*
X94444861Y-100604531D01*
X94390621Y-100624536D01*
X94347290Y-100645187D01*
X94258528Y-100696563D01*
X94191445Y-100755429D01*
X94143111Y-100831052D01*
X94110593Y-100932701D01*
X94090961Y-101069642D01*
X94081283Y-101251143D01*
X94078627Y-101486471D01*
X94078625Y-101494500D01*
X94079159Y-101690609D01*
X94081691Y-101835252D01*
X94087621Y-101940455D01*
X94098347Y-102018250D01*
X94115268Y-102080664D01*
X94139784Y-102139728D01*
X94158000Y-102177125D01*
X94204502Y-102262471D01*
X94253651Y-102327708D01*
X94314359Y-102375515D01*
X94395536Y-102408574D01*
X94506092Y-102429564D01*
X94654939Y-102441166D01*
X94850986Y-102446061D01*
X95054938Y-102446950D01*
X95650250Y-102447000D01*
X95650250Y-102256500D01*
X95396250Y-102256500D01*
X95023188Y-102254707D01*
X94863665Y-102250766D01*
X94716829Y-102241452D01*
X94600511Y-102228228D01*
X94539000Y-102215020D01*
X94454046Y-102173726D01*
X94390950Y-102110313D01*
X94346979Y-102016454D01*
X94319398Y-101883826D01*
X94305473Y-101704103D01*
X94302359Y-101494500D01*
X94307134Y-101260677D01*
X94324786Y-101082601D01*
X94362560Y-100952768D01*
X94427699Y-100863676D01*
X94527447Y-100807820D01*
X94669047Y-100777698D01*
X94859743Y-100765807D01*
X95007313Y-100764299D01*
X95396250Y-100764250D01*
X95396250Y-102256500D01*
X95650250Y-102256500D01*
X95650250Y-100573750D01*
X95069603Y-100573750D01*
X94861218Y-100574263D01*
X94861218Y-100574263D01*
G37*
X94861218Y-100574263D02*
X94705441Y-100576521D01*
X94591381Y-100581600D01*
X94508151Y-100590578D01*
X94444861Y-100604531D01*
X94390621Y-100624536D01*
X94347290Y-100645187D01*
X94258528Y-100696563D01*
X94191445Y-100755429D01*
X94143111Y-100831052D01*
X94110593Y-100932701D01*
X94090961Y-101069642D01*
X94081283Y-101251143D01*
X94078627Y-101486471D01*
X94078625Y-101494500D01*
X94079159Y-101690609D01*
X94081691Y-101835252D01*
X94087621Y-101940455D01*
X94098347Y-102018250D01*
X94115268Y-102080664D01*
X94139784Y-102139728D01*
X94158000Y-102177125D01*
X94204502Y-102262471D01*
X94253651Y-102327708D01*
X94314359Y-102375515D01*
X94395536Y-102408574D01*
X94506092Y-102429564D01*
X94654939Y-102441166D01*
X94850986Y-102446061D01*
X95054938Y-102446950D01*
X95650250Y-102447000D01*
X95650250Y-102256500D01*
X95396250Y-102256500D01*
X95023188Y-102254707D01*
X94863665Y-102250766D01*
X94716829Y-102241452D01*
X94600511Y-102228228D01*
X94539000Y-102215020D01*
X94454046Y-102173726D01*
X94390950Y-102110313D01*
X94346979Y-102016454D01*
X94319398Y-101883826D01*
X94305473Y-101704103D01*
X94302359Y-101494500D01*
X94307134Y-101260677D01*
X94324786Y-101082601D01*
X94362560Y-100952768D01*
X94427699Y-100863676D01*
X94527447Y-100807820D01*
X94669047Y-100777698D01*
X94859743Y-100765807D01*
X95007313Y-100764299D01*
X95396250Y-100764250D01*
X95396250Y-102256500D01*
X95650250Y-102256500D01*
X95650250Y-100573750D01*
X95069603Y-100573750D01*
X94861218Y-100574263D01*
G36*
X89808250Y-100764250D02*
X90792500Y-100764250D01*
X90792500Y-101367500D01*
X89840000Y-101367500D01*
X89840000Y-101589750D01*
X90792500Y-101589750D01*
X90792500Y-102256500D01*
X89808250Y-102256500D01*
X89808250Y-102447000D01*
X91014750Y-102447000D01*
X91014750Y-100573750D01*
X89808250Y-100573750D01*
X89808250Y-100764250D01*
X89808250Y-100764250D01*
G37*
X89808250Y-100764250D02*
X90792500Y-100764250D01*
X90792500Y-101367500D01*
X89840000Y-101367500D01*
X89840000Y-101589750D01*
X90792500Y-101589750D01*
X90792500Y-102256500D01*
X89808250Y-102256500D01*
X89808250Y-102447000D01*
X91014750Y-102447000D01*
X91014750Y-100573750D01*
X89808250Y-100573750D01*
X89808250Y-100764250D01*
D13*
X113550000Y-106465000D02*
X114315000Y-106465000D01*
X114315000Y-106465000D02*
X114315000Y-108245000D01*
X114315000Y-108245000D02*
X115685000Y-108245000D01*
X115685000Y-108245000D02*
X115685000Y-106465000D01*
X115685000Y-106465000D02*
X116450000Y-106465000D01*
X116450000Y-106465000D02*
X116450000Y-106165000D01*
X116450000Y-93835000D02*
X116450000Y-93535000D01*
X116450000Y-93535000D02*
X115685000Y-93535000D01*
X115685000Y-93535000D02*
X115685000Y-91755000D01*
X115685000Y-91755000D02*
X114315000Y-91755000D01*
X114315000Y-91755000D02*
X114315000Y-93535000D01*
X114315000Y-93535000D02*
X113550000Y-93535000D01*
X83550000Y-106465000D02*
X84315000Y-106465000D01*
X84315000Y-106465000D02*
X84315000Y-108245000D01*
X84315000Y-108245000D02*
X85685000Y-108245000D01*
X85685000Y-108245000D02*
X85685000Y-106465000D01*
X85685000Y-106465000D02*
X86450000Y-106465000D01*
X86450000Y-106465000D02*
X86450000Y-106165000D01*
X86450000Y-93835000D02*
X86450000Y-93535000D01*
X86450000Y-93535000D02*
X85685000Y-93535000D01*
X85685000Y-93535000D02*
X85685000Y-91755000D01*
X85685000Y-91755000D02*
X84315000Y-91755000D01*
X84315000Y-91755000D02*
X84315000Y-93535000D01*
X84315000Y-93535000D02*
X83550000Y-93535000D01*
X103290000Y-85950000D02*
X103290000Y-85185000D01*
X103290000Y-85185000D02*
X105070000Y-85185000D01*
X105070000Y-85185000D02*
X105070000Y-83815000D01*
X105070000Y-83815000D02*
X103290000Y-83815000D01*
X103290000Y-83815000D02*
X103290000Y-83050000D01*
X103290000Y-83050000D02*
X102990000Y-83050000D01*
X97010000Y-83050000D02*
X96710000Y-83050000D01*
X96710000Y-83050000D02*
X96710000Y-83815000D01*
X96710000Y-83815000D02*
X94930000Y-83815000D01*
X94930000Y-83815000D02*
X94930000Y-85185000D01*
X94930000Y-85185000D02*
X96710000Y-85185000D01*
X96710000Y-85185000D02*
X96710000Y-85950000D01*
%LPC*%
D10*
G36*
X100521558Y-117052287D02*
X100567668Y-117059127D01*
X100612885Y-117070453D01*
X100656775Y-117086157D01*
X100698913Y-117106087D01*
X100738896Y-117130052D01*
X100776337Y-117157820D01*
X100810876Y-117189124D01*
X100842180Y-117223663D01*
X100869948Y-117261104D01*
X100893913Y-117301087D01*
X100913843Y-117343225D01*
X100929547Y-117387115D01*
X100940873Y-117432332D01*
X100947713Y-117478442D01*
X100950000Y-117525000D01*
X100950000Y-118475000D01*
X100947713Y-118521558D01*
X100940873Y-118567668D01*
X100929547Y-118612885D01*
X100913843Y-118656775D01*
X100893913Y-118698913D01*
X100869948Y-118738896D01*
X100842180Y-118776337D01*
X100810876Y-118810876D01*
X100776337Y-118842180D01*
X100738896Y-118869948D01*
X100698913Y-118893913D01*
X100656775Y-118913843D01*
X100612885Y-118929547D01*
X100567668Y-118940873D01*
X100521558Y-118947713D01*
X100475000Y-118950000D01*
X99525000Y-118950000D01*
X99478442Y-118947713D01*
X99432332Y-118940873D01*
X99387115Y-118929547D01*
X99343225Y-118913843D01*
X99301087Y-118893913D01*
X99261104Y-118869948D01*
X99223663Y-118842180D01*
X99189124Y-118810876D01*
X99157820Y-118776337D01*
X99130052Y-118738896D01*
X99106087Y-118698913D01*
X99086157Y-118656775D01*
X99070453Y-118612885D01*
X99059127Y-118567668D01*
X99052287Y-118521558D01*
X99050000Y-118475000D01*
X99050000Y-117525000D01*
X99052287Y-117478442D01*
X99059127Y-117432332D01*
X99070453Y-117387115D01*
X99086157Y-117343225D01*
X99106087Y-117301087D01*
X99130052Y-117261104D01*
X99157820Y-117223663D01*
X99189124Y-117189124D01*
X99223663Y-117157820D01*
X99261104Y-117130052D01*
X99301087Y-117106087D01*
X99343225Y-117086157D01*
X99387115Y-117070453D01*
X99432332Y-117059127D01*
X99478442Y-117052287D01*
X99525000Y-117050000D01*
X100475000Y-117050000D01*
X100521558Y-117052287D01*
X100521558Y-117052287D01*
G37*
D14*
X105380000Y-96000000D03*
X106280000Y-96000000D03*
X93590000Y-94380000D03*
X94490000Y-94380000D03*
X95930000Y-89440000D03*
X95930000Y-90340000D03*
X107400000Y-90200000D03*
X107400000Y-91100000D03*
X92475000Y-87600000D03*
X91575000Y-87600000D03*
X92475000Y-88525000D03*
X91575000Y-88525000D03*
X98050000Y-91275000D03*
X98950000Y-91275000D03*
X95000000Y-88525000D03*
X94100000Y-88525000D03*
X101700000Y-96000000D03*
X100800000Y-96000000D03*
X103850000Y-89170000D03*
X102950000Y-89170000D03*
X103850000Y-90110000D03*
X102950000Y-90110000D03*
X109000000Y-91500000D03*
X109900000Y-91500000D03*
D15*
X113635000Y-94285000D03*
X116365000Y-94285000D03*
X113635000Y-95555000D03*
X116365000Y-95555000D03*
X113635000Y-96825000D03*
X116365000Y-96825000D03*
X113635000Y-98095000D03*
X116365000Y-98095000D03*
X113635000Y-99365000D03*
X116365000Y-99365000D03*
X113635000Y-100635000D03*
X116365000Y-100635000D03*
X113635000Y-101905000D03*
X116365000Y-101905000D03*
X113635000Y-103175000D03*
X116365000Y-103175000D03*
X113635000Y-104445000D03*
X116365000Y-104445000D03*
X113635000Y-105715000D03*
X116365000Y-105715000D03*
D16*
X115000000Y-107305000D03*
X115000000Y-92695000D03*
D15*
X83635000Y-94285000D03*
X86365000Y-94285000D03*
X83635000Y-95555000D03*
X86365000Y-95555000D03*
X83635000Y-96825000D03*
X86365000Y-96825000D03*
X83635000Y-98095000D03*
X86365000Y-98095000D03*
X83635000Y-99365000D03*
X86365000Y-99365000D03*
X83635000Y-100635000D03*
X86365000Y-100635000D03*
X83635000Y-101905000D03*
X86365000Y-101905000D03*
X83635000Y-103175000D03*
X86365000Y-103175000D03*
X83635000Y-104445000D03*
X86365000Y-104445000D03*
X83635000Y-105715000D03*
X86365000Y-105715000D03*
D16*
X85000000Y-107305000D03*
X85000000Y-92695000D03*
D14*
X90350000Y-90425000D03*
X90350000Y-91325000D03*
X91700000Y-94375000D03*
X92600000Y-94375000D03*
X90350000Y-89200000D03*
X90350000Y-88300000D03*
X98950000Y-93150000D03*
X98050000Y-93150000D03*
X98950000Y-92200000D03*
X98050000Y-92200000D03*
X101650000Y-92050000D03*
X101650000Y-92950000D03*
X103500000Y-96000000D03*
X104400000Y-96000000D03*
X100800000Y-95050000D03*
X101700000Y-95050000D03*
X101480000Y-90870000D03*
X100580000Y-90870000D03*
X100800000Y-94100000D03*
X101700000Y-94100000D03*
X109900000Y-92450000D03*
X109000000Y-92450000D03*
X106150000Y-90150000D03*
X105250000Y-90150000D03*
X109900000Y-93400000D03*
X109000000Y-93400000D03*
D17*
X97460000Y-85865000D03*
X97460000Y-83135000D03*
X98730000Y-85865000D03*
X98730000Y-83135000D03*
X100000000Y-85865000D03*
X100000000Y-83135000D03*
X101270000Y-85865000D03*
X101270000Y-83135000D03*
X102540000Y-85865000D03*
X102540000Y-83135000D03*
D16*
X104130000Y-84500000D03*
X95870000Y-84500000D03*
M02*
