G04 #@! TF.FileFunction,Soldermask,Top*
%FSLAX46Y46*%
G04 Gerber Fmt 4.6, Leading zero omitted, Abs format (unit mm)*
G04 Created by KiCad (PCBNEW 4.1.0-alpha+201605071002+6776~44~ubuntu14.04.1-product) date Tue 05 Jul 2016 00:44:42 BST*
%MOMM*%
%LPD*%
G01*
G04 APERTURE LIST*
%ADD10C,0.100000*%
%ADD11R,0.450000X0.450000*%
%ADD12R,1.036000X2.450000*%
%ADD13R,0.562000X2.450000*%
%ADD14R,0.620000X0.620000*%
%ADD15R,0.740000X2.920000*%
%ADD16R,1.000000X0.950000*%
%ADD17R,0.950000X1.000000*%
%ADD18R,4.200000X1.400000*%
%ADD19C,1.200000*%
%ADD20R,2.920000X0.740000*%
%ADD21R,0.700000X0.250000*%
%ADD22R,0.250000X0.700000*%
%ADD23R,0.732000X0.732000*%
%ADD24R,1.150000X1.450000*%
%ADD25R,1.450000X1.150000*%
G04 APERTURE END LIST*
D10*
D11*
X100864000Y-108500000D03*
X100864000Y-107850000D03*
X100864000Y-106550000D03*
X100864000Y-107200000D03*
X103636000Y-106550000D03*
X103636000Y-107200000D03*
X103636000Y-107850000D03*
X103636000Y-108500000D03*
D12*
X102684000Y-107525000D03*
D13*
X101579000Y-107525000D03*
D11*
X99036000Y-106550000D03*
X99036000Y-107200000D03*
X99036000Y-108500000D03*
X99036000Y-107850000D03*
X96264000Y-108500000D03*
X96264000Y-107850000D03*
X96264000Y-107200000D03*
X96264000Y-106550000D03*
D12*
X97216000Y-107525000D03*
D13*
X98321000Y-107525000D03*
D11*
X100864000Y-115350000D03*
X100864000Y-114700000D03*
X100864000Y-113400000D03*
X100864000Y-114050000D03*
X103636000Y-113400000D03*
X103636000Y-114050000D03*
X103636000Y-114700000D03*
X103636000Y-115350000D03*
D12*
X102684000Y-114375000D03*
D13*
X101579000Y-114375000D03*
D11*
X99036000Y-113400000D03*
X99036000Y-114050000D03*
X99036000Y-115350000D03*
X99036000Y-114700000D03*
X96264000Y-115350000D03*
X96264000Y-114700000D03*
X96264000Y-114050000D03*
X96264000Y-113400000D03*
D12*
X97216000Y-114375000D03*
D13*
X98321000Y-114375000D03*
D10*
G36*
X100521558Y-117052287D02*
X100567668Y-117059127D01*
X100612885Y-117070453D01*
X100656775Y-117086157D01*
X100698913Y-117106087D01*
X100738896Y-117130052D01*
X100776337Y-117157820D01*
X100810876Y-117189124D01*
X100842180Y-117223663D01*
X100869948Y-117261104D01*
X100893913Y-117301087D01*
X100913843Y-117343225D01*
X100929547Y-117387115D01*
X100940873Y-117432332D01*
X100947713Y-117478442D01*
X100950000Y-117525000D01*
X100950000Y-118475000D01*
X100947713Y-118521558D01*
X100940873Y-118567668D01*
X100929547Y-118612885D01*
X100913843Y-118656775D01*
X100893913Y-118698913D01*
X100869948Y-118738896D01*
X100842180Y-118776337D01*
X100810876Y-118810876D01*
X100776337Y-118842180D01*
X100738896Y-118869948D01*
X100698913Y-118893913D01*
X100656775Y-118913843D01*
X100612885Y-118929547D01*
X100567668Y-118940873D01*
X100521558Y-118947713D01*
X100475000Y-118950000D01*
X99525000Y-118950000D01*
X99478442Y-118947713D01*
X99432332Y-118940873D01*
X99387115Y-118929547D01*
X99343225Y-118913843D01*
X99301087Y-118893913D01*
X99261104Y-118869948D01*
X99223663Y-118842180D01*
X99189124Y-118810876D01*
X99157820Y-118776337D01*
X99130052Y-118738896D01*
X99106087Y-118698913D01*
X99086157Y-118656775D01*
X99070453Y-118612885D01*
X99059127Y-118567668D01*
X99052287Y-118521558D01*
X99050000Y-118475000D01*
X99050000Y-117525000D01*
X99052287Y-117478442D01*
X99059127Y-117432332D01*
X99070453Y-117387115D01*
X99086157Y-117343225D01*
X99106087Y-117301087D01*
X99130052Y-117261104D01*
X99157820Y-117223663D01*
X99189124Y-117189124D01*
X99223663Y-117157820D01*
X99261104Y-117130052D01*
X99301087Y-117106087D01*
X99343225Y-117086157D01*
X99387115Y-117070453D01*
X99432332Y-117059127D01*
X99478442Y-117052287D01*
X99525000Y-117050000D01*
X100475000Y-117050000D01*
X100521558Y-117052287D01*
X100521558Y-117052287D01*
G37*
D14*
X94020000Y-86780000D03*
X93120000Y-86780000D03*
X103760000Y-87950000D03*
X104660000Y-87950000D03*
D15*
X97460000Y-86215000D03*
X97460000Y-82785000D03*
X98730000Y-86215000D03*
X98730000Y-82785000D03*
X100000000Y-86215000D03*
X100000000Y-82785000D03*
X101270000Y-86215000D03*
X101270000Y-82785000D03*
X102540000Y-86215000D03*
X102540000Y-82785000D03*
D16*
X88990000Y-111830000D03*
X88990000Y-110230000D03*
D14*
X87290000Y-90230000D03*
X87290000Y-89330000D03*
X98020000Y-94490000D03*
X98020000Y-95390000D03*
X97100000Y-94490000D03*
X97100000Y-95390000D03*
X98670000Y-92440000D03*
X97770000Y-92440000D03*
X98700000Y-91510000D03*
X98700000Y-90610000D03*
D17*
X93350000Y-104175000D03*
X94950000Y-104175000D03*
X106140000Y-102080000D03*
X107740000Y-102080000D03*
D14*
X109550000Y-94100000D03*
X109550000Y-95000000D03*
X108650000Y-95927000D03*
X109550000Y-95927000D03*
X110780000Y-92300000D03*
X109880000Y-92300000D03*
X110780000Y-91350000D03*
X109880000Y-91350000D03*
D18*
X92950000Y-116375000D03*
X92950000Y-112675000D03*
X92020000Y-105760000D03*
X92020000Y-109460000D03*
X106950000Y-112675000D03*
X106950000Y-116375000D03*
D19*
X115000000Y-107305000D03*
X115000000Y-92695000D03*
D20*
X113285000Y-94285000D03*
X116715000Y-94285000D03*
X113285000Y-95555000D03*
X116715000Y-95555000D03*
X113285000Y-96825000D03*
X116715000Y-96825000D03*
X113285000Y-98095000D03*
X116715000Y-98095000D03*
X113285000Y-99365000D03*
X116715000Y-99365000D03*
X113285000Y-100635000D03*
X116715000Y-100635000D03*
X113285000Y-101905000D03*
X116715000Y-101905000D03*
X113285000Y-103175000D03*
X116715000Y-103175000D03*
X113285000Y-104445000D03*
X116715000Y-104445000D03*
X113285000Y-105715000D03*
X116715000Y-105715000D03*
D19*
X85000000Y-107305000D03*
X85000000Y-92695000D03*
D20*
X83285000Y-94285000D03*
X86715000Y-94285000D03*
X83285000Y-95555000D03*
X86715000Y-95555000D03*
X83285000Y-96825000D03*
X86715000Y-96825000D03*
X83285000Y-98095000D03*
X86715000Y-98095000D03*
X83285000Y-99365000D03*
X86715000Y-99365000D03*
X83285000Y-100635000D03*
X86715000Y-100635000D03*
X83285000Y-101905000D03*
X86715000Y-101905000D03*
X83285000Y-103175000D03*
X86715000Y-103175000D03*
X83285000Y-104445000D03*
X86715000Y-104445000D03*
X83285000Y-105715000D03*
X86715000Y-105715000D03*
D21*
X96050000Y-93700000D03*
X96050000Y-93200000D03*
X96050000Y-92700000D03*
X96050000Y-92200000D03*
X96050000Y-91700000D03*
X96050000Y-91200000D03*
X96050000Y-90700000D03*
X96050000Y-90200000D03*
X96050000Y-89700000D03*
X96050000Y-89200000D03*
D22*
X95400000Y-88550000D03*
X94900000Y-88550000D03*
X94400000Y-88550000D03*
X93900000Y-88550000D03*
X93400000Y-88550000D03*
X92900000Y-88550000D03*
X92400000Y-88550000D03*
X91900000Y-88550000D03*
X91400000Y-88550000D03*
X90900000Y-88550000D03*
D21*
X90250000Y-89200000D03*
X90250000Y-89700000D03*
X90250000Y-90200000D03*
X90250000Y-90700000D03*
X90250000Y-91200000D03*
X90250000Y-91700000D03*
X90250000Y-92200000D03*
X90250000Y-92700000D03*
X90250000Y-93200000D03*
X90250000Y-93700000D03*
D22*
X90900000Y-94350000D03*
X91400000Y-94350000D03*
X91900000Y-94350000D03*
X92400000Y-94350000D03*
X92900000Y-94350000D03*
X93400000Y-94350000D03*
X93900000Y-94350000D03*
X94400000Y-94350000D03*
X94900000Y-94350000D03*
X95400000Y-94350000D03*
D23*
X94995000Y-93295000D03*
X94995000Y-92065000D03*
X94995000Y-90835000D03*
X94995000Y-89605000D03*
X93765000Y-93295000D03*
X93765000Y-92065000D03*
X93765000Y-90835000D03*
X93765000Y-89605000D03*
X92535000Y-93295000D03*
X92535000Y-92065000D03*
X92535000Y-90835000D03*
X92535000Y-89605000D03*
X91305000Y-93295000D03*
X91305000Y-92065000D03*
X91305000Y-90835000D03*
X91305000Y-89605000D03*
D16*
X92330000Y-96930000D03*
X92330000Y-98530000D03*
X94900000Y-96930000D03*
X94900000Y-98530000D03*
X103020000Y-98710000D03*
X103020000Y-100310000D03*
X105540000Y-98710000D03*
X105540000Y-100310000D03*
D24*
X87600000Y-109625000D03*
X85800000Y-109625000D03*
D14*
X91210000Y-97280000D03*
X91210000Y-98180000D03*
X88490000Y-90230000D03*
X88490000Y-89330000D03*
X97100000Y-93550000D03*
X98000000Y-93550000D03*
D24*
X98675000Y-111025000D03*
X96875000Y-111025000D03*
D14*
X97770000Y-91510000D03*
X97770000Y-90610000D03*
D16*
X93620000Y-96930000D03*
X93620000Y-98530000D03*
D14*
X96020000Y-98180000D03*
X96020000Y-97280000D03*
D25*
X91600000Y-104175000D03*
X91600000Y-102375000D03*
D14*
X101910000Y-99070000D03*
X101910000Y-99970000D03*
X108600000Y-95000000D03*
X108600000Y-94100000D03*
D24*
X101200000Y-111025000D03*
X103000000Y-111025000D03*
D14*
X108930000Y-92300000D03*
X108930000Y-91400000D03*
D24*
X113870000Y-109660000D03*
X115670000Y-109660000D03*
D21*
X107420000Y-95320000D03*
X107420000Y-94820000D03*
X107420000Y-94320000D03*
X107420000Y-93820000D03*
X107420000Y-93320000D03*
X107420000Y-92820000D03*
X107420000Y-92320000D03*
X107420000Y-91820000D03*
X107420000Y-91320000D03*
X107420000Y-90820000D03*
D22*
X106770000Y-90170000D03*
X106270000Y-90170000D03*
X105770000Y-90170000D03*
X105270000Y-90170000D03*
X104770000Y-90170000D03*
X104270000Y-90170000D03*
X103770000Y-90170000D03*
X103270000Y-90170000D03*
X102770000Y-90170000D03*
X102270000Y-90170000D03*
D21*
X101620000Y-90820000D03*
X101620000Y-91320000D03*
X101620000Y-91820000D03*
X101620000Y-92320000D03*
X101620000Y-92820000D03*
X101620000Y-93320000D03*
X101620000Y-93820000D03*
X101620000Y-94320000D03*
X101620000Y-94820000D03*
X101620000Y-95320000D03*
D22*
X102270000Y-95970000D03*
X102770000Y-95970000D03*
X103270000Y-95970000D03*
X103770000Y-95970000D03*
X104270000Y-95970000D03*
X104770000Y-95970000D03*
X105270000Y-95970000D03*
X105770000Y-95970000D03*
X106270000Y-95970000D03*
X106770000Y-95970000D03*
D23*
X106365000Y-94915000D03*
X106365000Y-93685000D03*
X106365000Y-92455000D03*
X106365000Y-91225000D03*
X105135000Y-94915000D03*
X105135000Y-93685000D03*
X105135000Y-92455000D03*
X105135000Y-91225000D03*
X103905000Y-94915000D03*
X103905000Y-93685000D03*
X103905000Y-92455000D03*
X103905000Y-91225000D03*
X102675000Y-94915000D03*
X102675000Y-93685000D03*
X102675000Y-92455000D03*
X102675000Y-91225000D03*
D16*
X111440000Y-109660000D03*
X111440000Y-111260000D03*
D18*
X106925000Y-109450000D03*
X106925000Y-105750000D03*
D14*
X106650000Y-99980000D03*
X106650000Y-99080000D03*
D16*
X104280000Y-98710000D03*
X104280000Y-100310000D03*
D24*
X107270000Y-103840000D03*
X109070000Y-103840000D03*
D14*
X88640000Y-91430000D03*
X87740000Y-91430000D03*
D19*
X104130000Y-84500000D03*
X95870000Y-84500000D03*
M02*
