G04 #@! TF.FileFunction,Legend,Top*
%FSLAX46Y46*%
G04 Gerber Fmt 4.6, Leading zero omitted, Abs format (unit mm)*
G04 Created by KiCad (PCBNEW 4.1.0-alpha+201605071002+6776~44~ubuntu14.04.1-product) date Tue 05 Jul 2016 00:44:42 BST*
%MOMM*%
%LPD*%
G01*
G04 APERTURE LIST*
%ADD10C,0.100000*%
%ADD11C,0.125000*%
%ADD12C,0.200000*%
%ADD13C,0.150000*%
%ADD14R,0.450000X0.450000*%
%ADD15R,1.036000X2.450000*%
%ADD16R,0.562000X2.450000*%
%ADD17R,0.620000X0.620000*%
%ADD18R,0.740000X2.920000*%
%ADD19R,1.000000X0.950000*%
%ADD20R,0.950000X1.000000*%
%ADD21R,4.200000X1.400000*%
%ADD22C,1.200000*%
%ADD23R,2.920000X0.740000*%
%ADD24R,0.700000X0.250000*%
%ADD25R,0.250000X0.700000*%
%ADD26R,0.732000X0.732000*%
%ADD27R,1.150000X1.450000*%
%ADD28R,1.450000X1.150000*%
G04 APERTURE END LIST*
D10*
D11*
X89317164Y-88017132D02*
X89135618Y-87737575D01*
X89187488Y-87817449D02*
X89181521Y-87764544D01*
X89188522Y-87731608D01*
X89215491Y-87685705D01*
X89255428Y-87659770D01*
X89796404Y-87705910D02*
X89556784Y-87861521D01*
X89676594Y-87783715D02*
X89404275Y-87364380D01*
X89403241Y-87450220D01*
X89389239Y-87516092D01*
X89362270Y-87561996D01*
X90029260Y-87015289D02*
X90036261Y-86982353D01*
X90063230Y-86936449D01*
X90163072Y-86871611D01*
X90215976Y-86865645D01*
X90248912Y-86872645D01*
X90294816Y-86899614D01*
X90320751Y-86939551D01*
X90339685Y-87012424D01*
X90255676Y-87407655D01*
X90515265Y-87239076D01*
X90502534Y-86651162D02*
X90542471Y-86625227D01*
X90595375Y-86619260D01*
X90628311Y-86626261D01*
X90674214Y-86653230D01*
X90746053Y-86720136D01*
X90810891Y-86819978D01*
X90842793Y-86912819D01*
X90848760Y-86965723D01*
X90841759Y-86998659D01*
X90814790Y-87044562D01*
X90774853Y-87070498D01*
X90721949Y-87076464D01*
X90689013Y-87069464D01*
X90643110Y-87042495D01*
X90571271Y-86975589D01*
X90506433Y-86875747D01*
X90474531Y-86782906D01*
X90468564Y-86730002D01*
X90475565Y-86697066D01*
X90502534Y-86651162D01*
X91313999Y-86720372D02*
X91074379Y-86875984D01*
X91194189Y-86798178D02*
X90921869Y-86378843D01*
X90920835Y-86464683D01*
X90906834Y-86530555D01*
X90879865Y-86576458D01*
X91401110Y-86067620D02*
X91321236Y-86119491D01*
X91294267Y-86165394D01*
X91287266Y-86198330D01*
X91286232Y-86284171D01*
X91318134Y-86377012D01*
X91421875Y-86536758D01*
X91467779Y-86563727D01*
X91500715Y-86570728D01*
X91553619Y-86564761D01*
X91633492Y-86512891D01*
X91660461Y-86466987D01*
X91667462Y-86434051D01*
X91661495Y-86381147D01*
X91596657Y-86281305D01*
X91550754Y-86254336D01*
X91517818Y-86247336D01*
X91464914Y-86253302D01*
X91385040Y-86305173D01*
X91358071Y-86351076D01*
X91351070Y-86384012D01*
X91357037Y-86436917D01*
X91789340Y-86184565D02*
X92108834Y-85977084D01*
X92219812Y-85535949D02*
X92259748Y-85510014D01*
X92312653Y-85504047D01*
X92345589Y-85511048D01*
X92391492Y-85538017D01*
X92463331Y-85604923D01*
X92528169Y-85704764D01*
X92560071Y-85797605D01*
X92566038Y-85850510D01*
X92559037Y-85883446D01*
X92532068Y-85929349D01*
X92492131Y-85955284D01*
X92439227Y-85961251D01*
X92406291Y-85954250D01*
X92360388Y-85927281D01*
X92288549Y-85860376D01*
X92223711Y-85760534D01*
X92191809Y-85667693D01*
X92185842Y-85614789D01*
X92192843Y-85581853D01*
X92219812Y-85535949D01*
X92719020Y-85211759D02*
X92639147Y-85263630D01*
X92612178Y-85309533D01*
X92605177Y-85342469D01*
X92604143Y-85428309D01*
X92636045Y-85521150D01*
X92739786Y-85680897D01*
X92785690Y-85707866D01*
X92818626Y-85714867D01*
X92871530Y-85708900D01*
X92951403Y-85657030D01*
X92978372Y-85611126D01*
X92985373Y-85578190D01*
X92979406Y-85525286D01*
X92914568Y-85425444D01*
X92868665Y-85398475D01*
X92835729Y-85391474D01*
X92782825Y-85397441D01*
X92702951Y-85449311D01*
X92675982Y-85495215D01*
X92668981Y-85528151D01*
X92674948Y-85581055D01*
X93107251Y-85328704D02*
X93426745Y-85121223D01*
X93463816Y-84784862D02*
X93470817Y-84751926D01*
X93497786Y-84706023D01*
X93597628Y-84641185D01*
X93650532Y-84635218D01*
X93683468Y-84642219D01*
X93729371Y-84669188D01*
X93755307Y-84709125D01*
X93774241Y-84781997D01*
X93690232Y-85177229D01*
X93949821Y-85008650D01*
X94033830Y-84613418D02*
X93980925Y-84619385D01*
X93947989Y-84612385D01*
X93902086Y-84585415D01*
X93889118Y-84565447D01*
X93883151Y-84512543D01*
X93890152Y-84479607D01*
X93917121Y-84433703D01*
X93996995Y-84381833D01*
X94049899Y-84375866D01*
X94082835Y-84382867D01*
X94128738Y-84409836D01*
X94141706Y-84429804D01*
X94147673Y-84482709D01*
X94140672Y-84515645D01*
X94113703Y-84561548D01*
X94033830Y-84613418D01*
X94006861Y-84659322D01*
X93999860Y-84692258D01*
X94005827Y-84745162D01*
X94057697Y-84825036D01*
X94103601Y-84852005D01*
X94136536Y-84859006D01*
X94189441Y-84853039D01*
X94269314Y-84801168D01*
X94296283Y-84755265D01*
X94303284Y-84722329D01*
X94297317Y-84669425D01*
X94245447Y-84589551D01*
X94199543Y-84562582D01*
X94166607Y-84555581D01*
X94113703Y-84561548D01*
X113678571Y-89988690D02*
X113440476Y-89988690D01*
X113440476Y-89488690D01*
X113845238Y-89941071D02*
X113869047Y-89964880D01*
X113845238Y-89988690D01*
X113821428Y-89964880D01*
X113845238Y-89941071D01*
X113845238Y-89988690D01*
X114392857Y-89488690D02*
X114678571Y-89488690D01*
X114535714Y-89988690D02*
X114535714Y-89488690D01*
X114821428Y-89845833D02*
X115059523Y-89845833D01*
X114773809Y-89988690D02*
X114940476Y-89488690D01*
X115107142Y-89988690D01*
X115273809Y-89988690D02*
X115273809Y-89488690D01*
X115559523Y-89988690D01*
X115559523Y-89488690D01*
X113202380Y-90363690D02*
X113202380Y-90720833D01*
X113178571Y-90792261D01*
X113130952Y-90839880D01*
X113059523Y-90863690D01*
X113011904Y-90863690D01*
X113440476Y-90816071D02*
X113464285Y-90839880D01*
X113440476Y-90863690D01*
X113416666Y-90839880D01*
X113440476Y-90816071D01*
X113440476Y-90863690D01*
X114011904Y-90363690D02*
X114130952Y-90863690D01*
X114226190Y-90506547D01*
X114321428Y-90863690D01*
X114440476Y-90363690D01*
X114726190Y-90363690D02*
X114821428Y-90363690D01*
X114869047Y-90387500D01*
X114916666Y-90435119D01*
X114940476Y-90530357D01*
X114940476Y-90697023D01*
X114916666Y-90792261D01*
X114869047Y-90839880D01*
X114821428Y-90863690D01*
X114726190Y-90863690D01*
X114678571Y-90839880D01*
X114630952Y-90792261D01*
X114607142Y-90697023D01*
X114607142Y-90530357D01*
X114630952Y-90435119D01*
X114678571Y-90387500D01*
X114726190Y-90363690D01*
X115250000Y-90363690D02*
X115345238Y-90363690D01*
X115392857Y-90387500D01*
X115440476Y-90435119D01*
X115464285Y-90530357D01*
X115464285Y-90697023D01*
X115440476Y-90792261D01*
X115392857Y-90839880D01*
X115345238Y-90863690D01*
X115250000Y-90863690D01*
X115202380Y-90839880D01*
X115154761Y-90792261D01*
X115130952Y-90697023D01*
X115130952Y-90530357D01*
X115154761Y-90435119D01*
X115202380Y-90387500D01*
X115250000Y-90363690D01*
X115678571Y-90863690D02*
X115678571Y-90363690D01*
X115797619Y-90363690D01*
X115869047Y-90387500D01*
X115916666Y-90435119D01*
X115940476Y-90482738D01*
X115964285Y-90577976D01*
X115964285Y-90649404D01*
X115940476Y-90744642D01*
X115916666Y-90792261D01*
X115869047Y-90839880D01*
X115797619Y-90863690D01*
X115678571Y-90863690D01*
D12*
X88766316Y-85222735D02*
X88330605Y-84551798D01*
X88865473Y-84885802D01*
X88777896Y-84261324D01*
X89213607Y-84932261D01*
X89033491Y-84095339D02*
X89448832Y-83825613D01*
X89391172Y-84226445D01*
X89487020Y-84164200D01*
X89571667Y-84154653D01*
X89624365Y-84165855D01*
X89697810Y-84209005D01*
X89801551Y-84368752D01*
X89811098Y-84453399D01*
X89799897Y-84506096D01*
X89756746Y-84579542D01*
X89565050Y-84704031D01*
X89480403Y-84713578D01*
X89427706Y-84702377D01*
X90172088Y-84309816D02*
X89736377Y-83638880D01*
X89991971Y-83472894D01*
X90076618Y-83463347D01*
X90129316Y-83474549D01*
X90202762Y-83517699D01*
X90265006Y-83613547D01*
X90274553Y-83698194D01*
X90263352Y-83750892D01*
X90220201Y-83824337D01*
X89964606Y-83990323D01*
X90790327Y-83862904D02*
X90906923Y-83832609D01*
X91066670Y-83728868D01*
X91109820Y-83655422D01*
X91121022Y-83602725D01*
X91111475Y-83518078D01*
X91069978Y-83454179D01*
X90996533Y-83411028D01*
X90943835Y-83399827D01*
X90859188Y-83409374D01*
X90710643Y-83460417D01*
X90625996Y-83469964D01*
X90573298Y-83458763D01*
X90499853Y-83415613D01*
X90458356Y-83351714D01*
X90448809Y-83267067D01*
X90460011Y-83214370D01*
X90503161Y-83140924D01*
X90662908Y-83037183D01*
X90779504Y-83006888D01*
X91046300Y-82788205D02*
X91399019Y-83331344D01*
X91472464Y-83374495D01*
X91525162Y-83385696D01*
X91609809Y-83376149D01*
X91737606Y-83293157D01*
X91780757Y-83219711D01*
X91791958Y-83167013D01*
X91782411Y-83082366D01*
X91429692Y-82539227D01*
X88969698Y-86759967D02*
X88533986Y-86089030D01*
X88693733Y-85985289D01*
X88810329Y-85954994D01*
X88915724Y-85977397D01*
X88989170Y-86020547D01*
X89104112Y-86127596D01*
X89166356Y-86223444D01*
X89217400Y-86371990D01*
X89226947Y-86456637D01*
X89204544Y-86562032D01*
X89129444Y-86656226D01*
X88969698Y-86759967D01*
X89982530Y-86011379D02*
X89971329Y-86064076D01*
X89896229Y-86158270D01*
X89832330Y-86199766D01*
X89715734Y-86230061D01*
X89610339Y-86207659D01*
X89536893Y-86164509D01*
X89421951Y-86057459D01*
X89359707Y-85961611D01*
X89308664Y-85813066D01*
X89299117Y-85728419D01*
X89321519Y-85623024D01*
X89396619Y-85528830D01*
X89460518Y-85487334D01*
X89577114Y-85457038D01*
X89629811Y-85468240D01*
X90334351Y-84874436D02*
X90319463Y-86110535D01*
X91014456Y-85432085D02*
X90578745Y-84761148D01*
X90738492Y-84657407D01*
X90855088Y-84627112D01*
X90960483Y-84649515D01*
X91033929Y-84692665D01*
X91148871Y-84799715D01*
X91211115Y-84895563D01*
X91262158Y-85044108D01*
X91271705Y-85128755D01*
X91249303Y-85234150D01*
X91174203Y-85328344D01*
X91014456Y-85432085D01*
X92027289Y-84683497D02*
X92016087Y-84736194D01*
X91940988Y-84830388D01*
X91877089Y-84871885D01*
X91760493Y-84902180D01*
X91655098Y-84879777D01*
X91581652Y-84836627D01*
X91466710Y-84729577D01*
X91404466Y-84633729D01*
X91353422Y-84485184D01*
X91343875Y-84400537D01*
X91366278Y-84295142D01*
X91441378Y-84200948D01*
X91505276Y-84159452D01*
X91621873Y-84129157D01*
X91674570Y-84140358D01*
X92441355Y-83642402D02*
X92452556Y-83589705D01*
X92495706Y-83516259D01*
X92655453Y-83412518D01*
X92740100Y-83402971D01*
X92792797Y-83414172D01*
X92866243Y-83457323D01*
X92907739Y-83521222D01*
X92938035Y-83637818D01*
X92803620Y-84270188D01*
X93218962Y-84000462D01*
X87890000Y-88870000D02*
X87890000Y-90680000D01*
X97560000Y-95700000D02*
X97560000Y-94020000D01*
X96770000Y-94020000D02*
X98350000Y-94020000D01*
X97460000Y-91980000D02*
X99000000Y-91980000D01*
X98230000Y-90300000D02*
X98230000Y-91970000D01*
X109400000Y-91010000D02*
X109400000Y-92660000D01*
X111140000Y-91830000D02*
X109400000Y-91830000D01*
X108270000Y-95460000D02*
X109880000Y-95460000D01*
X109070000Y-93710000D02*
X109070000Y-95460000D01*
X100000000Y-120000000D02*
X100000000Y-88000000D01*
D13*
X101061803Y-106025000D02*
G75*
G03X101061803Y-106025000I-111803J0D01*
G01*
X101150000Y-106025000D02*
G75*
G03X101150000Y-106025000I-200000J0D01*
G01*
X103750000Y-106025000D02*
X103750000Y-106245000D01*
X100750000Y-106025000D02*
X100750000Y-106245000D01*
X100750000Y-109025000D02*
X100750000Y-108805000D01*
X103750000Y-109025000D02*
X103750000Y-108805000D01*
X103750000Y-106025000D02*
X100750000Y-106025000D01*
X103750000Y-109025000D02*
X100750000Y-109025000D01*
X99061803Y-109025000D02*
G75*
G03X99061803Y-109025000I-111803J0D01*
G01*
X99150000Y-109025000D02*
G75*
G03X99150000Y-109025000I-200000J0D01*
G01*
X96150000Y-109025000D02*
X96150000Y-108805000D01*
X99150000Y-109025000D02*
X99150000Y-108805000D01*
X99150000Y-106025000D02*
X99150000Y-106245000D01*
X96150000Y-106025000D02*
X96150000Y-106245000D01*
X96150000Y-109025000D02*
X99150000Y-109025000D01*
X96150000Y-106025000D02*
X99150000Y-106025000D01*
X101061803Y-112875000D02*
G75*
G03X101061803Y-112875000I-111803J0D01*
G01*
X101150000Y-112875000D02*
G75*
G03X101150000Y-112875000I-200000J0D01*
G01*
X103750000Y-112875000D02*
X103750000Y-113095000D01*
X100750000Y-112875000D02*
X100750000Y-113095000D01*
X100750000Y-115875000D02*
X100750000Y-115655000D01*
X103750000Y-115875000D02*
X103750000Y-115655000D01*
X103750000Y-112875000D02*
X100750000Y-112875000D01*
X103750000Y-115875000D02*
X100750000Y-115875000D01*
X99061803Y-115875000D02*
G75*
G03X99061803Y-115875000I-111803J0D01*
G01*
X99150000Y-115875000D02*
G75*
G03X99150000Y-115875000I-200000J0D01*
G01*
X96150000Y-115875000D02*
X96150000Y-115655000D01*
X99150000Y-115875000D02*
X99150000Y-115655000D01*
X99150000Y-112875000D02*
X99150000Y-113095000D01*
X96150000Y-112875000D02*
X96150000Y-113095000D01*
X96150000Y-115875000D02*
X99150000Y-115875000D01*
X96150000Y-112875000D02*
X99150000Y-112875000D01*
X98730000Y-116730000D02*
X101270000Y-116730000D01*
X101270000Y-116730000D02*
X101270000Y-119270000D01*
X101270000Y-119270000D02*
X98730000Y-119270000D01*
X98730000Y-119270000D02*
X98730000Y-116730000D01*
X96810000Y-81715000D02*
X95310000Y-81715000D01*
X95310000Y-81715000D02*
X95310000Y-87285000D01*
X95310000Y-87285000D02*
X96810000Y-87285000D01*
X103190000Y-87285000D02*
X104690000Y-85785000D01*
X104690000Y-85785000D02*
X104690000Y-83215000D01*
X104690000Y-83215000D02*
X103190000Y-81715000D01*
X88665000Y-111155000D02*
X88665000Y-110905000D01*
X88665000Y-110905000D02*
X89315000Y-110905000D01*
X89315000Y-110905000D02*
X89315000Y-111155000D01*
X89315000Y-111155000D02*
X88665000Y-111155000D01*
X94025000Y-103850000D02*
X94275000Y-103850000D01*
X94275000Y-103850000D02*
X94275000Y-104500000D01*
X94275000Y-104500000D02*
X94025000Y-104500000D01*
X94025000Y-104500000D02*
X94025000Y-103850000D01*
X106815000Y-101755000D02*
X107065000Y-101755000D01*
X107065000Y-101755000D02*
X107065000Y-102405000D01*
X107065000Y-102405000D02*
X106815000Y-102405000D01*
X106815000Y-102405000D02*
X106815000Y-101755000D01*
X90525000Y-115475000D02*
X90525000Y-113575000D01*
X90525000Y-113575000D02*
X95375000Y-113575000D01*
X95375000Y-113575000D02*
X95375000Y-115475000D01*
X95375000Y-115475000D02*
X90525000Y-115475000D01*
X94445000Y-106660000D02*
X94445000Y-108560000D01*
X94445000Y-108560000D02*
X89595000Y-108560000D01*
X89595000Y-108560000D02*
X89595000Y-106660000D01*
X89595000Y-106660000D02*
X94445000Y-106660000D01*
X109375000Y-113575000D02*
X109375000Y-115475000D01*
X109375000Y-115475000D02*
X104525000Y-115475000D01*
X104525000Y-115475000D02*
X104525000Y-113575000D01*
X104525000Y-113575000D02*
X109375000Y-113575000D01*
X117785000Y-93635000D02*
X117785000Y-92135000D01*
X117785000Y-92135000D02*
X112215000Y-92135000D01*
X112215000Y-92135000D02*
X112215000Y-93635000D01*
X112215000Y-106365000D02*
X113715000Y-107865000D01*
X113715000Y-107865000D02*
X116285000Y-107865000D01*
X116285000Y-107865000D02*
X117785000Y-106365000D01*
X87785000Y-93635000D02*
X87785000Y-92135000D01*
X87785000Y-92135000D02*
X82215000Y-92135000D01*
X82215000Y-92135000D02*
X82215000Y-93635000D01*
X82215000Y-106365000D02*
X83715000Y-107865000D01*
X83715000Y-107865000D02*
X86285000Y-107865000D01*
X86285000Y-107865000D02*
X87785000Y-106365000D01*
X96150000Y-94100000D02*
X95800000Y-94450000D01*
X90500000Y-94450000D02*
X90150000Y-94450000D01*
X90150000Y-94450000D02*
X90150000Y-94100000D01*
X90500000Y-88450000D02*
X90150000Y-88450000D01*
X90150000Y-88450000D02*
X90150000Y-88800000D01*
X95800000Y-88450000D02*
X96150000Y-88450000D01*
X96150000Y-88450000D02*
X96150000Y-88800000D01*
X92330000Y-97605000D02*
X92655000Y-97855000D01*
X92330000Y-97605000D02*
X92005000Y-97855000D01*
X92655000Y-97855000D02*
X92005000Y-97855000D01*
X94900000Y-97605000D02*
X95225000Y-97855000D01*
X94900000Y-97605000D02*
X94575000Y-97855000D01*
X95225000Y-97855000D02*
X94575000Y-97855000D01*
X103020000Y-99385000D02*
X103345000Y-99635000D01*
X103020000Y-99385000D02*
X102695000Y-99635000D01*
X103345000Y-99635000D02*
X102695000Y-99635000D01*
X105540000Y-99385000D02*
X105865000Y-99635000D01*
X105540000Y-99385000D02*
X105215000Y-99635000D01*
X105865000Y-99635000D02*
X105215000Y-99635000D01*
X86825000Y-110175000D02*
X86575000Y-110175000D01*
X86575000Y-110175000D02*
X86575000Y-109075000D01*
X86575000Y-109075000D02*
X86825000Y-109075000D01*
X86825000Y-109075000D02*
X86825000Y-110175000D01*
X97900000Y-111575000D02*
X97650000Y-111575000D01*
X97650000Y-111575000D02*
X97650000Y-110475000D01*
X97650000Y-110475000D02*
X97900000Y-110475000D01*
X97900000Y-110475000D02*
X97900000Y-111575000D01*
X93945000Y-97605000D02*
X93945000Y-97855000D01*
X93945000Y-97855000D02*
X93295000Y-97855000D01*
X93295000Y-97855000D02*
X93295000Y-97605000D01*
X93295000Y-97605000D02*
X93945000Y-97605000D01*
X91050000Y-103400000D02*
X91050000Y-103150000D01*
X91050000Y-103150000D02*
X92150000Y-103150000D01*
X92150000Y-103150000D02*
X92150000Y-103400000D01*
X92150000Y-103400000D02*
X91050000Y-103400000D01*
X101975000Y-110475000D02*
X102225000Y-110475000D01*
X102225000Y-110475000D02*
X102225000Y-111575000D01*
X102225000Y-111575000D02*
X101975000Y-111575000D01*
X101975000Y-111575000D02*
X101975000Y-110475000D01*
X114645000Y-109110000D02*
X114895000Y-109110000D01*
X114895000Y-109110000D02*
X114895000Y-110210000D01*
X114895000Y-110210000D02*
X114645000Y-110210000D01*
X114645000Y-110210000D02*
X114645000Y-109110000D01*
X107520000Y-95720000D02*
X107170000Y-96070000D01*
X101870000Y-96070000D02*
X101520000Y-96070000D01*
X101520000Y-96070000D02*
X101520000Y-95720000D01*
X101870000Y-90070000D02*
X101520000Y-90070000D01*
X101520000Y-90070000D02*
X101520000Y-90420000D01*
X107170000Y-90070000D02*
X107520000Y-90070000D01*
X107520000Y-90070000D02*
X107520000Y-90420000D01*
X111765000Y-110335000D02*
X111765000Y-110585000D01*
X111765000Y-110585000D02*
X111115000Y-110585000D01*
X111115000Y-110585000D02*
X111115000Y-110335000D01*
X111115000Y-110335000D02*
X111765000Y-110335000D01*
X104500000Y-108550000D02*
X104500000Y-106650000D01*
X104500000Y-106650000D02*
X109350000Y-106650000D01*
X109350000Y-106650000D02*
X109350000Y-108550000D01*
X109350000Y-108550000D02*
X104500000Y-108550000D01*
X104605000Y-99385000D02*
X104605000Y-99635000D01*
X104605000Y-99635000D02*
X103955000Y-99635000D01*
X103955000Y-99635000D02*
X103955000Y-99385000D01*
X103955000Y-99385000D02*
X104605000Y-99385000D01*
X108045000Y-103290000D02*
X108295000Y-103290000D01*
X108295000Y-103290000D02*
X108295000Y-104390000D01*
X108295000Y-104390000D02*
X108045000Y-104390000D01*
X108045000Y-104390000D02*
X108045000Y-103290000D01*
%LPC*%
D14*
X100864000Y-108500000D03*
X100864000Y-107850000D03*
X100864000Y-106550000D03*
X100864000Y-107200000D03*
X103636000Y-106550000D03*
X103636000Y-107200000D03*
X103636000Y-107850000D03*
X103636000Y-108500000D03*
D15*
X102684000Y-107525000D03*
D16*
X101579000Y-107525000D03*
D14*
X99036000Y-106550000D03*
X99036000Y-107200000D03*
X99036000Y-108500000D03*
X99036000Y-107850000D03*
X96264000Y-108500000D03*
X96264000Y-107850000D03*
X96264000Y-107200000D03*
X96264000Y-106550000D03*
D15*
X97216000Y-107525000D03*
D16*
X98321000Y-107525000D03*
D14*
X100864000Y-115350000D03*
X100864000Y-114700000D03*
X100864000Y-113400000D03*
X100864000Y-114050000D03*
X103636000Y-113400000D03*
X103636000Y-114050000D03*
X103636000Y-114700000D03*
X103636000Y-115350000D03*
D15*
X102684000Y-114375000D03*
D16*
X101579000Y-114375000D03*
D14*
X99036000Y-113400000D03*
X99036000Y-114050000D03*
X99036000Y-115350000D03*
X99036000Y-114700000D03*
X96264000Y-115350000D03*
X96264000Y-114700000D03*
X96264000Y-114050000D03*
X96264000Y-113400000D03*
D15*
X97216000Y-114375000D03*
D16*
X98321000Y-114375000D03*
D10*
G36*
X100521558Y-117052287D02*
X100567668Y-117059127D01*
X100612885Y-117070453D01*
X100656775Y-117086157D01*
X100698913Y-117106087D01*
X100738896Y-117130052D01*
X100776337Y-117157820D01*
X100810876Y-117189124D01*
X100842180Y-117223663D01*
X100869948Y-117261104D01*
X100893913Y-117301087D01*
X100913843Y-117343225D01*
X100929547Y-117387115D01*
X100940873Y-117432332D01*
X100947713Y-117478442D01*
X100950000Y-117525000D01*
X100950000Y-118475000D01*
X100947713Y-118521558D01*
X100940873Y-118567668D01*
X100929547Y-118612885D01*
X100913843Y-118656775D01*
X100893913Y-118698913D01*
X100869948Y-118738896D01*
X100842180Y-118776337D01*
X100810876Y-118810876D01*
X100776337Y-118842180D01*
X100738896Y-118869948D01*
X100698913Y-118893913D01*
X100656775Y-118913843D01*
X100612885Y-118929547D01*
X100567668Y-118940873D01*
X100521558Y-118947713D01*
X100475000Y-118950000D01*
X99525000Y-118950000D01*
X99478442Y-118947713D01*
X99432332Y-118940873D01*
X99387115Y-118929547D01*
X99343225Y-118913843D01*
X99301087Y-118893913D01*
X99261104Y-118869948D01*
X99223663Y-118842180D01*
X99189124Y-118810876D01*
X99157820Y-118776337D01*
X99130052Y-118738896D01*
X99106087Y-118698913D01*
X99086157Y-118656775D01*
X99070453Y-118612885D01*
X99059127Y-118567668D01*
X99052287Y-118521558D01*
X99050000Y-118475000D01*
X99050000Y-117525000D01*
X99052287Y-117478442D01*
X99059127Y-117432332D01*
X99070453Y-117387115D01*
X99086157Y-117343225D01*
X99106087Y-117301087D01*
X99130052Y-117261104D01*
X99157820Y-117223663D01*
X99189124Y-117189124D01*
X99223663Y-117157820D01*
X99261104Y-117130052D01*
X99301087Y-117106087D01*
X99343225Y-117086157D01*
X99387115Y-117070453D01*
X99432332Y-117059127D01*
X99478442Y-117052287D01*
X99525000Y-117050000D01*
X100475000Y-117050000D01*
X100521558Y-117052287D01*
X100521558Y-117052287D01*
G37*
D17*
X94020000Y-86780000D03*
X93120000Y-86780000D03*
X103760000Y-87950000D03*
X104660000Y-87950000D03*
D18*
X97460000Y-86215000D03*
X97460000Y-82785000D03*
X98730000Y-86215000D03*
X98730000Y-82785000D03*
X100000000Y-86215000D03*
X100000000Y-82785000D03*
X101270000Y-86215000D03*
X101270000Y-82785000D03*
X102540000Y-86215000D03*
X102540000Y-82785000D03*
D19*
X88990000Y-111830000D03*
X88990000Y-110230000D03*
D17*
X87290000Y-90230000D03*
X87290000Y-89330000D03*
X98020000Y-94490000D03*
X98020000Y-95390000D03*
X97100000Y-94490000D03*
X97100000Y-95390000D03*
X98670000Y-92440000D03*
X97770000Y-92440000D03*
X98700000Y-91510000D03*
X98700000Y-90610000D03*
D20*
X93350000Y-104175000D03*
X94950000Y-104175000D03*
X106140000Y-102080000D03*
X107740000Y-102080000D03*
D17*
X109550000Y-94100000D03*
X109550000Y-95000000D03*
X108650000Y-95927000D03*
X109550000Y-95927000D03*
X110780000Y-92300000D03*
X109880000Y-92300000D03*
X110780000Y-91350000D03*
X109880000Y-91350000D03*
D21*
X92950000Y-116375000D03*
X92950000Y-112675000D03*
X92020000Y-105760000D03*
X92020000Y-109460000D03*
X106950000Y-112675000D03*
X106950000Y-116375000D03*
D22*
X115000000Y-107305000D03*
X115000000Y-92695000D03*
D23*
X113285000Y-94285000D03*
X116715000Y-94285000D03*
X113285000Y-95555000D03*
X116715000Y-95555000D03*
X113285000Y-96825000D03*
X116715000Y-96825000D03*
X113285000Y-98095000D03*
X116715000Y-98095000D03*
X113285000Y-99365000D03*
X116715000Y-99365000D03*
X113285000Y-100635000D03*
X116715000Y-100635000D03*
X113285000Y-101905000D03*
X116715000Y-101905000D03*
X113285000Y-103175000D03*
X116715000Y-103175000D03*
X113285000Y-104445000D03*
X116715000Y-104445000D03*
X113285000Y-105715000D03*
X116715000Y-105715000D03*
D22*
X85000000Y-107305000D03*
X85000000Y-92695000D03*
D23*
X83285000Y-94285000D03*
X86715000Y-94285000D03*
X83285000Y-95555000D03*
X86715000Y-95555000D03*
X83285000Y-96825000D03*
X86715000Y-96825000D03*
X83285000Y-98095000D03*
X86715000Y-98095000D03*
X83285000Y-99365000D03*
X86715000Y-99365000D03*
X83285000Y-100635000D03*
X86715000Y-100635000D03*
X83285000Y-101905000D03*
X86715000Y-101905000D03*
X83285000Y-103175000D03*
X86715000Y-103175000D03*
X83285000Y-104445000D03*
X86715000Y-104445000D03*
X83285000Y-105715000D03*
X86715000Y-105715000D03*
D24*
X96050000Y-93700000D03*
X96050000Y-93200000D03*
X96050000Y-92700000D03*
X96050000Y-92200000D03*
X96050000Y-91700000D03*
X96050000Y-91200000D03*
X96050000Y-90700000D03*
X96050000Y-90200000D03*
X96050000Y-89700000D03*
X96050000Y-89200000D03*
D25*
X95400000Y-88550000D03*
X94900000Y-88550000D03*
X94400000Y-88550000D03*
X93900000Y-88550000D03*
X93400000Y-88550000D03*
X92900000Y-88550000D03*
X92400000Y-88550000D03*
X91900000Y-88550000D03*
X91400000Y-88550000D03*
X90900000Y-88550000D03*
D24*
X90250000Y-89200000D03*
X90250000Y-89700000D03*
X90250000Y-90200000D03*
X90250000Y-90700000D03*
X90250000Y-91200000D03*
X90250000Y-91700000D03*
X90250000Y-92200000D03*
X90250000Y-92700000D03*
X90250000Y-93200000D03*
X90250000Y-93700000D03*
D25*
X90900000Y-94350000D03*
X91400000Y-94350000D03*
X91900000Y-94350000D03*
X92400000Y-94350000D03*
X92900000Y-94350000D03*
X93400000Y-94350000D03*
X93900000Y-94350000D03*
X94400000Y-94350000D03*
X94900000Y-94350000D03*
X95400000Y-94350000D03*
D26*
X94995000Y-93295000D03*
X94995000Y-92065000D03*
X94995000Y-90835000D03*
X94995000Y-89605000D03*
X93765000Y-93295000D03*
X93765000Y-92065000D03*
X93765000Y-90835000D03*
X93765000Y-89605000D03*
X92535000Y-93295000D03*
X92535000Y-92065000D03*
X92535000Y-90835000D03*
X92535000Y-89605000D03*
X91305000Y-93295000D03*
X91305000Y-92065000D03*
X91305000Y-90835000D03*
X91305000Y-89605000D03*
D19*
X92330000Y-96930000D03*
X92330000Y-98530000D03*
X94900000Y-96930000D03*
X94900000Y-98530000D03*
X103020000Y-98710000D03*
X103020000Y-100310000D03*
X105540000Y-98710000D03*
X105540000Y-100310000D03*
D27*
X87600000Y-109625000D03*
X85800000Y-109625000D03*
D17*
X91210000Y-97280000D03*
X91210000Y-98180000D03*
X88490000Y-90230000D03*
X88490000Y-89330000D03*
X97100000Y-93550000D03*
X98000000Y-93550000D03*
D27*
X98675000Y-111025000D03*
X96875000Y-111025000D03*
D17*
X97770000Y-91510000D03*
X97770000Y-90610000D03*
D19*
X93620000Y-96930000D03*
X93620000Y-98530000D03*
D17*
X96020000Y-98180000D03*
X96020000Y-97280000D03*
D28*
X91600000Y-104175000D03*
X91600000Y-102375000D03*
D17*
X101910000Y-99070000D03*
X101910000Y-99970000D03*
X108600000Y-95000000D03*
X108600000Y-94100000D03*
D27*
X101200000Y-111025000D03*
X103000000Y-111025000D03*
D17*
X108930000Y-92300000D03*
X108930000Y-91400000D03*
D27*
X113870000Y-109660000D03*
X115670000Y-109660000D03*
D24*
X107420000Y-95320000D03*
X107420000Y-94820000D03*
X107420000Y-94320000D03*
X107420000Y-93820000D03*
X107420000Y-93320000D03*
X107420000Y-92820000D03*
X107420000Y-92320000D03*
X107420000Y-91820000D03*
X107420000Y-91320000D03*
X107420000Y-90820000D03*
D25*
X106770000Y-90170000D03*
X106270000Y-90170000D03*
X105770000Y-90170000D03*
X105270000Y-90170000D03*
X104770000Y-90170000D03*
X104270000Y-90170000D03*
X103770000Y-90170000D03*
X103270000Y-90170000D03*
X102770000Y-90170000D03*
X102270000Y-90170000D03*
D24*
X101620000Y-90820000D03*
X101620000Y-91320000D03*
X101620000Y-91820000D03*
X101620000Y-92320000D03*
X101620000Y-92820000D03*
X101620000Y-93320000D03*
X101620000Y-93820000D03*
X101620000Y-94320000D03*
X101620000Y-94820000D03*
X101620000Y-95320000D03*
D25*
X102270000Y-95970000D03*
X102770000Y-95970000D03*
X103270000Y-95970000D03*
X103770000Y-95970000D03*
X104270000Y-95970000D03*
X104770000Y-95970000D03*
X105270000Y-95970000D03*
X105770000Y-95970000D03*
X106270000Y-95970000D03*
X106770000Y-95970000D03*
D26*
X106365000Y-94915000D03*
X106365000Y-93685000D03*
X106365000Y-92455000D03*
X106365000Y-91225000D03*
X105135000Y-94915000D03*
X105135000Y-93685000D03*
X105135000Y-92455000D03*
X105135000Y-91225000D03*
X103905000Y-94915000D03*
X103905000Y-93685000D03*
X103905000Y-92455000D03*
X103905000Y-91225000D03*
X102675000Y-94915000D03*
X102675000Y-93685000D03*
X102675000Y-92455000D03*
X102675000Y-91225000D03*
D19*
X111440000Y-109660000D03*
X111440000Y-111260000D03*
D21*
X106925000Y-109450000D03*
X106925000Y-105750000D03*
D17*
X106650000Y-99980000D03*
X106650000Y-99080000D03*
D19*
X104280000Y-98710000D03*
X104280000Y-100310000D03*
D27*
X107270000Y-103840000D03*
X109070000Y-103840000D03*
D17*
X88640000Y-91430000D03*
X87740000Y-91430000D03*
D22*
X104130000Y-84500000D03*
X95870000Y-84500000D03*
M02*
