M48
;DRILL file {KiCad 4.1.0-alpha+201605071002+6776~44~ubuntu14.04.1-product} date Tue 05 Jul 2016 00:44:43 BST
;FORMAT={-:-/ absolute / inch / decimal}
FMAT,2
INCH,TZ
T1C0.012
T2C0.016
T3C0.039
%
G90
G05
M72
T1
X3.4366Y-3.4866
X3.5074Y-3.7574
X3.5074Y-3.7974
X3.5187Y-3.5118
X3.5205Y-3.5791
X3.5402Y-3.9839
X3.5646Y-3.8898
X3.5933Y-3.7992
X3.6228Y-4.2366
X3.6374Y-3.9165
X3.6465Y-3.7791
X3.6524Y-3.7469
X3.6685Y-3.4487
X3.6744Y-3.7677
X3.6791Y-4.063
X3.6839Y-3.9165
X3.6978Y-3.4547
X3.7059Y-4.0307
X3.715Y-3.9173
X3.7303Y-3.776
X3.7323Y-3.4134
X3.7617Y-4.4359
X3.7648Y-4.5463
X3.7791Y-3.4909
X3.7803Y-3.9787
X3.7815Y-3.7142
X3.8055Y-4.1094
X3.8055Y-4.1394
X3.8094Y-3.9319
X3.8112Y-3.5254
X3.8189Y-3.5553
X3.8189Y-3.6173
X3.8394Y-3.9319
X3.8409Y-4.4366
X3.8598Y-4.0437
X3.8641Y-4.4177
X3.8697Y-4.072
X3.8768Y-4.3063
X3.8858Y-4.1358
X3.902Y-3.7988
X3.902Y-3.9146
X3.902Y-3.9768
X3.902Y-4.161
X3.9024Y-3.7382
X3.9106Y-4.5736
X3.9681Y-3.6154
X3.9681Y-3.8102
X3.9681Y-4.0496
X3.9683Y-3.6751
X3.9685Y-3.9677
X3.9698Y-3.6452
X3.9937Y-4.4181
X4.0106Y-4.3
X4.0169Y-3.9677
X4.0197Y-4.4339
X4.0421Y-3.9913
X4.0425Y-3.848
X4.0449Y-4.124
X4.0677Y-3.8106
X4.0705Y-4.0016
X4.0842Y-4.1544
X4.085Y-4.1228
X4.098Y-3.8102
X4.098Y-3.989
X4.0992Y-3.4287
X4.1197Y-3.5106
X4.1232Y-3.8484
X4.126Y-4.0004
X4.1484Y-3.4638
X4.1488Y-3.5181
X4.1661Y-3.8433
X4.2157Y-3.8331
X4.2559Y-3.9
X4.2598Y-3.6713
X4.2624Y-3.5433
X4.2844Y-3.8081
X4.2906Y-3.8717
X4.3063Y-4.0335
X4.3087Y-3.8291
X4.3201Y-3.9925
X4.3421Y-3.8795
X4.3636Y-3.8366
X4.3693Y-3.9469
X4.3709Y-4.265
T2
X3.2213Y-3.7122
X3.2213Y-3.7618
X3.2213Y-3.8122
X3.2213Y-3.8622
X3.2213Y-3.9122
X3.2213Y-3.9622
X3.2213Y-4.0118
X3.2213Y-4.0622
X3.2213Y-4.1122
X3.2213Y-4.1622
X3.3366Y-4.3159
X3.4717Y-3.7118
X3.4717Y-3.7626
X3.4717Y-3.8122
X3.4717Y-3.8622
X3.4717Y-3.9118
X3.4717Y-3.9622
X3.4717Y-4.0122
X3.4717Y-4.0622
X3.4717Y-4.1122
X3.4717Y-4.1622
X3.6189Y-3.552
X3.6189Y-3.6004
X3.6189Y-3.6488
X3.6516Y-4.0305
X3.6673Y-3.552
X3.6673Y-3.6004
X3.6673Y-3.6488
X3.7157Y-3.552
X3.7157Y-3.6004
X3.7157Y-3.6488
X3.7726Y-4.3711
X3.7795Y-4.2024
X3.7795Y-4.2386
X3.7795Y-4.4717
X3.7795Y-4.5087
X3.837Y-3.2016
X3.837Y-3.452
X3.887Y-3.2016
X3.887Y-3.452
X3.9366Y-3.2016
X3.937Y-3.452
X3.987Y-3.2016
X3.987Y-3.452
X4.037Y-3.2016
X4.037Y-3.452
X4.0665Y-3.6157
X4.0665Y-3.6642
X4.0665Y-3.7126
X4.0906Y-4.2274
X4.0906Y-4.2648
X4.0906Y-4.498
X4.0906Y-4.5335
X4.0984Y-4.3711
X4.115Y-3.6157
X4.115Y-3.6642
X4.115Y-3.7126
X4.1634Y-3.6157
X4.1634Y-3.6642
X4.1634Y-3.7126
X4.4024Y-3.7118
X4.4024Y-3.7622
X4.4024Y-3.8122
X4.4024Y-3.8618
X4.4024Y-3.9118
X4.4024Y-3.9618
X4.4024Y-4.0122
X4.4024Y-4.0618
X4.4024Y-4.1122
X4.4024Y-4.1618
X4.6043Y-4.287
X4.6524Y-4.1618
X4.6528Y-3.7122
X4.6528Y-3.7622
X4.6528Y-3.8122
X4.6528Y-3.8622
X4.6528Y-3.9122
X4.6528Y-3.9622
X4.6528Y-4.0126
X4.6528Y-4.0622
X4.6528Y-4.1122
T3
X3.937Y-4.6457
T0
M30
