M48
;DRILL file {KiCad no-vcs-found-d3b382c~59~ubuntu16.04.1} date Tue Jul 25 02:28:47 2017
;FORMAT={-:-/ absolute / inch / decimal}
FMAT,2
INCH,TZ
T1C0.016
T2C0.039
%
G90
G05
M72
T1
X3.2207Y-4.012
X3.2211Y-3.712
X3.2211Y-4.162
X3.2215Y-3.812
X3.2215Y-4.062
X3.2219Y-3.912
X3.2222Y-3.762
X3.2222Y-4.112
X3.223Y-3.962
X3.2242Y-3.862
X3.4695Y-4.062
X3.4707Y-3.762
X3.4707Y-4.112
X3.4711Y-3.912
X3.4711Y-3.962
X3.4715Y-3.812
X3.4719Y-3.712
X3.4719Y-4.162
X3.4722Y-3.862
X3.4722Y-4.012
X4.3589Y-3.9364
X4.3593Y-3.8376
X4.36Y-3.9864
X4.3604Y-3.8876
X4.4018Y-3.862
X4.4018Y-4.012
X4.4022Y-3.712
X4.4022Y-4.162
X4.4026Y-4.062
X4.403Y-3.962
X4.4033Y-3.762
X4.4033Y-4.112
X4.4041Y-3.912
X4.4045Y-3.812
X4.6498Y-4.012
X4.6506Y-3.812
X4.651Y-3.962
X4.6514Y-4.112
X4.6518Y-3.762
X4.6522Y-3.912
X4.6526Y-4.062
X4.653Y-3.712
X4.653Y-4.162
X4.6533Y-3.862
T2
X3.5827Y-3.7402
X3.6811Y-3.7402
X3.7303Y-4.1339
X3.8287Y-4.1339
X3.8878Y-3.7402
X3.9862Y-3.7402
X4.1929Y-3.7402
X4.2913Y-3.7402
X4.0453Y-4.1339
X4.1437Y-4.1339
T0
M30
