G04 #@! TF.GenerationSoftware,KiCad,Pcbnew,no-vcs-found-d3b382c~59~ubuntu16.04.1*
G04 #@! TF.CreationDate,2017-07-25T02:28:45+01:00*
G04 #@! TF.ProjectId,breakout,627265616B6F75742E6B696361645F70,rev?*
G04 #@! TF.SameCoordinates,Original
G04 #@! TF.FileFunction,Soldermask,Top*
G04 #@! TF.FilePolarity,Negative*
%FSLAX46Y46*%
G04 Gerber Fmt 4.6, Leading zero omitted, Abs format (unit mm)*
G04 Created by KiCad (PCBNEW no-vcs-found-d3b382c~59~ubuntu16.04.1) date Tue Jul 25 02:28:45 2017*
%MOMM*%
%LPD*%
G01*
G04 APERTURE LIST*
%ADD10R,0.620000X0.620000*%
%ADD11C,1.800000*%
%ADD12R,2.920000X0.740000*%
%ADD13C,1.200000*%
G04 APERTURE END LIST*
D10*
X103550000Y-103750000D03*
X104450000Y-103750000D03*
X96450000Y-103750000D03*
X95550000Y-103750000D03*
X100450000Y-96250000D03*
X99550000Y-96250000D03*
X91800000Y-96250000D03*
X92700000Y-96250000D03*
X108200000Y-96250000D03*
X107300000Y-96250000D03*
D11*
X102750000Y-105000000D03*
X105250000Y-105000000D03*
X97250000Y-105000000D03*
X94750000Y-105000000D03*
X101250000Y-95000000D03*
X98750000Y-95000000D03*
X91000000Y-95000000D03*
X93500000Y-95000000D03*
X109000000Y-95000000D03*
X106500000Y-95000000D03*
D12*
X86715000Y-105715000D03*
X83285000Y-105715000D03*
X86715000Y-104445000D03*
X83285000Y-104445000D03*
X86715000Y-103175000D03*
X83285000Y-103175000D03*
X86715000Y-101905000D03*
X83285000Y-101905000D03*
X86715000Y-100635000D03*
X83285000Y-100635000D03*
X86715000Y-99365000D03*
X83285000Y-99365000D03*
X86715000Y-98095000D03*
X83285000Y-98095000D03*
X86715000Y-96825000D03*
X83285000Y-96825000D03*
X86715000Y-95555000D03*
X83285000Y-95555000D03*
X86715000Y-94285000D03*
X83285000Y-94285000D03*
X116715000Y-105715000D03*
X113285000Y-105715000D03*
X116715000Y-104445000D03*
X113285000Y-104445000D03*
X116715000Y-103175000D03*
X113285000Y-103175000D03*
X116715000Y-101905000D03*
X113285000Y-101905000D03*
X116715000Y-100635000D03*
X113285000Y-100635000D03*
X116715000Y-99365000D03*
X113285000Y-99365000D03*
X116715000Y-98095000D03*
X113285000Y-98095000D03*
X116715000Y-96825000D03*
X113285000Y-96825000D03*
X116715000Y-95555000D03*
X113285000Y-95555000D03*
X116715000Y-94285000D03*
X113285000Y-94285000D03*
D13*
X85000000Y-92695000D03*
X85000000Y-107305000D03*
X115000000Y-92695000D03*
X115000000Y-107305000D03*
M02*
