G04 #@! TF.FileFunction,Legend,Top*
%FSLAX46Y46*%
G04 Gerber Fmt 4.6, Leading zero omitted, Abs format (unit mm)*
G04 Created by KiCad (PCBNEW 4.0.2+e4-6225~38~ubuntu14.04.1-stable) date Mon 27 Jun 2016 21:44:47 BST*
%MOMM*%
G01*
G04 APERTURE LIST*
%ADD10C,0.100000*%
%ADD11C,0.120000*%
%ADD12C,0.150000*%
%ADD13R,0.800000X0.800000*%
%ADD14O,0.800000X0.800000*%
%ADD15R,2.920000X0.740000*%
%ADD16C,1.200000*%
%ADD17R,0.740000X2.920000*%
%ADD18R,0.900000X0.750000*%
%ADD19R,0.750000X0.900000*%
%ADD20R,0.520000X0.520000*%
%ADD21R,0.470000X0.400000*%
%ADD22R,0.952000X1.702000*%
G04 APERTURE END LIST*
D10*
D11*
X98088095Y-93399999D02*
X98888095Y-93399999D01*
X98888095Y-93704761D01*
X98850000Y-93780952D01*
X98811905Y-93819047D01*
X98735714Y-93857142D01*
X98621429Y-93857142D01*
X98545238Y-93819047D01*
X98507143Y-93780952D01*
X98469048Y-93704761D01*
X98469048Y-93399999D01*
X98088095Y-94657142D02*
X98469048Y-94390475D01*
X98088095Y-94199999D02*
X98888095Y-94199999D01*
X98888095Y-94504761D01*
X98850000Y-94580952D01*
X98811905Y-94619047D01*
X98735714Y-94657142D01*
X98621429Y-94657142D01*
X98545238Y-94619047D01*
X98507143Y-94580952D01*
X98469048Y-94504761D01*
X98469048Y-94199999D01*
X98507143Y-94999999D02*
X98507143Y-95266666D01*
X98088095Y-95380952D02*
X98088095Y-94999999D01*
X98888095Y-94999999D01*
X98888095Y-95380952D01*
X98126190Y-95685714D02*
X98088095Y-95800000D01*
X98088095Y-95990476D01*
X98126190Y-96066666D01*
X98164286Y-96104762D01*
X98240476Y-96142857D01*
X98316667Y-96142857D01*
X98392857Y-96104762D01*
X98430952Y-96066666D01*
X98469048Y-95990476D01*
X98507143Y-95838095D01*
X98545238Y-95761904D01*
X98583333Y-95723809D01*
X98659524Y-95685714D01*
X98735714Y-95685714D01*
X98811905Y-95723809D01*
X98850000Y-95761904D01*
X98888095Y-95838095D01*
X98888095Y-96028571D01*
X98850000Y-96142857D01*
X98126190Y-96447619D02*
X98088095Y-96561905D01*
X98088095Y-96752381D01*
X98126190Y-96828571D01*
X98164286Y-96866667D01*
X98240476Y-96904762D01*
X98316667Y-96904762D01*
X98392857Y-96866667D01*
X98430952Y-96828571D01*
X98469048Y-96752381D01*
X98507143Y-96600000D01*
X98545238Y-96523809D01*
X98583333Y-96485714D01*
X98659524Y-96447619D01*
X98735714Y-96447619D01*
X98811905Y-96485714D01*
X98850000Y-96523809D01*
X98888095Y-96600000D01*
X98888095Y-96790476D01*
X98850000Y-96904762D01*
X98888095Y-97247619D02*
X98240476Y-97247619D01*
X98164286Y-97285714D01*
X98126190Y-97323810D01*
X98088095Y-97400000D01*
X98088095Y-97552381D01*
X98126190Y-97628572D01*
X98164286Y-97666667D01*
X98240476Y-97704762D01*
X98888095Y-97704762D01*
X98088095Y-98542857D02*
X98469048Y-98276190D01*
X98088095Y-98085714D02*
X98888095Y-98085714D01*
X98888095Y-98390476D01*
X98850000Y-98466667D01*
X98811905Y-98504762D01*
X98735714Y-98542857D01*
X98621429Y-98542857D01*
X98545238Y-98504762D01*
X98507143Y-98466667D01*
X98469048Y-98390476D01*
X98469048Y-98085714D01*
X98507143Y-98885714D02*
X98507143Y-99152381D01*
X98088095Y-99266667D02*
X98088095Y-98885714D01*
X98888095Y-98885714D01*
X98888095Y-99266667D01*
X98888095Y-100600001D02*
X98888095Y-100219048D01*
X98507143Y-100180953D01*
X98545238Y-100219048D01*
X98583333Y-100295239D01*
X98583333Y-100485715D01*
X98545238Y-100561905D01*
X98507143Y-100600001D01*
X98430952Y-100638096D01*
X98240476Y-100638096D01*
X98164286Y-100600001D01*
X98126190Y-100561905D01*
X98088095Y-100485715D01*
X98088095Y-100295239D01*
X98126190Y-100219048D01*
X98164286Y-100180953D01*
X99338095Y-93399999D02*
X100138095Y-93399999D01*
X100138095Y-93704761D01*
X100100000Y-93780952D01*
X100061905Y-93819047D01*
X99985714Y-93857142D01*
X99871429Y-93857142D01*
X99795238Y-93819047D01*
X99757143Y-93780952D01*
X99719048Y-93704761D01*
X99719048Y-93399999D01*
X99338095Y-94657142D02*
X99719048Y-94390475D01*
X99338095Y-94199999D02*
X100138095Y-94199999D01*
X100138095Y-94504761D01*
X100100000Y-94580952D01*
X100061905Y-94619047D01*
X99985714Y-94657142D01*
X99871429Y-94657142D01*
X99795238Y-94619047D01*
X99757143Y-94580952D01*
X99719048Y-94504761D01*
X99719048Y-94199999D01*
X99757143Y-94999999D02*
X99757143Y-95266666D01*
X99338095Y-95380952D02*
X99338095Y-94999999D01*
X100138095Y-94999999D01*
X100138095Y-95380952D01*
X99376190Y-95685714D02*
X99338095Y-95800000D01*
X99338095Y-95990476D01*
X99376190Y-96066666D01*
X99414286Y-96104762D01*
X99490476Y-96142857D01*
X99566667Y-96142857D01*
X99642857Y-96104762D01*
X99680952Y-96066666D01*
X99719048Y-95990476D01*
X99757143Y-95838095D01*
X99795238Y-95761904D01*
X99833333Y-95723809D01*
X99909524Y-95685714D01*
X99985714Y-95685714D01*
X100061905Y-95723809D01*
X100100000Y-95761904D01*
X100138095Y-95838095D01*
X100138095Y-96028571D01*
X100100000Y-96142857D01*
X99376190Y-96447619D02*
X99338095Y-96561905D01*
X99338095Y-96752381D01*
X99376190Y-96828571D01*
X99414286Y-96866667D01*
X99490476Y-96904762D01*
X99566667Y-96904762D01*
X99642857Y-96866667D01*
X99680952Y-96828571D01*
X99719048Y-96752381D01*
X99757143Y-96600000D01*
X99795238Y-96523809D01*
X99833333Y-96485714D01*
X99909524Y-96447619D01*
X99985714Y-96447619D01*
X100061905Y-96485714D01*
X100100000Y-96523809D01*
X100138095Y-96600000D01*
X100138095Y-96790476D01*
X100100000Y-96904762D01*
X100138095Y-97247619D02*
X99490476Y-97247619D01*
X99414286Y-97285714D01*
X99376190Y-97323810D01*
X99338095Y-97400000D01*
X99338095Y-97552381D01*
X99376190Y-97628572D01*
X99414286Y-97666667D01*
X99490476Y-97704762D01*
X100138095Y-97704762D01*
X99338095Y-98542857D02*
X99719048Y-98276190D01*
X99338095Y-98085714D02*
X100138095Y-98085714D01*
X100138095Y-98390476D01*
X100100000Y-98466667D01*
X100061905Y-98504762D01*
X99985714Y-98542857D01*
X99871429Y-98542857D01*
X99795238Y-98504762D01*
X99757143Y-98466667D01*
X99719048Y-98390476D01*
X99719048Y-98085714D01*
X99757143Y-98885714D02*
X99757143Y-99152381D01*
X99338095Y-99266667D02*
X99338095Y-98885714D01*
X100138095Y-98885714D01*
X100138095Y-99266667D01*
X99871429Y-100561905D02*
X99338095Y-100561905D01*
X100176190Y-100371429D02*
X99604762Y-100180953D01*
X99604762Y-100676191D01*
X105238095Y-93404762D02*
X105238095Y-93900000D01*
X104933333Y-93633333D01*
X104933333Y-93747619D01*
X104895238Y-93823809D01*
X104857143Y-93861905D01*
X104780952Y-93900000D01*
X104590476Y-93900000D01*
X104514286Y-93861905D01*
X104476190Y-93823809D01*
X104438095Y-93747619D01*
X104438095Y-93519047D01*
X104476190Y-93442857D01*
X104514286Y-93404762D01*
X105238095Y-94128571D02*
X104438095Y-94395238D01*
X105238095Y-94661905D01*
X105238095Y-94852381D02*
X105238095Y-95347619D01*
X104933333Y-95080952D01*
X104933333Y-95195238D01*
X104895238Y-95271428D01*
X104857143Y-95309524D01*
X104780952Y-95347619D01*
X104590476Y-95347619D01*
X104514286Y-95309524D01*
X104476190Y-95271428D01*
X104438095Y-95195238D01*
X104438095Y-94966666D01*
X104476190Y-94890476D01*
X104514286Y-94852381D01*
X100638095Y-93399999D02*
X101438095Y-93399999D01*
X101438095Y-93704761D01*
X101400000Y-93780952D01*
X101361905Y-93819047D01*
X101285714Y-93857142D01*
X101171429Y-93857142D01*
X101095238Y-93819047D01*
X101057143Y-93780952D01*
X101019048Y-93704761D01*
X101019048Y-93399999D01*
X100638095Y-94657142D02*
X101019048Y-94390475D01*
X100638095Y-94199999D02*
X101438095Y-94199999D01*
X101438095Y-94504761D01*
X101400000Y-94580952D01*
X101361905Y-94619047D01*
X101285714Y-94657142D01*
X101171429Y-94657142D01*
X101095238Y-94619047D01*
X101057143Y-94580952D01*
X101019048Y-94504761D01*
X101019048Y-94199999D01*
X101057143Y-94999999D02*
X101057143Y-95266666D01*
X100638095Y-95380952D02*
X100638095Y-94999999D01*
X101438095Y-94999999D01*
X101438095Y-95380952D01*
X100676190Y-95685714D02*
X100638095Y-95800000D01*
X100638095Y-95990476D01*
X100676190Y-96066666D01*
X100714286Y-96104762D01*
X100790476Y-96142857D01*
X100866667Y-96142857D01*
X100942857Y-96104762D01*
X100980952Y-96066666D01*
X101019048Y-95990476D01*
X101057143Y-95838095D01*
X101095238Y-95761904D01*
X101133333Y-95723809D01*
X101209524Y-95685714D01*
X101285714Y-95685714D01*
X101361905Y-95723809D01*
X101400000Y-95761904D01*
X101438095Y-95838095D01*
X101438095Y-96028571D01*
X101400000Y-96142857D01*
X100676190Y-96447619D02*
X100638095Y-96561905D01*
X100638095Y-96752381D01*
X100676190Y-96828571D01*
X100714286Y-96866667D01*
X100790476Y-96904762D01*
X100866667Y-96904762D01*
X100942857Y-96866667D01*
X100980952Y-96828571D01*
X101019048Y-96752381D01*
X101057143Y-96600000D01*
X101095238Y-96523809D01*
X101133333Y-96485714D01*
X101209524Y-96447619D01*
X101285714Y-96447619D01*
X101361905Y-96485714D01*
X101400000Y-96523809D01*
X101438095Y-96600000D01*
X101438095Y-96790476D01*
X101400000Y-96904762D01*
X101438095Y-97247619D02*
X100790476Y-97247619D01*
X100714286Y-97285714D01*
X100676190Y-97323810D01*
X100638095Y-97400000D01*
X100638095Y-97552381D01*
X100676190Y-97628572D01*
X100714286Y-97666667D01*
X100790476Y-97704762D01*
X101438095Y-97704762D01*
X100638095Y-98542857D02*
X101019048Y-98276190D01*
X100638095Y-98085714D02*
X101438095Y-98085714D01*
X101438095Y-98390476D01*
X101400000Y-98466667D01*
X101361905Y-98504762D01*
X101285714Y-98542857D01*
X101171429Y-98542857D01*
X101095238Y-98504762D01*
X101057143Y-98466667D01*
X101019048Y-98390476D01*
X101019048Y-98085714D01*
X101057143Y-98885714D02*
X101057143Y-99152381D01*
X100638095Y-99266667D02*
X100638095Y-98885714D01*
X101438095Y-98885714D01*
X101438095Y-99266667D01*
X101438095Y-100142858D02*
X101438095Y-100638096D01*
X101133333Y-100371429D01*
X101133333Y-100485715D01*
X101095238Y-100561905D01*
X101057143Y-100600001D01*
X100980952Y-100638096D01*
X100790476Y-100638096D01*
X100714286Y-100600001D01*
X100676190Y-100561905D01*
X100638095Y-100485715D01*
X100638095Y-100257143D01*
X100676190Y-100180953D01*
X100714286Y-100142858D01*
X101838095Y-93399999D02*
X102638095Y-93399999D01*
X102638095Y-93704761D01*
X102600000Y-93780952D01*
X102561905Y-93819047D01*
X102485714Y-93857142D01*
X102371429Y-93857142D01*
X102295238Y-93819047D01*
X102257143Y-93780952D01*
X102219048Y-93704761D01*
X102219048Y-93399999D01*
X101838095Y-94657142D02*
X102219048Y-94390475D01*
X101838095Y-94199999D02*
X102638095Y-94199999D01*
X102638095Y-94504761D01*
X102600000Y-94580952D01*
X102561905Y-94619047D01*
X102485714Y-94657142D01*
X102371429Y-94657142D01*
X102295238Y-94619047D01*
X102257143Y-94580952D01*
X102219048Y-94504761D01*
X102219048Y-94199999D01*
X102257143Y-94999999D02*
X102257143Y-95266666D01*
X101838095Y-95380952D02*
X101838095Y-94999999D01*
X102638095Y-94999999D01*
X102638095Y-95380952D01*
X101876190Y-95685714D02*
X101838095Y-95800000D01*
X101838095Y-95990476D01*
X101876190Y-96066666D01*
X101914286Y-96104762D01*
X101990476Y-96142857D01*
X102066667Y-96142857D01*
X102142857Y-96104762D01*
X102180952Y-96066666D01*
X102219048Y-95990476D01*
X102257143Y-95838095D01*
X102295238Y-95761904D01*
X102333333Y-95723809D01*
X102409524Y-95685714D01*
X102485714Y-95685714D01*
X102561905Y-95723809D01*
X102600000Y-95761904D01*
X102638095Y-95838095D01*
X102638095Y-96028571D01*
X102600000Y-96142857D01*
X101876190Y-96447619D02*
X101838095Y-96561905D01*
X101838095Y-96752381D01*
X101876190Y-96828571D01*
X101914286Y-96866667D01*
X101990476Y-96904762D01*
X102066667Y-96904762D01*
X102142857Y-96866667D01*
X102180952Y-96828571D01*
X102219048Y-96752381D01*
X102257143Y-96600000D01*
X102295238Y-96523809D01*
X102333333Y-96485714D01*
X102409524Y-96447619D01*
X102485714Y-96447619D01*
X102561905Y-96485714D01*
X102600000Y-96523809D01*
X102638095Y-96600000D01*
X102638095Y-96790476D01*
X102600000Y-96904762D01*
X102638095Y-97247619D02*
X101990476Y-97247619D01*
X101914286Y-97285714D01*
X101876190Y-97323810D01*
X101838095Y-97400000D01*
X101838095Y-97552381D01*
X101876190Y-97628572D01*
X101914286Y-97666667D01*
X101990476Y-97704762D01*
X102638095Y-97704762D01*
X101838095Y-98542857D02*
X102219048Y-98276190D01*
X101838095Y-98085714D02*
X102638095Y-98085714D01*
X102638095Y-98390476D01*
X102600000Y-98466667D01*
X102561905Y-98504762D01*
X102485714Y-98542857D01*
X102371429Y-98542857D01*
X102295238Y-98504762D01*
X102257143Y-98466667D01*
X102219048Y-98390476D01*
X102219048Y-98085714D01*
X102257143Y-98885714D02*
X102257143Y-99152381D01*
X101838095Y-99266667D02*
X101838095Y-98885714D01*
X102638095Y-98885714D01*
X102638095Y-99266667D01*
X102561905Y-100180953D02*
X102600000Y-100219048D01*
X102638095Y-100295239D01*
X102638095Y-100485715D01*
X102600000Y-100561905D01*
X102561905Y-100600001D01*
X102485714Y-100638096D01*
X102409524Y-100638096D01*
X102295238Y-100600001D01*
X101838095Y-100142858D01*
X101838095Y-100638096D01*
X103138095Y-93399999D02*
X103938095Y-93399999D01*
X103938095Y-93704761D01*
X103900000Y-93780952D01*
X103861905Y-93819047D01*
X103785714Y-93857142D01*
X103671429Y-93857142D01*
X103595238Y-93819047D01*
X103557143Y-93780952D01*
X103519048Y-93704761D01*
X103519048Y-93399999D01*
X103138095Y-94657142D02*
X103519048Y-94390475D01*
X103138095Y-94199999D02*
X103938095Y-94199999D01*
X103938095Y-94504761D01*
X103900000Y-94580952D01*
X103861905Y-94619047D01*
X103785714Y-94657142D01*
X103671429Y-94657142D01*
X103595238Y-94619047D01*
X103557143Y-94580952D01*
X103519048Y-94504761D01*
X103519048Y-94199999D01*
X103557143Y-94999999D02*
X103557143Y-95266666D01*
X103138095Y-95380952D02*
X103138095Y-94999999D01*
X103938095Y-94999999D01*
X103938095Y-95380952D01*
X103176190Y-95685714D02*
X103138095Y-95800000D01*
X103138095Y-95990476D01*
X103176190Y-96066666D01*
X103214286Y-96104762D01*
X103290476Y-96142857D01*
X103366667Y-96142857D01*
X103442857Y-96104762D01*
X103480952Y-96066666D01*
X103519048Y-95990476D01*
X103557143Y-95838095D01*
X103595238Y-95761904D01*
X103633333Y-95723809D01*
X103709524Y-95685714D01*
X103785714Y-95685714D01*
X103861905Y-95723809D01*
X103900000Y-95761904D01*
X103938095Y-95838095D01*
X103938095Y-96028571D01*
X103900000Y-96142857D01*
X103176190Y-96447619D02*
X103138095Y-96561905D01*
X103138095Y-96752381D01*
X103176190Y-96828571D01*
X103214286Y-96866667D01*
X103290476Y-96904762D01*
X103366667Y-96904762D01*
X103442857Y-96866667D01*
X103480952Y-96828571D01*
X103519048Y-96752381D01*
X103557143Y-96600000D01*
X103595238Y-96523809D01*
X103633333Y-96485714D01*
X103709524Y-96447619D01*
X103785714Y-96447619D01*
X103861905Y-96485714D01*
X103900000Y-96523809D01*
X103938095Y-96600000D01*
X103938095Y-96790476D01*
X103900000Y-96904762D01*
X103938095Y-97247619D02*
X103290476Y-97247619D01*
X103214286Y-97285714D01*
X103176190Y-97323810D01*
X103138095Y-97400000D01*
X103138095Y-97552381D01*
X103176190Y-97628572D01*
X103214286Y-97666667D01*
X103290476Y-97704762D01*
X103938095Y-97704762D01*
X103138095Y-98542857D02*
X103519048Y-98276190D01*
X103138095Y-98085714D02*
X103938095Y-98085714D01*
X103938095Y-98390476D01*
X103900000Y-98466667D01*
X103861905Y-98504762D01*
X103785714Y-98542857D01*
X103671429Y-98542857D01*
X103595238Y-98504762D01*
X103557143Y-98466667D01*
X103519048Y-98390476D01*
X103519048Y-98085714D01*
X103557143Y-98885714D02*
X103557143Y-99152381D01*
X103138095Y-99266667D02*
X103138095Y-98885714D01*
X103938095Y-98885714D01*
X103938095Y-99266667D01*
X103138095Y-100638096D02*
X103138095Y-100180953D01*
X103138095Y-100409524D02*
X103938095Y-100409524D01*
X103823810Y-100333334D01*
X103747619Y-100257143D01*
X103709524Y-100180953D01*
X106538095Y-93404762D02*
X106538095Y-93900000D01*
X106233333Y-93633333D01*
X106233333Y-93747619D01*
X106195238Y-93823809D01*
X106157143Y-93861905D01*
X106080952Y-93900000D01*
X105890476Y-93900000D01*
X105814286Y-93861905D01*
X105776190Y-93823809D01*
X105738095Y-93747619D01*
X105738095Y-93519047D01*
X105776190Y-93442857D01*
X105814286Y-93404762D01*
X106538095Y-94128571D02*
X105738095Y-94395238D01*
X106538095Y-94661905D01*
X106538095Y-94852381D02*
X106538095Y-95347619D01*
X106233333Y-95080952D01*
X106233333Y-95195238D01*
X106195238Y-95271428D01*
X106157143Y-95309524D01*
X106080952Y-95347619D01*
X105890476Y-95347619D01*
X105814286Y-95309524D01*
X105776190Y-95271428D01*
X105738095Y-95195238D01*
X105738095Y-94966666D01*
X105776190Y-94890476D01*
X105814286Y-94852381D01*
X97600000Y-93840477D02*
X97638095Y-93764286D01*
X97638095Y-93650001D01*
X97600000Y-93535715D01*
X97523810Y-93459524D01*
X97447619Y-93421429D01*
X97295238Y-93383334D01*
X97180952Y-93383334D01*
X97028571Y-93421429D01*
X96952381Y-93459524D01*
X96876190Y-93535715D01*
X96838095Y-93650001D01*
X96838095Y-93726191D01*
X96876190Y-93840477D01*
X96914286Y-93878572D01*
X97180952Y-93878572D01*
X97180952Y-93726191D01*
X96838095Y-94221429D02*
X97638095Y-94221429D01*
X96838095Y-94678572D01*
X97638095Y-94678572D01*
X96838095Y-95059524D02*
X97638095Y-95059524D01*
X97638095Y-95250000D01*
X97600000Y-95364286D01*
X97523810Y-95440477D01*
X97447619Y-95478572D01*
X97295238Y-95516667D01*
X97180952Y-95516667D01*
X97028571Y-95478572D01*
X96952381Y-95440477D01*
X96876190Y-95364286D01*
X96838095Y-95250000D01*
X96838095Y-95059524D01*
X96400000Y-93840477D02*
X96438095Y-93764286D01*
X96438095Y-93650001D01*
X96400000Y-93535715D01*
X96323810Y-93459524D01*
X96247619Y-93421429D01*
X96095238Y-93383334D01*
X95980952Y-93383334D01*
X95828571Y-93421429D01*
X95752381Y-93459524D01*
X95676190Y-93535715D01*
X95638095Y-93650001D01*
X95638095Y-93726191D01*
X95676190Y-93840477D01*
X95714286Y-93878572D01*
X95980952Y-93878572D01*
X95980952Y-93726191D01*
X95638095Y-94221429D02*
X96438095Y-94221429D01*
X95638095Y-94678572D01*
X96438095Y-94678572D01*
X95638095Y-95059524D02*
X96438095Y-95059524D01*
X96438095Y-95250000D01*
X96400000Y-95364286D01*
X96323810Y-95440477D01*
X96247619Y-95478572D01*
X96095238Y-95516667D01*
X95980952Y-95516667D01*
X95828571Y-95478572D01*
X95752381Y-95440477D01*
X95676190Y-95364286D01*
X95638095Y-95250000D01*
X95638095Y-95059524D01*
X95100000Y-93840477D02*
X95138095Y-93764286D01*
X95138095Y-93650001D01*
X95100000Y-93535715D01*
X95023810Y-93459524D01*
X94947619Y-93421429D01*
X94795238Y-93383334D01*
X94680952Y-93383334D01*
X94528571Y-93421429D01*
X94452381Y-93459524D01*
X94376190Y-93535715D01*
X94338095Y-93650001D01*
X94338095Y-93726191D01*
X94376190Y-93840477D01*
X94414286Y-93878572D01*
X94680952Y-93878572D01*
X94680952Y-93726191D01*
X94338095Y-94221429D02*
X95138095Y-94221429D01*
X94338095Y-94678572D01*
X95138095Y-94678572D01*
X94338095Y-95059524D02*
X95138095Y-95059524D01*
X95138095Y-95250000D01*
X95100000Y-95364286D01*
X95023810Y-95440477D01*
X94947619Y-95478572D01*
X94795238Y-95516667D01*
X94680952Y-95516667D01*
X94528571Y-95478572D01*
X94452381Y-95440477D01*
X94376190Y-95364286D01*
X94338095Y-95250000D01*
X94338095Y-95059524D01*
X106000000Y-104271429D02*
X105800000Y-103985714D01*
X105657143Y-104271429D02*
X105657143Y-103671429D01*
X105885715Y-103671429D01*
X105942857Y-103700000D01*
X105971429Y-103728571D01*
X106000000Y-103785714D01*
X106000000Y-103871429D01*
X105971429Y-103928571D01*
X105942857Y-103957143D01*
X105885715Y-103985714D01*
X105657143Y-103985714D01*
X106571429Y-104271429D02*
X106228572Y-104271429D01*
X106400000Y-104271429D02*
X106400000Y-103671429D01*
X106342857Y-103757143D01*
X106285715Y-103814286D01*
X106228572Y-103842857D01*
X103100000Y-104271429D02*
X102900000Y-103985714D01*
X102757143Y-104271429D02*
X102757143Y-103671429D01*
X102985715Y-103671429D01*
X103042857Y-103700000D01*
X103071429Y-103728571D01*
X103100000Y-103785714D01*
X103100000Y-103871429D01*
X103071429Y-103928571D01*
X103042857Y-103957143D01*
X102985715Y-103985714D01*
X102757143Y-103985714D01*
X103328572Y-103728571D02*
X103357143Y-103700000D01*
X103414286Y-103671429D01*
X103557143Y-103671429D01*
X103614286Y-103700000D01*
X103642857Y-103728571D01*
X103671429Y-103785714D01*
X103671429Y-103842857D01*
X103642857Y-103928571D01*
X103300000Y-104271429D01*
X103671429Y-104271429D01*
X100300000Y-104271429D02*
X100100000Y-103985714D01*
X99957143Y-104271429D02*
X99957143Y-103671429D01*
X100185715Y-103671429D01*
X100242857Y-103700000D01*
X100271429Y-103728571D01*
X100300000Y-103785714D01*
X100300000Y-103871429D01*
X100271429Y-103928571D01*
X100242857Y-103957143D01*
X100185715Y-103985714D01*
X99957143Y-103985714D01*
X100500000Y-103671429D02*
X100871429Y-103671429D01*
X100671429Y-103900000D01*
X100757143Y-103900000D01*
X100814286Y-103928571D01*
X100842857Y-103957143D01*
X100871429Y-104014286D01*
X100871429Y-104157143D01*
X100842857Y-104214286D01*
X100814286Y-104242857D01*
X100757143Y-104271429D01*
X100585715Y-104271429D01*
X100528572Y-104242857D01*
X100500000Y-104214286D01*
X97500000Y-104271429D02*
X97300000Y-103985714D01*
X97157143Y-104271429D02*
X97157143Y-103671429D01*
X97385715Y-103671429D01*
X97442857Y-103700000D01*
X97471429Y-103728571D01*
X97500000Y-103785714D01*
X97500000Y-103871429D01*
X97471429Y-103928571D01*
X97442857Y-103957143D01*
X97385715Y-103985714D01*
X97157143Y-103985714D01*
X98014286Y-103871429D02*
X98014286Y-104271429D01*
X97871429Y-103642857D02*
X97728572Y-104071429D01*
X98100000Y-104071429D01*
X94700000Y-104271429D02*
X94500000Y-103985714D01*
X94357143Y-104271429D02*
X94357143Y-103671429D01*
X94585715Y-103671429D01*
X94642857Y-103700000D01*
X94671429Y-103728571D01*
X94700000Y-103785714D01*
X94700000Y-103871429D01*
X94671429Y-103928571D01*
X94642857Y-103957143D01*
X94585715Y-103985714D01*
X94357143Y-103985714D01*
X95242857Y-103671429D02*
X94957143Y-103671429D01*
X94928572Y-103957143D01*
X94957143Y-103928571D01*
X95014286Y-103900000D01*
X95157143Y-103900000D01*
X95214286Y-103928571D01*
X95242857Y-103957143D01*
X95271429Y-104014286D01*
X95271429Y-104157143D01*
X95242857Y-104214286D01*
X95214286Y-104242857D01*
X95157143Y-104271429D01*
X95014286Y-104271429D01*
X94957143Y-104242857D01*
X94928572Y-104214286D01*
X96100000Y-109614286D02*
X96071429Y-109642857D01*
X95985715Y-109671429D01*
X95928572Y-109671429D01*
X95842857Y-109642857D01*
X95785715Y-109585714D01*
X95757143Y-109528571D01*
X95728572Y-109414286D01*
X95728572Y-109328571D01*
X95757143Y-109214286D01*
X95785715Y-109157143D01*
X95842857Y-109100000D01*
X95928572Y-109071429D01*
X95985715Y-109071429D01*
X96071429Y-109100000D01*
X96100000Y-109128571D01*
X96614286Y-109271429D02*
X96614286Y-109671429D01*
X96471429Y-109042857D02*
X96328572Y-109471429D01*
X96700000Y-109471429D01*
X104600000Y-109614286D02*
X104571429Y-109642857D01*
X104485715Y-109671429D01*
X104428572Y-109671429D01*
X104342857Y-109642857D01*
X104285715Y-109585714D01*
X104257143Y-109528571D01*
X104228572Y-109414286D01*
X104228572Y-109328571D01*
X104257143Y-109214286D01*
X104285715Y-109157143D01*
X104342857Y-109100000D01*
X104428572Y-109071429D01*
X104485715Y-109071429D01*
X104571429Y-109100000D01*
X104600000Y-109128571D01*
X105171429Y-109671429D02*
X104828572Y-109671429D01*
X105000000Y-109671429D02*
X105000000Y-109071429D01*
X104942857Y-109157143D01*
X104885715Y-109214286D01*
X104828572Y-109242857D01*
X93300000Y-109614286D02*
X93271429Y-109642857D01*
X93185715Y-109671429D01*
X93128572Y-109671429D01*
X93042857Y-109642857D01*
X92985715Y-109585714D01*
X92957143Y-109528571D01*
X92928572Y-109414286D01*
X92928572Y-109328571D01*
X92957143Y-109214286D01*
X92985715Y-109157143D01*
X93042857Y-109100000D01*
X93128572Y-109071429D01*
X93185715Y-109071429D01*
X93271429Y-109100000D01*
X93300000Y-109128571D01*
X93842857Y-109071429D02*
X93557143Y-109071429D01*
X93528572Y-109357143D01*
X93557143Y-109328571D01*
X93614286Y-109300000D01*
X93757143Y-109300000D01*
X93814286Y-109328571D01*
X93842857Y-109357143D01*
X93871429Y-109414286D01*
X93871429Y-109557143D01*
X93842857Y-109614286D01*
X93814286Y-109642857D01*
X93757143Y-109671429D01*
X93614286Y-109671429D01*
X93557143Y-109642857D01*
X93528572Y-109614286D01*
X98900000Y-109614286D02*
X98871429Y-109642857D01*
X98785715Y-109671429D01*
X98728572Y-109671429D01*
X98642857Y-109642857D01*
X98585715Y-109585714D01*
X98557143Y-109528571D01*
X98528572Y-109414286D01*
X98528572Y-109328571D01*
X98557143Y-109214286D01*
X98585715Y-109157143D01*
X98642857Y-109100000D01*
X98728572Y-109071429D01*
X98785715Y-109071429D01*
X98871429Y-109100000D01*
X98900000Y-109128571D01*
X99100000Y-109071429D02*
X99471429Y-109071429D01*
X99271429Y-109300000D01*
X99357143Y-109300000D01*
X99414286Y-109328571D01*
X99442857Y-109357143D01*
X99471429Y-109414286D01*
X99471429Y-109557143D01*
X99442857Y-109614286D01*
X99414286Y-109642857D01*
X99357143Y-109671429D01*
X99185715Y-109671429D01*
X99128572Y-109642857D01*
X99100000Y-109614286D01*
X101800000Y-109614286D02*
X101771429Y-109642857D01*
X101685715Y-109671429D01*
X101628572Y-109671429D01*
X101542857Y-109642857D01*
X101485715Y-109585714D01*
X101457143Y-109528571D01*
X101428572Y-109414286D01*
X101428572Y-109328571D01*
X101457143Y-109214286D01*
X101485715Y-109157143D01*
X101542857Y-109100000D01*
X101628572Y-109071429D01*
X101685715Y-109071429D01*
X101771429Y-109100000D01*
X101800000Y-109128571D01*
X102028572Y-109128571D02*
X102057143Y-109100000D01*
X102114286Y-109071429D01*
X102257143Y-109071429D01*
X102314286Y-109100000D01*
X102342857Y-109128571D01*
X102371429Y-109185714D01*
X102371429Y-109242857D01*
X102342857Y-109328571D01*
X102000000Y-109671429D01*
X102371429Y-109671429D01*
D12*
X107500000Y-92800000D02*
X107500000Y-87550000D01*
X107500000Y-87550000D02*
X93250000Y-87550000D01*
X93250000Y-87550000D02*
X93250000Y-91200000D01*
X87785000Y-93635000D02*
X87785000Y-92135000D01*
X87785000Y-92135000D02*
X82215000Y-92135000D01*
X82215000Y-92135000D02*
X82215000Y-93635000D01*
X82215000Y-106365000D02*
X83715000Y-107865000D01*
X83715000Y-107865000D02*
X86285000Y-107865000D01*
X86285000Y-107865000D02*
X87785000Y-106365000D01*
X117785000Y-93635000D02*
X117785000Y-92135000D01*
X117785000Y-92135000D02*
X112215000Y-92135000D01*
X112215000Y-92135000D02*
X112215000Y-93635000D01*
X112215000Y-106365000D02*
X113715000Y-107865000D01*
X113715000Y-107865000D02*
X116285000Y-107865000D01*
X116285000Y-107865000D02*
X117785000Y-106365000D01*
X93635000Y-112215000D02*
X92135000Y-112215000D01*
X92135000Y-112215000D02*
X92135000Y-117785000D01*
X92135000Y-117785000D02*
X93635000Y-117785000D01*
X106365000Y-117785000D02*
X107865000Y-116285000D01*
X107865000Y-116285000D02*
X107865000Y-113715000D01*
X107865000Y-113715000D02*
X106365000Y-112215000D01*
X100025000Y-106125000D02*
X100025000Y-105875000D01*
X100025000Y-105875000D02*
X100675000Y-105875000D01*
X100675000Y-105875000D02*
X100675000Y-106125000D01*
X100675000Y-106125000D02*
X100025000Y-106125000D01*
X94425000Y-106125000D02*
X94425000Y-105875000D01*
X94425000Y-105875000D02*
X95075000Y-105875000D01*
X95075000Y-105875000D02*
X95075000Y-106125000D01*
X95075000Y-106125000D02*
X94425000Y-106125000D01*
X102875000Y-106125000D02*
X102875000Y-105875000D01*
X102875000Y-105875000D02*
X103525000Y-105875000D01*
X103525000Y-105875000D02*
X103525000Y-106125000D01*
X103525000Y-106125000D02*
X102875000Y-106125000D01*
X97225000Y-106125000D02*
X97225000Y-105875000D01*
X97225000Y-105875000D02*
X97875000Y-105875000D01*
X97875000Y-105875000D02*
X97875000Y-106125000D01*
X97875000Y-106125000D02*
X97225000Y-106125000D01*
X105775000Y-106125000D02*
X105775000Y-105875000D01*
X105775000Y-105875000D02*
X106425000Y-105875000D01*
X106425000Y-105875000D02*
X106425000Y-106125000D01*
X106425000Y-106125000D02*
X105775000Y-106125000D01*
X99725000Y-108625000D02*
X99475000Y-108625000D01*
X99475000Y-108625000D02*
X99475000Y-107975000D01*
X99475000Y-107975000D02*
X99725000Y-107975000D01*
X99725000Y-107975000D02*
X99725000Y-108625000D01*
X94125000Y-108625000D02*
X93875000Y-108625000D01*
X93875000Y-108625000D02*
X93875000Y-107975000D01*
X93875000Y-107975000D02*
X94125000Y-107975000D01*
X94125000Y-107975000D02*
X94125000Y-108625000D01*
X102575000Y-108625000D02*
X102325000Y-108625000D01*
X102325000Y-108625000D02*
X102325000Y-107975000D01*
X102325000Y-107975000D02*
X102575000Y-107975000D01*
X102575000Y-107975000D02*
X102575000Y-108625000D01*
X96925000Y-108625000D02*
X96675000Y-108625000D01*
X96675000Y-108625000D02*
X96675000Y-107975000D01*
X96675000Y-107975000D02*
X96925000Y-107975000D01*
X96925000Y-107975000D02*
X96925000Y-108625000D01*
X105425000Y-108625000D02*
X105175000Y-108625000D01*
X105175000Y-108625000D02*
X105175000Y-107975000D01*
X105175000Y-107975000D02*
X105425000Y-107975000D01*
X105425000Y-107975000D02*
X105425000Y-108625000D01*
X92200000Y-100349999D02*
X90800000Y-100349999D01*
X92800000Y-98349999D02*
X90800000Y-98349999D01*
X92200000Y-100349999D02*
G75*
G03X92800000Y-100349999I300000J0D01*
G01*
%LPC*%
D13*
X106000000Y-92000000D03*
D14*
X104750000Y-92000000D03*
X103500000Y-92000000D03*
X102250000Y-92000000D03*
X101000000Y-92000000D03*
X99750000Y-92000000D03*
X98500000Y-92000000D03*
X97250000Y-92000000D03*
X96000000Y-92000000D03*
X94750000Y-92000000D03*
D15*
X83285000Y-94285000D03*
X86715000Y-94285000D03*
X83285000Y-95555000D03*
X86715000Y-95555000D03*
X83285000Y-96825000D03*
X86715000Y-96825000D03*
X83285000Y-98095000D03*
X86715000Y-98095000D03*
X83285000Y-99365000D03*
X86715000Y-99365000D03*
X83285000Y-100635000D03*
X86715000Y-100635000D03*
X83285000Y-101905000D03*
X86715000Y-101905000D03*
X83285000Y-103175000D03*
X86715000Y-103175000D03*
X83285000Y-104445000D03*
X86715000Y-104445000D03*
X83285000Y-105715000D03*
X86715000Y-105715000D03*
X113285000Y-94285000D03*
X116715000Y-94285000D03*
X113285000Y-95555000D03*
X116715000Y-95555000D03*
X113285000Y-96825000D03*
X116715000Y-96825000D03*
X113285000Y-98095000D03*
X116715000Y-98095000D03*
X113285000Y-99365000D03*
X116715000Y-99365000D03*
X113285000Y-100635000D03*
X116715000Y-100635000D03*
X113285000Y-101905000D03*
X116715000Y-101905000D03*
X113285000Y-103175000D03*
X116715000Y-103175000D03*
X113285000Y-104445000D03*
X116715000Y-104445000D03*
X113285000Y-105715000D03*
X116715000Y-105715000D03*
D16*
X85000000Y-107305000D03*
X85000000Y-92695000D03*
X115000000Y-107305000D03*
X115000000Y-92695000D03*
D17*
X94285000Y-116715000D03*
X94285000Y-113285000D03*
X95555000Y-116715000D03*
X95555000Y-113285000D03*
X96825000Y-116715000D03*
X96825000Y-113285000D03*
X98095000Y-116715000D03*
X98095000Y-113285000D03*
X99365000Y-116715000D03*
X99365000Y-113285000D03*
X100635000Y-116715000D03*
X100635000Y-113285000D03*
X101905000Y-116715000D03*
X101905000Y-113285000D03*
X103175000Y-116715000D03*
X103175000Y-113285000D03*
X104445000Y-116715000D03*
X104445000Y-113285000D03*
X105715000Y-116715000D03*
X105715000Y-113285000D03*
D16*
X107305000Y-115000000D03*
X92695000Y-115000000D03*
D18*
X100350000Y-106700000D03*
X100350000Y-105300000D03*
X94750000Y-106700000D03*
X94750000Y-105300000D03*
X103200000Y-106700000D03*
X103200000Y-105300000D03*
X97550000Y-106700000D03*
X97550000Y-105300000D03*
X106100000Y-106700000D03*
X106100000Y-105300000D03*
D19*
X100300000Y-108300000D03*
X98900000Y-108300000D03*
X94700000Y-108300000D03*
X93300000Y-108300000D03*
X103150000Y-108300000D03*
X101750000Y-108300000D03*
X97500000Y-108300000D03*
X96100000Y-108300000D03*
X106000000Y-108300000D03*
X104600000Y-108300000D03*
D20*
X90000000Y-101200000D03*
X90800000Y-101200000D03*
X93600000Y-101200000D03*
X92800000Y-101200000D03*
D21*
X92715000Y-99999999D03*
X92715000Y-99349999D03*
X92715000Y-98699999D03*
X90885000Y-98699999D03*
X90885000Y-99349999D03*
X90885000Y-99999999D03*
D22*
X91800000Y-99349999D03*
D20*
X93818334Y-99400000D03*
X93818334Y-98600000D03*
M02*
