G04 #@! TF.FileFunction,Soldermask,Top*
%FSLAX46Y46*%
G04 Gerber Fmt 4.6, Leading zero omitted, Abs format (unit mm)*
G04 Created by KiCad (PCBNEW 4.0.2-4+6225~38~ubuntu14.04.1-stable) date Sun 08 May 2016 15:34:50 BST*
%MOMM*%
G01*
G04 APERTURE LIST*
%ADD10C,0.100000*%
%ADD11R,0.800000X0.800000*%
%ADD12O,0.800000X0.800000*%
%ADD13R,2.920000X0.740000*%
%ADD14C,1.200000*%
%ADD15R,0.740000X2.920000*%
%ADD16R,0.900000X0.750000*%
%ADD17R,0.750000X0.900000*%
G04 APERTURE END LIST*
D10*
D11*
X106000000Y-92000000D03*
D12*
X104750000Y-92000000D03*
X103500000Y-92000000D03*
X102250000Y-92000000D03*
X101000000Y-92000000D03*
X99750000Y-92000000D03*
X98500000Y-92000000D03*
X97250000Y-92000000D03*
X96000000Y-92000000D03*
X94750000Y-92000000D03*
D13*
X83285000Y-94285000D03*
X86715000Y-94285000D03*
X83285000Y-95555000D03*
X86715000Y-95555000D03*
X83285000Y-96825000D03*
X86715000Y-96825000D03*
X83285000Y-98095000D03*
X86715000Y-98095000D03*
X83285000Y-99365000D03*
X86715000Y-99365000D03*
X83285000Y-100635000D03*
X86715000Y-100635000D03*
X83285000Y-101905000D03*
X86715000Y-101905000D03*
X83285000Y-103175000D03*
X86715000Y-103175000D03*
X83285000Y-104445000D03*
X86715000Y-104445000D03*
X83285000Y-105715000D03*
X86715000Y-105715000D03*
X113285000Y-94285000D03*
X116715000Y-94285000D03*
X113285000Y-95555000D03*
X116715000Y-95555000D03*
X113285000Y-96825000D03*
X116715000Y-96825000D03*
X113285000Y-98095000D03*
X116715000Y-98095000D03*
X113285000Y-99365000D03*
X116715000Y-99365000D03*
X113285000Y-100635000D03*
X116715000Y-100635000D03*
X113285000Y-101905000D03*
X116715000Y-101905000D03*
X113285000Y-103175000D03*
X116715000Y-103175000D03*
X113285000Y-104445000D03*
X116715000Y-104445000D03*
X113285000Y-105715000D03*
X116715000Y-105715000D03*
D14*
X85000000Y-107305000D03*
X85000000Y-92695000D03*
X115000000Y-107305000D03*
X115000000Y-92695000D03*
D15*
X94285000Y-116715000D03*
X94285000Y-113285000D03*
X95555000Y-116715000D03*
X95555000Y-113285000D03*
X96825000Y-116715000D03*
X96825000Y-113285000D03*
X98095000Y-116715000D03*
X98095000Y-113285000D03*
X99365000Y-116715000D03*
X99365000Y-113285000D03*
X100635000Y-116715000D03*
X100635000Y-113285000D03*
X101905000Y-116715000D03*
X101905000Y-113285000D03*
X103175000Y-116715000D03*
X103175000Y-113285000D03*
X104445000Y-116715000D03*
X104445000Y-113285000D03*
X105715000Y-116715000D03*
X105715000Y-113285000D03*
D14*
X107305000Y-115000000D03*
X92695000Y-115000000D03*
D16*
X100350000Y-107400000D03*
X100350000Y-106000000D03*
X94750000Y-107400000D03*
X94750000Y-106000000D03*
X103200000Y-107300000D03*
X103200000Y-105900000D03*
X97550000Y-107400000D03*
X97550000Y-106000000D03*
X106100000Y-107400000D03*
X106100000Y-106000000D03*
D17*
X100300000Y-108300000D03*
X98900000Y-108300000D03*
X94700000Y-108300000D03*
X93300000Y-108300000D03*
X103150000Y-108300000D03*
X101750000Y-108300000D03*
X97500000Y-108300000D03*
X96100000Y-108300000D03*
X106000000Y-108300000D03*
X104600000Y-108300000D03*
M02*
