G04 #@! TF.FileFunction,Legend,Bot*
%FSLAX46Y46*%
G04 Gerber Fmt 4.6, Leading zero omitted, Abs format (unit mm)*
G04 Created by KiCad (PCBNEW 4.0.2+e4-6225~38~ubuntu14.04.1-stable) date Sun 12 Jun 2016 21:20:04 BST*
%MOMM*%
G01*
G04 APERTURE LIST*
%ADD10C,0.100000*%
%ADD11C,0.150000*%
%ADD12R,0.800000X0.800000*%
%ADD13O,0.800000X0.800000*%
%ADD14R,2.220000X0.740000*%
%ADD15C,1.200000*%
%ADD16R,0.740000X2.220000*%
%ADD17R,0.620000X0.620000*%
G04 APERTURE END LIST*
D10*
X112833333Y-109236667D02*
X112833333Y-108770000D01*
X112833333Y-108836667D02*
X112800000Y-108803333D01*
X112733333Y-108770000D01*
X112633333Y-108770000D01*
X112566667Y-108803333D01*
X112533333Y-108870000D01*
X112533333Y-109236667D01*
X112533333Y-108870000D02*
X112500000Y-108803333D01*
X112433333Y-108770000D01*
X112333333Y-108770000D01*
X112266667Y-108803333D01*
X112233333Y-108870000D01*
X112233333Y-109236667D01*
X111966667Y-108536667D02*
X111533334Y-108536667D01*
X111766667Y-108803333D01*
X111666667Y-108803333D01*
X111600000Y-108836667D01*
X111566667Y-108870000D01*
X111533334Y-108936667D01*
X111533334Y-109103333D01*
X111566667Y-109170000D01*
X111600000Y-109203333D01*
X111666667Y-109236667D01*
X111866667Y-109236667D01*
X111933334Y-109203333D01*
X111966667Y-109170000D01*
X110933333Y-109236667D02*
X110933333Y-108536667D01*
X110933333Y-109203333D02*
X111000000Y-109236667D01*
X111133333Y-109236667D01*
X111200000Y-109203333D01*
X111233333Y-109170000D01*
X111266667Y-109103333D01*
X111266667Y-108903333D01*
X111233333Y-108836667D01*
X111200000Y-108803333D01*
X111133333Y-108770000D01*
X111000000Y-108770000D01*
X110933333Y-108803333D01*
X110500000Y-109236667D02*
X110566667Y-109203333D01*
X110600000Y-109136667D01*
X110600000Y-108536667D01*
X109700000Y-108970000D02*
X109166667Y-108970000D01*
X108300000Y-109236667D02*
X108300000Y-108536667D01*
X108033334Y-108536667D01*
X107966667Y-108570000D01*
X107933334Y-108603333D01*
X107900000Y-108670000D01*
X107900000Y-108770000D01*
X107933334Y-108836667D01*
X107966667Y-108870000D01*
X108033334Y-108903333D01*
X108300000Y-108903333D01*
X107600000Y-109236667D02*
X107600000Y-108770000D01*
X107600000Y-108903333D02*
X107566667Y-108836667D01*
X107533334Y-108803333D01*
X107466667Y-108770000D01*
X107400000Y-108770000D01*
X106900001Y-109203333D02*
X106966667Y-109236667D01*
X107100001Y-109236667D01*
X107166667Y-109203333D01*
X107200001Y-109136667D01*
X107200001Y-108870000D01*
X107166667Y-108803333D01*
X107100001Y-108770000D01*
X106966667Y-108770000D01*
X106900001Y-108803333D01*
X106866667Y-108870000D01*
X106866667Y-108936667D01*
X107200001Y-109003333D01*
X106600001Y-109203333D02*
X106533334Y-109236667D01*
X106400001Y-109236667D01*
X106333334Y-109203333D01*
X106300001Y-109136667D01*
X106300001Y-109103333D01*
X106333334Y-109036667D01*
X106400001Y-109003333D01*
X106500001Y-109003333D01*
X106566667Y-108970000D01*
X106600001Y-108903333D01*
X106600001Y-108870000D01*
X106566667Y-108803333D01*
X106500001Y-108770000D01*
X106400001Y-108770000D01*
X106333334Y-108803333D01*
X106033334Y-109203333D02*
X105966667Y-109236667D01*
X105833334Y-109236667D01*
X105766667Y-109203333D01*
X105733334Y-109136667D01*
X105733334Y-109103333D01*
X105766667Y-109036667D01*
X105833334Y-109003333D01*
X105933334Y-109003333D01*
X106000000Y-108970000D01*
X106033334Y-108903333D01*
X106033334Y-108870000D01*
X106000000Y-108803333D01*
X105933334Y-108770000D01*
X105833334Y-108770000D01*
X105766667Y-108803333D01*
X105133333Y-108770000D02*
X105133333Y-109236667D01*
X105433333Y-108770000D02*
X105433333Y-109136667D01*
X105400000Y-109203333D01*
X105333333Y-109236667D01*
X105233333Y-109236667D01*
X105166667Y-109203333D01*
X105133333Y-109170000D01*
X104800000Y-109236667D02*
X104800000Y-108770000D01*
X104800000Y-108903333D02*
X104766667Y-108836667D01*
X104733334Y-108803333D01*
X104666667Y-108770000D01*
X104600000Y-108770000D01*
X104100001Y-109203333D02*
X104166667Y-109236667D01*
X104300001Y-109236667D01*
X104366667Y-109203333D01*
X104400001Y-109136667D01*
X104400001Y-108870000D01*
X104366667Y-108803333D01*
X104300001Y-108770000D01*
X104166667Y-108770000D01*
X104100001Y-108803333D01*
X104066667Y-108870000D01*
X104066667Y-108936667D01*
X104400001Y-109003333D01*
X103233334Y-109236667D02*
X103233334Y-108770000D01*
X103233334Y-108903333D02*
X103200001Y-108836667D01*
X103166668Y-108803333D01*
X103100001Y-108770000D01*
X103033334Y-108770000D01*
X102433335Y-109236667D02*
X102833335Y-109236667D01*
X102633335Y-109236667D02*
X102633335Y-108536667D01*
X102700001Y-108636667D01*
X102766668Y-108703333D01*
X102833335Y-108736667D01*
X112833333Y-110316667D02*
X112833333Y-109616667D01*
X112600000Y-110116667D01*
X112366667Y-109616667D01*
X112366667Y-110316667D01*
X111733333Y-110316667D02*
X111733333Y-109950000D01*
X111766667Y-109883333D01*
X111833333Y-109850000D01*
X111966667Y-109850000D01*
X112033333Y-109883333D01*
X111733333Y-110283333D02*
X111800000Y-110316667D01*
X111966667Y-110316667D01*
X112033333Y-110283333D01*
X112066667Y-110216667D01*
X112066667Y-110150000D01*
X112033333Y-110083333D01*
X111966667Y-110050000D01*
X111800000Y-110050000D01*
X111733333Y-110016667D01*
X111500000Y-109850000D02*
X111233334Y-109850000D01*
X111400000Y-109616667D02*
X111400000Y-110216667D01*
X111366667Y-110283333D01*
X111300000Y-110316667D01*
X111233334Y-110316667D01*
X111100000Y-109850000D02*
X110833334Y-109850000D01*
X111000000Y-109616667D02*
X111000000Y-110216667D01*
X110966667Y-110283333D01*
X110900000Y-110316667D01*
X110833334Y-110316667D01*
X109666667Y-110250000D02*
X109700001Y-110283333D01*
X109800001Y-110316667D01*
X109866667Y-110316667D01*
X109966667Y-110283333D01*
X110033334Y-110216667D01*
X110066667Y-110150000D01*
X110100001Y-110016667D01*
X110100001Y-109916667D01*
X110066667Y-109783333D01*
X110033334Y-109716667D01*
X109966667Y-109650000D01*
X109866667Y-109616667D01*
X109800001Y-109616667D01*
X109700001Y-109650000D01*
X109666667Y-109683333D01*
X109266667Y-110316667D02*
X109333334Y-110283333D01*
X109366667Y-110250000D01*
X109400001Y-110183333D01*
X109400001Y-109983333D01*
X109366667Y-109916667D01*
X109333334Y-109883333D01*
X109266667Y-109850000D01*
X109166667Y-109850000D01*
X109100001Y-109883333D01*
X109066667Y-109916667D01*
X109033334Y-109983333D01*
X109033334Y-110183333D01*
X109066667Y-110250000D01*
X109100001Y-110283333D01*
X109166667Y-110316667D01*
X109266667Y-110316667D01*
X108433334Y-110316667D02*
X108433334Y-109950000D01*
X108466668Y-109883333D01*
X108533334Y-109850000D01*
X108666668Y-109850000D01*
X108733334Y-109883333D01*
X108433334Y-110283333D02*
X108500001Y-110316667D01*
X108666668Y-110316667D01*
X108733334Y-110283333D01*
X108766668Y-110216667D01*
X108766668Y-110150000D01*
X108733334Y-110083333D01*
X108666668Y-110050000D01*
X108500001Y-110050000D01*
X108433334Y-110016667D01*
X108200001Y-109850000D02*
X107933335Y-109850000D01*
X108100001Y-109616667D02*
X108100001Y-110216667D01*
X108066668Y-110283333D01*
X108000001Y-110316667D01*
X107933335Y-110316667D01*
X107433335Y-110283333D02*
X107500001Y-110316667D01*
X107633335Y-110316667D01*
X107700001Y-110283333D01*
X107733335Y-110216667D01*
X107733335Y-109950000D01*
X107700001Y-109883333D01*
X107633335Y-109850000D01*
X107500001Y-109850000D01*
X107433335Y-109883333D01*
X107400001Y-109950000D01*
X107400001Y-110016667D01*
X107733335Y-110083333D01*
X107133335Y-110283333D02*
X107066668Y-110316667D01*
X106933335Y-110316667D01*
X106866668Y-110283333D01*
X106833335Y-110216667D01*
X106833335Y-110183333D01*
X106866668Y-110116667D01*
X106933335Y-110083333D01*
X107033335Y-110083333D01*
X107100001Y-110050000D01*
X107133335Y-109983333D01*
X107133335Y-109950000D01*
X107100001Y-109883333D01*
X107033335Y-109850000D01*
X106933335Y-109850000D01*
X106866668Y-109883333D01*
X112466667Y-111396667D02*
X112866667Y-111396667D01*
X112666667Y-111396667D02*
X112666667Y-110696667D01*
X112733333Y-110796667D01*
X112800000Y-110863333D01*
X112866667Y-110896667D01*
X112200000Y-110763333D02*
X112166666Y-110730000D01*
X112100000Y-110696667D01*
X111933333Y-110696667D01*
X111866666Y-110730000D01*
X111833333Y-110763333D01*
X111800000Y-110830000D01*
X111800000Y-110896667D01*
X111833333Y-110996667D01*
X112233333Y-111396667D01*
X111800000Y-111396667D01*
X110999999Y-110663333D02*
X111599999Y-111563333D01*
X110633333Y-110696667D02*
X110566666Y-110696667D01*
X110500000Y-110730000D01*
X110466666Y-110763333D01*
X110433333Y-110830000D01*
X110400000Y-110963333D01*
X110400000Y-111130000D01*
X110433333Y-111263333D01*
X110466666Y-111330000D01*
X110500000Y-111363333D01*
X110566666Y-111396667D01*
X110633333Y-111396667D01*
X110700000Y-111363333D01*
X110733333Y-111330000D01*
X110766666Y-111263333D01*
X110800000Y-111130000D01*
X110800000Y-110963333D01*
X110766666Y-110830000D01*
X110733333Y-110763333D01*
X110700000Y-110730000D01*
X110633333Y-110696667D01*
X109799999Y-110696667D02*
X109933333Y-110696667D01*
X109999999Y-110730000D01*
X110033333Y-110763333D01*
X110099999Y-110863333D01*
X110133333Y-110996667D01*
X110133333Y-111263333D01*
X110099999Y-111330000D01*
X110066666Y-111363333D01*
X109999999Y-111396667D01*
X109866666Y-111396667D01*
X109799999Y-111363333D01*
X109766666Y-111330000D01*
X109733333Y-111263333D01*
X109733333Y-111096667D01*
X109766666Y-111030000D01*
X109799999Y-110996667D01*
X109866666Y-110963333D01*
X109999999Y-110963333D01*
X110066666Y-110996667D01*
X110099999Y-111030000D01*
X110133333Y-111096667D01*
X108933332Y-110663333D02*
X109533332Y-111563333D01*
X108333333Y-111396667D02*
X108733333Y-111396667D01*
X108533333Y-111396667D02*
X108533333Y-110696667D01*
X108599999Y-110796667D01*
X108666666Y-110863333D01*
X108733333Y-110896667D01*
X107733332Y-110696667D02*
X107866666Y-110696667D01*
X107933332Y-110730000D01*
X107966666Y-110763333D01*
X108033332Y-110863333D01*
X108066666Y-110996667D01*
X108066666Y-111263333D01*
X108033332Y-111330000D01*
X107999999Y-111363333D01*
X107933332Y-111396667D01*
X107799999Y-111396667D01*
X107733332Y-111363333D01*
X107699999Y-111330000D01*
X107666666Y-111263333D01*
X107666666Y-111096667D01*
X107699999Y-111030000D01*
X107733332Y-110996667D01*
X107799999Y-110963333D01*
X107933332Y-110963333D01*
X107999999Y-110996667D01*
X108033332Y-111030000D01*
X108066666Y-111096667D01*
D11*
X83550000Y-106465000D02*
X84315000Y-106465000D01*
X84315000Y-106465000D02*
X84315000Y-108245000D01*
X84315000Y-108245000D02*
X85685000Y-108245000D01*
X85685000Y-108245000D02*
X85685000Y-106465000D01*
X85685000Y-106465000D02*
X86450000Y-106465000D01*
X86450000Y-106465000D02*
X86450000Y-106165000D01*
X86450000Y-93835000D02*
X86450000Y-93535000D01*
X86450000Y-93535000D02*
X85685000Y-93535000D01*
X85685000Y-93535000D02*
X85685000Y-91755000D01*
X85685000Y-91755000D02*
X84315000Y-91755000D01*
X84315000Y-91755000D02*
X84315000Y-93535000D01*
X84315000Y-93535000D02*
X83550000Y-93535000D01*
X113550000Y-106465000D02*
X114315000Y-106465000D01*
X114315000Y-106465000D02*
X114315000Y-108245000D01*
X114315000Y-108245000D02*
X115685000Y-108245000D01*
X115685000Y-108245000D02*
X115685000Y-106465000D01*
X115685000Y-106465000D02*
X116450000Y-106465000D01*
X116450000Y-106465000D02*
X116450000Y-106165000D01*
X116450000Y-93835000D02*
X116450000Y-93535000D01*
X116450000Y-93535000D02*
X115685000Y-93535000D01*
X115685000Y-93535000D02*
X115685000Y-91755000D01*
X115685000Y-91755000D02*
X114315000Y-91755000D01*
X114315000Y-91755000D02*
X114315000Y-93535000D01*
X114315000Y-93535000D02*
X113550000Y-93535000D01*
X106465000Y-116450000D02*
X106465000Y-115685000D01*
X106465000Y-115685000D02*
X108245000Y-115685000D01*
X108245000Y-115685000D02*
X108245000Y-114315000D01*
X108245000Y-114315000D02*
X106465000Y-114315000D01*
X106465000Y-114315000D02*
X106465000Y-113550000D01*
X106465000Y-113550000D02*
X106165000Y-113550000D01*
X93835000Y-113550000D02*
X93535000Y-113550000D01*
X93535000Y-113550000D02*
X93535000Y-114315000D01*
X93535000Y-114315000D02*
X91755000Y-114315000D01*
X91755000Y-114315000D02*
X91755000Y-115685000D01*
X91755000Y-115685000D02*
X93535000Y-115685000D01*
X93535000Y-115685000D02*
X93535000Y-116450000D01*
%LPC*%
D12*
X106000000Y-92000000D03*
D13*
X104750000Y-92000000D03*
X103500000Y-92000000D03*
X102250000Y-92000000D03*
X101000000Y-92000000D03*
X99750000Y-92000000D03*
X98500000Y-92000000D03*
X97250000Y-92000000D03*
X96000000Y-92000000D03*
X94750000Y-92000000D03*
D14*
X83635000Y-94285000D03*
X86365000Y-94285000D03*
X83635000Y-95555000D03*
X86365000Y-95555000D03*
X83635000Y-96825000D03*
X86365000Y-96825000D03*
X83635000Y-98095000D03*
X86365000Y-98095000D03*
X83635000Y-99365000D03*
X86365000Y-99365000D03*
X83635000Y-100635000D03*
X86365000Y-100635000D03*
X83635000Y-101905000D03*
X86365000Y-101905000D03*
X83635000Y-103175000D03*
X86365000Y-103175000D03*
X83635000Y-104445000D03*
X86365000Y-104445000D03*
X83635000Y-105715000D03*
X86365000Y-105715000D03*
D15*
X85000000Y-107305000D03*
X85000000Y-92695000D03*
D14*
X113635000Y-94285000D03*
X116365000Y-94285000D03*
X113635000Y-95555000D03*
X116365000Y-95555000D03*
X113635000Y-96825000D03*
X116365000Y-96825000D03*
X113635000Y-98095000D03*
X116365000Y-98095000D03*
X113635000Y-99365000D03*
X116365000Y-99365000D03*
X113635000Y-100635000D03*
X116365000Y-100635000D03*
X113635000Y-101905000D03*
X116365000Y-101905000D03*
X113635000Y-103175000D03*
X116365000Y-103175000D03*
X113635000Y-104445000D03*
X116365000Y-104445000D03*
X113635000Y-105715000D03*
X116365000Y-105715000D03*
D15*
X115000000Y-107305000D03*
X115000000Y-92695000D03*
D16*
X94285000Y-116365000D03*
X94285000Y-113635000D03*
X95555000Y-116365000D03*
X95555000Y-113635000D03*
X96825000Y-116365000D03*
X96825000Y-113635000D03*
X98095000Y-116365000D03*
X98095000Y-113635000D03*
X99365000Y-116365000D03*
X99365000Y-113635000D03*
X100635000Y-116365000D03*
X100635000Y-113635000D03*
X101905000Y-116365000D03*
X101905000Y-113635000D03*
X103175000Y-116365000D03*
X103175000Y-113635000D03*
X104445000Y-116365000D03*
X104445000Y-113635000D03*
X105715000Y-116365000D03*
X105715000Y-113635000D03*
D15*
X107305000Y-115000000D03*
X92695000Y-115000000D03*
D17*
X103500000Y-90000000D03*
X103500000Y-90900000D03*
X102250000Y-90000000D03*
X102250000Y-90900000D03*
X101000000Y-90000000D03*
X101000000Y-90900000D03*
X99750000Y-90000000D03*
X99750000Y-90900000D03*
X98500000Y-90000000D03*
X98500000Y-90900000D03*
M02*
