G04 #@! TF.FileFunction,Copper,L2,Bot,Signal*
%FSLAX46Y46*%
G04 Gerber Fmt 4.6, Leading zero omitted, Abs format (unit mm)*
G04 Created by KiCad (PCBNEW 4.0.2-4+6225~38~ubuntu14.04.1-stable) date Sun 08 May 2016 15:34:50 BST*
%MOMM*%
G01*
G04 APERTURE LIST*
%ADD10C,0.100000*%
%ADD11R,0.800000X0.800000*%
%ADD12O,0.800000X0.800000*%
%ADD13R,2.220000X0.740000*%
%ADD14R,0.740000X2.220000*%
%ADD15C,0.600000*%
%ADD16C,0.800000*%
%ADD17C,0.250000*%
%ADD18C,0.740000*%
%ADD19C,0.200000*%
G04 APERTURE END LIST*
D10*
D11*
X106000000Y-92000000D03*
D12*
X104750000Y-92000000D03*
X103500000Y-92000000D03*
X102250000Y-92000000D03*
X101000000Y-92000000D03*
X99750000Y-92000000D03*
X98500000Y-92000000D03*
X97250000Y-92000000D03*
X96000000Y-92000000D03*
X94750000Y-92000000D03*
D13*
X83635000Y-94285000D03*
X86365000Y-94285000D03*
X83635000Y-95555000D03*
X86365000Y-95555000D03*
X83635000Y-96825000D03*
X86365000Y-96825000D03*
X83635000Y-98095000D03*
X86365000Y-98095000D03*
X83635000Y-99365000D03*
X86365000Y-99365000D03*
X83635000Y-100635000D03*
X86365000Y-100635000D03*
X83635000Y-101905000D03*
X86365000Y-101905000D03*
X83635000Y-103175000D03*
X86365000Y-103175000D03*
X83635000Y-104445000D03*
X86365000Y-104445000D03*
X83635000Y-105715000D03*
X86365000Y-105715000D03*
X113635000Y-94285000D03*
X116365000Y-94285000D03*
X113635000Y-95555000D03*
X116365000Y-95555000D03*
X113635000Y-96825000D03*
X116365000Y-96825000D03*
X113635000Y-98095000D03*
X116365000Y-98095000D03*
X113635000Y-99365000D03*
X116365000Y-99365000D03*
X113635000Y-100635000D03*
X116365000Y-100635000D03*
X113635000Y-101905000D03*
X116365000Y-101905000D03*
X113635000Y-103175000D03*
X116365000Y-103175000D03*
X113635000Y-104445000D03*
X116365000Y-104445000D03*
X113635000Y-105715000D03*
X116365000Y-105715000D03*
D14*
X94285000Y-116365000D03*
X94285000Y-113635000D03*
X95555000Y-116365000D03*
X95555000Y-113635000D03*
X96825000Y-116365000D03*
X96825000Y-113635000D03*
X98095000Y-116365000D03*
X98095000Y-113635000D03*
X99365000Y-116365000D03*
X99365000Y-113635000D03*
X100635000Y-116365000D03*
X100635000Y-113635000D03*
X101905000Y-116365000D03*
X101905000Y-113635000D03*
X103175000Y-116365000D03*
X103175000Y-113635000D03*
X104445000Y-116365000D03*
X104445000Y-113635000D03*
X105715000Y-116365000D03*
X105715000Y-113635000D03*
D15*
X105650000Y-109850000D03*
D16*
X103175000Y-111825000D03*
D15*
X110000000Y-110000000D03*
X87500000Y-112500000D03*
X105000000Y-97500000D03*
X102000000Y-97500000D03*
X99000000Y-97500000D03*
X96000000Y-97500000D03*
X96000000Y-102000000D03*
X105000000Y-102000000D03*
X102000000Y-102000000D03*
X99000000Y-102000000D03*
X96000000Y-105000000D03*
X99000000Y-105000000D03*
X102000000Y-105000000D03*
X82500000Y-107500000D03*
X87500000Y-107500000D03*
X92500000Y-107500000D03*
X92500000Y-105000000D03*
X92500000Y-102500000D03*
X92500000Y-97500000D03*
X92500000Y-92500000D03*
X82500000Y-92500000D03*
X87500000Y-92500000D03*
X117500000Y-92500000D03*
X112500000Y-92500000D03*
X107500000Y-92500000D03*
X110000000Y-100000000D03*
X107500000Y-97500000D03*
X107500000Y-102500000D03*
X107500000Y-105000000D03*
X117500000Y-107500000D03*
X112500000Y-107500000D03*
X107500000Y-107500000D03*
X107500000Y-110000000D03*
X112500000Y-112500000D03*
X107500000Y-112500000D03*
X107500000Y-117500000D03*
X92500000Y-117500000D03*
X92500000Y-110000000D03*
X92500000Y-112500000D03*
X105000000Y-105000000D03*
X105000000Y-95000000D03*
X95000000Y-95000000D03*
X110000000Y-115000000D03*
X115000000Y-110000000D03*
X110000000Y-105000000D03*
X110000000Y-95000000D03*
X115000000Y-90000000D03*
X110000000Y-90000000D03*
X105000000Y-90000000D03*
X100000000Y-90000000D03*
X95000000Y-90000000D03*
X85000000Y-90000000D03*
X90000000Y-90000000D03*
X90000000Y-95000000D03*
X90000000Y-105000000D03*
X85000000Y-110000000D03*
X90000000Y-115000000D03*
X90000000Y-110000000D03*
D16*
X118185000Y-105715000D03*
X118185000Y-94285000D03*
X111815000Y-94285000D03*
X111815000Y-105715000D03*
X105715000Y-111815000D03*
X105715000Y-118185000D03*
X94285000Y-118185000D03*
X94285000Y-111815000D03*
X88185000Y-94285000D03*
X88185000Y-105715000D03*
X81815000Y-105715000D03*
X81815000Y-94285000D03*
D15*
X97550000Y-109450000D03*
X100000000Y-110000000D03*
D16*
X100635000Y-118135000D03*
X104445000Y-111855000D03*
D15*
X94750000Y-109250000D03*
X101300000Y-110600000D03*
D16*
X101905000Y-118195000D03*
X95555000Y-118155000D03*
X81845000Y-95555000D03*
X88155000Y-95555000D03*
X81825000Y-96825000D03*
X88175000Y-96825000D03*
X81895000Y-98095000D03*
X81835000Y-99365000D03*
X88165000Y-99365000D03*
X89250000Y-100000000D03*
X81865000Y-100635000D03*
X88165000Y-100635000D03*
X81805000Y-101905000D03*
X88195000Y-101905000D03*
X81825000Y-103175000D03*
X88125000Y-103175000D03*
X81845000Y-104445000D03*
X88155000Y-104445000D03*
X118155000Y-95555000D03*
X111845000Y-95555000D03*
X118125000Y-96825000D03*
X111875000Y-96825000D03*
X111805000Y-98095000D03*
X118195000Y-98095000D03*
X111865000Y-99365000D03*
X118165000Y-99365000D03*
X111835000Y-100635000D03*
X118135000Y-100635000D03*
X111805000Y-101905000D03*
X118105000Y-101905000D03*
X111825000Y-103175000D03*
X118175000Y-103175000D03*
X118145000Y-104445000D03*
X111845000Y-104445000D03*
X88195000Y-98095000D03*
X95555000Y-111845000D03*
X96825000Y-118175000D03*
X96825000Y-111825000D03*
X98095000Y-118195000D03*
X98095000Y-111905000D03*
X99365000Y-118165000D03*
X99365000Y-111835000D03*
X100635000Y-111835000D03*
X101905000Y-111805000D03*
X103175000Y-118175000D03*
X104445000Y-118155000D03*
D17*
X105650000Y-109850000D02*
X105150000Y-109850000D01*
X105150000Y-109850000D02*
X103175000Y-111825000D01*
D18*
X103175000Y-113635000D02*
X103175000Y-111825000D01*
D19*
X110000000Y-112500000D02*
X112500000Y-112500000D01*
X110000000Y-115000000D02*
X110000000Y-112500000D01*
X110000000Y-115000000D02*
X107500000Y-117500000D01*
X107500000Y-112500000D02*
X110000000Y-115000000D01*
X107500000Y-110000000D02*
X107500000Y-112500000D01*
X107500000Y-110000000D02*
X110000000Y-110000000D01*
X112500000Y-110000000D02*
X110000000Y-110000000D01*
X115000000Y-110000000D02*
X112500000Y-110000000D01*
X115000000Y-110000000D02*
X117500000Y-107500000D01*
X112500000Y-107500000D02*
X115000000Y-110000000D01*
X110000000Y-107500000D02*
X112500000Y-107500000D01*
X107500000Y-107500000D02*
X110000000Y-107500000D01*
X107500000Y-107500000D02*
X107500000Y-105000000D01*
X92500000Y-117500000D02*
X90000000Y-115000000D01*
X92500000Y-110000000D02*
X92500000Y-112500000D01*
X90000000Y-110000000D02*
X90000000Y-112500000D01*
X90000000Y-110000000D02*
X92500000Y-110000000D01*
X87500000Y-110000000D02*
X90000000Y-110000000D01*
X87500000Y-110000000D02*
X87500000Y-107500000D01*
X85000000Y-110000000D02*
X87500000Y-110000000D01*
X82500000Y-107500000D02*
X85000000Y-110000000D01*
X92500000Y-107500000D02*
X92500000Y-105000000D01*
X92500000Y-102500000D02*
X90000000Y-102500000D01*
X90000000Y-105000000D02*
X92500000Y-105000000D01*
X90000000Y-105000000D02*
X90000000Y-102500000D01*
X99000000Y-105000000D02*
X96000000Y-105000000D01*
X102000000Y-105000000D02*
X99000000Y-105000000D01*
X105000000Y-105000000D02*
X102000000Y-105000000D01*
X105000000Y-105000000D02*
X107500000Y-105000000D01*
X105000000Y-102000000D02*
X107000000Y-102000000D01*
X107000000Y-102000000D02*
X107500000Y-102500000D01*
X102000000Y-97500000D02*
X105000000Y-97500000D01*
X90000000Y-95000000D02*
X89285000Y-94285000D01*
X89285000Y-94285000D02*
X88185000Y-94285000D01*
X90000000Y-92500000D02*
X90000000Y-95000000D01*
X90000000Y-97500000D02*
X90000000Y-95000000D01*
X95000000Y-95000000D02*
X92500000Y-95000000D01*
X90000000Y-95000000D02*
X92500000Y-95000000D01*
X92500000Y-97500000D02*
X90000000Y-97500000D01*
X96000000Y-97500000D02*
X92500000Y-97500000D01*
X96000000Y-97500000D02*
X99000000Y-97500000D01*
X99000000Y-102000000D02*
X102000000Y-102000000D01*
X96000000Y-102000000D02*
X99000000Y-102000000D01*
X105000000Y-102000000D02*
X102000000Y-102000000D01*
X105000000Y-97500000D02*
X107500000Y-97500000D01*
X107500000Y-97500000D02*
X107500000Y-95000000D01*
X107500000Y-100000000D02*
X107500000Y-97500000D01*
X107500000Y-102500000D02*
X107500000Y-100000000D01*
X107500000Y-105000000D02*
X107500000Y-102500000D01*
X110000000Y-102500000D02*
X110000000Y-105000000D01*
X110000000Y-100000000D02*
X110000000Y-102500000D01*
X110000000Y-97500000D02*
X110000000Y-100000000D01*
X110000000Y-95000000D02*
X110000000Y-97500000D01*
X110000000Y-92500000D02*
X110000000Y-95000000D01*
X107500000Y-92500000D02*
X107500000Y-95000000D01*
X115000000Y-90000000D02*
X117500000Y-92500000D01*
X112500000Y-90000000D02*
X112500000Y-92500000D01*
X110000000Y-90000000D02*
X110000000Y-92500000D01*
X112500000Y-90000000D02*
X115000000Y-90000000D01*
X110000000Y-90000000D02*
X112500000Y-90000000D01*
X107500000Y-90000000D02*
X110000000Y-90000000D01*
X107500000Y-90000000D02*
X107500000Y-92500000D01*
X105000000Y-90000000D02*
X107500000Y-90000000D01*
X102500000Y-90000000D02*
X105000000Y-90000000D01*
X100000000Y-90000000D02*
X102500000Y-90000000D01*
X97500000Y-90000000D02*
X100000000Y-90000000D01*
X95000000Y-90000000D02*
X97500000Y-90000000D01*
X92500000Y-90000000D02*
X95000000Y-90000000D01*
X90000000Y-90000000D02*
X92500000Y-90000000D01*
X90000000Y-90000000D02*
X87500000Y-90000000D01*
X85000000Y-90000000D02*
X87500000Y-90000000D01*
X92500000Y-92500000D02*
X90000000Y-92500000D01*
X87500000Y-92500000D02*
X90000000Y-92500000D01*
X85000000Y-90000000D02*
X87500000Y-92500000D01*
X82500000Y-92500000D02*
X85000000Y-90000000D01*
D18*
X113635000Y-105715000D02*
X111815000Y-105715000D01*
X116365000Y-105715000D02*
X113635000Y-105715000D01*
X118185000Y-105715000D02*
X116365000Y-105715000D01*
X116365000Y-94285000D02*
X118185000Y-94285000D01*
X113635000Y-94285000D02*
X116365000Y-94285000D01*
X111815000Y-94285000D02*
X113635000Y-94285000D01*
X105715000Y-113635000D02*
X105715000Y-111815000D01*
X105715000Y-116365000D02*
X105715000Y-113635000D01*
X105715000Y-116365000D02*
X105715000Y-118185000D01*
X94285000Y-116365000D02*
X94285000Y-118185000D01*
X94285000Y-113635000D02*
X94285000Y-111815000D01*
X94285000Y-116365000D02*
X94285000Y-113635000D01*
X88185000Y-105715000D02*
X81815000Y-105715000D01*
X86365000Y-94285000D02*
X88185000Y-94285000D01*
X83635000Y-94285000D02*
X86365000Y-94285000D01*
X83635000Y-94285000D02*
X81815000Y-94285000D01*
D19*
X100000000Y-110000000D02*
X98100000Y-110000000D01*
X98100000Y-110000000D02*
X97550000Y-109450000D01*
D18*
X100635000Y-116365000D02*
X100635000Y-118135000D01*
X104445000Y-113635000D02*
X104445000Y-111855000D01*
D17*
X101300000Y-110600000D02*
X96100000Y-110600000D01*
X96100000Y-110600000D02*
X94750000Y-109250000D01*
D18*
X101905000Y-116365000D02*
X101905000Y-118195000D01*
X95555000Y-116365000D02*
X95555000Y-118155000D01*
X82345000Y-95555000D02*
X81845000Y-95555000D01*
X83635000Y-95555000D02*
X82345000Y-95555000D01*
X88155000Y-95555000D02*
X86365000Y-95555000D01*
X81825000Y-96825000D02*
X83635000Y-96825000D01*
X86365000Y-96825000D02*
X88175000Y-96825000D01*
X81895000Y-98095000D02*
X83635000Y-98095000D01*
X81835000Y-99365000D02*
X83635000Y-99365000D01*
X86365000Y-99365000D02*
X88165000Y-99365000D01*
X104750000Y-92000000D02*
X105350000Y-92000000D01*
X105350000Y-92000000D02*
X106000000Y-92000000D01*
X105350000Y-92650000D02*
X105350000Y-92000000D01*
X98000000Y-100000000D02*
X105350000Y-92650000D01*
X89250000Y-100000000D02*
X98000000Y-100000000D01*
D19*
X84415000Y-100635000D02*
X85050000Y-100000000D01*
X85050000Y-100000000D02*
X89250000Y-100000000D01*
X83635000Y-100635000D02*
X84415000Y-100635000D01*
D18*
X83635000Y-100635000D02*
X81865000Y-100635000D01*
X86365000Y-100635000D02*
X88165000Y-100635000D01*
X81805000Y-101905000D02*
X83635000Y-101905000D01*
X86365000Y-101905000D02*
X88195000Y-101905000D01*
X81825000Y-103175000D02*
X83635000Y-103175000D01*
X86365000Y-103175000D02*
X88125000Y-103175000D01*
X81845000Y-104445000D02*
X83635000Y-104445000D01*
X86365000Y-104445000D02*
X88155000Y-104445000D01*
X113635000Y-95555000D02*
X116365000Y-95555000D01*
X111845000Y-95555000D02*
X113635000Y-95555000D01*
X118155000Y-95555000D02*
X116365000Y-95555000D01*
X113635000Y-96825000D02*
X116365000Y-96825000D01*
X116365000Y-96825000D02*
X118125000Y-96825000D01*
X111875000Y-96825000D02*
X113635000Y-96825000D01*
X113635000Y-98095000D02*
X111805000Y-98095000D01*
X118195000Y-98095000D02*
X116365000Y-98095000D01*
X111865000Y-99365000D02*
X113635000Y-99365000D01*
X116365000Y-99365000D02*
X118165000Y-99365000D01*
X113635000Y-100635000D02*
X111835000Y-100635000D01*
X118135000Y-100635000D02*
X116365000Y-100635000D01*
X111805000Y-101905000D02*
X113635000Y-101905000D01*
X116365000Y-101905000D02*
X118105000Y-101905000D01*
X113635000Y-103175000D02*
X111825000Y-103175000D01*
X118175000Y-103175000D02*
X116365000Y-103175000D01*
X113635000Y-104445000D02*
X116365000Y-104445000D01*
X116365000Y-104445000D02*
X118145000Y-104445000D01*
X111845000Y-104445000D02*
X113635000Y-104445000D01*
X88195000Y-98095000D02*
X86365000Y-98095000D01*
X95555000Y-113635000D02*
X95555000Y-111845000D01*
X96825000Y-116365000D02*
X96825000Y-118175000D01*
X96825000Y-113635000D02*
X96825000Y-111825000D01*
X98095000Y-116365000D02*
X98095000Y-118195000D01*
X98095000Y-113635000D02*
X98095000Y-111905000D01*
X99365000Y-116365000D02*
X99365000Y-118165000D01*
X99365000Y-113635000D02*
X99365000Y-111835000D01*
X100635000Y-113635000D02*
X100635000Y-111835000D01*
X101905000Y-113635000D02*
X101905000Y-111805000D01*
X103175000Y-116365000D02*
X103175000Y-118175000D01*
X104445000Y-116365000D02*
X104445000Y-118155000D01*
D19*
X115004534Y-87375000D02*
X84979670Y-87375000D01*
X115108769Y-87524200D02*
X84859709Y-87524200D01*
X115213004Y-87673400D02*
X84739749Y-87673400D01*
X115317239Y-87822600D02*
X84619789Y-87822600D01*
X115421474Y-87971800D02*
X84499829Y-87971800D01*
X115525709Y-88121000D02*
X84379869Y-88121000D01*
X115629944Y-88270200D02*
X84280629Y-88270200D01*
X115734179Y-88419400D02*
X84189339Y-88419400D01*
X115838414Y-88568600D02*
X84098050Y-88568600D01*
X115942649Y-88717800D02*
X84006760Y-88717800D01*
X116046884Y-88867000D02*
X83915470Y-88867000D01*
X116151119Y-89016200D02*
X83824181Y-89016200D01*
X116255354Y-89165400D02*
X83732891Y-89165400D01*
X116359589Y-89314600D02*
X83641601Y-89314600D01*
X116463824Y-89463800D02*
X83550312Y-89463800D01*
X116568059Y-89613000D02*
X83459022Y-89613000D01*
X116672294Y-89762200D02*
X83367732Y-89762200D01*
X116776529Y-89911400D02*
X83276443Y-89911400D01*
X116880764Y-90060600D02*
X83185153Y-90060600D01*
X116984999Y-90209800D02*
X83093863Y-90209800D01*
X117089234Y-90359000D02*
X83002574Y-90359000D01*
X117161469Y-90508200D02*
X82911284Y-90508200D01*
X117227084Y-90657400D02*
X82819994Y-90657400D01*
X117292700Y-90806600D02*
X82728705Y-90806600D01*
X117358316Y-90955800D02*
X82637415Y-90955800D01*
X117423932Y-91105000D02*
X82546125Y-91105000D01*
X117489548Y-91254200D02*
X82454836Y-91254200D01*
X94385782Y-91403400D02*
X82363546Y-91403400D01*
X94760000Y-91403400D02*
X94740000Y-91403400D01*
X95635782Y-91403400D02*
X95114219Y-91403400D01*
X96010000Y-91403400D02*
X95990000Y-91403400D01*
X96885782Y-91403400D02*
X96364219Y-91403400D01*
X97260000Y-91403400D02*
X97240000Y-91403400D01*
X98134733Y-91403400D02*
X97614219Y-91403400D01*
X99384733Y-91403400D02*
X98864266Y-91403400D01*
X100634733Y-91403400D02*
X100114266Y-91403400D01*
X101884733Y-91403400D02*
X101364266Y-91403400D01*
X103134733Y-91403400D02*
X102614266Y-91403400D01*
X104384733Y-91403400D02*
X103864266Y-91403400D01*
X117555164Y-91403400D02*
X106627874Y-91403400D01*
X94215929Y-91552600D02*
X82299544Y-91552600D01*
X94760000Y-91552600D02*
X94740000Y-91552600D01*
X95465929Y-91552600D02*
X95284072Y-91552600D01*
X96010000Y-91552600D02*
X95990000Y-91552600D01*
X96715929Y-91552600D02*
X96534072Y-91552600D01*
X97260000Y-91552600D02*
X97240000Y-91552600D01*
X97962585Y-91552600D02*
X97784072Y-91552600D01*
X99212585Y-91552600D02*
X99037580Y-91552600D01*
X100462585Y-91552600D02*
X100287580Y-91552600D01*
X101712585Y-91552600D02*
X101537580Y-91552600D01*
X102962585Y-91552600D02*
X102787580Y-91552600D01*
X104212585Y-91552600D02*
X104037580Y-91552600D01*
X117620780Y-91552600D02*
X106697671Y-91552600D01*
X94118259Y-91701800D02*
X82244469Y-91701800D01*
X94760000Y-91701800D02*
X94740000Y-91701800D01*
X96010000Y-91701800D02*
X95990000Y-91701800D01*
X97260000Y-91701800D02*
X97240000Y-91701800D01*
X117686395Y-91701800D02*
X106701451Y-91701800D01*
X84686350Y-91851000D02*
X82189394Y-91851000D01*
X94066147Y-91851000D02*
X85314792Y-91851000D01*
X94760000Y-91851000D02*
X94740000Y-91851000D01*
X96010000Y-91851000D02*
X95990000Y-91851000D01*
X97260000Y-91851000D02*
X97240000Y-91851000D01*
X114686350Y-91851000D02*
X106701451Y-91851000D01*
X117752011Y-91851000D02*
X115314792Y-91851000D01*
X84423119Y-92000200D02*
X82134319Y-92000200D01*
X97280000Y-92000200D02*
X85578462Y-92000200D01*
X114423119Y-92000200D02*
X106701451Y-92000200D01*
X117817627Y-92000200D02*
X115578462Y-92000200D01*
X84282775Y-92149400D02*
X82079244Y-92149400D01*
X94066226Y-92149400D02*
X85718086Y-92149400D01*
X94760000Y-92149400D02*
X94740000Y-92149400D01*
X96010000Y-92149400D02*
X95990000Y-92149400D01*
X97260000Y-92149400D02*
X97240000Y-92149400D01*
X114282775Y-92149400D02*
X106701451Y-92149400D01*
X117883243Y-92149400D02*
X115718086Y-92149400D01*
X84190675Y-92298600D02*
X82024169Y-92298600D01*
X94118485Y-92298600D02*
X85810109Y-92298600D01*
X94760000Y-92298600D02*
X94740000Y-92298600D01*
X96010000Y-92298600D02*
X95990000Y-92298600D01*
X97260000Y-92298600D02*
X97240000Y-92298600D01*
X114190675Y-92298600D02*
X106701451Y-92298600D01*
X117948859Y-92298600D02*
X115810109Y-92298600D01*
X84132398Y-92447800D02*
X81969094Y-92447800D01*
X94216273Y-92447800D02*
X85868567Y-92447800D01*
X94760000Y-92447800D02*
X94740000Y-92447800D01*
X95466273Y-92447800D02*
X95283726Y-92447800D01*
X96010000Y-92447800D02*
X95990000Y-92447800D01*
X96716273Y-92447800D02*
X96533726Y-92447800D01*
X97260000Y-92447800D02*
X97240000Y-92447800D01*
X97962742Y-92447800D02*
X97783726Y-92447800D01*
X99212742Y-92447800D02*
X99037084Y-92447800D01*
X100462742Y-92447800D02*
X100287084Y-92447800D01*
X101712742Y-92447800D02*
X101537084Y-92447800D01*
X102962742Y-92447800D02*
X102787084Y-92447800D01*
X104212742Y-92447800D02*
X104037084Y-92447800D01*
X114132398Y-92447800D02*
X106694657Y-92447800D01*
X118014475Y-92447800D02*
X115868567Y-92447800D01*
X84101242Y-92597000D02*
X81914019Y-92597000D01*
X94386577Y-92597000D02*
X85898109Y-92597000D01*
X94760000Y-92597000D02*
X94740000Y-92597000D01*
X95636577Y-92597000D02*
X95113422Y-92597000D01*
X96010000Y-92597000D02*
X95990000Y-92597000D01*
X96886577Y-92597000D02*
X96363422Y-92597000D01*
X97260000Y-92597000D02*
X97240000Y-92597000D01*
X98136462Y-92597000D02*
X97613422Y-92597000D01*
X99386462Y-92597000D02*
X98864515Y-92597000D01*
X100636462Y-92597000D02*
X100114515Y-92597000D01*
X101886462Y-92597000D02*
X101364515Y-92597000D01*
X103136462Y-92597000D02*
X102614515Y-92597000D01*
X104386462Y-92597000D02*
X103864515Y-92597000D01*
X114101242Y-92597000D02*
X106624243Y-92597000D01*
X118080091Y-92597000D02*
X115898109Y-92597000D01*
X84099159Y-92746200D02*
X81858944Y-92746200D01*
X104306277Y-92746200D02*
X85898091Y-92746200D01*
X114099159Y-92746200D02*
X106010461Y-92746200D01*
X118145707Y-92746200D02*
X115898091Y-92746200D01*
X84121708Y-92895400D02*
X81803869Y-92895400D01*
X104157077Y-92895400D02*
X85877445Y-92895400D01*
X114121708Y-92895400D02*
X105972243Y-92895400D01*
X118211322Y-92895400D02*
X115877445Y-92895400D01*
X84170400Y-93044600D02*
X81748794Y-93044600D01*
X104007877Y-93044600D02*
X85829563Y-93044600D01*
X114170400Y-93044600D02*
X105889339Y-93044600D01*
X118276938Y-93044600D02*
X115829563Y-93044600D01*
X84250702Y-93193800D02*
X81693719Y-93193800D01*
X103858677Y-93193800D02*
X85749578Y-93193800D01*
X114250702Y-93193800D02*
X105753723Y-93193800D01*
X118342554Y-93193800D02*
X115749578Y-93193800D01*
X84374565Y-93343000D02*
X81638644Y-93343000D01*
X103709477Y-93343000D02*
X85624656Y-93343000D01*
X114374565Y-93343000D02*
X105604523Y-93343000D01*
X118408170Y-93343000D02*
X115624656Y-93343000D01*
X84576584Y-93492200D02*
X81583570Y-93492200D01*
X103560277Y-93492200D02*
X85423532Y-93492200D01*
X114576584Y-93492200D02*
X105455323Y-93492200D01*
X118473786Y-93492200D02*
X115423532Y-93492200D01*
X82401592Y-93641400D02*
X81528495Y-93641400D01*
X83693600Y-93641400D02*
X83576400Y-93641400D01*
X85131592Y-93641400D02*
X84868409Y-93641400D01*
X86423600Y-93641400D02*
X86306400Y-93641400D01*
X103411077Y-93641400D02*
X87598409Y-93641400D01*
X112401592Y-93641400D02*
X105306123Y-93641400D01*
X113693600Y-93641400D02*
X113576400Y-93641400D01*
X115131592Y-93641400D02*
X114868409Y-93641400D01*
X116423600Y-93641400D02*
X116306400Y-93641400D01*
X118539402Y-93641400D02*
X117598409Y-93641400D01*
X82251811Y-93790600D02*
X81473420Y-93790600D01*
X83645000Y-93790600D02*
X83625000Y-93790600D01*
X86375000Y-93790600D02*
X86355000Y-93790600D01*
X103261877Y-93790600D02*
X87748190Y-93790600D01*
X112251811Y-93790600D02*
X105156923Y-93790600D01*
X113645000Y-93790600D02*
X113625000Y-93790600D01*
X116375000Y-93790600D02*
X116355000Y-93790600D01*
X118605018Y-93790600D02*
X117748190Y-93790600D01*
X82225000Y-93939800D02*
X81418345Y-93939800D01*
X83645000Y-93939800D02*
X83625000Y-93939800D01*
X86375000Y-93939800D02*
X86355000Y-93939800D01*
X103112677Y-93939800D02*
X87775000Y-93939800D01*
X112225000Y-93939800D02*
X105007723Y-93939800D01*
X113645000Y-93939800D02*
X113625000Y-93939800D01*
X116375000Y-93939800D02*
X116355000Y-93939800D01*
X118659912Y-93939800D02*
X117775000Y-93939800D01*
X82225000Y-94089000D02*
X81363270Y-94089000D01*
X83645000Y-94089000D02*
X83625000Y-94089000D01*
X86375000Y-94089000D02*
X86355000Y-94089000D01*
X102963477Y-94089000D02*
X87775000Y-94089000D01*
X112225000Y-94089000D02*
X104858523Y-94089000D01*
X113645000Y-94089000D02*
X113625000Y-94089000D01*
X116375000Y-94089000D02*
X116355000Y-94089000D01*
X118693096Y-94089000D02*
X117775000Y-94089000D01*
X82263200Y-94238200D02*
X81308196Y-94238200D01*
X83645000Y-94238200D02*
X83625000Y-94238200D01*
X86375000Y-94238200D02*
X86355000Y-94238200D01*
X102814277Y-94238200D02*
X87736800Y-94238200D01*
X112263200Y-94238200D02*
X104709323Y-94238200D01*
X113645000Y-94238200D02*
X113625000Y-94238200D01*
X116375000Y-94238200D02*
X116355000Y-94238200D01*
X118726280Y-94238200D02*
X117736800Y-94238200D01*
X82225000Y-94387400D02*
X81253121Y-94387400D01*
X102665077Y-94387400D02*
X87775000Y-94387400D01*
X112225000Y-94387400D02*
X104560123Y-94387400D01*
X118759464Y-94387400D02*
X117775000Y-94387400D01*
X82225000Y-94536600D02*
X81198046Y-94536600D01*
X102515877Y-94536600D02*
X87775000Y-94536600D01*
X112225000Y-94536600D02*
X104410923Y-94536600D01*
X118792647Y-94536600D02*
X117775000Y-94536600D01*
X82225249Y-94685800D02*
X81142971Y-94685800D01*
X102366677Y-94685800D02*
X87774750Y-94685800D01*
X112225249Y-94685800D02*
X104261723Y-94685800D01*
X118825831Y-94685800D02*
X117774750Y-94685800D01*
X82284465Y-94835000D02*
X81087897Y-94835000D01*
X102217477Y-94835000D02*
X87715534Y-94835000D01*
X112284465Y-94835000D02*
X104112523Y-94835000D01*
X118859015Y-94835000D02*
X117715534Y-94835000D01*
X81438829Y-94984200D02*
X81032822Y-94984200D01*
X102068277Y-94984200D02*
X88560613Y-94984200D01*
X111438829Y-94984200D02*
X103963323Y-94984200D01*
X118892199Y-94984200D02*
X118560613Y-94984200D01*
X81285272Y-95133400D02*
X80998761Y-95133400D01*
X101919077Y-95133400D02*
X88715342Y-95133400D01*
X111285272Y-95133400D02*
X103814123Y-95133400D01*
X118925383Y-95133400D02*
X118715342Y-95133400D01*
X81200133Y-95282600D02*
X80974967Y-95282600D01*
X101769877Y-95282600D02*
X88799886Y-95282600D01*
X111200133Y-95282600D02*
X103664923Y-95282600D01*
X118958566Y-95282600D02*
X118799886Y-95282600D01*
X81155519Y-95431800D02*
X80951174Y-95431800D01*
X101620677Y-95431800D02*
X88844227Y-95431800D01*
X111155519Y-95431800D02*
X103515723Y-95431800D01*
X118991750Y-95431800D02*
X118844227Y-95431800D01*
X81144539Y-95581000D02*
X80927380Y-95581000D01*
X101471477Y-95581000D02*
X88853708Y-95581000D01*
X111144539Y-95581000D02*
X103366523Y-95581000D01*
X119024934Y-95581000D02*
X118853708Y-95581000D01*
X81165432Y-95730200D02*
X80903587Y-95730200D01*
X101322277Y-95730200D02*
X88833065Y-95730200D01*
X111165432Y-95730200D02*
X103217323Y-95730200D01*
X119058118Y-95730200D02*
X118833065Y-95730200D01*
X81221253Y-95879400D02*
X80879794Y-95879400D01*
X101173077Y-95879400D02*
X88776845Y-95879400D01*
X111221253Y-95879400D02*
X103068123Y-95879400D01*
X119091302Y-95879400D02*
X118776845Y-95879400D01*
X81329194Y-96028600D02*
X80856000Y-96028600D01*
X101023877Y-96028600D02*
X88672766Y-96028600D01*
X111329194Y-96028600D02*
X102918923Y-96028600D01*
X119124485Y-96028600D02*
X118672766Y-96028600D01*
X81521983Y-96177800D02*
X80832207Y-96177800D01*
X100874677Y-96177800D02*
X88480071Y-96177800D01*
X111521983Y-96177800D02*
X102769723Y-96177800D01*
X119157669Y-96177800D02*
X118480071Y-96177800D01*
X81333017Y-96327000D02*
X80808413Y-96327000D01*
X100725477Y-96327000D02*
X88667019Y-96327000D01*
X111383017Y-96327000D02*
X102620523Y-96327000D01*
X119190853Y-96327000D02*
X118617019Y-96327000D01*
X81215424Y-96476200D02*
X80784620Y-96476200D01*
X100576277Y-96476200D02*
X88783710Y-96476200D01*
X111265424Y-96476200D02*
X102471323Y-96476200D01*
X119224037Y-96476200D02*
X118733710Y-96476200D01*
X81151758Y-96625400D02*
X80760826Y-96625400D01*
X100427077Y-96625400D02*
X88849099Y-96625400D01*
X111201758Y-96625400D02*
X102322123Y-96625400D01*
X119257220Y-96625400D02*
X118799099Y-96625400D01*
X81125606Y-96774600D02*
X80737033Y-96774600D01*
X100277877Y-96774600D02*
X88874775Y-96774600D01*
X111175606Y-96774600D02*
X102172923Y-96774600D01*
X119290404Y-96774600D02*
X118824775Y-96774600D01*
X81131410Y-96923800D02*
X80713239Y-96923800D01*
X100128677Y-96923800D02*
X88870423Y-96923800D01*
X111181410Y-96923800D02*
X102023723Y-96923800D01*
X119323588Y-96923800D02*
X118820423Y-96923800D01*
X81170288Y-97073000D02*
X80689446Y-97073000D01*
X99979477Y-97073000D02*
X88830861Y-97073000D01*
X111220288Y-97073000D02*
X101874523Y-97073000D01*
X119356772Y-97073000D02*
X118780861Y-97073000D01*
X81248170Y-97222200D02*
X80665653Y-97222200D01*
X99830277Y-97222200D02*
X88751483Y-97222200D01*
X111298170Y-97222200D02*
X101725323Y-97222200D01*
X119389956Y-97222200D02*
X118701483Y-97222200D01*
X81384579Y-97371400D02*
X80641859Y-97371400D01*
X99681077Y-97371400D02*
X88616319Y-97371400D01*
X111434579Y-97371400D02*
X101576123Y-97371400D01*
X119423139Y-97371400D02*
X118566319Y-97371400D01*
X81494330Y-97520600D02*
X80618066Y-97520600D01*
X99531877Y-97520600D02*
X88595275Y-97520600D01*
X111404330Y-97520600D02*
X101426923Y-97520600D01*
X119456323Y-97520600D02*
X118595275Y-97520600D01*
X81337736Y-97669800D02*
X80594272Y-97669800D01*
X99382677Y-97669800D02*
X88752950Y-97669800D01*
X111247736Y-97669800D02*
X101277723Y-97669800D01*
X119481405Y-97669800D02*
X118752950Y-97669800D01*
X81251676Y-97819000D02*
X80570479Y-97819000D01*
X99233477Y-97819000D02*
X88838402Y-97819000D01*
X111161676Y-97819000D02*
X101128523Y-97819000D01*
X119484893Y-97819000D02*
X118838402Y-97819000D01*
X81206284Y-97968200D02*
X80546685Y-97968200D01*
X99084277Y-97968200D02*
X88883514Y-97968200D01*
X111116284Y-97968200D02*
X100979323Y-97968200D01*
X119488381Y-97968200D02*
X118883514Y-97968200D01*
X81194590Y-98117400D02*
X80522892Y-98117400D01*
X98935077Y-98117400D02*
X88893759Y-98117400D01*
X111104590Y-98117400D02*
X100830123Y-98117400D01*
X119491869Y-98117400D02*
X118893759Y-98117400D01*
X81214771Y-98266600D02*
X80499099Y-98266600D01*
X98785877Y-98266600D02*
X88873883Y-98266600D01*
X111124771Y-98266600D02*
X100680923Y-98266600D01*
X119495356Y-98266600D02*
X118873883Y-98266600D01*
X81269112Y-98415800D02*
X80475305Y-98415800D01*
X98636677Y-98415800D02*
X88818448Y-98415800D01*
X111179112Y-98415800D02*
X100531723Y-98415800D01*
X119498844Y-98415800D02*
X118818448Y-98415800D01*
X81375717Y-98565000D02*
X80451512Y-98565000D01*
X98487477Y-98565000D02*
X88716547Y-98565000D01*
X111285717Y-98565000D02*
X100382523Y-98565000D01*
X119502332Y-98565000D02*
X118716547Y-98565000D01*
X81563744Y-98714200D02*
X80427718Y-98714200D01*
X98338277Y-98714200D02*
X88525744Y-98714200D01*
X111473743Y-98714200D02*
X100233323Y-98714200D01*
X119505820Y-98714200D02*
X118525744Y-98714200D01*
X81346694Y-98863400D02*
X80413382Y-98863400D01*
X98189077Y-98863400D02*
X88653445Y-98863400D01*
X111376694Y-98863400D02*
X100084123Y-98863400D01*
X119509308Y-98863400D02*
X118653445Y-98863400D01*
X81227889Y-99012600D02*
X80418955Y-99012600D01*
X98039877Y-99012600D02*
X88771318Y-99012600D01*
X111257889Y-99012600D02*
X99934923Y-99012600D01*
X119512796Y-99012600D02*
X118771318Y-99012600D01*
X81162523Y-99161800D02*
X80424528Y-99161800D01*
X97890677Y-99161800D02*
X88838386Y-99161800D01*
X111192523Y-99161800D02*
X99785723Y-99161800D01*
X119516284Y-99161800D02*
X118838386Y-99161800D01*
X81135657Y-99311000D02*
X80430101Y-99311000D01*
X89126007Y-99311000D02*
X88864825Y-99311000D01*
X97741477Y-99311000D02*
X89374841Y-99311000D01*
X111165657Y-99311000D02*
X99636523Y-99311000D01*
X119519771Y-99311000D02*
X118864825Y-99311000D01*
X81140749Y-99460200D02*
X80435674Y-99460200D01*
X111170749Y-99460200D02*
X99487323Y-99460200D01*
X119523259Y-99460200D02*
X118861241Y-99460200D01*
X81178863Y-99609400D02*
X80441247Y-99609400D01*
X111208863Y-99609400D02*
X99338123Y-99609400D01*
X119526747Y-99609400D02*
X118822464Y-99609400D01*
X81255850Y-99758600D02*
X80446820Y-99758600D01*
X111285850Y-99758600D02*
X99188923Y-99758600D01*
X119530235Y-99758600D02*
X118744023Y-99758600D01*
X81389399Y-99907800D02*
X80452394Y-99907800D01*
X111419399Y-99907800D02*
X99039723Y-99907800D01*
X119533723Y-99907800D02*
X118610100Y-99907800D01*
X81469831Y-100057000D02*
X80457967Y-100057000D01*
X111439831Y-100057000D02*
X98890523Y-100057000D01*
X119537211Y-100057000D02*
X118529938Y-100057000D01*
X81310201Y-100206200D02*
X80463540Y-100206200D01*
X111280201Y-100206200D02*
X98741323Y-100206200D01*
X119540699Y-100206200D02*
X118690558Y-100206200D01*
X81223219Y-100355400D02*
X80469113Y-100355400D01*
X111193219Y-100355400D02*
X98592123Y-100355400D01*
X119544186Y-100355400D02*
X118776918Y-100355400D01*
X81177049Y-100504600D02*
X80474686Y-100504600D01*
X111147049Y-100504600D02*
X98436699Y-100504600D01*
X119547674Y-100504600D02*
X118822801Y-100504600D01*
X81164640Y-100653800D02*
X80480259Y-100653800D01*
X88997939Y-100653800D02*
X88863809Y-100653800D01*
X111134640Y-100653800D02*
X98141531Y-100653800D01*
X119551162Y-100653800D02*
X118833809Y-100653800D01*
X81184111Y-100803000D02*
X80485832Y-100803000D01*
X111154111Y-100803000D02*
X88844700Y-100803000D01*
X119554650Y-100803000D02*
X118814700Y-100803000D01*
X81237686Y-100952200D02*
X80491405Y-100952200D01*
X111207686Y-100952200D02*
X88790051Y-100952200D01*
X119558138Y-100952200D02*
X118760051Y-100952200D01*
X81342241Y-101101400D02*
X80496978Y-101101400D01*
X111312241Y-101101400D02*
X88690327Y-101101400D01*
X119561626Y-101101400D02*
X118660327Y-101101400D01*
X81525503Y-101250600D02*
X80502551Y-101250600D01*
X111495503Y-101250600D02*
X88501417Y-101250600D01*
X119565113Y-101250600D02*
X118471417Y-101250600D01*
X81320370Y-101399800D02*
X80508124Y-101399800D01*
X111320370Y-101399800D02*
X88679870Y-101399800D01*
X119568601Y-101399800D02*
X118589870Y-101399800D01*
X81200354Y-101549000D02*
X80513697Y-101549000D01*
X111200354Y-101549000D02*
X88798926Y-101549000D01*
X119554150Y-101549000D02*
X118708926Y-101549000D01*
X81133288Y-101698200D02*
X80519270Y-101698200D01*
X111133288Y-101698200D02*
X88866924Y-101698200D01*
X119528216Y-101698200D02*
X118776924Y-101698200D01*
X81105707Y-101847400D02*
X80524843Y-101847400D01*
X111105707Y-101847400D02*
X88894875Y-101847400D01*
X119502281Y-101847400D02*
X118804875Y-101847400D01*
X81110089Y-101996600D02*
X80530416Y-101996600D01*
X111110089Y-101996600D02*
X88892058Y-101996600D01*
X119476347Y-101996600D02*
X118802058Y-101996600D01*
X81147437Y-102145800D02*
X80535989Y-102145800D01*
X111147437Y-102145800D02*
X88854066Y-102145800D01*
X119450412Y-102145800D02*
X118764066Y-102145800D01*
X81223530Y-102295000D02*
X80541562Y-102295000D01*
X111223530Y-102295000D02*
X88776562Y-102295000D01*
X119424478Y-102295000D02*
X118686562Y-102295000D01*
X81354220Y-102444200D02*
X80547135Y-102444200D01*
X111354220Y-102444200D02*
X88643880Y-102444200D01*
X119398543Y-102444200D02*
X118553880Y-102444200D01*
X81435333Y-102593400D02*
X80552708Y-102593400D01*
X111435333Y-102593400D02*
X88514601Y-102593400D01*
X119372609Y-102593400D02*
X118564601Y-102593400D01*
X81272666Y-102742600D02*
X80578245Y-102742600D01*
X111272666Y-102742600D02*
X88678166Y-102742600D01*
X119346674Y-102742600D02*
X118728166Y-102742600D01*
X81184762Y-102891800D02*
X80613622Y-102891800D01*
X111184762Y-102891800D02*
X88765435Y-102891800D01*
X119320740Y-102891800D02*
X118815435Y-102891800D01*
X81137814Y-103041000D02*
X80648999Y-103041000D01*
X111137814Y-103041000D02*
X88812089Y-103041000D01*
X119294805Y-103041000D02*
X118862089Y-103041000D01*
X81124690Y-103190200D02*
X80684376Y-103190200D01*
X111124690Y-103190200D02*
X88823859Y-103190200D01*
X119268871Y-103190200D02*
X118873859Y-103190200D01*
X81143450Y-103339400D02*
X80719753Y-103339400D01*
X111143450Y-103339400D02*
X88805518Y-103339400D01*
X119242936Y-103339400D02*
X118855518Y-103339400D01*
X81196261Y-103488600D02*
X80755130Y-103488600D01*
X111196261Y-103488600D02*
X88751654Y-103488600D01*
X119217001Y-103488600D02*
X118801654Y-103488600D01*
X81298764Y-103637800D02*
X80790507Y-103637800D01*
X111298764Y-103637800D02*
X88654108Y-103637800D01*
X119191067Y-103637800D02*
X118704108Y-103637800D01*
X81478965Y-103787000D02*
X80825884Y-103787000D01*
X111478965Y-103787000D02*
X88467090Y-103787000D01*
X119165132Y-103787000D02*
X118517090Y-103787000D01*
X81364046Y-103936200D02*
X80861261Y-103936200D01*
X111364046Y-103936200D02*
X88636295Y-103936200D01*
X119139198Y-103936200D02*
X118626295Y-103936200D01*
X81242819Y-104085400D02*
X80896638Y-104085400D01*
X111242819Y-104085400D02*
X88756534Y-104085400D01*
X119113263Y-104085400D02*
X118746534Y-104085400D01*
X81174053Y-104234600D02*
X80932015Y-104234600D01*
X111174053Y-104234600D02*
X88825441Y-104234600D01*
X119087329Y-104234600D02*
X118815441Y-104234600D01*
X81145757Y-104383800D02*
X80967392Y-104383800D01*
X111145757Y-104383800D02*
X88854926Y-104383800D01*
X119061394Y-104383800D02*
X118844926Y-104383800D01*
X81149428Y-104533000D02*
X81002769Y-104533000D01*
X111149428Y-104533000D02*
X88852843Y-104533000D01*
X119035460Y-104533000D02*
X118842843Y-104533000D01*
X81186012Y-104682200D02*
X81038146Y-104682200D01*
X111186012Y-104682200D02*
X88815669Y-104682200D01*
X119009525Y-104682200D02*
X118805669Y-104682200D01*
X81261210Y-104831400D02*
X81073523Y-104831400D01*
X111261210Y-104831400D02*
X88739102Y-104831400D01*
X118983591Y-104831400D02*
X118729102Y-104831400D01*
X81389066Y-104980600D02*
X81108900Y-104980600D01*
X111389066Y-104980600D02*
X88607660Y-104980600D01*
X118957656Y-104980600D02*
X118597660Y-104980600D01*
X81699681Y-105129800D02*
X81144277Y-105129800D01*
X82315936Y-105129800D02*
X81992618Y-105129800D01*
X88009681Y-105129800D02*
X87684064Y-105129800D01*
X111699681Y-105129800D02*
X88302618Y-105129800D01*
X112315936Y-105129800D02*
X111992618Y-105129800D01*
X117999681Y-105129800D02*
X117684064Y-105129800D01*
X118931722Y-105129800D02*
X118292618Y-105129800D01*
X82232252Y-105279000D02*
X81179654Y-105279000D01*
X112232252Y-105279000D02*
X87767749Y-105279000D01*
X118895735Y-105279000D02*
X117767749Y-105279000D01*
X82225000Y-105428200D02*
X81215031Y-105428200D01*
X112225000Y-105428200D02*
X87775000Y-105428200D01*
X118838280Y-105428200D02*
X117775000Y-105428200D01*
X82225000Y-105577400D02*
X81250408Y-105577400D01*
X112225000Y-105577400D02*
X87775000Y-105577400D01*
X118780826Y-105577400D02*
X117775000Y-105577400D01*
X82298400Y-105726600D02*
X81285786Y-105726600D01*
X83645000Y-105726600D02*
X83625000Y-105726600D01*
X85028400Y-105726600D02*
X84971600Y-105726600D01*
X86375000Y-105726600D02*
X86355000Y-105726600D01*
X112298400Y-105726600D02*
X87701600Y-105726600D01*
X113645000Y-105726600D02*
X113625000Y-105726600D01*
X115028400Y-105726600D02*
X114971600Y-105726600D01*
X116375000Y-105726600D02*
X116355000Y-105726600D01*
X118723371Y-105726600D02*
X117701600Y-105726600D01*
X82225000Y-105875800D02*
X81321163Y-105875800D01*
X83645000Y-105875800D02*
X83625000Y-105875800D01*
X86375000Y-105875800D02*
X86355000Y-105875800D01*
X112225000Y-105875800D02*
X87775000Y-105875800D01*
X113645000Y-105875800D02*
X113625000Y-105875800D01*
X116375000Y-105875800D02*
X116355000Y-105875800D01*
X118665917Y-105875800D02*
X117775000Y-105875800D01*
X82225000Y-106025000D02*
X81356539Y-106025000D01*
X83645000Y-106025000D02*
X83625000Y-106025000D01*
X86375000Y-106025000D02*
X86355000Y-106025000D01*
X112225000Y-106025000D02*
X87775000Y-106025000D01*
X113645000Y-106025000D02*
X113625000Y-106025000D01*
X116375000Y-106025000D02*
X116355000Y-106025000D01*
X118608463Y-106025000D02*
X117775000Y-106025000D01*
X82237230Y-106174200D02*
X81391916Y-106174200D01*
X83645000Y-106174200D02*
X83625000Y-106174200D01*
X86375000Y-106174200D02*
X86355000Y-106174200D01*
X112237230Y-106174200D02*
X87762769Y-106174200D01*
X113645000Y-106174200D02*
X113625000Y-106174200D01*
X116375000Y-106174200D02*
X116355000Y-106174200D01*
X118551008Y-106174200D02*
X117762769Y-106174200D01*
X82341805Y-106323400D02*
X81427293Y-106323400D01*
X83658400Y-106323400D02*
X83611600Y-106323400D01*
X85071805Y-106323400D02*
X84928194Y-106323400D01*
X86388400Y-106323400D02*
X86341600Y-106323400D01*
X112341805Y-106323400D02*
X87658194Y-106323400D01*
X113658400Y-106323400D02*
X113611600Y-106323400D01*
X115071805Y-106323400D02*
X114928194Y-106323400D01*
X116388400Y-106323400D02*
X116341600Y-106323400D01*
X118493554Y-106323400D02*
X117658194Y-106323400D01*
X84657639Y-106472600D02*
X81485337Y-106472600D01*
X114657639Y-106472600D02*
X85342387Y-106472600D01*
X118436099Y-106472600D02*
X115342387Y-106472600D01*
X84411273Y-106621800D02*
X81553455Y-106621800D01*
X114411273Y-106621800D02*
X85589982Y-106621800D01*
X118378645Y-106621800D02*
X115589982Y-106621800D01*
X84274832Y-106771000D02*
X81621572Y-106771000D01*
X114274832Y-106771000D02*
X85725793Y-106771000D01*
X118321190Y-106771000D02*
X115725793Y-106771000D01*
X84185703Y-106920200D02*
X81689690Y-106920200D01*
X114185703Y-106920200D02*
X85814890Y-106920200D01*
X118263736Y-106920200D02*
X115814890Y-106920200D01*
X84129932Y-107069400D02*
X81757808Y-107069400D01*
X114129932Y-107069400D02*
X85870863Y-107069400D01*
X118206282Y-107069400D02*
X115870863Y-107069400D01*
X84101080Y-107218600D02*
X81825925Y-107218600D01*
X114101080Y-107218600D02*
X85900013Y-107218600D01*
X118148827Y-107218600D02*
X115900013Y-107218600D01*
X84098997Y-107367800D02*
X81894043Y-107367800D01*
X114098997Y-107367800D02*
X85897929Y-107367800D01*
X118091373Y-107367800D02*
X115897929Y-107367800D01*
X84123837Y-107517000D02*
X81962160Y-107517000D01*
X114123837Y-107517000D02*
X85874810Y-107517000D01*
X118033918Y-107517000D02*
X115874810Y-107517000D01*
X84174992Y-107666200D02*
X82030278Y-107666200D01*
X114174992Y-107666200D02*
X85824398Y-107666200D01*
X117976464Y-107666200D02*
X115824398Y-107666200D01*
X84258177Y-107815400D02*
X82098395Y-107815400D01*
X114258177Y-107815400D02*
X85741395Y-107815400D01*
X117919010Y-107815400D02*
X115741395Y-107815400D01*
X84385767Y-107964600D02*
X82166513Y-107964600D01*
X114385767Y-107964600D02*
X85612475Y-107964600D01*
X117861555Y-107964600D02*
X115612475Y-107964600D01*
X84603135Y-108113800D02*
X82234630Y-108113800D01*
X114603135Y-108113800D02*
X85403664Y-108113800D01*
X117804101Y-108113800D02*
X115403664Y-108113800D01*
X117746646Y-108263000D02*
X82302748Y-108263000D01*
X117689192Y-108412200D02*
X82370865Y-108412200D01*
X117631737Y-108561400D02*
X82438983Y-108561400D01*
X94483313Y-108710600D02*
X82507100Y-108710600D01*
X117574283Y-108710600D02*
X95015210Y-108710600D01*
X94290868Y-108859800D02*
X82575218Y-108859800D01*
X97441773Y-108859800D02*
X95208132Y-108859800D01*
X117503475Y-108859800D02*
X97658815Y-108859800D01*
X94200478Y-109009000D02*
X82643336Y-109009000D01*
X97142743Y-109009000D02*
X95299663Y-109009000D01*
X117409297Y-109009000D02*
X97957686Y-109009000D01*
X94156082Y-109158200D02*
X82711453Y-109158200D01*
X97022596Y-109158200D02*
X95343499Y-109158200D01*
X117315120Y-109158200D02*
X98076516Y-109158200D01*
X94150486Y-109307400D02*
X82779571Y-109307400D01*
X96966880Y-109307400D02*
X95408441Y-109307400D01*
X105391233Y-109307400D02*
X98133440Y-109307400D01*
X117220942Y-109307400D02*
X105907597Y-109307400D01*
X94186454Y-109456600D02*
X82847688Y-109456600D01*
X96949824Y-109456600D02*
X95557641Y-109456600D01*
X99743213Y-109456600D02*
X98149112Y-109456600D01*
X104989595Y-109456600D02*
X100255694Y-109456600D01*
X117126765Y-109456600D02*
X106104955Y-109456600D01*
X94265462Y-109605800D02*
X82915805Y-109605800D01*
X96968546Y-109605800D02*
X95706841Y-109605800D01*
X104793160Y-109605800D02*
X100454160Y-109605800D01*
X117032587Y-109605800D02*
X106198344Y-109605800D01*
X94425239Y-109755000D02*
X82983923Y-109755000D01*
X97032724Y-109755000D02*
X95856041Y-109755000D01*
X104643960Y-109755000D02*
X100548014Y-109755000D01*
X116938409Y-109755000D02*
X106242865Y-109755000D01*
X94803159Y-109904200D02*
X83065418Y-109904200D01*
X97154482Y-109904200D02*
X96005241Y-109904200D01*
X104494760Y-109904200D02*
X100592707Y-109904200D01*
X116844232Y-109904200D02*
X106248447Y-109904200D01*
X94952359Y-110053400D02*
X83172784Y-110053400D01*
X97587714Y-110053400D02*
X96154441Y-110053400D01*
X101051134Y-110053400D02*
X100598458Y-110053400D01*
X104345560Y-110053400D02*
X101548081Y-110053400D01*
X116750054Y-110053400D02*
X106216250Y-110053400D01*
X95101559Y-110202600D02*
X83280150Y-110202600D01*
X104196360Y-110202600D02*
X101750982Y-110202600D01*
X116655876Y-110202600D02*
X106135563Y-110202600D01*
X95250759Y-110351800D02*
X83387516Y-110351800D01*
X104047160Y-110351800D02*
X101846695Y-110351800D01*
X105320635Y-110351800D02*
X105249240Y-110351800D01*
X116561699Y-110351800D02*
X105979102Y-110351800D01*
X95399959Y-110501000D02*
X83494881Y-110501000D01*
X103897960Y-110501000D02*
X101892073Y-110501000D01*
X116467521Y-110501000D02*
X105100040Y-110501000D01*
X95549159Y-110650200D02*
X83602247Y-110650200D01*
X103748760Y-110650200D02*
X101898503Y-110650200D01*
X116373343Y-110650200D02*
X104950840Y-110650200D01*
X95698359Y-110799400D02*
X83709613Y-110799400D01*
X103599560Y-110799400D02*
X101868031Y-110799400D01*
X116279166Y-110799400D02*
X104801640Y-110799400D01*
X95857418Y-110948600D02*
X83816979Y-110948600D01*
X103450360Y-110948600D02*
X101788385Y-110948600D01*
X116184988Y-110948600D02*
X104652440Y-110948600D01*
X100964880Y-111097800D02*
X83924344Y-111097800D01*
X103301160Y-111097800D02*
X101635405Y-111097800D01*
X116090810Y-111097800D02*
X104503240Y-111097800D01*
X95190395Y-111247000D02*
X84031710Y-111247000D01*
X96429831Y-111247000D02*
X95920287Y-111247000D01*
X97854901Y-111247000D02*
X97219938Y-111247000D01*
X98985113Y-111247000D02*
X98336136Y-111247000D01*
X100255113Y-111247000D02*
X99745112Y-111247000D01*
X101479268Y-111247000D02*
X101015112Y-111247000D01*
X102779831Y-111247000D02*
X102329589Y-111247000D01*
X115996633Y-111247000D02*
X104795461Y-111247000D01*
X95013896Y-111396200D02*
X84139076Y-111396200D01*
X96270201Y-111396200D02*
X96095877Y-111396200D01*
X97614046Y-111396200D02*
X97380558Y-111396200D01*
X98817049Y-111396200D02*
X98576295Y-111396200D01*
X100087049Y-111396200D02*
X99913914Y-111396200D01*
X101336507Y-111396200D02*
X101183914Y-111396200D01*
X102620201Y-111396200D02*
X102473846Y-111396200D01*
X115902455Y-111396200D02*
X104975947Y-111396200D01*
X94921791Y-111545400D02*
X84246442Y-111545400D01*
X97492819Y-111545400D02*
X97466918Y-111545400D01*
X98727505Y-111545400D02*
X98696535Y-111545400D01*
X115808278Y-111545400D02*
X105074553Y-111545400D01*
X94871300Y-111694600D02*
X84353808Y-111694600D01*
X115714100Y-111694600D02*
X105126861Y-111694600D01*
X94854919Y-111843800D02*
X84461173Y-111843800D01*
X115619922Y-111843800D02*
X105144228Y-111843800D01*
X94870440Y-111993000D02*
X84568539Y-111993000D01*
X115525745Y-111993000D02*
X105131516Y-111993000D01*
X94885000Y-112142200D02*
X84675905Y-112142200D01*
X115400577Y-112142200D02*
X105115000Y-112142200D01*
X93724622Y-112291400D02*
X84783271Y-112291400D01*
X94303600Y-112291400D02*
X94266400Y-112291400D01*
X94885000Y-112291400D02*
X94845379Y-112291400D01*
X105154622Y-112291400D02*
X105115000Y-112291400D01*
X105733600Y-112291400D02*
X105696400Y-112291400D01*
X115259185Y-112291400D02*
X106275379Y-112291400D01*
X93625911Y-112440600D02*
X84890636Y-112440600D01*
X94295000Y-112440600D02*
X94275000Y-112440600D01*
X105725000Y-112440600D02*
X105705000Y-112440600D01*
X115117794Y-112440600D02*
X106374090Y-112440600D01*
X93615000Y-112589800D02*
X84998002Y-112589800D01*
X94295000Y-112589800D02*
X94275000Y-112589800D01*
X105725000Y-112589800D02*
X105705000Y-112589800D01*
X114976402Y-112589800D02*
X106385000Y-112589800D01*
X93615000Y-112739000D02*
X85105368Y-112739000D01*
X94295000Y-112739000D02*
X94275000Y-112739000D01*
X105725000Y-112739000D02*
X105705000Y-112739000D01*
X114835010Y-112739000D02*
X106385000Y-112739000D01*
X93615000Y-112888200D02*
X85212734Y-112888200D01*
X94295000Y-112888200D02*
X94275000Y-112888200D01*
X105725000Y-112888200D02*
X105705000Y-112888200D01*
X114693618Y-112888200D02*
X106385000Y-112888200D01*
X93615000Y-113037400D02*
X85346499Y-113037400D01*
X94295000Y-113037400D02*
X94275000Y-113037400D01*
X105725000Y-113037400D02*
X105705000Y-113037400D01*
X114552226Y-113037400D02*
X106385000Y-113037400D01*
X93615000Y-113186600D02*
X85506156Y-113186600D01*
X94295000Y-113186600D02*
X94275000Y-113186600D01*
X105725000Y-113186600D02*
X105705000Y-113186600D01*
X114410834Y-113186600D02*
X106385000Y-113186600D01*
X93615000Y-113335800D02*
X85665813Y-113335800D01*
X94295000Y-113335800D02*
X94275000Y-113335800D01*
X105725000Y-113335800D02*
X105705000Y-113335800D01*
X114269442Y-113335800D02*
X106385000Y-113335800D01*
X93615000Y-113485000D02*
X85825471Y-113485000D01*
X94295000Y-113485000D02*
X94275000Y-113485000D01*
X105725000Y-113485000D02*
X105705000Y-113485000D01*
X114128050Y-113485000D02*
X106385000Y-113485000D01*
X94315000Y-113634200D02*
X85985128Y-113634200D01*
X113986658Y-113634200D02*
X105685000Y-113634200D01*
X93615000Y-113783400D02*
X86144785Y-113783400D01*
X94295000Y-113783400D02*
X94275000Y-113783400D01*
X105725000Y-113783400D02*
X105705000Y-113783400D01*
X113845266Y-113783400D02*
X106385000Y-113783400D01*
X93615000Y-113932600D02*
X86304442Y-113932600D01*
X94295000Y-113932600D02*
X94275000Y-113932600D01*
X105725000Y-113932600D02*
X105705000Y-113932600D01*
X113703874Y-113932600D02*
X106385000Y-113932600D01*
X93615000Y-114081800D02*
X86464099Y-114081800D01*
X94295000Y-114081800D02*
X94275000Y-114081800D01*
X105725000Y-114081800D02*
X105705000Y-114081800D01*
X113562482Y-114081800D02*
X106385000Y-114081800D01*
X92226439Y-114231000D02*
X86623756Y-114231000D01*
X93615000Y-114231000D02*
X93164444Y-114231000D01*
X94295000Y-114231000D02*
X94275000Y-114231000D01*
X105725000Y-114231000D02*
X105705000Y-114231000D01*
X106836439Y-114231000D02*
X106385000Y-114231000D01*
X113421091Y-114231000D02*
X107774444Y-114231000D01*
X92041531Y-114380200D02*
X86783413Y-114380200D01*
X93615000Y-114380200D02*
X93347940Y-114380200D01*
X94295000Y-114380200D02*
X94275000Y-114380200D01*
X105725000Y-114380200D02*
X105705000Y-114380200D01*
X106651531Y-114380200D02*
X106385000Y-114380200D01*
X113279699Y-114380200D02*
X107957940Y-114380200D01*
X91926421Y-114529400D02*
X86943070Y-114529400D01*
X93615000Y-114529400D02*
X93462916Y-114529400D01*
X94295000Y-114529400D02*
X94275000Y-114529400D01*
X105725000Y-114529400D02*
X105705000Y-114529400D01*
X106536421Y-114529400D02*
X106385000Y-114529400D01*
X113138307Y-114529400D02*
X108072916Y-114529400D01*
X91853529Y-114678600D02*
X87102727Y-114678600D01*
X93615000Y-114678600D02*
X93536022Y-114678600D01*
X94295000Y-114678600D02*
X94275000Y-114678600D01*
X105725000Y-114678600D02*
X105705000Y-114678600D01*
X106463529Y-114678600D02*
X106385000Y-114678600D01*
X112996915Y-114678600D02*
X108146022Y-114678600D01*
X91811456Y-114827800D02*
X87262384Y-114827800D01*
X93625592Y-114827800D02*
X93578417Y-114827800D01*
X94295000Y-114827800D02*
X94275000Y-114827800D01*
X105725000Y-114827800D02*
X105705000Y-114827800D01*
X106421456Y-114827800D02*
X106374407Y-114827800D01*
X112853875Y-114827800D02*
X108188417Y-114827800D01*
X91795195Y-114977000D02*
X87422041Y-114977000D01*
X93722736Y-114977000D02*
X93594127Y-114977000D01*
X94302000Y-114977000D02*
X94268000Y-114977000D01*
X105732000Y-114977000D02*
X105698000Y-114977000D01*
X106405195Y-114977000D02*
X106277264Y-114977000D01*
X112643458Y-114977000D02*
X108204127Y-114977000D01*
X91803090Y-115126200D02*
X87581698Y-115126200D01*
X93643634Y-115126200D02*
X93589303Y-115126200D01*
X94295000Y-115126200D02*
X94275000Y-115126200D01*
X105725000Y-115126200D02*
X105705000Y-115126200D01*
X106413090Y-115126200D02*
X106356367Y-115126200D01*
X112433040Y-115126200D02*
X108199303Y-115126200D01*
X91836022Y-115275400D02*
X87741355Y-115275400D01*
X93615000Y-115275400D02*
X93555406Y-115275400D01*
X94295000Y-115275400D02*
X94275000Y-115275400D01*
X105725000Y-115275400D02*
X105705000Y-115275400D01*
X106446022Y-115275400D02*
X106385000Y-115275400D01*
X112222622Y-115275400D02*
X108165406Y-115275400D01*
X91897883Y-115424600D02*
X87901011Y-115424600D01*
X93615000Y-115424600D02*
X93491171Y-115424600D01*
X94295000Y-115424600D02*
X94275000Y-115424600D01*
X105725000Y-115424600D02*
X105705000Y-115424600D01*
X106507883Y-115424600D02*
X106385000Y-115424600D01*
X112012204Y-115424600D02*
X108101171Y-115424600D01*
X91997911Y-115573800D02*
X88060668Y-115573800D01*
X93615000Y-115573800D02*
X93391671Y-115573800D01*
X94295000Y-115573800D02*
X94275000Y-115573800D01*
X105725000Y-115573800D02*
X105705000Y-115573800D01*
X106607911Y-115573800D02*
X106385000Y-115573800D01*
X111801786Y-115573800D02*
X108001671Y-115573800D01*
X92158219Y-115723000D02*
X88298964Y-115723000D01*
X93615000Y-115723000D02*
X93235453Y-115723000D01*
X94295000Y-115723000D02*
X94275000Y-115723000D01*
X105725000Y-115723000D02*
X105705000Y-115723000D01*
X106768219Y-115723000D02*
X106385000Y-115723000D01*
X111591369Y-115723000D02*
X107845453Y-115723000D01*
X92470605Y-115872200D02*
X88539029Y-115872200D01*
X93615000Y-115872200D02*
X92931626Y-115872200D01*
X94295000Y-115872200D02*
X94275000Y-115872200D01*
X105725000Y-115872200D02*
X105705000Y-115872200D01*
X107080605Y-115872200D02*
X106385000Y-115872200D01*
X111380951Y-115872200D02*
X107541626Y-115872200D01*
X93615000Y-116021400D02*
X88779095Y-116021400D01*
X94295000Y-116021400D02*
X94275000Y-116021400D01*
X105725000Y-116021400D02*
X105705000Y-116021400D01*
X111170533Y-116021400D02*
X106385000Y-116021400D01*
X93615000Y-116170600D02*
X89019160Y-116170600D01*
X94295000Y-116170600D02*
X94275000Y-116170600D01*
X105725000Y-116170600D02*
X105705000Y-116170600D01*
X110960115Y-116170600D02*
X106385000Y-116170600D01*
X93654800Y-116319800D02*
X89259225Y-116319800D01*
X94295000Y-116319800D02*
X94275000Y-116319800D01*
X105725000Y-116319800D02*
X105705000Y-116319800D01*
X110749697Y-116319800D02*
X106345200Y-116319800D01*
X93615000Y-116469000D02*
X89499291Y-116469000D01*
X94295000Y-116469000D02*
X94275000Y-116469000D01*
X105725000Y-116469000D02*
X105705000Y-116469000D01*
X110539280Y-116469000D02*
X106385000Y-116469000D01*
X93615000Y-116618200D02*
X89739356Y-116618200D01*
X94295000Y-116618200D02*
X94275000Y-116618200D01*
X105725000Y-116618200D02*
X105705000Y-116618200D01*
X110328862Y-116618200D02*
X106385000Y-116618200D01*
X93615000Y-116767400D02*
X89979422Y-116767400D01*
X94295000Y-116767400D02*
X94275000Y-116767400D01*
X105725000Y-116767400D02*
X105705000Y-116767400D01*
X110118444Y-116767400D02*
X106385000Y-116767400D01*
X93615000Y-116916600D02*
X90219487Y-116916600D01*
X94295000Y-116916600D02*
X94275000Y-116916600D01*
X105725000Y-116916600D02*
X105705000Y-116916600D01*
X109908026Y-116916600D02*
X106385000Y-116916600D01*
X93615000Y-117065800D02*
X90459552Y-117065800D01*
X94295000Y-117065800D02*
X94275000Y-117065800D01*
X105725000Y-117065800D02*
X105705000Y-117065800D01*
X109676055Y-117065800D02*
X106385000Y-117065800D01*
X93615000Y-117215000D02*
X90699618Y-117215000D01*
X94295000Y-117215000D02*
X94275000Y-117215000D01*
X105725000Y-117215000D02*
X105705000Y-117215000D01*
X109343124Y-117215000D02*
X106385000Y-117215000D01*
X93615000Y-117364200D02*
X90939683Y-117364200D01*
X94295000Y-117364200D02*
X94275000Y-117364200D01*
X105725000Y-117364200D02*
X105705000Y-117364200D01*
X109010194Y-117364200D02*
X106385000Y-117364200D01*
X93616760Y-117513400D02*
X91179749Y-117513400D01*
X94295000Y-117513400D02*
X94275000Y-117513400D01*
X105725000Y-117513400D02*
X105705000Y-117513400D01*
X108677264Y-117513400D02*
X106383239Y-117513400D01*
X93679543Y-117662600D02*
X91486384Y-117662600D01*
X94295000Y-117662600D02*
X94275000Y-117662600D01*
X105725000Y-117662600D02*
X105705000Y-117662600D01*
X108344334Y-117662600D02*
X106320456Y-117662600D01*
X94885000Y-117811800D02*
X91882048Y-117811800D01*
X108011404Y-117811800D02*
X105115000Y-117811800D01*
X94880567Y-117961000D02*
X92277711Y-117961000D01*
X107678474Y-117961000D02*
X105120208Y-117961000D01*
X94855528Y-118110200D02*
X92673375Y-118110200D01*
X107345544Y-118110200D02*
X105144697Y-118110200D01*
X94862438Y-118259400D02*
X93069038Y-118259400D01*
X107012614Y-118259400D02*
X105139150Y-118259400D01*
X94902505Y-118408600D02*
X93464702Y-118408600D01*
X106679684Y-118408600D02*
X105098367Y-118408600D01*
X94981779Y-118557800D02*
X93860366Y-118557800D01*
X96238890Y-118557800D02*
X96127533Y-118557800D01*
X97496001Y-118557800D02*
X97411641Y-118557800D01*
X98785334Y-118557800D02*
X98695750Y-118557800D01*
X100074668Y-118557800D02*
X99944587Y-118557800D01*
X101306001Y-118557800D02*
X101193425Y-118557800D01*
X102588890Y-118557800D02*
X102505750Y-118557800D01*
X103871779Y-118557800D02*
X103761641Y-118557800D01*
X106346753Y-118557800D02*
X105017533Y-118557800D01*
X95122636Y-118707000D02*
X94256029Y-118707000D01*
X96365590Y-118707000D02*
X95990439Y-118707000D01*
X97616276Y-118707000D02*
X97281441Y-118707000D01*
X98918248Y-118707000D02*
X98572443Y-118707000D01*
X100231413Y-118707000D02*
X99810940Y-118707000D01*
X101426276Y-118707000D02*
X101040120Y-118707000D01*
X102715590Y-118707000D02*
X102382443Y-118707000D01*
X104012636Y-118707000D02*
X103631441Y-118707000D01*
X105799240Y-118707000D02*
X104880439Y-118707000D01*
X95603520Y-118856200D02*
X94651693Y-118856200D01*
X96663307Y-118856200D02*
X95609609Y-118856200D01*
X97859876Y-118856200D02*
X96993035Y-118856200D01*
X99248790Y-118856200D02*
X98326116Y-118856200D01*
X101669876Y-118856200D02*
X99476322Y-118856200D01*
X103013307Y-118856200D02*
X102136116Y-118856200D01*
X104493520Y-118856200D02*
X103343035Y-118856200D01*
X105149838Y-118856200D02*
X104499609Y-118856200D01*
X104500436Y-119005400D02*
X95232495Y-119005400D01*
X103851034Y-119154600D02*
X96127838Y-119154600D01*
X103201632Y-119303800D02*
X97023180Y-119303800D01*
X102552230Y-119453000D02*
X97918523Y-119453000D01*
X117107098Y-90384569D02*
X118648943Y-93890478D01*
X119480454Y-97629094D01*
X119569963Y-101458027D01*
X118914058Y-105231416D01*
X117537720Y-108805547D01*
X115493381Y-112044271D01*
X112858897Y-114824239D01*
X109734627Y-117039551D01*
X106239566Y-118605835D01*
X102506841Y-119463428D01*
X98678633Y-119579665D01*
X94900756Y-118950119D01*
X91317105Y-117598767D01*
X89468719Y-116450000D01*
X93615000Y-116450000D01*
X93615000Y-117504548D01*
X93626529Y-117562507D01*
X93649144Y-117617104D01*
X93681975Y-117666239D01*
X93723761Y-117708025D01*
X93772897Y-117740857D01*
X93827494Y-117763471D01*
X93885453Y-117775000D01*
X94200000Y-117775000D01*
X94275000Y-117700000D01*
X94275000Y-116375000D01*
X93690000Y-116375000D01*
X93615000Y-116450000D01*
X89468719Y-116450000D01*
X88064182Y-115577084D01*
X87527630Y-115075674D01*
X91793817Y-115075674D01*
X91825678Y-115249274D01*
X91890652Y-115413379D01*
X91986263Y-115561738D01*
X92108870Y-115688701D01*
X92253802Y-115789431D01*
X92415539Y-115860093D01*
X92587921Y-115897993D01*
X92764381Y-115901690D01*
X92938199Y-115871041D01*
X93102753Y-115807214D01*
X93251777Y-115712641D01*
X93379592Y-115590924D01*
X93481332Y-115446699D01*
X93553121Y-115285459D01*
X93592224Y-115113346D01*
X93595039Y-114911750D01*
X93560757Y-114738613D01*
X93493498Y-114575431D01*
X93395825Y-114428421D01*
X93271458Y-114303182D01*
X93125133Y-114204485D01*
X92962425Y-114136089D01*
X92789531Y-114100599D01*
X92613036Y-114099367D01*
X92439663Y-114132440D01*
X92276016Y-114198557D01*
X92128328Y-114295202D01*
X92002224Y-114418692D01*
X91902508Y-114564324D01*
X91832977Y-114726550D01*
X91796281Y-114899193D01*
X91793817Y-115075674D01*
X87527630Y-115075674D01*
X86076941Y-113720000D01*
X93615000Y-113720000D01*
X93615000Y-114774548D01*
X93626529Y-114832507D01*
X93649144Y-114887104D01*
X93681975Y-114936239D01*
X93723761Y-114978025D01*
X93756649Y-115000000D01*
X93723761Y-115021975D01*
X93681975Y-115063761D01*
X93649144Y-115112896D01*
X93626529Y-115167493D01*
X93615000Y-115225452D01*
X93615000Y-116280000D01*
X93690000Y-116355000D01*
X94275000Y-116355000D01*
X94275000Y-115030000D01*
X94245000Y-115000000D01*
X94275000Y-114970000D01*
X94275000Y-113645000D01*
X93690000Y-113645000D01*
X93615000Y-113720000D01*
X86076941Y-113720000D01*
X85265895Y-112962076D01*
X84930108Y-112495452D01*
X93615000Y-112495452D01*
X93615000Y-113550000D01*
X93690000Y-113625000D01*
X94275000Y-113625000D01*
X94275000Y-112300000D01*
X94295000Y-112300000D01*
X94295000Y-113625000D01*
X94315000Y-113625000D01*
X94315000Y-113645000D01*
X94295000Y-113645000D01*
X94295000Y-114970000D01*
X94325000Y-115000000D01*
X94295000Y-115030000D01*
X94295000Y-116355000D01*
X94315000Y-116355000D01*
X94315000Y-116375000D01*
X94295000Y-116375000D01*
X94295000Y-117700000D01*
X94370000Y-117775000D01*
X94684547Y-117775000D01*
X94742506Y-117763471D01*
X94797103Y-117740857D01*
X94846239Y-117708025D01*
X94885000Y-117669264D01*
X94885000Y-117941239D01*
X94884538Y-117942317D01*
X94855997Y-118076594D01*
X94854080Y-118213858D01*
X94878861Y-118348880D01*
X94929396Y-118476517D01*
X95003760Y-118591907D01*
X95099121Y-118690656D01*
X95211846Y-118769002D01*
X95337641Y-118823961D01*
X95471716Y-118853439D01*
X95608963Y-118856314D01*
X95744155Y-118832476D01*
X95872141Y-118782833D01*
X95988048Y-118709277D01*
X96087460Y-118614608D01*
X96166591Y-118502432D01*
X96185195Y-118460648D01*
X96199396Y-118496517D01*
X96273760Y-118611907D01*
X96369121Y-118710656D01*
X96481846Y-118789002D01*
X96607641Y-118843961D01*
X96741716Y-118873439D01*
X96878963Y-118876314D01*
X97014155Y-118852476D01*
X97142141Y-118802833D01*
X97258048Y-118729277D01*
X97357460Y-118634608D01*
X97436591Y-118522432D01*
X97455195Y-118480648D01*
X97469396Y-118516517D01*
X97543760Y-118631907D01*
X97639121Y-118730656D01*
X97751846Y-118809002D01*
X97877641Y-118863961D01*
X98011716Y-118893439D01*
X98148963Y-118896314D01*
X98284155Y-118872476D01*
X98412141Y-118822833D01*
X98528048Y-118749277D01*
X98627460Y-118654608D01*
X98706591Y-118542432D01*
X98735673Y-118477113D01*
X98739396Y-118486517D01*
X98813760Y-118601907D01*
X98909121Y-118700656D01*
X99021846Y-118779002D01*
X99147641Y-118833961D01*
X99281716Y-118863439D01*
X99418963Y-118866314D01*
X99554155Y-118842476D01*
X99682141Y-118792833D01*
X99798048Y-118719277D01*
X99897460Y-118624608D01*
X99976591Y-118512432D01*
X100005673Y-118447113D01*
X100009396Y-118456517D01*
X100083760Y-118571907D01*
X100179121Y-118670656D01*
X100291846Y-118749002D01*
X100417641Y-118803961D01*
X100551716Y-118833439D01*
X100688963Y-118836314D01*
X100824155Y-118812476D01*
X100952141Y-118762833D01*
X101068048Y-118689277D01*
X101167460Y-118594608D01*
X101246591Y-118482432D01*
X101256812Y-118459476D01*
X101279396Y-118516517D01*
X101353760Y-118631907D01*
X101449121Y-118730656D01*
X101561846Y-118809002D01*
X101687641Y-118863961D01*
X101821716Y-118893439D01*
X101958963Y-118896314D01*
X102094155Y-118872476D01*
X102222141Y-118822833D01*
X102338048Y-118749277D01*
X102437460Y-118654608D01*
X102516591Y-118542432D01*
X102543577Y-118481820D01*
X102549396Y-118496517D01*
X102623760Y-118611907D01*
X102719121Y-118710656D01*
X102831846Y-118789002D01*
X102957641Y-118843961D01*
X103091716Y-118873439D01*
X103228963Y-118876314D01*
X103364155Y-118852476D01*
X103492141Y-118802833D01*
X103608048Y-118729277D01*
X103707460Y-118634608D01*
X103786591Y-118522432D01*
X103813577Y-118461820D01*
X103819396Y-118476517D01*
X103893760Y-118591907D01*
X103989121Y-118690656D01*
X104101846Y-118769002D01*
X104227641Y-118823961D01*
X104361716Y-118853439D01*
X104498963Y-118856314D01*
X104634155Y-118832476D01*
X104762141Y-118782833D01*
X104878048Y-118709277D01*
X104977460Y-118614608D01*
X105056591Y-118502432D01*
X105112427Y-118377023D01*
X105142841Y-118243158D01*
X105145030Y-118086361D01*
X105118366Y-117951699D01*
X105115000Y-117943532D01*
X105115000Y-117669264D01*
X105153761Y-117708025D01*
X105202897Y-117740857D01*
X105257494Y-117763471D01*
X105315453Y-117775000D01*
X105630000Y-117775000D01*
X105705000Y-117700000D01*
X105705000Y-116375000D01*
X105725000Y-116375000D01*
X105725000Y-117700000D01*
X105800000Y-117775000D01*
X106114547Y-117775000D01*
X106172506Y-117763471D01*
X106227103Y-117740857D01*
X106276239Y-117708025D01*
X106318025Y-117666239D01*
X106350856Y-117617104D01*
X106373471Y-117562507D01*
X106385000Y-117504548D01*
X106385000Y-116450000D01*
X106310000Y-116375000D01*
X105725000Y-116375000D01*
X105705000Y-116375000D01*
X105685000Y-116375000D01*
X105685000Y-116355000D01*
X105705000Y-116355000D01*
X105705000Y-115030000D01*
X105675000Y-115000000D01*
X105705000Y-114970000D01*
X105705000Y-113645000D01*
X105725000Y-113645000D01*
X105725000Y-114970000D01*
X105755000Y-115000000D01*
X105725000Y-115030000D01*
X105725000Y-116355000D01*
X106310000Y-116355000D01*
X106385000Y-116280000D01*
X106385000Y-115225452D01*
X106373471Y-115167493D01*
X106350856Y-115112896D01*
X106325986Y-115075674D01*
X106403817Y-115075674D01*
X106435678Y-115249274D01*
X106500652Y-115413379D01*
X106596263Y-115561738D01*
X106718870Y-115688701D01*
X106863802Y-115789431D01*
X107025539Y-115860093D01*
X107197921Y-115897993D01*
X107374381Y-115901690D01*
X107548199Y-115871041D01*
X107712753Y-115807214D01*
X107861777Y-115712641D01*
X107989592Y-115590924D01*
X108091332Y-115446699D01*
X108163121Y-115285459D01*
X108202224Y-115113346D01*
X108205039Y-114911750D01*
X108170757Y-114738613D01*
X108103498Y-114575431D01*
X108005825Y-114428421D01*
X107881458Y-114303182D01*
X107735133Y-114204485D01*
X107572425Y-114136089D01*
X107399531Y-114100599D01*
X107223036Y-114099367D01*
X107049663Y-114132440D01*
X106886016Y-114198557D01*
X106738328Y-114295202D01*
X106612224Y-114418692D01*
X106512508Y-114564324D01*
X106442977Y-114726550D01*
X106406281Y-114899193D01*
X106403817Y-115075674D01*
X106325986Y-115075674D01*
X106318025Y-115063761D01*
X106276239Y-115021975D01*
X106243351Y-115000000D01*
X106276239Y-114978025D01*
X106318025Y-114936239D01*
X106350856Y-114887104D01*
X106373471Y-114832507D01*
X106385000Y-114774548D01*
X106385000Y-113720000D01*
X106310000Y-113645000D01*
X105725000Y-113645000D01*
X105705000Y-113645000D01*
X105685000Y-113645000D01*
X105685000Y-113625000D01*
X105705000Y-113625000D01*
X105705000Y-112300000D01*
X105725000Y-112300000D01*
X105725000Y-113625000D01*
X106310000Y-113625000D01*
X106385000Y-113550000D01*
X106385000Y-112495452D01*
X106373471Y-112437493D01*
X106350856Y-112382896D01*
X106318025Y-112333761D01*
X106276239Y-112291975D01*
X106227103Y-112259143D01*
X106172506Y-112236529D01*
X106114547Y-112225000D01*
X105800000Y-112225000D01*
X105725000Y-112300000D01*
X105705000Y-112300000D01*
X105630000Y-112225000D01*
X105315453Y-112225000D01*
X105257494Y-112236529D01*
X105202897Y-112259143D01*
X105153761Y-112291975D01*
X105115000Y-112330736D01*
X105115000Y-112065698D01*
X105142841Y-111943158D01*
X105145030Y-111786361D01*
X105118366Y-111651699D01*
X105066054Y-111524780D01*
X104990086Y-111410439D01*
X104893356Y-111313031D01*
X104779548Y-111236267D01*
X104652997Y-111183070D01*
X104518524Y-111155466D01*
X104446080Y-111154960D01*
X105278515Y-110322526D01*
X105355868Y-110376287D01*
X105463693Y-110423395D01*
X105578614Y-110448662D01*
X105696254Y-110451126D01*
X105812133Y-110430694D01*
X105921835Y-110388143D01*
X106021184Y-110325094D01*
X106106395Y-110243949D01*
X106174221Y-110147799D01*
X106222080Y-110040306D01*
X106248149Y-109925564D01*
X106250026Y-109791167D01*
X106227171Y-109675742D01*
X106182332Y-109566954D01*
X106117216Y-109468948D01*
X106034305Y-109385455D01*
X105936755Y-109319657D01*
X105828283Y-109274060D01*
X105713021Y-109250400D01*
X105595357Y-109249578D01*
X105479775Y-109271627D01*
X105370677Y-109315705D01*
X105272219Y-109380135D01*
X105226404Y-109425000D01*
X105150000Y-109425000D01*
X105110959Y-109428828D01*
X105071821Y-109432252D01*
X105069673Y-109432876D01*
X105067450Y-109433094D01*
X105029910Y-109444428D01*
X104992168Y-109455393D01*
X104990180Y-109456423D01*
X104988045Y-109457068D01*
X104953413Y-109475482D01*
X104918528Y-109493565D01*
X104916781Y-109494959D01*
X104914809Y-109496008D01*
X104884395Y-109520813D01*
X104853705Y-109545312D01*
X104850597Y-109548377D01*
X104850530Y-109548432D01*
X104850479Y-109548494D01*
X104849480Y-109549479D01*
X103269241Y-111129719D01*
X103248524Y-111125466D01*
X103111250Y-111124508D01*
X102976405Y-111150231D01*
X102849124Y-111201656D01*
X102734255Y-111276824D01*
X102636174Y-111372872D01*
X102558617Y-111486141D01*
X102544404Y-111519302D01*
X102526054Y-111474780D01*
X102450086Y-111360439D01*
X102353356Y-111263031D01*
X102239548Y-111186267D01*
X102112997Y-111133070D01*
X101978524Y-111105466D01*
X101841250Y-111104508D01*
X101706405Y-111130231D01*
X101579124Y-111181656D01*
X101464255Y-111256824D01*
X101366174Y-111352872D01*
X101288617Y-111466141D01*
X101263899Y-111523813D01*
X101256054Y-111504780D01*
X101180086Y-111390439D01*
X101083356Y-111293031D01*
X100969548Y-111216267D01*
X100842997Y-111163070D01*
X100708524Y-111135466D01*
X100571250Y-111134508D01*
X100436405Y-111160231D01*
X100309124Y-111211656D01*
X100194255Y-111286824D01*
X100096174Y-111382872D01*
X100018617Y-111496141D01*
X100000202Y-111539106D01*
X99986054Y-111504780D01*
X99910086Y-111390439D01*
X99813356Y-111293031D01*
X99699548Y-111216267D01*
X99572997Y-111163070D01*
X99438524Y-111135466D01*
X99301250Y-111134508D01*
X99166405Y-111160231D01*
X99039124Y-111211656D01*
X98924255Y-111286824D01*
X98826174Y-111382872D01*
X98748617Y-111496141D01*
X98715360Y-111573735D01*
X98640086Y-111460439D01*
X98543356Y-111363031D01*
X98429548Y-111286267D01*
X98302997Y-111233070D01*
X98168524Y-111205466D01*
X98031250Y-111204508D01*
X97896405Y-111230231D01*
X97769124Y-111281656D01*
X97654255Y-111356824D01*
X97556174Y-111452872D01*
X97478617Y-111566141D01*
X97477011Y-111569888D01*
X97446054Y-111494780D01*
X97370086Y-111380439D01*
X97273356Y-111283031D01*
X97159548Y-111206267D01*
X97032997Y-111153070D01*
X96898524Y-111125466D01*
X96761250Y-111124508D01*
X96626405Y-111150231D01*
X96499124Y-111201656D01*
X96384255Y-111276824D01*
X96286174Y-111372872D01*
X96208617Y-111486141D01*
X96186000Y-111538911D01*
X96176054Y-111514780D01*
X96100086Y-111400439D01*
X96003356Y-111303031D01*
X95889548Y-111226267D01*
X95762997Y-111173070D01*
X95628524Y-111145466D01*
X95491250Y-111144508D01*
X95356405Y-111170231D01*
X95229124Y-111221656D01*
X95114255Y-111296824D01*
X95016174Y-111392872D01*
X94938617Y-111506141D01*
X94884538Y-111632317D01*
X94855997Y-111766594D01*
X94854080Y-111903858D01*
X94878861Y-112038880D01*
X94885000Y-112054385D01*
X94885000Y-112330736D01*
X94846239Y-112291975D01*
X94797103Y-112259143D01*
X94742506Y-112236529D01*
X94684547Y-112225000D01*
X94370000Y-112225000D01*
X94295000Y-112300000D01*
X94275000Y-112300000D01*
X94200000Y-112225000D01*
X93885453Y-112225000D01*
X93827494Y-112236529D01*
X93772897Y-112259143D01*
X93723761Y-112291975D01*
X93681975Y-112333761D01*
X93649144Y-112382896D01*
X93626529Y-112437493D01*
X93615000Y-112495452D01*
X84930108Y-112495452D01*
X83028822Y-109853345D01*
X82776397Y-109300450D01*
X94149211Y-109300450D01*
X94170452Y-109416183D01*
X94213768Y-109525586D01*
X94277509Y-109624492D01*
X94359247Y-109709134D01*
X94455868Y-109776287D01*
X94563693Y-109823395D01*
X94678614Y-109848662D01*
X94749098Y-109850138D01*
X95799479Y-110900520D01*
X95829845Y-110925463D01*
X95859889Y-110950673D01*
X95861843Y-110951747D01*
X95863574Y-110953169D01*
X95898196Y-110971733D01*
X95932575Y-110990633D01*
X95934707Y-110991309D01*
X95936674Y-110992364D01*
X95974185Y-111003832D01*
X96011638Y-111015713D01*
X96013860Y-111015962D01*
X96015995Y-111016615D01*
X96055041Y-111020581D01*
X96094066Y-111024959D01*
X96098429Y-111024989D01*
X96098516Y-111024998D01*
X96098597Y-111024990D01*
X96100000Y-111025000D01*
X100876284Y-111025000D01*
X100909247Y-111059134D01*
X101005868Y-111126287D01*
X101113693Y-111173395D01*
X101228614Y-111198662D01*
X101346254Y-111201126D01*
X101462133Y-111180694D01*
X101571835Y-111138143D01*
X101671184Y-111075094D01*
X101756395Y-110993949D01*
X101824221Y-110897799D01*
X101872080Y-110790306D01*
X101898149Y-110675564D01*
X101900026Y-110541167D01*
X101877171Y-110425742D01*
X101832332Y-110316954D01*
X101767216Y-110218948D01*
X101684305Y-110135455D01*
X101586755Y-110069657D01*
X101478283Y-110024060D01*
X101363021Y-110000400D01*
X101245357Y-109999578D01*
X101129775Y-110021627D01*
X101020677Y-110065705D01*
X100922219Y-110130135D01*
X100876404Y-110175000D01*
X100575557Y-110175000D01*
X100598149Y-110075564D01*
X100600026Y-109941167D01*
X100577171Y-109825742D01*
X100532332Y-109716954D01*
X100467216Y-109618948D01*
X100384305Y-109535455D01*
X100286755Y-109469657D01*
X100178283Y-109424060D01*
X100063021Y-109400400D01*
X99945357Y-109399578D01*
X99829775Y-109421627D01*
X99720677Y-109465705D01*
X99622219Y-109530135D01*
X99550875Y-109600000D01*
X98265685Y-109600000D01*
X98148743Y-109483057D01*
X98150026Y-109391167D01*
X98127171Y-109275742D01*
X98082332Y-109166954D01*
X98017216Y-109068948D01*
X97934305Y-108985455D01*
X97836755Y-108919657D01*
X97728283Y-108874060D01*
X97613021Y-108850400D01*
X97495357Y-108849578D01*
X97379775Y-108871627D01*
X97270677Y-108915705D01*
X97172219Y-108980135D01*
X97088150Y-109062461D01*
X97021672Y-109159549D01*
X96975318Y-109267700D01*
X96950854Y-109382795D01*
X96949211Y-109500450D01*
X96970452Y-109616183D01*
X97013768Y-109725586D01*
X97077509Y-109824492D01*
X97159247Y-109909134D01*
X97255868Y-109976287D01*
X97363693Y-110023395D01*
X97478614Y-110048662D01*
X97585209Y-110050895D01*
X97709315Y-110175000D01*
X96276041Y-110175000D01*
X95349230Y-109248189D01*
X95350026Y-109191167D01*
X95327171Y-109075742D01*
X95282332Y-108966954D01*
X95217216Y-108868948D01*
X95134305Y-108785455D01*
X95036755Y-108719657D01*
X94928283Y-108674060D01*
X94813021Y-108650400D01*
X94695357Y-108649578D01*
X94579775Y-108671627D01*
X94470677Y-108715705D01*
X94372219Y-108780135D01*
X94288150Y-108862461D01*
X94221672Y-108959549D01*
X94175318Y-109067700D01*
X94150854Y-109182795D01*
X94149211Y-109300450D01*
X82776397Y-109300450D01*
X81899920Y-107380674D01*
X84098817Y-107380674D01*
X84130678Y-107554274D01*
X84195652Y-107718379D01*
X84291263Y-107866738D01*
X84413870Y-107993701D01*
X84558802Y-108094431D01*
X84720539Y-108165093D01*
X84892921Y-108202993D01*
X85069381Y-108206690D01*
X85243199Y-108176041D01*
X85407753Y-108112214D01*
X85556777Y-108017641D01*
X85684592Y-107895924D01*
X85786332Y-107751699D01*
X85858121Y-107590459D01*
X85897224Y-107418346D01*
X85897750Y-107380674D01*
X114098817Y-107380674D01*
X114130678Y-107554274D01*
X114195652Y-107718379D01*
X114291263Y-107866738D01*
X114413870Y-107993701D01*
X114558802Y-108094431D01*
X114720539Y-108165093D01*
X114892921Y-108202993D01*
X115069381Y-108206690D01*
X115243199Y-108176041D01*
X115407753Y-108112214D01*
X115556777Y-108017641D01*
X115684592Y-107895924D01*
X115786332Y-107751699D01*
X115858121Y-107590459D01*
X115897224Y-107418346D01*
X115900039Y-107216750D01*
X115865757Y-107043613D01*
X115798498Y-106880431D01*
X115700825Y-106733421D01*
X115576458Y-106608182D01*
X115430133Y-106509485D01*
X115267425Y-106441089D01*
X115094531Y-106405599D01*
X114918036Y-106404367D01*
X114744663Y-106437440D01*
X114581016Y-106503557D01*
X114433328Y-106600202D01*
X114307224Y-106723692D01*
X114207508Y-106869324D01*
X114137977Y-107031550D01*
X114101281Y-107204193D01*
X114098817Y-107380674D01*
X85897750Y-107380674D01*
X85900039Y-107216750D01*
X85865757Y-107043613D01*
X85798498Y-106880431D01*
X85700825Y-106733421D01*
X85576458Y-106608182D01*
X85430133Y-106509485D01*
X85267425Y-106441089D01*
X85094531Y-106405599D01*
X84918036Y-106404367D01*
X84744663Y-106437440D01*
X84581016Y-106503557D01*
X84433328Y-106600202D01*
X84307224Y-106723692D01*
X84207508Y-106869324D01*
X84137977Y-107031550D01*
X84101281Y-107204193D01*
X84098817Y-107380674D01*
X81899920Y-107380674D01*
X81438178Y-106369307D01*
X81303189Y-105800000D01*
X82225000Y-105800000D01*
X82225000Y-106114547D01*
X82236529Y-106172506D01*
X82259143Y-106227103D01*
X82291975Y-106276239D01*
X82333761Y-106318025D01*
X82382896Y-106350856D01*
X82437493Y-106373471D01*
X82495452Y-106385000D01*
X83550000Y-106385000D01*
X83625000Y-106310000D01*
X83625000Y-105725000D01*
X83645000Y-105725000D01*
X83645000Y-106310000D01*
X83720000Y-106385000D01*
X84774548Y-106385000D01*
X84832507Y-106373471D01*
X84887104Y-106350856D01*
X84936239Y-106318025D01*
X84978025Y-106276239D01*
X85000000Y-106243351D01*
X85021975Y-106276239D01*
X85063761Y-106318025D01*
X85112896Y-106350856D01*
X85167493Y-106373471D01*
X85225452Y-106385000D01*
X86280000Y-106385000D01*
X86355000Y-106310000D01*
X86355000Y-105725000D01*
X86375000Y-105725000D01*
X86375000Y-106310000D01*
X86450000Y-106385000D01*
X87504548Y-106385000D01*
X87562507Y-106373471D01*
X87617104Y-106350856D01*
X87666239Y-106318025D01*
X87708025Y-106276239D01*
X87740857Y-106227103D01*
X87763471Y-106172506D01*
X87775000Y-106114547D01*
X87775000Y-105800000D01*
X112225000Y-105800000D01*
X112225000Y-106114547D01*
X112236529Y-106172506D01*
X112259143Y-106227103D01*
X112291975Y-106276239D01*
X112333761Y-106318025D01*
X112382896Y-106350856D01*
X112437493Y-106373471D01*
X112495452Y-106385000D01*
X113550000Y-106385000D01*
X113625000Y-106310000D01*
X113625000Y-105725000D01*
X113645000Y-105725000D01*
X113645000Y-106310000D01*
X113720000Y-106385000D01*
X114774548Y-106385000D01*
X114832507Y-106373471D01*
X114887104Y-106350856D01*
X114936239Y-106318025D01*
X114978025Y-106276239D01*
X115000000Y-106243351D01*
X115021975Y-106276239D01*
X115063761Y-106318025D01*
X115112896Y-106350856D01*
X115167493Y-106373471D01*
X115225452Y-106385000D01*
X116280000Y-106385000D01*
X116355000Y-106310000D01*
X116355000Y-105725000D01*
X116375000Y-105725000D01*
X116375000Y-106310000D01*
X116450000Y-106385000D01*
X117504548Y-106385000D01*
X117562507Y-106373471D01*
X117617104Y-106350856D01*
X117666239Y-106318025D01*
X117708025Y-106276239D01*
X117740857Y-106227103D01*
X117763471Y-106172506D01*
X117775000Y-106114547D01*
X117775000Y-105800000D01*
X117700000Y-105725000D01*
X116375000Y-105725000D01*
X116355000Y-105725000D01*
X115030000Y-105725000D01*
X115000000Y-105755000D01*
X114970000Y-105725000D01*
X113645000Y-105725000D01*
X113625000Y-105725000D01*
X112300000Y-105725000D01*
X112225000Y-105800000D01*
X87775000Y-105800000D01*
X87700000Y-105725000D01*
X86375000Y-105725000D01*
X86355000Y-105725000D01*
X85030000Y-105725000D01*
X85000000Y-105755000D01*
X84970000Y-105725000D01*
X83645000Y-105725000D01*
X83625000Y-105725000D01*
X82300000Y-105725000D01*
X82225000Y-105800000D01*
X81303189Y-105800000D01*
X80554548Y-102642662D01*
X80529193Y-101963858D01*
X81104080Y-101963858D01*
X81128861Y-102098880D01*
X81179396Y-102226517D01*
X81253760Y-102341907D01*
X81349121Y-102440656D01*
X81461846Y-102519002D01*
X81518588Y-102543792D01*
X81499124Y-102551656D01*
X81384255Y-102626824D01*
X81286174Y-102722872D01*
X81208617Y-102836141D01*
X81154538Y-102962317D01*
X81125997Y-103096594D01*
X81124080Y-103233858D01*
X81148861Y-103368880D01*
X81199396Y-103496517D01*
X81273760Y-103611907D01*
X81369121Y-103710656D01*
X81481846Y-103789002D01*
X81538588Y-103813792D01*
X81519124Y-103821656D01*
X81404255Y-103896824D01*
X81306174Y-103992872D01*
X81228617Y-104106141D01*
X81174538Y-104232317D01*
X81145997Y-104366594D01*
X81144080Y-104503858D01*
X81168861Y-104638880D01*
X81219396Y-104766517D01*
X81293760Y-104881907D01*
X81389121Y-104980656D01*
X81501846Y-105059002D01*
X81627641Y-105113961D01*
X81761716Y-105143439D01*
X81898963Y-105146314D01*
X82034155Y-105122476D01*
X82053429Y-105115000D01*
X82330736Y-105115000D01*
X82291975Y-105153761D01*
X82259143Y-105202897D01*
X82236529Y-105257494D01*
X82225000Y-105315453D01*
X82225000Y-105630000D01*
X82300000Y-105705000D01*
X83625000Y-105705000D01*
X83625000Y-105685000D01*
X83645000Y-105685000D01*
X83645000Y-105705000D01*
X84970000Y-105705000D01*
X85000000Y-105675000D01*
X85030000Y-105705000D01*
X86355000Y-105705000D01*
X86355000Y-105685000D01*
X86375000Y-105685000D01*
X86375000Y-105705000D01*
X87700000Y-105705000D01*
X87775000Y-105630000D01*
X87775000Y-105315453D01*
X87763471Y-105257494D01*
X87740857Y-105202897D01*
X87708025Y-105153761D01*
X87669264Y-105115000D01*
X87942367Y-105115000D01*
X88071716Y-105143439D01*
X88208963Y-105146314D01*
X88344155Y-105122476D01*
X88472141Y-105072833D01*
X88588048Y-104999277D01*
X88687460Y-104904608D01*
X88766591Y-104792432D01*
X88822427Y-104667023D01*
X88852841Y-104533158D01*
X88855030Y-104376361D01*
X88828366Y-104241699D01*
X88776054Y-104114780D01*
X88700086Y-104000439D01*
X88603356Y-103903031D01*
X88489548Y-103826267D01*
X88437803Y-103804516D01*
X88442141Y-103802833D01*
X88558048Y-103729277D01*
X88657460Y-103634608D01*
X88736591Y-103522432D01*
X88792427Y-103397023D01*
X88822841Y-103263158D01*
X88825030Y-103106361D01*
X88798366Y-102971699D01*
X88746054Y-102844780D01*
X88670086Y-102730439D01*
X88573356Y-102633031D01*
X88459548Y-102556267D01*
X88455794Y-102554689D01*
X88512141Y-102532833D01*
X88628048Y-102459277D01*
X88727460Y-102364608D01*
X88806591Y-102252432D01*
X88862427Y-102127023D01*
X88892841Y-101993158D01*
X88895030Y-101836361D01*
X88868366Y-101701699D01*
X88816054Y-101574780D01*
X88740086Y-101460439D01*
X88643356Y-101363031D01*
X88529548Y-101286267D01*
X88477803Y-101264516D01*
X88482141Y-101262833D01*
X88598048Y-101189277D01*
X88697460Y-101094608D01*
X88776591Y-100982432D01*
X88832427Y-100857023D01*
X88862841Y-100723158D01*
X88864773Y-100584761D01*
X88906846Y-100614002D01*
X89032641Y-100668961D01*
X89166716Y-100698439D01*
X89303963Y-100701314D01*
X89439155Y-100677476D01*
X89458429Y-100670000D01*
X98000000Y-100670000D01*
X98061597Y-100663960D01*
X98123247Y-100658567D01*
X98126632Y-100657584D01*
X98130137Y-100657240D01*
X98189353Y-100639362D01*
X98248817Y-100622086D01*
X98251947Y-100620463D01*
X98255317Y-100619446D01*
X98309937Y-100590404D01*
X98364908Y-100561909D01*
X98367662Y-100559711D01*
X98370772Y-100558057D01*
X98418683Y-100518982D01*
X98467101Y-100480331D01*
X98472012Y-100475488D01*
X98472105Y-100475412D01*
X98472176Y-100475326D01*
X98473762Y-100473762D01*
X100793665Y-98153858D01*
X111104080Y-98153858D01*
X111128861Y-98288880D01*
X111179396Y-98416517D01*
X111253760Y-98531907D01*
X111349121Y-98630656D01*
X111461846Y-98709002D01*
X111538108Y-98742321D01*
X111424255Y-98816824D01*
X111326174Y-98912872D01*
X111248617Y-99026141D01*
X111194538Y-99152317D01*
X111165997Y-99286594D01*
X111164080Y-99423858D01*
X111188861Y-99558880D01*
X111239396Y-99686517D01*
X111313760Y-99801907D01*
X111409121Y-99900656D01*
X111521846Y-99979002D01*
X111554565Y-99993297D01*
X111509124Y-100011656D01*
X111394255Y-100086824D01*
X111296174Y-100182872D01*
X111218617Y-100296141D01*
X111164538Y-100422317D01*
X111135997Y-100556594D01*
X111134080Y-100693858D01*
X111158861Y-100828880D01*
X111209396Y-100956517D01*
X111283760Y-101071907D01*
X111379121Y-101170656D01*
X111491846Y-101249002D01*
X111524565Y-101263297D01*
X111479124Y-101281656D01*
X111364255Y-101356824D01*
X111266174Y-101452872D01*
X111188617Y-101566141D01*
X111134538Y-101692317D01*
X111105997Y-101826594D01*
X111104080Y-101963858D01*
X111128861Y-102098880D01*
X111179396Y-102226517D01*
X111253760Y-102341907D01*
X111349121Y-102440656D01*
X111461846Y-102519002D01*
X111518588Y-102543792D01*
X111499124Y-102551656D01*
X111384255Y-102626824D01*
X111286174Y-102722872D01*
X111208617Y-102836141D01*
X111154538Y-102962317D01*
X111125997Y-103096594D01*
X111124080Y-103233858D01*
X111148861Y-103368880D01*
X111199396Y-103496517D01*
X111273760Y-103611907D01*
X111369121Y-103710656D01*
X111481846Y-103789002D01*
X111538588Y-103813792D01*
X111519124Y-103821656D01*
X111404255Y-103896824D01*
X111306174Y-103992872D01*
X111228617Y-104106141D01*
X111174538Y-104232317D01*
X111145997Y-104366594D01*
X111144080Y-104503858D01*
X111168861Y-104638880D01*
X111219396Y-104766517D01*
X111293760Y-104881907D01*
X111389121Y-104980656D01*
X111501846Y-105059002D01*
X111627641Y-105113961D01*
X111761716Y-105143439D01*
X111898963Y-105146314D01*
X112034155Y-105122476D01*
X112053429Y-105115000D01*
X112330736Y-105115000D01*
X112291975Y-105153761D01*
X112259143Y-105202897D01*
X112236529Y-105257494D01*
X112225000Y-105315453D01*
X112225000Y-105630000D01*
X112300000Y-105705000D01*
X113625000Y-105705000D01*
X113625000Y-105685000D01*
X113645000Y-105685000D01*
X113645000Y-105705000D01*
X114970000Y-105705000D01*
X115000000Y-105675000D01*
X115030000Y-105705000D01*
X116355000Y-105705000D01*
X116355000Y-105685000D01*
X116375000Y-105685000D01*
X116375000Y-105705000D01*
X117700000Y-105705000D01*
X117775000Y-105630000D01*
X117775000Y-105315453D01*
X117763471Y-105257494D01*
X117740857Y-105202897D01*
X117708025Y-105153761D01*
X117669264Y-105115000D01*
X117932367Y-105115000D01*
X118061716Y-105143439D01*
X118198963Y-105146314D01*
X118334155Y-105122476D01*
X118462141Y-105072833D01*
X118578048Y-104999277D01*
X118677460Y-104904608D01*
X118756591Y-104792432D01*
X118812427Y-104667023D01*
X118842841Y-104533158D01*
X118845030Y-104376361D01*
X118818366Y-104241699D01*
X118766054Y-104114780D01*
X118690086Y-104000439D01*
X118593356Y-103903031D01*
X118479548Y-103826267D01*
X118456598Y-103816620D01*
X118492141Y-103802833D01*
X118608048Y-103729277D01*
X118707460Y-103634608D01*
X118786591Y-103522432D01*
X118842427Y-103397023D01*
X118872841Y-103263158D01*
X118875030Y-103106361D01*
X118848366Y-102971699D01*
X118796054Y-102844780D01*
X118720086Y-102730439D01*
X118623356Y-102633031D01*
X118509548Y-102556267D01*
X118434756Y-102524827D01*
X118538048Y-102459277D01*
X118637460Y-102364608D01*
X118716591Y-102252432D01*
X118772427Y-102127023D01*
X118802841Y-101993158D01*
X118805030Y-101836361D01*
X118778366Y-101701699D01*
X118726054Y-101574780D01*
X118650086Y-101460439D01*
X118553356Y-101363031D01*
X118439548Y-101286267D01*
X118416598Y-101276620D01*
X118452141Y-101262833D01*
X118568048Y-101189277D01*
X118667460Y-101094608D01*
X118746591Y-100982432D01*
X118802427Y-100857023D01*
X118832841Y-100723158D01*
X118835030Y-100566361D01*
X118808366Y-100431699D01*
X118756054Y-100304780D01*
X118680086Y-100190439D01*
X118583356Y-100093031D01*
X118469548Y-100016267D01*
X118446598Y-100006620D01*
X118482141Y-99992833D01*
X118598048Y-99919277D01*
X118697460Y-99824608D01*
X118776591Y-99712432D01*
X118832427Y-99587023D01*
X118862841Y-99453158D01*
X118865030Y-99296361D01*
X118838366Y-99161699D01*
X118786054Y-99034780D01*
X118710086Y-98920439D01*
X118613356Y-98823031D01*
X118499548Y-98746267D01*
X118476598Y-98736620D01*
X118512141Y-98722833D01*
X118628048Y-98649277D01*
X118727460Y-98554608D01*
X118806591Y-98442432D01*
X118862427Y-98317023D01*
X118892841Y-98183158D01*
X118895030Y-98026361D01*
X118868366Y-97891699D01*
X118816054Y-97764780D01*
X118740086Y-97650439D01*
X118643356Y-97553031D01*
X118529548Y-97476267D01*
X118454756Y-97444827D01*
X118558048Y-97379277D01*
X118657460Y-97284608D01*
X118736591Y-97172432D01*
X118792427Y-97047023D01*
X118822841Y-96913158D01*
X118825030Y-96756361D01*
X118798366Y-96621699D01*
X118746054Y-96494780D01*
X118670086Y-96380439D01*
X118573356Y-96283031D01*
X118459548Y-96206267D01*
X118436598Y-96196620D01*
X118472141Y-96182833D01*
X118588048Y-96109277D01*
X118687460Y-96014608D01*
X118766591Y-95902432D01*
X118822427Y-95777023D01*
X118852841Y-95643158D01*
X118855030Y-95486361D01*
X118828366Y-95351699D01*
X118776054Y-95224780D01*
X118700086Y-95110439D01*
X118603356Y-95013031D01*
X118489548Y-94936267D01*
X118362997Y-94883070D01*
X118228524Y-94855466D01*
X118091250Y-94854508D01*
X117956405Y-94880231D01*
X117944601Y-94885000D01*
X117669264Y-94885000D01*
X117708025Y-94846239D01*
X117740857Y-94797103D01*
X117763471Y-94742506D01*
X117775000Y-94684547D01*
X117775000Y-94370000D01*
X117700000Y-94295000D01*
X116375000Y-94295000D01*
X116375000Y-94315000D01*
X116355000Y-94315000D01*
X116355000Y-94295000D01*
X115030000Y-94295000D01*
X115000000Y-94325000D01*
X114970000Y-94295000D01*
X113645000Y-94295000D01*
X113645000Y-94315000D01*
X113625000Y-94315000D01*
X113625000Y-94295000D01*
X112300000Y-94295000D01*
X112225000Y-94370000D01*
X112225000Y-94684547D01*
X112236529Y-94742506D01*
X112259143Y-94797103D01*
X112291975Y-94846239D01*
X112330736Y-94885000D01*
X112057588Y-94885000D01*
X112052997Y-94883070D01*
X111918524Y-94855466D01*
X111781250Y-94854508D01*
X111646405Y-94880231D01*
X111519124Y-94931656D01*
X111404255Y-95006824D01*
X111306174Y-95102872D01*
X111228617Y-95216141D01*
X111174538Y-95342317D01*
X111145997Y-95476594D01*
X111144080Y-95613858D01*
X111168861Y-95748880D01*
X111219396Y-95876517D01*
X111293760Y-95991907D01*
X111389121Y-96090656D01*
X111501846Y-96169002D01*
X111563392Y-96195891D01*
X111549124Y-96201656D01*
X111434255Y-96276824D01*
X111336174Y-96372872D01*
X111258617Y-96486141D01*
X111204538Y-96612317D01*
X111175997Y-96746594D01*
X111174080Y-96883858D01*
X111198861Y-97018880D01*
X111249396Y-97146517D01*
X111323760Y-97261907D01*
X111419121Y-97360656D01*
X111531846Y-97439002D01*
X111545347Y-97444900D01*
X111479124Y-97471656D01*
X111364255Y-97546824D01*
X111266174Y-97642872D01*
X111188617Y-97756141D01*
X111134538Y-97882317D01*
X111105997Y-98016594D01*
X111104080Y-98153858D01*
X100793665Y-98153858D01*
X105062070Y-93885453D01*
X112225000Y-93885453D01*
X112225000Y-94200000D01*
X112300000Y-94275000D01*
X113625000Y-94275000D01*
X113625000Y-93690000D01*
X113645000Y-93690000D01*
X113645000Y-94275000D01*
X114970000Y-94275000D01*
X115000000Y-94245000D01*
X115030000Y-94275000D01*
X116355000Y-94275000D01*
X116355000Y-93690000D01*
X116375000Y-93690000D01*
X116375000Y-94275000D01*
X117700000Y-94275000D01*
X117775000Y-94200000D01*
X117775000Y-93885453D01*
X117763471Y-93827494D01*
X117740857Y-93772897D01*
X117708025Y-93723761D01*
X117666239Y-93681975D01*
X117617104Y-93649144D01*
X117562507Y-93626529D01*
X117504548Y-93615000D01*
X116450000Y-93615000D01*
X116375000Y-93690000D01*
X116355000Y-93690000D01*
X116280000Y-93615000D01*
X115225452Y-93615000D01*
X115167493Y-93626529D01*
X115112896Y-93649144D01*
X115063761Y-93681975D01*
X115021975Y-93723761D01*
X115000000Y-93756649D01*
X114978025Y-93723761D01*
X114936239Y-93681975D01*
X114887104Y-93649144D01*
X114832507Y-93626529D01*
X114774548Y-93615000D01*
X113720000Y-93615000D01*
X113645000Y-93690000D01*
X113625000Y-93690000D01*
X113550000Y-93615000D01*
X112495452Y-93615000D01*
X112437493Y-93626529D01*
X112382896Y-93649144D01*
X112333761Y-93681975D01*
X112291975Y-93723761D01*
X112259143Y-93772897D01*
X112236529Y-93827494D01*
X112225000Y-93885453D01*
X105062070Y-93885453D01*
X105823762Y-93123761D01*
X105863056Y-93075924D01*
X105902826Y-93028528D01*
X105904523Y-93025442D01*
X105906760Y-93022718D01*
X105936012Y-92968164D01*
X105965821Y-92913941D01*
X105966886Y-92910583D01*
X105968551Y-92907478D01*
X105986645Y-92848296D01*
X106005359Y-92789301D01*
X106005752Y-92785800D01*
X106006782Y-92782430D01*
X106007976Y-92770674D01*
X114098817Y-92770674D01*
X114130678Y-92944274D01*
X114195652Y-93108379D01*
X114291263Y-93256738D01*
X114413870Y-93383701D01*
X114558802Y-93484431D01*
X114720539Y-93555093D01*
X114892921Y-93592993D01*
X115069381Y-93596690D01*
X115243199Y-93566041D01*
X115407753Y-93502214D01*
X115556777Y-93407641D01*
X115684592Y-93285924D01*
X115786332Y-93141699D01*
X115858121Y-92980459D01*
X115897224Y-92808346D01*
X115900039Y-92606750D01*
X115865757Y-92433613D01*
X115798498Y-92270431D01*
X115700825Y-92123421D01*
X115576458Y-91998182D01*
X115430133Y-91899485D01*
X115267425Y-91831089D01*
X115094531Y-91795599D01*
X114918036Y-91794367D01*
X114744663Y-91827440D01*
X114581016Y-91893557D01*
X114433328Y-91990202D01*
X114307224Y-92113692D01*
X114207508Y-92259324D01*
X114137977Y-92421550D01*
X114101281Y-92594193D01*
X114098817Y-92770674D01*
X106007976Y-92770674D01*
X106013035Y-92720867D01*
X106015213Y-92701451D01*
X106400000Y-92701451D01*
X106447774Y-92697641D01*
X106528803Y-92672548D01*
X106599634Y-92625874D01*
X106654657Y-92561315D01*
X106689516Y-92483982D01*
X106701451Y-92400000D01*
X106701451Y-91600000D01*
X106697641Y-91552226D01*
X106672548Y-91471197D01*
X106625874Y-91400366D01*
X106561315Y-91345343D01*
X106483982Y-91310484D01*
X106400000Y-91298549D01*
X105600000Y-91298549D01*
X105552226Y-91302359D01*
X105471197Y-91327452D01*
X105467330Y-91330000D01*
X104945275Y-91330000D01*
X104898925Y-91315297D01*
X104763161Y-91300068D01*
X104753387Y-91300000D01*
X104746613Y-91300000D01*
X104610649Y-91313331D01*
X104479864Y-91352818D01*
X104359239Y-91416955D01*
X104253369Y-91503300D01*
X104166287Y-91608565D01*
X104124891Y-91685125D01*
X104089122Y-91616706D01*
X104003518Y-91510236D01*
X103898864Y-91422421D01*
X103779146Y-91356605D01*
X103648925Y-91315297D01*
X103513161Y-91300068D01*
X103503387Y-91300000D01*
X103496613Y-91300000D01*
X103360649Y-91313331D01*
X103229864Y-91352818D01*
X103109239Y-91416955D01*
X103003369Y-91503300D01*
X102916287Y-91608565D01*
X102874891Y-91685125D01*
X102839122Y-91616706D01*
X102753518Y-91510236D01*
X102648864Y-91422421D01*
X102529146Y-91356605D01*
X102398925Y-91315297D01*
X102263161Y-91300068D01*
X102253387Y-91300000D01*
X102246613Y-91300000D01*
X102110649Y-91313331D01*
X101979864Y-91352818D01*
X101859239Y-91416955D01*
X101753369Y-91503300D01*
X101666287Y-91608565D01*
X101624891Y-91685125D01*
X101589122Y-91616706D01*
X101503518Y-91510236D01*
X101398864Y-91422421D01*
X101279146Y-91356605D01*
X101148925Y-91315297D01*
X101013161Y-91300068D01*
X101003387Y-91300000D01*
X100996613Y-91300000D01*
X100860649Y-91313331D01*
X100729864Y-91352818D01*
X100609239Y-91416955D01*
X100503369Y-91503300D01*
X100416287Y-91608565D01*
X100374891Y-91685125D01*
X100339122Y-91616706D01*
X100253518Y-91510236D01*
X100148864Y-91422421D01*
X100029146Y-91356605D01*
X99898925Y-91315297D01*
X99763161Y-91300068D01*
X99753387Y-91300000D01*
X99746613Y-91300000D01*
X99610649Y-91313331D01*
X99479864Y-91352818D01*
X99359239Y-91416955D01*
X99253369Y-91503300D01*
X99166287Y-91608565D01*
X99124891Y-91685125D01*
X99089122Y-91616706D01*
X99003518Y-91510236D01*
X98898864Y-91422421D01*
X98779146Y-91356605D01*
X98648925Y-91315297D01*
X98513161Y-91300068D01*
X98503387Y-91300000D01*
X98496613Y-91300000D01*
X98360649Y-91313331D01*
X98229864Y-91352818D01*
X98109239Y-91416955D01*
X98003369Y-91503300D01*
X97916287Y-91608565D01*
X97873619Y-91687477D01*
X97822132Y-91596683D01*
X97732455Y-91492815D01*
X97624238Y-91408438D01*
X97501639Y-91346794D01*
X97369370Y-91310253D01*
X97260000Y-91375071D01*
X97260000Y-91990000D01*
X97280000Y-91990000D01*
X97280000Y-92010000D01*
X97260000Y-92010000D01*
X97260000Y-92624929D01*
X97369370Y-92689747D01*
X97501639Y-92653206D01*
X97624238Y-92591562D01*
X97732455Y-92507185D01*
X97822132Y-92403317D01*
X97873754Y-92312284D01*
X97910878Y-92383294D01*
X97996482Y-92489764D01*
X98101136Y-92577579D01*
X98220854Y-92643395D01*
X98351075Y-92684703D01*
X98486839Y-92699932D01*
X98496613Y-92700000D01*
X98503387Y-92700000D01*
X98639351Y-92686669D01*
X98770136Y-92647182D01*
X98890761Y-92583045D01*
X98996631Y-92496700D01*
X99083713Y-92391435D01*
X99125109Y-92314875D01*
X99160878Y-92383294D01*
X99246482Y-92489764D01*
X99351136Y-92577579D01*
X99470854Y-92643395D01*
X99601075Y-92684703D01*
X99736839Y-92699932D01*
X99746613Y-92700000D01*
X99753387Y-92700000D01*
X99889351Y-92686669D01*
X100020136Y-92647182D01*
X100140761Y-92583045D01*
X100246631Y-92496700D01*
X100333713Y-92391435D01*
X100375109Y-92314875D01*
X100410878Y-92383294D01*
X100496482Y-92489764D01*
X100601136Y-92577579D01*
X100720854Y-92643395D01*
X100851075Y-92684703D01*
X100986839Y-92699932D01*
X100996613Y-92700000D01*
X101003387Y-92700000D01*
X101139351Y-92686669D01*
X101270136Y-92647182D01*
X101390761Y-92583045D01*
X101496631Y-92496700D01*
X101583713Y-92391435D01*
X101625109Y-92314875D01*
X101660878Y-92383294D01*
X101746482Y-92489764D01*
X101851136Y-92577579D01*
X101970854Y-92643395D01*
X102101075Y-92684703D01*
X102236839Y-92699932D01*
X102246613Y-92700000D01*
X102253387Y-92700000D01*
X102389351Y-92686669D01*
X102520136Y-92647182D01*
X102640761Y-92583045D01*
X102746631Y-92496700D01*
X102833713Y-92391435D01*
X102875109Y-92314875D01*
X102910878Y-92383294D01*
X102996482Y-92489764D01*
X103101136Y-92577579D01*
X103220854Y-92643395D01*
X103351075Y-92684703D01*
X103486839Y-92699932D01*
X103496613Y-92700000D01*
X103503387Y-92700000D01*
X103639351Y-92686669D01*
X103770136Y-92647182D01*
X103890761Y-92583045D01*
X103996631Y-92496700D01*
X104083713Y-92391435D01*
X104125109Y-92314875D01*
X104160878Y-92383294D01*
X104246482Y-92489764D01*
X104351136Y-92577579D01*
X104430995Y-92621482D01*
X97722476Y-99330000D01*
X89462588Y-99330000D01*
X89457997Y-99328070D01*
X89323524Y-99300466D01*
X89186250Y-99299508D01*
X89051405Y-99325231D01*
X88924124Y-99376656D01*
X88863354Y-99416423D01*
X88865030Y-99296361D01*
X88838366Y-99161699D01*
X88786054Y-99034780D01*
X88710086Y-98920439D01*
X88613356Y-98823031D01*
X88499548Y-98746267D01*
X88476598Y-98736620D01*
X88512141Y-98722833D01*
X88628048Y-98649277D01*
X88727460Y-98554608D01*
X88806591Y-98442432D01*
X88862427Y-98317023D01*
X88892841Y-98183158D01*
X88895030Y-98026361D01*
X88868366Y-97891699D01*
X88816054Y-97764780D01*
X88740086Y-97650439D01*
X88643356Y-97553031D01*
X88529548Y-97476267D01*
X88482602Y-97456533D01*
X88492141Y-97452833D01*
X88608048Y-97379277D01*
X88707460Y-97284608D01*
X88786591Y-97172432D01*
X88842427Y-97047023D01*
X88872841Y-96913158D01*
X88875030Y-96756361D01*
X88848366Y-96621699D01*
X88796054Y-96494780D01*
X88720086Y-96380439D01*
X88623356Y-96283031D01*
X88509548Y-96206267D01*
X88462602Y-96186533D01*
X88472141Y-96182833D01*
X88588048Y-96109277D01*
X88687460Y-96014608D01*
X88766591Y-95902432D01*
X88822427Y-95777023D01*
X88852841Y-95643158D01*
X88855030Y-95486361D01*
X88828366Y-95351699D01*
X88776054Y-95224780D01*
X88700086Y-95110439D01*
X88603356Y-95013031D01*
X88489548Y-94936267D01*
X88362997Y-94883070D01*
X88228524Y-94855466D01*
X88091250Y-94854508D01*
X87956405Y-94880231D01*
X87944601Y-94885000D01*
X87669264Y-94885000D01*
X87708025Y-94846239D01*
X87740857Y-94797103D01*
X87763471Y-94742506D01*
X87775000Y-94684547D01*
X87775000Y-94370000D01*
X87700000Y-94295000D01*
X86375000Y-94295000D01*
X86375000Y-94315000D01*
X86355000Y-94315000D01*
X86355000Y-94295000D01*
X85030000Y-94295000D01*
X85000000Y-94325000D01*
X84970000Y-94295000D01*
X83645000Y-94295000D01*
X83645000Y-94315000D01*
X83625000Y-94315000D01*
X83625000Y-94295000D01*
X82300000Y-94295000D01*
X82225000Y-94370000D01*
X82225000Y-94684547D01*
X82236529Y-94742506D01*
X82259143Y-94797103D01*
X82291975Y-94846239D01*
X82330736Y-94885000D01*
X82057588Y-94885000D01*
X82052997Y-94883070D01*
X81918524Y-94855466D01*
X81781250Y-94854508D01*
X81646405Y-94880231D01*
X81519124Y-94931656D01*
X81404255Y-95006824D01*
X81306174Y-95102872D01*
X81228617Y-95216141D01*
X81174538Y-95342317D01*
X81145997Y-95476594D01*
X81144080Y-95613858D01*
X81168861Y-95748880D01*
X81219396Y-95876517D01*
X81293760Y-95991907D01*
X81389121Y-96090656D01*
X81501846Y-96169002D01*
X81539369Y-96185396D01*
X81499124Y-96201656D01*
X81384255Y-96276824D01*
X81286174Y-96372872D01*
X81208617Y-96486141D01*
X81154538Y-96612317D01*
X81125997Y-96746594D01*
X81124080Y-96883858D01*
X81148861Y-97018880D01*
X81199396Y-97146517D01*
X81273760Y-97261907D01*
X81369121Y-97360656D01*
X81481846Y-97439002D01*
X81564105Y-97474940D01*
X81454255Y-97546824D01*
X81356174Y-97642872D01*
X81278617Y-97756141D01*
X81224538Y-97882317D01*
X81195997Y-98016594D01*
X81194080Y-98153858D01*
X81218861Y-98288880D01*
X81269396Y-98416517D01*
X81343760Y-98531907D01*
X81439121Y-98630656D01*
X81551846Y-98709002D01*
X81570151Y-98716999D01*
X81509124Y-98741656D01*
X81394255Y-98816824D01*
X81296174Y-98912872D01*
X81218617Y-99026141D01*
X81164538Y-99152317D01*
X81135997Y-99286594D01*
X81134080Y-99423858D01*
X81158861Y-99558880D01*
X81209396Y-99686517D01*
X81283760Y-99801907D01*
X81379121Y-99900656D01*
X81491846Y-99979002D01*
X81553392Y-100005891D01*
X81539124Y-100011656D01*
X81424255Y-100086824D01*
X81326174Y-100182872D01*
X81248617Y-100296141D01*
X81194538Y-100422317D01*
X81165997Y-100556594D01*
X81164080Y-100693858D01*
X81188861Y-100828880D01*
X81239396Y-100956517D01*
X81313760Y-101071907D01*
X81409121Y-101170656D01*
X81521846Y-101249002D01*
X81540151Y-101256999D01*
X81479124Y-101281656D01*
X81364255Y-101356824D01*
X81266174Y-101452872D01*
X81188617Y-101566141D01*
X81134538Y-101692317D01*
X81105997Y-101826594D01*
X81104080Y-101963858D01*
X80529193Y-101963858D01*
X80411587Y-98815356D01*
X81014745Y-95033172D01*
X81438407Y-93885453D01*
X82225000Y-93885453D01*
X82225000Y-94200000D01*
X82300000Y-94275000D01*
X83625000Y-94275000D01*
X83625000Y-93690000D01*
X83645000Y-93690000D01*
X83645000Y-94275000D01*
X84970000Y-94275000D01*
X85000000Y-94245000D01*
X85030000Y-94275000D01*
X86355000Y-94275000D01*
X86355000Y-93690000D01*
X86375000Y-93690000D01*
X86375000Y-94275000D01*
X87700000Y-94275000D01*
X87775000Y-94200000D01*
X87775000Y-93885453D01*
X87763471Y-93827494D01*
X87740857Y-93772897D01*
X87708025Y-93723761D01*
X87666239Y-93681975D01*
X87617104Y-93649144D01*
X87562507Y-93626529D01*
X87504548Y-93615000D01*
X86450000Y-93615000D01*
X86375000Y-93690000D01*
X86355000Y-93690000D01*
X86280000Y-93615000D01*
X85225452Y-93615000D01*
X85167493Y-93626529D01*
X85112896Y-93649144D01*
X85063761Y-93681975D01*
X85021975Y-93723761D01*
X85000000Y-93756649D01*
X84978025Y-93723761D01*
X84936239Y-93681975D01*
X84887104Y-93649144D01*
X84832507Y-93626529D01*
X84774548Y-93615000D01*
X83720000Y-93615000D01*
X83645000Y-93690000D01*
X83625000Y-93690000D01*
X83550000Y-93615000D01*
X82495452Y-93615000D01*
X82437493Y-93626529D01*
X82382896Y-93649144D01*
X82333761Y-93681975D01*
X82291975Y-93723761D01*
X82259143Y-93772897D01*
X82236529Y-93827494D01*
X82225000Y-93885453D01*
X81438407Y-93885453D01*
X81849910Y-92770674D01*
X84098817Y-92770674D01*
X84130678Y-92944274D01*
X84195652Y-93108379D01*
X84291263Y-93256738D01*
X84413870Y-93383701D01*
X84558802Y-93484431D01*
X84720539Y-93555093D01*
X84892921Y-93592993D01*
X85069381Y-93596690D01*
X85243199Y-93566041D01*
X85407753Y-93502214D01*
X85556777Y-93407641D01*
X85684592Y-93285924D01*
X85786332Y-93141699D01*
X85858121Y-92980459D01*
X85897224Y-92808346D01*
X85900039Y-92606750D01*
X85865757Y-92433613D01*
X85798498Y-92270431D01*
X85700825Y-92123421D01*
X85696803Y-92119370D01*
X94060253Y-92119370D01*
X94067076Y-92153671D01*
X94110178Y-92283950D01*
X94177868Y-92403317D01*
X94267545Y-92507185D01*
X94375762Y-92591562D01*
X94498361Y-92653206D01*
X94630630Y-92689747D01*
X94740000Y-92624929D01*
X94740000Y-92010000D01*
X94760000Y-92010000D01*
X94760000Y-92624929D01*
X94869370Y-92689747D01*
X95001639Y-92653206D01*
X95124238Y-92591562D01*
X95232455Y-92507185D01*
X95322132Y-92403317D01*
X95375000Y-92310088D01*
X95427868Y-92403317D01*
X95517545Y-92507185D01*
X95625762Y-92591562D01*
X95748361Y-92653206D01*
X95880630Y-92689747D01*
X95990000Y-92624929D01*
X95990000Y-92010000D01*
X96010000Y-92010000D01*
X96010000Y-92624929D01*
X96119370Y-92689747D01*
X96251639Y-92653206D01*
X96374238Y-92591562D01*
X96482455Y-92507185D01*
X96572132Y-92403317D01*
X96625000Y-92310088D01*
X96677868Y-92403317D01*
X96767545Y-92507185D01*
X96875762Y-92591562D01*
X96998361Y-92653206D01*
X97130630Y-92689747D01*
X97240000Y-92624929D01*
X97240000Y-92010000D01*
X96625080Y-92010000D01*
X96625000Y-92010135D01*
X96624920Y-92010000D01*
X96010000Y-92010000D01*
X95990000Y-92010000D01*
X95375080Y-92010000D01*
X95375000Y-92010135D01*
X95374920Y-92010000D01*
X94760000Y-92010000D01*
X94740000Y-92010000D01*
X94125080Y-92010000D01*
X94060253Y-92119370D01*
X85696803Y-92119370D01*
X85576458Y-91998182D01*
X85430133Y-91899485D01*
X85385279Y-91880630D01*
X94060253Y-91880630D01*
X94125080Y-91990000D01*
X94740000Y-91990000D01*
X94740000Y-91375071D01*
X94760000Y-91375071D01*
X94760000Y-91990000D01*
X95374920Y-91990000D01*
X95375000Y-91989865D01*
X95375080Y-91990000D01*
X95990000Y-91990000D01*
X95990000Y-91375071D01*
X96010000Y-91375071D01*
X96010000Y-91990000D01*
X96624920Y-91990000D01*
X96625000Y-91989865D01*
X96625080Y-91990000D01*
X97240000Y-91990000D01*
X97240000Y-91375071D01*
X97130630Y-91310253D01*
X96998361Y-91346794D01*
X96875762Y-91408438D01*
X96767545Y-91492815D01*
X96677868Y-91596683D01*
X96625000Y-91689912D01*
X96572132Y-91596683D01*
X96482455Y-91492815D01*
X96374238Y-91408438D01*
X96251639Y-91346794D01*
X96119370Y-91310253D01*
X96010000Y-91375071D01*
X95990000Y-91375071D01*
X95880630Y-91310253D01*
X95748361Y-91346794D01*
X95625762Y-91408438D01*
X95517545Y-91492815D01*
X95427868Y-91596683D01*
X95375000Y-91689912D01*
X95322132Y-91596683D01*
X95232455Y-91492815D01*
X95124238Y-91408438D01*
X95001639Y-91346794D01*
X94869370Y-91310253D01*
X94760000Y-91375071D01*
X94740000Y-91375071D01*
X94630630Y-91310253D01*
X94498361Y-91346794D01*
X94375762Y-91408438D01*
X94267545Y-91492815D01*
X94177868Y-91596683D01*
X94110178Y-91716050D01*
X94067076Y-91846329D01*
X94060253Y-91880630D01*
X85385279Y-91880630D01*
X85267425Y-91831089D01*
X85094531Y-91795599D01*
X84918036Y-91794367D01*
X84744663Y-91827440D01*
X84581016Y-91893557D01*
X84433328Y-91990202D01*
X84307224Y-92113692D01*
X84207508Y-92259324D01*
X84137977Y-92421550D01*
X84101281Y-92594193D01*
X84098817Y-92770674D01*
X81849910Y-92770674D01*
X82341043Y-91440179D01*
X84346604Y-88162374D01*
X84979670Y-87375000D01*
X115004534Y-87375000D01*
X117107098Y-90384569D01*
M02*
