G04 #@! TF.FileFunction,Legend,Bot*
%FSLAX46Y46*%
G04 Gerber Fmt 4.6, Leading zero omitted, Abs format (unit mm)*
G04 Created by KiCad (PCBNEW 4.0.2-4+6225~38~ubuntu14.04.1-stable) date Sun 08 May 2016 15:34:50 BST*
%MOMM*%
G01*
G04 APERTURE LIST*
%ADD10C,0.100000*%
%ADD11C,0.150000*%
%ADD12C,0.010000*%
%ADD13R,0.800000X0.800000*%
%ADD14O,0.800000X0.800000*%
%ADD15R,2.220000X0.740000*%
%ADD16C,1.200000*%
%ADD17R,0.740000X2.220000*%
G04 APERTURE END LIST*
D10*
X106833333Y-101886667D02*
X106833333Y-101420000D01*
X106833333Y-101486667D02*
X106800000Y-101453333D01*
X106733333Y-101420000D01*
X106633333Y-101420000D01*
X106566667Y-101453333D01*
X106533333Y-101520000D01*
X106533333Y-101886667D01*
X106533333Y-101520000D02*
X106500000Y-101453333D01*
X106433333Y-101420000D01*
X106333333Y-101420000D01*
X106266667Y-101453333D01*
X106233333Y-101520000D01*
X106233333Y-101886667D01*
X105966667Y-101186667D02*
X105533334Y-101186667D01*
X105766667Y-101453333D01*
X105666667Y-101453333D01*
X105600000Y-101486667D01*
X105566667Y-101520000D01*
X105533334Y-101586667D01*
X105533334Y-101753333D01*
X105566667Y-101820000D01*
X105600000Y-101853333D01*
X105666667Y-101886667D01*
X105866667Y-101886667D01*
X105933334Y-101853333D01*
X105966667Y-101820000D01*
X104933333Y-101886667D02*
X104933333Y-101186667D01*
X104933333Y-101853333D02*
X105000000Y-101886667D01*
X105133333Y-101886667D01*
X105200000Y-101853333D01*
X105233333Y-101820000D01*
X105266667Y-101753333D01*
X105266667Y-101553333D01*
X105233333Y-101486667D01*
X105200000Y-101453333D01*
X105133333Y-101420000D01*
X105000000Y-101420000D01*
X104933333Y-101453333D01*
X104500000Y-101886667D02*
X104566667Y-101853333D01*
X104600000Y-101786667D01*
X104600000Y-101186667D01*
X103700000Y-101620000D02*
X103166667Y-101620000D01*
X102300000Y-101886667D02*
X102300000Y-101186667D01*
X102033334Y-101186667D01*
X101966667Y-101220000D01*
X101933334Y-101253333D01*
X101900000Y-101320000D01*
X101900000Y-101420000D01*
X101933334Y-101486667D01*
X101966667Y-101520000D01*
X102033334Y-101553333D01*
X102300000Y-101553333D01*
X101600000Y-101886667D02*
X101600000Y-101420000D01*
X101600000Y-101553333D02*
X101566667Y-101486667D01*
X101533334Y-101453333D01*
X101466667Y-101420000D01*
X101400000Y-101420000D01*
X100900001Y-101853333D02*
X100966667Y-101886667D01*
X101100001Y-101886667D01*
X101166667Y-101853333D01*
X101200001Y-101786667D01*
X101200001Y-101520000D01*
X101166667Y-101453333D01*
X101100001Y-101420000D01*
X100966667Y-101420000D01*
X100900001Y-101453333D01*
X100866667Y-101520000D01*
X100866667Y-101586667D01*
X101200001Y-101653333D01*
X100600001Y-101853333D02*
X100533334Y-101886667D01*
X100400001Y-101886667D01*
X100333334Y-101853333D01*
X100300001Y-101786667D01*
X100300001Y-101753333D01*
X100333334Y-101686667D01*
X100400001Y-101653333D01*
X100500001Y-101653333D01*
X100566667Y-101620000D01*
X100600001Y-101553333D01*
X100600001Y-101520000D01*
X100566667Y-101453333D01*
X100500001Y-101420000D01*
X100400001Y-101420000D01*
X100333334Y-101453333D01*
X100033334Y-101853333D02*
X99966667Y-101886667D01*
X99833334Y-101886667D01*
X99766667Y-101853333D01*
X99733334Y-101786667D01*
X99733334Y-101753333D01*
X99766667Y-101686667D01*
X99833334Y-101653333D01*
X99933334Y-101653333D01*
X100000000Y-101620000D01*
X100033334Y-101553333D01*
X100033334Y-101520000D01*
X100000000Y-101453333D01*
X99933334Y-101420000D01*
X99833334Y-101420000D01*
X99766667Y-101453333D01*
X99133333Y-101420000D02*
X99133333Y-101886667D01*
X99433333Y-101420000D02*
X99433333Y-101786667D01*
X99400000Y-101853333D01*
X99333333Y-101886667D01*
X99233333Y-101886667D01*
X99166667Y-101853333D01*
X99133333Y-101820000D01*
X98800000Y-101886667D02*
X98800000Y-101420000D01*
X98800000Y-101553333D02*
X98766667Y-101486667D01*
X98733334Y-101453333D01*
X98666667Y-101420000D01*
X98600000Y-101420000D01*
X98100001Y-101853333D02*
X98166667Y-101886667D01*
X98300001Y-101886667D01*
X98366667Y-101853333D01*
X98400001Y-101786667D01*
X98400001Y-101520000D01*
X98366667Y-101453333D01*
X98300001Y-101420000D01*
X98166667Y-101420000D01*
X98100001Y-101453333D01*
X98066667Y-101520000D01*
X98066667Y-101586667D01*
X98400001Y-101653333D01*
X97233334Y-101886667D02*
X97233334Y-101420000D01*
X97233334Y-101553333D02*
X97200001Y-101486667D01*
X97166668Y-101453333D01*
X97100001Y-101420000D01*
X97033334Y-101420000D01*
X96433335Y-101886667D02*
X96833335Y-101886667D01*
X96633335Y-101886667D02*
X96633335Y-101186667D01*
X96700001Y-101286667D01*
X96766668Y-101353333D01*
X96833335Y-101386667D01*
X106833333Y-102966667D02*
X106833333Y-102266667D01*
X106600000Y-102766667D01*
X106366667Y-102266667D01*
X106366667Y-102966667D01*
X105733333Y-102966667D02*
X105733333Y-102600000D01*
X105766667Y-102533333D01*
X105833333Y-102500000D01*
X105966667Y-102500000D01*
X106033333Y-102533333D01*
X105733333Y-102933333D02*
X105800000Y-102966667D01*
X105966667Y-102966667D01*
X106033333Y-102933333D01*
X106066667Y-102866667D01*
X106066667Y-102800000D01*
X106033333Y-102733333D01*
X105966667Y-102700000D01*
X105800000Y-102700000D01*
X105733333Y-102666667D01*
X105500000Y-102500000D02*
X105233334Y-102500000D01*
X105400000Y-102266667D02*
X105400000Y-102866667D01*
X105366667Y-102933333D01*
X105300000Y-102966667D01*
X105233334Y-102966667D01*
X105100000Y-102500000D02*
X104833334Y-102500000D01*
X105000000Y-102266667D02*
X105000000Y-102866667D01*
X104966667Y-102933333D01*
X104900000Y-102966667D01*
X104833334Y-102966667D01*
X103666667Y-102900000D02*
X103700001Y-102933333D01*
X103800001Y-102966667D01*
X103866667Y-102966667D01*
X103966667Y-102933333D01*
X104033334Y-102866667D01*
X104066667Y-102800000D01*
X104100001Y-102666667D01*
X104100001Y-102566667D01*
X104066667Y-102433333D01*
X104033334Y-102366667D01*
X103966667Y-102300000D01*
X103866667Y-102266667D01*
X103800001Y-102266667D01*
X103700001Y-102300000D01*
X103666667Y-102333333D01*
X103266667Y-102966667D02*
X103333334Y-102933333D01*
X103366667Y-102900000D01*
X103400001Y-102833333D01*
X103400001Y-102633333D01*
X103366667Y-102566667D01*
X103333334Y-102533333D01*
X103266667Y-102500000D01*
X103166667Y-102500000D01*
X103100001Y-102533333D01*
X103066667Y-102566667D01*
X103033334Y-102633333D01*
X103033334Y-102833333D01*
X103066667Y-102900000D01*
X103100001Y-102933333D01*
X103166667Y-102966667D01*
X103266667Y-102966667D01*
X102433334Y-102966667D02*
X102433334Y-102600000D01*
X102466668Y-102533333D01*
X102533334Y-102500000D01*
X102666668Y-102500000D01*
X102733334Y-102533333D01*
X102433334Y-102933333D02*
X102500001Y-102966667D01*
X102666668Y-102966667D01*
X102733334Y-102933333D01*
X102766668Y-102866667D01*
X102766668Y-102800000D01*
X102733334Y-102733333D01*
X102666668Y-102700000D01*
X102500001Y-102700000D01*
X102433334Y-102666667D01*
X102200001Y-102500000D02*
X101933335Y-102500000D01*
X102100001Y-102266667D02*
X102100001Y-102866667D01*
X102066668Y-102933333D01*
X102000001Y-102966667D01*
X101933335Y-102966667D01*
X101433335Y-102933333D02*
X101500001Y-102966667D01*
X101633335Y-102966667D01*
X101700001Y-102933333D01*
X101733335Y-102866667D01*
X101733335Y-102600000D01*
X101700001Y-102533333D01*
X101633335Y-102500000D01*
X101500001Y-102500000D01*
X101433335Y-102533333D01*
X101400001Y-102600000D01*
X101400001Y-102666667D01*
X101733335Y-102733333D01*
X101133335Y-102933333D02*
X101066668Y-102966667D01*
X100933335Y-102966667D01*
X100866668Y-102933333D01*
X100833335Y-102866667D01*
X100833335Y-102833333D01*
X100866668Y-102766667D01*
X100933335Y-102733333D01*
X101033335Y-102733333D01*
X101100001Y-102700000D01*
X101133335Y-102633333D01*
X101133335Y-102600000D01*
X101100001Y-102533333D01*
X101033335Y-102500000D01*
X100933335Y-102500000D01*
X100866668Y-102533333D01*
X106466667Y-104046667D02*
X106866667Y-104046667D01*
X106666667Y-104046667D02*
X106666667Y-103346667D01*
X106733333Y-103446667D01*
X106800000Y-103513333D01*
X106866667Y-103546667D01*
X105800000Y-104046667D02*
X106200000Y-104046667D01*
X106000000Y-104046667D02*
X106000000Y-103346667D01*
X106066666Y-103446667D01*
X106133333Y-103513333D01*
X106200000Y-103546667D01*
X104999999Y-103313333D02*
X105599999Y-104213333D01*
X104633333Y-103346667D02*
X104566666Y-103346667D01*
X104500000Y-103380000D01*
X104466666Y-103413333D01*
X104433333Y-103480000D01*
X104400000Y-103613333D01*
X104400000Y-103780000D01*
X104433333Y-103913333D01*
X104466666Y-103980000D01*
X104500000Y-104013333D01*
X104566666Y-104046667D01*
X104633333Y-104046667D01*
X104700000Y-104013333D01*
X104733333Y-103980000D01*
X104766666Y-103913333D01*
X104800000Y-103780000D01*
X104800000Y-103613333D01*
X104766666Y-103480000D01*
X104733333Y-103413333D01*
X104700000Y-103380000D01*
X104633333Y-103346667D01*
X104166666Y-103346667D02*
X103733333Y-103346667D01*
X103966666Y-103613333D01*
X103866666Y-103613333D01*
X103799999Y-103646667D01*
X103766666Y-103680000D01*
X103733333Y-103746667D01*
X103733333Y-103913333D01*
X103766666Y-103980000D01*
X103799999Y-104013333D01*
X103866666Y-104046667D01*
X104066666Y-104046667D01*
X104133333Y-104013333D01*
X104166666Y-103980000D01*
X102933332Y-103313333D02*
X103533332Y-104213333D01*
X102333333Y-104046667D02*
X102733333Y-104046667D01*
X102533333Y-104046667D02*
X102533333Y-103346667D01*
X102599999Y-103446667D01*
X102666666Y-103513333D01*
X102733333Y-103546667D01*
X101733332Y-103346667D02*
X101866666Y-103346667D01*
X101933332Y-103380000D01*
X101966666Y-103413333D01*
X102033332Y-103513333D01*
X102066666Y-103646667D01*
X102066666Y-103913333D01*
X102033332Y-103980000D01*
X101999999Y-104013333D01*
X101933332Y-104046667D01*
X101799999Y-104046667D01*
X101733332Y-104013333D01*
X101699999Y-103980000D01*
X101666666Y-103913333D01*
X101666666Y-103746667D01*
X101699999Y-103680000D01*
X101733332Y-103646667D01*
X101799999Y-103613333D01*
X101933332Y-103613333D01*
X101999999Y-103646667D01*
X102033332Y-103680000D01*
X102066666Y-103746667D01*
D11*
X83550000Y-106465000D02*
X84315000Y-106465000D01*
X84315000Y-106465000D02*
X84315000Y-108245000D01*
X84315000Y-108245000D02*
X85685000Y-108245000D01*
X85685000Y-108245000D02*
X85685000Y-106465000D01*
X85685000Y-106465000D02*
X86450000Y-106465000D01*
X86450000Y-106465000D02*
X86450000Y-106165000D01*
X86450000Y-93835000D02*
X86450000Y-93535000D01*
X86450000Y-93535000D02*
X85685000Y-93535000D01*
X85685000Y-93535000D02*
X85685000Y-91755000D01*
X85685000Y-91755000D02*
X84315000Y-91755000D01*
X84315000Y-91755000D02*
X84315000Y-93535000D01*
X84315000Y-93535000D02*
X83550000Y-93535000D01*
X113550000Y-106465000D02*
X114315000Y-106465000D01*
X114315000Y-106465000D02*
X114315000Y-108245000D01*
X114315000Y-108245000D02*
X115685000Y-108245000D01*
X115685000Y-108245000D02*
X115685000Y-106465000D01*
X115685000Y-106465000D02*
X116450000Y-106465000D01*
X116450000Y-106465000D02*
X116450000Y-106165000D01*
X116450000Y-93835000D02*
X116450000Y-93535000D01*
X116450000Y-93535000D02*
X115685000Y-93535000D01*
X115685000Y-93535000D02*
X115685000Y-91755000D01*
X115685000Y-91755000D02*
X114315000Y-91755000D01*
X114315000Y-91755000D02*
X114315000Y-93535000D01*
X114315000Y-93535000D02*
X113550000Y-93535000D01*
X106465000Y-116450000D02*
X106465000Y-115685000D01*
X106465000Y-115685000D02*
X108245000Y-115685000D01*
X108245000Y-115685000D02*
X108245000Y-114315000D01*
X108245000Y-114315000D02*
X106465000Y-114315000D01*
X106465000Y-114315000D02*
X106465000Y-113550000D01*
X106465000Y-113550000D02*
X106165000Y-113550000D01*
X93835000Y-113550000D02*
X93535000Y-113550000D01*
X93535000Y-113550000D02*
X93535000Y-114315000D01*
X93535000Y-114315000D02*
X91755000Y-114315000D01*
X91755000Y-114315000D02*
X91755000Y-115685000D01*
X91755000Y-115685000D02*
X93535000Y-115685000D01*
X93535000Y-115685000D02*
X93535000Y-116450000D01*
D12*
G36*
X109377031Y-102966705D02*
X109342847Y-102987074D01*
X109292055Y-103019287D01*
X109226712Y-103061923D01*
X109148876Y-103113562D01*
X109060606Y-103172784D01*
X108963961Y-103238167D01*
X108860997Y-103308292D01*
X108753774Y-103381739D01*
X108644350Y-103457086D01*
X108534782Y-103532914D01*
X108427130Y-103607802D01*
X108323451Y-103680329D01*
X108225803Y-103749077D01*
X108136245Y-103812623D01*
X108056834Y-103869548D01*
X107989630Y-103918431D01*
X107936690Y-103957852D01*
X107900072Y-103986391D01*
X107883025Y-104001333D01*
X107852032Y-104038505D01*
X107837822Y-104071069D01*
X107835400Y-104095758D01*
X107837552Y-104120237D01*
X107845332Y-104135526D01*
X107860724Y-104140802D01*
X107885715Y-104135246D01*
X107922289Y-104118036D01*
X107972433Y-104088350D01*
X108038131Y-104045369D01*
X108121370Y-103988270D01*
X108159250Y-103961833D01*
X108227023Y-103914460D01*
X108311702Y-103855392D01*
X108409315Y-103787396D01*
X108515885Y-103713237D01*
X108627438Y-103635681D01*
X108739999Y-103557494D01*
X108849594Y-103481441D01*
X108873615Y-103464782D01*
X108971495Y-103396692D01*
X109064297Y-103331710D01*
X109149630Y-103271540D01*
X109225103Y-103217889D01*
X109288323Y-103172462D01*
X109336899Y-103136963D01*
X109368441Y-103113097D01*
X109378440Y-103104848D01*
X109407321Y-103074095D01*
X109420248Y-103044941D01*
X109422900Y-103011862D01*
X109421214Y-102978474D01*
X109413441Y-102963398D01*
X109395511Y-102959625D01*
X109392548Y-102959600D01*
X109377031Y-102966705D01*
X109377031Y-102966705D01*
G37*
X109377031Y-102966705D02*
X109342847Y-102987074D01*
X109292055Y-103019287D01*
X109226712Y-103061923D01*
X109148876Y-103113562D01*
X109060606Y-103172784D01*
X108963961Y-103238167D01*
X108860997Y-103308292D01*
X108753774Y-103381739D01*
X108644350Y-103457086D01*
X108534782Y-103532914D01*
X108427130Y-103607802D01*
X108323451Y-103680329D01*
X108225803Y-103749077D01*
X108136245Y-103812623D01*
X108056834Y-103869548D01*
X107989630Y-103918431D01*
X107936690Y-103957852D01*
X107900072Y-103986391D01*
X107883025Y-104001333D01*
X107852032Y-104038505D01*
X107837822Y-104071069D01*
X107835400Y-104095758D01*
X107837552Y-104120237D01*
X107845332Y-104135526D01*
X107860724Y-104140802D01*
X107885715Y-104135246D01*
X107922289Y-104118036D01*
X107972433Y-104088350D01*
X108038131Y-104045369D01*
X108121370Y-103988270D01*
X108159250Y-103961833D01*
X108227023Y-103914460D01*
X108311702Y-103855392D01*
X108409315Y-103787396D01*
X108515885Y-103713237D01*
X108627438Y-103635681D01*
X108739999Y-103557494D01*
X108849594Y-103481441D01*
X108873615Y-103464782D01*
X108971495Y-103396692D01*
X109064297Y-103331710D01*
X109149630Y-103271540D01*
X109225103Y-103217889D01*
X109288323Y-103172462D01*
X109336899Y-103136963D01*
X109368441Y-103113097D01*
X109378440Y-103104848D01*
X109407321Y-103074095D01*
X109420248Y-103044941D01*
X109422900Y-103011862D01*
X109421214Y-102978474D01*
X109413441Y-102963398D01*
X109395511Y-102959625D01*
X109392548Y-102959600D01*
X109377031Y-102966705D01*
G36*
X109383904Y-102471445D02*
X109349992Y-102491940D01*
X109299472Y-102524369D01*
X109234373Y-102567317D01*
X109156727Y-102619369D01*
X109068563Y-102679112D01*
X108971911Y-102745130D01*
X108868802Y-102816009D01*
X108761266Y-102890333D01*
X108651333Y-102966689D01*
X108541033Y-103043661D01*
X108432397Y-103119835D01*
X108327455Y-103193796D01*
X108228236Y-103264130D01*
X108136772Y-103329422D01*
X108055092Y-103388256D01*
X107985226Y-103439219D01*
X107929206Y-103480896D01*
X107889060Y-103511872D01*
X107866820Y-103530732D01*
X107863534Y-103534359D01*
X107844308Y-103573320D01*
X107836557Y-103614433D01*
X107840060Y-103650672D01*
X107854597Y-103675008D01*
X107868141Y-103680922D01*
X107887474Y-103674603D01*
X107926717Y-103653134D01*
X107985549Y-103616718D01*
X108063646Y-103565559D01*
X108160687Y-103499861D01*
X108230091Y-103452009D01*
X108412389Y-103325572D01*
X108574898Y-103212798D01*
X108718725Y-103112909D01*
X108844978Y-103025128D01*
X108954763Y-102948677D01*
X109049189Y-102882781D01*
X109129363Y-102826661D01*
X109196391Y-102779540D01*
X109251382Y-102740642D01*
X109295442Y-102709188D01*
X109329679Y-102684403D01*
X109355201Y-102665509D01*
X109373114Y-102651728D01*
X109384526Y-102642283D01*
X109386848Y-102640179D01*
X109408255Y-102616595D01*
X109419069Y-102591240D01*
X109422697Y-102554209D01*
X109422900Y-102535404D01*
X109421732Y-102494375D01*
X109416924Y-102472842D01*
X109406526Y-102464955D01*
X109399177Y-102464300D01*
X109383904Y-102471445D01*
X109383904Y-102471445D01*
G37*
X109383904Y-102471445D02*
X109349992Y-102491940D01*
X109299472Y-102524369D01*
X109234373Y-102567317D01*
X109156727Y-102619369D01*
X109068563Y-102679112D01*
X108971911Y-102745130D01*
X108868802Y-102816009D01*
X108761266Y-102890333D01*
X108651333Y-102966689D01*
X108541033Y-103043661D01*
X108432397Y-103119835D01*
X108327455Y-103193796D01*
X108228236Y-103264130D01*
X108136772Y-103329422D01*
X108055092Y-103388256D01*
X107985226Y-103439219D01*
X107929206Y-103480896D01*
X107889060Y-103511872D01*
X107866820Y-103530732D01*
X107863534Y-103534359D01*
X107844308Y-103573320D01*
X107836557Y-103614433D01*
X107840060Y-103650672D01*
X107854597Y-103675008D01*
X107868141Y-103680922D01*
X107887474Y-103674603D01*
X107926717Y-103653134D01*
X107985549Y-103616718D01*
X108063646Y-103565559D01*
X108160687Y-103499861D01*
X108230091Y-103452009D01*
X108412389Y-103325572D01*
X108574898Y-103212798D01*
X108718725Y-103112909D01*
X108844978Y-103025128D01*
X108954763Y-102948677D01*
X109049189Y-102882781D01*
X109129363Y-102826661D01*
X109196391Y-102779540D01*
X109251382Y-102740642D01*
X109295442Y-102709188D01*
X109329679Y-102684403D01*
X109355201Y-102665509D01*
X109373114Y-102651728D01*
X109384526Y-102642283D01*
X109386848Y-102640179D01*
X109408255Y-102616595D01*
X109419069Y-102591240D01*
X109422697Y-102554209D01*
X109422900Y-102535404D01*
X109421732Y-102494375D01*
X109416924Y-102472842D01*
X109406526Y-102464955D01*
X109399177Y-102464300D01*
X109383904Y-102471445D01*
G36*
X109350497Y-101937530D02*
X109323454Y-101952089D01*
X109307416Y-101963377D01*
X109272324Y-101987879D01*
X109219994Y-102024334D01*
X109152240Y-102071478D01*
X109070879Y-102128050D01*
X108977727Y-102192788D01*
X108874599Y-102264427D01*
X108763312Y-102341708D01*
X108645681Y-102423365D01*
X108588297Y-102463191D01*
X108449173Y-102559809D01*
X108329454Y-102643152D01*
X108227624Y-102714348D01*
X108142168Y-102774524D01*
X108071568Y-102824809D01*
X108014310Y-102866331D01*
X107968876Y-102900218D01*
X107933751Y-102927598D01*
X107907419Y-102949598D01*
X107888363Y-102967347D01*
X107875067Y-102981973D01*
X107866016Y-102994604D01*
X107860493Y-103004686D01*
X107839406Y-103071958D01*
X107837846Y-103120692D01*
X107841697Y-103157982D01*
X107849591Y-103176867D01*
X107865386Y-103184343D01*
X107873645Y-103185576D01*
X107885022Y-103182989D01*
X107905925Y-103173072D01*
X107937535Y-103155044D01*
X107981033Y-103128125D01*
X108037602Y-103091534D01*
X108108424Y-103044490D01*
X108194681Y-102986213D01*
X108297555Y-102915923D01*
X108418228Y-102832839D01*
X108557882Y-102736181D01*
X108628604Y-102687096D01*
X108750573Y-102602249D01*
X108867096Y-102520933D01*
X108976380Y-102444415D01*
X109076632Y-102373962D01*
X109166059Y-102310842D01*
X109242868Y-102256323D01*
X109305267Y-102211671D01*
X109351463Y-102178155D01*
X109379662Y-102157041D01*
X109387285Y-102150769D01*
X109406568Y-102129716D01*
X109417302Y-102107750D01*
X109421932Y-102076612D01*
X109422900Y-102030365D01*
X109422287Y-101984486D01*
X109419018Y-101957818D01*
X109410949Y-101944181D01*
X109395936Y-101937391D01*
X109390129Y-101935858D01*
X109350497Y-101937530D01*
X109350497Y-101937530D01*
G37*
X109350497Y-101937530D02*
X109323454Y-101952089D01*
X109307416Y-101963377D01*
X109272324Y-101987879D01*
X109219994Y-102024334D01*
X109152240Y-102071478D01*
X109070879Y-102128050D01*
X108977727Y-102192788D01*
X108874599Y-102264427D01*
X108763312Y-102341708D01*
X108645681Y-102423365D01*
X108588297Y-102463191D01*
X108449173Y-102559809D01*
X108329454Y-102643152D01*
X108227624Y-102714348D01*
X108142168Y-102774524D01*
X108071568Y-102824809D01*
X108014310Y-102866331D01*
X107968876Y-102900218D01*
X107933751Y-102927598D01*
X107907419Y-102949598D01*
X107888363Y-102967347D01*
X107875067Y-102981973D01*
X107866016Y-102994604D01*
X107860493Y-103004686D01*
X107839406Y-103071958D01*
X107837846Y-103120692D01*
X107841697Y-103157982D01*
X107849591Y-103176867D01*
X107865386Y-103184343D01*
X107873645Y-103185576D01*
X107885022Y-103182989D01*
X107905925Y-103173072D01*
X107937535Y-103155044D01*
X107981033Y-103128125D01*
X108037602Y-103091534D01*
X108108424Y-103044490D01*
X108194681Y-102986213D01*
X108297555Y-102915923D01*
X108418228Y-102832839D01*
X108557882Y-102736181D01*
X108628604Y-102687096D01*
X108750573Y-102602249D01*
X108867096Y-102520933D01*
X108976380Y-102444415D01*
X109076632Y-102373962D01*
X109166059Y-102310842D01*
X109242868Y-102256323D01*
X109305267Y-102211671D01*
X109351463Y-102178155D01*
X109379662Y-102157041D01*
X109387285Y-102150769D01*
X109406568Y-102129716D01*
X109417302Y-102107750D01*
X109421932Y-102076612D01*
X109422900Y-102030365D01*
X109422287Y-101984486D01*
X109419018Y-101957818D01*
X109410949Y-101944181D01*
X109395936Y-101937391D01*
X109390129Y-101935858D01*
X109350497Y-101937530D01*
G36*
X109351293Y-101345190D02*
X109335709Y-101354740D01*
X109301065Y-101377605D01*
X109249134Y-101412568D01*
X109181689Y-101458417D01*
X109100504Y-101513935D01*
X109007354Y-101577909D01*
X108904010Y-101649123D01*
X108792248Y-101726362D01*
X108673841Y-101808413D01*
X108596200Y-101862327D01*
X108435287Y-101974446D01*
X108295038Y-102072787D01*
X108174999Y-102157682D01*
X108074712Y-102229461D01*
X107993723Y-102288457D01*
X107931576Y-102335001D01*
X107887813Y-102369423D01*
X107861980Y-102392055D01*
X107854198Y-102401287D01*
X107843793Y-102434229D01*
X107837571Y-102479390D01*
X107835670Y-102528497D01*
X107838229Y-102573278D01*
X107845385Y-102605464D01*
X107850640Y-102614160D01*
X107875780Y-102627812D01*
X107886503Y-102629400D01*
X107900152Y-102622324D01*
X107932889Y-102601878D01*
X107982977Y-102569235D01*
X108048678Y-102525565D01*
X108128256Y-102472042D01*
X108219973Y-102409836D01*
X108322092Y-102340121D01*
X108432875Y-102264067D01*
X108550586Y-102182847D01*
X108630088Y-102127770D01*
X108752086Y-102042921D01*
X108868614Y-101961489D01*
X108977879Y-101884751D01*
X109078088Y-101813985D01*
X109167446Y-101750469D01*
X109244159Y-101695481D01*
X109306436Y-101650299D01*
X109352481Y-101616199D01*
X109380502Y-101594462D01*
X109387975Y-101587820D01*
X109405625Y-101566231D01*
X109416078Y-101544489D01*
X109421189Y-101515154D01*
X109422812Y-101470787D01*
X109422900Y-101447701D01*
X109420963Y-101388988D01*
X109413839Y-101352653D01*
X109399560Y-101335880D01*
X109376159Y-101335851D01*
X109351293Y-101345190D01*
X109351293Y-101345190D01*
G37*
X109351293Y-101345190D02*
X109335709Y-101354740D01*
X109301065Y-101377605D01*
X109249134Y-101412568D01*
X109181689Y-101458417D01*
X109100504Y-101513935D01*
X109007354Y-101577909D01*
X108904010Y-101649123D01*
X108792248Y-101726362D01*
X108673841Y-101808413D01*
X108596200Y-101862327D01*
X108435287Y-101974446D01*
X108295038Y-102072787D01*
X108174999Y-102157682D01*
X108074712Y-102229461D01*
X107993723Y-102288457D01*
X107931576Y-102335001D01*
X107887813Y-102369423D01*
X107861980Y-102392055D01*
X107854198Y-102401287D01*
X107843793Y-102434229D01*
X107837571Y-102479390D01*
X107835670Y-102528497D01*
X107838229Y-102573278D01*
X107845385Y-102605464D01*
X107850640Y-102614160D01*
X107875780Y-102627812D01*
X107886503Y-102629400D01*
X107900152Y-102622324D01*
X107932889Y-102601878D01*
X107982977Y-102569235D01*
X108048678Y-102525565D01*
X108128256Y-102472042D01*
X108219973Y-102409836D01*
X108322092Y-102340121D01*
X108432875Y-102264067D01*
X108550586Y-102182847D01*
X108630088Y-102127770D01*
X108752086Y-102042921D01*
X108868614Y-101961489D01*
X108977879Y-101884751D01*
X109078088Y-101813985D01*
X109167446Y-101750469D01*
X109244159Y-101695481D01*
X109306436Y-101650299D01*
X109352481Y-101616199D01*
X109380502Y-101594462D01*
X109387975Y-101587820D01*
X109405625Y-101566231D01*
X109416078Y-101544489D01*
X109421189Y-101515154D01*
X109422812Y-101470787D01*
X109422900Y-101447701D01*
X109420963Y-101388988D01*
X109413839Y-101352653D01*
X109399560Y-101335880D01*
X109376159Y-101335851D01*
X109351293Y-101345190D01*
G36*
X109359400Y-100709033D02*
X109343145Y-100718321D01*
X109308275Y-100740880D01*
X109256870Y-100775252D01*
X109191008Y-100819979D01*
X109112769Y-100873604D01*
X109024231Y-100934670D01*
X108927476Y-101001719D01*
X108824580Y-101073294D01*
X108717625Y-101147936D01*
X108608689Y-101224189D01*
X108499850Y-101300595D01*
X108393189Y-101375696D01*
X108290785Y-101448036D01*
X108194717Y-101516155D01*
X108107064Y-101578598D01*
X108029906Y-101633907D01*
X107965321Y-101680623D01*
X107915389Y-101717290D01*
X107882189Y-101742449D01*
X107867855Y-101754579D01*
X107852479Y-101774982D01*
X107842895Y-101796064D01*
X107837756Y-101824381D01*
X107835713Y-101866489D01*
X107835400Y-101912377D01*
X107836024Y-101969410D01*
X107838515Y-102006264D01*
X107843809Y-102028142D01*
X107852839Y-102040247D01*
X107859070Y-102044273D01*
X107879027Y-102048630D01*
X107905633Y-102040255D01*
X107942185Y-102019242D01*
X107969704Y-102001129D01*
X108016861Y-101969286D01*
X108082474Y-101924528D01*
X108165359Y-101867671D01*
X108264335Y-101799530D01*
X108378217Y-101720922D01*
X108505822Y-101632663D01*
X108645968Y-101535568D01*
X108797472Y-101430455D01*
X108959151Y-101318138D01*
X109022850Y-101273850D01*
X109104505Y-101216508D01*
X109181155Y-101161628D01*
X109249787Y-101111448D01*
X109307389Y-101068206D01*
X109350948Y-101034143D01*
X109377450Y-101011496D01*
X109381625Y-101007261D01*
X109400990Y-100984655D01*
X109413096Y-100964609D01*
X109419648Y-100940361D01*
X109422347Y-100905148D01*
X109422898Y-100852207D01*
X109422900Y-100843380D01*
X109422201Y-100786237D01*
X109419521Y-100749394D01*
X109413990Y-100727776D01*
X109404736Y-100716307D01*
X109400676Y-100713862D01*
X109372676Y-100707280D01*
X109359400Y-100709033D01*
X109359400Y-100709033D01*
G37*
X109359400Y-100709033D02*
X109343145Y-100718321D01*
X109308275Y-100740880D01*
X109256870Y-100775252D01*
X109191008Y-100819979D01*
X109112769Y-100873604D01*
X109024231Y-100934670D01*
X108927476Y-101001719D01*
X108824580Y-101073294D01*
X108717625Y-101147936D01*
X108608689Y-101224189D01*
X108499850Y-101300595D01*
X108393189Y-101375696D01*
X108290785Y-101448036D01*
X108194717Y-101516155D01*
X108107064Y-101578598D01*
X108029906Y-101633907D01*
X107965321Y-101680623D01*
X107915389Y-101717290D01*
X107882189Y-101742449D01*
X107867855Y-101754579D01*
X107852479Y-101774982D01*
X107842895Y-101796064D01*
X107837756Y-101824381D01*
X107835713Y-101866489D01*
X107835400Y-101912377D01*
X107836024Y-101969410D01*
X107838515Y-102006264D01*
X107843809Y-102028142D01*
X107852839Y-102040247D01*
X107859070Y-102044273D01*
X107879027Y-102048630D01*
X107905633Y-102040255D01*
X107942185Y-102019242D01*
X107969704Y-102001129D01*
X108016861Y-101969286D01*
X108082474Y-101924528D01*
X108165359Y-101867671D01*
X108264335Y-101799530D01*
X108378217Y-101720922D01*
X108505822Y-101632663D01*
X108645968Y-101535568D01*
X108797472Y-101430455D01*
X108959151Y-101318138D01*
X109022850Y-101273850D01*
X109104505Y-101216508D01*
X109181155Y-101161628D01*
X109249787Y-101111448D01*
X109307389Y-101068206D01*
X109350948Y-101034143D01*
X109377450Y-101011496D01*
X109381625Y-101007261D01*
X109400990Y-100984655D01*
X109413096Y-100964609D01*
X109419648Y-100940361D01*
X109422347Y-100905148D01*
X109422898Y-100852207D01*
X109422900Y-100843380D01*
X109422201Y-100786237D01*
X109419521Y-100749394D01*
X109413990Y-100727776D01*
X109404736Y-100716307D01*
X109400676Y-100713862D01*
X109372676Y-100707280D01*
X109359400Y-100709033D01*
G36*
X108614285Y-94216462D02*
X108603277Y-94230374D01*
X108581321Y-94264108D01*
X108549781Y-94315270D01*
X108510024Y-94381467D01*
X108463415Y-94460304D01*
X108411320Y-94549388D01*
X108355103Y-94646324D01*
X108296130Y-94748721D01*
X108235768Y-94854182D01*
X108175380Y-94960316D01*
X108116333Y-95064727D01*
X108059993Y-95165023D01*
X108007723Y-95258810D01*
X107960891Y-95343693D01*
X107920862Y-95417279D01*
X107889000Y-95477175D01*
X107866672Y-95520986D01*
X107855242Y-95546319D01*
X107854582Y-95548280D01*
X107852434Y-95557476D01*
X107850450Y-95571135D01*
X107848623Y-95590223D01*
X107846946Y-95615705D01*
X107845415Y-95648548D01*
X107844022Y-95689717D01*
X107842761Y-95740180D01*
X107841625Y-95800901D01*
X107840609Y-95872846D01*
X107839707Y-95956983D01*
X107838911Y-96054276D01*
X107838215Y-96165693D01*
X107837614Y-96292198D01*
X107837101Y-96434759D01*
X107836670Y-96594340D01*
X107836314Y-96771909D01*
X107836027Y-96968430D01*
X107835803Y-97184871D01*
X107835635Y-97422197D01*
X107835517Y-97681374D01*
X107835443Y-97963369D01*
X107835407Y-98269147D01*
X107835400Y-98488965D01*
X107835429Y-98823400D01*
X107835519Y-99133208D01*
X107835673Y-99419164D01*
X107835896Y-99682041D01*
X107836192Y-99922611D01*
X107836565Y-100141649D01*
X107837019Y-100339929D01*
X107837558Y-100518223D01*
X107838186Y-100677305D01*
X107838907Y-100817949D01*
X107839725Y-100940929D01*
X107840645Y-101047017D01*
X107841670Y-101136987D01*
X107842805Y-101211613D01*
X107844054Y-101271669D01*
X107845420Y-101317928D01*
X107846907Y-101351162D01*
X107848521Y-101372147D01*
X107850265Y-101381655D01*
X107850640Y-101382259D01*
X107875445Y-101394771D01*
X107891915Y-101396839D01*
X107906435Y-101389625D01*
X107940010Y-101368988D01*
X107990909Y-101336093D01*
X108057396Y-101292110D01*
X108137739Y-101238205D01*
X108230204Y-101175547D01*
X108333058Y-101105304D01*
X108444565Y-101028643D01*
X108562994Y-100946733D01*
X108653326Y-100883943D01*
X108775737Y-100798419D01*
X108892238Y-100716528D01*
X109001112Y-100639508D01*
X109100639Y-100568598D01*
X109189103Y-100505037D01*
X109264784Y-100450064D01*
X109325965Y-100404917D01*
X109370928Y-100370836D01*
X109397954Y-100349059D01*
X109405351Y-100341678D01*
X109407438Y-100333995D01*
X109409354Y-100318144D01*
X109411106Y-100293151D01*
X109412700Y-100258043D01*
X109414144Y-100211846D01*
X109415445Y-100153588D01*
X109416609Y-100082294D01*
X109417644Y-99996992D01*
X109418556Y-99896708D01*
X109419352Y-99780468D01*
X109420040Y-99647300D01*
X109420626Y-99496229D01*
X109421118Y-99326284D01*
X109421277Y-99251200D01*
X109041900Y-99251200D01*
X109041900Y-100254500D01*
X108851400Y-100254500D01*
X108851400Y-99848615D01*
X108587875Y-99845182D01*
X108324350Y-99841750D01*
X108316788Y-99683000D01*
X108851400Y-99683000D01*
X108851400Y-99416300D01*
X108241800Y-99416300D01*
X108241800Y-99251200D01*
X109041900Y-99251200D01*
X109421277Y-99251200D01*
X109421521Y-99136489D01*
X109421844Y-98925872D01*
X109422093Y-98693460D01*
X109422093Y-98692400D01*
X109045313Y-98692400D01*
X109039026Y-98780272D01*
X109027130Y-98858569D01*
X109002334Y-98917691D01*
X108961922Y-98960363D01*
X108903175Y-98989308D01*
X108823374Y-99007253D01*
X108810876Y-99008977D01*
X108712131Y-99018634D01*
X108620313Y-99019893D01*
X108521338Y-99012821D01*
X108499728Y-99010445D01*
X108415592Y-98996863D01*
X108351808Y-98975923D01*
X108305822Y-98944506D01*
X108275080Y-98899492D01*
X108257027Y-98837762D01*
X108249110Y-98756197D01*
X108248150Y-98703169D01*
X108248784Y-98640142D01*
X108251278Y-98596681D01*
X108256519Y-98566970D01*
X108265395Y-98545194D01*
X108274370Y-98531388D01*
X108305664Y-98498665D01*
X108347818Y-98473962D01*
X108405027Y-98455686D01*
X108481488Y-98442246D01*
X108521844Y-98437503D01*
X108617620Y-98427190D01*
X108691153Y-98418415D01*
X108745505Y-98410465D01*
X108783732Y-98402622D01*
X108808894Y-98394172D01*
X108824049Y-98384400D01*
X108832256Y-98372589D01*
X108835119Y-98364219D01*
X108843938Y-98306404D01*
X108840731Y-98251759D01*
X108826429Y-98208434D01*
X108815640Y-98193794D01*
X108797892Y-98180138D01*
X108773522Y-98171176D01*
X108736419Y-98165496D01*
X108680474Y-98161690D01*
X108675508Y-98161449D01*
X108593188Y-98161161D01*
X108529628Y-98168733D01*
X108486711Y-98183751D01*
X108466323Y-98205801D01*
X108465838Y-98207409D01*
X108458702Y-98236038D01*
X108452289Y-98263775D01*
X108446947Y-98282055D01*
X108437091Y-98292498D01*
X108416671Y-98297295D01*
X108379634Y-98298638D01*
X108355859Y-98298700D01*
X108267200Y-98298700D01*
X108267479Y-98238375D01*
X108273398Y-98187199D01*
X108287756Y-98135094D01*
X108292504Y-98123527D01*
X108315983Y-98084770D01*
X108348827Y-98055579D01*
X108394539Y-98034605D01*
X108456621Y-98020495D01*
X108538577Y-98011901D01*
X108589069Y-98009210D01*
X108706951Y-98008497D01*
X108807654Y-98016502D01*
X108888954Y-98032904D01*
X108948628Y-98057384D01*
X108955949Y-98061981D01*
X108993135Y-98100982D01*
X109020414Y-98158684D01*
X109036736Y-98229982D01*
X109041050Y-98309773D01*
X109032305Y-98392950D01*
X109028155Y-98412812D01*
X109014144Y-98457472D01*
X108993007Y-98492910D01*
X108961696Y-98520597D01*
X108917160Y-98542001D01*
X108856351Y-98558591D01*
X108776218Y-98571838D01*
X108674697Y-98583117D01*
X108590805Y-98591594D01*
X108528897Y-98599987D01*
X108485637Y-98610231D01*
X108457691Y-98624260D01*
X108441721Y-98644008D01*
X108434393Y-98671410D01*
X108432372Y-98708401D01*
X108432300Y-98723690D01*
X108435175Y-98772895D01*
X108442822Y-98810945D01*
X108449362Y-98825178D01*
X108475318Y-98842594D01*
X108521408Y-98855452D01*
X108582663Y-98863057D01*
X108654112Y-98864713D01*
X108710452Y-98861714D01*
X108776732Y-98851946D01*
X108820700Y-98835104D01*
X108844813Y-98809730D01*
X108851574Y-98778125D01*
X108853868Y-98735874D01*
X108863494Y-98710339D01*
X108885517Y-98697370D01*
X108924998Y-98692818D01*
X108956188Y-98692400D01*
X109045313Y-98692400D01*
X109422093Y-98692400D01*
X109422275Y-98438279D01*
X109422397Y-98159355D01*
X109422450Y-97948528D01*
X109422673Y-96774700D01*
X109041900Y-96774700D01*
X109041900Y-97159744D01*
X109041636Y-97277309D01*
X109040765Y-97372310D01*
X109039166Y-97447580D01*
X109036723Y-97505951D01*
X109033315Y-97550255D01*
X109028825Y-97583324D01*
X109023132Y-97607989D01*
X109023080Y-97608165D01*
X108994982Y-97671487D01*
X108951857Y-97717841D01*
X108890786Y-97749584D01*
X108827630Y-97765934D01*
X108778250Y-97771459D01*
X108713484Y-97773758D01*
X108640090Y-97773126D01*
X108564826Y-97769861D01*
X108494450Y-97764259D01*
X108435720Y-97756616D01*
X108395394Y-97747230D01*
X108394562Y-97746933D01*
X108356976Y-97731939D01*
X108326090Y-97715129D01*
X108301252Y-97693993D01*
X108281808Y-97666021D01*
X108267105Y-97628702D01*
X108256490Y-97579526D01*
X108249310Y-97515982D01*
X108244912Y-97435561D01*
X108242644Y-97335752D01*
X108241851Y-97214045D01*
X108241800Y-97159744D01*
X108241800Y-96774700D01*
X108432300Y-96774700D01*
X108432300Y-97148752D01*
X108432761Y-97275633D01*
X108434162Y-97377966D01*
X108436534Y-97456586D01*
X108439908Y-97512328D01*
X108444314Y-97546026D01*
X108447021Y-97555113D01*
X108468303Y-97581088D01*
X108506258Y-97598866D01*
X108563498Y-97609191D01*
X108642634Y-97612807D01*
X108649480Y-97612829D01*
X108725711Y-97609646D01*
X108780389Y-97599330D01*
X108816598Y-97580921D01*
X108836950Y-97554520D01*
X108841899Y-97530818D01*
X108845799Y-97483492D01*
X108848663Y-97412138D01*
X108850506Y-97316351D01*
X108851343Y-97195726D01*
X108851400Y-97148752D01*
X108851400Y-96774700D01*
X109041900Y-96774700D01*
X109422673Y-96774700D01*
X109422814Y-96033684D01*
X109040274Y-96033684D01*
X109036285Y-96141832D01*
X109027652Y-96239399D01*
X109014807Y-96321999D01*
X108998180Y-96385243D01*
X108991910Y-96401178D01*
X108962252Y-96449852D01*
X108919957Y-96484844D01*
X108859523Y-96510319D01*
X108840623Y-96515774D01*
X108792638Y-96524179D01*
X108727058Y-96529608D01*
X108651523Y-96531991D01*
X108573670Y-96531255D01*
X108501138Y-96527330D01*
X108441566Y-96520146D01*
X108438064Y-96519516D01*
X108390830Y-96508893D01*
X108348901Y-96496273D01*
X108329082Y-96488113D01*
X108294373Y-96457067D01*
X108265669Y-96405026D01*
X108244723Y-96336036D01*
X108234586Y-96269875D01*
X108225819Y-96177800D01*
X108416674Y-96177800D01*
X108425240Y-96246363D01*
X108433427Y-96292611D01*
X108447281Y-96324784D01*
X108471056Y-96345611D01*
X108509006Y-96357823D01*
X108565386Y-96364149D01*
X108612191Y-96366339D01*
X108679841Y-96367773D01*
X108732944Y-96365050D01*
X108773257Y-96355495D01*
X108802539Y-96336433D01*
X108822549Y-96305189D01*
X108835046Y-96259089D01*
X108841787Y-96195456D01*
X108844531Y-96111616D01*
X108845038Y-96012141D01*
X108844753Y-95926864D01*
X108843675Y-95863123D01*
X108841486Y-95817057D01*
X108837869Y-95784808D01*
X108832505Y-95762514D01*
X108825078Y-95746317D01*
X108822859Y-95742765D01*
X108787887Y-95710793D01*
X108732812Y-95691627D01*
X108656850Y-95685079D01*
X108591050Y-95687885D01*
X108526929Y-95695751D01*
X108483651Y-95709107D01*
X108456757Y-95731219D01*
X108441787Y-95765352D01*
X108435599Y-95801727D01*
X108428997Y-95860300D01*
X108241800Y-95860300D01*
X108241800Y-95816475D01*
X108248828Y-95737672D01*
X108268489Y-95667344D01*
X108298654Y-95612219D01*
X108310929Y-95598131D01*
X108347373Y-95569054D01*
X108392272Y-95548408D01*
X108449862Y-95535184D01*
X108524376Y-95528374D01*
X108610100Y-95526899D01*
X108720313Y-95530706D01*
X108808788Y-95541616D01*
X108878475Y-95560763D01*
X108932324Y-95589280D01*
X108973287Y-95628301D01*
X109003971Y-95678243D01*
X109016175Y-95706900D01*
X109024903Y-95737154D01*
X109030959Y-95774512D01*
X109035148Y-95824477D01*
X109038274Y-95892558D01*
X109039190Y-95919343D01*
X109040274Y-96033684D01*
X109422814Y-96033684D01*
X109422900Y-95585406D01*
X109366857Y-95472028D01*
X109344578Y-95428531D01*
X109312978Y-95369093D01*
X109273433Y-95296142D01*
X109227316Y-95212108D01*
X109176003Y-95119419D01*
X109120869Y-95020505D01*
X109063287Y-94917793D01*
X109004633Y-94813713D01*
X108946282Y-94710693D01*
X108889607Y-94611163D01*
X108835985Y-94517550D01*
X108786789Y-94432285D01*
X108743394Y-94357795D01*
X108707175Y-94296510D01*
X108679507Y-94250859D01*
X108661765Y-94223269D01*
X108655921Y-94215960D01*
X108627641Y-94210519D01*
X108614285Y-94216462D01*
X108614285Y-94216462D01*
G37*
X108614285Y-94216462D02*
X108603277Y-94230374D01*
X108581321Y-94264108D01*
X108549781Y-94315270D01*
X108510024Y-94381467D01*
X108463415Y-94460304D01*
X108411320Y-94549388D01*
X108355103Y-94646324D01*
X108296130Y-94748721D01*
X108235768Y-94854182D01*
X108175380Y-94960316D01*
X108116333Y-95064727D01*
X108059993Y-95165023D01*
X108007723Y-95258810D01*
X107960891Y-95343693D01*
X107920862Y-95417279D01*
X107889000Y-95477175D01*
X107866672Y-95520986D01*
X107855242Y-95546319D01*
X107854582Y-95548280D01*
X107852434Y-95557476D01*
X107850450Y-95571135D01*
X107848623Y-95590223D01*
X107846946Y-95615705D01*
X107845415Y-95648548D01*
X107844022Y-95689717D01*
X107842761Y-95740180D01*
X107841625Y-95800901D01*
X107840609Y-95872846D01*
X107839707Y-95956983D01*
X107838911Y-96054276D01*
X107838215Y-96165693D01*
X107837614Y-96292198D01*
X107837101Y-96434759D01*
X107836670Y-96594340D01*
X107836314Y-96771909D01*
X107836027Y-96968430D01*
X107835803Y-97184871D01*
X107835635Y-97422197D01*
X107835517Y-97681374D01*
X107835443Y-97963369D01*
X107835407Y-98269147D01*
X107835400Y-98488965D01*
X107835429Y-98823400D01*
X107835519Y-99133208D01*
X107835673Y-99419164D01*
X107835896Y-99682041D01*
X107836192Y-99922611D01*
X107836565Y-100141649D01*
X107837019Y-100339929D01*
X107837558Y-100518223D01*
X107838186Y-100677305D01*
X107838907Y-100817949D01*
X107839725Y-100940929D01*
X107840645Y-101047017D01*
X107841670Y-101136987D01*
X107842805Y-101211613D01*
X107844054Y-101271669D01*
X107845420Y-101317928D01*
X107846907Y-101351162D01*
X107848521Y-101372147D01*
X107850265Y-101381655D01*
X107850640Y-101382259D01*
X107875445Y-101394771D01*
X107891915Y-101396839D01*
X107906435Y-101389625D01*
X107940010Y-101368988D01*
X107990909Y-101336093D01*
X108057396Y-101292110D01*
X108137739Y-101238205D01*
X108230204Y-101175547D01*
X108333058Y-101105304D01*
X108444565Y-101028643D01*
X108562994Y-100946733D01*
X108653326Y-100883943D01*
X108775737Y-100798419D01*
X108892238Y-100716528D01*
X109001112Y-100639508D01*
X109100639Y-100568598D01*
X109189103Y-100505037D01*
X109264784Y-100450064D01*
X109325965Y-100404917D01*
X109370928Y-100370836D01*
X109397954Y-100349059D01*
X109405351Y-100341678D01*
X109407438Y-100333995D01*
X109409354Y-100318144D01*
X109411106Y-100293151D01*
X109412700Y-100258043D01*
X109414144Y-100211846D01*
X109415445Y-100153588D01*
X109416609Y-100082294D01*
X109417644Y-99996992D01*
X109418556Y-99896708D01*
X109419352Y-99780468D01*
X109420040Y-99647300D01*
X109420626Y-99496229D01*
X109421118Y-99326284D01*
X109421277Y-99251200D01*
X109041900Y-99251200D01*
X109041900Y-100254500D01*
X108851400Y-100254500D01*
X108851400Y-99848615D01*
X108587875Y-99845182D01*
X108324350Y-99841750D01*
X108316788Y-99683000D01*
X108851400Y-99683000D01*
X108851400Y-99416300D01*
X108241800Y-99416300D01*
X108241800Y-99251200D01*
X109041900Y-99251200D01*
X109421277Y-99251200D01*
X109421521Y-99136489D01*
X109421844Y-98925872D01*
X109422093Y-98693460D01*
X109422093Y-98692400D01*
X109045313Y-98692400D01*
X109039026Y-98780272D01*
X109027130Y-98858569D01*
X109002334Y-98917691D01*
X108961922Y-98960363D01*
X108903175Y-98989308D01*
X108823374Y-99007253D01*
X108810876Y-99008977D01*
X108712131Y-99018634D01*
X108620313Y-99019893D01*
X108521338Y-99012821D01*
X108499728Y-99010445D01*
X108415592Y-98996863D01*
X108351808Y-98975923D01*
X108305822Y-98944506D01*
X108275080Y-98899492D01*
X108257027Y-98837762D01*
X108249110Y-98756197D01*
X108248150Y-98703169D01*
X108248784Y-98640142D01*
X108251278Y-98596681D01*
X108256519Y-98566970D01*
X108265395Y-98545194D01*
X108274370Y-98531388D01*
X108305664Y-98498665D01*
X108347818Y-98473962D01*
X108405027Y-98455686D01*
X108481488Y-98442246D01*
X108521844Y-98437503D01*
X108617620Y-98427190D01*
X108691153Y-98418415D01*
X108745505Y-98410465D01*
X108783732Y-98402622D01*
X108808894Y-98394172D01*
X108824049Y-98384400D01*
X108832256Y-98372589D01*
X108835119Y-98364219D01*
X108843938Y-98306404D01*
X108840731Y-98251759D01*
X108826429Y-98208434D01*
X108815640Y-98193794D01*
X108797892Y-98180138D01*
X108773522Y-98171176D01*
X108736419Y-98165496D01*
X108680474Y-98161690D01*
X108675508Y-98161449D01*
X108593188Y-98161161D01*
X108529628Y-98168733D01*
X108486711Y-98183751D01*
X108466323Y-98205801D01*
X108465838Y-98207409D01*
X108458702Y-98236038D01*
X108452289Y-98263775D01*
X108446947Y-98282055D01*
X108437091Y-98292498D01*
X108416671Y-98297295D01*
X108379634Y-98298638D01*
X108355859Y-98298700D01*
X108267200Y-98298700D01*
X108267479Y-98238375D01*
X108273398Y-98187199D01*
X108287756Y-98135094D01*
X108292504Y-98123527D01*
X108315983Y-98084770D01*
X108348827Y-98055579D01*
X108394539Y-98034605D01*
X108456621Y-98020495D01*
X108538577Y-98011901D01*
X108589069Y-98009210D01*
X108706951Y-98008497D01*
X108807654Y-98016502D01*
X108888954Y-98032904D01*
X108948628Y-98057384D01*
X108955949Y-98061981D01*
X108993135Y-98100982D01*
X109020414Y-98158684D01*
X109036736Y-98229982D01*
X109041050Y-98309773D01*
X109032305Y-98392950D01*
X109028155Y-98412812D01*
X109014144Y-98457472D01*
X108993007Y-98492910D01*
X108961696Y-98520597D01*
X108917160Y-98542001D01*
X108856351Y-98558591D01*
X108776218Y-98571838D01*
X108674697Y-98583117D01*
X108590805Y-98591594D01*
X108528897Y-98599987D01*
X108485637Y-98610231D01*
X108457691Y-98624260D01*
X108441721Y-98644008D01*
X108434393Y-98671410D01*
X108432372Y-98708401D01*
X108432300Y-98723690D01*
X108435175Y-98772895D01*
X108442822Y-98810945D01*
X108449362Y-98825178D01*
X108475318Y-98842594D01*
X108521408Y-98855452D01*
X108582663Y-98863057D01*
X108654112Y-98864713D01*
X108710452Y-98861714D01*
X108776732Y-98851946D01*
X108820700Y-98835104D01*
X108844813Y-98809730D01*
X108851574Y-98778125D01*
X108853868Y-98735874D01*
X108863494Y-98710339D01*
X108885517Y-98697370D01*
X108924998Y-98692818D01*
X108956188Y-98692400D01*
X109045313Y-98692400D01*
X109422093Y-98692400D01*
X109422275Y-98438279D01*
X109422397Y-98159355D01*
X109422450Y-97948528D01*
X109422673Y-96774700D01*
X109041900Y-96774700D01*
X109041900Y-97159744D01*
X109041636Y-97277309D01*
X109040765Y-97372310D01*
X109039166Y-97447580D01*
X109036723Y-97505951D01*
X109033315Y-97550255D01*
X109028825Y-97583324D01*
X109023132Y-97607989D01*
X109023080Y-97608165D01*
X108994982Y-97671487D01*
X108951857Y-97717841D01*
X108890786Y-97749584D01*
X108827630Y-97765934D01*
X108778250Y-97771459D01*
X108713484Y-97773758D01*
X108640090Y-97773126D01*
X108564826Y-97769861D01*
X108494450Y-97764259D01*
X108435720Y-97756616D01*
X108395394Y-97747230D01*
X108394562Y-97746933D01*
X108356976Y-97731939D01*
X108326090Y-97715129D01*
X108301252Y-97693993D01*
X108281808Y-97666021D01*
X108267105Y-97628702D01*
X108256490Y-97579526D01*
X108249310Y-97515982D01*
X108244912Y-97435561D01*
X108242644Y-97335752D01*
X108241851Y-97214045D01*
X108241800Y-97159744D01*
X108241800Y-96774700D01*
X108432300Y-96774700D01*
X108432300Y-97148752D01*
X108432761Y-97275633D01*
X108434162Y-97377966D01*
X108436534Y-97456586D01*
X108439908Y-97512328D01*
X108444314Y-97546026D01*
X108447021Y-97555113D01*
X108468303Y-97581088D01*
X108506258Y-97598866D01*
X108563498Y-97609191D01*
X108642634Y-97612807D01*
X108649480Y-97612829D01*
X108725711Y-97609646D01*
X108780389Y-97599330D01*
X108816598Y-97580921D01*
X108836950Y-97554520D01*
X108841899Y-97530818D01*
X108845799Y-97483492D01*
X108848663Y-97412138D01*
X108850506Y-97316351D01*
X108851343Y-97195726D01*
X108851400Y-97148752D01*
X108851400Y-96774700D01*
X109041900Y-96774700D01*
X109422673Y-96774700D01*
X109422814Y-96033684D01*
X109040274Y-96033684D01*
X109036285Y-96141832D01*
X109027652Y-96239399D01*
X109014807Y-96321999D01*
X108998180Y-96385243D01*
X108991910Y-96401178D01*
X108962252Y-96449852D01*
X108919957Y-96484844D01*
X108859523Y-96510319D01*
X108840623Y-96515774D01*
X108792638Y-96524179D01*
X108727058Y-96529608D01*
X108651523Y-96531991D01*
X108573670Y-96531255D01*
X108501138Y-96527330D01*
X108441566Y-96520146D01*
X108438064Y-96519516D01*
X108390830Y-96508893D01*
X108348901Y-96496273D01*
X108329082Y-96488113D01*
X108294373Y-96457067D01*
X108265669Y-96405026D01*
X108244723Y-96336036D01*
X108234586Y-96269875D01*
X108225819Y-96177800D01*
X108416674Y-96177800D01*
X108425240Y-96246363D01*
X108433427Y-96292611D01*
X108447281Y-96324784D01*
X108471056Y-96345611D01*
X108509006Y-96357823D01*
X108565386Y-96364149D01*
X108612191Y-96366339D01*
X108679841Y-96367773D01*
X108732944Y-96365050D01*
X108773257Y-96355495D01*
X108802539Y-96336433D01*
X108822549Y-96305189D01*
X108835046Y-96259089D01*
X108841787Y-96195456D01*
X108844531Y-96111616D01*
X108845038Y-96012141D01*
X108844753Y-95926864D01*
X108843675Y-95863123D01*
X108841486Y-95817057D01*
X108837869Y-95784808D01*
X108832505Y-95762514D01*
X108825078Y-95746317D01*
X108822859Y-95742765D01*
X108787887Y-95710793D01*
X108732812Y-95691627D01*
X108656850Y-95685079D01*
X108591050Y-95687885D01*
X108526929Y-95695751D01*
X108483651Y-95709107D01*
X108456757Y-95731219D01*
X108441787Y-95765352D01*
X108435599Y-95801727D01*
X108428997Y-95860300D01*
X108241800Y-95860300D01*
X108241800Y-95816475D01*
X108248828Y-95737672D01*
X108268489Y-95667344D01*
X108298654Y-95612219D01*
X108310929Y-95598131D01*
X108347373Y-95569054D01*
X108392272Y-95548408D01*
X108449862Y-95535184D01*
X108524376Y-95528374D01*
X108610100Y-95526899D01*
X108720313Y-95530706D01*
X108808788Y-95541616D01*
X108878475Y-95560763D01*
X108932324Y-95589280D01*
X108973287Y-95628301D01*
X109003971Y-95678243D01*
X109016175Y-95706900D01*
X109024903Y-95737154D01*
X109030959Y-95774512D01*
X109035148Y-95824477D01*
X109038274Y-95892558D01*
X109039190Y-95919343D01*
X109040274Y-96033684D01*
X109422814Y-96033684D01*
X109422900Y-95585406D01*
X109366857Y-95472028D01*
X109344578Y-95428531D01*
X109312978Y-95369093D01*
X109273433Y-95296142D01*
X109227316Y-95212108D01*
X109176003Y-95119419D01*
X109120869Y-95020505D01*
X109063287Y-94917793D01*
X109004633Y-94813713D01*
X108946282Y-94710693D01*
X108889607Y-94611163D01*
X108835985Y-94517550D01*
X108786789Y-94432285D01*
X108743394Y-94357795D01*
X108707175Y-94296510D01*
X108679507Y-94250859D01*
X108661765Y-94223269D01*
X108655921Y-94215960D01*
X108627641Y-94210519D01*
X108614285Y-94216462D01*
G36*
X105355493Y-99245535D02*
X105273813Y-99256410D01*
X105211848Y-99272803D01*
X105197434Y-99278862D01*
X105159977Y-99310288D01*
X105131537Y-99363574D01*
X105113186Y-99436453D01*
X105109485Y-99464819D01*
X105101282Y-99543300D01*
X105228669Y-99543300D01*
X105234872Y-99478740D01*
X105242121Y-99432635D01*
X105256276Y-99400044D01*
X105281462Y-99378093D01*
X105321804Y-99363910D01*
X105381427Y-99354621D01*
X105418203Y-99351048D01*
X105526314Y-99345653D01*
X105620978Y-99349013D01*
X105698177Y-99360852D01*
X105737183Y-99373002D01*
X105762093Y-99385747D01*
X105781447Y-99403324D01*
X105795944Y-99428831D01*
X105806283Y-99465367D01*
X105813164Y-99516034D01*
X105817285Y-99583929D01*
X105819347Y-99672152D01*
X105819903Y-99739671D01*
X105820017Y-99851349D01*
X105817968Y-99940284D01*
X105811931Y-100009131D01*
X105800083Y-100060545D01*
X105780598Y-100097181D01*
X105751654Y-100121695D01*
X105711427Y-100136741D01*
X105658091Y-100144973D01*
X105589823Y-100149048D01*
X105537515Y-100150699D01*
X105442922Y-100151646D01*
X105370637Y-100148143D01*
X105317877Y-100139684D01*
X105281858Y-100125767D01*
X105259798Y-100105887D01*
X105256040Y-100099744D01*
X105245890Y-100069784D01*
X105236703Y-100024428D01*
X105229715Y-99973169D01*
X105226160Y-99925504D01*
X105227274Y-99890928D01*
X105228249Y-99886090D01*
X105232730Y-99875524D01*
X105242515Y-99868390D01*
X105261928Y-99864019D01*
X105295292Y-99861744D01*
X105346933Y-99860899D01*
X105392132Y-99860800D01*
X105549400Y-99860800D01*
X105549400Y-99746500D01*
X105101251Y-99746500D01*
X105108664Y-99908425D01*
X105114929Y-100009990D01*
X105125261Y-100089471D01*
X105142559Y-100149671D01*
X105169724Y-100193393D01*
X105209654Y-100223440D01*
X105265248Y-100242615D01*
X105339407Y-100253722D01*
X105435030Y-100259564D01*
X105473200Y-100260856D01*
X105542397Y-100261984D01*
X105607724Y-100261365D01*
X105662269Y-100259174D01*
X105699119Y-100255584D01*
X105701800Y-100255110D01*
X105763662Y-100241233D01*
X105813741Y-100223786D01*
X105853255Y-100200130D01*
X105883422Y-100167631D01*
X105905461Y-100123650D01*
X105920589Y-100065551D01*
X105930024Y-99990697D01*
X105934986Y-99896452D01*
X105936690Y-99780178D01*
X105936750Y-99746500D01*
X105936507Y-99650779D01*
X105935605Y-99576662D01*
X105933790Y-99520355D01*
X105930806Y-99478063D01*
X105926395Y-99445994D01*
X105920304Y-99420353D01*
X105913392Y-99400206D01*
X105887899Y-99349645D01*
X105853152Y-99310652D01*
X105805981Y-99281799D01*
X105743213Y-99261658D01*
X105661677Y-99248800D01*
X105562100Y-99241953D01*
X105452913Y-99240582D01*
X105355493Y-99245535D01*
X105355493Y-99245535D01*
G37*
X105355493Y-99245535D02*
X105273813Y-99256410D01*
X105211848Y-99272803D01*
X105197434Y-99278862D01*
X105159977Y-99310288D01*
X105131537Y-99363574D01*
X105113186Y-99436453D01*
X105109485Y-99464819D01*
X105101282Y-99543300D01*
X105228669Y-99543300D01*
X105234872Y-99478740D01*
X105242121Y-99432635D01*
X105256276Y-99400044D01*
X105281462Y-99378093D01*
X105321804Y-99363910D01*
X105381427Y-99354621D01*
X105418203Y-99351048D01*
X105526314Y-99345653D01*
X105620978Y-99349013D01*
X105698177Y-99360852D01*
X105737183Y-99373002D01*
X105762093Y-99385747D01*
X105781447Y-99403324D01*
X105795944Y-99428831D01*
X105806283Y-99465367D01*
X105813164Y-99516034D01*
X105817285Y-99583929D01*
X105819347Y-99672152D01*
X105819903Y-99739671D01*
X105820017Y-99851349D01*
X105817968Y-99940284D01*
X105811931Y-100009131D01*
X105800083Y-100060545D01*
X105780598Y-100097181D01*
X105751654Y-100121695D01*
X105711427Y-100136741D01*
X105658091Y-100144973D01*
X105589823Y-100149048D01*
X105537515Y-100150699D01*
X105442922Y-100151646D01*
X105370637Y-100148143D01*
X105317877Y-100139684D01*
X105281858Y-100125767D01*
X105259798Y-100105887D01*
X105256040Y-100099744D01*
X105245890Y-100069784D01*
X105236703Y-100024428D01*
X105229715Y-99973169D01*
X105226160Y-99925504D01*
X105227274Y-99890928D01*
X105228249Y-99886090D01*
X105232730Y-99875524D01*
X105242515Y-99868390D01*
X105261928Y-99864019D01*
X105295292Y-99861744D01*
X105346933Y-99860899D01*
X105392132Y-99860800D01*
X105549400Y-99860800D01*
X105549400Y-99746500D01*
X105101251Y-99746500D01*
X105108664Y-99908425D01*
X105114929Y-100009990D01*
X105125261Y-100089471D01*
X105142559Y-100149671D01*
X105169724Y-100193393D01*
X105209654Y-100223440D01*
X105265248Y-100242615D01*
X105339407Y-100253722D01*
X105435030Y-100259564D01*
X105473200Y-100260856D01*
X105542397Y-100261984D01*
X105607724Y-100261365D01*
X105662269Y-100259174D01*
X105699119Y-100255584D01*
X105701800Y-100255110D01*
X105763662Y-100241233D01*
X105813741Y-100223786D01*
X105853255Y-100200130D01*
X105883422Y-100167631D01*
X105905461Y-100123650D01*
X105920589Y-100065551D01*
X105930024Y-99990697D01*
X105934986Y-99896452D01*
X105936690Y-99780178D01*
X105936750Y-99746500D01*
X105936507Y-99650779D01*
X105935605Y-99576662D01*
X105933790Y-99520355D01*
X105930806Y-99478063D01*
X105926395Y-99445994D01*
X105920304Y-99420353D01*
X105913392Y-99400206D01*
X105887899Y-99349645D01*
X105853152Y-99310652D01*
X105805981Y-99281799D01*
X105743213Y-99261658D01*
X105661677Y-99248800D01*
X105562100Y-99241953D01*
X105452913Y-99240582D01*
X105355493Y-99245535D01*
G36*
X107403600Y-100140200D02*
X106895600Y-100140200D01*
X106895600Y-100254500D01*
X107530600Y-100254500D01*
X107530600Y-99251200D01*
X107403600Y-99251200D01*
X107403600Y-100140200D01*
X107403600Y-100140200D01*
G37*
X107403600Y-100140200D02*
X106895600Y-100140200D01*
X106895600Y-100254500D01*
X107530600Y-100254500D01*
X107530600Y-99251200D01*
X107403600Y-99251200D01*
X107403600Y-100140200D01*
G36*
X106387600Y-100254500D02*
X106501900Y-100254500D01*
X106501900Y-99251200D01*
X106387600Y-99251200D01*
X106387600Y-100254500D01*
X106387600Y-100254500D01*
G37*
X106387600Y-100254500D02*
X106501900Y-100254500D01*
X106501900Y-99251200D01*
X106387600Y-99251200D01*
X106387600Y-100254500D01*
G36*
X104558800Y-99683000D02*
X103987300Y-99683000D01*
X103987300Y-99251200D01*
X103860300Y-99251200D01*
X103860300Y-100254500D01*
X103987300Y-100254500D01*
X103987300Y-99797300D01*
X104558800Y-99797300D01*
X104558800Y-100254500D01*
X104673100Y-100254500D01*
X104673100Y-99251200D01*
X104558800Y-99251200D01*
X104558800Y-99683000D01*
X104558800Y-99683000D01*
G37*
X104558800Y-99683000D02*
X103987300Y-99683000D01*
X103987300Y-99251200D01*
X103860300Y-99251200D01*
X103860300Y-100254500D01*
X103987300Y-100254500D01*
X103987300Y-99797300D01*
X104558800Y-99797300D01*
X104558800Y-100254500D01*
X104673100Y-100254500D01*
X104673100Y-99251200D01*
X104558800Y-99251200D01*
X104558800Y-99683000D01*
G36*
X102704600Y-99365500D02*
X103022100Y-99365500D01*
X103022100Y-100254500D01*
X103149100Y-100254500D01*
X103149100Y-99365500D01*
X103466600Y-99365500D01*
X103466600Y-99251200D01*
X102704600Y-99251200D01*
X102704600Y-99365500D01*
X102704600Y-99365500D01*
G37*
X102704600Y-99365500D02*
X103022100Y-99365500D01*
X103022100Y-100254500D01*
X103149100Y-100254500D01*
X103149100Y-99365500D01*
X103466600Y-99365500D01*
X103466600Y-99251200D01*
X102704600Y-99251200D01*
X102704600Y-99365500D01*
G36*
X104156625Y-98003105D02*
X104084780Y-98020890D01*
X104030696Y-98050534D01*
X103992285Y-98093242D01*
X103967458Y-98150219D01*
X103954128Y-98222672D01*
X103953042Y-98234340D01*
X103945517Y-98324100D01*
X104073148Y-98324100D01*
X104078695Y-98247406D01*
X104085479Y-98195273D01*
X104098279Y-98160680D01*
X104112324Y-98142631D01*
X104124988Y-98131529D01*
X104140009Y-98123809D01*
X104161922Y-98118862D01*
X104195263Y-98116076D01*
X104244566Y-98114843D01*
X104314367Y-98114550D01*
X104321028Y-98114550D01*
X104414152Y-98115929D01*
X104482943Y-98120114D01*
X104528320Y-98127175D01*
X104541836Y-98131514D01*
X104564768Y-98143361D01*
X104582459Y-98159249D01*
X104595552Y-98182331D01*
X104604687Y-98215762D01*
X104610507Y-98262693D01*
X104613655Y-98326278D01*
X104614770Y-98409671D01*
X104614650Y-98489200D01*
X104613352Y-98597630D01*
X104610360Y-98683569D01*
X104605224Y-98749893D01*
X104597489Y-98799479D01*
X104586704Y-98835205D01*
X104572416Y-98859949D01*
X104554172Y-98876587D01*
X104553676Y-98876914D01*
X104503803Y-98898226D01*
X104434109Y-98911389D01*
X104348990Y-98915919D01*
X104252840Y-98911329D01*
X104246940Y-98910766D01*
X104188112Y-98904368D01*
X104148757Y-98897853D01*
X104123003Y-98889461D01*
X104104976Y-98877434D01*
X104092659Y-98864582D01*
X104075744Y-98839839D01*
X104066810Y-98810093D01*
X104063652Y-98766590D01*
X104063500Y-98748841D01*
X104063500Y-98667000D01*
X103932920Y-98667000D01*
X103939507Y-98772576D01*
X103948158Y-98853089D01*
X103964546Y-98912508D01*
X103991605Y-98954677D01*
X104032269Y-98983445D01*
X104089474Y-99002658D01*
X104119808Y-99008925D01*
X104162722Y-99014024D01*
X104223124Y-99017756D01*
X104293580Y-99020029D01*
X104366656Y-99020750D01*
X104434916Y-99019827D01*
X104490926Y-99017166D01*
X104520700Y-99013929D01*
X104599033Y-98991145D01*
X104659134Y-98950975D01*
X104702159Y-98892449D01*
X104721191Y-98845152D01*
X104729412Y-98805147D01*
X104735931Y-98746675D01*
X104740749Y-98674252D01*
X104743869Y-98592389D01*
X104745291Y-98505600D01*
X104745016Y-98418398D01*
X104743047Y-98335295D01*
X104739384Y-98260805D01*
X104734029Y-98199441D01*
X104726983Y-98155715D01*
X104720979Y-98137896D01*
X104687767Y-98092249D01*
X104642181Y-98056835D01*
X104581361Y-98030540D01*
X104502447Y-98012254D01*
X104402578Y-98000863D01*
X104361950Y-97998289D01*
X104248319Y-97995973D01*
X104156625Y-98003105D01*
X104156625Y-98003105D01*
G37*
X104156625Y-98003105D02*
X104084780Y-98020890D01*
X104030696Y-98050534D01*
X103992285Y-98093242D01*
X103967458Y-98150219D01*
X103954128Y-98222672D01*
X103953042Y-98234340D01*
X103945517Y-98324100D01*
X104073148Y-98324100D01*
X104078695Y-98247406D01*
X104085479Y-98195273D01*
X104098279Y-98160680D01*
X104112324Y-98142631D01*
X104124988Y-98131529D01*
X104140009Y-98123809D01*
X104161922Y-98118862D01*
X104195263Y-98116076D01*
X104244566Y-98114843D01*
X104314367Y-98114550D01*
X104321028Y-98114550D01*
X104414152Y-98115929D01*
X104482943Y-98120114D01*
X104528320Y-98127175D01*
X104541836Y-98131514D01*
X104564768Y-98143361D01*
X104582459Y-98159249D01*
X104595552Y-98182331D01*
X104604687Y-98215762D01*
X104610507Y-98262693D01*
X104613655Y-98326278D01*
X104614770Y-98409671D01*
X104614650Y-98489200D01*
X104613352Y-98597630D01*
X104610360Y-98683569D01*
X104605224Y-98749893D01*
X104597489Y-98799479D01*
X104586704Y-98835205D01*
X104572416Y-98859949D01*
X104554172Y-98876587D01*
X104553676Y-98876914D01*
X104503803Y-98898226D01*
X104434109Y-98911389D01*
X104348990Y-98915919D01*
X104252840Y-98911329D01*
X104246940Y-98910766D01*
X104188112Y-98904368D01*
X104148757Y-98897853D01*
X104123003Y-98889461D01*
X104104976Y-98877434D01*
X104092659Y-98864582D01*
X104075744Y-98839839D01*
X104066810Y-98810093D01*
X104063652Y-98766590D01*
X104063500Y-98748841D01*
X104063500Y-98667000D01*
X103932920Y-98667000D01*
X103939507Y-98772576D01*
X103948158Y-98853089D01*
X103964546Y-98912508D01*
X103991605Y-98954677D01*
X104032269Y-98983445D01*
X104089474Y-99002658D01*
X104119808Y-99008925D01*
X104162722Y-99014024D01*
X104223124Y-99017756D01*
X104293580Y-99020029D01*
X104366656Y-99020750D01*
X104434916Y-99019827D01*
X104490926Y-99017166D01*
X104520700Y-99013929D01*
X104599033Y-98991145D01*
X104659134Y-98950975D01*
X104702159Y-98892449D01*
X104721191Y-98845152D01*
X104729412Y-98805147D01*
X104735931Y-98746675D01*
X104740749Y-98674252D01*
X104743869Y-98592389D01*
X104745291Y-98505600D01*
X104745016Y-98418398D01*
X104743047Y-98335295D01*
X104739384Y-98260805D01*
X104734029Y-98199441D01*
X104726983Y-98155715D01*
X104720979Y-98137896D01*
X104687767Y-98092249D01*
X104642181Y-98056835D01*
X104581361Y-98030540D01*
X104502447Y-98012254D01*
X104402578Y-98000863D01*
X104361950Y-97998289D01*
X104248319Y-97995973D01*
X104156625Y-98003105D01*
G36*
X107260725Y-98006902D02*
X107154482Y-98007531D01*
X107070273Y-98009412D01*
X107004744Y-98012940D01*
X106954546Y-98018510D01*
X106916324Y-98026516D01*
X106886729Y-98037351D01*
X106862406Y-98051410D01*
X106858483Y-98054201D01*
X106823771Y-98086732D01*
X106799469Y-98128263D01*
X106784223Y-98183083D01*
X106776679Y-98255479D01*
X106775257Y-98317750D01*
X106775902Y-98383062D01*
X106778610Y-98429451D01*
X106784311Y-98463370D01*
X106793938Y-98491270D01*
X106802977Y-98509677D01*
X106821941Y-98541082D01*
X106843452Y-98565248D01*
X106871016Y-98583181D01*
X106908141Y-98595890D01*
X106958335Y-98604381D01*
X107025105Y-98609663D01*
X107111958Y-98612742D01*
X107165475Y-98613794D01*
X107403600Y-98617739D01*
X107403600Y-99009900D01*
X107530600Y-99009900D01*
X107530600Y-98517582D01*
X107403600Y-98517582D01*
X107197225Y-98511836D01*
X107105714Y-98508221D01*
X107033587Y-98503097D01*
X106982891Y-98496653D01*
X106956784Y-98489648D01*
X106928260Y-98469141D01*
X106909482Y-98437598D01*
X106899293Y-98391072D01*
X106896539Y-98325611D01*
X106897489Y-98287053D01*
X106901187Y-98225954D01*
X106907224Y-98185291D01*
X106916548Y-98160135D01*
X106923665Y-98150878D01*
X106948629Y-98135715D01*
X106990677Y-98124227D01*
X107051847Y-98116146D01*
X107134175Y-98111206D01*
X107239698Y-98109138D01*
X107241675Y-98109127D01*
X107403600Y-98108200D01*
X107403600Y-98517582D01*
X107530600Y-98517582D01*
X107530600Y-98006600D01*
X107260725Y-98006902D01*
X107260725Y-98006902D01*
G37*
X107260725Y-98006902D02*
X107154482Y-98007531D01*
X107070273Y-98009412D01*
X107004744Y-98012940D01*
X106954546Y-98018510D01*
X106916324Y-98026516D01*
X106886729Y-98037351D01*
X106862406Y-98051410D01*
X106858483Y-98054201D01*
X106823771Y-98086732D01*
X106799469Y-98128263D01*
X106784223Y-98183083D01*
X106776679Y-98255479D01*
X106775257Y-98317750D01*
X106775902Y-98383062D01*
X106778610Y-98429451D01*
X106784311Y-98463370D01*
X106793938Y-98491270D01*
X106802977Y-98509677D01*
X106821941Y-98541082D01*
X106843452Y-98565248D01*
X106871016Y-98583181D01*
X106908141Y-98595890D01*
X106958335Y-98604381D01*
X107025105Y-98609663D01*
X107111958Y-98612742D01*
X107165475Y-98613794D01*
X107403600Y-98617739D01*
X107403600Y-99009900D01*
X107530600Y-99009900D01*
X107530600Y-98517582D01*
X107403600Y-98517582D01*
X107197225Y-98511836D01*
X107105714Y-98508221D01*
X107033587Y-98503097D01*
X106982891Y-98496653D01*
X106956784Y-98489648D01*
X106928260Y-98469141D01*
X106909482Y-98437598D01*
X106899293Y-98391072D01*
X106896539Y-98325611D01*
X106897489Y-98287053D01*
X106901187Y-98225954D01*
X106907224Y-98185291D01*
X106916548Y-98160135D01*
X106923665Y-98150878D01*
X106948629Y-98135715D01*
X106990677Y-98124227D01*
X107051847Y-98116146D01*
X107134175Y-98111206D01*
X107239698Y-98109138D01*
X107241675Y-98109127D01*
X107403600Y-98108200D01*
X107403600Y-98517582D01*
X107530600Y-98517582D01*
X107530600Y-98006600D01*
X107260725Y-98006902D01*
G36*
X105503743Y-98500727D02*
X105464244Y-98606294D01*
X105427675Y-98704521D01*
X105394972Y-98792851D01*
X105367076Y-98868727D01*
X105344922Y-98929594D01*
X105329451Y-98972893D01*
X105321600Y-98996070D01*
X105320800Y-98999202D01*
X105332215Y-99005350D01*
X105361350Y-99009218D01*
X105383228Y-99009900D01*
X105445655Y-99009900D01*
X105520573Y-98813050D01*
X105768897Y-98809609D01*
X106017220Y-98806169D01*
X106053185Y-98908001D01*
X106089150Y-99009834D01*
X106156681Y-99009867D01*
X106195668Y-99008829D01*
X106214559Y-99004376D01*
X106218618Y-98994569D01*
X106216936Y-98987675D01*
X106211073Y-98971183D01*
X106197427Y-98933535D01*
X106176977Y-98877416D01*
X106150706Y-98805510D01*
X106119593Y-98720501D01*
X106113949Y-98705100D01*
X105980062Y-98705100D01*
X105769723Y-98705100D01*
X105692222Y-98704924D01*
X105636720Y-98704150D01*
X105599816Y-98702400D01*
X105578109Y-98699300D01*
X105568198Y-98694476D01*
X105566682Y-98687552D01*
X105568131Y-98682875D01*
X105574927Y-98664744D01*
X105588998Y-98626571D01*
X105608942Y-98572184D01*
X105633357Y-98505409D01*
X105660838Y-98430077D01*
X105671420Y-98401028D01*
X105699257Y-98324887D01*
X105724210Y-98257206D01*
X105744974Y-98201485D01*
X105760239Y-98161221D01*
X105768700Y-98139912D01*
X105769897Y-98137469D01*
X105775206Y-98147481D01*
X105787480Y-98177692D01*
X105805278Y-98224334D01*
X105827157Y-98283640D01*
X105847438Y-98339941D01*
X105874223Y-98414852D01*
X105900472Y-98487903D01*
X105923981Y-98552988D01*
X105942547Y-98603999D01*
X105950552Y-98625725D01*
X105980062Y-98705100D01*
X106113949Y-98705100D01*
X106084620Y-98625073D01*
X106046768Y-98521910D01*
X106034758Y-98489200D01*
X105859857Y-98012950D01*
X105686685Y-98012950D01*
X105503743Y-98500727D01*
X105503743Y-98500727D01*
G37*
X105503743Y-98500727D02*
X105464244Y-98606294D01*
X105427675Y-98704521D01*
X105394972Y-98792851D01*
X105367076Y-98868727D01*
X105344922Y-98929594D01*
X105329451Y-98972893D01*
X105321600Y-98996070D01*
X105320800Y-98999202D01*
X105332215Y-99005350D01*
X105361350Y-99009218D01*
X105383228Y-99009900D01*
X105445655Y-99009900D01*
X105520573Y-98813050D01*
X105768897Y-98809609D01*
X106017220Y-98806169D01*
X106053185Y-98908001D01*
X106089150Y-99009834D01*
X106156681Y-99009867D01*
X106195668Y-99008829D01*
X106214559Y-99004376D01*
X106218618Y-98994569D01*
X106216936Y-98987675D01*
X106211073Y-98971183D01*
X106197427Y-98933535D01*
X106176977Y-98877416D01*
X106150706Y-98805510D01*
X106119593Y-98720501D01*
X106113949Y-98705100D01*
X105980062Y-98705100D01*
X105769723Y-98705100D01*
X105692222Y-98704924D01*
X105636720Y-98704150D01*
X105599816Y-98702400D01*
X105578109Y-98699300D01*
X105568198Y-98694476D01*
X105566682Y-98687552D01*
X105568131Y-98682875D01*
X105574927Y-98664744D01*
X105588998Y-98626571D01*
X105608942Y-98572184D01*
X105633357Y-98505409D01*
X105660838Y-98430077D01*
X105671420Y-98401028D01*
X105699257Y-98324887D01*
X105724210Y-98257206D01*
X105744974Y-98201485D01*
X105760239Y-98161221D01*
X105768700Y-98139912D01*
X105769897Y-98137469D01*
X105775206Y-98147481D01*
X105787480Y-98177692D01*
X105805278Y-98224334D01*
X105827157Y-98283640D01*
X105847438Y-98339941D01*
X105874223Y-98414852D01*
X105900472Y-98487903D01*
X105923981Y-98552988D01*
X105942547Y-98603999D01*
X105950552Y-98625725D01*
X105980062Y-98705100D01*
X106113949Y-98705100D01*
X106084620Y-98625073D01*
X106046768Y-98521910D01*
X106034758Y-98489200D01*
X105859857Y-98012950D01*
X105686685Y-98012950D01*
X105503743Y-98500727D01*
G36*
X102691900Y-98108200D02*
X103225300Y-98108200D01*
X103225300Y-98438400D01*
X102717300Y-98438400D01*
X102717300Y-98552700D01*
X103225300Y-98552700D01*
X103225300Y-98908300D01*
X102691900Y-98908300D01*
X102691900Y-99009900D01*
X103352300Y-99009900D01*
X103352300Y-98006600D01*
X102691900Y-98006600D01*
X102691900Y-98108200D01*
X102691900Y-98108200D01*
G37*
X102691900Y-98108200D02*
X103225300Y-98108200D01*
X103225300Y-98438400D01*
X102717300Y-98438400D01*
X102717300Y-98552700D01*
X103225300Y-98552700D01*
X103225300Y-98908300D01*
X102691900Y-98908300D01*
X102691900Y-99009900D01*
X103352300Y-99009900D01*
X103352300Y-98006600D01*
X102691900Y-98006600D01*
X102691900Y-98108200D01*
G36*
X106667000Y-97778000D02*
X106863850Y-97777030D01*
X107397250Y-96904084D01*
X107403930Y-97778000D01*
X107530600Y-97778000D01*
X107530600Y-96762000D01*
X107432175Y-96762327D01*
X107333750Y-96762655D01*
X106800350Y-97637973D01*
X106797011Y-97199986D01*
X106793671Y-96762000D01*
X106667000Y-96762000D01*
X106667000Y-97778000D01*
X106667000Y-97778000D01*
G37*
X106667000Y-97778000D02*
X106863850Y-97777030D01*
X107397250Y-96904084D01*
X107403930Y-97778000D01*
X107530600Y-97778000D01*
X107530600Y-96762000D01*
X107432175Y-96762327D01*
X107333750Y-96762655D01*
X106800350Y-97637973D01*
X106797011Y-97199986D01*
X106793671Y-96762000D01*
X106667000Y-96762000D01*
X106667000Y-97778000D01*
G36*
X106070100Y-97778000D02*
X106184400Y-97778000D01*
X106184400Y-96762000D01*
X106070100Y-96762000D01*
X106070100Y-97778000D01*
X106070100Y-97778000D01*
G37*
X106070100Y-97778000D02*
X106184400Y-97778000D01*
X106184400Y-96762000D01*
X106070100Y-96762000D01*
X106070100Y-97778000D01*
G36*
X104833415Y-96764976D02*
X104813996Y-96773552D01*
X104812800Y-96777280D01*
X104816917Y-96792201D01*
X104828671Y-96828448D01*
X104847170Y-96883420D01*
X104871521Y-96954519D01*
X104900831Y-97039143D01*
X104934208Y-97134694D01*
X104970758Y-97238571D01*
X104987273Y-97285280D01*
X105161746Y-97778000D01*
X105331113Y-97778000D01*
X105349949Y-97724025D01*
X105358473Y-97699883D01*
X105374462Y-97654877D01*
X105396827Y-97592057D01*
X105424482Y-97514477D01*
X105456337Y-97425187D01*
X105491306Y-97327241D01*
X105528300Y-97223689D01*
X105528943Y-97221890D01*
X105565041Y-97120711D01*
X105598295Y-97027177D01*
X105627767Y-96943955D01*
X105652518Y-96873710D01*
X105671609Y-96819105D01*
X105684101Y-96782808D01*
X105689056Y-96767482D01*
X105689100Y-96767201D01*
X105677671Y-96764215D01*
X105648307Y-96763536D01*
X105622425Y-96764511D01*
X105555750Y-96768350D01*
X105403350Y-97203141D01*
X105368286Y-97302613D01*
X105335659Y-97394091D01*
X105306449Y-97474905D01*
X105281639Y-97542385D01*
X105262211Y-97593860D01*
X105249145Y-97626660D01*
X105243436Y-97638116D01*
X105235673Y-97627262D01*
X105224829Y-97599655D01*
X105219991Y-97584325D01*
X105212645Y-97561417D01*
X105198272Y-97518266D01*
X105178160Y-97458627D01*
X105153597Y-97386257D01*
X105125870Y-97304912D01*
X105096268Y-97218348D01*
X105066079Y-97130323D01*
X105036589Y-97044592D01*
X105009088Y-96964911D01*
X104984863Y-96895038D01*
X104965202Y-96838729D01*
X104951392Y-96799740D01*
X104945688Y-96784225D01*
X104933246Y-96769910D01*
X104906338Y-96763205D01*
X104874942Y-96762000D01*
X104833415Y-96764976D01*
X104833415Y-96764976D01*
G37*
X104833415Y-96764976D02*
X104813996Y-96773552D01*
X104812800Y-96777280D01*
X104816917Y-96792201D01*
X104828671Y-96828448D01*
X104847170Y-96883420D01*
X104871521Y-96954519D01*
X104900831Y-97039143D01*
X104934208Y-97134694D01*
X104970758Y-97238571D01*
X104987273Y-97285280D01*
X105161746Y-97778000D01*
X105331113Y-97778000D01*
X105349949Y-97724025D01*
X105358473Y-97699883D01*
X105374462Y-97654877D01*
X105396827Y-97592057D01*
X105424482Y-97514477D01*
X105456337Y-97425187D01*
X105491306Y-97327241D01*
X105528300Y-97223689D01*
X105528943Y-97221890D01*
X105565041Y-97120711D01*
X105598295Y-97027177D01*
X105627767Y-96943955D01*
X105652518Y-96873710D01*
X105671609Y-96819105D01*
X105684101Y-96782808D01*
X105689056Y-96767482D01*
X105689100Y-96767201D01*
X105677671Y-96764215D01*
X105648307Y-96763536D01*
X105622425Y-96764511D01*
X105555750Y-96768350D01*
X105403350Y-97203141D01*
X105368286Y-97302613D01*
X105335659Y-97394091D01*
X105306449Y-97474905D01*
X105281639Y-97542385D01*
X105262211Y-97593860D01*
X105249145Y-97626660D01*
X105243436Y-97638116D01*
X105235673Y-97627262D01*
X105224829Y-97599655D01*
X105219991Y-97584325D01*
X105212645Y-97561417D01*
X105198272Y-97518266D01*
X105178160Y-97458627D01*
X105153597Y-97386257D01*
X105125870Y-97304912D01*
X105096268Y-97218348D01*
X105066079Y-97130323D01*
X105036589Y-97044592D01*
X105009088Y-96964911D01*
X104984863Y-96895038D01*
X104965202Y-96838729D01*
X104951392Y-96799740D01*
X104945688Y-96784225D01*
X104933246Y-96769910D01*
X104906338Y-96763205D01*
X104874942Y-96762000D01*
X104833415Y-96764976D01*
G36*
X103822200Y-96876300D02*
X104342900Y-96876300D01*
X104342900Y-97193800D01*
X103847600Y-97193800D01*
X103847600Y-97308100D01*
X104342900Y-97308100D01*
X104342900Y-97663700D01*
X103822200Y-97663700D01*
X103822200Y-97778000D01*
X104469900Y-97778000D01*
X104469900Y-96762000D01*
X103822200Y-96762000D01*
X103822200Y-96876300D01*
X103822200Y-96876300D01*
G37*
X103822200Y-96876300D02*
X104342900Y-96876300D01*
X104342900Y-97193800D01*
X103847600Y-97193800D01*
X103847600Y-97308100D01*
X104342900Y-97308100D01*
X104342900Y-97663700D01*
X103822200Y-97663700D01*
X103822200Y-97778000D01*
X104469900Y-97778000D01*
X104469900Y-96762000D01*
X103822200Y-96762000D01*
X103822200Y-96876300D01*
G36*
X103088775Y-96764462D02*
X102982842Y-96766513D01*
X102899017Y-96769299D01*
X102834007Y-96773414D01*
X102784520Y-96779451D01*
X102747266Y-96788006D01*
X102718951Y-96799671D01*
X102696285Y-96815040D01*
X102675974Y-96834707D01*
X102671435Y-96839738D01*
X102645252Y-96877998D01*
X102628037Y-96926106D01*
X102618593Y-96989054D01*
X102615720Y-97071833D01*
X102615720Y-97071870D01*
X102619318Y-97152757D01*
X102631096Y-97213049D01*
X102652574Y-97256660D01*
X102685276Y-97287506D01*
X102703628Y-97298052D01*
X102747105Y-97319754D01*
X102713158Y-97332660D01*
X102682241Y-97348913D01*
X102659540Y-97373141D01*
X102643934Y-97408924D01*
X102634303Y-97459843D01*
X102629527Y-97529479D01*
X102628448Y-97603375D01*
X102628400Y-97778000D01*
X102739214Y-97778000D01*
X102745710Y-97628775D01*
X102750153Y-97547820D01*
X102757604Y-97485914D01*
X102771177Y-97440506D01*
X102793988Y-97409043D01*
X102829149Y-97388974D01*
X102879775Y-97377747D01*
X102948980Y-97372811D01*
X103039878Y-97371615D01*
X103059570Y-97371600D01*
X103263400Y-97371600D01*
X103263400Y-97778000D01*
X103390400Y-97778000D01*
X103390400Y-96876300D01*
X103263400Y-96876300D01*
X103263400Y-97257300D01*
X103050675Y-97257112D01*
X102953488Y-97256037D01*
X102880775Y-97252969D01*
X102831685Y-97247850D01*
X102806200Y-97241061D01*
X102765988Y-97207580D01*
X102741718Y-97155058D01*
X102733236Y-97083072D01*
X102734423Y-97045733D01*
X102741482Y-96980045D01*
X102753468Y-96935046D01*
X102772313Y-96906200D01*
X102799947Y-96888974D01*
X102801449Y-96888392D01*
X102824477Y-96884353D01*
X102867917Y-96880888D01*
X102926783Y-96878238D01*
X102996089Y-96876650D01*
X103048327Y-96876300D01*
X103263400Y-96876300D01*
X103390400Y-96876300D01*
X103390400Y-96759658D01*
X103088775Y-96764462D01*
X103088775Y-96764462D01*
G37*
X103088775Y-96764462D02*
X102982842Y-96766513D01*
X102899017Y-96769299D01*
X102834007Y-96773414D01*
X102784520Y-96779451D01*
X102747266Y-96788006D01*
X102718951Y-96799671D01*
X102696285Y-96815040D01*
X102675974Y-96834707D01*
X102671435Y-96839738D01*
X102645252Y-96877998D01*
X102628037Y-96926106D01*
X102618593Y-96989054D01*
X102615720Y-97071833D01*
X102615720Y-97071870D01*
X102619318Y-97152757D01*
X102631096Y-97213049D01*
X102652574Y-97256660D01*
X102685276Y-97287506D01*
X102703628Y-97298052D01*
X102747105Y-97319754D01*
X102713158Y-97332660D01*
X102682241Y-97348913D01*
X102659540Y-97373141D01*
X102643934Y-97408924D01*
X102634303Y-97459843D01*
X102629527Y-97529479D01*
X102628448Y-97603375D01*
X102628400Y-97778000D01*
X102739214Y-97778000D01*
X102745710Y-97628775D01*
X102750153Y-97547820D01*
X102757604Y-97485914D01*
X102771177Y-97440506D01*
X102793988Y-97409043D01*
X102829149Y-97388974D01*
X102879775Y-97377747D01*
X102948980Y-97372811D01*
X103039878Y-97371615D01*
X103059570Y-97371600D01*
X103263400Y-97371600D01*
X103263400Y-97778000D01*
X103390400Y-97778000D01*
X103390400Y-96876300D01*
X103263400Y-96876300D01*
X103263400Y-97257300D01*
X103050675Y-97257112D01*
X102953488Y-97256037D01*
X102880775Y-97252969D01*
X102831685Y-97247850D01*
X102806200Y-97241061D01*
X102765988Y-97207580D01*
X102741718Y-97155058D01*
X102733236Y-97083072D01*
X102734423Y-97045733D01*
X102741482Y-96980045D01*
X102753468Y-96935046D01*
X102772313Y-96906200D01*
X102799947Y-96888974D01*
X102801449Y-96888392D01*
X102824477Y-96884353D01*
X102867917Y-96880888D01*
X102926783Y-96878238D01*
X102996089Y-96876650D01*
X103048327Y-96876300D01*
X103263400Y-96876300D01*
X103390400Y-96876300D01*
X103390400Y-96759658D01*
X103088775Y-96764462D01*
G36*
X101718302Y-96762056D02*
X101645812Y-96770707D01*
X101587794Y-96784026D01*
X101558508Y-96796419D01*
X101514039Y-96833974D01*
X101484084Y-96887704D01*
X101466893Y-96960859D01*
X101465928Y-96968375D01*
X101457074Y-97041400D01*
X101584116Y-97041400D01*
X101592824Y-96983334D01*
X101603224Y-96942529D01*
X101618926Y-96909448D01*
X101625100Y-96901700D01*
X101660638Y-96881265D01*
X101718759Y-96868785D01*
X101800045Y-96864177D01*
X101879723Y-96865987D01*
X101959770Y-96874380D01*
X102017668Y-96892314D01*
X102055616Y-96922097D01*
X102075814Y-96966037D01*
X102080461Y-97026442D01*
X102076572Y-97072575D01*
X102070647Y-97109035D01*
X102060924Y-97136491D01*
X102043909Y-97156663D01*
X102016107Y-97171274D01*
X101974024Y-97182045D01*
X101914168Y-97190697D01*
X101833043Y-97198952D01*
X101817088Y-97200421D01*
X101745614Y-97207551D01*
X101679032Y-97215278D01*
X101623398Y-97222823D01*
X101584769Y-97229406D01*
X101575942Y-97231458D01*
X101524780Y-97253746D01*
X101487318Y-97290589D01*
X101462703Y-97344048D01*
X101450080Y-97416186D01*
X101448595Y-97509064D01*
X101449869Y-97535843D01*
X101459286Y-97614068D01*
X101478589Y-97672358D01*
X101509915Y-97714967D01*
X101555402Y-97746148D01*
X101555604Y-97746250D01*
X101593867Y-97758287D01*
X101651436Y-97767512D01*
X101722359Y-97773817D01*
X101800685Y-97777091D01*
X101880464Y-97777227D01*
X101955746Y-97774114D01*
X102020579Y-97767645D01*
X102069013Y-97757709D01*
X102074917Y-97755764D01*
X102131290Y-97726475D01*
X102171341Y-97683155D01*
X102196429Y-97623293D01*
X102207913Y-97544380D01*
X102208998Y-97508125D01*
X102209300Y-97447800D01*
X102082300Y-97447800D01*
X102082300Y-97505357D01*
X102075541Y-97570149D01*
X102056494Y-97620524D01*
X102027009Y-97652521D01*
X102010112Y-97660072D01*
X101979751Y-97664623D01*
X101931009Y-97667750D01*
X101870821Y-97669448D01*
X101806126Y-97669712D01*
X101743859Y-97668538D01*
X101690956Y-97665920D01*
X101654356Y-97661855D01*
X101647486Y-97660323D01*
X101608130Y-97638348D01*
X101582700Y-97597519D01*
X101570457Y-97536389D01*
X101569105Y-97507270D01*
X101570673Y-97441521D01*
X101578644Y-97396119D01*
X101594505Y-97366492D01*
X101619741Y-97348069D01*
X101621037Y-97347469D01*
X101646347Y-97340827D01*
X101691136Y-97333804D01*
X101749506Y-97327158D01*
X101815562Y-97321644D01*
X101829272Y-97320738D01*
X101938391Y-97310654D01*
X102024777Y-97294508D01*
X102090730Y-97270524D01*
X102138554Y-97236927D01*
X102170551Y-97191939D01*
X102189021Y-97133786D01*
X102196269Y-97060691D01*
X102196600Y-97037353D01*
X102191933Y-96951624D01*
X102176917Y-96886396D01*
X102150029Y-96838354D01*
X102109748Y-96804181D01*
X102083534Y-96791015D01*
X102030527Y-96775384D01*
X101961377Y-96764736D01*
X101882207Y-96759007D01*
X101799141Y-96758135D01*
X101718302Y-96762056D01*
X101718302Y-96762056D01*
G37*
X101718302Y-96762056D02*
X101645812Y-96770707D01*
X101587794Y-96784026D01*
X101558508Y-96796419D01*
X101514039Y-96833974D01*
X101484084Y-96887704D01*
X101466893Y-96960859D01*
X101465928Y-96968375D01*
X101457074Y-97041400D01*
X101584116Y-97041400D01*
X101592824Y-96983334D01*
X101603224Y-96942529D01*
X101618926Y-96909448D01*
X101625100Y-96901700D01*
X101660638Y-96881265D01*
X101718759Y-96868785D01*
X101800045Y-96864177D01*
X101879723Y-96865987D01*
X101959770Y-96874380D01*
X102017668Y-96892314D01*
X102055616Y-96922097D01*
X102075814Y-96966037D01*
X102080461Y-97026442D01*
X102076572Y-97072575D01*
X102070647Y-97109035D01*
X102060924Y-97136491D01*
X102043909Y-97156663D01*
X102016107Y-97171274D01*
X101974024Y-97182045D01*
X101914168Y-97190697D01*
X101833043Y-97198952D01*
X101817088Y-97200421D01*
X101745614Y-97207551D01*
X101679032Y-97215278D01*
X101623398Y-97222823D01*
X101584769Y-97229406D01*
X101575942Y-97231458D01*
X101524780Y-97253746D01*
X101487318Y-97290589D01*
X101462703Y-97344048D01*
X101450080Y-97416186D01*
X101448595Y-97509064D01*
X101449869Y-97535843D01*
X101459286Y-97614068D01*
X101478589Y-97672358D01*
X101509915Y-97714967D01*
X101555402Y-97746148D01*
X101555604Y-97746250D01*
X101593867Y-97758287D01*
X101651436Y-97767512D01*
X101722359Y-97773817D01*
X101800685Y-97777091D01*
X101880464Y-97777227D01*
X101955746Y-97774114D01*
X102020579Y-97767645D01*
X102069013Y-97757709D01*
X102074917Y-97755764D01*
X102131290Y-97726475D01*
X102171341Y-97683155D01*
X102196429Y-97623293D01*
X102207913Y-97544380D01*
X102208998Y-97508125D01*
X102209300Y-97447800D01*
X102082300Y-97447800D01*
X102082300Y-97505357D01*
X102075541Y-97570149D01*
X102056494Y-97620524D01*
X102027009Y-97652521D01*
X102010112Y-97660072D01*
X101979751Y-97664623D01*
X101931009Y-97667750D01*
X101870821Y-97669448D01*
X101806126Y-97669712D01*
X101743859Y-97668538D01*
X101690956Y-97665920D01*
X101654356Y-97661855D01*
X101647486Y-97660323D01*
X101608130Y-97638348D01*
X101582700Y-97597519D01*
X101570457Y-97536389D01*
X101569105Y-97507270D01*
X101570673Y-97441521D01*
X101578644Y-97396119D01*
X101594505Y-97366492D01*
X101619741Y-97348069D01*
X101621037Y-97347469D01*
X101646347Y-97340827D01*
X101691136Y-97333804D01*
X101749506Y-97327158D01*
X101815562Y-97321644D01*
X101829272Y-97320738D01*
X101938391Y-97310654D01*
X102024777Y-97294508D01*
X102090730Y-97270524D01*
X102138554Y-97236927D01*
X102170551Y-97191939D01*
X102189021Y-97133786D01*
X102196269Y-97060691D01*
X102196600Y-97037353D01*
X102191933Y-96951624D01*
X102176917Y-96886396D01*
X102150029Y-96838354D01*
X102109748Y-96804181D01*
X102083534Y-96791015D01*
X102030527Y-96775384D01*
X101961377Y-96764736D01*
X101882207Y-96759007D01*
X101799141Y-96758135D01*
X101718302Y-96762056D01*
G36*
X100901200Y-97778000D02*
X101028200Y-97778000D01*
X101028200Y-96762000D01*
X100901200Y-96762000D01*
X100901200Y-97778000D01*
X100901200Y-97778000D01*
G37*
X100901200Y-97778000D02*
X101028200Y-97778000D01*
X101028200Y-96762000D01*
X100901200Y-96762000D01*
X100901200Y-97778000D01*
G36*
X99732800Y-96876300D02*
X100063000Y-96876300D01*
X100063000Y-97778000D01*
X100190000Y-97778000D01*
X100190000Y-96876300D01*
X100507500Y-96876300D01*
X100507500Y-96762000D01*
X99732800Y-96762000D01*
X99732800Y-96876300D01*
X99732800Y-96876300D01*
G37*
X99732800Y-96876300D02*
X100063000Y-96876300D01*
X100063000Y-97778000D01*
X100190000Y-97778000D01*
X100190000Y-96876300D01*
X100507500Y-96876300D01*
X100507500Y-96762000D01*
X99732800Y-96762000D01*
X99732800Y-96876300D01*
G36*
X98620854Y-96763903D02*
X98595770Y-96768808D01*
X98589800Y-96773453D01*
X98596458Y-96786754D01*
X98615224Y-96818399D01*
X98644285Y-96865486D01*
X98681832Y-96925112D01*
X98726053Y-96994373D01*
X98773950Y-97068543D01*
X98958100Y-97352181D01*
X98958100Y-97778000D01*
X99085100Y-97778000D01*
X99085100Y-97357846D01*
X99269250Y-97066368D01*
X99317733Y-96989378D01*
X99361435Y-96919498D01*
X99398605Y-96859569D01*
X99427489Y-96812433D01*
X99446335Y-96780933D01*
X99453388Y-96767911D01*
X99453400Y-96767811D01*
X99441914Y-96764606D01*
X99412173Y-96763594D01*
X99380658Y-96764541D01*
X99307915Y-96768350D01*
X99172835Y-96981887D01*
X99130868Y-97047903D01*
X99093066Y-97106751D01*
X99061682Y-97154973D01*
X99038969Y-97189111D01*
X99027181Y-97205708D01*
X99026503Y-97206462D01*
X99016522Y-97199660D01*
X98995231Y-97173637D01*
X98964438Y-97130921D01*
X98925950Y-97074041D01*
X98881576Y-97005525D01*
X98871587Y-96989750D01*
X98727923Y-96762000D01*
X98658862Y-96762000D01*
X98620854Y-96763903D01*
X98620854Y-96763903D01*
G37*
X98620854Y-96763903D02*
X98595770Y-96768808D01*
X98589800Y-96773453D01*
X98596458Y-96786754D01*
X98615224Y-96818399D01*
X98644285Y-96865486D01*
X98681832Y-96925112D01*
X98726053Y-96994373D01*
X98773950Y-97068543D01*
X98958100Y-97352181D01*
X98958100Y-97778000D01*
X99085100Y-97778000D01*
X99085100Y-97357846D01*
X99269250Y-97066368D01*
X99317733Y-96989378D01*
X99361435Y-96919498D01*
X99398605Y-96859569D01*
X99427489Y-96812433D01*
X99446335Y-96780933D01*
X99453388Y-96767911D01*
X99453400Y-96767811D01*
X99441914Y-96764606D01*
X99412173Y-96763594D01*
X99380658Y-96764541D01*
X99307915Y-96768350D01*
X99172835Y-96981887D01*
X99130868Y-97047903D01*
X99093066Y-97106751D01*
X99061682Y-97154973D01*
X99038969Y-97189111D01*
X99027181Y-97205708D01*
X99026503Y-97206462D01*
X99016522Y-97199660D01*
X98995231Y-97173637D01*
X98964438Y-97130921D01*
X98925950Y-97074041D01*
X98881576Y-97005525D01*
X98871587Y-96989750D01*
X98727923Y-96762000D01*
X98658862Y-96762000D01*
X98620854Y-96763903D01*
G36*
X100005850Y-95524120D02*
X99907305Y-95524969D01*
X99830692Y-95527768D01*
X99772563Y-95533431D01*
X99729471Y-95542873D01*
X99697970Y-95557009D01*
X99674611Y-95576754D01*
X99655948Y-95603023D01*
X99647075Y-95619328D01*
X99624380Y-95683849D01*
X99618500Y-95748690D01*
X99618500Y-95822200D01*
X99729528Y-95822200D01*
X99737814Y-95759736D01*
X99747850Y-95708955D01*
X99765167Y-95674393D01*
X99794553Y-95652001D01*
X99840795Y-95637735D01*
X99891727Y-95629633D01*
X99963522Y-95623590D01*
X100041238Y-95622299D01*
X100117250Y-95625430D01*
X100183933Y-95632649D01*
X100233663Y-95643627D01*
X100236598Y-95644629D01*
X100277535Y-95672284D01*
X100300098Y-95705609D01*
X100307931Y-95724041D01*
X100313809Y-95746038D01*
X100318002Y-95775322D01*
X100320782Y-95815616D01*
X100322419Y-95870643D01*
X100323184Y-95944126D01*
X100323350Y-96025400D01*
X100322966Y-96135857D01*
X100320572Y-96223603D01*
X100314309Y-96291323D01*
X100302318Y-96341707D01*
X100282740Y-96377441D01*
X100253715Y-96401212D01*
X100213384Y-96415709D01*
X100159888Y-96423618D01*
X100091366Y-96427627D01*
X100043950Y-96429225D01*
X99948939Y-96430742D01*
X99876097Y-96427339D01*
X99822369Y-96417096D01*
X99784704Y-96398094D01*
X99760047Y-96368416D01*
X99745345Y-96326140D01*
X99737545Y-96269349D01*
X99735297Y-96235242D01*
X99729615Y-96127000D01*
X100050300Y-96127000D01*
X100050300Y-96025400D01*
X99619651Y-96025400D01*
X99611382Y-96069480D01*
X99608459Y-96109616D01*
X99610024Y-96166854D01*
X99615250Y-96233460D01*
X99623309Y-96301698D01*
X99633375Y-96363833D01*
X99644622Y-96412130D01*
X99649540Y-96426530D01*
X99671501Y-96464781D01*
X99704792Y-96493167D01*
X99753366Y-96513662D01*
X99821176Y-96528236D01*
X99865075Y-96534099D01*
X99987505Y-96543401D01*
X100102734Y-96541084D01*
X100187795Y-96532453D01*
X100253476Y-96521235D01*
X100307320Y-96504691D01*
X100350396Y-96480475D01*
X100383775Y-96446240D01*
X100408529Y-96399638D01*
X100425727Y-96338323D01*
X100436440Y-96259948D01*
X100441740Y-96162165D01*
X100442696Y-96042628D01*
X100441904Y-95975424D01*
X100440296Y-95886663D01*
X100438465Y-95819230D01*
X100435972Y-95769052D01*
X100432380Y-95732057D01*
X100427251Y-95704175D01*
X100420148Y-95681332D01*
X100410632Y-95659458D01*
X100407183Y-95652355D01*
X100384888Y-95613632D01*
X100358848Y-95587024D01*
X100320026Y-95564060D01*
X100305583Y-95557105D01*
X100279104Y-95545190D01*
X100255057Y-95536520D01*
X100228838Y-95530588D01*
X100195846Y-95526888D01*
X100151477Y-95524913D01*
X100091129Y-95524157D01*
X100010199Y-95524113D01*
X100005850Y-95524120D01*
X100005850Y-95524120D01*
G37*
X100005850Y-95524120D02*
X99907305Y-95524969D01*
X99830692Y-95527768D01*
X99772563Y-95533431D01*
X99729471Y-95542873D01*
X99697970Y-95557009D01*
X99674611Y-95576754D01*
X99655948Y-95603023D01*
X99647075Y-95619328D01*
X99624380Y-95683849D01*
X99618500Y-95748690D01*
X99618500Y-95822200D01*
X99729528Y-95822200D01*
X99737814Y-95759736D01*
X99747850Y-95708955D01*
X99765167Y-95674393D01*
X99794553Y-95652001D01*
X99840795Y-95637735D01*
X99891727Y-95629633D01*
X99963522Y-95623590D01*
X100041238Y-95622299D01*
X100117250Y-95625430D01*
X100183933Y-95632649D01*
X100233663Y-95643627D01*
X100236598Y-95644629D01*
X100277535Y-95672284D01*
X100300098Y-95705609D01*
X100307931Y-95724041D01*
X100313809Y-95746038D01*
X100318002Y-95775322D01*
X100320782Y-95815616D01*
X100322419Y-95870643D01*
X100323184Y-95944126D01*
X100323350Y-96025400D01*
X100322966Y-96135857D01*
X100320572Y-96223603D01*
X100314309Y-96291323D01*
X100302318Y-96341707D01*
X100282740Y-96377441D01*
X100253715Y-96401212D01*
X100213384Y-96415709D01*
X100159888Y-96423618D01*
X100091366Y-96427627D01*
X100043950Y-96429225D01*
X99948939Y-96430742D01*
X99876097Y-96427339D01*
X99822369Y-96417096D01*
X99784704Y-96398094D01*
X99760047Y-96368416D01*
X99745345Y-96326140D01*
X99737545Y-96269349D01*
X99735297Y-96235242D01*
X99729615Y-96127000D01*
X100050300Y-96127000D01*
X100050300Y-96025400D01*
X99619651Y-96025400D01*
X99611382Y-96069480D01*
X99608459Y-96109616D01*
X99610024Y-96166854D01*
X99615250Y-96233460D01*
X99623309Y-96301698D01*
X99633375Y-96363833D01*
X99644622Y-96412130D01*
X99649540Y-96426530D01*
X99671501Y-96464781D01*
X99704792Y-96493167D01*
X99753366Y-96513662D01*
X99821176Y-96528236D01*
X99865075Y-96534099D01*
X99987505Y-96543401D01*
X100102734Y-96541084D01*
X100187795Y-96532453D01*
X100253476Y-96521235D01*
X100307320Y-96504691D01*
X100350396Y-96480475D01*
X100383775Y-96446240D01*
X100408529Y-96399638D01*
X100425727Y-96338323D01*
X100436440Y-96259948D01*
X100441740Y-96162165D01*
X100442696Y-96042628D01*
X100441904Y-95975424D01*
X100440296Y-95886663D01*
X100438465Y-95819230D01*
X100435972Y-95769052D01*
X100432380Y-95732057D01*
X100427251Y-95704175D01*
X100420148Y-95681332D01*
X100410632Y-95659458D01*
X100407183Y-95652355D01*
X100384888Y-95613632D01*
X100358848Y-95587024D01*
X100320026Y-95564060D01*
X100305583Y-95557105D01*
X100279104Y-95545190D01*
X100255057Y-95536520D01*
X100228838Y-95530588D01*
X100195846Y-95526888D01*
X100151477Y-95524913D01*
X100091129Y-95524157D01*
X100010199Y-95524113D01*
X100005850Y-95524120D01*
G36*
X107178734Y-95519459D02*
X107165628Y-95520034D01*
X107083585Y-95523750D01*
X106921761Y-95955550D01*
X106883341Y-96058078D01*
X106846645Y-96156023D01*
X106812898Y-96246111D01*
X106783327Y-96325073D01*
X106759155Y-96389635D01*
X106741609Y-96436526D01*
X106732698Y-96460375D01*
X106705457Y-96533400D01*
X106839018Y-96533400D01*
X106917004Y-96323850D01*
X107163542Y-96320416D01*
X107410080Y-96316983D01*
X107447589Y-96425191D01*
X107485098Y-96533400D01*
X107552299Y-96533400D01*
X107589730Y-96532686D01*
X107614127Y-96530852D01*
X107619500Y-96529217D01*
X107615303Y-96516817D01*
X107603456Y-96483638D01*
X107585080Y-96432743D01*
X107561295Y-96367190D01*
X107533220Y-96290041D01*
X107510815Y-96228600D01*
X107377830Y-96228600D01*
X107168465Y-96228600D01*
X107098760Y-96228129D01*
X107038886Y-96226825D01*
X106993031Y-96224854D01*
X106965383Y-96222380D01*
X106959100Y-96220385D01*
X106963313Y-96205374D01*
X106974931Y-96170809D01*
X106992424Y-96120868D01*
X107014263Y-96059730D01*
X107038918Y-95991573D01*
X107064859Y-95920575D01*
X107090558Y-95850915D01*
X107114483Y-95786771D01*
X107135107Y-95732321D01*
X107150898Y-95691743D01*
X107160327Y-95669217D01*
X107161993Y-95666176D01*
X107168741Y-95674359D01*
X107182274Y-95703079D01*
X107201154Y-95748840D01*
X107223943Y-95808149D01*
X107249203Y-95877510D01*
X107250823Y-95882076D01*
X107277815Y-95957958D01*
X107303596Y-96029852D01*
X107326312Y-96092628D01*
X107344108Y-96141157D01*
X107354329Y-96168275D01*
X107377830Y-96228600D01*
X107510815Y-96228600D01*
X107501974Y-96204356D01*
X107468677Y-96113197D01*
X107434450Y-96019623D01*
X107400411Y-95926694D01*
X107367680Y-95837473D01*
X107337377Y-95755018D01*
X107310622Y-95682391D01*
X107288533Y-95622652D01*
X107272232Y-95578862D01*
X107262836Y-95554082D01*
X107261928Y-95551784D01*
X107252824Y-95532711D01*
X107240459Y-95522461D01*
X107218031Y-95518791D01*
X107178734Y-95519459D01*
X107178734Y-95519459D01*
G37*
X107178734Y-95519459D02*
X107165628Y-95520034D01*
X107083585Y-95523750D01*
X106921761Y-95955550D01*
X106883341Y-96058078D01*
X106846645Y-96156023D01*
X106812898Y-96246111D01*
X106783327Y-96325073D01*
X106759155Y-96389635D01*
X106741609Y-96436526D01*
X106732698Y-96460375D01*
X106705457Y-96533400D01*
X106839018Y-96533400D01*
X106917004Y-96323850D01*
X107163542Y-96320416D01*
X107410080Y-96316983D01*
X107447589Y-96425191D01*
X107485098Y-96533400D01*
X107552299Y-96533400D01*
X107589730Y-96532686D01*
X107614127Y-96530852D01*
X107619500Y-96529217D01*
X107615303Y-96516817D01*
X107603456Y-96483638D01*
X107585080Y-96432743D01*
X107561295Y-96367190D01*
X107533220Y-96290041D01*
X107510815Y-96228600D01*
X107377830Y-96228600D01*
X107168465Y-96228600D01*
X107098760Y-96228129D01*
X107038886Y-96226825D01*
X106993031Y-96224854D01*
X106965383Y-96222380D01*
X106959100Y-96220385D01*
X106963313Y-96205374D01*
X106974931Y-96170809D01*
X106992424Y-96120868D01*
X107014263Y-96059730D01*
X107038918Y-95991573D01*
X107064859Y-95920575D01*
X107090558Y-95850915D01*
X107114483Y-95786771D01*
X107135107Y-95732321D01*
X107150898Y-95691743D01*
X107160327Y-95669217D01*
X107161993Y-95666176D01*
X107168741Y-95674359D01*
X107182274Y-95703079D01*
X107201154Y-95748840D01*
X107223943Y-95808149D01*
X107249203Y-95877510D01*
X107250823Y-95882076D01*
X107277815Y-95957958D01*
X107303596Y-96029852D01*
X107326312Y-96092628D01*
X107344108Y-96141157D01*
X107354329Y-96168275D01*
X107377830Y-96228600D01*
X107510815Y-96228600D01*
X107501974Y-96204356D01*
X107468677Y-96113197D01*
X107434450Y-96019623D01*
X107400411Y-95926694D01*
X107367680Y-95837473D01*
X107337377Y-95755018D01*
X107310622Y-95682391D01*
X107288533Y-95622652D01*
X107272232Y-95578862D01*
X107262836Y-95554082D01*
X107261928Y-95551784D01*
X107252824Y-95532711D01*
X107240459Y-95522461D01*
X107218031Y-95518791D01*
X107178734Y-95519459D01*
G36*
X105219200Y-96533400D02*
X105346200Y-96533400D01*
X105346884Y-95663450D01*
X105526966Y-96098997D01*
X105707047Y-96534545D01*
X105769947Y-96530797D01*
X105832848Y-96527050D01*
X106190750Y-95666638D01*
X106197434Y-96533400D01*
X106324100Y-96533400D01*
X106324100Y-95516372D01*
X106219425Y-95520061D01*
X106114749Y-95523750D01*
X105943577Y-95938994D01*
X105903828Y-96034866D01*
X105867014Y-96122592D01*
X105834261Y-96199573D01*
X105806693Y-96263210D01*
X105785435Y-96310903D01*
X105771613Y-96340054D01*
X105766437Y-96348269D01*
X105760398Y-96335521D01*
X105745918Y-96301970D01*
X105724133Y-96250337D01*
X105696179Y-96183345D01*
X105663194Y-96103716D01*
X105626314Y-96014170D01*
X105593051Y-95933025D01*
X105425633Y-95523750D01*
X105322417Y-95520061D01*
X105219200Y-95516372D01*
X105219200Y-96533400D01*
X105219200Y-96533400D01*
G37*
X105219200Y-96533400D02*
X105346200Y-96533400D01*
X105346884Y-95663450D01*
X105526966Y-96098997D01*
X105707047Y-96534545D01*
X105769947Y-96530797D01*
X105832848Y-96527050D01*
X106190750Y-95666638D01*
X106197434Y-96533400D01*
X106324100Y-96533400D01*
X106324100Y-95516372D01*
X106219425Y-95520061D01*
X106114749Y-95523750D01*
X105943577Y-95938994D01*
X105903828Y-96034866D01*
X105867014Y-96122592D01*
X105834261Y-96199573D01*
X105806693Y-96263210D01*
X105785435Y-96310903D01*
X105771613Y-96340054D01*
X105766437Y-96348269D01*
X105760398Y-96335521D01*
X105745918Y-96301970D01*
X105724133Y-96250337D01*
X105696179Y-96183345D01*
X105663194Y-96103716D01*
X105626314Y-96014170D01*
X105593051Y-95933025D01*
X105425633Y-95523750D01*
X105322417Y-95520061D01*
X105219200Y-95516372D01*
X105219200Y-96533400D01*
G36*
X104530225Y-95517625D02*
X104404936Y-95519288D01*
X104295907Y-95523861D01*
X104205111Y-95531157D01*
X104134527Y-95540990D01*
X104086127Y-95553171D01*
X104068884Y-95561315D01*
X104034093Y-95593274D01*
X104011100Y-95637874D01*
X103998501Y-95699105D01*
X103994887Y-95771400D01*
X103998614Y-95849830D01*
X104011575Y-95908376D01*
X104035313Y-95951362D01*
X104070229Y-95982365D01*
X104101829Y-96003070D01*
X104060440Y-96024700D01*
X104015235Y-96062185D01*
X103982878Y-96118832D01*
X103965028Y-96190997D01*
X103961971Y-96240815D01*
X103967411Y-96329603D01*
X103984680Y-96398802D01*
X104015459Y-96452107D01*
X104061427Y-96493213D01*
X104082550Y-96506031D01*
X104098559Y-96512877D01*
X104120976Y-96518257D01*
X104153033Y-96522407D01*
X104197957Y-96525561D01*
X104258980Y-96527954D01*
X104339329Y-96529821D01*
X104428625Y-96531217D01*
X104736600Y-96535384D01*
X104736600Y-96419100D01*
X104609600Y-96419100D01*
X104393070Y-96419100D01*
X104306477Y-96418550D01*
X104241630Y-96416719D01*
X104194897Y-96413336D01*
X104162643Y-96408129D01*
X104141236Y-96400827D01*
X104139970Y-96400189D01*
X104113565Y-96381725D01*
X104096882Y-96355723D01*
X104088106Y-96316827D01*
X104085421Y-96259680D01*
X104085515Y-96239518D01*
X104089719Y-96174750D01*
X104101712Y-96130342D01*
X104123288Y-96101968D01*
X104148318Y-96088038D01*
X104171593Y-96083439D01*
X104215246Y-96078599D01*
X104274264Y-96073934D01*
X104343633Y-96069859D01*
X104395195Y-96067596D01*
X104609600Y-96059502D01*
X104609600Y-96419100D01*
X104736600Y-96419100D01*
X104736600Y-95631700D01*
X104609600Y-95631700D01*
X104609600Y-95961900D01*
X104434975Y-95961597D01*
X104366153Y-95960649D01*
X104302168Y-95958274D01*
X104249504Y-95954811D01*
X104214646Y-95950601D01*
X104210938Y-95949831D01*
X104167683Y-95935755D01*
X104140300Y-95914152D01*
X104124824Y-95879408D01*
X104117293Y-95825914D01*
X104116629Y-95816334D01*
X104114396Y-95758609D01*
X104117864Y-95714313D01*
X104129859Y-95681680D01*
X104153207Y-95658946D01*
X104190736Y-95644345D01*
X104245271Y-95636114D01*
X104319640Y-95632488D01*
X104412343Y-95631700D01*
X104609600Y-95631700D01*
X104736600Y-95631700D01*
X104736600Y-95517400D01*
X104530225Y-95517625D01*
X104530225Y-95517625D01*
G37*
X104530225Y-95517625D02*
X104404936Y-95519288D01*
X104295907Y-95523861D01*
X104205111Y-95531157D01*
X104134527Y-95540990D01*
X104086127Y-95553171D01*
X104068884Y-95561315D01*
X104034093Y-95593274D01*
X104011100Y-95637874D01*
X103998501Y-95699105D01*
X103994887Y-95771400D01*
X103998614Y-95849830D01*
X104011575Y-95908376D01*
X104035313Y-95951362D01*
X104070229Y-95982365D01*
X104101829Y-96003070D01*
X104060440Y-96024700D01*
X104015235Y-96062185D01*
X103982878Y-96118832D01*
X103965028Y-96190997D01*
X103961971Y-96240815D01*
X103967411Y-96329603D01*
X103984680Y-96398802D01*
X104015459Y-96452107D01*
X104061427Y-96493213D01*
X104082550Y-96506031D01*
X104098559Y-96512877D01*
X104120976Y-96518257D01*
X104153033Y-96522407D01*
X104197957Y-96525561D01*
X104258980Y-96527954D01*
X104339329Y-96529821D01*
X104428625Y-96531217D01*
X104736600Y-96535384D01*
X104736600Y-96419100D01*
X104609600Y-96419100D01*
X104393070Y-96419100D01*
X104306477Y-96418550D01*
X104241630Y-96416719D01*
X104194897Y-96413336D01*
X104162643Y-96408129D01*
X104141236Y-96400827D01*
X104139970Y-96400189D01*
X104113565Y-96381725D01*
X104096882Y-96355723D01*
X104088106Y-96316827D01*
X104085421Y-96259680D01*
X104085515Y-96239518D01*
X104089719Y-96174750D01*
X104101712Y-96130342D01*
X104123288Y-96101968D01*
X104148318Y-96088038D01*
X104171593Y-96083439D01*
X104215246Y-96078599D01*
X104274264Y-96073934D01*
X104343633Y-96069859D01*
X104395195Y-96067596D01*
X104609600Y-96059502D01*
X104609600Y-96419100D01*
X104736600Y-96419100D01*
X104736600Y-95631700D01*
X104609600Y-95631700D01*
X104609600Y-95961900D01*
X104434975Y-95961597D01*
X104366153Y-95960649D01*
X104302168Y-95958274D01*
X104249504Y-95954811D01*
X104214646Y-95950601D01*
X104210938Y-95949831D01*
X104167683Y-95935755D01*
X104140300Y-95914152D01*
X104124824Y-95879408D01*
X104117293Y-95825914D01*
X104116629Y-95816334D01*
X104114396Y-95758609D01*
X104117864Y-95714313D01*
X104129859Y-95681680D01*
X104153207Y-95658946D01*
X104190736Y-95644345D01*
X104245271Y-95636114D01*
X104319640Y-95632488D01*
X104412343Y-95631700D01*
X104609600Y-95631700D01*
X104736600Y-95631700D01*
X104736600Y-95517400D01*
X104530225Y-95517625D01*
G36*
X103221419Y-95519614D02*
X103126655Y-95521460D01*
X103053564Y-95523347D01*
X102998424Y-95525652D01*
X102957510Y-95528756D01*
X102927100Y-95533037D01*
X102903469Y-95538875D01*
X102882893Y-95546649D01*
X102862857Y-95556137D01*
X102816756Y-95583778D01*
X102784376Y-95616550D01*
X102763281Y-95659427D01*
X102751036Y-95717385D01*
X102745204Y-95795399D01*
X102745162Y-95796487D01*
X102744787Y-95880205D01*
X102751711Y-95943537D01*
X102767243Y-95990777D01*
X102792688Y-96026223D01*
X102822147Y-96049682D01*
X102869800Y-96080519D01*
X102832552Y-96098559D01*
X102803868Y-96117021D01*
X102782966Y-96143016D01*
X102768764Y-96180315D01*
X102760177Y-96232690D01*
X102756122Y-96303909D01*
X102755400Y-96367044D01*
X102755400Y-96533400D01*
X102882400Y-96533400D01*
X102882400Y-96374850D01*
X102882588Y-96308862D01*
X102883800Y-96263020D01*
X102887008Y-96232072D01*
X102893186Y-96210763D01*
X102903306Y-96193842D01*
X102918340Y-96176054D01*
X102919437Y-96174825D01*
X102956473Y-96133350D01*
X103173437Y-96129104D01*
X103390400Y-96124859D01*
X103390400Y-96533400D01*
X103517400Y-96533400D01*
X103517400Y-96028698D01*
X103390400Y-96028698D01*
X103184025Y-96022989D01*
X103088903Y-96019332D01*
X103017481Y-96014201D01*
X102968092Y-96007434D01*
X102939550Y-95999100D01*
X102896814Y-95966864D01*
X102870858Y-95918150D01*
X102861105Y-95851489D01*
X102862717Y-95803150D01*
X102874149Y-95731120D01*
X102895272Y-95681016D01*
X102927113Y-95650886D01*
X102947045Y-95642793D01*
X102969860Y-95639801D01*
X103012982Y-95637102D01*
X103071317Y-95634907D01*
X103139774Y-95633426D01*
X103184025Y-95632965D01*
X103390400Y-95631700D01*
X103390400Y-96028698D01*
X103517400Y-96028698D01*
X103517400Y-95514202D01*
X103221419Y-95519614D01*
X103221419Y-95519614D01*
G37*
X103221419Y-95519614D02*
X103126655Y-95521460D01*
X103053564Y-95523347D01*
X102998424Y-95525652D01*
X102957510Y-95528756D01*
X102927100Y-95533037D01*
X102903469Y-95538875D01*
X102882893Y-95546649D01*
X102862857Y-95556137D01*
X102816756Y-95583778D01*
X102784376Y-95616550D01*
X102763281Y-95659427D01*
X102751036Y-95717385D01*
X102745204Y-95795399D01*
X102745162Y-95796487D01*
X102744787Y-95880205D01*
X102751711Y-95943537D01*
X102767243Y-95990777D01*
X102792688Y-96026223D01*
X102822147Y-96049682D01*
X102869800Y-96080519D01*
X102832552Y-96098559D01*
X102803868Y-96117021D01*
X102782966Y-96143016D01*
X102768764Y-96180315D01*
X102760177Y-96232690D01*
X102756122Y-96303909D01*
X102755400Y-96367044D01*
X102755400Y-96533400D01*
X102882400Y-96533400D01*
X102882400Y-96374850D01*
X102882588Y-96308862D01*
X102883800Y-96263020D01*
X102887008Y-96232072D01*
X102893186Y-96210763D01*
X102903306Y-96193842D01*
X102918340Y-96176054D01*
X102919437Y-96174825D01*
X102956473Y-96133350D01*
X103173437Y-96129104D01*
X103390400Y-96124859D01*
X103390400Y-96533400D01*
X103517400Y-96533400D01*
X103517400Y-96028698D01*
X103390400Y-96028698D01*
X103184025Y-96022989D01*
X103088903Y-96019332D01*
X103017481Y-96014201D01*
X102968092Y-96007434D01*
X102939550Y-95999100D01*
X102896814Y-95966864D01*
X102870858Y-95918150D01*
X102861105Y-95851489D01*
X102862717Y-95803150D01*
X102874149Y-95731120D01*
X102895272Y-95681016D01*
X102927113Y-95650886D01*
X102947045Y-95642793D01*
X102969860Y-95639801D01*
X103012982Y-95637102D01*
X103071317Y-95634907D01*
X103139774Y-95633426D01*
X103184025Y-95632965D01*
X103390400Y-95631700D01*
X103390400Y-96028698D01*
X103517400Y-96028698D01*
X103517400Y-95514202D01*
X103221419Y-95519614D01*
G36*
X102158500Y-96533400D02*
X102285500Y-96533400D01*
X102285500Y-95517400D01*
X102158500Y-95517400D01*
X102158500Y-96533400D01*
X102158500Y-96533400D01*
G37*
X102158500Y-96533400D02*
X102285500Y-96533400D01*
X102285500Y-95517400D01*
X102158500Y-95517400D01*
X102158500Y-96533400D01*
G36*
X101469525Y-95517496D02*
X101327666Y-95519023D01*
X101209051Y-95524526D01*
X101111637Y-95535593D01*
X101033382Y-95553810D01*
X100972243Y-95580765D01*
X100926176Y-95618044D01*
X100893138Y-95667235D01*
X100871088Y-95729924D01*
X100857982Y-95807699D01*
X100851776Y-95902146D01*
X100850400Y-95998452D01*
X100853086Y-96127945D01*
X100861765Y-96234768D01*
X100877368Y-96321140D01*
X100900826Y-96389281D01*
X100933071Y-96441412D01*
X100975034Y-96479752D01*
X101027647Y-96506522D01*
X101068749Y-96518952D01*
X101102267Y-96523797D01*
X101157403Y-96527824D01*
X101230383Y-96530874D01*
X101317434Y-96532785D01*
X101408474Y-96533400D01*
X101688600Y-96533400D01*
X101688600Y-96419100D01*
X101561600Y-96419100D01*
X101355225Y-96419029D01*
X101281493Y-96418210D01*
X101213229Y-96415997D01*
X101156024Y-96412678D01*
X101115470Y-96408543D01*
X101102042Y-96405957D01*
X101048984Y-96378641D01*
X101008451Y-96331796D01*
X100983823Y-96269591D01*
X100981345Y-96257114D01*
X100976577Y-96213824D01*
X100973488Y-96153779D01*
X100972004Y-96082829D01*
X100972055Y-96006827D01*
X100973568Y-95931624D01*
X100976472Y-95863072D01*
X100980693Y-95807020D01*
X100986162Y-95769322D01*
X100987398Y-95764504D01*
X101002188Y-95723435D01*
X101021799Y-95691650D01*
X101049394Y-95668007D01*
X101088137Y-95651366D01*
X101141191Y-95640584D01*
X101211721Y-95634519D01*
X101302891Y-95632030D01*
X101355225Y-95631770D01*
X101561600Y-95631700D01*
X101561600Y-96419100D01*
X101688600Y-96419100D01*
X101688600Y-95517400D01*
X101469525Y-95517496D01*
X101469525Y-95517496D01*
G37*
X101469525Y-95517496D02*
X101327666Y-95519023D01*
X101209051Y-95524526D01*
X101111637Y-95535593D01*
X101033382Y-95553810D01*
X100972243Y-95580765D01*
X100926176Y-95618044D01*
X100893138Y-95667235D01*
X100871088Y-95729924D01*
X100857982Y-95807699D01*
X100851776Y-95902146D01*
X100850400Y-95998452D01*
X100853086Y-96127945D01*
X100861765Y-96234768D01*
X100877368Y-96321140D01*
X100900826Y-96389281D01*
X100933071Y-96441412D01*
X100975034Y-96479752D01*
X101027647Y-96506522D01*
X101068749Y-96518952D01*
X101102267Y-96523797D01*
X101157403Y-96527824D01*
X101230383Y-96530874D01*
X101317434Y-96532785D01*
X101408474Y-96533400D01*
X101688600Y-96533400D01*
X101688600Y-96419100D01*
X101561600Y-96419100D01*
X101355225Y-96419029D01*
X101281493Y-96418210D01*
X101213229Y-96415997D01*
X101156024Y-96412678D01*
X101115470Y-96408543D01*
X101102042Y-96405957D01*
X101048984Y-96378641D01*
X101008451Y-96331796D01*
X100983823Y-96269591D01*
X100981345Y-96257114D01*
X100976577Y-96213824D01*
X100973488Y-96153779D01*
X100972004Y-96082829D01*
X100972055Y-96006827D01*
X100973568Y-95931624D01*
X100976472Y-95863072D01*
X100980693Y-95807020D01*
X100986162Y-95769322D01*
X100987398Y-95764504D01*
X101002188Y-95723435D01*
X101021799Y-95691650D01*
X101049394Y-95668007D01*
X101088137Y-95651366D01*
X101141191Y-95640584D01*
X101211721Y-95634519D01*
X101302891Y-95632030D01*
X101355225Y-95631770D01*
X101561600Y-95631700D01*
X101561600Y-96419100D01*
X101688600Y-96419100D01*
X101688600Y-95517400D01*
X101469525Y-95517496D01*
G36*
X98577100Y-95631700D02*
X99097800Y-95631700D01*
X99097800Y-95961900D01*
X98589800Y-95961900D01*
X98589800Y-96063500D01*
X99097800Y-96063500D01*
X99097800Y-96419100D01*
X98577100Y-96419100D01*
X98577100Y-96533400D01*
X99224800Y-96533400D01*
X99224800Y-95517400D01*
X98577100Y-95517400D01*
X98577100Y-95631700D01*
X98577100Y-95631700D01*
G37*
X98577100Y-95631700D02*
X99097800Y-95631700D01*
X99097800Y-95961900D01*
X98589800Y-95961900D01*
X98589800Y-96063500D01*
X99097800Y-96063500D01*
X99097800Y-96419100D01*
X98577100Y-96419100D01*
X98577100Y-96533400D01*
X99224800Y-96533400D01*
X99224800Y-95517400D01*
X98577100Y-95517400D01*
X98577100Y-95631700D01*
%LPC*%
D13*
X106000000Y-92000000D03*
D14*
X104750000Y-92000000D03*
X103500000Y-92000000D03*
X102250000Y-92000000D03*
X101000000Y-92000000D03*
X99750000Y-92000000D03*
X98500000Y-92000000D03*
X97250000Y-92000000D03*
X96000000Y-92000000D03*
X94750000Y-92000000D03*
D15*
X83635000Y-94285000D03*
X86365000Y-94285000D03*
X83635000Y-95555000D03*
X86365000Y-95555000D03*
X83635000Y-96825000D03*
X86365000Y-96825000D03*
X83635000Y-98095000D03*
X86365000Y-98095000D03*
X83635000Y-99365000D03*
X86365000Y-99365000D03*
X83635000Y-100635000D03*
X86365000Y-100635000D03*
X83635000Y-101905000D03*
X86365000Y-101905000D03*
X83635000Y-103175000D03*
X86365000Y-103175000D03*
X83635000Y-104445000D03*
X86365000Y-104445000D03*
X83635000Y-105715000D03*
X86365000Y-105715000D03*
D16*
X85000000Y-107305000D03*
X85000000Y-92695000D03*
D15*
X113635000Y-94285000D03*
X116365000Y-94285000D03*
X113635000Y-95555000D03*
X116365000Y-95555000D03*
X113635000Y-96825000D03*
X116365000Y-96825000D03*
X113635000Y-98095000D03*
X116365000Y-98095000D03*
X113635000Y-99365000D03*
X116365000Y-99365000D03*
X113635000Y-100635000D03*
X116365000Y-100635000D03*
X113635000Y-101905000D03*
X116365000Y-101905000D03*
X113635000Y-103175000D03*
X116365000Y-103175000D03*
X113635000Y-104445000D03*
X116365000Y-104445000D03*
X113635000Y-105715000D03*
X116365000Y-105715000D03*
D16*
X115000000Y-107305000D03*
X115000000Y-92695000D03*
D17*
X94285000Y-116365000D03*
X94285000Y-113635000D03*
X95555000Y-116365000D03*
X95555000Y-113635000D03*
X96825000Y-116365000D03*
X96825000Y-113635000D03*
X98095000Y-116365000D03*
X98095000Y-113635000D03*
X99365000Y-116365000D03*
X99365000Y-113635000D03*
X100635000Y-116365000D03*
X100635000Y-113635000D03*
X101905000Y-116365000D03*
X101905000Y-113635000D03*
X103175000Y-116365000D03*
X103175000Y-113635000D03*
X104445000Y-116365000D03*
X104445000Y-113635000D03*
X105715000Y-116365000D03*
X105715000Y-113635000D03*
D16*
X107305000Y-115000000D03*
X92695000Y-115000000D03*
M02*
