G04 #@! TF.FileFunction,Soldermask,Bot*
%FSLAX46Y46*%
G04 Gerber Fmt 4.6, Leading zero omitted, Abs format (unit mm)*
G04 Created by KiCad (PCBNEW 4.0.2+e4-6225~38~ubuntu14.04.1-stable) date Tue 28 Jun 2016 16:09:10 BST*
%MOMM*%
G01*
G04 APERTURE LIST*
%ADD10C,0.100000*%
%ADD11C,0.800000*%
%ADD12R,0.800000X0.800000*%
%ADD13O,0.800000X0.800000*%
%ADD14R,2.220000X0.740000*%
%ADD15C,1.200000*%
%ADD16R,0.740000X2.220000*%
%ADD17R,1.220000X0.910000*%
%ADD18R,0.750000X0.900000*%
%ADD19R,1.000000X0.950000*%
G04 APERTURE END LIST*
D10*
G36*
X112116117Y-113699568D02*
X111550432Y-113133883D01*
X112116117Y-112568198D01*
X112681802Y-113133883D01*
X112116117Y-113699568D01*
X112116117Y-113699568D01*
G37*
D11*
X113000000Y-112250000D02*
X113000000Y-112250000D01*
D10*
G36*
X86450432Y-112366117D02*
X87016117Y-111800432D01*
X87581802Y-112366117D01*
X87016117Y-112931802D01*
X86450432Y-112366117D01*
X86450432Y-112366117D01*
G37*
D11*
X87900000Y-113250000D02*
X87900000Y-113250000D01*
D12*
X91500000Y-91500000D03*
D13*
X92750000Y-91500000D03*
X94000000Y-91500000D03*
X95250000Y-91500000D03*
X96500000Y-91500000D03*
X97750000Y-91500000D03*
X99000000Y-91500000D03*
X100250000Y-91500000D03*
X101500000Y-91500000D03*
X102750000Y-91500000D03*
X104000000Y-91500000D03*
X105250000Y-91500000D03*
X106500000Y-91500000D03*
X107750000Y-91500000D03*
D14*
X83635000Y-94285000D03*
X86365000Y-94285000D03*
X83635000Y-95555000D03*
X86365000Y-95555000D03*
X83635000Y-96825000D03*
X86365000Y-96825000D03*
X83635000Y-98095000D03*
X86365000Y-98095000D03*
X83635000Y-99365000D03*
X86365000Y-99365000D03*
X83635000Y-100635000D03*
X86365000Y-100635000D03*
X83635000Y-101905000D03*
X86365000Y-101905000D03*
X83635000Y-103175000D03*
X86365000Y-103175000D03*
X83635000Y-104445000D03*
X86365000Y-104445000D03*
X83635000Y-105715000D03*
X86365000Y-105715000D03*
D15*
X85000000Y-107305000D03*
X85000000Y-92695000D03*
D14*
X113635000Y-94285000D03*
X116365000Y-94285000D03*
X113635000Y-95555000D03*
X116365000Y-95555000D03*
X113635000Y-96825000D03*
X116365000Y-96825000D03*
X113635000Y-98095000D03*
X116365000Y-98095000D03*
X113635000Y-99365000D03*
X116365000Y-99365000D03*
X113635000Y-100635000D03*
X116365000Y-100635000D03*
X113635000Y-101905000D03*
X116365000Y-101905000D03*
X113635000Y-103175000D03*
X116365000Y-103175000D03*
X113635000Y-104445000D03*
X116365000Y-104445000D03*
X113635000Y-105715000D03*
X116365000Y-105715000D03*
D15*
X115000000Y-107305000D03*
X115000000Y-92695000D03*
D16*
X94285000Y-116365000D03*
X94285000Y-113635000D03*
X95555000Y-116365000D03*
X95555000Y-113635000D03*
X96825000Y-116365000D03*
X96825000Y-113635000D03*
X98095000Y-116365000D03*
X98095000Y-113635000D03*
X99365000Y-116365000D03*
X99365000Y-113635000D03*
X100635000Y-116365000D03*
X100635000Y-113635000D03*
X101905000Y-116365000D03*
X101905000Y-113635000D03*
X103175000Y-116365000D03*
X103175000Y-113635000D03*
X104445000Y-116365000D03*
X104445000Y-113635000D03*
X105715000Y-116365000D03*
X105715000Y-113635000D03*
D15*
X107305000Y-115000000D03*
X92695000Y-115000000D03*
D17*
X88800000Y-87965000D03*
X88800000Y-91235000D03*
D18*
X98300000Y-108000000D03*
X99700000Y-108000000D03*
D19*
X101300000Y-105900001D03*
X101300000Y-107500001D03*
M02*
