G04 #@! TF.FileFunction,Copper,L2,Bot,Signal*
%FSLAX46Y46*%
G04 Gerber Fmt 4.6, Leading zero omitted, Abs format (unit mm)*
G04 Created by KiCad (PCBNEW 4.0.2+e4-6225~38~ubuntu14.04.1-stable) date Fri 17 Jun 2016 18:56:52 BST*
%MOMM*%
G01*
G04 APERTURE LIST*
%ADD10C,0.100000*%
%ADD11C,0.800000*%
%ADD12R,0.800000X0.800000*%
%ADD13O,0.800000X0.800000*%
%ADD14R,2.220000X0.740000*%
%ADD15R,0.740000X2.220000*%
%ADD16R,1.220000X0.910000*%
%ADD17R,0.750000X0.900000*%
%ADD18R,1.000000X0.950000*%
%ADD19C,0.600000*%
%ADD20C,0.800000*%
%ADD21C,0.700000*%
%ADD22C,0.200000*%
%ADD23C,0.740000*%
%ADD24C,0.280000*%
%ADD25C,0.250000*%
G04 APERTURE END LIST*
D10*
G36*
X112116117Y-113699568D02*
X111550432Y-113133883D01*
X112116117Y-112568198D01*
X112681802Y-113133883D01*
X112116117Y-113699568D01*
X112116117Y-113699568D01*
G37*
D11*
X113000000Y-112250000D02*
X113000000Y-112250000D01*
D10*
G36*
X86450432Y-112366117D02*
X87016117Y-111800432D01*
X87581802Y-112366117D01*
X87016117Y-112931802D01*
X86450432Y-112366117D01*
X86450432Y-112366117D01*
G37*
D11*
X87900000Y-113250000D02*
X87900000Y-113250000D01*
D12*
X91500000Y-91500000D03*
D13*
X92750000Y-91500000D03*
X94000000Y-91500000D03*
X95250000Y-91500000D03*
X96500000Y-91500000D03*
X97750000Y-91500000D03*
X99000000Y-91500000D03*
X100250000Y-91500000D03*
X101500000Y-91500000D03*
X102750000Y-91500000D03*
X104000000Y-91500000D03*
X105250000Y-91500000D03*
X106500000Y-91500000D03*
X107750000Y-91500000D03*
D14*
X83635000Y-94285000D03*
X86365000Y-94285000D03*
X83635000Y-95555000D03*
X86365000Y-95555000D03*
X83635000Y-96825000D03*
X86365000Y-96825000D03*
X83635000Y-98095000D03*
X86365000Y-98095000D03*
X83635000Y-99365000D03*
X86365000Y-99365000D03*
X83635000Y-100635000D03*
X86365000Y-100635000D03*
X83635000Y-101905000D03*
X86365000Y-101905000D03*
X83635000Y-103175000D03*
X86365000Y-103175000D03*
X83635000Y-104445000D03*
X86365000Y-104445000D03*
X83635000Y-105715000D03*
X86365000Y-105715000D03*
X113635000Y-94285000D03*
X116365000Y-94285000D03*
X113635000Y-95555000D03*
X116365000Y-95555000D03*
X113635000Y-96825000D03*
X116365000Y-96825000D03*
X113635000Y-98095000D03*
X116365000Y-98095000D03*
X113635000Y-99365000D03*
X116365000Y-99365000D03*
X113635000Y-100635000D03*
X116365000Y-100635000D03*
X113635000Y-101905000D03*
X116365000Y-101905000D03*
X113635000Y-103175000D03*
X116365000Y-103175000D03*
X113635000Y-104445000D03*
X116365000Y-104445000D03*
X113635000Y-105715000D03*
X116365000Y-105715000D03*
D15*
X94285000Y-116365000D03*
X94285000Y-113635000D03*
X95555000Y-116365000D03*
X95555000Y-113635000D03*
X96825000Y-116365000D03*
X96825000Y-113635000D03*
X98095000Y-116365000D03*
X98095000Y-113635000D03*
X99365000Y-116365000D03*
X99365000Y-113635000D03*
X100635000Y-116365000D03*
X100635000Y-113635000D03*
X101905000Y-116365000D03*
X101905000Y-113635000D03*
X103175000Y-116365000D03*
X103175000Y-113635000D03*
X104445000Y-116365000D03*
X104445000Y-113635000D03*
X105715000Y-116365000D03*
X105715000Y-113635000D03*
D16*
X88800000Y-87965000D03*
X88800000Y-91235000D03*
D17*
X98300000Y-108000000D03*
X99700000Y-108000000D03*
D18*
X101300000Y-105900001D03*
X101300000Y-107500001D03*
D19*
X103750000Y-107250000D03*
X96200000Y-107080000D03*
X102400000Y-101100000D03*
X100800000Y-102600000D03*
X100800000Y-104000000D03*
X99100000Y-104000000D03*
X97400000Y-104000000D03*
X97400000Y-102600000D03*
X99100000Y-102600000D03*
X99100000Y-101000000D03*
X97400000Y-101000000D03*
X92500000Y-97100000D03*
X105250000Y-97250000D03*
X91500000Y-95000000D03*
X93500000Y-99500000D03*
X93500000Y-99500000D03*
X92250000Y-104250000D03*
X107750000Y-99500000D03*
X107750000Y-97500000D03*
X106500000Y-95000000D03*
X104000000Y-95000000D03*
X101500000Y-95000000D03*
X99000000Y-95000000D03*
X96500000Y-95000000D03*
X94000000Y-95000000D03*
X95000000Y-99500000D03*
X117500000Y-92500000D03*
X112500000Y-92500000D03*
X115000000Y-90000000D03*
X112500000Y-90000000D03*
X110000000Y-90000000D03*
X110000000Y-92500000D03*
X110000000Y-95000000D03*
X110000000Y-97500000D03*
X110000000Y-100000000D03*
X107500000Y-102500000D03*
X110000000Y-102500000D03*
X110000000Y-105000000D03*
X107500000Y-105000000D03*
X117500000Y-107500000D03*
X112500000Y-107500000D03*
X115000000Y-110000000D03*
X110000000Y-115000000D03*
X107500000Y-117500000D03*
X107500000Y-112500000D03*
X82500000Y-107500000D03*
X87500000Y-110000000D03*
X92500000Y-112500000D03*
X92500000Y-117500000D03*
X92500000Y-107500000D03*
X95000000Y-110000000D03*
X90000000Y-115000000D03*
X85000000Y-110000000D03*
X87500000Y-107500000D03*
X90000000Y-106000000D03*
X90000000Y-97500000D03*
X90000000Y-95000000D03*
X90000000Y-90000000D03*
X87500000Y-90000000D03*
X85000000Y-90000000D03*
X82500000Y-92500000D03*
X87500000Y-92500000D03*
D20*
X118185000Y-94285000D03*
X118185000Y-105715000D03*
X111815000Y-105715000D03*
X111815000Y-94285000D03*
X94285000Y-111815000D03*
X105715000Y-111815000D03*
X105715000Y-118085000D03*
X94285000Y-118185000D03*
X88185000Y-94285000D03*
X88185000Y-105715000D03*
X81815000Y-105715000D03*
X81815000Y-94285000D03*
X102750000Y-105750000D03*
D19*
X88980000Y-100000000D03*
D20*
X81865000Y-100635000D03*
D19*
X106000000Y-103250000D03*
X102100000Y-102400000D03*
X93750000Y-105750000D03*
X96850000Y-108950000D03*
D20*
X103175000Y-118125000D03*
X96825000Y-118125000D03*
X98095000Y-118195000D03*
X99365000Y-118165000D03*
D19*
X98000000Y-105500000D03*
D20*
X104445000Y-118155000D03*
D19*
X99750000Y-106250000D03*
D20*
X81845000Y-95555000D03*
X88145000Y-95555000D03*
X81825000Y-96825000D03*
X88125000Y-96825000D03*
X81905000Y-98095000D03*
X88195000Y-98095000D03*
X81835000Y-99365000D03*
D21*
X88165000Y-99365000D03*
X88165000Y-100635000D03*
D20*
X81805000Y-101905000D03*
X88105000Y-101905000D03*
X81875000Y-103175000D03*
X88175000Y-103175000D03*
X81845000Y-104445000D03*
X88155000Y-104445000D03*
X118145000Y-95555000D03*
X111845000Y-95555000D03*
X118125000Y-96825000D03*
X111875000Y-96825000D03*
X111805000Y-98095000D03*
X118195000Y-98095000D03*
X111835000Y-99365000D03*
X118165000Y-99365000D03*
X111865000Y-100635000D03*
X118165000Y-100635000D03*
X111805000Y-101905000D03*
X118195000Y-101905000D03*
X111825000Y-103175000D03*
X118175000Y-103175000D03*
X118155000Y-104445000D03*
X111855000Y-104445000D03*
X95555000Y-118145000D03*
D21*
X95555000Y-111855000D03*
X96825000Y-111875000D03*
X98095000Y-111805000D03*
X99365000Y-111835000D03*
D20*
X100635000Y-118165000D03*
D21*
X100635000Y-111865000D03*
D20*
X101905000Y-118195000D03*
D21*
X101905000Y-111895000D03*
X103175000Y-111825000D03*
X104445000Y-111845000D03*
D22*
X99000000Y-104000000D02*
X100800000Y-104000000D01*
X97400000Y-102600000D02*
X97400000Y-104000000D01*
X99000000Y-101000000D02*
X99000000Y-102600000D01*
X97400000Y-101000000D02*
X99000000Y-101000000D01*
D23*
X113635000Y-94285000D02*
X116365000Y-94285000D01*
X83635000Y-94285000D02*
X81815000Y-94285000D01*
X86365000Y-94285000D02*
X83635000Y-94285000D01*
X88185000Y-94285000D02*
X86365000Y-94285000D01*
X86365000Y-105715000D02*
X88185000Y-105715000D01*
X83635000Y-105715000D02*
X86365000Y-105715000D01*
X81815000Y-105715000D02*
X83635000Y-105715000D01*
X94285000Y-116365000D02*
X94285000Y-113635000D01*
X94285000Y-116365000D02*
X94285000Y-118185000D01*
X94285000Y-111815000D02*
X94285000Y-113635000D01*
X105715000Y-116365000D02*
X105715000Y-118085000D01*
X105715000Y-113635000D02*
X105715000Y-116365000D01*
X105715000Y-113635000D02*
X105715000Y-111815000D01*
X113635000Y-105715000D02*
X111815000Y-105715000D01*
X116365000Y-105715000D02*
X113635000Y-105715000D01*
X118185000Y-105715000D02*
X116365000Y-105715000D01*
X118185000Y-94285000D02*
X116365000Y-94285000D01*
X111815000Y-94285000D02*
X113635000Y-94285000D01*
D24*
X98300000Y-108000000D02*
X98300000Y-107270000D01*
X98300000Y-107270000D02*
X97000000Y-105970000D01*
X97000000Y-105970000D02*
X97000000Y-104750000D01*
X101300000Y-105900001D02*
X102599999Y-105900001D01*
X102599999Y-105900001D02*
X102750000Y-105750000D01*
X97000000Y-104750000D02*
X99369999Y-104750000D01*
X99369999Y-104750000D02*
X100520000Y-105900001D01*
X100520000Y-105900001D02*
X101300000Y-105900001D01*
D22*
X83635000Y-100635000D02*
X84375000Y-100635000D01*
X84375000Y-100635000D02*
X85010000Y-100000000D01*
X85010000Y-100000000D02*
X88555736Y-100000000D01*
X88555736Y-100000000D02*
X88980000Y-100000000D01*
D24*
X96250000Y-105500000D02*
X96500000Y-105250000D01*
X95000000Y-106750000D02*
X96250000Y-105500000D01*
X96250000Y-105500000D02*
X97000000Y-104750000D01*
X89500000Y-103750000D02*
X89500000Y-100520000D01*
X89500000Y-100520000D02*
X88980000Y-100000000D01*
X92500000Y-106750000D02*
X89500000Y-103750000D01*
X95000000Y-106750000D02*
X92500000Y-106750000D01*
D23*
X81865000Y-100635000D02*
X83635000Y-100635000D01*
D25*
X102100000Y-102400000D02*
X102950000Y-103250000D01*
X102950000Y-103250000D02*
X103000000Y-103250000D01*
X106000000Y-103250000D02*
X103000000Y-103250000D01*
X90750000Y-103750000D02*
X90750000Y-93435000D01*
X92500000Y-105750000D02*
X90750000Y-104000000D01*
X93750000Y-105750000D02*
X92500000Y-105750000D01*
X90750000Y-104000000D02*
X90750000Y-103750000D01*
X88800000Y-91235000D02*
X88800000Y-91485000D01*
X88800000Y-91485000D02*
X90750000Y-93435000D01*
D22*
X96850000Y-108950000D02*
X97300000Y-109400000D01*
X97300000Y-109400000D02*
X100600000Y-109400000D01*
X103175000Y-115625000D02*
X103175000Y-116365000D01*
X100600000Y-109400000D02*
X102547999Y-111347999D01*
X102547999Y-111347999D02*
X102547999Y-114997999D01*
X102547999Y-114997999D02*
X103175000Y-115625000D01*
D23*
X103175000Y-116365000D02*
X103175000Y-118125000D01*
X96825000Y-116365000D02*
X96825000Y-118125000D01*
X98095000Y-116365000D02*
X98095000Y-118195000D01*
X99365000Y-116365000D02*
X99365000Y-118165000D01*
D22*
X98000000Y-105500000D02*
X99000000Y-106500000D01*
X99000000Y-108533602D02*
X99366398Y-108900000D01*
X99000000Y-106500000D02*
X99000000Y-108533602D01*
X99366398Y-108900000D02*
X101300000Y-108900000D01*
X104445000Y-115625000D02*
X104445000Y-116365000D01*
X101300000Y-108900000D02*
X103824990Y-111424990D01*
X103824990Y-111424990D02*
X103824990Y-113924990D01*
X103824999Y-115004999D02*
X104445000Y-115625000D01*
X103824990Y-113924990D02*
X103824999Y-113924999D01*
X103824999Y-113924999D02*
X103824999Y-115004999D01*
X104445000Y-115595000D02*
X104445000Y-116365000D01*
D23*
X104445000Y-118155000D02*
X104445000Y-116365000D01*
D25*
X99750000Y-108000000D02*
X99750000Y-106250000D01*
D23*
X81845000Y-95555000D02*
X83635000Y-95555000D01*
X88145000Y-95555000D02*
X86365000Y-95555000D01*
X82275000Y-96825000D02*
X81825000Y-96825000D01*
X83635000Y-96825000D02*
X82275000Y-96825000D01*
X88125000Y-96825000D02*
X86365000Y-96825000D01*
X81905000Y-98095000D02*
X83635000Y-98095000D01*
X86365000Y-98095000D02*
X88195000Y-98095000D01*
X83635000Y-99365000D02*
X81835000Y-99365000D01*
X88165000Y-99365000D02*
X86365000Y-99365000D01*
X86365000Y-100635000D02*
X88165000Y-100635000D01*
X82405000Y-101905000D02*
X81805000Y-101905000D01*
X83635000Y-101905000D02*
X82405000Y-101905000D01*
X88105000Y-101905000D02*
X86365000Y-101905000D01*
X81875000Y-103175000D02*
X83635000Y-103175000D01*
X86365000Y-103175000D02*
X88175000Y-103175000D01*
X83635000Y-104445000D02*
X81845000Y-104445000D01*
X88155000Y-104445000D02*
X86365000Y-104445000D01*
X116365000Y-95555000D02*
X113635000Y-95555000D01*
X116365000Y-95555000D02*
X118145000Y-95555000D01*
X111845000Y-95555000D02*
X113635000Y-95555000D01*
X113635000Y-96825000D02*
X116365000Y-96825000D01*
X118125000Y-96825000D02*
X116365000Y-96825000D01*
X113635000Y-96825000D02*
X111875000Y-96825000D01*
X111805000Y-98095000D02*
X113635000Y-98095000D01*
X116365000Y-98095000D02*
X118195000Y-98095000D01*
X111835000Y-99365000D02*
X113635000Y-99365000D01*
X118165000Y-99365000D02*
X116365000Y-99365000D01*
X113635000Y-100635000D02*
X111865000Y-100635000D01*
X116365000Y-100635000D02*
X118165000Y-100635000D01*
X111805000Y-101905000D02*
X113635000Y-101905000D01*
X116365000Y-101905000D02*
X118195000Y-101905000D01*
X113635000Y-103175000D02*
X111825000Y-103175000D01*
X118175000Y-103175000D02*
X116365000Y-103175000D01*
X116365000Y-104445000D02*
X113635000Y-104445000D01*
X117455000Y-104445000D02*
X118155000Y-104445000D01*
X116365000Y-104445000D02*
X117455000Y-104445000D01*
X111855000Y-104445000D02*
X113635000Y-104445000D01*
X95555000Y-118145000D02*
X95555000Y-116365000D01*
X95555000Y-111855000D02*
X95555000Y-113635000D01*
X96825000Y-113635000D02*
X96825000Y-111875000D01*
X98095000Y-111805000D02*
X98095000Y-113635000D01*
X99365000Y-111835000D02*
X99365000Y-113635000D01*
X100635000Y-118165000D02*
X100635000Y-116365000D01*
X100635000Y-113635000D02*
X100635000Y-111865000D01*
X101905000Y-118195000D02*
X101905000Y-116365000D01*
X101905000Y-111895000D02*
X101905000Y-113635000D01*
X103175000Y-111825000D02*
X103175000Y-113635000D01*
X104445000Y-111845000D02*
X104445000Y-113635000D01*
D22*
X84955714Y-87325000D02*
X88021446Y-87325000D01*
X89578554Y-87325000D02*
X115030596Y-87325000D01*
X84835754Y-87474200D02*
X87942224Y-87474200D01*
X89657777Y-87474200D02*
X115134831Y-87474200D01*
X84715794Y-87623400D02*
X87940000Y-87623400D01*
X89660000Y-87623400D02*
X115239066Y-87623400D01*
X84595834Y-87772600D02*
X87940000Y-87772600D01*
X89660000Y-87772600D02*
X115343301Y-87772600D01*
X84475874Y-87921800D02*
X87969300Y-87921800D01*
X89630700Y-87921800D02*
X115447536Y-87921800D01*
X84355914Y-88071000D02*
X87940000Y-88071000D01*
X88790000Y-88071000D02*
X88810000Y-88071000D01*
X89660000Y-88071000D02*
X115551771Y-88071000D01*
X84252606Y-88220200D02*
X87940000Y-88220200D01*
X88790000Y-88220200D02*
X88810000Y-88220200D01*
X89660000Y-88220200D02*
X115656006Y-88220200D01*
X84161316Y-88369400D02*
X87940000Y-88369400D01*
X88790000Y-88369400D02*
X88810000Y-88369400D01*
X89660000Y-88369400D02*
X115760241Y-88369400D01*
X84070026Y-88518600D02*
X87960243Y-88518600D01*
X88790000Y-88518600D02*
X88810000Y-88518600D01*
X89639756Y-88518600D02*
X115864476Y-88518600D01*
X83978737Y-88667800D02*
X88154316Y-88667800D01*
X88729700Y-88667800D02*
X88870300Y-88667800D01*
X89445683Y-88667800D02*
X115968711Y-88667800D01*
X83887447Y-88817000D02*
X116072946Y-88817000D01*
X83796157Y-88966200D02*
X116177181Y-88966200D01*
X83704868Y-89115400D02*
X116281416Y-89115400D01*
X83613578Y-89264600D02*
X116385651Y-89264600D01*
X83522288Y-89413800D02*
X116489886Y-89413800D01*
X83430999Y-89563000D02*
X116594121Y-89563000D01*
X83339709Y-89712200D02*
X116698356Y-89712200D01*
X83248419Y-89861400D02*
X116802591Y-89861400D01*
X83157130Y-90010600D02*
X116906826Y-90010600D01*
X83065840Y-90159800D02*
X117011061Y-90159800D01*
X82974550Y-90309000D02*
X117115296Y-90309000D01*
X82883261Y-90458200D02*
X90409857Y-90458200D01*
X108839652Y-90458200D02*
X117194100Y-90458200D01*
X82791971Y-90607400D02*
X88010319Y-90607400D01*
X89590909Y-90607400D02*
X90400000Y-90607400D01*
X108850000Y-90607400D02*
X117259716Y-90607400D01*
X82700681Y-90756600D02*
X87942117Y-90756600D01*
X89659343Y-90756600D02*
X90400000Y-90756600D01*
X108850000Y-90756600D02*
X117325332Y-90756600D01*
X82609392Y-90905800D02*
X87938791Y-90905800D01*
X89661209Y-90905800D02*
X90400000Y-90905800D01*
X108850000Y-90905800D02*
X117390948Y-90905800D01*
X82518102Y-91055000D02*
X87938791Y-91055000D01*
X89661209Y-91055000D02*
X90400000Y-91055000D01*
X108850000Y-91055000D02*
X117456564Y-91055000D01*
X82426812Y-91204200D02*
X87938791Y-91204200D01*
X89661209Y-91204200D02*
X90400000Y-91204200D01*
X108850000Y-91204200D02*
X117522180Y-91204200D01*
X82335522Y-91353400D02*
X87938791Y-91353400D01*
X89661209Y-91353400D02*
X90400000Y-91353400D01*
X108850000Y-91353400D02*
X117587796Y-91353400D01*
X82264703Y-91502600D02*
X87938791Y-91502600D01*
X89661209Y-91502600D02*
X90400000Y-91502600D01*
X108850000Y-91502600D02*
X117653411Y-91502600D01*
X82209628Y-91651800D02*
X87938791Y-91651800D01*
X89661209Y-91651800D02*
X90400000Y-91651800D01*
X108383337Y-91651800D02*
X108400000Y-91651800D01*
X108850000Y-91651800D02*
X117719027Y-91651800D01*
X82154553Y-91801000D02*
X87965291Y-91801000D01*
X89646330Y-91801000D02*
X90400000Y-91801000D01*
X92151209Y-91801000D02*
X92174248Y-91801000D01*
X93325799Y-91801000D02*
X93424248Y-91801000D01*
X94575799Y-91801000D02*
X94674248Y-91801000D01*
X95825799Y-91801000D02*
X95924248Y-91801000D01*
X97075799Y-91801000D02*
X97174248Y-91801000D01*
X98325799Y-91801000D02*
X98424248Y-91801000D01*
X99575799Y-91801000D02*
X99674248Y-91801000D01*
X100825799Y-91801000D02*
X100924248Y-91801000D01*
X102075799Y-91801000D02*
X102174248Y-91801000D01*
X103325799Y-91801000D02*
X103424248Y-91801000D01*
X104575799Y-91801000D02*
X104674248Y-91801000D01*
X105825799Y-91801000D02*
X105924248Y-91801000D01*
X107075799Y-91801000D02*
X107174248Y-91801000D01*
X108325799Y-91801000D02*
X108400000Y-91801000D01*
X108850000Y-91801000D02*
X117784643Y-91801000D01*
X82099478Y-91950200D02*
X84585775Y-91950200D01*
X85415902Y-91950200D02*
X88734870Y-91950200D01*
X89795530Y-91950200D02*
X90400000Y-91950200D01*
X90850000Y-91950200D02*
X90855183Y-91950200D01*
X92144074Y-91950200D02*
X92278764Y-91950200D01*
X93220274Y-91950200D02*
X93528764Y-91950200D01*
X94470274Y-91950200D02*
X94778764Y-91950200D01*
X95720274Y-91950200D02*
X96028764Y-91950200D01*
X96970274Y-91950200D02*
X97278764Y-91950200D01*
X98220274Y-91950200D02*
X98528764Y-91950200D01*
X99470274Y-91950200D02*
X99778764Y-91950200D01*
X100720274Y-91950200D02*
X101028764Y-91950200D01*
X101970274Y-91950200D02*
X102278764Y-91950200D01*
X103220274Y-91950200D02*
X103528764Y-91950200D01*
X104470274Y-91950200D02*
X104778764Y-91950200D01*
X105720274Y-91950200D02*
X106028764Y-91950200D01*
X106970274Y-91950200D02*
X107278764Y-91950200D01*
X108220274Y-91950200D02*
X108400000Y-91950200D01*
X108850000Y-91950200D02*
X114585775Y-91950200D01*
X115415902Y-91950200D02*
X117850259Y-91950200D01*
X82044403Y-92099400D02*
X84393285Y-92099400D01*
X85606503Y-92099400D02*
X88884070Y-92099400D01*
X89944730Y-92099400D02*
X90400000Y-92099400D01*
X90850000Y-92099400D02*
X90950536Y-92099400D01*
X92049407Y-92099400D02*
X92496977Y-92099400D01*
X93003765Y-92099400D02*
X93746977Y-92099400D01*
X94253765Y-92099400D02*
X94996977Y-92099400D01*
X95503765Y-92099400D02*
X96246977Y-92099400D01*
X96753765Y-92099400D02*
X97496977Y-92099400D01*
X98003765Y-92099400D02*
X98746977Y-92099400D01*
X99253765Y-92099400D02*
X99996977Y-92099400D01*
X100503765Y-92099400D02*
X101246977Y-92099400D01*
X101753765Y-92099400D02*
X102496977Y-92099400D01*
X103003765Y-92099400D02*
X103746977Y-92099400D01*
X104253765Y-92099400D02*
X104996977Y-92099400D01*
X105503765Y-92099400D02*
X106246977Y-92099400D01*
X106753765Y-92099400D02*
X107496977Y-92099400D01*
X108003765Y-92099400D02*
X108400000Y-92099400D01*
X108850000Y-92099400D02*
X114393285Y-92099400D01*
X115606503Y-92099400D02*
X117915875Y-92099400D01*
X81989328Y-92248600D02*
X84275451Y-92248600D01*
X85723962Y-92248600D02*
X89033270Y-92248600D01*
X90093930Y-92248600D02*
X90400000Y-92248600D01*
X90850000Y-92248600D02*
X108400000Y-92248600D01*
X108850000Y-92248600D02*
X114275451Y-92248600D01*
X115723962Y-92248600D02*
X117981491Y-92248600D01*
X81934253Y-92397800D02*
X84202558Y-92397800D01*
X85796913Y-92397800D02*
X89182470Y-92397800D01*
X90243130Y-92397800D02*
X90400000Y-92397800D01*
X90850000Y-92397800D02*
X108400000Y-92397800D01*
X108850000Y-92397800D02*
X114202558Y-92397800D01*
X115796913Y-92397800D02*
X118047107Y-92397800D01*
X81879179Y-92547000D02*
X84162432Y-92547000D01*
X85837236Y-92547000D02*
X89331670Y-92547000D01*
X90392330Y-92547000D02*
X90400000Y-92547000D01*
X90850000Y-92547000D02*
X108400000Y-92547000D01*
X108850000Y-92547000D02*
X114162432Y-92547000D01*
X115837236Y-92547000D02*
X118112723Y-92547000D01*
X81824104Y-92696200D02*
X84149864Y-92696200D01*
X85848856Y-92696200D02*
X89480870Y-92696200D01*
X90850000Y-92696200D02*
X108400000Y-92696200D01*
X108850000Y-92696200D02*
X114149864Y-92696200D01*
X115848856Y-92696200D02*
X118178338Y-92696200D01*
X81769029Y-92845400D02*
X84163368Y-92845400D01*
X85837528Y-92845400D02*
X89630070Y-92845400D01*
X90850000Y-92845400D02*
X108400000Y-92845400D01*
X108850000Y-92845400D02*
X114163368Y-92845400D01*
X115837528Y-92845400D02*
X118243954Y-92845400D01*
X81713954Y-92994600D02*
X84204382Y-92994600D01*
X85797090Y-92994600D02*
X89779270Y-92994600D01*
X90850000Y-92994600D02*
X108400000Y-92994600D01*
X108850000Y-92994600D02*
X114204382Y-92994600D01*
X115797090Y-92994600D02*
X118309570Y-92994600D01*
X81658879Y-93143800D02*
X84277965Y-93143800D01*
X85723658Y-93143800D02*
X89928470Y-93143800D01*
X90989130Y-93143800D02*
X108400000Y-93143800D01*
X108850000Y-93143800D02*
X114277965Y-93143800D01*
X115723658Y-93143800D02*
X118375186Y-93143800D01*
X81603804Y-93293000D02*
X84395791Y-93293000D01*
X85604654Y-93293000D02*
X90077670Y-93293000D01*
X91096977Y-93293000D02*
X108400000Y-93293000D01*
X108850000Y-93293000D02*
X114395791Y-93293000D01*
X115604654Y-93293000D02*
X118440802Y-93293000D01*
X81548729Y-93442200D02*
X84587034Y-93442200D01*
X85409002Y-93442200D02*
X90226870Y-93442200D01*
X91125000Y-93442200D02*
X108400000Y-93442200D01*
X108850000Y-93442200D02*
X114587034Y-93442200D01*
X115409002Y-93442200D02*
X118506418Y-93442200D01*
X81493654Y-93591400D02*
X90375000Y-93591400D01*
X91125000Y-93591400D02*
X108400000Y-93591400D01*
X108850000Y-93591400D02*
X118572034Y-93591400D01*
X81438579Y-93740600D02*
X82345846Y-93740600D01*
X83625000Y-93740600D02*
X83645000Y-93740600D01*
X84924154Y-93740600D02*
X85075846Y-93740600D01*
X86355000Y-93740600D02*
X86375000Y-93740600D01*
X87654154Y-93740600D02*
X90375000Y-93740600D01*
X91125000Y-93740600D02*
X108400000Y-93740600D01*
X108850000Y-93740600D02*
X112345846Y-93740600D01*
X113625000Y-93740600D02*
X113645000Y-93740600D01*
X114924154Y-93740600D02*
X115075846Y-93740600D01*
X116355000Y-93740600D02*
X116375000Y-93740600D01*
X117654154Y-93740600D02*
X118637650Y-93740600D01*
X81383504Y-93889800D02*
X82275115Y-93889800D01*
X83625000Y-93889800D02*
X83645000Y-93889800D01*
X84994886Y-93889800D02*
X85005115Y-93889800D01*
X86355000Y-93889800D02*
X86375000Y-93889800D01*
X87724886Y-93889800D02*
X90375000Y-93889800D01*
X91125000Y-93889800D02*
X108400000Y-93889800D01*
X108850000Y-93889800D02*
X112275115Y-93889800D01*
X113625000Y-93889800D02*
X113645000Y-93889800D01*
X114994886Y-93889800D02*
X115005115Y-93889800D01*
X116355000Y-93889800D02*
X116375000Y-93889800D01*
X117724886Y-93889800D02*
X118700013Y-93889800D01*
X81328430Y-94039000D02*
X82275000Y-94039000D01*
X83625000Y-94039000D02*
X83645000Y-94039000D01*
X84995000Y-94039000D02*
X85005000Y-94039000D01*
X86355000Y-94039000D02*
X86375000Y-94039000D01*
X87725000Y-94039000D02*
X90375000Y-94039000D01*
X91125000Y-94039000D02*
X108400000Y-94039000D01*
X108850000Y-94039000D02*
X112275000Y-94039000D01*
X113625000Y-94039000D02*
X113645000Y-94039000D01*
X114995000Y-94039000D02*
X115005000Y-94039000D01*
X116355000Y-94039000D02*
X116375000Y-94039000D01*
X117725000Y-94039000D02*
X118733196Y-94039000D01*
X81273355Y-94188200D02*
X82275000Y-94188200D01*
X83625000Y-94188200D02*
X83645000Y-94188200D01*
X84995000Y-94188200D02*
X85005000Y-94188200D01*
X86355000Y-94188200D02*
X86375000Y-94188200D01*
X87725000Y-94188200D02*
X90375000Y-94188200D01*
X91125000Y-94188200D02*
X108400000Y-94188200D01*
X108850000Y-94188200D02*
X112275000Y-94188200D01*
X113625000Y-94188200D02*
X113645000Y-94188200D01*
X114995000Y-94188200D02*
X115005000Y-94188200D01*
X116355000Y-94188200D02*
X116375000Y-94188200D01*
X117725000Y-94188200D02*
X118766380Y-94188200D01*
X81218280Y-94337400D02*
X82295100Y-94337400D01*
X83625000Y-94337400D02*
X83645000Y-94337400D01*
X84974900Y-94337400D02*
X85025100Y-94337400D01*
X86355000Y-94337400D02*
X86375000Y-94337400D01*
X87704900Y-94337400D02*
X90375000Y-94337400D01*
X91125000Y-94337400D02*
X108400000Y-94337400D01*
X108850000Y-94337400D02*
X112295100Y-94337400D01*
X113625000Y-94337400D02*
X113645000Y-94337400D01*
X114974900Y-94337400D02*
X115025100Y-94337400D01*
X116355000Y-94337400D02*
X116375000Y-94337400D01*
X117704900Y-94337400D02*
X118799564Y-94337400D01*
X81163205Y-94486600D02*
X82275000Y-94486600D01*
X83625000Y-94486600D02*
X83645000Y-94486600D01*
X84995000Y-94486600D02*
X85005000Y-94486600D01*
X86355000Y-94486600D02*
X86375000Y-94486600D01*
X87725000Y-94486600D02*
X90375000Y-94486600D01*
X91125000Y-94486600D02*
X108400000Y-94486600D01*
X108850000Y-94486600D02*
X112275000Y-94486600D01*
X113625000Y-94486600D02*
X113645000Y-94486600D01*
X114995000Y-94486600D02*
X115005000Y-94486600D01*
X116355000Y-94486600D02*
X116375000Y-94486600D01*
X117725000Y-94486600D02*
X118832748Y-94486600D01*
X81108130Y-94635800D02*
X82275000Y-94635800D01*
X83625000Y-94635800D02*
X83645000Y-94635800D01*
X84995000Y-94635800D02*
X85005000Y-94635800D01*
X86355000Y-94635800D02*
X86375000Y-94635800D01*
X87725000Y-94635800D02*
X90375000Y-94635800D01*
X91125000Y-94635800D02*
X108400000Y-94635800D01*
X108850000Y-94635800D02*
X112275000Y-94635800D01*
X113625000Y-94635800D02*
X113645000Y-94635800D01*
X114995000Y-94635800D02*
X115005000Y-94635800D01*
X116355000Y-94635800D02*
X116375000Y-94635800D01*
X117725000Y-94635800D02*
X118865932Y-94635800D01*
X81053056Y-94785000D02*
X82311190Y-94785000D01*
X83625000Y-94785000D02*
X83645000Y-94785000D01*
X84958809Y-94785000D02*
X85041190Y-94785000D01*
X86355000Y-94785000D02*
X86375000Y-94785000D01*
X87688809Y-94785000D02*
X90375000Y-94785000D01*
X91125000Y-94785000D02*
X108400000Y-94785000D01*
X108850000Y-94785000D02*
X112311190Y-94785000D01*
X113625000Y-94785000D02*
X113645000Y-94785000D01*
X114958809Y-94785000D02*
X115041190Y-94785000D01*
X116355000Y-94785000D02*
X116375000Y-94785000D01*
X117688809Y-94785000D02*
X118899116Y-94785000D01*
X80997981Y-94934200D02*
X81646307Y-94934200D01*
X82045598Y-94934200D02*
X82519872Y-94934200D01*
X84747878Y-94934200D02*
X85249872Y-94934200D01*
X87477878Y-94934200D02*
X87946307Y-94934200D01*
X88345598Y-94934200D02*
X90375000Y-94934200D01*
X91125000Y-94934200D02*
X108400000Y-94934200D01*
X108850000Y-94934200D02*
X111646307Y-94934200D01*
X112045598Y-94934200D02*
X112519872Y-94934200D01*
X114747878Y-94934200D02*
X115249872Y-94934200D01*
X117477878Y-94934200D02*
X117946307Y-94934200D01*
X118345598Y-94934200D02*
X118932299Y-94934200D01*
X80956102Y-95083400D02*
X81397524Y-95083400D01*
X84973900Y-95083400D02*
X85027988Y-95083400D01*
X88592767Y-95083400D02*
X90375000Y-95083400D01*
X91125000Y-95083400D02*
X108400000Y-95083400D01*
X108850000Y-95083400D02*
X111397524Y-95083400D01*
X118592767Y-95083400D02*
X118965483Y-95083400D01*
X80932308Y-95232600D02*
X81277949Y-95232600D01*
X84996209Y-95232600D02*
X85003791Y-95232600D01*
X88711218Y-95232600D02*
X90375000Y-95232600D01*
X91125000Y-95232600D02*
X108400000Y-95232600D01*
X108850000Y-95232600D02*
X111277949Y-95232600D01*
X118711218Y-95232600D02*
X118998667Y-95232600D01*
X80908515Y-95381800D02*
X81217265Y-95381800D01*
X84996209Y-95381800D02*
X85003791Y-95381800D01*
X88773354Y-95381800D02*
X90375000Y-95381800D01*
X91125000Y-95381800D02*
X108400000Y-95381800D01*
X108850000Y-95381800D02*
X111217265Y-95381800D01*
X118773354Y-95381800D02*
X119031851Y-95381800D01*
X80884721Y-95531000D02*
X81195244Y-95531000D01*
X84996209Y-95531000D02*
X85003791Y-95531000D01*
X88794473Y-95531000D02*
X90375000Y-95531000D01*
X91125000Y-95531000D02*
X108400000Y-95531000D01*
X108850000Y-95531000D02*
X111195244Y-95531000D01*
X118794473Y-95531000D02*
X119065035Y-95531000D01*
X80860928Y-95680200D02*
X81207093Y-95680200D01*
X84996209Y-95680200D02*
X85003791Y-95680200D01*
X88783148Y-95680200D02*
X90375000Y-95680200D01*
X91125000Y-95680200D02*
X108400000Y-95680200D01*
X108850000Y-95680200D02*
X111207093Y-95680200D01*
X118783148Y-95680200D02*
X119098219Y-95680200D01*
X80837135Y-95829400D02*
X81254520Y-95829400D01*
X84996209Y-95829400D02*
X85003791Y-95829400D01*
X88734373Y-95829400D02*
X90375000Y-95829400D01*
X91125000Y-95829400D02*
X108400000Y-95829400D01*
X108850000Y-95829400D02*
X111254520Y-95829400D01*
X118734373Y-95829400D02*
X119131402Y-95829400D01*
X80813341Y-95978600D02*
X81350420Y-95978600D01*
X84988591Y-95978600D02*
X85011236Y-95978600D01*
X88641669Y-95978600D02*
X90375000Y-95978600D01*
X91125000Y-95978600D02*
X108400000Y-95978600D01*
X108850000Y-95978600D02*
X111350420Y-95978600D01*
X118641669Y-95978600D02*
X119164586Y-95978600D01*
X80789548Y-96127800D02*
X81532434Y-96127800D01*
X84889247Y-96127800D02*
X85109525Y-96127800D01*
X88455541Y-96127800D02*
X90375000Y-96127800D01*
X91125000Y-96127800D02*
X108400000Y-96127800D01*
X108850000Y-96127800D02*
X111532434Y-96127800D01*
X118455541Y-96127800D02*
X119197770Y-96127800D01*
X80765754Y-96277000D02*
X81475304Y-96277000D01*
X84919573Y-96277000D02*
X85079921Y-96277000D01*
X88474997Y-96277000D02*
X90375000Y-96277000D01*
X91125000Y-96277000D02*
X108400000Y-96277000D01*
X108850000Y-96277000D02*
X111525304Y-96277000D01*
X118474997Y-96277000D02*
X119230954Y-96277000D01*
X80741961Y-96426200D02*
X81310260Y-96426200D01*
X84993913Y-96426200D02*
X85007884Y-96426200D01*
X88640458Y-96426200D02*
X90375000Y-96426200D01*
X91125000Y-96426200D02*
X108400000Y-96426200D01*
X108850000Y-96426200D02*
X111360260Y-96426200D01*
X118640458Y-96426200D02*
X119264138Y-96426200D01*
X80718168Y-96575400D02*
X81224763Y-96575400D01*
X84996209Y-96575400D02*
X85003791Y-96575400D01*
X88725201Y-96575400D02*
X90375000Y-96575400D01*
X91125000Y-96575400D02*
X108400000Y-96575400D01*
X108850000Y-96575400D02*
X111274763Y-96575400D01*
X118725201Y-96575400D02*
X119297322Y-96575400D01*
X80694374Y-96724600D02*
X81181791Y-96724600D01*
X84996209Y-96724600D02*
X85003791Y-96724600D01*
X88767769Y-96724600D02*
X90375000Y-96724600D01*
X91125000Y-96724600D02*
X108400000Y-96724600D01*
X108850000Y-96724600D02*
X111231791Y-96724600D01*
X118767769Y-96724600D02*
X119330505Y-96724600D01*
X80670581Y-96873800D02*
X81174228Y-96873800D01*
X84996209Y-96873800D02*
X85003791Y-96873800D01*
X88773456Y-96873800D02*
X90375000Y-96873800D01*
X91125000Y-96873800D02*
X108400000Y-96873800D01*
X108850000Y-96873800D02*
X111224228Y-96873800D01*
X118773456Y-96873800D02*
X119363689Y-96873800D01*
X80646787Y-97023000D02*
X81204271Y-97023000D01*
X84996209Y-97023000D02*
X85003791Y-97023000D01*
X88746609Y-97023000D02*
X90375000Y-97023000D01*
X91125000Y-97023000D02*
X108400000Y-97023000D01*
X108850000Y-97023000D02*
X111254271Y-97023000D01*
X118746609Y-97023000D02*
X119396873Y-97023000D01*
X80622994Y-97172200D02*
X81275434Y-97172200D01*
X84996209Y-97172200D02*
X85003791Y-97172200D01*
X88675563Y-97172200D02*
X90375000Y-97172200D01*
X91125000Y-97172200D02*
X108400000Y-97172200D01*
X108850000Y-97172200D02*
X111325434Y-97172200D01*
X118675563Y-97172200D02*
X119430057Y-97172200D01*
X80599201Y-97321400D02*
X81400723Y-97321400D01*
X84960833Y-97321400D02*
X85040439Y-97321400D01*
X88546317Y-97321400D02*
X90375000Y-97321400D01*
X91125000Y-97321400D02*
X108400000Y-97321400D01*
X108850000Y-97321400D02*
X111450723Y-97321400D01*
X118546317Y-97321400D02*
X119463241Y-97321400D01*
X80575407Y-97470600D02*
X81715217Y-97470600D01*
X82095875Y-97470600D02*
X88005217Y-97470600D01*
X88385875Y-97470600D02*
X90375000Y-97470600D01*
X91125000Y-97470600D02*
X108400000Y-97470600D01*
X108850000Y-97470600D02*
X111615217Y-97470600D01*
X118385875Y-97470600D02*
X119496425Y-97470600D01*
X80551614Y-97619800D02*
X81461201Y-97619800D01*
X84972785Y-97619800D02*
X85029611Y-97619800D01*
X88639192Y-97619800D02*
X90375000Y-97619800D01*
X91125000Y-97619800D02*
X108400000Y-97619800D01*
X108850000Y-97619800D02*
X111361201Y-97619800D01*
X118639192Y-97619800D02*
X119529608Y-97619800D01*
X80527821Y-97769000D02*
X81340414Y-97769000D01*
X84996209Y-97769000D02*
X85003791Y-97769000D01*
X88758826Y-97769000D02*
X90375000Y-97769000D01*
X91125000Y-97769000D02*
X108400000Y-97769000D01*
X108850000Y-97769000D02*
X111240414Y-97769000D01*
X118758826Y-97769000D02*
X119533739Y-97769000D01*
X80504027Y-97918200D02*
X81278030Y-97918200D01*
X84996209Y-97918200D02*
X85003791Y-97918200D01*
X88822641Y-97918200D02*
X90375000Y-97918200D01*
X91125000Y-97918200D02*
X108400000Y-97918200D01*
X108850000Y-97918200D02*
X111178030Y-97918200D01*
X118822641Y-97918200D02*
X119537227Y-97918200D01*
X80480234Y-98067400D02*
X81255295Y-98067400D01*
X84996209Y-98067400D02*
X85003791Y-98067400D01*
X88844523Y-98067400D02*
X90375000Y-98067400D01*
X91125000Y-98067400D02*
X108400000Y-98067400D01*
X108850000Y-98067400D02*
X111155295Y-98067400D01*
X118844523Y-98067400D02*
X119540714Y-98067400D01*
X80456440Y-98216600D02*
X81266432Y-98216600D01*
X84996209Y-98216600D02*
X85003791Y-98216600D01*
X88833966Y-98216600D02*
X90375000Y-98216600D01*
X91125000Y-98216600D02*
X108400000Y-98216600D01*
X108850000Y-98216600D02*
X111166432Y-98216600D01*
X118833966Y-98216600D02*
X119544202Y-98216600D01*
X80432647Y-98365800D02*
X81313094Y-98365800D01*
X84996209Y-98365800D02*
X85003791Y-98365800D01*
X88785976Y-98365800D02*
X90375000Y-98365800D01*
X91125000Y-98365800D02*
X108400000Y-98365800D01*
X108850000Y-98365800D02*
X111213094Y-98365800D01*
X118785976Y-98365800D02*
X119547690Y-98365800D01*
X80408854Y-98515000D02*
X81406944Y-98515000D01*
X84989103Y-98515000D02*
X85010121Y-98515000D01*
X88694209Y-98515000D02*
X90375000Y-98515000D01*
X91125000Y-98515000D02*
X108400000Y-98515000D01*
X108850000Y-98515000D02*
X111306944Y-98515000D01*
X118694209Y-98515000D02*
X119551178Y-98515000D01*
X80385060Y-98664200D02*
X81584997Y-98664200D01*
X84894711Y-98664200D02*
X85105301Y-98664200D01*
X88511214Y-98664200D02*
X90375000Y-98664200D01*
X91125000Y-98664200D02*
X108400000Y-98664200D01*
X108850000Y-98664200D02*
X111484997Y-98664200D01*
X118511214Y-98664200D02*
X119554666Y-98664200D01*
X80361480Y-98813400D02*
X81490806Y-98813400D01*
X84915349Y-98813400D02*
X85082990Y-98813400D01*
X88442466Y-98813400D02*
X90375000Y-98813400D01*
X91125000Y-98813400D02*
X108400000Y-98813400D01*
X108850000Y-98813400D02*
X111490806Y-98813400D01*
X118509659Y-98813400D02*
X119558154Y-98813400D01*
X80367053Y-98962600D02*
X81322725Y-98962600D01*
X84993626Y-98962600D02*
X85008396Y-98962600D01*
X88633213Y-98962600D02*
X90375000Y-98962600D01*
X91125000Y-98962600D02*
X108400000Y-98962600D01*
X108850000Y-98962600D02*
X111322725Y-98962600D01*
X118678066Y-98962600D02*
X119561641Y-98962600D01*
X80372626Y-99111800D02*
X81236306Y-99111800D01*
X84996209Y-99111800D02*
X85003791Y-99111800D01*
X88728905Y-99111800D02*
X90375000Y-99111800D01*
X91125000Y-99111800D02*
X108400000Y-99111800D01*
X108850000Y-99111800D02*
X111236306Y-99111800D01*
X118763717Y-99111800D02*
X119565129Y-99111800D01*
X80378199Y-99261000D02*
X81192556Y-99261000D01*
X84996209Y-99261000D02*
X85003791Y-99261000D01*
X88775127Y-99261000D02*
X90375000Y-99261000D01*
X91125000Y-99261000D02*
X108400000Y-99261000D01*
X108850000Y-99261000D02*
X111192556Y-99261000D01*
X118807056Y-99261000D02*
X119568617Y-99261000D01*
X80383772Y-99410200D02*
X81184278Y-99410200D01*
X84996209Y-99410200D02*
X85003791Y-99410200D01*
X88780689Y-99410200D02*
X90375000Y-99410200D01*
X91125000Y-99410200D02*
X108400000Y-99410200D01*
X108850000Y-99410200D02*
X111184278Y-99410200D01*
X118813506Y-99410200D02*
X119572105Y-99410200D01*
X80389345Y-99559400D02*
X81212846Y-99559400D01*
X84996209Y-99559400D02*
X85003791Y-99559400D01*
X89310386Y-99559400D02*
X90375000Y-99559400D01*
X91125000Y-99559400D02*
X108400000Y-99559400D01*
X108850000Y-99559400D02*
X111212846Y-99559400D01*
X118787426Y-99559400D02*
X119575593Y-99559400D01*
X80394918Y-99708600D02*
X81283114Y-99708600D01*
X89446750Y-99708600D02*
X90375000Y-99708600D01*
X91125000Y-99708600D02*
X108400000Y-99708600D01*
X108850000Y-99708600D02*
X111283114Y-99708600D01*
X118718103Y-99708600D02*
X119579080Y-99708600D01*
X80400491Y-99857800D02*
X81407246Y-99857800D01*
X89512546Y-99857800D02*
X90375000Y-99857800D01*
X91125000Y-99857800D02*
X108400000Y-99857800D01*
X108850000Y-99857800D02*
X111407246Y-99857800D01*
X118590097Y-99857800D02*
X119582568Y-99857800D01*
X80406064Y-100007000D02*
X81688082Y-100007000D01*
X89538544Y-100007000D02*
X90375000Y-100007000D01*
X91125000Y-100007000D02*
X108400000Y-100007000D01*
X108850000Y-100007000D02*
X111688082Y-100007000D01*
X118338339Y-100007000D02*
X119586056Y-100007000D01*
X80411637Y-100156200D02*
X81424877Y-100156200D01*
X89687744Y-100156200D02*
X90375000Y-100156200D01*
X91125000Y-100156200D02*
X108400000Y-100156200D01*
X108850000Y-100156200D02*
X111424877Y-100156200D01*
X118605617Y-100156200D02*
X119589544Y-100156200D01*
X80417210Y-100305400D02*
X81302878Y-100305400D01*
X89825490Y-100305400D02*
X90375000Y-100305400D01*
X91125000Y-100305400D02*
X108400000Y-100305400D01*
X108850000Y-100305400D02*
X111302878Y-100305400D01*
X118726434Y-100305400D02*
X119593032Y-100305400D01*
X80422783Y-100454600D02*
X81238796Y-100454600D01*
X89883899Y-100454600D02*
X90375000Y-100454600D01*
X91125000Y-100454600D02*
X108400000Y-100454600D01*
X108850000Y-100454600D02*
X111238796Y-100454600D01*
X118791928Y-100454600D02*
X119596519Y-100454600D01*
X80428356Y-100603800D02*
X81215345Y-100603800D01*
X84996209Y-100603800D02*
X85003791Y-100603800D01*
X88781752Y-100603800D02*
X89032256Y-100603800D01*
X89890000Y-100603800D02*
X90375000Y-100603800D01*
X91125000Y-100603800D02*
X108400000Y-100603800D01*
X108850000Y-100603800D02*
X111215345Y-100603800D01*
X118814573Y-100603800D02*
X119600007Y-100603800D01*
X80433929Y-100753000D02*
X81225772Y-100753000D01*
X84996209Y-100753000D02*
X85003791Y-100753000D01*
X88773037Y-100753000D02*
X89110000Y-100753000D01*
X89890000Y-100753000D02*
X90375000Y-100753000D01*
X91125000Y-100753000D02*
X108400000Y-100753000D01*
X108850000Y-100753000D02*
X111225772Y-100753000D01*
X118804784Y-100753000D02*
X119603495Y-100753000D01*
X80439503Y-100902200D02*
X81271669Y-100902200D01*
X84996209Y-100902200D02*
X85003791Y-100902200D01*
X88721988Y-100902200D02*
X89110000Y-100902200D01*
X89890000Y-100902200D02*
X90375000Y-100902200D01*
X91125000Y-100902200D02*
X108400000Y-100902200D01*
X108850000Y-100902200D02*
X111271669Y-100902200D01*
X118757579Y-100902200D02*
X119606983Y-100902200D01*
X80445076Y-101051400D02*
X81363467Y-101051400D01*
X84989614Y-101051400D02*
X85009006Y-101051400D01*
X88621342Y-101051400D02*
X89110000Y-101051400D01*
X89890000Y-101051400D02*
X90375000Y-101051400D01*
X91125000Y-101051400D02*
X108400000Y-101051400D01*
X108850000Y-101051400D02*
X111363467Y-101051400D01*
X118666748Y-101051400D02*
X119610471Y-101051400D01*
X80450649Y-101200600D02*
X81539817Y-101200600D01*
X84900174Y-101200600D02*
X85101077Y-101200600D01*
X88415593Y-101200600D02*
X89110000Y-101200600D01*
X89890000Y-101200600D02*
X90375000Y-101200600D01*
X91125000Y-101200600D02*
X108400000Y-101200600D01*
X108850000Y-101200600D02*
X111539817Y-101200600D01*
X118486887Y-101200600D02*
X119613959Y-101200600D01*
X80456222Y-101349800D02*
X81466307Y-101349800D01*
X84911126Y-101349800D02*
X85086058Y-101349800D01*
X88444322Y-101349800D02*
X89110000Y-101349800D01*
X89890000Y-101349800D02*
X90375000Y-101349800D01*
X91125000Y-101349800D02*
X108400000Y-101349800D01*
X108850000Y-101349800D02*
X111466307Y-101349800D01*
X118534322Y-101349800D02*
X119617446Y-101349800D01*
X80461795Y-101499000D02*
X81295190Y-101499000D01*
X84993338Y-101499000D02*
X85008908Y-101499000D01*
X88615674Y-101499000D02*
X89110000Y-101499000D01*
X89890000Y-101499000D02*
X90375000Y-101499000D01*
X91125000Y-101499000D02*
X108400000Y-101499000D01*
X108850000Y-101499000D02*
X111295190Y-101499000D01*
X118705674Y-101499000D02*
X119613590Y-101499000D01*
X80467368Y-101648200D02*
X81207849Y-101648200D01*
X84996209Y-101648200D02*
X85003791Y-101648200D01*
X88702233Y-101648200D02*
X89110000Y-101648200D01*
X89890000Y-101648200D02*
X90375000Y-101648200D01*
X91125000Y-101648200D02*
X108400000Y-101648200D01*
X108850000Y-101648200D02*
X111207849Y-101648200D01*
X118792233Y-101648200D02*
X119587656Y-101648200D01*
X80472941Y-101797400D02*
X81163321Y-101797400D01*
X84996209Y-101797400D02*
X85003791Y-101797400D01*
X88746343Y-101797400D02*
X89110000Y-101797400D01*
X89890000Y-101797400D02*
X90375000Y-101797400D01*
X91125000Y-101797400D02*
X108400000Y-101797400D01*
X108850000Y-101797400D02*
X111163321Y-101797400D01*
X118836343Y-101797400D02*
X119561721Y-101797400D01*
X80478514Y-101946600D02*
X81154329Y-101946600D01*
X84996209Y-101946600D02*
X85003791Y-101946600D01*
X88753557Y-101946600D02*
X89110000Y-101946600D01*
X89890000Y-101946600D02*
X90375000Y-101946600D01*
X91125000Y-101946600D02*
X101788375Y-101946600D01*
X102411409Y-101946600D02*
X108400000Y-101946600D01*
X108850000Y-101946600D02*
X111154329Y-101946600D01*
X118843557Y-101946600D02*
X119535787Y-101946600D01*
X80484087Y-102095800D02*
X81181420Y-102095800D01*
X84996209Y-102095800D02*
X85003791Y-102095800D01*
X88728244Y-102095800D02*
X89110000Y-102095800D01*
X89890000Y-102095800D02*
X90375000Y-102095800D01*
X91125000Y-102095800D02*
X101641687Y-102095800D01*
X102558246Y-102095800D02*
X108479260Y-102095800D01*
X108772320Y-102095800D02*
X111181420Y-102095800D01*
X118818244Y-102095800D02*
X119509852Y-102095800D01*
X80489660Y-102245000D02*
X81250794Y-102245000D01*
X84996209Y-102245000D02*
X85003791Y-102245000D01*
X88660642Y-102245000D02*
X89110000Y-102245000D01*
X89890000Y-102245000D02*
X90375000Y-102245000D01*
X91125000Y-102245000D02*
X101570636Y-102245000D01*
X102630011Y-102245000D02*
X111250794Y-102245000D01*
X118750642Y-102245000D02*
X119483918Y-102245000D01*
X80495233Y-102394200D02*
X81373770Y-102394200D01*
X84964078Y-102394200D02*
X85035694Y-102394200D01*
X88533878Y-102394200D02*
X89110000Y-102394200D01*
X89890000Y-102394200D02*
X90375000Y-102394200D01*
X91125000Y-102394200D02*
X101550004Y-102394200D01*
X102649350Y-102394200D02*
X111373770Y-102394200D01*
X118623878Y-102394200D02*
X119457983Y-102394200D01*
X80500806Y-102543400D02*
X81681500Y-102543400D01*
X82030799Y-102543400D02*
X87981500Y-102543400D01*
X88330799Y-102543400D02*
X89110000Y-102543400D01*
X89890000Y-102543400D02*
X90375000Y-102543400D01*
X91125000Y-102543400D02*
X101567108Y-102543400D01*
X102773730Y-102543400D02*
X111666952Y-102543400D01*
X118330802Y-102543400D02*
X119432049Y-102543400D01*
X80515003Y-102692600D02*
X81438553Y-102692600D01*
X84968787Y-102692600D02*
X85032857Y-102692600D01*
X88612042Y-102692600D02*
X89110000Y-102692600D01*
X89890000Y-102692600D02*
X90375000Y-102692600D01*
X91125000Y-102692600D02*
X101634219Y-102692600D01*
X102922930Y-102692600D02*
X111388553Y-102692600D01*
X118612042Y-102692600D02*
X119406114Y-102692600D01*
X80550380Y-102841800D02*
X81315343Y-102841800D01*
X84996209Y-102841800D02*
X85003791Y-102841800D01*
X88734042Y-102841800D02*
X89110000Y-102841800D01*
X89890000Y-102841800D02*
X90375000Y-102841800D01*
X91125000Y-102841800D02*
X101771919Y-102841800D01*
X103072130Y-102841800D02*
X105630715Y-102841800D01*
X106369790Y-102841800D02*
X111265343Y-102841800D01*
X118734042Y-102841800D02*
X119380180Y-102841800D01*
X80585757Y-102991000D02*
X81249561Y-102991000D01*
X84996209Y-102991000D02*
X85003791Y-102991000D01*
X88801215Y-102991000D02*
X89110000Y-102991000D01*
X89890000Y-102991000D02*
X90375000Y-102991000D01*
X91125000Y-102991000D02*
X102160670Y-102991000D01*
X106488161Y-102991000D02*
X111199561Y-102991000D01*
X118801215Y-102991000D02*
X119354245Y-102991000D01*
X80621134Y-103140200D02*
X81225395Y-103140200D01*
X84996209Y-103140200D02*
X85003791Y-103140200D01*
X88824623Y-103140200D02*
X89110000Y-103140200D01*
X89890000Y-103140200D02*
X90375000Y-103140200D01*
X91125000Y-103140200D02*
X102309870Y-103140200D01*
X106538961Y-103140200D02*
X111175395Y-103140200D01*
X118824623Y-103140200D02*
X119328311Y-103140200D01*
X80656511Y-103289400D02*
X81235111Y-103289400D01*
X84996209Y-103289400D02*
X85003791Y-103289400D01*
X88815602Y-103289400D02*
X89110000Y-103289400D01*
X89890000Y-103289400D02*
X90375000Y-103289400D01*
X91125000Y-103289400D02*
X102459070Y-103289400D01*
X106548719Y-103289400D02*
X111185111Y-103289400D01*
X118815602Y-103289400D02*
X119302376Y-103289400D01*
X80691888Y-103438600D02*
X81280244Y-103438600D01*
X84996209Y-103438600D02*
X85003791Y-103438600D01*
X88769181Y-103438600D02*
X89110000Y-103438600D01*
X89890000Y-103438600D02*
X90375000Y-103438600D01*
X91125000Y-103438600D02*
X102608270Y-103438600D01*
X106518105Y-103438600D02*
X111230244Y-103438600D01*
X118769181Y-103438600D02*
X119276442Y-103438600D01*
X80727265Y-103587800D02*
X81369991Y-103587800D01*
X84990126Y-103587800D02*
X85007891Y-103587800D01*
X88679288Y-103587800D02*
X89110000Y-103587800D01*
X89890000Y-103587800D02*
X90375000Y-103587800D01*
X91125000Y-103587800D02*
X102789763Y-103587800D01*
X106434812Y-103587800D02*
X111319991Y-103587800D01*
X118679288Y-103587800D02*
X119250507Y-103587800D01*
X80762642Y-103737000D02*
X81544637Y-103737000D01*
X84905637Y-103737000D02*
X85096853Y-103737000D01*
X88502559Y-103737000D02*
X89110000Y-103737000D01*
X90038544Y-103737000D02*
X90375000Y-103737000D01*
X91125000Y-103737000D02*
X105740839Y-103737000D01*
X106259104Y-103737000D02*
X111494637Y-103737000D01*
X118502559Y-103737000D02*
X119224573Y-103737000D01*
X80798019Y-103886200D02*
X81511809Y-103886200D01*
X84906902Y-103886200D02*
X85089507Y-103886200D01*
X88488985Y-103886200D02*
X89135382Y-103886200D01*
X90187744Y-103886200D02*
X90375000Y-103886200D01*
X91166530Y-103886200D02*
X111521809Y-103886200D01*
X118488985Y-103886200D02*
X119198638Y-103886200D01*
X80833397Y-104035400D02*
X81337655Y-104035400D01*
X84993051Y-104035400D02*
X85009419Y-104035400D01*
X88663282Y-104035400D02*
X89233856Y-104035400D01*
X90336944Y-104035400D02*
X90378461Y-104035400D01*
X91315730Y-104035400D02*
X111347655Y-104035400D01*
X118663282Y-104035400D02*
X119172704Y-104035400D01*
X80868774Y-104184600D02*
X81249392Y-104184600D01*
X84996209Y-104184600D02*
X85003791Y-104184600D01*
X88750749Y-104184600D02*
X89383056Y-104184600D01*
X91464930Y-104184600D02*
X111259392Y-104184600D01*
X118750749Y-104184600D02*
X119146769Y-104184600D01*
X80904151Y-104333800D02*
X81204087Y-104333800D01*
X84996209Y-104333800D02*
X85003791Y-104333800D01*
X88795630Y-104333800D02*
X89532256Y-104333800D01*
X91614130Y-104333800D02*
X111214087Y-104333800D01*
X118795630Y-104333800D02*
X119120835Y-104333800D01*
X80939528Y-104483000D02*
X81194379Y-104483000D01*
X84996209Y-104483000D02*
X85003791Y-104483000D01*
X88803607Y-104483000D02*
X89681456Y-104483000D01*
X91763330Y-104483000D02*
X96715456Y-104483000D01*
X99654543Y-104483000D02*
X111204379Y-104483000D01*
X118803607Y-104483000D02*
X119094900Y-104483000D01*
X80974905Y-104632200D02*
X81219995Y-104632200D01*
X84996209Y-104632200D02*
X85003791Y-104632200D01*
X88779062Y-104632200D02*
X89830656Y-104632200D01*
X91912530Y-104632200D02*
X96566256Y-104632200D01*
X99803743Y-104632200D02*
X111229995Y-104632200D01*
X118779062Y-104632200D02*
X119068966Y-104632200D01*
X81010282Y-104781400D02*
X81288474Y-104781400D01*
X84996209Y-104781400D02*
X85003791Y-104781400D01*
X88713182Y-104781400D02*
X89979856Y-104781400D01*
X92061730Y-104781400D02*
X96417056Y-104781400D01*
X99952943Y-104781400D02*
X111298474Y-104781400D01*
X118713182Y-104781400D02*
X119043031Y-104781400D01*
X81045659Y-104930600D02*
X81410293Y-104930600D01*
X84965701Y-104930600D02*
X85033322Y-104930600D01*
X88587658Y-104930600D02*
X90129056Y-104930600D01*
X92210930Y-104930600D02*
X96267856Y-104930600D01*
X100102143Y-104930600D02*
X111420293Y-104930600D01*
X118587658Y-104930600D02*
X119017097Y-104930600D01*
X81081036Y-105079800D02*
X81705124Y-105079800D01*
X81988232Y-105079800D02*
X88015124Y-105079800D01*
X88298232Y-105079800D02*
X90278256Y-105079800D01*
X92360130Y-105079800D02*
X96118656Y-105079800D01*
X100251343Y-105079800D02*
X111715124Y-105079800D01*
X111998232Y-105079800D02*
X118015124Y-105079800D01*
X118298232Y-105079800D02*
X118991162Y-105079800D01*
X81116413Y-105229000D02*
X82302451Y-105229000D01*
X83625000Y-105229000D02*
X83645000Y-105229000D01*
X84967550Y-105229000D02*
X85032451Y-105229000D01*
X86355000Y-105229000D02*
X86375000Y-105229000D01*
X87697550Y-105229000D02*
X90427456Y-105229000D01*
X92509330Y-105229000D02*
X93571252Y-105229000D01*
X93929948Y-105229000D02*
X95969456Y-105229000D01*
X100400543Y-105229000D02*
X100645435Y-105229000D01*
X101953453Y-105229000D02*
X102359044Y-105229000D01*
X103140026Y-105229000D02*
X112302451Y-105229000D01*
X113625000Y-105229000D02*
X113645000Y-105229000D01*
X114967550Y-105229000D02*
X115032451Y-105229000D01*
X116355000Y-105229000D02*
X116375000Y-105229000D01*
X117697550Y-105229000D02*
X118965228Y-105229000D01*
X81151790Y-105378200D02*
X82275000Y-105378200D01*
X83625000Y-105378200D02*
X83645000Y-105378200D01*
X84995000Y-105378200D02*
X85005000Y-105378200D01*
X86355000Y-105378200D02*
X86375000Y-105378200D01*
X87725000Y-105378200D02*
X90576656Y-105378200D01*
X94155937Y-105378200D02*
X95820256Y-105378200D01*
X100549743Y-105378200D02*
X100555443Y-105378200D01*
X102045870Y-105378200D02*
X102216773Y-105378200D01*
X103283397Y-105378200D02*
X112275000Y-105378200D01*
X113625000Y-105378200D02*
X113645000Y-105378200D01*
X114995000Y-105378200D02*
X115005000Y-105378200D01*
X116355000Y-105378200D02*
X116375000Y-105378200D01*
X117725000Y-105378200D02*
X118911114Y-105378200D01*
X81187167Y-105527400D02*
X82275000Y-105527400D01*
X83625000Y-105527400D02*
X83645000Y-105527400D01*
X84995000Y-105527400D02*
X85005000Y-105527400D01*
X86355000Y-105527400D02*
X86375000Y-105527400D01*
X87725000Y-105527400D02*
X90725856Y-105527400D01*
X94253164Y-105527400D02*
X95671056Y-105527400D01*
X103361329Y-105527400D02*
X112275000Y-105527400D01*
X113625000Y-105527400D02*
X113645000Y-105527400D01*
X114995000Y-105527400D02*
X115005000Y-105527400D01*
X116355000Y-105527400D02*
X116375000Y-105527400D01*
X117725000Y-105527400D02*
X118853659Y-105527400D01*
X81222544Y-105676600D02*
X82309100Y-105676600D01*
X83625000Y-105676600D02*
X83645000Y-105676600D01*
X84960900Y-105676600D02*
X85039100Y-105676600D01*
X86355000Y-105676600D02*
X86375000Y-105676600D01*
X87690900Y-105676600D02*
X90875056Y-105676600D01*
X94296168Y-105676600D02*
X95521856Y-105676600D01*
X103398115Y-105676600D02*
X112309100Y-105676600D01*
X113625000Y-105676600D02*
X113645000Y-105676600D01*
X114960900Y-105676600D02*
X115039100Y-105676600D01*
X116355000Y-105676600D02*
X116375000Y-105676600D01*
X117690900Y-105676600D02*
X118796205Y-105676600D01*
X81257921Y-105825800D02*
X82275000Y-105825800D01*
X83625000Y-105825800D02*
X83645000Y-105825800D01*
X84995000Y-105825800D02*
X85005000Y-105825800D01*
X86355000Y-105825800D02*
X86375000Y-105825800D01*
X87725000Y-105825800D02*
X91024256Y-105825800D01*
X94296818Y-105825800D02*
X95372656Y-105825800D01*
X96475744Y-105825800D02*
X96610000Y-105825800D01*
X103398079Y-105825800D02*
X112275000Y-105825800D01*
X113625000Y-105825800D02*
X113645000Y-105825800D01*
X114995000Y-105825800D02*
X115005000Y-105825800D01*
X116355000Y-105825800D02*
X116375000Y-105825800D01*
X117725000Y-105825800D02*
X118738750Y-105825800D01*
X81293298Y-105975000D02*
X82275000Y-105975000D01*
X83625000Y-105975000D02*
X83645000Y-105975000D01*
X84995000Y-105975000D02*
X85005000Y-105975000D01*
X86355000Y-105975000D02*
X86375000Y-105975000D01*
X87725000Y-105975000D02*
X91173456Y-105975000D01*
X94251899Y-105975000D02*
X95223456Y-105975000D01*
X96326544Y-105975000D02*
X96610490Y-105975000D01*
X103361368Y-105975000D02*
X112275000Y-105975000D01*
X113625000Y-105975000D02*
X113645000Y-105975000D01*
X114995000Y-105975000D02*
X115005000Y-105975000D01*
X116355000Y-105975000D02*
X116375000Y-105975000D01*
X117725000Y-105975000D02*
X118681296Y-105975000D01*
X81328675Y-106124200D02*
X82277899Y-106124200D01*
X83625000Y-106124200D02*
X83645000Y-106124200D01*
X84992100Y-106124200D02*
X85007899Y-106124200D01*
X86355000Y-106124200D02*
X86375000Y-106124200D01*
X87722100Y-106124200D02*
X91322656Y-106124200D01*
X92425743Y-106124200D02*
X92487961Y-106124200D01*
X94154626Y-106124200D02*
X95074256Y-106124200D01*
X96177344Y-106124200D02*
X96642395Y-106124200D01*
X103281517Y-106124200D02*
X112277899Y-106124200D01*
X113625000Y-106124200D02*
X113645000Y-106124200D01*
X114992100Y-106124200D02*
X115007899Y-106124200D01*
X116355000Y-106124200D02*
X116375000Y-106124200D01*
X117722100Y-106124200D02*
X118623842Y-106124200D01*
X81364051Y-106273400D02*
X82359846Y-106273400D01*
X83624100Y-106273400D02*
X83645900Y-106273400D01*
X84910154Y-106273400D02*
X85089846Y-106273400D01*
X86354100Y-106273400D02*
X86375900Y-106273400D01*
X87640154Y-106273400D02*
X91471856Y-106273400D01*
X92574943Y-106273400D02*
X93574154Y-106273400D01*
X93921571Y-106273400D02*
X94925056Y-106273400D01*
X96028144Y-106273400D02*
X96751856Y-106273400D01*
X100298943Y-106273400D02*
X100413446Y-106273400D01*
X103138383Y-106273400D02*
X112359846Y-106273400D01*
X113624100Y-106273400D02*
X113645900Y-106273400D01*
X114910154Y-106273400D02*
X115089846Y-106273400D01*
X116354100Y-106273400D02*
X116375900Y-106273400D01*
X117640154Y-106273400D02*
X118566387Y-106273400D01*
X81407545Y-106422600D02*
X91621056Y-106422600D01*
X95878944Y-106422600D02*
X96901056Y-106422600D01*
X100274826Y-106422600D02*
X100554377Y-106422600D01*
X102044444Y-106422600D02*
X118508933Y-106422600D01*
X81475662Y-106571800D02*
X84568049Y-106571800D01*
X85433100Y-106571800D02*
X91770256Y-106571800D01*
X95729744Y-106571800D02*
X97050256Y-106571800D01*
X100196098Y-106571800D02*
X100647484Y-106571800D01*
X101953354Y-106571800D02*
X114568049Y-106571800D01*
X115433100Y-106571800D02*
X118451478Y-106571800D01*
X81543780Y-106721000D02*
X84381439Y-106721000D01*
X85618022Y-106721000D02*
X91919456Y-106721000D01*
X95580544Y-106721000D02*
X97199456Y-106721000D01*
X100125000Y-106721000D02*
X114381439Y-106721000D01*
X115618022Y-106721000D02*
X118394024Y-106721000D01*
X81611898Y-106870200D02*
X84267508Y-106870200D01*
X85731669Y-106870200D02*
X92068656Y-106870200D01*
X95431344Y-106870200D02*
X97348656Y-106870200D01*
X100125000Y-106870200D02*
X100602762Y-106870200D01*
X101290000Y-106870200D02*
X101310000Y-106870200D01*
X101997239Y-106870200D02*
X114267508Y-106870200D01*
X115731669Y-106870200D02*
X118336570Y-106870200D01*
X81680015Y-107019400D02*
X84197586Y-107019400D01*
X85801695Y-107019400D02*
X92217856Y-107019400D01*
X95282144Y-107019400D02*
X97497856Y-107019400D01*
X100125000Y-107019400D02*
X100550000Y-107019400D01*
X101290000Y-107019400D02*
X101310000Y-107019400D01*
X102050000Y-107019400D02*
X114197586Y-107019400D01*
X115801695Y-107019400D02*
X118279115Y-107019400D01*
X81748133Y-107168600D02*
X84159966Y-107168600D01*
X85839533Y-107168600D02*
X97647056Y-107168600D01*
X100125000Y-107168600D02*
X100550000Y-107168600D01*
X101290000Y-107168600D02*
X101310000Y-107168600D01*
X102050000Y-107168600D02*
X114159966Y-107168600D01*
X115839533Y-107168600D02*
X118221661Y-107168600D01*
X81816251Y-107317800D02*
X84149702Y-107317800D01*
X85848694Y-107317800D02*
X97796256Y-107317800D01*
X100165091Y-107317800D02*
X100550000Y-107317800D01*
X101290000Y-107317800D02*
X101310000Y-107317800D01*
X102050000Y-107317800D02*
X114149702Y-107317800D01*
X115848694Y-107317800D02*
X118164206Y-107317800D01*
X81884368Y-107467000D02*
X84165497Y-107467000D01*
X85834893Y-107467000D02*
X97689604Y-107467000D01*
X100309660Y-107467000D02*
X100589499Y-107467000D01*
X101290000Y-107467000D02*
X101310000Y-107467000D01*
X102010501Y-107467000D02*
X114165497Y-107467000D01*
X115834893Y-107467000D02*
X118106752Y-107467000D01*
X81952486Y-107616200D02*
X84208975Y-107616200D01*
X85791925Y-107616200D02*
X97673791Y-107616200D01*
X100326209Y-107616200D02*
X100550000Y-107616200D01*
X101290000Y-107616200D02*
X101310000Y-107616200D01*
X102050000Y-107616200D02*
X114208975Y-107616200D01*
X115791925Y-107616200D02*
X118049298Y-107616200D01*
X82020603Y-107765400D02*
X84285441Y-107765400D01*
X85715475Y-107765400D02*
X97673791Y-107765400D01*
X100326209Y-107765400D02*
X100550000Y-107765400D01*
X101290000Y-107765400D02*
X101310000Y-107765400D01*
X102050000Y-107765400D02*
X114285441Y-107765400D01*
X115715475Y-107765400D02*
X117991843Y-107765400D01*
X82088721Y-107914600D02*
X84406993Y-107914600D01*
X85592473Y-107914600D02*
X97673791Y-107914600D01*
X100326209Y-107914600D02*
X100550000Y-107914600D01*
X101290000Y-107914600D02*
X101310000Y-107914600D01*
X102050000Y-107914600D02*
X114406993Y-107914600D01*
X115592473Y-107914600D02*
X117934389Y-107914600D01*
X82156838Y-108063800D02*
X84613585Y-108063800D01*
X85390723Y-108063800D02*
X97673791Y-108063800D01*
X100326209Y-108063800D02*
X100566183Y-108063800D01*
X101290000Y-108063800D02*
X101310000Y-108063800D01*
X102033816Y-108063800D02*
X114613585Y-108063800D01*
X115390723Y-108063800D02*
X117876934Y-108063800D01*
X82224956Y-108213000D02*
X97673791Y-108213000D01*
X100326209Y-108213000D02*
X100721298Y-108213000D01*
X101239501Y-108213000D02*
X101360499Y-108213000D01*
X101878701Y-108213000D02*
X117819480Y-108213000D01*
X82293073Y-108362200D02*
X97673791Y-108362200D01*
X100326209Y-108362200D02*
X117762026Y-108362200D01*
X82361191Y-108511400D02*
X96515759Y-108511400D01*
X97183351Y-108511400D02*
X97683651Y-108511400D01*
X100317483Y-108511400D02*
X117704571Y-108511400D01*
X82429309Y-108660600D02*
X96381553Y-108660600D01*
X97318079Y-108660600D02*
X97788677Y-108660600D01*
X101555574Y-108660600D02*
X117647117Y-108660600D01*
X82497426Y-108809800D02*
X96317490Y-108809800D01*
X97382942Y-108809800D02*
X98781224Y-108809800D01*
X101704774Y-108809800D02*
X117589662Y-108809800D01*
X82565544Y-108959000D02*
X96299798Y-108959000D01*
X97399144Y-108959000D02*
X98930424Y-108959000D01*
X101853974Y-108959000D02*
X117499986Y-108959000D01*
X82633661Y-109108200D02*
X96321070Y-109108200D01*
X102003174Y-109108200D02*
X117405808Y-109108200D01*
X82701779Y-109257400D02*
X96393757Y-109257400D01*
X102152374Y-109257400D02*
X117311631Y-109257400D01*
X82769896Y-109406600D02*
X96543214Y-109406600D01*
X102301574Y-109406600D02*
X117217453Y-109406600D01*
X82838014Y-109555800D02*
X96960826Y-109555800D01*
X102450774Y-109555800D02*
X117123275Y-109555800D01*
X82906131Y-109705000D02*
X97131696Y-109705000D01*
X102599974Y-109705000D02*
X117029098Y-109705000D01*
X82974249Y-109854200D02*
X100559225Y-109854200D01*
X102749174Y-109854200D02*
X116934920Y-109854200D01*
X83075204Y-110003400D02*
X100708425Y-110003400D01*
X102898374Y-110003400D02*
X116840742Y-110003400D01*
X83182569Y-110152600D02*
X100857625Y-110152600D01*
X103047574Y-110152600D02*
X116746564Y-110152600D01*
X83289935Y-110301800D02*
X101006825Y-110301800D01*
X103196774Y-110301800D02*
X116652387Y-110301800D01*
X83397301Y-110451000D02*
X101156025Y-110451000D01*
X103345974Y-110451000D02*
X116558209Y-110451000D01*
X83504667Y-110600200D02*
X101305225Y-110600200D01*
X103495174Y-110600200D02*
X116464031Y-110600200D01*
X83612032Y-110749400D02*
X101454425Y-110749400D01*
X103644374Y-110749400D02*
X116369854Y-110749400D01*
X83719398Y-110898600D02*
X101603625Y-110898600D01*
X103793574Y-110898600D02*
X116275676Y-110898600D01*
X83826764Y-111047800D02*
X101752825Y-111047800D01*
X103942774Y-111047800D02*
X116181498Y-111047800D01*
X83934129Y-111197000D02*
X97975366Y-111197000D01*
X98213360Y-111197000D02*
X101902025Y-111197000D01*
X104088697Y-111197000D02*
X116087320Y-111197000D01*
X84041495Y-111346200D02*
X95203082Y-111346200D01*
X95907990Y-111346200D02*
X96504651Y-111346200D01*
X97144334Y-111346200D02*
X97680894Y-111346200D01*
X98508429Y-111346200D02*
X98988207Y-111346200D01*
X99742166Y-111346200D02*
X100295523Y-111346200D01*
X100972829Y-111346200D02*
X101622908Y-111346200D01*
X104810078Y-111346200D02*
X115993143Y-111346200D01*
X84148861Y-111495400D02*
X95051251Y-111495400D01*
X96057957Y-111495400D02*
X96338033Y-111495400D01*
X97311645Y-111495400D02*
X97561066Y-111495400D01*
X98629226Y-111495400D02*
X98847559Y-111495400D01*
X99883274Y-111495400D02*
X100139642Y-111495400D01*
X101129801Y-111495400D02*
X101434815Y-111495400D01*
X104956113Y-111495400D02*
X115898965Y-111495400D01*
X84256227Y-111644600D02*
X86816685Y-111644600D01*
X87215549Y-111644600D02*
X94974400Y-111644600D01*
X96136028Y-111644600D02*
X96250745Y-111644600D01*
X97399990Y-111644600D02*
X97498539Y-111644600D01*
X98691124Y-111644600D02*
X98778056Y-111644600D01*
X99952066Y-111644600D02*
X100057573Y-111644600D01*
X101213009Y-111644600D02*
X101338521Y-111644600D01*
X105029047Y-111644600D02*
X112760180Y-111644600D01*
X113240730Y-111644600D02*
X115804787Y-111644600D01*
X84363592Y-111793800D02*
X86667485Y-111793800D01*
X87364749Y-111793800D02*
X94940954Y-111793800D01*
X96169000Y-111793800D02*
X96213198Y-111793800D01*
X97437039Y-111793800D02*
X97475346Y-111793800D01*
X98713902Y-111793800D02*
X98748711Y-111793800D01*
X99980961Y-111793800D02*
X100022076Y-111793800D01*
X101248019Y-111793800D02*
X101295441Y-111793800D01*
X105059980Y-111793800D02*
X112537176Y-111793800D01*
X113467004Y-111793800D02*
X115710610Y-111793800D01*
X84470958Y-111943000D02*
X86518285Y-111943000D01*
X87513949Y-111943000D02*
X94935000Y-111943000D01*
X96175000Y-111943000D02*
X96205000Y-111943000D01*
X97445000Y-111943000D02*
X97475000Y-111943000D01*
X98715000Y-111943000D02*
X98745000Y-111943000D01*
X99985000Y-111943000D02*
X100015000Y-111943000D01*
X101255000Y-111943000D02*
X101285000Y-111943000D01*
X105065000Y-111943000D02*
X112429557Y-111943000D01*
X113572838Y-111943000D02*
X115616432Y-111943000D01*
X84578324Y-112092200D02*
X86369085Y-112092200D01*
X87663149Y-112092200D02*
X94935000Y-112092200D01*
X96175000Y-112092200D02*
X96205000Y-112092200D01*
X97445000Y-112092200D02*
X97475000Y-112092200D01*
X98715000Y-112092200D02*
X98745000Y-112092200D01*
X99985000Y-112092200D02*
X100015000Y-112092200D01*
X101255000Y-112092200D02*
X101285000Y-112092200D01*
X105065000Y-112092200D02*
X112370244Y-112092200D01*
X113630876Y-112092200D02*
X115516845Y-112092200D01*
X84685690Y-112241400D02*
X86235025Y-112241400D01*
X87799181Y-112241400D02*
X94935000Y-112241400D01*
X96175000Y-112241400D02*
X96205000Y-112241400D01*
X97445000Y-112241400D02*
X97475000Y-112241400D01*
X98715000Y-112241400D02*
X98745000Y-112241400D01*
X99985000Y-112241400D02*
X100015000Y-112241400D01*
X101255000Y-112241400D02*
X101285000Y-112241400D01*
X105065000Y-112241400D02*
X112348649Y-112241400D01*
X113651403Y-112241400D02*
X115375453Y-112241400D01*
X84793055Y-112390600D02*
X86202884Y-112390600D01*
X87830680Y-112390600D02*
X93704131Y-112390600D01*
X94275000Y-112390600D02*
X94295000Y-112390600D01*
X94865870Y-112390600D02*
X94935000Y-112390600D01*
X96175000Y-112390600D02*
X96205000Y-112390600D01*
X97445000Y-112390600D02*
X97475000Y-112390600D01*
X98715000Y-112390600D02*
X98745000Y-112390600D01*
X99985000Y-112390600D02*
X100015000Y-112390600D01*
X101255000Y-112390600D02*
X101285000Y-112390600D01*
X105065000Y-112390600D02*
X105134131Y-112390600D01*
X105705000Y-112390600D02*
X105725000Y-112390600D01*
X106295870Y-112390600D02*
X111938451Y-112390600D01*
X112293783Y-112390600D02*
X112363996Y-112390600D01*
X113635013Y-112390600D02*
X115234061Y-112390600D01*
X84900421Y-112539800D02*
X86269833Y-112539800D01*
X87762799Y-112539800D02*
X93665000Y-112539800D01*
X94275000Y-112539800D02*
X94295000Y-112539800D01*
X94905000Y-112539800D02*
X94933791Y-112539800D01*
X96176209Y-112539800D02*
X96203791Y-112539800D01*
X97446209Y-112539800D02*
X97473791Y-112539800D01*
X98716209Y-112539800D02*
X98743791Y-112539800D01*
X99986209Y-112539800D02*
X100013791Y-112539800D01*
X101256209Y-112539800D02*
X101283791Y-112539800D01*
X105066209Y-112539800D02*
X105095000Y-112539800D01*
X105705000Y-112539800D02*
X105725000Y-112539800D01*
X106335000Y-112539800D02*
X111789251Y-112539800D01*
X113579666Y-112539800D02*
X115092669Y-112539800D01*
X85007786Y-112689000D02*
X86418051Y-112689000D01*
X88224613Y-112689000D02*
X93665000Y-112689000D01*
X94275000Y-112689000D02*
X94295000Y-112689000D01*
X94905000Y-112689000D02*
X94933791Y-112689000D01*
X96176209Y-112689000D02*
X96203791Y-112689000D01*
X97446209Y-112689000D02*
X97473791Y-112689000D01*
X98716209Y-112689000D02*
X98743791Y-112689000D01*
X99986209Y-112689000D02*
X100013791Y-112689000D01*
X101256209Y-112689000D02*
X101283791Y-112689000D01*
X105066209Y-112689000D02*
X105095000Y-112689000D01*
X105705000Y-112689000D02*
X105725000Y-112689000D01*
X106335000Y-112689000D02*
X111640051Y-112689000D01*
X113476953Y-112689000D02*
X114951278Y-112689000D01*
X85115152Y-112838200D02*
X86567251Y-112838200D01*
X88399456Y-112838200D02*
X93665000Y-112838200D01*
X94275000Y-112838200D02*
X94295000Y-112838200D01*
X94905000Y-112838200D02*
X94933791Y-112838200D01*
X96176209Y-112838200D02*
X96203791Y-112838200D01*
X97446209Y-112838200D02*
X97473791Y-112838200D01*
X98716209Y-112838200D02*
X98743791Y-112838200D01*
X99986209Y-112838200D02*
X100013791Y-112838200D01*
X101256209Y-112838200D02*
X101283791Y-112838200D01*
X105066209Y-112838200D02*
X105095000Y-112838200D01*
X105705000Y-112838200D02*
X105725000Y-112838200D01*
X106335000Y-112838200D02*
X111490851Y-112838200D01*
X113273002Y-112838200D02*
X114809886Y-112838200D01*
X85222517Y-112987400D02*
X86716451Y-112987400D01*
X88493593Y-112987400D02*
X93665000Y-112987400D01*
X94275000Y-112987400D02*
X94295000Y-112987400D01*
X94905000Y-112987400D02*
X94933791Y-112987400D01*
X96176209Y-112987400D02*
X96203791Y-112987400D01*
X97446209Y-112987400D02*
X97473791Y-112987400D01*
X98716209Y-112987400D02*
X98743791Y-112987400D01*
X99986209Y-112987400D02*
X100013791Y-112987400D01*
X101256209Y-112987400D02*
X101283791Y-112987400D01*
X105066209Y-112987400D02*
X105095000Y-112987400D01*
X105705000Y-112987400D02*
X105725000Y-112987400D01*
X106335000Y-112987400D02*
X111346498Y-112987400D01*
X112882832Y-112987400D02*
X114668494Y-112987400D01*
X85379420Y-113136600D02*
X86871271Y-113136600D01*
X87157582Y-113136600D02*
X87259150Y-113136600D01*
X88541478Y-113136600D02*
X93665000Y-113136600D01*
X94275000Y-113136600D02*
X94295000Y-113136600D01*
X94905000Y-113136600D02*
X94933791Y-113136600D01*
X96176209Y-113136600D02*
X96203791Y-113136600D01*
X97446209Y-113136600D02*
X97473791Y-113136600D01*
X98716209Y-113136600D02*
X98743791Y-113136600D01*
X99986209Y-113136600D02*
X100013791Y-113136600D01*
X101256209Y-113136600D02*
X101283791Y-113136600D01*
X105066209Y-113136600D02*
X105095000Y-113136600D01*
X105705000Y-113136600D02*
X105725000Y-113136600D01*
X106335000Y-113136600D02*
X111301148Y-113136600D01*
X112931519Y-113136600D02*
X114527102Y-113136600D01*
X85539077Y-113285800D02*
X87251734Y-113285800D01*
X88549279Y-113285800D02*
X93665000Y-113285800D01*
X94275000Y-113285800D02*
X94295000Y-113285800D01*
X94905000Y-113285800D02*
X94933791Y-113285800D01*
X96176209Y-113285800D02*
X96203791Y-113285800D01*
X97446209Y-113285800D02*
X97473791Y-113285800D01*
X98716209Y-113285800D02*
X98743791Y-113285800D01*
X99986209Y-113285800D02*
X100013791Y-113285800D01*
X101256209Y-113285800D02*
X101283791Y-113285800D01*
X105066209Y-113285800D02*
X105095000Y-113285800D01*
X105705000Y-113285800D02*
X105725000Y-113285800D01*
X106335000Y-113285800D02*
X111353484Y-113285800D01*
X112881350Y-113285800D02*
X114385710Y-113285800D01*
X85698734Y-113435000D02*
X87278523Y-113435000D01*
X88522864Y-113435000D02*
X93665000Y-113435000D01*
X94275000Y-113435000D02*
X94295000Y-113435000D01*
X94905000Y-113435000D02*
X94933791Y-113435000D01*
X96176209Y-113435000D02*
X96203791Y-113435000D01*
X97446209Y-113435000D02*
X97473791Y-113435000D01*
X98716209Y-113435000D02*
X98743791Y-113435000D01*
X99986209Y-113435000D02*
X100013791Y-113435000D01*
X101256209Y-113435000D02*
X101283791Y-113435000D01*
X105066209Y-113435000D02*
X105095000Y-113435000D01*
X105705000Y-113435000D02*
X105725000Y-113435000D01*
X106335000Y-113435000D02*
X111496285Y-113435000D01*
X112735949Y-113435000D02*
X114244318Y-113435000D01*
X85858391Y-113584200D02*
X87343521Y-113584200D01*
X88458024Y-113584200D02*
X93686700Y-113584200D01*
X94275000Y-113584200D02*
X94295000Y-113584200D01*
X94883300Y-113584200D02*
X94933791Y-113584200D01*
X96176209Y-113584200D02*
X96203791Y-113584200D01*
X97446209Y-113584200D02*
X97473791Y-113584200D01*
X98716209Y-113584200D02*
X98743791Y-113584200D01*
X99986209Y-113584200D02*
X100013791Y-113584200D01*
X101256209Y-113584200D02*
X101283791Y-113584200D01*
X105066209Y-113584200D02*
X105116700Y-113584200D01*
X105705000Y-113584200D02*
X105725000Y-113584200D01*
X106313300Y-113584200D02*
X111645485Y-113584200D01*
X112586749Y-113584200D02*
X114102926Y-113584200D01*
X86018048Y-113733400D02*
X87468848Y-113733400D01*
X88335951Y-113733400D02*
X93665000Y-113733400D01*
X94275000Y-113733400D02*
X94295000Y-113733400D01*
X94905000Y-113733400D02*
X94933791Y-113733400D01*
X96176209Y-113733400D02*
X96203791Y-113733400D01*
X97446209Y-113733400D02*
X97473791Y-113733400D01*
X98716209Y-113733400D02*
X98743791Y-113733400D01*
X99986209Y-113733400D02*
X100013791Y-113733400D01*
X101256209Y-113733400D02*
X101283791Y-113733400D01*
X105066209Y-113733400D02*
X105095000Y-113733400D01*
X105705000Y-113733400D02*
X105725000Y-113733400D01*
X106335000Y-113733400D02*
X111794685Y-113733400D01*
X112437549Y-113733400D02*
X113961534Y-113733400D01*
X86177705Y-113882600D02*
X87751504Y-113882600D01*
X88052015Y-113882600D02*
X93665000Y-113882600D01*
X94275000Y-113882600D02*
X94295000Y-113882600D01*
X94905000Y-113882600D02*
X94933791Y-113882600D01*
X96176209Y-113882600D02*
X96203791Y-113882600D01*
X97446209Y-113882600D02*
X97473791Y-113882600D01*
X98716209Y-113882600D02*
X98743791Y-113882600D01*
X99986209Y-113882600D02*
X100013791Y-113882600D01*
X101256209Y-113882600D02*
X101283791Y-113882600D01*
X105066209Y-113882600D02*
X105095000Y-113882600D01*
X105705000Y-113882600D02*
X105725000Y-113882600D01*
X106335000Y-113882600D02*
X111944820Y-113882600D01*
X112286559Y-113882600D02*
X113820142Y-113882600D01*
X86337362Y-114031800D02*
X93665000Y-114031800D01*
X94275000Y-114031800D02*
X94295000Y-114031800D01*
X94905000Y-114031800D02*
X94933791Y-114031800D01*
X96176209Y-114031800D02*
X96203791Y-114031800D01*
X97446209Y-114031800D02*
X97473791Y-114031800D01*
X98716209Y-114031800D02*
X98743791Y-114031800D01*
X99986209Y-114031800D02*
X100013791Y-114031800D01*
X101256209Y-114031800D02*
X101283791Y-114031800D01*
X105066209Y-114031800D02*
X105095000Y-114031800D01*
X105705000Y-114031800D02*
X105725000Y-114031800D01*
X106335000Y-114031800D02*
X113678751Y-114031800D01*
X86497019Y-114181000D02*
X92452950Y-114181000D01*
X92932544Y-114181000D02*
X93665000Y-114181000D01*
X94275000Y-114181000D02*
X94295000Y-114181000D01*
X94905000Y-114181000D02*
X94933791Y-114181000D01*
X96176209Y-114181000D02*
X96203791Y-114181000D01*
X97446209Y-114181000D02*
X97473791Y-114181000D01*
X98716209Y-114181000D02*
X98743791Y-114181000D01*
X99986209Y-114181000D02*
X100013791Y-114181000D01*
X101256209Y-114181000D02*
X101283791Y-114181000D01*
X105066209Y-114181000D02*
X105095000Y-114181000D01*
X105705000Y-114181000D02*
X105725000Y-114181000D01*
X106335000Y-114181000D02*
X107062950Y-114181000D01*
X107542544Y-114181000D02*
X113537359Y-114181000D01*
X86656677Y-114330200D02*
X92166163Y-114330200D01*
X93222094Y-114330200D02*
X93665000Y-114330200D01*
X94275000Y-114330200D02*
X94295000Y-114330200D01*
X94905000Y-114330200D02*
X94933791Y-114330200D01*
X96176209Y-114330200D02*
X96203791Y-114330200D01*
X97446209Y-114330200D02*
X97473791Y-114330200D01*
X98716209Y-114330200D02*
X98743791Y-114330200D01*
X99986209Y-114330200D02*
X100013791Y-114330200D01*
X101256209Y-114330200D02*
X101283791Y-114330200D01*
X105066209Y-114330200D02*
X105095000Y-114330200D01*
X105705000Y-114330200D02*
X105725000Y-114330200D01*
X106335000Y-114330200D02*
X106776163Y-114330200D01*
X107832094Y-114330200D02*
X113395967Y-114330200D01*
X86816334Y-114479400D02*
X92021257Y-114479400D01*
X93369663Y-114479400D02*
X93665000Y-114479400D01*
X94275000Y-114479400D02*
X94295000Y-114479400D01*
X94905000Y-114479400D02*
X94933791Y-114479400D01*
X96176209Y-114479400D02*
X96203791Y-114479400D01*
X97446209Y-114479400D02*
X97473791Y-114479400D01*
X98716209Y-114479400D02*
X98743791Y-114479400D01*
X99986209Y-114479400D02*
X100013791Y-114479400D01*
X101256209Y-114479400D02*
X101283791Y-114479400D01*
X105066209Y-114479400D02*
X105095000Y-114479400D01*
X105705000Y-114479400D02*
X105725000Y-114479400D01*
X106335000Y-114479400D02*
X106631257Y-114479400D01*
X107979663Y-114479400D02*
X113254575Y-114479400D01*
X86975991Y-114628600D02*
X91929361Y-114628600D01*
X93461330Y-114628600D02*
X93665000Y-114628600D01*
X94275000Y-114628600D02*
X94295000Y-114628600D01*
X94905000Y-114628600D02*
X94933791Y-114628600D01*
X96176209Y-114628600D02*
X96203791Y-114628600D01*
X97446209Y-114628600D02*
X97473791Y-114628600D01*
X98716209Y-114628600D02*
X98743791Y-114628600D01*
X99986209Y-114628600D02*
X100013791Y-114628600D01*
X101256209Y-114628600D02*
X101283791Y-114628600D01*
X105066209Y-114628600D02*
X105095000Y-114628600D01*
X105705000Y-114628600D02*
X105725000Y-114628600D01*
X106335000Y-114628600D02*
X106539361Y-114628600D01*
X108071330Y-114628600D02*
X113113183Y-114628600D01*
X87135648Y-114777800D02*
X91873203Y-114777800D01*
X93517544Y-114777800D02*
X93666626Y-114777800D01*
X94275000Y-114777800D02*
X94295000Y-114777800D01*
X94903373Y-114777800D02*
X94936406Y-114777800D01*
X96171547Y-114777800D02*
X96206406Y-114777800D01*
X97441547Y-114777800D02*
X97476406Y-114777800D01*
X98711547Y-114777800D02*
X98746406Y-114777800D01*
X99981547Y-114777800D02*
X100016406Y-114777800D01*
X101251547Y-114777800D02*
X101286406Y-114777800D01*
X105061547Y-114777800D02*
X105096626Y-114777800D01*
X105705000Y-114777800D02*
X105725000Y-114777800D01*
X106333373Y-114777800D02*
X106483203Y-114777800D01*
X108127544Y-114777800D02*
X112971791Y-114777800D01*
X87295305Y-114927000D02*
X91845900Y-114927000D01*
X93544892Y-114927000D02*
X93743446Y-114927000D01*
X94275000Y-114927000D02*
X94295000Y-114927000D01*
X94826554Y-114927000D02*
X95015120Y-114927000D01*
X96096670Y-114927000D02*
X96285120Y-114927000D01*
X97366670Y-114927000D02*
X97555120Y-114927000D01*
X98636670Y-114927000D02*
X98825120Y-114927000D01*
X99906670Y-114927000D02*
X100095120Y-114927000D01*
X101176670Y-114927000D02*
X101365120Y-114927000D01*
X104986670Y-114927000D02*
X105173446Y-114927000D01*
X105705000Y-114927000D02*
X105725000Y-114927000D01*
X106256554Y-114927000D02*
X106455900Y-114927000D01*
X108154892Y-114927000D02*
X112800415Y-114927000D01*
X87454962Y-115076200D02*
X91844750Y-115076200D01*
X93542808Y-115076200D02*
X93740246Y-115076200D01*
X94275000Y-115076200D02*
X94295000Y-115076200D01*
X94829754Y-115076200D02*
X95010603Y-115076200D01*
X96098635Y-115076200D02*
X96280603Y-115076200D01*
X97368635Y-115076200D02*
X97550603Y-115076200D01*
X98638635Y-115076200D02*
X98820603Y-115076200D01*
X99908635Y-115076200D02*
X100090603Y-115076200D01*
X101178635Y-115076200D02*
X101360603Y-115076200D01*
X104988635Y-115076200D02*
X105170246Y-115076200D01*
X105705000Y-115076200D02*
X105725000Y-115076200D01*
X106259754Y-115076200D02*
X106454750Y-115076200D01*
X108152808Y-115076200D02*
X112589997Y-115076200D01*
X87614619Y-115225400D02*
X91872134Y-115225400D01*
X93515488Y-115225400D02*
X93665990Y-115225400D01*
X94275000Y-115225400D02*
X94295000Y-115225400D01*
X94904011Y-115225400D02*
X94937998Y-115225400D01*
X96173849Y-115225400D02*
X96207998Y-115225400D01*
X97443849Y-115225400D02*
X97477998Y-115225400D01*
X98713849Y-115225400D02*
X98747998Y-115225400D01*
X99983849Y-115225400D02*
X100017998Y-115225400D01*
X101253849Y-115225400D02*
X101287998Y-115225400D01*
X105063849Y-115225400D02*
X105095990Y-115225400D01*
X105705000Y-115225400D02*
X105725000Y-115225400D01*
X106334011Y-115225400D02*
X106482134Y-115225400D01*
X108125489Y-115225400D02*
X112379579Y-115225400D01*
X87774276Y-115374600D02*
X91929077Y-115374600D01*
X93458698Y-115374600D02*
X93665000Y-115374600D01*
X94275000Y-115374600D02*
X94295000Y-115374600D01*
X94905000Y-115374600D02*
X94933791Y-115374600D01*
X96176209Y-115374600D02*
X96203791Y-115374600D01*
X97446209Y-115374600D02*
X97473791Y-115374600D01*
X98716209Y-115374600D02*
X98743791Y-115374600D01*
X99986209Y-115374600D02*
X100013791Y-115374600D01*
X101256209Y-115374600D02*
X101283791Y-115374600D01*
X105066209Y-115374600D02*
X105095000Y-115374600D01*
X105705000Y-115374600D02*
X105725000Y-115374600D01*
X106335000Y-115374600D02*
X106539077Y-115374600D01*
X108068698Y-115374600D02*
X112169162Y-115374600D01*
X87933933Y-115523800D02*
X92021299Y-115523800D01*
X93365751Y-115523800D02*
X93665000Y-115523800D01*
X94275000Y-115523800D02*
X94295000Y-115523800D01*
X94905000Y-115523800D02*
X94933791Y-115523800D01*
X96176209Y-115523800D02*
X96203791Y-115523800D01*
X97446209Y-115523800D02*
X97473791Y-115523800D01*
X98716209Y-115523800D02*
X98743791Y-115523800D01*
X99986209Y-115523800D02*
X100013791Y-115523800D01*
X101256209Y-115523800D02*
X101283791Y-115523800D01*
X105066209Y-115523800D02*
X105095000Y-115523800D01*
X105705000Y-115523800D02*
X105725000Y-115523800D01*
X106335000Y-115523800D02*
X106631299Y-115523800D01*
X107975751Y-115523800D02*
X111958744Y-115523800D01*
X88123789Y-115673000D02*
X92173891Y-115673000D01*
X93220896Y-115673000D02*
X93665000Y-115673000D01*
X94275000Y-115673000D02*
X94295000Y-115673000D01*
X94905000Y-115673000D02*
X94933791Y-115673000D01*
X96176209Y-115673000D02*
X96203791Y-115673000D01*
X97446209Y-115673000D02*
X97473791Y-115673000D01*
X98716209Y-115673000D02*
X98743791Y-115673000D01*
X99986209Y-115673000D02*
X100013791Y-115673000D01*
X101256209Y-115673000D02*
X101283791Y-115673000D01*
X105066209Y-115673000D02*
X105095000Y-115673000D01*
X105705000Y-115673000D02*
X105725000Y-115673000D01*
X106335000Y-115673000D02*
X106783891Y-115673000D01*
X107830896Y-115673000D02*
X111748326Y-115673000D01*
X88363854Y-115822200D02*
X92476047Y-115822200D01*
X92925848Y-115822200D02*
X93665000Y-115822200D01*
X94275000Y-115822200D02*
X94295000Y-115822200D01*
X94905000Y-115822200D02*
X94933791Y-115822200D01*
X96176209Y-115822200D02*
X96203791Y-115822200D01*
X97446209Y-115822200D02*
X97473791Y-115822200D01*
X98716209Y-115822200D02*
X98743791Y-115822200D01*
X99986209Y-115822200D02*
X100013791Y-115822200D01*
X101256209Y-115822200D02*
X101283791Y-115822200D01*
X105066209Y-115822200D02*
X105095000Y-115822200D01*
X105705000Y-115822200D02*
X105725000Y-115822200D01*
X106335000Y-115822200D02*
X107086047Y-115822200D01*
X107535848Y-115822200D02*
X111537909Y-115822200D01*
X88603920Y-115971400D02*
X93665000Y-115971400D01*
X94275000Y-115971400D02*
X94295000Y-115971400D01*
X94905000Y-115971400D02*
X94933791Y-115971400D01*
X96176209Y-115971400D02*
X96203791Y-115971400D01*
X97446209Y-115971400D02*
X97473791Y-115971400D01*
X98716209Y-115971400D02*
X98743791Y-115971400D01*
X99986209Y-115971400D02*
X100013791Y-115971400D01*
X101256209Y-115971400D02*
X101283791Y-115971400D01*
X105066209Y-115971400D02*
X105095000Y-115971400D01*
X105705000Y-115971400D02*
X105725000Y-115971400D01*
X106335000Y-115971400D02*
X111327491Y-115971400D01*
X88843986Y-116120600D02*
X93665000Y-116120600D01*
X94275000Y-116120600D02*
X94295000Y-116120600D01*
X94905000Y-116120600D02*
X94933791Y-116120600D01*
X96176209Y-116120600D02*
X96203791Y-116120600D01*
X97446209Y-116120600D02*
X97473791Y-116120600D01*
X98716209Y-116120600D02*
X98743791Y-116120600D01*
X99986209Y-116120600D02*
X100013791Y-116120600D01*
X101256209Y-116120600D02*
X101283791Y-116120600D01*
X105066209Y-116120600D02*
X105095000Y-116120600D01*
X105705000Y-116120600D02*
X105725000Y-116120600D01*
X106335000Y-116120600D02*
X111117073Y-116120600D01*
X89084051Y-116269800D02*
X93665000Y-116269800D01*
X94275000Y-116269800D02*
X94295000Y-116269800D01*
X94905000Y-116269800D02*
X94933791Y-116269800D01*
X96176209Y-116269800D02*
X96203791Y-116269800D01*
X97446209Y-116269800D02*
X97473791Y-116269800D01*
X98716209Y-116269800D02*
X98743791Y-116269800D01*
X99986209Y-116269800D02*
X100013791Y-116269800D01*
X101256209Y-116269800D02*
X101283791Y-116269800D01*
X105066209Y-116269800D02*
X105095000Y-116269800D01*
X105705000Y-116269800D02*
X105725000Y-116269800D01*
X106335000Y-116269800D02*
X110906655Y-116269800D01*
X89324117Y-116419000D02*
X93683500Y-116419000D01*
X94275000Y-116419000D02*
X94295000Y-116419000D01*
X94886500Y-116419000D02*
X94933791Y-116419000D01*
X96176209Y-116419000D02*
X96203791Y-116419000D01*
X97446209Y-116419000D02*
X97473791Y-116419000D01*
X98716209Y-116419000D02*
X98743791Y-116419000D01*
X99986209Y-116419000D02*
X100013791Y-116419000D01*
X101256209Y-116419000D02*
X101283791Y-116419000D01*
X105066209Y-116419000D02*
X105113500Y-116419000D01*
X105705000Y-116419000D02*
X105725000Y-116419000D01*
X106316500Y-116419000D02*
X110696238Y-116419000D01*
X89564182Y-116568200D02*
X93665000Y-116568200D01*
X94275000Y-116568200D02*
X94295000Y-116568200D01*
X94905000Y-116568200D02*
X94933791Y-116568200D01*
X96176209Y-116568200D02*
X96203791Y-116568200D01*
X97446209Y-116568200D02*
X97473791Y-116568200D01*
X98716209Y-116568200D02*
X98743791Y-116568200D01*
X99986209Y-116568200D02*
X100013791Y-116568200D01*
X101256209Y-116568200D02*
X101283791Y-116568200D01*
X105066209Y-116568200D02*
X105095000Y-116568200D01*
X105705000Y-116568200D02*
X105725000Y-116568200D01*
X106335000Y-116568200D02*
X110485820Y-116568200D01*
X89804248Y-116717400D02*
X93665000Y-116717400D01*
X94275000Y-116717400D02*
X94295000Y-116717400D01*
X94905000Y-116717400D02*
X94933791Y-116717400D01*
X96176209Y-116717400D02*
X96203791Y-116717400D01*
X97446209Y-116717400D02*
X97473791Y-116717400D01*
X98716209Y-116717400D02*
X98743791Y-116717400D01*
X99986209Y-116717400D02*
X100013791Y-116717400D01*
X101256209Y-116717400D02*
X101283791Y-116717400D01*
X105066209Y-116717400D02*
X105095000Y-116717400D01*
X105705000Y-116717400D02*
X105725000Y-116717400D01*
X106335000Y-116717400D02*
X110275402Y-116717400D01*
X90044313Y-116866600D02*
X93665000Y-116866600D01*
X94275000Y-116866600D02*
X94295000Y-116866600D01*
X94905000Y-116866600D02*
X94933791Y-116866600D01*
X96176209Y-116866600D02*
X96203791Y-116866600D01*
X97446209Y-116866600D02*
X97473791Y-116866600D01*
X98716209Y-116866600D02*
X98743791Y-116866600D01*
X99986209Y-116866600D02*
X100013791Y-116866600D01*
X101256209Y-116866600D02*
X101283791Y-116866600D01*
X105066209Y-116866600D02*
X105095000Y-116866600D01*
X105705000Y-116866600D02*
X105725000Y-116866600D01*
X106335000Y-116866600D02*
X110064985Y-116866600D01*
X90284379Y-117015800D02*
X93665000Y-117015800D01*
X94275000Y-117015800D02*
X94295000Y-117015800D01*
X94905000Y-117015800D02*
X94933791Y-117015800D01*
X96176209Y-117015800D02*
X96203791Y-117015800D01*
X97446209Y-117015800D02*
X97473791Y-117015800D01*
X98716209Y-117015800D02*
X98743791Y-117015800D01*
X99986209Y-117015800D02*
X100013791Y-117015800D01*
X101256209Y-117015800D02*
X101283791Y-117015800D01*
X105066209Y-117015800D02*
X105095000Y-117015800D01*
X105705000Y-117015800D02*
X105725000Y-117015800D01*
X106335000Y-117015800D02*
X109854567Y-117015800D01*
X90524444Y-117165000D02*
X93665000Y-117165000D01*
X94275000Y-117165000D02*
X94295000Y-117165000D01*
X94905000Y-117165000D02*
X94933791Y-117165000D01*
X96176209Y-117165000D02*
X96203791Y-117165000D01*
X97446209Y-117165000D02*
X97473791Y-117165000D01*
X98716209Y-117165000D02*
X98743791Y-117165000D01*
X99986209Y-117165000D02*
X100013791Y-117165000D01*
X101256209Y-117165000D02*
X101283791Y-117165000D01*
X105066209Y-117165000D02*
X105095000Y-117165000D01*
X105705000Y-117165000D02*
X105725000Y-117165000D01*
X106335000Y-117165000D02*
X109576960Y-117165000D01*
X90764509Y-117314200D02*
X93665000Y-117314200D01*
X94275000Y-117314200D02*
X94295000Y-117314200D01*
X94905000Y-117314200D02*
X94933791Y-117314200D01*
X96176209Y-117314200D02*
X96203791Y-117314200D01*
X97446209Y-117314200D02*
X97473791Y-117314200D01*
X98716209Y-117314200D02*
X98743791Y-117314200D01*
X99986209Y-117314200D02*
X100013791Y-117314200D01*
X101256209Y-117314200D02*
X101283791Y-117314200D01*
X105066209Y-117314200D02*
X105095000Y-117314200D01*
X105705000Y-117314200D02*
X105725000Y-117314200D01*
X106335000Y-117314200D02*
X109244030Y-117314200D01*
X91004575Y-117463400D02*
X93665000Y-117463400D01*
X94275000Y-117463400D02*
X94295000Y-117463400D01*
X94905000Y-117463400D02*
X94933791Y-117463400D01*
X96176209Y-117463400D02*
X96203791Y-117463400D01*
X97446209Y-117463400D02*
X97473791Y-117463400D01*
X98716209Y-117463400D02*
X98743791Y-117463400D01*
X99986209Y-117463400D02*
X100013791Y-117463400D01*
X101256209Y-117463400D02*
X101283791Y-117463400D01*
X105066209Y-117463400D02*
X105095000Y-117463400D01*
X105705000Y-117463400D02*
X105725000Y-117463400D01*
X106335000Y-117463400D02*
X108911100Y-117463400D01*
X91244640Y-117612600D02*
X93706268Y-117612600D01*
X94275000Y-117612600D02*
X94295000Y-117612600D01*
X94863731Y-117612600D02*
X94935000Y-117612600D01*
X96175000Y-117612600D02*
X96205000Y-117612600D01*
X97445000Y-117612600D02*
X97475000Y-117612600D01*
X98715000Y-117612600D02*
X98745000Y-117612600D01*
X99985000Y-117612600D02*
X100015000Y-117612600D01*
X101255000Y-117612600D02*
X101285000Y-117612600D01*
X105065000Y-117612600D02*
X105136268Y-117612600D01*
X105705000Y-117612600D02*
X105725000Y-117612600D01*
X106293731Y-117612600D02*
X108578170Y-117612600D01*
X91607744Y-117761800D02*
X94935000Y-117761800D01*
X96175000Y-117761800D02*
X96205000Y-117761800D01*
X97445000Y-117761800D02*
X97475000Y-117761800D01*
X98715000Y-117761800D02*
X98745000Y-117761800D01*
X99985000Y-117761800D02*
X100015000Y-117761800D01*
X101255000Y-117761800D02*
X101285000Y-117761800D01*
X105065000Y-117761800D02*
X108245240Y-117761800D01*
X92003407Y-117911000D02*
X94935000Y-117911000D01*
X96175000Y-117911000D02*
X96205000Y-117911000D01*
X97445000Y-117911000D02*
X97475000Y-117911000D01*
X98715000Y-117911000D02*
X98745000Y-117911000D01*
X99985000Y-117911000D02*
X100015000Y-117911000D01*
X101255000Y-117911000D02*
X101285000Y-117911000D01*
X105065000Y-117911000D02*
X107912310Y-117911000D01*
X92399071Y-118060200D02*
X94908475Y-118060200D01*
X105088878Y-118060200D02*
X107579380Y-118060200D01*
X92794734Y-118209400D02*
X94905934Y-118209400D01*
X105093378Y-118209400D02*
X107246450Y-118209400D01*
X93190398Y-118358600D02*
X94940447Y-118358600D01*
X96171443Y-118358600D02*
X96218366Y-118358600D01*
X97432538Y-118358600D02*
X97464141Y-118358600D01*
X98724424Y-118358600D02*
X98742529Y-118358600D01*
X99987608Y-118358600D02*
X100012529Y-118358600D01*
X101257608Y-118358600D02*
X101274141Y-118358600D01*
X102534424Y-118358600D02*
X102568366Y-118358600D01*
X103782538Y-118358600D02*
X103826488Y-118358600D01*
X105065336Y-118358600D02*
X106913520Y-118358600D01*
X93586061Y-118507800D02*
X95015487Y-118507800D01*
X96094559Y-118507800D02*
X96298376Y-118507800D01*
X97350450Y-118507800D02*
X97523264Y-118507800D01*
X98667276Y-118507800D02*
X98812598Y-118507800D01*
X99918667Y-118507800D02*
X100082598Y-118507800D01*
X101188667Y-118507800D02*
X101333264Y-118507800D01*
X102477276Y-118507800D02*
X102648376Y-118507800D01*
X103700450Y-118507800D02*
X103899043Y-118507800D01*
X104991613Y-118507800D02*
X106580590Y-118507800D01*
X93981724Y-118657000D02*
X95152697Y-118657000D01*
X95959935Y-118657000D02*
X96451473Y-118657000D01*
X97199832Y-118657000D02*
X97637503Y-118657000D01*
X98552441Y-118657000D02*
X98936474Y-118657000D01*
X99790937Y-118657000D02*
X100206474Y-118657000D01*
X101060937Y-118657000D02*
X101447503Y-118657000D01*
X102362441Y-118657000D02*
X102801473Y-118657000D01*
X103549832Y-118657000D02*
X104028309Y-118657000D01*
X104860436Y-118657000D02*
X106240166Y-118657000D01*
X94377388Y-118806200D02*
X97870328Y-118806200D01*
X98316753Y-118806200D02*
X99254234Y-118806200D01*
X99471935Y-118806200D02*
X100524234Y-118806200D01*
X100741935Y-118806200D02*
X101680328Y-118806200D01*
X102126753Y-118806200D02*
X104494154Y-118806200D01*
X104495222Y-118806200D02*
X105590763Y-118806200D01*
X94773051Y-118955400D02*
X104941361Y-118955400D01*
X95523601Y-119104600D02*
X104291959Y-119104600D01*
X96418944Y-119253800D02*
X103642556Y-119253800D01*
X97314286Y-119403000D02*
X102993154Y-119403000D01*
X98209629Y-119552200D02*
X101230661Y-119552200D01*
X87995812Y-87350634D02*
X87968453Y-87391580D01*
X87949607Y-87437078D01*
X87940000Y-87485377D01*
X87940000Y-87892500D01*
X88002500Y-87955000D01*
X88790000Y-87955000D01*
X88790000Y-87935000D01*
X88810000Y-87935000D01*
X88810000Y-87955000D01*
X89597500Y-87955000D01*
X89660000Y-87892500D01*
X89660000Y-87485377D01*
X89650393Y-87437078D01*
X89631547Y-87391580D01*
X89604188Y-87350634D01*
X89578554Y-87325000D01*
X115030596Y-87325000D01*
X117150892Y-90359950D01*
X118696685Y-93874836D01*
X119530327Y-97623029D01*
X119620064Y-101461755D01*
X118962479Y-105244811D01*
X117582619Y-108828089D01*
X115533043Y-112075107D01*
X112891819Y-114862188D01*
X109759547Y-117083175D01*
X106255543Y-118653467D01*
X102513257Y-119513256D01*
X98675249Y-119629791D01*
X94887703Y-118998634D01*
X91294875Y-117643821D01*
X89353883Y-116437500D01*
X93665000Y-116437500D01*
X93665000Y-117499623D01*
X93674607Y-117547922D01*
X93693453Y-117593419D01*
X93720812Y-117634366D01*
X93755634Y-117669188D01*
X93796580Y-117696547D01*
X93842078Y-117715393D01*
X93890377Y-117725000D01*
X94212500Y-117725000D01*
X94275000Y-117662500D01*
X94275000Y-116375000D01*
X94295000Y-116375000D01*
X94295000Y-117662500D01*
X94357500Y-117725000D01*
X94679623Y-117725000D01*
X94727922Y-117715393D01*
X94773420Y-117696547D01*
X94814366Y-117669188D01*
X94849188Y-117634366D01*
X94876547Y-117593419D01*
X94895393Y-117547922D01*
X94905000Y-117499623D01*
X94905000Y-116437500D01*
X94842500Y-116375000D01*
X94295000Y-116375000D01*
X94275000Y-116375000D01*
X93727500Y-116375000D01*
X93665000Y-116437500D01*
X89353883Y-116437500D01*
X88033627Y-115616965D01*
X87449900Y-115071470D01*
X91843882Y-115071470D01*
X91873974Y-115235425D01*
X91935338Y-115390413D01*
X92025637Y-115530530D01*
X92141432Y-115650440D01*
X92278313Y-115745574D01*
X92431065Y-115812310D01*
X92593870Y-115848105D01*
X92760527Y-115851596D01*
X92924688Y-115822650D01*
X93080100Y-115762369D01*
X93220844Y-115673050D01*
X93341559Y-115558095D01*
X93437647Y-115421882D01*
X93505447Y-115269600D01*
X93514358Y-115230377D01*
X93665000Y-115230377D01*
X93665000Y-116292500D01*
X93727500Y-116355000D01*
X94275000Y-116355000D01*
X94275000Y-115067500D01*
X94295000Y-115067500D01*
X94295000Y-116355000D01*
X94842500Y-116355000D01*
X94905000Y-116292500D01*
X94905000Y-115230377D01*
X94895393Y-115182078D01*
X94876547Y-115136581D01*
X94849188Y-115095634D01*
X94814366Y-115060812D01*
X94773420Y-115033453D01*
X94727922Y-115014607D01*
X94679623Y-115005000D01*
X94357500Y-115005000D01*
X94295000Y-115067500D01*
X94275000Y-115067500D01*
X94212500Y-115005000D01*
X93890377Y-115005000D01*
X93842078Y-115014607D01*
X93796580Y-115033453D01*
X93755634Y-115060812D01*
X93720812Y-115095634D01*
X93693453Y-115136581D01*
X93674607Y-115182078D01*
X93665000Y-115230377D01*
X93514358Y-115230377D01*
X93542378Y-115107049D01*
X93545037Y-114916653D01*
X93512659Y-114753134D01*
X93449137Y-114599018D01*
X93356890Y-114460176D01*
X93239432Y-114341895D01*
X93101237Y-114248681D01*
X92947568Y-114184084D01*
X92784279Y-114150566D01*
X92617590Y-114149402D01*
X92453848Y-114180637D01*
X92299293Y-114243082D01*
X92159810Y-114334357D01*
X92040711Y-114450987D01*
X91946535Y-114588528D01*
X91880867Y-114741742D01*
X91846210Y-114904793D01*
X91843882Y-115071470D01*
X87449900Y-115071470D01*
X85228173Y-112995260D01*
X84764310Y-112350655D01*
X86199699Y-112350655D01*
X86205318Y-112421120D01*
X86230346Y-112487229D01*
X86272800Y-112543749D01*
X86838485Y-113109434D01*
X86868881Y-113135340D01*
X86931415Y-113168300D01*
X87000655Y-113182535D01*
X87071120Y-113176916D01*
X87137229Y-113151888D01*
X87193749Y-113109434D01*
X87294913Y-113008270D01*
X87261512Y-113114853D01*
X87247812Y-113240969D01*
X87258868Y-113367344D01*
X87294260Y-113489165D01*
X87352640Y-113601791D01*
X87431784Y-113700934D01*
X87438157Y-113707395D01*
X87442604Y-113711843D01*
X87540631Y-113792363D01*
X87652432Y-113852311D01*
X87773747Y-113889400D01*
X87899955Y-113902220D01*
X88026250Y-113890281D01*
X88147820Y-113854039D01*
X88260036Y-113794875D01*
X88358623Y-113715041D01*
X88364905Y-113707500D01*
X93665000Y-113707500D01*
X93665000Y-114769623D01*
X93674607Y-114817922D01*
X93693453Y-114863419D01*
X93720812Y-114904366D01*
X93755634Y-114939188D01*
X93796580Y-114966547D01*
X93842078Y-114985393D01*
X93890377Y-114995000D01*
X94212500Y-114995000D01*
X94275000Y-114932500D01*
X94275000Y-113645000D01*
X94295000Y-113645000D01*
X94295000Y-114932500D01*
X94357500Y-114995000D01*
X94679623Y-114995000D01*
X94727922Y-114985393D01*
X94773420Y-114966547D01*
X94814366Y-114939188D01*
X94849188Y-114904366D01*
X94876547Y-114863419D01*
X94895393Y-114817922D01*
X94905000Y-114769623D01*
X94905000Y-113707500D01*
X94842500Y-113645000D01*
X94295000Y-113645000D01*
X94275000Y-113645000D01*
X93727500Y-113645000D01*
X93665000Y-113707500D01*
X88364905Y-113707500D01*
X88439826Y-113617578D01*
X88500552Y-113506199D01*
X88538488Y-113385146D01*
X88552188Y-113259030D01*
X88541132Y-113132655D01*
X88505739Y-113010834D01*
X88447360Y-112898209D01*
X88368216Y-112799066D01*
X88361843Y-112792604D01*
X88357395Y-112788157D01*
X88259368Y-112707636D01*
X88147568Y-112647689D01*
X88026253Y-112610599D01*
X87900045Y-112597780D01*
X87773750Y-112609719D01*
X87659365Y-112643818D01*
X87759434Y-112543749D01*
X87785340Y-112513353D01*
X87792179Y-112500377D01*
X93665000Y-112500377D01*
X93665000Y-113562500D01*
X93727500Y-113625000D01*
X94275000Y-113625000D01*
X94275000Y-112337500D01*
X94295000Y-112337500D01*
X94295000Y-113625000D01*
X94842500Y-113625000D01*
X94905000Y-113562500D01*
X94905000Y-112525000D01*
X94933791Y-112525000D01*
X94933791Y-114745000D01*
X94936966Y-114784811D01*
X94957877Y-114852336D01*
X94996772Y-114911362D01*
X95050571Y-114957214D01*
X95115015Y-114986263D01*
X95185000Y-114996209D01*
X95925000Y-114996209D01*
X95964811Y-114993034D01*
X96032336Y-114972123D01*
X96091362Y-114933228D01*
X96137214Y-114879429D01*
X96166263Y-114814985D01*
X96176209Y-114745000D01*
X96176209Y-112525000D01*
X96203791Y-112525000D01*
X96203791Y-114745000D01*
X96206966Y-114784811D01*
X96227877Y-114852336D01*
X96266772Y-114911362D01*
X96320571Y-114957214D01*
X96385015Y-114986263D01*
X96455000Y-114996209D01*
X97195000Y-114996209D01*
X97234811Y-114993034D01*
X97302336Y-114972123D01*
X97361362Y-114933228D01*
X97407214Y-114879429D01*
X97436263Y-114814985D01*
X97446209Y-114745000D01*
X97446209Y-112525000D01*
X97473791Y-112525000D01*
X97473791Y-114745000D01*
X97476966Y-114784811D01*
X97497877Y-114852336D01*
X97536772Y-114911362D01*
X97590571Y-114957214D01*
X97655015Y-114986263D01*
X97725000Y-114996209D01*
X98465000Y-114996209D01*
X98504811Y-114993034D01*
X98572336Y-114972123D01*
X98631362Y-114933228D01*
X98677214Y-114879429D01*
X98706263Y-114814985D01*
X98716209Y-114745000D01*
X98716209Y-112525000D01*
X98743791Y-112525000D01*
X98743791Y-114745000D01*
X98746966Y-114784811D01*
X98767877Y-114852336D01*
X98806772Y-114911362D01*
X98860571Y-114957214D01*
X98925015Y-114986263D01*
X98995000Y-114996209D01*
X99735000Y-114996209D01*
X99774811Y-114993034D01*
X99842336Y-114972123D01*
X99901362Y-114933228D01*
X99947214Y-114879429D01*
X99976263Y-114814985D01*
X99986209Y-114745000D01*
X99986209Y-112525000D01*
X100013791Y-112525000D01*
X100013791Y-114745000D01*
X100016966Y-114784811D01*
X100037877Y-114852336D01*
X100076772Y-114911362D01*
X100130571Y-114957214D01*
X100195015Y-114986263D01*
X100265000Y-114996209D01*
X101005000Y-114996209D01*
X101044811Y-114993034D01*
X101112336Y-114972123D01*
X101171362Y-114933228D01*
X101217214Y-114879429D01*
X101246263Y-114814985D01*
X101256209Y-114745000D01*
X101256209Y-112525000D01*
X101255000Y-112509840D01*
X101255000Y-111865000D01*
X101243192Y-111744575D01*
X101208219Y-111628736D01*
X101151411Y-111521897D01*
X101074934Y-111428127D01*
X100981700Y-111350997D01*
X100875260Y-111293445D01*
X100759668Y-111257663D01*
X100639328Y-111245015D01*
X100518824Y-111255982D01*
X100402744Y-111290146D01*
X100295511Y-111346206D01*
X100201209Y-111422027D01*
X100123430Y-111514720D01*
X100065136Y-111620756D01*
X100028548Y-111736095D01*
X100015060Y-111856343D01*
X100015000Y-111865000D01*
X100015000Y-112516493D01*
X100013791Y-112525000D01*
X99986209Y-112525000D01*
X99985000Y-112509840D01*
X99985000Y-111835000D01*
X99973192Y-111714575D01*
X99938219Y-111598736D01*
X99881411Y-111491897D01*
X99804934Y-111398127D01*
X99711700Y-111320997D01*
X99605260Y-111263445D01*
X99489668Y-111227663D01*
X99369328Y-111215015D01*
X99248824Y-111225982D01*
X99132744Y-111260146D01*
X99025511Y-111316206D01*
X98931209Y-111392027D01*
X98853430Y-111484720D01*
X98795136Y-111590756D01*
X98758548Y-111706095D01*
X98745060Y-111826343D01*
X98745000Y-111835000D01*
X98745000Y-112516493D01*
X98743791Y-112525000D01*
X98716209Y-112525000D01*
X98715000Y-112509840D01*
X98715000Y-111805000D01*
X98703192Y-111684575D01*
X98668219Y-111568736D01*
X98611411Y-111461897D01*
X98534934Y-111368127D01*
X98441700Y-111290997D01*
X98335260Y-111233445D01*
X98219668Y-111197663D01*
X98099328Y-111185015D01*
X97978824Y-111195982D01*
X97862744Y-111230146D01*
X97755511Y-111286206D01*
X97661209Y-111362027D01*
X97583430Y-111454720D01*
X97525136Y-111560756D01*
X97488548Y-111676095D01*
X97475060Y-111796343D01*
X97475000Y-111805000D01*
X97475000Y-112516493D01*
X97473791Y-112525000D01*
X97446209Y-112525000D01*
X97445000Y-112509840D01*
X97445000Y-111875000D01*
X97433192Y-111754575D01*
X97398219Y-111638736D01*
X97341411Y-111531897D01*
X97264934Y-111438127D01*
X97171700Y-111360997D01*
X97065260Y-111303445D01*
X96949668Y-111267663D01*
X96829328Y-111255015D01*
X96708824Y-111265982D01*
X96592744Y-111300146D01*
X96485511Y-111356206D01*
X96391209Y-111432027D01*
X96313430Y-111524720D01*
X96255136Y-111630756D01*
X96218548Y-111746095D01*
X96205060Y-111866343D01*
X96205000Y-111875000D01*
X96205000Y-112516493D01*
X96203791Y-112525000D01*
X96176209Y-112525000D01*
X96175000Y-112509840D01*
X96175000Y-111855000D01*
X96163192Y-111734575D01*
X96128219Y-111618736D01*
X96071411Y-111511897D01*
X95994934Y-111418127D01*
X95901700Y-111340997D01*
X95795260Y-111283445D01*
X95679668Y-111247663D01*
X95559328Y-111235015D01*
X95438824Y-111245982D01*
X95322744Y-111280146D01*
X95215511Y-111336206D01*
X95121209Y-111412027D01*
X95043430Y-111504720D01*
X94985136Y-111610756D01*
X94948548Y-111726095D01*
X94935060Y-111846343D01*
X94935000Y-111855000D01*
X94935000Y-112516493D01*
X94933791Y-112525000D01*
X94905000Y-112525000D01*
X94905000Y-112500377D01*
X94895393Y-112452078D01*
X94876547Y-112406581D01*
X94849188Y-112365634D01*
X94814366Y-112330812D01*
X94773420Y-112303453D01*
X94727922Y-112284607D01*
X94679623Y-112275000D01*
X94357500Y-112275000D01*
X94295000Y-112337500D01*
X94275000Y-112337500D01*
X94212500Y-112275000D01*
X93890377Y-112275000D01*
X93842078Y-112284607D01*
X93796580Y-112303453D01*
X93755634Y-112330812D01*
X93720812Y-112365634D01*
X93693453Y-112406581D01*
X93674607Y-112452078D01*
X93665000Y-112500377D01*
X87792179Y-112500377D01*
X87818300Y-112450819D01*
X87832535Y-112381579D01*
X87826916Y-112311114D01*
X87801888Y-112245005D01*
X87759434Y-112188485D01*
X87193749Y-111622800D01*
X87163353Y-111596894D01*
X87100819Y-111563934D01*
X87031579Y-111549699D01*
X86961114Y-111555318D01*
X86895005Y-111580346D01*
X86838485Y-111622800D01*
X86272800Y-112188485D01*
X86246894Y-112218881D01*
X86213934Y-112281415D01*
X86199699Y-112350655D01*
X84764310Y-112350655D01*
X82985375Y-109878571D01*
X81843036Y-107376470D01*
X84148882Y-107376470D01*
X84178974Y-107540425D01*
X84240338Y-107695413D01*
X84330637Y-107835530D01*
X84446432Y-107955440D01*
X84583313Y-108050574D01*
X84736065Y-108117310D01*
X84898870Y-108153105D01*
X85065527Y-108156596D01*
X85229688Y-108127650D01*
X85385100Y-108067369D01*
X85525844Y-107978050D01*
X85646559Y-107863095D01*
X85742647Y-107726882D01*
X85810447Y-107574600D01*
X85847378Y-107412049D01*
X85850037Y-107221653D01*
X85817659Y-107058134D01*
X85754137Y-106904018D01*
X85661890Y-106765176D01*
X85544432Y-106646895D01*
X85406237Y-106553681D01*
X85252568Y-106489084D01*
X85089279Y-106455566D01*
X84922590Y-106454402D01*
X84758848Y-106485637D01*
X84604293Y-106548082D01*
X84464810Y-106639357D01*
X84345711Y-106755987D01*
X84251535Y-106893528D01*
X84185867Y-107046742D01*
X84151210Y-107209793D01*
X84148882Y-107376470D01*
X81843036Y-107376470D01*
X81390658Y-106385614D01*
X81248839Y-105787500D01*
X82275000Y-105787500D01*
X82275000Y-106109623D01*
X82284607Y-106157922D01*
X82303453Y-106203420D01*
X82330812Y-106244366D01*
X82365634Y-106279188D01*
X82406581Y-106306547D01*
X82452078Y-106325393D01*
X82500377Y-106335000D01*
X83562500Y-106335000D01*
X83625000Y-106272500D01*
X83625000Y-105725000D01*
X83645000Y-105725000D01*
X83645000Y-106272500D01*
X83707500Y-106335000D01*
X84769623Y-106335000D01*
X84817922Y-106325393D01*
X84863419Y-106306547D01*
X84904366Y-106279188D01*
X84939188Y-106244366D01*
X84966547Y-106203420D01*
X84985393Y-106157922D01*
X84995000Y-106109623D01*
X84995000Y-105787500D01*
X85005000Y-105787500D01*
X85005000Y-106109623D01*
X85014607Y-106157922D01*
X85033453Y-106203420D01*
X85060812Y-106244366D01*
X85095634Y-106279188D01*
X85136581Y-106306547D01*
X85182078Y-106325393D01*
X85230377Y-106335000D01*
X86292500Y-106335000D01*
X86355000Y-106272500D01*
X86355000Y-105725000D01*
X86375000Y-105725000D01*
X86375000Y-106272500D01*
X86437500Y-106335000D01*
X87499623Y-106335000D01*
X87547922Y-106325393D01*
X87593419Y-106306547D01*
X87634366Y-106279188D01*
X87669188Y-106244366D01*
X87696547Y-106203420D01*
X87715393Y-106157922D01*
X87725000Y-106109623D01*
X87725000Y-105787500D01*
X87662500Y-105725000D01*
X86375000Y-105725000D01*
X86355000Y-105725000D01*
X85067500Y-105725000D01*
X85005000Y-105787500D01*
X84995000Y-105787500D01*
X84932500Y-105725000D01*
X83645000Y-105725000D01*
X83625000Y-105725000D01*
X82337500Y-105725000D01*
X82275000Y-105787500D01*
X81248839Y-105787500D01*
X81138079Y-105320377D01*
X82275000Y-105320377D01*
X82275000Y-105642500D01*
X82337500Y-105705000D01*
X83625000Y-105705000D01*
X83625000Y-105157500D01*
X83645000Y-105157500D01*
X83645000Y-105705000D01*
X84932500Y-105705000D01*
X84995000Y-105642500D01*
X84995000Y-105320377D01*
X85005000Y-105320377D01*
X85005000Y-105642500D01*
X85067500Y-105705000D01*
X86355000Y-105705000D01*
X86355000Y-105157500D01*
X86375000Y-105157500D01*
X86375000Y-105705000D01*
X87662500Y-105705000D01*
X87725000Y-105642500D01*
X87725000Y-105320377D01*
X87715393Y-105272078D01*
X87696547Y-105226580D01*
X87669188Y-105185634D01*
X87634366Y-105150812D01*
X87593419Y-105123453D01*
X87547922Y-105104607D01*
X87499623Y-105095000D01*
X86437500Y-105095000D01*
X86375000Y-105157500D01*
X86355000Y-105157500D01*
X86292500Y-105095000D01*
X85230377Y-105095000D01*
X85182078Y-105104607D01*
X85136581Y-105123453D01*
X85095634Y-105150812D01*
X85060812Y-105185634D01*
X85033453Y-105226580D01*
X85014607Y-105272078D01*
X85005000Y-105320377D01*
X84995000Y-105320377D01*
X84985393Y-105272078D01*
X84966547Y-105226580D01*
X84939188Y-105185634D01*
X84904366Y-105150812D01*
X84863419Y-105123453D01*
X84817922Y-105104607D01*
X84769623Y-105095000D01*
X83707500Y-105095000D01*
X83645000Y-105157500D01*
X83625000Y-105157500D01*
X83562500Y-105095000D01*
X82500377Y-105095000D01*
X82452078Y-105104607D01*
X82406581Y-105123453D01*
X82365634Y-105150812D01*
X82330812Y-105185634D01*
X82303453Y-105226580D01*
X82284607Y-105272078D01*
X82275000Y-105320377D01*
X81138079Y-105320377D01*
X80504766Y-102649428D01*
X80479001Y-101959654D01*
X81154146Y-101959654D01*
X81177157Y-102085031D01*
X81224082Y-102203551D01*
X81293135Y-102310700D01*
X81381684Y-102402395D01*
X81486357Y-102475145D01*
X81603167Y-102526178D01*
X81697970Y-102547021D01*
X81690590Y-102548429D01*
X81572401Y-102596181D01*
X81465737Y-102665979D01*
X81374662Y-102755166D01*
X81302645Y-102860345D01*
X81252428Y-102977509D01*
X81225925Y-103102195D01*
X81224146Y-103229654D01*
X81247157Y-103355031D01*
X81294082Y-103473551D01*
X81363135Y-103580700D01*
X81451684Y-103672395D01*
X81556357Y-103745145D01*
X81673167Y-103796178D01*
X81721513Y-103806807D01*
X81660590Y-103818429D01*
X81542401Y-103866181D01*
X81435737Y-103935979D01*
X81344662Y-104025166D01*
X81272645Y-104130345D01*
X81222428Y-104247509D01*
X81195925Y-104372195D01*
X81194146Y-104499654D01*
X81217157Y-104625031D01*
X81264082Y-104743551D01*
X81333135Y-104850700D01*
X81421684Y-104942395D01*
X81526357Y-105015145D01*
X81643167Y-105066178D01*
X81767665Y-105093550D01*
X81895109Y-105096220D01*
X82020644Y-105074085D01*
X82044066Y-105065000D01*
X82516493Y-105065000D01*
X82525000Y-105066209D01*
X84745000Y-105066209D01*
X84784811Y-105063034D01*
X84852336Y-105042123D01*
X84911362Y-105003228D01*
X84957214Y-104949429D01*
X84986263Y-104884985D01*
X84996209Y-104815000D01*
X84996209Y-104075000D01*
X84993034Y-104035189D01*
X84972123Y-103967664D01*
X84933228Y-103908638D01*
X84879429Y-103862786D01*
X84814985Y-103833737D01*
X84745000Y-103823791D01*
X82525000Y-103823791D01*
X82509840Y-103825000D01*
X82047501Y-103825000D01*
X82038140Y-103821065D01*
X81999421Y-103813117D01*
X82050644Y-103804085D01*
X82074066Y-103795000D01*
X82516493Y-103795000D01*
X82525000Y-103796209D01*
X84745000Y-103796209D01*
X84784811Y-103793034D01*
X84852336Y-103772123D01*
X84911362Y-103733228D01*
X84957214Y-103679429D01*
X84986263Y-103614985D01*
X84996209Y-103545000D01*
X84996209Y-102805000D01*
X84993034Y-102765189D01*
X84972123Y-102697664D01*
X84933228Y-102638638D01*
X84879429Y-102592786D01*
X84814985Y-102563737D01*
X84745000Y-102553791D01*
X82525000Y-102553791D01*
X82509840Y-102555000D01*
X82077501Y-102555000D01*
X82068140Y-102551065D01*
X81982297Y-102533444D01*
X82004066Y-102525000D01*
X82516493Y-102525000D01*
X82525000Y-102526209D01*
X84745000Y-102526209D01*
X84784811Y-102523034D01*
X84852336Y-102502123D01*
X84911362Y-102463228D01*
X84957214Y-102409429D01*
X84986263Y-102344985D01*
X84996209Y-102275000D01*
X84996209Y-101535000D01*
X84993034Y-101495189D01*
X84972123Y-101427664D01*
X84933228Y-101368638D01*
X84879429Y-101322786D01*
X84814985Y-101293737D01*
X84745000Y-101283791D01*
X82525000Y-101283791D01*
X82509840Y-101285000D01*
X82007501Y-101285000D01*
X81998140Y-101281065D01*
X81973283Y-101275962D01*
X82040644Y-101264085D01*
X82064066Y-101255000D01*
X82516493Y-101255000D01*
X82525000Y-101256209D01*
X84745000Y-101256209D01*
X84784811Y-101253034D01*
X84852336Y-101232123D01*
X84911362Y-101193228D01*
X84957214Y-101139429D01*
X84986263Y-101074985D01*
X84996209Y-101005000D01*
X84996209Y-100508766D01*
X85003791Y-100501184D01*
X85003791Y-101005000D01*
X85006966Y-101044811D01*
X85027877Y-101112336D01*
X85066772Y-101171362D01*
X85120571Y-101217214D01*
X85185015Y-101246263D01*
X85255000Y-101256209D01*
X87475000Y-101256209D01*
X87490160Y-101255000D01*
X88043408Y-101255000D01*
X87920590Y-101278429D01*
X87904326Y-101285000D01*
X87483507Y-101285000D01*
X87475000Y-101283791D01*
X85255000Y-101283791D01*
X85215189Y-101286966D01*
X85147664Y-101307877D01*
X85088638Y-101346772D01*
X85042786Y-101400571D01*
X85013737Y-101465015D01*
X85003791Y-101535000D01*
X85003791Y-102275000D01*
X85006966Y-102314811D01*
X85027877Y-102382336D01*
X85066772Y-102441362D01*
X85120571Y-102487214D01*
X85185015Y-102516263D01*
X85255000Y-102526209D01*
X87475000Y-102526209D01*
X87490160Y-102525000D01*
X87900471Y-102525000D01*
X87903167Y-102526178D01*
X87997970Y-102547021D01*
X87990590Y-102548429D01*
X87974326Y-102555000D01*
X87483507Y-102555000D01*
X87475000Y-102553791D01*
X85255000Y-102553791D01*
X85215189Y-102556966D01*
X85147664Y-102577877D01*
X85088638Y-102616772D01*
X85042786Y-102670571D01*
X85013737Y-102735015D01*
X85003791Y-102805000D01*
X85003791Y-103545000D01*
X85006966Y-103584811D01*
X85027877Y-103652336D01*
X85066772Y-103711362D01*
X85120571Y-103757214D01*
X85185015Y-103786263D01*
X85255000Y-103796209D01*
X87475000Y-103796209D01*
X87490160Y-103795000D01*
X87970471Y-103795000D01*
X87973167Y-103796178D01*
X88026159Y-103807829D01*
X87970590Y-103818429D01*
X87954326Y-103825000D01*
X87483507Y-103825000D01*
X87475000Y-103823791D01*
X85255000Y-103823791D01*
X85215189Y-103826966D01*
X85147664Y-103847877D01*
X85088638Y-103886772D01*
X85042786Y-103940571D01*
X85013737Y-104005015D01*
X85003791Y-104075000D01*
X85003791Y-104815000D01*
X85006966Y-104854811D01*
X85027877Y-104922336D01*
X85066772Y-104981362D01*
X85120571Y-105027214D01*
X85185015Y-105056263D01*
X85255000Y-105066209D01*
X87475000Y-105066209D01*
X87490160Y-105065000D01*
X87950471Y-105065000D01*
X87953167Y-105066178D01*
X88077665Y-105093550D01*
X88205109Y-105096220D01*
X88330644Y-105074085D01*
X88449488Y-105027988D01*
X88557116Y-104959685D01*
X88649428Y-104871778D01*
X88722906Y-104767616D01*
X88774754Y-104651165D01*
X88802995Y-104526861D01*
X88805028Y-104381264D01*
X88780268Y-104256220D01*
X88731693Y-104138367D01*
X88661151Y-104032193D01*
X88571330Y-103941743D01*
X88465652Y-103870462D01*
X88348140Y-103821065D01*
X88304800Y-103812168D01*
X88350644Y-103804085D01*
X88469488Y-103757988D01*
X88577116Y-103689685D01*
X88669428Y-103601778D01*
X88742906Y-103497616D01*
X88794754Y-103381165D01*
X88822995Y-103256861D01*
X88825028Y-103111264D01*
X88800268Y-102986220D01*
X88751693Y-102868367D01*
X88681151Y-102762193D01*
X88591330Y-102671743D01*
X88485652Y-102600462D01*
X88368140Y-102551065D01*
X88282297Y-102533444D01*
X88399488Y-102487988D01*
X88507116Y-102419685D01*
X88599428Y-102331778D01*
X88672906Y-102227616D01*
X88724754Y-102111165D01*
X88752995Y-101986861D01*
X88755028Y-101841264D01*
X88730268Y-101716220D01*
X88681693Y-101598367D01*
X88611151Y-101492193D01*
X88521330Y-101401743D01*
X88415652Y-101330462D01*
X88298140Y-101281065D01*
X88173272Y-101255433D01*
X88111257Y-101255000D01*
X88165000Y-101255000D01*
X88285425Y-101243192D01*
X88401264Y-101208219D01*
X88508103Y-101151411D01*
X88601873Y-101074934D01*
X88679003Y-100981700D01*
X88736555Y-100875260D01*
X88772337Y-100759668D01*
X88784985Y-100639328D01*
X88774018Y-100518824D01*
X88771117Y-100508966D01*
X88809218Y-100525612D01*
X88914563Y-100548773D01*
X88978570Y-100550114D01*
X89110000Y-100681544D01*
X89110000Y-103750000D01*
X89113514Y-103785846D01*
X89116655Y-103821741D01*
X89117227Y-103823709D01*
X89117427Y-103825751D01*
X89127846Y-103860258D01*
X89137891Y-103894834D01*
X89138834Y-103896654D01*
X89139427Y-103898617D01*
X89156330Y-103930406D01*
X89172918Y-103962409D01*
X89174199Y-103964014D01*
X89175161Y-103965823D01*
X89197916Y-103993724D01*
X89220405Y-104021895D01*
X89223222Y-104024752D01*
X89223267Y-104024807D01*
X89223318Y-104024849D01*
X89224228Y-104025772D01*
X92224229Y-107025772D01*
X92252089Y-107048657D01*
X92279663Y-107071794D01*
X92281457Y-107072780D01*
X92283044Y-107074084D01*
X92314819Y-107091121D01*
X92346363Y-107108463D01*
X92348318Y-107109083D01*
X92350125Y-107110052D01*
X92384549Y-107120576D01*
X92418914Y-107131478D01*
X92420954Y-107131707D01*
X92422914Y-107132306D01*
X92458763Y-107135948D01*
X92494555Y-107139962D01*
X92498559Y-107139990D01*
X92498638Y-107139998D01*
X92498712Y-107139991D01*
X92500000Y-107140000D01*
X95000000Y-107140000D01*
X95035846Y-107136486D01*
X95071741Y-107133345D01*
X95073709Y-107132773D01*
X95075751Y-107132573D01*
X95110258Y-107122154D01*
X95144834Y-107112109D01*
X95146654Y-107111166D01*
X95148617Y-107110573D01*
X95180406Y-107093670D01*
X95212409Y-107077082D01*
X95214014Y-107075801D01*
X95215823Y-107074839D01*
X95243724Y-107052084D01*
X95271895Y-107029595D01*
X95274752Y-107026778D01*
X95274807Y-107026733D01*
X95274849Y-107026682D01*
X95275772Y-107025772D01*
X96610000Y-105691544D01*
X96610000Y-105970000D01*
X96613514Y-106005846D01*
X96616655Y-106041741D01*
X96617227Y-106043709D01*
X96617427Y-106045751D01*
X96627846Y-106080258D01*
X96637891Y-106114834D01*
X96638834Y-106116654D01*
X96639427Y-106118617D01*
X96656330Y-106150406D01*
X96672918Y-106182409D01*
X96674199Y-106184014D01*
X96675161Y-106185823D01*
X96697916Y-106213724D01*
X96720405Y-106241895D01*
X96723222Y-106244752D01*
X96723267Y-106244807D01*
X96723318Y-106244849D01*
X96724228Y-106245772D01*
X97807820Y-107329363D01*
X97758638Y-107361772D01*
X97712786Y-107415571D01*
X97683737Y-107480015D01*
X97673791Y-107550000D01*
X97673791Y-108450000D01*
X97676966Y-108489811D01*
X97697877Y-108557336D01*
X97736772Y-108616362D01*
X97790571Y-108662214D01*
X97855015Y-108691263D01*
X97925000Y-108701209D01*
X98675000Y-108701209D01*
X98693759Y-108699713D01*
X98706465Y-108724226D01*
X98707616Y-108725668D01*
X98708478Y-108727289D01*
X98728881Y-108752306D01*
X98749081Y-108777610D01*
X98751604Y-108780167D01*
X98751650Y-108780224D01*
X98751703Y-108780268D01*
X98752513Y-108781089D01*
X99021424Y-109050000D01*
X97444974Y-109050000D01*
X97398522Y-109003548D01*
X97400023Y-108896070D01*
X97379073Y-108790263D01*
X97337971Y-108690541D01*
X97278282Y-108600702D01*
X97202279Y-108524167D01*
X97112859Y-108463853D01*
X97013426Y-108422055D01*
X96907769Y-108400367D01*
X96799911Y-108399614D01*
X96693961Y-108419825D01*
X96593954Y-108460230D01*
X96503701Y-108519290D01*
X96426637Y-108594756D01*
X96365699Y-108683754D01*
X96323209Y-108782892D01*
X96300783Y-108888395D01*
X96299277Y-108996245D01*
X96318748Y-109102334D01*
X96358454Y-109202620D01*
X96416883Y-109293284D01*
X96491809Y-109370873D01*
X96580379Y-109432430D01*
X96679218Y-109475612D01*
X96784563Y-109498773D01*
X96892400Y-109501032D01*
X96904011Y-109498985D01*
X97052513Y-109647487D01*
X97077467Y-109667984D01*
X97102262Y-109688790D01*
X97103878Y-109689678D01*
X97105297Y-109690844D01*
X97133772Y-109706113D01*
X97162120Y-109721697D01*
X97163873Y-109722253D01*
X97165497Y-109723124D01*
X97196428Y-109732580D01*
X97227231Y-109742352D01*
X97229061Y-109742557D01*
X97230820Y-109743095D01*
X97262974Y-109746361D01*
X97295113Y-109749966D01*
X97298709Y-109749991D01*
X97298778Y-109749998D01*
X97298842Y-109749992D01*
X97300000Y-109750000D01*
X100455026Y-109750000D01*
X101988345Y-111283320D01*
X101909328Y-111275015D01*
X101788824Y-111285982D01*
X101672744Y-111320146D01*
X101565511Y-111376206D01*
X101471209Y-111452027D01*
X101393430Y-111544720D01*
X101335136Y-111650756D01*
X101298548Y-111766095D01*
X101285060Y-111886343D01*
X101285000Y-111895000D01*
X101285000Y-112516493D01*
X101283791Y-112525000D01*
X101283791Y-114745000D01*
X101286966Y-114784811D01*
X101307877Y-114852336D01*
X101346772Y-114911362D01*
X101400571Y-114957214D01*
X101465015Y-114986263D01*
X101535000Y-114996209D01*
X102197999Y-114996209D01*
X102197999Y-114997999D01*
X102198567Y-115003791D01*
X101535000Y-115003791D01*
X101495189Y-115006966D01*
X101427664Y-115027877D01*
X101368638Y-115066772D01*
X101322786Y-115120571D01*
X101293737Y-115185015D01*
X101283791Y-115255000D01*
X101283791Y-117475000D01*
X101285000Y-117490160D01*
X101285000Y-117991508D01*
X101282428Y-117997509D01*
X101273138Y-118041216D01*
X101260268Y-117976220D01*
X101255000Y-117963439D01*
X101255000Y-117483507D01*
X101256209Y-117475000D01*
X101256209Y-115255000D01*
X101253034Y-115215189D01*
X101232123Y-115147664D01*
X101193228Y-115088638D01*
X101139429Y-115042786D01*
X101074985Y-115013737D01*
X101005000Y-115003791D01*
X100265000Y-115003791D01*
X100225189Y-115006966D01*
X100157664Y-115027877D01*
X100098638Y-115066772D01*
X100052786Y-115120571D01*
X100023737Y-115185015D01*
X100013791Y-115255000D01*
X100013791Y-117475000D01*
X100015000Y-117490160D01*
X100015000Y-117961508D01*
X100012428Y-117967509D01*
X100000062Y-118025684D01*
X99990268Y-117976220D01*
X99985000Y-117963439D01*
X99985000Y-117483507D01*
X99986209Y-117475000D01*
X99986209Y-115255000D01*
X99983034Y-115215189D01*
X99962123Y-115147664D01*
X99923228Y-115088638D01*
X99869429Y-115042786D01*
X99804985Y-115013737D01*
X99735000Y-115003791D01*
X98995000Y-115003791D01*
X98955189Y-115006966D01*
X98887664Y-115027877D01*
X98828638Y-115066772D01*
X98782786Y-115120571D01*
X98753737Y-115185015D01*
X98743791Y-115255000D01*
X98743791Y-117475000D01*
X98745000Y-117490160D01*
X98745000Y-117961508D01*
X98742428Y-117967509D01*
X98726987Y-118040153D01*
X98720268Y-118006220D01*
X98715000Y-117993439D01*
X98715000Y-117483507D01*
X98716209Y-117475000D01*
X98716209Y-115255000D01*
X98713034Y-115215189D01*
X98692123Y-115147664D01*
X98653228Y-115088638D01*
X98599429Y-115042786D01*
X98534985Y-115013737D01*
X98465000Y-115003791D01*
X97725000Y-115003791D01*
X97685189Y-115006966D01*
X97617664Y-115027877D01*
X97558638Y-115066772D01*
X97512786Y-115120571D01*
X97483737Y-115185015D01*
X97473791Y-115255000D01*
X97473791Y-117475000D01*
X97475000Y-117490160D01*
X97475000Y-117991508D01*
X97472428Y-117997509D01*
X97467238Y-118021924D01*
X97450268Y-117936220D01*
X97445000Y-117923439D01*
X97445000Y-117483507D01*
X97446209Y-117475000D01*
X97446209Y-115255000D01*
X97443034Y-115215189D01*
X97422123Y-115147664D01*
X97383228Y-115088638D01*
X97329429Y-115042786D01*
X97264985Y-115013737D01*
X97195000Y-115003791D01*
X96455000Y-115003791D01*
X96415189Y-115006966D01*
X96347664Y-115027877D01*
X96288638Y-115066772D01*
X96242786Y-115120571D01*
X96213737Y-115185015D01*
X96203791Y-115255000D01*
X96203791Y-117475000D01*
X96205000Y-117490160D01*
X96205000Y-117921508D01*
X96202428Y-117927509D01*
X96188012Y-117995330D01*
X96180268Y-117956220D01*
X96175000Y-117943439D01*
X96175000Y-117483507D01*
X96176209Y-117475000D01*
X96176209Y-115255000D01*
X96173034Y-115215189D01*
X96152123Y-115147664D01*
X96113228Y-115088638D01*
X96059429Y-115042786D01*
X95994985Y-115013737D01*
X95925000Y-115003791D01*
X95185000Y-115003791D01*
X95145189Y-115006966D01*
X95077664Y-115027877D01*
X95018638Y-115066772D01*
X94972786Y-115120571D01*
X94943737Y-115185015D01*
X94933791Y-115255000D01*
X94933791Y-117475000D01*
X94935000Y-117490160D01*
X94935000Y-117941508D01*
X94932428Y-117947509D01*
X94905925Y-118072195D01*
X94904146Y-118199654D01*
X94927157Y-118325031D01*
X94974082Y-118443551D01*
X95043135Y-118550700D01*
X95131684Y-118642395D01*
X95236357Y-118715145D01*
X95353167Y-118766178D01*
X95477665Y-118793550D01*
X95605109Y-118796220D01*
X95730644Y-118774085D01*
X95849488Y-118727988D01*
X95957116Y-118659685D01*
X96049428Y-118571778D01*
X96122906Y-118467616D01*
X96174754Y-118351165D01*
X96191830Y-118276005D01*
X96197157Y-118305031D01*
X96244082Y-118423551D01*
X96313135Y-118530700D01*
X96401684Y-118622395D01*
X96506357Y-118695145D01*
X96623167Y-118746178D01*
X96747665Y-118773550D01*
X96875109Y-118776220D01*
X97000644Y-118754085D01*
X97119488Y-118707988D01*
X97227116Y-118639685D01*
X97319428Y-118551778D01*
X97392906Y-118447616D01*
X97444754Y-118331165D01*
X97452693Y-118296222D01*
X97467157Y-118375031D01*
X97514082Y-118493551D01*
X97583135Y-118600700D01*
X97671684Y-118692395D01*
X97776357Y-118765145D01*
X97893167Y-118816178D01*
X98017665Y-118843550D01*
X98145109Y-118846220D01*
X98270644Y-118824085D01*
X98389488Y-118777988D01*
X98497116Y-118709685D01*
X98589428Y-118621778D01*
X98662906Y-118517616D01*
X98714754Y-118401165D01*
X98732845Y-118321537D01*
X98737157Y-118345031D01*
X98784082Y-118463551D01*
X98853135Y-118570700D01*
X98941684Y-118662395D01*
X99046357Y-118735145D01*
X99163167Y-118786178D01*
X99287665Y-118813550D01*
X99415109Y-118816220D01*
X99540644Y-118794085D01*
X99659488Y-118747988D01*
X99767116Y-118679685D01*
X99859428Y-118591778D01*
X99932906Y-118487616D01*
X99984754Y-118371165D01*
X99999799Y-118304942D01*
X100007157Y-118345031D01*
X100054082Y-118463551D01*
X100123135Y-118570700D01*
X100211684Y-118662395D01*
X100316357Y-118735145D01*
X100433167Y-118786178D01*
X100557665Y-118813550D01*
X100685109Y-118816220D01*
X100810644Y-118794085D01*
X100929488Y-118747988D01*
X101037116Y-118679685D01*
X101129428Y-118591778D01*
X101202906Y-118487616D01*
X101254754Y-118371165D01*
X101266754Y-118318348D01*
X101277157Y-118375031D01*
X101324082Y-118493551D01*
X101393135Y-118600700D01*
X101481684Y-118692395D01*
X101586357Y-118765145D01*
X101703167Y-118816178D01*
X101827665Y-118843550D01*
X101955109Y-118846220D01*
X102080644Y-118824085D01*
X102199488Y-118777988D01*
X102307116Y-118709685D01*
X102399428Y-118621778D01*
X102472906Y-118517616D01*
X102524754Y-118401165D01*
X102546906Y-118303663D01*
X102547157Y-118305031D01*
X102594082Y-118423551D01*
X102663135Y-118530700D01*
X102751684Y-118622395D01*
X102856357Y-118695145D01*
X102973167Y-118746178D01*
X103097665Y-118773550D01*
X103225109Y-118776220D01*
X103350644Y-118754085D01*
X103469488Y-118707988D01*
X103577116Y-118639685D01*
X103669428Y-118551778D01*
X103742906Y-118447616D01*
X103794754Y-118331165D01*
X103806754Y-118278348D01*
X103817157Y-118335031D01*
X103864082Y-118453551D01*
X103933135Y-118560700D01*
X104021684Y-118652395D01*
X104126357Y-118725145D01*
X104243167Y-118776178D01*
X104367665Y-118803550D01*
X104495109Y-118806220D01*
X104620644Y-118784085D01*
X104739488Y-118737988D01*
X104847116Y-118669685D01*
X104939428Y-118581778D01*
X105012906Y-118477616D01*
X105064754Y-118361165D01*
X105092995Y-118236861D01*
X105095028Y-118091264D01*
X105070268Y-117966220D01*
X105065000Y-117953439D01*
X105065000Y-117483507D01*
X105066209Y-117475000D01*
X105066209Y-116437500D01*
X105095000Y-116437500D01*
X105095000Y-117499623D01*
X105104607Y-117547922D01*
X105123453Y-117593419D01*
X105150812Y-117634366D01*
X105185634Y-117669188D01*
X105226580Y-117696547D01*
X105272078Y-117715393D01*
X105320377Y-117725000D01*
X105642500Y-117725000D01*
X105705000Y-117662500D01*
X105705000Y-116375000D01*
X105725000Y-116375000D01*
X105725000Y-117662500D01*
X105787500Y-117725000D01*
X106109623Y-117725000D01*
X106157922Y-117715393D01*
X106203420Y-117696547D01*
X106244366Y-117669188D01*
X106279188Y-117634366D01*
X106306547Y-117593419D01*
X106325393Y-117547922D01*
X106335000Y-117499623D01*
X106335000Y-116437500D01*
X106272500Y-116375000D01*
X105725000Y-116375000D01*
X105705000Y-116375000D01*
X105157500Y-116375000D01*
X105095000Y-116437500D01*
X105066209Y-116437500D01*
X105066209Y-115255000D01*
X105064246Y-115230377D01*
X105095000Y-115230377D01*
X105095000Y-116292500D01*
X105157500Y-116355000D01*
X105705000Y-116355000D01*
X105705000Y-115067500D01*
X105725000Y-115067500D01*
X105725000Y-116355000D01*
X106272500Y-116355000D01*
X106335000Y-116292500D01*
X106335000Y-115230377D01*
X106325393Y-115182078D01*
X106306547Y-115136581D01*
X106279188Y-115095634D01*
X106255024Y-115071470D01*
X106453882Y-115071470D01*
X106483974Y-115235425D01*
X106545338Y-115390413D01*
X106635637Y-115530530D01*
X106751432Y-115650440D01*
X106888313Y-115745574D01*
X107041065Y-115812310D01*
X107203870Y-115848105D01*
X107370527Y-115851596D01*
X107534688Y-115822650D01*
X107690100Y-115762369D01*
X107830844Y-115673050D01*
X107951559Y-115558095D01*
X108047647Y-115421882D01*
X108115447Y-115269600D01*
X108152378Y-115107049D01*
X108155037Y-114916653D01*
X108122659Y-114753134D01*
X108059137Y-114599018D01*
X107966890Y-114460176D01*
X107849432Y-114341895D01*
X107711237Y-114248681D01*
X107557568Y-114184084D01*
X107394279Y-114150566D01*
X107227590Y-114149402D01*
X107063848Y-114180637D01*
X106909293Y-114243082D01*
X106769810Y-114334357D01*
X106650711Y-114450987D01*
X106556535Y-114588528D01*
X106490867Y-114741742D01*
X106456210Y-114904793D01*
X106453882Y-115071470D01*
X106255024Y-115071470D01*
X106244366Y-115060812D01*
X106203420Y-115033453D01*
X106157922Y-115014607D01*
X106109623Y-115005000D01*
X105787500Y-115005000D01*
X105725000Y-115067500D01*
X105705000Y-115067500D01*
X105642500Y-115005000D01*
X105320377Y-115005000D01*
X105272078Y-115014607D01*
X105226580Y-115033453D01*
X105185634Y-115060812D01*
X105150812Y-115095634D01*
X105123453Y-115136581D01*
X105104607Y-115182078D01*
X105095000Y-115230377D01*
X105064246Y-115230377D01*
X105063034Y-115215189D01*
X105042123Y-115147664D01*
X105003228Y-115088638D01*
X104949429Y-115042786D01*
X104884985Y-115013737D01*
X104815000Y-115003791D01*
X104318765Y-115003791D01*
X104311183Y-114996209D01*
X104815000Y-114996209D01*
X104854811Y-114993034D01*
X104922336Y-114972123D01*
X104981362Y-114933228D01*
X105027214Y-114879429D01*
X105056263Y-114814985D01*
X105066209Y-114745000D01*
X105066209Y-113707500D01*
X105095000Y-113707500D01*
X105095000Y-114769623D01*
X105104607Y-114817922D01*
X105123453Y-114863419D01*
X105150812Y-114904366D01*
X105185634Y-114939188D01*
X105226580Y-114966547D01*
X105272078Y-114985393D01*
X105320377Y-114995000D01*
X105642500Y-114995000D01*
X105705000Y-114932500D01*
X105705000Y-113645000D01*
X105725000Y-113645000D01*
X105725000Y-114932500D01*
X105787500Y-114995000D01*
X106109623Y-114995000D01*
X106157922Y-114985393D01*
X106203420Y-114966547D01*
X106244366Y-114939188D01*
X106279188Y-114904366D01*
X106306547Y-114863419D01*
X106325393Y-114817922D01*
X106335000Y-114769623D01*
X106335000Y-113707500D01*
X106272500Y-113645000D01*
X105725000Y-113645000D01*
X105705000Y-113645000D01*
X105157500Y-113645000D01*
X105095000Y-113707500D01*
X105066209Y-113707500D01*
X105066209Y-112525000D01*
X105065000Y-112509840D01*
X105065000Y-112500377D01*
X105095000Y-112500377D01*
X105095000Y-113562500D01*
X105157500Y-113625000D01*
X105705000Y-113625000D01*
X105705000Y-112337500D01*
X105725000Y-112337500D01*
X105725000Y-113625000D01*
X106272500Y-113625000D01*
X106335000Y-113562500D01*
X106335000Y-113118421D01*
X111299699Y-113118421D01*
X111305318Y-113188886D01*
X111330346Y-113254995D01*
X111372800Y-113311515D01*
X111938485Y-113877200D01*
X111968881Y-113903106D01*
X112031415Y-113936066D01*
X112100655Y-113950301D01*
X112171120Y-113944682D01*
X112237229Y-113919654D01*
X112293749Y-113877200D01*
X112859434Y-113311515D01*
X112885340Y-113281119D01*
X112918300Y-113218585D01*
X112932535Y-113149345D01*
X112926916Y-113078880D01*
X112901888Y-113012771D01*
X112859434Y-112956251D01*
X112758270Y-112855087D01*
X112864853Y-112888488D01*
X112990969Y-112902188D01*
X113117344Y-112891132D01*
X113239165Y-112855740D01*
X113351791Y-112797360D01*
X113450934Y-112718216D01*
X113457395Y-112711843D01*
X113461843Y-112707396D01*
X113542363Y-112609369D01*
X113602311Y-112497568D01*
X113639400Y-112376253D01*
X113652220Y-112250045D01*
X113640281Y-112123750D01*
X113604039Y-112002180D01*
X113544875Y-111889964D01*
X113465041Y-111791377D01*
X113367578Y-111710174D01*
X113256199Y-111649448D01*
X113135146Y-111611512D01*
X113009030Y-111597812D01*
X112882655Y-111608868D01*
X112760834Y-111644261D01*
X112648209Y-111702640D01*
X112549066Y-111781784D01*
X112542604Y-111788157D01*
X112538157Y-111792605D01*
X112457636Y-111890632D01*
X112397689Y-112002432D01*
X112360599Y-112123747D01*
X112347780Y-112249955D01*
X112359719Y-112376250D01*
X112393818Y-112490635D01*
X112293749Y-112390566D01*
X112263353Y-112364660D01*
X112200819Y-112331700D01*
X112131579Y-112317465D01*
X112061114Y-112323084D01*
X111995005Y-112348112D01*
X111938485Y-112390566D01*
X111372800Y-112956251D01*
X111346894Y-112986647D01*
X111313934Y-113049181D01*
X111299699Y-113118421D01*
X106335000Y-113118421D01*
X106335000Y-112500377D01*
X106325393Y-112452078D01*
X106306547Y-112406581D01*
X106279188Y-112365634D01*
X106244366Y-112330812D01*
X106203420Y-112303453D01*
X106157922Y-112284607D01*
X106109623Y-112275000D01*
X105787500Y-112275000D01*
X105725000Y-112337500D01*
X105705000Y-112337500D01*
X105642500Y-112275000D01*
X105320377Y-112275000D01*
X105272078Y-112284607D01*
X105226580Y-112303453D01*
X105185634Y-112330812D01*
X105150812Y-112365634D01*
X105123453Y-112406581D01*
X105104607Y-112452078D01*
X105095000Y-112500377D01*
X105065000Y-112500377D01*
X105065000Y-111845000D01*
X105053192Y-111724575D01*
X105018219Y-111608736D01*
X104961411Y-111501897D01*
X104884934Y-111408127D01*
X104791700Y-111330997D01*
X104685260Y-111273445D01*
X104569668Y-111237663D01*
X104449328Y-111225015D01*
X104328824Y-111235982D01*
X104212744Y-111270146D01*
X104151967Y-111301920D01*
X104149960Y-111295012D01*
X104149114Y-111293379D01*
X104148581Y-111291615D01*
X104133412Y-111263086D01*
X104118525Y-111234366D01*
X104117374Y-111232924D01*
X104116512Y-111231303D01*
X104096109Y-111206286D01*
X104075909Y-111180982D01*
X104073386Y-111178425D01*
X104073340Y-111178368D01*
X104073287Y-111178324D01*
X104072477Y-111177503D01*
X101547487Y-108652513D01*
X101522533Y-108632016D01*
X101497738Y-108611210D01*
X101496122Y-108610322D01*
X101494703Y-108609156D01*
X101466228Y-108593887D01*
X101437880Y-108578303D01*
X101436127Y-108577747D01*
X101434503Y-108576876D01*
X101403572Y-108567420D01*
X101372769Y-108557648D01*
X101370939Y-108557443D01*
X101369180Y-108556905D01*
X101337026Y-108553639D01*
X101304887Y-108550034D01*
X101301291Y-108550009D01*
X101301222Y-108550002D01*
X101301158Y-108550008D01*
X101300000Y-108550000D01*
X100302733Y-108550000D01*
X100316263Y-108519985D01*
X100326209Y-108450000D01*
X100326209Y-107572501D01*
X100550000Y-107572501D01*
X100550000Y-107999624D01*
X100559607Y-108047923D01*
X100578453Y-108093421D01*
X100605812Y-108134367D01*
X100640634Y-108169189D01*
X100681581Y-108196548D01*
X100727078Y-108215394D01*
X100775377Y-108225001D01*
X101227500Y-108225001D01*
X101290000Y-108162501D01*
X101290000Y-107510001D01*
X101310000Y-107510001D01*
X101310000Y-108162501D01*
X101372500Y-108225001D01*
X101824623Y-108225001D01*
X101872922Y-108215394D01*
X101918419Y-108196548D01*
X101959366Y-108169189D01*
X101994188Y-108134367D01*
X102021547Y-108093421D01*
X102040393Y-108047923D01*
X102050000Y-107999624D01*
X102050000Y-107572501D01*
X101987500Y-107510001D01*
X101310000Y-107510001D01*
X101290000Y-107510001D01*
X100612500Y-107510001D01*
X100550000Y-107572501D01*
X100326209Y-107572501D01*
X100326209Y-107550000D01*
X100323034Y-107510189D01*
X100302123Y-107442664D01*
X100263228Y-107383638D01*
X100209429Y-107337786D01*
X100144985Y-107308737D01*
X100125000Y-107305897D01*
X100125000Y-107000378D01*
X100550000Y-107000378D01*
X100550000Y-107427501D01*
X100612500Y-107490001D01*
X101290000Y-107490001D01*
X101290000Y-106837501D01*
X101310000Y-106837501D01*
X101310000Y-107490001D01*
X101987500Y-107490001D01*
X102050000Y-107427501D01*
X102050000Y-107376470D01*
X114148882Y-107376470D01*
X114178974Y-107540425D01*
X114240338Y-107695413D01*
X114330637Y-107835530D01*
X114446432Y-107955440D01*
X114583313Y-108050574D01*
X114736065Y-108117310D01*
X114898870Y-108153105D01*
X115065527Y-108156596D01*
X115229688Y-108127650D01*
X115385100Y-108067369D01*
X115525844Y-107978050D01*
X115646559Y-107863095D01*
X115742647Y-107726882D01*
X115810447Y-107574600D01*
X115847378Y-107412049D01*
X115850037Y-107221653D01*
X115817659Y-107058134D01*
X115754137Y-106904018D01*
X115661890Y-106765176D01*
X115544432Y-106646895D01*
X115406237Y-106553681D01*
X115252568Y-106489084D01*
X115089279Y-106455566D01*
X114922590Y-106454402D01*
X114758848Y-106485637D01*
X114604293Y-106548082D01*
X114464810Y-106639357D01*
X114345711Y-106755987D01*
X114251535Y-106893528D01*
X114185867Y-107046742D01*
X114151210Y-107209793D01*
X114148882Y-107376470D01*
X102050000Y-107376470D01*
X102050000Y-107000378D01*
X102040393Y-106952079D01*
X102021547Y-106906581D01*
X101994188Y-106865635D01*
X101959366Y-106830813D01*
X101918419Y-106803454D01*
X101872922Y-106784608D01*
X101824623Y-106775001D01*
X101372500Y-106775001D01*
X101310000Y-106837501D01*
X101290000Y-106837501D01*
X101227500Y-106775001D01*
X100775377Y-106775001D01*
X100727078Y-106784608D01*
X100681581Y-106803454D01*
X100640634Y-106830813D01*
X100605812Y-106865635D01*
X100578453Y-106906581D01*
X100559607Y-106952079D01*
X100550000Y-107000378D01*
X100125000Y-107000378D01*
X100125000Y-106652413D01*
X100168362Y-106611120D01*
X100230536Y-106522982D01*
X100274407Y-106424447D01*
X100298303Y-106319267D01*
X100299664Y-106221795D01*
X100301456Y-106222781D01*
X100303044Y-106224085D01*
X100334837Y-106241132D01*
X100366363Y-106258464D01*
X100368316Y-106259084D01*
X100370124Y-106260053D01*
X100404563Y-106270582D01*
X100438914Y-106281479D01*
X100440954Y-106281708D01*
X100442914Y-106282307D01*
X100478763Y-106285949D01*
X100514555Y-106289963D01*
X100518559Y-106289991D01*
X100518638Y-106289999D01*
X100518712Y-106289992D01*
X100520000Y-106290001D01*
X100548791Y-106290001D01*
X100548791Y-106375001D01*
X100551966Y-106414812D01*
X100572877Y-106482337D01*
X100611772Y-106541363D01*
X100665571Y-106587215D01*
X100730015Y-106616264D01*
X100800000Y-106626210D01*
X101800000Y-106626210D01*
X101839811Y-106623035D01*
X101907336Y-106602124D01*
X101966362Y-106563229D01*
X102012214Y-106509430D01*
X102041263Y-106444986D01*
X102051209Y-106375001D01*
X102051209Y-106290001D01*
X102387986Y-106290001D01*
X102431357Y-106320145D01*
X102548167Y-106371178D01*
X102672665Y-106398550D01*
X102800109Y-106401220D01*
X102925644Y-106379085D01*
X103044488Y-106332988D01*
X103152116Y-106264685D01*
X103244428Y-106176778D01*
X103317906Y-106072616D01*
X103369754Y-105956165D01*
X103397995Y-105831861D01*
X103398614Y-105787500D01*
X112275000Y-105787500D01*
X112275000Y-106109623D01*
X112284607Y-106157922D01*
X112303453Y-106203420D01*
X112330812Y-106244366D01*
X112365634Y-106279188D01*
X112406581Y-106306547D01*
X112452078Y-106325393D01*
X112500377Y-106335000D01*
X113562500Y-106335000D01*
X113625000Y-106272500D01*
X113625000Y-105725000D01*
X113645000Y-105725000D01*
X113645000Y-106272500D01*
X113707500Y-106335000D01*
X114769623Y-106335000D01*
X114817922Y-106325393D01*
X114863419Y-106306547D01*
X114904366Y-106279188D01*
X114939188Y-106244366D01*
X114966547Y-106203420D01*
X114985393Y-106157922D01*
X114995000Y-106109623D01*
X114995000Y-105787500D01*
X115005000Y-105787500D01*
X115005000Y-106109623D01*
X115014607Y-106157922D01*
X115033453Y-106203420D01*
X115060812Y-106244366D01*
X115095634Y-106279188D01*
X115136581Y-106306547D01*
X115182078Y-106325393D01*
X115230377Y-106335000D01*
X116292500Y-106335000D01*
X116355000Y-106272500D01*
X116355000Y-105725000D01*
X116375000Y-105725000D01*
X116375000Y-106272500D01*
X116437500Y-106335000D01*
X117499623Y-106335000D01*
X117547922Y-106325393D01*
X117593419Y-106306547D01*
X117634366Y-106279188D01*
X117669188Y-106244366D01*
X117696547Y-106203420D01*
X117715393Y-106157922D01*
X117725000Y-106109623D01*
X117725000Y-105787500D01*
X117662500Y-105725000D01*
X116375000Y-105725000D01*
X116355000Y-105725000D01*
X115067500Y-105725000D01*
X115005000Y-105787500D01*
X114995000Y-105787500D01*
X114932500Y-105725000D01*
X113645000Y-105725000D01*
X113625000Y-105725000D01*
X112337500Y-105725000D01*
X112275000Y-105787500D01*
X103398614Y-105787500D01*
X103400028Y-105686264D01*
X103375268Y-105561220D01*
X103326693Y-105443367D01*
X103256151Y-105337193D01*
X103239452Y-105320377D01*
X112275000Y-105320377D01*
X112275000Y-105642500D01*
X112337500Y-105705000D01*
X113625000Y-105705000D01*
X113625000Y-105157500D01*
X113645000Y-105157500D01*
X113645000Y-105705000D01*
X114932500Y-105705000D01*
X114995000Y-105642500D01*
X114995000Y-105320377D01*
X115005000Y-105320377D01*
X115005000Y-105642500D01*
X115067500Y-105705000D01*
X116355000Y-105705000D01*
X116355000Y-105157500D01*
X116375000Y-105157500D01*
X116375000Y-105705000D01*
X117662500Y-105705000D01*
X117725000Y-105642500D01*
X117725000Y-105320377D01*
X117715393Y-105272078D01*
X117696547Y-105226580D01*
X117669188Y-105185634D01*
X117634366Y-105150812D01*
X117593419Y-105123453D01*
X117547922Y-105104607D01*
X117499623Y-105095000D01*
X116437500Y-105095000D01*
X116375000Y-105157500D01*
X116355000Y-105157500D01*
X116292500Y-105095000D01*
X115230377Y-105095000D01*
X115182078Y-105104607D01*
X115136581Y-105123453D01*
X115095634Y-105150812D01*
X115060812Y-105185634D01*
X115033453Y-105226580D01*
X115014607Y-105272078D01*
X115005000Y-105320377D01*
X114995000Y-105320377D01*
X114985393Y-105272078D01*
X114966547Y-105226580D01*
X114939188Y-105185634D01*
X114904366Y-105150812D01*
X114863419Y-105123453D01*
X114817922Y-105104607D01*
X114769623Y-105095000D01*
X113707500Y-105095000D01*
X113645000Y-105157500D01*
X113625000Y-105157500D01*
X113562500Y-105095000D01*
X112500377Y-105095000D01*
X112452078Y-105104607D01*
X112406581Y-105123453D01*
X112365634Y-105150812D01*
X112330812Y-105185634D01*
X112303453Y-105226580D01*
X112284607Y-105272078D01*
X112275000Y-105320377D01*
X103239452Y-105320377D01*
X103166330Y-105246743D01*
X103060652Y-105175462D01*
X102943140Y-105126065D01*
X102818272Y-105100433D01*
X102690804Y-105099543D01*
X102565590Y-105123429D01*
X102447401Y-105171181D01*
X102340737Y-105240979D01*
X102249662Y-105330166D01*
X102177645Y-105435345D01*
X102145647Y-105510001D01*
X102051209Y-105510001D01*
X102051209Y-105425001D01*
X102048034Y-105385190D01*
X102027123Y-105317665D01*
X101988228Y-105258639D01*
X101934429Y-105212787D01*
X101869985Y-105183738D01*
X101800000Y-105173792D01*
X100800000Y-105173792D01*
X100760189Y-105176967D01*
X100692664Y-105197878D01*
X100633638Y-105236773D01*
X100587786Y-105290572D01*
X100558737Y-105355016D01*
X100554733Y-105383190D01*
X99645771Y-104474228D01*
X99617886Y-104451323D01*
X99590336Y-104428206D01*
X99588543Y-104427220D01*
X99586955Y-104425916D01*
X99555162Y-104408869D01*
X99523636Y-104391537D01*
X99521683Y-104390917D01*
X99519875Y-104389948D01*
X99485436Y-104379419D01*
X99451085Y-104368522D01*
X99449045Y-104368293D01*
X99447085Y-104367694D01*
X99411236Y-104364052D01*
X99375444Y-104360038D01*
X99371440Y-104360010D01*
X99371361Y-104360002D01*
X99371287Y-104360009D01*
X99369999Y-104360000D01*
X97000000Y-104360000D01*
X96964064Y-104363523D01*
X96928259Y-104366656D01*
X96927606Y-104366846D01*
X96926921Y-104366908D01*
X96925611Y-104367293D01*
X96924249Y-104367427D01*
X96889700Y-104377858D01*
X96855166Y-104387891D01*
X96854562Y-104388204D01*
X96853903Y-104388398D01*
X96852689Y-104389033D01*
X96851383Y-104389427D01*
X96819594Y-104406330D01*
X96787591Y-104422918D01*
X96787056Y-104423345D01*
X96786450Y-104423662D01*
X96785383Y-104424519D01*
X96784177Y-104425161D01*
X96756276Y-104447916D01*
X96728105Y-104470405D01*
X96727183Y-104471314D01*
X96727131Y-104471356D01*
X96727085Y-104471411D01*
X96725248Y-104473222D01*
X96725193Y-104473267D01*
X96725151Y-104473318D01*
X96724228Y-104474228D01*
X94838456Y-106360000D01*
X92661543Y-106360000D01*
X92416636Y-106115093D01*
X92422033Y-106116805D01*
X92423990Y-106117025D01*
X92425879Y-106117602D01*
X92460402Y-106121109D01*
X92494764Y-106124963D01*
X92498614Y-106124990D01*
X92498691Y-106124998D01*
X92498762Y-106124991D01*
X92500000Y-106125000D01*
X93347510Y-106125000D01*
X93391809Y-106170873D01*
X93480379Y-106232430D01*
X93579218Y-106275612D01*
X93684563Y-106298773D01*
X93792400Y-106301032D01*
X93898621Y-106282302D01*
X93999182Y-106243297D01*
X94090252Y-106185503D01*
X94168362Y-106111120D01*
X94230536Y-106022982D01*
X94274407Y-105924447D01*
X94298303Y-105819267D01*
X94300023Y-105696070D01*
X94279073Y-105590263D01*
X94237971Y-105490541D01*
X94178282Y-105400702D01*
X94102279Y-105324167D01*
X94012859Y-105263853D01*
X93913426Y-105222055D01*
X93807769Y-105200367D01*
X93699911Y-105199614D01*
X93593961Y-105219825D01*
X93493954Y-105260230D01*
X93403701Y-105319290D01*
X93346811Y-105375000D01*
X92655330Y-105375000D01*
X91125000Y-103844670D01*
X91125000Y-102446245D01*
X101549277Y-102446245D01*
X101568748Y-102552334D01*
X101608454Y-102652620D01*
X101666883Y-102743284D01*
X101741809Y-102820873D01*
X101830379Y-102882430D01*
X101929218Y-102925612D01*
X102034563Y-102948773D01*
X102120238Y-102950568D01*
X102684835Y-103515165D01*
X102711553Y-103537111D01*
X102738137Y-103559418D01*
X102739871Y-103560371D01*
X102741390Y-103561619D01*
X102771875Y-103577966D01*
X102802272Y-103594676D01*
X102804151Y-103595272D01*
X102805889Y-103596204D01*
X102839040Y-103606339D01*
X102872033Y-103616805D01*
X102873990Y-103617025D01*
X102875879Y-103617602D01*
X102910402Y-103621109D01*
X102944764Y-103624963D01*
X102948614Y-103624990D01*
X102948691Y-103624998D01*
X102948762Y-103624991D01*
X102950000Y-103625000D01*
X105597510Y-103625000D01*
X105641809Y-103670873D01*
X105730379Y-103732430D01*
X105829218Y-103775612D01*
X105934563Y-103798773D01*
X106042400Y-103801032D01*
X106148621Y-103782302D01*
X106249182Y-103743297D01*
X106340252Y-103685503D01*
X106418362Y-103611120D01*
X106480536Y-103522982D01*
X106524407Y-103424447D01*
X106548303Y-103319267D01*
X106550023Y-103196070D01*
X106529073Y-103090263D01*
X106487971Y-102990541D01*
X106428282Y-102900702D01*
X106352279Y-102824167D01*
X106262859Y-102763853D01*
X106163426Y-102722055D01*
X106057769Y-102700367D01*
X105949911Y-102699614D01*
X105843961Y-102719825D01*
X105743954Y-102760230D01*
X105653701Y-102819290D01*
X105596811Y-102875000D01*
X103105330Y-102875000D01*
X102649009Y-102418679D01*
X102650023Y-102346070D01*
X102629073Y-102240263D01*
X102587971Y-102140541D01*
X102528282Y-102050702D01*
X102452279Y-101974167D01*
X102362859Y-101913853D01*
X102263426Y-101872055D01*
X102157769Y-101850367D01*
X102049911Y-101849614D01*
X101943961Y-101869825D01*
X101843954Y-101910230D01*
X101753701Y-101969290D01*
X101676637Y-102044756D01*
X101615699Y-102133754D01*
X101573209Y-102232892D01*
X101550783Y-102338395D01*
X101549277Y-102446245D01*
X91125000Y-102446245D01*
X91125000Y-93435000D01*
X91121620Y-93400531D01*
X91118601Y-93366018D01*
X91118050Y-93364122D01*
X91117858Y-93362162D01*
X91107852Y-93329022D01*
X91098182Y-93295736D01*
X91097274Y-93293985D01*
X91096705Y-93292099D01*
X91080450Y-93261528D01*
X91064501Y-93230760D01*
X91063270Y-93229219D01*
X91062345Y-93227478D01*
X91040444Y-93200624D01*
X91018841Y-93173563D01*
X91016137Y-93170820D01*
X91016089Y-93170762D01*
X91016035Y-93170717D01*
X91015165Y-93169835D01*
X90850000Y-93004670D01*
X90850000Y-91915160D01*
X90851966Y-91939811D01*
X90872877Y-92007336D01*
X90911772Y-92066362D01*
X90965571Y-92112214D01*
X91030015Y-92141263D01*
X91100000Y-92151209D01*
X91900000Y-92151209D01*
X91939811Y-92148034D01*
X92007336Y-92127123D01*
X92066362Y-92088228D01*
X92112214Y-92034429D01*
X92141263Y-91969985D01*
X92151209Y-91900000D01*
X92151209Y-91756930D01*
X92202958Y-91855916D01*
X92282448Y-91954781D01*
X92379626Y-92036324D01*
X92490793Y-92097438D01*
X92611712Y-92135796D01*
X92737780Y-92149937D01*
X92746855Y-92150000D01*
X92753145Y-92150000D01*
X92879397Y-92137621D01*
X93000841Y-92100955D01*
X93112850Y-92041399D01*
X93211157Y-91961221D01*
X93292019Y-91863475D01*
X93352356Y-91751885D01*
X93375064Y-91678527D01*
X93394185Y-91743494D01*
X93452958Y-91855916D01*
X93532448Y-91954781D01*
X93629626Y-92036324D01*
X93740793Y-92097438D01*
X93861712Y-92135796D01*
X93987780Y-92149937D01*
X93996855Y-92150000D01*
X94003145Y-92150000D01*
X94129397Y-92137621D01*
X94250841Y-92100955D01*
X94362850Y-92041399D01*
X94461157Y-91961221D01*
X94542019Y-91863475D01*
X94602356Y-91751885D01*
X94625064Y-91678527D01*
X94644185Y-91743494D01*
X94702958Y-91855916D01*
X94782448Y-91954781D01*
X94879626Y-92036324D01*
X94990793Y-92097438D01*
X95111712Y-92135796D01*
X95237780Y-92149937D01*
X95246855Y-92150000D01*
X95253145Y-92150000D01*
X95379397Y-92137621D01*
X95500841Y-92100955D01*
X95612850Y-92041399D01*
X95711157Y-91961221D01*
X95792019Y-91863475D01*
X95852356Y-91751885D01*
X95875064Y-91678527D01*
X95894185Y-91743494D01*
X95952958Y-91855916D01*
X96032448Y-91954781D01*
X96129626Y-92036324D01*
X96240793Y-92097438D01*
X96361712Y-92135796D01*
X96487780Y-92149937D01*
X96496855Y-92150000D01*
X96503145Y-92150000D01*
X96629397Y-92137621D01*
X96750841Y-92100955D01*
X96862850Y-92041399D01*
X96961157Y-91961221D01*
X97042019Y-91863475D01*
X97102356Y-91751885D01*
X97125064Y-91678527D01*
X97144185Y-91743494D01*
X97202958Y-91855916D01*
X97282448Y-91954781D01*
X97379626Y-92036324D01*
X97490793Y-92097438D01*
X97611712Y-92135796D01*
X97737780Y-92149937D01*
X97746855Y-92150000D01*
X97753145Y-92150000D01*
X97879397Y-92137621D01*
X98000841Y-92100955D01*
X98112850Y-92041399D01*
X98211157Y-91961221D01*
X98292019Y-91863475D01*
X98352356Y-91751885D01*
X98375064Y-91678527D01*
X98394185Y-91743494D01*
X98452958Y-91855916D01*
X98532448Y-91954781D01*
X98629626Y-92036324D01*
X98740793Y-92097438D01*
X98861712Y-92135796D01*
X98987780Y-92149937D01*
X98996855Y-92150000D01*
X99003145Y-92150000D01*
X99129397Y-92137621D01*
X99250841Y-92100955D01*
X99362850Y-92041399D01*
X99461157Y-91961221D01*
X99542019Y-91863475D01*
X99602356Y-91751885D01*
X99625064Y-91678527D01*
X99644185Y-91743494D01*
X99702958Y-91855916D01*
X99782448Y-91954781D01*
X99879626Y-92036324D01*
X99990793Y-92097438D01*
X100111712Y-92135796D01*
X100237780Y-92149937D01*
X100246855Y-92150000D01*
X100253145Y-92150000D01*
X100379397Y-92137621D01*
X100500841Y-92100955D01*
X100612850Y-92041399D01*
X100711157Y-91961221D01*
X100792019Y-91863475D01*
X100852356Y-91751885D01*
X100875064Y-91678527D01*
X100894185Y-91743494D01*
X100952958Y-91855916D01*
X101032448Y-91954781D01*
X101129626Y-92036324D01*
X101240793Y-92097438D01*
X101361712Y-92135796D01*
X101487780Y-92149937D01*
X101496855Y-92150000D01*
X101503145Y-92150000D01*
X101629397Y-92137621D01*
X101750841Y-92100955D01*
X101862850Y-92041399D01*
X101961157Y-91961221D01*
X102042019Y-91863475D01*
X102102356Y-91751885D01*
X102125064Y-91678527D01*
X102144185Y-91743494D01*
X102202958Y-91855916D01*
X102282448Y-91954781D01*
X102379626Y-92036324D01*
X102490793Y-92097438D01*
X102611712Y-92135796D01*
X102737780Y-92149937D01*
X102746855Y-92150000D01*
X102753145Y-92150000D01*
X102879397Y-92137621D01*
X103000841Y-92100955D01*
X103112850Y-92041399D01*
X103211157Y-91961221D01*
X103292019Y-91863475D01*
X103352356Y-91751885D01*
X103375064Y-91678527D01*
X103394185Y-91743494D01*
X103452958Y-91855916D01*
X103532448Y-91954781D01*
X103629626Y-92036324D01*
X103740793Y-92097438D01*
X103861712Y-92135796D01*
X103987780Y-92149937D01*
X103996855Y-92150000D01*
X104003145Y-92150000D01*
X104129397Y-92137621D01*
X104250841Y-92100955D01*
X104362850Y-92041399D01*
X104461157Y-91961221D01*
X104542019Y-91863475D01*
X104602356Y-91751885D01*
X104625064Y-91678527D01*
X104644185Y-91743494D01*
X104702958Y-91855916D01*
X104782448Y-91954781D01*
X104879626Y-92036324D01*
X104990793Y-92097438D01*
X105111712Y-92135796D01*
X105237780Y-92149937D01*
X105246855Y-92150000D01*
X105253145Y-92150000D01*
X105379397Y-92137621D01*
X105500841Y-92100955D01*
X105612850Y-92041399D01*
X105711157Y-91961221D01*
X105792019Y-91863475D01*
X105852356Y-91751885D01*
X105875064Y-91678527D01*
X105894185Y-91743494D01*
X105952958Y-91855916D01*
X106032448Y-91954781D01*
X106129626Y-92036324D01*
X106240793Y-92097438D01*
X106361712Y-92135796D01*
X106487780Y-92149937D01*
X106496855Y-92150000D01*
X106503145Y-92150000D01*
X106629397Y-92137621D01*
X106750841Y-92100955D01*
X106862850Y-92041399D01*
X106961157Y-91961221D01*
X107042019Y-91863475D01*
X107102356Y-91751885D01*
X107125064Y-91678527D01*
X107144185Y-91743494D01*
X107202958Y-91855916D01*
X107282448Y-91954781D01*
X107379626Y-92036324D01*
X107490793Y-92097438D01*
X107611712Y-92135796D01*
X107737780Y-92149937D01*
X107746855Y-92150000D01*
X107753145Y-92150000D01*
X107879397Y-92137621D01*
X108000841Y-92100955D01*
X108112850Y-92041399D01*
X108211157Y-91961221D01*
X108292019Y-91863475D01*
X108352356Y-91751885D01*
X108389869Y-91630701D01*
X108400000Y-91534309D01*
X108400000Y-102000000D01*
X108406839Y-102036346D01*
X108428319Y-102069727D01*
X108461094Y-102092121D01*
X108500000Y-102100000D01*
X108750000Y-102100000D01*
X108786346Y-102093161D01*
X108819727Y-102071681D01*
X108842121Y-102038906D01*
X108850000Y-102000000D01*
X108850000Y-98149654D01*
X111154146Y-98149654D01*
X111177157Y-98275031D01*
X111224082Y-98393551D01*
X111293135Y-98500700D01*
X111381684Y-98592395D01*
X111486357Y-98665145D01*
X111603167Y-98716178D01*
X111679387Y-98732936D01*
X111650590Y-98738429D01*
X111532401Y-98786181D01*
X111425737Y-98855979D01*
X111334662Y-98945166D01*
X111262645Y-99050345D01*
X111212428Y-99167509D01*
X111185925Y-99292195D01*
X111184146Y-99419654D01*
X111207157Y-99545031D01*
X111254082Y-99663551D01*
X111323135Y-99770700D01*
X111411684Y-99862395D01*
X111516357Y-99935145D01*
X111633167Y-99986178D01*
X111709387Y-100002936D01*
X111680590Y-100008429D01*
X111562401Y-100056181D01*
X111455737Y-100125979D01*
X111364662Y-100215166D01*
X111292645Y-100320345D01*
X111242428Y-100437509D01*
X111215925Y-100562195D01*
X111214146Y-100689654D01*
X111237157Y-100815031D01*
X111284082Y-100933551D01*
X111353135Y-101040700D01*
X111441684Y-101132395D01*
X111546357Y-101205145D01*
X111663167Y-101256178D01*
X111697576Y-101263743D01*
X111620590Y-101278429D01*
X111502401Y-101326181D01*
X111395737Y-101395979D01*
X111304662Y-101485166D01*
X111232645Y-101590345D01*
X111182428Y-101707509D01*
X111155925Y-101832195D01*
X111154146Y-101959654D01*
X111177157Y-102085031D01*
X111224082Y-102203551D01*
X111293135Y-102310700D01*
X111381684Y-102402395D01*
X111486357Y-102475145D01*
X111603167Y-102526178D01*
X111674741Y-102541914D01*
X111640590Y-102548429D01*
X111522401Y-102596181D01*
X111415737Y-102665979D01*
X111324662Y-102755166D01*
X111252645Y-102860345D01*
X111202428Y-102977509D01*
X111175925Y-103102195D01*
X111174146Y-103229654D01*
X111197157Y-103355031D01*
X111244082Y-103473551D01*
X111313135Y-103580700D01*
X111401684Y-103672395D01*
X111506357Y-103745145D01*
X111623167Y-103796178D01*
X111699387Y-103812936D01*
X111670590Y-103818429D01*
X111552401Y-103866181D01*
X111445737Y-103935979D01*
X111354662Y-104025166D01*
X111282645Y-104130345D01*
X111232428Y-104247509D01*
X111205925Y-104372195D01*
X111204146Y-104499654D01*
X111227157Y-104625031D01*
X111274082Y-104743551D01*
X111343135Y-104850700D01*
X111431684Y-104942395D01*
X111536357Y-105015145D01*
X111653167Y-105066178D01*
X111777665Y-105093550D01*
X111905109Y-105096220D01*
X112030644Y-105074085D01*
X112054066Y-105065000D01*
X112516493Y-105065000D01*
X112525000Y-105066209D01*
X114745000Y-105066209D01*
X114760160Y-105065000D01*
X115246493Y-105065000D01*
X115255000Y-105066209D01*
X117475000Y-105066209D01*
X117490160Y-105065000D01*
X117950471Y-105065000D01*
X117953167Y-105066178D01*
X118077665Y-105093550D01*
X118205109Y-105096220D01*
X118330644Y-105074085D01*
X118449488Y-105027988D01*
X118557116Y-104959685D01*
X118649428Y-104871778D01*
X118722906Y-104767616D01*
X118774754Y-104651165D01*
X118802995Y-104526861D01*
X118805028Y-104381264D01*
X118780268Y-104256220D01*
X118731693Y-104138367D01*
X118661151Y-104032193D01*
X118571330Y-103941743D01*
X118465652Y-103870462D01*
X118348140Y-103821065D01*
X118304800Y-103812168D01*
X118350644Y-103804085D01*
X118469488Y-103757988D01*
X118577116Y-103689685D01*
X118669428Y-103601778D01*
X118742906Y-103497616D01*
X118794754Y-103381165D01*
X118822995Y-103256861D01*
X118825028Y-103111264D01*
X118800268Y-102986220D01*
X118751693Y-102868367D01*
X118681151Y-102762193D01*
X118591330Y-102671743D01*
X118485652Y-102600462D01*
X118368140Y-102551065D01*
X118324800Y-102542168D01*
X118370644Y-102534085D01*
X118489488Y-102487988D01*
X118597116Y-102419685D01*
X118689428Y-102331778D01*
X118762906Y-102227616D01*
X118814754Y-102111165D01*
X118842995Y-101986861D01*
X118845028Y-101841264D01*
X118820268Y-101716220D01*
X118771693Y-101598367D01*
X118701151Y-101492193D01*
X118611330Y-101401743D01*
X118505652Y-101330462D01*
X118388140Y-101281065D01*
X118321696Y-101267426D01*
X118340644Y-101264085D01*
X118459488Y-101217988D01*
X118567116Y-101149685D01*
X118659428Y-101061778D01*
X118732906Y-100957616D01*
X118784754Y-100841165D01*
X118812995Y-100716861D01*
X118815028Y-100571264D01*
X118790268Y-100446220D01*
X118741693Y-100328367D01*
X118671151Y-100222193D01*
X118581330Y-100131743D01*
X118475652Y-100060462D01*
X118358140Y-100011065D01*
X118305559Y-100000271D01*
X118340644Y-99994085D01*
X118459488Y-99947988D01*
X118567116Y-99879685D01*
X118659428Y-99791778D01*
X118732906Y-99687616D01*
X118784754Y-99571165D01*
X118812995Y-99446861D01*
X118815028Y-99301264D01*
X118790268Y-99176220D01*
X118741693Y-99058367D01*
X118671151Y-98952193D01*
X118581330Y-98861743D01*
X118475652Y-98790462D01*
X118358140Y-98741065D01*
X118319421Y-98733117D01*
X118370644Y-98724085D01*
X118489488Y-98677988D01*
X118597116Y-98609685D01*
X118689428Y-98521778D01*
X118762906Y-98417616D01*
X118814754Y-98301165D01*
X118842995Y-98176861D01*
X118845028Y-98031264D01*
X118820268Y-97906220D01*
X118771693Y-97788367D01*
X118701151Y-97682193D01*
X118611330Y-97591743D01*
X118505652Y-97520462D01*
X118388140Y-97471065D01*
X118302297Y-97453444D01*
X118419488Y-97407988D01*
X118527116Y-97339685D01*
X118619428Y-97251778D01*
X118692906Y-97147616D01*
X118744754Y-97031165D01*
X118772995Y-96906861D01*
X118775028Y-96761264D01*
X118750268Y-96636220D01*
X118701693Y-96518367D01*
X118631151Y-96412193D01*
X118541330Y-96321743D01*
X118435652Y-96250462D01*
X118318140Y-96201065D01*
X118274800Y-96192168D01*
X118320644Y-96184085D01*
X118439488Y-96137988D01*
X118547116Y-96069685D01*
X118639428Y-95981778D01*
X118712906Y-95877616D01*
X118764754Y-95761165D01*
X118792995Y-95636861D01*
X118795028Y-95491264D01*
X118770268Y-95366220D01*
X118721693Y-95248367D01*
X118651151Y-95142193D01*
X118561330Y-95051743D01*
X118455652Y-94980462D01*
X118338140Y-94931065D01*
X118213272Y-94905433D01*
X118085804Y-94904543D01*
X117960590Y-94928429D01*
X117944326Y-94935000D01*
X117483507Y-94935000D01*
X117475000Y-94933791D01*
X115255000Y-94933791D01*
X115239840Y-94935000D01*
X114753507Y-94935000D01*
X114745000Y-94933791D01*
X112525000Y-94933791D01*
X112509840Y-94935000D01*
X112047501Y-94935000D01*
X112038140Y-94931065D01*
X111913272Y-94905433D01*
X111785804Y-94904543D01*
X111660590Y-94928429D01*
X111542401Y-94976181D01*
X111435737Y-95045979D01*
X111344662Y-95135166D01*
X111272645Y-95240345D01*
X111222428Y-95357509D01*
X111195925Y-95482195D01*
X111194146Y-95609654D01*
X111217157Y-95735031D01*
X111264082Y-95853551D01*
X111333135Y-95960700D01*
X111421684Y-96052395D01*
X111526357Y-96125145D01*
X111643167Y-96176178D01*
X111719387Y-96192936D01*
X111690590Y-96198429D01*
X111572401Y-96246181D01*
X111465737Y-96315979D01*
X111374662Y-96405166D01*
X111302645Y-96510345D01*
X111252428Y-96627509D01*
X111225925Y-96752195D01*
X111224146Y-96879654D01*
X111247157Y-97005031D01*
X111294082Y-97123551D01*
X111363135Y-97230700D01*
X111451684Y-97322395D01*
X111556357Y-97395145D01*
X111673167Y-97446178D01*
X111702930Y-97452722D01*
X111620590Y-97468429D01*
X111502401Y-97516181D01*
X111395737Y-97585979D01*
X111304662Y-97675166D01*
X111232645Y-97780345D01*
X111182428Y-97897509D01*
X111155925Y-98022195D01*
X111154146Y-98149654D01*
X108850000Y-98149654D01*
X108850000Y-94357500D01*
X112275000Y-94357500D01*
X112275000Y-94679623D01*
X112284607Y-94727922D01*
X112303453Y-94773420D01*
X112330812Y-94814366D01*
X112365634Y-94849188D01*
X112406581Y-94876547D01*
X112452078Y-94895393D01*
X112500377Y-94905000D01*
X113562500Y-94905000D01*
X113625000Y-94842500D01*
X113625000Y-94295000D01*
X113645000Y-94295000D01*
X113645000Y-94842500D01*
X113707500Y-94905000D01*
X114769623Y-94905000D01*
X114817922Y-94895393D01*
X114863419Y-94876547D01*
X114904366Y-94849188D01*
X114939188Y-94814366D01*
X114966547Y-94773420D01*
X114985393Y-94727922D01*
X114995000Y-94679623D01*
X114995000Y-94357500D01*
X115005000Y-94357500D01*
X115005000Y-94679623D01*
X115014607Y-94727922D01*
X115033453Y-94773420D01*
X115060812Y-94814366D01*
X115095634Y-94849188D01*
X115136581Y-94876547D01*
X115182078Y-94895393D01*
X115230377Y-94905000D01*
X116292500Y-94905000D01*
X116355000Y-94842500D01*
X116355000Y-94295000D01*
X116375000Y-94295000D01*
X116375000Y-94842500D01*
X116437500Y-94905000D01*
X117499623Y-94905000D01*
X117547922Y-94895393D01*
X117593419Y-94876547D01*
X117634366Y-94849188D01*
X117669188Y-94814366D01*
X117696547Y-94773420D01*
X117715393Y-94727922D01*
X117725000Y-94679623D01*
X117725000Y-94357500D01*
X117662500Y-94295000D01*
X116375000Y-94295000D01*
X116355000Y-94295000D01*
X115067500Y-94295000D01*
X115005000Y-94357500D01*
X114995000Y-94357500D01*
X114932500Y-94295000D01*
X113645000Y-94295000D01*
X113625000Y-94295000D01*
X112337500Y-94295000D01*
X112275000Y-94357500D01*
X108850000Y-94357500D01*
X108850000Y-93890377D01*
X112275000Y-93890377D01*
X112275000Y-94212500D01*
X112337500Y-94275000D01*
X113625000Y-94275000D01*
X113625000Y-93727500D01*
X113645000Y-93727500D01*
X113645000Y-94275000D01*
X114932500Y-94275000D01*
X114995000Y-94212500D01*
X114995000Y-93890377D01*
X115005000Y-93890377D01*
X115005000Y-94212500D01*
X115067500Y-94275000D01*
X116355000Y-94275000D01*
X116355000Y-93727500D01*
X116375000Y-93727500D01*
X116375000Y-94275000D01*
X117662500Y-94275000D01*
X117725000Y-94212500D01*
X117725000Y-93890377D01*
X117715393Y-93842078D01*
X117696547Y-93796580D01*
X117669188Y-93755634D01*
X117634366Y-93720812D01*
X117593419Y-93693453D01*
X117547922Y-93674607D01*
X117499623Y-93665000D01*
X116437500Y-93665000D01*
X116375000Y-93727500D01*
X116355000Y-93727500D01*
X116292500Y-93665000D01*
X115230377Y-93665000D01*
X115182078Y-93674607D01*
X115136581Y-93693453D01*
X115095634Y-93720812D01*
X115060812Y-93755634D01*
X115033453Y-93796580D01*
X115014607Y-93842078D01*
X115005000Y-93890377D01*
X114995000Y-93890377D01*
X114985393Y-93842078D01*
X114966547Y-93796580D01*
X114939188Y-93755634D01*
X114904366Y-93720812D01*
X114863419Y-93693453D01*
X114817922Y-93674607D01*
X114769623Y-93665000D01*
X113707500Y-93665000D01*
X113645000Y-93727500D01*
X113625000Y-93727500D01*
X113562500Y-93665000D01*
X112500377Y-93665000D01*
X112452078Y-93674607D01*
X112406581Y-93693453D01*
X112365634Y-93720812D01*
X112330812Y-93755634D01*
X112303453Y-93796580D01*
X112284607Y-93842078D01*
X112275000Y-93890377D01*
X108850000Y-93890377D01*
X108850000Y-92766470D01*
X114148882Y-92766470D01*
X114178974Y-92930425D01*
X114240338Y-93085413D01*
X114330637Y-93225530D01*
X114446432Y-93345440D01*
X114583313Y-93440574D01*
X114736065Y-93507310D01*
X114898870Y-93543105D01*
X115065527Y-93546596D01*
X115229688Y-93517650D01*
X115385100Y-93457369D01*
X115525844Y-93368050D01*
X115646559Y-93253095D01*
X115742647Y-93116882D01*
X115810447Y-92964600D01*
X115847378Y-92802049D01*
X115850037Y-92611653D01*
X115817659Y-92448134D01*
X115754137Y-92294018D01*
X115661890Y-92155176D01*
X115544432Y-92036895D01*
X115406237Y-91943681D01*
X115252568Y-91879084D01*
X115089279Y-91845566D01*
X114922590Y-91844402D01*
X114758848Y-91875637D01*
X114604293Y-91938082D01*
X114464810Y-92029357D01*
X114345711Y-92145987D01*
X114251535Y-92283528D01*
X114185867Y-92436742D01*
X114151210Y-92599793D01*
X114148882Y-92766470D01*
X108850000Y-92766470D01*
X108850000Y-90500000D01*
X108843161Y-90463654D01*
X108821681Y-90430273D01*
X108788906Y-90407879D01*
X108750000Y-90400000D01*
X90500000Y-90400000D01*
X90463654Y-90406839D01*
X90430273Y-90428319D01*
X90407879Y-90461094D01*
X90400000Y-90500000D01*
X90400000Y-92554670D01*
X89636987Y-91791657D01*
X89651263Y-91759985D01*
X89661209Y-91690000D01*
X89661209Y-90780000D01*
X89658034Y-90740189D01*
X89637123Y-90672664D01*
X89598228Y-90613638D01*
X89544429Y-90567786D01*
X89479985Y-90538737D01*
X89410000Y-90528791D01*
X88190000Y-90528791D01*
X88150189Y-90531966D01*
X88082664Y-90552877D01*
X88023638Y-90591772D01*
X87977786Y-90645571D01*
X87948737Y-90710015D01*
X87938791Y-90780000D01*
X87938791Y-91690000D01*
X87941966Y-91729811D01*
X87962877Y-91797336D01*
X88001772Y-91856362D01*
X88055571Y-91902214D01*
X88120015Y-91931263D01*
X88190000Y-91941209D01*
X88725879Y-91941209D01*
X90375000Y-93590330D01*
X90375000Y-104000000D01*
X90378380Y-104034473D01*
X90381399Y-104068982D01*
X90381950Y-104070878D01*
X90382142Y-104072838D01*
X90385498Y-104083954D01*
X89890000Y-103588456D01*
X89890000Y-100520000D01*
X89886481Y-100484105D01*
X89883344Y-100448259D01*
X89882774Y-100446296D01*
X89882573Y-100444249D01*
X89872142Y-100409700D01*
X89862109Y-100375166D01*
X89861166Y-100373346D01*
X89860573Y-100371383D01*
X89843670Y-100339594D01*
X89827082Y-100307591D01*
X89825801Y-100305986D01*
X89824839Y-100304177D01*
X89802084Y-100276276D01*
X89779595Y-100248105D01*
X89776778Y-100245248D01*
X89776733Y-100245193D01*
X89776682Y-100245151D01*
X89775772Y-100244228D01*
X89529301Y-99997757D01*
X89530023Y-99946070D01*
X89509073Y-99840263D01*
X89467971Y-99740541D01*
X89408282Y-99650702D01*
X89332279Y-99574167D01*
X89242859Y-99513853D01*
X89143426Y-99472055D01*
X89037769Y-99450367D01*
X88929911Y-99449614D01*
X88823961Y-99469825D01*
X88771978Y-99490827D01*
X88772337Y-99489668D01*
X88784985Y-99369328D01*
X88774018Y-99248824D01*
X88739854Y-99132744D01*
X88683794Y-99025511D01*
X88607973Y-98931209D01*
X88515280Y-98853430D01*
X88409244Y-98795136D01*
X88293905Y-98758548D01*
X88173657Y-98745060D01*
X88165000Y-98745000D01*
X87483507Y-98745000D01*
X87475000Y-98743791D01*
X85255000Y-98743791D01*
X85215189Y-98746966D01*
X85147664Y-98767877D01*
X85088638Y-98806772D01*
X85042786Y-98860571D01*
X85013737Y-98925015D01*
X85003791Y-98995000D01*
X85003791Y-99650609D01*
X84996209Y-99651352D01*
X84996209Y-98995000D01*
X84993034Y-98955189D01*
X84972123Y-98887664D01*
X84933228Y-98828638D01*
X84879429Y-98782786D01*
X84814985Y-98753737D01*
X84745000Y-98743791D01*
X82525000Y-98743791D01*
X82509840Y-98745000D01*
X82037501Y-98745000D01*
X82028140Y-98741065D01*
X82007903Y-98736911D01*
X82080644Y-98724085D01*
X82104066Y-98715000D01*
X82516493Y-98715000D01*
X82525000Y-98716209D01*
X84745000Y-98716209D01*
X84784811Y-98713034D01*
X84852336Y-98692123D01*
X84911362Y-98653228D01*
X84957214Y-98599429D01*
X84986263Y-98534985D01*
X84996209Y-98465000D01*
X84996209Y-97725000D01*
X84993034Y-97685189D01*
X84972123Y-97617664D01*
X84933228Y-97558638D01*
X84879429Y-97512786D01*
X84814985Y-97483737D01*
X84745000Y-97473791D01*
X82525000Y-97473791D01*
X82509840Y-97475000D01*
X82107501Y-97475000D01*
X82098140Y-97471065D01*
X82005758Y-97452101D01*
X82024066Y-97445000D01*
X82516493Y-97445000D01*
X82525000Y-97446209D01*
X84745000Y-97446209D01*
X84784811Y-97443034D01*
X84852336Y-97422123D01*
X84911362Y-97383228D01*
X84957214Y-97329429D01*
X84986263Y-97264985D01*
X84996209Y-97195000D01*
X84996209Y-96455000D01*
X84993034Y-96415189D01*
X84972123Y-96347664D01*
X84933228Y-96288638D01*
X84879429Y-96242786D01*
X84814985Y-96213737D01*
X84745000Y-96203791D01*
X82525000Y-96203791D01*
X82509840Y-96205000D01*
X82027501Y-96205000D01*
X82018140Y-96201065D01*
X81974800Y-96192168D01*
X82020644Y-96184085D01*
X82044066Y-96175000D01*
X82516493Y-96175000D01*
X82525000Y-96176209D01*
X84745000Y-96176209D01*
X84784811Y-96173034D01*
X84852336Y-96152123D01*
X84911362Y-96113228D01*
X84957214Y-96059429D01*
X84986263Y-95994985D01*
X84996209Y-95925000D01*
X84996209Y-95185000D01*
X85003791Y-95185000D01*
X85003791Y-95925000D01*
X85006966Y-95964811D01*
X85027877Y-96032336D01*
X85066772Y-96091362D01*
X85120571Y-96137214D01*
X85185015Y-96166263D01*
X85255000Y-96176209D01*
X87475000Y-96176209D01*
X87490160Y-96175000D01*
X87940471Y-96175000D01*
X87943167Y-96176178D01*
X87996159Y-96187829D01*
X87940590Y-96198429D01*
X87924326Y-96205000D01*
X87483507Y-96205000D01*
X87475000Y-96203791D01*
X85255000Y-96203791D01*
X85215189Y-96206966D01*
X85147664Y-96227877D01*
X85088638Y-96266772D01*
X85042786Y-96320571D01*
X85013737Y-96385015D01*
X85003791Y-96455000D01*
X85003791Y-97195000D01*
X85006966Y-97234811D01*
X85027877Y-97302336D01*
X85066772Y-97361362D01*
X85120571Y-97407214D01*
X85185015Y-97436263D01*
X85255000Y-97446209D01*
X87475000Y-97446209D01*
X87490160Y-97445000D01*
X87920471Y-97445000D01*
X87923167Y-97446178D01*
X88017970Y-97467021D01*
X88010590Y-97468429D01*
X87994326Y-97475000D01*
X87483507Y-97475000D01*
X87475000Y-97473791D01*
X85255000Y-97473791D01*
X85215189Y-97476966D01*
X85147664Y-97497877D01*
X85088638Y-97536772D01*
X85042786Y-97590571D01*
X85013737Y-97655015D01*
X85003791Y-97725000D01*
X85003791Y-98465000D01*
X85006966Y-98504811D01*
X85027877Y-98572336D01*
X85066772Y-98631362D01*
X85120571Y-98677214D01*
X85185015Y-98706263D01*
X85255000Y-98716209D01*
X87475000Y-98716209D01*
X87490160Y-98715000D01*
X87990471Y-98715000D01*
X87993167Y-98716178D01*
X88117665Y-98743550D01*
X88245109Y-98746220D01*
X88370644Y-98724085D01*
X88489488Y-98677988D01*
X88597116Y-98609685D01*
X88689428Y-98521778D01*
X88762906Y-98417616D01*
X88814754Y-98301165D01*
X88842995Y-98176861D01*
X88845028Y-98031264D01*
X88820268Y-97906220D01*
X88771693Y-97788367D01*
X88701151Y-97682193D01*
X88611330Y-97591743D01*
X88505652Y-97520462D01*
X88388140Y-97471065D01*
X88302297Y-97453444D01*
X88419488Y-97407988D01*
X88527116Y-97339685D01*
X88619428Y-97251778D01*
X88692906Y-97147616D01*
X88744754Y-97031165D01*
X88772995Y-96906861D01*
X88775028Y-96761264D01*
X88750268Y-96636220D01*
X88701693Y-96518367D01*
X88631151Y-96412193D01*
X88541330Y-96321743D01*
X88435652Y-96250462D01*
X88318140Y-96201065D01*
X88274800Y-96192168D01*
X88320644Y-96184085D01*
X88439488Y-96137988D01*
X88547116Y-96069685D01*
X88639428Y-95981778D01*
X88712906Y-95877616D01*
X88764754Y-95761165D01*
X88792995Y-95636861D01*
X88795028Y-95491264D01*
X88770268Y-95366220D01*
X88721693Y-95248367D01*
X88651151Y-95142193D01*
X88561330Y-95051743D01*
X88455652Y-94980462D01*
X88338140Y-94931065D01*
X88213272Y-94905433D01*
X88085804Y-94904543D01*
X87960590Y-94928429D01*
X87944326Y-94935000D01*
X87483507Y-94935000D01*
X87475000Y-94933791D01*
X85255000Y-94933791D01*
X85215189Y-94936966D01*
X85147664Y-94957877D01*
X85088638Y-94996772D01*
X85042786Y-95050571D01*
X85013737Y-95115015D01*
X85003791Y-95185000D01*
X84996209Y-95185000D01*
X84993034Y-95145189D01*
X84972123Y-95077664D01*
X84933228Y-95018638D01*
X84879429Y-94972786D01*
X84814985Y-94943737D01*
X84745000Y-94933791D01*
X82525000Y-94933791D01*
X82509840Y-94935000D01*
X82047501Y-94935000D01*
X82038140Y-94931065D01*
X81913272Y-94905433D01*
X81785804Y-94904543D01*
X81660590Y-94928429D01*
X81542401Y-94976181D01*
X81435737Y-95045979D01*
X81344662Y-95135166D01*
X81272645Y-95240345D01*
X81222428Y-95357509D01*
X81195925Y-95482195D01*
X81194146Y-95609654D01*
X81217157Y-95735031D01*
X81264082Y-95853551D01*
X81333135Y-95960700D01*
X81421684Y-96052395D01*
X81526357Y-96125145D01*
X81643167Y-96176178D01*
X81696159Y-96187829D01*
X81640590Y-96198429D01*
X81522401Y-96246181D01*
X81415737Y-96315979D01*
X81324662Y-96405166D01*
X81252645Y-96510345D01*
X81202428Y-96627509D01*
X81175925Y-96752195D01*
X81174146Y-96879654D01*
X81197157Y-97005031D01*
X81244082Y-97123551D01*
X81313135Y-97230700D01*
X81401684Y-97322395D01*
X81506357Y-97395145D01*
X81623167Y-97446178D01*
X81722615Y-97468043D01*
X81720590Y-97468429D01*
X81602401Y-97516181D01*
X81495737Y-97585979D01*
X81404662Y-97675166D01*
X81332645Y-97780345D01*
X81282428Y-97897509D01*
X81255925Y-98022195D01*
X81254146Y-98149654D01*
X81277157Y-98275031D01*
X81324082Y-98393551D01*
X81393135Y-98500700D01*
X81481684Y-98592395D01*
X81586357Y-98665145D01*
X81703167Y-98716178D01*
X81732930Y-98722722D01*
X81650590Y-98738429D01*
X81532401Y-98786181D01*
X81425737Y-98855979D01*
X81334662Y-98945166D01*
X81262645Y-99050345D01*
X81212428Y-99167509D01*
X81185925Y-99292195D01*
X81184146Y-99419654D01*
X81207157Y-99545031D01*
X81254082Y-99663551D01*
X81323135Y-99770700D01*
X81411684Y-99862395D01*
X81516357Y-99935145D01*
X81633167Y-99986178D01*
X81709387Y-100002936D01*
X81680590Y-100008429D01*
X81562401Y-100056181D01*
X81455737Y-100125979D01*
X81364662Y-100215166D01*
X81292645Y-100320345D01*
X81242428Y-100437509D01*
X81215925Y-100562195D01*
X81214146Y-100689654D01*
X81237157Y-100815031D01*
X81284082Y-100933551D01*
X81353135Y-101040700D01*
X81441684Y-101132395D01*
X81546357Y-101205145D01*
X81663167Y-101256178D01*
X81697576Y-101263743D01*
X81620590Y-101278429D01*
X81502401Y-101326181D01*
X81395737Y-101395979D01*
X81304662Y-101485166D01*
X81232645Y-101590345D01*
X81182428Y-101707509D01*
X81155925Y-101832195D01*
X81154146Y-101959654D01*
X80479001Y-101959654D01*
X80361439Y-98812323D01*
X80966139Y-95020462D01*
X81210861Y-94357500D01*
X82275000Y-94357500D01*
X82275000Y-94679623D01*
X82284607Y-94727922D01*
X82303453Y-94773420D01*
X82330812Y-94814366D01*
X82365634Y-94849188D01*
X82406581Y-94876547D01*
X82452078Y-94895393D01*
X82500377Y-94905000D01*
X83562500Y-94905000D01*
X83625000Y-94842500D01*
X83625000Y-94295000D01*
X83645000Y-94295000D01*
X83645000Y-94842500D01*
X83707500Y-94905000D01*
X84769623Y-94905000D01*
X84817922Y-94895393D01*
X84863419Y-94876547D01*
X84904366Y-94849188D01*
X84939188Y-94814366D01*
X84966547Y-94773420D01*
X84985393Y-94727922D01*
X84995000Y-94679623D01*
X84995000Y-94357500D01*
X85005000Y-94357500D01*
X85005000Y-94679623D01*
X85014607Y-94727922D01*
X85033453Y-94773420D01*
X85060812Y-94814366D01*
X85095634Y-94849188D01*
X85136581Y-94876547D01*
X85182078Y-94895393D01*
X85230377Y-94905000D01*
X86292500Y-94905000D01*
X86355000Y-94842500D01*
X86355000Y-94295000D01*
X86375000Y-94295000D01*
X86375000Y-94842500D01*
X86437500Y-94905000D01*
X87499623Y-94905000D01*
X87547922Y-94895393D01*
X87593419Y-94876547D01*
X87634366Y-94849188D01*
X87669188Y-94814366D01*
X87696547Y-94773420D01*
X87715393Y-94727922D01*
X87725000Y-94679623D01*
X87725000Y-94357500D01*
X87662500Y-94295000D01*
X86375000Y-94295000D01*
X86355000Y-94295000D01*
X85067500Y-94295000D01*
X85005000Y-94357500D01*
X84995000Y-94357500D01*
X84932500Y-94295000D01*
X83645000Y-94295000D01*
X83625000Y-94295000D01*
X82337500Y-94295000D01*
X82275000Y-94357500D01*
X81210861Y-94357500D01*
X81383292Y-93890377D01*
X82275000Y-93890377D01*
X82275000Y-94212500D01*
X82337500Y-94275000D01*
X83625000Y-94275000D01*
X83625000Y-93727500D01*
X83645000Y-93727500D01*
X83645000Y-94275000D01*
X84932500Y-94275000D01*
X84995000Y-94212500D01*
X84995000Y-93890377D01*
X85005000Y-93890377D01*
X85005000Y-94212500D01*
X85067500Y-94275000D01*
X86355000Y-94275000D01*
X86355000Y-93727500D01*
X86375000Y-93727500D01*
X86375000Y-94275000D01*
X87662500Y-94275000D01*
X87725000Y-94212500D01*
X87725000Y-93890377D01*
X87715393Y-93842078D01*
X87696547Y-93796580D01*
X87669188Y-93755634D01*
X87634366Y-93720812D01*
X87593419Y-93693453D01*
X87547922Y-93674607D01*
X87499623Y-93665000D01*
X86437500Y-93665000D01*
X86375000Y-93727500D01*
X86355000Y-93727500D01*
X86292500Y-93665000D01*
X85230377Y-93665000D01*
X85182078Y-93674607D01*
X85136581Y-93693453D01*
X85095634Y-93720812D01*
X85060812Y-93755634D01*
X85033453Y-93796580D01*
X85014607Y-93842078D01*
X85005000Y-93890377D01*
X84995000Y-93890377D01*
X84985393Y-93842078D01*
X84966547Y-93796580D01*
X84939188Y-93755634D01*
X84904366Y-93720812D01*
X84863419Y-93693453D01*
X84817922Y-93674607D01*
X84769623Y-93665000D01*
X83707500Y-93665000D01*
X83645000Y-93727500D01*
X83625000Y-93727500D01*
X83562500Y-93665000D01*
X82500377Y-93665000D01*
X82452078Y-93674607D01*
X82406581Y-93693453D01*
X82365634Y-93720812D01*
X82330812Y-93755634D01*
X82303453Y-93796580D01*
X82284607Y-93842078D01*
X82275000Y-93890377D01*
X81383292Y-93890377D01*
X81798165Y-92766470D01*
X84148882Y-92766470D01*
X84178974Y-92930425D01*
X84240338Y-93085413D01*
X84330637Y-93225530D01*
X84446432Y-93345440D01*
X84583313Y-93440574D01*
X84736065Y-93507310D01*
X84898870Y-93543105D01*
X85065527Y-93546596D01*
X85229688Y-93517650D01*
X85385100Y-93457369D01*
X85525844Y-93368050D01*
X85646559Y-93253095D01*
X85742647Y-93116882D01*
X85810447Y-92964600D01*
X85847378Y-92802049D01*
X85850037Y-92611653D01*
X85817659Y-92448134D01*
X85754137Y-92294018D01*
X85661890Y-92155176D01*
X85544432Y-92036895D01*
X85406237Y-91943681D01*
X85252568Y-91879084D01*
X85089279Y-91845566D01*
X84922590Y-91844402D01*
X84758848Y-91875637D01*
X84604293Y-91938082D01*
X84464810Y-92029357D01*
X84345711Y-92145987D01*
X84251535Y-92283528D01*
X84185867Y-92436742D01*
X84151210Y-92599793D01*
X84148882Y-92766470D01*
X81798165Y-92766470D01*
X82295834Y-91418266D01*
X84305627Y-88133545D01*
X84382849Y-88037500D01*
X87940000Y-88037500D01*
X87940000Y-88444623D01*
X87949607Y-88492922D01*
X87968453Y-88538420D01*
X87995812Y-88579366D01*
X88030634Y-88614188D01*
X88071581Y-88641547D01*
X88117078Y-88660393D01*
X88165377Y-88670000D01*
X88727500Y-88670000D01*
X88790000Y-88607500D01*
X88790000Y-87975000D01*
X88810000Y-87975000D01*
X88810000Y-88607500D01*
X88872500Y-88670000D01*
X89434623Y-88670000D01*
X89482922Y-88660393D01*
X89528419Y-88641547D01*
X89569366Y-88614188D01*
X89604188Y-88579366D01*
X89631547Y-88538420D01*
X89650393Y-88492922D01*
X89660000Y-88444623D01*
X89660000Y-88037500D01*
X89597500Y-87975000D01*
X88810000Y-87975000D01*
X88790000Y-87975000D01*
X88002500Y-87975000D01*
X87940000Y-88037500D01*
X84382849Y-88037500D01*
X84955714Y-87325000D01*
X88021446Y-87325000D01*
X87995812Y-87350634D01*
M02*
