G04 #@! TF.FileFunction,Soldermask,Top*
%FSLAX46Y46*%
G04 Gerber Fmt 4.6, Leading zero omitted, Abs format (unit mm)*
G04 Created by KiCad (PCBNEW 4.0.2+e4-6225~38~ubuntu14.04.1-stable) date Tue 28 Jun 2016 16:09:10 BST*
%MOMM*%
G01*
G04 APERTURE LIST*
%ADD10C,0.100000*%
%ADD11R,1.500000X0.300000*%
%ADD12R,0.300000X1.500000*%
%ADD13C,0.800000*%
%ADD14R,0.800000X0.800000*%
%ADD15O,0.800000X0.800000*%
%ADD16R,2.920000X0.740000*%
%ADD17C,1.200000*%
%ADD18R,0.740000X2.920000*%
%ADD19R,0.900000X0.750000*%
%ADD20R,0.750000X0.900000*%
%ADD21R,1.450000X1.150000*%
G04 APERTURE END LIST*
D10*
D11*
X104200000Y-106250000D03*
X104200000Y-105750000D03*
X104200000Y-105250000D03*
X104200000Y-104750000D03*
X104200000Y-104250000D03*
X104200000Y-103750000D03*
X104200000Y-103250000D03*
X104200000Y-102750000D03*
X104200000Y-102250000D03*
X104200000Y-101750000D03*
X104200000Y-101250000D03*
X104200000Y-100750000D03*
D12*
X102750000Y-99300000D03*
X102250000Y-99300000D03*
X101750000Y-99300000D03*
X101250000Y-99300000D03*
X100750000Y-99300000D03*
X100250000Y-99300000D03*
X99750000Y-99300000D03*
X99250000Y-99300000D03*
X98750000Y-99300000D03*
X98250000Y-99300000D03*
X97750000Y-99300000D03*
X97250000Y-99300000D03*
D11*
X95800000Y-100750000D03*
X95800000Y-101250000D03*
X95800000Y-101750000D03*
X95800000Y-102250000D03*
X95800000Y-102750000D03*
X95800000Y-103250000D03*
X95800000Y-103750000D03*
X95800000Y-104250000D03*
X95800000Y-104750000D03*
X95800000Y-105250000D03*
X95800000Y-105750000D03*
X95800000Y-106250000D03*
D12*
X97250000Y-107700000D03*
X97750000Y-107700000D03*
X98250000Y-107700000D03*
X98750000Y-107700000D03*
X99250000Y-107700000D03*
X99750000Y-107700000D03*
X100250000Y-107700000D03*
X100750000Y-107700000D03*
X101250000Y-107700000D03*
X101750000Y-107700000D03*
X102250000Y-107700000D03*
X102750000Y-107700000D03*
D10*
G36*
X112116117Y-113699568D02*
X111550432Y-113133883D01*
X112116117Y-112568198D01*
X112681802Y-113133883D01*
X112116117Y-113699568D01*
X112116117Y-113699568D01*
G37*
D13*
X113000000Y-112250000D02*
X113000000Y-112250000D01*
D10*
G36*
X86450432Y-112366117D02*
X87016117Y-111800432D01*
X87581802Y-112366117D01*
X87016117Y-112931802D01*
X86450432Y-112366117D01*
X86450432Y-112366117D01*
G37*
D13*
X87900000Y-113250000D02*
X87900000Y-113250000D01*
D14*
X91500000Y-91500000D03*
D15*
X92750000Y-91500000D03*
X94000000Y-91500000D03*
X95250000Y-91500000D03*
X96500000Y-91500000D03*
X97750000Y-91500000D03*
X99000000Y-91500000D03*
X100250000Y-91500000D03*
X101500000Y-91500000D03*
X102750000Y-91500000D03*
X104000000Y-91500000D03*
X105250000Y-91500000D03*
X106500000Y-91500000D03*
X107750000Y-91500000D03*
D16*
X83285000Y-94285000D03*
X86715000Y-94285000D03*
X83285000Y-95555000D03*
X86715000Y-95555000D03*
X83285000Y-96825000D03*
X86715000Y-96825000D03*
X83285000Y-98095000D03*
X86715000Y-98095000D03*
X83285000Y-99365000D03*
X86715000Y-99365000D03*
X83285000Y-100635000D03*
X86715000Y-100635000D03*
X83285000Y-101905000D03*
X86715000Y-101905000D03*
X83285000Y-103175000D03*
X86715000Y-103175000D03*
X83285000Y-104445000D03*
X86715000Y-104445000D03*
X83285000Y-105715000D03*
X86715000Y-105715000D03*
X113285000Y-94285000D03*
X116715000Y-94285000D03*
X113285000Y-95555000D03*
X116715000Y-95555000D03*
X113285000Y-96825000D03*
X116715000Y-96825000D03*
X113285000Y-98095000D03*
X116715000Y-98095000D03*
X113285000Y-99365000D03*
X116715000Y-99365000D03*
X113285000Y-100635000D03*
X116715000Y-100635000D03*
X113285000Y-101905000D03*
X116715000Y-101905000D03*
X113285000Y-103175000D03*
X116715000Y-103175000D03*
X113285000Y-104445000D03*
X116715000Y-104445000D03*
X113285000Y-105715000D03*
X116715000Y-105715000D03*
D17*
X85000000Y-107305000D03*
X85000000Y-92695000D03*
X115000000Y-107305000D03*
X115000000Y-92695000D03*
D18*
X94285000Y-116715000D03*
X94285000Y-113285000D03*
X95555000Y-116715000D03*
X95555000Y-113285000D03*
X96825000Y-116715000D03*
X96825000Y-113285000D03*
X98095000Y-116715000D03*
X98095000Y-113285000D03*
X99365000Y-116715000D03*
X99365000Y-113285000D03*
X100635000Y-116715000D03*
X100635000Y-113285000D03*
X101905000Y-116715000D03*
X101905000Y-113285000D03*
X103175000Y-116715000D03*
X103175000Y-113285000D03*
X104445000Y-116715000D03*
X104445000Y-113285000D03*
X105715000Y-116715000D03*
X105715000Y-113285000D03*
D17*
X107305000Y-115000000D03*
X92695000Y-115000000D03*
D19*
X91500000Y-93950000D03*
X91500000Y-92550000D03*
X92750000Y-93950000D03*
X92750000Y-92550000D03*
X101500000Y-93950000D03*
X101500000Y-92550000D03*
X102750000Y-93950000D03*
X102750000Y-92550000D03*
X94000000Y-93950000D03*
X94000000Y-92550000D03*
X95250000Y-93950000D03*
X95250000Y-92550000D03*
X104000000Y-93950000D03*
X104000000Y-92550000D03*
X105250000Y-93950000D03*
X105250000Y-92550000D03*
X96500000Y-93950000D03*
X96500000Y-92550000D03*
X97750000Y-93950000D03*
X97750000Y-92550000D03*
X106500000Y-93950000D03*
X106500000Y-92550000D03*
X107750000Y-93950000D03*
X107750000Y-92550000D03*
D10*
G36*
X88661612Y-109951992D02*
X89298008Y-110588388D01*
X88767678Y-111118718D01*
X88131282Y-110482322D01*
X88661612Y-109951992D01*
X88661612Y-109951992D01*
G37*
G36*
X87671662Y-110941942D02*
X88308058Y-111578338D01*
X87777728Y-112108668D01*
X87141332Y-111472272D01*
X87671662Y-110941942D01*
X87671662Y-110941942D01*
G37*
G36*
X89691942Y-110921662D02*
X90328338Y-111558058D01*
X89798008Y-112088388D01*
X89161612Y-111451992D01*
X89691942Y-110921662D01*
X89691942Y-110921662D01*
G37*
G36*
X88701992Y-111911612D02*
X89338388Y-112548008D01*
X88808058Y-113078338D01*
X88171662Y-112441942D01*
X88701992Y-111911612D01*
X88701992Y-111911612D01*
G37*
D19*
X99000000Y-93950000D03*
X99000000Y-92550000D03*
X100250000Y-93950000D03*
X100250000Y-92550000D03*
D10*
G36*
X109671662Y-111308058D02*
X110308058Y-110671662D01*
X110838388Y-111201992D01*
X110201992Y-111838388D01*
X109671662Y-111308058D01*
X109671662Y-111308058D01*
G37*
G36*
X110661612Y-112298008D02*
X111298008Y-111661612D01*
X111828338Y-112191942D01*
X111191942Y-112828338D01*
X110661612Y-112298008D01*
X110661612Y-112298008D01*
G37*
G36*
X110671662Y-110308058D02*
X111308058Y-109671662D01*
X111838388Y-110201992D01*
X111201992Y-110838388D01*
X110671662Y-110308058D01*
X110671662Y-110308058D01*
G37*
G36*
X111661612Y-111298008D02*
X112298008Y-110661612D01*
X112828338Y-111191942D01*
X112191942Y-111828338D01*
X111661612Y-111298008D01*
X111661612Y-111298008D01*
G37*
D19*
X92750000Y-96200000D03*
X92750000Y-94800000D03*
X102750000Y-96200000D03*
X102750000Y-94800000D03*
X95250000Y-96200000D03*
X95250000Y-94800000D03*
X105250000Y-96200000D03*
X105250000Y-94800000D03*
X97750000Y-96200000D03*
X97750000Y-94800000D03*
X107750000Y-96200000D03*
X107750000Y-94800000D03*
D10*
G36*
X91441942Y-109171662D02*
X92078338Y-109808058D01*
X91548008Y-110338388D01*
X90911612Y-109701992D01*
X91441942Y-109171662D01*
X91441942Y-109171662D01*
G37*
G36*
X90451992Y-110161612D02*
X91088388Y-110798008D01*
X90558058Y-111328338D01*
X89921662Y-110691942D01*
X90451992Y-110161612D01*
X90451992Y-110161612D01*
G37*
D19*
X100250000Y-96200000D03*
X100250000Y-94800000D03*
D10*
G36*
X108921662Y-108558058D02*
X109558058Y-107921662D01*
X110088388Y-108451992D01*
X109451992Y-109088388D01*
X108921662Y-108558058D01*
X108921662Y-108558058D01*
G37*
G36*
X109911612Y-109548008D02*
X110548008Y-108911612D01*
X111078338Y-109441942D01*
X110441942Y-110078338D01*
X109911612Y-109548008D01*
X109911612Y-109548008D01*
G37*
D20*
X102300000Y-110500000D03*
X103700000Y-110500000D03*
D19*
X100000000Y-110700000D03*
X100000000Y-109300000D03*
D20*
X107450000Y-101250000D03*
X106050000Y-101250000D03*
X105950000Y-99500000D03*
X104550000Y-99500000D03*
D21*
X105350000Y-108350000D03*
X105350000Y-110150000D03*
M02*
