G04 #@! TF.FileFunction,Legend,Bot*
%FSLAX46Y46*%
G04 Gerber Fmt 4.6, Leading zero omitted, Abs format (unit mm)*
G04 Created by KiCad (PCBNEW 4.0.2+e4-6225~38~ubuntu14.04.1-stable) date Fri 17 Jun 2016 18:56:52 BST*
%MOMM*%
G01*
G04 APERTURE LIST*
%ADD10C,0.100000*%
%ADD11C,0.120000*%
%ADD12C,0.150000*%
%ADD13C,0.800000*%
%ADD14R,0.800000X0.800000*%
%ADD15O,0.800000X0.800000*%
%ADD16R,2.220000X0.740000*%
%ADD17C,1.200000*%
%ADD18R,0.740000X2.220000*%
%ADD19R,1.220000X0.910000*%
%ADD20R,0.750000X0.900000*%
%ADD21R,1.000000X0.950000*%
G04 APERTURE END LIST*
D10*
D11*
X101785715Y-105114286D02*
X101814286Y-105142857D01*
X101900000Y-105171429D01*
X101957143Y-105171429D01*
X102042858Y-105142857D01*
X102100000Y-105085714D01*
X102128572Y-105028571D01*
X102157143Y-104914286D01*
X102157143Y-104828571D01*
X102128572Y-104714286D01*
X102100000Y-104657143D01*
X102042858Y-104600000D01*
X101957143Y-104571429D01*
X101900000Y-104571429D01*
X101814286Y-104600000D01*
X101785715Y-104628571D01*
X101214286Y-105171429D02*
X101557143Y-105171429D01*
X101385715Y-105171429D02*
X101385715Y-104571429D01*
X101442858Y-104657143D01*
X101500000Y-104714286D01*
X101557143Y-104742857D01*
X100671429Y-104571429D02*
X100957143Y-104571429D01*
X100985714Y-104857143D01*
X100957143Y-104828571D01*
X100900000Y-104800000D01*
X100757143Y-104800000D01*
X100700000Y-104828571D01*
X100671429Y-104857143D01*
X100642857Y-104914286D01*
X100642857Y-105057143D01*
X100671429Y-105114286D01*
X100700000Y-105142857D01*
X100757143Y-105171429D01*
X100900000Y-105171429D01*
X100957143Y-105142857D01*
X100985714Y-105114286D01*
D10*
X110233333Y-102736667D02*
X110233333Y-102270000D01*
X110233333Y-102336667D02*
X110200000Y-102303333D01*
X110133333Y-102270000D01*
X110033333Y-102270000D01*
X109966667Y-102303333D01*
X109933333Y-102370000D01*
X109933333Y-102736667D01*
X109933333Y-102370000D02*
X109900000Y-102303333D01*
X109833333Y-102270000D01*
X109733333Y-102270000D01*
X109666667Y-102303333D01*
X109633333Y-102370000D01*
X109633333Y-102736667D01*
X109366667Y-102036667D02*
X108933334Y-102036667D01*
X109166667Y-102303333D01*
X109066667Y-102303333D01*
X109000000Y-102336667D01*
X108966667Y-102370000D01*
X108933334Y-102436667D01*
X108933334Y-102603333D01*
X108966667Y-102670000D01*
X109000000Y-102703333D01*
X109066667Y-102736667D01*
X109266667Y-102736667D01*
X109333334Y-102703333D01*
X109366667Y-102670000D01*
X108333333Y-102736667D02*
X108333333Y-102036667D01*
X108333333Y-102703333D02*
X108400000Y-102736667D01*
X108533333Y-102736667D01*
X108600000Y-102703333D01*
X108633333Y-102670000D01*
X108666667Y-102603333D01*
X108666667Y-102403333D01*
X108633333Y-102336667D01*
X108600000Y-102303333D01*
X108533333Y-102270000D01*
X108400000Y-102270000D01*
X108333333Y-102303333D01*
X107900000Y-102736667D02*
X107966667Y-102703333D01*
X108000000Y-102636667D01*
X108000000Y-102036667D01*
X107100000Y-102470000D02*
X106566667Y-102470000D01*
X105800000Y-102036667D02*
X105400000Y-102036667D01*
X105600000Y-102736667D02*
X105600000Y-102036667D01*
X104900001Y-102703333D02*
X104966667Y-102736667D01*
X105100001Y-102736667D01*
X105166667Y-102703333D01*
X105200001Y-102636667D01*
X105200001Y-102370000D01*
X105166667Y-102303333D01*
X105100001Y-102270000D01*
X104966667Y-102270000D01*
X104900001Y-102303333D01*
X104866667Y-102370000D01*
X104866667Y-102436667D01*
X105200001Y-102503333D01*
X104566667Y-102736667D02*
X104566667Y-102270000D01*
X104566667Y-102336667D02*
X104533334Y-102303333D01*
X104466667Y-102270000D01*
X104366667Y-102270000D01*
X104300001Y-102303333D01*
X104266667Y-102370000D01*
X104266667Y-102736667D01*
X104266667Y-102370000D02*
X104233334Y-102303333D01*
X104166667Y-102270000D01*
X104066667Y-102270000D01*
X104000001Y-102303333D01*
X103966667Y-102370000D01*
X103966667Y-102736667D01*
X103633334Y-102270000D02*
X103633334Y-102970000D01*
X103633334Y-102303333D02*
X103566668Y-102270000D01*
X103433334Y-102270000D01*
X103366668Y-102303333D01*
X103333334Y-102336667D01*
X103300001Y-102403333D01*
X103300001Y-102603333D01*
X103333334Y-102670000D01*
X103366668Y-102703333D01*
X103433334Y-102736667D01*
X103566668Y-102736667D01*
X103633334Y-102703333D01*
X102466668Y-102736667D02*
X102466668Y-102270000D01*
X102466668Y-102403333D02*
X102433335Y-102336667D01*
X102400002Y-102303333D01*
X102333335Y-102270000D01*
X102266668Y-102270000D01*
X101666669Y-102736667D02*
X102066669Y-102736667D01*
X101866669Y-102736667D02*
X101866669Y-102036667D01*
X101933335Y-102136667D01*
X102000002Y-102203333D01*
X102066669Y-102236667D01*
X110233333Y-103816667D02*
X110233333Y-103116667D01*
X110000000Y-103616667D01*
X109766667Y-103116667D01*
X109766667Y-103816667D01*
X109133333Y-103816667D02*
X109133333Y-103450000D01*
X109166667Y-103383333D01*
X109233333Y-103350000D01*
X109366667Y-103350000D01*
X109433333Y-103383333D01*
X109133333Y-103783333D02*
X109200000Y-103816667D01*
X109366667Y-103816667D01*
X109433333Y-103783333D01*
X109466667Y-103716667D01*
X109466667Y-103650000D01*
X109433333Y-103583333D01*
X109366667Y-103550000D01*
X109200000Y-103550000D01*
X109133333Y-103516667D01*
X108900000Y-103350000D02*
X108633334Y-103350000D01*
X108800000Y-103116667D02*
X108800000Y-103716667D01*
X108766667Y-103783333D01*
X108700000Y-103816667D01*
X108633334Y-103816667D01*
X108500000Y-103350000D02*
X108233334Y-103350000D01*
X108400000Y-103116667D02*
X108400000Y-103716667D01*
X108366667Y-103783333D01*
X108300000Y-103816667D01*
X108233334Y-103816667D01*
X107066667Y-103750000D02*
X107100001Y-103783333D01*
X107200001Y-103816667D01*
X107266667Y-103816667D01*
X107366667Y-103783333D01*
X107433334Y-103716667D01*
X107466667Y-103650000D01*
X107500001Y-103516667D01*
X107500001Y-103416667D01*
X107466667Y-103283333D01*
X107433334Y-103216667D01*
X107366667Y-103150000D01*
X107266667Y-103116667D01*
X107200001Y-103116667D01*
X107100001Y-103150000D01*
X107066667Y-103183333D01*
X106666667Y-103816667D02*
X106733334Y-103783333D01*
X106766667Y-103750000D01*
X106800001Y-103683333D01*
X106800001Y-103483333D01*
X106766667Y-103416667D01*
X106733334Y-103383333D01*
X106666667Y-103350000D01*
X106566667Y-103350000D01*
X106500001Y-103383333D01*
X106466667Y-103416667D01*
X106433334Y-103483333D01*
X106433334Y-103683333D01*
X106466667Y-103750000D01*
X106500001Y-103783333D01*
X106566667Y-103816667D01*
X106666667Y-103816667D01*
X105833334Y-103816667D02*
X105833334Y-103450000D01*
X105866668Y-103383333D01*
X105933334Y-103350000D01*
X106066668Y-103350000D01*
X106133334Y-103383333D01*
X105833334Y-103783333D02*
X105900001Y-103816667D01*
X106066668Y-103816667D01*
X106133334Y-103783333D01*
X106166668Y-103716667D01*
X106166668Y-103650000D01*
X106133334Y-103583333D01*
X106066668Y-103550000D01*
X105900001Y-103550000D01*
X105833334Y-103516667D01*
X105600001Y-103350000D02*
X105333335Y-103350000D01*
X105500001Y-103116667D02*
X105500001Y-103716667D01*
X105466668Y-103783333D01*
X105400001Y-103816667D01*
X105333335Y-103816667D01*
X104833335Y-103783333D02*
X104900001Y-103816667D01*
X105033335Y-103816667D01*
X105100001Y-103783333D01*
X105133335Y-103716667D01*
X105133335Y-103450000D01*
X105100001Y-103383333D01*
X105033335Y-103350000D01*
X104900001Y-103350000D01*
X104833335Y-103383333D01*
X104800001Y-103450000D01*
X104800001Y-103516667D01*
X105133335Y-103583333D01*
X104533335Y-103783333D02*
X104466668Y-103816667D01*
X104333335Y-103816667D01*
X104266668Y-103783333D01*
X104233335Y-103716667D01*
X104233335Y-103683333D01*
X104266668Y-103616667D01*
X104333335Y-103583333D01*
X104433335Y-103583333D01*
X104500001Y-103550000D01*
X104533335Y-103483333D01*
X104533335Y-103450000D01*
X104500001Y-103383333D01*
X104433335Y-103350000D01*
X104333335Y-103350000D01*
X104266668Y-103383333D01*
X109866667Y-104896667D02*
X110266667Y-104896667D01*
X110066667Y-104896667D02*
X110066667Y-104196667D01*
X110133333Y-104296667D01*
X110200000Y-104363333D01*
X110266667Y-104396667D01*
X109600000Y-104263333D02*
X109566666Y-104230000D01*
X109500000Y-104196667D01*
X109333333Y-104196667D01*
X109266666Y-104230000D01*
X109233333Y-104263333D01*
X109200000Y-104330000D01*
X109200000Y-104396667D01*
X109233333Y-104496667D01*
X109633333Y-104896667D01*
X109200000Y-104896667D01*
X108399999Y-104163333D02*
X108999999Y-105063333D01*
X108033333Y-104196667D02*
X107966666Y-104196667D01*
X107900000Y-104230000D01*
X107866666Y-104263333D01*
X107833333Y-104330000D01*
X107800000Y-104463333D01*
X107800000Y-104630000D01*
X107833333Y-104763333D01*
X107866666Y-104830000D01*
X107900000Y-104863333D01*
X107966666Y-104896667D01*
X108033333Y-104896667D01*
X108100000Y-104863333D01*
X108133333Y-104830000D01*
X108166666Y-104763333D01*
X108200000Y-104630000D01*
X108200000Y-104463333D01*
X108166666Y-104330000D01*
X108133333Y-104263333D01*
X108100000Y-104230000D01*
X108033333Y-104196667D01*
X107199999Y-104196667D02*
X107333333Y-104196667D01*
X107399999Y-104230000D01*
X107433333Y-104263333D01*
X107499999Y-104363333D01*
X107533333Y-104496667D01*
X107533333Y-104763333D01*
X107499999Y-104830000D01*
X107466666Y-104863333D01*
X107399999Y-104896667D01*
X107266666Y-104896667D01*
X107199999Y-104863333D01*
X107166666Y-104830000D01*
X107133333Y-104763333D01*
X107133333Y-104596667D01*
X107166666Y-104530000D01*
X107199999Y-104496667D01*
X107266666Y-104463333D01*
X107399999Y-104463333D01*
X107466666Y-104496667D01*
X107499999Y-104530000D01*
X107533333Y-104596667D01*
X106333332Y-104163333D02*
X106933332Y-105063333D01*
X105733333Y-104896667D02*
X106133333Y-104896667D01*
X105933333Y-104896667D02*
X105933333Y-104196667D01*
X105999999Y-104296667D01*
X106066666Y-104363333D01*
X106133333Y-104396667D01*
X105133332Y-104196667D02*
X105266666Y-104196667D01*
X105333332Y-104230000D01*
X105366666Y-104263333D01*
X105433332Y-104363333D01*
X105466666Y-104496667D01*
X105466666Y-104763333D01*
X105433332Y-104830000D01*
X105399999Y-104863333D01*
X105333332Y-104896667D01*
X105199999Y-104896667D01*
X105133332Y-104863333D01*
X105099999Y-104830000D01*
X105066666Y-104763333D01*
X105066666Y-104596667D01*
X105099999Y-104530000D01*
X105133332Y-104496667D01*
X105199999Y-104463333D01*
X105333332Y-104463333D01*
X105399999Y-104496667D01*
X105433332Y-104530000D01*
X105466666Y-104596667D01*
D11*
X106043858Y-107352893D02*
X106286295Y-107595329D01*
X106589340Y-107049847D02*
X106165076Y-107474111D01*
X106629746Y-107534720D02*
X106771168Y-107676142D01*
X107054010Y-107514517D02*
X106851980Y-107312487D01*
X106427716Y-107736751D01*
X106629746Y-107938781D01*
X107235838Y-107696344D02*
X106811574Y-108120609D01*
X107256041Y-107958984D01*
X107094417Y-108403451D01*
X107518681Y-107979187D01*
X107720711Y-108181217D02*
X107296447Y-108605482D01*
X107458072Y-108767106D01*
X107518680Y-108787309D01*
X107559086Y-108787310D01*
X107619695Y-108767106D01*
X107680305Y-108706497D01*
X107700508Y-108645888D01*
X107700508Y-108605482D01*
X107680305Y-108544873D01*
X107518680Y-108383248D01*
X108367209Y-108827715D02*
X108124772Y-108585279D01*
X108245990Y-108706497D02*
X107821726Y-109130761D01*
X107841929Y-109029746D01*
X107841930Y-108948934D01*
X107821726Y-108888325D01*
X108387412Y-109171168D02*
X108710661Y-109494417D01*
X106927741Y-106469009D02*
X107170178Y-106711445D01*
X107473223Y-106165963D02*
X107048959Y-106590227D01*
X107513629Y-106650836D02*
X107655051Y-106792258D01*
X107937893Y-106630633D02*
X107735863Y-106428603D01*
X107311599Y-106852867D01*
X107513629Y-107054897D01*
X108119721Y-106812460D02*
X107695457Y-107236725D01*
X108139924Y-107075100D01*
X107978300Y-107519567D01*
X108402564Y-107095303D01*
X108604594Y-107297333D02*
X108180330Y-107721598D01*
X108341955Y-107883222D01*
X108402563Y-107903425D01*
X108442969Y-107903426D01*
X108503578Y-107883222D01*
X108564188Y-107822613D01*
X108584391Y-107762004D01*
X108584391Y-107721598D01*
X108564188Y-107660989D01*
X108402563Y-107499364D01*
X109251092Y-107943831D02*
X109008655Y-107701395D01*
X109129873Y-107822613D02*
X108705609Y-108246877D01*
X108725812Y-108145862D01*
X108725813Y-108065050D01*
X108705609Y-108004441D01*
X109271295Y-108287284D02*
X109594544Y-108610533D01*
X109594544Y-108287284D02*
X109271295Y-108610533D01*
X93680991Y-106677741D02*
X93438555Y-106920178D01*
X93984037Y-107223223D02*
X93559773Y-106798959D01*
X93499164Y-107263629D02*
X93357742Y-107405051D01*
X93519367Y-107687893D02*
X93721397Y-107485863D01*
X93297133Y-107061599D01*
X93095103Y-107263629D01*
X93337540Y-107869721D02*
X92913275Y-107445457D01*
X93074900Y-107889924D01*
X92630433Y-107728300D01*
X93054697Y-108152564D01*
X92852667Y-108354594D02*
X92428402Y-107930330D01*
X92266778Y-108091955D01*
X92246575Y-108152563D01*
X92246574Y-108192969D01*
X92266778Y-108253578D01*
X92327387Y-108314188D01*
X92387996Y-108334391D01*
X92428402Y-108334391D01*
X92489011Y-108314188D01*
X92650636Y-108152563D01*
X92408199Y-108799062D02*
X92327387Y-108879873D01*
X92266778Y-108900076D01*
X92226371Y-108900077D01*
X92125356Y-108879873D01*
X92024341Y-108819264D01*
X91862716Y-108657639D01*
X91842514Y-108597030D01*
X91842514Y-108556624D01*
X91862717Y-108496015D01*
X91943529Y-108415203D01*
X92004138Y-108395000D01*
X92044544Y-108395000D01*
X92105153Y-108415203D01*
X92206168Y-108516218D01*
X92226371Y-108576827D01*
X92226371Y-108617234D01*
X92206169Y-108677842D01*
X92125356Y-108758655D01*
X92064747Y-108778858D01*
X92024341Y-108778857D01*
X91963731Y-108758655D01*
X91862716Y-109021295D02*
X91539467Y-109344544D01*
X91862716Y-109344544D02*
X91539467Y-109021295D01*
X92797107Y-105793858D02*
X92554671Y-106036295D01*
X93100153Y-106339340D02*
X92675889Y-105915076D01*
X92615280Y-106379746D02*
X92473858Y-106521168D01*
X92635483Y-106804010D02*
X92837513Y-106601980D01*
X92413249Y-106177716D01*
X92211219Y-106379746D01*
X92453656Y-106985838D02*
X92029391Y-106561574D01*
X92191016Y-107006041D01*
X91746549Y-106844417D01*
X92170813Y-107268681D01*
X91968783Y-107470711D02*
X91544518Y-107046447D01*
X91382894Y-107208072D01*
X91362691Y-107268680D01*
X91362690Y-107309086D01*
X91382894Y-107369695D01*
X91443503Y-107430305D01*
X91504112Y-107450508D01*
X91544518Y-107450508D01*
X91605127Y-107430305D01*
X91766752Y-107268680D01*
X91524315Y-107915179D02*
X91443503Y-107995990D01*
X91382894Y-108016193D01*
X91342487Y-108016194D01*
X91241472Y-107995990D01*
X91140457Y-107935381D01*
X90978832Y-107773756D01*
X90958630Y-107713147D01*
X90958630Y-107672741D01*
X90978833Y-107612132D01*
X91059645Y-107531320D01*
X91120254Y-107511117D01*
X91160660Y-107511117D01*
X91221269Y-107531320D01*
X91322284Y-107632335D01*
X91342487Y-107692944D01*
X91342487Y-107733351D01*
X91322285Y-107793959D01*
X91241472Y-107874772D01*
X91180863Y-107894975D01*
X91140457Y-107894974D01*
X91079847Y-107874772D01*
X90978832Y-108137412D02*
X90655583Y-108460661D01*
X87421429Y-87557143D02*
X86821429Y-87557143D01*
X86821429Y-87700000D01*
X86850000Y-87785715D01*
X86907143Y-87842857D01*
X86964286Y-87871429D01*
X87078571Y-87900000D01*
X87164286Y-87900000D01*
X87278571Y-87871429D01*
X87335714Y-87842857D01*
X87392857Y-87785715D01*
X87421429Y-87700000D01*
X87421429Y-87557143D01*
X87421429Y-88471429D02*
X87421429Y-88128572D01*
X87421429Y-88300000D02*
X86821429Y-88300000D01*
X86907143Y-88242857D01*
X86964286Y-88185715D01*
X86992857Y-88128572D01*
X91221429Y-92907143D02*
X91221429Y-93250000D01*
X91821429Y-93078571D02*
X91221429Y-93078571D01*
X91507143Y-93450000D02*
X91507143Y-93650000D01*
X91821429Y-93735714D02*
X91821429Y-93450000D01*
X91221429Y-93450000D01*
X91221429Y-93735714D01*
X91821429Y-93992857D02*
X91221429Y-93992857D01*
X91650000Y-94192857D01*
X91221429Y-94392857D01*
X91821429Y-94392857D01*
X91821429Y-94678571D02*
X91221429Y-94678571D01*
X91221429Y-94907143D01*
X91250000Y-94964285D01*
X91278571Y-94992857D01*
X91335714Y-95021428D01*
X91421429Y-95021428D01*
X91478571Y-94992857D01*
X91507143Y-94964285D01*
X91535714Y-94907143D01*
X91535714Y-94678571D01*
X91478571Y-95364285D02*
X91450000Y-95307143D01*
X91421429Y-95278571D01*
X91364286Y-95250000D01*
X91335714Y-95250000D01*
X91278571Y-95278571D01*
X91250000Y-95307143D01*
X91221429Y-95364285D01*
X91221429Y-95478571D01*
X91250000Y-95535714D01*
X91278571Y-95564285D01*
X91335714Y-95592857D01*
X91364286Y-95592857D01*
X91421429Y-95564285D01*
X91450000Y-95535714D01*
X91478571Y-95478571D01*
X91478571Y-95364285D01*
X91507143Y-95307143D01*
X91535714Y-95278571D01*
X91592857Y-95250000D01*
X91707143Y-95250000D01*
X91764286Y-95278571D01*
X91792857Y-95307143D01*
X91821429Y-95364285D01*
X91821429Y-95478571D01*
X91792857Y-95535714D01*
X91764286Y-95564285D01*
X91707143Y-95592857D01*
X91592857Y-95592857D01*
X91535714Y-95564285D01*
X91507143Y-95535714D01*
X91478571Y-95478571D01*
X91592857Y-95850000D02*
X91592857Y-96307143D01*
X98721429Y-92907143D02*
X98721429Y-93250000D01*
X99321429Y-93078571D02*
X98721429Y-93078571D01*
X99007143Y-93450000D02*
X99007143Y-93650000D01*
X99321429Y-93735714D02*
X99321429Y-93450000D01*
X98721429Y-93450000D01*
X98721429Y-93735714D01*
X99321429Y-93992857D02*
X98721429Y-93992857D01*
X99150000Y-94192857D01*
X98721429Y-94392857D01*
X99321429Y-94392857D01*
X99321429Y-94678571D02*
X98721429Y-94678571D01*
X98721429Y-94907143D01*
X98750000Y-94964285D01*
X98778571Y-94992857D01*
X98835714Y-95021428D01*
X98921429Y-95021428D01*
X98978571Y-94992857D01*
X99007143Y-94964285D01*
X99035714Y-94907143D01*
X99035714Y-94678571D01*
X98721429Y-95564285D02*
X98721429Y-95278571D01*
X99007143Y-95250000D01*
X98978571Y-95278571D01*
X98950000Y-95335714D01*
X98950000Y-95478571D01*
X98978571Y-95535714D01*
X99007143Y-95564285D01*
X99064286Y-95592857D01*
X99207143Y-95592857D01*
X99264286Y-95564285D01*
X99292857Y-95535714D01*
X99321429Y-95478571D01*
X99321429Y-95335714D01*
X99292857Y-95278571D01*
X99264286Y-95250000D01*
X99092857Y-95850000D02*
X99092857Y-96307143D01*
X94971429Y-92907143D02*
X94971429Y-93250000D01*
X95571429Y-93078571D02*
X94971429Y-93078571D01*
X95257143Y-93450000D02*
X95257143Y-93650000D01*
X95571429Y-93735714D02*
X95571429Y-93450000D01*
X94971429Y-93450000D01*
X94971429Y-93735714D01*
X95571429Y-93992857D02*
X94971429Y-93992857D01*
X95400000Y-94192857D01*
X94971429Y-94392857D01*
X95571429Y-94392857D01*
X95571429Y-94678571D02*
X94971429Y-94678571D01*
X94971429Y-94907143D01*
X95000000Y-94964285D01*
X95028571Y-94992857D01*
X95085714Y-95021428D01*
X95171429Y-95021428D01*
X95228571Y-94992857D01*
X95257143Y-94964285D01*
X95285714Y-94907143D01*
X95285714Y-94678571D01*
X94971429Y-95221428D02*
X94971429Y-95621428D01*
X95571429Y-95364285D01*
X95342857Y-95850000D02*
X95342857Y-96307143D01*
X95571429Y-96078572D02*
X95114286Y-96078572D01*
X97471429Y-92907143D02*
X97471429Y-93250000D01*
X98071429Y-93078571D02*
X97471429Y-93078571D01*
X97757143Y-93450000D02*
X97757143Y-93650000D01*
X98071429Y-93735714D02*
X98071429Y-93450000D01*
X97471429Y-93450000D01*
X97471429Y-93735714D01*
X98071429Y-93992857D02*
X97471429Y-93992857D01*
X97900000Y-94192857D01*
X97471429Y-94392857D01*
X98071429Y-94392857D01*
X98071429Y-94678571D02*
X97471429Y-94678571D01*
X97471429Y-94907143D01*
X97500000Y-94964285D01*
X97528571Y-94992857D01*
X97585714Y-95021428D01*
X97671429Y-95021428D01*
X97728571Y-94992857D01*
X97757143Y-94964285D01*
X97785714Y-94907143D01*
X97785714Y-94678571D01*
X97471429Y-95535714D02*
X97471429Y-95421428D01*
X97500000Y-95364285D01*
X97528571Y-95335714D01*
X97614286Y-95278571D01*
X97728571Y-95250000D01*
X97957143Y-95250000D01*
X98014286Y-95278571D01*
X98042857Y-95307143D01*
X98071429Y-95364285D01*
X98071429Y-95478571D01*
X98042857Y-95535714D01*
X98014286Y-95564285D01*
X97957143Y-95592857D01*
X97814286Y-95592857D01*
X97757143Y-95564285D01*
X97728571Y-95535714D01*
X97700000Y-95478571D01*
X97700000Y-95364285D01*
X97728571Y-95307143D01*
X97757143Y-95278571D01*
X97814286Y-95250000D01*
X97842857Y-95850000D02*
X97842857Y-96307143D01*
X98071429Y-96078572D02*
X97614286Y-96078572D01*
X96221429Y-92907143D02*
X96221429Y-93250000D01*
X96821429Y-93078571D02*
X96221429Y-93078571D01*
X96507143Y-93450000D02*
X96507143Y-93650000D01*
X96821429Y-93735714D02*
X96821429Y-93450000D01*
X96221429Y-93450000D01*
X96221429Y-93735714D01*
X96821429Y-93992857D02*
X96221429Y-93992857D01*
X96650000Y-94192857D01*
X96221429Y-94392857D01*
X96821429Y-94392857D01*
X96821429Y-94678571D02*
X96221429Y-94678571D01*
X96221429Y-94907143D01*
X96250000Y-94964285D01*
X96278571Y-94992857D01*
X96335714Y-95021428D01*
X96421429Y-95021428D01*
X96478571Y-94992857D01*
X96507143Y-94964285D01*
X96535714Y-94907143D01*
X96535714Y-94678571D01*
X96221429Y-95535714D02*
X96221429Y-95421428D01*
X96250000Y-95364285D01*
X96278571Y-95335714D01*
X96364286Y-95278571D01*
X96478571Y-95250000D01*
X96707143Y-95250000D01*
X96764286Y-95278571D01*
X96792857Y-95307143D01*
X96821429Y-95364285D01*
X96821429Y-95478571D01*
X96792857Y-95535714D01*
X96764286Y-95564285D01*
X96707143Y-95592857D01*
X96564286Y-95592857D01*
X96507143Y-95564285D01*
X96478571Y-95535714D01*
X96450000Y-95478571D01*
X96450000Y-95364285D01*
X96478571Y-95307143D01*
X96507143Y-95278571D01*
X96564286Y-95250000D01*
X96592857Y-95850000D02*
X96592857Y-96307143D01*
X92471429Y-92907143D02*
X92471429Y-93250000D01*
X93071429Y-93078571D02*
X92471429Y-93078571D01*
X92757143Y-93450000D02*
X92757143Y-93650000D01*
X93071429Y-93735714D02*
X93071429Y-93450000D01*
X92471429Y-93450000D01*
X92471429Y-93735714D01*
X93071429Y-93992857D02*
X92471429Y-93992857D01*
X92900000Y-94192857D01*
X92471429Y-94392857D01*
X93071429Y-94392857D01*
X93071429Y-94678571D02*
X92471429Y-94678571D01*
X92471429Y-94907143D01*
X92500000Y-94964285D01*
X92528571Y-94992857D01*
X92585714Y-95021428D01*
X92671429Y-95021428D01*
X92728571Y-94992857D01*
X92757143Y-94964285D01*
X92785714Y-94907143D01*
X92785714Y-94678571D01*
X92728571Y-95364285D02*
X92700000Y-95307143D01*
X92671429Y-95278571D01*
X92614286Y-95250000D01*
X92585714Y-95250000D01*
X92528571Y-95278571D01*
X92500000Y-95307143D01*
X92471429Y-95364285D01*
X92471429Y-95478571D01*
X92500000Y-95535714D01*
X92528571Y-95564285D01*
X92585714Y-95592857D01*
X92614286Y-95592857D01*
X92671429Y-95564285D01*
X92700000Y-95535714D01*
X92728571Y-95478571D01*
X92728571Y-95364285D01*
X92757143Y-95307143D01*
X92785714Y-95278571D01*
X92842857Y-95250000D01*
X92957143Y-95250000D01*
X93014286Y-95278571D01*
X93042857Y-95307143D01*
X93071429Y-95364285D01*
X93071429Y-95478571D01*
X93042857Y-95535714D01*
X93014286Y-95564285D01*
X92957143Y-95592857D01*
X92842857Y-95592857D01*
X92785714Y-95564285D01*
X92757143Y-95535714D01*
X92728571Y-95478571D01*
X92842857Y-95850000D02*
X92842857Y-96307143D01*
X93071429Y-96078572D02*
X92614286Y-96078572D01*
X93721429Y-92907143D02*
X93721429Y-93250000D01*
X94321429Y-93078571D02*
X93721429Y-93078571D01*
X94007143Y-93450000D02*
X94007143Y-93650000D01*
X94321429Y-93735714D02*
X94321429Y-93450000D01*
X93721429Y-93450000D01*
X93721429Y-93735714D01*
X94321429Y-93992857D02*
X93721429Y-93992857D01*
X94150000Y-94192857D01*
X93721429Y-94392857D01*
X94321429Y-94392857D01*
X94321429Y-94678571D02*
X93721429Y-94678571D01*
X93721429Y-94907143D01*
X93750000Y-94964285D01*
X93778571Y-94992857D01*
X93835714Y-95021428D01*
X93921429Y-95021428D01*
X93978571Y-94992857D01*
X94007143Y-94964285D01*
X94035714Y-94907143D01*
X94035714Y-94678571D01*
X93721429Y-95221428D02*
X93721429Y-95621428D01*
X94321429Y-95364285D01*
X94092857Y-95850000D02*
X94092857Y-96307143D01*
X99971429Y-92907143D02*
X99971429Y-93250000D01*
X100571429Y-93078571D02*
X99971429Y-93078571D01*
X100257143Y-93450000D02*
X100257143Y-93650000D01*
X100571429Y-93735714D02*
X100571429Y-93450000D01*
X99971429Y-93450000D01*
X99971429Y-93735714D01*
X100571429Y-93992857D02*
X99971429Y-93992857D01*
X100400000Y-94192857D01*
X99971429Y-94392857D01*
X100571429Y-94392857D01*
X100571429Y-94678571D02*
X99971429Y-94678571D01*
X99971429Y-94907143D01*
X100000000Y-94964285D01*
X100028571Y-94992857D01*
X100085714Y-95021428D01*
X100171429Y-95021428D01*
X100228571Y-94992857D01*
X100257143Y-94964285D01*
X100285714Y-94907143D01*
X100285714Y-94678571D01*
X99971429Y-95564285D02*
X99971429Y-95278571D01*
X100257143Y-95250000D01*
X100228571Y-95278571D01*
X100200000Y-95335714D01*
X100200000Y-95478571D01*
X100228571Y-95535714D01*
X100257143Y-95564285D01*
X100314286Y-95592857D01*
X100457143Y-95592857D01*
X100514286Y-95564285D01*
X100542857Y-95535714D01*
X100571429Y-95478571D01*
X100571429Y-95335714D01*
X100542857Y-95278571D01*
X100514286Y-95250000D01*
X100342857Y-95850000D02*
X100342857Y-96307143D01*
X100571429Y-96078572D02*
X100114286Y-96078572D01*
X101221429Y-92907143D02*
X101221429Y-93250000D01*
X101821429Y-93078571D02*
X101221429Y-93078571D01*
X101507143Y-93450000D02*
X101507143Y-93650000D01*
X101821429Y-93735714D02*
X101821429Y-93450000D01*
X101221429Y-93450000D01*
X101221429Y-93735714D01*
X101821429Y-93992857D02*
X101221429Y-93992857D01*
X101650000Y-94192857D01*
X101221429Y-94392857D01*
X101821429Y-94392857D01*
X101821429Y-94678571D02*
X101221429Y-94678571D01*
X101221429Y-94907143D01*
X101250000Y-94964285D01*
X101278571Y-94992857D01*
X101335714Y-95021428D01*
X101421429Y-95021428D01*
X101478571Y-94992857D01*
X101507143Y-94964285D01*
X101535714Y-94907143D01*
X101535714Y-94678571D01*
X101421429Y-95535714D02*
X101821429Y-95535714D01*
X101192857Y-95392857D02*
X101621429Y-95250000D01*
X101621429Y-95621428D01*
X101592857Y-95850000D02*
X101592857Y-96307143D01*
X106221429Y-92907143D02*
X106221429Y-93250000D01*
X106821429Y-93078571D02*
X106221429Y-93078571D01*
X106507143Y-93450000D02*
X106507143Y-93650000D01*
X106821429Y-93735714D02*
X106821429Y-93450000D01*
X106221429Y-93450000D01*
X106221429Y-93735714D01*
X106821429Y-93992857D02*
X106221429Y-93992857D01*
X106650000Y-94192857D01*
X106221429Y-94392857D01*
X106821429Y-94392857D01*
X106821429Y-94678571D02*
X106221429Y-94678571D01*
X106221429Y-94907143D01*
X106250000Y-94964285D01*
X106278571Y-94992857D01*
X106335714Y-95021428D01*
X106421429Y-95021428D01*
X106478571Y-94992857D01*
X106507143Y-94964285D01*
X106535714Y-94907143D01*
X106535714Y-94678571D01*
X106278571Y-95250000D02*
X106250000Y-95278571D01*
X106221429Y-95335714D01*
X106221429Y-95478571D01*
X106250000Y-95535714D01*
X106278571Y-95564285D01*
X106335714Y-95592857D01*
X106392857Y-95592857D01*
X106478571Y-95564285D01*
X106821429Y-95221428D01*
X106821429Y-95592857D01*
X106592857Y-95850000D02*
X106592857Y-96307143D01*
X104971429Y-92907143D02*
X104971429Y-93250000D01*
X105571429Y-93078571D02*
X104971429Y-93078571D01*
X105257143Y-93450000D02*
X105257143Y-93650000D01*
X105571429Y-93735714D02*
X105571429Y-93450000D01*
X104971429Y-93450000D01*
X104971429Y-93735714D01*
X105571429Y-93992857D02*
X104971429Y-93992857D01*
X105400000Y-94192857D01*
X104971429Y-94392857D01*
X105571429Y-94392857D01*
X105571429Y-94678571D02*
X104971429Y-94678571D01*
X104971429Y-94907143D01*
X105000000Y-94964285D01*
X105028571Y-94992857D01*
X105085714Y-95021428D01*
X105171429Y-95021428D01*
X105228571Y-94992857D01*
X105257143Y-94964285D01*
X105285714Y-94907143D01*
X105285714Y-94678571D01*
X104971429Y-95221428D02*
X104971429Y-95592857D01*
X105200000Y-95392857D01*
X105200000Y-95478571D01*
X105228571Y-95535714D01*
X105257143Y-95564285D01*
X105314286Y-95592857D01*
X105457143Y-95592857D01*
X105514286Y-95564285D01*
X105542857Y-95535714D01*
X105571429Y-95478571D01*
X105571429Y-95307143D01*
X105542857Y-95250000D01*
X105514286Y-95221428D01*
X105342857Y-95850000D02*
X105342857Y-96307143D01*
X105571429Y-96078572D02*
X105114286Y-96078572D01*
X107471429Y-92907143D02*
X107471429Y-93250000D01*
X108071429Y-93078571D02*
X107471429Y-93078571D01*
X107757143Y-93450000D02*
X107757143Y-93650000D01*
X108071429Y-93735714D02*
X108071429Y-93450000D01*
X107471429Y-93450000D01*
X107471429Y-93735714D01*
X108071429Y-93992857D02*
X107471429Y-93992857D01*
X107900000Y-94192857D01*
X107471429Y-94392857D01*
X108071429Y-94392857D01*
X108071429Y-94678571D02*
X107471429Y-94678571D01*
X107471429Y-94907143D01*
X107500000Y-94964285D01*
X107528571Y-94992857D01*
X107585714Y-95021428D01*
X107671429Y-95021428D01*
X107728571Y-94992857D01*
X107757143Y-94964285D01*
X107785714Y-94907143D01*
X107785714Y-94678571D01*
X107528571Y-95250000D02*
X107500000Y-95278571D01*
X107471429Y-95335714D01*
X107471429Y-95478571D01*
X107500000Y-95535714D01*
X107528571Y-95564285D01*
X107585714Y-95592857D01*
X107642857Y-95592857D01*
X107728571Y-95564285D01*
X108071429Y-95221428D01*
X108071429Y-95592857D01*
X107842857Y-95850000D02*
X107842857Y-96307143D01*
X108071429Y-96078572D02*
X107614286Y-96078572D01*
X102471429Y-92907143D02*
X102471429Y-93250000D01*
X103071429Y-93078571D02*
X102471429Y-93078571D01*
X102757143Y-93450000D02*
X102757143Y-93650000D01*
X103071429Y-93735714D02*
X103071429Y-93450000D01*
X102471429Y-93450000D01*
X102471429Y-93735714D01*
X103071429Y-93992857D02*
X102471429Y-93992857D01*
X102900000Y-94192857D01*
X102471429Y-94392857D01*
X103071429Y-94392857D01*
X103071429Y-94678571D02*
X102471429Y-94678571D01*
X102471429Y-94907143D01*
X102500000Y-94964285D01*
X102528571Y-94992857D01*
X102585714Y-95021428D01*
X102671429Y-95021428D01*
X102728571Y-94992857D01*
X102757143Y-94964285D01*
X102785714Y-94907143D01*
X102785714Y-94678571D01*
X102671429Y-95535714D02*
X103071429Y-95535714D01*
X102442857Y-95392857D02*
X102871429Y-95250000D01*
X102871429Y-95621428D01*
X102842857Y-95850000D02*
X102842857Y-96307143D01*
X103071429Y-96078572D02*
X102614286Y-96078572D01*
X103721429Y-92907143D02*
X103721429Y-93250000D01*
X104321429Y-93078571D02*
X103721429Y-93078571D01*
X104007143Y-93450000D02*
X104007143Y-93650000D01*
X104321429Y-93735714D02*
X104321429Y-93450000D01*
X103721429Y-93450000D01*
X103721429Y-93735714D01*
X104321429Y-93992857D02*
X103721429Y-93992857D01*
X104150000Y-94192857D01*
X103721429Y-94392857D01*
X104321429Y-94392857D01*
X104321429Y-94678571D02*
X103721429Y-94678571D01*
X103721429Y-94907143D01*
X103750000Y-94964285D01*
X103778571Y-94992857D01*
X103835714Y-95021428D01*
X103921429Y-95021428D01*
X103978571Y-94992857D01*
X104007143Y-94964285D01*
X104035714Y-94907143D01*
X104035714Y-94678571D01*
X103721429Y-95221428D02*
X103721429Y-95592857D01*
X103950000Y-95392857D01*
X103950000Y-95478571D01*
X103978571Y-95535714D01*
X104007143Y-95564285D01*
X104064286Y-95592857D01*
X104207143Y-95592857D01*
X104264286Y-95564285D01*
X104292857Y-95535714D01*
X104321429Y-95478571D01*
X104321429Y-95307143D01*
X104292857Y-95250000D01*
X104264286Y-95221428D01*
X104092857Y-95850000D02*
X104092857Y-96307143D01*
X99700000Y-109371429D02*
X99900000Y-109085714D01*
X100042857Y-109371429D02*
X100042857Y-108771429D01*
X99814285Y-108771429D01*
X99757143Y-108800000D01*
X99728571Y-108828571D01*
X99700000Y-108885714D01*
X99700000Y-108971429D01*
X99728571Y-109028571D01*
X99757143Y-109057143D01*
X99814285Y-109085714D01*
X100042857Y-109085714D01*
X99128571Y-109371429D02*
X99471428Y-109371429D01*
X99300000Y-109371429D02*
X99300000Y-108771429D01*
X99357143Y-108857143D01*
X99414285Y-108914286D01*
X99471428Y-108942857D01*
D12*
X111621142Y-114760229D02*
X107908832Y-111047918D01*
X107908832Y-111047918D02*
X110914035Y-108042714D01*
X110914035Y-108042714D02*
X113494975Y-110623654D01*
X85389771Y-111871142D02*
X89102082Y-108158832D01*
X89102082Y-108158832D02*
X92107286Y-111164035D01*
X92107286Y-111164035D02*
X89526346Y-113744975D01*
X90000000Y-92300000D02*
X90000000Y-87050000D01*
X90000000Y-87050000D02*
X109250000Y-87050000D01*
X109250000Y-87050000D02*
X109250000Y-90700000D01*
X83550000Y-106465000D02*
X84315000Y-106465000D01*
X84315000Y-106465000D02*
X84315000Y-108245000D01*
X84315000Y-108245000D02*
X85685000Y-108245000D01*
X85685000Y-108245000D02*
X85685000Y-106465000D01*
X85685000Y-106465000D02*
X86450000Y-106465000D01*
X86450000Y-106465000D02*
X86450000Y-106165000D01*
X86450000Y-93835000D02*
X86450000Y-93535000D01*
X86450000Y-93535000D02*
X85685000Y-93535000D01*
X85685000Y-93535000D02*
X85685000Y-91755000D01*
X85685000Y-91755000D02*
X84315000Y-91755000D01*
X84315000Y-91755000D02*
X84315000Y-93535000D01*
X84315000Y-93535000D02*
X83550000Y-93535000D01*
X113550000Y-106465000D02*
X114315000Y-106465000D01*
X114315000Y-106465000D02*
X114315000Y-108245000D01*
X114315000Y-108245000D02*
X115685000Y-108245000D01*
X115685000Y-108245000D02*
X115685000Y-106465000D01*
X115685000Y-106465000D02*
X116450000Y-106465000D01*
X116450000Y-106465000D02*
X116450000Y-106165000D01*
X116450000Y-93835000D02*
X116450000Y-93535000D01*
X116450000Y-93535000D02*
X115685000Y-93535000D01*
X115685000Y-93535000D02*
X115685000Y-91755000D01*
X115685000Y-91755000D02*
X114315000Y-91755000D01*
X114315000Y-91755000D02*
X114315000Y-93535000D01*
X114315000Y-93535000D02*
X113550000Y-93535000D01*
X106465000Y-116450000D02*
X106465000Y-115685000D01*
X106465000Y-115685000D02*
X108245000Y-115685000D01*
X108245000Y-115685000D02*
X108245000Y-114315000D01*
X108245000Y-114315000D02*
X106465000Y-114315000D01*
X106465000Y-114315000D02*
X106465000Y-113550000D01*
X106465000Y-113550000D02*
X106165000Y-113550000D01*
X93835000Y-113550000D02*
X93535000Y-113550000D01*
X93535000Y-113550000D02*
X93535000Y-114315000D01*
X93535000Y-114315000D02*
X91755000Y-114315000D01*
X91755000Y-114315000D02*
X91755000Y-115685000D01*
X91755000Y-115685000D02*
X93535000Y-115685000D01*
X93535000Y-115685000D02*
X93535000Y-116450000D01*
X88800000Y-89917500D02*
X88800000Y-90298500D01*
X88800000Y-88901500D02*
X88800000Y-89282500D01*
X88800000Y-89282500D02*
X88419000Y-89917500D01*
X88419000Y-89917500D02*
X89181000Y-89917500D01*
X89181000Y-89917500D02*
X88800000Y-89282500D01*
X88292000Y-89282500D02*
X89308000Y-89282500D01*
X89700000Y-87600000D02*
X89700000Y-91140000D01*
X87900000Y-87600000D02*
X87900000Y-91140000D01*
X98875000Y-108325000D02*
X99125000Y-108325000D01*
X99125000Y-108325000D02*
X99125000Y-107675000D01*
X99125000Y-107675000D02*
X98875000Y-107675000D01*
X98875000Y-107675000D02*
X98875000Y-108325000D01*
X100975000Y-106575001D02*
X100975000Y-106825001D01*
X100975000Y-106825001D02*
X101625000Y-106825001D01*
X101625000Y-106825001D02*
X101625000Y-106575001D01*
X101625000Y-106575001D02*
X100975000Y-106575001D01*
%LPC*%
D10*
G36*
X112116117Y-113699568D02*
X111550432Y-113133883D01*
X112116117Y-112568198D01*
X112681802Y-113133883D01*
X112116117Y-113699568D01*
X112116117Y-113699568D01*
G37*
D13*
X113000000Y-112250000D02*
X113000000Y-112250000D01*
D10*
G36*
X86450432Y-112366117D02*
X87016117Y-111800432D01*
X87581802Y-112366117D01*
X87016117Y-112931802D01*
X86450432Y-112366117D01*
X86450432Y-112366117D01*
G37*
D13*
X87900000Y-113250000D02*
X87900000Y-113250000D01*
D14*
X91500000Y-91500000D03*
D15*
X92750000Y-91500000D03*
X94000000Y-91500000D03*
X95250000Y-91500000D03*
X96500000Y-91500000D03*
X97750000Y-91500000D03*
X99000000Y-91500000D03*
X100250000Y-91500000D03*
X101500000Y-91500000D03*
X102750000Y-91500000D03*
X104000000Y-91500000D03*
X105250000Y-91500000D03*
X106500000Y-91500000D03*
X107750000Y-91500000D03*
D16*
X83635000Y-94285000D03*
X86365000Y-94285000D03*
X83635000Y-95555000D03*
X86365000Y-95555000D03*
X83635000Y-96825000D03*
X86365000Y-96825000D03*
X83635000Y-98095000D03*
X86365000Y-98095000D03*
X83635000Y-99365000D03*
X86365000Y-99365000D03*
X83635000Y-100635000D03*
X86365000Y-100635000D03*
X83635000Y-101905000D03*
X86365000Y-101905000D03*
X83635000Y-103175000D03*
X86365000Y-103175000D03*
X83635000Y-104445000D03*
X86365000Y-104445000D03*
X83635000Y-105715000D03*
X86365000Y-105715000D03*
D17*
X85000000Y-107305000D03*
X85000000Y-92695000D03*
D16*
X113635000Y-94285000D03*
X116365000Y-94285000D03*
X113635000Y-95555000D03*
X116365000Y-95555000D03*
X113635000Y-96825000D03*
X116365000Y-96825000D03*
X113635000Y-98095000D03*
X116365000Y-98095000D03*
X113635000Y-99365000D03*
X116365000Y-99365000D03*
X113635000Y-100635000D03*
X116365000Y-100635000D03*
X113635000Y-101905000D03*
X116365000Y-101905000D03*
X113635000Y-103175000D03*
X116365000Y-103175000D03*
X113635000Y-104445000D03*
X116365000Y-104445000D03*
X113635000Y-105715000D03*
X116365000Y-105715000D03*
D17*
X115000000Y-107305000D03*
X115000000Y-92695000D03*
D18*
X94285000Y-116365000D03*
X94285000Y-113635000D03*
X95555000Y-116365000D03*
X95555000Y-113635000D03*
X96825000Y-116365000D03*
X96825000Y-113635000D03*
X98095000Y-116365000D03*
X98095000Y-113635000D03*
X99365000Y-116365000D03*
X99365000Y-113635000D03*
X100635000Y-116365000D03*
X100635000Y-113635000D03*
X101905000Y-116365000D03*
X101905000Y-113635000D03*
X103175000Y-116365000D03*
X103175000Y-113635000D03*
X104445000Y-116365000D03*
X104445000Y-113635000D03*
X105715000Y-116365000D03*
X105715000Y-113635000D03*
D17*
X107305000Y-115000000D03*
X92695000Y-115000000D03*
D19*
X88800000Y-87965000D03*
X88800000Y-91235000D03*
D20*
X98300000Y-108000000D03*
X99700000Y-108000000D03*
D21*
X101300000Y-105900001D03*
X101300000Y-107500001D03*
M02*
