G04 #@! TF.FileFunction,Copper,L2,Bot,Signal*
%FSLAX46Y46*%
G04 Gerber Fmt 4.6, Leading zero omitted, Abs format (unit mm)*
G04 Created by KiCad (PCBNEW 4.0.2+e4-6225~38~ubuntu14.04.1-stable) date Mon 27 Jun 2016 22:27:32 BST*
%MOMM*%
G01*
G04 APERTURE LIST*
%ADD10C,0.100000*%
%ADD11C,1.600000*%
%ADD12C,0.787000*%
%ADD13R,0.750000X0.900000*%
%ADD14C,0.600000*%
%ADD15C,0.800000*%
%ADD16C,0.250000*%
%ADD17C,0.740000*%
%ADD18C,0.300000*%
%ADD19C,0.200000*%
%ADD20C,0.220000*%
G04 APERTURE END LIST*
D10*
D11*
X89000000Y-89900000D03*
X91000000Y-89900000D03*
X93000000Y-89900000D03*
X95000000Y-89900000D03*
X90400000Y-111400000D03*
X88400000Y-111400000D03*
X104600000Y-115600000D03*
X102600000Y-115600000D03*
X108200000Y-89900000D03*
X110200000Y-89900000D03*
X97400000Y-115600000D03*
X95400000Y-115600000D03*
X111600000Y-111400000D03*
X109600000Y-111400000D03*
X100600000Y-89900000D03*
X102600000Y-89900000D03*
X97400000Y-109200000D03*
X95400000Y-109200000D03*
X104600000Y-109200000D03*
X102600000Y-109200000D03*
D12*
X108060000Y-101570000D03*
X109330000Y-101570000D03*
X108060000Y-100300000D03*
X109330000Y-100300000D03*
X108060000Y-99030000D03*
X109330000Y-99030000D03*
D13*
X95600000Y-96600000D03*
X94200000Y-96600000D03*
D10*
G36*
X98611612Y-97951992D02*
X99248008Y-98588388D01*
X98717678Y-99118718D01*
X98081282Y-98482322D01*
X98611612Y-97951992D01*
X98611612Y-97951992D01*
G37*
G36*
X97621662Y-98941942D02*
X98258058Y-99578338D01*
X97727728Y-100108668D01*
X97091332Y-99472272D01*
X97621662Y-98941942D01*
X97621662Y-98941942D01*
G37*
D13*
X91100000Y-93900000D03*
X92500000Y-93900000D03*
D14*
X92500000Y-117500000D03*
X95000000Y-117500000D03*
X87500000Y-110000000D03*
X89750000Y-100750000D03*
X103750000Y-101250000D03*
X98750000Y-101250000D03*
X101250000Y-101250000D03*
X82500000Y-107500000D03*
X85000000Y-107500000D03*
X85000000Y-110000000D03*
X90000000Y-115000000D03*
X95000000Y-112500000D03*
X92500000Y-115000000D03*
X100000000Y-115000000D03*
X102500000Y-117500000D03*
X107500000Y-117500000D03*
X107500000Y-115000000D03*
X110000000Y-115000000D03*
X117500000Y-107500000D03*
X115000000Y-110000000D03*
X115000000Y-107500000D03*
X100000000Y-102500000D03*
X102500000Y-102500000D03*
X117500000Y-92500000D03*
X115000000Y-90000000D03*
X105000000Y-92500000D03*
X105000000Y-90000000D03*
X97500000Y-90000000D03*
X87500000Y-92500000D03*
X85000000Y-92500000D03*
X85000000Y-90000000D03*
X99250000Y-96400000D03*
X100300000Y-100100000D03*
X96800000Y-100100000D03*
X100300000Y-97400000D03*
D15*
X95800000Y-95300000D03*
D14*
X97200000Y-103900000D03*
X95700000Y-102000000D03*
D15*
X81775000Y-100635000D03*
D14*
X103275000Y-98675000D03*
X104100000Y-98075000D03*
X103625000Y-97350000D03*
X103700000Y-96400000D03*
X104900000Y-94200000D03*
X93300000Y-106800000D03*
X98000000Y-95600000D03*
X89100000Y-106800000D03*
X96675000Y-95900000D03*
D15*
X118195000Y-98095000D03*
X118135000Y-99365000D03*
X118165000Y-100635000D03*
X118195000Y-101905000D03*
X118175000Y-103175000D03*
D14*
X88000000Y-106800000D03*
X89000000Y-101900000D03*
D16*
X99250000Y-97900000D02*
X99250000Y-96400000D01*
X98700000Y-98450000D02*
X99250000Y-97900000D01*
X98700000Y-98500000D02*
X98700000Y-98450000D01*
X108060000Y-100300000D02*
X100500000Y-100300000D01*
X100500000Y-100300000D02*
X100300000Y-100100000D01*
X96800000Y-100100000D02*
X97100000Y-100100000D01*
X97100000Y-100100000D02*
X97674695Y-99525305D01*
X95600000Y-96600000D02*
X95600000Y-95500000D01*
X95600000Y-95500000D02*
X95800000Y-95300000D01*
X107430000Y-101570000D02*
X105100000Y-103900000D01*
X105100000Y-103900000D02*
X97200000Y-103900000D01*
X108060000Y-101570000D02*
X107430000Y-101570000D01*
D17*
X81775000Y-100635000D02*
X87110000Y-95300000D01*
X87110000Y-95300000D02*
X87500000Y-95300000D01*
D18*
X97200000Y-103900000D02*
X97200000Y-102600000D01*
X97200000Y-102600000D02*
X96600000Y-102000000D01*
X100300000Y-98300000D02*
X100300000Y-97400000D01*
X96600000Y-102000000D02*
X100300000Y-98300000D01*
X95700000Y-102000000D02*
X96600000Y-102000000D01*
D17*
X87500000Y-95300000D02*
X95800000Y-95300000D01*
D16*
X103275000Y-98675000D02*
X98500000Y-93900000D01*
X98500000Y-93900000D02*
X92500000Y-93900000D01*
D19*
X93400000Y-92450000D02*
X91000000Y-90050000D01*
X91000000Y-90050000D02*
X91000000Y-89900000D01*
X104100000Y-98075000D02*
X103425000Y-98075000D01*
X103425000Y-98075000D02*
X97800000Y-92450000D01*
X97800000Y-92450000D02*
X93400000Y-92450000D01*
X95050000Y-92000000D02*
X93000000Y-89950000D01*
X93000000Y-89950000D02*
X93000000Y-89900000D01*
X95050000Y-92000000D02*
X97925000Y-92000000D01*
X97925000Y-92000000D02*
X103275000Y-97350000D01*
X103275000Y-97350000D02*
X103625000Y-97350000D01*
D16*
X103700000Y-93900000D02*
X103700000Y-96400000D01*
X104100000Y-93500000D02*
X103700000Y-93900000D01*
X109000000Y-93500000D02*
X104100000Y-93500000D01*
X111800000Y-96300000D02*
X109000000Y-93500000D01*
X111800000Y-100300000D02*
X111800000Y-96300000D01*
X110530000Y-101570000D02*
X111800000Y-100300000D01*
X109330000Y-101570000D02*
X110530000Y-101570000D01*
X111000000Y-96500000D02*
X108700000Y-94200000D01*
X108700000Y-94200000D02*
X104900000Y-94200000D01*
X111000000Y-99600000D02*
X111000000Y-96500000D01*
X110300000Y-100300000D02*
X111000000Y-99600000D01*
X109330000Y-100300000D02*
X110300000Y-100300000D01*
X98000000Y-95600000D02*
X98000000Y-97925000D01*
X93300000Y-106800000D02*
X93300000Y-102625000D01*
X93300000Y-102625000D02*
X98000000Y-97925000D01*
X96675000Y-95900000D02*
X96675000Y-97750000D01*
X96675000Y-97750000D02*
X89100000Y-105325000D01*
X89100000Y-105325000D02*
X89100000Y-106800000D01*
D17*
X90400000Y-111400000D02*
X96600000Y-105200000D01*
X96600000Y-105200000D02*
X108500000Y-105200000D01*
X108500000Y-105200000D02*
X115605000Y-98095000D01*
X115605000Y-98095000D02*
X118195000Y-98095000D01*
X118135000Y-99365000D02*
X116035000Y-99365000D01*
X116035000Y-99365000D02*
X108300000Y-107100000D01*
X108300000Y-107100000D02*
X101900000Y-107100000D01*
X101900000Y-107100000D02*
X100500000Y-108500000D01*
X100500000Y-108500000D02*
X100500000Y-112500000D01*
X100500000Y-112500000D02*
X97400000Y-115600000D01*
X107700000Y-112500000D02*
X107700000Y-109700000D01*
X104600000Y-115600000D02*
X107700000Y-112500000D01*
X107700000Y-109700000D02*
X116765000Y-100635000D01*
X116765000Y-100635000D02*
X118165000Y-100635000D01*
X111600000Y-111400000D02*
X111600000Y-107900000D01*
X111600000Y-107900000D02*
X117595000Y-101905000D01*
X117595000Y-101905000D02*
X118195000Y-101905000D01*
X101200000Y-91500000D02*
X100600000Y-90900000D01*
X100600000Y-90900000D02*
X100600000Y-89900000D01*
X113200000Y-91500000D02*
X101200000Y-91500000D01*
X119300000Y-97600000D02*
X113200000Y-91500000D01*
X119300000Y-102300000D02*
X119300000Y-97600000D01*
X118425000Y-103175000D02*
X119300000Y-102300000D01*
X118175000Y-103175000D02*
X118425000Y-103175000D01*
D16*
X88000000Y-106800000D02*
X88000000Y-102900000D01*
X89000000Y-101900000D02*
X88000000Y-102900000D01*
X91100000Y-93900000D02*
X89000000Y-91800000D01*
X89000000Y-91800000D02*
X89000000Y-89900000D01*
D20*
X84984461Y-87385000D02*
X87087877Y-87385000D01*
X87909584Y-87385000D02*
X98687877Y-87385000D01*
X99509584Y-87385000D02*
X106287877Y-87385000D01*
X107109584Y-87385000D02*
X114999322Y-87385000D01*
X84848420Y-87554200D02*
X86858789Y-87554200D01*
X88141214Y-87554200D02*
X98458789Y-87554200D01*
X99741214Y-87554200D02*
X106058789Y-87554200D01*
X107341214Y-87554200D02*
X115117529Y-87554200D01*
X84712380Y-87723400D02*
X86723410Y-87723400D01*
X88275935Y-87723400D02*
X98323410Y-87723400D01*
X99875935Y-87723400D02*
X105923410Y-87723400D01*
X107475935Y-87723400D02*
X115235737Y-87723400D01*
X84576340Y-87892600D02*
X86641649Y-87892600D01*
X88357609Y-87892600D02*
X98241649Y-87892600D01*
X99957609Y-87892600D02*
X105841649Y-87892600D01*
X107557609Y-87892600D02*
X115353944Y-87892600D01*
X84440299Y-88061800D02*
X86599006Y-88061800D01*
X88400343Y-88061800D02*
X98199006Y-88061800D01*
X100000343Y-88061800D02*
X105799006Y-88061800D01*
X107600343Y-88061800D02*
X115472152Y-88061800D01*
X84316338Y-88231000D02*
X86589440Y-88231000D01*
X88408360Y-88231000D02*
X98189440Y-88231000D01*
X100008360Y-88231000D02*
X105789440Y-88231000D01*
X107608360Y-88231000D02*
X115590359Y-88231000D01*
X84212811Y-88400200D02*
X86611504Y-88400200D01*
X88387746Y-88400200D02*
X98211504Y-88400200D01*
X99987746Y-88400200D02*
X105811504Y-88400200D01*
X107587746Y-88400200D02*
X115708567Y-88400200D01*
X84109284Y-88569400D02*
X86667483Y-88569400D01*
X88331694Y-88569400D02*
X98267483Y-88569400D01*
X99931694Y-88569400D02*
X105867483Y-88569400D01*
X107531694Y-88569400D02*
X115826774Y-88569400D01*
X84005757Y-88738600D02*
X86764454Y-88738600D01*
X88233741Y-88738600D02*
X98364454Y-88738600D01*
X99833741Y-88738600D02*
X105964454Y-88738600D01*
X107433741Y-88738600D02*
X115944982Y-88738600D01*
X83902231Y-88907800D02*
X86923827Y-88907800D01*
X88076361Y-88907800D02*
X88492545Y-88907800D01*
X89504175Y-88907800D02*
X90492545Y-88907800D01*
X91504175Y-88907800D02*
X92492545Y-88907800D01*
X93504175Y-88907800D02*
X94502366Y-88907800D01*
X95500649Y-88907800D02*
X98523827Y-88907800D01*
X99676361Y-88907800D02*
X100092545Y-88907800D01*
X101104175Y-88907800D02*
X102102366Y-88907800D01*
X103100649Y-88907800D02*
X106123827Y-88907800D01*
X107276361Y-88907800D02*
X107692545Y-88907800D01*
X108704175Y-88907800D02*
X109692545Y-88907800D01*
X110704175Y-88907800D02*
X116063189Y-88907800D01*
X83798704Y-89077000D02*
X87250867Y-89077000D01*
X87755489Y-89077000D02*
X88253874Y-89077000D01*
X89747119Y-89077000D02*
X90253874Y-89077000D01*
X91747119Y-89077000D02*
X92253874Y-89077000D01*
X93747120Y-89077000D02*
X94314422Y-89077000D01*
X95685579Y-89077000D02*
X98850867Y-89077000D01*
X99355489Y-89077000D02*
X99853874Y-89077000D01*
X101347120Y-89077000D02*
X101914422Y-89077000D01*
X103285579Y-89077000D02*
X106450867Y-89077000D01*
X106955489Y-89077000D02*
X107453874Y-89077000D01*
X108947119Y-89077000D02*
X109453874Y-89077000D01*
X110947119Y-89077000D02*
X116181397Y-89077000D01*
X83695177Y-89246200D02*
X88102339Y-89246200D01*
X89898333Y-89246200D02*
X90102339Y-89246200D01*
X91898333Y-89246200D02*
X92102339Y-89246200D01*
X93898333Y-89246200D02*
X94110625Y-89246200D01*
X94324987Y-89246200D02*
X94367413Y-89246200D01*
X95632587Y-89246200D02*
X95675013Y-89246200D01*
X95889376Y-89246200D02*
X99702339Y-89246200D01*
X101498333Y-89246200D02*
X101710625Y-89246200D01*
X101924987Y-89246200D02*
X101967413Y-89246200D01*
X103232587Y-89246200D02*
X103275013Y-89246200D01*
X103489376Y-89246200D02*
X107302339Y-89246200D01*
X109098333Y-89246200D02*
X109302339Y-89246200D01*
X111098333Y-89246200D02*
X116299604Y-89246200D01*
X83591650Y-89415400D02*
X87999992Y-89415400D01*
X94494187Y-89415400D02*
X94536613Y-89415400D01*
X95463387Y-89415400D02*
X95505813Y-89415400D01*
X95998740Y-89415400D02*
X99599992Y-89415400D01*
X102094187Y-89415400D02*
X102136613Y-89415400D01*
X103063387Y-89415400D02*
X103105813Y-89415400D01*
X103598740Y-89415400D02*
X107199992Y-89415400D01*
X111200904Y-89415400D02*
X116417812Y-89415400D01*
X83488123Y-89584600D02*
X87932194Y-89584600D01*
X94663387Y-89584600D02*
X94705813Y-89584600D01*
X95294187Y-89584600D02*
X95336613Y-89584600D01*
X96064465Y-89584600D02*
X99532194Y-89584600D01*
X102263387Y-89584600D02*
X102305813Y-89584600D01*
X102894187Y-89584600D02*
X102936613Y-89584600D01*
X103664465Y-89584600D02*
X107132194Y-89584600D01*
X111269148Y-89584600D02*
X116536019Y-89584600D01*
X83384596Y-89753800D02*
X87896229Y-89753800D01*
X94832587Y-89753800D02*
X94875013Y-89753800D01*
X95124987Y-89753800D02*
X95167413Y-89753800D01*
X96102316Y-89753800D02*
X99496229Y-89753800D01*
X102432587Y-89753800D02*
X102475013Y-89753800D01*
X102724987Y-89753800D02*
X102767413Y-89753800D01*
X103702316Y-89753800D02*
X107096229Y-89753800D01*
X111302651Y-89753800D02*
X116654227Y-89753800D01*
X83281069Y-89923000D02*
X87889523Y-89923000D01*
X94973502Y-89923000D02*
X94998214Y-89923000D01*
X95001787Y-89923000D02*
X95044213Y-89923000D01*
X96114579Y-89923000D02*
X99489523Y-89923000D01*
X102555787Y-89923000D02*
X102598213Y-89923000D01*
X102601787Y-89923000D02*
X102644213Y-89923000D01*
X103714579Y-89923000D02*
X107089523Y-89923000D01*
X111308206Y-89923000D02*
X116772434Y-89923000D01*
X83177542Y-90092200D02*
X87906686Y-90092200D01*
X95170987Y-90092200D02*
X95213413Y-90092200D01*
X96094633Y-90092200D02*
X99506686Y-90092200D01*
X102386587Y-90092200D02*
X102429013Y-90092200D01*
X102770987Y-90092200D02*
X102813413Y-90092200D01*
X103694633Y-90092200D02*
X107106686Y-90092200D01*
X111294669Y-90092200D02*
X116890642Y-90092200D01*
X83074015Y-90261400D02*
X87949202Y-90261400D01*
X95340187Y-90261400D02*
X95382613Y-90261400D01*
X96049593Y-90261400D02*
X99549202Y-90261400D01*
X102217387Y-90261400D02*
X102259813Y-90261400D01*
X102940187Y-90261400D02*
X102982613Y-90261400D01*
X103649593Y-90261400D02*
X107149202Y-90261400D01*
X111254193Y-90261400D02*
X117008849Y-90261400D01*
X82970488Y-90430600D02*
X88021353Y-90430600D01*
X95509387Y-90430600D02*
X95551813Y-90430600D01*
X95975182Y-90430600D02*
X99621353Y-90430600D01*
X101578859Y-90430600D02*
X101624340Y-90430600D01*
X102048187Y-90430600D02*
X102090613Y-90430600D01*
X103109387Y-90430600D02*
X103151813Y-90430600D01*
X103575182Y-90430600D02*
X107221353Y-90430600D01*
X111178859Y-90430600D02*
X117116417Y-90430600D01*
X82866961Y-90599800D02*
X88132641Y-90599800D01*
X95678587Y-90599800D02*
X95721013Y-90599800D01*
X95793296Y-90599800D02*
X99732641Y-90599800D01*
X101464791Y-90599800D02*
X101806703Y-90599800D01*
X101878987Y-90599800D02*
X101921413Y-90599800D01*
X103278587Y-90599800D02*
X103321013Y-90599800D01*
X103393296Y-90599800D02*
X107332641Y-90599800D01*
X111064791Y-90599800D02*
X117190828Y-90599800D01*
X82763434Y-90769000D02*
X88305309Y-90769000D01*
X95663555Y-90769000D02*
X99905309Y-90769000D01*
X101430666Y-90769000D02*
X101936444Y-90769000D01*
X103263555Y-90769000D02*
X107505309Y-90769000D01*
X110897112Y-90769000D02*
X117265240Y-90769000D01*
X82659907Y-90938200D02*
X88565000Y-90938200D01*
X94568028Y-90938200D02*
X94604257Y-90938200D01*
X95405956Y-90938200D02*
X99923745Y-90938200D01*
X113582863Y-90938200D02*
X117339651Y-90938200D01*
X82556380Y-91107400D02*
X88565000Y-91107400D01*
X94737228Y-91107400D02*
X99955518Y-91107400D01*
X113769066Y-91107400D02*
X117414063Y-91107400D01*
X82452853Y-91276600D02*
X88565000Y-91276600D01*
X94906428Y-91276600D02*
X100033853Y-91276600D01*
X113938266Y-91276600D02*
X117488474Y-91276600D01*
X82349627Y-91445800D02*
X88565000Y-91445800D01*
X95075628Y-91445800D02*
X100184134Y-91445800D01*
X114107466Y-91445800D02*
X117562886Y-91445800D01*
X82287170Y-91615000D02*
X88565000Y-91615000D01*
X98061355Y-91615000D02*
X100353334Y-91615000D01*
X114276666Y-91615000D02*
X117637297Y-91615000D01*
X82224712Y-91784200D02*
X88565000Y-91784200D01*
X98289028Y-91784200D02*
X100522534Y-91784200D01*
X114445866Y-91784200D02*
X117711709Y-91784200D01*
X82162254Y-91953400D02*
X88593741Y-91953400D01*
X98458228Y-91953400D02*
X100691734Y-91953400D01*
X114615066Y-91953400D02*
X117786120Y-91953400D01*
X82099797Y-92122600D02*
X88707417Y-92122600D01*
X98627428Y-92122600D02*
X100927732Y-92122600D01*
X114784266Y-92122600D02*
X117860532Y-92122600D01*
X82037339Y-92291800D02*
X88876617Y-92291800D01*
X98796628Y-92291800D02*
X113030134Y-92291800D01*
X114953466Y-92291800D02*
X117934944Y-92291800D01*
X81974882Y-92461000D02*
X89045817Y-92461000D01*
X98965828Y-92461000D02*
X113199334Y-92461000D01*
X115122666Y-92461000D02*
X118009355Y-92461000D01*
X81912424Y-92630200D02*
X89215017Y-92630200D01*
X99135028Y-92630200D02*
X113368534Y-92630200D01*
X115291866Y-92630200D02*
X118083767Y-92630200D01*
X81849966Y-92799400D02*
X89384217Y-92799400D01*
X99304228Y-92799400D02*
X113537734Y-92799400D01*
X115461066Y-92799400D02*
X118158178Y-92799400D01*
X81787509Y-92968600D02*
X89553417Y-92968600D01*
X99473428Y-92968600D02*
X113706934Y-92968600D01*
X115630266Y-92968600D02*
X118232590Y-92968600D01*
X81725051Y-93137800D02*
X89722617Y-93137800D01*
X99642628Y-93137800D02*
X103859127Y-93137800D01*
X109240642Y-93137800D02*
X113876134Y-93137800D01*
X115799466Y-93137800D02*
X118307001Y-93137800D01*
X81662594Y-93307000D02*
X89891817Y-93307000D01*
X99811828Y-93307000D02*
X103677818Y-93307000D01*
X109422182Y-93307000D02*
X114045334Y-93307000D01*
X115968666Y-93307000D02*
X118381413Y-93307000D01*
X81600136Y-93476200D02*
X90061017Y-93476200D01*
X99981028Y-93476200D02*
X103508618Y-93476200D01*
X109591382Y-93476200D02*
X114214534Y-93476200D01*
X116137866Y-93476200D02*
X118455824Y-93476200D01*
X81537679Y-93645400D02*
X90230217Y-93645400D01*
X100150228Y-93645400D02*
X103348493Y-93645400D01*
X109760582Y-93645400D02*
X114383734Y-93645400D01*
X116307066Y-93645400D02*
X118530236Y-93645400D01*
X81475221Y-93814600D02*
X90399417Y-93814600D01*
X100319428Y-93814600D02*
X103273523Y-93814600D01*
X109929782Y-93814600D02*
X114552934Y-93814600D01*
X116476266Y-93814600D02*
X118604647Y-93814600D01*
X81412763Y-93983800D02*
X90413501Y-93983800D01*
X100488628Y-93983800D02*
X103265000Y-93983800D01*
X104231382Y-93983800D02*
X104328968Y-93983800D01*
X110098982Y-93983800D02*
X114722134Y-93983800D01*
X116645466Y-93983800D02*
X118659453Y-93983800D01*
X81350306Y-94153000D02*
X90413501Y-94153000D01*
X100657828Y-94153000D02*
X103265000Y-94153000D01*
X104135000Y-94153000D02*
X104290571Y-94153000D01*
X110268182Y-94153000D02*
X114891334Y-94153000D01*
X116814666Y-94153000D02*
X118697085Y-94153000D01*
X81287848Y-94322200D02*
X90413501Y-94322200D01*
X100827028Y-94322200D02*
X103265000Y-94322200D01*
X104135000Y-94322200D02*
X104302212Y-94322200D01*
X110437382Y-94322200D02*
X115060534Y-94322200D01*
X116983866Y-94322200D02*
X118734717Y-94322200D01*
X81225391Y-94491400D02*
X90448838Y-94491400D01*
X93149545Y-94491400D02*
X98476217Y-94491400D01*
X100996228Y-94491400D02*
X103265000Y-94491400D01*
X104135000Y-94491400D02*
X104362061Y-94491400D01*
X110606582Y-94491400D02*
X115229734Y-94491400D01*
X117153066Y-94491400D02*
X118772349Y-94491400D01*
X81162933Y-94660600D02*
X86885109Y-94660600D01*
X96111190Y-94660600D02*
X98645417Y-94660600D01*
X101165428Y-94660600D02*
X103265000Y-94660600D01*
X104135000Y-94660600D02*
X104496760Y-94660600D01*
X105300906Y-94660600D02*
X108545417Y-94660600D01*
X110775782Y-94660600D02*
X115398934Y-94660600D01*
X117322266Y-94660600D02*
X118809981Y-94660600D01*
X81100475Y-94829800D02*
X86618535Y-94829800D01*
X96333720Y-94829800D02*
X98814617Y-94829800D01*
X101334628Y-94829800D02*
X103265000Y-94829800D01*
X104135000Y-94829800D02*
X108714617Y-94829800D01*
X110944982Y-94829800D02*
X115568134Y-94829800D01*
X117491466Y-94829800D02*
X118847613Y-94829800D01*
X81038018Y-94999000D02*
X86449335Y-94999000D01*
X96443914Y-94999000D02*
X97895019Y-94999000D01*
X98105939Y-94999000D02*
X98983817Y-94999000D01*
X101503828Y-94999000D02*
X103265000Y-94999000D01*
X104135000Y-94999000D02*
X108883817Y-94999000D01*
X111114182Y-94999000D02*
X115737334Y-94999000D01*
X117660666Y-94999000D02*
X118885245Y-94999000D01*
X81003338Y-95168200D02*
X86280135Y-95168200D01*
X96497718Y-95168200D02*
X97569054Y-95168200D01*
X98430917Y-95168200D02*
X99153017Y-95168200D01*
X101673028Y-95168200D02*
X103265000Y-95168200D01*
X104135000Y-95168200D02*
X109053017Y-95168200D01*
X111283382Y-95168200D02*
X115906534Y-95168200D01*
X117829866Y-95168200D02*
X118922877Y-95168200D01*
X80976355Y-95337400D02*
X86110935Y-95337400D01*
X96910827Y-95337400D02*
X97448855Y-95337400D01*
X98551576Y-95337400D02*
X99322217Y-95337400D01*
X101842228Y-95337400D02*
X103265000Y-95337400D01*
X104135000Y-95337400D02*
X109222217Y-95337400D01*
X111452582Y-95337400D02*
X116075734Y-95337400D01*
X117999066Y-95337400D02*
X118960510Y-95337400D01*
X80949372Y-95506600D02*
X85941735Y-95506600D01*
X97144050Y-95506600D02*
X97396198Y-95506600D01*
X98603377Y-95506600D02*
X99491417Y-95506600D01*
X102011428Y-95506600D02*
X103265000Y-95506600D01*
X104135000Y-95506600D02*
X109391417Y-95506600D01*
X111621782Y-95506600D02*
X116244934Y-95506600D01*
X118168266Y-95506600D02*
X118998142Y-95506600D01*
X80922389Y-95675800D02*
X85772535Y-95675800D01*
X97242404Y-95675800D02*
X97393696Y-95675800D01*
X98608133Y-95675800D02*
X99660617Y-95675800D01*
X102180628Y-95675800D02*
X103265000Y-95675800D01*
X104135000Y-95675800D02*
X109560617Y-95675800D01*
X111790982Y-95675800D02*
X116414134Y-95675800D01*
X118337466Y-95675800D02*
X119035774Y-95675800D01*
X80895406Y-95845000D02*
X85603335Y-95845000D01*
X97284959Y-95845000D02*
X97440901Y-95845000D01*
X98558676Y-95845000D02*
X99829817Y-95845000D01*
X102349828Y-95845000D02*
X103265000Y-95845000D01*
X104135000Y-95845000D02*
X109729817Y-95845000D01*
X111960182Y-95845000D02*
X116583334Y-95845000D01*
X118506666Y-95845000D02*
X119073406Y-95845000D01*
X80868423Y-96014200D02*
X85434135Y-96014200D01*
X87357465Y-96014200D02*
X93545709Y-96014200D01*
X94854292Y-96014200D02*
X94947930Y-96014200D01*
X97274626Y-96014200D02*
X97551951Y-96014200D01*
X98449631Y-96014200D02*
X99999017Y-96014200D01*
X102519028Y-96014200D02*
X103224839Y-96014200D01*
X104176070Y-96014200D02*
X109899017Y-96014200D01*
X112125801Y-96014200D02*
X116752534Y-96014200D01*
X118675866Y-96014200D02*
X119111038Y-96014200D01*
X80841440Y-96183400D02*
X85264935Y-96183400D01*
X87188265Y-96183400D02*
X93515000Y-96183400D01*
X94885000Y-96183400D02*
X94913501Y-96183400D01*
X97216579Y-96183400D02*
X97565000Y-96183400D01*
X98435000Y-96183400D02*
X100168217Y-96183400D01*
X102688228Y-96183400D02*
X103129139Y-96183400D01*
X104270537Y-96183400D02*
X110068217Y-96183400D01*
X112217022Y-96183400D02*
X116921734Y-96183400D01*
X118845066Y-96183400D02*
X119148670Y-96183400D01*
X80814457Y-96352600D02*
X85095735Y-96352600D01*
X87019065Y-96352600D02*
X93515000Y-96352600D01*
X94885000Y-96352600D02*
X94913501Y-96352600D01*
X97110000Y-96352600D02*
X97565000Y-96352600D01*
X98435000Y-96352600D02*
X100337417Y-96352600D01*
X102857428Y-96352600D02*
X103090576Y-96352600D01*
X104309853Y-96352600D02*
X110237417Y-96352600D01*
X112235000Y-96352600D02*
X117090934Y-96352600D01*
X119014266Y-96352600D02*
X119186302Y-96352600D01*
X80787474Y-96521800D02*
X84926535Y-96521800D01*
X86849865Y-96521800D02*
X93529300Y-96521800D01*
X94870700Y-96521800D02*
X94913501Y-96521800D01*
X97110000Y-96521800D02*
X97565000Y-96521800D01*
X98435000Y-96521800D02*
X100506617Y-96521800D01*
X103026628Y-96521800D02*
X103102138Y-96521800D01*
X104297900Y-96521800D02*
X110406617Y-96521800D01*
X112235000Y-96521800D02*
X117260134Y-96521800D01*
X119183466Y-96521800D02*
X119223934Y-96521800D01*
X80760491Y-96691000D02*
X84757335Y-96691000D01*
X86680665Y-96691000D02*
X93516500Y-96691000D01*
X94185000Y-96691000D02*
X94215000Y-96691000D01*
X94883500Y-96691000D02*
X94913501Y-96691000D01*
X97110000Y-96691000D02*
X97565000Y-96691000D01*
X98435000Y-96691000D02*
X100675817Y-96691000D01*
X104238196Y-96691000D02*
X110565000Y-96691000D01*
X112235000Y-96691000D02*
X117429334Y-96691000D01*
X80733509Y-96860200D02*
X84588135Y-96860200D01*
X86511465Y-96860200D02*
X93515000Y-96860200D01*
X94185000Y-96860200D02*
X94215000Y-96860200D01*
X94885000Y-96860200D02*
X94913501Y-96860200D01*
X97110000Y-96860200D02*
X97565000Y-96860200D01*
X98435000Y-96860200D02*
X100010827Y-96860200D01*
X100590065Y-96860200D02*
X100845017Y-96860200D01*
X104101326Y-96860200D02*
X110565000Y-96860200D01*
X112235000Y-96860200D02*
X117598534Y-96860200D01*
X80706526Y-97029400D02*
X84418935Y-97029400D01*
X86342265Y-97029400D02*
X93515000Y-97029400D01*
X94185000Y-97029400D02*
X94215000Y-97029400D01*
X94885000Y-97029400D02*
X94913501Y-97029400D01*
X97110000Y-97029400D02*
X97565000Y-97029400D01*
X98435000Y-97029400D02*
X99814431Y-97029400D01*
X100786169Y-97029400D02*
X101014217Y-97029400D01*
X104144389Y-97029400D02*
X107324939Y-97029400D01*
X108031300Y-97029400D02*
X109356939Y-97029400D01*
X110063300Y-97029400D02*
X110565000Y-97029400D01*
X112235000Y-97029400D02*
X117767734Y-97029400D01*
X80679543Y-97198600D02*
X84249735Y-97198600D01*
X86173065Y-97198600D02*
X93551457Y-97198600D01*
X94185000Y-97198600D02*
X94215000Y-97198600D01*
X94848542Y-97198600D02*
X94953582Y-97198600D01*
X97110000Y-97198600D02*
X97565000Y-97198600D01*
X98435000Y-97198600D02*
X99722625Y-97198600D01*
X100876802Y-97198600D02*
X101183417Y-97198600D01*
X104216893Y-97198600D02*
X107094534Y-97198600D01*
X108263090Y-97198600D02*
X109126534Y-97198600D01*
X110295090Y-97198600D02*
X110565000Y-97198600D01*
X112235000Y-97198600D02*
X117936934Y-97198600D01*
X80652560Y-97367800D02*
X84080535Y-97367800D01*
X86003865Y-97367800D02*
X96240000Y-97367800D01*
X97110000Y-97367800D02*
X97565000Y-97367800D01*
X98435000Y-97367800D02*
X99690364Y-97367800D01*
X100909641Y-97367800D02*
X101352617Y-97367800D01*
X104233943Y-97367800D02*
X106965820Y-97367800D01*
X108390946Y-97367800D02*
X108997820Y-97367800D01*
X110422946Y-97367800D02*
X110565000Y-97367800D01*
X112235000Y-97367800D02*
X118106134Y-97367800D01*
X80625577Y-97537000D02*
X83911335Y-97537000D01*
X85834665Y-97537000D02*
X96240000Y-97537000D01*
X97110000Y-97537000D02*
X97565000Y-97537000D01*
X98435000Y-97537000D02*
X99704928Y-97537000D01*
X100894446Y-97537000D02*
X101521817Y-97537000D01*
X104393288Y-97537000D02*
X106898269Y-97537000D01*
X108460607Y-97537000D02*
X108930269Y-97537000D01*
X110492607Y-97537000D02*
X110565000Y-97537000D01*
X112235000Y-97537000D02*
X115218412Y-97537000D01*
X80598594Y-97706200D02*
X83742135Y-97706200D01*
X85665465Y-97706200D02*
X96103618Y-97706200D01*
X97110000Y-97706200D02*
X97565000Y-97706200D01*
X98801744Y-97706200D02*
X99771599Y-97706200D01*
X100830534Y-97706200D02*
X101691017Y-97706200D01*
X104587365Y-97706200D02*
X106869638Y-97706200D01*
X108488676Y-97706200D02*
X108901638Y-97706200D01*
X110520676Y-97706200D02*
X110565000Y-97706200D01*
X112235000Y-97706200D02*
X115032135Y-97706200D01*
X80571611Y-97875400D02*
X83572935Y-97875400D01*
X85496265Y-97875400D02*
X95934418Y-97875400D01*
X97089405Y-97875400D02*
X97434418Y-97875400D01*
X98973427Y-97875400D02*
X99840000Y-97875400D01*
X100760000Y-97875400D02*
X101860217Y-97875400D01*
X104677544Y-97875400D02*
X106876615Y-97875400D01*
X108483459Y-97875400D02*
X108908615Y-97875400D01*
X110515459Y-97875400D02*
X110565000Y-97875400D01*
X112235000Y-97875400D02*
X114862935Y-97875400D01*
X80544628Y-98044600D02*
X83403735Y-98044600D01*
X85327065Y-98044600D02*
X95765218Y-98044600D01*
X96993262Y-98044600D02*
X97265218Y-98044600D01*
X99083606Y-98044600D02*
X99840000Y-98044600D01*
X100760000Y-98044600D02*
X102029417Y-98044600D01*
X104709616Y-98044600D02*
X106920467Y-98044600D01*
X108438980Y-98044600D02*
X108952467Y-98044600D01*
X110470980Y-98044600D02*
X110565000Y-98044600D01*
X112235000Y-98044600D02*
X114693735Y-98044600D01*
X80517645Y-98213800D02*
X83234535Y-98213800D01*
X85157865Y-98213800D02*
X95596018Y-98213800D01*
X96826382Y-98213800D02*
X97096018Y-98213800D01*
X98964987Y-98213800D02*
X99007413Y-98213800D01*
X99311827Y-98213800D02*
X99735662Y-98213800D01*
X100760000Y-98213800D02*
X102198617Y-98213800D01*
X104694037Y-98213800D02*
X107007777Y-98213800D01*
X108350177Y-98213800D02*
X109039777Y-98213800D01*
X110382177Y-98213800D02*
X110565000Y-98213800D01*
X112235000Y-98213800D02*
X114524535Y-98213800D01*
X80490662Y-98383000D02*
X83065335Y-98383000D01*
X84988665Y-98383000D02*
X95426818Y-98383000D01*
X96657182Y-98383000D02*
X96926818Y-98383000D01*
X98795787Y-98383000D02*
X98838213Y-98383000D01*
X99481026Y-98383000D02*
X99566462Y-98383000D01*
X100751729Y-98383000D02*
X102367817Y-98383000D01*
X104629264Y-98383000D02*
X107156044Y-98383000D01*
X108344246Y-98383000D02*
X109053331Y-98383000D01*
X110231396Y-98383000D02*
X110565000Y-98383000D01*
X112235000Y-98383000D02*
X114355335Y-98383000D01*
X80463680Y-98552200D02*
X82896135Y-98552200D01*
X84819465Y-98552200D02*
X95257618Y-98552200D01*
X96487982Y-98552200D02*
X96757618Y-98552200D01*
X98626587Y-98552200D02*
X98697299Y-98552200D01*
X100684234Y-98552200D02*
X102537017Y-98552200D01*
X104483475Y-98552200D02*
X107509887Y-98552200D01*
X108488796Y-98552200D02*
X108812387Y-98552200D01*
X109883011Y-98552200D02*
X110565000Y-98552200D01*
X112235000Y-98552200D02*
X114186135Y-98552200D01*
X80436697Y-98721400D02*
X82726935Y-98721400D01*
X84650265Y-98721400D02*
X95088418Y-98721400D01*
X96318782Y-98721400D02*
X96588418Y-98721400D01*
X97841598Y-98721400D02*
X97881954Y-98721400D01*
X98457387Y-98721400D02*
X98499813Y-98721400D01*
X100529138Y-98721400D02*
X102664267Y-98721400D01*
X103883543Y-98721400D02*
X107426589Y-98721400D01*
X108347387Y-98721400D02*
X108389813Y-98721400D01*
X108692340Y-98721400D02*
X108696840Y-98721400D01*
X109963751Y-98721400D02*
X110565000Y-98721400D01*
X112235000Y-98721400D02*
X114016935Y-98721400D01*
X80424405Y-98890600D02*
X82557735Y-98890600D01*
X84481065Y-98890600D02*
X94919218Y-98890600D01*
X96149582Y-98890600D02*
X96419218Y-98890600D01*
X98010846Y-98890600D02*
X98051153Y-98890600D01*
X98288187Y-98890600D02*
X98330613Y-98890600D01*
X100359938Y-98890600D02*
X102704261Y-98890600D01*
X103846765Y-98890600D02*
X107367997Y-98890600D01*
X108178187Y-98890600D02*
X108220613Y-98890600D01*
X110019587Y-98890600D02*
X110565000Y-98890600D01*
X112235000Y-98890600D02*
X113847735Y-98890600D01*
X80430726Y-99059800D02*
X82388535Y-99059800D01*
X84311865Y-99059800D02*
X94750018Y-99059800D01*
X95980382Y-99059800D02*
X96250018Y-99059800D01*
X98180046Y-99059800D02*
X98245684Y-99059800D01*
X100190738Y-99059800D02*
X102798560Y-99059800D01*
X103750087Y-99059800D02*
X107356628Y-99059800D01*
X108008987Y-99059800D02*
X108051413Y-99059800D01*
X108068587Y-99059800D02*
X108111013Y-99059800D01*
X110032150Y-99059800D02*
X110565000Y-99059800D01*
X112235000Y-99059800D02*
X113678535Y-99059800D01*
X80437046Y-99229000D02*
X82219335Y-99229000D01*
X84142665Y-99229000D02*
X94580818Y-99229000D01*
X95811182Y-99229000D02*
X96080818Y-99229000D01*
X98349246Y-99229000D02*
X98389553Y-99229000D01*
X100021538Y-99229000D02*
X103019318Y-99229000D01*
X103533607Y-99229000D02*
X107385194Y-99229000D01*
X107839787Y-99229000D02*
X107882213Y-99229000D01*
X108237787Y-99229000D02*
X108280213Y-99229000D01*
X110006247Y-99229000D02*
X110565000Y-99229000D01*
X112235000Y-99229000D02*
X113509335Y-99229000D01*
X80443366Y-99398200D02*
X82050135Y-99398200D01*
X83973465Y-99398200D02*
X94411618Y-99398200D01*
X95641982Y-99398200D02*
X95911618Y-99398200D01*
X98508461Y-99398200D02*
X98551262Y-99398200D01*
X99852338Y-99398200D02*
X107458147Y-99398200D01*
X107670587Y-99398200D02*
X107713013Y-99398200D01*
X108406987Y-99398200D02*
X108449413Y-99398200D01*
X108660157Y-99398200D02*
X108730317Y-99398200D01*
X109931224Y-99398200D02*
X110565000Y-99398200D01*
X112235000Y-99398200D02*
X113340135Y-99398200D01*
X80449686Y-99567400D02*
X81880935Y-99567400D01*
X83804265Y-99567400D02*
X94242418Y-99567400D01*
X95472782Y-99567400D02*
X95742418Y-99567400D01*
X99683138Y-99567400D02*
X99999824Y-99567400D01*
X100601294Y-99567400D02*
X107645999Y-99567400D01*
X108474000Y-99567400D02*
X108870939Y-99567400D01*
X109785846Y-99567400D02*
X110417418Y-99567400D01*
X112235000Y-99567400D02*
X113170935Y-99567400D01*
X80456006Y-99736600D02*
X81711735Y-99736600D01*
X83635065Y-99736600D02*
X94073218Y-99736600D01*
X95303582Y-99736600D02*
X95573218Y-99736600D01*
X99513938Y-99736600D02*
X99809501Y-99736600D01*
X100790953Y-99736600D02*
X107636127Y-99736600D01*
X108482843Y-99736600D02*
X108906127Y-99736600D01*
X109752843Y-99736600D02*
X110248218Y-99736600D01*
X112235000Y-99736600D02*
X113001735Y-99736600D01*
X80462326Y-99905800D02*
X81542535Y-99905800D01*
X83465865Y-99905800D02*
X93904018Y-99905800D01*
X95134382Y-99905800D02*
X95404018Y-99905800D01*
X99344738Y-99905800D02*
X99719539Y-99905800D01*
X108642748Y-99905800D02*
X108747268Y-99905800D01*
X112235000Y-99905800D02*
X112832535Y-99905800D01*
X80468646Y-100075000D02*
X81334061Y-100075000D01*
X83296665Y-100075000D02*
X93734818Y-100075000D01*
X94965182Y-100075000D02*
X95234818Y-100075000D01*
X99175538Y-100075000D02*
X99690264Y-100075000D01*
X112235000Y-100075000D02*
X112663335Y-100075000D01*
X116286666Y-100075000D02*
X116380864Y-100075000D01*
X80474966Y-100244200D02*
X81182063Y-100244200D01*
X83127465Y-100244200D02*
X93565618Y-100244200D01*
X94795982Y-100244200D02*
X95065618Y-100244200D01*
X99006338Y-100244200D02*
X99706250Y-100244200D01*
X112235000Y-100244200D02*
X112494135Y-100244200D01*
X116117466Y-100244200D02*
X116194134Y-100244200D01*
X80481286Y-100413400D02*
X81097480Y-100413400D01*
X82958265Y-100413400D02*
X93396418Y-100413400D01*
X94626782Y-100413400D02*
X94896418Y-100413400D01*
X96126782Y-100413400D02*
X96276239Y-100413400D01*
X97401334Y-100413400D02*
X97536062Y-100413400D01*
X98837138Y-100413400D02*
X99776239Y-100413400D01*
X112218211Y-100413400D02*
X112324935Y-100413400D01*
X115948266Y-100413400D02*
X116024934Y-100413400D01*
X80487606Y-100582600D02*
X81065633Y-100582600D01*
X82789065Y-100582600D02*
X93227218Y-100582600D01*
X94457582Y-100582600D02*
X94727218Y-100582600D01*
X95957582Y-100582600D02*
X96425487Y-100582600D01*
X97177804Y-100582600D02*
X97366862Y-100582600D01*
X98667938Y-100582600D02*
X99925487Y-100582600D01*
X112128120Y-100582600D02*
X112155735Y-100582600D01*
X115779066Y-100582600D02*
X115855734Y-100582600D01*
X80493926Y-100751800D02*
X81074546Y-100751800D01*
X82619865Y-100751800D02*
X93058018Y-100751800D01*
X94288382Y-100751800D02*
X94558018Y-100751800D01*
X95788382Y-100751800D02*
X97197662Y-100751800D01*
X98498738Y-100751800D02*
X107518275Y-100751800D01*
X111963382Y-100751800D02*
X111986535Y-100751800D01*
X115609866Y-100751800D02*
X115686534Y-100751800D01*
X80500246Y-100921000D02*
X81124578Y-100921000D01*
X82450665Y-100921000D02*
X92888818Y-100921000D01*
X94119182Y-100921000D02*
X94388818Y-100921000D01*
X95619182Y-100921000D02*
X97028462Y-100921000D01*
X98329538Y-100921000D02*
X107724120Y-100921000D01*
X111794182Y-100921000D02*
X111817335Y-100921000D01*
X115440666Y-100921000D02*
X115517334Y-100921000D01*
X80506566Y-101090200D02*
X81227523Y-101090200D01*
X82322807Y-101090200D02*
X92719618Y-101090200D01*
X93949982Y-101090200D02*
X94219618Y-101090200D01*
X95449982Y-101090200D02*
X96859262Y-101090200D01*
X98160338Y-101090200D02*
X107544429Y-101090200D01*
X111624982Y-101090200D02*
X111648135Y-101090200D01*
X115271466Y-101090200D02*
X115348134Y-101090200D01*
X80512886Y-101259400D02*
X81430668Y-101259400D01*
X82116214Y-101259400D02*
X92550418Y-101259400D01*
X93780782Y-101259400D02*
X94050418Y-101259400D01*
X95280782Y-101259400D02*
X96690062Y-101259400D01*
X97991138Y-101259400D02*
X107125459Y-101259400D01*
X111455782Y-101259400D02*
X111478935Y-101259400D01*
X115102266Y-101259400D02*
X115178934Y-101259400D01*
X80519207Y-101428600D02*
X88609492Y-101428600D01*
X89391592Y-101428600D02*
X92381218Y-101428600D01*
X93611582Y-101428600D02*
X93881218Y-101428600D01*
X95111582Y-101428600D02*
X95485820Y-101428600D01*
X95914893Y-101428600D02*
X96520862Y-101428600D01*
X97821938Y-101428600D02*
X106956218Y-101428600D01*
X111286582Y-101428600D02*
X111309735Y-101428600D01*
X114933066Y-101428600D02*
X115009734Y-101428600D01*
X116933066Y-101428600D02*
X117109735Y-101428600D01*
X80525527Y-101597800D02*
X88467597Y-101597800D01*
X89531613Y-101597800D02*
X92212018Y-101597800D01*
X93442382Y-101597800D02*
X93712018Y-101597800D01*
X94942382Y-101597800D02*
X95238828Y-101597800D01*
X97652738Y-101597800D02*
X106787018Y-101597800D01*
X111117382Y-101597800D02*
X111140535Y-101597800D01*
X114763866Y-101597800D02*
X114840534Y-101597800D01*
X116763866Y-101597800D02*
X116940535Y-101597800D01*
X80531847Y-101767000D02*
X88404616Y-101767000D01*
X89595536Y-101767000D02*
X92042818Y-101767000D01*
X93273182Y-101767000D02*
X93542818Y-101767000D01*
X94773182Y-101767000D02*
X95136168Y-101767000D01*
X97483538Y-101767000D02*
X106617818Y-101767000D01*
X110948182Y-101767000D02*
X110971335Y-101767000D01*
X114594666Y-101767000D02*
X114671334Y-101767000D01*
X116594666Y-101767000D02*
X116771335Y-101767000D01*
X80538167Y-101936200D02*
X88348618Y-101936200D01*
X89608686Y-101936200D02*
X91873618Y-101936200D01*
X93103982Y-101936200D02*
X93373618Y-101936200D01*
X94603982Y-101936200D02*
X95090805Y-101936200D01*
X97314338Y-101936200D02*
X106448618Y-101936200D01*
X110764259Y-101936200D02*
X110802135Y-101936200D01*
X114425466Y-101936200D02*
X114502134Y-101936200D01*
X116425466Y-101936200D02*
X116602135Y-101936200D01*
X80544487Y-102105400D02*
X88179418Y-102105400D01*
X89576307Y-102105400D02*
X91704418Y-102105400D01*
X92934782Y-102105400D02*
X93204418Y-102105400D01*
X94434782Y-102105400D02*
X95099128Y-102105400D01*
X97355938Y-102105400D02*
X106279418Y-102105400D01*
X107509782Y-102105400D02*
X107599007Y-102105400D01*
X109787946Y-102105400D02*
X110632935Y-102105400D01*
X114256266Y-102105400D02*
X114332934Y-102105400D01*
X116256266Y-102105400D02*
X116432935Y-102105400D01*
X80550807Y-102274600D02*
X88010218Y-102274600D01*
X89482283Y-102274600D02*
X91535218Y-102274600D01*
X92765582Y-102274600D02*
X93035218Y-102274600D01*
X94265582Y-102274600D02*
X95152621Y-102274600D01*
X97525138Y-102274600D02*
X106110218Y-102274600D01*
X107340582Y-102274600D02*
X108103685Y-102274600D01*
X109275118Y-102274600D02*
X109373684Y-102274600D01*
X109385486Y-102274600D02*
X110463735Y-102274600D01*
X114087066Y-102274600D02*
X114163734Y-102274600D01*
X116087066Y-102274600D02*
X116263735Y-102274600D01*
X80557127Y-102443800D02*
X87841018Y-102443800D01*
X89281584Y-102443800D02*
X91366018Y-102443800D01*
X92596382Y-102443800D02*
X92905583Y-102443800D01*
X94096382Y-102443800D02*
X95280536Y-102443800D01*
X97631354Y-102443800D02*
X105941018Y-102443800D01*
X107171382Y-102443800D02*
X107984559Y-102443800D01*
X109404288Y-102443800D02*
X110294535Y-102443800D01*
X113917866Y-102443800D02*
X113994534Y-102443800D01*
X115917866Y-102443800D02*
X116094535Y-102443800D01*
X80563447Y-102613000D02*
X87675496Y-102613000D01*
X88902182Y-102613000D02*
X91196818Y-102613000D01*
X92427182Y-102613000D02*
X92865707Y-102613000D01*
X93927182Y-102613000D02*
X96562462Y-102613000D01*
X97660000Y-102613000D02*
X105771818Y-102613000D01*
X107002182Y-102613000D02*
X107915120Y-102613000D01*
X109475815Y-102613000D02*
X110125335Y-102613000D01*
X113748666Y-102613000D02*
X113825334Y-102613000D01*
X115748666Y-102613000D02*
X115925335Y-102613000D01*
X80597911Y-102782200D02*
X87583185Y-102782200D01*
X88732982Y-102782200D02*
X91027618Y-102782200D01*
X92257982Y-102782200D02*
X92865000Y-102782200D01*
X93757982Y-102782200D02*
X96731662Y-102782200D01*
X97660000Y-102782200D02*
X105602618Y-102782200D01*
X106832982Y-102782200D02*
X107885694Y-102782200D01*
X109504732Y-102782200D02*
X109956135Y-102782200D01*
X113579466Y-102782200D02*
X113656134Y-102782200D01*
X115579466Y-102782200D02*
X115756135Y-102782200D01*
X80638030Y-102951400D02*
X87565000Y-102951400D01*
X88563782Y-102951400D02*
X90858418Y-102951400D01*
X92088782Y-102951400D02*
X92865000Y-102951400D01*
X93735000Y-102951400D02*
X96740000Y-102951400D01*
X97660000Y-102951400D02*
X105433418Y-102951400D01*
X106663782Y-102951400D02*
X107891881Y-102951400D01*
X109500367Y-102951400D02*
X109786935Y-102951400D01*
X113410266Y-102951400D02*
X113486934Y-102951400D01*
X115410266Y-102951400D02*
X115586935Y-102951400D01*
X80678150Y-103120600D02*
X87565000Y-103120600D01*
X88435000Y-103120600D02*
X90689218Y-103120600D01*
X91919582Y-103120600D02*
X92865000Y-103120600D01*
X93735000Y-103120600D02*
X96740000Y-103120600D01*
X97660000Y-103120600D02*
X105264218Y-103120600D01*
X106494582Y-103120600D02*
X107934883Y-103120600D01*
X109456761Y-103120600D02*
X109617735Y-103120600D01*
X113241066Y-103120600D02*
X113317734Y-103120600D01*
X115241066Y-103120600D02*
X115417735Y-103120600D01*
X117341065Y-103120600D02*
X117465661Y-103120600D01*
X80718269Y-103289800D02*
X87565000Y-103289800D01*
X88435000Y-103289800D02*
X90520018Y-103289800D01*
X91750382Y-103289800D02*
X92865000Y-103289800D01*
X93735000Y-103289800D02*
X96740000Y-103289800D01*
X97660000Y-103289800D02*
X105095018Y-103289800D01*
X106325382Y-103289800D02*
X108021199Y-103289800D01*
X109368999Y-103289800D02*
X109448535Y-103289800D01*
X113071866Y-103289800D02*
X113148534Y-103289800D01*
X115071866Y-103289800D02*
X115248535Y-103289800D01*
X117171865Y-103289800D02*
X117474179Y-103289800D01*
X80758388Y-103459000D02*
X87565000Y-103459000D01*
X88435000Y-103459000D02*
X90350818Y-103459000D01*
X91581182Y-103459000D02*
X92865000Y-103459000D01*
X93735000Y-103459000D02*
X96740000Y-103459000D01*
X97660000Y-103459000D02*
X104925818Y-103459000D01*
X106156182Y-103459000D02*
X108166681Y-103459000D01*
X109219597Y-103459000D02*
X109279335Y-103459000D01*
X112902666Y-103459000D02*
X112979334Y-103459000D01*
X114902666Y-103459000D02*
X115079335Y-103459000D01*
X117002665Y-103459000D02*
X117523786Y-103459000D01*
X119102666Y-103459000D02*
X119211997Y-103459000D01*
X80798507Y-103628200D02*
X87565000Y-103628200D01*
X88435000Y-103628200D02*
X90181618Y-103628200D01*
X91411982Y-103628200D02*
X92865000Y-103628200D01*
X93735000Y-103628200D02*
X96652798Y-103628200D01*
X105986982Y-103628200D02*
X108507693Y-103628200D01*
X108889696Y-103628200D02*
X109110135Y-103628200D01*
X112733466Y-103628200D02*
X112810134Y-103628200D01*
X114733466Y-103628200D02*
X114910135Y-103628200D01*
X116833465Y-103628200D02*
X117625592Y-103628200D01*
X118933466Y-103628200D02*
X119182586Y-103628200D01*
X80838627Y-103797400D02*
X87565000Y-103797400D01*
X88435000Y-103797400D02*
X90012418Y-103797400D01*
X91242782Y-103797400D02*
X92865000Y-103797400D01*
X93735000Y-103797400D02*
X96598154Y-103797400D01*
X105817782Y-103797400D02*
X108940935Y-103797400D01*
X112564266Y-103797400D02*
X112640934Y-103797400D01*
X114564266Y-103797400D02*
X114740935Y-103797400D01*
X116664265Y-103797400D02*
X117826407Y-103797400D01*
X118695959Y-103797400D02*
X119153175Y-103797400D01*
X80878746Y-103966600D02*
X87565000Y-103966600D01*
X88435000Y-103966600D02*
X89843218Y-103966600D01*
X91073582Y-103966600D02*
X92865000Y-103966600D01*
X93735000Y-103966600D02*
X96592007Y-103966600D01*
X105648582Y-103966600D02*
X108771735Y-103966600D01*
X112395066Y-103966600D02*
X112471734Y-103966600D01*
X114395066Y-103966600D02*
X114571735Y-103966600D01*
X116495065Y-103966600D02*
X119123764Y-103966600D01*
X80918865Y-104135800D02*
X87565000Y-104135800D01*
X88435000Y-104135800D02*
X89674018Y-104135800D01*
X90904382Y-104135800D02*
X92865000Y-104135800D01*
X93735000Y-104135800D02*
X96637259Y-104135800D01*
X105479382Y-104135800D02*
X108602535Y-104135800D01*
X112225866Y-104135800D02*
X112302534Y-104135800D01*
X114225866Y-104135800D02*
X114402535Y-104135800D01*
X116325865Y-104135800D02*
X119094353Y-104135800D01*
X80958985Y-104305000D02*
X87565000Y-104305000D01*
X88435000Y-104305000D02*
X89504818Y-104305000D01*
X90735182Y-104305000D02*
X92865000Y-104305000D01*
X93735000Y-104305000D02*
X96743067Y-104305000D01*
X105257731Y-104305000D02*
X108433335Y-104305000D01*
X112056666Y-104305000D02*
X112133334Y-104305000D01*
X114056666Y-104305000D02*
X114233335Y-104305000D01*
X116156665Y-104305000D02*
X119064942Y-104305000D01*
X80999104Y-104474200D02*
X87565000Y-104474200D01*
X88435000Y-104474200D02*
X89335618Y-104474200D01*
X90565982Y-104474200D02*
X92865000Y-104474200D01*
X93735000Y-104474200D02*
X96990554Y-104474200D01*
X97406528Y-104474200D02*
X108264135Y-104474200D01*
X111887466Y-104474200D02*
X111964134Y-104474200D01*
X113887466Y-104474200D02*
X114064135Y-104474200D01*
X115987465Y-104474200D02*
X119035531Y-104474200D01*
X81039223Y-104643400D02*
X87565000Y-104643400D01*
X88435000Y-104643400D02*
X89166418Y-104643400D01*
X90396782Y-104643400D02*
X92865000Y-104643400D01*
X93735000Y-104643400D02*
X96211696Y-104643400D01*
X111718266Y-104643400D02*
X111794934Y-104643400D01*
X113718266Y-104643400D02*
X113894935Y-104643400D01*
X115818265Y-104643400D02*
X119006120Y-104643400D01*
X81079342Y-104812600D02*
X87565000Y-104812600D01*
X88435000Y-104812600D02*
X88997218Y-104812600D01*
X90227582Y-104812600D02*
X92865000Y-104812600D01*
X93735000Y-104812600D02*
X96025734Y-104812600D01*
X111549066Y-104812600D02*
X111625734Y-104812600D01*
X113549066Y-104812600D02*
X113725735Y-104812600D01*
X115649065Y-104812600D02*
X118976709Y-104812600D01*
X81119462Y-104981800D02*
X87565000Y-104981800D01*
X88435000Y-104981800D02*
X88828018Y-104981800D01*
X90058382Y-104981800D02*
X92865000Y-104981800D01*
X93735000Y-104981800D02*
X95856534Y-104981800D01*
X111379866Y-104981800D02*
X111456534Y-104981800D01*
X113379866Y-104981800D02*
X113556535Y-104981800D01*
X115479865Y-104981800D02*
X118947298Y-104981800D01*
X81159581Y-105151000D02*
X87565000Y-105151000D01*
X88435000Y-105151000D02*
X88701625Y-105151000D01*
X89889182Y-105151000D02*
X92865000Y-105151000D01*
X93735000Y-105151000D02*
X95687334Y-105151000D01*
X111210666Y-105151000D02*
X111287334Y-105151000D01*
X113210666Y-105151000D02*
X113387335Y-105151000D01*
X115310665Y-105151000D02*
X118917887Y-105151000D01*
X81199700Y-105320200D02*
X87565000Y-105320200D01*
X88435000Y-105320200D02*
X88665034Y-105320200D01*
X89719982Y-105320200D02*
X92865000Y-105320200D01*
X93735000Y-105320200D02*
X95518134Y-105320200D01*
X111041466Y-105320200D02*
X111118134Y-105320200D01*
X113041466Y-105320200D02*
X113218135Y-105320200D01*
X115141465Y-105320200D02*
X118869153Y-105320200D01*
X81239819Y-105489400D02*
X87565000Y-105489400D01*
X88435000Y-105489400D02*
X88665000Y-105489400D01*
X89550782Y-105489400D02*
X92865000Y-105489400D01*
X93735000Y-105489400D02*
X95348934Y-105489400D01*
X110872266Y-105489400D02*
X110948934Y-105489400D01*
X112872266Y-105489400D02*
X113048935Y-105489400D01*
X114972265Y-105489400D02*
X118803997Y-105489400D01*
X81279939Y-105658600D02*
X87565000Y-105658600D01*
X88435000Y-105658600D02*
X88665000Y-105658600D01*
X89535000Y-105658600D02*
X92865000Y-105658600D01*
X93735000Y-105658600D02*
X95179734Y-105658600D01*
X110703066Y-105658600D02*
X110779734Y-105658600D01*
X112703066Y-105658600D02*
X112879735Y-105658600D01*
X114803065Y-105658600D02*
X118738841Y-105658600D01*
X81320058Y-105827800D02*
X87565000Y-105827800D01*
X88435000Y-105827800D02*
X88665000Y-105827800D01*
X89535000Y-105827800D02*
X92865000Y-105827800D01*
X93735000Y-105827800D02*
X95010534Y-105827800D01*
X110533866Y-105827800D02*
X110610534Y-105827800D01*
X112533866Y-105827800D02*
X112710535Y-105827800D01*
X114633865Y-105827800D02*
X118673685Y-105827800D01*
X81360177Y-105997000D02*
X87565000Y-105997000D01*
X88435000Y-105997000D02*
X88665000Y-105997000D01*
X89535000Y-105997000D02*
X92865000Y-105997000D01*
X93735000Y-105997000D02*
X94841334Y-105997000D01*
X96764666Y-105997000D02*
X108441334Y-105997000D01*
X110364666Y-105997000D02*
X110441334Y-105997000D01*
X112364666Y-105997000D02*
X112541335Y-105997000D01*
X114464665Y-105997000D02*
X118608529Y-105997000D01*
X81400296Y-106166200D02*
X87565000Y-106166200D01*
X88435000Y-106166200D02*
X88665000Y-106166200D01*
X89535000Y-106166200D02*
X92865000Y-106166200D01*
X93735000Y-106166200D02*
X94672134Y-106166200D01*
X96595466Y-106166200D02*
X108272134Y-106166200D01*
X110195466Y-106166200D02*
X110272134Y-106166200D01*
X112195466Y-106166200D02*
X112372135Y-106166200D01*
X114295465Y-106166200D02*
X118543373Y-106166200D01*
X81440416Y-106335400D02*
X87565000Y-106335400D01*
X88435000Y-106335400D02*
X88665000Y-106335400D01*
X89535000Y-106335400D02*
X92865000Y-106335400D01*
X93735000Y-106335400D02*
X94502934Y-106335400D01*
X96426266Y-106335400D02*
X108102934Y-106335400D01*
X110026266Y-106335400D02*
X110102934Y-106335400D01*
X112026266Y-106335400D02*
X112202935Y-106335400D01*
X114126265Y-106335400D02*
X118478217Y-106335400D01*
X81510940Y-106504600D02*
X87462940Y-106504600D01*
X88536131Y-106504600D02*
X88562940Y-106504600D01*
X89636131Y-106504600D02*
X92762940Y-106504600D01*
X93836131Y-106504600D02*
X94333734Y-106504600D01*
X96257066Y-106504600D02*
X101578077Y-106504600D01*
X109857066Y-106504600D02*
X109933734Y-106504600D01*
X111857066Y-106504600D02*
X112033735Y-106504600D01*
X113957065Y-106504600D02*
X118413060Y-106504600D01*
X81588189Y-106673800D02*
X87403170Y-106673800D01*
X89696883Y-106673800D02*
X92703170Y-106673800D01*
X93896883Y-106673800D02*
X94164534Y-106673800D01*
X96087866Y-106673800D02*
X101364534Y-106673800D01*
X109687866Y-106673800D02*
X109764534Y-106673800D01*
X111687866Y-106673800D02*
X111864535Y-106673800D01*
X113787865Y-106673800D02*
X118347904Y-106673800D01*
X81665437Y-106843000D02*
X87389314Y-106843000D01*
X89708591Y-106843000D02*
X92689314Y-106843000D01*
X93908591Y-106843000D02*
X93995334Y-106843000D01*
X95918666Y-106843000D02*
X101195334Y-106843000D01*
X109518666Y-106843000D02*
X109595334Y-106843000D01*
X111518666Y-106843000D02*
X111695335Y-106843000D01*
X113618665Y-106843000D02*
X118282748Y-106843000D01*
X81742686Y-107012200D02*
X87427915Y-107012200D01*
X89673279Y-107012200D02*
X92727915Y-107012200D01*
X95749466Y-107012200D02*
X101026134Y-107012200D01*
X109349466Y-107012200D02*
X109426134Y-107012200D01*
X111349466Y-107012200D02*
X111526135Y-107012200D01*
X113449465Y-107012200D02*
X118217592Y-107012200D01*
X81819934Y-107181400D02*
X87520277Y-107181400D01*
X88477486Y-107181400D02*
X88620277Y-107181400D01*
X89577486Y-107181400D02*
X92820277Y-107181400D01*
X95580266Y-107181400D02*
X100856934Y-107181400D01*
X109180266Y-107181400D02*
X109256934Y-107181400D01*
X111180266Y-107181400D02*
X111356935Y-107181400D01*
X113280265Y-107181400D02*
X118152436Y-107181400D01*
X81897183Y-107350600D02*
X87736536Y-107350600D01*
X88267373Y-107350600D02*
X88836536Y-107350600D01*
X89367373Y-107350600D02*
X93036536Y-107350600D01*
X95411066Y-107350600D02*
X100687734Y-107350600D01*
X109011066Y-107350600D02*
X109087734Y-107350600D01*
X111011066Y-107350600D02*
X111187735Y-107350600D01*
X113111065Y-107350600D02*
X118087280Y-107350600D01*
X81974431Y-107519800D02*
X93318534Y-107519800D01*
X95241866Y-107519800D02*
X100518534Y-107519800D01*
X108841866Y-107519800D02*
X108918534Y-107519800D01*
X110841866Y-107519800D02*
X111036506Y-107519800D01*
X112941865Y-107519800D02*
X118022124Y-107519800D01*
X82051680Y-107689000D02*
X93149334Y-107689000D01*
X95072666Y-107689000D02*
X100349334Y-107689000D01*
X108634270Y-107689000D02*
X108749334Y-107689000D01*
X110672666Y-107689000D02*
X110956833Y-107689000D01*
X112772665Y-107689000D02*
X117956968Y-107689000D01*
X82128929Y-107858200D02*
X92980134Y-107858200D01*
X94903466Y-107858200D02*
X100180134Y-107858200D01*
X102103466Y-107858200D02*
X108580134Y-107858200D01*
X110503466Y-107858200D02*
X110923690Y-107858200D01*
X112603465Y-107858200D02*
X117891812Y-107858200D01*
X82206177Y-108027400D02*
X92810934Y-108027400D01*
X94734266Y-108027400D02*
X100012405Y-108027400D01*
X101934266Y-108027400D02*
X108410934Y-108027400D01*
X110334266Y-108027400D02*
X110920000Y-108027400D01*
X112434265Y-108027400D02*
X117826656Y-108027400D01*
X82283426Y-108196600D02*
X92641734Y-108196600D01*
X94565066Y-108196600D02*
X94924688Y-108196600D01*
X95880937Y-108196600D02*
X96920266Y-108196600D01*
X97877531Y-108196600D02*
X99894516Y-108196600D01*
X101765066Y-108196600D02*
X102124688Y-108196600D01*
X103080937Y-108196600D02*
X104120266Y-108196600D01*
X105077531Y-108196600D02*
X108241734Y-108196600D01*
X110165066Y-108196600D02*
X110920000Y-108196600D01*
X112280000Y-108196600D02*
X117761500Y-108196600D01*
X82360674Y-108365800D02*
X92472534Y-108365800D01*
X94395866Y-108365800D02*
X94719784Y-108365800D01*
X96080217Y-108365800D02*
X96665312Y-108365800D01*
X98135997Y-108365800D02*
X99833395Y-108365800D01*
X101595866Y-108365800D02*
X101919784Y-108365800D01*
X103280217Y-108365800D02*
X103865312Y-108365800D01*
X105335997Y-108365800D02*
X108072534Y-108365800D01*
X109995866Y-108365800D02*
X110920000Y-108365800D01*
X112280000Y-108365800D02*
X117696344Y-108365800D01*
X82437923Y-108535000D02*
X92303334Y-108535000D01*
X94226666Y-108535000D02*
X94534018Y-108535000D01*
X94713787Y-108535000D02*
X94756213Y-108535000D01*
X96043787Y-108535000D02*
X96086213Y-108535000D01*
X96265983Y-108535000D02*
X96510008Y-108535000D01*
X98290892Y-108535000D02*
X99820000Y-108535000D01*
X101426666Y-108535000D02*
X101734018Y-108535000D01*
X101913787Y-108535000D02*
X101956213Y-108535000D01*
X103243787Y-108535000D02*
X103286213Y-108535000D01*
X103465983Y-108535000D02*
X103710008Y-108535000D01*
X105490892Y-108535000D02*
X107903334Y-108535000D01*
X109826666Y-108535000D02*
X110920000Y-108535000D01*
X112280000Y-108535000D02*
X117631188Y-108535000D01*
X82515172Y-108704200D02*
X92134134Y-108704200D01*
X94057466Y-108704200D02*
X94405046Y-108704200D01*
X94882987Y-108704200D02*
X94925413Y-108704200D01*
X95874587Y-108704200D02*
X95917013Y-108704200D01*
X96393121Y-108704200D02*
X96404792Y-108704200D01*
X98396287Y-108704200D02*
X99820000Y-108704200D01*
X101257466Y-108704200D02*
X101605046Y-108704200D01*
X102082987Y-108704200D02*
X102125413Y-108704200D01*
X103074587Y-108704200D02*
X103117013Y-108704200D01*
X103593121Y-108704200D02*
X103604792Y-108704200D01*
X105596287Y-108704200D02*
X107734134Y-108704200D01*
X109657466Y-108704200D02*
X110920000Y-108704200D01*
X112280000Y-108704200D02*
X117566032Y-108704200D01*
X82592420Y-108873400D02*
X91964934Y-108873400D01*
X93888266Y-108873400D02*
X94338861Y-108873400D01*
X95052187Y-108873400D02*
X95094613Y-108873400D01*
X95705387Y-108873400D02*
X95747813Y-108873400D01*
X98466026Y-108873400D02*
X99820000Y-108873400D01*
X101180000Y-108873400D02*
X101538861Y-108873400D01*
X102252187Y-108873400D02*
X102294613Y-108873400D01*
X102905387Y-108873400D02*
X102947813Y-108873400D01*
X105666026Y-108873400D02*
X107564934Y-108873400D01*
X109488266Y-108873400D02*
X110920000Y-108873400D01*
X112280000Y-108873400D02*
X117483064Y-108873400D01*
X82669669Y-109042600D02*
X91795734Y-109042600D01*
X93719066Y-109042600D02*
X94301030Y-109042600D01*
X95221387Y-109042600D02*
X95263813Y-109042600D01*
X95536187Y-109042600D02*
X95578613Y-109042600D01*
X98500433Y-109042600D02*
X99820000Y-109042600D01*
X101180000Y-109042600D02*
X101501030Y-109042600D01*
X102421387Y-109042600D02*
X102463813Y-109042600D01*
X102736187Y-109042600D02*
X102778613Y-109042600D01*
X105700433Y-109042600D02*
X107395734Y-109042600D01*
X109319066Y-109042600D02*
X110920000Y-109042600D01*
X112280000Y-109042600D02*
X117376262Y-109042600D01*
X82746917Y-109211800D02*
X91626534Y-109211800D01*
X93549866Y-109211800D02*
X94287943Y-109211800D01*
X95366987Y-109211800D02*
X95433013Y-109211800D01*
X98508363Y-109211800D02*
X99820000Y-109211800D01*
X101180000Y-109211800D02*
X101487943Y-109211800D01*
X102566987Y-109211800D02*
X102633013Y-109211800D01*
X105708363Y-109211800D02*
X107226534Y-109211800D01*
X109149866Y-109211800D02*
X110920000Y-109211800D01*
X112280000Y-109211800D02*
X117269460Y-109211800D01*
X82824166Y-109381000D02*
X91457334Y-109381000D01*
X93380666Y-109381000D02*
X94300206Y-109381000D01*
X95197787Y-109381000D02*
X95240213Y-109381000D01*
X95559787Y-109381000D02*
X95602213Y-109381000D01*
X98497214Y-109381000D02*
X99820000Y-109381000D01*
X101180000Y-109381000D02*
X101500206Y-109381000D01*
X102397787Y-109381000D02*
X102440213Y-109381000D01*
X102759787Y-109381000D02*
X102802213Y-109381000D01*
X105697214Y-109381000D02*
X107103092Y-109381000D01*
X108980666Y-109381000D02*
X110920000Y-109381000D01*
X112280000Y-109381000D02*
X117162658Y-109381000D01*
X82901414Y-109550200D02*
X91288134Y-109550200D01*
X93211466Y-109550200D02*
X94345117Y-109550200D01*
X95028587Y-109550200D02*
X95071013Y-109550200D01*
X95728987Y-109550200D02*
X95771413Y-109550200D01*
X98458772Y-109550200D02*
X99820000Y-109550200D01*
X101180000Y-109550200D02*
X101545117Y-109550200D01*
X102228587Y-109550200D02*
X102271013Y-109550200D01*
X102928987Y-109550200D02*
X102971413Y-109550200D01*
X105658772Y-109550200D02*
X107037532Y-109550200D01*
X108811466Y-109550200D02*
X110920000Y-109550200D01*
X112280000Y-109550200D02*
X117055856Y-109550200D01*
X82978663Y-109719400D02*
X91118934Y-109719400D01*
X93042266Y-109719400D02*
X94418721Y-109719400D01*
X94859387Y-109719400D02*
X94901813Y-109719400D01*
X95898187Y-109719400D02*
X95940613Y-109719400D01*
X96381545Y-109719400D02*
X96414135Y-109719400D01*
X98383846Y-109719400D02*
X99820000Y-109719400D01*
X101180000Y-109719400D02*
X101618721Y-109719400D01*
X102059387Y-109719400D02*
X102101813Y-109719400D01*
X103098187Y-109719400D02*
X103140613Y-109719400D01*
X103581545Y-109719400D02*
X103614135Y-109719400D01*
X105583846Y-109719400D02*
X107020000Y-109719400D01*
X108642266Y-109719400D02*
X110920000Y-109719400D01*
X112280000Y-109719400D02*
X116949054Y-109719400D01*
X83066512Y-109888600D02*
X90949734Y-109888600D01*
X92873066Y-109888600D02*
X94583310Y-109888600D01*
X94690187Y-109888600D02*
X94732613Y-109888600D01*
X96067387Y-109888600D02*
X96109813Y-109888600D01*
X96216689Y-109888600D02*
X96523177Y-109888600D01*
X98272692Y-109888600D02*
X99820000Y-109888600D01*
X101180000Y-109888600D02*
X101783310Y-109888600D01*
X101890187Y-109888600D02*
X101932613Y-109888600D01*
X103267387Y-109888600D02*
X103309813Y-109888600D01*
X103416689Y-109888600D02*
X103723177Y-109888600D01*
X105472692Y-109888600D02*
X107020000Y-109888600D01*
X108473066Y-109888600D02*
X110920000Y-109888600D01*
X112280000Y-109888600D02*
X116842252Y-109888600D01*
X83188270Y-110057800D02*
X90780534Y-110057800D01*
X92703866Y-110057800D02*
X94731082Y-110057800D01*
X96068917Y-110057800D02*
X96689194Y-110057800D01*
X98108873Y-110057800D02*
X98555199Y-110057800D01*
X99244878Y-110057800D02*
X99820000Y-110057800D01*
X101180000Y-110057800D02*
X101931082Y-110057800D01*
X103268917Y-110057800D02*
X103889194Y-110057800D01*
X105308873Y-110057800D02*
X105755199Y-110057800D01*
X106444878Y-110057800D02*
X107020000Y-110057800D01*
X108380000Y-110057800D02*
X110920000Y-110057800D01*
X112280000Y-110057800D02*
X116735450Y-110057800D01*
X83310028Y-110227000D02*
X90611334Y-110227000D01*
X92534666Y-110227000D02*
X94970500Y-110227000D01*
X95828277Y-110227000D02*
X96978009Y-110227000D01*
X97821849Y-110227000D02*
X98286565Y-110227000D01*
X99514203Y-110227000D02*
X99820000Y-110227000D01*
X101180000Y-110227000D02*
X102170500Y-110227000D01*
X103028277Y-110227000D02*
X104178009Y-110227000D01*
X105021849Y-110227000D02*
X105486565Y-110227000D01*
X106714203Y-110227000D02*
X107020000Y-110227000D01*
X108380000Y-110227000D02*
X110920000Y-110227000D01*
X112280000Y-110227000D02*
X116628648Y-110227000D01*
X83431786Y-110396200D02*
X87925485Y-110396200D01*
X88880233Y-110396200D02*
X89921256Y-110396200D01*
X92365466Y-110396200D02*
X98142034Y-110396200D01*
X99657864Y-110396200D02*
X99820000Y-110396200D01*
X101180000Y-110396200D02*
X105342034Y-110396200D01*
X106857864Y-110396200D02*
X107020000Y-110396200D01*
X108380000Y-110396200D02*
X109125485Y-110396200D01*
X110080233Y-110396200D02*
X110920000Y-110396200D01*
X112280000Y-110396200D02*
X116521846Y-110396200D01*
X83553544Y-110565400D02*
X87719975Y-110565400D01*
X89080026Y-110565400D02*
X89665720Y-110565400D01*
X92196266Y-110565400D02*
X98053307Y-110565400D01*
X99746397Y-110565400D02*
X99820000Y-110565400D01*
X101180000Y-110565400D02*
X105253307Y-110565400D01*
X106946397Y-110565400D02*
X107020000Y-110565400D01*
X108380000Y-110565400D02*
X108919975Y-110565400D01*
X110280026Y-110565400D02*
X110865720Y-110565400D01*
X112335600Y-110565400D02*
X116415044Y-110565400D01*
X83675302Y-110734600D02*
X87534854Y-110734600D01*
X87713387Y-110734600D02*
X87755813Y-110734600D01*
X89044187Y-110734600D02*
X89086613Y-110734600D01*
X89265147Y-110734600D02*
X89510282Y-110734600D01*
X92027066Y-110734600D02*
X98004788Y-110734600D01*
X99794958Y-110734600D02*
X99820000Y-110734600D01*
X101180000Y-110734600D02*
X105204788Y-110734600D01*
X106994958Y-110734600D02*
X107020000Y-110734600D01*
X108380000Y-110734600D02*
X108734854Y-110734600D01*
X108913387Y-110734600D02*
X108955813Y-110734600D01*
X110244187Y-110734600D02*
X110286613Y-110734600D01*
X110465147Y-110734600D02*
X110710282Y-110734600D01*
X112490626Y-110734600D02*
X116308242Y-110734600D01*
X83797060Y-110903800D02*
X87405273Y-110903800D01*
X87882587Y-110903800D02*
X87925013Y-110903800D01*
X88874987Y-110903800D02*
X88917413Y-110903800D01*
X89392920Y-110903800D02*
X89404964Y-110903800D01*
X91857866Y-110903800D02*
X97989820Y-110903800D01*
X99808740Y-110903800D02*
X99820000Y-110903800D01*
X101180000Y-110903800D02*
X105189820Y-110903800D01*
X107008740Y-110903800D02*
X107020000Y-110903800D01*
X108380000Y-110903800D02*
X108605273Y-110903800D01*
X109082587Y-110903800D02*
X109125013Y-110903800D01*
X110074987Y-110903800D02*
X110117413Y-110903800D01*
X110592920Y-110903800D02*
X110604964Y-110903800D01*
X112596122Y-110903800D02*
X116201441Y-110903800D01*
X83918818Y-111073000D02*
X87338994Y-111073000D01*
X88051787Y-111073000D02*
X88094213Y-111073000D01*
X88705787Y-111073000D02*
X88748213Y-111073000D01*
X91688666Y-111073000D02*
X98006511Y-111073000D01*
X99793925Y-111073000D02*
X99820000Y-111073000D01*
X101180000Y-111073000D02*
X105206511Y-111073000D01*
X106993925Y-111073000D02*
X107020000Y-111073000D01*
X108380000Y-111073000D02*
X108538994Y-111073000D01*
X109251787Y-111073000D02*
X109294213Y-111073000D01*
X109905787Y-111073000D02*
X109948213Y-111073000D01*
X112665861Y-111073000D02*
X116094639Y-111073000D01*
X84040576Y-111242200D02*
X87301080Y-111242200D01*
X88220987Y-111242200D02*
X88263413Y-111242200D01*
X88536587Y-111242200D02*
X88579013Y-111242200D01*
X91519466Y-111242200D02*
X98056714Y-111242200D01*
X99743804Y-111242200D02*
X99820000Y-111242200D01*
X101180000Y-111242200D02*
X105256714Y-111242200D01*
X106943804Y-111242200D02*
X107020000Y-111242200D01*
X108380000Y-111242200D02*
X108501080Y-111242200D01*
X109420987Y-111242200D02*
X109463413Y-111242200D01*
X109736587Y-111242200D02*
X109779013Y-111242200D01*
X112700354Y-111242200D02*
X115987837Y-111242200D01*
X84162334Y-111411400D02*
X87287914Y-111411400D01*
X88367387Y-111411400D02*
X88432613Y-111411400D01*
X91508368Y-111411400D02*
X98146925Y-111411400D01*
X99652928Y-111411400D02*
X99820000Y-111411400D01*
X101180000Y-111411400D02*
X105346925Y-111411400D01*
X106852928Y-111411400D02*
X107020000Y-111411400D01*
X108380000Y-111411400D02*
X108487914Y-111411400D01*
X109567387Y-111411400D02*
X109632613Y-111411400D01*
X112708368Y-111411400D02*
X115881035Y-111411400D01*
X84284091Y-111580600D02*
X87300177Y-111580600D01*
X88198187Y-111580600D02*
X88240613Y-111580600D01*
X88559387Y-111580600D02*
X88601813Y-111580600D01*
X91497304Y-111580600D02*
X98292144Y-111580600D01*
X99504924Y-111580600D02*
X99820000Y-111580600D01*
X101180000Y-111580600D02*
X105492144Y-111580600D01*
X106704924Y-111580600D02*
X107020000Y-111580600D01*
X108380000Y-111580600D02*
X108500177Y-111580600D01*
X109398187Y-111580600D02*
X109440613Y-111580600D01*
X109759387Y-111580600D02*
X109801813Y-111580600D01*
X112697304Y-111580600D02*
X115774233Y-111580600D01*
X84405849Y-111749800D02*
X87345007Y-111749800D01*
X88028987Y-111749800D02*
X88071413Y-111749800D01*
X88728587Y-111749800D02*
X88771013Y-111749800D01*
X91458863Y-111749800D02*
X98572001Y-111749800D01*
X99225614Y-111749800D02*
X99820000Y-111749800D01*
X101180000Y-111749800D02*
X105772001Y-111749800D01*
X106425614Y-111749800D02*
X107020000Y-111749800D01*
X108380000Y-111749800D02*
X108545007Y-111749800D01*
X109228987Y-111749800D02*
X109271413Y-111749800D01*
X109928587Y-111749800D02*
X109971013Y-111749800D01*
X112658863Y-111749800D02*
X115667431Y-111749800D01*
X84527607Y-111919000D02*
X87418520Y-111919000D01*
X87859787Y-111919000D02*
X87902213Y-111919000D01*
X88897787Y-111919000D02*
X88940213Y-111919000D01*
X89381773Y-111919000D02*
X89413878Y-111919000D01*
X91384024Y-111919000D02*
X99820000Y-111919000D01*
X101180000Y-111919000D02*
X107020000Y-111919000D01*
X108380000Y-111919000D02*
X108618520Y-111919000D01*
X109059787Y-111919000D02*
X109102213Y-111919000D01*
X110097787Y-111919000D02*
X110140213Y-111919000D01*
X110581773Y-111919000D02*
X110613878Y-111919000D01*
X112584024Y-111919000D02*
X115560629Y-111919000D01*
X84649365Y-112088200D02*
X87582474Y-112088200D01*
X87690587Y-112088200D02*
X87733013Y-112088200D01*
X89066987Y-112088200D02*
X89109413Y-112088200D01*
X89217525Y-112088200D02*
X89522920Y-112088200D01*
X91272974Y-112088200D02*
X99820000Y-112088200D01*
X101180000Y-112088200D02*
X107020000Y-112088200D01*
X108380000Y-112088200D02*
X108782474Y-112088200D01*
X108890587Y-112088200D02*
X108933013Y-112088200D01*
X110266987Y-112088200D02*
X110309413Y-112088200D01*
X110417525Y-112088200D02*
X110722920Y-112088200D01*
X112472974Y-112088200D02*
X115437975Y-112088200D01*
X84771123Y-112257400D02*
X87730891Y-112257400D01*
X89069108Y-112257400D02*
X89688619Y-112257400D01*
X91109293Y-112257400D02*
X91556190Y-112257400D01*
X92243926Y-112257400D02*
X99780934Y-112257400D01*
X101180000Y-112257400D02*
X106980934Y-112257400D01*
X108380000Y-112257400D02*
X108930891Y-112257400D01*
X110269108Y-112257400D02*
X110888619Y-112257400D01*
X112309293Y-112257400D02*
X112756190Y-112257400D01*
X113443926Y-112257400D02*
X115277630Y-112257400D01*
X84892881Y-112426600D02*
X87969294Y-112426600D01*
X88829075Y-112426600D02*
X89977093Y-112426600D01*
X90822880Y-112426600D02*
X91286973Y-112426600D01*
X92513806Y-112426600D02*
X99611734Y-112426600D01*
X101180000Y-112426600D02*
X106811734Y-112426600D01*
X108380000Y-112426600D02*
X109169294Y-112426600D01*
X110029075Y-112426600D02*
X111177093Y-112426600D01*
X112022880Y-112426600D02*
X112486973Y-112426600D01*
X113713806Y-112426600D02*
X115117284Y-112426600D01*
X85014638Y-112595800D02*
X91142308Y-112595800D01*
X92657598Y-112595800D02*
X99442534Y-112595800D01*
X101170505Y-112595800D02*
X106642534Y-112595800D01*
X108370505Y-112595800D02*
X112342308Y-112595800D01*
X113857598Y-112595800D02*
X114956939Y-112595800D01*
X85136396Y-112765000D02*
X91053479Y-112765000D01*
X92746233Y-112765000D02*
X99273334Y-112765000D01*
X101125926Y-112765000D02*
X106473334Y-112765000D01*
X108325926Y-112765000D02*
X112253479Y-112765000D01*
X113946233Y-112765000D02*
X114796594Y-112765000D01*
X85258154Y-112934200D02*
X91004873Y-112934200D01*
X92794878Y-112934200D02*
X99104134Y-112934200D01*
X101019138Y-112934200D02*
X106304134Y-112934200D01*
X108219138Y-112934200D02*
X112204873Y-112934200D01*
X113994878Y-112934200D02*
X114636248Y-112934200D01*
X85431769Y-113103400D02*
X90989826Y-113103400D01*
X92808745Y-113103400D02*
X98934934Y-113103400D01*
X100858266Y-113103400D02*
X106134934Y-113103400D01*
X108058266Y-113103400D02*
X112189826Y-113103400D01*
X114008745Y-113103400D02*
X114475903Y-113103400D01*
X85612828Y-113272600D02*
X91006438Y-113272600D01*
X92794016Y-113272600D02*
X98765734Y-113272600D01*
X100689066Y-113272600D02*
X105965734Y-113272600D01*
X107889066Y-113272600D02*
X112206438Y-113272600D01*
X113994016Y-113272600D02*
X114315558Y-113272600D01*
X85793887Y-113441800D02*
X91056556Y-113441800D01*
X92743982Y-113441800D02*
X98596534Y-113441800D01*
X100519866Y-113441800D02*
X105796534Y-113441800D01*
X107719866Y-113441800D02*
X112256556Y-113441800D01*
X113943982Y-113441800D02*
X114155212Y-113441800D01*
X85974946Y-113611000D02*
X91146667Y-113611000D01*
X92653210Y-113611000D02*
X98427334Y-113611000D01*
X100350666Y-113611000D02*
X105627334Y-113611000D01*
X107550666Y-113611000D02*
X112346667Y-113611000D01*
X113853210Y-113611000D02*
X113994867Y-113611000D01*
X86156005Y-113780200D02*
X91291758Y-113780200D01*
X92505344Y-113780200D02*
X98258134Y-113780200D01*
X100181466Y-113780200D02*
X105458134Y-113780200D01*
X107381466Y-113780200D02*
X112491758Y-113780200D01*
X113705344Y-113780200D02*
X113834522Y-113780200D01*
X86337064Y-113949400D02*
X91571085Y-113949400D01*
X92226645Y-113949400D02*
X98088934Y-113949400D01*
X100012266Y-113949400D02*
X105288934Y-113949400D01*
X107212266Y-113949400D02*
X112771085Y-113949400D01*
X113426645Y-113949400D02*
X113674176Y-113949400D01*
X86518123Y-114118600D02*
X97919734Y-114118600D01*
X99843066Y-114118600D02*
X105119734Y-114118600D01*
X107043066Y-114118600D02*
X113513831Y-114118600D01*
X86699182Y-114287800D02*
X97750534Y-114287800D01*
X99673866Y-114287800D02*
X104950534Y-114287800D01*
X106873866Y-114287800D02*
X113353486Y-114287800D01*
X86880240Y-114457000D02*
X97581334Y-114457000D01*
X99504666Y-114457000D02*
X104781334Y-114457000D01*
X106704666Y-114457000D02*
X113193140Y-114457000D01*
X87061299Y-114626200D02*
X94865695Y-114626200D01*
X95933033Y-114626200D02*
X96860872Y-114626200D01*
X99335466Y-114626200D02*
X102065695Y-114626200D01*
X103133033Y-114626200D02*
X104060872Y-114626200D01*
X106535466Y-114626200D02*
X113032795Y-114626200D01*
X87242358Y-114795400D02*
X94705612Y-114795400D01*
X96094389Y-114795400D02*
X96635085Y-114795400D01*
X99166266Y-114795400D02*
X101905612Y-114795400D01*
X103294389Y-114795400D02*
X103835085Y-114795400D01*
X106366266Y-114795400D02*
X112872450Y-114795400D01*
X87423417Y-114964600D02*
X94484364Y-114964600D01*
X94743387Y-114964600D02*
X94785813Y-114964600D01*
X96014187Y-114964600D02*
X96056613Y-114964600D01*
X96316438Y-114964600D02*
X96489740Y-114964600D01*
X98997066Y-114964600D02*
X101684364Y-114964600D01*
X101943387Y-114964600D02*
X101985813Y-114964600D01*
X103214187Y-114964600D02*
X103256613Y-114964600D01*
X103516438Y-114964600D02*
X103689740Y-114964600D01*
X106197066Y-114964600D02*
X112643655Y-114964600D01*
X87604476Y-115133800D02*
X94388227Y-115133800D01*
X94912587Y-115133800D02*
X94955013Y-115133800D01*
X95844987Y-115133800D02*
X95887413Y-115133800D01*
X98827866Y-115133800D02*
X101588227Y-115133800D01*
X102112587Y-115133800D02*
X102155013Y-115133800D01*
X103044987Y-115133800D02*
X103087413Y-115133800D01*
X106027866Y-115133800D02*
X112405032Y-115133800D01*
X87785535Y-115303000D02*
X94329041Y-115303000D01*
X95081787Y-115303000D02*
X95124213Y-115303000D01*
X95675787Y-115303000D02*
X95718213Y-115303000D01*
X98658666Y-115303000D02*
X101529041Y-115303000D01*
X102281787Y-115303000D02*
X102324213Y-115303000D01*
X102875787Y-115303000D02*
X102918213Y-115303000D01*
X105858666Y-115303000D02*
X112166408Y-115303000D01*
X87966593Y-115472200D02*
X94297341Y-115472200D01*
X95250987Y-115472200D02*
X95293413Y-115472200D01*
X95506587Y-115472200D02*
X95549013Y-115472200D01*
X98506295Y-115472200D02*
X101497341Y-115472200D01*
X102450987Y-115472200D02*
X102493413Y-115472200D01*
X102706587Y-115472200D02*
X102749013Y-115472200D01*
X105706295Y-115472200D02*
X111927784Y-115472200D01*
X88186612Y-115641400D02*
X94290088Y-115641400D01*
X95337387Y-115641400D02*
X95379813Y-115641400D01*
X95420187Y-115641400D02*
X95462613Y-115641400D01*
X98507949Y-115641400D02*
X101490088Y-115641400D01*
X102537387Y-115641400D02*
X102579813Y-115641400D01*
X102620187Y-115641400D02*
X102662613Y-115641400D01*
X105707949Y-115641400D02*
X111689160Y-115641400D01*
X88458858Y-115810600D02*
X94306677Y-115810600D01*
X95168187Y-115810600D02*
X95210613Y-115810600D01*
X95589387Y-115810600D02*
X95631813Y-115810600D01*
X98490489Y-115810600D02*
X101506677Y-115810600D01*
X102368187Y-115810600D02*
X102410613Y-115810600D01*
X102789387Y-115810600D02*
X102831813Y-115810600D01*
X105690489Y-115810600D02*
X111450536Y-115810600D01*
X88731104Y-115979800D02*
X94353268Y-115979800D01*
X94998987Y-115979800D02*
X95041413Y-115979800D01*
X95758587Y-115979800D02*
X95801013Y-115979800D01*
X98446000Y-115979800D02*
X101553268Y-115979800D01*
X102198987Y-115979800D02*
X102241413Y-115979800D01*
X102958587Y-115979800D02*
X103001013Y-115979800D01*
X105646000Y-115979800D02*
X111211912Y-115979800D01*
X89003350Y-116149000D02*
X94433573Y-116149000D01*
X94829787Y-116149000D02*
X94872213Y-116149000D01*
X95927787Y-116149000D02*
X95970213Y-116149000D01*
X96364727Y-116149000D02*
X96433211Y-116149000D01*
X98370667Y-116149000D02*
X101633573Y-116149000D01*
X102029787Y-116149000D02*
X102072213Y-116149000D01*
X103127787Y-116149000D02*
X103170213Y-116149000D01*
X103564727Y-116149000D02*
X103633211Y-116149000D01*
X105570667Y-116149000D02*
X110973289Y-116149000D01*
X89275595Y-116318200D02*
X94645134Y-116318200D01*
X94660587Y-116318200D02*
X94703013Y-116318200D01*
X96096987Y-116318200D02*
X96139413Y-116318200D01*
X96154865Y-116318200D02*
X96550409Y-116318200D01*
X98251811Y-116318200D02*
X101845134Y-116318200D01*
X101860587Y-116318200D02*
X101903013Y-116318200D01*
X103296987Y-116318200D02*
X103339413Y-116318200D01*
X103354865Y-116318200D02*
X103750409Y-116318200D01*
X105451811Y-116318200D02*
X110734665Y-116318200D01*
X89547841Y-116487400D02*
X94745254Y-116487400D01*
X96054745Y-116487400D02*
X96731783Y-116487400D01*
X98073334Y-116487400D02*
X98481938Y-116487400D01*
X99315294Y-116487400D02*
X101945254Y-116487400D01*
X103254745Y-116487400D02*
X103931783Y-116487400D01*
X105273334Y-116487400D02*
X105681938Y-116487400D01*
X106515294Y-116487400D02*
X110496041Y-116487400D01*
X89820087Y-116656600D02*
X95059717Y-116656600D01*
X95743961Y-116656600D02*
X97045761Y-116656600D01*
X97745536Y-116656600D02*
X98256338Y-116656600D01*
X99543597Y-116656600D02*
X102259717Y-116656600D01*
X102943961Y-116656600D02*
X104245761Y-116656600D01*
X104945536Y-116656600D02*
X105456338Y-116656600D01*
X106743597Y-116656600D02*
X110257417Y-116656600D01*
X90092333Y-116825800D02*
X98121767Y-116825800D01*
X99677530Y-116825800D02*
X105321767Y-116825800D01*
X106877530Y-116825800D02*
X110018793Y-116825800D01*
X90364579Y-116995000D02*
X98040621Y-116995000D01*
X99758598Y-116995000D02*
X105240621Y-116995000D01*
X106958598Y-116995000D02*
X109780170Y-116995000D01*
X90636825Y-117164200D02*
X97998496Y-117164200D01*
X99800818Y-117164200D02*
X105198496Y-117164200D01*
X107000818Y-117164200D02*
X109432029Y-117164200D01*
X90909071Y-117333400D02*
X97989407Y-117333400D01*
X99808326Y-117333400D02*
X105189407Y-117333400D01*
X107008326Y-117333400D02*
X109054470Y-117333400D01*
X91181316Y-117502600D02*
X98011944Y-117502600D01*
X99787200Y-117502600D02*
X105211944Y-117502600D01*
X106987200Y-117502600D02*
X108676912Y-117502600D01*
X91539125Y-117671800D02*
X98068434Y-117671800D01*
X99730625Y-117671800D02*
X105268434Y-117671800D01*
X106930625Y-117671800D02*
X108299353Y-117671800D01*
X91987826Y-117841000D02*
X98166001Y-117841000D01*
X99632048Y-117841000D02*
X105366001Y-117841000D01*
X106832048Y-117841000D02*
X107921794Y-117841000D01*
X92436528Y-118010200D02*
X98327280Y-118010200D01*
X99473841Y-118010200D02*
X105527280Y-118010200D01*
X106673841Y-118010200D02*
X107544235Y-118010200D01*
X92885230Y-118179400D02*
X98661783Y-118179400D01*
X99149301Y-118179400D02*
X105861783Y-118179400D01*
X106349301Y-118179400D02*
X107166676Y-118179400D01*
X93333931Y-118348600D02*
X106789117Y-118348600D01*
X93782633Y-118517800D02*
X106411558Y-118517800D01*
X94231334Y-118687000D02*
X105841633Y-118687000D01*
X94680036Y-118856200D02*
X105105180Y-118856200D01*
X95413354Y-119025400D02*
X104368727Y-119025400D01*
X96428715Y-119194600D02*
X103632274Y-119194600D01*
X97444077Y-119363800D02*
X102895821Y-119363800D01*
X98459439Y-119533000D02*
X99886002Y-119533000D01*
X87076361Y-87389653D02*
X86927032Y-87487371D01*
X86799527Y-87612233D01*
X86698703Y-87759483D01*
X86628400Y-87923512D01*
X86591296Y-88098072D01*
X86588804Y-88276515D01*
X86621019Y-88452044D01*
X86686715Y-88617972D01*
X86783388Y-88767979D01*
X86907357Y-88896353D01*
X87053900Y-88998203D01*
X87217434Y-89069649D01*
X87391731Y-89107971D01*
X87570152Y-89111708D01*
X87745901Y-89080719D01*
X87912284Y-89016183D01*
X88062963Y-88920559D01*
X88192199Y-88797490D01*
X88295069Y-88651662D01*
X88367655Y-88488630D01*
X88407193Y-88314605D01*
X88410039Y-88110770D01*
X88375376Y-87935708D01*
X88307370Y-87770714D01*
X88208612Y-87622071D01*
X88082862Y-87495440D01*
X87934912Y-87395647D01*
X87909584Y-87385000D01*
X98687877Y-87385000D01*
X98676361Y-87389653D01*
X98527032Y-87487371D01*
X98399527Y-87612233D01*
X98298703Y-87759483D01*
X98228400Y-87923512D01*
X98191296Y-88098072D01*
X98188804Y-88276515D01*
X98221019Y-88452044D01*
X98286715Y-88617972D01*
X98383388Y-88767979D01*
X98507357Y-88896353D01*
X98653900Y-88998203D01*
X98817434Y-89069649D01*
X98991731Y-89107971D01*
X99170152Y-89111708D01*
X99345901Y-89080719D01*
X99512284Y-89016183D01*
X99662963Y-88920559D01*
X99792199Y-88797490D01*
X99895069Y-88651662D01*
X99967655Y-88488630D01*
X100007193Y-88314605D01*
X100010039Y-88110770D01*
X99975376Y-87935708D01*
X99907370Y-87770714D01*
X99808612Y-87622071D01*
X99682862Y-87495440D01*
X99534912Y-87395647D01*
X99509584Y-87385000D01*
X106287877Y-87385000D01*
X106276361Y-87389653D01*
X106127032Y-87487371D01*
X105999527Y-87612233D01*
X105898703Y-87759483D01*
X105828400Y-87923512D01*
X105791296Y-88098072D01*
X105788804Y-88276515D01*
X105821019Y-88452044D01*
X105886715Y-88617972D01*
X105983388Y-88767979D01*
X106107357Y-88896353D01*
X106253900Y-88998203D01*
X106417434Y-89069649D01*
X106591731Y-89107971D01*
X106770152Y-89111708D01*
X106945901Y-89080719D01*
X107112284Y-89016183D01*
X107262963Y-88920559D01*
X107392199Y-88797490D01*
X107495069Y-88651662D01*
X107567655Y-88488630D01*
X107607193Y-88314605D01*
X107610039Y-88110770D01*
X107575376Y-87935708D01*
X107507370Y-87770714D01*
X107408612Y-87622071D01*
X107282862Y-87495440D01*
X107134912Y-87395647D01*
X107109584Y-87385000D01*
X114999322Y-87385000D01*
X117098339Y-90389493D01*
X118639393Y-93893605D01*
X119235510Y-96573845D01*
X113680833Y-91019167D01*
X113632232Y-90979245D01*
X113584178Y-90938923D01*
X113581049Y-90937203D01*
X113578282Y-90934930D01*
X113522867Y-90905217D01*
X113467880Y-90874988D01*
X113464474Y-90873907D01*
X113461321Y-90872217D01*
X113401240Y-90853849D01*
X113341380Y-90834860D01*
X113337826Y-90834461D01*
X113334407Y-90833416D01*
X113271924Y-90827069D01*
X113209494Y-90820066D01*
X113202506Y-90820017D01*
X113202374Y-90820004D01*
X113202251Y-90820016D01*
X113200000Y-90820000D01*
X110821966Y-90820000D01*
X110886691Y-90778924D01*
X111044330Y-90628806D01*
X111169809Y-90450928D01*
X111258349Y-90252066D01*
X111306576Y-90039793D01*
X111310048Y-89791159D01*
X111267766Y-89577622D01*
X111184814Y-89376365D01*
X111064351Y-89195053D01*
X110910964Y-89040592D01*
X110730497Y-88918865D01*
X110529824Y-88834510D01*
X110316588Y-88790739D01*
X110098911Y-88789219D01*
X109885085Y-88830009D01*
X109683253Y-88911554D01*
X109501104Y-89030749D01*
X109345576Y-89183053D01*
X109222593Y-89362666D01*
X109200456Y-89414315D01*
X109184814Y-89376365D01*
X109064351Y-89195053D01*
X108910964Y-89040592D01*
X108730497Y-88918865D01*
X108529824Y-88834510D01*
X108316588Y-88790739D01*
X108098911Y-88789219D01*
X107885085Y-88830009D01*
X107683253Y-88911554D01*
X107501104Y-89030749D01*
X107345576Y-89183053D01*
X107222593Y-89362666D01*
X107136839Y-89562745D01*
X107091580Y-89775671D01*
X107088541Y-89993332D01*
X107127837Y-90207438D01*
X107207971Y-90409834D01*
X107325891Y-90592810D01*
X107477106Y-90749398D01*
X107578689Y-90820000D01*
X103230068Y-90820000D01*
X103243404Y-90811089D01*
X103323203Y-90644416D01*
X102600000Y-89921213D01*
X101876797Y-90644416D01*
X101956596Y-90811089D01*
X101972279Y-90820000D01*
X101481666Y-90820000D01*
X101365521Y-90703855D01*
X101444330Y-90628806D01*
X101569809Y-90450928D01*
X101600243Y-90382573D01*
X101656913Y-90495516D01*
X101688911Y-90543404D01*
X101855584Y-90623203D01*
X102578787Y-89900000D01*
X102621213Y-89900000D01*
X103344416Y-90623203D01*
X103511089Y-90543404D01*
X103619105Y-90353296D01*
X103687957Y-90145769D01*
X103714999Y-89928797D01*
X103699193Y-89710718D01*
X103641145Y-89499913D01*
X103543087Y-89304484D01*
X103511089Y-89256596D01*
X103344416Y-89176797D01*
X102621213Y-89900000D01*
X102578787Y-89900000D01*
X101855584Y-89176797D01*
X101688911Y-89256596D01*
X101599969Y-89413134D01*
X101584814Y-89376365D01*
X101464351Y-89195053D01*
X101425157Y-89155584D01*
X101876797Y-89155584D01*
X102600000Y-89878787D01*
X103323203Y-89155584D01*
X103243404Y-88988911D01*
X103053296Y-88880895D01*
X102845769Y-88812043D01*
X102628797Y-88785001D01*
X102410718Y-88800807D01*
X102199913Y-88858855D01*
X102004484Y-88956913D01*
X101956596Y-88988911D01*
X101876797Y-89155584D01*
X101425157Y-89155584D01*
X101310964Y-89040592D01*
X101130497Y-88918865D01*
X100929824Y-88834510D01*
X100716588Y-88790739D01*
X100498911Y-88789219D01*
X100285085Y-88830009D01*
X100083253Y-88911554D01*
X99901104Y-89030749D01*
X99745576Y-89183053D01*
X99622593Y-89362666D01*
X99536839Y-89562745D01*
X99491580Y-89775671D01*
X99488541Y-89993332D01*
X99527837Y-90207438D01*
X99607971Y-90409834D01*
X99725891Y-90592810D01*
X99877106Y-90749398D01*
X99920000Y-90779210D01*
X99920000Y-90900000D01*
X99926135Y-90962572D01*
X99931604Y-91025086D01*
X99932601Y-91028517D01*
X99932950Y-91032079D01*
X99951117Y-91092250D01*
X99968630Y-91152530D01*
X99970275Y-91155704D01*
X99971309Y-91159128D01*
X100000796Y-91214585D01*
X100029704Y-91270354D01*
X100031936Y-91273150D01*
X100033614Y-91276306D01*
X100073291Y-91324955D01*
X100112501Y-91374073D01*
X100117414Y-91379055D01*
X100117492Y-91379151D01*
X100117581Y-91379225D01*
X100119167Y-91380833D01*
X100719167Y-91980833D01*
X100767742Y-92020733D01*
X100815822Y-92061077D01*
X100818955Y-92062799D01*
X100821718Y-92065069D01*
X100877094Y-92094762D01*
X100932120Y-92125012D01*
X100935526Y-92126093D01*
X100938679Y-92127783D01*
X100998760Y-92146151D01*
X101058620Y-92165140D01*
X101062174Y-92165539D01*
X101065593Y-92166584D01*
X101128076Y-92172931D01*
X101190506Y-92179934D01*
X101197494Y-92179983D01*
X101197626Y-92179996D01*
X101197749Y-92179984D01*
X101200000Y-92180000D01*
X112918334Y-92180000D01*
X118124038Y-97385703D01*
X117993568Y-97410592D01*
X117982658Y-97415000D01*
X115605000Y-97415000D01*
X115542436Y-97421134D01*
X115479913Y-97426604D01*
X115476482Y-97427601D01*
X115472921Y-97427950D01*
X115412776Y-97446109D01*
X115352469Y-97463630D01*
X115349294Y-97465276D01*
X115345872Y-97466309D01*
X115290454Y-97495775D01*
X115234645Y-97524704D01*
X115231847Y-97526937D01*
X115228694Y-97528614D01*
X115180067Y-97568273D01*
X115130927Y-97607501D01*
X115125949Y-97612410D01*
X115125849Y-97612492D01*
X115125772Y-97612585D01*
X115124167Y-97614168D01*
X108218334Y-104520000D01*
X96600000Y-104520000D01*
X96537432Y-104526135D01*
X96474913Y-104531604D01*
X96471482Y-104532601D01*
X96467921Y-104532950D01*
X96407776Y-104551109D01*
X96347469Y-104568630D01*
X96344294Y-104570276D01*
X96340872Y-104571309D01*
X96285434Y-104600786D01*
X96229646Y-104629704D01*
X96226850Y-104631936D01*
X96223694Y-104633614D01*
X96175045Y-104673291D01*
X96125927Y-104712501D01*
X96120945Y-104717414D01*
X96120849Y-104717492D01*
X96120775Y-104717581D01*
X96119167Y-104719167D01*
X93892422Y-106945912D01*
X93908119Y-106876823D01*
X93910027Y-106740186D01*
X93886791Y-106622837D01*
X93841204Y-106512236D01*
X93775004Y-106412596D01*
X93735000Y-106372312D01*
X93735000Y-102805182D01*
X96227935Y-100312248D01*
X96254830Y-100380179D01*
X96319634Y-100480734D01*
X96402734Y-100566786D01*
X96500965Y-100635059D01*
X96610587Y-100682952D01*
X96727424Y-100708640D01*
X96847025Y-100711145D01*
X96964835Y-100690372D01*
X97076366Y-100647112D01*
X97177371Y-100583013D01*
X97259978Y-100504347D01*
X97261545Y-100503892D01*
X97263576Y-100502839D01*
X97265766Y-100502178D01*
X97301238Y-100483317D01*
X97336918Y-100464822D01*
X97338707Y-100463394D01*
X97340725Y-100462321D01*
X97371819Y-100436961D01*
X97403267Y-100411857D01*
X97406449Y-100408717D01*
X97406516Y-100408663D01*
X97406567Y-100408601D01*
X97407591Y-100407591D01*
X97496858Y-100318324D01*
X97507465Y-100328931D01*
X97545156Y-100361055D01*
X97573479Y-100375983D01*
X96409462Y-101540000D01*
X96102913Y-101540000D01*
X96090710Y-101527712D01*
X95991535Y-101460818D01*
X95881255Y-101414460D01*
X95764071Y-101390406D01*
X95644447Y-101389571D01*
X95526938Y-101411987D01*
X95416022Y-101456800D01*
X95315922Y-101522303D01*
X95230452Y-101606002D01*
X95162866Y-101704708D01*
X95115740Y-101814662D01*
X95090868Y-101931675D01*
X95089198Y-102051291D01*
X95110793Y-102168952D01*
X95154830Y-102280179D01*
X95219634Y-102380734D01*
X95302734Y-102466786D01*
X95400965Y-102535059D01*
X95510587Y-102582952D01*
X95627424Y-102608640D01*
X95747025Y-102611145D01*
X95864835Y-102590372D01*
X95976366Y-102547112D01*
X96077371Y-102483013D01*
X96101537Y-102460000D01*
X96409462Y-102460000D01*
X96740000Y-102790538D01*
X96740000Y-103496652D01*
X96730452Y-103506002D01*
X96662866Y-103604708D01*
X96615740Y-103714662D01*
X96590868Y-103831675D01*
X96589198Y-103951291D01*
X96610793Y-104068952D01*
X96654830Y-104180179D01*
X96719634Y-104280734D01*
X96802734Y-104366786D01*
X96900965Y-104435059D01*
X97010587Y-104482952D01*
X97127424Y-104508640D01*
X97247025Y-104511145D01*
X97364835Y-104490372D01*
X97476366Y-104447112D01*
X97577371Y-104383013D01*
X97627789Y-104335000D01*
X105100000Y-104335000D01*
X105139927Y-104331085D01*
X105180018Y-104327577D01*
X105182217Y-104326938D01*
X105184492Y-104326715D01*
X105222936Y-104315109D01*
X105261545Y-104303892D01*
X105263576Y-104302839D01*
X105265766Y-104302178D01*
X105301238Y-104283317D01*
X105336918Y-104264822D01*
X105338707Y-104263394D01*
X105340725Y-104262321D01*
X105371819Y-104236961D01*
X105403267Y-104211857D01*
X105406449Y-104208717D01*
X105406516Y-104208663D01*
X105406567Y-104208601D01*
X105407591Y-104207591D01*
X107555174Y-102060009D01*
X107601841Y-102108334D01*
X107715130Y-102187072D01*
X107841555Y-102242306D01*
X107976300Y-102271931D01*
X108114233Y-102274821D01*
X108114428Y-102274787D01*
X108071502Y-102316823D01*
X107981757Y-102447892D01*
X107919180Y-102593895D01*
X107886153Y-102749273D01*
X107883936Y-102908107D01*
X107912611Y-103064346D01*
X107971087Y-103212041D01*
X108057137Y-103345564D01*
X108167483Y-103459830D01*
X108297922Y-103550488D01*
X108443485Y-103614083D01*
X108598629Y-103648193D01*
X108757443Y-103651520D01*
X108913879Y-103623936D01*
X109061978Y-103566493D01*
X109196099Y-103481377D01*
X109311133Y-103371831D01*
X109402698Y-103242029D01*
X109467308Y-103096913D01*
X109502501Y-102942011D01*
X109505034Y-102760575D01*
X109474181Y-102604752D01*
X109413648Y-102457888D01*
X109325742Y-102325579D01*
X109273023Y-102272491D01*
X109384233Y-102274821D01*
X109520100Y-102250863D01*
X109648727Y-102200972D01*
X109765214Y-102127048D01*
X109865123Y-102031906D01*
X109884103Y-102005000D01*
X110530000Y-102005000D01*
X110569927Y-102001085D01*
X110610018Y-101997577D01*
X110612217Y-101996938D01*
X110614492Y-101996715D01*
X110652936Y-101985109D01*
X110691545Y-101973892D01*
X110693576Y-101972839D01*
X110695766Y-101972178D01*
X110731238Y-101953317D01*
X110766918Y-101934822D01*
X110768707Y-101933394D01*
X110770725Y-101932321D01*
X110801819Y-101906961D01*
X110833267Y-101881857D01*
X110836449Y-101878717D01*
X110836516Y-101878663D01*
X110836567Y-101878601D01*
X110837591Y-101877591D01*
X112107591Y-100607592D01*
X112133065Y-100576580D01*
X112158924Y-100545761D01*
X112160027Y-100543754D01*
X112161478Y-100541988D01*
X112180468Y-100506573D01*
X112199824Y-100471365D01*
X112200515Y-100469187D01*
X112201597Y-100467169D01*
X112213358Y-100428700D01*
X112225494Y-100390442D01*
X112225749Y-100388171D01*
X112226418Y-100385982D01*
X112230476Y-100346031D01*
X112234958Y-100306074D01*
X112234989Y-100301597D01*
X112234997Y-100301518D01*
X112234990Y-100301444D01*
X112235000Y-100300000D01*
X112235000Y-96300000D01*
X112231085Y-96260073D01*
X112227577Y-96219982D01*
X112226938Y-96217783D01*
X112226715Y-96215508D01*
X112215109Y-96177064D01*
X112203892Y-96138455D01*
X112202839Y-96136424D01*
X112202178Y-96134234D01*
X112183317Y-96098762D01*
X112164822Y-96063082D01*
X112163394Y-96061293D01*
X112162321Y-96059275D01*
X112136961Y-96028181D01*
X112111857Y-95996733D01*
X112108717Y-95993551D01*
X112108663Y-95993484D01*
X112108601Y-95993433D01*
X112107591Y-95992409D01*
X109307591Y-93192409D01*
X109276604Y-93166956D01*
X109245761Y-93141076D01*
X109243754Y-93139973D01*
X109241988Y-93138522D01*
X109206573Y-93119532D01*
X109171365Y-93100176D01*
X109169187Y-93099485D01*
X109167169Y-93098403D01*
X109128713Y-93086646D01*
X109090442Y-93074506D01*
X109088170Y-93074251D01*
X109085981Y-93073582D01*
X109046036Y-93069525D01*
X109006074Y-93065042D01*
X109001597Y-93065011D01*
X109001518Y-93065003D01*
X109001444Y-93065010D01*
X109000000Y-93065000D01*
X104100000Y-93065000D01*
X104060033Y-93068919D01*
X104019981Y-93072423D01*
X104017781Y-93073062D01*
X104015508Y-93073285D01*
X103977030Y-93084902D01*
X103938455Y-93096109D01*
X103936428Y-93097160D01*
X103934234Y-93097822D01*
X103898726Y-93116702D01*
X103863082Y-93135178D01*
X103861294Y-93136606D01*
X103859275Y-93137679D01*
X103828151Y-93163064D01*
X103796733Y-93188144D01*
X103793548Y-93191285D01*
X103793484Y-93191337D01*
X103793435Y-93191396D01*
X103792408Y-93192409D01*
X103392409Y-93592409D01*
X103366956Y-93623396D01*
X103341076Y-93654239D01*
X103339973Y-93656246D01*
X103338522Y-93658012D01*
X103319532Y-93693427D01*
X103300176Y-93728635D01*
X103299485Y-93730813D01*
X103298403Y-93732831D01*
X103286646Y-93771287D01*
X103274506Y-93809558D01*
X103274251Y-93811830D01*
X103273582Y-93814019D01*
X103269525Y-93853964D01*
X103265042Y-93893926D01*
X103265011Y-93898403D01*
X103265003Y-93898482D01*
X103265010Y-93898556D01*
X103265000Y-93900000D01*
X103265000Y-95972170D01*
X103230452Y-96006002D01*
X103162866Y-96104708D01*
X103115740Y-96214662D01*
X103090868Y-96331675D01*
X103089198Y-96451291D01*
X103110793Y-96568952D01*
X103135052Y-96630225D01*
X98214914Y-91710086D01*
X98185617Y-91686021D01*
X98156636Y-91661703D01*
X98154750Y-91660666D01*
X98153082Y-91659296D01*
X98119666Y-91641379D01*
X98086516Y-91623155D01*
X98084463Y-91622504D01*
X98082561Y-91621484D01*
X98046329Y-91610406D01*
X98010244Y-91598959D01*
X98008102Y-91598719D01*
X98006039Y-91598088D01*
X97968364Y-91594262D01*
X97930724Y-91590040D01*
X97926505Y-91590011D01*
X97926431Y-91590003D01*
X97926362Y-91590010D01*
X97925000Y-91590000D01*
X95219828Y-91590000D01*
X94550040Y-90920212D01*
X94754231Y-90987957D01*
X94971203Y-91014999D01*
X95189282Y-90999193D01*
X95400087Y-90941145D01*
X95595516Y-90843087D01*
X95643404Y-90811089D01*
X95723203Y-90644416D01*
X95000000Y-89921213D01*
X94985858Y-89935356D01*
X94964645Y-89914143D01*
X94978787Y-89900000D01*
X95021213Y-89900000D01*
X95744416Y-90623203D01*
X95911089Y-90543404D01*
X96019105Y-90353296D01*
X96087957Y-90145769D01*
X96114999Y-89928797D01*
X96099193Y-89710718D01*
X96041145Y-89499913D01*
X95943087Y-89304484D01*
X95911089Y-89256596D01*
X95744416Y-89176797D01*
X95021213Y-89900000D01*
X94978787Y-89900000D01*
X94255584Y-89176797D01*
X94088911Y-89256596D01*
X93999969Y-89413134D01*
X93984814Y-89376365D01*
X93864351Y-89195053D01*
X93825157Y-89155584D01*
X94276797Y-89155584D01*
X95000000Y-89878787D01*
X95723203Y-89155584D01*
X95643404Y-88988911D01*
X95453296Y-88880895D01*
X95245769Y-88812043D01*
X95028797Y-88785001D01*
X94810718Y-88800807D01*
X94599913Y-88858855D01*
X94404484Y-88956913D01*
X94356596Y-88988911D01*
X94276797Y-89155584D01*
X93825157Y-89155584D01*
X93710964Y-89040592D01*
X93530497Y-88918865D01*
X93329824Y-88834510D01*
X93116588Y-88790739D01*
X92898911Y-88789219D01*
X92685085Y-88830009D01*
X92483253Y-88911554D01*
X92301104Y-89030749D01*
X92145576Y-89183053D01*
X92022593Y-89362666D01*
X92000456Y-89414315D01*
X91984814Y-89376365D01*
X91864351Y-89195053D01*
X91710964Y-89040592D01*
X91530497Y-88918865D01*
X91329824Y-88834510D01*
X91116588Y-88790739D01*
X90898911Y-88789219D01*
X90685085Y-88830009D01*
X90483253Y-88911554D01*
X90301104Y-89030749D01*
X90145576Y-89183053D01*
X90022593Y-89362666D01*
X90000456Y-89414315D01*
X89984814Y-89376365D01*
X89864351Y-89195053D01*
X89710964Y-89040592D01*
X89530497Y-88918865D01*
X89329824Y-88834510D01*
X89116588Y-88790739D01*
X88898911Y-88789219D01*
X88685085Y-88830009D01*
X88483253Y-88911554D01*
X88301104Y-89030749D01*
X88145576Y-89183053D01*
X88022593Y-89362666D01*
X87936839Y-89562745D01*
X87891580Y-89775671D01*
X87888541Y-89993332D01*
X87927837Y-90207438D01*
X88007971Y-90409834D01*
X88125891Y-90592810D01*
X88277106Y-90749398D01*
X88455855Y-90873632D01*
X88565000Y-90921316D01*
X88565000Y-91800000D01*
X88568915Y-91839927D01*
X88572423Y-91880018D01*
X88573062Y-91882217D01*
X88573285Y-91884492D01*
X88584891Y-91922936D01*
X88596108Y-91961545D01*
X88597161Y-91963576D01*
X88597822Y-91965766D01*
X88616683Y-92001238D01*
X88635178Y-92036918D01*
X88636606Y-92038707D01*
X88637679Y-92040725D01*
X88663039Y-92071819D01*
X88688143Y-92103267D01*
X88691283Y-92106449D01*
X88691337Y-92106516D01*
X88691399Y-92106567D01*
X88692409Y-92107591D01*
X90413501Y-93828684D01*
X90413501Y-94350000D01*
X90417438Y-94399366D01*
X90443367Y-94483097D01*
X90491597Y-94556288D01*
X90558308Y-94613145D01*
X90573515Y-94620000D01*
X87110000Y-94620000D01*
X87047436Y-94626134D01*
X86984913Y-94631604D01*
X86981482Y-94632601D01*
X86977921Y-94632950D01*
X86917776Y-94651109D01*
X86857469Y-94668630D01*
X86854294Y-94670276D01*
X86850872Y-94671309D01*
X86795434Y-94700786D01*
X86739646Y-94729704D01*
X86736850Y-94731936D01*
X86733694Y-94733614D01*
X86685045Y-94773291D01*
X86635927Y-94812501D01*
X86630949Y-94817410D01*
X86630849Y-94817492D01*
X86630772Y-94817585D01*
X86629167Y-94819168D01*
X81446339Y-100001995D01*
X81444468Y-100002751D01*
X81327959Y-100078993D01*
X81228477Y-100176413D01*
X81149812Y-100291300D01*
X81094960Y-100419279D01*
X81066011Y-100555474D01*
X81064067Y-100694699D01*
X81089202Y-100831649D01*
X81140459Y-100961110D01*
X81215886Y-101078149D01*
X81312609Y-101178308D01*
X81426944Y-101257773D01*
X81554536Y-101313517D01*
X81690526Y-101343416D01*
X81829734Y-101346332D01*
X81966857Y-101322154D01*
X82096672Y-101271802D01*
X82214234Y-101197194D01*
X82315067Y-101101173D01*
X82395328Y-100987395D01*
X82404202Y-100967464D01*
X86679165Y-96692500D01*
X93515000Y-96692500D01*
X93515000Y-97080533D01*
X93526913Y-97140424D01*
X93550282Y-97196840D01*
X93584208Y-97247614D01*
X93627387Y-97290793D01*
X93678160Y-97324719D01*
X93734577Y-97348087D01*
X93794468Y-97360000D01*
X94107500Y-97360000D01*
X94185000Y-97282500D01*
X94185000Y-96615000D01*
X94215000Y-96615000D01*
X94215000Y-97282500D01*
X94292500Y-97360000D01*
X94605532Y-97360000D01*
X94665423Y-97348087D01*
X94721840Y-97324719D01*
X94772613Y-97290793D01*
X94815792Y-97247614D01*
X94849718Y-97196840D01*
X94873087Y-97140424D01*
X94885000Y-97080533D01*
X94885000Y-96692500D01*
X94807500Y-96615000D01*
X94215000Y-96615000D01*
X94185000Y-96615000D01*
X93592500Y-96615000D01*
X93515000Y-96692500D01*
X86679165Y-96692500D01*
X87391665Y-95980000D01*
X93565757Y-95980000D01*
X93550282Y-96003160D01*
X93526913Y-96059576D01*
X93515000Y-96119467D01*
X93515000Y-96507500D01*
X93592500Y-96585000D01*
X94185000Y-96585000D01*
X94185000Y-96565000D01*
X94215000Y-96565000D01*
X94215000Y-96585000D01*
X94807500Y-96585000D01*
X94885000Y-96507500D01*
X94885000Y-96119467D01*
X94873087Y-96059576D01*
X94849718Y-96003160D01*
X94834243Y-95980000D01*
X94964674Y-95980000D01*
X94961855Y-95983308D01*
X94925834Y-96063218D01*
X94913501Y-96150000D01*
X94913501Y-97050000D01*
X94917438Y-97099366D01*
X94943367Y-97183097D01*
X94991597Y-97256288D01*
X95058308Y-97313145D01*
X95138218Y-97349166D01*
X95225000Y-97361499D01*
X95975000Y-97361499D01*
X96024366Y-97357562D01*
X96108097Y-97331633D01*
X96181288Y-97283403D01*
X96238145Y-97216692D01*
X96240000Y-97212577D01*
X96240000Y-97569817D01*
X88792409Y-105017409D01*
X88766956Y-105048396D01*
X88741076Y-105079239D01*
X88739973Y-105081246D01*
X88738522Y-105083012D01*
X88719532Y-105118427D01*
X88700176Y-105153635D01*
X88699485Y-105155813D01*
X88698403Y-105157831D01*
X88686646Y-105196287D01*
X88674506Y-105234558D01*
X88674251Y-105236830D01*
X88673582Y-105239019D01*
X88669525Y-105278964D01*
X88665042Y-105318926D01*
X88665011Y-105323403D01*
X88665003Y-105323482D01*
X88665010Y-105323556D01*
X88665000Y-105325000D01*
X88665000Y-106372170D01*
X88630452Y-106406002D01*
X88562866Y-106504708D01*
X88550242Y-106534163D01*
X88541204Y-106512236D01*
X88475004Y-106412596D01*
X88435000Y-106372312D01*
X88435000Y-103080182D01*
X89004920Y-102510263D01*
X89047025Y-102511145D01*
X89164835Y-102490372D01*
X89276366Y-102447112D01*
X89377371Y-102383013D01*
X89464002Y-102300515D01*
X89532959Y-102202763D01*
X89581615Y-102093478D01*
X89608119Y-101976823D01*
X89610027Y-101840186D01*
X89586791Y-101722837D01*
X89541204Y-101612236D01*
X89475004Y-101512596D01*
X89390710Y-101427712D01*
X89291535Y-101360818D01*
X89181255Y-101314460D01*
X89064071Y-101290406D01*
X88944447Y-101289571D01*
X88826938Y-101311987D01*
X88716022Y-101356800D01*
X88615922Y-101422303D01*
X88530452Y-101506002D01*
X88462866Y-101604708D01*
X88415740Y-101714662D01*
X88390868Y-101831675D01*
X88389986Y-101894831D01*
X87692409Y-102592409D01*
X87666956Y-102623396D01*
X87641076Y-102654239D01*
X87639973Y-102656246D01*
X87638522Y-102658012D01*
X87619532Y-102693427D01*
X87600176Y-102728635D01*
X87599485Y-102730813D01*
X87598403Y-102732831D01*
X87586646Y-102771287D01*
X87574506Y-102809558D01*
X87574251Y-102811830D01*
X87573582Y-102814019D01*
X87569525Y-102853964D01*
X87565042Y-102893926D01*
X87565011Y-102898403D01*
X87565003Y-102898482D01*
X87565010Y-102898556D01*
X87565000Y-102900000D01*
X87565000Y-106372170D01*
X87530452Y-106406002D01*
X87462866Y-106504708D01*
X87415740Y-106614662D01*
X87390868Y-106731675D01*
X87389198Y-106851291D01*
X87410793Y-106968952D01*
X87454830Y-107080179D01*
X87519634Y-107180734D01*
X87602734Y-107266786D01*
X87700965Y-107335059D01*
X87810587Y-107382952D01*
X87927424Y-107408640D01*
X88047025Y-107411145D01*
X88164835Y-107390372D01*
X88276366Y-107347112D01*
X88377371Y-107283013D01*
X88464002Y-107200515D01*
X88532959Y-107102763D01*
X88549268Y-107066131D01*
X88554830Y-107080179D01*
X88619634Y-107180734D01*
X88702734Y-107266786D01*
X88800965Y-107335059D01*
X88910587Y-107382952D01*
X89027424Y-107408640D01*
X89147025Y-107411145D01*
X89264835Y-107390372D01*
X89376366Y-107347112D01*
X89477371Y-107283013D01*
X89564002Y-107200515D01*
X89632959Y-107102763D01*
X89681615Y-106993478D01*
X89708119Y-106876823D01*
X89710027Y-106740186D01*
X89686791Y-106622837D01*
X89641204Y-106512236D01*
X89575004Y-106412596D01*
X89535000Y-106372312D01*
X89535000Y-105505182D01*
X96982592Y-98057591D01*
X97008069Y-98026574D01*
X97033924Y-97995761D01*
X97035027Y-97993754D01*
X97036478Y-97991988D01*
X97055458Y-97956592D01*
X97074824Y-97921365D01*
X97075516Y-97919185D01*
X97076597Y-97917168D01*
X97088350Y-97878727D01*
X97100494Y-97840442D01*
X97100749Y-97838169D01*
X97101418Y-97835981D01*
X97105475Y-97796036D01*
X97109958Y-97756074D01*
X97109989Y-97751597D01*
X97109997Y-97751518D01*
X97109990Y-97751444D01*
X97110000Y-97750000D01*
X97110000Y-96328133D01*
X97139002Y-96300515D01*
X97207959Y-96202763D01*
X97256615Y-96093478D01*
X97283119Y-95976823D01*
X97285027Y-95840186D01*
X97261791Y-95722837D01*
X97216204Y-95612236D01*
X97150004Y-95512596D01*
X97065710Y-95427712D01*
X96966535Y-95360818D01*
X96856255Y-95314460D01*
X96739071Y-95290406D01*
X96619447Y-95289571D01*
X96508909Y-95310657D01*
X96510030Y-95230381D01*
X96482985Y-95093795D01*
X96429926Y-94965063D01*
X96352873Y-94849088D01*
X96254761Y-94750289D01*
X96139327Y-94672428D01*
X96010968Y-94618471D01*
X95874574Y-94590473D01*
X95735340Y-94589501D01*
X95598568Y-94615592D01*
X95587658Y-94620000D01*
X93025751Y-94620000D01*
X93081288Y-94583403D01*
X93138145Y-94516692D01*
X93174166Y-94436782D01*
X93186499Y-94350000D01*
X93186499Y-94335000D01*
X98319818Y-94335000D01*
X102664844Y-98680027D01*
X102664198Y-98726291D01*
X102685793Y-98843952D01*
X102729830Y-98955179D01*
X102794634Y-99055734D01*
X102877734Y-99141786D01*
X102975965Y-99210059D01*
X103085587Y-99257952D01*
X103202424Y-99283640D01*
X103322025Y-99286145D01*
X103439835Y-99265372D01*
X103551366Y-99222112D01*
X103652371Y-99158013D01*
X103739002Y-99075515D01*
X103807959Y-98977763D01*
X103856615Y-98868478D01*
X103883119Y-98751823D01*
X103884588Y-98646593D01*
X103910587Y-98657952D01*
X104027424Y-98683640D01*
X104147025Y-98686145D01*
X104264835Y-98665372D01*
X104376366Y-98622112D01*
X104477371Y-98558013D01*
X104564002Y-98475515D01*
X104632959Y-98377763D01*
X104681615Y-98268478D01*
X104708119Y-98151823D01*
X104710027Y-98015186D01*
X104686791Y-97897837D01*
X104658051Y-97828107D01*
X106867936Y-97828107D01*
X106896611Y-97984346D01*
X106955087Y-98132041D01*
X107041137Y-98265564D01*
X107151483Y-98379830D01*
X107281922Y-98470488D01*
X107427485Y-98534083D01*
X107575384Y-98566600D01*
X107604462Y-98595678D01*
X107479414Y-98626721D01*
X107411894Y-98747737D01*
X107369281Y-98879600D01*
X107353211Y-99017242D01*
X107364304Y-99155375D01*
X107402130Y-99288689D01*
X107465239Y-99412063D01*
X107479414Y-99433279D01*
X107604464Y-99464323D01*
X108038787Y-99030000D01*
X108024645Y-99015858D01*
X108045858Y-98994645D01*
X108060000Y-99008787D01*
X108494323Y-98574464D01*
X108463279Y-98449414D01*
X108342263Y-98381894D01*
X108236462Y-98347703D01*
X108295133Y-98291831D01*
X108386698Y-98162029D01*
X108451308Y-98016913D01*
X108486501Y-97862011D01*
X108489034Y-97680575D01*
X108458181Y-97524752D01*
X108397648Y-97377888D01*
X108309742Y-97245579D01*
X108197811Y-97132865D01*
X108066120Y-97044037D01*
X107919682Y-96982481D01*
X107764078Y-96950540D01*
X107605232Y-96949431D01*
X107449197Y-96979196D01*
X107301915Y-97038702D01*
X107168995Y-97125682D01*
X107055502Y-97236823D01*
X106965757Y-97367892D01*
X106903180Y-97513895D01*
X106870153Y-97669273D01*
X106867936Y-97828107D01*
X104658051Y-97828107D01*
X104641204Y-97787236D01*
X104575004Y-97687596D01*
X104490710Y-97602712D01*
X104391535Y-97535818D01*
X104281255Y-97489460D01*
X104221667Y-97477229D01*
X104233119Y-97426823D01*
X104235027Y-97290186D01*
X104211791Y-97172837D01*
X104166204Y-97062236D01*
X104100004Y-96962596D01*
X104042776Y-96904967D01*
X104077371Y-96883013D01*
X104164002Y-96800515D01*
X104232959Y-96702763D01*
X104281615Y-96593478D01*
X104308119Y-96476823D01*
X104310027Y-96340186D01*
X104286791Y-96222837D01*
X104241204Y-96112236D01*
X104175004Y-96012596D01*
X104135000Y-95972312D01*
X104135000Y-94080182D01*
X104280183Y-93935000D01*
X104349883Y-93935000D01*
X104315740Y-94014662D01*
X104290868Y-94131675D01*
X104289198Y-94251291D01*
X104310793Y-94368952D01*
X104354830Y-94480179D01*
X104419634Y-94580734D01*
X104502734Y-94666786D01*
X104600965Y-94735059D01*
X104710587Y-94782952D01*
X104827424Y-94808640D01*
X104947025Y-94811145D01*
X105064835Y-94790372D01*
X105176366Y-94747112D01*
X105277371Y-94683013D01*
X105327789Y-94635000D01*
X108519818Y-94635000D01*
X110565000Y-96680183D01*
X110565000Y-99419817D01*
X110119818Y-99865000D01*
X109885640Y-99865000D01*
X109877811Y-99853216D01*
X109780598Y-99755321D01*
X109666221Y-99678173D01*
X109636543Y-99665698D01*
X109648727Y-99660972D01*
X109765214Y-99587048D01*
X109865123Y-99491906D01*
X109944649Y-99379169D01*
X110000764Y-99253134D01*
X110031330Y-99118599D01*
X110033530Y-98961018D01*
X110006733Y-98825682D01*
X109954159Y-98698129D01*
X109877811Y-98583216D01*
X109852375Y-98557602D01*
X109929879Y-98543936D01*
X110077978Y-98486493D01*
X110212099Y-98401377D01*
X110327133Y-98291831D01*
X110418698Y-98162029D01*
X110483308Y-98016913D01*
X110518501Y-97862011D01*
X110521034Y-97680575D01*
X110490181Y-97524752D01*
X110429648Y-97377888D01*
X110341742Y-97245579D01*
X110229811Y-97132865D01*
X110098120Y-97044037D01*
X109951682Y-96982481D01*
X109796078Y-96950540D01*
X109637232Y-96949431D01*
X109481197Y-96979196D01*
X109333915Y-97038702D01*
X109200995Y-97125682D01*
X109087502Y-97236823D01*
X108997757Y-97367892D01*
X108935180Y-97513895D01*
X108902153Y-97669273D01*
X108899936Y-97828107D01*
X108928611Y-97984346D01*
X108987087Y-98132041D01*
X109073137Y-98265564D01*
X109152416Y-98347659D01*
X109130412Y-98351857D01*
X109002494Y-98403539D01*
X108887051Y-98479083D01*
X108788480Y-98575611D01*
X108710535Y-98689446D01*
X108694788Y-98726187D01*
X108654761Y-98647937D01*
X108640586Y-98626721D01*
X108515536Y-98595677D01*
X108081213Y-99030000D01*
X108515536Y-99464323D01*
X108640586Y-99433279D01*
X108694643Y-99336392D01*
X108701268Y-99353124D01*
X108776004Y-99469092D01*
X108871841Y-99568334D01*
X108985130Y-99647072D01*
X109024947Y-99664468D01*
X109002494Y-99673539D01*
X108887051Y-99749083D01*
X108788480Y-99845611D01*
X108710535Y-99959446D01*
X108695265Y-99995074D01*
X108684159Y-99968129D01*
X108607811Y-99853216D01*
X108510598Y-99755321D01*
X108396221Y-99678173D01*
X108364068Y-99664657D01*
X108442063Y-99624761D01*
X108463279Y-99610586D01*
X108494323Y-99485536D01*
X108060000Y-99051213D01*
X107625677Y-99485536D01*
X107656721Y-99610586D01*
X107753987Y-99664855D01*
X107732494Y-99673539D01*
X107617051Y-99749083D01*
X107518480Y-99845611D01*
X107505204Y-99865000D01*
X100862952Y-99865000D01*
X100841204Y-99812236D01*
X100775004Y-99712596D01*
X100690710Y-99627712D01*
X100591535Y-99560818D01*
X100481255Y-99514460D01*
X100364071Y-99490406D01*
X100244447Y-99489571D01*
X100126938Y-99511987D01*
X100016022Y-99556800D01*
X99915922Y-99622303D01*
X99830452Y-99706002D01*
X99762866Y-99804708D01*
X99715740Y-99914662D01*
X99690868Y-100031675D01*
X99689198Y-100151291D01*
X99710793Y-100268952D01*
X99754830Y-100380179D01*
X99819634Y-100480734D01*
X99902734Y-100566786D01*
X100000965Y-100635059D01*
X100110587Y-100682952D01*
X100227424Y-100708640D01*
X100347025Y-100711145D01*
X100357831Y-100709240D01*
X100371273Y-100713350D01*
X100409558Y-100725494D01*
X100411831Y-100725749D01*
X100414019Y-100726418D01*
X100453964Y-100730475D01*
X100493926Y-100734958D01*
X100498403Y-100734989D01*
X100498482Y-100734997D01*
X100498556Y-100734990D01*
X100500000Y-100735000D01*
X107503367Y-100735000D01*
X107506004Y-100739092D01*
X107601841Y-100838334D01*
X107715130Y-100917072D01*
X107754947Y-100934468D01*
X107732494Y-100943539D01*
X107617051Y-101019083D01*
X107518480Y-101115611D01*
X107505204Y-101135000D01*
X107430000Y-101135000D01*
X107390073Y-101138915D01*
X107349982Y-101142423D01*
X107347783Y-101143062D01*
X107345508Y-101143285D01*
X107307064Y-101154891D01*
X107268455Y-101166108D01*
X107266424Y-101167161D01*
X107264234Y-101167822D01*
X107228741Y-101186694D01*
X107193083Y-101205178D01*
X107191296Y-101206604D01*
X107189275Y-101207679D01*
X107158159Y-101233057D01*
X107126733Y-101258143D01*
X107123546Y-101261286D01*
X107123484Y-101261337D01*
X107123436Y-101261395D01*
X107122409Y-101262408D01*
X104919818Y-103465000D01*
X97660000Y-103465000D01*
X97660000Y-102600000D01*
X97655850Y-102557677D01*
X97652150Y-102515383D01*
X97651475Y-102513060D01*
X97651239Y-102510652D01*
X97638953Y-102469958D01*
X97627103Y-102429171D01*
X97625990Y-102427025D01*
X97625291Y-102424708D01*
X97605327Y-102387161D01*
X97585788Y-102349466D01*
X97584281Y-102347578D01*
X97583144Y-102345440D01*
X97556265Y-102312482D01*
X97529779Y-102279304D01*
X97526464Y-102275942D01*
X97526403Y-102275868D01*
X97526334Y-102275811D01*
X97525269Y-102274731D01*
X97250538Y-102000000D01*
X100625269Y-98625269D01*
X100652250Y-98592422D01*
X100679552Y-98559885D01*
X100680717Y-98557766D01*
X100682253Y-98555896D01*
X100702334Y-98518444D01*
X100722802Y-98481213D01*
X100723534Y-98478906D01*
X100724676Y-98476776D01*
X100737101Y-98436138D01*
X100749948Y-98395639D01*
X100750217Y-98393237D01*
X100750925Y-98390923D01*
X100755225Y-98348592D01*
X100759955Y-98306423D01*
X100759988Y-98301704D01*
X100759998Y-98301606D01*
X100759989Y-98301515D01*
X100760000Y-98300000D01*
X100760000Y-97804326D01*
X100764002Y-97800515D01*
X100832959Y-97702763D01*
X100881615Y-97593478D01*
X100908119Y-97476823D01*
X100910027Y-97340186D01*
X100886791Y-97222837D01*
X100841204Y-97112236D01*
X100775004Y-97012596D01*
X100690710Y-96927712D01*
X100591535Y-96860818D01*
X100481255Y-96814460D01*
X100364071Y-96790406D01*
X100244447Y-96789571D01*
X100126938Y-96811987D01*
X100016022Y-96856800D01*
X99915922Y-96922303D01*
X99830452Y-97006002D01*
X99762866Y-97104708D01*
X99715740Y-97214662D01*
X99690868Y-97331675D01*
X99689198Y-97451291D01*
X99710793Y-97568952D01*
X99754830Y-97680179D01*
X99819634Y-97780734D01*
X99840000Y-97801823D01*
X99840000Y-98109462D01*
X99516794Y-98432668D01*
X99488801Y-98390775D01*
X99445622Y-98347596D01*
X99214421Y-98116394D01*
X99104819Y-98116394D01*
X98685858Y-98535355D01*
X98700001Y-98549498D01*
X98678788Y-98570711D01*
X98664645Y-98556568D01*
X98245684Y-98975529D01*
X98245684Y-99085131D01*
X98476886Y-99316332D01*
X98520065Y-99359511D01*
X98561958Y-99387504D01*
X98526820Y-99422642D01*
X98478321Y-99358075D01*
X97841925Y-98721679D01*
X97829281Y-98710902D01*
X97850368Y-98689814D01*
X97883668Y-98723114D01*
X98114869Y-98954316D01*
X98224471Y-98954316D01*
X98643432Y-98535355D01*
X98629290Y-98521213D01*
X98650503Y-98500000D01*
X98664645Y-98514142D01*
X99083606Y-98095181D01*
X99083606Y-97985579D01*
X98852404Y-97754378D01*
X98809225Y-97711199D01*
X98758452Y-97677273D01*
X98702035Y-97653905D01*
X98642143Y-97641992D01*
X98581079Y-97641992D01*
X98521188Y-97653905D01*
X98464771Y-97677274D01*
X98435000Y-97697166D01*
X98435000Y-96028133D01*
X98464002Y-96000515D01*
X98532959Y-95902763D01*
X98581615Y-95793478D01*
X98608119Y-95676823D01*
X98610027Y-95540186D01*
X98586791Y-95422837D01*
X98541204Y-95312236D01*
X98475004Y-95212596D01*
X98390710Y-95127712D01*
X98291535Y-95060818D01*
X98181255Y-95014460D01*
X98064071Y-94990406D01*
X97944447Y-94989571D01*
X97826938Y-95011987D01*
X97716022Y-95056800D01*
X97615922Y-95122303D01*
X97530452Y-95206002D01*
X97462866Y-95304708D01*
X97415740Y-95414662D01*
X97390868Y-95531675D01*
X97389198Y-95651291D01*
X97410793Y-95768952D01*
X97454830Y-95880179D01*
X97519634Y-95980734D01*
X97565000Y-96027712D01*
X97565000Y-97744817D01*
X92992409Y-102317409D01*
X92966956Y-102348396D01*
X92941076Y-102379239D01*
X92939973Y-102381246D01*
X92938522Y-102383012D01*
X92919532Y-102418427D01*
X92900176Y-102453635D01*
X92899485Y-102455813D01*
X92898403Y-102457831D01*
X92886646Y-102496287D01*
X92874506Y-102534558D01*
X92874251Y-102536830D01*
X92873582Y-102539019D01*
X92869525Y-102578964D01*
X92865042Y-102618926D01*
X92865011Y-102623403D01*
X92865003Y-102623482D01*
X92865010Y-102623556D01*
X92865000Y-102625000D01*
X92865000Y-106372170D01*
X92830452Y-106406002D01*
X92762866Y-106504708D01*
X92715740Y-106614662D01*
X92690868Y-106731675D01*
X92689198Y-106851291D01*
X92710793Y-106968952D01*
X92754830Y-107080179D01*
X92819634Y-107180734D01*
X92902734Y-107266786D01*
X93000965Y-107335059D01*
X93110587Y-107382952D01*
X93227424Y-107408640D01*
X93347025Y-107411145D01*
X93444350Y-107393984D01*
X90542314Y-110296020D01*
X90516588Y-110290739D01*
X90298911Y-110289219D01*
X90085085Y-110330009D01*
X89883253Y-110411554D01*
X89701104Y-110530749D01*
X89545576Y-110683053D01*
X89422593Y-110862666D01*
X89399415Y-110916745D01*
X89343087Y-110804484D01*
X89311089Y-110756596D01*
X89144416Y-110676797D01*
X88421213Y-111400000D01*
X89144416Y-112123203D01*
X89311089Y-112043404D01*
X89399351Y-111888063D01*
X89407971Y-111909834D01*
X89525891Y-112092810D01*
X89677106Y-112249398D01*
X89855855Y-112373632D01*
X90055331Y-112460781D01*
X90267936Y-112507525D01*
X90485570Y-112512084D01*
X90699945Y-112474284D01*
X90902896Y-112395564D01*
X91086691Y-112278924D01*
X91244330Y-112128806D01*
X91369809Y-111950928D01*
X91458349Y-111752066D01*
X91506576Y-111539793D01*
X91510048Y-111291159D01*
X91503513Y-111258153D01*
X91785151Y-110976515D01*
X97988804Y-110976515D01*
X98021019Y-111152044D01*
X98086715Y-111317972D01*
X98183388Y-111467979D01*
X98307357Y-111596353D01*
X98453900Y-111698203D01*
X98617434Y-111769649D01*
X98791731Y-111807971D01*
X98970152Y-111811708D01*
X99145901Y-111780719D01*
X99312284Y-111716183D01*
X99462963Y-111620559D01*
X99592199Y-111497490D01*
X99695069Y-111351662D01*
X99767655Y-111188630D01*
X99807193Y-111014605D01*
X99810039Y-110810770D01*
X99775376Y-110635708D01*
X99707370Y-110470714D01*
X99608612Y-110322071D01*
X99482862Y-110195440D01*
X99334912Y-110095647D01*
X99170396Y-110026491D01*
X98995581Y-109990606D01*
X98817125Y-109989360D01*
X98641826Y-110022800D01*
X98476361Y-110089653D01*
X98327032Y-110187371D01*
X98199527Y-110312233D01*
X98098703Y-110459483D01*
X98028400Y-110623512D01*
X97991296Y-110798072D01*
X97988804Y-110976515D01*
X91785151Y-110976515D01*
X92817250Y-109944416D01*
X94676797Y-109944416D01*
X94756596Y-110111089D01*
X94946704Y-110219105D01*
X95154231Y-110287957D01*
X95371203Y-110314999D01*
X95589282Y-110299193D01*
X95800087Y-110241145D01*
X95995516Y-110143087D01*
X96043404Y-110111089D01*
X96123203Y-109944416D01*
X95400000Y-109221213D01*
X94676797Y-109944416D01*
X92817250Y-109944416D01*
X93590463Y-109171203D01*
X94285001Y-109171203D01*
X94300807Y-109389282D01*
X94358855Y-109600087D01*
X94456913Y-109795516D01*
X94488911Y-109843404D01*
X94655584Y-109923203D01*
X95378787Y-109200000D01*
X95421213Y-109200000D01*
X96144416Y-109923203D01*
X96311089Y-109843404D01*
X96399351Y-109688063D01*
X96407971Y-109709834D01*
X96525891Y-109892810D01*
X96677106Y-110049398D01*
X96855855Y-110173632D01*
X97055331Y-110260781D01*
X97267936Y-110307525D01*
X97485570Y-110312084D01*
X97699945Y-110274284D01*
X97902896Y-110195564D01*
X98086691Y-110078924D01*
X98244330Y-109928806D01*
X98369809Y-109750928D01*
X98458349Y-109552066D01*
X98506576Y-109339793D01*
X98510048Y-109091159D01*
X98467766Y-108877622D01*
X98384814Y-108676365D01*
X98264351Y-108495053D01*
X98110964Y-108340592D01*
X97930497Y-108218865D01*
X97729824Y-108134510D01*
X97516588Y-108090739D01*
X97298911Y-108089219D01*
X97085085Y-108130009D01*
X96883253Y-108211554D01*
X96701104Y-108330749D01*
X96545576Y-108483053D01*
X96422593Y-108662666D01*
X96399415Y-108716745D01*
X96343087Y-108604484D01*
X96311089Y-108556596D01*
X96144416Y-108476797D01*
X95421213Y-109200000D01*
X95378787Y-109200000D01*
X94655584Y-108476797D01*
X94488911Y-108556596D01*
X94380895Y-108746704D01*
X94312043Y-108954231D01*
X94285001Y-109171203D01*
X93590463Y-109171203D01*
X94306082Y-108455584D01*
X94676797Y-108455584D01*
X95400000Y-109178787D01*
X96123203Y-108455584D01*
X96043404Y-108288911D01*
X95853296Y-108180895D01*
X95645769Y-108112043D01*
X95428797Y-108085001D01*
X95210718Y-108100807D01*
X94999913Y-108158855D01*
X94804484Y-108256913D01*
X94756596Y-108288911D01*
X94676797Y-108455584D01*
X94306082Y-108455584D01*
X96881666Y-105880000D01*
X108500000Y-105880000D01*
X108562572Y-105873865D01*
X108564651Y-105873683D01*
X108018334Y-106420000D01*
X101900000Y-106420000D01*
X101837428Y-106426135D01*
X101774914Y-106431604D01*
X101771483Y-106432601D01*
X101767921Y-106432950D01*
X101707750Y-106451117D01*
X101647470Y-106468630D01*
X101644296Y-106470275D01*
X101640872Y-106471309D01*
X101585415Y-106500796D01*
X101529646Y-106529704D01*
X101526850Y-106531936D01*
X101523694Y-106533614D01*
X101475045Y-106573291D01*
X101425927Y-106612501D01*
X101420945Y-106617414D01*
X101420849Y-106617492D01*
X101420775Y-106617581D01*
X101419167Y-106619167D01*
X100019167Y-108019167D01*
X99979245Y-108067768D01*
X99938923Y-108115822D01*
X99937203Y-108118951D01*
X99934930Y-108121718D01*
X99905217Y-108177133D01*
X99874988Y-108232120D01*
X99873907Y-108235526D01*
X99872217Y-108238679D01*
X99853849Y-108298760D01*
X99834860Y-108358620D01*
X99834461Y-108362174D01*
X99833416Y-108365593D01*
X99827069Y-108428076D01*
X99820066Y-108490506D01*
X99820017Y-108497494D01*
X99820004Y-108497626D01*
X99820016Y-108497749D01*
X99820000Y-108500000D01*
X99820000Y-112218334D01*
X97542314Y-114496020D01*
X97516588Y-114490739D01*
X97298911Y-114489219D01*
X97085085Y-114530009D01*
X96883253Y-114611554D01*
X96701104Y-114730749D01*
X96545576Y-114883053D01*
X96422593Y-115062666D01*
X96399415Y-115116745D01*
X96343087Y-115004484D01*
X96311089Y-114956596D01*
X96144416Y-114876797D01*
X95421213Y-115600000D01*
X96144416Y-116323203D01*
X96311089Y-116243404D01*
X96399351Y-116088063D01*
X96407971Y-116109834D01*
X96525891Y-116292810D01*
X96677106Y-116449398D01*
X96855855Y-116573632D01*
X97055331Y-116660781D01*
X97267936Y-116707525D01*
X97485570Y-116712084D01*
X97699945Y-116674284D01*
X97902896Y-116595564D01*
X98086691Y-116478924D01*
X98227937Y-116344416D01*
X101876797Y-116344416D01*
X101956596Y-116511089D01*
X102146704Y-116619105D01*
X102354231Y-116687957D01*
X102571203Y-116714999D01*
X102789282Y-116699193D01*
X103000087Y-116641145D01*
X103195516Y-116543087D01*
X103243404Y-116511089D01*
X103323203Y-116344416D01*
X102600000Y-115621213D01*
X101876797Y-116344416D01*
X98227937Y-116344416D01*
X98244330Y-116328806D01*
X98369809Y-116150928D01*
X98458349Y-115952066D01*
X98506576Y-115739793D01*
X98508930Y-115571203D01*
X101485001Y-115571203D01*
X101500807Y-115789282D01*
X101558855Y-116000087D01*
X101656913Y-116195516D01*
X101688911Y-116243404D01*
X101855584Y-116323203D01*
X102578787Y-115600000D01*
X101855584Y-114876797D01*
X101688911Y-114956596D01*
X101580895Y-115146704D01*
X101512043Y-115354231D01*
X101485001Y-115571203D01*
X98508930Y-115571203D01*
X98510048Y-115491159D01*
X98503513Y-115458153D01*
X99106082Y-114855584D01*
X101876797Y-114855584D01*
X102600000Y-115578787D01*
X103323203Y-114855584D01*
X103243404Y-114688911D01*
X103053296Y-114580895D01*
X102845769Y-114512043D01*
X102628797Y-114485001D01*
X102410718Y-114500807D01*
X102199913Y-114558855D01*
X102004484Y-114656913D01*
X101956596Y-114688911D01*
X101876797Y-114855584D01*
X99106082Y-114855584D01*
X100980833Y-112980833D01*
X101020755Y-112932232D01*
X101061077Y-112884178D01*
X101062797Y-112881049D01*
X101065070Y-112878282D01*
X101094783Y-112822867D01*
X101125012Y-112767880D01*
X101126093Y-112764474D01*
X101127783Y-112761321D01*
X101146151Y-112701240D01*
X101165140Y-112641380D01*
X101165539Y-112637826D01*
X101166584Y-112634407D01*
X101172931Y-112571924D01*
X101179934Y-112509494D01*
X101179983Y-112502506D01*
X101179996Y-112502374D01*
X101179984Y-112502251D01*
X101180000Y-112500000D01*
X101180000Y-110976515D01*
X105188804Y-110976515D01*
X105221019Y-111152044D01*
X105286715Y-111317972D01*
X105383388Y-111467979D01*
X105507357Y-111596353D01*
X105653900Y-111698203D01*
X105817434Y-111769649D01*
X105991731Y-111807971D01*
X106170152Y-111811708D01*
X106345901Y-111780719D01*
X106512284Y-111716183D01*
X106662963Y-111620559D01*
X106792199Y-111497490D01*
X106895069Y-111351662D01*
X106967655Y-111188630D01*
X107007193Y-111014605D01*
X107010039Y-110810770D01*
X106975376Y-110635708D01*
X106907370Y-110470714D01*
X106808612Y-110322071D01*
X106682862Y-110195440D01*
X106534912Y-110095647D01*
X106370396Y-110026491D01*
X106195581Y-109990606D01*
X106017125Y-109989360D01*
X105841826Y-110022800D01*
X105676361Y-110089653D01*
X105527032Y-110187371D01*
X105399527Y-110312233D01*
X105298703Y-110459483D01*
X105228400Y-110623512D01*
X105191296Y-110798072D01*
X105188804Y-110976515D01*
X101180000Y-110976515D01*
X101180000Y-109944416D01*
X101876797Y-109944416D01*
X101956596Y-110111089D01*
X102146704Y-110219105D01*
X102354231Y-110287957D01*
X102571203Y-110314999D01*
X102789282Y-110299193D01*
X103000087Y-110241145D01*
X103195516Y-110143087D01*
X103243404Y-110111089D01*
X103323203Y-109944416D01*
X102600000Y-109221213D01*
X101876797Y-109944416D01*
X101180000Y-109944416D01*
X101180000Y-109171203D01*
X101485001Y-109171203D01*
X101500807Y-109389282D01*
X101558855Y-109600087D01*
X101656913Y-109795516D01*
X101688911Y-109843404D01*
X101855584Y-109923203D01*
X102578787Y-109200000D01*
X102621213Y-109200000D01*
X103344416Y-109923203D01*
X103511089Y-109843404D01*
X103599351Y-109688063D01*
X103607971Y-109709834D01*
X103725891Y-109892810D01*
X103877106Y-110049398D01*
X104055855Y-110173632D01*
X104255331Y-110260781D01*
X104467936Y-110307525D01*
X104685570Y-110312084D01*
X104899945Y-110274284D01*
X105102896Y-110195564D01*
X105286691Y-110078924D01*
X105444330Y-109928806D01*
X105569809Y-109750928D01*
X105658349Y-109552066D01*
X105706576Y-109339793D01*
X105710048Y-109091159D01*
X105667766Y-108877622D01*
X105584814Y-108676365D01*
X105464351Y-108495053D01*
X105310964Y-108340592D01*
X105130497Y-108218865D01*
X104929824Y-108134510D01*
X104716588Y-108090739D01*
X104498911Y-108089219D01*
X104285085Y-108130009D01*
X104083253Y-108211554D01*
X103901104Y-108330749D01*
X103745576Y-108483053D01*
X103622593Y-108662666D01*
X103599415Y-108716745D01*
X103543087Y-108604484D01*
X103511089Y-108556596D01*
X103344416Y-108476797D01*
X102621213Y-109200000D01*
X102578787Y-109200000D01*
X101855584Y-108476797D01*
X101688911Y-108556596D01*
X101580895Y-108746704D01*
X101512043Y-108954231D01*
X101485001Y-109171203D01*
X101180000Y-109171203D01*
X101180000Y-108781666D01*
X101506082Y-108455584D01*
X101876797Y-108455584D01*
X102600000Y-109178787D01*
X103323203Y-108455584D01*
X103243404Y-108288911D01*
X103053296Y-108180895D01*
X102845769Y-108112043D01*
X102628797Y-108085001D01*
X102410718Y-108100807D01*
X102199913Y-108158855D01*
X102004484Y-108256913D01*
X101956596Y-108288911D01*
X101876797Y-108455584D01*
X101506082Y-108455584D01*
X102181666Y-107780000D01*
X108300000Y-107780000D01*
X108362572Y-107773865D01*
X108425086Y-107768396D01*
X108428517Y-107767399D01*
X108432079Y-107767050D01*
X108492250Y-107748883D01*
X108552530Y-107731370D01*
X108555704Y-107729725D01*
X108559128Y-107728691D01*
X108614585Y-107699204D01*
X108670354Y-107670296D01*
X108673150Y-107668064D01*
X108676306Y-107666386D01*
X108724955Y-107626709D01*
X108774073Y-107587499D01*
X108779055Y-107582586D01*
X108779151Y-107582508D01*
X108779225Y-107582419D01*
X108780833Y-107580833D01*
X116316666Y-100045000D01*
X116432659Y-100045000D01*
X116394646Y-100064704D01*
X116391850Y-100066936D01*
X116388694Y-100068614D01*
X116340045Y-100108291D01*
X116290927Y-100147501D01*
X116285945Y-100152414D01*
X116285849Y-100152492D01*
X116285775Y-100152581D01*
X116284167Y-100154167D01*
X107219167Y-109219167D01*
X107179245Y-109267768D01*
X107138923Y-109315822D01*
X107137203Y-109318951D01*
X107134930Y-109321718D01*
X107105217Y-109377133D01*
X107074988Y-109432120D01*
X107073907Y-109435526D01*
X107072217Y-109438679D01*
X107053849Y-109498760D01*
X107034860Y-109558620D01*
X107034461Y-109562174D01*
X107033416Y-109565593D01*
X107027069Y-109628076D01*
X107020066Y-109690506D01*
X107020017Y-109697494D01*
X107020004Y-109697626D01*
X107020016Y-109697749D01*
X107020000Y-109700000D01*
X107020000Y-112218334D01*
X104742314Y-114496020D01*
X104716588Y-114490739D01*
X104498911Y-114489219D01*
X104285085Y-114530009D01*
X104083253Y-114611554D01*
X103901104Y-114730749D01*
X103745576Y-114883053D01*
X103622593Y-115062666D01*
X103599415Y-115116745D01*
X103543087Y-115004484D01*
X103511089Y-114956596D01*
X103344416Y-114876797D01*
X102621213Y-115600000D01*
X103344416Y-116323203D01*
X103511089Y-116243404D01*
X103599351Y-116088063D01*
X103607971Y-116109834D01*
X103725891Y-116292810D01*
X103877106Y-116449398D01*
X104055855Y-116573632D01*
X104255331Y-116660781D01*
X104467936Y-116707525D01*
X104685570Y-116712084D01*
X104899945Y-116674284D01*
X105102896Y-116595564D01*
X105286691Y-116478924D01*
X105444330Y-116328806D01*
X105569809Y-116150928D01*
X105658349Y-115952066D01*
X105706576Y-115739793D01*
X105710048Y-115491159D01*
X105703513Y-115458153D01*
X107985151Y-113176515D01*
X112188804Y-113176515D01*
X112221019Y-113352044D01*
X112286715Y-113517972D01*
X112383388Y-113667979D01*
X112507357Y-113796353D01*
X112653900Y-113898203D01*
X112817434Y-113969649D01*
X112991731Y-114007971D01*
X113170152Y-114011708D01*
X113345901Y-113980719D01*
X113512284Y-113916183D01*
X113662963Y-113820559D01*
X113792199Y-113697490D01*
X113895069Y-113551662D01*
X113967655Y-113388630D01*
X114007193Y-113214605D01*
X114010039Y-113010770D01*
X113975376Y-112835708D01*
X113907370Y-112670714D01*
X113808612Y-112522071D01*
X113682862Y-112395440D01*
X113534912Y-112295647D01*
X113370396Y-112226491D01*
X113195581Y-112190606D01*
X113017125Y-112189360D01*
X112841826Y-112222800D01*
X112676361Y-112289653D01*
X112527032Y-112387371D01*
X112399527Y-112512233D01*
X112298703Y-112659483D01*
X112228400Y-112823512D01*
X112191296Y-112998072D01*
X112188804Y-113176515D01*
X107985151Y-113176515D01*
X108180833Y-112980833D01*
X108220755Y-112932232D01*
X108261077Y-112884178D01*
X108262797Y-112881049D01*
X108265070Y-112878282D01*
X108294783Y-112822867D01*
X108325012Y-112767880D01*
X108326093Y-112764474D01*
X108327783Y-112761321D01*
X108346151Y-112701240D01*
X108365140Y-112641380D01*
X108365539Y-112637826D01*
X108366584Y-112634407D01*
X108372931Y-112571924D01*
X108379934Y-112509494D01*
X108379983Y-112502506D01*
X108379996Y-112502374D01*
X108379984Y-112502251D01*
X108380000Y-112500000D01*
X108380000Y-112144416D01*
X108876797Y-112144416D01*
X108956596Y-112311089D01*
X109146704Y-112419105D01*
X109354231Y-112487957D01*
X109571203Y-112514999D01*
X109789282Y-112499193D01*
X110000087Y-112441145D01*
X110195516Y-112343087D01*
X110243404Y-112311089D01*
X110323203Y-112144416D01*
X109600000Y-111421213D01*
X108876797Y-112144416D01*
X108380000Y-112144416D01*
X108380000Y-111371203D01*
X108485001Y-111371203D01*
X108500807Y-111589282D01*
X108558855Y-111800087D01*
X108656913Y-111995516D01*
X108688911Y-112043404D01*
X108855584Y-112123203D01*
X109578787Y-111400000D01*
X108855584Y-110676797D01*
X108688911Y-110756596D01*
X108580895Y-110946704D01*
X108512043Y-111154231D01*
X108485001Y-111371203D01*
X108380000Y-111371203D01*
X108380000Y-110655584D01*
X108876797Y-110655584D01*
X109600000Y-111378787D01*
X110323203Y-110655584D01*
X110243404Y-110488911D01*
X110053296Y-110380895D01*
X109845769Y-110312043D01*
X109628797Y-110285001D01*
X109410718Y-110300807D01*
X109199913Y-110358855D01*
X109004484Y-110456913D01*
X108956596Y-110488911D01*
X108876797Y-110655584D01*
X108380000Y-110655584D01*
X108380000Y-109981666D01*
X117046666Y-101315000D01*
X117262659Y-101315000D01*
X117224646Y-101334704D01*
X117221850Y-101336936D01*
X117218694Y-101338614D01*
X117170045Y-101378291D01*
X117120927Y-101417501D01*
X117115949Y-101422410D01*
X117115849Y-101422492D01*
X117115772Y-101422585D01*
X117114167Y-101424168D01*
X111119167Y-107419167D01*
X111079245Y-107467768D01*
X111038923Y-107515822D01*
X111037203Y-107518951D01*
X111034930Y-107521718D01*
X111005217Y-107577133D01*
X110974988Y-107632120D01*
X110973907Y-107635526D01*
X110972217Y-107638679D01*
X110953849Y-107698760D01*
X110934860Y-107758620D01*
X110934461Y-107762174D01*
X110933416Y-107765593D01*
X110927069Y-107828076D01*
X110920066Y-107890506D01*
X110920017Y-107897494D01*
X110920004Y-107897626D01*
X110920016Y-107897749D01*
X110920000Y-107900000D01*
X110920000Y-110518384D01*
X110901104Y-110530749D01*
X110745576Y-110683053D01*
X110622593Y-110862666D01*
X110599415Y-110916745D01*
X110543087Y-110804484D01*
X110511089Y-110756596D01*
X110344416Y-110676797D01*
X109621213Y-111400000D01*
X110344416Y-112123203D01*
X110511089Y-112043404D01*
X110599351Y-111888063D01*
X110607971Y-111909834D01*
X110725891Y-112092810D01*
X110877106Y-112249398D01*
X111055855Y-112373632D01*
X111255331Y-112460781D01*
X111467936Y-112507525D01*
X111685570Y-112512084D01*
X111899945Y-112474284D01*
X112102896Y-112395564D01*
X112286691Y-112278924D01*
X112444330Y-112128806D01*
X112569809Y-111950928D01*
X112658349Y-111752066D01*
X112706576Y-111539793D01*
X112710048Y-111291159D01*
X112667766Y-111077622D01*
X112584814Y-110876365D01*
X112464351Y-110695053D01*
X112310964Y-110540592D01*
X112280000Y-110519706D01*
X112280000Y-108181666D01*
X117492955Y-102968710D01*
X117466011Y-103095474D01*
X117464067Y-103234699D01*
X117489202Y-103371649D01*
X117540459Y-103501110D01*
X117615886Y-103618149D01*
X117712609Y-103718308D01*
X117826944Y-103797773D01*
X117954536Y-103853517D01*
X118090526Y-103883416D01*
X118229734Y-103886332D01*
X118366857Y-103862154D01*
X118385301Y-103855000D01*
X118425000Y-103855000D01*
X118487572Y-103848865D01*
X118550086Y-103843396D01*
X118553517Y-103842399D01*
X118557079Y-103842050D01*
X118617250Y-103823883D01*
X118677530Y-103806370D01*
X118680704Y-103804725D01*
X118684128Y-103803691D01*
X118739585Y-103774204D01*
X118795354Y-103745296D01*
X118798150Y-103743064D01*
X118801306Y-103741386D01*
X118849955Y-103701709D01*
X118899073Y-103662499D01*
X118904055Y-103657586D01*
X118904151Y-103657508D01*
X118904225Y-103657419D01*
X118905833Y-103655833D01*
X119234999Y-103326667D01*
X118904374Y-105228735D01*
X117528742Y-108801034D01*
X115485446Y-112038107D01*
X112852314Y-114816647D01*
X109729642Y-117030827D01*
X106236370Y-118596309D01*
X102505561Y-119453462D01*
X98679307Y-119569639D01*
X94903368Y-118940416D01*
X91321549Y-117589755D01*
X90978443Y-117376515D01*
X97988804Y-117376515D01*
X98021019Y-117552044D01*
X98086715Y-117717972D01*
X98183388Y-117867979D01*
X98307357Y-117996353D01*
X98453900Y-118098203D01*
X98617434Y-118169649D01*
X98791731Y-118207971D01*
X98970152Y-118211708D01*
X99145901Y-118180719D01*
X99312284Y-118116183D01*
X99462963Y-118020559D01*
X99592199Y-117897490D01*
X99695069Y-117751662D01*
X99767655Y-117588630D01*
X99807193Y-117414605D01*
X99807724Y-117376515D01*
X105188804Y-117376515D01*
X105221019Y-117552044D01*
X105286715Y-117717972D01*
X105383388Y-117867979D01*
X105507357Y-117996353D01*
X105653900Y-118098203D01*
X105817434Y-118169649D01*
X105991731Y-118207971D01*
X106170152Y-118211708D01*
X106345901Y-118180719D01*
X106512284Y-118116183D01*
X106662963Y-118020559D01*
X106792199Y-117897490D01*
X106895069Y-117751662D01*
X106967655Y-117588630D01*
X107007193Y-117414605D01*
X107010039Y-117210770D01*
X106975376Y-117035708D01*
X106907370Y-116870714D01*
X106808612Y-116722071D01*
X106682862Y-116595440D01*
X106534912Y-116495647D01*
X106370396Y-116426491D01*
X106195581Y-116390606D01*
X106017125Y-116389360D01*
X105841826Y-116422800D01*
X105676361Y-116489653D01*
X105527032Y-116587371D01*
X105399527Y-116712233D01*
X105298703Y-116859483D01*
X105228400Y-117023512D01*
X105191296Y-117198072D01*
X105188804Y-117376515D01*
X99807724Y-117376515D01*
X99810039Y-117210770D01*
X99775376Y-117035708D01*
X99707370Y-116870714D01*
X99608612Y-116722071D01*
X99482862Y-116595440D01*
X99334912Y-116495647D01*
X99170396Y-116426491D01*
X98995581Y-116390606D01*
X98817125Y-116389360D01*
X98641826Y-116422800D01*
X98476361Y-116489653D01*
X98327032Y-116587371D01*
X98199527Y-116712233D01*
X98098703Y-116859483D01*
X98028400Y-117023512D01*
X97991296Y-117198072D01*
X97988804Y-117376515D01*
X90978443Y-117376515D01*
X89317777Y-116344416D01*
X94676797Y-116344416D01*
X94756596Y-116511089D01*
X94946704Y-116619105D01*
X95154231Y-116687957D01*
X95371203Y-116714999D01*
X95589282Y-116699193D01*
X95800087Y-116641145D01*
X95995516Y-116543087D01*
X96043404Y-116511089D01*
X96123203Y-116344416D01*
X95400000Y-115621213D01*
X94676797Y-116344416D01*
X89317777Y-116344416D01*
X88073663Y-115571203D01*
X94285001Y-115571203D01*
X94300807Y-115789282D01*
X94358855Y-116000087D01*
X94456913Y-116195516D01*
X94488911Y-116243404D01*
X94655584Y-116323203D01*
X95378787Y-115600000D01*
X94655584Y-114876797D01*
X94488911Y-114956596D01*
X94380895Y-115146704D01*
X94312043Y-115354231D01*
X94285001Y-115571203D01*
X88073663Y-115571203D01*
X88070295Y-115569110D01*
X87306760Y-114855584D01*
X94676797Y-114855584D01*
X95400000Y-115578787D01*
X96123203Y-114855584D01*
X96043404Y-114688911D01*
X95853296Y-114580895D01*
X95645769Y-114512043D01*
X95428797Y-114485001D01*
X95210718Y-114500807D01*
X94999913Y-114558855D01*
X94804484Y-114656913D01*
X94756596Y-114688911D01*
X94676797Y-114855584D01*
X87306760Y-114855584D01*
X85510008Y-113176515D01*
X90988804Y-113176515D01*
X91021019Y-113352044D01*
X91086715Y-113517972D01*
X91183388Y-113667979D01*
X91307357Y-113796353D01*
X91453900Y-113898203D01*
X91617434Y-113969649D01*
X91791731Y-114007971D01*
X91970152Y-114011708D01*
X92145901Y-113980719D01*
X92312284Y-113916183D01*
X92462963Y-113820559D01*
X92592199Y-113697490D01*
X92695069Y-113551662D01*
X92767655Y-113388630D01*
X92807193Y-113214605D01*
X92810039Y-113010770D01*
X92775376Y-112835708D01*
X92707370Y-112670714D01*
X92608612Y-112522071D01*
X92482862Y-112395440D01*
X92334912Y-112295647D01*
X92170396Y-112226491D01*
X91995581Y-112190606D01*
X91817125Y-112189360D01*
X91641826Y-112222800D01*
X91476361Y-112289653D01*
X91327032Y-112387371D01*
X91199527Y-112512233D01*
X91098703Y-112659483D01*
X91028400Y-112823512D01*
X90991296Y-112998072D01*
X90988804Y-113176515D01*
X85510008Y-113176515D01*
X85273438Y-112955440D01*
X84689818Y-112144416D01*
X87676797Y-112144416D01*
X87756596Y-112311089D01*
X87946704Y-112419105D01*
X88154231Y-112487957D01*
X88371203Y-112514999D01*
X88589282Y-112499193D01*
X88800087Y-112441145D01*
X88995516Y-112343087D01*
X89043404Y-112311089D01*
X89123203Y-112144416D01*
X88400000Y-111421213D01*
X87676797Y-112144416D01*
X84689818Y-112144416D01*
X84133407Y-111371203D01*
X87285001Y-111371203D01*
X87300807Y-111589282D01*
X87358855Y-111800087D01*
X87456913Y-111995516D01*
X87488911Y-112043404D01*
X87655584Y-112123203D01*
X88378787Y-111400000D01*
X87655584Y-110676797D01*
X87488911Y-110756596D01*
X87380895Y-110946704D01*
X87312043Y-111154231D01*
X87285001Y-111371203D01*
X84133407Y-111371203D01*
X83618441Y-110655584D01*
X87676797Y-110655584D01*
X88400000Y-111378787D01*
X89123203Y-110655584D01*
X89043404Y-110488911D01*
X88853296Y-110380895D01*
X88645769Y-110312043D01*
X88428797Y-110285001D01*
X88210718Y-110300807D01*
X87999913Y-110358855D01*
X87804484Y-110456913D01*
X87756596Y-110488911D01*
X87676797Y-110655584D01*
X83618441Y-110655584D01*
X83037513Y-109848302D01*
X81447681Y-106366043D01*
X80564504Y-102641310D01*
X80421617Y-98815962D01*
X81024466Y-95035714D01*
X82350085Y-91444561D01*
X84354801Y-88168139D01*
X84984461Y-87385000D01*
X87087877Y-87385000D01*
X87076361Y-87389653D01*
M02*
