G04 #@! TF.FileFunction,Legend,Bot*
%FSLAX46Y46*%
G04 Gerber Fmt 4.6, Leading zero omitted, Abs format (unit mm)*
G04 Created by KiCad (PCBNEW 4.0.2-4+6225~38~ubuntu14.04.1-stable) date Sun 08 May 2016 15:36:26 BST*
%MOMM*%
G01*
G04 APERTURE LIST*
%ADD10C,0.100000*%
%ADD11C,0.200000*%
%ADD12C,0.170000*%
%ADD13C,0.120000*%
%ADD14C,0.150000*%
%ADD15C,0.010000*%
%ADD16C,1.200000*%
%ADD17C,1.600000*%
%ADD18C,0.787000*%
%ADD19C,1.000000*%
%ADD20R,0.750000X0.900000*%
G04 APERTURE END LIST*
D10*
D11*
X106125000Y-106475000D02*
X106625000Y-106475000D01*
X102650000Y-106475000D02*
X106125000Y-106475000D01*
X93400000Y-106475000D02*
X102650000Y-106475000D01*
D10*
X117583333Y-103986667D02*
X117583333Y-103520000D01*
X117583333Y-103586667D02*
X117550000Y-103553333D01*
X117483333Y-103520000D01*
X117383333Y-103520000D01*
X117316667Y-103553333D01*
X117283333Y-103620000D01*
X117283333Y-103986667D01*
X117283333Y-103620000D02*
X117250000Y-103553333D01*
X117183333Y-103520000D01*
X117083333Y-103520000D01*
X117016667Y-103553333D01*
X116983333Y-103620000D01*
X116983333Y-103986667D01*
X116716667Y-103286667D02*
X116283334Y-103286667D01*
X116516667Y-103553333D01*
X116416667Y-103553333D01*
X116350000Y-103586667D01*
X116316667Y-103620000D01*
X116283334Y-103686667D01*
X116283334Y-103853333D01*
X116316667Y-103920000D01*
X116350000Y-103953333D01*
X116416667Y-103986667D01*
X116616667Y-103986667D01*
X116683334Y-103953333D01*
X116716667Y-103920000D01*
X115683333Y-103986667D02*
X115683333Y-103286667D01*
X115683333Y-103953333D02*
X115750000Y-103986667D01*
X115883333Y-103986667D01*
X115950000Y-103953333D01*
X115983333Y-103920000D01*
X116016667Y-103853333D01*
X116016667Y-103653333D01*
X115983333Y-103586667D01*
X115950000Y-103553333D01*
X115883333Y-103520000D01*
X115750000Y-103520000D01*
X115683333Y-103553333D01*
X115250000Y-103986667D02*
X115316667Y-103953333D01*
X115350000Y-103886667D01*
X115350000Y-103286667D01*
X114450000Y-103720000D02*
X113916667Y-103720000D01*
X112816667Y-103620000D02*
X112716667Y-103653333D01*
X112683334Y-103686667D01*
X112650000Y-103753333D01*
X112650000Y-103853333D01*
X112683334Y-103920000D01*
X112716667Y-103953333D01*
X112783334Y-103986667D01*
X113050000Y-103986667D01*
X113050000Y-103286667D01*
X112816667Y-103286667D01*
X112750000Y-103320000D01*
X112716667Y-103353333D01*
X112683334Y-103420000D01*
X112683334Y-103486667D01*
X112716667Y-103553333D01*
X112750000Y-103586667D01*
X112816667Y-103620000D01*
X113050000Y-103620000D01*
X112050000Y-103986667D02*
X112050000Y-103620000D01*
X112083334Y-103553333D01*
X112150000Y-103520000D01*
X112283334Y-103520000D01*
X112350000Y-103553333D01*
X112050000Y-103953333D02*
X112116667Y-103986667D01*
X112283334Y-103986667D01*
X112350000Y-103953333D01*
X112383334Y-103886667D01*
X112383334Y-103820000D01*
X112350000Y-103753333D01*
X112283334Y-103720000D01*
X112116667Y-103720000D01*
X112050000Y-103686667D01*
X111750001Y-103953333D02*
X111683334Y-103986667D01*
X111550001Y-103986667D01*
X111483334Y-103953333D01*
X111450001Y-103886667D01*
X111450001Y-103853333D01*
X111483334Y-103786667D01*
X111550001Y-103753333D01*
X111650001Y-103753333D01*
X111716667Y-103720000D01*
X111750001Y-103653333D01*
X111750001Y-103620000D01*
X111716667Y-103553333D01*
X111650001Y-103520000D01*
X111550001Y-103520000D01*
X111483334Y-103553333D01*
X110883334Y-103953333D02*
X110950000Y-103986667D01*
X111083334Y-103986667D01*
X111150000Y-103953333D01*
X111183334Y-103886667D01*
X111183334Y-103620000D01*
X111150000Y-103553333D01*
X111083334Y-103520000D01*
X110950000Y-103520000D01*
X110883334Y-103553333D01*
X110850000Y-103620000D01*
X110850000Y-103686667D01*
X111183334Y-103753333D01*
X110016667Y-103986667D02*
X110016667Y-103520000D01*
X110016667Y-103653333D02*
X109983334Y-103586667D01*
X109950001Y-103553333D01*
X109883334Y-103520000D01*
X109816667Y-103520000D01*
X109216668Y-103986667D02*
X109616668Y-103986667D01*
X109416668Y-103986667D02*
X109416668Y-103286667D01*
X109483334Y-103386667D01*
X109550001Y-103453333D01*
X109616668Y-103486667D01*
X117583333Y-105066667D02*
X117583333Y-104366667D01*
X117350000Y-104866667D01*
X117116667Y-104366667D01*
X117116667Y-105066667D01*
X116483333Y-105066667D02*
X116483333Y-104700000D01*
X116516667Y-104633333D01*
X116583333Y-104600000D01*
X116716667Y-104600000D01*
X116783333Y-104633333D01*
X116483333Y-105033333D02*
X116550000Y-105066667D01*
X116716667Y-105066667D01*
X116783333Y-105033333D01*
X116816667Y-104966667D01*
X116816667Y-104900000D01*
X116783333Y-104833333D01*
X116716667Y-104800000D01*
X116550000Y-104800000D01*
X116483333Y-104766667D01*
X116250000Y-104600000D02*
X115983334Y-104600000D01*
X116150000Y-104366667D02*
X116150000Y-104966667D01*
X116116667Y-105033333D01*
X116050000Y-105066667D01*
X115983334Y-105066667D01*
X115850000Y-104600000D02*
X115583334Y-104600000D01*
X115750000Y-104366667D02*
X115750000Y-104966667D01*
X115716667Y-105033333D01*
X115650000Y-105066667D01*
X115583334Y-105066667D01*
X114416667Y-105000000D02*
X114450001Y-105033333D01*
X114550001Y-105066667D01*
X114616667Y-105066667D01*
X114716667Y-105033333D01*
X114783334Y-104966667D01*
X114816667Y-104900000D01*
X114850001Y-104766667D01*
X114850001Y-104666667D01*
X114816667Y-104533333D01*
X114783334Y-104466667D01*
X114716667Y-104400000D01*
X114616667Y-104366667D01*
X114550001Y-104366667D01*
X114450001Y-104400000D01*
X114416667Y-104433333D01*
X114016667Y-105066667D02*
X114083334Y-105033333D01*
X114116667Y-105000000D01*
X114150001Y-104933333D01*
X114150001Y-104733333D01*
X114116667Y-104666667D01*
X114083334Y-104633333D01*
X114016667Y-104600000D01*
X113916667Y-104600000D01*
X113850001Y-104633333D01*
X113816667Y-104666667D01*
X113783334Y-104733333D01*
X113783334Y-104933333D01*
X113816667Y-105000000D01*
X113850001Y-105033333D01*
X113916667Y-105066667D01*
X114016667Y-105066667D01*
X113183334Y-105066667D02*
X113183334Y-104700000D01*
X113216668Y-104633333D01*
X113283334Y-104600000D01*
X113416668Y-104600000D01*
X113483334Y-104633333D01*
X113183334Y-105033333D02*
X113250001Y-105066667D01*
X113416668Y-105066667D01*
X113483334Y-105033333D01*
X113516668Y-104966667D01*
X113516668Y-104900000D01*
X113483334Y-104833333D01*
X113416668Y-104800000D01*
X113250001Y-104800000D01*
X113183334Y-104766667D01*
X112950001Y-104600000D02*
X112683335Y-104600000D01*
X112850001Y-104366667D02*
X112850001Y-104966667D01*
X112816668Y-105033333D01*
X112750001Y-105066667D01*
X112683335Y-105066667D01*
X112183335Y-105033333D02*
X112250001Y-105066667D01*
X112383335Y-105066667D01*
X112450001Y-105033333D01*
X112483335Y-104966667D01*
X112483335Y-104700000D01*
X112450001Y-104633333D01*
X112383335Y-104600000D01*
X112250001Y-104600000D01*
X112183335Y-104633333D01*
X112150001Y-104700000D01*
X112150001Y-104766667D01*
X112483335Y-104833333D01*
X111883335Y-105033333D02*
X111816668Y-105066667D01*
X111683335Y-105066667D01*
X111616668Y-105033333D01*
X111583335Y-104966667D01*
X111583335Y-104933333D01*
X111616668Y-104866667D01*
X111683335Y-104833333D01*
X111783335Y-104833333D01*
X111850001Y-104800000D01*
X111883335Y-104733333D01*
X111883335Y-104700000D01*
X111850001Y-104633333D01*
X111783335Y-104600000D01*
X111683335Y-104600000D01*
X111616668Y-104633333D01*
X117216667Y-106146667D02*
X117616667Y-106146667D01*
X117416667Y-106146667D02*
X117416667Y-105446667D01*
X117483333Y-105546667D01*
X117550000Y-105613333D01*
X117616667Y-105646667D01*
X116550000Y-106146667D02*
X116950000Y-106146667D01*
X116750000Y-106146667D02*
X116750000Y-105446667D01*
X116816666Y-105546667D01*
X116883333Y-105613333D01*
X116950000Y-105646667D01*
X115749999Y-105413333D02*
X116349999Y-106313333D01*
X115383333Y-105446667D02*
X115316666Y-105446667D01*
X115250000Y-105480000D01*
X115216666Y-105513333D01*
X115183333Y-105580000D01*
X115150000Y-105713333D01*
X115150000Y-105880000D01*
X115183333Y-106013333D01*
X115216666Y-106080000D01*
X115250000Y-106113333D01*
X115316666Y-106146667D01*
X115383333Y-106146667D01*
X115450000Y-106113333D01*
X115483333Y-106080000D01*
X115516666Y-106013333D01*
X115550000Y-105880000D01*
X115550000Y-105713333D01*
X115516666Y-105580000D01*
X115483333Y-105513333D01*
X115450000Y-105480000D01*
X115383333Y-105446667D01*
X114916666Y-105446667D02*
X114483333Y-105446667D01*
X114716666Y-105713333D01*
X114616666Y-105713333D01*
X114549999Y-105746667D01*
X114516666Y-105780000D01*
X114483333Y-105846667D01*
X114483333Y-106013333D01*
X114516666Y-106080000D01*
X114549999Y-106113333D01*
X114616666Y-106146667D01*
X114816666Y-106146667D01*
X114883333Y-106113333D01*
X114916666Y-106080000D01*
X113683332Y-105413333D02*
X114283332Y-106313333D01*
X113083333Y-106146667D02*
X113483333Y-106146667D01*
X113283333Y-106146667D02*
X113283333Y-105446667D01*
X113349999Y-105546667D01*
X113416666Y-105613333D01*
X113483333Y-105646667D01*
X112483332Y-105446667D02*
X112616666Y-105446667D01*
X112683332Y-105480000D01*
X112716666Y-105513333D01*
X112783332Y-105613333D01*
X112816666Y-105746667D01*
X112816666Y-106013333D01*
X112783332Y-106080000D01*
X112749999Y-106113333D01*
X112683332Y-106146667D01*
X112549999Y-106146667D01*
X112483332Y-106113333D01*
X112449999Y-106080000D01*
X112416666Y-106013333D01*
X112416666Y-105846667D01*
X112449999Y-105780000D01*
X112483332Y-105746667D01*
X112549999Y-105713333D01*
X112683332Y-105713333D01*
X112749999Y-105746667D01*
X112783332Y-105780000D01*
X112816666Y-105846667D01*
D12*
X110489285Y-96551190D02*
X110303571Y-96613095D01*
X109994047Y-96613095D01*
X109870237Y-96551190D01*
X109808333Y-96489286D01*
X109746428Y-96365476D01*
X109746428Y-96241667D01*
X109808333Y-96117857D01*
X109870237Y-96055952D01*
X109994047Y-95994048D01*
X110241666Y-95932143D01*
X110365475Y-95870238D01*
X110427380Y-95808333D01*
X110489285Y-95684524D01*
X110489285Y-95560714D01*
X110427380Y-95436905D01*
X110365475Y-95375000D01*
X110241666Y-95313095D01*
X109932142Y-95313095D01*
X109746428Y-95375000D01*
X109313095Y-95313095D02*
X109003571Y-96613095D01*
X108755952Y-95684524D01*
X108508333Y-96613095D01*
X108198809Y-95313095D01*
X107703571Y-96613095D02*
X107703571Y-95313095D01*
X107394047Y-95313095D01*
X107208333Y-95375000D01*
X107084524Y-95498810D01*
X107022619Y-95622619D01*
X106960714Y-95870238D01*
X106960714Y-96055952D01*
X107022619Y-96303571D01*
X107084524Y-96427381D01*
X107208333Y-96551190D01*
X107394047Y-96613095D01*
X107703571Y-96613095D01*
D11*
X107100000Y-100500000D02*
X92900000Y-100500000D01*
X106600000Y-106600000D02*
X107100000Y-105500000D01*
X93400000Y-106600000D02*
X106600000Y-106600000D01*
X92900000Y-105500000D02*
X93400000Y-106600000D01*
X107100000Y-105500000D02*
X92900000Y-105500000D01*
X107100000Y-100500000D02*
X107100000Y-105500000D01*
X92900000Y-105500000D02*
X92900000Y-100500000D01*
D12*
X113597619Y-108088095D02*
X113597619Y-106788095D01*
X113102381Y-106788095D01*
X112978572Y-106850000D01*
X112916667Y-106911905D01*
X112854762Y-107035714D01*
X112854762Y-107221429D01*
X112916667Y-107345238D01*
X112978572Y-107407143D01*
X113102381Y-107469048D01*
X113597619Y-107469048D01*
X112050000Y-107469048D02*
X112050000Y-108088095D01*
X112483333Y-106788095D02*
X112050000Y-107469048D01*
X111616667Y-106788095D01*
X110440476Y-108088095D02*
X110873809Y-107469048D01*
X111183333Y-108088095D02*
X111183333Y-106788095D01*
X110688095Y-106788095D01*
X110564286Y-106850000D01*
X110502381Y-106911905D01*
X110440476Y-107035714D01*
X110440476Y-107221429D01*
X110502381Y-107345238D01*
X110564286Y-107407143D01*
X110688095Y-107469048D01*
X111183333Y-107469048D01*
X109635714Y-106788095D02*
X109388095Y-106788095D01*
X109264286Y-106850000D01*
X109140476Y-106973810D01*
X109078571Y-107221429D01*
X109078571Y-107654762D01*
X109140476Y-107902381D01*
X109264286Y-108026190D01*
X109388095Y-108088095D01*
X109635714Y-108088095D01*
X109759524Y-108026190D01*
X109883333Y-107902381D01*
X109945238Y-107654762D01*
X109945238Y-107221429D01*
X109883333Y-106973810D01*
X109759524Y-106850000D01*
X109635714Y-106788095D01*
X107964285Y-107221429D02*
X107964285Y-108088095D01*
X108273809Y-106726190D02*
X108583333Y-107654762D01*
X107778571Y-107654762D01*
X106447619Y-104838095D02*
X106447619Y-103538095D01*
X105952381Y-103538095D01*
X105828572Y-103600000D01*
X105766667Y-103661905D01*
X105704762Y-103785714D01*
X105704762Y-103971429D01*
X105766667Y-104095238D01*
X105828572Y-104157143D01*
X105952381Y-104219048D01*
X106447619Y-104219048D01*
X104900000Y-104219048D02*
X104900000Y-104838095D01*
X105333333Y-103538095D02*
X104900000Y-104219048D01*
X104466667Y-103538095D01*
X103290476Y-104838095D02*
X103723809Y-104219048D01*
X104033333Y-104838095D02*
X104033333Y-103538095D01*
X103538095Y-103538095D01*
X103414286Y-103600000D01*
X103352381Y-103661905D01*
X103290476Y-103785714D01*
X103290476Y-103971429D01*
X103352381Y-104095238D01*
X103414286Y-104157143D01*
X103538095Y-104219048D01*
X104033333Y-104219048D01*
X102485714Y-103538095D02*
X102238095Y-103538095D01*
X102114286Y-103600000D01*
X101990476Y-103723810D01*
X101928571Y-103971429D01*
X101928571Y-104404762D01*
X101990476Y-104652381D01*
X102114286Y-104776190D01*
X102238095Y-104838095D01*
X102485714Y-104838095D01*
X102609524Y-104776190D01*
X102733333Y-104652381D01*
X102795238Y-104404762D01*
X102795238Y-103971429D01*
X102733333Y-103723810D01*
X102609524Y-103600000D01*
X102485714Y-103538095D01*
X101495238Y-103538095D02*
X100690476Y-103538095D01*
X101123809Y-104033333D01*
X100938095Y-104033333D01*
X100814285Y-104095238D01*
X100752381Y-104157143D01*
X100690476Y-104280952D01*
X100690476Y-104590476D01*
X100752381Y-104714286D01*
X100814285Y-104776190D01*
X100938095Y-104838095D01*
X101309523Y-104838095D01*
X101433333Y-104776190D01*
X101495238Y-104714286D01*
X105735714Y-101288095D02*
X106354761Y-101288095D01*
X106416666Y-101907143D01*
X106354761Y-101845238D01*
X106230952Y-101783333D01*
X105921428Y-101783333D01*
X105797618Y-101845238D01*
X105735714Y-101907143D01*
X105673809Y-102030952D01*
X105673809Y-102340476D01*
X105735714Y-102464286D01*
X105797618Y-102526190D01*
X105921428Y-102588095D01*
X106230952Y-102588095D01*
X106354761Y-102526190D01*
X106416666Y-102464286D01*
X105240476Y-101721429D02*
X104930952Y-102588095D01*
X104621428Y-101721429D01*
X103383333Y-102464286D02*
X103445238Y-102526190D01*
X103630952Y-102588095D01*
X103754762Y-102588095D01*
X103940476Y-102526190D01*
X104064285Y-102402381D01*
X104126190Y-102278571D01*
X104188095Y-102030952D01*
X104188095Y-101845238D01*
X104126190Y-101597619D01*
X104064285Y-101473810D01*
X103940476Y-101350000D01*
X103754762Y-101288095D01*
X103630952Y-101288095D01*
X103445238Y-101350000D01*
X103383333Y-101411905D01*
X102888095Y-102216667D02*
X102269047Y-102216667D01*
X103011904Y-102588095D02*
X102578571Y-101288095D01*
X102145238Y-102588095D01*
X101711904Y-102588095D02*
X101711904Y-101288095D01*
X101278571Y-102216667D01*
X100845238Y-101288095D01*
X100845238Y-102588095D01*
X98628571Y-102464286D02*
X98690476Y-102526190D01*
X98876190Y-102588095D01*
X99000000Y-102588095D01*
X99185714Y-102526190D01*
X99309523Y-102402381D01*
X99371428Y-102278571D01*
X99433333Y-102030952D01*
X99433333Y-101845238D01*
X99371428Y-101597619D01*
X99309523Y-101473810D01*
X99185714Y-101350000D01*
X99000000Y-101288095D01*
X98876190Y-101288095D01*
X98690476Y-101350000D01*
X98628571Y-101411905D01*
X98071428Y-102588095D02*
X98071428Y-101288095D01*
X98071428Y-101907143D02*
X97328571Y-101907143D01*
X97328571Y-102588095D02*
X97328571Y-101288095D01*
X96028571Y-101350000D02*
X96152380Y-101288095D01*
X96338095Y-101288095D01*
X96523809Y-101350000D01*
X96647618Y-101473810D01*
X96709523Y-101597619D01*
X96771428Y-101845238D01*
X96771428Y-102030952D01*
X96709523Y-102278571D01*
X96647618Y-102402381D01*
X96523809Y-102526190D01*
X96338095Y-102588095D01*
X96214285Y-102588095D01*
X96028571Y-102526190D01*
X95966666Y-102464286D01*
X95966666Y-102030952D01*
X96214285Y-102030952D01*
X99347619Y-104838095D02*
X99347619Y-103538095D01*
X98852381Y-103538095D01*
X98728572Y-103600000D01*
X98666667Y-103661905D01*
X98604762Y-103785714D01*
X98604762Y-103971429D01*
X98666667Y-104095238D01*
X98728572Y-104157143D01*
X98852381Y-104219048D01*
X99347619Y-104219048D01*
X97800000Y-104219048D02*
X97800000Y-104838095D01*
X98233333Y-103538095D02*
X97800000Y-104219048D01*
X97366667Y-103538095D01*
X96190476Y-104838095D02*
X96623809Y-104219048D01*
X96933333Y-104838095D02*
X96933333Y-103538095D01*
X96438095Y-103538095D01*
X96314286Y-103600000D01*
X96252381Y-103661905D01*
X96190476Y-103785714D01*
X96190476Y-103971429D01*
X96252381Y-104095238D01*
X96314286Y-104157143D01*
X96438095Y-104219048D01*
X96933333Y-104219048D01*
X95385714Y-103538095D02*
X95138095Y-103538095D01*
X95014286Y-103600000D01*
X94890476Y-103723810D01*
X94828571Y-103971429D01*
X94828571Y-104404762D01*
X94890476Y-104652381D01*
X95014286Y-104776190D01*
X95138095Y-104838095D01*
X95385714Y-104838095D01*
X95509524Y-104776190D01*
X95633333Y-104652381D01*
X95695238Y-104404762D01*
X95695238Y-103971429D01*
X95633333Y-103723810D01*
X95509524Y-103600000D01*
X95385714Y-103538095D01*
X94333333Y-103661905D02*
X94271428Y-103600000D01*
X94147619Y-103538095D01*
X93838095Y-103538095D01*
X93714285Y-103600000D01*
X93652381Y-103661905D01*
X93590476Y-103785714D01*
X93590476Y-103909524D01*
X93652381Y-104095238D01*
X94395238Y-104838095D01*
X93590476Y-104838095D01*
X92347619Y-108088095D02*
X92347619Y-106788095D01*
X91852381Y-106788095D01*
X91728572Y-106850000D01*
X91666667Y-106911905D01*
X91604762Y-107035714D01*
X91604762Y-107221429D01*
X91666667Y-107345238D01*
X91728572Y-107407143D01*
X91852381Y-107469048D01*
X92347619Y-107469048D01*
X90800000Y-107469048D02*
X90800000Y-108088095D01*
X91233333Y-106788095D02*
X90800000Y-107469048D01*
X90366667Y-106788095D01*
X89190476Y-108088095D02*
X89623809Y-107469048D01*
X89933333Y-108088095D02*
X89933333Y-106788095D01*
X89438095Y-106788095D01*
X89314286Y-106850000D01*
X89252381Y-106911905D01*
X89190476Y-107035714D01*
X89190476Y-107221429D01*
X89252381Y-107345238D01*
X89314286Y-107407143D01*
X89438095Y-107469048D01*
X89933333Y-107469048D01*
X88385714Y-106788095D02*
X88138095Y-106788095D01*
X88014286Y-106850000D01*
X87890476Y-106973810D01*
X87828571Y-107221429D01*
X87828571Y-107654762D01*
X87890476Y-107902381D01*
X88014286Y-108026190D01*
X88138095Y-108088095D01*
X88385714Y-108088095D01*
X88509524Y-108026190D01*
X88633333Y-107902381D01*
X88695238Y-107654762D01*
X88695238Y-107221429D01*
X88633333Y-106973810D01*
X88509524Y-106850000D01*
X88385714Y-106788095D01*
X86590476Y-108088095D02*
X87333333Y-108088095D01*
X86961904Y-108088095D02*
X86961904Y-106788095D01*
X87085714Y-106973810D01*
X87209523Y-107097619D01*
X87333333Y-107159524D01*
X111952381Y-94216667D02*
X111333333Y-94216667D01*
X112076190Y-94588095D02*
X111642857Y-93288095D01*
X111209524Y-94588095D01*
X110033333Y-94588095D02*
X110466666Y-93969048D01*
X110776190Y-94588095D02*
X110776190Y-93288095D01*
X110280952Y-93288095D01*
X110157143Y-93350000D01*
X110095238Y-93411905D01*
X110033333Y-93535714D01*
X110033333Y-93721429D01*
X110095238Y-93845238D01*
X110157143Y-93907143D01*
X110280952Y-93969048D01*
X110776190Y-93969048D01*
X109476190Y-94588095D02*
X109476190Y-93288095D01*
X109042857Y-94216667D01*
X108609524Y-93288095D01*
X108609524Y-94588095D01*
X104733333Y-94588095D02*
X104733333Y-93288095D01*
X104238095Y-93288095D01*
X104114286Y-93350000D01*
X104052381Y-93411905D01*
X103990476Y-93535714D01*
X103990476Y-93721429D01*
X104052381Y-93845238D01*
X104114286Y-93907143D01*
X104238095Y-93969048D01*
X104733333Y-93969048D01*
X103557143Y-93288095D02*
X103247619Y-94588095D01*
X103000000Y-93659524D01*
X102752381Y-94588095D01*
X102442857Y-93288095D01*
X101204762Y-94588095D02*
X101638095Y-93969048D01*
X101947619Y-94588095D02*
X101947619Y-93288095D01*
X101452381Y-93288095D01*
X101328572Y-93350000D01*
X101266667Y-93411905D01*
X101204762Y-93535714D01*
X101204762Y-93721429D01*
X101266667Y-93845238D01*
X101328572Y-93907143D01*
X101452381Y-93969048D01*
X101947619Y-93969048D01*
X97140476Y-93288095D02*
X97140476Y-94340476D01*
X97078571Y-94464286D01*
X97016667Y-94526190D01*
X96892857Y-94588095D01*
X96645238Y-94588095D01*
X96521429Y-94526190D01*
X96459524Y-94464286D01*
X96397619Y-94340476D01*
X96397619Y-93288095D01*
X95840476Y-94526190D02*
X95654762Y-94588095D01*
X95345238Y-94588095D01*
X95221428Y-94526190D01*
X95159524Y-94464286D01*
X95097619Y-94340476D01*
X95097619Y-94216667D01*
X95159524Y-94092857D01*
X95221428Y-94030952D01*
X95345238Y-93969048D01*
X95592857Y-93907143D01*
X95716666Y-93845238D01*
X95778571Y-93783333D01*
X95840476Y-93659524D01*
X95840476Y-93535714D01*
X95778571Y-93411905D01*
X95716666Y-93350000D01*
X95592857Y-93288095D01*
X95283333Y-93288095D01*
X95097619Y-93350000D01*
X94107143Y-93907143D02*
X93921429Y-93969048D01*
X93859524Y-94030952D01*
X93797619Y-94154762D01*
X93797619Y-94340476D01*
X93859524Y-94464286D01*
X93921429Y-94526190D01*
X94045238Y-94588095D01*
X94540476Y-94588095D01*
X94540476Y-93288095D01*
X94107143Y-93288095D01*
X93983333Y-93350000D01*
X93921429Y-93411905D01*
X93859524Y-93535714D01*
X93859524Y-93659524D01*
X93921429Y-93783333D01*
X93983333Y-93845238D01*
X94107143Y-93907143D01*
X94540476Y-93907143D01*
D13*
X83060715Y-103564286D02*
X83089286Y-103592857D01*
X83175000Y-103621429D01*
X83232143Y-103621429D01*
X83317858Y-103592857D01*
X83375000Y-103535714D01*
X83403572Y-103478571D01*
X83432143Y-103364286D01*
X83432143Y-103278571D01*
X83403572Y-103164286D01*
X83375000Y-103107143D01*
X83317858Y-103050000D01*
X83232143Y-103021429D01*
X83175000Y-103021429D01*
X83089286Y-103050000D01*
X83060715Y-103078571D01*
X82489286Y-103621429D02*
X82832143Y-103621429D01*
X82660715Y-103621429D02*
X82660715Y-103021429D01*
X82717858Y-103107143D01*
X82775000Y-103164286D01*
X82832143Y-103192857D01*
X81946429Y-103021429D02*
X82232143Y-103021429D01*
X82260714Y-103307143D01*
X82232143Y-103278571D01*
X82175000Y-103250000D01*
X82032143Y-103250000D01*
X81975000Y-103278571D01*
X81946429Y-103307143D01*
X81917857Y-103364286D01*
X81917857Y-103507143D01*
X81946429Y-103564286D01*
X81975000Y-103592857D01*
X82032143Y-103621429D01*
X82175000Y-103621429D01*
X82232143Y-103592857D01*
X82260714Y-103564286D01*
X86960715Y-104289286D02*
X86989286Y-104317857D01*
X87075000Y-104346429D01*
X87132143Y-104346429D01*
X87217858Y-104317857D01*
X87275000Y-104260714D01*
X87303572Y-104203571D01*
X87332143Y-104089286D01*
X87332143Y-104003571D01*
X87303572Y-103889286D01*
X87275000Y-103832143D01*
X87217858Y-103775000D01*
X87132143Y-103746429D01*
X87075000Y-103746429D01*
X86989286Y-103775000D01*
X86960715Y-103803571D01*
X86389286Y-104346429D02*
X86732143Y-104346429D01*
X86560715Y-104346429D02*
X86560715Y-103746429D01*
X86617858Y-103832143D01*
X86675000Y-103889286D01*
X86732143Y-103917857D01*
X85875000Y-103746429D02*
X85989286Y-103746429D01*
X86046429Y-103775000D01*
X86075000Y-103803571D01*
X86132143Y-103889286D01*
X86160714Y-104003571D01*
X86160714Y-104232143D01*
X86132143Y-104289286D01*
X86103571Y-104317857D01*
X86046429Y-104346429D01*
X85932143Y-104346429D01*
X85875000Y-104317857D01*
X85846429Y-104289286D01*
X85817857Y-104232143D01*
X85817857Y-104089286D01*
X85846429Y-104032143D01*
X85875000Y-104003571D01*
X85932143Y-103975000D01*
X86046429Y-103975000D01*
X86103571Y-104003571D01*
X86132143Y-104032143D01*
X86160714Y-104089286D01*
X99722234Y-99580812D02*
X99762639Y-99580812D01*
X99843452Y-99540407D01*
X99883858Y-99500001D01*
X99924264Y-99419188D01*
X99924263Y-99338376D01*
X99904061Y-99277766D01*
X99843452Y-99176752D01*
X99782842Y-99116142D01*
X99681828Y-99055533D01*
X99621218Y-99035330D01*
X99540406Y-99035330D01*
X99459594Y-99075737D01*
X99419188Y-99116143D01*
X99378781Y-99196955D01*
X99378781Y-99237360D01*
X99358579Y-100025280D02*
X99601015Y-99782843D01*
X99479797Y-99904061D02*
X99055533Y-99479797D01*
X99156548Y-99500000D01*
X99237360Y-99500001D01*
X99297969Y-99479797D01*
X92400000Y-95371429D02*
X92600000Y-95085714D01*
X92742857Y-95371429D02*
X92742857Y-94771429D01*
X92514285Y-94771429D01*
X92457143Y-94800000D01*
X92428571Y-94828571D01*
X92400000Y-94885714D01*
X92400000Y-94971429D01*
X92428571Y-95028571D01*
X92457143Y-95057143D01*
X92514285Y-95085714D01*
X92742857Y-95085714D01*
X91885714Y-94971429D02*
X91885714Y-95371429D01*
X92028571Y-94742857D02*
X92171428Y-95171429D01*
X91800000Y-95171429D01*
D14*
X97000000Y-87250000D02*
X87000000Y-87250000D01*
X87000000Y-87250000D02*
X87000000Y-92550000D01*
X87000000Y-92550000D02*
X97000000Y-92550000D01*
X97000000Y-92550000D02*
X97000000Y-87250000D01*
X86400000Y-114050000D02*
X92400000Y-114050000D01*
X92400000Y-114050000D02*
X92400000Y-108750000D01*
X92400000Y-108750000D02*
X86400000Y-108750000D01*
X86400000Y-108750000D02*
X86400000Y-114050000D01*
X100600000Y-118250000D02*
X106600000Y-118250000D01*
X106600000Y-118250000D02*
X106600000Y-112950000D01*
X106600000Y-112950000D02*
X100600000Y-112950000D01*
X100600000Y-112950000D02*
X100600000Y-118250000D01*
X112200000Y-87250000D02*
X106200000Y-87250000D01*
X106200000Y-87250000D02*
X106200000Y-92550000D01*
X106200000Y-92550000D02*
X112200000Y-92550000D01*
X112200000Y-92550000D02*
X112200000Y-87250000D01*
X93400000Y-118250000D02*
X99400000Y-118250000D01*
X99400000Y-118250000D02*
X99400000Y-112950000D01*
X99400000Y-112950000D02*
X93400000Y-112950000D01*
X93400000Y-112950000D02*
X93400000Y-118250000D01*
X107600000Y-114050000D02*
X113600000Y-114050000D01*
X113600000Y-114050000D02*
X113600000Y-108750000D01*
X113600000Y-108750000D02*
X107600000Y-108750000D01*
X107600000Y-108750000D02*
X107600000Y-114050000D01*
X104600000Y-87250000D02*
X98600000Y-87250000D01*
X98600000Y-87250000D02*
X98600000Y-92550000D01*
X98600000Y-92550000D02*
X104600000Y-92550000D01*
X104600000Y-92550000D02*
X104600000Y-87250000D01*
X93400000Y-111850000D02*
X99400000Y-111850000D01*
X99400000Y-111850000D02*
X99400000Y-106550000D01*
X99400000Y-106550000D02*
X93400000Y-106550000D01*
X93400000Y-106550000D02*
X93400000Y-111850000D01*
X100600000Y-111850000D02*
X106600000Y-111850000D01*
X106600000Y-111850000D02*
X106600000Y-106550000D01*
X106600000Y-106550000D02*
X100600000Y-106550000D01*
X100600000Y-106550000D02*
X100600000Y-111850000D01*
X82375000Y-102525000D02*
X82625000Y-102525000D01*
X82625000Y-102525000D02*
X82625000Y-101875000D01*
X82625000Y-101875000D02*
X82375000Y-101875000D01*
X82375000Y-101875000D02*
X82375000Y-102525000D01*
X98028249Y-98712132D02*
X97851472Y-98888909D01*
X97851472Y-98888909D02*
X98311091Y-99348528D01*
X98311091Y-99348528D02*
X98487868Y-99171751D01*
X98487868Y-99171751D02*
X98028249Y-98712132D01*
X86525000Y-102575000D02*
X86275000Y-102575000D01*
X86275000Y-102575000D02*
X86275000Y-103225000D01*
X86275000Y-103225000D02*
X86525000Y-103225000D01*
X86525000Y-103225000D02*
X86525000Y-102575000D01*
X91675000Y-94225000D02*
X91925000Y-94225000D01*
X91925000Y-94225000D02*
X91925000Y-93575000D01*
X91925000Y-93575000D02*
X91675000Y-93575000D01*
X91675000Y-93575000D02*
X91675000Y-94225000D01*
D15*
G36*
X91527031Y-104241705D02*
X91492847Y-104262074D01*
X91442055Y-104294287D01*
X91376712Y-104336923D01*
X91298876Y-104388562D01*
X91210606Y-104447784D01*
X91113961Y-104513167D01*
X91010997Y-104583292D01*
X90903774Y-104656739D01*
X90794350Y-104732086D01*
X90684782Y-104807914D01*
X90577130Y-104882802D01*
X90473451Y-104955329D01*
X90375803Y-105024077D01*
X90286245Y-105087623D01*
X90206834Y-105144548D01*
X90139630Y-105193431D01*
X90086690Y-105232852D01*
X90050072Y-105261391D01*
X90033025Y-105276333D01*
X90002032Y-105313505D01*
X89987822Y-105346069D01*
X89985400Y-105370758D01*
X89987552Y-105395237D01*
X89995332Y-105410526D01*
X90010724Y-105415802D01*
X90035715Y-105410246D01*
X90072289Y-105393036D01*
X90122433Y-105363350D01*
X90188131Y-105320369D01*
X90271370Y-105263270D01*
X90309250Y-105236833D01*
X90377023Y-105189460D01*
X90461702Y-105130392D01*
X90559315Y-105062396D01*
X90665885Y-104988237D01*
X90777438Y-104910681D01*
X90889999Y-104832494D01*
X90999594Y-104756441D01*
X91023615Y-104739782D01*
X91121495Y-104671692D01*
X91214297Y-104606710D01*
X91299630Y-104546540D01*
X91375103Y-104492889D01*
X91438323Y-104447462D01*
X91486899Y-104411963D01*
X91518441Y-104388097D01*
X91528440Y-104379848D01*
X91557321Y-104349095D01*
X91570248Y-104319941D01*
X91572900Y-104286862D01*
X91571214Y-104253474D01*
X91563441Y-104238398D01*
X91545511Y-104234625D01*
X91542548Y-104234600D01*
X91527031Y-104241705D01*
X91527031Y-104241705D01*
G37*
X91527031Y-104241705D02*
X91492847Y-104262074D01*
X91442055Y-104294287D01*
X91376712Y-104336923D01*
X91298876Y-104388562D01*
X91210606Y-104447784D01*
X91113961Y-104513167D01*
X91010997Y-104583292D01*
X90903774Y-104656739D01*
X90794350Y-104732086D01*
X90684782Y-104807914D01*
X90577130Y-104882802D01*
X90473451Y-104955329D01*
X90375803Y-105024077D01*
X90286245Y-105087623D01*
X90206834Y-105144548D01*
X90139630Y-105193431D01*
X90086690Y-105232852D01*
X90050072Y-105261391D01*
X90033025Y-105276333D01*
X90002032Y-105313505D01*
X89987822Y-105346069D01*
X89985400Y-105370758D01*
X89987552Y-105395237D01*
X89995332Y-105410526D01*
X90010724Y-105415802D01*
X90035715Y-105410246D01*
X90072289Y-105393036D01*
X90122433Y-105363350D01*
X90188131Y-105320369D01*
X90271370Y-105263270D01*
X90309250Y-105236833D01*
X90377023Y-105189460D01*
X90461702Y-105130392D01*
X90559315Y-105062396D01*
X90665885Y-104988237D01*
X90777438Y-104910681D01*
X90889999Y-104832494D01*
X90999594Y-104756441D01*
X91023615Y-104739782D01*
X91121495Y-104671692D01*
X91214297Y-104606710D01*
X91299630Y-104546540D01*
X91375103Y-104492889D01*
X91438323Y-104447462D01*
X91486899Y-104411963D01*
X91518441Y-104388097D01*
X91528440Y-104379848D01*
X91557321Y-104349095D01*
X91570248Y-104319941D01*
X91572900Y-104286862D01*
X91571214Y-104253474D01*
X91563441Y-104238398D01*
X91545511Y-104234625D01*
X91542548Y-104234600D01*
X91527031Y-104241705D01*
G36*
X91533904Y-103746445D02*
X91499992Y-103766940D01*
X91449472Y-103799369D01*
X91384373Y-103842317D01*
X91306727Y-103894369D01*
X91218563Y-103954112D01*
X91121911Y-104020130D01*
X91018802Y-104091009D01*
X90911266Y-104165333D01*
X90801333Y-104241689D01*
X90691033Y-104318661D01*
X90582397Y-104394835D01*
X90477455Y-104468796D01*
X90378236Y-104539130D01*
X90286772Y-104604422D01*
X90205092Y-104663256D01*
X90135226Y-104714219D01*
X90079206Y-104755896D01*
X90039060Y-104786872D01*
X90016820Y-104805732D01*
X90013534Y-104809359D01*
X89994308Y-104848320D01*
X89986557Y-104889433D01*
X89990060Y-104925672D01*
X90004597Y-104950008D01*
X90018141Y-104955922D01*
X90037474Y-104949603D01*
X90076717Y-104928134D01*
X90135549Y-104891718D01*
X90213646Y-104840559D01*
X90310687Y-104774861D01*
X90380091Y-104727009D01*
X90562389Y-104600572D01*
X90724898Y-104487798D01*
X90868725Y-104387909D01*
X90994978Y-104300128D01*
X91104763Y-104223677D01*
X91199189Y-104157781D01*
X91279363Y-104101661D01*
X91346391Y-104054540D01*
X91401382Y-104015642D01*
X91445442Y-103984188D01*
X91479679Y-103959403D01*
X91505201Y-103940509D01*
X91523114Y-103926728D01*
X91534526Y-103917283D01*
X91536848Y-103915179D01*
X91558255Y-103891595D01*
X91569069Y-103866240D01*
X91572697Y-103829209D01*
X91572900Y-103810404D01*
X91571732Y-103769375D01*
X91566924Y-103747842D01*
X91556526Y-103739955D01*
X91549177Y-103739300D01*
X91533904Y-103746445D01*
X91533904Y-103746445D01*
G37*
X91533904Y-103746445D02*
X91499992Y-103766940D01*
X91449472Y-103799369D01*
X91384373Y-103842317D01*
X91306727Y-103894369D01*
X91218563Y-103954112D01*
X91121911Y-104020130D01*
X91018802Y-104091009D01*
X90911266Y-104165333D01*
X90801333Y-104241689D01*
X90691033Y-104318661D01*
X90582397Y-104394835D01*
X90477455Y-104468796D01*
X90378236Y-104539130D01*
X90286772Y-104604422D01*
X90205092Y-104663256D01*
X90135226Y-104714219D01*
X90079206Y-104755896D01*
X90039060Y-104786872D01*
X90016820Y-104805732D01*
X90013534Y-104809359D01*
X89994308Y-104848320D01*
X89986557Y-104889433D01*
X89990060Y-104925672D01*
X90004597Y-104950008D01*
X90018141Y-104955922D01*
X90037474Y-104949603D01*
X90076717Y-104928134D01*
X90135549Y-104891718D01*
X90213646Y-104840559D01*
X90310687Y-104774861D01*
X90380091Y-104727009D01*
X90562389Y-104600572D01*
X90724898Y-104487798D01*
X90868725Y-104387909D01*
X90994978Y-104300128D01*
X91104763Y-104223677D01*
X91199189Y-104157781D01*
X91279363Y-104101661D01*
X91346391Y-104054540D01*
X91401382Y-104015642D01*
X91445442Y-103984188D01*
X91479679Y-103959403D01*
X91505201Y-103940509D01*
X91523114Y-103926728D01*
X91534526Y-103917283D01*
X91536848Y-103915179D01*
X91558255Y-103891595D01*
X91569069Y-103866240D01*
X91572697Y-103829209D01*
X91572900Y-103810404D01*
X91571732Y-103769375D01*
X91566924Y-103747842D01*
X91556526Y-103739955D01*
X91549177Y-103739300D01*
X91533904Y-103746445D01*
G36*
X91500497Y-103212530D02*
X91473454Y-103227089D01*
X91457416Y-103238377D01*
X91422324Y-103262879D01*
X91369994Y-103299334D01*
X91302240Y-103346478D01*
X91220879Y-103403050D01*
X91127727Y-103467788D01*
X91024599Y-103539427D01*
X90913312Y-103616708D01*
X90795681Y-103698365D01*
X90738297Y-103738191D01*
X90599173Y-103834809D01*
X90479454Y-103918152D01*
X90377624Y-103989348D01*
X90292168Y-104049524D01*
X90221568Y-104099809D01*
X90164310Y-104141331D01*
X90118876Y-104175218D01*
X90083751Y-104202598D01*
X90057419Y-104224598D01*
X90038363Y-104242347D01*
X90025067Y-104256973D01*
X90016016Y-104269604D01*
X90010493Y-104279686D01*
X89989406Y-104346958D01*
X89987846Y-104395692D01*
X89991697Y-104432982D01*
X89999591Y-104451867D01*
X90015386Y-104459343D01*
X90023645Y-104460576D01*
X90035022Y-104457989D01*
X90055925Y-104448072D01*
X90087535Y-104430044D01*
X90131033Y-104403125D01*
X90187602Y-104366534D01*
X90258424Y-104319490D01*
X90344681Y-104261213D01*
X90447555Y-104190923D01*
X90568228Y-104107839D01*
X90707882Y-104011181D01*
X90778604Y-103962096D01*
X90900573Y-103877249D01*
X91017096Y-103795933D01*
X91126380Y-103719415D01*
X91226632Y-103648962D01*
X91316059Y-103585842D01*
X91392868Y-103531323D01*
X91455267Y-103486671D01*
X91501463Y-103453155D01*
X91529662Y-103432041D01*
X91537285Y-103425769D01*
X91556568Y-103404716D01*
X91567302Y-103382750D01*
X91571932Y-103351612D01*
X91572900Y-103305365D01*
X91572287Y-103259486D01*
X91569018Y-103232818D01*
X91560949Y-103219181D01*
X91545936Y-103212391D01*
X91540129Y-103210858D01*
X91500497Y-103212530D01*
X91500497Y-103212530D01*
G37*
X91500497Y-103212530D02*
X91473454Y-103227089D01*
X91457416Y-103238377D01*
X91422324Y-103262879D01*
X91369994Y-103299334D01*
X91302240Y-103346478D01*
X91220879Y-103403050D01*
X91127727Y-103467788D01*
X91024599Y-103539427D01*
X90913312Y-103616708D01*
X90795681Y-103698365D01*
X90738297Y-103738191D01*
X90599173Y-103834809D01*
X90479454Y-103918152D01*
X90377624Y-103989348D01*
X90292168Y-104049524D01*
X90221568Y-104099809D01*
X90164310Y-104141331D01*
X90118876Y-104175218D01*
X90083751Y-104202598D01*
X90057419Y-104224598D01*
X90038363Y-104242347D01*
X90025067Y-104256973D01*
X90016016Y-104269604D01*
X90010493Y-104279686D01*
X89989406Y-104346958D01*
X89987846Y-104395692D01*
X89991697Y-104432982D01*
X89999591Y-104451867D01*
X90015386Y-104459343D01*
X90023645Y-104460576D01*
X90035022Y-104457989D01*
X90055925Y-104448072D01*
X90087535Y-104430044D01*
X90131033Y-104403125D01*
X90187602Y-104366534D01*
X90258424Y-104319490D01*
X90344681Y-104261213D01*
X90447555Y-104190923D01*
X90568228Y-104107839D01*
X90707882Y-104011181D01*
X90778604Y-103962096D01*
X90900573Y-103877249D01*
X91017096Y-103795933D01*
X91126380Y-103719415D01*
X91226632Y-103648962D01*
X91316059Y-103585842D01*
X91392868Y-103531323D01*
X91455267Y-103486671D01*
X91501463Y-103453155D01*
X91529662Y-103432041D01*
X91537285Y-103425769D01*
X91556568Y-103404716D01*
X91567302Y-103382750D01*
X91571932Y-103351612D01*
X91572900Y-103305365D01*
X91572287Y-103259486D01*
X91569018Y-103232818D01*
X91560949Y-103219181D01*
X91545936Y-103212391D01*
X91540129Y-103210858D01*
X91500497Y-103212530D01*
G36*
X91501293Y-102620190D02*
X91485709Y-102629740D01*
X91451065Y-102652605D01*
X91399134Y-102687568D01*
X91331689Y-102733417D01*
X91250504Y-102788935D01*
X91157354Y-102852909D01*
X91054010Y-102924123D01*
X90942248Y-103001362D01*
X90823841Y-103083413D01*
X90746200Y-103137327D01*
X90585287Y-103249446D01*
X90445038Y-103347787D01*
X90324999Y-103432682D01*
X90224712Y-103504461D01*
X90143723Y-103563457D01*
X90081576Y-103610001D01*
X90037813Y-103644423D01*
X90011980Y-103667055D01*
X90004198Y-103676287D01*
X89993793Y-103709229D01*
X89987571Y-103754390D01*
X89985670Y-103803497D01*
X89988229Y-103848278D01*
X89995385Y-103880464D01*
X90000640Y-103889160D01*
X90025780Y-103902812D01*
X90036503Y-103904400D01*
X90050152Y-103897324D01*
X90082889Y-103876878D01*
X90132977Y-103844235D01*
X90198678Y-103800565D01*
X90278256Y-103747042D01*
X90369973Y-103684836D01*
X90472092Y-103615121D01*
X90582875Y-103539067D01*
X90700586Y-103457847D01*
X90780088Y-103402770D01*
X90902086Y-103317921D01*
X91018614Y-103236489D01*
X91127879Y-103159751D01*
X91228088Y-103088985D01*
X91317446Y-103025469D01*
X91394159Y-102970481D01*
X91456436Y-102925299D01*
X91502481Y-102891199D01*
X91530502Y-102869462D01*
X91537975Y-102862820D01*
X91555625Y-102841231D01*
X91566078Y-102819489D01*
X91571189Y-102790154D01*
X91572812Y-102745787D01*
X91572900Y-102722701D01*
X91570963Y-102663988D01*
X91563839Y-102627653D01*
X91549560Y-102610880D01*
X91526159Y-102610851D01*
X91501293Y-102620190D01*
X91501293Y-102620190D01*
G37*
X91501293Y-102620190D02*
X91485709Y-102629740D01*
X91451065Y-102652605D01*
X91399134Y-102687568D01*
X91331689Y-102733417D01*
X91250504Y-102788935D01*
X91157354Y-102852909D01*
X91054010Y-102924123D01*
X90942248Y-103001362D01*
X90823841Y-103083413D01*
X90746200Y-103137327D01*
X90585287Y-103249446D01*
X90445038Y-103347787D01*
X90324999Y-103432682D01*
X90224712Y-103504461D01*
X90143723Y-103563457D01*
X90081576Y-103610001D01*
X90037813Y-103644423D01*
X90011980Y-103667055D01*
X90004198Y-103676287D01*
X89993793Y-103709229D01*
X89987571Y-103754390D01*
X89985670Y-103803497D01*
X89988229Y-103848278D01*
X89995385Y-103880464D01*
X90000640Y-103889160D01*
X90025780Y-103902812D01*
X90036503Y-103904400D01*
X90050152Y-103897324D01*
X90082889Y-103876878D01*
X90132977Y-103844235D01*
X90198678Y-103800565D01*
X90278256Y-103747042D01*
X90369973Y-103684836D01*
X90472092Y-103615121D01*
X90582875Y-103539067D01*
X90700586Y-103457847D01*
X90780088Y-103402770D01*
X90902086Y-103317921D01*
X91018614Y-103236489D01*
X91127879Y-103159751D01*
X91228088Y-103088985D01*
X91317446Y-103025469D01*
X91394159Y-102970481D01*
X91456436Y-102925299D01*
X91502481Y-102891199D01*
X91530502Y-102869462D01*
X91537975Y-102862820D01*
X91555625Y-102841231D01*
X91566078Y-102819489D01*
X91571189Y-102790154D01*
X91572812Y-102745787D01*
X91572900Y-102722701D01*
X91570963Y-102663988D01*
X91563839Y-102627653D01*
X91549560Y-102610880D01*
X91526159Y-102610851D01*
X91501293Y-102620190D01*
G36*
X91509400Y-101984033D02*
X91493145Y-101993321D01*
X91458275Y-102015880D01*
X91406870Y-102050252D01*
X91341008Y-102094979D01*
X91262769Y-102148604D01*
X91174231Y-102209670D01*
X91077476Y-102276719D01*
X90974580Y-102348294D01*
X90867625Y-102422936D01*
X90758689Y-102499189D01*
X90649850Y-102575595D01*
X90543189Y-102650696D01*
X90440785Y-102723036D01*
X90344717Y-102791155D01*
X90257064Y-102853598D01*
X90179906Y-102908907D01*
X90115321Y-102955623D01*
X90065389Y-102992290D01*
X90032189Y-103017449D01*
X90017855Y-103029579D01*
X90002479Y-103049982D01*
X89992895Y-103071064D01*
X89987756Y-103099381D01*
X89985713Y-103141489D01*
X89985400Y-103187377D01*
X89986024Y-103244410D01*
X89988515Y-103281264D01*
X89993809Y-103303142D01*
X90002839Y-103315247D01*
X90009070Y-103319273D01*
X90029027Y-103323630D01*
X90055633Y-103315255D01*
X90092185Y-103294242D01*
X90119704Y-103276129D01*
X90166861Y-103244286D01*
X90232474Y-103199528D01*
X90315359Y-103142671D01*
X90414335Y-103074530D01*
X90528217Y-102995922D01*
X90655822Y-102907663D01*
X90795968Y-102810568D01*
X90947472Y-102705455D01*
X91109151Y-102593138D01*
X91172850Y-102548850D01*
X91254505Y-102491508D01*
X91331155Y-102436628D01*
X91399787Y-102386448D01*
X91457389Y-102343206D01*
X91500948Y-102309143D01*
X91527450Y-102286496D01*
X91531625Y-102282261D01*
X91550990Y-102259655D01*
X91563096Y-102239609D01*
X91569648Y-102215361D01*
X91572347Y-102180148D01*
X91572898Y-102127207D01*
X91572900Y-102118380D01*
X91572201Y-102061237D01*
X91569521Y-102024394D01*
X91563990Y-102002776D01*
X91554736Y-101991307D01*
X91550676Y-101988862D01*
X91522676Y-101982280D01*
X91509400Y-101984033D01*
X91509400Y-101984033D01*
G37*
X91509400Y-101984033D02*
X91493145Y-101993321D01*
X91458275Y-102015880D01*
X91406870Y-102050252D01*
X91341008Y-102094979D01*
X91262769Y-102148604D01*
X91174231Y-102209670D01*
X91077476Y-102276719D01*
X90974580Y-102348294D01*
X90867625Y-102422936D01*
X90758689Y-102499189D01*
X90649850Y-102575595D01*
X90543189Y-102650696D01*
X90440785Y-102723036D01*
X90344717Y-102791155D01*
X90257064Y-102853598D01*
X90179906Y-102908907D01*
X90115321Y-102955623D01*
X90065389Y-102992290D01*
X90032189Y-103017449D01*
X90017855Y-103029579D01*
X90002479Y-103049982D01*
X89992895Y-103071064D01*
X89987756Y-103099381D01*
X89985713Y-103141489D01*
X89985400Y-103187377D01*
X89986024Y-103244410D01*
X89988515Y-103281264D01*
X89993809Y-103303142D01*
X90002839Y-103315247D01*
X90009070Y-103319273D01*
X90029027Y-103323630D01*
X90055633Y-103315255D01*
X90092185Y-103294242D01*
X90119704Y-103276129D01*
X90166861Y-103244286D01*
X90232474Y-103199528D01*
X90315359Y-103142671D01*
X90414335Y-103074530D01*
X90528217Y-102995922D01*
X90655822Y-102907663D01*
X90795968Y-102810568D01*
X90947472Y-102705455D01*
X91109151Y-102593138D01*
X91172850Y-102548850D01*
X91254505Y-102491508D01*
X91331155Y-102436628D01*
X91399787Y-102386448D01*
X91457389Y-102343206D01*
X91500948Y-102309143D01*
X91527450Y-102286496D01*
X91531625Y-102282261D01*
X91550990Y-102259655D01*
X91563096Y-102239609D01*
X91569648Y-102215361D01*
X91572347Y-102180148D01*
X91572898Y-102127207D01*
X91572900Y-102118380D01*
X91572201Y-102061237D01*
X91569521Y-102024394D01*
X91563990Y-102002776D01*
X91554736Y-101991307D01*
X91550676Y-101988862D01*
X91522676Y-101982280D01*
X91509400Y-101984033D01*
G36*
X90764285Y-95491462D02*
X90753277Y-95505374D01*
X90731321Y-95539108D01*
X90699781Y-95590270D01*
X90660024Y-95656467D01*
X90613415Y-95735304D01*
X90561320Y-95824388D01*
X90505103Y-95921324D01*
X90446130Y-96023721D01*
X90385768Y-96129182D01*
X90325380Y-96235316D01*
X90266333Y-96339727D01*
X90209993Y-96440023D01*
X90157723Y-96533810D01*
X90110891Y-96618693D01*
X90070862Y-96692279D01*
X90039000Y-96752175D01*
X90016672Y-96795986D01*
X90005242Y-96821319D01*
X90004582Y-96823280D01*
X90002434Y-96832476D01*
X90000450Y-96846135D01*
X89998623Y-96865223D01*
X89996946Y-96890705D01*
X89995415Y-96923548D01*
X89994022Y-96964717D01*
X89992761Y-97015180D01*
X89991625Y-97075901D01*
X89990609Y-97147846D01*
X89989707Y-97231983D01*
X89988911Y-97329276D01*
X89988215Y-97440693D01*
X89987614Y-97567198D01*
X89987101Y-97709759D01*
X89986670Y-97869340D01*
X89986314Y-98046909D01*
X89986027Y-98243430D01*
X89985803Y-98459871D01*
X89985635Y-98697197D01*
X89985517Y-98956374D01*
X89985443Y-99238369D01*
X89985407Y-99544147D01*
X89985400Y-99763965D01*
X89985429Y-100098400D01*
X89985519Y-100408208D01*
X89985673Y-100694164D01*
X89985896Y-100957041D01*
X89986192Y-101197611D01*
X89986565Y-101416649D01*
X89987019Y-101614929D01*
X89987558Y-101793223D01*
X89988186Y-101952305D01*
X89988907Y-102092949D01*
X89989725Y-102215929D01*
X89990645Y-102322017D01*
X89991670Y-102411987D01*
X89992805Y-102486613D01*
X89994054Y-102546669D01*
X89995420Y-102592928D01*
X89996907Y-102626162D01*
X89998521Y-102647147D01*
X90000265Y-102656655D01*
X90000640Y-102657259D01*
X90025445Y-102669771D01*
X90041915Y-102671839D01*
X90056435Y-102664625D01*
X90090010Y-102643988D01*
X90140909Y-102611093D01*
X90207396Y-102567110D01*
X90287739Y-102513205D01*
X90380204Y-102450547D01*
X90483058Y-102380304D01*
X90594565Y-102303643D01*
X90712994Y-102221733D01*
X90803326Y-102158943D01*
X90925737Y-102073419D01*
X91042238Y-101991528D01*
X91151112Y-101914508D01*
X91250639Y-101843598D01*
X91339103Y-101780037D01*
X91414784Y-101725064D01*
X91475965Y-101679917D01*
X91520928Y-101645836D01*
X91547954Y-101624059D01*
X91555351Y-101616678D01*
X91557438Y-101608995D01*
X91559354Y-101593144D01*
X91561106Y-101568151D01*
X91562700Y-101533043D01*
X91564144Y-101486846D01*
X91565445Y-101428588D01*
X91566609Y-101357294D01*
X91567644Y-101271992D01*
X91568556Y-101171708D01*
X91569352Y-101055468D01*
X91570040Y-100922300D01*
X91570626Y-100771229D01*
X91571118Y-100601284D01*
X91571277Y-100526200D01*
X91191900Y-100526200D01*
X91191900Y-101529500D01*
X91001400Y-101529500D01*
X91001400Y-101123615D01*
X90737875Y-101120182D01*
X90474350Y-101116750D01*
X90466788Y-100958000D01*
X91001400Y-100958000D01*
X91001400Y-100691300D01*
X90391800Y-100691300D01*
X90391800Y-100526200D01*
X91191900Y-100526200D01*
X91571277Y-100526200D01*
X91571521Y-100411489D01*
X91571844Y-100200872D01*
X91572093Y-99968460D01*
X91572093Y-99967400D01*
X91195313Y-99967400D01*
X91189026Y-100055272D01*
X91177130Y-100133569D01*
X91152334Y-100192691D01*
X91111922Y-100235363D01*
X91053175Y-100264308D01*
X90973374Y-100282253D01*
X90960876Y-100283977D01*
X90862131Y-100293634D01*
X90770313Y-100294893D01*
X90671338Y-100287821D01*
X90649728Y-100285445D01*
X90565592Y-100271863D01*
X90501808Y-100250923D01*
X90455822Y-100219506D01*
X90425080Y-100174492D01*
X90407027Y-100112762D01*
X90399110Y-100031197D01*
X90398150Y-99978169D01*
X90398784Y-99915142D01*
X90401278Y-99871681D01*
X90406519Y-99841970D01*
X90415395Y-99820194D01*
X90424370Y-99806388D01*
X90455664Y-99773665D01*
X90497818Y-99748962D01*
X90555027Y-99730686D01*
X90631488Y-99717246D01*
X90671844Y-99712503D01*
X90767620Y-99702190D01*
X90841153Y-99693415D01*
X90895505Y-99685465D01*
X90933732Y-99677622D01*
X90958894Y-99669172D01*
X90974049Y-99659400D01*
X90982256Y-99647589D01*
X90985119Y-99639219D01*
X90993938Y-99581404D01*
X90990731Y-99526759D01*
X90976429Y-99483434D01*
X90965640Y-99468794D01*
X90947892Y-99455138D01*
X90923522Y-99446176D01*
X90886419Y-99440496D01*
X90830474Y-99436690D01*
X90825508Y-99436449D01*
X90743188Y-99436161D01*
X90679628Y-99443733D01*
X90636711Y-99458751D01*
X90616323Y-99480801D01*
X90615838Y-99482409D01*
X90608702Y-99511038D01*
X90602289Y-99538775D01*
X90596947Y-99557055D01*
X90587091Y-99567498D01*
X90566671Y-99572295D01*
X90529634Y-99573638D01*
X90505859Y-99573700D01*
X90417200Y-99573700D01*
X90417479Y-99513375D01*
X90423398Y-99462199D01*
X90437756Y-99410094D01*
X90442504Y-99398527D01*
X90465983Y-99359770D01*
X90498827Y-99330579D01*
X90544539Y-99309605D01*
X90606621Y-99295495D01*
X90688577Y-99286901D01*
X90739069Y-99284210D01*
X90856951Y-99283497D01*
X90957654Y-99291502D01*
X91038954Y-99307904D01*
X91098628Y-99332384D01*
X91105949Y-99336981D01*
X91143135Y-99375982D01*
X91170414Y-99433684D01*
X91186736Y-99504982D01*
X91191050Y-99584773D01*
X91182305Y-99667950D01*
X91178155Y-99687812D01*
X91164144Y-99732472D01*
X91143007Y-99767910D01*
X91111696Y-99795597D01*
X91067160Y-99817001D01*
X91006351Y-99833591D01*
X90926218Y-99846838D01*
X90824697Y-99858117D01*
X90740805Y-99866594D01*
X90678897Y-99874987D01*
X90635637Y-99885231D01*
X90607691Y-99899260D01*
X90591721Y-99919008D01*
X90584393Y-99946410D01*
X90582372Y-99983401D01*
X90582300Y-99998690D01*
X90585175Y-100047895D01*
X90592822Y-100085945D01*
X90599362Y-100100178D01*
X90625318Y-100117594D01*
X90671408Y-100130452D01*
X90732663Y-100138057D01*
X90804112Y-100139713D01*
X90860452Y-100136714D01*
X90926732Y-100126946D01*
X90970700Y-100110104D01*
X90994813Y-100084730D01*
X91001574Y-100053125D01*
X91003868Y-100010874D01*
X91013494Y-99985339D01*
X91035517Y-99972370D01*
X91074998Y-99967818D01*
X91106188Y-99967400D01*
X91195313Y-99967400D01*
X91572093Y-99967400D01*
X91572275Y-99713279D01*
X91572397Y-99434355D01*
X91572450Y-99223528D01*
X91572673Y-98049700D01*
X91191900Y-98049700D01*
X91191900Y-98434744D01*
X91191636Y-98552309D01*
X91190765Y-98647310D01*
X91189166Y-98722580D01*
X91186723Y-98780951D01*
X91183315Y-98825255D01*
X91178825Y-98858324D01*
X91173132Y-98882989D01*
X91173080Y-98883165D01*
X91144982Y-98946487D01*
X91101857Y-98992841D01*
X91040786Y-99024584D01*
X90977630Y-99040934D01*
X90928250Y-99046459D01*
X90863484Y-99048758D01*
X90790090Y-99048126D01*
X90714826Y-99044861D01*
X90644450Y-99039259D01*
X90585720Y-99031616D01*
X90545394Y-99022230D01*
X90544562Y-99021933D01*
X90506976Y-99006939D01*
X90476090Y-98990129D01*
X90451252Y-98968993D01*
X90431808Y-98941021D01*
X90417105Y-98903702D01*
X90406490Y-98854526D01*
X90399310Y-98790982D01*
X90394912Y-98710561D01*
X90392644Y-98610752D01*
X90391851Y-98489045D01*
X90391800Y-98434744D01*
X90391800Y-98049700D01*
X90582300Y-98049700D01*
X90582300Y-98423752D01*
X90582761Y-98550633D01*
X90584162Y-98652966D01*
X90586534Y-98731586D01*
X90589908Y-98787328D01*
X90594314Y-98821026D01*
X90597021Y-98830113D01*
X90618303Y-98856088D01*
X90656258Y-98873866D01*
X90713498Y-98884191D01*
X90792634Y-98887807D01*
X90799480Y-98887829D01*
X90875711Y-98884646D01*
X90930389Y-98874330D01*
X90966598Y-98855921D01*
X90986950Y-98829520D01*
X90991899Y-98805818D01*
X90995799Y-98758492D01*
X90998663Y-98687138D01*
X91000506Y-98591351D01*
X91001343Y-98470726D01*
X91001400Y-98423752D01*
X91001400Y-98049700D01*
X91191900Y-98049700D01*
X91572673Y-98049700D01*
X91572814Y-97308684D01*
X91190274Y-97308684D01*
X91186285Y-97416832D01*
X91177652Y-97514399D01*
X91164807Y-97596999D01*
X91148180Y-97660243D01*
X91141910Y-97676178D01*
X91112252Y-97724852D01*
X91069957Y-97759844D01*
X91009523Y-97785319D01*
X90990623Y-97790774D01*
X90942638Y-97799179D01*
X90877058Y-97804608D01*
X90801523Y-97806991D01*
X90723670Y-97806255D01*
X90651138Y-97802330D01*
X90591566Y-97795146D01*
X90588064Y-97794516D01*
X90540830Y-97783893D01*
X90498901Y-97771273D01*
X90479082Y-97763113D01*
X90444373Y-97732067D01*
X90415669Y-97680026D01*
X90394723Y-97611036D01*
X90384586Y-97544875D01*
X90375819Y-97452800D01*
X90566674Y-97452800D01*
X90575240Y-97521363D01*
X90583427Y-97567611D01*
X90597281Y-97599784D01*
X90621056Y-97620611D01*
X90659006Y-97632823D01*
X90715386Y-97639149D01*
X90762191Y-97641339D01*
X90829841Y-97642773D01*
X90882944Y-97640050D01*
X90923257Y-97630495D01*
X90952539Y-97611433D01*
X90972549Y-97580189D01*
X90985046Y-97534089D01*
X90991787Y-97470456D01*
X90994531Y-97386616D01*
X90995038Y-97287141D01*
X90994753Y-97201864D01*
X90993675Y-97138123D01*
X90991486Y-97092057D01*
X90987869Y-97059808D01*
X90982505Y-97037514D01*
X90975078Y-97021317D01*
X90972859Y-97017765D01*
X90937887Y-96985793D01*
X90882812Y-96966627D01*
X90806850Y-96960079D01*
X90741050Y-96962885D01*
X90676929Y-96970751D01*
X90633651Y-96984107D01*
X90606757Y-97006219D01*
X90591787Y-97040352D01*
X90585599Y-97076727D01*
X90578997Y-97135300D01*
X90391800Y-97135300D01*
X90391800Y-97091475D01*
X90398828Y-97012672D01*
X90418489Y-96942344D01*
X90448654Y-96887219D01*
X90460929Y-96873131D01*
X90497373Y-96844054D01*
X90542272Y-96823408D01*
X90599862Y-96810184D01*
X90674376Y-96803374D01*
X90760100Y-96801899D01*
X90870313Y-96805706D01*
X90958788Y-96816616D01*
X91028475Y-96835763D01*
X91082324Y-96864280D01*
X91123287Y-96903301D01*
X91153971Y-96953243D01*
X91166175Y-96981900D01*
X91174903Y-97012154D01*
X91180959Y-97049512D01*
X91185148Y-97099477D01*
X91188274Y-97167558D01*
X91189190Y-97194343D01*
X91190274Y-97308684D01*
X91572814Y-97308684D01*
X91572900Y-96860406D01*
X91516857Y-96747028D01*
X91494578Y-96703531D01*
X91462978Y-96644093D01*
X91423433Y-96571142D01*
X91377316Y-96487108D01*
X91326003Y-96394419D01*
X91270869Y-96295505D01*
X91213287Y-96192793D01*
X91154633Y-96088713D01*
X91096282Y-95985693D01*
X91039607Y-95886163D01*
X90985985Y-95792550D01*
X90936789Y-95707285D01*
X90893394Y-95632795D01*
X90857175Y-95571510D01*
X90829507Y-95525859D01*
X90811765Y-95498269D01*
X90805921Y-95490960D01*
X90777641Y-95485519D01*
X90764285Y-95491462D01*
X90764285Y-95491462D01*
G37*
X90764285Y-95491462D02*
X90753277Y-95505374D01*
X90731321Y-95539108D01*
X90699781Y-95590270D01*
X90660024Y-95656467D01*
X90613415Y-95735304D01*
X90561320Y-95824388D01*
X90505103Y-95921324D01*
X90446130Y-96023721D01*
X90385768Y-96129182D01*
X90325380Y-96235316D01*
X90266333Y-96339727D01*
X90209993Y-96440023D01*
X90157723Y-96533810D01*
X90110891Y-96618693D01*
X90070862Y-96692279D01*
X90039000Y-96752175D01*
X90016672Y-96795986D01*
X90005242Y-96821319D01*
X90004582Y-96823280D01*
X90002434Y-96832476D01*
X90000450Y-96846135D01*
X89998623Y-96865223D01*
X89996946Y-96890705D01*
X89995415Y-96923548D01*
X89994022Y-96964717D01*
X89992761Y-97015180D01*
X89991625Y-97075901D01*
X89990609Y-97147846D01*
X89989707Y-97231983D01*
X89988911Y-97329276D01*
X89988215Y-97440693D01*
X89987614Y-97567198D01*
X89987101Y-97709759D01*
X89986670Y-97869340D01*
X89986314Y-98046909D01*
X89986027Y-98243430D01*
X89985803Y-98459871D01*
X89985635Y-98697197D01*
X89985517Y-98956374D01*
X89985443Y-99238369D01*
X89985407Y-99544147D01*
X89985400Y-99763965D01*
X89985429Y-100098400D01*
X89985519Y-100408208D01*
X89985673Y-100694164D01*
X89985896Y-100957041D01*
X89986192Y-101197611D01*
X89986565Y-101416649D01*
X89987019Y-101614929D01*
X89987558Y-101793223D01*
X89988186Y-101952305D01*
X89988907Y-102092949D01*
X89989725Y-102215929D01*
X89990645Y-102322017D01*
X89991670Y-102411987D01*
X89992805Y-102486613D01*
X89994054Y-102546669D01*
X89995420Y-102592928D01*
X89996907Y-102626162D01*
X89998521Y-102647147D01*
X90000265Y-102656655D01*
X90000640Y-102657259D01*
X90025445Y-102669771D01*
X90041915Y-102671839D01*
X90056435Y-102664625D01*
X90090010Y-102643988D01*
X90140909Y-102611093D01*
X90207396Y-102567110D01*
X90287739Y-102513205D01*
X90380204Y-102450547D01*
X90483058Y-102380304D01*
X90594565Y-102303643D01*
X90712994Y-102221733D01*
X90803326Y-102158943D01*
X90925737Y-102073419D01*
X91042238Y-101991528D01*
X91151112Y-101914508D01*
X91250639Y-101843598D01*
X91339103Y-101780037D01*
X91414784Y-101725064D01*
X91475965Y-101679917D01*
X91520928Y-101645836D01*
X91547954Y-101624059D01*
X91555351Y-101616678D01*
X91557438Y-101608995D01*
X91559354Y-101593144D01*
X91561106Y-101568151D01*
X91562700Y-101533043D01*
X91564144Y-101486846D01*
X91565445Y-101428588D01*
X91566609Y-101357294D01*
X91567644Y-101271992D01*
X91568556Y-101171708D01*
X91569352Y-101055468D01*
X91570040Y-100922300D01*
X91570626Y-100771229D01*
X91571118Y-100601284D01*
X91571277Y-100526200D01*
X91191900Y-100526200D01*
X91191900Y-101529500D01*
X91001400Y-101529500D01*
X91001400Y-101123615D01*
X90737875Y-101120182D01*
X90474350Y-101116750D01*
X90466788Y-100958000D01*
X91001400Y-100958000D01*
X91001400Y-100691300D01*
X90391800Y-100691300D01*
X90391800Y-100526200D01*
X91191900Y-100526200D01*
X91571277Y-100526200D01*
X91571521Y-100411489D01*
X91571844Y-100200872D01*
X91572093Y-99968460D01*
X91572093Y-99967400D01*
X91195313Y-99967400D01*
X91189026Y-100055272D01*
X91177130Y-100133569D01*
X91152334Y-100192691D01*
X91111922Y-100235363D01*
X91053175Y-100264308D01*
X90973374Y-100282253D01*
X90960876Y-100283977D01*
X90862131Y-100293634D01*
X90770313Y-100294893D01*
X90671338Y-100287821D01*
X90649728Y-100285445D01*
X90565592Y-100271863D01*
X90501808Y-100250923D01*
X90455822Y-100219506D01*
X90425080Y-100174492D01*
X90407027Y-100112762D01*
X90399110Y-100031197D01*
X90398150Y-99978169D01*
X90398784Y-99915142D01*
X90401278Y-99871681D01*
X90406519Y-99841970D01*
X90415395Y-99820194D01*
X90424370Y-99806388D01*
X90455664Y-99773665D01*
X90497818Y-99748962D01*
X90555027Y-99730686D01*
X90631488Y-99717246D01*
X90671844Y-99712503D01*
X90767620Y-99702190D01*
X90841153Y-99693415D01*
X90895505Y-99685465D01*
X90933732Y-99677622D01*
X90958894Y-99669172D01*
X90974049Y-99659400D01*
X90982256Y-99647589D01*
X90985119Y-99639219D01*
X90993938Y-99581404D01*
X90990731Y-99526759D01*
X90976429Y-99483434D01*
X90965640Y-99468794D01*
X90947892Y-99455138D01*
X90923522Y-99446176D01*
X90886419Y-99440496D01*
X90830474Y-99436690D01*
X90825508Y-99436449D01*
X90743188Y-99436161D01*
X90679628Y-99443733D01*
X90636711Y-99458751D01*
X90616323Y-99480801D01*
X90615838Y-99482409D01*
X90608702Y-99511038D01*
X90602289Y-99538775D01*
X90596947Y-99557055D01*
X90587091Y-99567498D01*
X90566671Y-99572295D01*
X90529634Y-99573638D01*
X90505859Y-99573700D01*
X90417200Y-99573700D01*
X90417479Y-99513375D01*
X90423398Y-99462199D01*
X90437756Y-99410094D01*
X90442504Y-99398527D01*
X90465983Y-99359770D01*
X90498827Y-99330579D01*
X90544539Y-99309605D01*
X90606621Y-99295495D01*
X90688577Y-99286901D01*
X90739069Y-99284210D01*
X90856951Y-99283497D01*
X90957654Y-99291502D01*
X91038954Y-99307904D01*
X91098628Y-99332384D01*
X91105949Y-99336981D01*
X91143135Y-99375982D01*
X91170414Y-99433684D01*
X91186736Y-99504982D01*
X91191050Y-99584773D01*
X91182305Y-99667950D01*
X91178155Y-99687812D01*
X91164144Y-99732472D01*
X91143007Y-99767910D01*
X91111696Y-99795597D01*
X91067160Y-99817001D01*
X91006351Y-99833591D01*
X90926218Y-99846838D01*
X90824697Y-99858117D01*
X90740805Y-99866594D01*
X90678897Y-99874987D01*
X90635637Y-99885231D01*
X90607691Y-99899260D01*
X90591721Y-99919008D01*
X90584393Y-99946410D01*
X90582372Y-99983401D01*
X90582300Y-99998690D01*
X90585175Y-100047895D01*
X90592822Y-100085945D01*
X90599362Y-100100178D01*
X90625318Y-100117594D01*
X90671408Y-100130452D01*
X90732663Y-100138057D01*
X90804112Y-100139713D01*
X90860452Y-100136714D01*
X90926732Y-100126946D01*
X90970700Y-100110104D01*
X90994813Y-100084730D01*
X91001574Y-100053125D01*
X91003868Y-100010874D01*
X91013494Y-99985339D01*
X91035517Y-99972370D01*
X91074998Y-99967818D01*
X91106188Y-99967400D01*
X91195313Y-99967400D01*
X91572093Y-99967400D01*
X91572275Y-99713279D01*
X91572397Y-99434355D01*
X91572450Y-99223528D01*
X91572673Y-98049700D01*
X91191900Y-98049700D01*
X91191900Y-98434744D01*
X91191636Y-98552309D01*
X91190765Y-98647310D01*
X91189166Y-98722580D01*
X91186723Y-98780951D01*
X91183315Y-98825255D01*
X91178825Y-98858324D01*
X91173132Y-98882989D01*
X91173080Y-98883165D01*
X91144982Y-98946487D01*
X91101857Y-98992841D01*
X91040786Y-99024584D01*
X90977630Y-99040934D01*
X90928250Y-99046459D01*
X90863484Y-99048758D01*
X90790090Y-99048126D01*
X90714826Y-99044861D01*
X90644450Y-99039259D01*
X90585720Y-99031616D01*
X90545394Y-99022230D01*
X90544562Y-99021933D01*
X90506976Y-99006939D01*
X90476090Y-98990129D01*
X90451252Y-98968993D01*
X90431808Y-98941021D01*
X90417105Y-98903702D01*
X90406490Y-98854526D01*
X90399310Y-98790982D01*
X90394912Y-98710561D01*
X90392644Y-98610752D01*
X90391851Y-98489045D01*
X90391800Y-98434744D01*
X90391800Y-98049700D01*
X90582300Y-98049700D01*
X90582300Y-98423752D01*
X90582761Y-98550633D01*
X90584162Y-98652966D01*
X90586534Y-98731586D01*
X90589908Y-98787328D01*
X90594314Y-98821026D01*
X90597021Y-98830113D01*
X90618303Y-98856088D01*
X90656258Y-98873866D01*
X90713498Y-98884191D01*
X90792634Y-98887807D01*
X90799480Y-98887829D01*
X90875711Y-98884646D01*
X90930389Y-98874330D01*
X90966598Y-98855921D01*
X90986950Y-98829520D01*
X90991899Y-98805818D01*
X90995799Y-98758492D01*
X90998663Y-98687138D01*
X91000506Y-98591351D01*
X91001343Y-98470726D01*
X91001400Y-98423752D01*
X91001400Y-98049700D01*
X91191900Y-98049700D01*
X91572673Y-98049700D01*
X91572814Y-97308684D01*
X91190274Y-97308684D01*
X91186285Y-97416832D01*
X91177652Y-97514399D01*
X91164807Y-97596999D01*
X91148180Y-97660243D01*
X91141910Y-97676178D01*
X91112252Y-97724852D01*
X91069957Y-97759844D01*
X91009523Y-97785319D01*
X90990623Y-97790774D01*
X90942638Y-97799179D01*
X90877058Y-97804608D01*
X90801523Y-97806991D01*
X90723670Y-97806255D01*
X90651138Y-97802330D01*
X90591566Y-97795146D01*
X90588064Y-97794516D01*
X90540830Y-97783893D01*
X90498901Y-97771273D01*
X90479082Y-97763113D01*
X90444373Y-97732067D01*
X90415669Y-97680026D01*
X90394723Y-97611036D01*
X90384586Y-97544875D01*
X90375819Y-97452800D01*
X90566674Y-97452800D01*
X90575240Y-97521363D01*
X90583427Y-97567611D01*
X90597281Y-97599784D01*
X90621056Y-97620611D01*
X90659006Y-97632823D01*
X90715386Y-97639149D01*
X90762191Y-97641339D01*
X90829841Y-97642773D01*
X90882944Y-97640050D01*
X90923257Y-97630495D01*
X90952539Y-97611433D01*
X90972549Y-97580189D01*
X90985046Y-97534089D01*
X90991787Y-97470456D01*
X90994531Y-97386616D01*
X90995038Y-97287141D01*
X90994753Y-97201864D01*
X90993675Y-97138123D01*
X90991486Y-97092057D01*
X90987869Y-97059808D01*
X90982505Y-97037514D01*
X90975078Y-97021317D01*
X90972859Y-97017765D01*
X90937887Y-96985793D01*
X90882812Y-96966627D01*
X90806850Y-96960079D01*
X90741050Y-96962885D01*
X90676929Y-96970751D01*
X90633651Y-96984107D01*
X90606757Y-97006219D01*
X90591787Y-97040352D01*
X90585599Y-97076727D01*
X90578997Y-97135300D01*
X90391800Y-97135300D01*
X90391800Y-97091475D01*
X90398828Y-97012672D01*
X90418489Y-96942344D01*
X90448654Y-96887219D01*
X90460929Y-96873131D01*
X90497373Y-96844054D01*
X90542272Y-96823408D01*
X90599862Y-96810184D01*
X90674376Y-96803374D01*
X90760100Y-96801899D01*
X90870313Y-96805706D01*
X90958788Y-96816616D01*
X91028475Y-96835763D01*
X91082324Y-96864280D01*
X91123287Y-96903301D01*
X91153971Y-96953243D01*
X91166175Y-96981900D01*
X91174903Y-97012154D01*
X91180959Y-97049512D01*
X91185148Y-97099477D01*
X91188274Y-97167558D01*
X91189190Y-97194343D01*
X91190274Y-97308684D01*
X91572814Y-97308684D01*
X91572900Y-96860406D01*
X91516857Y-96747028D01*
X91494578Y-96703531D01*
X91462978Y-96644093D01*
X91423433Y-96571142D01*
X91377316Y-96487108D01*
X91326003Y-96394419D01*
X91270869Y-96295505D01*
X91213287Y-96192793D01*
X91154633Y-96088713D01*
X91096282Y-95985693D01*
X91039607Y-95886163D01*
X90985985Y-95792550D01*
X90936789Y-95707285D01*
X90893394Y-95632795D01*
X90857175Y-95571510D01*
X90829507Y-95525859D01*
X90811765Y-95498269D01*
X90805921Y-95490960D01*
X90777641Y-95485519D01*
X90764285Y-95491462D01*
G36*
X87505493Y-100520535D02*
X87423813Y-100531410D01*
X87361848Y-100547803D01*
X87347434Y-100553862D01*
X87309977Y-100585288D01*
X87281537Y-100638574D01*
X87263186Y-100711453D01*
X87259485Y-100739819D01*
X87251282Y-100818300D01*
X87378669Y-100818300D01*
X87384872Y-100753740D01*
X87392121Y-100707635D01*
X87406276Y-100675044D01*
X87431462Y-100653093D01*
X87471804Y-100638910D01*
X87531427Y-100629621D01*
X87568203Y-100626048D01*
X87676314Y-100620653D01*
X87770978Y-100624013D01*
X87848177Y-100635852D01*
X87887183Y-100648002D01*
X87912093Y-100660747D01*
X87931447Y-100678324D01*
X87945944Y-100703831D01*
X87956283Y-100740367D01*
X87963164Y-100791034D01*
X87967285Y-100858929D01*
X87969347Y-100947152D01*
X87969903Y-101014671D01*
X87970017Y-101126349D01*
X87967968Y-101215284D01*
X87961931Y-101284131D01*
X87950083Y-101335545D01*
X87930598Y-101372181D01*
X87901654Y-101396695D01*
X87861427Y-101411741D01*
X87808091Y-101419973D01*
X87739823Y-101424048D01*
X87687515Y-101425699D01*
X87592922Y-101426646D01*
X87520637Y-101423143D01*
X87467877Y-101414684D01*
X87431858Y-101400767D01*
X87409798Y-101380887D01*
X87406040Y-101374744D01*
X87395890Y-101344784D01*
X87386703Y-101299428D01*
X87379715Y-101248169D01*
X87376160Y-101200504D01*
X87377274Y-101165928D01*
X87378249Y-101161090D01*
X87382730Y-101150524D01*
X87392515Y-101143390D01*
X87411928Y-101139019D01*
X87445292Y-101136744D01*
X87496933Y-101135899D01*
X87542132Y-101135800D01*
X87699400Y-101135800D01*
X87699400Y-101021500D01*
X87251251Y-101021500D01*
X87258664Y-101183425D01*
X87264929Y-101284990D01*
X87275261Y-101364471D01*
X87292559Y-101424671D01*
X87319724Y-101468393D01*
X87359654Y-101498440D01*
X87415248Y-101517615D01*
X87489407Y-101528722D01*
X87585030Y-101534564D01*
X87623200Y-101535856D01*
X87692397Y-101536984D01*
X87757724Y-101536365D01*
X87812269Y-101534174D01*
X87849119Y-101530584D01*
X87851800Y-101530110D01*
X87913662Y-101516233D01*
X87963741Y-101498786D01*
X88003255Y-101475130D01*
X88033422Y-101442631D01*
X88055461Y-101398650D01*
X88070589Y-101340551D01*
X88080024Y-101265697D01*
X88084986Y-101171452D01*
X88086690Y-101055178D01*
X88086750Y-101021500D01*
X88086507Y-100925779D01*
X88085605Y-100851662D01*
X88083790Y-100795355D01*
X88080806Y-100753063D01*
X88076395Y-100720994D01*
X88070304Y-100695353D01*
X88063392Y-100675206D01*
X88037899Y-100624645D01*
X88003152Y-100585652D01*
X87955981Y-100556799D01*
X87893213Y-100536658D01*
X87811677Y-100523800D01*
X87712100Y-100516953D01*
X87602913Y-100515582D01*
X87505493Y-100520535D01*
X87505493Y-100520535D01*
G37*
X87505493Y-100520535D02*
X87423813Y-100531410D01*
X87361848Y-100547803D01*
X87347434Y-100553862D01*
X87309977Y-100585288D01*
X87281537Y-100638574D01*
X87263186Y-100711453D01*
X87259485Y-100739819D01*
X87251282Y-100818300D01*
X87378669Y-100818300D01*
X87384872Y-100753740D01*
X87392121Y-100707635D01*
X87406276Y-100675044D01*
X87431462Y-100653093D01*
X87471804Y-100638910D01*
X87531427Y-100629621D01*
X87568203Y-100626048D01*
X87676314Y-100620653D01*
X87770978Y-100624013D01*
X87848177Y-100635852D01*
X87887183Y-100648002D01*
X87912093Y-100660747D01*
X87931447Y-100678324D01*
X87945944Y-100703831D01*
X87956283Y-100740367D01*
X87963164Y-100791034D01*
X87967285Y-100858929D01*
X87969347Y-100947152D01*
X87969903Y-101014671D01*
X87970017Y-101126349D01*
X87967968Y-101215284D01*
X87961931Y-101284131D01*
X87950083Y-101335545D01*
X87930598Y-101372181D01*
X87901654Y-101396695D01*
X87861427Y-101411741D01*
X87808091Y-101419973D01*
X87739823Y-101424048D01*
X87687515Y-101425699D01*
X87592922Y-101426646D01*
X87520637Y-101423143D01*
X87467877Y-101414684D01*
X87431858Y-101400767D01*
X87409798Y-101380887D01*
X87406040Y-101374744D01*
X87395890Y-101344784D01*
X87386703Y-101299428D01*
X87379715Y-101248169D01*
X87376160Y-101200504D01*
X87377274Y-101165928D01*
X87378249Y-101161090D01*
X87382730Y-101150524D01*
X87392515Y-101143390D01*
X87411928Y-101139019D01*
X87445292Y-101136744D01*
X87496933Y-101135899D01*
X87542132Y-101135800D01*
X87699400Y-101135800D01*
X87699400Y-101021500D01*
X87251251Y-101021500D01*
X87258664Y-101183425D01*
X87264929Y-101284990D01*
X87275261Y-101364471D01*
X87292559Y-101424671D01*
X87319724Y-101468393D01*
X87359654Y-101498440D01*
X87415248Y-101517615D01*
X87489407Y-101528722D01*
X87585030Y-101534564D01*
X87623200Y-101535856D01*
X87692397Y-101536984D01*
X87757724Y-101536365D01*
X87812269Y-101534174D01*
X87849119Y-101530584D01*
X87851800Y-101530110D01*
X87913662Y-101516233D01*
X87963741Y-101498786D01*
X88003255Y-101475130D01*
X88033422Y-101442631D01*
X88055461Y-101398650D01*
X88070589Y-101340551D01*
X88080024Y-101265697D01*
X88084986Y-101171452D01*
X88086690Y-101055178D01*
X88086750Y-101021500D01*
X88086507Y-100925779D01*
X88085605Y-100851662D01*
X88083790Y-100795355D01*
X88080806Y-100753063D01*
X88076395Y-100720994D01*
X88070304Y-100695353D01*
X88063392Y-100675206D01*
X88037899Y-100624645D01*
X88003152Y-100585652D01*
X87955981Y-100556799D01*
X87893213Y-100536658D01*
X87811677Y-100523800D01*
X87712100Y-100516953D01*
X87602913Y-100515582D01*
X87505493Y-100520535D01*
G36*
X89553600Y-101415200D02*
X89045600Y-101415200D01*
X89045600Y-101529500D01*
X89680600Y-101529500D01*
X89680600Y-100526200D01*
X89553600Y-100526200D01*
X89553600Y-101415200D01*
X89553600Y-101415200D01*
G37*
X89553600Y-101415200D02*
X89045600Y-101415200D01*
X89045600Y-101529500D01*
X89680600Y-101529500D01*
X89680600Y-100526200D01*
X89553600Y-100526200D01*
X89553600Y-101415200D01*
G36*
X88537600Y-101529500D02*
X88651900Y-101529500D01*
X88651900Y-100526200D01*
X88537600Y-100526200D01*
X88537600Y-101529500D01*
X88537600Y-101529500D01*
G37*
X88537600Y-101529500D02*
X88651900Y-101529500D01*
X88651900Y-100526200D01*
X88537600Y-100526200D01*
X88537600Y-101529500D01*
G36*
X86708800Y-100958000D02*
X86137300Y-100958000D01*
X86137300Y-100526200D01*
X86010300Y-100526200D01*
X86010300Y-101529500D01*
X86137300Y-101529500D01*
X86137300Y-101072300D01*
X86708800Y-101072300D01*
X86708800Y-101529500D01*
X86823100Y-101529500D01*
X86823100Y-100526200D01*
X86708800Y-100526200D01*
X86708800Y-100958000D01*
X86708800Y-100958000D01*
G37*
X86708800Y-100958000D02*
X86137300Y-100958000D01*
X86137300Y-100526200D01*
X86010300Y-100526200D01*
X86010300Y-101529500D01*
X86137300Y-101529500D01*
X86137300Y-101072300D01*
X86708800Y-101072300D01*
X86708800Y-101529500D01*
X86823100Y-101529500D01*
X86823100Y-100526200D01*
X86708800Y-100526200D01*
X86708800Y-100958000D01*
G36*
X84854600Y-100640500D02*
X85172100Y-100640500D01*
X85172100Y-101529500D01*
X85299100Y-101529500D01*
X85299100Y-100640500D01*
X85616600Y-100640500D01*
X85616600Y-100526200D01*
X84854600Y-100526200D01*
X84854600Y-100640500D01*
X84854600Y-100640500D01*
G37*
X84854600Y-100640500D02*
X85172100Y-100640500D01*
X85172100Y-101529500D01*
X85299100Y-101529500D01*
X85299100Y-100640500D01*
X85616600Y-100640500D01*
X85616600Y-100526200D01*
X84854600Y-100526200D01*
X84854600Y-100640500D01*
G36*
X86306625Y-99278105D02*
X86234780Y-99295890D01*
X86180696Y-99325534D01*
X86142285Y-99368242D01*
X86117458Y-99425219D01*
X86104128Y-99497672D01*
X86103042Y-99509340D01*
X86095517Y-99599100D01*
X86223148Y-99599100D01*
X86228695Y-99522406D01*
X86235479Y-99470273D01*
X86248279Y-99435680D01*
X86262324Y-99417631D01*
X86274988Y-99406529D01*
X86290009Y-99398809D01*
X86311922Y-99393862D01*
X86345263Y-99391076D01*
X86394566Y-99389843D01*
X86464367Y-99389550D01*
X86471028Y-99389550D01*
X86564152Y-99390929D01*
X86632943Y-99395114D01*
X86678320Y-99402175D01*
X86691836Y-99406514D01*
X86714768Y-99418361D01*
X86732459Y-99434249D01*
X86745552Y-99457331D01*
X86754687Y-99490762D01*
X86760507Y-99537693D01*
X86763655Y-99601278D01*
X86764770Y-99684671D01*
X86764650Y-99764200D01*
X86763352Y-99872630D01*
X86760360Y-99958569D01*
X86755224Y-100024893D01*
X86747489Y-100074479D01*
X86736704Y-100110205D01*
X86722416Y-100134949D01*
X86704172Y-100151587D01*
X86703676Y-100151914D01*
X86653803Y-100173226D01*
X86584109Y-100186389D01*
X86498990Y-100190919D01*
X86402840Y-100186329D01*
X86396940Y-100185766D01*
X86338112Y-100179368D01*
X86298757Y-100172853D01*
X86273003Y-100164461D01*
X86254976Y-100152434D01*
X86242659Y-100139582D01*
X86225744Y-100114839D01*
X86216810Y-100085093D01*
X86213652Y-100041590D01*
X86213500Y-100023841D01*
X86213500Y-99942000D01*
X86082920Y-99942000D01*
X86089507Y-100047576D01*
X86098158Y-100128089D01*
X86114546Y-100187508D01*
X86141605Y-100229677D01*
X86182269Y-100258445D01*
X86239474Y-100277658D01*
X86269808Y-100283925D01*
X86312722Y-100289024D01*
X86373124Y-100292756D01*
X86443580Y-100295029D01*
X86516656Y-100295750D01*
X86584916Y-100294827D01*
X86640926Y-100292166D01*
X86670700Y-100288929D01*
X86749033Y-100266145D01*
X86809134Y-100225975D01*
X86852159Y-100167449D01*
X86871191Y-100120152D01*
X86879412Y-100080147D01*
X86885931Y-100021675D01*
X86890749Y-99949252D01*
X86893869Y-99867389D01*
X86895291Y-99780600D01*
X86895016Y-99693398D01*
X86893047Y-99610295D01*
X86889384Y-99535805D01*
X86884029Y-99474441D01*
X86876983Y-99430715D01*
X86870979Y-99412896D01*
X86837767Y-99367249D01*
X86792181Y-99331835D01*
X86731361Y-99305540D01*
X86652447Y-99287254D01*
X86552578Y-99275863D01*
X86511950Y-99273289D01*
X86398319Y-99270973D01*
X86306625Y-99278105D01*
X86306625Y-99278105D01*
G37*
X86306625Y-99278105D02*
X86234780Y-99295890D01*
X86180696Y-99325534D01*
X86142285Y-99368242D01*
X86117458Y-99425219D01*
X86104128Y-99497672D01*
X86103042Y-99509340D01*
X86095517Y-99599100D01*
X86223148Y-99599100D01*
X86228695Y-99522406D01*
X86235479Y-99470273D01*
X86248279Y-99435680D01*
X86262324Y-99417631D01*
X86274988Y-99406529D01*
X86290009Y-99398809D01*
X86311922Y-99393862D01*
X86345263Y-99391076D01*
X86394566Y-99389843D01*
X86464367Y-99389550D01*
X86471028Y-99389550D01*
X86564152Y-99390929D01*
X86632943Y-99395114D01*
X86678320Y-99402175D01*
X86691836Y-99406514D01*
X86714768Y-99418361D01*
X86732459Y-99434249D01*
X86745552Y-99457331D01*
X86754687Y-99490762D01*
X86760507Y-99537693D01*
X86763655Y-99601278D01*
X86764770Y-99684671D01*
X86764650Y-99764200D01*
X86763352Y-99872630D01*
X86760360Y-99958569D01*
X86755224Y-100024893D01*
X86747489Y-100074479D01*
X86736704Y-100110205D01*
X86722416Y-100134949D01*
X86704172Y-100151587D01*
X86703676Y-100151914D01*
X86653803Y-100173226D01*
X86584109Y-100186389D01*
X86498990Y-100190919D01*
X86402840Y-100186329D01*
X86396940Y-100185766D01*
X86338112Y-100179368D01*
X86298757Y-100172853D01*
X86273003Y-100164461D01*
X86254976Y-100152434D01*
X86242659Y-100139582D01*
X86225744Y-100114839D01*
X86216810Y-100085093D01*
X86213652Y-100041590D01*
X86213500Y-100023841D01*
X86213500Y-99942000D01*
X86082920Y-99942000D01*
X86089507Y-100047576D01*
X86098158Y-100128089D01*
X86114546Y-100187508D01*
X86141605Y-100229677D01*
X86182269Y-100258445D01*
X86239474Y-100277658D01*
X86269808Y-100283925D01*
X86312722Y-100289024D01*
X86373124Y-100292756D01*
X86443580Y-100295029D01*
X86516656Y-100295750D01*
X86584916Y-100294827D01*
X86640926Y-100292166D01*
X86670700Y-100288929D01*
X86749033Y-100266145D01*
X86809134Y-100225975D01*
X86852159Y-100167449D01*
X86871191Y-100120152D01*
X86879412Y-100080147D01*
X86885931Y-100021675D01*
X86890749Y-99949252D01*
X86893869Y-99867389D01*
X86895291Y-99780600D01*
X86895016Y-99693398D01*
X86893047Y-99610295D01*
X86889384Y-99535805D01*
X86884029Y-99474441D01*
X86876983Y-99430715D01*
X86870979Y-99412896D01*
X86837767Y-99367249D01*
X86792181Y-99331835D01*
X86731361Y-99305540D01*
X86652447Y-99287254D01*
X86552578Y-99275863D01*
X86511950Y-99273289D01*
X86398319Y-99270973D01*
X86306625Y-99278105D01*
G36*
X89410725Y-99281902D02*
X89304482Y-99282531D01*
X89220273Y-99284412D01*
X89154744Y-99287940D01*
X89104546Y-99293510D01*
X89066324Y-99301516D01*
X89036729Y-99312351D01*
X89012406Y-99326410D01*
X89008483Y-99329201D01*
X88973771Y-99361732D01*
X88949469Y-99403263D01*
X88934223Y-99458083D01*
X88926679Y-99530479D01*
X88925257Y-99592750D01*
X88925902Y-99658062D01*
X88928610Y-99704451D01*
X88934311Y-99738370D01*
X88943938Y-99766270D01*
X88952977Y-99784677D01*
X88971941Y-99816082D01*
X88993452Y-99840248D01*
X89021016Y-99858181D01*
X89058141Y-99870890D01*
X89108335Y-99879381D01*
X89175105Y-99884663D01*
X89261958Y-99887742D01*
X89315475Y-99888794D01*
X89553600Y-99892739D01*
X89553600Y-100284900D01*
X89680600Y-100284900D01*
X89680600Y-99792582D01*
X89553600Y-99792582D01*
X89347225Y-99786836D01*
X89255714Y-99783221D01*
X89183587Y-99778097D01*
X89132891Y-99771653D01*
X89106784Y-99764648D01*
X89078260Y-99744141D01*
X89059482Y-99712598D01*
X89049293Y-99666072D01*
X89046539Y-99600611D01*
X89047489Y-99562053D01*
X89051187Y-99500954D01*
X89057224Y-99460291D01*
X89066548Y-99435135D01*
X89073665Y-99425878D01*
X89098629Y-99410715D01*
X89140677Y-99399227D01*
X89201847Y-99391146D01*
X89284175Y-99386206D01*
X89389698Y-99384138D01*
X89391675Y-99384127D01*
X89553600Y-99383200D01*
X89553600Y-99792582D01*
X89680600Y-99792582D01*
X89680600Y-99281600D01*
X89410725Y-99281902D01*
X89410725Y-99281902D01*
G37*
X89410725Y-99281902D02*
X89304482Y-99282531D01*
X89220273Y-99284412D01*
X89154744Y-99287940D01*
X89104546Y-99293510D01*
X89066324Y-99301516D01*
X89036729Y-99312351D01*
X89012406Y-99326410D01*
X89008483Y-99329201D01*
X88973771Y-99361732D01*
X88949469Y-99403263D01*
X88934223Y-99458083D01*
X88926679Y-99530479D01*
X88925257Y-99592750D01*
X88925902Y-99658062D01*
X88928610Y-99704451D01*
X88934311Y-99738370D01*
X88943938Y-99766270D01*
X88952977Y-99784677D01*
X88971941Y-99816082D01*
X88993452Y-99840248D01*
X89021016Y-99858181D01*
X89058141Y-99870890D01*
X89108335Y-99879381D01*
X89175105Y-99884663D01*
X89261958Y-99887742D01*
X89315475Y-99888794D01*
X89553600Y-99892739D01*
X89553600Y-100284900D01*
X89680600Y-100284900D01*
X89680600Y-99792582D01*
X89553600Y-99792582D01*
X89347225Y-99786836D01*
X89255714Y-99783221D01*
X89183587Y-99778097D01*
X89132891Y-99771653D01*
X89106784Y-99764648D01*
X89078260Y-99744141D01*
X89059482Y-99712598D01*
X89049293Y-99666072D01*
X89046539Y-99600611D01*
X89047489Y-99562053D01*
X89051187Y-99500954D01*
X89057224Y-99460291D01*
X89066548Y-99435135D01*
X89073665Y-99425878D01*
X89098629Y-99410715D01*
X89140677Y-99399227D01*
X89201847Y-99391146D01*
X89284175Y-99386206D01*
X89389698Y-99384138D01*
X89391675Y-99384127D01*
X89553600Y-99383200D01*
X89553600Y-99792582D01*
X89680600Y-99792582D01*
X89680600Y-99281600D01*
X89410725Y-99281902D01*
G36*
X87653743Y-99775727D02*
X87614244Y-99881294D01*
X87577675Y-99979521D01*
X87544972Y-100067851D01*
X87517076Y-100143727D01*
X87494922Y-100204594D01*
X87479451Y-100247893D01*
X87471600Y-100271070D01*
X87470800Y-100274202D01*
X87482215Y-100280350D01*
X87511350Y-100284218D01*
X87533228Y-100284900D01*
X87595655Y-100284900D01*
X87670573Y-100088050D01*
X87918897Y-100084609D01*
X88167220Y-100081169D01*
X88203185Y-100183001D01*
X88239150Y-100284834D01*
X88306681Y-100284867D01*
X88345668Y-100283829D01*
X88364559Y-100279376D01*
X88368618Y-100269569D01*
X88366936Y-100262675D01*
X88361073Y-100246183D01*
X88347427Y-100208535D01*
X88326977Y-100152416D01*
X88300706Y-100080510D01*
X88269593Y-99995501D01*
X88263949Y-99980100D01*
X88130062Y-99980100D01*
X87919723Y-99980100D01*
X87842222Y-99979924D01*
X87786720Y-99979150D01*
X87749816Y-99977400D01*
X87728109Y-99974300D01*
X87718198Y-99969476D01*
X87716682Y-99962552D01*
X87718131Y-99957875D01*
X87724927Y-99939744D01*
X87738998Y-99901571D01*
X87758942Y-99847184D01*
X87783357Y-99780409D01*
X87810838Y-99705077D01*
X87821420Y-99676028D01*
X87849257Y-99599887D01*
X87874210Y-99532206D01*
X87894974Y-99476485D01*
X87910239Y-99436221D01*
X87918700Y-99414912D01*
X87919897Y-99412469D01*
X87925206Y-99422481D01*
X87937480Y-99452692D01*
X87955278Y-99499334D01*
X87977157Y-99558640D01*
X87997438Y-99614941D01*
X88024223Y-99689852D01*
X88050472Y-99762903D01*
X88073981Y-99827988D01*
X88092547Y-99878999D01*
X88100552Y-99900725D01*
X88130062Y-99980100D01*
X88263949Y-99980100D01*
X88234620Y-99900073D01*
X88196768Y-99796910D01*
X88184758Y-99764200D01*
X88009857Y-99287950D01*
X87836685Y-99287950D01*
X87653743Y-99775727D01*
X87653743Y-99775727D01*
G37*
X87653743Y-99775727D02*
X87614244Y-99881294D01*
X87577675Y-99979521D01*
X87544972Y-100067851D01*
X87517076Y-100143727D01*
X87494922Y-100204594D01*
X87479451Y-100247893D01*
X87471600Y-100271070D01*
X87470800Y-100274202D01*
X87482215Y-100280350D01*
X87511350Y-100284218D01*
X87533228Y-100284900D01*
X87595655Y-100284900D01*
X87670573Y-100088050D01*
X87918897Y-100084609D01*
X88167220Y-100081169D01*
X88203185Y-100183001D01*
X88239150Y-100284834D01*
X88306681Y-100284867D01*
X88345668Y-100283829D01*
X88364559Y-100279376D01*
X88368618Y-100269569D01*
X88366936Y-100262675D01*
X88361073Y-100246183D01*
X88347427Y-100208535D01*
X88326977Y-100152416D01*
X88300706Y-100080510D01*
X88269593Y-99995501D01*
X88263949Y-99980100D01*
X88130062Y-99980100D01*
X87919723Y-99980100D01*
X87842222Y-99979924D01*
X87786720Y-99979150D01*
X87749816Y-99977400D01*
X87728109Y-99974300D01*
X87718198Y-99969476D01*
X87716682Y-99962552D01*
X87718131Y-99957875D01*
X87724927Y-99939744D01*
X87738998Y-99901571D01*
X87758942Y-99847184D01*
X87783357Y-99780409D01*
X87810838Y-99705077D01*
X87821420Y-99676028D01*
X87849257Y-99599887D01*
X87874210Y-99532206D01*
X87894974Y-99476485D01*
X87910239Y-99436221D01*
X87918700Y-99414912D01*
X87919897Y-99412469D01*
X87925206Y-99422481D01*
X87937480Y-99452692D01*
X87955278Y-99499334D01*
X87977157Y-99558640D01*
X87997438Y-99614941D01*
X88024223Y-99689852D01*
X88050472Y-99762903D01*
X88073981Y-99827988D01*
X88092547Y-99878999D01*
X88100552Y-99900725D01*
X88130062Y-99980100D01*
X88263949Y-99980100D01*
X88234620Y-99900073D01*
X88196768Y-99796910D01*
X88184758Y-99764200D01*
X88009857Y-99287950D01*
X87836685Y-99287950D01*
X87653743Y-99775727D01*
G36*
X84841900Y-99383200D02*
X85375300Y-99383200D01*
X85375300Y-99713400D01*
X84867300Y-99713400D01*
X84867300Y-99827700D01*
X85375300Y-99827700D01*
X85375300Y-100183300D01*
X84841900Y-100183300D01*
X84841900Y-100284900D01*
X85502300Y-100284900D01*
X85502300Y-99281600D01*
X84841900Y-99281600D01*
X84841900Y-99383200D01*
X84841900Y-99383200D01*
G37*
X84841900Y-99383200D02*
X85375300Y-99383200D01*
X85375300Y-99713400D01*
X84867300Y-99713400D01*
X84867300Y-99827700D01*
X85375300Y-99827700D01*
X85375300Y-100183300D01*
X84841900Y-100183300D01*
X84841900Y-100284900D01*
X85502300Y-100284900D01*
X85502300Y-99281600D01*
X84841900Y-99281600D01*
X84841900Y-99383200D01*
G36*
X88817000Y-99053000D02*
X89013850Y-99052030D01*
X89547250Y-98179084D01*
X89553930Y-99053000D01*
X89680600Y-99053000D01*
X89680600Y-98037000D01*
X89582175Y-98037327D01*
X89483750Y-98037655D01*
X88950350Y-98912973D01*
X88947011Y-98474986D01*
X88943671Y-98037000D01*
X88817000Y-98037000D01*
X88817000Y-99053000D01*
X88817000Y-99053000D01*
G37*
X88817000Y-99053000D02*
X89013850Y-99052030D01*
X89547250Y-98179084D01*
X89553930Y-99053000D01*
X89680600Y-99053000D01*
X89680600Y-98037000D01*
X89582175Y-98037327D01*
X89483750Y-98037655D01*
X88950350Y-98912973D01*
X88947011Y-98474986D01*
X88943671Y-98037000D01*
X88817000Y-98037000D01*
X88817000Y-99053000D01*
G36*
X88220100Y-99053000D02*
X88334400Y-99053000D01*
X88334400Y-98037000D01*
X88220100Y-98037000D01*
X88220100Y-99053000D01*
X88220100Y-99053000D01*
G37*
X88220100Y-99053000D02*
X88334400Y-99053000D01*
X88334400Y-98037000D01*
X88220100Y-98037000D01*
X88220100Y-99053000D01*
G36*
X86983415Y-98039976D02*
X86963996Y-98048552D01*
X86962800Y-98052280D01*
X86966917Y-98067201D01*
X86978671Y-98103448D01*
X86997170Y-98158420D01*
X87021521Y-98229519D01*
X87050831Y-98314143D01*
X87084208Y-98409694D01*
X87120758Y-98513571D01*
X87137273Y-98560280D01*
X87311746Y-99053000D01*
X87481113Y-99053000D01*
X87499949Y-98999025D01*
X87508473Y-98974883D01*
X87524462Y-98929877D01*
X87546827Y-98867057D01*
X87574482Y-98789477D01*
X87606337Y-98700187D01*
X87641306Y-98602241D01*
X87678300Y-98498689D01*
X87678943Y-98496890D01*
X87715041Y-98395711D01*
X87748295Y-98302177D01*
X87777767Y-98218955D01*
X87802518Y-98148710D01*
X87821609Y-98094105D01*
X87834101Y-98057808D01*
X87839056Y-98042482D01*
X87839100Y-98042201D01*
X87827671Y-98039215D01*
X87798307Y-98038536D01*
X87772425Y-98039511D01*
X87705750Y-98043350D01*
X87553350Y-98478141D01*
X87518286Y-98577613D01*
X87485659Y-98669091D01*
X87456449Y-98749905D01*
X87431639Y-98817385D01*
X87412211Y-98868860D01*
X87399145Y-98901660D01*
X87393436Y-98913116D01*
X87385673Y-98902262D01*
X87374829Y-98874655D01*
X87369991Y-98859325D01*
X87362645Y-98836417D01*
X87348272Y-98793266D01*
X87328160Y-98733627D01*
X87303597Y-98661257D01*
X87275870Y-98579912D01*
X87246268Y-98493348D01*
X87216079Y-98405323D01*
X87186589Y-98319592D01*
X87159088Y-98239911D01*
X87134863Y-98170038D01*
X87115202Y-98113729D01*
X87101392Y-98074740D01*
X87095688Y-98059225D01*
X87083246Y-98044910D01*
X87056338Y-98038205D01*
X87024942Y-98037000D01*
X86983415Y-98039976D01*
X86983415Y-98039976D01*
G37*
X86983415Y-98039976D02*
X86963996Y-98048552D01*
X86962800Y-98052280D01*
X86966917Y-98067201D01*
X86978671Y-98103448D01*
X86997170Y-98158420D01*
X87021521Y-98229519D01*
X87050831Y-98314143D01*
X87084208Y-98409694D01*
X87120758Y-98513571D01*
X87137273Y-98560280D01*
X87311746Y-99053000D01*
X87481113Y-99053000D01*
X87499949Y-98999025D01*
X87508473Y-98974883D01*
X87524462Y-98929877D01*
X87546827Y-98867057D01*
X87574482Y-98789477D01*
X87606337Y-98700187D01*
X87641306Y-98602241D01*
X87678300Y-98498689D01*
X87678943Y-98496890D01*
X87715041Y-98395711D01*
X87748295Y-98302177D01*
X87777767Y-98218955D01*
X87802518Y-98148710D01*
X87821609Y-98094105D01*
X87834101Y-98057808D01*
X87839056Y-98042482D01*
X87839100Y-98042201D01*
X87827671Y-98039215D01*
X87798307Y-98038536D01*
X87772425Y-98039511D01*
X87705750Y-98043350D01*
X87553350Y-98478141D01*
X87518286Y-98577613D01*
X87485659Y-98669091D01*
X87456449Y-98749905D01*
X87431639Y-98817385D01*
X87412211Y-98868860D01*
X87399145Y-98901660D01*
X87393436Y-98913116D01*
X87385673Y-98902262D01*
X87374829Y-98874655D01*
X87369991Y-98859325D01*
X87362645Y-98836417D01*
X87348272Y-98793266D01*
X87328160Y-98733627D01*
X87303597Y-98661257D01*
X87275870Y-98579912D01*
X87246268Y-98493348D01*
X87216079Y-98405323D01*
X87186589Y-98319592D01*
X87159088Y-98239911D01*
X87134863Y-98170038D01*
X87115202Y-98113729D01*
X87101392Y-98074740D01*
X87095688Y-98059225D01*
X87083246Y-98044910D01*
X87056338Y-98038205D01*
X87024942Y-98037000D01*
X86983415Y-98039976D01*
G36*
X85972200Y-98151300D02*
X86492900Y-98151300D01*
X86492900Y-98468800D01*
X85997600Y-98468800D01*
X85997600Y-98583100D01*
X86492900Y-98583100D01*
X86492900Y-98938700D01*
X85972200Y-98938700D01*
X85972200Y-99053000D01*
X86619900Y-99053000D01*
X86619900Y-98037000D01*
X85972200Y-98037000D01*
X85972200Y-98151300D01*
X85972200Y-98151300D01*
G37*
X85972200Y-98151300D02*
X86492900Y-98151300D01*
X86492900Y-98468800D01*
X85997600Y-98468800D01*
X85997600Y-98583100D01*
X86492900Y-98583100D01*
X86492900Y-98938700D01*
X85972200Y-98938700D01*
X85972200Y-99053000D01*
X86619900Y-99053000D01*
X86619900Y-98037000D01*
X85972200Y-98037000D01*
X85972200Y-98151300D01*
G36*
X85238775Y-98039462D02*
X85132842Y-98041513D01*
X85049017Y-98044299D01*
X84984007Y-98048414D01*
X84934520Y-98054451D01*
X84897266Y-98063006D01*
X84868951Y-98074671D01*
X84846285Y-98090040D01*
X84825974Y-98109707D01*
X84821435Y-98114738D01*
X84795252Y-98152998D01*
X84778037Y-98201106D01*
X84768593Y-98264054D01*
X84765720Y-98346833D01*
X84765720Y-98346870D01*
X84769318Y-98427757D01*
X84781096Y-98488049D01*
X84802574Y-98531660D01*
X84835276Y-98562506D01*
X84853628Y-98573052D01*
X84897105Y-98594754D01*
X84863158Y-98607660D01*
X84832241Y-98623913D01*
X84809540Y-98648141D01*
X84793934Y-98683924D01*
X84784303Y-98734843D01*
X84779527Y-98804479D01*
X84778448Y-98878375D01*
X84778400Y-99053000D01*
X84889214Y-99053000D01*
X84895710Y-98903775D01*
X84900153Y-98822820D01*
X84907604Y-98760914D01*
X84921177Y-98715506D01*
X84943988Y-98684043D01*
X84979149Y-98663974D01*
X85029775Y-98652747D01*
X85098980Y-98647811D01*
X85189878Y-98646615D01*
X85209570Y-98646600D01*
X85413400Y-98646600D01*
X85413400Y-99053000D01*
X85540400Y-99053000D01*
X85540400Y-98151300D01*
X85413400Y-98151300D01*
X85413400Y-98532300D01*
X85200675Y-98532112D01*
X85103488Y-98531037D01*
X85030775Y-98527969D01*
X84981685Y-98522850D01*
X84956200Y-98516061D01*
X84915988Y-98482580D01*
X84891718Y-98430058D01*
X84883236Y-98358072D01*
X84884423Y-98320733D01*
X84891482Y-98255045D01*
X84903468Y-98210046D01*
X84922313Y-98181200D01*
X84949947Y-98163974D01*
X84951449Y-98163392D01*
X84974477Y-98159353D01*
X85017917Y-98155888D01*
X85076783Y-98153238D01*
X85146089Y-98151650D01*
X85198327Y-98151300D01*
X85413400Y-98151300D01*
X85540400Y-98151300D01*
X85540400Y-98034658D01*
X85238775Y-98039462D01*
X85238775Y-98039462D01*
G37*
X85238775Y-98039462D02*
X85132842Y-98041513D01*
X85049017Y-98044299D01*
X84984007Y-98048414D01*
X84934520Y-98054451D01*
X84897266Y-98063006D01*
X84868951Y-98074671D01*
X84846285Y-98090040D01*
X84825974Y-98109707D01*
X84821435Y-98114738D01*
X84795252Y-98152998D01*
X84778037Y-98201106D01*
X84768593Y-98264054D01*
X84765720Y-98346833D01*
X84765720Y-98346870D01*
X84769318Y-98427757D01*
X84781096Y-98488049D01*
X84802574Y-98531660D01*
X84835276Y-98562506D01*
X84853628Y-98573052D01*
X84897105Y-98594754D01*
X84863158Y-98607660D01*
X84832241Y-98623913D01*
X84809540Y-98648141D01*
X84793934Y-98683924D01*
X84784303Y-98734843D01*
X84779527Y-98804479D01*
X84778448Y-98878375D01*
X84778400Y-99053000D01*
X84889214Y-99053000D01*
X84895710Y-98903775D01*
X84900153Y-98822820D01*
X84907604Y-98760914D01*
X84921177Y-98715506D01*
X84943988Y-98684043D01*
X84979149Y-98663974D01*
X85029775Y-98652747D01*
X85098980Y-98647811D01*
X85189878Y-98646615D01*
X85209570Y-98646600D01*
X85413400Y-98646600D01*
X85413400Y-99053000D01*
X85540400Y-99053000D01*
X85540400Y-98151300D01*
X85413400Y-98151300D01*
X85413400Y-98532300D01*
X85200675Y-98532112D01*
X85103488Y-98531037D01*
X85030775Y-98527969D01*
X84981685Y-98522850D01*
X84956200Y-98516061D01*
X84915988Y-98482580D01*
X84891718Y-98430058D01*
X84883236Y-98358072D01*
X84884423Y-98320733D01*
X84891482Y-98255045D01*
X84903468Y-98210046D01*
X84922313Y-98181200D01*
X84949947Y-98163974D01*
X84951449Y-98163392D01*
X84974477Y-98159353D01*
X85017917Y-98155888D01*
X85076783Y-98153238D01*
X85146089Y-98151650D01*
X85198327Y-98151300D01*
X85413400Y-98151300D01*
X85540400Y-98151300D01*
X85540400Y-98034658D01*
X85238775Y-98039462D01*
G36*
X83868302Y-98037056D02*
X83795812Y-98045707D01*
X83737794Y-98059026D01*
X83708508Y-98071419D01*
X83664039Y-98108974D01*
X83634084Y-98162704D01*
X83616893Y-98235859D01*
X83615928Y-98243375D01*
X83607074Y-98316400D01*
X83734116Y-98316400D01*
X83742824Y-98258334D01*
X83753224Y-98217529D01*
X83768926Y-98184448D01*
X83775100Y-98176700D01*
X83810638Y-98156265D01*
X83868759Y-98143785D01*
X83950045Y-98139177D01*
X84029723Y-98140987D01*
X84109770Y-98149380D01*
X84167668Y-98167314D01*
X84205616Y-98197097D01*
X84225814Y-98241037D01*
X84230461Y-98301442D01*
X84226572Y-98347575D01*
X84220647Y-98384035D01*
X84210924Y-98411491D01*
X84193909Y-98431663D01*
X84166107Y-98446274D01*
X84124024Y-98457045D01*
X84064168Y-98465697D01*
X83983043Y-98473952D01*
X83967088Y-98475421D01*
X83895614Y-98482551D01*
X83829032Y-98490278D01*
X83773398Y-98497823D01*
X83734769Y-98504406D01*
X83725942Y-98506458D01*
X83674780Y-98528746D01*
X83637318Y-98565589D01*
X83612703Y-98619048D01*
X83600080Y-98691186D01*
X83598595Y-98784064D01*
X83599869Y-98810843D01*
X83609286Y-98889068D01*
X83628589Y-98947358D01*
X83659915Y-98989967D01*
X83705402Y-99021148D01*
X83705604Y-99021250D01*
X83743867Y-99033287D01*
X83801436Y-99042512D01*
X83872359Y-99048817D01*
X83950685Y-99052091D01*
X84030464Y-99052227D01*
X84105746Y-99049114D01*
X84170579Y-99042645D01*
X84219013Y-99032709D01*
X84224917Y-99030764D01*
X84281290Y-99001475D01*
X84321341Y-98958155D01*
X84346429Y-98898293D01*
X84357913Y-98819380D01*
X84358998Y-98783125D01*
X84359300Y-98722800D01*
X84232300Y-98722800D01*
X84232300Y-98780357D01*
X84225541Y-98845149D01*
X84206494Y-98895524D01*
X84177009Y-98927521D01*
X84160112Y-98935072D01*
X84129751Y-98939623D01*
X84081009Y-98942750D01*
X84020821Y-98944448D01*
X83956126Y-98944712D01*
X83893859Y-98943538D01*
X83840956Y-98940920D01*
X83804356Y-98936855D01*
X83797486Y-98935323D01*
X83758130Y-98913348D01*
X83732700Y-98872519D01*
X83720457Y-98811389D01*
X83719105Y-98782270D01*
X83720673Y-98716521D01*
X83728644Y-98671119D01*
X83744505Y-98641492D01*
X83769741Y-98623069D01*
X83771037Y-98622469D01*
X83796347Y-98615827D01*
X83841136Y-98608804D01*
X83899506Y-98602158D01*
X83965562Y-98596644D01*
X83979272Y-98595738D01*
X84088391Y-98585654D01*
X84174777Y-98569508D01*
X84240730Y-98545524D01*
X84288554Y-98511927D01*
X84320551Y-98466939D01*
X84339021Y-98408786D01*
X84346269Y-98335691D01*
X84346600Y-98312353D01*
X84341933Y-98226624D01*
X84326917Y-98161396D01*
X84300029Y-98113354D01*
X84259748Y-98079181D01*
X84233534Y-98066015D01*
X84180527Y-98050384D01*
X84111377Y-98039736D01*
X84032207Y-98034007D01*
X83949141Y-98033135D01*
X83868302Y-98037056D01*
X83868302Y-98037056D01*
G37*
X83868302Y-98037056D02*
X83795812Y-98045707D01*
X83737794Y-98059026D01*
X83708508Y-98071419D01*
X83664039Y-98108974D01*
X83634084Y-98162704D01*
X83616893Y-98235859D01*
X83615928Y-98243375D01*
X83607074Y-98316400D01*
X83734116Y-98316400D01*
X83742824Y-98258334D01*
X83753224Y-98217529D01*
X83768926Y-98184448D01*
X83775100Y-98176700D01*
X83810638Y-98156265D01*
X83868759Y-98143785D01*
X83950045Y-98139177D01*
X84029723Y-98140987D01*
X84109770Y-98149380D01*
X84167668Y-98167314D01*
X84205616Y-98197097D01*
X84225814Y-98241037D01*
X84230461Y-98301442D01*
X84226572Y-98347575D01*
X84220647Y-98384035D01*
X84210924Y-98411491D01*
X84193909Y-98431663D01*
X84166107Y-98446274D01*
X84124024Y-98457045D01*
X84064168Y-98465697D01*
X83983043Y-98473952D01*
X83967088Y-98475421D01*
X83895614Y-98482551D01*
X83829032Y-98490278D01*
X83773398Y-98497823D01*
X83734769Y-98504406D01*
X83725942Y-98506458D01*
X83674780Y-98528746D01*
X83637318Y-98565589D01*
X83612703Y-98619048D01*
X83600080Y-98691186D01*
X83598595Y-98784064D01*
X83599869Y-98810843D01*
X83609286Y-98889068D01*
X83628589Y-98947358D01*
X83659915Y-98989967D01*
X83705402Y-99021148D01*
X83705604Y-99021250D01*
X83743867Y-99033287D01*
X83801436Y-99042512D01*
X83872359Y-99048817D01*
X83950685Y-99052091D01*
X84030464Y-99052227D01*
X84105746Y-99049114D01*
X84170579Y-99042645D01*
X84219013Y-99032709D01*
X84224917Y-99030764D01*
X84281290Y-99001475D01*
X84321341Y-98958155D01*
X84346429Y-98898293D01*
X84357913Y-98819380D01*
X84358998Y-98783125D01*
X84359300Y-98722800D01*
X84232300Y-98722800D01*
X84232300Y-98780357D01*
X84225541Y-98845149D01*
X84206494Y-98895524D01*
X84177009Y-98927521D01*
X84160112Y-98935072D01*
X84129751Y-98939623D01*
X84081009Y-98942750D01*
X84020821Y-98944448D01*
X83956126Y-98944712D01*
X83893859Y-98943538D01*
X83840956Y-98940920D01*
X83804356Y-98936855D01*
X83797486Y-98935323D01*
X83758130Y-98913348D01*
X83732700Y-98872519D01*
X83720457Y-98811389D01*
X83719105Y-98782270D01*
X83720673Y-98716521D01*
X83728644Y-98671119D01*
X83744505Y-98641492D01*
X83769741Y-98623069D01*
X83771037Y-98622469D01*
X83796347Y-98615827D01*
X83841136Y-98608804D01*
X83899506Y-98602158D01*
X83965562Y-98596644D01*
X83979272Y-98595738D01*
X84088391Y-98585654D01*
X84174777Y-98569508D01*
X84240730Y-98545524D01*
X84288554Y-98511927D01*
X84320551Y-98466939D01*
X84339021Y-98408786D01*
X84346269Y-98335691D01*
X84346600Y-98312353D01*
X84341933Y-98226624D01*
X84326917Y-98161396D01*
X84300029Y-98113354D01*
X84259748Y-98079181D01*
X84233534Y-98066015D01*
X84180527Y-98050384D01*
X84111377Y-98039736D01*
X84032207Y-98034007D01*
X83949141Y-98033135D01*
X83868302Y-98037056D01*
G36*
X83051200Y-99053000D02*
X83178200Y-99053000D01*
X83178200Y-98037000D01*
X83051200Y-98037000D01*
X83051200Y-99053000D01*
X83051200Y-99053000D01*
G37*
X83051200Y-99053000D02*
X83178200Y-99053000D01*
X83178200Y-98037000D01*
X83051200Y-98037000D01*
X83051200Y-99053000D01*
G36*
X81882800Y-98151300D02*
X82213000Y-98151300D01*
X82213000Y-99053000D01*
X82340000Y-99053000D01*
X82340000Y-98151300D01*
X82657500Y-98151300D01*
X82657500Y-98037000D01*
X81882800Y-98037000D01*
X81882800Y-98151300D01*
X81882800Y-98151300D01*
G37*
X81882800Y-98151300D02*
X82213000Y-98151300D01*
X82213000Y-99053000D01*
X82340000Y-99053000D01*
X82340000Y-98151300D01*
X82657500Y-98151300D01*
X82657500Y-98037000D01*
X81882800Y-98037000D01*
X81882800Y-98151300D01*
G36*
X80770854Y-98038903D02*
X80745770Y-98043808D01*
X80739800Y-98048453D01*
X80746458Y-98061754D01*
X80765224Y-98093399D01*
X80794285Y-98140486D01*
X80831832Y-98200112D01*
X80876053Y-98269373D01*
X80923950Y-98343543D01*
X81108100Y-98627181D01*
X81108100Y-99053000D01*
X81235100Y-99053000D01*
X81235100Y-98632846D01*
X81419250Y-98341368D01*
X81467733Y-98264378D01*
X81511435Y-98194498D01*
X81548605Y-98134569D01*
X81577489Y-98087433D01*
X81596335Y-98055933D01*
X81603388Y-98042911D01*
X81603400Y-98042811D01*
X81591914Y-98039606D01*
X81562173Y-98038594D01*
X81530658Y-98039541D01*
X81457915Y-98043350D01*
X81322835Y-98256887D01*
X81280868Y-98322903D01*
X81243066Y-98381751D01*
X81211682Y-98429973D01*
X81188969Y-98464111D01*
X81177181Y-98480708D01*
X81176503Y-98481462D01*
X81166522Y-98474660D01*
X81145231Y-98448637D01*
X81114438Y-98405921D01*
X81075950Y-98349041D01*
X81031576Y-98280525D01*
X81021587Y-98264750D01*
X80877923Y-98037000D01*
X80808862Y-98037000D01*
X80770854Y-98038903D01*
X80770854Y-98038903D01*
G37*
X80770854Y-98038903D02*
X80745770Y-98043808D01*
X80739800Y-98048453D01*
X80746458Y-98061754D01*
X80765224Y-98093399D01*
X80794285Y-98140486D01*
X80831832Y-98200112D01*
X80876053Y-98269373D01*
X80923950Y-98343543D01*
X81108100Y-98627181D01*
X81108100Y-99053000D01*
X81235100Y-99053000D01*
X81235100Y-98632846D01*
X81419250Y-98341368D01*
X81467733Y-98264378D01*
X81511435Y-98194498D01*
X81548605Y-98134569D01*
X81577489Y-98087433D01*
X81596335Y-98055933D01*
X81603388Y-98042911D01*
X81603400Y-98042811D01*
X81591914Y-98039606D01*
X81562173Y-98038594D01*
X81530658Y-98039541D01*
X81457915Y-98043350D01*
X81322835Y-98256887D01*
X81280868Y-98322903D01*
X81243066Y-98381751D01*
X81211682Y-98429973D01*
X81188969Y-98464111D01*
X81177181Y-98480708D01*
X81176503Y-98481462D01*
X81166522Y-98474660D01*
X81145231Y-98448637D01*
X81114438Y-98405921D01*
X81075950Y-98349041D01*
X81031576Y-98280525D01*
X81021587Y-98264750D01*
X80877923Y-98037000D01*
X80808862Y-98037000D01*
X80770854Y-98038903D01*
G36*
X82155850Y-96799120D02*
X82057305Y-96799969D01*
X81980692Y-96802768D01*
X81922563Y-96808431D01*
X81879471Y-96817873D01*
X81847970Y-96832009D01*
X81824611Y-96851754D01*
X81805948Y-96878023D01*
X81797075Y-96894328D01*
X81774380Y-96958849D01*
X81768500Y-97023690D01*
X81768500Y-97097200D01*
X81879528Y-97097200D01*
X81887814Y-97034736D01*
X81897850Y-96983955D01*
X81915167Y-96949393D01*
X81944553Y-96927001D01*
X81990795Y-96912735D01*
X82041727Y-96904633D01*
X82113522Y-96898590D01*
X82191238Y-96897299D01*
X82267250Y-96900430D01*
X82333933Y-96907649D01*
X82383663Y-96918627D01*
X82386598Y-96919629D01*
X82427535Y-96947284D01*
X82450098Y-96980609D01*
X82457931Y-96999041D01*
X82463809Y-97021038D01*
X82468002Y-97050322D01*
X82470782Y-97090616D01*
X82472419Y-97145643D01*
X82473184Y-97219126D01*
X82473350Y-97300400D01*
X82472966Y-97410857D01*
X82470572Y-97498603D01*
X82464309Y-97566323D01*
X82452318Y-97616707D01*
X82432740Y-97652441D01*
X82403715Y-97676212D01*
X82363384Y-97690709D01*
X82309888Y-97698618D01*
X82241366Y-97702627D01*
X82193950Y-97704225D01*
X82098939Y-97705742D01*
X82026097Y-97702339D01*
X81972369Y-97692096D01*
X81934704Y-97673094D01*
X81910047Y-97643416D01*
X81895345Y-97601140D01*
X81887545Y-97544349D01*
X81885297Y-97510242D01*
X81879615Y-97402000D01*
X82200300Y-97402000D01*
X82200300Y-97300400D01*
X81769651Y-97300400D01*
X81761382Y-97344480D01*
X81758459Y-97384616D01*
X81760024Y-97441854D01*
X81765250Y-97508460D01*
X81773309Y-97576698D01*
X81783375Y-97638833D01*
X81794622Y-97687130D01*
X81799540Y-97701530D01*
X81821501Y-97739781D01*
X81854792Y-97768167D01*
X81903366Y-97788662D01*
X81971176Y-97803236D01*
X82015075Y-97809099D01*
X82137505Y-97818401D01*
X82252734Y-97816084D01*
X82337795Y-97807453D01*
X82403476Y-97796235D01*
X82457320Y-97779691D01*
X82500396Y-97755475D01*
X82533775Y-97721240D01*
X82558529Y-97674638D01*
X82575727Y-97613323D01*
X82586440Y-97534948D01*
X82591740Y-97437165D01*
X82592696Y-97317628D01*
X82591904Y-97250424D01*
X82590296Y-97161663D01*
X82588465Y-97094230D01*
X82585972Y-97044052D01*
X82582380Y-97007057D01*
X82577251Y-96979175D01*
X82570148Y-96956332D01*
X82560632Y-96934458D01*
X82557183Y-96927355D01*
X82534888Y-96888632D01*
X82508848Y-96862024D01*
X82470026Y-96839060D01*
X82455583Y-96832105D01*
X82429104Y-96820190D01*
X82405057Y-96811520D01*
X82378838Y-96805588D01*
X82345846Y-96801888D01*
X82301477Y-96799913D01*
X82241129Y-96799157D01*
X82160199Y-96799113D01*
X82155850Y-96799120D01*
X82155850Y-96799120D01*
G37*
X82155850Y-96799120D02*
X82057305Y-96799969D01*
X81980692Y-96802768D01*
X81922563Y-96808431D01*
X81879471Y-96817873D01*
X81847970Y-96832009D01*
X81824611Y-96851754D01*
X81805948Y-96878023D01*
X81797075Y-96894328D01*
X81774380Y-96958849D01*
X81768500Y-97023690D01*
X81768500Y-97097200D01*
X81879528Y-97097200D01*
X81887814Y-97034736D01*
X81897850Y-96983955D01*
X81915167Y-96949393D01*
X81944553Y-96927001D01*
X81990795Y-96912735D01*
X82041727Y-96904633D01*
X82113522Y-96898590D01*
X82191238Y-96897299D01*
X82267250Y-96900430D01*
X82333933Y-96907649D01*
X82383663Y-96918627D01*
X82386598Y-96919629D01*
X82427535Y-96947284D01*
X82450098Y-96980609D01*
X82457931Y-96999041D01*
X82463809Y-97021038D01*
X82468002Y-97050322D01*
X82470782Y-97090616D01*
X82472419Y-97145643D01*
X82473184Y-97219126D01*
X82473350Y-97300400D01*
X82472966Y-97410857D01*
X82470572Y-97498603D01*
X82464309Y-97566323D01*
X82452318Y-97616707D01*
X82432740Y-97652441D01*
X82403715Y-97676212D01*
X82363384Y-97690709D01*
X82309888Y-97698618D01*
X82241366Y-97702627D01*
X82193950Y-97704225D01*
X82098939Y-97705742D01*
X82026097Y-97702339D01*
X81972369Y-97692096D01*
X81934704Y-97673094D01*
X81910047Y-97643416D01*
X81895345Y-97601140D01*
X81887545Y-97544349D01*
X81885297Y-97510242D01*
X81879615Y-97402000D01*
X82200300Y-97402000D01*
X82200300Y-97300400D01*
X81769651Y-97300400D01*
X81761382Y-97344480D01*
X81758459Y-97384616D01*
X81760024Y-97441854D01*
X81765250Y-97508460D01*
X81773309Y-97576698D01*
X81783375Y-97638833D01*
X81794622Y-97687130D01*
X81799540Y-97701530D01*
X81821501Y-97739781D01*
X81854792Y-97768167D01*
X81903366Y-97788662D01*
X81971176Y-97803236D01*
X82015075Y-97809099D01*
X82137505Y-97818401D01*
X82252734Y-97816084D01*
X82337795Y-97807453D01*
X82403476Y-97796235D01*
X82457320Y-97779691D01*
X82500396Y-97755475D01*
X82533775Y-97721240D01*
X82558529Y-97674638D01*
X82575727Y-97613323D01*
X82586440Y-97534948D01*
X82591740Y-97437165D01*
X82592696Y-97317628D01*
X82591904Y-97250424D01*
X82590296Y-97161663D01*
X82588465Y-97094230D01*
X82585972Y-97044052D01*
X82582380Y-97007057D01*
X82577251Y-96979175D01*
X82570148Y-96956332D01*
X82560632Y-96934458D01*
X82557183Y-96927355D01*
X82534888Y-96888632D01*
X82508848Y-96862024D01*
X82470026Y-96839060D01*
X82455583Y-96832105D01*
X82429104Y-96820190D01*
X82405057Y-96811520D01*
X82378838Y-96805588D01*
X82345846Y-96801888D01*
X82301477Y-96799913D01*
X82241129Y-96799157D01*
X82160199Y-96799113D01*
X82155850Y-96799120D01*
G36*
X89328734Y-96794459D02*
X89315628Y-96795034D01*
X89233585Y-96798750D01*
X89071761Y-97230550D01*
X89033341Y-97333078D01*
X88996645Y-97431023D01*
X88962898Y-97521111D01*
X88933327Y-97600073D01*
X88909155Y-97664635D01*
X88891609Y-97711526D01*
X88882698Y-97735375D01*
X88855457Y-97808400D01*
X88989018Y-97808400D01*
X89067004Y-97598850D01*
X89313542Y-97595416D01*
X89560080Y-97591983D01*
X89597589Y-97700191D01*
X89635098Y-97808400D01*
X89702299Y-97808400D01*
X89739730Y-97807686D01*
X89764127Y-97805852D01*
X89769500Y-97804217D01*
X89765303Y-97791817D01*
X89753456Y-97758638D01*
X89735080Y-97707743D01*
X89711295Y-97642190D01*
X89683220Y-97565041D01*
X89660815Y-97503600D01*
X89527830Y-97503600D01*
X89318465Y-97503600D01*
X89248760Y-97503129D01*
X89188886Y-97501825D01*
X89143031Y-97499854D01*
X89115383Y-97497380D01*
X89109100Y-97495385D01*
X89113313Y-97480374D01*
X89124931Y-97445809D01*
X89142424Y-97395868D01*
X89164263Y-97334730D01*
X89188918Y-97266573D01*
X89214859Y-97195575D01*
X89240558Y-97125915D01*
X89264483Y-97061771D01*
X89285107Y-97007321D01*
X89300898Y-96966743D01*
X89310327Y-96944217D01*
X89311993Y-96941176D01*
X89318741Y-96949359D01*
X89332274Y-96978079D01*
X89351154Y-97023840D01*
X89373943Y-97083149D01*
X89399203Y-97152510D01*
X89400823Y-97157076D01*
X89427815Y-97232958D01*
X89453596Y-97304852D01*
X89476312Y-97367628D01*
X89494108Y-97416157D01*
X89504329Y-97443275D01*
X89527830Y-97503600D01*
X89660815Y-97503600D01*
X89651974Y-97479356D01*
X89618677Y-97388197D01*
X89584450Y-97294623D01*
X89550411Y-97201694D01*
X89517680Y-97112473D01*
X89487377Y-97030018D01*
X89460622Y-96957391D01*
X89438533Y-96897652D01*
X89422232Y-96853862D01*
X89412836Y-96829082D01*
X89411928Y-96826784D01*
X89402824Y-96807711D01*
X89390459Y-96797461D01*
X89368031Y-96793791D01*
X89328734Y-96794459D01*
X89328734Y-96794459D01*
G37*
X89328734Y-96794459D02*
X89315628Y-96795034D01*
X89233585Y-96798750D01*
X89071761Y-97230550D01*
X89033341Y-97333078D01*
X88996645Y-97431023D01*
X88962898Y-97521111D01*
X88933327Y-97600073D01*
X88909155Y-97664635D01*
X88891609Y-97711526D01*
X88882698Y-97735375D01*
X88855457Y-97808400D01*
X88989018Y-97808400D01*
X89067004Y-97598850D01*
X89313542Y-97595416D01*
X89560080Y-97591983D01*
X89597589Y-97700191D01*
X89635098Y-97808400D01*
X89702299Y-97808400D01*
X89739730Y-97807686D01*
X89764127Y-97805852D01*
X89769500Y-97804217D01*
X89765303Y-97791817D01*
X89753456Y-97758638D01*
X89735080Y-97707743D01*
X89711295Y-97642190D01*
X89683220Y-97565041D01*
X89660815Y-97503600D01*
X89527830Y-97503600D01*
X89318465Y-97503600D01*
X89248760Y-97503129D01*
X89188886Y-97501825D01*
X89143031Y-97499854D01*
X89115383Y-97497380D01*
X89109100Y-97495385D01*
X89113313Y-97480374D01*
X89124931Y-97445809D01*
X89142424Y-97395868D01*
X89164263Y-97334730D01*
X89188918Y-97266573D01*
X89214859Y-97195575D01*
X89240558Y-97125915D01*
X89264483Y-97061771D01*
X89285107Y-97007321D01*
X89300898Y-96966743D01*
X89310327Y-96944217D01*
X89311993Y-96941176D01*
X89318741Y-96949359D01*
X89332274Y-96978079D01*
X89351154Y-97023840D01*
X89373943Y-97083149D01*
X89399203Y-97152510D01*
X89400823Y-97157076D01*
X89427815Y-97232958D01*
X89453596Y-97304852D01*
X89476312Y-97367628D01*
X89494108Y-97416157D01*
X89504329Y-97443275D01*
X89527830Y-97503600D01*
X89660815Y-97503600D01*
X89651974Y-97479356D01*
X89618677Y-97388197D01*
X89584450Y-97294623D01*
X89550411Y-97201694D01*
X89517680Y-97112473D01*
X89487377Y-97030018D01*
X89460622Y-96957391D01*
X89438533Y-96897652D01*
X89422232Y-96853862D01*
X89412836Y-96829082D01*
X89411928Y-96826784D01*
X89402824Y-96807711D01*
X89390459Y-96797461D01*
X89368031Y-96793791D01*
X89328734Y-96794459D01*
G36*
X87369200Y-97808400D02*
X87496200Y-97808400D01*
X87496884Y-96938450D01*
X87676966Y-97373997D01*
X87857047Y-97809545D01*
X87919947Y-97805797D01*
X87982848Y-97802050D01*
X88340750Y-96941638D01*
X88347434Y-97808400D01*
X88474100Y-97808400D01*
X88474100Y-96791372D01*
X88369425Y-96795061D01*
X88264749Y-96798750D01*
X88093577Y-97213994D01*
X88053828Y-97309866D01*
X88017014Y-97397592D01*
X87984261Y-97474573D01*
X87956693Y-97538210D01*
X87935435Y-97585903D01*
X87921613Y-97615054D01*
X87916437Y-97623269D01*
X87910398Y-97610521D01*
X87895918Y-97576970D01*
X87874133Y-97525337D01*
X87846179Y-97458345D01*
X87813194Y-97378716D01*
X87776314Y-97289170D01*
X87743051Y-97208025D01*
X87575633Y-96798750D01*
X87472417Y-96795061D01*
X87369200Y-96791372D01*
X87369200Y-97808400D01*
X87369200Y-97808400D01*
G37*
X87369200Y-97808400D02*
X87496200Y-97808400D01*
X87496884Y-96938450D01*
X87676966Y-97373997D01*
X87857047Y-97809545D01*
X87919947Y-97805797D01*
X87982848Y-97802050D01*
X88340750Y-96941638D01*
X88347434Y-97808400D01*
X88474100Y-97808400D01*
X88474100Y-96791372D01*
X88369425Y-96795061D01*
X88264749Y-96798750D01*
X88093577Y-97213994D01*
X88053828Y-97309866D01*
X88017014Y-97397592D01*
X87984261Y-97474573D01*
X87956693Y-97538210D01*
X87935435Y-97585903D01*
X87921613Y-97615054D01*
X87916437Y-97623269D01*
X87910398Y-97610521D01*
X87895918Y-97576970D01*
X87874133Y-97525337D01*
X87846179Y-97458345D01*
X87813194Y-97378716D01*
X87776314Y-97289170D01*
X87743051Y-97208025D01*
X87575633Y-96798750D01*
X87472417Y-96795061D01*
X87369200Y-96791372D01*
X87369200Y-97808400D01*
G36*
X86680225Y-96792625D02*
X86554936Y-96794288D01*
X86445907Y-96798861D01*
X86355111Y-96806157D01*
X86284527Y-96815990D01*
X86236127Y-96828171D01*
X86218884Y-96836315D01*
X86184093Y-96868274D01*
X86161100Y-96912874D01*
X86148501Y-96974105D01*
X86144887Y-97046400D01*
X86148614Y-97124830D01*
X86161575Y-97183376D01*
X86185313Y-97226362D01*
X86220229Y-97257365D01*
X86251829Y-97278070D01*
X86210440Y-97299700D01*
X86165235Y-97337185D01*
X86132878Y-97393832D01*
X86115028Y-97465997D01*
X86111971Y-97515815D01*
X86117411Y-97604603D01*
X86134680Y-97673802D01*
X86165459Y-97727107D01*
X86211427Y-97768213D01*
X86232550Y-97781031D01*
X86248559Y-97787877D01*
X86270976Y-97793257D01*
X86303033Y-97797407D01*
X86347957Y-97800561D01*
X86408980Y-97802954D01*
X86489329Y-97804821D01*
X86578625Y-97806217D01*
X86886600Y-97810384D01*
X86886600Y-97694100D01*
X86759600Y-97694100D01*
X86543070Y-97694100D01*
X86456477Y-97693550D01*
X86391630Y-97691719D01*
X86344897Y-97688336D01*
X86312643Y-97683129D01*
X86291236Y-97675827D01*
X86289970Y-97675189D01*
X86263565Y-97656725D01*
X86246882Y-97630723D01*
X86238106Y-97591827D01*
X86235421Y-97534680D01*
X86235515Y-97514518D01*
X86239719Y-97449750D01*
X86251712Y-97405342D01*
X86273288Y-97376968D01*
X86298318Y-97363038D01*
X86321593Y-97358439D01*
X86365246Y-97353599D01*
X86424264Y-97348934D01*
X86493633Y-97344859D01*
X86545195Y-97342596D01*
X86759600Y-97334502D01*
X86759600Y-97694100D01*
X86886600Y-97694100D01*
X86886600Y-96906700D01*
X86759600Y-96906700D01*
X86759600Y-97236900D01*
X86584975Y-97236597D01*
X86516153Y-97235649D01*
X86452168Y-97233274D01*
X86399504Y-97229811D01*
X86364646Y-97225601D01*
X86360938Y-97224831D01*
X86317683Y-97210755D01*
X86290300Y-97189152D01*
X86274824Y-97154408D01*
X86267293Y-97100914D01*
X86266629Y-97091334D01*
X86264396Y-97033609D01*
X86267864Y-96989313D01*
X86279859Y-96956680D01*
X86303207Y-96933946D01*
X86340736Y-96919345D01*
X86395271Y-96911114D01*
X86469640Y-96907488D01*
X86562343Y-96906700D01*
X86759600Y-96906700D01*
X86886600Y-96906700D01*
X86886600Y-96792400D01*
X86680225Y-96792625D01*
X86680225Y-96792625D01*
G37*
X86680225Y-96792625D02*
X86554936Y-96794288D01*
X86445907Y-96798861D01*
X86355111Y-96806157D01*
X86284527Y-96815990D01*
X86236127Y-96828171D01*
X86218884Y-96836315D01*
X86184093Y-96868274D01*
X86161100Y-96912874D01*
X86148501Y-96974105D01*
X86144887Y-97046400D01*
X86148614Y-97124830D01*
X86161575Y-97183376D01*
X86185313Y-97226362D01*
X86220229Y-97257365D01*
X86251829Y-97278070D01*
X86210440Y-97299700D01*
X86165235Y-97337185D01*
X86132878Y-97393832D01*
X86115028Y-97465997D01*
X86111971Y-97515815D01*
X86117411Y-97604603D01*
X86134680Y-97673802D01*
X86165459Y-97727107D01*
X86211427Y-97768213D01*
X86232550Y-97781031D01*
X86248559Y-97787877D01*
X86270976Y-97793257D01*
X86303033Y-97797407D01*
X86347957Y-97800561D01*
X86408980Y-97802954D01*
X86489329Y-97804821D01*
X86578625Y-97806217D01*
X86886600Y-97810384D01*
X86886600Y-97694100D01*
X86759600Y-97694100D01*
X86543070Y-97694100D01*
X86456477Y-97693550D01*
X86391630Y-97691719D01*
X86344897Y-97688336D01*
X86312643Y-97683129D01*
X86291236Y-97675827D01*
X86289970Y-97675189D01*
X86263565Y-97656725D01*
X86246882Y-97630723D01*
X86238106Y-97591827D01*
X86235421Y-97534680D01*
X86235515Y-97514518D01*
X86239719Y-97449750D01*
X86251712Y-97405342D01*
X86273288Y-97376968D01*
X86298318Y-97363038D01*
X86321593Y-97358439D01*
X86365246Y-97353599D01*
X86424264Y-97348934D01*
X86493633Y-97344859D01*
X86545195Y-97342596D01*
X86759600Y-97334502D01*
X86759600Y-97694100D01*
X86886600Y-97694100D01*
X86886600Y-96906700D01*
X86759600Y-96906700D01*
X86759600Y-97236900D01*
X86584975Y-97236597D01*
X86516153Y-97235649D01*
X86452168Y-97233274D01*
X86399504Y-97229811D01*
X86364646Y-97225601D01*
X86360938Y-97224831D01*
X86317683Y-97210755D01*
X86290300Y-97189152D01*
X86274824Y-97154408D01*
X86267293Y-97100914D01*
X86266629Y-97091334D01*
X86264396Y-97033609D01*
X86267864Y-96989313D01*
X86279859Y-96956680D01*
X86303207Y-96933946D01*
X86340736Y-96919345D01*
X86395271Y-96911114D01*
X86469640Y-96907488D01*
X86562343Y-96906700D01*
X86759600Y-96906700D01*
X86886600Y-96906700D01*
X86886600Y-96792400D01*
X86680225Y-96792625D01*
G36*
X85371419Y-96794614D02*
X85276655Y-96796460D01*
X85203564Y-96798347D01*
X85148424Y-96800652D01*
X85107510Y-96803756D01*
X85077100Y-96808037D01*
X85053469Y-96813875D01*
X85032893Y-96821649D01*
X85012857Y-96831137D01*
X84966756Y-96858778D01*
X84934376Y-96891550D01*
X84913281Y-96934427D01*
X84901036Y-96992385D01*
X84895204Y-97070399D01*
X84895162Y-97071487D01*
X84894787Y-97155205D01*
X84901711Y-97218537D01*
X84917243Y-97265777D01*
X84942688Y-97301223D01*
X84972147Y-97324682D01*
X85019800Y-97355519D01*
X84982552Y-97373559D01*
X84953868Y-97392021D01*
X84932966Y-97418016D01*
X84918764Y-97455315D01*
X84910177Y-97507690D01*
X84906122Y-97578909D01*
X84905400Y-97642044D01*
X84905400Y-97808400D01*
X85032400Y-97808400D01*
X85032400Y-97649850D01*
X85032588Y-97583862D01*
X85033800Y-97538020D01*
X85037008Y-97507072D01*
X85043186Y-97485763D01*
X85053306Y-97468842D01*
X85068340Y-97451054D01*
X85069437Y-97449825D01*
X85106473Y-97408350D01*
X85323437Y-97404104D01*
X85540400Y-97399859D01*
X85540400Y-97808400D01*
X85667400Y-97808400D01*
X85667400Y-97303698D01*
X85540400Y-97303698D01*
X85334025Y-97297989D01*
X85238903Y-97294332D01*
X85167481Y-97289201D01*
X85118092Y-97282434D01*
X85089550Y-97274100D01*
X85046814Y-97241864D01*
X85020858Y-97193150D01*
X85011105Y-97126489D01*
X85012717Y-97078150D01*
X85024149Y-97006120D01*
X85045272Y-96956016D01*
X85077113Y-96925886D01*
X85097045Y-96917793D01*
X85119860Y-96914801D01*
X85162982Y-96912102D01*
X85221317Y-96909907D01*
X85289774Y-96908426D01*
X85334025Y-96907965D01*
X85540400Y-96906700D01*
X85540400Y-97303698D01*
X85667400Y-97303698D01*
X85667400Y-96789202D01*
X85371419Y-96794614D01*
X85371419Y-96794614D01*
G37*
X85371419Y-96794614D02*
X85276655Y-96796460D01*
X85203564Y-96798347D01*
X85148424Y-96800652D01*
X85107510Y-96803756D01*
X85077100Y-96808037D01*
X85053469Y-96813875D01*
X85032893Y-96821649D01*
X85012857Y-96831137D01*
X84966756Y-96858778D01*
X84934376Y-96891550D01*
X84913281Y-96934427D01*
X84901036Y-96992385D01*
X84895204Y-97070399D01*
X84895162Y-97071487D01*
X84894787Y-97155205D01*
X84901711Y-97218537D01*
X84917243Y-97265777D01*
X84942688Y-97301223D01*
X84972147Y-97324682D01*
X85019800Y-97355519D01*
X84982552Y-97373559D01*
X84953868Y-97392021D01*
X84932966Y-97418016D01*
X84918764Y-97455315D01*
X84910177Y-97507690D01*
X84906122Y-97578909D01*
X84905400Y-97642044D01*
X84905400Y-97808400D01*
X85032400Y-97808400D01*
X85032400Y-97649850D01*
X85032588Y-97583862D01*
X85033800Y-97538020D01*
X85037008Y-97507072D01*
X85043186Y-97485763D01*
X85053306Y-97468842D01*
X85068340Y-97451054D01*
X85069437Y-97449825D01*
X85106473Y-97408350D01*
X85323437Y-97404104D01*
X85540400Y-97399859D01*
X85540400Y-97808400D01*
X85667400Y-97808400D01*
X85667400Y-97303698D01*
X85540400Y-97303698D01*
X85334025Y-97297989D01*
X85238903Y-97294332D01*
X85167481Y-97289201D01*
X85118092Y-97282434D01*
X85089550Y-97274100D01*
X85046814Y-97241864D01*
X85020858Y-97193150D01*
X85011105Y-97126489D01*
X85012717Y-97078150D01*
X85024149Y-97006120D01*
X85045272Y-96956016D01*
X85077113Y-96925886D01*
X85097045Y-96917793D01*
X85119860Y-96914801D01*
X85162982Y-96912102D01*
X85221317Y-96909907D01*
X85289774Y-96908426D01*
X85334025Y-96907965D01*
X85540400Y-96906700D01*
X85540400Y-97303698D01*
X85667400Y-97303698D01*
X85667400Y-96789202D01*
X85371419Y-96794614D01*
G36*
X84308500Y-97808400D02*
X84435500Y-97808400D01*
X84435500Y-96792400D01*
X84308500Y-96792400D01*
X84308500Y-97808400D01*
X84308500Y-97808400D01*
G37*
X84308500Y-97808400D02*
X84435500Y-97808400D01*
X84435500Y-96792400D01*
X84308500Y-96792400D01*
X84308500Y-97808400D01*
G36*
X83619525Y-96792496D02*
X83477666Y-96794023D01*
X83359051Y-96799526D01*
X83261637Y-96810593D01*
X83183382Y-96828810D01*
X83122243Y-96855765D01*
X83076176Y-96893044D01*
X83043138Y-96942235D01*
X83021088Y-97004924D01*
X83007982Y-97082699D01*
X83001776Y-97177146D01*
X83000400Y-97273452D01*
X83003086Y-97402945D01*
X83011765Y-97509768D01*
X83027368Y-97596140D01*
X83050826Y-97664281D01*
X83083071Y-97716412D01*
X83125034Y-97754752D01*
X83177647Y-97781522D01*
X83218749Y-97793952D01*
X83252267Y-97798797D01*
X83307403Y-97802824D01*
X83380383Y-97805874D01*
X83467434Y-97807785D01*
X83558474Y-97808400D01*
X83838600Y-97808400D01*
X83838600Y-97694100D01*
X83711600Y-97694100D01*
X83505225Y-97694029D01*
X83431493Y-97693210D01*
X83363229Y-97690997D01*
X83306024Y-97687678D01*
X83265470Y-97683543D01*
X83252042Y-97680957D01*
X83198984Y-97653641D01*
X83158451Y-97606796D01*
X83133823Y-97544591D01*
X83131345Y-97532114D01*
X83126577Y-97488824D01*
X83123488Y-97428779D01*
X83122004Y-97357829D01*
X83122055Y-97281827D01*
X83123568Y-97206624D01*
X83126472Y-97138072D01*
X83130693Y-97082020D01*
X83136162Y-97044322D01*
X83137398Y-97039504D01*
X83152188Y-96998435D01*
X83171799Y-96966650D01*
X83199394Y-96943007D01*
X83238137Y-96926366D01*
X83291191Y-96915584D01*
X83361721Y-96909519D01*
X83452891Y-96907030D01*
X83505225Y-96906770D01*
X83711600Y-96906700D01*
X83711600Y-97694100D01*
X83838600Y-97694100D01*
X83838600Y-96792400D01*
X83619525Y-96792496D01*
X83619525Y-96792496D01*
G37*
X83619525Y-96792496D02*
X83477666Y-96794023D01*
X83359051Y-96799526D01*
X83261637Y-96810593D01*
X83183382Y-96828810D01*
X83122243Y-96855765D01*
X83076176Y-96893044D01*
X83043138Y-96942235D01*
X83021088Y-97004924D01*
X83007982Y-97082699D01*
X83001776Y-97177146D01*
X83000400Y-97273452D01*
X83003086Y-97402945D01*
X83011765Y-97509768D01*
X83027368Y-97596140D01*
X83050826Y-97664281D01*
X83083071Y-97716412D01*
X83125034Y-97754752D01*
X83177647Y-97781522D01*
X83218749Y-97793952D01*
X83252267Y-97798797D01*
X83307403Y-97802824D01*
X83380383Y-97805874D01*
X83467434Y-97807785D01*
X83558474Y-97808400D01*
X83838600Y-97808400D01*
X83838600Y-97694100D01*
X83711600Y-97694100D01*
X83505225Y-97694029D01*
X83431493Y-97693210D01*
X83363229Y-97690997D01*
X83306024Y-97687678D01*
X83265470Y-97683543D01*
X83252042Y-97680957D01*
X83198984Y-97653641D01*
X83158451Y-97606796D01*
X83133823Y-97544591D01*
X83131345Y-97532114D01*
X83126577Y-97488824D01*
X83123488Y-97428779D01*
X83122004Y-97357829D01*
X83122055Y-97281827D01*
X83123568Y-97206624D01*
X83126472Y-97138072D01*
X83130693Y-97082020D01*
X83136162Y-97044322D01*
X83137398Y-97039504D01*
X83152188Y-96998435D01*
X83171799Y-96966650D01*
X83199394Y-96943007D01*
X83238137Y-96926366D01*
X83291191Y-96915584D01*
X83361721Y-96909519D01*
X83452891Y-96907030D01*
X83505225Y-96906770D01*
X83711600Y-96906700D01*
X83711600Y-97694100D01*
X83838600Y-97694100D01*
X83838600Y-96792400D01*
X83619525Y-96792496D01*
G36*
X80727100Y-96906700D02*
X81247800Y-96906700D01*
X81247800Y-97236900D01*
X80739800Y-97236900D01*
X80739800Y-97338500D01*
X81247800Y-97338500D01*
X81247800Y-97694100D01*
X80727100Y-97694100D01*
X80727100Y-97808400D01*
X81374800Y-97808400D01*
X81374800Y-96792400D01*
X80727100Y-96792400D01*
X80727100Y-96906700D01*
X80727100Y-96906700D01*
G37*
X80727100Y-96906700D02*
X81247800Y-96906700D01*
X81247800Y-97236900D01*
X80739800Y-97236900D01*
X80739800Y-97338500D01*
X81247800Y-97338500D01*
X81247800Y-97694100D01*
X80727100Y-97694100D01*
X80727100Y-97808400D01*
X81374800Y-97808400D01*
X81374800Y-96792400D01*
X80727100Y-96792400D01*
X80727100Y-96906700D01*
%LPC*%
D16*
X87500000Y-88200000D03*
D17*
X89000000Y-89900000D03*
X91000000Y-89900000D03*
X93000000Y-89900000D03*
X95000000Y-89900000D03*
D16*
X91900000Y-113100000D03*
D17*
X90400000Y-111400000D03*
X88400000Y-111400000D03*
D16*
X106100000Y-117300000D03*
D17*
X104600000Y-115600000D03*
X102600000Y-115600000D03*
D16*
X106700000Y-88200000D03*
D17*
X108200000Y-89900000D03*
X110200000Y-89900000D03*
D16*
X98900000Y-117300000D03*
D17*
X97400000Y-115600000D03*
X95400000Y-115600000D03*
D16*
X113100000Y-113100000D03*
D17*
X111600000Y-111400000D03*
X109600000Y-111400000D03*
D16*
X99100000Y-88200000D03*
D17*
X100600000Y-89900000D03*
X102600000Y-89900000D03*
D16*
X98900000Y-110900000D03*
D17*
X97400000Y-109200000D03*
X95400000Y-109200000D03*
D16*
X106100000Y-110900000D03*
D17*
X104600000Y-109200000D03*
X102600000Y-109200000D03*
D18*
X108060000Y-101570000D03*
X109330000Y-101570000D03*
X108060000Y-100300000D03*
X109330000Y-100300000D03*
X108060000Y-99030000D03*
X109330000Y-99030000D03*
D19*
X108695000Y-102840000D03*
X107679000Y-97760000D03*
X109711000Y-97760000D03*
D20*
X81800000Y-102200000D03*
X83200000Y-102200000D03*
D10*
G36*
X98611612Y-97951992D02*
X99248008Y-98588388D01*
X98717678Y-99118718D01*
X98081282Y-98482322D01*
X98611612Y-97951992D01*
X98611612Y-97951992D01*
G37*
G36*
X97621662Y-98941942D02*
X98258058Y-99578338D01*
X97727728Y-100108668D01*
X97091332Y-99472272D01*
X97621662Y-98941942D01*
X97621662Y-98941942D01*
G37*
D20*
X87100000Y-102900000D03*
X85700000Y-102900000D03*
X91100000Y-93900000D03*
X92500000Y-93900000D03*
M02*
