  0
SECTION
  2
HEADER
  9
$ANGBASE
  50
0.0
  9
$ANGDIR
  70
  1
  9
$MEASUREMENT
  70
0
  0
ENDSEC
  0
SECTION
  2
TABLES
  0
TABLE
  2
LTYPE
  70
1
  0
LTYPE
  2
CONTINUOUS
  70
0
  3
Solid line
  72
65
  73
0
  40
0.0
  0
ENDTAB
  0
TABLE
  2
STYLE
  70
4
  0
STYLE
  2
KICAD
  70
0
  40
0
  41
1
  42
1
  50
0
  71
0
  3
isocp.shx
  0
STYLE
  2
KICADB
  70
0
  40
0
  41
1
  42
1
  50
0
  71
0
  3
isocp.shx
  0
STYLE
  2
KICADI
  70
0
  40
0
  41
1
  42
1
  50
15
  71
0
  3
isocp.shx
  0
STYLE
  2
KICADBI
  70
0
  40
0
  41
1
  42
1
  50
15
  71
0
  3
isocp.shx
  0
ENDTAB
  0
TABLE
  2
LAYER
  70
30
  0
LAYER
  2
BLACK
  70
0
  62
7
  6
CONTINUOUS
  0
LAYER
  2
GRAY1
  70
0
  62
251
  6
CONTINUOUS
  0
LAYER
  2
GRAY2
  70
0
  62
8
  6
CONTINUOUS
  0
LAYER
  2
GRAY3
  70
0
  62
9
  6
CONTINUOUS
  0
LAYER
  2
WHITE
  70
0
  62
7
  6
CONTINUOUS
  0
LAYER
  2
LYELLOW
  70
0
  62
51
  6
CONTINUOUS
  0
LAYER
  2
BLUE1
  70
0
  62
178
  6
CONTINUOUS
  0
LAYER
  2
GREEN1
  70
0
  62
98
  6
CONTINUOUS
  0
LAYER
  2
CYAN1
  70
0
  62
138
  6
CONTINUOUS
  0
LAYER
  2
RED1
  70
0
  62
18
  6
CONTINUOUS
  0
LAYER
  2
MAGENTA1
  70
0
  62
228
  6
CONTINUOUS
  0
LAYER
  2
BROWN1
  70
0
  62
58
  6
CONTINUOUS
  0
LAYER
  2
BLUE2
  70
0
  62
5
  6
CONTINUOUS
  0
LAYER
  2
GREEN2
  70
0
  62
3
  6
CONTINUOUS
  0
LAYER
  2
CYAN2
  70
0
  62
4
  6
CONTINUOUS
  0
LAYER
  2
RED2
  70
0
  62
1
  6
CONTINUOUS
  0
LAYER
  2
MAGENTA2
  70
0
  62
6
  6
CONTINUOUS
  0
LAYER
  2
BROWN2
  70
0
  62
54
  6
CONTINUOUS
  0
LAYER
  2
BLUE3
  70
0
  62
171
  6
CONTINUOUS
  0
LAYER
  2
GREEN3
  70
0
  62
91
  6
CONTINUOUS
  0
LAYER
  2
CYAN3
  70
0
  62
131
  6
CONTINUOUS
  0
LAYER
  2
RED3
  70
0
  62
11
  6
CONTINUOUS
  0
LAYER
  2
MAGENTA3
  70
0
  62
221
  6
CONTINUOUS
  0
LAYER
  2
YELLOW3
  70
0
  62
2
  6
CONTINUOUS
  0
LAYER
  2
BLUE4
  70
0
  62
5
  6
CONTINUOUS
  0
LAYER
  2
GREEN4
  70
0
  62
3
  6
CONTINUOUS
  0
LAYER
  2
CYAN4
  70
0
  62
4
  6
CONTINUOUS
  0
LAYER
  2
RED4
  70
0
  62
1
  6
CONTINUOUS
  0
LAYER
  2
MAGENTA4
  70
0
  62
6
  6
CONTINUOUS
  0
LAYER
  2
YELLOW4
  70
0
  62
2
  6
CONTINUOUS
  0
ENDTAB
  0
ENDSEC
  0
SECTION
  2
ENTITIES
0
LINE
8
Black
10
0.458358
20
1.1664
11
0.835754
21
0.948513
0
LINE
8
Black
10
0.835754
20
0.948513
11
1.11587
21
0.614687
0
LINE
8
Black
10
1.11587
20
0.614687
11
1.26269
21
0.2113
0
LINE
8
Black
10
1.26269
20
0.2113
11
72.6626
21
0.2113
0
LINE
8
Black
10
72.6626
20
0.2113
11
72.6637
21
0.21141
0
LINE
8
Black
10
72.6637
20
0.21141
11
72.6638
21
0.21253
0
LINE
8
Black
10
72.6638
20
0.21253
11
72.6638
21
0.4043
0
LINE
8
Black
10
72.6638
20
0.4043
11
72.6642
21
0.406455
0
LINE
8
Black
10
72.6642
20
0.406455
11
72.6642
21
0.408641
0
LINE
8
Black
10
72.6642
20
0.408641
11
72.6649
21
0.410697
0
LINE
8
Black
10
72.6649
20
0.410697
11
72.6653
21
0.412851
0
LINE
8
Black
10
72.6653
20
0.412851
11
72.6664
21
0.414744
0
LINE
8
Black
10
72.6664
20
0.414744
11
72.6671
21
0.4168
0
LINE
8
Black
10
72.6671
20
0.4168
11
72.6686
21
0.418477
0
LINE
8
Black
10
72.6686
20
0.418477
11
72.6696
21
0.42037
0
LINE
8
Black
10
72.6696
20
0.42037
11
72.6713
21
0.421776
0
LINE
8
Black
10
72.6713
20
0.421776
11
72.6727
21
0.423451
0
LINE
8
Black
10
72.6727
20
0.423451
11
72.6746
21
0.424544
0
LINE
8
Black
10
72.6746
20
0.424544
11
72.6763
21
0.425951
0
LINE
8
Black
10
72.6763
20
0.425951
11
72.6784
21
0.426699
0
LINE
8
Black
10
72.6784
20
0.426699
11
72.6802
21
0.427792
0
LINE
8
Black
10
72.6802
20
0.427792
11
72.6824
21
0.428172
0
LINE
8
Black
10
72.6824
20
0.428172
11
72.6845
21
0.42892
0
LINE
8
Black
10
72.6845
20
0.42892
11
72.6866
21
0.42892
0
LINE
8
Black
10
72.6866
20
0.42892
11
72.6888
21
0.4293
0
LINE
8
Black
10
72.6888
20
0.4293
11
87.6054
21
0.4293
0
LINE
8
Black
10
87.6054
20
0.4293
11
87.6065
21
0.429109
0
LINE
8
Black
10
87.6065
20
0.429109
11
87.6076
21
0.429205
0
LINE
8
Black
10
87.6076
20
0.429205
11
87.6108
21
0.428359
0
LINE
8
Black
10
87.6108
20
0.428359
11
87.614
21
0.427792
0
LINE
8
Black
10
87.614
20
0.427792
11
87.6149
21
0.427243
0
LINE
8
Black
10
87.6149
20
0.427243
11
87.616
21
0.426958
0
LINE
8
Black
10
87.616
20
0.426958
11
87.6187
21
0.425083
0
LINE
8
Black
10
87.6187
20
0.425083
11
87.6215
21
0.423451
0
LINE
8
Black
10
87.6215
20
0.423451
11
87.6222
21
0.422609
0
LINE
8
Black
10
87.6222
20
0.422609
11
87.6231
21
0.421978
0
LINE
8
Black
10
87.6231
20
0.421978
11
88.4285
21
-0.383378
0
LINE
8
Black
10
88.4285
20
-0.383378
11
88.4291
21
-0.384278
0
LINE
8
Black
10
88.4291
20
-0.384278
11
88.43
21
-0.384986
0
LINE
8
Black
10
88.43
20
-0.384986
11
88.4316
21
-0.387817
0
LINE
8
Black
10
88.4316
20
-0.387817
11
88.4335
21
-0.390491
0
LINE
8
Black
10
88.4335
20
-0.390491
11
88.4337
21
-0.391554
0
LINE
8
Black
10
88.4337
20
-0.391554
11
88.4343
21
-0.392505
0
LINE
8
Black
10
88.4343
20
-0.392505
11
88.4349
21
-0.395719
0
LINE
8
Black
10
88.4349
20
-0.395719
11
88.4357
21
-0.398877
0
LINE
8
Black
10
88.4357
20
-0.398877
11
88.4356
21
-0.399973
0
LINE
8
Black
10
88.4356
20
-0.399973
11
88.4358
21
-0.401056
0
LINE
8
Black
10
88.4358
20
-0.401056
11
88.4358
21
-19.7875
0
LINE
8
Black
10
88.4358
20
-19.7875
11
88.4359
21
-19.7886
0
LINE
8
Black
10
88.4359
20
-19.7886
11
88.437
21
-19.7887
0
LINE
8
Black
10
88.437
20
-19.7887
11
105.711
21
-19.7887
0
LINE
8
Black
10
105.711
20
-19.7887
11
105.713
21
-19.7891
0
LINE
8
Black
10
105.713
20
-19.7891
11
105.715
21
-19.7891
0
LINE
8
Black
10
105.715
20
-19.7891
11
105.717
21
-19.7898
0
LINE
8
Black
10
105.717
20
-19.7898
11
105.72
21
-19.7902
0
LINE
8
Black
10
105.72
20
-19.7902
11
105.722
21
-19.7913
0
LINE
8
Black
10
105.722
20
-19.7913
11
105.724
21
-19.792
0
LINE
8
Black
10
105.724
20
-19.792
11
105.725
21
-19.7935
0
LINE
8
Black
10
105.725
20
-19.7935
11
105.727
21
-19.7945
0
LINE
8
Black
10
105.727
20
-19.7945
11
105.729
21
-19.7962
0
LINE
8
Black
10
105.729
20
-19.7962
11
105.73
21
-19.7976
0
LINE
8
Black
10
105.73
20
-19.7976
11
105.731
21
-19.7995
0
LINE
8
Black
10
105.731
20
-19.7995
11
105.733
21
-19.8012
0
LINE
8
Black
10
105.733
20
-19.8012
11
105.733
21
-19.8033
0
LINE
8
Black
10
105.733
20
-19.8033
11
105.735
21
-19.8051
0
LINE
8
Black
10
105.735
20
-19.8051
11
105.735
21
-19.8073
0
LINE
8
Black
10
105.735
20
-19.8073
11
105.736
21
-19.8094
0
LINE
8
Black
10
105.736
20
-19.8094
11
105.736
21
-19.8115
0
LINE
8
Black
10
105.736
20
-19.8115
11
105.736
21
-19.8137
0
LINE
8
Black
10
105.736
20
-19.8137
11
105.736
21
-19.874
0
LINE
8
Black
10
105.736
20
-19.874
11
105.736
21
-19.8751
0
LINE
8
Black
10
105.736
20
-19.8751
11
105.737
21
-19.8752
0
LINE
8
Black
10
105.737
20
-19.8752
11
131.738
21
-19.8752
0
LINE
8
Black
10
131.738
20
-19.8752
11
131.739
21
-19.8754
0
LINE
8
Black
10
131.739
20
-19.8754
11
131.741
21
-19.8753
0
LINE
8
Black
10
131.741
20
-19.8753
11
131.744
21
-19.8761
0
LINE
8
Black
10
131.744
20
-19.8761
11
131.747
21
-19.8767
0
LINE
8
Black
10
131.747
20
-19.8767
11
131.748
21
-19.8773
0
LINE
8
Black
10
131.748
20
-19.8773
11
131.749
21
-19.8775
0
LINE
8
Black
10
131.749
20
-19.8775
11
131.752
21
-19.8794
0
LINE
8
Black
10
131.752
20
-19.8794
11
131.754
21
-19.881
0
LINE
8
Black
10
131.754
20
-19.881
11
131.755
21
-19.8819
0
LINE
8
Black
10
131.755
20
-19.8819
11
131.756
21
-19.8825
0
LINE
8
Black
10
131.756
20
-19.8825
11
132.106
21
-20.2328
0
LINE
8
Black
10
132.106
20
-20.2328
11
132.107
21
-20.2337
0
LINE
8
Black
10
132.107
20
-20.2337
11
132.108
21
-20.2344
0
LINE
8
Black
10
132.108
20
-20.2344
11
132.109
21
-20.2372
0
LINE
8
Black
10
132.109
20
-20.2372
11
132.111
21
-20.2399
0
LINE
8
Black
10
132.111
20
-20.2399
11
132.112
21
-20.241
0
LINE
8
Black
10
132.112
20
-20.241
11
132.112
21
-20.2419
0
LINE
8
Black
10
132.112
20
-20.2419
11
132.113
21
-20.2451
0
LINE
8
Black
10
132.113
20
-20.2451
11
132.114
21
-20.2483
0
LINE
8
Black
10
132.114
20
-20.2483
11
132.113
21
-20.2494
0
LINE
8
Black
10
132.113
20
-20.2494
11
132.114
21
-20.2505
0
LINE
8
Black
10
132.114
20
-20.2505
11
132.114
21
-30.0115
0
LINE
8
Black
10
132.114
20
-30.0115
11
132.114
21
-30.0126
0
LINE
8
Black
10
132.114
20
-30.0126
11
132.115
21
-30.0127
0
LINE
8
Black
10
132.115
20
-30.0127
11
160.966
21
-30.0127
0
LINE
8
Black
10
160.966
20
-30.0127
11
160.967
21
-30.0129
0
LINE
8
Black
10
160.967
20
-30.0129
11
160.968
21
-30.0128
0
LINE
8
Black
10
160.968
20
-30.0128
11
160.971
21
-30.0136
0
LINE
8
Black
10
160.971
20
-30.0136
11
160.974
21
-30.0142
0
LINE
8
Black
10
160.974
20
-30.0142
11
160.975
21
-30.0148
0
LINE
8
Black
10
160.975
20
-30.0148
11
160.976
21
-30.015
0
LINE
8
Black
10
160.976
20
-30.015
11
160.979
21
-30.0169
0
LINE
8
Black
10
160.979
20
-30.0169
11
160.982
21
-30.0185
0
LINE
8
Black
10
160.982
20
-30.0185
11
160.983
21
-30.0194
0
LINE
8
Black
10
160.983
20
-30.0194
11
160.983
21
-30.02
0
LINE
8
Black
10
160.983
20
-30.02
11
163.469
21
-32.5054
0
LINE
8
Black
10
163.469
20
-32.5054
11
163.469
21
-32.5063
0
LINE
8
Black
10
163.469
20
-32.5063
11
163.47
21
-32.507
0
LINE
8
Black
10
163.47
20
-32.507
11
163.472
21
-32.5098
0
LINE
8
Black
10
163.472
20
-32.5098
11
163.474
21
-32.5125
0
LINE
8
Black
10
163.474
20
-32.5125
11
163.474
21
-32.5136
0
LINE
8
Black
10
163.474
20
-32.5136
11
163.475
21
-32.5145
0
LINE
8
Black
10
163.475
20
-32.5145
11
163.475
21
-32.5177
0
LINE
8
Black
10
163.475
20
-32.5177
11
163.476
21
-32.5209
0
LINE
8
Black
10
163.476
20
-32.5209
11
163.476
21
-32.522
0
LINE
8
Black
10
163.476
20
-32.522
11
163.476
21
-32.5231
0
LINE
8
Black
10
163.476
20
-32.5231
11
163.476
21
-92.9877
0
LINE
8
Black
10
163.476
20
-92.9877
11
163.476
21
-92.9899
0
LINE
8
Black
10
163.476
20
-92.9899
11
163.476
21
-92.992
0
LINE
8
Black
10
163.476
20
-92.992
11
163.475
21
-92.9941
0
LINE
8
Black
10
163.475
20
-92.9941
11
163.475
21
-92.9963
0
LINE
8
Black
10
163.475
20
-92.9963
11
163.473
21
-92.9981
0
LINE
8
Black
10
163.473
20
-92.9981
11
163.473
21
-93.0002
0
LINE
8
Black
10
163.473
20
-93.0002
11
163.471
21
-93.0019
0
LINE
8
Black
10
163.471
20
-93.0019
11
163.47
21
-93.0038
0
LINE
8
Black
10
163.47
20
-93.0038
11
163.469
21
-93.0052
0
LINE
8
Black
10
163.469
20
-93.0052
11
163.467
21
-93.0069
0
LINE
8
Black
10
163.467
20
-93.0069
11
163.465
21
-93.0079
0
LINE
8
Black
10
163.465
20
-93.0079
11
163.464
21
-93.0094
0
LINE
8
Black
10
163.464
20
-93.0094
11
163.462
21
-93.0101
0
LINE
8
Black
10
163.462
20
-93.0101
11
163.46
21
-93.0112
0
LINE
8
Black
10
163.46
20
-93.0112
11
163.457
21
-93.0116
0
LINE
8
Black
10
163.457
20
-93.0116
11
163.455
21
-93.0123
0
LINE
8
Black
10
163.455
20
-93.0123
11
163.453
21
-93.0123
0
LINE
8
Black
10
163.453
20
-93.0123
11
163.451
21
-93.0127
0
LINE
8
Black
10
163.451
20
-93.0127
11
102.986
21
-93.0127
0
LINE
8
Black
10
102.986
20
-93.0127
11
102.985
21
-93.0125
0
LINE
8
Black
10
102.985
20
-93.0125
11
102.984
21
-93.0126
0
LINE
8
Black
10
102.984
20
-93.0126
11
102.981
21
-93.0118
0
LINE
8
Black
10
102.981
20
-93.0118
11
102.978
21
-93.0112
0
LINE
8
Black
10
102.978
20
-93.0112
11
102.977
21
-93.0106
0
LINE
8
Black
10
102.977
20
-93.0106
11
102.976
21
-93.0104
0
LINE
8
Black
10
102.976
20
-93.0104
11
102.973
21
-93.0085
0
LINE
8
Black
10
102.973
20
-93.0085
11
102.97
21
-93.0069
0
LINE
8
Black
10
102.97
20
-93.0069
11
102.97
21
-93.006
0
LINE
8
Black
10
102.97
20
-93.006
11
102.969
21
-93.0054
0
LINE
8
Black
10
102.969
20
-93.0054
11
100.483
21
-90.52
0
LINE
8
Black
10
100.483
20
-90.52
11
100.483
21
-90.5191
0
LINE
8
Black
10
100.483
20
-90.5191
11
100.482
21
-90.5184
0
LINE
8
Black
10
100.482
20
-90.5184
11
100.48
21
-90.5156
0
LINE
8
Black
10
100.48
20
-90.5156
11
100.478
21
-90.5129
0
LINE
8
Black
10
100.478
20
-90.5129
11
100.478
21
-90.5118
0
LINE
8
Black
10
100.478
20
-90.5118
11
100.478
21
-90.5109
0
LINE
8
Black
10
100.478
20
-90.5109
11
100.477
21
-90.5077
0
LINE
8
Black
10
100.477
20
-90.5077
11
100.476
21
-90.5045
0
LINE
8
Black
10
100.476
20
-90.5045
11
100.476
21
-90.5034
0
LINE
8
Black
10
100.476
20
-90.5034
11
100.476
21
-90.5023
0
LINE
8
Black
10
100.476
20
-90.5023
11
100.476
21
-30.0377
0
LINE
8
Black
10
100.476
20
-30.0377
11
100.476
21
-30.0355
0
LINE
8
Black
10
100.476
20
-30.0355
11
100.476
21
-30.0334
0
LINE
8
Black
10
100.476
20
-30.0334
11
100.477
21
-30.0313
0
LINE
8
Black
10
100.477
20
-30.0313
11
100.478
21
-30.0291
0
LINE
8
Black
10
100.478
20
-30.0291
11
100.479
21
-30.0273
0
LINE
8
Black
10
100.479
20
-30.0273
11
100.479
21
-30.0252
0
LINE
8
Black
10
100.479
20
-30.0252
11
100.481
21
-30.0235
0
LINE
8
Black
10
100.481
20
-30.0235
11
100.482
21
-30.0216
0
LINE
8
Black
10
100.482
20
-30.0216
11
100.484
21
-30.0202
0
LINE
8
Black
10
100.484
20
-30.0202
11
100.485
21
-30.0185
0
LINE
8
Black
10
100.485
20
-30.0185
11
100.487
21
-30.0175
0
LINE
8
Black
10
100.487
20
-30.0175
11
100.489
21
-30.016
0
LINE
8
Black
10
100.489
20
-30.016
11
100.491
21
-30.0153
0
LINE
8
Black
10
100.491
20
-30.0153
11
100.493
21
-30.0142
0
LINE
8
Black
10
100.493
20
-30.0142
11
100.495
21
-30.0138
0
LINE
8
Black
10
100.495
20
-30.0138
11
100.497
21
-30.0131
0
LINE
8
Black
10
100.497
20
-30.0131
11
100.499
21
-30.0131
0
LINE
8
Black
10
100.499
20
-30.0131
11
100.501
21
-30.0127
0
LINE
8
Black
10
100.501
20
-30.0127
11
131.837
21
-30.0127
0
LINE
8
Black
10
131.837
20
-30.0127
11
131.838
21
-30.0126
0
LINE
8
Black
10
131.838
20
-30.0126
11
131.839
21
-30.0115
0
LINE
8
Black
10
131.839
20
-30.0115
11
131.839
21
-20.1514
0
LINE
8
Black
10
131.839
20
-20.1514
11
131.838
21
-20.1503
0
LINE
8
Black
10
131.838
20
-20.1503
11
131.837
21
-20.1502
0
LINE
8
Black
10
131.837
20
-20.1502
11
105.737
21
-20.1502
0
LINE
8
Black
10
105.737
20
-20.1502
11
105.736
21
-20.1503
0
LINE
8
Black
10
105.736
20
-20.1503
11
105.736
21
-20.1514
0
LINE
8
Black
10
105.736
20
-20.1514
11
105.736
21
-20.2117
0
LINE
8
Black
10
105.736
20
-20.2117
11
105.736
21
-20.2139
0
LINE
8
Black
10
105.736
20
-20.2139
11
105.736
21
-20.216
0
LINE
8
Black
10
105.736
20
-20.216
11
105.735
21
-20.2181
0
LINE
8
Black
10
105.735
20
-20.2181
11
105.735
21
-20.2203
0
LINE
8
Black
10
105.735
20
-20.2203
11
105.733
21
-20.2221
0
LINE
8
Black
10
105.733
20
-20.2221
11
105.733
21
-20.2242
0
LINE
8
Black
10
105.733
20
-20.2242
11
105.731
21
-20.2259
0
LINE
8
Black
10
105.731
20
-20.2259
11
105.73
21
-20.2278
0
LINE
8
Black
10
105.73
20
-20.2278
11
105.729
21
-20.2292
0
LINE
8
Black
10
105.729
20
-20.2292
11
105.727
21
-20.2309
0
LINE
8
Black
10
105.727
20
-20.2309
11
105.725
21
-20.2319
0
LINE
8
Black
10
105.725
20
-20.2319
11
105.724
21
-20.2334
0
LINE
8
Black
10
105.724
20
-20.2334
11
105.722
21
-20.2341
0
LINE
8
Black
10
105.722
20
-20.2341
11
105.72
21
-20.2352
0
LINE
8
Black
10
105.72
20
-20.2352
11
105.717
21
-20.2356
0
LINE
8
Black
10
105.717
20
-20.2356
11
105.715
21
-20.2363
0
LINE
8
Black
10
105.715
20
-20.2363
11
105.713
21
-20.2363
0
LINE
8
Black
10
105.713
20
-20.2363
11
105.711
21
-20.2367
0
LINE
8
Black
10
105.711
20
-20.2367
11
88.2919
21
-20.2367
0
LINE
8
Black
10
88.2919
20
-20.2367
11
88.2908
21
-20.2365
0
LINE
8
Black
10
88.2908
20
-20.2365
11
88.2897
21
-20.2366
0
LINE
8
Black
10
88.2897
20
-20.2366
11
88.2865
21
-20.2358
0
LINE
8
Black
10
88.2865
20
-20.2358
11
88.2833
21
-20.2352
0
LINE
8
Black
10
88.2833
20
-20.2352
11
88.2824
21
-20.2346
0
LINE
8
Black
10
88.2824
20
-20.2346
11
88.2813
21
-20.2344
0
LINE
8
Black
10
88.2813
20
-20.2344
11
88.2786
21
-20.2325
0
LINE
8
Black
10
88.2786
20
-20.2325
11
88.2758
21
-20.2309
0
LINE
8
Black
10
88.2758
20
-20.2309
11
88.2751
21
-20.23
0
LINE
8
Black
10
88.2751
20
-20.23
11
88.2742
21
-20.2294
0
LINE
8
Black
10
88.2742
20
-20.2294
11
88.0584
21
-20.0136
0
LINE
8
Black
10
88.0584
20
-20.0136
11
88.0575
21
-20.0128
0
LINE
8
Black
10
88.0575
20
-20.0128
11
88.0563
21
-20.0127
0
LINE
8
Black
10
88.0563
20
-20.0127
11
87.9313
21
-20.0127
0
LINE
8
Black
10
87.9313
20
-20.0127
11
87.9301
21
-20.0128
0
LINE
8
Black
10
87.9301
20
-20.0128
11
87.9292
21
-20.0136
0
LINE
8
Black
10
87.9292
20
-20.0136
11
87.7134
21
-20.2294
0
LINE
8
Black
10
87.7134
20
-20.2294
11
87.7125
21
-20.23
0
LINE
8
Black
10
87.7125
20
-20.23
11
87.7118
21
-20.2309
0
LINE
8
Black
10
87.7118
20
-20.2309
11
87.709
21
-20.2325
0
LINE
8
Black
10
87.709
20
-20.2325
11
87.7063
21
-20.2344
0
LINE
8
Black
10
87.7063
20
-20.2344
11
87.7052
21
-20.2346
0
LINE
8
Black
10
87.7052
20
-20.2346
11
87.7043
21
-20.2352
0
LINE
8
Black
10
87.7043
20
-20.2352
11
87.7011
21
-20.2358
0
LINE
8
Black
10
87.7011
20
-20.2358
11
87.6979
21
-20.2366
0
LINE
8
Black
10
87.6979
20
-20.2366
11
87.6968
21
-20.2365
0
LINE
8
Black
10
87.6968
20
-20.2365
11
87.6957
21
-20.2367
0
LINE
8
Black
10
87.6957
20
-20.2367
11
70.2765
21
-20.2367
0
LINE
8
Black
10
70.2765
20
-20.2367
11
70.2743
21
-20.2363
0
LINE
8
Black
10
70.2743
20
-20.2363
11
70.2722
21
-20.2363
0
LINE
8
Black
10
70.2722
20
-20.2363
11
70.2701
21
-20.2356
0
LINE
8
Black
10
70.2701
20
-20.2356
11
70.2679
21
-20.2352
0
LINE
8
Black
10
70.2679
20
-20.2352
11
70.2661
21
-20.2341
0
LINE
8
Black
10
70.2661
20
-20.2341
11
70.264
21
-20.2334
0
LINE
8
Black
10
70.264
20
-20.2334
11
70.2623
21
-20.2319
0
LINE
8
Black
10
70.2623
20
-20.2319
11
70.2604
21
-20.2309
0
LINE
8
Black
10
70.2604
20
-20.2309
11
70.259
21
-20.2292
0
LINE
8
Black
10
70.259
20
-20.2292
11
70.2573
21
-20.2278
0
LINE
8
Black
10
70.2573
20
-20.2278
11
70.2563
21
-20.2259
0
LINE
8
Black
10
70.2563
20
-20.2259
11
70.2548
21
-20.2242
0
LINE
8
Black
10
70.2548
20
-20.2242
11
70.2541
21
-20.2221
0
LINE
8
Black
10
70.2541
20
-20.2221
11
70.253
21
-20.2203
0
LINE
8
Black
10
70.253
20
-20.2203
11
70.2526
21
-20.2181
0
LINE
8
Black
10
70.2526
20
-20.2181
11
70.2519
21
-20.216
0
LINE
8
Black
10
70.2519
20
-20.216
11
70.2519
21
-20.2139
0
LINE
8
Black
10
70.2519
20
-20.2139
11
70.2515
21
-20.2117
0
LINE
8
Black
10
70.2515
20
-20.2117
11
70.2515
21
-20.1514
0
LINE
8
Black
10
70.2515
20
-20.1514
11
70.2514
21
-20.1503
0
LINE
8
Black
10
70.2514
20
-20.1503
11
70.2503
21
-20.1502
0
LINE
8
Black
10
70.2503
20
-20.1502
11
44.1502
21
-20.1502
0
LINE
8
Black
10
44.1502
20
-20.1502
11
44.1491
21
-20.1503
0
LINE
8
Black
10
44.1491
20
-20.1503
11
44.149
21
-20.1514
0
LINE
8
Black
10
44.149
20
-20.1514
11
44.149
21
-30.0115
0
LINE
8
Black
10
44.149
20
-30.0115
11
44.1491
21
-30.0126
0
LINE
8
Black
10
44.1491
20
-30.0126
11
44.1502
21
-30.0127
0
LINE
8
Black
10
44.1502
20
-30.0127
11
73.0011
21
-30.0127
0
LINE
8
Black
10
73.0011
20
-30.0127
11
73.0022
21
-30.0129
0
LINE
8
Black
10
73.0022
20
-30.0129
11
73.0033
21
-30.0128
0
LINE
8
Black
10
73.0033
20
-30.0128
11
73.0065
21
-30.0136
0
LINE
8
Black
10
73.0065
20
-30.0136
11
73.0097
21
-30.0142
0
LINE
8
Black
10
73.0097
20
-30.0142
11
73.0106
21
-30.0148
0
LINE
8
Black
10
73.0106
20
-30.0148
11
73.0117
21
-30.015
0
LINE
8
Black
10
73.0117
20
-30.015
11
73.0144
21
-30.0169
0
LINE
8
Black
10
73.0144
20
-30.0169
11
73.0172
21
-30.0185
0
LINE
8
Black
10
73.0172
20
-30.0185
11
73.0179
21
-30.0194
0
LINE
8
Black
10
73.0179
20
-30.0194
11
73.0188
21
-30.02
0
LINE
8
Black
10
73.0188
20
-30.02
11
75.5042
21
-32.5054
0
LINE
8
Black
10
75.5042
20
-32.5054
11
75.5048
21
-32.5063
0
LINE
8
Black
10
75.5048
20
-32.5063
11
75.5057
21
-32.507
0
LINE
8
Black
10
75.5057
20
-32.507
11
75.5073
21
-32.5098
0
LINE
8
Black
10
75.5073
20
-32.5098
11
75.5092
21
-32.5125
0
LINE
8
Black
10
75.5092
20
-32.5125
11
75.5094
21
-32.5136
0
LINE
8
Black
10
75.5094
20
-32.5136
11
75.51
21
-32.5145
0
LINE
8
Black
10
75.51
20
-32.5145
11
75.5106
21
-32.5177
0
LINE
8
Black
10
75.5106
20
-32.5177
11
75.5114
21
-32.5209
0
LINE
8
Black
10
75.5114
20
-32.5209
11
75.5113
21
-32.522
0
LINE
8
Black
10
75.5113
20
-32.522
11
75.5115
21
-32.5231
0
LINE
8
Black
10
75.5115
20
-32.5231
11
75.5115
21
-92.9877
0
LINE
8
Black
10
75.5115
20
-92.9877
11
75.5111
21
-92.9899
0
LINE
8
Black
10
75.5111
20
-92.9899
11
75.5111
21
-92.992
0
LINE
8
Black
10
75.5111
20
-92.992
11
75.5104
21
-92.9941
0
LINE
8
Black
10
75.5104
20
-92.9941
11
75.51
21
-92.9963
0
LINE
8
Black
10
75.51
20
-92.9963
11
75.5089
21
-92.9981
0
LINE
8
Black
10
75.5089
20
-92.9981
11
75.5082
21
-93.0002
0
LINE
8
Black
10
75.5082
20
-93.0002
11
75.5067
21
-93.0019
0
LINE
8
Black
10
75.5067
20
-93.0019
11
75.5057
21
-93.0038
0
LINE
8
Black
10
75.5057
20
-93.0038
11
75.504
21
-93.0052
0
LINE
8
Black
10
75.504
20
-93.0052
11
75.5026
21
-93.0069
0
LINE
8
Black
10
75.5026
20
-93.0069
11
75.5007
21
-93.0079
0
LINE
8
Black
10
75.5007
20
-93.0079
11
75.499
21
-93.0094
0
LINE
8
Black
10
75.499
20
-93.0094
11
75.4969
21
-93.0101
0
LINE
8
Black
10
75.4969
20
-93.0101
11
75.4951
21
-93.0112
0
LINE
8
Black
10
75.4951
20
-93.0112
11
75.4929
21
-93.0116
0
LINE
8
Black
10
75.4929
20
-93.0116
11
75.4908
21
-93.0123
0
LINE
8
Black
10
75.4908
20
-93.0123
11
75.4887
21
-93.0123
0
LINE
8
Black
10
75.4887
20
-93.0123
11
75.4865
21
-93.0127
0
LINE
8
Black
10
75.4865
20
-93.0127
11
15.0219
21
-93.0127
0
LINE
8
Black
10
15.0219
20
-93.0127
11
15.0208
21
-93.0125
0
LINE
8
Black
10
15.0208
20
-93.0125
11
15.0197
21
-93.0126
0
LINE
8
Black
10
15.0197
20
-93.0126
11
15.0165
21
-93.0118
0
LINE
8
Black
10
15.0165
20
-93.0118
11
15.0133
21
-93.0112
0
LINE
8
Black
10
15.0133
20
-93.0112
11
15.0124
21
-93.0106
0
LINE
8
Black
10
15.0124
20
-93.0106
11
15.0113
21
-93.0104
0
LINE
8
Black
10
15.0113
20
-93.0104
11
15.0086
21
-93.0085
0
LINE
8
Black
10
15.0086
20
-93.0085
11
15.0058
21
-93.0069
0
LINE
8
Black
10
15.0058
20
-93.0069
11
15.0051
21
-93.006
0
LINE
8
Black
10
15.0051
20
-93.006
11
15.0042
21
-93.0054
0
LINE
8
Black
10
15.0042
20
-93.0054
11
12.5188
21
-90.52
0
LINE
8
Black
10
12.5188
20
-90.52
11
12.5182
21
-90.5191
0
LINE
8
Black
10
12.5182
20
-90.5191
11
12.5173
21
-90.5184
0
LINE
8
Black
10
12.5173
20
-90.5184
11
12.5157
21
-90.5156
0
LINE
8
Black
10
12.5157
20
-90.5156
11
12.5138
21
-90.5129
0
LINE
8
Black
10
12.5138
20
-90.5129
11
12.5136
21
-90.5118
0
LINE
8
Black
10
12.5136
20
-90.5118
11
12.513
21
-90.5109
0
LINE
8
Black
10
12.513
20
-90.5109
11
12.5124
21
-90.5077
0
LINE
8
Black
10
12.5124
20
-90.5077
11
12.5116
21
-90.5045
0
LINE
8
Black
10
12.5116
20
-90.5045
11
12.5117
21
-90.5034
0
LINE
8
Black
10
12.5117
20
-90.5034
11
12.5115
21
-90.5023
0
LINE
8
Black
10
12.5115
20
-90.5023
11
12.5115
21
-30.0377
0
LINE
8
Black
10
12.5115
20
-30.0377
11
12.5119
21
-30.0355
0
LINE
8
Black
10
12.5119
20
-30.0355
11
12.5119
21
-30.0334
0
LINE
8
Black
10
12.5119
20
-30.0334
11
12.5126
21
-30.0313
0
LINE
8
Black
10
12.5126
20
-30.0313
11
12.513
21
-30.0291
0
LINE
8
Black
10
12.513
20
-30.0291
11
12.5141
21
-30.0273
0
LINE
8
Black
10
12.5141
20
-30.0273
11
12.5148
21
-30.0252
0
LINE
8
Black
10
12.5148
20
-30.0252
11
12.5163
21
-30.0235
0
LINE
8
Black
10
12.5163
20
-30.0235
11
12.5173
21
-30.0216
0
LINE
8
Black
10
12.5173
20
-30.0216
11
12.519
21
-30.0202
0
LINE
8
Black
10
12.519
20
-30.0202
11
12.5204
21
-30.0185
0
LINE
8
Black
10
12.5204
20
-30.0185
11
12.5223
21
-30.0175
0
LINE
8
Black
10
12.5223
20
-30.0175
11
12.524
21
-30.016
0
LINE
8
Black
10
12.524
20
-30.016
11
12.5261
21
-30.0153
0
LINE
8
Black
10
12.5261
20
-30.0153
11
12.5279
21
-30.0142
0
LINE
8
Black
10
12.5279
20
-30.0142
11
12.5301
21
-30.0138
0
LINE
8
Black
10
12.5301
20
-30.0138
11
12.5322
21
-30.0131
0
LINE
8
Black
10
12.5322
20
-30.0131
11
12.5343
21
-30.0131
0
LINE
8
Black
10
12.5343
20
-30.0131
11
12.5365
21
-30.0127
0
LINE
8
Black
10
12.5365
20
-30.0127
11
43.8728
21
-30.0127
0
LINE
8
Black
10
43.8728
20
-30.0127
11
43.8739
21
-30.0126
0
LINE
8
Black
10
43.8739
20
-30.0126
11
43.874
21
-30.0115
0
LINE
8
Black
10
43.874
20
-30.0115
11
43.874
21
-20.2505
0
LINE
8
Black
10
43.874
20
-20.2505
11
43.8742
21
-20.2494
0
LINE
8
Black
10
43.8742
20
-20.2494
11
43.8741
21
-20.2483
0
LINE
8
Black
10
43.8741
20
-20.2483
11
43.8749
21
-20.2451
0
LINE
8
Black
10
43.8749
20
-20.2451
11
43.8755
21
-20.2419
0
LINE
8
Black
10
43.8755
20
-20.2419
11
43.8761
21
-20.241
0
LINE
8
Black
10
43.8761
20
-20.241
11
43.8763
21
-20.2399
0
LINE
8
Black
10
43.8763
20
-20.2399
11
43.8782
21
-20.2372
0
LINE
8
Black
10
43.8782
20
-20.2372
11
43.8798
21
-20.2344
0
LINE
8
Black
10
43.8798
20
-20.2344
11
43.8807
21
-20.2337
0
LINE
8
Black
10
43.8807
20
-20.2337
11
43.8813
21
-20.2328
0
LINE
8
Black
10
43.8813
20
-20.2328
11
44.2316
21
-19.8825
0
LINE
8
Black
10
44.2316
20
-19.8825
11
44.2325
21
-19.8819
0
LINE
8
Black
10
44.2325
20
-19.8819
11
44.2332
21
-19.881
0
LINE
8
Black
10
44.2332
20
-19.881
11
44.236
21
-19.8794
0
LINE
8
Black
10
44.236
20
-19.8794
11
44.2387
21
-19.8775
0
LINE
8
Black
10
44.2387
20
-19.8775
11
44.2398
21
-19.8773
0
LINE
8
Black
10
44.2398
20
-19.8773
11
44.2407
21
-19.8767
0
LINE
8
Black
10
44.2407
20
-19.8767
11
44.2439
21
-19.8761
0
LINE
8
Black
10
44.2439
20
-19.8761
11
44.2471
21
-19.8753
0
LINE
8
Black
10
44.2471
20
-19.8753
11
44.2482
21
-19.8754
0
LINE
8
Black
10
44.2482
20
-19.8754
11
44.2493
21
-19.8752
0
LINE
8
Black
10
44.2493
20
-19.8752
11
70.2503
21
-19.8752
0
LINE
8
Black
10
70.2503
20
-19.8752
11
70.2514
21
-19.8751
0
LINE
8
Black
10
70.2514
20
-19.8751
11
70.2515
21
-19.874
0
LINE
8
Black
10
70.2515
20
-19.874
11
70.2515
21
-19.8137
0
LINE
8
Black
10
70.2515
20
-19.8137
11
70.2519
21
-19.8115
0
LINE
8
Black
10
70.2519
20
-19.8115
11
70.2519
21
-19.8094
0
LINE
8
Black
10
70.2519
20
-19.8094
11
70.2526
21
-19.8073
0
LINE
8
Black
10
70.2526
20
-19.8073
11
70.253
21
-19.8051
0
LINE
8
Black
10
70.253
20
-19.8051
11
70.2541
21
-19.8033
0
LINE
8
Black
10
70.2541
20
-19.8033
11
70.2548
21
-19.8012
0
LINE
8
Black
10
70.2548
20
-19.8012
11
70.2563
21
-19.7995
0
LINE
8
Black
10
70.2563
20
-19.7995
11
70.2573
21
-19.7976
0
LINE
8
Black
10
70.2573
20
-19.7976
11
70.259
21
-19.7962
0
LINE
8
Black
10
70.259
20
-19.7962
11
70.2604
21
-19.7945
0
LINE
8
Black
10
70.2604
20
-19.7945
11
70.2623
21
-19.7935
0
LINE
8
Black
10
70.2623
20
-19.7935
11
70.264
21
-19.792
0
LINE
8
Black
10
70.264
20
-19.792
11
70.2661
21
-19.7913
0
LINE
8
Black
10
70.2661
20
-19.7913
11
70.2679
21
-19.7902
0
LINE
8
Black
10
70.2679
20
-19.7902
11
70.2701
21
-19.7898
0
LINE
8
Black
10
70.2701
20
-19.7898
11
70.2722
21
-19.7891
0
LINE
8
Black
10
70.2722
20
-19.7891
11
70.2743
21
-19.7891
0
LINE
8
Black
10
70.2743
20
-19.7891
11
70.2765
21
-19.7887
0
LINE
8
Black
10
70.2765
20
-19.7887
11
87.5506
21
-19.7887
0
LINE
8
Black
10
87.5506
20
-19.7887
11
87.5517
21
-19.7886
0
LINE
8
Black
10
87.5517
20
-19.7886
11
87.5518
21
-19.7875
0
LINE
8
Black
10
87.5518
20
-19.7875
11
87.5518
21
-0.45593
0
LINE
8
Black
10
87.5518
20
-0.45593
11
87.5517
21
-0.45481
0
LINE
8
Black
10
87.5517
20
-0.45481
11
87.5506
21
-0.4547
0
LINE
8
Black
10
87.5506
20
-0.4547
11
72.6888
21
-0.4547
0
LINE
8
Black
10
72.6888
20
-0.4547
11
72.6866
21
-0.45432
0
LINE
8
Black
10
72.6866
20
-0.45432
11
72.6845
21
-0.45432
0
LINE
8
Black
10
72.6845
20
-0.45432
11
72.6824
21
-0.453572
0
LINE
8
Black
10
72.6824
20
-0.453572
11
72.6802
21
-0.453192
0
LINE
8
Black
10
72.6802
20
-0.453192
11
72.6784
21
-0.452099
0
LINE
8
Black
10
72.6784
20
-0.452099
11
72.6763
21
-0.451351
0
LINE
8
Black
10
72.6763
20
-0.451351
11
72.6746
21
-0.449944
0
LINE
8
Black
10
72.6746
20
-0.449944
11
72.6727
21
-0.448851
0
LINE
8
Black
10
72.6727
20
-0.448851
11
72.6713
21
-0.447176
0
LINE
8
Black
10
72.6713
20
-0.447176
11
72.6696
21
-0.44577
0
LINE
8
Black
10
72.6696
20
-0.44577
11
72.6686
21
-0.443877
0
LINE
8
Black
10
72.6686
20
-0.443877
11
72.6671
21
-0.4422
0
LINE
8
Black
10
72.6671
20
-0.4422
11
72.6664
21
-0.440144
0
LINE
8
Black
10
72.6664
20
-0.440144
11
72.6653
21
-0.438251
0
LINE
8
Black
10
72.6653
20
-0.438251
11
72.6649
21
-0.436097
0
LINE
8
Black
10
72.6649
20
-0.436097
11
72.6642
21
-0.434041
0
LINE
8
Black
10
72.6642
20
-0.434041
11
72.6642
21
-0.431855
0
LINE
8
Black
10
72.6642
20
-0.431855
11
72.6638
21
-0.4297
0
LINE
8
Black
10
72.6638
20
-0.4297
11
72.6638
21
-0.23793
0
LINE
8
Black
10
72.6638
20
-0.23793
11
72.6637
21
-0.23681
0
LINE
8
Black
10
72.6637
20
-0.23681
11
72.6626
21
-0.2367
0
LINE
8
Black
10
72.6626
20
-0.2367
11
1.26269
21
-0.2367
0
LINE
8
Black
10
1.26269
20
-0.2367
11
1.11587
21
-0.640087
0
LINE
8
Black
10
1.11587
20
-0.640087
11
0.835754
21
-0.973913
0
LINE
8
Black
10
0.835754
20
-0.973913
11
0.458358
21
-1.1918
0
LINE
8
Black
10
0.458358
20
-1.1918
11
0.0292
21
-1.26747
0
LINE
8
Black
10
0.0292
20
-1.26747
11
-0.399958
21
-1.1918
0
LINE
8
Black
10
-0.399958
20
-1.1918
11
-0.777354
21
-0.973913
0
LINE
8
Black
10
-0.777354
20
-0.973913
11
-1.05747
21
-0.640087
0
LINE
8
Black
10
-1.05747
20
-0.640087
11
-1.20429
21
-0.2367
0
LINE
8
Black
10
-1.20429
20
-0.2367
11
-72.6042
21
-0.2367
0
LINE
8
Black
10
-72.6042
20
-0.2367
11
-72.6053
21
-0.23681
0
LINE
8
Black
10
-72.6053
20
-0.23681
11
-72.6054
21
-0.23793
0
LINE
8
Black
10
-72.6054
20
-0.23793
11
-72.6054
21
-0.4297
0
LINE
8
Black
10
-72.6054
20
-0.4297
11
-72.6058
21
-0.431855
0
LINE
8
Black
10
-72.6058
20
-0.431855
11
-72.6058
21
-0.434041
0
LINE
8
Black
10
-72.6058
20
-0.434041
11
-72.6065
21
-0.436097
0
LINE
8
Black
10
-72.6065
20
-0.436097
11
-72.6069
21
-0.438251
0
LINE
8
Black
10
-72.6069
20
-0.438251
11
-72.608
21
-0.440144
0
LINE
8
Black
10
-72.608
20
-0.440144
11
-72.6087
21
-0.4422
0
LINE
8
Black
10
-72.6087
20
-0.4422
11
-72.6102
21
-0.443877
0
LINE
8
Black
10
-72.6102
20
-0.443877
11
-72.6112
21
-0.44577
0
LINE
8
Black
10
-72.6112
20
-0.44577
11
-72.6129
21
-0.447176
0
LINE
8
Black
10
-72.6129
20
-0.447176
11
-72.6143
21
-0.448851
0
LINE
8
Black
10
-72.6143
20
-0.448851
11
-72.6162
21
-0.449944
0
LINE
8
Black
10
-72.6162
20
-0.449944
11
-72.6179
21
-0.451351
0
LINE
8
Black
10
-72.6179
20
-0.451351
11
-72.62
21
-0.452099
0
LINE
8
Black
10
-72.62
20
-0.452099
11
-72.6218
21
-0.453192
0
LINE
8
Black
10
-72.6218
20
-0.453192
11
-72.624
21
-0.453572
0
LINE
8
Black
10
-72.624
20
-0.453572
11
-72.6261
21
-0.45432
0
LINE
8
Black
10
-72.6261
20
-0.45432
11
-72.6282
21
-0.45432
0
LINE
8
Black
10
-72.6282
20
-0.45432
11
-72.6304
21
-0.4547
0
LINE
8
Black
10
-72.6304
20
-0.4547
11
-87.4922
21
-0.4547
0
LINE
8
Black
10
-87.4922
20
-0.4547
11
-87.4933
21
-0.45481
0
LINE
8
Black
10
-87.4933
20
-0.45481
11
-87.4934
21
-0.45593
0
LINE
8
Black
10
-87.4934
20
-0.45593
11
-87.4934
21
-19.7875
0
LINE
8
Black
10
-87.4934
20
-19.7875
11
-87.4933
21
-19.7886
0
LINE
8
Black
10
-87.4933
20
-19.7886
11
-87.4922
21
-19.7887
0
LINE
8
Black
10
-87.4922
20
-19.7887
11
-70.2181
21
-19.7887
0
LINE
8
Black
10
-70.2181
20
-19.7887
11
-70.2159
21
-19.7891
0
LINE
8
Black
10
-70.2159
20
-19.7891
11
-70.2138
21
-19.7891
0
LINE
8
Black
10
-70.2138
20
-19.7891
11
-70.2117
21
-19.7898
0
LINE
8
Black
10
-70.2117
20
-19.7898
11
-70.2095
21
-19.7902
0
LINE
8
Black
10
-70.2095
20
-19.7902
11
-70.2077
21
-19.7913
0
LINE
8
Black
10
-70.2077
20
-19.7913
11
-70.2056
21
-19.792
0
LINE
8
Black
10
-70.2056
20
-19.792
11
-70.2039
21
-19.7935
0
LINE
8
Black
10
-70.2039
20
-19.7935
11
-70.202
21
-19.7945
0
LINE
8
Black
10
-70.202
20
-19.7945
11
-70.2006
21
-19.7962
0
LINE
8
Black
10
-70.2006
20
-19.7962
11
-70.1989
21
-19.7976
0
LINE
8
Black
10
-70.1989
20
-19.7976
11
-70.1979
21
-19.7995
0
LINE
8
Black
10
-70.1979
20
-19.7995
11
-70.1964
21
-19.8012
0
LINE
8
Black
10
-70.1964
20
-19.8012
11
-70.1957
21
-19.8033
0
LINE
8
Black
10
-70.1957
20
-19.8033
11
-70.1946
21
-19.8051
0
LINE
8
Black
10
-70.1946
20
-19.8051
11
-70.1942
21
-19.8073
0
LINE
8
Black
10
-70.1942
20
-19.8073
11
-70.1935
21
-19.8094
0
LINE
8
Black
10
-70.1935
20
-19.8094
11
-70.1935
21
-19.8115
0
LINE
8
Black
10
-70.1935
20
-19.8115
11
-70.1931
21
-19.8137
0
LINE
8
Black
10
-70.1931
20
-19.8137
11
-70.1931
21
-19.874
0
LINE
8
Black
10
-70.1931
20
-19.874
11
-70.193
21
-19.8751
0
LINE
8
Black
10
-70.193
20
-19.8751
11
-70.1919
21
-19.8752
0
LINE
8
Black
10
-70.1919
20
-19.8752
11
-44.1909
21
-19.8752
0
LINE
8
Black
10
-44.1909
20
-19.8752
11
-44.1898
21
-19.8754
0
LINE
8
Black
10
-44.1898
20
-19.8754
11
-44.1887
21
-19.8753
0
LINE
8
Black
10
-44.1887
20
-19.8753
11
-44.1855
21
-19.8761
0
LINE
8
Black
10
-44.1855
20
-19.8761
11
-44.1823
21
-19.8767
0
LINE
8
Black
10
-44.1823
20
-19.8767
11
-44.1814
21
-19.8773
0
LINE
8
Black
10
-44.1814
20
-19.8773
11
-44.1803
21
-19.8775
0
LINE
8
Black
10
-44.1803
20
-19.8775
11
-44.1776
21
-19.8794
0
LINE
8
Black
10
-44.1776
20
-19.8794
11
-44.1748
21
-19.881
0
LINE
8
Black
10
-44.1748
20
-19.881
11
-44.1741
21
-19.8819
0
LINE
8
Black
10
-44.1741
20
-19.8819
11
-44.1732
21
-19.8825
0
LINE
8
Black
10
-44.1732
20
-19.8825
11
-43.8229
21
-20.2328
0
LINE
8
Black
10
-43.8229
20
-20.2328
11
-43.8223
21
-20.2337
0
LINE
8
Black
10
-43.8223
20
-20.2337
11
-43.8214
21
-20.2344
0
LINE
8
Black
10
-43.8214
20
-20.2344
11
-43.8198
21
-20.2372
0
LINE
8
Black
10
-43.8198
20
-20.2372
11
-43.8179
21
-20.2399
0
LINE
8
Black
10
-43.8179
20
-20.2399
11
-43.8177
21
-20.241
0
LINE
8
Black
10
-43.8177
20
-20.241
11
-43.8171
21
-20.2419
0
LINE
8
Black
10
-43.8171
20
-20.2419
11
-43.8165
21
-20.2451
0
LINE
8
Black
10
-43.8165
20
-20.2451
11
-43.8157
21
-20.2483
0
LINE
8
Black
10
-43.8157
20
-20.2483
11
-43.8158
21
-20.2494
0
LINE
8
Black
10
-43.8158
20
-20.2494
11
-43.8156
21
-20.2505
0
LINE
8
Black
10
-43.8156
20
-20.2505
11
-43.8156
21
-30.0115
0
LINE
8
Black
10
-43.8156
20
-30.0115
11
-43.8155
21
-30.0126
0
LINE
8
Black
10
-43.8155
20
-30.0126
11
-43.8144
21
-30.0127
0
LINE
8
Black
10
-43.8144
20
-30.0127
11
-14.9635
21
-30.0127
0
LINE
8
Black
10
-14.9635
20
-30.0127
11
-14.9624
21
-30.0129
0
LINE
8
Black
10
-14.9624
20
-30.0129
11
-14.9613
21
-30.0128
0
LINE
8
Black
10
-14.9613
20
-30.0128
11
-14.9581
21
-30.0136
0
LINE
8
Black
10
-14.9581
20
-30.0136
11
-14.9549
21
-30.0142
0
LINE
8
Black
10
-14.9549
20
-30.0142
11
-14.954
21
-30.0148
0
LINE
8
Black
10
-14.954
20
-30.0148
11
-14.9529
21
-30.015
0
LINE
8
Black
10
-14.9529
20
-30.015
11
-14.9502
21
-30.0169
0
LINE
8
Black
10
-14.9502
20
-30.0169
11
-14.9474
21
-30.0185
0
LINE
8
Black
10
-14.9474
20
-30.0185
11
-14.9467
21
-30.0194
0
LINE
8
Black
10
-14.9467
20
-30.0194
11
-14.9458
21
-30.02
0
LINE
8
Black
10
-14.9458
20
-30.02
11
-12.4604
21
-32.5054
0
LINE
8
Black
10
-12.4604
20
-32.5054
11
-12.4598
21
-32.5063
0
LINE
8
Black
10
-12.4598
20
-32.5063
11
-12.4589
21
-32.507
0
LINE
8
Black
10
-12.4589
20
-32.507
11
-12.4573
21
-32.5098
0
LINE
8
Black
10
-12.4573
20
-32.5098
11
-12.4554
21
-32.5125
0
LINE
8
Black
10
-12.4554
20
-32.5125
11
-12.4552
21
-32.5136
0
LINE
8
Black
10
-12.4552
20
-32.5136
11
-12.4546
21
-32.5145
0
LINE
8
Black
10
-12.4546
20
-32.5145
11
-12.454
21
-32.5177
0
LINE
8
Black
10
-12.454
20
-32.5177
11
-12.4532
21
-32.5209
0
LINE
8
Black
10
-12.4532
20
-32.5209
11
-12.4533
21
-32.522
0
LINE
8
Black
10
-12.4533
20
-32.522
11
-12.4531
21
-32.5231
0
LINE
8
Black
10
-12.4531
20
-32.5231
11
-12.4531
21
-92.9877
0
LINE
8
Black
10
-12.4531
20
-92.9877
11
-12.4535
21
-92.9899
0
LINE
8
Black
10
-12.4535
20
-92.9899
11
-12.4535
21
-92.992
0
LINE
8
Black
10
-12.4535
20
-92.992
11
-12.4542
21
-92.9941
0
LINE
8
Black
10
-12.4542
20
-92.9941
11
-12.4546
21
-92.9963
0
LINE
8
Black
10
-12.4546
20
-92.9963
11
-12.4557
21
-92.9981
0
LINE
8
Black
10
-12.4557
20
-92.9981
11
-12.4564
21
-93.0002
0
LINE
8
Black
10
-12.4564
20
-93.0002
11
-12.4579
21
-93.0019
0
LINE
8
Black
10
-12.4579
20
-93.0019
11
-12.4589
21
-93.0038
0
LINE
8
Black
10
-12.4589
20
-93.0038
11
-12.4606
21
-93.0052
0
LINE
8
Black
10
-12.4606
20
-93.0052
11
-12.462
21
-93.0069
0
LINE
8
Black
10
-12.462
20
-93.0069
11
-12.4639
21
-93.0079
0
LINE
8
Black
10
-12.4639
20
-93.0079
11
-12.4656
21
-93.0094
0
LINE
8
Black
10
-12.4656
20
-93.0094
11
-12.4677
21
-93.0101
0
LINE
8
Black
10
-12.4677
20
-93.0101
11
-12.4695
21
-93.0112
0
LINE
8
Black
10
-12.4695
20
-93.0112
11
-12.4717
21
-93.0116
0
LINE
8
Black
10
-12.4717
20
-93.0116
11
-12.4738
21
-93.0123
0
LINE
8
Black
10
-12.4738
20
-93.0123
11
-12.4759
21
-93.0123
0
LINE
8
Black
10
-12.4759
20
-93.0123
11
-12.4781
21
-93.0127
0
LINE
8
Black
10
-12.4781
20
-93.0127
11
-72.9427
21
-93.0127
0
LINE
8
Black
10
-72.9427
20
-93.0127
11
-72.9438
21
-93.0125
0
LINE
8
Black
10
-72.9438
20
-93.0125
11
-72.9449
21
-93.0126
0
LINE
8
Black
10
-72.9449
20
-93.0126
11
-72.9481
21
-93.0118
0
LINE
8
Black
10
-72.9481
20
-93.0118
11
-72.9513
21
-93.0112
0
LINE
8
Black
10
-72.9513
20
-93.0112
11
-72.9522
21
-93.0106
0
LINE
8
Black
10
-72.9522
20
-93.0106
11
-72.9533
21
-93.0104
0
LINE
8
Black
10
-72.9533
20
-93.0104
11
-72.956
21
-93.0085
0
LINE
8
Black
10
-72.956
20
-93.0085
11
-72.9588
21
-93.0069
0
LINE
8
Black
10
-72.9588
20
-93.0069
11
-72.9595
21
-93.006
0
LINE
8
Black
10
-72.9595
20
-93.006
11
-72.9604
21
-93.0054
0
LINE
8
Black
10
-72.9604
20
-93.0054
11
-75.4458
21
-90.52
0
LINE
8
Black
10
-75.4458
20
-90.52
11
-75.4464
21
-90.5191
0
LINE
8
Black
10
-75.4464
20
-90.5191
11
-75.4473
21
-90.5184
0
LINE
8
Black
10
-75.4473
20
-90.5184
11
-75.4489
21
-90.5156
0
LINE
8
Black
10
-75.4489
20
-90.5156
11
-75.4508
21
-90.5129
0
LINE
8
Black
10
-75.4508
20
-90.5129
11
-75.451
21
-90.5118
0
LINE
8
Black
10
-75.451
20
-90.5118
11
-75.4516
21
-90.5109
0
LINE
8
Black
10
-75.4516
20
-90.5109
11
-75.4522
21
-90.5077
0
LINE
8
Black
10
-75.4522
20
-90.5077
11
-75.453
21
-90.5045
0
LINE
8
Black
10
-75.453
20
-90.5045
11
-75.4529
21
-90.5034
0
LINE
8
Black
10
-75.4529
20
-90.5034
11
-75.4531
21
-90.5023
0
LINE
8
Black
10
-75.4531
20
-90.5023
11
-75.4531
21
-30.0377
0
LINE
8
Black
10
-75.4531
20
-30.0377
11
-75.4527
21
-30.0355
0
LINE
8
Black
10
-75.4527
20
-30.0355
11
-75.4527
21
-30.0334
0
LINE
8
Black
10
-75.4527
20
-30.0334
11
-75.452
21
-30.0313
0
LINE
8
Black
10
-75.452
20
-30.0313
11
-75.4516
21
-30.0291
0
LINE
8
Black
10
-75.4516
20
-30.0291
11
-75.4505
21
-30.0273
0
LINE
8
Black
10
-75.4505
20
-30.0273
11
-75.4498
21
-30.0252
0
LINE
8
Black
10
-75.4498
20
-30.0252
11
-75.4483
21
-30.0235
0
LINE
8
Black
10
-75.4483
20
-30.0235
11
-75.4473
21
-30.0216
0
LINE
8
Black
10
-75.4473
20
-30.0216
11
-75.4456
21
-30.0202
0
LINE
8
Black
10
-75.4456
20
-30.0202
11
-75.4442
21
-30.0185
0
LINE
8
Black
10
-75.4442
20
-30.0185
11
-75.4423
21
-30.0175
0
LINE
8
Black
10
-75.4423
20
-30.0175
11
-75.4406
21
-30.016
0
LINE
8
Black
10
-75.4406
20
-30.016
11
-75.4385
21
-30.0153
0
LINE
8
Black
10
-75.4385
20
-30.0153
11
-75.4367
21
-30.0142
0
LINE
8
Black
10
-75.4367
20
-30.0142
11
-75.4345
21
-30.0138
0
LINE
8
Black
10
-75.4345
20
-30.0138
11
-75.4324
21
-30.0131
0
LINE
8
Black
10
-75.4324
20
-30.0131
11
-75.4303
21
-30.0131
0
LINE
8
Black
10
-75.4303
20
-30.0131
11
-75.4281
21
-30.0127
0
LINE
8
Black
10
-75.4281
20
-30.0127
11
-44.0918
21
-30.0127
0
LINE
8
Black
10
-44.0918
20
-30.0127
11
-44.0907
21
-30.0126
0
LINE
8
Black
10
-44.0907
20
-30.0126
11
-44.0906
21
-30.0115
0
LINE
8
Black
10
-44.0906
20
-30.0115
11
-44.0906
21
-20.1514
0
LINE
8
Black
10
-44.0906
20
-20.1514
11
-44.0907
21
-20.1503
0
LINE
8
Black
10
-44.0907
20
-20.1503
11
-44.0918
21
-20.1502
0
LINE
8
Black
10
-44.0918
20
-20.1502
11
-70.1919
21
-20.1502
0
LINE
8
Black
10
-70.1919
20
-20.1502
11
-70.193
21
-20.1503
0
LINE
8
Black
10
-70.193
20
-20.1503
11
-70.1931
21
-20.1514
0
LINE
8
Black
10
-70.1931
20
-20.1514
11
-70.1931
21
-20.2117
0
LINE
8
Black
10
-70.1931
20
-20.2117
11
-70.1935
21
-20.2139
0
LINE
8
Black
10
-70.1935
20
-20.2139
11
-70.1935
21
-20.216
0
LINE
8
Black
10
-70.1935
20
-20.216
11
-70.1942
21
-20.2181
0
LINE
8
Black
10
-70.1942
20
-20.2181
11
-70.1946
21
-20.2203
0
LINE
8
Black
10
-70.1946
20
-20.2203
11
-70.1957
21
-20.2221
0
LINE
8
Black
10
-70.1957
20
-20.2221
11
-70.1964
21
-20.2242
0
LINE
8
Black
10
-70.1964
20
-20.2242
11
-70.1979
21
-20.2259
0
LINE
8
Black
10
-70.1979
20
-20.2259
11
-70.1989
21
-20.2278
0
LINE
8
Black
10
-70.1989
20
-20.2278
11
-70.2006
21
-20.2292
0
LINE
8
Black
10
-70.2006
20
-20.2292
11
-70.202
21
-20.2309
0
LINE
8
Black
10
-70.202
20
-20.2309
11
-70.2039
21
-20.2319
0
LINE
8
Black
10
-70.2039
20
-20.2319
11
-70.2056
21
-20.2334
0
LINE
8
Black
10
-70.2056
20
-20.2334
11
-70.2077
21
-20.2341
0
LINE
8
Black
10
-70.2077
20
-20.2341
11
-70.2095
21
-20.2352
0
LINE
8
Black
10
-70.2095
20
-20.2352
11
-70.2117
21
-20.2356
0
LINE
8
Black
10
-70.2117
20
-20.2356
11
-70.2138
21
-20.2363
0
LINE
8
Black
10
-70.2138
20
-20.2363
11
-70.2159
21
-20.2363
0
LINE
8
Black
10
-70.2159
20
-20.2363
11
-70.2181
21
-20.2367
0
LINE
8
Black
10
-70.2181
20
-20.2367
11
-87.6373
21
-20.2367
0
LINE
8
Black
10
-87.6373
20
-20.2367
11
-87.6384
21
-20.2365
0
LINE
8
Black
10
-87.6384
20
-20.2365
11
-87.6395
21
-20.2366
0
LINE
8
Black
10
-87.6395
20
-20.2366
11
-87.6427
21
-20.2358
0
LINE
8
Black
10
-87.6427
20
-20.2358
11
-87.6459
21
-20.2352
0
LINE
8
Black
10
-87.6459
20
-20.2352
11
-87.6468
21
-20.2346
0
LINE
8
Black
10
-87.6468
20
-20.2346
11
-87.6479
21
-20.2344
0
LINE
8
Black
10
-87.6479
20
-20.2344
11
-87.6506
21
-20.2325
0
LINE
8
Black
10
-87.6506
20
-20.2325
11
-87.6534
21
-20.2309
0
LINE
8
Black
10
-87.6534
20
-20.2309
11
-87.6541
21
-20.23
0
LINE
8
Black
10
-87.6541
20
-20.23
11
-87.655
21
-20.2294
0
LINE
8
Black
10
-87.655
20
-20.2294
11
-87.8708
21
-20.0136
0
LINE
8
Black
10
-87.8708
20
-20.0136
11
-87.8717
21
-20.0128
0
LINE
8
Black
10
-87.8717
20
-20.0128
11
-87.8729
21
-20.0127
0
LINE
8
Black
10
-87.8729
20
-20.0127
11
-87.9979
21
-20.0127
0
LINE
8
Black
10
-87.9979
20
-20.0127
11
-87.9991
21
-20.0128
0
LINE
8
Black
10
-87.9991
20
-20.0128
11
-88
21
-20.0136
0
LINE
8
Black
10
-88
20
-20.0136
11
-88.2158
21
-20.2294
0
LINE
8
Black
10
-88.2158
20
-20.2294
11
-88.2167
21
-20.23
0
LINE
8
Black
10
-88.2167
20
-20.23
11
-88.2174
21
-20.2309
0
LINE
8
Black
10
-88.2174
20
-20.2309
11
-88.2202
21
-20.2325
0
LINE
8
Black
10
-88.2202
20
-20.2325
11
-88.2229
21
-20.2344
0
LINE
8
Black
10
-88.2229
20
-20.2344
11
-88.224
21
-20.2346
0
LINE
8
Black
10
-88.224
20
-20.2346
11
-88.2249
21
-20.2352
0
LINE
8
Black
10
-88.2249
20
-20.2352
11
-88.2281
21
-20.2358
0
LINE
8
Black
10
-88.2281
20
-20.2358
11
-88.2313
21
-20.2366
0
LINE
8
Black
10
-88.2313
20
-20.2366
11
-88.2324
21
-20.2365
0
LINE
8
Black
10
-88.2324
20
-20.2365
11
-88.2335
21
-20.2367
0
LINE
8
Black
10
-88.2335
20
-20.2367
11
-105.653
21
-20.2367
0
LINE
8
Black
10
-105.653
20
-20.2367
11
-105.655
21
-20.2363
0
LINE
8
Black
10
-105.655
20
-20.2363
11
-105.657
21
-20.2363
0
LINE
8
Black
10
-105.657
20
-20.2363
11
-105.659
21
-20.2356
0
LINE
8
Black
10
-105.659
20
-20.2356
11
-105.661
21
-20.2352
0
LINE
8
Black
10
-105.661
20
-20.2352
11
-105.663
21
-20.2341
0
LINE
8
Black
10
-105.663
20
-20.2341
11
-105.665
21
-20.2334
0
LINE
8
Black
10
-105.665
20
-20.2334
11
-105.667
21
-20.2319
0
LINE
8
Black
10
-105.667
20
-20.2319
11
-105.669
21
-20.2309
0
LINE
8
Black
10
-105.669
20
-20.2309
11
-105.67
21
-20.2292
0
LINE
8
Black
10
-105.67
20
-20.2292
11
-105.672
21
-20.2278
0
LINE
8
Black
10
-105.672
20
-20.2278
11
-105.673
21
-20.2259
0
LINE
8
Black
10
-105.673
20
-20.2259
11
-105.674
21
-20.2242
0
LINE
8
Black
10
-105.674
20
-20.2242
11
-105.675
21
-20.2221
0
LINE
8
Black
10
-105.675
20
-20.2221
11
-105.676
21
-20.2203
0
LINE
8
Black
10
-105.676
20
-20.2203
11
-105.677
21
-20.2181
0
LINE
8
Black
10
-105.677
20
-20.2181
11
-105.677
21
-20.216
0
LINE
8
Black
10
-105.677
20
-20.216
11
-105.677
21
-20.2139
0
LINE
8
Black
10
-105.677
20
-20.2139
11
-105.678
21
-20.2117
0
LINE
8
Black
10
-105.678
20
-20.2117
11
-105.678
21
-20.1514
0
LINE
8
Black
10
-105.678
20
-20.1514
11
-105.678
21
-20.1503
0
LINE
8
Black
10
-105.678
20
-20.1503
11
-105.679
21
-20.1502
0
LINE
8
Black
10
-105.679
20
-20.1502
11
-131.779
21
-20.1502
0
LINE
8
Black
10
-131.779
20
-20.1502
11
-131.78
21
-20.1503
0
LINE
8
Black
10
-131.78
20
-20.1503
11
-131.78
21
-20.1514
0
LINE
8
Black
10
-131.78
20
-20.1514
11
-131.78
21
-30.0115
0
LINE
8
Black
10
-131.78
20
-30.0115
11
-131.78
21
-30.0126
0
LINE
8
Black
10
-131.78
20
-30.0126
11
-131.779
21
-30.0127
0
LINE
8
Black
10
-131.779
20
-30.0127
11
-102.928
21
-30.0127
0
LINE
8
Black
10
-102.928
20
-30.0127
11
-102.927
21
-30.0129
0
LINE
8
Black
10
-102.927
20
-30.0129
11
-102.926
21
-30.0128
0
LINE
8
Black
10
-102.926
20
-30.0128
11
-102.923
21
-30.0136
0
LINE
8
Black
10
-102.923
20
-30.0136
11
-102.92
21
-30.0142
0
LINE
8
Black
10
-102.92
20
-30.0142
11
-102.919
21
-30.0148
0
LINE
8
Black
10
-102.919
20
-30.0148
11
-102.917
21
-30.015
0
LINE
8
Black
10
-102.917
20
-30.015
11
-102.915
21
-30.0169
0
LINE
8
Black
10
-102.915
20
-30.0169
11
-102.912
21
-30.0185
0
LINE
8
Black
10
-102.912
20
-30.0185
11
-102.911
21
-30.0194
0
LINE
8
Black
10
-102.911
20
-30.0194
11
-102.91
21
-30.02
0
LINE
8
Black
10
-102.91
20
-30.02
11
-100.425
21
-32.5054
0
LINE
8
Black
10
-100.425
20
-32.5054
11
-100.424
21
-32.5063
0
LINE
8
Black
10
-100.424
20
-32.5063
11
-100.424
21
-32.507
0
LINE
8
Black
10
-100.424
20
-32.507
11
-100.422
21
-32.5098
0
LINE
8
Black
10
-100.422
20
-32.5098
11
-100.42
21
-32.5125
0
LINE
8
Black
10
-100.42
20
-32.5125
11
-100.42
21
-32.5136
0
LINE
8
Black
10
-100.42
20
-32.5136
11
-100.419
21
-32.5145
0
LINE
8
Black
10
-100.419
20
-32.5145
11
-100.419
21
-32.5177
0
LINE
8
Black
10
-100.419
20
-32.5177
11
-100.418
21
-32.5209
0
LINE
8
Black
10
-100.418
20
-32.5209
11
-100.418
21
-32.522
0
LINE
8
Black
10
-100.418
20
-32.522
11
-100.418
21
-32.5231
0
LINE
8
Black
10
-100.418
20
-32.5231
11
-100.418
21
-92.9877
0
LINE
8
Black
10
-100.418
20
-92.9877
11
-100.418
21
-92.9899
0
LINE
8
Black
10
-100.418
20
-92.9899
11
-100.418
21
-92.992
0
LINE
8
Black
10
-100.418
20
-92.992
11
-100.419
21
-92.9941
0
LINE
8
Black
10
-100.419
20
-92.9941
11
-100.419
21
-92.9963
0
LINE
8
Black
10
-100.419
20
-92.9963
11
-100.42
21
-92.9981
0
LINE
8
Black
10
-100.42
20
-92.9981
11
-100.421
21
-93.0002
0
LINE
8
Black
10
-100.421
20
-93.0002
11
-100.422
21
-93.0019
0
LINE
8
Black
10
-100.422
20
-93.0019
11
-100.424
21
-93.0038
0
LINE
8
Black
10
-100.424
20
-93.0038
11
-100.425
21
-93.0052
0
LINE
8
Black
10
-100.425
20
-93.0052
11
-100.427
21
-93.0069
0
LINE
8
Black
10
-100.427
20
-93.0069
11
-100.429
21
-93.0079
0
LINE
8
Black
10
-100.429
20
-93.0079
11
-100.43
21
-93.0094
0
LINE
8
Black
10
-100.43
20
-93.0094
11
-100.432
21
-93.0101
0
LINE
8
Black
10
-100.432
20
-93.0101
11
-100.434
21
-93.0112
0
LINE
8
Black
10
-100.434
20
-93.0112
11
-100.436
21
-93.0116
0
LINE
8
Black
10
-100.436
20
-93.0116
11
-100.438
21
-93.0123
0
LINE
8
Black
10
-100.438
20
-93.0123
11
-100.441
21
-93.0123
0
LINE
8
Black
10
-100.441
20
-93.0123
11
-100.443
21
-93.0127
0
LINE
8
Black
10
-100.443
20
-93.0127
11
-160.907
21
-93.0127
0
LINE
8
Black
10
-160.907
20
-93.0127
11
-160.908
21
-93.0125
0
LINE
8
Black
10
-160.908
20
-93.0125
11
-160.91
21
-93.0126
0
LINE
8
Black
10
-160.91
20
-93.0126
11
-160.913
21
-93.0118
0
LINE
8
Black
10
-160.913
20
-93.0118
11
-160.916
21
-93.0112
0
LINE
8
Black
10
-160.916
20
-93.0112
11
-160.917
21
-93.0106
0
LINE
8
Black
10
-160.917
20
-93.0106
11
-160.918
21
-93.0104
0
LINE
8
Black
10
-160.918
20
-93.0104
11
-160.921
21
-93.0085
0
LINE
8
Black
10
-160.921
20
-93.0085
11
-160.923
21
-93.0069
0
LINE
8
Black
10
-160.923
20
-93.0069
11
-160.924
21
-93.006
0
LINE
8
Black
10
-160.924
20
-93.006
11
-160.925
21
-93.0054
0
LINE
8
Black
10
-160.925
20
-93.0054
11
-163.41
21
-90.52
0
LINE
8
Black
10
-163.41
20
-90.52
11
-163.411
21
-90.5191
0
LINE
8
Black
10
-163.411
20
-90.5191
11
-163.412
21
-90.5184
0
LINE
8
Black
10
-163.412
20
-90.5184
11
-163.413
21
-90.5156
0
LINE
8
Black
10
-163.413
20
-90.5156
11
-163.415
21
-90.5129
0
LINE
8
Black
10
-163.415
20
-90.5129
11
-163.416
21
-90.5118
0
LINE
8
Black
10
-163.416
20
-90.5118
11
-163.416
21
-90.5109
0
LINE
8
Black
10
-163.416
20
-90.5109
11
-163.417
21
-90.5077
0
LINE
8
Black
10
-163.417
20
-90.5077
11
-163.418
21
-90.5045
0
LINE
8
Black
10
-163.418
20
-90.5045
11
-163.418
21
-90.5034
0
LINE
8
Black
10
-163.418
20
-90.5034
11
-163.418
21
-90.5023
0
LINE
8
Black
10
-163.418
20
-90.5023
11
-163.418
21
-30.0377
0
LINE
8
Black
10
-163.418
20
-30.0377
11
-163.417
21
-30.0355
0
LINE
8
Black
10
-163.417
20
-30.0355
11
-163.417
21
-30.0334
0
LINE
8
Black
10
-163.417
20
-30.0334
11
-163.417
21
-30.0313
0
LINE
8
Black
10
-163.417
20
-30.0313
11
-163.416
21
-30.0291
0
LINE
8
Black
10
-163.416
20
-30.0291
11
-163.415
21
-30.0273
0
LINE
8
Black
10
-163.415
20
-30.0273
11
-163.414
21
-30.0252
0
LINE
8
Black
10
-163.414
20
-30.0252
11
-163.413
21
-30.0235
0
LINE
8
Black
10
-163.413
20
-30.0235
11
-163.412
21
-30.0216
0
LINE
8
Black
10
-163.412
20
-30.0216
11
-163.41
21
-30.0202
0
LINE
8
Black
10
-163.41
20
-30.0202
11
-163.409
21
-30.0185
0
LINE
8
Black
10
-163.409
20
-30.0185
11
-163.407
21
-30.0175
0
LINE
8
Black
10
-163.407
20
-30.0175
11
-163.405
21
-30.016
0
LINE
8
Black
10
-163.405
20
-30.016
11
-163.403
21
-30.0153
0
LINE
8
Black
10
-163.403
20
-30.0153
11
-163.401
21
-30.0142
0
LINE
8
Black
10
-163.401
20
-30.0142
11
-163.399
21
-30.0138
0
LINE
8
Black
10
-163.399
20
-30.0138
11
-163.397
21
-30.0131
0
LINE
8
Black
10
-163.397
20
-30.0131
11
-163.395
21
-30.0131
0
LINE
8
Black
10
-163.395
20
-30.0131
11
-163.393
21
-30.0127
0
LINE
8
Black
10
-163.393
20
-30.0127
11
-132.056
21
-30.0127
0
LINE
8
Black
10
-132.056
20
-30.0127
11
-132.055
21
-30.0126
0
LINE
8
Black
10
-132.055
20
-30.0126
11
-132.055
21
-30.0115
0
LINE
8
Black
10
-132.055
20
-30.0115
11
-132.055
21
-20.2505
0
LINE
8
Black
10
-132.055
20
-20.2505
11
-132.055
21
-20.2494
0
LINE
8
Black
10
-132.055
20
-20.2494
11
-132.055
21
-20.2483
0
LINE
8
Black
10
-132.055
20
-20.2483
11
-132.054
21
-20.2451
0
LINE
8
Black
10
-132.054
20
-20.2451
11
-132.054
21
-20.2419
0
LINE
8
Black
10
-132.054
20
-20.2419
11
-132.053
21
-20.241
0
LINE
8
Black
10
-132.053
20
-20.241
11
-132.053
21
-20.2399
0
LINE
8
Black
10
-132.053
20
-20.2399
11
-132.051
21
-20.2372
0
LINE
8
Black
10
-132.051
20
-20.2372
11
-132.049
21
-20.2344
0
LINE
8
Black
10
-132.049
20
-20.2344
11
-132.049
21
-20.2337
0
LINE
8
Black
10
-132.049
20
-20.2337
11
-132.048
21
-20.2328
0
LINE
8
Black
10
-132.048
20
-20.2328
11
-131.698
21
-19.8825
0
LINE
8
Black
10
-131.698
20
-19.8825
11
-131.697
21
-19.8819
0
LINE
8
Black
10
-131.697
20
-19.8819
11
-131.696
21
-19.881
0
LINE
8
Black
10
-131.696
20
-19.881
11
-131.693
21
-19.8794
0
LINE
8
Black
10
-131.693
20
-19.8794
11
-131.691
21
-19.8775
0
LINE
8
Black
10
-131.691
20
-19.8775
11
-131.689
21
-19.8773
0
LINE
8
Black
10
-131.689
20
-19.8773
11
-131.688
21
-19.8767
0
LINE
8
Black
10
-131.688
20
-19.8767
11
-131.685
21
-19.8761
0
LINE
8
Black
10
-131.685
20
-19.8761
11
-131.682
21
-19.8753
0
LINE
8
Black
10
-131.682
20
-19.8753
11
-131.681
21
-19.8754
0
LINE
8
Black
10
-131.681
20
-19.8754
11
-131.68
21
-19.8752
0
LINE
8
Black
10
-131.68
20
-19.8752
11
-105.679
21
-19.8752
0
LINE
8
Black
10
-105.679
20
-19.8752
11
-105.678
21
-19.8751
0
LINE
8
Black
10
-105.678
20
-19.8751
11
-105.678
21
-19.874
0
LINE
8
Black
10
-105.678
20
-19.874
11
-105.678
21
-19.8137
0
LINE
8
Black
10
-105.678
20
-19.8137
11
-105.677
21
-19.8115
0
LINE
8
Black
10
-105.677
20
-19.8115
11
-105.677
21
-19.8094
0
LINE
8
Black
10
-105.677
20
-19.8094
11
-105.677
21
-19.8073
0
LINE
8
Black
10
-105.677
20
-19.8073
11
-105.676
21
-19.8051
0
LINE
8
Black
10
-105.676
20
-19.8051
11
-105.675
21
-19.8033
0
LINE
8
Black
10
-105.675
20
-19.8033
11
-105.674
21
-19.8012
0
LINE
8
Black
10
-105.674
20
-19.8012
11
-105.673
21
-19.7995
0
LINE
8
Black
10
-105.673
20
-19.7995
11
-105.672
21
-19.7976
0
LINE
8
Black
10
-105.672
20
-19.7976
11
-105.67
21
-19.7962
0
LINE
8
Black
10
-105.67
20
-19.7962
11
-105.669
21
-19.7945
0
LINE
8
Black
10
-105.669
20
-19.7945
11
-105.667
21
-19.7935
0
LINE
8
Black
10
-105.667
20
-19.7935
11
-105.665
21
-19.792
0
LINE
8
Black
10
-105.665
20
-19.792
11
-105.663
21
-19.7913
0
LINE
8
Black
10
-105.663
20
-19.7913
11
-105.661
21
-19.7902
0
LINE
8
Black
10
-105.661
20
-19.7902
11
-105.659
21
-19.7898
0
LINE
8
Black
10
-105.659
20
-19.7898
11
-105.657
21
-19.7891
0
LINE
8
Black
10
-105.657
20
-19.7891
11
-105.655
21
-19.7891
0
LINE
8
Black
10
-105.655
20
-19.7891
11
-105.653
21
-19.7887
0
LINE
8
Black
10
-105.653
20
-19.7887
11
-88.3786
21
-19.7887
0
LINE
8
Black
10
-88.3786
20
-19.7887
11
-88.3775
21
-19.7886
0
LINE
8
Black
10
-88.3775
20
-19.7886
11
-88.3774
21
-19.7875
0
LINE
8
Black
10
-88.3774
20
-19.7875
11
-88.3774
21
-0.401056
0
LINE
8
Black
10
-88.3774
20
-0.401056
11
-88.3772
21
-0.399973
0
LINE
8
Black
10
-88.3772
20
-0.399973
11
-88.3773
21
-0.398877
0
LINE
8
Black
10
-88.3773
20
-0.398877
11
-88.3765
21
-0.395719
0
LINE
8
Black
10
-88.3765
20
-0.395719
11
-88.3759
21
-0.392505
0
LINE
8
Black
10
-88.3759
20
-0.392505
11
-88.3753
21
-0.391554
0
LINE
8
Black
10
-88.3753
20
-0.391554
11
-88.3751
21
-0.390491
0
LINE
8
Black
10
-88.3751
20
-0.390491
11
-88.3732
21
-0.387814
0
LINE
8
Black
10
-88.3732
20
-0.387814
11
-88.3716
21
-0.384986
0
LINE
8
Black
10
-88.3716
20
-0.384986
11
-88.3707
21
-0.38428
0
LINE
8
Black
10
-88.3707
20
-0.38428
11
-88.3701
21
-0.383378
0
LINE
8
Black
10
-88.3701
20
-0.383378
11
-87.5647
21
0.421977
0
LINE
8
Black
10
-87.5647
20
0.421977
11
-87.5638
21
0.422607
0
LINE
8
Black
10
-87.5638
20
0.422607
11
-87.5631
21
0.423451
0
LINE
8
Black
10
-87.5631
20
0.423451
11
-87.5603
21
0.425085
0
LINE
8
Black
10
-87.5603
20
0.425085
11
-87.5576
21
0.426958
0
LINE
8
Black
10
-87.5576
20
0.426958
11
-87.5565
21
0.427243
0
LINE
8
Black
10
-87.5565
20
0.427243
11
-87.5556
21
0.427792
0
LINE
8
Black
10
-87.5556
20
0.427792
11
-87.5524
21
0.428359
0
LINE
8
Black
10
-87.5524
20
0.428359
11
-87.5492
21
0.429205
0
LINE
8
Black
10
-87.5492
20
0.429205
11
-87.5481
21
0.429109
0
LINE
8
Black
10
-87.5481
20
0.429109
11
-87.547
21
0.4293
0
LINE
8
Black
10
-87.547
20
0.4293
11
-72.6304
21
0.4293
0
LINE
8
Black
10
-72.6304
20
0.4293
11
-72.6282
21
0.42892
0
LINE
8
Black
10
-72.6282
20
0.42892
11
-72.6261
21
0.42892
0
LINE
8
Black
10
-72.6261
20
0.42892
11
-72.624
21
0.428172
0
LINE
8
Black
10
-72.624
20
0.428172
11
-72.6218
21
0.427792
0
LINE
8
Black
10
-72.6218
20
0.427792
11
-72.62
21
0.426699
0
LINE
8
Black
10
-72.62
20
0.426699
11
-72.6179
21
0.425951
0
LINE
8
Black
10
-72.6179
20
0.425951
11
-72.6162
21
0.424544
0
LINE
8
Black
10
-72.6162
20
0.424544
11
-72.6143
21
0.423451
0
LINE
8
Black
10
-72.6143
20
0.423451
11
-72.6129
21
0.421776
0
LINE
8
Black
10
-72.6129
20
0.421776
11
-72.6112
21
0.42037
0
LINE
8
Black
10
-72.6112
20
0.42037
11
-72.6102
21
0.418477
0
LINE
8
Black
10
-72.6102
20
0.418477
11
-72.6087
21
0.4168
0
LINE
8
Black
10
-72.6087
20
0.4168
11
-72.608
21
0.414744
0
LINE
8
Black
10
-72.608
20
0.414744
11
-72.6069
21
0.412851
0
LINE
8
Black
10
-72.6069
20
0.412851
11
-72.6065
21
0.410697
0
LINE
8
Black
10
-72.6065
20
0.410697
11
-72.6058
21
0.408641
0
LINE
8
Black
10
-72.6058
20
0.408641
11
-72.6058
21
0.406455
0
LINE
8
Black
10
-72.6058
20
0.406455
11
-72.6054
21
0.4043
0
LINE
8
Black
10
-72.6054
20
0.4043
11
-72.6054
21
0.21253
0
LINE
8
Black
10
-72.6054
20
0.21253
11
-72.6053
21
0.21141
0
LINE
8
Black
10
-72.6053
20
0.21141
11
-72.6042
21
0.2113
0
LINE
8
Black
10
-72.6042
20
0.2113
11
-1.20429
21
0.2113
0
LINE
8
Black
10
-1.20429
20
0.2113
11
-1.05747
21
0.614687
0
LINE
8
Black
10
-1.05747
20
0.614687
11
-0.777354
21
0.948513
0
LINE
8
Black
10
-0.777354
20
0.948513
11
-0.399958
21
1.1664
0
LINE
8
Black
10
-0.399958
20
1.1664
11
0.0292
21
1.24208
0
LINE
8
Black
10
0.0292
20
1.24208
11
0.458358
21
1.1664
  0
ENDSEC
  0
EOF
