G04 #@! TF.FileFunction,Copper,L1,Top,Signal*
%FSLAX46Y46*%
G04 Gerber Fmt 4.6, Leading zero omitted, Abs format (unit mm)*
G04 Created by KiCad (PCBNEW 201609280951+7255~55~ubuntu14.04.1-) date Wed Dec  7 05:21:48 2016*
%MOMM*%
%LPD*%
G01*
G04 APERTURE LIST*
%ADD10C,0.100000*%
%ADD11C,0.050000*%
G04 APERTURE END LIST*
D10*
D11*
G36*
X88167588Y-422154D02*
X88167588Y-40124000D01*
X88168068Y-40128877D01*
X88169491Y-40133567D01*
X88171801Y-40137889D01*
X88174910Y-40141678D01*
X88178699Y-40144787D01*
X88183021Y-40147097D01*
X88187711Y-40148520D01*
X88192588Y-40149000D01*
X90468588Y-40149000D01*
X90473465Y-40148520D01*
X90478155Y-40147097D01*
X90482477Y-40144787D01*
X90486266Y-40141678D01*
X90489375Y-40137889D01*
X90491685Y-40133567D01*
X90493108Y-40128877D01*
X90493588Y-40124000D01*
X90493588Y-13290900D01*
X144943588Y-13290900D01*
X144943588Y-124840900D01*
X30993588Y-124840900D01*
X30993588Y-13290900D01*
X85443588Y-13290900D01*
X85443588Y-40124000D01*
X85444068Y-40128877D01*
X85445491Y-40133567D01*
X85447801Y-40137889D01*
X85450910Y-40141678D01*
X85454699Y-40144787D01*
X85459021Y-40147097D01*
X85463711Y-40148520D01*
X85468588Y-40149000D01*
X87744588Y-40149000D01*
X87749465Y-40148520D01*
X87754155Y-40147097D01*
X87758477Y-40144787D01*
X87762266Y-40141678D01*
X87765375Y-40137889D01*
X87767685Y-40133567D01*
X87769108Y-40128877D01*
X87769588Y-40124000D01*
X87769588Y-348000D01*
X87769108Y-343123D01*
X87767685Y-338433D01*
X87765375Y-334111D01*
X87762266Y-330322D01*
X87758477Y-327213D01*
X87754155Y-324903D01*
X87749465Y-323480D01*
X87744588Y-323000D01*
X-87736612Y-323000D01*
X-87741489Y-323480D01*
X-87746179Y-324903D01*
X-87750501Y-327213D01*
X-87754290Y-330322D01*
X-87757399Y-334111D01*
X-87759709Y-338433D01*
X-87761132Y-343123D01*
X-87761612Y-348000D01*
X-87761612Y-40124000D01*
X-87761132Y-40128877D01*
X-87759709Y-40133567D01*
X-87757399Y-40137889D01*
X-87754290Y-40141678D01*
X-87750501Y-40144787D01*
X-87746179Y-40147097D01*
X-87741489Y-40148520D01*
X-87736612Y-40149000D01*
X-85460612Y-40149000D01*
X-85455735Y-40148520D01*
X-85451045Y-40147097D01*
X-85446723Y-40144787D01*
X-85442934Y-40141678D01*
X-85439825Y-40137889D01*
X-85437515Y-40133567D01*
X-85436092Y-40128877D01*
X-85435612Y-40124000D01*
X-85435612Y-13290900D01*
X-30985612Y-13290900D01*
X-30985612Y-124840900D01*
X-144935612Y-124840900D01*
X-144935612Y-13290900D01*
X-90485612Y-13290900D01*
X-90485612Y-40124000D01*
X-90485132Y-40128877D01*
X-90483709Y-40133567D01*
X-90481399Y-40137889D01*
X-90478290Y-40141678D01*
X-90474501Y-40144787D01*
X-90470179Y-40147097D01*
X-90465489Y-40148520D01*
X-90460612Y-40149000D01*
X-88184612Y-40149000D01*
X-88179735Y-40148520D01*
X-88175045Y-40147097D01*
X-88170723Y-40144787D01*
X-88166934Y-40141678D01*
X-88163825Y-40137889D01*
X-88161515Y-40133567D01*
X-88160092Y-40128877D01*
X-88159612Y-40124000D01*
X-88159612Y-422154D01*
X-87662556Y75000D01*
X87670532Y75000D01*
X88167588Y-422154D01*
X88167588Y-422154D01*
G37*
X88167588Y-422154D02*
X88167588Y-40124000D01*
X88168068Y-40128877D01*
X88169491Y-40133567D01*
X88171801Y-40137889D01*
X88174910Y-40141678D01*
X88178699Y-40144787D01*
X88183021Y-40147097D01*
X88187711Y-40148520D01*
X88192588Y-40149000D01*
X90468588Y-40149000D01*
X90473465Y-40148520D01*
X90478155Y-40147097D01*
X90482477Y-40144787D01*
X90486266Y-40141678D01*
X90489375Y-40137889D01*
X90491685Y-40133567D01*
X90493108Y-40128877D01*
X90493588Y-40124000D01*
X90493588Y-13290900D01*
X144943588Y-13290900D01*
X144943588Y-124840900D01*
X30993588Y-124840900D01*
X30993588Y-13290900D01*
X85443588Y-13290900D01*
X85443588Y-40124000D01*
X85444068Y-40128877D01*
X85445491Y-40133567D01*
X85447801Y-40137889D01*
X85450910Y-40141678D01*
X85454699Y-40144787D01*
X85459021Y-40147097D01*
X85463711Y-40148520D01*
X85468588Y-40149000D01*
X87744588Y-40149000D01*
X87749465Y-40148520D01*
X87754155Y-40147097D01*
X87758477Y-40144787D01*
X87762266Y-40141678D01*
X87765375Y-40137889D01*
X87767685Y-40133567D01*
X87769108Y-40128877D01*
X87769588Y-40124000D01*
X87769588Y-348000D01*
X87769108Y-343123D01*
X87767685Y-338433D01*
X87765375Y-334111D01*
X87762266Y-330322D01*
X87758477Y-327213D01*
X87754155Y-324903D01*
X87749465Y-323480D01*
X87744588Y-323000D01*
X-87736612Y-323000D01*
X-87741489Y-323480D01*
X-87746179Y-324903D01*
X-87750501Y-327213D01*
X-87754290Y-330322D01*
X-87757399Y-334111D01*
X-87759709Y-338433D01*
X-87761132Y-343123D01*
X-87761612Y-348000D01*
X-87761612Y-40124000D01*
X-87761132Y-40128877D01*
X-87759709Y-40133567D01*
X-87757399Y-40137889D01*
X-87754290Y-40141678D01*
X-87750501Y-40144787D01*
X-87746179Y-40147097D01*
X-87741489Y-40148520D01*
X-87736612Y-40149000D01*
X-85460612Y-40149000D01*
X-85455735Y-40148520D01*
X-85451045Y-40147097D01*
X-85446723Y-40144787D01*
X-85442934Y-40141678D01*
X-85439825Y-40137889D01*
X-85437515Y-40133567D01*
X-85436092Y-40128877D01*
X-85435612Y-40124000D01*
X-85435612Y-13290900D01*
X-30985612Y-13290900D01*
X-30985612Y-124840900D01*
X-144935612Y-124840900D01*
X-144935612Y-13290900D01*
X-90485612Y-13290900D01*
X-90485612Y-40124000D01*
X-90485132Y-40128877D01*
X-90483709Y-40133567D01*
X-90481399Y-40137889D01*
X-90478290Y-40141678D01*
X-90474501Y-40144787D01*
X-90470179Y-40147097D01*
X-90465489Y-40148520D01*
X-90460612Y-40149000D01*
X-88184612Y-40149000D01*
X-88179735Y-40148520D01*
X-88175045Y-40147097D01*
X-88170723Y-40144787D01*
X-88166934Y-40141678D01*
X-88163825Y-40137889D01*
X-88161515Y-40133567D01*
X-88160092Y-40128877D01*
X-88159612Y-40124000D01*
X-88159612Y-422154D01*
X-87662556Y75000D01*
X87670532Y75000D01*
X88167588Y-422154D01*
M02*
