  0
SECTION
  2
HEADER
  9
$ANGBASE
  50
0.0
  9
$ANGDIR
  70
  1
  9
$MEASUREMENT
  70
0
  0
ENDSEC
  0
SECTION
  2
TABLES
  0
TABLE
  2
LTYPE
  70
1
  0
LTYPE
  2
CONTINUOUS
  70
0
  3
Solid line
  72
65
  73
0
  40
0.0
  0
ENDTAB
  0
TABLE
  2
STYLE
  70
4
  0
STYLE
  2
KICAD
  70
0
  40
0
  41
1
  42
1
  50
0
  71
0
  3
isocp.shx
  0
STYLE
  2
KICADB
  70
0
  40
0
  41
1
  42
1
  50
0
  71
0
  3
isocp.shx
  0
STYLE
  2
KICADI
  70
0
  40
0
  41
1
  42
1
  50
15
  71
0
  3
isocp.shx
  0
STYLE
  2
KICADBI
  70
0
  40
0
  41
1
  42
1
  50
15
  71
0
  3
isocp.shx
  0
ENDTAB
  0
TABLE
  2
LAYER
  70
30
  0
LAYER
  2
BLACK
  70
0
  62
7
  6
CONTINUOUS
  0
LAYER
  2
GRAY1
  70
0
  62
251
  6
CONTINUOUS
  0
LAYER
  2
GRAY2
  70
0
  62
8
  6
CONTINUOUS
  0
LAYER
  2
GRAY3
  70
0
  62
9
  6
CONTINUOUS
  0
LAYER
  2
WHITE
  70
0
  62
7
  6
CONTINUOUS
  0
LAYER
  2
LYELLOW
  70
0
  62
51
  6
CONTINUOUS
  0
LAYER
  2
BLUE1
  70
0
  62
178
  6
CONTINUOUS
  0
LAYER
  2
GREEN1
  70
0
  62
98
  6
CONTINUOUS
  0
LAYER
  2
CYAN1
  70
0
  62
138
  6
CONTINUOUS
  0
LAYER
  2
RED1
  70
0
  62
18
  6
CONTINUOUS
  0
LAYER
  2
MAGENTA1
  70
0
  62
228
  6
CONTINUOUS
  0
LAYER
  2
BROWN1
  70
0
  62
58
  6
CONTINUOUS
  0
LAYER
  2
BLUE2
  70
0
  62
5
  6
CONTINUOUS
  0
LAYER
  2
GREEN2
  70
0
  62
3
  6
CONTINUOUS
  0
LAYER
  2
CYAN2
  70
0
  62
4
  6
CONTINUOUS
  0
LAYER
  2
RED2
  70
0
  62
1
  6
CONTINUOUS
  0
LAYER
  2
MAGENTA2
  70
0
  62
6
  6
CONTINUOUS
  0
LAYER
  2
BROWN2
  70
0
  62
54
  6
CONTINUOUS
  0
LAYER
  2
BLUE3
  70
0
  62
171
  6
CONTINUOUS
  0
LAYER
  2
GREEN3
  70
0
  62
91
  6
CONTINUOUS
  0
LAYER
  2
CYAN3
  70
0
  62
131
  6
CONTINUOUS
  0
LAYER
  2
RED3
  70
0
  62
11
  6
CONTINUOUS
  0
LAYER
  2
MAGENTA3
  70
0
  62
221
  6
CONTINUOUS
  0
LAYER
  2
YELLOW3
  70
0
  62
2
  6
CONTINUOUS
  0
LAYER
  2
BLUE4
  70
0
  62
5
  6
CONTINUOUS
  0
LAYER
  2
GREEN4
  70
0
  62
3
  6
CONTINUOUS
  0
LAYER
  2
CYAN4
  70
0
  62
4
  6
CONTINUOUS
  0
LAYER
  2
RED4
  70
0
  62
1
  6
CONTINUOUS
  0
LAYER
  2
MAGENTA4
  70
0
  62
6
  6
CONTINUOUS
  0
LAYER
  2
YELLOW4
  70
0
  62
2
  6
CONTINUOUS
  0
ENDTAB
  0
ENDSEC
  0
SECTION
  2
ENTITIES
0
LINE
8
Black
10
0.429158
20
1.1791
11
0.806554
21
0.961213
0
LINE
8
Black
10
0.806554
20
0.961213
11
1.08667
21
0.627387
0
LINE
8
Black
10
1.08667
20
0.627387
11
1.23571
21
0.217889
0
LINE
8
Black
10
1.23571
20
0.217889
11
1.23571
21
0.2
0
LINE
8
Black
10
1.23571
20
0.2
11
72.6334
21
0.2
0
LINE
8
Black
10
72.6334
20
0.2
11
72.6345
21
0.20011
0
LINE
8
Black
10
72.6345
20
0.20011
11
72.6346
21
0.20123
0
LINE
8
Black
10
72.6346
20
0.20123
11
72.6346
21
0.393
0
LINE
8
Black
10
72.6346
20
0.393
11
72.635
21
0.395155
0
LINE
8
Black
10
72.635
20
0.395155
11
72.635
21
0.397341
0
LINE
8
Black
10
72.635
20
0.397341
11
72.6357
21
0.399397
0
LINE
8
Black
10
72.6357
20
0.399397
11
72.6361
21
0.401551
0
LINE
8
Black
10
72.6361
20
0.401551
11
72.6372
21
0.403444
0
LINE
8
Black
10
72.6372
20
0.403444
11
72.6379
21
0.4055
0
LINE
8
Black
10
72.6379
20
0.4055
11
72.6394
21
0.407177
0
LINE
8
Black
10
72.6394
20
0.407177
11
72.6404
21
0.40907
0
LINE
8
Black
10
72.6404
20
0.40907
11
72.6421
21
0.410476
0
LINE
8
Black
10
72.6421
20
0.410476
11
72.6435
21
0.412151
0
LINE
8
Black
10
72.6435
20
0.412151
11
72.6454
21
0.413244
0
LINE
8
Black
10
72.6454
20
0.413244
11
72.6471
21
0.414651
0
LINE
8
Black
10
72.6471
20
0.414651
11
72.6492
21
0.415399
0
LINE
8
Black
10
72.6492
20
0.415399
11
72.651
21
0.416492
0
LINE
8
Black
10
72.651
20
0.416492
11
72.6532
21
0.416872
0
LINE
8
Black
10
72.6532
20
0.416872
11
72.6553
21
0.41762
0
LINE
8
Black
10
72.6553
20
0.41762
11
72.6574
21
0.41762
0
LINE
8
Black
10
72.6574
20
0.41762
11
72.6596
21
0.418
0
LINE
8
Black
10
72.6596
20
0.418
11
87.5762
21
0.418
0
LINE
8
Black
10
87.5762
20
0.418
11
87.5773
21
0.417809
0
LINE
8
Black
10
87.5773
20
0.417809
11
87.5784
21
0.417905
0
LINE
8
Black
10
87.5784
20
0.417905
11
87.5816
21
0.417059
0
LINE
8
Black
10
87.5816
20
0.417059
11
87.5848
21
0.416492
0
LINE
8
Black
10
87.5848
20
0.416492
11
87.5857
21
0.415943
0
LINE
8
Black
10
87.5857
20
0.415943
11
87.5868
21
0.415658
0
LINE
8
Black
10
87.5868
20
0.415658
11
87.5895
21
0.413783
0
LINE
8
Black
10
87.5895
20
0.413783
11
87.5923
21
0.412151
0
LINE
8
Black
10
87.5923
20
0.412151
11
87.593
21
0.411309
0
LINE
8
Black
10
87.593
20
0.411309
11
87.5939
21
0.410678
0
LINE
8
Black
10
87.5939
20
0.410678
11
88.3993
21
-0.394678
0
LINE
8
Black
10
88.3993
20
-0.394678
11
88.3999
21
-0.395578
0
LINE
8
Black
10
88.3999
20
-0.395578
11
88.4008
21
-0.396286
0
LINE
8
Black
10
88.4008
20
-0.396286
11
88.4024
21
-0.399117
0
LINE
8
Black
10
88.4024
20
-0.399117
11
88.4043
21
-0.401791
0
LINE
8
Black
10
88.4043
20
-0.401791
11
88.4045
21
-0.402854
0
LINE
8
Black
10
88.4045
20
-0.402854
11
88.4051
21
-0.403805
0
LINE
8
Black
10
88.4051
20
-0.403805
11
88.4057
21
-0.407019
0
LINE
8
Black
10
88.4057
20
-0.407019
11
88.4065
21
-0.410177
0
LINE
8
Black
10
88.4065
20
-0.410177
11
88.4064
21
-0.411273
0
LINE
8
Black
10
88.4064
20
-0.411273
11
88.4066
21
-0.412356
0
LINE
8
Black
10
88.4066
20
-0.412356
11
88.4066
21
-19.7988
0
LINE
8
Black
10
88.4066
20
-19.7988
11
88.4067
21
-19.7999
0
LINE
8
Black
10
88.4067
20
-19.7999
11
88.4078
21
-19.8
0
LINE
8
Black
10
88.4078
20
-19.8
11
105.682
21
-19.8
0
LINE
8
Black
10
105.682
20
-19.8
11
105.684
21
-19.8004
0
LINE
8
Black
10
105.684
20
-19.8004
11
105.686
21
-19.8004
0
LINE
8
Black
10
105.686
20
-19.8004
11
105.688
21
-19.8011
0
LINE
8
Black
10
105.688
20
-19.8011
11
105.69
21
-19.8015
0
LINE
8
Black
10
105.69
20
-19.8015
11
105.692
21
-19.8026
0
LINE
8
Black
10
105.692
20
-19.8026
11
105.694
21
-19.8033
0
LINE
8
Black
10
105.694
20
-19.8033
11
105.696
21
-19.8048
0
LINE
8
Black
10
105.696
20
-19.8048
11
105.698
21
-19.8058
0
LINE
8
Black
10
105.698
20
-19.8058
11
105.699
21
-19.8075
0
LINE
8
Black
10
105.699
20
-19.8075
11
105.701
21
-19.8089
0
LINE
8
Black
10
105.701
20
-19.8089
11
105.702
21
-19.8108
0
LINE
8
Black
10
105.702
20
-19.8108
11
105.704
21
-19.8125
0
LINE
8
Black
10
105.704
20
-19.8125
11
105.704
21
-19.8146
0
LINE
8
Black
10
105.704
20
-19.8146
11
105.705
21
-19.8164
0
LINE
8
Black
10
105.705
20
-19.8164
11
105.706
21
-19.8186
0
LINE
8
Black
10
105.706
20
-19.8186
11
105.707
21
-19.8207
0
LINE
8
Black
10
105.707
20
-19.8207
11
105.707
21
-19.8228
0
LINE
8
Black
10
105.707
20
-19.8228
11
105.707
21
-19.825
0
LINE
8
Black
10
105.707
20
-19.825
11
105.707
21
-19.8853
0
LINE
8
Black
10
105.707
20
-19.8853
11
105.707
21
-19.8864
0
LINE
8
Black
10
105.707
20
-19.8864
11
105.708
21
-19.8865
0
LINE
8
Black
10
105.708
20
-19.8865
11
131.709
21
-19.8865
0
LINE
8
Black
10
131.709
20
-19.8865
11
131.71
21
-19.8867
0
LINE
8
Black
10
131.71
20
-19.8867
11
131.711
21
-19.8866
0
LINE
8
Black
10
131.711
20
-19.8866
11
131.714
21
-19.8874
0
LINE
8
Black
10
131.714
20
-19.8874
11
131.718
21
-19.888
0
LINE
8
Black
10
131.718
20
-19.888
11
131.719
21
-19.8886
0
LINE
8
Black
10
131.719
20
-19.8886
11
131.72
21
-19.8888
0
LINE
8
Black
10
131.72
20
-19.8888
11
131.722
21
-19.8907
0
LINE
8
Black
10
131.722
20
-19.8907
11
131.725
21
-19.8923
0
LINE
8
Black
10
131.725
20
-19.8923
11
131.726
21
-19.8932
0
LINE
8
Black
10
131.726
20
-19.8932
11
131.727
21
-19.8938
0
LINE
8
Black
10
131.727
20
-19.8938
11
132.077
21
-20.2441
0
LINE
8
Black
10
132.077
20
-20.2441
11
132.078
21
-20.245
0
LINE
8
Black
10
132.078
20
-20.245
11
132.079
21
-20.2457
0
LINE
8
Black
10
132.079
20
-20.2457
11
132.08
21
-20.2485
0
LINE
8
Black
10
132.08
20
-20.2485
11
132.082
21
-20.2512
0
LINE
8
Black
10
132.082
20
-20.2512
11
132.082
21
-20.2523
0
LINE
8
Black
10
132.082
20
-20.2523
11
132.083
21
-20.2532
0
LINE
8
Black
10
132.083
20
-20.2532
11
132.083
21
-20.2564
0
LINE
8
Black
10
132.083
20
-20.2564
11
132.084
21
-20.2596
0
LINE
8
Black
10
132.084
20
-20.2596
11
132.084
21
-20.2607
0
LINE
8
Black
10
132.084
20
-20.2607
11
132.084
21
-20.2618
0
LINE
8
Black
10
132.084
20
-20.2618
11
132.084
21
-30.0228
0
LINE
8
Black
10
132.084
20
-30.0228
11
132.085
21
-30.0239
0
LINE
8
Black
10
132.085
20
-30.0239
11
132.086
21
-30.024
0
LINE
8
Black
10
132.086
20
-30.024
11
161.437
21
-30.024
0
LINE
8
Black
10
161.437
20
-30.024
11
161.438
21
-30.0242
0
LINE
8
Black
10
161.438
20
-30.0242
11
161.439
21
-30.0241
0
LINE
8
Black
10
161.439
20
-30.0241
11
161.442
21
-30.0249
0
LINE
8
Black
10
161.442
20
-30.0249
11
161.445
21
-30.0255
0
LINE
8
Black
10
161.445
20
-30.0255
11
161.446
21
-30.0261
0
LINE
8
Black
10
161.446
20
-30.0261
11
161.447
21
-30.0263
0
LINE
8
Black
10
161.447
20
-30.0263
11
161.45
21
-30.0282
0
LINE
8
Black
10
161.45
20
-30.0282
11
161.453
21
-30.0298
0
LINE
8
Black
10
161.453
20
-30.0298
11
161.453
21
-30.0307
0
LINE
8
Black
10
161.453
20
-30.0307
11
161.454
21
-30.0313
0
LINE
8
Black
10
161.454
20
-30.0313
11
163.94
21
-32.5167
0
LINE
8
Black
10
163.94
20
-32.5167
11
163.94
21
-32.5176
0
LINE
8
Black
10
163.94
20
-32.5176
11
163.941
21
-32.5183
0
LINE
8
Black
10
163.941
20
-32.5183
11
163.943
21
-32.5211
0
LINE
8
Black
10
163.943
20
-32.5211
11
163.945
21
-32.5238
0
LINE
8
Black
10
163.945
20
-32.5238
11
163.945
21
-32.5249
0
LINE
8
Black
10
163.945
20
-32.5249
11
163.945
21
-32.5258
0
LINE
8
Black
10
163.945
20
-32.5258
11
163.946
21
-32.529
0
LINE
8
Black
10
163.946
20
-32.529
11
163.947
21
-32.5322
0
LINE
8
Black
10
163.947
20
-32.5322
11
163.947
21
-32.5333
0
LINE
8
Black
10
163.947
20
-32.5333
11
163.947
21
-32.5344
0
LINE
8
Black
10
163.947
20
-32.5344
11
163.947
21
-93.999
0
LINE
8
Black
10
163.947
20
-93.999
11
163.947
21
-94.0012
0
LINE
8
Black
10
163.947
20
-94.0012
11
163.947
21
-94.0033
0
LINE
8
Black
10
163.947
20
-94.0033
11
163.946
21
-94.0054
0
LINE
8
Black
10
163.946
20
-94.0054
11
163.945
21
-94.0076
0
LINE
8
Black
10
163.945
20
-94.0076
11
163.944
21
-94.0094
0
LINE
8
Black
10
163.944
20
-94.0094
11
163.944
21
-94.0115
0
LINE
8
Black
10
163.944
20
-94.0115
11
163.942
21
-94.0132
0
LINE
8
Black
10
163.942
20
-94.0132
11
163.941
21
-94.0151
0
LINE
8
Black
10
163.941
20
-94.0151
11
163.939
21
-94.0165
0
LINE
8
Black
10
163.939
20
-94.0165
11
163.938
21
-94.0182
0
LINE
8
Black
10
163.938
20
-94.0182
11
163.936
21
-94.0192
0
LINE
8
Black
10
163.936
20
-94.0192
11
163.934
21
-94.0207
0
LINE
8
Black
10
163.934
20
-94.0207
11
163.932
21
-94.0214
0
LINE
8
Black
10
163.932
20
-94.0214
11
163.93
21
-94.0225
0
LINE
8
Black
10
163.93
20
-94.0225
11
163.928
21
-94.0229
0
LINE
8
Black
10
163.928
20
-94.0229
11
163.926
21
-94.0236
0
LINE
8
Black
10
163.926
20
-94.0236
11
163.924
21
-94.0236
0
LINE
8
Black
10
163.924
20
-94.0236
11
163.922
21
-94.024
0
LINE
8
Black
10
163.922
20
-94.024
11
102.457
21
-94.024
0
LINE
8
Black
10
102.457
20
-94.024
11
102.456
21
-94.0238
0
LINE
8
Black
10
102.456
20
-94.0238
11
102.455
21
-94.0239
0
LINE
8
Black
10
102.455
20
-94.0239
11
102.452
21
-94.0231
0
LINE
8
Black
10
102.452
20
-94.0231
11
102.449
21
-94.0225
0
LINE
8
Black
10
102.449
20
-94.0225
11
102.448
21
-94.0219
0
LINE
8
Black
10
102.448
20
-94.0219
11
102.447
21
-94.0217
0
LINE
8
Black
10
102.447
20
-94.0217
11
102.444
21
-94.0198
0
LINE
8
Black
10
102.444
20
-94.0198
11
102.441
21
-94.0182
0
LINE
8
Black
10
102.441
20
-94.0182
11
102.44
21
-94.0173
0
LINE
8
Black
10
102.44
20
-94.0173
11
102.44
21
-94.0167
0
LINE
8
Black
10
102.44
20
-94.0167
11
99.9542
21
-91.5313
0
LINE
8
Black
10
99.9542
20
-91.5313
11
99.9536
21
-91.5304
0
LINE
8
Black
10
99.9536
20
-91.5304
11
99.9527
21
-91.5297
0
LINE
8
Black
10
99.9527
20
-91.5297
11
99.9511
21
-91.5269
0
LINE
8
Black
10
99.9511
20
-91.5269
11
99.9492
21
-91.5242
0
LINE
8
Black
10
99.9492
20
-91.5242
11
99.949
21
-91.5231
0
LINE
8
Black
10
99.949
20
-91.5231
11
99.9484
21
-91.5222
0
LINE
8
Black
10
99.9484
20
-91.5222
11
99.9478
21
-91.519
0
LINE
8
Black
10
99.9478
20
-91.519
11
99.947
21
-91.5158
0
LINE
8
Black
10
99.947
20
-91.5158
11
99.9471
21
-91.5147
0
LINE
8
Black
10
99.9471
20
-91.5147
11
99.9469
21
-91.5136
0
LINE
8
Black
10
99.9469
20
-91.5136
11
99.9469
21
-30.049
0
LINE
8
Black
10
99.9469
20
-30.049
11
99.9473
21
-30.0468
0
LINE
8
Black
10
99.9473
20
-30.0468
11
99.9473
21
-30.0447
0
LINE
8
Black
10
99.9473
20
-30.0447
11
99.948
21
-30.0426
0
LINE
8
Black
10
99.948
20
-30.0426
11
99.9484
21
-30.0404
0
LINE
8
Black
10
99.9484
20
-30.0404
11
99.9495
21
-30.0386
0
LINE
8
Black
10
99.9495
20
-30.0386
11
99.9502
21
-30.0365
0
LINE
8
Black
10
99.9502
20
-30.0365
11
99.9517
21
-30.0348
0
LINE
8
Black
10
99.9517
20
-30.0348
11
99.9527
21
-30.0329
0
LINE
8
Black
10
99.9527
20
-30.0329
11
99.9544
21
-30.0315
0
LINE
8
Black
10
99.9544
20
-30.0315
11
99.9558
21
-30.0298
0
LINE
8
Black
10
99.9558
20
-30.0298
11
99.9577
21
-30.0288
0
LINE
8
Black
10
99.9577
20
-30.0288
11
99.9594
21
-30.0273
0
LINE
8
Black
10
99.9594
20
-30.0273
11
99.9615
21
-30.0266
0
LINE
8
Black
10
99.9615
20
-30.0266
11
99.9633
21
-30.0255
0
LINE
8
Black
10
99.9633
20
-30.0255
11
99.9655
21
-30.0251
0
LINE
8
Black
10
99.9655
20
-30.0251
11
99.9676
21
-30.0244
0
LINE
8
Black
10
99.9676
20
-30.0244
11
99.9697
21
-30.0244
0
LINE
8
Black
10
99.9697
20
-30.0244
11
99.9719
21
-30.024
0
LINE
8
Black
10
99.9719
20
-30.024
11
131.808
21
-30.024
0
LINE
8
Black
10
131.808
20
-30.024
11
131.809
21
-30.0239
0
LINE
8
Black
10
131.809
20
-30.0239
11
131.809
21
-30.0228
0
LINE
8
Black
10
131.809
20
-30.0228
11
131.809
21
-20.1627
0
LINE
8
Black
10
131.809
20
-20.1627
11
131.809
21
-20.1616
0
LINE
8
Black
10
131.809
20
-20.1616
11
131.808
21
-20.1615
0
LINE
8
Black
10
131.808
20
-20.1615
11
105.708
21
-20.1615
0
LINE
8
Black
10
105.708
20
-20.1615
11
105.707
21
-20.1616
0
LINE
8
Black
10
105.707
20
-20.1616
11
105.707
21
-20.1627
0
LINE
8
Black
10
105.707
20
-20.1627
11
105.707
21
-20.223
0
LINE
8
Black
10
105.707
20
-20.223
11
105.707
21
-20.2252
0
LINE
8
Black
10
105.707
20
-20.2252
11
105.707
21
-20.2273
0
LINE
8
Black
10
105.707
20
-20.2273
11
105.706
21
-20.2294
0
LINE
8
Black
10
105.706
20
-20.2294
11
105.705
21
-20.2316
0
LINE
8
Black
10
105.705
20
-20.2316
11
105.704
21
-20.2334
0
LINE
8
Black
10
105.704
20
-20.2334
11
105.704
21
-20.2355
0
LINE
8
Black
10
105.704
20
-20.2355
11
105.702
21
-20.2372
0
LINE
8
Black
10
105.702
20
-20.2372
11
105.701
21
-20.2391
0
LINE
8
Black
10
105.701
20
-20.2391
11
105.699
21
-20.2405
0
LINE
8
Black
10
105.699
20
-20.2405
11
105.698
21
-20.2422
0
LINE
8
Black
10
105.698
20
-20.2422
11
105.696
21
-20.2432
0
LINE
8
Black
10
105.696
20
-20.2432
11
105.694
21
-20.2447
0
LINE
8
Black
10
105.694
20
-20.2447
11
105.692
21
-20.2454
0
LINE
8
Black
10
105.692
20
-20.2454
11
105.69
21
-20.2465
0
LINE
8
Black
10
105.69
20
-20.2465
11
105.688
21
-20.2469
0
LINE
8
Black
10
105.688
20
-20.2469
11
105.686
21
-20.2476
0
LINE
8
Black
10
105.686
20
-20.2476
11
105.684
21
-20.2476
0
LINE
8
Black
10
105.684
20
-20.2476
11
105.682
21
-20.248
0
LINE
8
Black
10
105.682
20
-20.248
11
88.2627
21
-20.248
0
LINE
8
Black
10
88.2627
20
-20.248
11
88.2616
21
-20.2478
0
LINE
8
Black
10
88.2616
20
-20.2478
11
88.2605
21
-20.2479
0
LINE
8
Black
10
88.2605
20
-20.2479
11
88.2573
21
-20.2471
0
LINE
8
Black
10
88.2573
20
-20.2471
11
88.2541
21
-20.2465
0
LINE
8
Black
10
88.2541
20
-20.2465
11
88.2532
21
-20.2459
0
LINE
8
Black
10
88.2532
20
-20.2459
11
88.2521
21
-20.2457
0
LINE
8
Black
10
88.2521
20
-20.2457
11
88.2494
21
-20.2438
0
LINE
8
Black
10
88.2494
20
-20.2438
11
88.2466
21
-20.2422
0
LINE
8
Black
10
88.2466
20
-20.2422
11
88.2459
21
-20.2413
0
LINE
8
Black
10
88.2459
20
-20.2413
11
88.245
21
-20.2407
0
LINE
8
Black
10
88.245
20
-20.2407
11
88.0292
21
-20.0249
0
LINE
8
Black
10
88.0292
20
-20.0249
11
88.0283
21
-20.0241
0
LINE
8
Black
10
88.0283
20
-20.0241
11
88.0271
21
-20.024
0
LINE
8
Black
10
88.0271
20
-20.024
11
87.9021
21
-20.024
0
LINE
8
Black
10
87.9021
20
-20.024
11
87.9009
21
-20.0241
0
LINE
8
Black
10
87.9009
20
-20.0241
11
87.9
21
-20.0249
0
LINE
8
Black
10
87.9
20
-20.0249
11
87.6842
21
-20.2407
0
LINE
8
Black
10
87.6842
20
-20.2407
11
87.6833
21
-20.2413
0
LINE
8
Black
10
87.6833
20
-20.2413
11
87.6826
21
-20.2422
0
LINE
8
Black
10
87.6826
20
-20.2422
11
87.6798
21
-20.2438
0
LINE
8
Black
10
87.6798
20
-20.2438
11
87.6771
21
-20.2457
0
LINE
8
Black
10
87.6771
20
-20.2457
11
87.676
21
-20.2459
0
LINE
8
Black
10
87.676
20
-20.2459
11
87.6751
21
-20.2465
0
LINE
8
Black
10
87.6751
20
-20.2465
11
87.6719
21
-20.2471
0
LINE
8
Black
10
87.6719
20
-20.2471
11
87.6687
21
-20.2479
0
LINE
8
Black
10
87.6687
20
-20.2479
11
87.6676
21
-20.2478
0
LINE
8
Black
10
87.6676
20
-20.2478
11
87.6665
21
-20.248
0
LINE
8
Black
10
87.6665
20
-20.248
11
70.2473
21
-20.248
0
LINE
8
Black
10
70.2473
20
-20.248
11
70.2451
21
-20.2476
0
LINE
8
Black
10
70.2451
20
-20.2476
11
70.243
21
-20.2476
0
LINE
8
Black
10
70.243
20
-20.2476
11
70.2409
21
-20.2469
0
LINE
8
Black
10
70.2409
20
-20.2469
11
70.2387
21
-20.2465
0
LINE
8
Black
10
70.2387
20
-20.2465
11
70.2369
21
-20.2454
0
LINE
8
Black
10
70.2369
20
-20.2454
11
70.2348
21
-20.2447
0
LINE
8
Black
10
70.2348
20
-20.2447
11
70.2331
21
-20.2432
0
LINE
8
Black
10
70.2331
20
-20.2432
11
70.2312
21
-20.2422
0
LINE
8
Black
10
70.2312
20
-20.2422
11
70.2298
21
-20.2405
0
LINE
8
Black
10
70.2298
20
-20.2405
11
70.2281
21
-20.2391
0
LINE
8
Black
10
70.2281
20
-20.2391
11
70.2271
21
-20.2372
0
LINE
8
Black
10
70.2271
20
-20.2372
11
70.2256
21
-20.2355
0
LINE
8
Black
10
70.2256
20
-20.2355
11
70.2249
21
-20.2334
0
LINE
8
Black
10
70.2249
20
-20.2334
11
70.2238
21
-20.2316
0
LINE
8
Black
10
70.2238
20
-20.2316
11
70.2234
21
-20.2294
0
LINE
8
Black
10
70.2234
20
-20.2294
11
70.2227
21
-20.2273
0
LINE
8
Black
10
70.2227
20
-20.2273
11
70.2227
21
-20.2252
0
LINE
8
Black
10
70.2227
20
-20.2252
11
70.2223
21
-20.223
0
LINE
8
Black
10
70.2223
20
-20.223
11
70.2223
21
-20.1627
0
LINE
8
Black
10
70.2223
20
-20.1627
11
70.2222
21
-20.1616
0
LINE
8
Black
10
70.2222
20
-20.1616
11
70.2211
21
-20.1615
0
LINE
8
Black
10
70.2211
20
-20.1615
11
44.121
21
-20.1615
0
LINE
8
Black
10
44.121
20
-20.1615
11
44.1199
21
-20.1616
0
LINE
8
Black
10
44.1199
20
-20.1616
11
44.1198
21
-20.1627
0
LINE
8
Black
10
44.1198
20
-20.1627
11
44.1198
21
-30.0228
0
LINE
8
Black
10
44.1198
20
-30.0228
11
44.1199
21
-30.0239
0
LINE
8
Black
10
44.1199
20
-30.0239
11
44.121
21
-30.024
0
LINE
8
Black
10
44.121
20
-30.024
11
73.4719
21
-30.024
0
LINE
8
Black
10
73.4719
20
-30.024
11
73.473
21
-30.0242
0
LINE
8
Black
10
73.473
20
-30.0242
11
73.4741
21
-30.0241
0
LINE
8
Black
10
73.4741
20
-30.0241
11
73.4773
21
-30.0249
0
LINE
8
Black
10
73.4773
20
-30.0249
11
73.4805
21
-30.0255
0
LINE
8
Black
10
73.4805
20
-30.0255
11
73.4814
21
-30.0261
0
LINE
8
Black
10
73.4814
20
-30.0261
11
73.4825
21
-30.0263
0
LINE
8
Black
10
73.4825
20
-30.0263
11
73.4852
21
-30.0282
0
LINE
8
Black
10
73.4852
20
-30.0282
11
73.488
21
-30.0298
0
LINE
8
Black
10
73.488
20
-30.0298
11
73.4887
21
-30.0307
0
LINE
8
Black
10
73.4887
20
-30.0307
11
73.4896
21
-30.0313
0
LINE
8
Black
10
73.4896
20
-30.0313
11
75.975
21
-32.5167
0
LINE
8
Black
10
75.975
20
-32.5167
11
75.9756
21
-32.5176
0
LINE
8
Black
10
75.9756
20
-32.5176
11
75.9765
21
-32.5183
0
LINE
8
Black
10
75.9765
20
-32.5183
11
75.9781
21
-32.5211
0
LINE
8
Black
10
75.9781
20
-32.5211
11
75.98
21
-32.5238
0
LINE
8
Black
10
75.98
20
-32.5238
11
75.9802
21
-32.5249
0
LINE
8
Black
10
75.9802
20
-32.5249
11
75.9808
21
-32.5258
0
LINE
8
Black
10
75.9808
20
-32.5258
11
75.9814
21
-32.529
0
LINE
8
Black
10
75.9814
20
-32.529
11
75.9822
21
-32.5322
0
LINE
8
Black
10
75.9822
20
-32.5322
11
75.9821
21
-32.5333
0
LINE
8
Black
10
75.9821
20
-32.5333
11
75.9823
21
-32.5344
0
LINE
8
Black
10
75.9823
20
-32.5344
11
75.9823
21
-93.999
0
LINE
8
Black
10
75.9823
20
-93.999
11
75.9819
21
-94.0012
0
LINE
8
Black
10
75.9819
20
-94.0012
11
75.9819
21
-94.0033
0
LINE
8
Black
10
75.9819
20
-94.0033
11
75.9812
21
-94.0054
0
LINE
8
Black
10
75.9812
20
-94.0054
11
75.9808
21
-94.0076
0
LINE
8
Black
10
75.9808
20
-94.0076
11
75.9797
21
-94.0094
0
LINE
8
Black
10
75.9797
20
-94.0094
11
75.979
21
-94.0115
0
LINE
8
Black
10
75.979
20
-94.0115
11
75.9775
21
-94.0132
0
LINE
8
Black
10
75.9775
20
-94.0132
11
75.9765
21
-94.0151
0
LINE
8
Black
10
75.9765
20
-94.0151
11
75.9748
21
-94.0165
0
LINE
8
Black
10
75.9748
20
-94.0165
11
75.9734
21
-94.0182
0
LINE
8
Black
10
75.9734
20
-94.0182
11
75.9715
21
-94.0192
0
LINE
8
Black
10
75.9715
20
-94.0192
11
75.9698
21
-94.0207
0
LINE
8
Black
10
75.9698
20
-94.0207
11
75.9677
21
-94.0214
0
LINE
8
Black
10
75.9677
20
-94.0214
11
75.9659
21
-94.0225
0
LINE
8
Black
10
75.9659
20
-94.0225
11
75.9637
21
-94.0229
0
LINE
8
Black
10
75.9637
20
-94.0229
11
75.9616
21
-94.0236
0
LINE
8
Black
10
75.9616
20
-94.0236
11
75.9595
21
-94.0236
0
LINE
8
Black
10
75.9595
20
-94.0236
11
75.9573
21
-94.024
0
LINE
8
Black
10
75.9573
20
-94.024
11
14.4927
21
-94.024
0
LINE
8
Black
10
14.4927
20
-94.024
11
14.4916
21
-94.0238
0
LINE
8
Black
10
14.4916
20
-94.0238
11
14.4905
21
-94.0239
0
LINE
8
Black
10
14.4905
20
-94.0239
11
14.4873
21
-94.0231
0
LINE
8
Black
10
14.4873
20
-94.0231
11
14.4841
21
-94.0225
0
LINE
8
Black
10
14.4841
20
-94.0225
11
14.4832
21
-94.0219
0
LINE
8
Black
10
14.4832
20
-94.0219
11
14.4821
21
-94.0217
0
LINE
8
Black
10
14.4821
20
-94.0217
11
14.4794
21
-94.0198
0
LINE
8
Black
10
14.4794
20
-94.0198
11
14.4766
21
-94.0182
0
LINE
8
Black
10
14.4766
20
-94.0182
11
14.4759
21
-94.0173
0
LINE
8
Black
10
14.4759
20
-94.0173
11
14.475
21
-94.0167
0
LINE
8
Black
10
14.475
20
-94.0167
11
11.9896
21
-91.5313
0
LINE
8
Black
10
11.9896
20
-91.5313
11
11.989
21
-91.5304
0
LINE
8
Black
10
11.989
20
-91.5304
11
11.9881
21
-91.5297
0
LINE
8
Black
10
11.9881
20
-91.5297
11
11.9865
21
-91.5269
0
LINE
8
Black
10
11.9865
20
-91.5269
11
11.9846
21
-91.5242
0
LINE
8
Black
10
11.9846
20
-91.5242
11
11.9844
21
-91.5231
0
LINE
8
Black
10
11.9844
20
-91.5231
11
11.9838
21
-91.5222
0
LINE
8
Black
10
11.9838
20
-91.5222
11
11.9832
21
-91.519
0
LINE
8
Black
10
11.9832
20
-91.519
11
11.9824
21
-91.5158
0
LINE
8
Black
10
11.9824
20
-91.5158
11
11.9825
21
-91.5147
0
LINE
8
Black
10
11.9825
20
-91.5147
11
11.9823
21
-91.5136
0
LINE
8
Black
10
11.9823
20
-91.5136
11
11.9823
21
-30.049
0
LINE
8
Black
10
11.9823
20
-30.049
11
11.9827
21
-30.0468
0
LINE
8
Black
10
11.9827
20
-30.0468
11
11.9827
21
-30.0447
0
LINE
8
Black
10
11.9827
20
-30.0447
11
11.9834
21
-30.0426
0
LINE
8
Black
10
11.9834
20
-30.0426
11
11.9838
21
-30.0404
0
LINE
8
Black
10
11.9838
20
-30.0404
11
11.9849
21
-30.0386
0
LINE
8
Black
10
11.9849
20
-30.0386
11
11.9856
21
-30.0365
0
LINE
8
Black
10
11.9856
20
-30.0365
11
11.9871
21
-30.0348
0
LINE
8
Black
10
11.9871
20
-30.0348
11
11.9881
21
-30.0329
0
LINE
8
Black
10
11.9881
20
-30.0329
11
11.9898
21
-30.0315
0
LINE
8
Black
10
11.9898
20
-30.0315
11
11.9912
21
-30.0298
0
LINE
8
Black
10
11.9912
20
-30.0298
11
11.9931
21
-30.0288
0
LINE
8
Black
10
11.9931
20
-30.0288
11
11.9948
21
-30.0273
0
LINE
8
Black
10
11.9948
20
-30.0273
11
11.9969
21
-30.0266
0
LINE
8
Black
10
11.9969
20
-30.0266
11
11.9987
21
-30.0255
0
LINE
8
Black
10
11.9987
20
-30.0255
11
12.0009
21
-30.0251
0
LINE
8
Black
10
12.0009
20
-30.0251
11
12.003
21
-30.0244
0
LINE
8
Black
10
12.003
20
-30.0244
11
12.0051
21
-30.0244
0
LINE
8
Black
10
12.0051
20
-30.0244
11
12.0073
21
-30.024
0
LINE
8
Black
10
12.0073
20
-30.024
11
43.8436
21
-30.024
0
LINE
8
Black
10
43.8436
20
-30.024
11
43.8447
21
-30.0239
0
LINE
8
Black
10
43.8447
20
-30.0239
11
43.8448
21
-30.0228
0
LINE
8
Black
10
43.8448
20
-30.0228
11
43.8448
21
-20.2618
0
LINE
8
Black
10
43.8448
20
-20.2618
11
43.845
21
-20.2607
0
LINE
8
Black
10
43.845
20
-20.2607
11
43.8449
21
-20.2596
0
LINE
8
Black
10
43.8449
20
-20.2596
11
43.8457
21
-20.2564
0
LINE
8
Black
10
43.8457
20
-20.2564
11
43.8463
21
-20.2532
0
LINE
8
Black
10
43.8463
20
-20.2532
11
43.8469
21
-20.2523
0
LINE
8
Black
10
43.8469
20
-20.2523
11
43.8471
21
-20.2512
0
LINE
8
Black
10
43.8471
20
-20.2512
11
43.849
21
-20.2485
0
LINE
8
Black
10
43.849
20
-20.2485
11
43.8506
21
-20.2457
0
LINE
8
Black
10
43.8506
20
-20.2457
11
43.8515
21
-20.245
0
LINE
8
Black
10
43.8515
20
-20.245
11
43.8521
21
-20.2441
0
LINE
8
Black
10
43.8521
20
-20.2441
11
44.2024
21
-19.8938
0
LINE
8
Black
10
44.2024
20
-19.8938
11
44.2033
21
-19.8932
0
LINE
8
Black
10
44.2033
20
-19.8932
11
44.204
21
-19.8923
0
LINE
8
Black
10
44.204
20
-19.8923
11
44.2068
21
-19.8907
0
LINE
8
Black
10
44.2068
20
-19.8907
11
44.2095
21
-19.8888
0
LINE
8
Black
10
44.2095
20
-19.8888
11
44.2106
21
-19.8886
0
LINE
8
Black
10
44.2106
20
-19.8886
11
44.2115
21
-19.888
0
LINE
8
Black
10
44.2115
20
-19.888
11
44.2147
21
-19.8874
0
LINE
8
Black
10
44.2147
20
-19.8874
11
44.2179
21
-19.8866
0
LINE
8
Black
10
44.2179
20
-19.8866
11
44.219
21
-19.8867
0
LINE
8
Black
10
44.219
20
-19.8867
11
44.2201
21
-19.8865
0
LINE
8
Black
10
44.2201
20
-19.8865
11
70.2211
21
-19.8865
0
LINE
8
Black
10
70.2211
20
-19.8865
11
70.2222
21
-19.8864
0
LINE
8
Black
10
70.2222
20
-19.8864
11
70.2223
21
-19.8853
0
LINE
8
Black
10
70.2223
20
-19.8853
11
70.2223
21
-19.825
0
LINE
8
Black
10
70.2223
20
-19.825
11
70.2227
21
-19.8228
0
LINE
8
Black
10
70.2227
20
-19.8228
11
70.2227
21
-19.8207
0
LINE
8
Black
10
70.2227
20
-19.8207
11
70.2234
21
-19.8186
0
LINE
8
Black
10
70.2234
20
-19.8186
11
70.2238
21
-19.8164
0
LINE
8
Black
10
70.2238
20
-19.8164
11
70.2249
21
-19.8146
0
LINE
8
Black
10
70.2249
20
-19.8146
11
70.2256
21
-19.8125
0
LINE
8
Black
10
70.2256
20
-19.8125
11
70.2271
21
-19.8108
0
LINE
8
Black
10
70.2271
20
-19.8108
11
70.2281
21
-19.8089
0
LINE
8
Black
10
70.2281
20
-19.8089
11
70.2298
21
-19.8075
0
LINE
8
Black
10
70.2298
20
-19.8075
11
70.2312
21
-19.8058
0
LINE
8
Black
10
70.2312
20
-19.8058
11
70.2331
21
-19.8048
0
LINE
8
Black
10
70.2331
20
-19.8048
11
70.2348
21
-19.8033
0
LINE
8
Black
10
70.2348
20
-19.8033
11
70.2369
21
-19.8026
0
LINE
8
Black
10
70.2369
20
-19.8026
11
70.2387
21
-19.8015
0
LINE
8
Black
10
70.2387
20
-19.8015
11
70.2409
21
-19.8011
0
LINE
8
Black
10
70.2409
20
-19.8011
11
70.243
21
-19.8004
0
LINE
8
Black
10
70.243
20
-19.8004
11
70.2451
21
-19.8004
0
LINE
8
Black
10
70.2451
20
-19.8004
11
70.2473
21
-19.8
0
LINE
8
Black
10
70.2473
20
-19.8
11
87.5214
21
-19.8
0
LINE
8
Black
10
87.5214
20
-19.8
11
87.5225
21
-19.7999
0
LINE
8
Black
10
87.5225
20
-19.7999
11
87.5226
21
-19.7988
0
LINE
8
Black
10
87.5226
20
-19.7988
11
87.5226
21
-0.46723
0
LINE
8
Black
10
87.5226
20
-0.46723
11
87.5225
21
-0.46611
0
LINE
8
Black
10
87.5225
20
-0.46611
11
87.5214
21
-0.466
0
LINE
8
Black
10
87.5214
20
-0.466
11
72.6596
21
-0.466
0
LINE
8
Black
10
72.6596
20
-0.466
11
72.6574
21
-0.46562
0
LINE
8
Black
10
72.6574
20
-0.46562
11
72.6553
21
-0.46562
0
LINE
8
Black
10
72.6553
20
-0.46562
11
72.6532
21
-0.464872
0
LINE
8
Black
10
72.6532
20
-0.464872
11
72.651
21
-0.464492
0
LINE
8
Black
10
72.651
20
-0.464492
11
72.6492
21
-0.463399
0
LINE
8
Black
10
72.6492
20
-0.463399
11
72.6471
21
-0.462651
0
LINE
8
Black
10
72.6471
20
-0.462651
11
72.6454
21
-0.461244
0
LINE
8
Black
10
72.6454
20
-0.461244
11
72.6435
21
-0.460151
0
LINE
8
Black
10
72.6435
20
-0.460151
11
72.6421
21
-0.458476
0
LINE
8
Black
10
72.6421
20
-0.458476
11
72.6404
21
-0.45707
0
LINE
8
Black
10
72.6404
20
-0.45707
11
72.6394
21
-0.455177
0
LINE
8
Black
10
72.6394
20
-0.455177
11
72.6379
21
-0.4535
0
LINE
8
Black
10
72.6379
20
-0.4535
11
72.6372
21
-0.451444
0
LINE
8
Black
10
72.6372
20
-0.451444
11
72.6361
21
-0.449551
0
LINE
8
Black
10
72.6361
20
-0.449551
11
72.6357
21
-0.447397
0
LINE
8
Black
10
72.6357
20
-0.447397
11
72.635
21
-0.445341
0
LINE
8
Black
10
72.635
20
-0.445341
11
72.635
21
-0.443155
0
LINE
8
Black
10
72.635
20
-0.443155
11
72.6346
21
-0.441
0
LINE
8
Black
10
72.6346
20
-0.441
11
72.6346
21
-0.24923
0
LINE
8
Black
10
72.6346
20
-0.24923
11
72.6345
21
-0.24811
0
LINE
8
Black
10
72.6345
20
-0.24811
11
72.6334
21
-0.248
0
LINE
8
Black
10
72.6334
20
-0.248
11
1.22475
21
-0.248
0
LINE
8
Black
10
1.22475
20
-0.248
11
1.08667
21
-0.627387
0
LINE
8
Black
10
1.08667
20
-0.627387
11
0.806554
21
-0.961213
0
LINE
8
Black
10
0.806554
20
-0.961213
11
0.429158
21
-1.1791
0
LINE
8
Black
10
0.429158
20
-1.1791
11
0
21
-1.25477
0
LINE
8
Black
10
0
20
-1.25477
11
-0.429158
21
-1.1791
0
LINE
8
Black
10
-0.429158
20
-1.1791
11
-0.806554
21
-0.961213
0
LINE
8
Black
10
-0.806554
20
-0.961213
11
-1.08667
21
-0.627387
0
LINE
8
Black
10
-1.08667
20
-0.627387
11
-1.22475
21
-0.248
0
LINE
8
Black
10
-1.22475
20
-0.248
11
-72.6334
21
-0.248
0
LINE
8
Black
10
-72.6334
20
-0.248
11
-72.6345
21
-0.24811
0
LINE
8
Black
10
-72.6345
20
-0.24811
11
-72.6346
21
-0.24923
0
LINE
8
Black
10
-72.6346
20
-0.24923
11
-72.6346
21
-0.441
0
LINE
8
Black
10
-72.6346
20
-0.441
11
-72.635
21
-0.443155
0
LINE
8
Black
10
-72.635
20
-0.443155
11
-72.635
21
-0.445341
0
LINE
8
Black
10
-72.635
20
-0.445341
11
-72.6357
21
-0.447397
0
LINE
8
Black
10
-72.6357
20
-0.447397
11
-72.6361
21
-0.449551
0
LINE
8
Black
10
-72.6361
20
-0.449551
11
-72.6372
21
-0.451444
0
LINE
8
Black
10
-72.6372
20
-0.451444
11
-72.6379
21
-0.4535
0
LINE
8
Black
10
-72.6379
20
-0.4535
11
-72.6394
21
-0.455177
0
LINE
8
Black
10
-72.6394
20
-0.455177
11
-72.6404
21
-0.45707
0
LINE
8
Black
10
-72.6404
20
-0.45707
11
-72.6421
21
-0.458476
0
LINE
8
Black
10
-72.6421
20
-0.458476
11
-72.6435
21
-0.460151
0
LINE
8
Black
10
-72.6435
20
-0.460151
11
-72.6454
21
-0.461244
0
LINE
8
Black
10
-72.6454
20
-0.461244
11
-72.6471
21
-0.462651
0
LINE
8
Black
10
-72.6471
20
-0.462651
11
-72.6492
21
-0.463399
0
LINE
8
Black
10
-72.6492
20
-0.463399
11
-72.651
21
-0.464492
0
LINE
8
Black
10
-72.651
20
-0.464492
11
-72.6532
21
-0.464872
0
LINE
8
Black
10
-72.6532
20
-0.464872
11
-72.6553
21
-0.46562
0
LINE
8
Black
10
-72.6553
20
-0.46562
11
-72.6574
21
-0.46562
0
LINE
8
Black
10
-72.6574
20
-0.46562
11
-72.6596
21
-0.466
0
LINE
8
Black
10
-72.6596
20
-0.466
11
-87.5214
21
-0.466
0
LINE
8
Black
10
-87.5214
20
-0.466
11
-87.5225
21
-0.46611
0
LINE
8
Black
10
-87.5225
20
-0.46611
11
-87.5226
21
-0.46723
0
LINE
8
Black
10
-87.5226
20
-0.46723
11
-87.5226
21
-19.7988
0
LINE
8
Black
10
-87.5226
20
-19.7988
11
-87.5225
21
-19.7999
0
LINE
8
Black
10
-87.5225
20
-19.7999
11
-87.5214
21
-19.8
0
LINE
8
Black
10
-87.5214
20
-19.8
11
-70.2473
21
-19.8
0
LINE
8
Black
10
-70.2473
20
-19.8
11
-70.2451
21
-19.8004
0
LINE
8
Black
10
-70.2451
20
-19.8004
11
-70.243
21
-19.8004
0
LINE
8
Black
10
-70.243
20
-19.8004
11
-70.2409
21
-19.8011
0
LINE
8
Black
10
-70.2409
20
-19.8011
11
-70.2387
21
-19.8015
0
LINE
8
Black
10
-70.2387
20
-19.8015
11
-70.2369
21
-19.8026
0
LINE
8
Black
10
-70.2369
20
-19.8026
11
-70.2348
21
-19.8033
0
LINE
8
Black
10
-70.2348
20
-19.8033
11
-70.2331
21
-19.8048
0
LINE
8
Black
10
-70.2331
20
-19.8048
11
-70.2312
21
-19.8058
0
LINE
8
Black
10
-70.2312
20
-19.8058
11
-70.2298
21
-19.8075
0
LINE
8
Black
10
-70.2298
20
-19.8075
11
-70.2281
21
-19.8089
0
LINE
8
Black
10
-70.2281
20
-19.8089
11
-70.2271
21
-19.8108
0
LINE
8
Black
10
-70.2271
20
-19.8108
11
-70.2256
21
-19.8125
0
LINE
8
Black
10
-70.2256
20
-19.8125
11
-70.2249
21
-19.8146
0
LINE
8
Black
10
-70.2249
20
-19.8146
11
-70.2238
21
-19.8164
0
LINE
8
Black
10
-70.2238
20
-19.8164
11
-70.2234
21
-19.8186
0
LINE
8
Black
10
-70.2234
20
-19.8186
11
-70.2227
21
-19.8207
0
LINE
8
Black
10
-70.2227
20
-19.8207
11
-70.2227
21
-19.8228
0
LINE
8
Black
10
-70.2227
20
-19.8228
11
-70.2223
21
-19.825
0
LINE
8
Black
10
-70.2223
20
-19.825
11
-70.2223
21
-19.8853
0
LINE
8
Black
10
-70.2223
20
-19.8853
11
-70.2222
21
-19.8864
0
LINE
8
Black
10
-70.2222
20
-19.8864
11
-70.2211
21
-19.8865
0
LINE
8
Black
10
-70.2211
20
-19.8865
11
-44.2201
21
-19.8865
0
LINE
8
Black
10
-44.2201
20
-19.8865
11
-44.219
21
-19.8867
0
LINE
8
Black
10
-44.219
20
-19.8867
11
-44.2179
21
-19.8866
0
LINE
8
Black
10
-44.2179
20
-19.8866
11
-44.2147
21
-19.8874
0
LINE
8
Black
10
-44.2147
20
-19.8874
11
-44.2115
21
-19.888
0
LINE
8
Black
10
-44.2115
20
-19.888
11
-44.2106
21
-19.8886
0
LINE
8
Black
10
-44.2106
20
-19.8886
11
-44.2095
21
-19.8888
0
LINE
8
Black
10
-44.2095
20
-19.8888
11
-44.2068
21
-19.8907
0
LINE
8
Black
10
-44.2068
20
-19.8907
11
-44.204
21
-19.8923
0
LINE
8
Black
10
-44.204
20
-19.8923
11
-44.2033
21
-19.8932
0
LINE
8
Black
10
-44.2033
20
-19.8932
11
-44.2024
21
-19.8938
0
LINE
8
Black
10
-44.2024
20
-19.8938
11
-43.8521
21
-20.2441
0
LINE
8
Black
10
-43.8521
20
-20.2441
11
-43.8515
21
-20.245
0
LINE
8
Black
10
-43.8515
20
-20.245
11
-43.8506
21
-20.2457
0
LINE
8
Black
10
-43.8506
20
-20.2457
11
-43.849
21
-20.2485
0
LINE
8
Black
10
-43.849
20
-20.2485
11
-43.8471
21
-20.2512
0
LINE
8
Black
10
-43.8471
20
-20.2512
11
-43.8469
21
-20.2523
0
LINE
8
Black
10
-43.8469
20
-20.2523
11
-43.8463
21
-20.2532
0
LINE
8
Black
10
-43.8463
20
-20.2532
11
-43.8457
21
-20.2564
0
LINE
8
Black
10
-43.8457
20
-20.2564
11
-43.8449
21
-20.2596
0
LINE
8
Black
10
-43.8449
20
-20.2596
11
-43.845
21
-20.2607
0
LINE
8
Black
10
-43.845
20
-20.2607
11
-43.8448
21
-20.2618
0
LINE
8
Black
10
-43.8448
20
-20.2618
11
-43.8448
21
-30.0228
0
LINE
8
Black
10
-43.8448
20
-30.0228
11
-43.8447
21
-30.0239
0
LINE
8
Black
10
-43.8447
20
-30.0239
11
-43.8436
21
-30.024
0
LINE
8
Black
10
-43.8436
20
-30.024
11
-14.4927
21
-30.024
0
LINE
8
Black
10
-14.4927
20
-30.024
11
-14.4916
21
-30.0242
0
LINE
8
Black
10
-14.4916
20
-30.0242
11
-14.4905
21
-30.0241
0
LINE
8
Black
10
-14.4905
20
-30.0241
11
-14.4873
21
-30.0249
0
LINE
8
Black
10
-14.4873
20
-30.0249
11
-14.4841
21
-30.0255
0
LINE
8
Black
10
-14.4841
20
-30.0255
11
-14.4832
21
-30.0261
0
LINE
8
Black
10
-14.4832
20
-30.0261
11
-14.4821
21
-30.0263
0
LINE
8
Black
10
-14.4821
20
-30.0263
11
-14.4794
21
-30.0282
0
LINE
8
Black
10
-14.4794
20
-30.0282
11
-14.4766
21
-30.0298
0
LINE
8
Black
10
-14.4766
20
-30.0298
11
-14.4759
21
-30.0307
0
LINE
8
Black
10
-14.4759
20
-30.0307
11
-14.475
21
-30.0313
0
LINE
8
Black
10
-14.475
20
-30.0313
11
-11.9896
21
-32.5167
0
LINE
8
Black
10
-11.9896
20
-32.5167
11
-11.989
21
-32.5176
0
LINE
8
Black
10
-11.989
20
-32.5176
11
-11.9881
21
-32.5183
0
LINE
8
Black
10
-11.9881
20
-32.5183
11
-11.9865
21
-32.5211
0
LINE
8
Black
10
-11.9865
20
-32.5211
11
-11.9846
21
-32.5238
0
LINE
8
Black
10
-11.9846
20
-32.5238
11
-11.9844
21
-32.5249
0
LINE
8
Black
10
-11.9844
20
-32.5249
11
-11.9838
21
-32.5258
0
LINE
8
Black
10
-11.9838
20
-32.5258
11
-11.9832
21
-32.529
0
LINE
8
Black
10
-11.9832
20
-32.529
11
-11.9824
21
-32.5322
0
LINE
8
Black
10
-11.9824
20
-32.5322
11
-11.9825
21
-32.5333
0
LINE
8
Black
10
-11.9825
20
-32.5333
11
-11.9823
21
-32.5344
0
LINE
8
Black
10
-11.9823
20
-32.5344
11
-11.9823
21
-93.999
0
LINE
8
Black
10
-11.9823
20
-93.999
11
-11.9827
21
-94.0012
0
LINE
8
Black
10
-11.9827
20
-94.0012
11
-11.9827
21
-94.0033
0
LINE
8
Black
10
-11.9827
20
-94.0033
11
-11.9834
21
-94.0054
0
LINE
8
Black
10
-11.9834
20
-94.0054
11
-11.9838
21
-94.0076
0
LINE
8
Black
10
-11.9838
20
-94.0076
11
-11.9849
21
-94.0094
0
LINE
8
Black
10
-11.9849
20
-94.0094
11
-11.9856
21
-94.0115
0
LINE
8
Black
10
-11.9856
20
-94.0115
11
-11.9871
21
-94.0132
0
LINE
8
Black
10
-11.9871
20
-94.0132
11
-11.9881
21
-94.0151
0
LINE
8
Black
10
-11.9881
20
-94.0151
11
-11.9898
21
-94.0165
0
LINE
8
Black
10
-11.9898
20
-94.0165
11
-11.9912
21
-94.0182
0
LINE
8
Black
10
-11.9912
20
-94.0182
11
-11.9931
21
-94.0192
0
LINE
8
Black
10
-11.9931
20
-94.0192
11
-11.9948
21
-94.0207
0
LINE
8
Black
10
-11.9948
20
-94.0207
11
-11.9969
21
-94.0214
0
LINE
8
Black
10
-11.9969
20
-94.0214
11
-11.9987
21
-94.0225
0
LINE
8
Black
10
-11.9987
20
-94.0225
11
-12.0009
21
-94.0229
0
LINE
8
Black
10
-12.0009
20
-94.0229
11
-12.003
21
-94.0236
0
LINE
8
Black
10
-12.003
20
-94.0236
11
-12.0051
21
-94.0236
0
LINE
8
Black
10
-12.0051
20
-94.0236
11
-12.0073
21
-94.024
0
LINE
8
Black
10
-12.0073
20
-94.024
11
-73.4719
21
-94.024
0
LINE
8
Black
10
-73.4719
20
-94.024
11
-73.473
21
-94.0238
0
LINE
8
Black
10
-73.473
20
-94.0238
11
-73.4741
21
-94.0239
0
LINE
8
Black
10
-73.4741
20
-94.0239
11
-73.4773
21
-94.0231
0
LINE
8
Black
10
-73.4773
20
-94.0231
11
-73.4805
21
-94.0225
0
LINE
8
Black
10
-73.4805
20
-94.0225
11
-73.4814
21
-94.0219
0
LINE
8
Black
10
-73.4814
20
-94.0219
11
-73.4825
21
-94.0217
0
LINE
8
Black
10
-73.4825
20
-94.0217
11
-73.4852
21
-94.0198
0
LINE
8
Black
10
-73.4852
20
-94.0198
11
-73.488
21
-94.0182
0
LINE
8
Black
10
-73.488
20
-94.0182
11
-73.4887
21
-94.0173
0
LINE
8
Black
10
-73.4887
20
-94.0173
11
-73.4896
21
-94.0167
0
LINE
8
Black
10
-73.4896
20
-94.0167
11
-75.975
21
-91.5313
0
LINE
8
Black
10
-75.975
20
-91.5313
11
-75.9756
21
-91.5304
0
LINE
8
Black
10
-75.9756
20
-91.5304
11
-75.9765
21
-91.5297
0
LINE
8
Black
10
-75.9765
20
-91.5297
11
-75.9781
21
-91.5269
0
LINE
8
Black
10
-75.9781
20
-91.5269
11
-75.98
21
-91.5242
0
LINE
8
Black
10
-75.98
20
-91.5242
11
-75.9802
21
-91.5231
0
LINE
8
Black
10
-75.9802
20
-91.5231
11
-75.9808
21
-91.5222
0
LINE
8
Black
10
-75.9808
20
-91.5222
11
-75.9814
21
-91.519
0
LINE
8
Black
10
-75.9814
20
-91.519
11
-75.9822
21
-91.5158
0
LINE
8
Black
10
-75.9822
20
-91.5158
11
-75.9821
21
-91.5147
0
LINE
8
Black
10
-75.9821
20
-91.5147
11
-75.9823
21
-91.5136
0
LINE
8
Black
10
-75.9823
20
-91.5136
11
-75.9823
21
-30.049
0
LINE
8
Black
10
-75.9823
20
-30.049
11
-75.9819
21
-30.0468
0
LINE
8
Black
10
-75.9819
20
-30.0468
11
-75.9819
21
-30.0447
0
LINE
8
Black
10
-75.9819
20
-30.0447
11
-75.9812
21
-30.0426
0
LINE
8
Black
10
-75.9812
20
-30.0426
11
-75.9808
21
-30.0404
0
LINE
8
Black
10
-75.9808
20
-30.0404
11
-75.9797
21
-30.0386
0
LINE
8
Black
10
-75.9797
20
-30.0386
11
-75.979
21
-30.0365
0
LINE
8
Black
10
-75.979
20
-30.0365
11
-75.9775
21
-30.0348
0
LINE
8
Black
10
-75.9775
20
-30.0348
11
-75.9765
21
-30.0329
0
LINE
8
Black
10
-75.9765
20
-30.0329
11
-75.9748
21
-30.0315
0
LINE
8
Black
10
-75.9748
20
-30.0315
11
-75.9734
21
-30.0298
0
LINE
8
Black
10
-75.9734
20
-30.0298
11
-75.9715
21
-30.0288
0
LINE
8
Black
10
-75.9715
20
-30.0288
11
-75.9698
21
-30.0273
0
LINE
8
Black
10
-75.9698
20
-30.0273
11
-75.9677
21
-30.0266
0
LINE
8
Black
10
-75.9677
20
-30.0266
11
-75.9659
21
-30.0255
0
LINE
8
Black
10
-75.9659
20
-30.0255
11
-75.9637
21
-30.0251
0
LINE
8
Black
10
-75.9637
20
-30.0251
11
-75.9616
21
-30.0244
0
LINE
8
Black
10
-75.9616
20
-30.0244
11
-75.9595
21
-30.0244
0
LINE
8
Black
10
-75.9595
20
-30.0244
11
-75.9573
21
-30.024
0
LINE
8
Black
10
-75.9573
20
-30.024
11
-44.121
21
-30.024
0
LINE
8
Black
10
-44.121
20
-30.024
11
-44.1199
21
-30.0239
0
LINE
8
Black
10
-44.1199
20
-30.0239
11
-44.1198
21
-30.0228
0
LINE
8
Black
10
-44.1198
20
-30.0228
11
-44.1198
21
-20.1627
0
LINE
8
Black
10
-44.1198
20
-20.1627
11
-44.1199
21
-20.1616
0
LINE
8
Black
10
-44.1199
20
-20.1616
11
-44.121
21
-20.1615
0
LINE
8
Black
10
-44.121
20
-20.1615
11
-70.2211
21
-20.1615
0
LINE
8
Black
10
-70.2211
20
-20.1615
11
-70.2222
21
-20.1616
0
LINE
8
Black
10
-70.2222
20
-20.1616
11
-70.2223
21
-20.1627
0
LINE
8
Black
10
-70.2223
20
-20.1627
11
-70.2223
21
-20.223
0
LINE
8
Black
10
-70.2223
20
-20.223
11
-70.2227
21
-20.2252
0
LINE
8
Black
10
-70.2227
20
-20.2252
11
-70.2227
21
-20.2273
0
LINE
8
Black
10
-70.2227
20
-20.2273
11
-70.2234
21
-20.2294
0
LINE
8
Black
10
-70.2234
20
-20.2294
11
-70.2238
21
-20.2316
0
LINE
8
Black
10
-70.2238
20
-20.2316
11
-70.2249
21
-20.2334
0
LINE
8
Black
10
-70.2249
20
-20.2334
11
-70.2256
21
-20.2355
0
LINE
8
Black
10
-70.2256
20
-20.2355
11
-70.2271
21
-20.2372
0
LINE
8
Black
10
-70.2271
20
-20.2372
11
-70.2281
21
-20.2391
0
LINE
8
Black
10
-70.2281
20
-20.2391
11
-70.2298
21
-20.2405
0
LINE
8
Black
10
-70.2298
20
-20.2405
11
-70.2312
21
-20.2422
0
LINE
8
Black
10
-70.2312
20
-20.2422
11
-70.2331
21
-20.2432
0
LINE
8
Black
10
-70.2331
20
-20.2432
11
-70.2348
21
-20.2447
0
LINE
8
Black
10
-70.2348
20
-20.2447
11
-70.2369
21
-20.2454
0
LINE
8
Black
10
-70.2369
20
-20.2454
11
-70.2387
21
-20.2465
0
LINE
8
Black
10
-70.2387
20
-20.2465
11
-70.2409
21
-20.2469
0
LINE
8
Black
10
-70.2409
20
-20.2469
11
-70.243
21
-20.2476
0
LINE
8
Black
10
-70.243
20
-20.2476
11
-70.2451
21
-20.2476
0
LINE
8
Black
10
-70.2451
20
-20.2476
11
-70.2473
21
-20.248
0
LINE
8
Black
10
-70.2473
20
-20.248
11
-87.6665
21
-20.248
0
LINE
8
Black
10
-87.6665
20
-20.248
11
-87.6676
21
-20.2478
0
LINE
8
Black
10
-87.6676
20
-20.2478
11
-87.6687
21
-20.2479
0
LINE
8
Black
10
-87.6687
20
-20.2479
11
-87.6719
21
-20.2471
0
LINE
8
Black
10
-87.6719
20
-20.2471
11
-87.6751
21
-20.2465
0
LINE
8
Black
10
-87.6751
20
-20.2465
11
-87.676
21
-20.2459
0
LINE
8
Black
10
-87.676
20
-20.2459
11
-87.6771
21
-20.2457
0
LINE
8
Black
10
-87.6771
20
-20.2457
11
-87.6798
21
-20.2438
0
LINE
8
Black
10
-87.6798
20
-20.2438
11
-87.6826
21
-20.2422
0
LINE
8
Black
10
-87.6826
20
-20.2422
11
-87.6833
21
-20.2413
0
LINE
8
Black
10
-87.6833
20
-20.2413
11
-87.6842
21
-20.2407
0
LINE
8
Black
10
-87.6842
20
-20.2407
11
-87.9
21
-20.0249
0
LINE
8
Black
10
-87.9
20
-20.0249
11
-87.9009
21
-20.0241
0
LINE
8
Black
10
-87.9009
20
-20.0241
11
-87.9021
21
-20.024
0
LINE
8
Black
10
-87.9021
20
-20.024
11
-88.0271
21
-20.024
0
LINE
8
Black
10
-88.0271
20
-20.024
11
-88.0283
21
-20.0241
0
LINE
8
Black
10
-88.0283
20
-20.0241
11
-88.0292
21
-20.0249
0
LINE
8
Black
10
-88.0292
20
-20.0249
11
-88.245
21
-20.2407
0
LINE
8
Black
10
-88.245
20
-20.2407
11
-88.2459
21
-20.2413
0
LINE
8
Black
10
-88.2459
20
-20.2413
11
-88.2466
21
-20.2422
0
LINE
8
Black
10
-88.2466
20
-20.2422
11
-88.2494
21
-20.2438
0
LINE
8
Black
10
-88.2494
20
-20.2438
11
-88.2521
21
-20.2457
0
LINE
8
Black
10
-88.2521
20
-20.2457
11
-88.2532
21
-20.2459
0
LINE
8
Black
10
-88.2532
20
-20.2459
11
-88.2541
21
-20.2465
0
LINE
8
Black
10
-88.2541
20
-20.2465
11
-88.2573
21
-20.2471
0
LINE
8
Black
10
-88.2573
20
-20.2471
11
-88.2605
21
-20.2479
0
LINE
8
Black
10
-88.2605
20
-20.2479
11
-88.2616
21
-20.2478
0
LINE
8
Black
10
-88.2616
20
-20.2478
11
-88.2627
21
-20.248
0
LINE
8
Black
10
-88.2627
20
-20.248
11
-105.682
21
-20.248
0
LINE
8
Black
10
-105.682
20
-20.248
11
-105.684
21
-20.2476
0
LINE
8
Black
10
-105.684
20
-20.2476
11
-105.686
21
-20.2476
0
LINE
8
Black
10
-105.686
20
-20.2476
11
-105.688
21
-20.2469
0
LINE
8
Black
10
-105.688
20
-20.2469
11
-105.69
21
-20.2465
0
LINE
8
Black
10
-105.69
20
-20.2465
11
-105.692
21
-20.2454
0
LINE
8
Black
10
-105.692
20
-20.2454
11
-105.694
21
-20.2447
0
LINE
8
Black
10
-105.694
20
-20.2447
11
-105.696
21
-20.2432
0
LINE
8
Black
10
-105.696
20
-20.2432
11
-105.698
21
-20.2422
0
LINE
8
Black
10
-105.698
20
-20.2422
11
-105.699
21
-20.2405
0
LINE
8
Black
10
-105.699
20
-20.2405
11
-105.701
21
-20.2391
0
LINE
8
Black
10
-105.701
20
-20.2391
11
-105.702
21
-20.2372
0
LINE
8
Black
10
-105.702
20
-20.2372
11
-105.704
21
-20.2355
0
LINE
8
Black
10
-105.704
20
-20.2355
11
-105.704
21
-20.2334
0
LINE
8
Black
10
-105.704
20
-20.2334
11
-105.705
21
-20.2316
0
LINE
8
Black
10
-105.705
20
-20.2316
11
-105.706
21
-20.2294
0
LINE
8
Black
10
-105.706
20
-20.2294
11
-105.707
21
-20.2273
0
LINE
8
Black
10
-105.707
20
-20.2273
11
-105.707
21
-20.2252
0
LINE
8
Black
10
-105.707
20
-20.2252
11
-105.707
21
-20.223
0
LINE
8
Black
10
-105.707
20
-20.223
11
-105.707
21
-20.1627
0
LINE
8
Black
10
-105.707
20
-20.1627
11
-105.707
21
-20.1616
0
LINE
8
Black
10
-105.707
20
-20.1616
11
-105.708
21
-20.1615
0
LINE
8
Black
10
-105.708
20
-20.1615
11
-131.808
21
-20.1615
0
LINE
8
Black
10
-131.808
20
-20.1615
11
-131.809
21
-20.1616
0
LINE
8
Black
10
-131.809
20
-20.1616
11
-131.809
21
-20.1627
0
LINE
8
Black
10
-131.809
20
-20.1627
11
-131.809
21
-30.0228
0
LINE
8
Black
10
-131.809
20
-30.0228
11
-131.809
21
-30.0239
0
LINE
8
Black
10
-131.809
20
-30.0239
11
-131.808
21
-30.024
0
LINE
8
Black
10
-131.808
20
-30.024
11
-102.457
21
-30.024
0
LINE
8
Black
10
-102.457
20
-30.024
11
-102.456
21
-30.0242
0
LINE
8
Black
10
-102.456
20
-30.0242
11
-102.455
21
-30.0241
0
LINE
8
Black
10
-102.455
20
-30.0241
11
-102.452
21
-30.0249
0
LINE
8
Black
10
-102.452
20
-30.0249
11
-102.449
21
-30.0255
0
LINE
8
Black
10
-102.449
20
-30.0255
11
-102.448
21
-30.0261
0
LINE
8
Black
10
-102.448
20
-30.0261
11
-102.447
21
-30.0263
0
LINE
8
Black
10
-102.447
20
-30.0263
11
-102.444
21
-30.0282
0
LINE
8
Black
10
-102.444
20
-30.0282
11
-102.441
21
-30.0298
0
LINE
8
Black
10
-102.441
20
-30.0298
11
-102.44
21
-30.0307
0
LINE
8
Black
10
-102.44
20
-30.0307
11
-102.44
21
-30.0313
0
LINE
8
Black
10
-102.44
20
-30.0313
11
-99.9542
21
-32.5167
0
LINE
8
Black
10
-99.9542
20
-32.5167
11
-99.9536
21
-32.5176
0
LINE
8
Black
10
-99.9536
20
-32.5176
11
-99.9527
21
-32.5183
0
LINE
8
Black
10
-99.9527
20
-32.5183
11
-99.9511
21
-32.5211
0
LINE
8
Black
10
-99.9511
20
-32.5211
11
-99.9492
21
-32.5238
0
LINE
8
Black
10
-99.9492
20
-32.5238
11
-99.949
21
-32.5249
0
LINE
8
Black
10
-99.949
20
-32.5249
11
-99.9484
21
-32.5258
0
LINE
8
Black
10
-99.9484
20
-32.5258
11
-99.9478
21
-32.529
0
LINE
8
Black
10
-99.9478
20
-32.529
11
-99.947
21
-32.5322
0
LINE
8
Black
10
-99.947
20
-32.5322
11
-99.9471
21
-32.5333
0
LINE
8
Black
10
-99.9471
20
-32.5333
11
-99.9469
21
-32.5344
0
LINE
8
Black
10
-99.9469
20
-32.5344
11
-99.9469
21
-93.999
0
LINE
8
Black
10
-99.9469
20
-93.999
11
-99.9473
21
-94.0012
0
LINE
8
Black
10
-99.9473
20
-94.0012
11
-99.9473
21
-94.0033
0
LINE
8
Black
10
-99.9473
20
-94.0033
11
-99.948
21
-94.0054
0
LINE
8
Black
10
-99.948
20
-94.0054
11
-99.9484
21
-94.0076
0
LINE
8
Black
10
-99.9484
20
-94.0076
11
-99.9495
21
-94.0094
0
LINE
8
Black
10
-99.9495
20
-94.0094
11
-99.9502
21
-94.0115
0
LINE
8
Black
10
-99.9502
20
-94.0115
11
-99.9517
21
-94.0132
0
LINE
8
Black
10
-99.9517
20
-94.0132
11
-99.9527
21
-94.0151
0
LINE
8
Black
10
-99.9527
20
-94.0151
11
-99.9544
21
-94.0165
0
LINE
8
Black
10
-99.9544
20
-94.0165
11
-99.9558
21
-94.0182
0
LINE
8
Black
10
-99.9558
20
-94.0182
11
-99.9577
21
-94.0192
0
LINE
8
Black
10
-99.9577
20
-94.0192
11
-99.9594
21
-94.0207
0
LINE
8
Black
10
-99.9594
20
-94.0207
11
-99.9615
21
-94.0214
0
LINE
8
Black
10
-99.9615
20
-94.0214
11
-99.9633
21
-94.0225
0
LINE
8
Black
10
-99.9633
20
-94.0225
11
-99.9655
21
-94.0229
0
LINE
8
Black
10
-99.9655
20
-94.0229
11
-99.9676
21
-94.0236
0
LINE
8
Black
10
-99.9676
20
-94.0236
11
-99.9697
21
-94.0236
0
LINE
8
Black
10
-99.9697
20
-94.0236
11
-99.9719
21
-94.024
0
LINE
8
Black
10
-99.9719
20
-94.024
11
-161.437
21
-94.024
0
LINE
8
Black
10
-161.437
20
-94.024
11
-161.438
21
-94.0238
0
LINE
8
Black
10
-161.438
20
-94.0238
11
-161.439
21
-94.0239
0
LINE
8
Black
10
-161.439
20
-94.0239
11
-161.442
21
-94.0231
0
LINE
8
Black
10
-161.442
20
-94.0231
11
-161.445
21
-94.0225
0
LINE
8
Black
10
-161.445
20
-94.0225
11
-161.446
21
-94.0219
0
LINE
8
Black
10
-161.446
20
-94.0219
11
-161.447
21
-94.0217
0
LINE
8
Black
10
-161.447
20
-94.0217
11
-161.45
21
-94.0198
0
LINE
8
Black
10
-161.45
20
-94.0198
11
-161.453
21
-94.0182
0
LINE
8
Black
10
-161.453
20
-94.0182
11
-161.453
21
-94.0173
0
LINE
8
Black
10
-161.453
20
-94.0173
11
-161.454
21
-94.0167
0
LINE
8
Black
10
-161.454
20
-94.0167
11
-163.94
21
-91.5313
0
LINE
8
Black
10
-163.94
20
-91.5313
11
-163.94
21
-91.5304
0
LINE
8
Black
10
-163.94
20
-91.5304
11
-163.941
21
-91.5297
0
LINE
8
Black
10
-163.941
20
-91.5297
11
-163.943
21
-91.5269
0
LINE
8
Black
10
-163.943
20
-91.5269
11
-163.945
21
-91.5242
0
LINE
8
Black
10
-163.945
20
-91.5242
11
-163.945
21
-91.5231
0
LINE
8
Black
10
-163.945
20
-91.5231
11
-163.945
21
-91.5222
0
LINE
8
Black
10
-163.945
20
-91.5222
11
-163.946
21
-91.519
0
LINE
8
Black
10
-163.946
20
-91.519
11
-163.947
21
-91.5158
0
LINE
8
Black
10
-163.947
20
-91.5158
11
-163.947
21
-91.5147
0
LINE
8
Black
10
-163.947
20
-91.5147
11
-163.947
21
-91.5136
0
LINE
8
Black
10
-163.947
20
-91.5136
11
-163.947
21
-30.049
0
LINE
8
Black
10
-163.947
20
-30.049
11
-163.947
21
-30.0468
0
LINE
8
Black
10
-163.947
20
-30.0468
11
-163.947
21
-30.0447
0
LINE
8
Black
10
-163.947
20
-30.0447
11
-163.946
21
-30.0426
0
LINE
8
Black
10
-163.946
20
-30.0426
11
-163.945
21
-30.0404
0
LINE
8
Black
10
-163.945
20
-30.0404
11
-163.944
21
-30.0386
0
LINE
8
Black
10
-163.944
20
-30.0386
11
-163.944
21
-30.0365
0
LINE
8
Black
10
-163.944
20
-30.0365
11
-163.942
21
-30.0348
0
LINE
8
Black
10
-163.942
20
-30.0348
11
-163.941
21
-30.0329
0
LINE
8
Black
10
-163.941
20
-30.0329
11
-163.939
21
-30.0315
0
LINE
8
Black
10
-163.939
20
-30.0315
11
-163.938
21
-30.0298
0
LINE
8
Black
10
-163.938
20
-30.0298
11
-163.936
21
-30.0288
0
LINE
8
Black
10
-163.936
20
-30.0288
11
-163.934
21
-30.0273
0
LINE
8
Black
10
-163.934
20
-30.0273
11
-163.932
21
-30.0266
0
LINE
8
Black
10
-163.932
20
-30.0266
11
-163.93
21
-30.0255
0
LINE
8
Black
10
-163.93
20
-30.0255
11
-163.928
21
-30.0251
0
LINE
8
Black
10
-163.928
20
-30.0251
11
-163.926
21
-30.0244
0
LINE
8
Black
10
-163.926
20
-30.0244
11
-163.924
21
-30.0244
0
LINE
8
Black
10
-163.924
20
-30.0244
11
-163.922
21
-30.024
0
LINE
8
Black
10
-163.922
20
-30.024
11
-132.086
21
-30.024
0
LINE
8
Black
10
-132.086
20
-30.024
11
-132.085
21
-30.0239
0
LINE
8
Black
10
-132.085
20
-30.0239
11
-132.084
21
-30.0228
0
LINE
8
Black
10
-132.084
20
-30.0228
11
-132.084
21
-20.2618
0
LINE
8
Black
10
-132.084
20
-20.2618
11
-132.084
21
-20.2607
0
LINE
8
Black
10
-132.084
20
-20.2607
11
-132.084
21
-20.2596
0
LINE
8
Black
10
-132.084
20
-20.2596
11
-132.083
21
-20.2564
0
LINE
8
Black
10
-132.083
20
-20.2564
11
-132.083
21
-20.2532
0
LINE
8
Black
10
-132.083
20
-20.2532
11
-132.082
21
-20.2523
0
LINE
8
Black
10
-132.082
20
-20.2523
11
-132.082
21
-20.2512
0
LINE
8
Black
10
-132.082
20
-20.2512
11
-132.08
21
-20.2485
0
LINE
8
Black
10
-132.08
20
-20.2485
11
-132.079
21
-20.2457
0
LINE
8
Black
10
-132.079
20
-20.2457
11
-132.078
21
-20.245
0
LINE
8
Black
10
-132.078
20
-20.245
11
-132.077
21
-20.2441
0
LINE
8
Black
10
-132.077
20
-20.2441
11
-131.727
21
-19.8938
0
LINE
8
Black
10
-131.727
20
-19.8938
11
-131.726
21
-19.8932
0
LINE
8
Black
10
-131.726
20
-19.8932
11
-131.725
21
-19.8923
0
LINE
8
Black
10
-131.725
20
-19.8923
11
-131.722
21
-19.8907
0
LINE
8
Black
10
-131.722
20
-19.8907
11
-131.72
21
-19.8888
0
LINE
8
Black
10
-131.72
20
-19.8888
11
-131.719
21
-19.8886
0
LINE
8
Black
10
-131.719
20
-19.8886
11
-131.718
21
-19.888
0
LINE
8
Black
10
-131.718
20
-19.888
11
-131.714
21
-19.8874
0
LINE
8
Black
10
-131.714
20
-19.8874
11
-131.711
21
-19.8866
0
LINE
8
Black
10
-131.711
20
-19.8866
11
-131.71
21
-19.8867
0
LINE
8
Black
10
-131.71
20
-19.8867
11
-131.709
21
-19.8865
0
LINE
8
Black
10
-131.709
20
-19.8865
11
-105.708
21
-19.8865
0
LINE
8
Black
10
-105.708
20
-19.8865
11
-105.707
21
-19.8864
0
LINE
8
Black
10
-105.707
20
-19.8864
11
-105.707
21
-19.8853
0
LINE
8
Black
10
-105.707
20
-19.8853
11
-105.707
21
-19.825
0
LINE
8
Black
10
-105.707
20
-19.825
11
-105.707
21
-19.8228
0
LINE
8
Black
10
-105.707
20
-19.8228
11
-105.707
21
-19.8207
0
LINE
8
Black
10
-105.707
20
-19.8207
11
-105.706
21
-19.8186
0
LINE
8
Black
10
-105.706
20
-19.8186
11
-105.705
21
-19.8164
0
LINE
8
Black
10
-105.705
20
-19.8164
11
-105.704
21
-19.8146
0
LINE
8
Black
10
-105.704
20
-19.8146
11
-105.704
21
-19.8125
0
LINE
8
Black
10
-105.704
20
-19.8125
11
-105.702
21
-19.8108
0
LINE
8
Black
10
-105.702
20
-19.8108
11
-105.701
21
-19.8089
0
LINE
8
Black
10
-105.701
20
-19.8089
11
-105.699
21
-19.8075
0
LINE
8
Black
10
-105.699
20
-19.8075
11
-105.698
21
-19.8058
0
LINE
8
Black
10
-105.698
20
-19.8058
11
-105.696
21
-19.8048
0
LINE
8
Black
10
-105.696
20
-19.8048
11
-105.694
21
-19.8033
0
LINE
8
Black
10
-105.694
20
-19.8033
11
-105.692
21
-19.8026
0
LINE
8
Black
10
-105.692
20
-19.8026
11
-105.69
21
-19.8015
0
LINE
8
Black
10
-105.69
20
-19.8015
11
-105.688
21
-19.8011
0
LINE
8
Black
10
-105.688
20
-19.8011
11
-105.686
21
-19.8004
0
LINE
8
Black
10
-105.686
20
-19.8004
11
-105.684
21
-19.8004
0
LINE
8
Black
10
-105.684
20
-19.8004
11
-105.682
21
-19.8
0
LINE
8
Black
10
-105.682
20
-19.8
11
-88.4078
21
-19.8
0
LINE
8
Black
10
-88.4078
20
-19.8
11
-88.4067
21
-19.7999
0
LINE
8
Black
10
-88.4067
20
-19.7999
11
-88.4066
21
-19.7988
0
LINE
8
Black
10
-88.4066
20
-19.7988
11
-88.4066
21
-0.412356
0
LINE
8
Black
10
-88.4066
20
-0.412356
11
-88.4064
21
-0.411273
0
LINE
8
Black
10
-88.4064
20
-0.411273
11
-88.4065
21
-0.410177
0
LINE
8
Black
10
-88.4065
20
-0.410177
11
-88.4057
21
-0.407019
0
LINE
8
Black
10
-88.4057
20
-0.407019
11
-88.4051
21
-0.403805
0
LINE
8
Black
10
-88.4051
20
-0.403805
11
-88.4045
21
-0.402854
0
LINE
8
Black
10
-88.4045
20
-0.402854
11
-88.4043
21
-0.401791
0
LINE
8
Black
10
-88.4043
20
-0.401791
11
-88.4024
21
-0.399114
0
LINE
8
Black
10
-88.4024
20
-0.399114
11
-88.4008
21
-0.396286
0
LINE
8
Black
10
-88.4008
20
-0.396286
11
-88.3999
21
-0.39558
0
LINE
8
Black
10
-88.3999
20
-0.39558
11
-88.3993
21
-0.394678
0
LINE
8
Black
10
-88.3993
20
-0.394678
11
-87.5939
21
0.410677
0
LINE
8
Black
10
-87.5939
20
0.410677
11
-87.593
21
0.411307
0
LINE
8
Black
10
-87.593
20
0.411307
11
-87.5923
21
0.412151
0
LINE
8
Black
10
-87.5923
20
0.412151
11
-87.5895
21
0.413785
0
LINE
8
Black
10
-87.5895
20
0.413785
11
-87.5868
21
0.415658
0
LINE
8
Black
10
-87.5868
20
0.415658
11
-87.5857
21
0.415943
0
LINE
8
Black
10
-87.5857
20
0.415943
11
-87.5848
21
0.416492
0
LINE
8
Black
10
-87.5848
20
0.416492
11
-87.5816
21
0.417059
0
LINE
8
Black
10
-87.5816
20
0.417059
11
-87.5784
21
0.417905
0
LINE
8
Black
10
-87.5784
20
0.417905
11
-87.5773
21
0.417809
0
LINE
8
Black
10
-87.5773
20
0.417809
11
-87.5762
21
0.418
0
LINE
8
Black
10
-87.5762
20
0.418
11
-72.6596
21
0.418
0
LINE
8
Black
10
-72.6596
20
0.418
11
-72.6574
21
0.41762
0
LINE
8
Black
10
-72.6574
20
0.41762
11
-72.6553
21
0.41762
0
LINE
8
Black
10
-72.6553
20
0.41762
11
-72.6532
21
0.416872
0
LINE
8
Black
10
-72.6532
20
0.416872
11
-72.651
21
0.416492
0
LINE
8
Black
10
-72.651
20
0.416492
11
-72.6492
21
0.415399
0
LINE
8
Black
10
-72.6492
20
0.415399
11
-72.6471
21
0.414651
0
LINE
8
Black
10
-72.6471
20
0.414651
11
-72.6454
21
0.413244
0
LINE
8
Black
10
-72.6454
20
0.413244
11
-72.6435
21
0.412151
0
LINE
8
Black
10
-72.6435
20
0.412151
11
-72.6421
21
0.410476
0
LINE
8
Black
10
-72.6421
20
0.410476
11
-72.6404
21
0.40907
0
LINE
8
Black
10
-72.6404
20
0.40907
11
-72.6394
21
0.407177
0
LINE
8
Black
10
-72.6394
20
0.407177
11
-72.6379
21
0.4055
0
LINE
8
Black
10
-72.6379
20
0.4055
11
-72.6372
21
0.403444
0
LINE
8
Black
10
-72.6372
20
0.403444
11
-72.6361
21
0.401551
0
LINE
8
Black
10
-72.6361
20
0.401551
11
-72.6357
21
0.399397
0
LINE
8
Black
10
-72.6357
20
0.399397
11
-72.635
21
0.397341
0
LINE
8
Black
10
-72.635
20
0.397341
11
-72.635
21
0.395155
0
LINE
8
Black
10
-72.635
20
0.395155
11
-72.6346
21
0.393
0
LINE
8
Black
10
-72.6346
20
0.393
11
-72.6346
21
0.20123
0
LINE
8
Black
10
-72.6346
20
0.20123
11
-72.6345
21
0.20011
0
LINE
8
Black
10
-72.6345
20
0.20011
11
-72.6334
21
0.2
0
LINE
8
Black
10
-72.6334
20
0.2
11
-1.23571
21
0.2
0
LINE
8
Black
10
-1.23571
20
0.2
11
-1.23571
21
0.217889
0
LINE
8
Black
10
-1.23571
20
0.217889
11
-1.08667
21
0.627387
0
LINE
8
Black
10
-1.08667
20
0.627387
11
-0.806554
21
0.961213
0
LINE
8
Black
10
-0.806554
20
0.961213
11
-0.429158
21
1.1791
0
LINE
8
Black
10
-0.429158
20
1.1791
11
0
21
1.25477
0
LINE
8
Black
10
0
20
1.25477
11
0.429158
21
1.1791
  0
ENDSEC
  0
EOF
