G04 #@! TF.GenerationSoftware,KiCad,Pcbnew,no-vcs-found-7520~57~ubuntu14.04.1*
G04 #@! TF.CreationDate,2017-01-27T05:30:25+00:00*
G04 #@! TF.ProjectId,dart_gps,646172745F6770732E6B696361645F70,rev?*
G04 #@! TF.FileFunction,Copper,L1,Top,Signal*
G04 #@! TF.FilePolarity,Positive*
%FSLAX46Y46*%
G04 Gerber Fmt 4.6, Leading zero omitted, Abs format (unit mm)*
G04 Created by KiCad (PCBNEW no-vcs-found-7520~57~ubuntu14.04.1) date Fri Jan 27 05:30:25 2017*
%MOMM*%
%LPD*%
G01*
G04 APERTURE LIST*
%ADD10C,0.100000*%
%ADD11C,2.500000*%
%ADD12C,0.050000*%
G04 APERTURE END LIST*
D10*
D11*
X89115000Y-177500000D03*
D12*
G36*
X89590000Y-177276000D02*
X89590480Y-177280877D01*
X89591903Y-177285567D01*
X89594213Y-177289889D01*
X89597322Y-177293678D01*
X89601111Y-177296787D01*
X89605433Y-177299097D01*
X89610123Y-177300520D01*
X89615000Y-177301000D01*
X97407600Y-177301000D01*
X97407600Y-177362500D01*
X97408080Y-177367377D01*
X97409503Y-177372067D01*
X97411813Y-177376389D01*
X97414922Y-177380178D01*
X97418711Y-177383287D01*
X97423033Y-177385597D01*
X97427723Y-177387020D01*
X97432600Y-177387500D01*
X123434747Y-177387500D01*
X123785100Y-177737757D01*
X123785100Y-187500000D01*
X123785580Y-187504877D01*
X123787003Y-187509567D01*
X123789313Y-187513889D01*
X123792422Y-187517678D01*
X123796211Y-187520787D01*
X123800533Y-187523097D01*
X123805223Y-187524520D01*
X123810100Y-187525000D01*
X152662244Y-187525000D01*
X155147600Y-190010356D01*
X155147600Y-250475000D01*
X94682956Y-250475000D01*
X92197600Y-247989644D01*
X92197600Y-187525000D01*
X123535100Y-187525000D01*
X123539977Y-187524520D01*
X123544667Y-187523097D01*
X123548989Y-187520787D01*
X123552778Y-187517678D01*
X123555887Y-187513889D01*
X123558197Y-187509567D01*
X123559620Y-187504877D01*
X123560100Y-187500000D01*
X123560100Y-177637500D01*
X123559620Y-177632623D01*
X123558197Y-177627933D01*
X123555887Y-177623611D01*
X123552778Y-177619822D01*
X123548989Y-177616713D01*
X123544667Y-177614403D01*
X123539977Y-177612980D01*
X123535100Y-177612500D01*
X97432600Y-177612500D01*
X97427723Y-177612980D01*
X97423033Y-177614403D01*
X97418711Y-177616713D01*
X97414922Y-177619822D01*
X97411813Y-177623611D01*
X97409503Y-177627933D01*
X97408080Y-177632623D01*
X97407600Y-177637500D01*
X97407600Y-177699000D01*
X89615000Y-177699000D01*
X89610123Y-177699480D01*
X89605433Y-177700903D01*
X89601111Y-177703213D01*
X89597322Y-177706322D01*
X89594213Y-177710111D01*
X89591903Y-177714433D01*
X89590480Y-177719123D01*
X89590000Y-177724000D01*
X89590000Y-177975000D01*
X88640000Y-177975000D01*
X88640000Y-177724000D01*
X88639520Y-177719123D01*
X88638097Y-177714433D01*
X88635787Y-177710111D01*
X88632678Y-177706322D01*
X88628889Y-177703213D01*
X88624567Y-177700903D01*
X88619877Y-177699480D01*
X88615000Y-177699000D01*
X80822500Y-177699000D01*
X80822500Y-177637500D01*
X80822020Y-177632623D01*
X80820597Y-177627933D01*
X80818287Y-177623611D01*
X80815178Y-177619822D01*
X80811389Y-177616713D01*
X80807067Y-177614403D01*
X80802377Y-177612980D01*
X80797500Y-177612500D01*
X54695000Y-177612500D01*
X54690123Y-177612980D01*
X54685433Y-177614403D01*
X54681111Y-177616713D01*
X54677322Y-177619822D01*
X54674213Y-177623611D01*
X54671903Y-177627933D01*
X54670480Y-177632623D01*
X54670000Y-177637500D01*
X54670000Y-187500000D01*
X54670480Y-187504877D01*
X54671903Y-187509567D01*
X54674213Y-187513889D01*
X54677322Y-187517678D01*
X54681111Y-187520787D01*
X54685433Y-187523097D01*
X54690123Y-187524520D01*
X54695000Y-187525000D01*
X83547144Y-187525000D01*
X86032500Y-190010356D01*
X86032500Y-250475000D01*
X25567856Y-250475000D01*
X23082500Y-247989644D01*
X23082500Y-187525000D01*
X54420000Y-187525000D01*
X54424877Y-187524520D01*
X54429567Y-187523097D01*
X54433889Y-187520787D01*
X54437678Y-187517678D01*
X54440787Y-187513889D01*
X54443097Y-187509567D01*
X54444520Y-187504877D01*
X54445000Y-187500000D01*
X54445000Y-177737756D01*
X54795256Y-177387500D01*
X80797500Y-177387500D01*
X80802377Y-177387020D01*
X80807067Y-177385597D01*
X80811389Y-177383287D01*
X80815178Y-177380178D01*
X80818287Y-177376389D01*
X80820597Y-177372067D01*
X80822020Y-177367377D01*
X80822500Y-177362500D01*
X80822500Y-177301000D01*
X88615000Y-177301000D01*
X88619877Y-177300520D01*
X88624567Y-177299097D01*
X88628889Y-177296787D01*
X88632678Y-177293678D01*
X88635787Y-177289889D01*
X88638097Y-177285567D01*
X88639520Y-177280877D01*
X88640000Y-177276000D01*
X88640000Y-177025000D01*
X89590000Y-177025000D01*
X89590000Y-177276000D01*
X89590000Y-177276000D01*
G37*
X89590000Y-177276000D02*
X89590480Y-177280877D01*
X89591903Y-177285567D01*
X89594213Y-177289889D01*
X89597322Y-177293678D01*
X89601111Y-177296787D01*
X89605433Y-177299097D01*
X89610123Y-177300520D01*
X89615000Y-177301000D01*
X97407600Y-177301000D01*
X97407600Y-177362500D01*
X97408080Y-177367377D01*
X97409503Y-177372067D01*
X97411813Y-177376389D01*
X97414922Y-177380178D01*
X97418711Y-177383287D01*
X97423033Y-177385597D01*
X97427723Y-177387020D01*
X97432600Y-177387500D01*
X123434747Y-177387500D01*
X123785100Y-177737757D01*
X123785100Y-187500000D01*
X123785580Y-187504877D01*
X123787003Y-187509567D01*
X123789313Y-187513889D01*
X123792422Y-187517678D01*
X123796211Y-187520787D01*
X123800533Y-187523097D01*
X123805223Y-187524520D01*
X123810100Y-187525000D01*
X152662244Y-187525000D01*
X155147600Y-190010356D01*
X155147600Y-250475000D01*
X94682956Y-250475000D01*
X92197600Y-247989644D01*
X92197600Y-187525000D01*
X123535100Y-187525000D01*
X123539977Y-187524520D01*
X123544667Y-187523097D01*
X123548989Y-187520787D01*
X123552778Y-187517678D01*
X123555887Y-187513889D01*
X123558197Y-187509567D01*
X123559620Y-187504877D01*
X123560100Y-187500000D01*
X123560100Y-177637500D01*
X123559620Y-177632623D01*
X123558197Y-177627933D01*
X123555887Y-177623611D01*
X123552778Y-177619822D01*
X123548989Y-177616713D01*
X123544667Y-177614403D01*
X123539977Y-177612980D01*
X123535100Y-177612500D01*
X97432600Y-177612500D01*
X97427723Y-177612980D01*
X97423033Y-177614403D01*
X97418711Y-177616713D01*
X97414922Y-177619822D01*
X97411813Y-177623611D01*
X97409503Y-177627933D01*
X97408080Y-177632623D01*
X97407600Y-177637500D01*
X97407600Y-177699000D01*
X89615000Y-177699000D01*
X89610123Y-177699480D01*
X89605433Y-177700903D01*
X89601111Y-177703213D01*
X89597322Y-177706322D01*
X89594213Y-177710111D01*
X89591903Y-177714433D01*
X89590480Y-177719123D01*
X89590000Y-177724000D01*
X89590000Y-177975000D01*
X88640000Y-177975000D01*
X88640000Y-177724000D01*
X88639520Y-177719123D01*
X88638097Y-177714433D01*
X88635787Y-177710111D01*
X88632678Y-177706322D01*
X88628889Y-177703213D01*
X88624567Y-177700903D01*
X88619877Y-177699480D01*
X88615000Y-177699000D01*
X80822500Y-177699000D01*
X80822500Y-177637500D01*
X80822020Y-177632623D01*
X80820597Y-177627933D01*
X80818287Y-177623611D01*
X80815178Y-177619822D01*
X80811389Y-177616713D01*
X80807067Y-177614403D01*
X80802377Y-177612980D01*
X80797500Y-177612500D01*
X54695000Y-177612500D01*
X54690123Y-177612980D01*
X54685433Y-177614403D01*
X54681111Y-177616713D01*
X54677322Y-177619822D01*
X54674213Y-177623611D01*
X54671903Y-177627933D01*
X54670480Y-177632623D01*
X54670000Y-177637500D01*
X54670000Y-187500000D01*
X54670480Y-187504877D01*
X54671903Y-187509567D01*
X54674213Y-187513889D01*
X54677322Y-187517678D01*
X54681111Y-187520787D01*
X54685433Y-187523097D01*
X54690123Y-187524520D01*
X54695000Y-187525000D01*
X83547144Y-187525000D01*
X86032500Y-190010356D01*
X86032500Y-250475000D01*
X25567856Y-250475000D01*
X23082500Y-247989644D01*
X23082500Y-187525000D01*
X54420000Y-187525000D01*
X54424877Y-187524520D01*
X54429567Y-187523097D01*
X54433889Y-187520787D01*
X54437678Y-187517678D01*
X54440787Y-187513889D01*
X54443097Y-187509567D01*
X54444520Y-187504877D01*
X54445000Y-187500000D01*
X54445000Y-177737756D01*
X54795256Y-177387500D01*
X80797500Y-177387500D01*
X80802377Y-177387020D01*
X80807067Y-177385597D01*
X80811389Y-177383287D01*
X80815178Y-177380178D01*
X80818287Y-177376389D01*
X80820597Y-177372067D01*
X80822020Y-177367377D01*
X80822500Y-177362500D01*
X80822500Y-177301000D01*
X88615000Y-177301000D01*
X88619877Y-177300520D01*
X88624567Y-177299097D01*
X88628889Y-177296787D01*
X88632678Y-177293678D01*
X88635787Y-177289889D01*
X88638097Y-177285567D01*
X88639520Y-177280877D01*
X88640000Y-177276000D01*
X88640000Y-177025000D01*
X89590000Y-177025000D01*
X89590000Y-177276000D01*
M02*
