  0
SECTION
  2
HEADER
  9
$ANGBASE
  50
0.0
  9
$ANGDIR
  70
  1
  9
$MEASUREMENT
  70
0
  0
ENDSEC
  0
SECTION
  2
TABLES
  0
TABLE
  2
LTYPE
  70
1
  0
LTYPE
  2
CONTINUOUS
  70
0
  3
Solid line
  72
65
  73
0
  40
0.0
  0
ENDTAB
  0
TABLE
  2
STYLE
  70
4
  0
STYLE
  2
KICAD
  70
0
  40
0
  41
1
  42
1
  50
0
  71
0
  3
isocp.shx
  0
STYLE
  2
KICADB
  70
0
  40
0
  41
1
  42
1
  50
0
  71
0
  3
isocp.shx
  0
STYLE
  2
KICADI
  70
0
  40
0
  41
1
  42
1
  50
15
  71
0
  3
isocp.shx
  0
STYLE
  2
KICADBI
  70
0
  40
0
  41
1
  42
1
  50
15
  71
0
  3
isocp.shx
  0
ENDTAB
  0
TABLE
  2
LAYER
  70
30
  0
LAYER
  2
BLACK
  70
0
  62
7
  6
CONTINUOUS
  0
LAYER
  2
GRAY1
  70
0
  62
251
  6
CONTINUOUS
  0
LAYER
  2
GRAY2
  70
0
  62
8
  6
CONTINUOUS
  0
LAYER
  2
GRAY3
  70
0
  62
9
  6
CONTINUOUS
  0
LAYER
  2
WHITE
  70
0
  62
7
  6
CONTINUOUS
  0
LAYER
  2
LYELLOW
  70
0
  62
51
  6
CONTINUOUS
  0
LAYER
  2
BLUE1
  70
0
  62
178
  6
CONTINUOUS
  0
LAYER
  2
GREEN1
  70
0
  62
98
  6
CONTINUOUS
  0
LAYER
  2
CYAN1
  70
0
  62
138
  6
CONTINUOUS
  0
LAYER
  2
RED1
  70
0
  62
18
  6
CONTINUOUS
  0
LAYER
  2
MAGENTA1
  70
0
  62
228
  6
CONTINUOUS
  0
LAYER
  2
BROWN1
  70
0
  62
58
  6
CONTINUOUS
  0
LAYER
  2
BLUE2
  70
0
  62
5
  6
CONTINUOUS
  0
LAYER
  2
GREEN2
  70
0
  62
3
  6
CONTINUOUS
  0
LAYER
  2
CYAN2
  70
0
  62
4
  6
CONTINUOUS
  0
LAYER
  2
RED2
  70
0
  62
1
  6
CONTINUOUS
  0
LAYER
  2
MAGENTA2
  70
0
  62
6
  6
CONTINUOUS
  0
LAYER
  2
BROWN2
  70
0
  62
54
  6
CONTINUOUS
  0
LAYER
  2
BLUE3
  70
0
  62
171
  6
CONTINUOUS
  0
LAYER
  2
GREEN3
  70
0
  62
91
  6
CONTINUOUS
  0
LAYER
  2
CYAN3
  70
0
  62
131
  6
CONTINUOUS
  0
LAYER
  2
RED3
  70
0
  62
11
  6
CONTINUOUS
  0
LAYER
  2
MAGENTA3
  70
0
  62
221
  6
CONTINUOUS
  0
LAYER
  2
YELLOW3
  70
0
  62
2
  6
CONTINUOUS
  0
LAYER
  2
BLUE4
  70
0
  62
5
  6
CONTINUOUS
  0
LAYER
  2
GREEN4
  70
0
  62
3
  6
CONTINUOUS
  0
LAYER
  2
CYAN4
  70
0
  62
4
  6
CONTINUOUS
  0
LAYER
  2
RED4
  70
0
  62
1
  6
CONTINUOUS
  0
LAYER
  2
MAGENTA4
  70
0
  62
6
  6
CONTINUOUS
  0
LAYER
  2
YELLOW4
  70
0
  62
2
  6
CONTINUOUS
  0
ENDTAB
  0
ENDSEC
  0
SECTION
  2
ENTITIES
0
LINE
8
Black
10
175.963
20
5.12324
11
175.967
21
5.12324
0
LINE
8
Black
10
175.967
20
5.12324
11
175.971
21
5.12174
0
LINE
8
Black
10
175.971
20
5.12174
11
175.976
21
5.12099
0
LINE
8
Black
10
175.976
20
5.12099
11
175.979
21
5.1188
0
LINE
8
Black
10
175.979
20
5.1188
11
175.983
21
5.1173
0
LINE
8
Black
10
175.983
20
5.1173
11
175.987
21
5.11449
0
LINE
8
Black
10
175.987
20
5.11449
11
175.991
21
5.1123
0
LINE
8
Black
10
175.991
20
5.1123
11
175.993
21
5.10895
0
LINE
8
Black
10
175.993
20
5.10895
11
175.997
21
5.10614
0
LINE
8
Black
10
175.997
20
5.10614
11
175.999
21
5.10235
0
LINE
8
Black
10
175.999
20
5.10235
11
176.002
21
5.099
0
LINE
8
Black
10
176.002
20
5.099
11
176.003
21
5.09489
0
LINE
8
Black
10
176.003
20
5.09489
11
176.005
21
5.0911
0
LINE
8
Black
10
176.005
20
5.0911
11
176.006
21
5.08679
0
LINE
8
Black
10
176.006
20
5.08679
11
176.008
21
5.08268
0
LINE
8
Black
10
176.008
20
5.08268
11
176.008
21
5.07831
0
LINE
8
Black
10
176.008
20
5.07831
11
176.008
21
5.074
0
LINE
8
Black
10
176.008
20
5.074
11
176.008
21
-124.126
0
LINE
8
Black
10
176.008
20
-124.126
11
176.008
21
-124.13
0
LINE
8
Black
10
176.008
20
-124.13
11
176.008
21
-124.135
0
LINE
8
Black
10
176.008
20
-124.135
11
176.006
21
-124.139
0
LINE
8
Black
10
176.006
20
-124.139
11
176.005
21
-124.143
0
LINE
8
Black
10
176.005
20
-124.143
11
176.003
21
-124.147
0
LINE
8
Black
10
176.003
20
-124.147
11
176.002
21
-124.151
0
LINE
8
Black
10
176.002
20
-124.151
11
175.999
21
-124.154
0
LINE
8
Black
10
175.999
20
-124.154
11
175.997
21
-124.158
0
LINE
8
Black
10
175.997
20
-124.158
11
175.993
21
-124.161
0
LINE
8
Black
10
175.993
20
-124.161
11
175.991
21
-124.164
0
LINE
8
Black
10
175.991
20
-124.164
11
175.987
21
-124.166
0
LINE
8
Black
10
175.987
20
-124.166
11
175.983
21
-124.169
0
LINE
8
Black
10
175.983
20
-124.169
11
175.979
21
-124.171
0
LINE
8
Black
10
175.979
20
-124.171
11
175.976
21
-124.173
0
LINE
8
Black
10
175.976
20
-124.173
11
175.971
21
-124.174
0
LINE
8
Black
10
175.971
20
-124.174
11
175.967
21
-124.175
0
LINE
8
Black
10
175.967
20
-124.175
11
175.963
21
-124.175
0
LINE
8
Black
10
175.963
20
-124.175
11
175.958
21
-124.176
0
LINE
8
Black
10
175.958
20
-124.176
11
-175.9
21
-124.176
0
LINE
8
Black
10
-175.9
20
-124.176
11
-175.904
21
-124.175
0
LINE
8
Black
10
-175.904
20
-124.175
11
-175.909
21
-124.175
0
LINE
8
Black
10
-175.909
20
-124.175
11
-175.913
21
-124.174
0
LINE
8
Black
10
-175.913
20
-124.174
11
-175.917
21
-124.173
0
LINE
8
Black
10
-175.917
20
-124.173
11
-175.921
21
-124.171
0
LINE
8
Black
10
-175.921
20
-124.171
11
-175.925
21
-124.169
0
LINE
8
Black
10
-175.925
20
-124.169
11
-175.928
21
-124.166
0
LINE
8
Black
10
-175.928
20
-124.166
11
-175.932
21
-124.164
0
LINE
8
Black
10
-175.932
20
-124.164
11
-175.935
21
-124.161
0
LINE
8
Black
10
-175.935
20
-124.161
11
-175.938
21
-124.158
0
LINE
8
Black
10
-175.938
20
-124.158
11
-175.94
21
-124.154
0
LINE
8
Black
10
-175.94
20
-124.154
11
-175.943
21
-124.151
0
LINE
8
Black
10
-175.943
20
-124.151
11
-175.945
21
-124.147
0
LINE
8
Black
10
-175.945
20
-124.147
11
-175.947
21
-124.143
0
LINE
8
Black
10
-175.947
20
-124.143
11
-175.948
21
-124.139
0
LINE
8
Black
10
-175.948
20
-124.139
11
-175.949
21
-124.135
0
LINE
8
Black
10
-175.949
20
-124.135
11
-175.949
21
-124.13
0
LINE
8
Black
10
-175.949
20
-124.13
11
-175.95
21
-124.126
0
LINE
8
Black
10
-175.95
20
-124.126
11
-175.95
21
5.074
0
LINE
8
Black
10
-175.95
20
5.074
11
-175.949
21
5.07831
0
LINE
8
Black
10
-175.949
20
5.07831
11
-175.949
21
5.08268
0
LINE
8
Black
10
-175.949
20
5.08268
11
-175.948
21
5.08679
0
LINE
8
Black
10
-175.948
20
5.08679
11
-175.947
21
5.0911
0
LINE
8
Black
10
-175.947
20
5.0911
11
-175.945
21
5.09489
0
LINE
8
Black
10
-175.945
20
5.09489
11
-175.943
21
5.099
0
LINE
8
Black
10
-175.943
20
5.099
11
-175.94
21
5.10235
0
LINE
8
Black
10
-175.94
20
5.10235
11
-175.938
21
5.10614
0
LINE
8
Black
10
-175.938
20
5.10614
11
-175.935
21
5.10895
0
LINE
8
Black
10
-175.935
20
5.10895
11
-175.932
21
5.1123
0
LINE
8
Black
10
-175.932
20
5.1123
11
-175.928
21
5.11449
0
LINE
8
Black
10
-175.928
20
5.11449
11
-175.925
21
5.1173
0
LINE
8
Black
10
-175.925
20
5.1173
11
-175.921
21
5.1188
0
LINE
8
Black
10
-175.921
20
5.1188
11
-175.917
21
5.12099
0
LINE
8
Black
10
-175.917
20
5.12099
11
-175.913
21
5.12174
0
LINE
8
Black
10
-175.913
20
5.12174
11
-175.909
21
5.12324
0
LINE
8
Black
10
-175.909
20
5.12324
11
-175.904
21
5.12324
0
LINE
8
Black
10
-175.904
20
5.12324
11
-175.9
21
5.124
0
LINE
8
Black
10
-175.9
20
5.124
11
175.958
21
5.124
0
LINE
8
Black
10
175.958
20
5.124
11
175.963
21
5.12324
0
LINE
8
Black
10
-175.85
20
5.024
11
-175.85
21
-124.076
0
LINE
8
Black
10
-175.85
20
-124.076
11
175.908
21
-124.076
0
LINE
8
Black
10
175.908
20
-124.076
11
175.908
21
5.024
0
LINE
8
Black
10
175.908
20
5.024
11
-175.85
21
5.024
  0
ENDSEC
  0
EOF
