  0
SECTION
  2
HEADER
  9
$ANGBASE
  50
0.0
  9
$ANGDIR
  70
  1
  9
$MEASUREMENT
  70
0
  0
ENDSEC
  0
SECTION
  2
TABLES
  0
TABLE
  2
LTYPE
  70
1
  0
LTYPE
  2
CONTINUOUS
  70
0
  3
Solid line
  72
65
  73
0
  40
0.0
  0
ENDTAB
  0
TABLE
  2
STYLE
  70
4
  0
STYLE
  2
KICAD
  70
0
  40
0
  41
1
  42
1
  50
0
  71
0
  3
isocp.shx
  0
STYLE
  2
KICADB
  70
0
  40
0
  41
1
  42
1
  50
0
  71
0
  3
isocp.shx
  0
STYLE
  2
KICADI
  70
0
  40
0
  41
1
  42
1
  50
15
  71
0
  3
isocp.shx
  0
STYLE
  2
KICADBI
  70
0
  40
0
  41
1
  42
1
  50
15
  71
0
  3
isocp.shx
  0
ENDTAB
  0
TABLE
  2
LAYER
  70
30
  0
LAYER
  2
BLACK
  70
0
  62
7
  6
CONTINUOUS
  0
LAYER
  2
GRAY1
  70
0
  62
251
  6
CONTINUOUS
  0
LAYER
  2
GRAY2
  70
0
  62
8
  6
CONTINUOUS
  0
LAYER
  2
GRAY3
  70
0
  62
9
  6
CONTINUOUS
  0
LAYER
  2
WHITE
  70
0
  62
7
  6
CONTINUOUS
  0
LAYER
  2
LYELLOW
  70
0
  62
51
  6
CONTINUOUS
  0
LAYER
  2
BLUE1
  70
0
  62
178
  6
CONTINUOUS
  0
LAYER
  2
GREEN1
  70
0
  62
98
  6
CONTINUOUS
  0
LAYER
  2
CYAN1
  70
0
  62
138
  6
CONTINUOUS
  0
LAYER
  2
RED1
  70
0
  62
18
  6
CONTINUOUS
  0
LAYER
  2
MAGENTA1
  70
0
  62
228
  6
CONTINUOUS
  0
LAYER
  2
BROWN1
  70
0
  62
58
  6
CONTINUOUS
  0
LAYER
  2
BLUE2
  70
0
  62
5
  6
CONTINUOUS
  0
LAYER
  2
GREEN2
  70
0
  62
3
  6
CONTINUOUS
  0
LAYER
  2
CYAN2
  70
0
  62
4
  6
CONTINUOUS
  0
LAYER
  2
RED2
  70
0
  62
1
  6
CONTINUOUS
  0
LAYER
  2
MAGENTA2
  70
0
  62
6
  6
CONTINUOUS
  0
LAYER
  2
BROWN2
  70
0
  62
54
  6
CONTINUOUS
  0
LAYER
  2
BLUE3
  70
0
  62
171
  6
CONTINUOUS
  0
LAYER
  2
GREEN3
  70
0
  62
91
  6
CONTINUOUS
  0
LAYER
  2
CYAN3
  70
0
  62
131
  6
CONTINUOUS
  0
LAYER
  2
RED3
  70
0
  62
11
  6
CONTINUOUS
  0
LAYER
  2
MAGENTA3
  70
0
  62
221
  6
CONTINUOUS
  0
LAYER
  2
YELLOW3
  70
0
  62
2
  6
CONTINUOUS
  0
LAYER
  2
BLUE4
  70
0
  62
5
  6
CONTINUOUS
  0
LAYER
  2
GREEN4
  70
0
  62
3
  6
CONTINUOUS
  0
LAYER
  2
CYAN4
  70
0
  62
4
  6
CONTINUOUS
  0
LAYER
  2
RED4
  70
0
  62
1
  6
CONTINUOUS
  0
LAYER
  2
MAGENTA4
  70
0
  62
6
  6
CONTINUOUS
  0
LAYER
  2
YELLOW4
  70
0
  62
2
  6
CONTINUOUS
  0
ENDTAB
  0
ENDSEC
  0
SECTION
  2
ENTITIES
0
LINE
8
Black
10
32.7147
20
0.59962
11
32.7169
21
0.59962
0
LINE
8
Black
10
32.7169
20
0.59962
11
32.7189
21
0.598872
0
LINE
8
Black
10
32.7189
20
0.598872
11
32.7211
21
0.598492
0
LINE
8
Black
10
32.7211
20
0.598492
11
32.723
21
0.597399
0
LINE
8
Black
10
32.723
20
0.597399
11
32.725
21
0.596651
0
LINE
8
Black
10
32.725
20
0.596651
11
32.7267
21
0.595244
0
LINE
8
Black
10
32.7267
20
0.595244
11
32.7286
21
0.594151
0
LINE
8
Black
10
32.7286
20
0.594151
11
32.73
21
0.592476
0
LINE
8
Black
10
32.73
20
0.592476
11
32.7317
21
0.59107
0
LINE
8
Black
10
32.7317
20
0.59107
11
32.7328
21
0.589177
0
LINE
8
Black
10
32.7328
20
0.589177
11
32.7342
21
0.5875
0
LINE
8
Black
10
32.7342
20
0.5875
11
32.7349
21
0.585444
0
LINE
8
Black
10
32.7349
20
0.585444
11
32.736
21
0.583551
0
LINE
8
Black
10
32.736
20
0.583551
11
32.7364
21
0.581397
0
LINE
8
Black
10
32.7364
20
0.581397
11
32.7372
21
0.579341
0
LINE
8
Black
10
32.7372
20
0.579341
11
32.7372
21
0.577155
0
LINE
8
Black
10
32.7372
20
0.577155
11
32.7375
21
0.575
0
LINE
8
Black
10
32.7375
20
0.575
11
32.7375
21
0.26123
0
LINE
8
Black
10
32.7375
20
0.26123
11
32.7377
21
0.26011
0
LINE
8
Black
10
32.7377
20
0.26011
11
32.7388
21
0.26
0
LINE
8
Black
10
32.7388
20
0.26
11
34.0976
21
0.26
0
LINE
8
Black
10
34.0976
20
0.26
11
34.0987
21
0.259809
0
LINE
8
Black
10
34.0987
20
0.259809
11
34.0998
21
0.259905
0
LINE
8
Black
10
34.0998
20
0.259905
11
34.1029
21
0.259059
0
LINE
8
Black
10
34.1029
20
0.259059
11
34.1061
21
0.258492
0
LINE
8
Black
10
34.1061
20
0.258492
11
34.1071
21
0.257943
0
LINE
8
Black
10
34.1071
20
0.257943
11
34.1082
21
0.257658
0
LINE
8
Black
10
34.1082
20
0.257658
11
34.1108
21
0.255783
0
LINE
8
Black
10
34.1108
20
0.255783
11
34.1137
21
0.254151
0
LINE
8
Black
10
34.1137
20
0.254151
11
34.1144
21
0.253309
0
LINE
8
Black
10
34.1144
20
0.253309
11
34.1153
21
0.252678
0
LINE
8
Black
10
34.1153
20
0.252678
11
34.7452
21
-0.377278
0
LINE
8
Black
10
34.7452
20
-0.377278
11
34.7459
21
-0.378178
0
LINE
8
Black
10
34.7459
20
-0.378178
11
34.7467
21
-0.378886
0
LINE
8
Black
10
34.7467
20
-0.378886
11
34.7483
21
-0.381717
0
LINE
8
Black
10
34.7483
20
-0.381717
11
34.7502
21
-0.384391
0
LINE
8
Black
10
34.7502
20
-0.384391
11
34.7505
21
-0.385454
0
LINE
8
Black
10
34.7505
20
-0.385454
11
34.751
21
-0.386405
0
LINE
8
Black
10
34.751
20
-0.386405
11
34.7516
21
-0.389619
0
LINE
8
Black
10
34.7516
20
-0.389619
11
34.7525
21
-0.392777
0
LINE
8
Black
10
34.7525
20
-0.392777
11
34.7524
21
-0.393873
0
LINE
8
Black
10
34.7524
20
-0.393873
11
34.7525
21
-0.394956
0
LINE
8
Black
10
34.7525
20
-0.394956
11
34.7525
21
-31.6838
0
LINE
8
Black
10
34.7525
20
-31.6838
11
34.7527
21
-31.6849
0
LINE
8
Black
10
34.7527
20
-31.6849
11
34.7538
21
-31.685
0
LINE
8
Black
10
34.7538
20
-31.685
11
61.2872
21
-31.685
0
LINE
8
Black
10
61.2872
20
-31.685
11
61.2883
21
-31.6852
0
LINE
8
Black
10
61.2883
20
-31.6852
11
61.2894
21
-31.6851
0
LINE
8
Black
10
61.2894
20
-31.6851
11
61.2925
21
-31.6859
0
LINE
8
Black
10
61.2925
20
-31.6859
11
61.2957
21
-31.6865
0
LINE
8
Black
10
61.2957
20
-31.6865
11
61.2967
21
-31.6871
0
LINE
8
Black
10
61.2967
20
-31.6871
11
61.2978
21
-31.6873
0
LINE
8
Black
10
61.2978
20
-31.6873
11
61.3004
21
-31.6892
0
LINE
8
Black
10
61.3004
20
-31.6892
11
61.3033
21
-31.6908
0
LINE
8
Black
10
61.3033
20
-31.6908
11
61.304
21
-31.6917
0
LINE
8
Black
10
61.304
20
-31.6917
11
61.3049
21
-31.6923
0
LINE
8
Black
10
61.3049
20
-31.6923
11
63.2902
21
-33.6777
0
LINE
8
Black
10
63.2902
20
-33.6777
11
63.2909
21
-33.6786
0
LINE
8
Black
10
63.2909
20
-33.6786
11
63.2917
21
-33.6793
0
LINE
8
Black
10
63.2917
20
-33.6793
11
63.2933
21
-33.6821
0
LINE
8
Black
10
63.2933
20
-33.6821
11
63.2952
21
-33.6848
0
LINE
8
Black
10
63.2952
20
-33.6848
11
63.2955
21
-33.6859
0
LINE
8
Black
10
63.2955
20
-33.6859
11
63.296
21
-33.6868
0
LINE
8
Black
10
63.296
20
-33.6868
11
63.2966
21
-33.69
0
LINE
8
Black
10
63.2966
20
-33.69
11
63.2975
21
-33.6932
0
LINE
8
Black
10
63.2975
20
-33.6932
11
63.2974
21
-33.6943
0
LINE
8
Black
10
63.2974
20
-33.6943
11
63.2975
21
-33.6954
0
LINE
8
Black
10
63.2975
20
-33.6954
11
63.2975
21
-89.14
0
LINE
8
Black
10
63.2975
20
-89.14
11
63.2972
21
-89.1422
0
LINE
8
Black
10
63.2972
20
-89.1422
11
63.2972
21
-89.1443
0
LINE
8
Black
10
63.2972
20
-89.1443
11
63.2964
21
-89.1464
0
LINE
8
Black
10
63.2964
20
-89.1464
11
63.296
21
-89.1486
0
LINE
8
Black
10
63.296
20
-89.1486
11
63.2949
21
-89.1504
0
LINE
8
Black
10
63.2949
20
-89.1504
11
63.2942
21
-89.1525
0
LINE
8
Black
10
63.2942
20
-89.1525
11
63.2928
21
-89.1542
0
LINE
8
Black
10
63.2928
20
-89.1542
11
63.2917
21
-89.1561
0
LINE
8
Black
10
63.2917
20
-89.1561
11
63.29
21
-89.1575
0
LINE
8
Black
10
63.29
20
-89.1575
11
63.2886
21
-89.1592
0
LINE
8
Black
10
63.2886
20
-89.1592
11
63.2867
21
-89.1602
0
LINE
8
Black
10
63.2867
20
-89.1602
11
63.285
21
-89.1617
0
LINE
8
Black
10
63.285
20
-89.1617
11
63.283
21
-89.1624
0
LINE
8
Black
10
63.283
20
-89.1624
11
63.2811
21
-89.1635
0
LINE
8
Black
10
63.2811
20
-89.1635
11
63.2789
21
-89.1639
0
LINE
8
Black
10
63.2789
20
-89.1639
11
63.2769
21
-89.1646
0
LINE
8
Black
10
63.2769
20
-89.1646
11
63.2747
21
-89.1646
0
LINE
8
Black
10
63.2747
20
-89.1646
11
63.2725
21
-89.165
0
LINE
8
Black
10
63.2725
20
-89.165
11
7.82791
21
-89.165
0
LINE
8
Black
10
7.82791
20
-89.165
11
7.82682
21
-89.1648
0
LINE
8
Black
10
7.82682
20
-89.1648
11
7.82573
21
-89.1649
0
LINE
8
Black
10
7.82573
20
-89.1649
11
7.82257
21
-89.1641
0
LINE
8
Black
10
7.82257
20
-89.1641
11
7.81935
21
-89.1635
0
LINE
8
Black
10
7.81935
20
-89.1635
11
7.8184
21
-89.1629
0
LINE
8
Black
10
7.8184
20
-89.1629
11
7.81734
21
-89.1627
0
LINE
8
Black
10
7.81734
20
-89.1627
11
7.81467
21
-89.1608
0
LINE
8
Black
10
7.81467
20
-89.1608
11
7.81184
21
-89.1592
0
LINE
8
Black
10
7.81184
20
-89.1592
11
7.81113
21
-89.1583
0
LINE
8
Black
10
7.81113
20
-89.1583
11
7.81023
21
-89.1577
0
LINE
8
Black
10
7.81023
20
-89.1577
11
5.82487
21
-87.1723
0
LINE
8
Black
10
5.82487
20
-87.1723
11
5.82424
21
-87.1714
0
LINE
8
Black
10
5.82424
20
-87.1714
11
5.8234
21
-87.1707
0
LINE
8
Black
10
5.8234
20
-87.1707
11
5.82177
21
-87.1679
0
LINE
8
Black
10
5.82177
20
-87.1679
11
5.81989
21
-87.1652
0
LINE
8
Black
10
5.81989
20
-87.1652
11
5.81961
21
-87.1641
0
LINE
8
Black
10
5.81961
20
-87.1641
11
5.81906
21
-87.1632
0
LINE
8
Black
10
5.81906
20
-87.1632
11
5.81849
21
-87.16
0
LINE
8
Black
10
5.81849
20
-87.16
11
5.81764
21
-87.1568
0
LINE
8
Black
10
5.81764
20
-87.1568
11
5.81774
21
-87.1557
0
LINE
8
Black
10
5.81774
20
-87.1557
11
5.81755
21
-87.1546
0
LINE
8
Black
10
5.81755
20
-87.1546
11
5.81755
21
-31.71
0
LINE
8
Black
10
5.81755
20
-31.71
11
5.81793
21
-31.7078
0
LINE
8
Black
10
5.81793
20
-31.7078
11
5.81793
21
-31.7057
0
LINE
8
Black
10
5.81793
20
-31.7057
11
5.81868
21
-31.7036
0
LINE
8
Black
10
5.81868
20
-31.7036
11
5.81906
21
-31.7014
0
LINE
8
Black
10
5.81906
20
-31.7014
11
5.82015
21
-31.6996
0
LINE
8
Black
10
5.82015
20
-31.6996
11
5.8209
21
-31.6975
0
LINE
8
Black
10
5.8209
20
-31.6975
11
5.82231
21
-31.6958
0
LINE
8
Black
10
5.82231
20
-31.6958
11
5.8234
21
-31.6939
0
LINE
8
Black
10
5.8234
20
-31.6939
11
5.82507
21
-31.6925
0
LINE
8
Black
10
5.82507
20
-31.6925
11
5.82648
21
-31.6908
0
LINE
8
Black
10
5.82648
20
-31.6908
11
5.82837
21
-31.6898
0
LINE
8
Black
10
5.82837
20
-31.6898
11
5.83005
21
-31.6883
0
LINE
8
Black
10
5.83005
20
-31.6883
11
5.83211
21
-31.6876
0
LINE
8
Black
10
5.83211
20
-31.6876
11
5.834
21
-31.6865
0
LINE
8
Black
10
5.834
20
-31.6865
11
5.83615
21
-31.6861
0
LINE
8
Black
10
5.83615
20
-31.6861
11
5.83821
21
-31.6854
0
LINE
8
Black
10
5.83821
20
-31.6854
11
5.8404
21
-31.6854
0
LINE
8
Black
10
5.8404
20
-31.6854
11
5.84255
21
-31.685
0
LINE
8
Black
10
5.84255
20
-31.685
11
34.3613
21
-31.685
0
LINE
8
Black
10
34.3613
20
-31.685
11
34.3624
21
-31.6849
0
LINE
8
Black
10
34.3624
20
-31.6849
11
34.3625
21
-31.6838
0
LINE
8
Black
10
34.3625
20
-31.6838
11
34.3625
21
-0.13123
0
LINE
8
Black
10
34.3625
20
-0.13123
11
34.3624
21
-0.13011
0
LINE
8
Black
10
34.3624
20
-0.13011
11
34.3613
21
-0.13
0
LINE
8
Black
10
34.3613
20
-0.13
11
32.7388
21
-0.13
0
LINE
8
Black
10
32.7388
20
-0.13
11
32.7377
21
-0.13011
0
LINE
8
Black
10
32.7377
20
-0.13011
11
32.7375
21
-0.13123
0
LINE
8
Black
10
32.7375
20
-0.13123
11
32.7375
21
-0.445
0
LINE
8
Black
10
32.7375
20
-0.445
11
32.7372
21
-0.447155
0
LINE
8
Black
10
32.7372
20
-0.447155
11
32.7372
21
-0.449341
0
LINE
8
Black
10
32.7372
20
-0.449341
11
32.7364
21
-0.451397
0
LINE
8
Black
10
32.7364
20
-0.451397
11
32.736
21
-0.453551
0
LINE
8
Black
10
32.736
20
-0.453551
11
32.7349
21
-0.455444
0
LINE
8
Black
10
32.7349
20
-0.455444
11
32.7342
21
-0.4575
0
LINE
8
Black
10
32.7342
20
-0.4575
11
32.7328
21
-0.459177
0
LINE
8
Black
10
32.7328
20
-0.459177
11
32.7317
21
-0.46107
0
LINE
8
Black
10
32.7317
20
-0.46107
11
32.73
21
-0.462476
0
LINE
8
Black
10
32.73
20
-0.462476
11
32.7286
21
-0.464151
0
LINE
8
Black
10
32.7286
20
-0.464151
11
32.7267
21
-0.465244
0
LINE
8
Black
10
32.7267
20
-0.465244
11
32.725
21
-0.466651
0
LINE
8
Black
10
32.725
20
-0.466651
11
32.723
21
-0.467399
0
LINE
8
Black
10
32.723
20
-0.467399
11
32.7211
21
-0.468492
0
LINE
8
Black
10
32.7211
20
-0.468492
11
32.7189
21
-0.468872
0
LINE
8
Black
10
32.7189
20
-0.468872
11
32.7169
21
-0.46962
0
LINE
8
Black
10
32.7169
20
-0.46962
11
32.7147
21
-0.46962
0
LINE
8
Black
10
32.7147
20
-0.46962
11
32.7126
21
-0.47
0
LINE
8
Black
10
32.7126
20
-0.47
11
-32.7126
21
-0.47
0
LINE
8
Black
10
-32.7126
20
-0.47
11
-32.7147
21
-0.46962
0
LINE
8
Black
10
-32.7147
20
-0.46962
11
-32.7169
21
-0.46962
0
LINE
8
Black
10
-32.7169
20
-0.46962
11
-32.7189
21
-0.468872
0
LINE
8
Black
10
-32.7189
20
-0.468872
11
-32.7211
21
-0.468492
0
LINE
8
Black
10
-32.7211
20
-0.468492
11
-32.723
21
-0.467399
0
LINE
8
Black
10
-32.723
20
-0.467399
11
-32.725
21
-0.466651
0
LINE
8
Black
10
-32.725
20
-0.466651
11
-32.7267
21
-0.465244
0
LINE
8
Black
10
-32.7267
20
-0.465244
11
-32.7286
21
-0.464151
0
LINE
8
Black
10
-32.7286
20
-0.464151
11
-32.73
21
-0.462476
0
LINE
8
Black
10
-32.73
20
-0.462476
11
-32.7317
21
-0.46107
0
LINE
8
Black
10
-32.7317
20
-0.46107
11
-32.7328
21
-0.459177
0
LINE
8
Black
10
-32.7328
20
-0.459177
11
-32.7342
21
-0.4575
0
LINE
8
Black
10
-32.7342
20
-0.4575
11
-32.7349
21
-0.455444
0
LINE
8
Black
10
-32.7349
20
-0.455444
11
-32.736
21
-0.453551
0
LINE
8
Black
10
-32.736
20
-0.453551
11
-32.7364
21
-0.451397
0
LINE
8
Black
10
-32.7364
20
-0.451397
11
-32.7372
21
-0.449341
0
LINE
8
Black
10
-32.7372
20
-0.449341
11
-32.7372
21
-0.447155
0
LINE
8
Black
10
-32.7372
20
-0.447155
11
-32.7375
21
-0.445
0
LINE
8
Black
10
-32.7375
20
-0.445
11
-32.7375
21
-0.13123
0
LINE
8
Black
10
-32.7375
20
-0.13123
11
-32.7377
21
-0.13011
0
LINE
8
Black
10
-32.7377
20
-0.13011
11
-32.7388
21
-0.13
0
LINE
8
Black
10
-32.7388
20
-0.13
11
-34.3613
21
-0.13
0
LINE
8
Black
10
-34.3613
20
-0.13
11
-34.3624
21
-0.13011
0
LINE
8
Black
10
-34.3624
20
-0.13011
11
-34.3625
21
-0.13123
0
LINE
8
Black
10
-34.3625
20
-0.13123
11
-34.3625
21
-31.6838
0
LINE
8
Black
10
-34.3625
20
-31.6838
11
-34.3624
21
-31.6849
0
LINE
8
Black
10
-34.3624
20
-31.6849
11
-34.3613
21
-31.685
0
LINE
8
Black
10
-34.3613
20
-31.685
11
-7.82791
21
-31.685
0
LINE
8
Black
10
-7.82791
20
-31.685
11
-7.82682
21
-31.6852
0
LINE
8
Black
10
-7.82682
20
-31.6852
11
-7.82573
21
-31.6851
0
LINE
8
Black
10
-7.82573
20
-31.6851
11
-7.82257
21
-31.6859
0
LINE
8
Black
10
-7.82257
20
-31.6859
11
-7.81935
21
-31.6865
0
LINE
8
Black
10
-7.81935
20
-31.6865
11
-7.8184
21
-31.6871
0
LINE
8
Black
10
-7.8184
20
-31.6871
11
-7.81734
21
-31.6873
0
LINE
8
Black
10
-7.81734
20
-31.6873
11
-7.81466
21
-31.6892
0
LINE
8
Black
10
-7.81466
20
-31.6892
11
-7.81184
21
-31.6908
0
LINE
8
Black
10
-7.81184
20
-31.6908
11
-7.81113
21
-31.6917
0
LINE
8
Black
10
-7.81113
20
-31.6917
11
-7.81023
21
-31.6923
0
LINE
8
Black
10
-7.81023
20
-31.6923
11
-5.82487
21
-33.6777
0
LINE
8
Black
10
-5.82487
20
-33.6777
11
-5.82424
21
-33.6786
0
LINE
8
Black
10
-5.82424
20
-33.6786
11
-5.8234
21
-33.6793
0
LINE
8
Black
10
-5.8234
20
-33.6793
11
-5.82177
21
-33.6821
0
LINE
8
Black
10
-5.82177
20
-33.6821
11
-5.81989
21
-33.6848
0
LINE
8
Black
10
-5.81989
20
-33.6848
11
-5.81961
21
-33.6859
0
LINE
8
Black
10
-5.81961
20
-33.6859
11
-5.81906
21
-33.6868
0
LINE
8
Black
10
-5.81906
20
-33.6868
11
-5.81849
21
-33.69
0
LINE
8
Black
10
-5.81849
20
-33.69
11
-5.81764
21
-33.6932
0
LINE
8
Black
10
-5.81764
20
-33.6932
11
-5.81774
21
-33.6943
0
LINE
8
Black
10
-5.81774
20
-33.6943
11
-5.81755
21
-33.6954
0
LINE
8
Black
10
-5.81755
20
-33.6954
11
-5.81755
21
-89.14
0
LINE
8
Black
10
-5.81755
20
-89.14
11
-5.81793
21
-89.1422
0
LINE
8
Black
10
-5.81793
20
-89.1422
11
-5.81793
21
-89.1443
0
LINE
8
Black
10
-5.81793
20
-89.1443
11
-5.81868
21
-89.1464
0
LINE
8
Black
10
-5.81868
20
-89.1464
11
-5.81906
21
-89.1486
0
LINE
8
Black
10
-5.81906
20
-89.1486
11
-5.82015
21
-89.1504
0
LINE
8
Black
10
-5.82015
20
-89.1504
11
-5.8209
21
-89.1525
0
LINE
8
Black
10
-5.8209
20
-89.1525
11
-5.82231
21
-89.1542
0
LINE
8
Black
10
-5.82231
20
-89.1542
11
-5.8234
21
-89.1561
0
LINE
8
Black
10
-5.8234
20
-89.1561
11
-5.82507
21
-89.1575
0
LINE
8
Black
10
-5.82507
20
-89.1575
11
-5.82648
21
-89.1592
0
LINE
8
Black
10
-5.82648
20
-89.1592
11
-5.82837
21
-89.1602
0
LINE
8
Black
10
-5.82837
20
-89.1602
11
-5.83005
21
-89.1617
0
LINE
8
Black
10
-5.83005
20
-89.1617
11
-5.83211
21
-89.1624
0
LINE
8
Black
10
-5.83211
20
-89.1624
11
-5.834
21
-89.1635
0
LINE
8
Black
10
-5.834
20
-89.1635
11
-5.83615
21
-89.1639
0
LINE
8
Black
10
-5.83615
20
-89.1639
11
-5.83821
21
-89.1646
0
LINE
8
Black
10
-5.83821
20
-89.1646
11
-5.8404
21
-89.1646
0
LINE
8
Black
10
-5.8404
20
-89.1646
11
-5.84255
21
-89.165
0
LINE
8
Black
10
-5.84255
20
-89.165
11
-61.2872
21
-89.165
0
LINE
8
Black
10
-61.2872
20
-89.165
11
-61.2883
21
-89.1648
0
LINE
8
Black
10
-61.2883
20
-89.1648
11
-61.2894
21
-89.1649
0
LINE
8
Black
10
-61.2894
20
-89.1649
11
-61.2925
21
-89.1641
0
LINE
8
Black
10
-61.2925
20
-89.1641
11
-61.2957
21
-89.1635
0
LINE
8
Black
10
-61.2957
20
-89.1635
11
-61.2967
21
-89.1629
0
LINE
8
Black
10
-61.2967
20
-89.1629
11
-61.2978
21
-89.1627
0
LINE
8
Black
10
-61.2978
20
-89.1627
11
-61.3004
21
-89.1608
0
LINE
8
Black
10
-61.3004
20
-89.1608
11
-61.3033
21
-89.1592
0
LINE
8
Black
10
-61.3033
20
-89.1592
11
-61.304
21
-89.1583
0
LINE
8
Black
10
-61.304
20
-89.1583
11
-61.3049
21
-89.1577
0
LINE
8
Black
10
-61.3049
20
-89.1577
11
-63.2902
21
-87.1723
0
LINE
8
Black
10
-63.2902
20
-87.1723
11
-63.2909
21
-87.1714
0
LINE
8
Black
10
-63.2909
20
-87.1714
11
-63.2917
21
-87.1707
0
LINE
8
Black
10
-63.2917
20
-87.1707
11
-63.2933
21
-87.1679
0
LINE
8
Black
10
-63.2933
20
-87.1679
11
-63.2952
21
-87.1652
0
LINE
8
Black
10
-63.2952
20
-87.1652
11
-63.2955
21
-87.1641
0
LINE
8
Black
10
-63.2955
20
-87.1641
11
-63.296
21
-87.1632
0
LINE
8
Black
10
-63.296
20
-87.1632
11
-63.2966
21
-87.16
0
LINE
8
Black
10
-63.2966
20
-87.16
11
-63.2975
21
-87.1568
0
LINE
8
Black
10
-63.2975
20
-87.1568
11
-63.2974
21
-87.1557
0
LINE
8
Black
10
-63.2974
20
-87.1557
11
-63.2975
21
-87.1546
0
LINE
8
Black
10
-63.2975
20
-87.1546
11
-63.2975
21
-31.71
0
LINE
8
Black
10
-63.2975
20
-31.71
11
-63.2972
21
-31.7078
0
LINE
8
Black
10
-63.2972
20
-31.7078
11
-63.2972
21
-31.7057
0
LINE
8
Black
10
-63.2972
20
-31.7057
11
-63.2964
21
-31.7036
0
LINE
8
Black
10
-63.2964
20
-31.7036
11
-63.296
21
-31.7014
0
LINE
8
Black
10
-63.296
20
-31.7014
11
-63.2949
21
-31.6996
0
LINE
8
Black
10
-63.2949
20
-31.6996
11
-63.2942
21
-31.6975
0
LINE
8
Black
10
-63.2942
20
-31.6975
11
-63.2928
21
-31.6958
0
LINE
8
Black
10
-63.2928
20
-31.6958
11
-63.2917
21
-31.6939
0
LINE
8
Black
10
-63.2917
20
-31.6939
11
-63.29
21
-31.6925
0
LINE
8
Black
10
-63.29
20
-31.6925
11
-63.2886
21
-31.6908
0
LINE
8
Black
10
-63.2886
20
-31.6908
11
-63.2867
21
-31.6898
0
LINE
8
Black
10
-63.2867
20
-31.6898
11
-63.285
21
-31.6883
0
LINE
8
Black
10
-63.285
20
-31.6883
11
-63.283
21
-31.6876
0
LINE
8
Black
10
-63.283
20
-31.6876
11
-63.2811
21
-31.6865
0
LINE
8
Black
10
-63.2811
20
-31.6865
11
-63.2789
21
-31.6861
0
LINE
8
Black
10
-63.2789
20
-31.6861
11
-63.2769
21
-31.6854
0
LINE
8
Black
10
-63.2769
20
-31.6854
11
-63.2747
21
-31.6854
0
LINE
8
Black
10
-63.2747
20
-31.6854
11
-63.2725
21
-31.685
0
LINE
8
Black
10
-63.2725
20
-31.685
11
-34.7538
21
-31.685
0
LINE
8
Black
10
-34.7538
20
-31.685
11
-34.7527
21
-31.6849
0
LINE
8
Black
10
-34.7527
20
-31.6849
11
-34.7525
21
-31.6838
0
LINE
8
Black
10
-34.7525
20
-31.6838
11
-34.7525
21
-0.394956
0
LINE
8
Black
10
-34.7525
20
-0.394956
11
-34.7524
21
-0.393873
0
LINE
8
Black
10
-34.7524
20
-0.393873
11
-34.7525
21
-0.392777
0
LINE
8
Black
10
-34.7525
20
-0.392777
11
-34.7516
21
-0.389619
0
LINE
8
Black
10
-34.7516
20
-0.389619
11
-34.751
21
-0.386405
0
LINE
8
Black
10
-34.751
20
-0.386405
11
-34.7505
21
-0.385454
0
LINE
8
Black
10
-34.7505
20
-0.385454
11
-34.7502
21
-0.384391
0
LINE
8
Black
10
-34.7502
20
-0.384391
11
-34.7483
21
-0.381714
0
LINE
8
Black
10
-34.7483
20
-0.381714
11
-34.7467
21
-0.378886
0
LINE
8
Black
10
-34.7467
20
-0.378886
11
-34.7459
21
-0.37818
0
LINE
8
Black
10
-34.7459
20
-0.37818
11
-34.7452
21
-0.377278
0
LINE
8
Black
10
-34.7452
20
-0.377278
11
-34.1153
21
0.252677
0
LINE
8
Black
10
-34.1153
20
0.252677
11
-34.1144
21
0.253307
0
LINE
8
Black
10
-34.1144
20
0.253307
11
-34.1137
21
0.254151
0
LINE
8
Black
10
-34.1137
20
0.254151
11
-34.1108
21
0.255785
0
LINE
8
Black
10
-34.1108
20
0.255785
11
-34.1082
21
0.257658
0
LINE
8
Black
10
-34.1082
20
0.257658
11
-34.1071
21
0.257943
0
LINE
8
Black
10
-34.1071
20
0.257943
11
-34.1061
21
0.258492
0
LINE
8
Black
10
-34.1061
20
0.258492
11
-34.1029
21
0.259059
0
LINE
8
Black
10
-34.1029
20
0.259059
11
-34.0998
21
0.259905
0
LINE
8
Black
10
-34.0998
20
0.259905
11
-34.0987
21
0.259809
0
LINE
8
Black
10
-34.0987
20
0.259809
11
-34.0976
21
0.26
0
LINE
8
Black
10
-34.0976
20
0.26
11
-32.7388
21
0.26
0
LINE
8
Black
10
-32.7388
20
0.26
11
-32.7377
21
0.26011
0
LINE
8
Black
10
-32.7377
20
0.26011
11
-32.7375
21
0.26123
0
LINE
8
Black
10
-32.7375
20
0.26123
11
-32.7375
21
0.575
0
LINE
8
Black
10
-32.7375
20
0.575
11
-32.7372
21
0.577155
0
LINE
8
Black
10
-32.7372
20
0.577155
11
-32.7372
21
0.579341
0
LINE
8
Black
10
-32.7372
20
0.579341
11
-32.7364
21
0.581397
0
LINE
8
Black
10
-32.7364
20
0.581397
11
-32.736
21
0.583551
0
LINE
8
Black
10
-32.736
20
0.583551
11
-32.7349
21
0.585444
0
LINE
8
Black
10
-32.7349
20
0.585444
11
-32.7342
21
0.5875
0
LINE
8
Black
10
-32.7342
20
0.5875
11
-32.7328
21
0.589177
0
LINE
8
Black
10
-32.7328
20
0.589177
11
-32.7317
21
0.59107
0
LINE
8
Black
10
-32.7317
20
0.59107
11
-32.73
21
0.592476
0
LINE
8
Black
10
-32.73
20
0.592476
11
-32.7286
21
0.594151
0
LINE
8
Black
10
-32.7286
20
0.594151
11
-32.7267
21
0.595244
0
LINE
8
Black
10
-32.7267
20
0.595244
11
-32.725
21
0.596651
0
LINE
8
Black
10
-32.725
20
0.596651
11
-32.723
21
0.597399
0
LINE
8
Black
10
-32.723
20
0.597399
11
-32.7211
21
0.598492
0
LINE
8
Black
10
-32.7211
20
0.598492
11
-32.7189
21
0.598872
0
LINE
8
Black
10
-32.7189
20
0.598872
11
-32.7169
21
0.59962
0
LINE
8
Black
10
-32.7169
20
0.59962
11
-32.7147
21
0.59962
0
LINE
8
Black
10
-32.7147
20
0.59962
11
-32.7126
21
0.6
0
LINE
8
Black
10
-32.7126
20
0.6
11
32.7126
21
0.6
0
LINE
8
Black
10
32.7126
20
0.6
11
32.7147
21
0.59962
  0
ENDSEC
  0
EOF
