G04 #@! TF.GenerationSoftware,KiCad,Pcbnew,no-vcs-found-d3b382c~59~ubuntu16.04.1*
G04 #@! TF.CreationDate,2017-07-27T00:58:42+01:00*
G04 #@! TF.ProjectId,DCDC-3V,444344432D33562E6B696361645F7063,1*
G04 #@! TF.SameCoordinates,Original
G04 #@! TF.FileFunction,Soldermask,Bot*
G04 #@! TF.FilePolarity,Negative*
%FSLAX46Y46*%
G04 Gerber Fmt 4.6, Leading zero omitted, Abs format (unit mm)*
G04 Created by KiCad (PCBNEW no-vcs-found-d3b382c~59~ubuntu16.04.1) date Thu Jul 27 00:58:42 2017*
%MOMM*%
%LPD*%
G01*
G04 APERTURE LIST*
%ADD10R,2.220000X0.740000*%
%ADD11C,1.200000*%
%ADD12R,0.740000X2.220000*%
G04 APERTURE END LIST*
D10*
X113635000Y-94285000D03*
X116365000Y-94285000D03*
X113635000Y-95555000D03*
X116365000Y-95555000D03*
X113635000Y-96825000D03*
X116365000Y-96825000D03*
X113635000Y-98095000D03*
X116365000Y-98095000D03*
X113635000Y-99365000D03*
X116365000Y-99365000D03*
X113635000Y-100635000D03*
X116365000Y-100635000D03*
X113635000Y-101905000D03*
X116365000Y-101905000D03*
X113635000Y-103175000D03*
X116365000Y-103175000D03*
X113635000Y-104445000D03*
X116365000Y-104445000D03*
X113635000Y-105715000D03*
X116365000Y-105715000D03*
D11*
X115000000Y-107305000D03*
X115000000Y-92695000D03*
D10*
X83635000Y-94285000D03*
X86365000Y-94285000D03*
X83635000Y-95555000D03*
X86365000Y-95555000D03*
X83635000Y-96825000D03*
X86365000Y-96825000D03*
X83635000Y-98095000D03*
X86365000Y-98095000D03*
X83635000Y-99365000D03*
X86365000Y-99365000D03*
X83635000Y-100635000D03*
X86365000Y-100635000D03*
X83635000Y-101905000D03*
X86365000Y-101905000D03*
X83635000Y-103175000D03*
X86365000Y-103175000D03*
X83635000Y-104445000D03*
X86365000Y-104445000D03*
X83635000Y-105715000D03*
X86365000Y-105715000D03*
D11*
X85000000Y-107305000D03*
X85000000Y-92695000D03*
D12*
X97460000Y-85865000D03*
X97460000Y-83135000D03*
X98730000Y-85865000D03*
X98730000Y-83135000D03*
X100000000Y-85865000D03*
X100000000Y-83135000D03*
X101270000Y-85865000D03*
X101270000Y-83135000D03*
X102540000Y-85865000D03*
X102540000Y-83135000D03*
D11*
X104130000Y-84500000D03*
X95870000Y-84500000D03*
M02*
