G04 #@! TF.GenerationSoftware,KiCad,Pcbnew,no-vcs-found-d3b382c~59~ubuntu16.04.1*
G04 #@! TF.CreationDate,2017-07-27T00:58:42+01:00*
G04 #@! TF.ProjectId,DCDC-3V,444344432D33562E6B696361645F7063,1*
G04 #@! TF.SameCoordinates,Original
G04 #@! TF.FileFunction,Legend,Top*
G04 #@! TF.FilePolarity,Positive*
%FSLAX46Y46*%
G04 Gerber Fmt 4.6, Leading zero omitted, Abs format (unit mm)*
G04 Created by KiCad (PCBNEW no-vcs-found-d3b382c~59~ubuntu16.04.1) date Thu Jul 27 00:58:42 2017*
%MOMM*%
%LPD*%
G01*
G04 APERTURE LIST*
%ADD10C,0.250000*%
%ADD11C,0.150000*%
%ADD12R,0.702000X0.702000*%
%ADD13R,0.250000X0.700000*%
%ADD14R,0.700000X0.250000*%
%ADD15R,0.300000X0.250000*%
%ADD16R,0.620000X0.200000*%
%ADD17R,1.100000X0.670000*%
%ADD18R,0.980000X3.400000*%
%ADD19R,0.740000X2.920000*%
%ADD20C,1.200000*%
%ADD21R,2.920000X0.740000*%
%ADD22R,0.620000X0.620000*%
%ADD23R,0.400000X0.850000*%
%ADD24R,0.400000X0.455000*%
%ADD25R,1.050000X1.100000*%
%ADD26R,1.000000X0.950000*%
%ADD27C,1.150000*%
%ADD28C,0.100000*%
%ADD29R,0.250000X0.600000*%
%ADD30R,0.600000X0.250000*%
%ADD31R,1.702000X1.702000*%
%ADD32R,1.450000X1.150000*%
%ADD33C,1.000000*%
G04 APERTURE END LIST*
D10*
X110296890Y-110874200D02*
X110902982Y-111480292D01*
X110983794Y-111641916D01*
X110983794Y-111803541D01*
X110902982Y-111965165D01*
X110822170Y-112045977D01*
X110620139Y-110550951D02*
X111670698Y-111197449D01*
X111226231Y-110429733D01*
X111993947Y-110874200D01*
X111347449Y-109823642D01*
X108069504Y-116162349D02*
X108069504Y-116081537D01*
X108109910Y-115960318D01*
X108311941Y-115758288D01*
X108433159Y-115717882D01*
X108513971Y-115717882D01*
X108635190Y-115758288D01*
X108716002Y-115839100D01*
X108796814Y-116000725D01*
X108796814Y-116970471D01*
X109322093Y-116445192D01*
X108998844Y-115071384D02*
X109079657Y-114990572D01*
X109200875Y-114950166D01*
X109281687Y-114950166D01*
X109402906Y-114990572D01*
X109604936Y-115111790D01*
X109806967Y-115313821D01*
X109928185Y-115515851D01*
X109968591Y-115637070D01*
X109968591Y-115717882D01*
X109928185Y-115839100D01*
X109847373Y-115919912D01*
X109726154Y-115960318D01*
X109645342Y-115960318D01*
X109524124Y-115919912D01*
X109322093Y-115798694D01*
X109120063Y-115596663D01*
X108998844Y-115394633D01*
X108958438Y-115273415D01*
X108958438Y-115192602D01*
X108998844Y-115071384D01*
X110938337Y-114828948D02*
X110453464Y-115313821D01*
X110695901Y-115071384D02*
X109847373Y-114222856D01*
X109887779Y-114424887D01*
X109887779Y-114586511D01*
X109847373Y-114707729D01*
X110372652Y-113697577D02*
X110938337Y-113131891D01*
X111423211Y-114344074D01*
X111786866Y-113333922D02*
X112433363Y-112687424D01*
X112473769Y-111596459D02*
X112554581Y-111515647D01*
X112675800Y-111475241D01*
X112756612Y-111475241D01*
X112877830Y-111515647D01*
X113079861Y-111636866D01*
X113281891Y-111838896D01*
X113403110Y-112040927D01*
X113443516Y-112162145D01*
X113443516Y-112242957D01*
X113403110Y-112364175D01*
X113322297Y-112444988D01*
X113201079Y-112485394D01*
X113120267Y-112485394D01*
X112999049Y-112444988D01*
X112797018Y-112323769D01*
X112594988Y-112121739D01*
X112473769Y-111919708D01*
X112433363Y-111798490D01*
X112433363Y-111717678D01*
X112473769Y-111596459D01*
X113039455Y-111030774D02*
X113605140Y-110465089D01*
X114090013Y-111677272D01*
X114453668Y-110667119D02*
X115100166Y-110020621D01*
X115019354Y-109212499D02*
X115019354Y-109131687D01*
X115059760Y-109010469D01*
X115261790Y-108808438D01*
X115383009Y-108768032D01*
X115463821Y-108768032D01*
X115585039Y-108808438D01*
X115665851Y-108889251D01*
X115746663Y-109050875D01*
X115746663Y-110020621D01*
X116271943Y-109495342D01*
X116150725Y-107919504D02*
X115989100Y-108081129D01*
X115948694Y-108202347D01*
X115948694Y-108283159D01*
X115989100Y-108485190D01*
X116110318Y-108687220D01*
X116433567Y-109010469D01*
X116554786Y-109050875D01*
X116635598Y-109050875D01*
X116756816Y-109010469D01*
X116918440Y-108848844D01*
X116958847Y-108727626D01*
X116958847Y-108646814D01*
X116918440Y-108525596D01*
X116716410Y-108323565D01*
X116595192Y-108283159D01*
X116514379Y-108283159D01*
X116393161Y-108323565D01*
X116231537Y-108485190D01*
X116191131Y-108606408D01*
X116191131Y-108687220D01*
X116231537Y-108808438D01*
X114676300Y-89552326D02*
X115369120Y-89152326D01*
X115171172Y-89266611D02*
X115298717Y-89258956D01*
X115376776Y-89279871D01*
X115483406Y-89350274D01*
X115540549Y-89449249D01*
X115362014Y-90740018D02*
X115019157Y-90146172D01*
X115190586Y-90443095D02*
X116229816Y-89843095D01*
X116024212Y-89829835D01*
X115868095Y-89788003D01*
X115761465Y-89717600D01*
X106109801Y-83084693D02*
X106691573Y-82035149D01*
X106625869Y-82978747D01*
X107391268Y-82422997D01*
X106809497Y-83472541D01*
X107791095Y-82644624D02*
X108440812Y-83004768D01*
X107869337Y-83210671D01*
X108019272Y-83293781D01*
X108091525Y-83399166D01*
X108113800Y-83476848D01*
X108108371Y-83604508D01*
X107969854Y-83854399D01*
X107864469Y-83926652D01*
X107786787Y-83948927D01*
X107659127Y-83943498D01*
X107359258Y-83777278D01*
X107287005Y-83671893D01*
X107264730Y-83594211D01*
X108308845Y-84303643D02*
X108890616Y-83254099D01*
X109290443Y-83475726D01*
X109362696Y-83581111D01*
X109384971Y-83658793D01*
X109379542Y-83786453D01*
X109296432Y-83936388D01*
X109191047Y-84008641D01*
X109113365Y-84030916D01*
X108985705Y-84025487D01*
X108585879Y-83803860D01*
X109336114Y-84807733D02*
X109458345Y-84940821D01*
X109708236Y-85079338D01*
X109835896Y-85084767D01*
X109913578Y-85062492D01*
X110018963Y-84990239D01*
X110074370Y-84890282D01*
X110079799Y-84762622D01*
X110057524Y-84684941D01*
X109985271Y-84579555D01*
X109813061Y-84418764D01*
X109740808Y-84313378D01*
X109718533Y-84235697D01*
X109723961Y-84108037D01*
X109779368Y-84008080D01*
X109884753Y-83935827D01*
X109962435Y-83913552D01*
X110090095Y-83918981D01*
X110339986Y-84057498D01*
X110462218Y-84190586D01*
X110939725Y-84389939D02*
X110468768Y-85239569D01*
X110463339Y-85367229D01*
X110485614Y-85444911D01*
X110557867Y-85550296D01*
X110757780Y-85661110D01*
X110885440Y-85666538D01*
X110963122Y-85644263D01*
X111068507Y-85572010D01*
X111539465Y-84722380D01*
X105790648Y-85251659D02*
X106372419Y-84202115D01*
X106622311Y-84340632D01*
X106744542Y-84473721D01*
X106789092Y-84629084D01*
X106783663Y-84756744D01*
X106722828Y-84984360D01*
X106639718Y-85134295D01*
X106478926Y-85306505D01*
X106373541Y-85378758D01*
X106218177Y-85423308D01*
X106040539Y-85390176D01*
X105790648Y-85251659D01*
X107495337Y-86065915D02*
X107417656Y-86088190D01*
X107240018Y-86055058D01*
X107140061Y-85999651D01*
X107017830Y-85866562D01*
X106973280Y-85711199D01*
X106978708Y-85583539D01*
X107039544Y-85355923D01*
X107122654Y-85205988D01*
X107283446Y-85033778D01*
X107388831Y-84961525D01*
X107544194Y-84916975D01*
X107721833Y-84950107D01*
X107821789Y-85005514D01*
X107944020Y-85138602D01*
X107966295Y-85216284D01*
X108371550Y-85310251D02*
X109021268Y-85670396D01*
X108449792Y-85876298D01*
X108599727Y-85959408D01*
X108671980Y-86064793D01*
X108694255Y-86142475D01*
X108688827Y-86270135D01*
X108550310Y-86520026D01*
X108444925Y-86592279D01*
X108367243Y-86614554D01*
X108239583Y-86609126D01*
X107939713Y-86442905D01*
X107867460Y-86337520D01*
X107845185Y-86259839D01*
X109321137Y-85836616D02*
X109089213Y-87080084D01*
X110020833Y-86224464D01*
D11*
X107180000Y-107795000D02*
X107180000Y-108145000D01*
X106830000Y-107795000D02*
X107180000Y-107795000D01*
X98180000Y-107795000D02*
X98180000Y-108145000D01*
X98530000Y-107795000D02*
X98180000Y-107795000D01*
X98180000Y-116795000D02*
X98180000Y-116445000D01*
X98530000Y-116795000D02*
X98180000Y-116795000D01*
X107180000Y-116445000D02*
X106830000Y-116795000D01*
X109350000Y-91340000D02*
X109350000Y-91690000D01*
X109000000Y-91340000D02*
X109350000Y-91340000D01*
X100350000Y-91340000D02*
X100350000Y-91690000D01*
X100700000Y-91340000D02*
X100350000Y-91340000D01*
X100350000Y-100340000D02*
X100350000Y-99990000D01*
X100700000Y-100340000D02*
X100350000Y-100340000D01*
X109350000Y-99990000D02*
X109000000Y-100340000D01*
X94950000Y-106450000D02*
X93350000Y-106450000D01*
X94950000Y-104850000D02*
X93350000Y-104850000D01*
X93350000Y-106450000D02*
X93350000Y-106350000D01*
X94950000Y-106350000D02*
X94950000Y-106450000D01*
X94950000Y-104850000D02*
X94950000Y-104950000D01*
X93350000Y-104950000D02*
X93350000Y-104850000D01*
X94950000Y-93100000D02*
X93350000Y-93100000D01*
X94950000Y-91500000D02*
X93350000Y-91500000D01*
X93350000Y-93100000D02*
X93350000Y-93000000D01*
X94950000Y-93000000D02*
X94950000Y-93100000D01*
X94950000Y-91500000D02*
X94950000Y-91600000D01*
X93350000Y-91600000D02*
X93350000Y-91500000D01*
X87870000Y-87325000D02*
X87870000Y-91175000D01*
X86880000Y-87325000D02*
X87870000Y-87325000D01*
X86880000Y-91175000D02*
X86880000Y-87325000D01*
X87870000Y-91175000D02*
X86880000Y-91175000D01*
X96810000Y-81715000D02*
X95310000Y-81715000D01*
X95310000Y-81715000D02*
X95310000Y-87285000D01*
X95310000Y-87285000D02*
X96810000Y-87285000D01*
X103190000Y-87285000D02*
X104690000Y-85785000D01*
X104690000Y-85785000D02*
X104690000Y-83215000D01*
X104690000Y-83215000D02*
X103190000Y-81715000D01*
X117785000Y-93635000D02*
X117785000Y-92135000D01*
X117785000Y-92135000D02*
X112215000Y-92135000D01*
X112215000Y-92135000D02*
X112215000Y-93635000D01*
X112215000Y-106365000D02*
X113715000Y-107865000D01*
X113715000Y-107865000D02*
X116285000Y-107865000D01*
X116285000Y-107865000D02*
X117785000Y-106365000D01*
X87785000Y-93635000D02*
X87785000Y-92135000D01*
X87785000Y-92135000D02*
X82215000Y-92135000D01*
X82215000Y-92135000D02*
X82215000Y-93635000D01*
X82215000Y-106365000D02*
X83715000Y-107865000D01*
X83715000Y-107865000D02*
X86285000Y-107865000D01*
X86285000Y-107865000D02*
X87785000Y-106365000D01*
X89789868Y-91185000D02*
G75*
G03X89789868Y-91185000I-94868J0D01*
G01*
X89800000Y-91375000D02*
X89725000Y-91375000D01*
X89725000Y-89375000D02*
X89800000Y-89375000D01*
X91650000Y-89375000D02*
X91725000Y-89375000D01*
X91725000Y-91375000D02*
X91650000Y-91375000D01*
X91725000Y-89375000D02*
X91725000Y-91375000D01*
X89725000Y-91375000D02*
X89725000Y-89375000D01*
X92850000Y-90375000D02*
X92200000Y-90375000D01*
X92850000Y-90125000D02*
X92850000Y-90375000D01*
X92200000Y-90125000D02*
X92850000Y-90125000D01*
X92200000Y-90375000D02*
X92200000Y-90125000D01*
X92850000Y-94825000D02*
X92200000Y-94825000D01*
X92850000Y-94575000D02*
X92850000Y-94825000D01*
X92200000Y-94575000D02*
X92850000Y-94575000D01*
X92200000Y-94825000D02*
X92200000Y-94575000D01*
X92200000Y-99275000D02*
X92200000Y-99025000D01*
X92200000Y-99025000D02*
X92850000Y-99025000D01*
X92850000Y-99025000D02*
X92850000Y-99275000D01*
X92850000Y-99275000D02*
X92200000Y-99275000D01*
X92200000Y-103725000D02*
X92200000Y-103475000D01*
X92200000Y-103475000D02*
X92850000Y-103475000D01*
X92850000Y-103475000D02*
X92850000Y-103725000D01*
X92850000Y-103725000D02*
X92200000Y-103725000D01*
X89789868Y-95631000D02*
G75*
G03X89789868Y-95631000I-94868J0D01*
G01*
X89800000Y-95821000D02*
X89725000Y-95821000D01*
X89725000Y-93821000D02*
X89800000Y-93821000D01*
X91650000Y-93821000D02*
X91725000Y-93821000D01*
X91725000Y-95821000D02*
X91650000Y-95821000D01*
X91725000Y-93821000D02*
X91725000Y-95821000D01*
X89725000Y-95821000D02*
X89725000Y-93821000D01*
X89725000Y-100271000D02*
X89725000Y-98271000D01*
X91725000Y-98271000D02*
X91725000Y-100271000D01*
X91725000Y-100271000D02*
X91650000Y-100271000D01*
X91650000Y-98271000D02*
X91725000Y-98271000D01*
X89725000Y-98271000D02*
X89800000Y-98271000D01*
X89800000Y-100271000D02*
X89725000Y-100271000D01*
X89789868Y-100081000D02*
G75*
G03X89789868Y-100081000I-94868J0D01*
G01*
X89789868Y-104535000D02*
G75*
G03X89789868Y-104535000I-94868J0D01*
G01*
X89800000Y-104725000D02*
X89725000Y-104725000D01*
X89725000Y-102725000D02*
X89800000Y-102725000D01*
X91650000Y-102725000D02*
X91725000Y-102725000D01*
X91725000Y-104725000D02*
X91650000Y-104725000D01*
X91725000Y-102725000D02*
X91725000Y-104725000D01*
X89725000Y-104725000D02*
X89725000Y-102725000D01*
X91954271Y-82729358D02*
X92180848Y-82623703D01*
X92180848Y-82623703D02*
X92645729Y-83620642D01*
X92645729Y-83620642D02*
X92419152Y-83726297D01*
X92419152Y-83726297D02*
X91954271Y-82729358D01*
X88957778Y-85961673D02*
X88250711Y-85119024D01*
X89149289Y-85800976D02*
X88957778Y-85961673D01*
X88442222Y-84958327D02*
X89149289Y-85800976D01*
X88250711Y-85119024D02*
X88442222Y-84958327D01*
X90850000Y-88249999D02*
X90500000Y-87899999D01*
X90500000Y-85599999D02*
X90500000Y-85249999D01*
X90500000Y-85249999D02*
X90850000Y-85249999D01*
X93500000Y-85599999D02*
X93500000Y-85249999D01*
X93500000Y-85249999D02*
X93150000Y-85249999D01*
X93500000Y-87899999D02*
X93500000Y-88249999D01*
X93500000Y-88249999D02*
X93150000Y-88249999D01*
X89725000Y-109547500D02*
X89725000Y-107547500D01*
X91725000Y-107547500D02*
X91725000Y-109547500D01*
X91725000Y-109547500D02*
X91650000Y-109547500D01*
X91650000Y-107547500D02*
X91725000Y-107547500D01*
X89725000Y-107547500D02*
X89800000Y-107547500D01*
X89800000Y-109547500D02*
X89725000Y-109547500D01*
X89789868Y-109357500D02*
G75*
G03X89789868Y-109357500I-94868J0D01*
G01*
X89725000Y-114375000D02*
X89725000Y-112375000D01*
X91725000Y-112375000D02*
X91725000Y-114375000D01*
X91725000Y-114375000D02*
X91650000Y-114375000D01*
X91650000Y-112375000D02*
X91725000Y-112375000D01*
X89725000Y-112375000D02*
X89800000Y-112375000D01*
X89800000Y-114375000D02*
X89725000Y-114375000D01*
X89789868Y-114185000D02*
G75*
G03X89789868Y-114185000I-94868J0D01*
G01*
X92850000Y-108550000D02*
X92200000Y-108550000D01*
X92850000Y-108300000D02*
X92850000Y-108550000D01*
X92200000Y-108300000D02*
X92850000Y-108300000D01*
X92200000Y-108550000D02*
X92200000Y-108300000D01*
X92850000Y-113375000D02*
X92200000Y-113375000D01*
X92850000Y-113125000D02*
X92850000Y-113375000D01*
X92200000Y-113125000D02*
X92850000Y-113125000D01*
X92200000Y-113375000D02*
X92200000Y-113125000D01*
X93350000Y-96085000D02*
X93350000Y-95985000D01*
X94950000Y-95985000D02*
X94950000Y-96085000D01*
X94950000Y-97485000D02*
X94950000Y-97585000D01*
X93350000Y-97585000D02*
X93350000Y-97485000D01*
X94950000Y-95985000D02*
X93350000Y-95985000D01*
X94950000Y-97585000D02*
X93350000Y-97585000D01*
X93350000Y-100525000D02*
X93350000Y-100425000D01*
X94950000Y-100425000D02*
X94950000Y-100525000D01*
X94950000Y-101925000D02*
X94950000Y-102025000D01*
X93350000Y-102025000D02*
X93350000Y-101925000D01*
X94950000Y-100425000D02*
X93350000Y-100425000D01*
X94950000Y-102025000D02*
X93350000Y-102025000D01*
X93350000Y-109800000D02*
X93350000Y-109700000D01*
X94950000Y-109700000D02*
X94950000Y-109800000D01*
X94950000Y-111200000D02*
X94950000Y-111300000D01*
X93350000Y-111300000D02*
X93350000Y-111200000D01*
X94950000Y-109700000D02*
X93350000Y-109700000D01*
X94950000Y-111300000D02*
X93350000Y-111300000D01*
X94950000Y-116150000D02*
X93350000Y-116150000D01*
X94950000Y-114550000D02*
X93350000Y-114550000D01*
X93350000Y-116150000D02*
X93350000Y-116050000D01*
X94950000Y-116050000D02*
X94950000Y-116150000D01*
X94950000Y-114550000D02*
X94950000Y-114650000D01*
X93350000Y-114650000D02*
X93350000Y-114550000D01*
X86800000Y-111800000D02*
X86800000Y-111550000D01*
X86800000Y-111550000D02*
X87900000Y-111550000D01*
X87900000Y-111550000D02*
X87900000Y-111800000D01*
X87900000Y-111800000D02*
X86800000Y-111800000D01*
%LPC*%
D12*
X100080000Y-109695000D03*
X100080000Y-110995000D03*
X100080000Y-112295000D03*
X100080000Y-113595000D03*
X100080000Y-114895000D03*
X101380000Y-109695000D03*
X101380000Y-110995000D03*
X101380000Y-112295000D03*
X101380000Y-113595000D03*
X101380000Y-114895000D03*
X102680000Y-109695000D03*
X102680000Y-110995000D03*
X102680000Y-112295000D03*
X102680000Y-113595000D03*
X102680000Y-114895000D03*
X103980000Y-109695000D03*
X103980000Y-110995000D03*
X103980000Y-112295000D03*
X103980000Y-113595000D03*
X103980000Y-114895000D03*
X105280000Y-109695000D03*
X105280000Y-110995000D03*
X105280000Y-112295000D03*
X105280000Y-113595000D03*
X105280000Y-114895000D03*
D13*
X106430000Y-116695000D03*
X105930000Y-116695000D03*
X105430000Y-116695000D03*
X104930000Y-116695000D03*
X104430000Y-116695000D03*
X103930000Y-116695000D03*
X103430000Y-116695000D03*
X102930000Y-116695000D03*
X102430000Y-116695000D03*
X101930000Y-116695000D03*
X101430000Y-116695000D03*
X100930000Y-116695000D03*
X100430000Y-116695000D03*
X99930000Y-116695000D03*
X99430000Y-116695000D03*
X98930000Y-116695000D03*
D14*
X98280000Y-116045000D03*
X98280000Y-115545000D03*
X98280000Y-115045000D03*
X98280000Y-114545000D03*
X98280000Y-114045000D03*
X98280000Y-113545000D03*
X98280000Y-113045000D03*
X98280000Y-112545000D03*
X98280000Y-112045000D03*
X98280000Y-111545000D03*
X98280000Y-111045000D03*
X98280000Y-110545000D03*
X98280000Y-110045000D03*
X98280000Y-109545000D03*
X98280000Y-109045000D03*
X98280000Y-108545000D03*
D13*
X98930000Y-107895000D03*
X99430000Y-107895000D03*
X99930000Y-107895000D03*
X100430000Y-107895000D03*
X100930000Y-107895000D03*
X101430000Y-107895000D03*
X101930000Y-107895000D03*
X102430000Y-107895000D03*
X102930000Y-107895000D03*
X103430000Y-107895000D03*
X103930000Y-107895000D03*
X104430000Y-107895000D03*
X104930000Y-107895000D03*
X105430000Y-107895000D03*
X105930000Y-107895000D03*
X106430000Y-107895000D03*
D14*
X107080000Y-108545000D03*
X107080000Y-109045000D03*
X107080000Y-109545000D03*
X107080000Y-110045000D03*
X107080000Y-110545000D03*
X107080000Y-111045000D03*
X107080000Y-111545000D03*
X107080000Y-112045000D03*
X107080000Y-112545000D03*
X107080000Y-113045000D03*
X107080000Y-113545000D03*
X107080000Y-114045000D03*
X107080000Y-114545000D03*
X107080000Y-115045000D03*
X107080000Y-115545000D03*
X107080000Y-116045000D03*
D12*
X102250000Y-93240000D03*
X102250000Y-94540000D03*
X102250000Y-95840000D03*
X102250000Y-97140000D03*
X102250000Y-98440000D03*
X103550000Y-93240000D03*
X103550000Y-94540000D03*
X103550000Y-95840000D03*
X103550000Y-97140000D03*
X103550000Y-98440000D03*
X104850000Y-93240000D03*
X104850000Y-94540000D03*
X104850000Y-95840000D03*
X104850000Y-97140000D03*
X104850000Y-98440000D03*
X106150000Y-93240000D03*
X106150000Y-94540000D03*
X106150000Y-95840000D03*
X106150000Y-97140000D03*
X106150000Y-98440000D03*
X107450000Y-93240000D03*
X107450000Y-94540000D03*
X107450000Y-95840000D03*
X107450000Y-97140000D03*
X107450000Y-98440000D03*
D13*
X108600000Y-100240000D03*
X108100000Y-100240000D03*
X107600000Y-100240000D03*
X107100000Y-100240000D03*
X106600000Y-100240000D03*
X106100000Y-100240000D03*
X105600000Y-100240000D03*
X105100000Y-100240000D03*
X104600000Y-100240000D03*
X104100000Y-100240000D03*
X103600000Y-100240000D03*
X103100000Y-100240000D03*
X102600000Y-100240000D03*
X102100000Y-100240000D03*
X101600000Y-100240000D03*
X101100000Y-100240000D03*
D14*
X100450000Y-99590000D03*
X100450000Y-99090000D03*
X100450000Y-98590000D03*
X100450000Y-98090000D03*
X100450000Y-97590000D03*
X100450000Y-97090000D03*
X100450000Y-96590000D03*
X100450000Y-96090000D03*
X100450000Y-95590000D03*
X100450000Y-95090000D03*
X100450000Y-94590000D03*
X100450000Y-94090000D03*
X100450000Y-93590000D03*
X100450000Y-93090000D03*
X100450000Y-92590000D03*
X100450000Y-92090000D03*
D13*
X101100000Y-91440000D03*
X101600000Y-91440000D03*
X102100000Y-91440000D03*
X102600000Y-91440000D03*
X103100000Y-91440000D03*
X103600000Y-91440000D03*
X104100000Y-91440000D03*
X104600000Y-91440000D03*
X105100000Y-91440000D03*
X105600000Y-91440000D03*
X106100000Y-91440000D03*
X106600000Y-91440000D03*
X107100000Y-91440000D03*
X107600000Y-91440000D03*
X108100000Y-91440000D03*
X108600000Y-91440000D03*
D14*
X109250000Y-92090000D03*
X109250000Y-92590000D03*
X109250000Y-93090000D03*
X109250000Y-93590000D03*
X109250000Y-94090000D03*
X109250000Y-94590000D03*
X109250000Y-95090000D03*
X109250000Y-95590000D03*
X109250000Y-96090000D03*
X109250000Y-96590000D03*
X109250000Y-97090000D03*
X109250000Y-97590000D03*
X109250000Y-98090000D03*
X109250000Y-98590000D03*
X109250000Y-99090000D03*
X109250000Y-99590000D03*
D15*
X94850000Y-105150000D03*
X94850000Y-105650000D03*
X94850000Y-106150000D03*
D16*
X94210000Y-106150000D03*
D17*
X94150000Y-105440000D03*
D15*
X93450000Y-105150000D03*
X93450000Y-105650000D03*
X93450000Y-106150000D03*
X94850000Y-91800000D03*
X94850000Y-92300000D03*
X94850000Y-92800000D03*
D16*
X94210000Y-92800000D03*
D17*
X94150000Y-92090000D03*
D15*
X93450000Y-91800000D03*
X93450000Y-92300000D03*
X93450000Y-92800000D03*
D18*
X86190000Y-89250000D03*
X88560000Y-89250000D03*
D19*
X97460000Y-86215000D03*
X97460000Y-82785000D03*
X98730000Y-86215000D03*
X98730000Y-82785000D03*
X100000000Y-86215000D03*
X100000000Y-82785000D03*
X101270000Y-86215000D03*
X101270000Y-82785000D03*
X102540000Y-86215000D03*
X102540000Y-82785000D03*
D20*
X115000000Y-107305000D03*
X115000000Y-92695000D03*
D21*
X113285000Y-94285000D03*
X116715000Y-94285000D03*
X113285000Y-95555000D03*
X116715000Y-95555000D03*
X113285000Y-96825000D03*
X116715000Y-96825000D03*
X113285000Y-98095000D03*
X116715000Y-98095000D03*
X113285000Y-99365000D03*
X116715000Y-99365000D03*
X113285000Y-100635000D03*
X116715000Y-100635000D03*
X113285000Y-101905000D03*
X116715000Y-101905000D03*
X113285000Y-103175000D03*
X116715000Y-103175000D03*
X113285000Y-104445000D03*
X116715000Y-104445000D03*
X113285000Y-105715000D03*
X116715000Y-105715000D03*
D20*
X85000000Y-107305000D03*
X85000000Y-92695000D03*
D21*
X83285000Y-94285000D03*
X86715000Y-94285000D03*
X83285000Y-95555000D03*
X86715000Y-95555000D03*
X83285000Y-96825000D03*
X86715000Y-96825000D03*
X83285000Y-98095000D03*
X86715000Y-98095000D03*
X83285000Y-99365000D03*
X86715000Y-99365000D03*
X83285000Y-100635000D03*
X86715000Y-100635000D03*
X83285000Y-101905000D03*
X86715000Y-101905000D03*
X83285000Y-103175000D03*
X86715000Y-103175000D03*
X83285000Y-104445000D03*
X86715000Y-104445000D03*
X83285000Y-105715000D03*
X86715000Y-105715000D03*
D20*
X104130000Y-84500000D03*
X95870000Y-84500000D03*
D22*
X108075000Y-111325000D03*
X108075000Y-110425000D03*
X99950000Y-117850000D03*
X100850000Y-117850000D03*
X108075000Y-108550000D03*
X108075000Y-109450000D03*
X97225000Y-111875000D03*
X97225000Y-110975000D03*
X102225000Y-106675000D03*
X102225000Y-105775000D03*
X97325000Y-108775000D03*
X97325000Y-107875000D03*
X104075000Y-105775000D03*
X104075000Y-106675000D03*
X97525000Y-106925000D03*
X98425000Y-106925000D03*
X105000000Y-105775000D03*
X105000000Y-106675000D03*
X103150000Y-105775000D03*
X103150000Y-106675000D03*
X101300000Y-105775000D03*
X101300000Y-106675000D03*
X90975000Y-93050000D03*
X90075000Y-93050000D03*
X90975000Y-97500000D03*
X90075000Y-97500000D03*
X90975000Y-101950000D03*
X90075000Y-101950000D03*
X90975000Y-106400000D03*
X90075000Y-106400000D03*
X90075000Y-92125000D03*
X90975000Y-92125000D03*
X90075000Y-96575000D03*
X90975000Y-96575000D03*
X90075000Y-101025000D03*
X90975000Y-101025000D03*
X90075000Y-105475000D03*
X90975000Y-105475000D03*
D23*
X91375000Y-90279000D03*
D24*
X91375000Y-89452500D03*
X91375000Y-91297500D03*
X90725000Y-89452500D03*
X90075000Y-89452500D03*
X90075000Y-91297500D03*
D25*
X90400000Y-90375000D03*
D24*
X90725000Y-91297500D03*
D26*
X92525000Y-89450000D03*
X92525000Y-91050000D03*
X92525000Y-93900000D03*
X92525000Y-95500000D03*
X92525000Y-99950000D03*
X92525000Y-98350000D03*
X92525000Y-104400000D03*
X92525000Y-102800000D03*
D23*
X91375000Y-94725000D03*
D24*
X91375000Y-93898500D03*
X91375000Y-95743500D03*
X90725000Y-93898500D03*
X90075000Y-93898500D03*
X90075000Y-95743500D03*
D25*
X90400000Y-94821000D03*
D24*
X90725000Y-95743500D03*
X90725000Y-100193500D03*
D25*
X90400000Y-99271000D03*
D24*
X90075000Y-100193500D03*
X90075000Y-98348500D03*
X90725000Y-98348500D03*
X91375000Y-100193500D03*
X91375000Y-98348500D03*
D23*
X91375000Y-99175000D03*
X91375000Y-103629000D03*
D24*
X91375000Y-102802500D03*
X91375000Y-104647500D03*
X90725000Y-102802500D03*
X90075000Y-102802500D03*
X90075000Y-104647500D03*
D25*
X90400000Y-103725000D03*
D24*
X90725000Y-104647500D03*
D27*
X91484323Y-83555356D03*
D28*
G36*
X91269594Y-84455435D02*
X90656798Y-83141288D01*
X91699052Y-82655277D01*
X92311848Y-83969424D01*
X91269594Y-84455435D01*
X91269594Y-84455435D01*
G37*
D27*
X93115677Y-82794644D03*
D28*
G36*
X92900948Y-83694723D02*
X92288152Y-82380576D01*
X93330406Y-81894565D01*
X93943202Y-83208712D01*
X92900948Y-83694723D01*
X92900948Y-83694723D01*
G37*
D22*
X94150000Y-84400000D03*
X93250000Y-84400000D03*
X94320000Y-86250000D03*
X94320000Y-87150000D03*
D27*
X89389440Y-84881491D03*
D28*
G36*
X89414985Y-85806476D02*
X88482943Y-84695712D01*
X89363895Y-83956506D01*
X90295937Y-85067270D01*
X89414985Y-85806476D01*
X89414985Y-85806476D01*
G37*
D27*
X88010560Y-86038509D03*
D28*
G36*
X88036105Y-86963494D02*
X87104063Y-85852730D01*
X87985015Y-85113524D01*
X88917057Y-86224288D01*
X88036105Y-86963494D01*
X88036105Y-86963494D01*
G37*
D22*
X102825000Y-101375000D03*
X101925000Y-101375000D03*
X110250000Y-92500000D03*
X110250000Y-93400000D03*
D29*
X91249999Y-88149999D03*
X91750000Y-88149999D03*
X92250000Y-88149999D03*
X92750001Y-88149999D03*
D30*
X93400000Y-87500000D03*
X93400000Y-86999999D03*
X93400000Y-86499999D03*
X93400000Y-85999998D03*
D29*
X92750001Y-85349999D03*
X92250000Y-85349999D03*
X91750000Y-85349999D03*
X91249999Y-85349999D03*
D30*
X90600000Y-85999998D03*
X90600000Y-86499999D03*
X90600000Y-86999999D03*
X90600000Y-87500000D03*
D31*
X92000000Y-86749999D03*
D22*
X105925000Y-105775000D03*
X105925000Y-106675000D03*
X110250000Y-94375000D03*
X110250000Y-95275000D03*
X99450000Y-94650000D03*
X99450000Y-95550000D03*
D24*
X90725000Y-109470000D03*
D25*
X90400000Y-108547500D03*
D24*
X90075000Y-109470000D03*
X90075000Y-107625000D03*
X90725000Y-107625000D03*
X91375000Y-109470000D03*
X91375000Y-107625000D03*
D23*
X91375000Y-108451500D03*
D24*
X90725000Y-114297500D03*
D25*
X90400000Y-113375000D03*
D24*
X90075000Y-114297500D03*
X90075000Y-112452500D03*
X90725000Y-112452500D03*
X91375000Y-114297500D03*
X91375000Y-112452500D03*
D23*
X91375000Y-113279000D03*
D22*
X104425000Y-89325000D03*
X104425000Y-90225000D03*
X98550000Y-92350000D03*
X99450000Y-92350000D03*
X106275000Y-89325000D03*
X106275000Y-90225000D03*
X98550000Y-91425000D03*
X99450000Y-91425000D03*
X107200000Y-89325000D03*
X107200000Y-90225000D03*
X108125000Y-89325000D03*
X108125000Y-90225000D03*
X105350000Y-90225000D03*
X105350000Y-89325000D03*
X103500000Y-90225000D03*
X103500000Y-89325000D03*
X90075000Y-111225000D03*
X90975000Y-111225000D03*
X90075000Y-110300000D03*
X90975000Y-110300000D03*
D26*
X92525000Y-107625000D03*
X92525000Y-109225000D03*
D22*
X90975000Y-116050000D03*
X90075000Y-116050000D03*
X90975000Y-115125000D03*
X90075000Y-115125000D03*
D26*
X92525000Y-112450000D03*
X92525000Y-114050000D03*
D15*
X93450000Y-97285000D03*
X93450000Y-96785000D03*
X93450000Y-96285000D03*
D17*
X94150000Y-96575000D03*
D16*
X94210000Y-97285000D03*
D15*
X94850000Y-97285000D03*
X94850000Y-96785000D03*
X94850000Y-96285000D03*
X93450000Y-101725000D03*
X93450000Y-101225000D03*
X93450000Y-100725000D03*
D17*
X94150000Y-101015000D03*
D16*
X94210000Y-101725000D03*
D15*
X94850000Y-101725000D03*
X94850000Y-101225000D03*
X94850000Y-100725000D03*
X93450000Y-111000000D03*
X93450000Y-110500000D03*
X93450000Y-110000000D03*
D17*
X94150000Y-110290000D03*
D16*
X94210000Y-111000000D03*
D15*
X94850000Y-111000000D03*
X94850000Y-110500000D03*
X94850000Y-110000000D03*
X94850000Y-114850000D03*
X94850000Y-115350000D03*
X94850000Y-115850000D03*
D16*
X94210000Y-115850000D03*
D17*
X94150000Y-115140000D03*
D15*
X93450000Y-114850000D03*
X93450000Y-115350000D03*
X93450000Y-115850000D03*
D22*
X93675000Y-93550000D03*
X94575000Y-93550000D03*
X94575000Y-98025000D03*
X93675000Y-98025000D03*
X93675000Y-102475000D03*
X94575000Y-102475000D03*
X95125000Y-106875000D03*
X94225000Y-106875000D03*
X93675000Y-111875000D03*
X94575000Y-111875000D03*
X94600000Y-116775000D03*
X93700000Y-116775000D03*
D32*
X87350000Y-112575000D03*
X87350000Y-110775000D03*
D33*
X113950000Y-90475000D03*
X112425000Y-88825000D03*
X110825000Y-87425000D03*
X106250000Y-86775000D03*
M02*
