M48
;DRILL file {KiCad 4.1.0-alpha+201605071002+6776~44~ubuntu14.04.1-product} date Wed 29 Jun 2016 00:08:45 BST
;FORMAT={-:-/ absolute / inch / decimal}
FMAT,2
INCH,TZ
T1C0.016
T2C0.025
T3C0.028
%
G90
G05
M72
T1
X5.815Y-2.7165
X5.8478Y-2.7559
X5.8661Y-4.8819
X5.878Y-2.7953
X5.9055Y-2.9528
X5.9055Y-3.1496
X5.9055Y-3.3465
X5.9055Y-3.5433
X5.9055Y-3.7402
X5.9055Y-3.937
X5.9055Y-4.1339
X5.9055Y-4.3307
X5.9055Y-4.5276
X5.9055Y-4.7244
X5.9167Y-2.6772
X5.9173Y-4.8898
X5.9449Y-5.0394
X6.0276Y-5.0157
X6.0787Y-5.0157
X6.1299Y-5.0157
X6.1811Y-5.0157
X6.2323Y-5.0157
X6.3386Y-5.0394
X6.3661Y-4.8898
X6.3667Y-2.6772
X6.3976Y-2.9528
X6.3976Y-3.1496
X6.3976Y-3.3465
X6.3976Y-3.5433
X6.3976Y-3.7402
X6.3976Y-3.937
X6.3976Y-4.1339
X6.3976Y-4.3307
X6.3976Y-4.5276
X6.3976Y-4.7244
X6.4022Y-2.7953
X6.4173Y-4.8819
X6.4356Y-2.7559
T2
X5.9167Y-2.5653
X5.9167Y-2.6153
X5.9667Y-2.5653
X5.9667Y-2.6153
X6.0167Y-2.5653
X6.0167Y-2.6153
X6.0667Y-2.5653
X6.0667Y-2.6153
X6.1167Y-2.5653
X6.1167Y-2.6153
X6.1667Y-2.5653
X6.1667Y-2.6153
X6.2167Y-2.5653
X6.2167Y-2.6153
X6.2667Y-2.5653
X6.2667Y-2.6153
X6.3167Y-2.5653
X6.3167Y-2.6153
X6.3667Y-2.5653
X6.3667Y-2.6153
T3
X5.8567Y-4.9819
X5.8567Y-5.0705
X6.4268Y-4.9819
X6.4268Y-5.0705
T0
M30
