G04 #@! TF.FileFunction,Legend,Top*
%FSLAX46Y46*%
G04 Gerber Fmt 4.6, Leading zero omitted, Abs format (unit mm)*
G04 Created by KiCad (PCBNEW 4.1.0-alpha+201605071002+6776~44~ubuntu14.04.1-product) date Mon 25 Jul 2016 08:53:11 BST*
%MOMM*%
%LPD*%
G01*
G04 APERTURE LIST*
%ADD10C,0.100000*%
%ADD11C,0.250000*%
%ADD12C,0.150000*%
%ADD13R,0.450000X0.450000*%
%ADD14R,2.450000X1.036000*%
%ADD15R,2.450000X0.562000*%
%ADD16R,0.740000X2.920000*%
%ADD17R,0.950000X1.000000*%
%ADD18R,0.620000X0.620000*%
%ADD19R,1.000000X0.950000*%
%ADD20R,1.400000X4.200000*%
%ADD21C,1.200000*%
%ADD22R,2.920000X0.740000*%
%ADD23R,1.450000X1.150000*%
%ADD24R,1.150000X1.450000*%
G04 APERTURE END LIST*
D10*
D11*
X115531471Y-90599187D02*
X116097157Y-90033502D01*
X115935532Y-90195126D02*
X116056751Y-90154720D01*
X116137563Y-90154720D01*
X116258781Y-90195126D01*
X116339593Y-90275938D01*
X116501218Y-91568934D02*
X116016345Y-91084061D01*
X116258781Y-91326497D02*
X117107309Y-90477969D01*
X116905279Y-90518375D01*
X116743654Y-90518375D01*
X116622436Y-90477969D01*
X84167887Y-90014828D02*
X84167887Y-89934016D01*
X84208293Y-89812798D01*
X84410323Y-89610767D01*
X84531542Y-89570361D01*
X84612354Y-89570361D01*
X84733572Y-89610767D01*
X84814384Y-89691579D01*
X84895197Y-89853204D01*
X84895197Y-90822950D01*
X85420476Y-90297671D01*
X85097227Y-88923864D02*
X85178039Y-88843051D01*
X85299258Y-88802645D01*
X85380070Y-88802645D01*
X85501288Y-88843051D01*
X85703319Y-88964270D01*
X85905349Y-89166300D01*
X86026567Y-89368331D01*
X86066974Y-89489549D01*
X86066974Y-89570361D01*
X86026567Y-89691579D01*
X85945755Y-89772392D01*
X85824537Y-89812798D01*
X85743725Y-89812798D01*
X85622506Y-89772392D01*
X85420476Y-89651173D01*
X85218445Y-89449143D01*
X85097227Y-89247112D01*
X85056821Y-89125894D01*
X85056821Y-89045082D01*
X85097227Y-88923864D01*
X87036720Y-88681427D02*
X86551847Y-89166300D01*
X86794283Y-88923864D02*
X85945755Y-88075335D01*
X85986161Y-88277366D01*
X85986161Y-88438990D01*
X85945755Y-88560209D01*
X86915502Y-87105589D02*
X86753877Y-87267213D01*
X86713471Y-87388432D01*
X86713471Y-87469244D01*
X86753877Y-87671274D01*
X86875096Y-87873305D01*
X87198344Y-88196554D01*
X87319563Y-88236960D01*
X87400375Y-88236960D01*
X87521593Y-88196554D01*
X87683218Y-88034929D01*
X87723624Y-87913711D01*
X87723624Y-87832899D01*
X87683218Y-87711680D01*
X87481187Y-87509650D01*
X87359969Y-87469244D01*
X87279157Y-87469244D01*
X87157938Y-87509650D01*
X86996314Y-87671274D01*
X86955908Y-87792493D01*
X86955908Y-87873305D01*
X86996314Y-87994523D01*
X87885248Y-87186401D02*
X88531746Y-86539904D01*
X88572152Y-85448939D02*
X88652964Y-85368127D01*
X88774182Y-85327720D01*
X88854995Y-85327720D01*
X88976213Y-85368127D01*
X89178243Y-85489345D01*
X89380274Y-85691375D01*
X89501492Y-85893406D01*
X89541898Y-86014624D01*
X89541898Y-86095436D01*
X89501492Y-86216655D01*
X89420680Y-86297467D01*
X89299462Y-86337873D01*
X89218650Y-86337873D01*
X89097431Y-86297467D01*
X88895401Y-86176249D01*
X88693370Y-85974218D01*
X88572152Y-85772188D01*
X88531746Y-85650969D01*
X88531746Y-85570157D01*
X88572152Y-85448939D01*
X89137837Y-84883253D02*
X89703523Y-84317568D01*
X90188396Y-85529751D01*
X90552051Y-84519598D02*
X91198549Y-83873101D01*
X91117736Y-83064979D02*
X91117736Y-82984167D01*
X91158142Y-82862948D01*
X91360173Y-82660918D01*
X91481391Y-82620512D01*
X91562203Y-82620512D01*
X91683422Y-82660918D01*
X91764234Y-82741730D01*
X91845046Y-82903354D01*
X91845046Y-83873101D01*
X92370325Y-83347821D01*
X92289513Y-81731577D02*
X91885452Y-82135638D01*
X92249107Y-82580106D01*
X92249107Y-82499293D01*
X92289513Y-82378075D01*
X92491544Y-82176045D01*
X92612762Y-82135638D01*
X92693574Y-82135638D01*
X92814793Y-82176045D01*
X93016823Y-82378075D01*
X93057229Y-82499293D01*
X93057229Y-82580106D01*
X93016823Y-82701324D01*
X92814793Y-82903354D01*
X92693574Y-82943760D01*
X92612762Y-82943760D01*
X85819486Y-91100742D02*
X86425578Y-91706834D01*
X86506390Y-91868458D01*
X86506390Y-92030083D01*
X86425578Y-92191707D01*
X86344766Y-92272519D01*
X86142735Y-90777494D02*
X87193294Y-91423991D01*
X86748827Y-90656275D01*
X87516543Y-91100742D01*
X86870045Y-90050184D01*
X89092381Y-89524904D02*
X88688320Y-89928965D01*
X87839791Y-89080437D01*
X88405477Y-88514752D02*
X88890350Y-88029879D01*
X89496442Y-89120843D02*
X88647913Y-88272315D01*
X90385376Y-87747036D02*
X90789437Y-87342975D01*
X90547000Y-88070285D02*
X89981315Y-86938914D01*
X91112686Y-87504599D01*
X91031873Y-85969167D02*
X90910655Y-86009574D01*
X90789437Y-86130792D01*
X90708625Y-86292416D01*
X90708625Y-86454041D01*
X90749031Y-86575259D01*
X90870249Y-86777289D01*
X90991467Y-86898508D01*
X91193498Y-87019726D01*
X91314716Y-87060132D01*
X91476341Y-87060132D01*
X91637965Y-86979320D01*
X91718777Y-86898508D01*
X91799589Y-86736883D01*
X91799589Y-86656071D01*
X91516747Y-86373228D01*
X91355122Y-86534853D01*
X106691230Y-82529378D02*
X107539758Y-81680849D01*
X107216509Y-82569784D01*
X108105443Y-82246535D01*
X107256915Y-83095063D01*
X108428692Y-82569784D02*
X108953971Y-83095063D01*
X108347880Y-83135469D01*
X108469098Y-83256687D01*
X108509504Y-83377906D01*
X108509504Y-83458718D01*
X108469098Y-83579936D01*
X108267068Y-83781967D01*
X108145849Y-83822373D01*
X108065037Y-83822373D01*
X107943819Y-83781967D01*
X107701382Y-83539530D01*
X107660976Y-83418312D01*
X107660976Y-83337500D01*
X108469098Y-84307246D02*
X109317626Y-83458718D01*
X109640875Y-83781967D01*
X109681281Y-83903185D01*
X109681281Y-83983997D01*
X109640875Y-84105216D01*
X109519657Y-84226434D01*
X109398438Y-84266840D01*
X109317626Y-84266840D01*
X109196408Y-84226434D01*
X108873159Y-83903185D01*
X109317626Y-85074962D02*
X109398438Y-85236586D01*
X109600469Y-85438617D01*
X109721687Y-85479023D01*
X109802499Y-85479023D01*
X109923718Y-85438617D01*
X110004530Y-85357805D01*
X110044936Y-85236586D01*
X110044936Y-85155774D01*
X110004530Y-85034556D01*
X109883312Y-84832525D01*
X109842906Y-84711307D01*
X109842906Y-84630495D01*
X109883312Y-84509277D01*
X109964124Y-84428464D01*
X110085342Y-84388058D01*
X110166154Y-84388058D01*
X110287373Y-84428464D01*
X110489403Y-84630495D01*
X110570215Y-84792119D01*
X110974276Y-85115368D02*
X110287373Y-85802272D01*
X110246967Y-85923490D01*
X110246967Y-86004302D01*
X110287373Y-86125521D01*
X110448997Y-86287145D01*
X110570215Y-86327551D01*
X110651028Y-86327551D01*
X110772246Y-86287145D01*
X111459150Y-85600241D01*
X105302270Y-84039556D02*
X106150798Y-83191028D01*
X106352828Y-83393058D01*
X106433641Y-83554682D01*
X106433641Y-83716307D01*
X106393234Y-83837525D01*
X106272016Y-84039556D01*
X106150798Y-84160774D01*
X105948767Y-84281992D01*
X105827549Y-84322398D01*
X105665925Y-84322398D01*
X105504300Y-84241586D01*
X105302270Y-84039556D01*
X106716483Y-85292145D02*
X106635671Y-85292145D01*
X106474047Y-85211333D01*
X106393234Y-85130520D01*
X106312422Y-84968896D01*
X106312422Y-84807272D01*
X106352828Y-84686053D01*
X106474047Y-84484023D01*
X106595265Y-84362804D01*
X106797296Y-84241586D01*
X106918514Y-84201180D01*
X107080138Y-84201180D01*
X107241763Y-84281992D01*
X107322575Y-84362804D01*
X107403387Y-84524429D01*
X107403387Y-84605241D01*
X106999326Y-85736612D02*
X107847854Y-84888084D01*
X108049885Y-85090114D01*
X108130697Y-85251739D01*
X108130697Y-85413363D01*
X108090291Y-85534581D01*
X107969072Y-85736612D01*
X107847854Y-85857830D01*
X107645824Y-85979049D01*
X107524605Y-86019455D01*
X107362981Y-86019455D01*
X107201357Y-85938642D01*
X106999326Y-85736612D01*
X108413540Y-86989201D02*
X108332727Y-86989201D01*
X108171103Y-86908389D01*
X108090291Y-86827577D01*
X108009479Y-86665952D01*
X108009479Y-86504328D01*
X108049885Y-86383110D01*
X108171103Y-86181079D01*
X108292321Y-86059861D01*
X108494352Y-85938642D01*
X108615570Y-85898236D01*
X108777195Y-85898236D01*
X108938819Y-85979049D01*
X109019631Y-86059861D01*
X109100443Y-86221485D01*
X109100443Y-86302297D01*
X109464098Y-86504328D02*
X109989378Y-87029607D01*
X109383286Y-87070013D01*
X109504504Y-87191232D01*
X109544910Y-87312450D01*
X109544910Y-87393262D01*
X109504504Y-87514480D01*
X109302474Y-87716511D01*
X109181256Y-87756917D01*
X109100443Y-87756917D01*
X108979225Y-87716511D01*
X108736788Y-87474074D01*
X108696382Y-87352856D01*
X108696382Y-87272044D01*
D12*
X102911803Y-108700000D02*
G75*
G03X102911803Y-108700000I-111803J0D01*
G01*
X103000000Y-108700000D02*
G75*
G03X103000000Y-108700000I-200000J0D01*
G01*
X102800000Y-105900000D02*
X103020000Y-105900000D01*
X102800000Y-108900000D02*
X103020000Y-108900000D01*
X105800000Y-108900000D02*
X105580000Y-108900000D01*
X105800000Y-105900000D02*
X105580000Y-105900000D01*
X102800000Y-105900000D02*
X102800000Y-108900000D01*
X105800000Y-105900000D02*
X105800000Y-108900000D01*
X94286803Y-108686000D02*
G75*
G03X94286803Y-108686000I-111803J0D01*
G01*
X94375000Y-108686000D02*
G75*
G03X94375000Y-108686000I-200000J0D01*
G01*
X94175000Y-105886000D02*
X94395000Y-105886000D01*
X94175000Y-108886000D02*
X94395000Y-108886000D01*
X97175000Y-108886000D02*
X96955000Y-108886000D01*
X97175000Y-105886000D02*
X96955000Y-105886000D01*
X94175000Y-105886000D02*
X94175000Y-108886000D01*
X97175000Y-105886000D02*
X97175000Y-108886000D01*
X106911803Y-108700000D02*
G75*
G03X106911803Y-108700000I-111803J0D01*
G01*
X107000000Y-108700000D02*
G75*
G03X107000000Y-108700000I-200000J0D01*
G01*
X106800000Y-105900000D02*
X107020000Y-105900000D01*
X106800000Y-108900000D02*
X107020000Y-108900000D01*
X109800000Y-108900000D02*
X109580000Y-108900000D01*
X109800000Y-105900000D02*
X109580000Y-105900000D01*
X106800000Y-105900000D02*
X106800000Y-108900000D01*
X109800000Y-105900000D02*
X109800000Y-108900000D01*
X90336803Y-108686000D02*
G75*
G03X90336803Y-108686000I-111803J0D01*
G01*
X90425000Y-108686000D02*
G75*
G03X90425000Y-108686000I-200000J0D01*
G01*
X90225000Y-105886000D02*
X90445000Y-105886000D01*
X90225000Y-108886000D02*
X90445000Y-108886000D01*
X93225000Y-108886000D02*
X93005000Y-108886000D01*
X93225000Y-105886000D02*
X93005000Y-105886000D01*
X90225000Y-105886000D02*
X90225000Y-108886000D01*
X93225000Y-105886000D02*
X93225000Y-108886000D01*
X96810000Y-81715000D02*
X95310000Y-81715000D01*
X95310000Y-81715000D02*
X95310000Y-87285000D01*
X95310000Y-87285000D02*
X96810000Y-87285000D01*
X103190000Y-87285000D02*
X104690000Y-85785000D01*
X104690000Y-85785000D02*
X104690000Y-83215000D01*
X104690000Y-83215000D02*
X103190000Y-81715000D01*
X88525000Y-110125000D02*
X88275000Y-110125000D01*
X88275000Y-110125000D02*
X88275000Y-109475000D01*
X88275000Y-109475000D02*
X88525000Y-109475000D01*
X88525000Y-109475000D02*
X88525000Y-110125000D01*
X97575000Y-117525000D02*
X97575000Y-117275000D01*
X97575000Y-117275000D02*
X98225000Y-117275000D01*
X98225000Y-117275000D02*
X98225000Y-117525000D01*
X98225000Y-117525000D02*
X97575000Y-117525000D01*
X102425000Y-117275000D02*
X102425000Y-117525000D01*
X102425000Y-117525000D02*
X101775000Y-117525000D01*
X101775000Y-117525000D02*
X101775000Y-117275000D01*
X101775000Y-117275000D02*
X102425000Y-117275000D01*
X91050000Y-115725000D02*
X89150000Y-115725000D01*
X89150000Y-115725000D02*
X89150000Y-110875000D01*
X89150000Y-110875000D02*
X91050000Y-110875000D01*
X91050000Y-110875000D02*
X91050000Y-115725000D01*
X94950000Y-110875000D02*
X96850000Y-110875000D01*
X96850000Y-110875000D02*
X96850000Y-115725000D01*
X96850000Y-115725000D02*
X94950000Y-115725000D01*
X94950000Y-115725000D02*
X94950000Y-110875000D01*
X110850000Y-115725000D02*
X108950000Y-115725000D01*
X108950000Y-115725000D02*
X108950000Y-110875000D01*
X108950000Y-110875000D02*
X110850000Y-110875000D01*
X110850000Y-110875000D02*
X110850000Y-115725000D01*
X117785000Y-93635000D02*
X117785000Y-92135000D01*
X117785000Y-92135000D02*
X112215000Y-92135000D01*
X112215000Y-92135000D02*
X112215000Y-93635000D01*
X112215000Y-106365000D02*
X113715000Y-107865000D01*
X113715000Y-107865000D02*
X116285000Y-107865000D01*
X116285000Y-107865000D02*
X117785000Y-106365000D01*
X87785000Y-93635000D02*
X87785000Y-92135000D01*
X87785000Y-92135000D02*
X82215000Y-92135000D01*
X82215000Y-92135000D02*
X82215000Y-93635000D01*
X82215000Y-106365000D02*
X83715000Y-107865000D01*
X83715000Y-107865000D02*
X86285000Y-107865000D01*
X86285000Y-107865000D02*
X87785000Y-106365000D01*
X98095153Y-94752513D02*
X98095153Y-95247487D01*
X94347487Y-98995153D02*
X94100000Y-99242641D01*
X94100000Y-99242641D02*
X93852513Y-98995153D01*
X90104847Y-94752513D02*
X89857359Y-95000000D01*
X89857359Y-95000000D02*
X90104847Y-95247487D01*
X93852513Y-91004847D02*
X94100000Y-90757359D01*
X94100000Y-90757359D02*
X94347487Y-91004847D01*
X93611612Y-102611612D02*
X94018198Y-102558579D01*
X93611612Y-102611612D02*
X93558579Y-103018198D01*
X94018198Y-102558579D02*
X93558579Y-103018198D01*
X96588388Y-102511612D02*
X96641421Y-102918198D01*
X96588388Y-102511612D02*
X96181802Y-102458579D01*
X96641421Y-102918198D02*
X96181802Y-102458579D01*
X105511612Y-102611612D02*
X105918198Y-102558579D01*
X105511612Y-102611612D02*
X105458579Y-103018198D01*
X105918198Y-102558579D02*
X105458579Y-103018198D01*
X108488388Y-102511612D02*
X108541421Y-102918198D01*
X108488388Y-102511612D02*
X108081802Y-102458579D01*
X108541421Y-102918198D02*
X108081802Y-102458579D01*
X86250000Y-110675000D02*
X86250000Y-110925000D01*
X86250000Y-110925000D02*
X85150000Y-110925000D01*
X85150000Y-110925000D02*
X85150000Y-110675000D01*
X85150000Y-110675000D02*
X86250000Y-110675000D01*
X98050000Y-107525000D02*
X98050000Y-107275000D01*
X98050000Y-107275000D02*
X99150000Y-107275000D01*
X99150000Y-107275000D02*
X99150000Y-107525000D01*
X99150000Y-107525000D02*
X98050000Y-107525000D01*
X95025000Y-118150000D02*
X94775000Y-118150000D01*
X94775000Y-118150000D02*
X94775000Y-117050000D01*
X94775000Y-117050000D02*
X95025000Y-117050000D01*
X95025000Y-117050000D02*
X95025000Y-118150000D01*
X100850000Y-107525000D02*
X100850000Y-107275000D01*
X100850000Y-107275000D02*
X101950000Y-107275000D01*
X101950000Y-107275000D02*
X101950000Y-107525000D01*
X101950000Y-107525000D02*
X100850000Y-107525000D01*
X114850000Y-110675000D02*
X114850000Y-110925000D01*
X114850000Y-110925000D02*
X113750000Y-110925000D01*
X113750000Y-110925000D02*
X113750000Y-110675000D01*
X113750000Y-110675000D02*
X114850000Y-110675000D01*
X109995153Y-94752513D02*
X109995153Y-95247487D01*
X106247487Y-98995153D02*
X106000000Y-99242641D01*
X106000000Y-99242641D02*
X105752513Y-98995153D01*
X102004847Y-94752513D02*
X101757359Y-95000000D01*
X101757359Y-95000000D02*
X102004847Y-95247487D01*
X105752513Y-91004847D02*
X106000000Y-90757359D01*
X106000000Y-90757359D02*
X106247487Y-91004847D01*
X111925000Y-110125000D02*
X111675000Y-110125000D01*
X111675000Y-110125000D02*
X111675000Y-109475000D01*
X111675000Y-109475000D02*
X111925000Y-109475000D01*
X111925000Y-109475000D02*
X111925000Y-110125000D01*
X105050000Y-115725000D02*
X103150000Y-115725000D01*
X103150000Y-115725000D02*
X103150000Y-110875000D01*
X103150000Y-110875000D02*
X105050000Y-110875000D01*
X105050000Y-110875000D02*
X105050000Y-115725000D01*
X105175000Y-117050000D02*
X105425000Y-117050000D01*
X105425000Y-117050000D02*
X105425000Y-118150000D01*
X105425000Y-118150000D02*
X105175000Y-118150000D01*
X105175000Y-118150000D02*
X105175000Y-117050000D01*
X91033949Y-85130000D02*
X92830000Y-83333949D01*
X92830000Y-83333949D02*
X94626051Y-85130000D01*
X94626051Y-85130000D02*
X92830000Y-86926051D01*
X92830000Y-86926051D02*
X91033949Y-85130000D01*
%LPC*%
D13*
X105275000Y-108786000D03*
X104625000Y-108786000D03*
X103325000Y-108786000D03*
X103975000Y-108786000D03*
X103325000Y-106014000D03*
X103975000Y-106014000D03*
X104625000Y-106014000D03*
X105275000Y-106014000D03*
D14*
X104300000Y-106966000D03*
D15*
X104300000Y-108071000D03*
D13*
X96650000Y-108772000D03*
X96000000Y-108772000D03*
X94700000Y-108772000D03*
X95350000Y-108772000D03*
X94700000Y-106000000D03*
X95350000Y-106000000D03*
X96000000Y-106000000D03*
X96650000Y-106000000D03*
D14*
X95675000Y-106952000D03*
D15*
X95675000Y-108057000D03*
D13*
X109275000Y-108786000D03*
X108625000Y-108786000D03*
X107325000Y-108786000D03*
X107975000Y-108786000D03*
X107325000Y-106014000D03*
X107975000Y-106014000D03*
X108625000Y-106014000D03*
X109275000Y-106014000D03*
D14*
X108300000Y-106966000D03*
D15*
X108300000Y-108071000D03*
D13*
X92700000Y-108772000D03*
X92050000Y-108772000D03*
X90750000Y-108772000D03*
X91400000Y-108772000D03*
X90750000Y-106000000D03*
X91400000Y-106000000D03*
X92050000Y-106000000D03*
X92700000Y-106000000D03*
D14*
X91725000Y-106952000D03*
D15*
X91725000Y-108057000D03*
D10*
G36*
X92856604Y-90818198D02*
X92418198Y-91256604D01*
X91979792Y-90818198D01*
X92418198Y-90379792D01*
X92856604Y-90818198D01*
X92856604Y-90818198D01*
G37*
G36*
X92220208Y-90181802D02*
X91781802Y-90620208D01*
X91343396Y-90181802D01*
X91781802Y-89743396D01*
X92220208Y-90181802D01*
X92220208Y-90181802D01*
G37*
G36*
X104756604Y-90818198D02*
X104318198Y-91256604D01*
X103879792Y-90818198D01*
X104318198Y-90379792D01*
X104756604Y-90818198D01*
X104756604Y-90818198D01*
G37*
G36*
X104120208Y-90181802D02*
X103681802Y-90620208D01*
X103243396Y-90181802D01*
X103681802Y-89743396D01*
X104120208Y-90181802D01*
X104120208Y-90181802D01*
G37*
G36*
X107918198Y-100043396D02*
X108356604Y-100481802D01*
X107918198Y-100920208D01*
X107479792Y-100481802D01*
X107918198Y-100043396D01*
X107918198Y-100043396D01*
G37*
G36*
X107281802Y-100679792D02*
X107720208Y-101118198D01*
X107281802Y-101556604D01*
X106843396Y-101118198D01*
X107281802Y-100679792D01*
X107281802Y-100679792D01*
G37*
G36*
X96018198Y-100043396D02*
X96456604Y-100481802D01*
X96018198Y-100920208D01*
X95579792Y-100481802D01*
X96018198Y-100043396D01*
X96018198Y-100043396D01*
G37*
G36*
X95381802Y-100679792D02*
X95820208Y-101118198D01*
X95381802Y-101556604D01*
X94943396Y-101118198D01*
X95381802Y-100679792D01*
X95381802Y-100679792D01*
G37*
G36*
X92743396Y-88781802D02*
X93181802Y-88343396D01*
X93620208Y-88781802D01*
X93181802Y-89220208D01*
X92743396Y-88781802D01*
X92743396Y-88781802D01*
G37*
G36*
X93379792Y-89418198D02*
X93818198Y-88979792D01*
X94256604Y-89418198D01*
X93818198Y-89856604D01*
X93379792Y-89418198D01*
X93379792Y-89418198D01*
G37*
D16*
X97460000Y-86215000D03*
X97460000Y-82785000D03*
X98730000Y-86215000D03*
X98730000Y-82785000D03*
X100000000Y-86215000D03*
X100000000Y-82785000D03*
X101270000Y-86215000D03*
X101270000Y-82785000D03*
X102540000Y-86215000D03*
X102540000Y-82785000D03*
D10*
G36*
X104643396Y-88781802D02*
X105081802Y-88343396D01*
X105520208Y-88781802D01*
X105081802Y-89220208D01*
X104643396Y-88781802D01*
X104643396Y-88781802D01*
G37*
G36*
X105279792Y-89418198D02*
X105718198Y-88979792D01*
X106156604Y-89418198D01*
X105718198Y-89856604D01*
X105279792Y-89418198D01*
X105279792Y-89418198D01*
G37*
D17*
X89200000Y-109800000D03*
X87600000Y-109800000D03*
D10*
G36*
X90381802Y-99356604D02*
X89943396Y-98918198D01*
X90381802Y-98479792D01*
X90820208Y-98918198D01*
X90381802Y-99356604D01*
X90381802Y-99356604D01*
G37*
G36*
X91018198Y-98720208D02*
X90579792Y-98281802D01*
X91018198Y-97843396D01*
X91456604Y-98281802D01*
X91018198Y-98720208D01*
X91018198Y-98720208D01*
G37*
G36*
X91318198Y-88543396D02*
X91756604Y-88981802D01*
X91318198Y-89420208D01*
X90879792Y-88981802D01*
X91318198Y-88543396D01*
X91318198Y-88543396D01*
G37*
G36*
X90681802Y-89179792D02*
X91120208Y-89618198D01*
X90681802Y-90056604D01*
X90243396Y-89618198D01*
X90681802Y-89179792D01*
X90681802Y-89179792D01*
G37*
G36*
X91456604Y-92218198D02*
X91018198Y-92656604D01*
X90579792Y-92218198D01*
X91018198Y-91779792D01*
X91456604Y-92218198D01*
X91456604Y-92218198D01*
G37*
G36*
X90820208Y-91581802D02*
X90381802Y-92020208D01*
X89943396Y-91581802D01*
X90381802Y-91143396D01*
X90820208Y-91581802D01*
X90820208Y-91581802D01*
G37*
G36*
X90618198Y-87843396D02*
X91056604Y-88281802D01*
X90618198Y-88720208D01*
X90179792Y-88281802D01*
X90618198Y-87843396D01*
X90618198Y-87843396D01*
G37*
G36*
X89981802Y-88479792D02*
X90420208Y-88918198D01*
X89981802Y-89356604D01*
X89543396Y-88918198D01*
X89981802Y-88479792D01*
X89981802Y-88479792D01*
G37*
G36*
X90756604Y-92918198D02*
X90318198Y-93356604D01*
X89879792Y-92918198D01*
X90318198Y-92479792D01*
X90756604Y-92918198D01*
X90756604Y-92918198D01*
G37*
G36*
X90120208Y-92281802D02*
X89681802Y-92720208D01*
X89243396Y-92281802D01*
X89681802Y-91843396D01*
X90120208Y-92281802D01*
X90120208Y-92281802D01*
G37*
D18*
X99100000Y-99850000D03*
X99100000Y-98950000D03*
D10*
G36*
X96981802Y-90256604D02*
X96543396Y-89818198D01*
X96981802Y-89379792D01*
X97420208Y-89818198D01*
X96981802Y-90256604D01*
X96981802Y-90256604D01*
G37*
G36*
X97618198Y-89620208D02*
X97179792Y-89181802D01*
X97618198Y-88743396D01*
X98056604Y-89181802D01*
X97618198Y-89620208D01*
X97618198Y-89620208D01*
G37*
D18*
X98700000Y-97950000D03*
X98700000Y-97050000D03*
D10*
G36*
X90643396Y-90881802D02*
X91081802Y-90443396D01*
X91520208Y-90881802D01*
X91081802Y-91320208D01*
X90643396Y-90881802D01*
X90643396Y-90881802D01*
G37*
G36*
X91279792Y-91518198D02*
X91718198Y-91079792D01*
X92156604Y-91518198D01*
X91718198Y-91956604D01*
X91279792Y-91518198D01*
X91279792Y-91518198D01*
G37*
D19*
X97900000Y-118200000D03*
X97900000Y-116600000D03*
X102100000Y-116600000D03*
X102100000Y-118200000D03*
D10*
G36*
X103138406Y-100200000D02*
X102700000Y-100638406D01*
X102261594Y-100200000D01*
X102700000Y-99761594D01*
X103138406Y-100200000D01*
X103138406Y-100200000D01*
G37*
G36*
X102502010Y-99563604D02*
X102063604Y-100002010D01*
X101625198Y-99563604D01*
X102063604Y-99125198D01*
X102502010Y-99563604D01*
X102502010Y-99563604D01*
G37*
G36*
X113081802Y-90756604D02*
X112643396Y-90318198D01*
X113081802Y-89879792D01*
X113520208Y-90318198D01*
X113081802Y-90756604D01*
X113081802Y-90756604D01*
G37*
G36*
X113718198Y-90120208D02*
X113279792Y-89681802D01*
X113718198Y-89243396D01*
X114156604Y-89681802D01*
X113718198Y-90120208D01*
X113718198Y-90120208D01*
G37*
G36*
X103356604Y-92218198D02*
X102918198Y-92656604D01*
X102479792Y-92218198D01*
X102918198Y-91779792D01*
X103356604Y-92218198D01*
X103356604Y-92218198D01*
G37*
G36*
X102720208Y-91581802D02*
X102281802Y-92020208D01*
X101843396Y-91581802D01*
X102281802Y-91143396D01*
X102720208Y-91581802D01*
X102720208Y-91581802D01*
G37*
G36*
X113781802Y-91456604D02*
X113343396Y-91018198D01*
X113781802Y-90579792D01*
X114220208Y-91018198D01*
X113781802Y-91456604D01*
X113781802Y-91456604D01*
G37*
G36*
X114418198Y-90820208D02*
X113979792Y-90381802D01*
X114418198Y-89943396D01*
X114856604Y-90381802D01*
X114418198Y-90820208D01*
X114418198Y-90820208D01*
G37*
G36*
X102418198Y-92643396D02*
X102856604Y-93081802D01*
X102418198Y-93520208D01*
X101979792Y-93081802D01*
X102418198Y-92643396D01*
X102418198Y-92643396D01*
G37*
G36*
X101781802Y-93279792D02*
X102220208Y-93718198D01*
X101781802Y-94156604D01*
X101343396Y-93718198D01*
X101781802Y-93279792D01*
X101781802Y-93279792D01*
G37*
G36*
X110036396Y-88525198D02*
X110474802Y-88963604D01*
X110036396Y-89402010D01*
X109597990Y-88963604D01*
X110036396Y-88525198D01*
X110036396Y-88525198D01*
G37*
G36*
X109400000Y-89161594D02*
X109838406Y-89600000D01*
X109400000Y-90038406D01*
X108961594Y-89600000D01*
X109400000Y-89161594D01*
X109400000Y-89161594D01*
G37*
G36*
X112756604Y-89718198D02*
X112318198Y-90156604D01*
X111879792Y-89718198D01*
X112318198Y-89279792D01*
X112756604Y-89718198D01*
X112756604Y-89718198D01*
G37*
G36*
X112120208Y-89081802D02*
X111681802Y-89520208D01*
X111243396Y-89081802D01*
X111681802Y-88643396D01*
X112120208Y-89081802D01*
X112120208Y-89081802D01*
G37*
G36*
X109336396Y-87825198D02*
X109774802Y-88263604D01*
X109336396Y-88702010D01*
X108897990Y-88263604D01*
X109336396Y-87825198D01*
X109336396Y-87825198D01*
G37*
G36*
X108700000Y-88461594D02*
X109138406Y-88900000D01*
X108700000Y-89338406D01*
X108261594Y-88900000D01*
X108700000Y-88461594D01*
X108700000Y-88461594D01*
G37*
D20*
X91950000Y-113300000D03*
X88250000Y-113300000D03*
X94050000Y-113300000D03*
X97750000Y-113300000D03*
X111750000Y-113300000D03*
X108050000Y-113300000D03*
D21*
X115000000Y-107305000D03*
X115000000Y-92695000D03*
D22*
X113285000Y-94285000D03*
X116715000Y-94285000D03*
X113285000Y-95555000D03*
X116715000Y-95555000D03*
X113285000Y-96825000D03*
X116715000Y-96825000D03*
X113285000Y-98095000D03*
X116715000Y-98095000D03*
X113285000Y-99365000D03*
X116715000Y-99365000D03*
X113285000Y-100635000D03*
X116715000Y-100635000D03*
X113285000Y-101905000D03*
X116715000Y-101905000D03*
X113285000Y-103175000D03*
X116715000Y-103175000D03*
X113285000Y-104445000D03*
X116715000Y-104445000D03*
X113285000Y-105715000D03*
X116715000Y-105715000D03*
D21*
X85000000Y-107305000D03*
X85000000Y-92695000D03*
D22*
X83285000Y-94285000D03*
X86715000Y-94285000D03*
X83285000Y-95555000D03*
X86715000Y-95555000D03*
X83285000Y-96825000D03*
X86715000Y-96825000D03*
X83285000Y-98095000D03*
X86715000Y-98095000D03*
X83285000Y-99365000D03*
X86715000Y-99365000D03*
X83285000Y-100635000D03*
X86715000Y-100635000D03*
X83285000Y-101905000D03*
X86715000Y-101905000D03*
X83285000Y-103175000D03*
X86715000Y-103175000D03*
X83285000Y-104445000D03*
X86715000Y-104445000D03*
X83285000Y-105715000D03*
X86715000Y-105715000D03*
D10*
G36*
X97900699Y-94204505D02*
X98077476Y-94381282D01*
X97582501Y-94876257D01*
X97405724Y-94699480D01*
X97900699Y-94204505D01*
X97900699Y-94204505D01*
G37*
G36*
X97547146Y-93850951D02*
X97723923Y-94027728D01*
X97228948Y-94522703D01*
X97052171Y-94345926D01*
X97547146Y-93850951D01*
X97547146Y-93850951D01*
G37*
G36*
X97193592Y-93497398D02*
X97370369Y-93674175D01*
X96875394Y-94169150D01*
X96698617Y-93992373D01*
X97193592Y-93497398D01*
X97193592Y-93497398D01*
G37*
G36*
X96840039Y-93143844D02*
X97016816Y-93320621D01*
X96521841Y-93815596D01*
X96345064Y-93638819D01*
X96840039Y-93143844D01*
X96840039Y-93143844D01*
G37*
G36*
X96486485Y-92790291D02*
X96663262Y-92967068D01*
X96168287Y-93462043D01*
X95991510Y-93285266D01*
X96486485Y-92790291D01*
X96486485Y-92790291D01*
G37*
G36*
X96132932Y-92436738D02*
X96309709Y-92613515D01*
X95814734Y-93108490D01*
X95637957Y-92931713D01*
X96132932Y-92436738D01*
X96132932Y-92436738D01*
G37*
G36*
X95779379Y-92083184D02*
X95956156Y-92259961D01*
X95461181Y-92754936D01*
X95284404Y-92578159D01*
X95779379Y-92083184D01*
X95779379Y-92083184D01*
G37*
G36*
X95425825Y-91729631D02*
X95602602Y-91906408D01*
X95107627Y-92401383D01*
X94930850Y-92224606D01*
X95425825Y-91729631D01*
X95425825Y-91729631D01*
G37*
G36*
X95072272Y-91376077D02*
X95249049Y-91552854D01*
X94754074Y-92047829D01*
X94577297Y-91871052D01*
X95072272Y-91376077D01*
X95072272Y-91376077D01*
G37*
G36*
X94718718Y-91022524D02*
X94895495Y-91199301D01*
X94400520Y-91694276D01*
X94223743Y-91517499D01*
X94718718Y-91022524D01*
X94718718Y-91022524D01*
G37*
G36*
X93481282Y-91022524D02*
X93976257Y-91517499D01*
X93799480Y-91694276D01*
X93304505Y-91199301D01*
X93481282Y-91022524D01*
X93481282Y-91022524D01*
G37*
G36*
X93127728Y-91376077D02*
X93622703Y-91871052D01*
X93445926Y-92047829D01*
X92950951Y-91552854D01*
X93127728Y-91376077D01*
X93127728Y-91376077D01*
G37*
G36*
X92774175Y-91729631D02*
X93269150Y-92224606D01*
X93092373Y-92401383D01*
X92597398Y-91906408D01*
X92774175Y-91729631D01*
X92774175Y-91729631D01*
G37*
G36*
X92420621Y-92083184D02*
X92915596Y-92578159D01*
X92738819Y-92754936D01*
X92243844Y-92259961D01*
X92420621Y-92083184D01*
X92420621Y-92083184D01*
G37*
G36*
X92067068Y-92436738D02*
X92562043Y-92931713D01*
X92385266Y-93108490D01*
X91890291Y-92613515D01*
X92067068Y-92436738D01*
X92067068Y-92436738D01*
G37*
G36*
X91713515Y-92790291D02*
X92208490Y-93285266D01*
X92031713Y-93462043D01*
X91536738Y-92967068D01*
X91713515Y-92790291D01*
X91713515Y-92790291D01*
G37*
G36*
X91359961Y-93143844D02*
X91854936Y-93638819D01*
X91678159Y-93815596D01*
X91183184Y-93320621D01*
X91359961Y-93143844D01*
X91359961Y-93143844D01*
G37*
G36*
X91006408Y-93497398D02*
X91501383Y-93992373D01*
X91324606Y-94169150D01*
X90829631Y-93674175D01*
X91006408Y-93497398D01*
X91006408Y-93497398D01*
G37*
G36*
X90652854Y-93850951D02*
X91147829Y-94345926D01*
X90971052Y-94522703D01*
X90476077Y-94027728D01*
X90652854Y-93850951D01*
X90652854Y-93850951D01*
G37*
G36*
X90299301Y-94204505D02*
X90794276Y-94699480D01*
X90617499Y-94876257D01*
X90122524Y-94381282D01*
X90299301Y-94204505D01*
X90299301Y-94204505D01*
G37*
G36*
X90617499Y-95123743D02*
X90794276Y-95300520D01*
X90299301Y-95795495D01*
X90122524Y-95618718D01*
X90617499Y-95123743D01*
X90617499Y-95123743D01*
G37*
G36*
X90971052Y-95477297D02*
X91147829Y-95654074D01*
X90652854Y-96149049D01*
X90476077Y-95972272D01*
X90971052Y-95477297D01*
X90971052Y-95477297D01*
G37*
G36*
X91324606Y-95830850D02*
X91501383Y-96007627D01*
X91006408Y-96502602D01*
X90829631Y-96325825D01*
X91324606Y-95830850D01*
X91324606Y-95830850D01*
G37*
G36*
X91678159Y-96184404D02*
X91854936Y-96361181D01*
X91359961Y-96856156D01*
X91183184Y-96679379D01*
X91678159Y-96184404D01*
X91678159Y-96184404D01*
G37*
G36*
X92031713Y-96537957D02*
X92208490Y-96714734D01*
X91713515Y-97209709D01*
X91536738Y-97032932D01*
X92031713Y-96537957D01*
X92031713Y-96537957D01*
G37*
G36*
X92385266Y-96891510D02*
X92562043Y-97068287D01*
X92067068Y-97563262D01*
X91890291Y-97386485D01*
X92385266Y-96891510D01*
X92385266Y-96891510D01*
G37*
G36*
X92738819Y-97245064D02*
X92915596Y-97421841D01*
X92420621Y-97916816D01*
X92243844Y-97740039D01*
X92738819Y-97245064D01*
X92738819Y-97245064D01*
G37*
G36*
X93092373Y-97598617D02*
X93269150Y-97775394D01*
X92774175Y-98270369D01*
X92597398Y-98093592D01*
X93092373Y-97598617D01*
X93092373Y-97598617D01*
G37*
G36*
X93445926Y-97952171D02*
X93622703Y-98128948D01*
X93127728Y-98623923D01*
X92950951Y-98447146D01*
X93445926Y-97952171D01*
X93445926Y-97952171D01*
G37*
G36*
X93799480Y-98305724D02*
X93976257Y-98482501D01*
X93481282Y-98977476D01*
X93304505Y-98800699D01*
X93799480Y-98305724D01*
X93799480Y-98305724D01*
G37*
G36*
X94400520Y-98305724D02*
X94895495Y-98800699D01*
X94718718Y-98977476D01*
X94223743Y-98482501D01*
X94400520Y-98305724D01*
X94400520Y-98305724D01*
G37*
G36*
X94754074Y-97952171D02*
X95249049Y-98447146D01*
X95072272Y-98623923D01*
X94577297Y-98128948D01*
X94754074Y-97952171D01*
X94754074Y-97952171D01*
G37*
G36*
X95107627Y-97598617D02*
X95602602Y-98093592D01*
X95425825Y-98270369D01*
X94930850Y-97775394D01*
X95107627Y-97598617D01*
X95107627Y-97598617D01*
G37*
G36*
X95461181Y-97245064D02*
X95956156Y-97740039D01*
X95779379Y-97916816D01*
X95284404Y-97421841D01*
X95461181Y-97245064D01*
X95461181Y-97245064D01*
G37*
G36*
X95814734Y-96891510D02*
X96309709Y-97386485D01*
X96132932Y-97563262D01*
X95637957Y-97068287D01*
X95814734Y-96891510D01*
X95814734Y-96891510D01*
G37*
G36*
X96168287Y-96537957D02*
X96663262Y-97032932D01*
X96486485Y-97209709D01*
X95991510Y-96714734D01*
X96168287Y-96537957D01*
X96168287Y-96537957D01*
G37*
G36*
X96521841Y-96184404D02*
X97016816Y-96679379D01*
X96840039Y-96856156D01*
X96345064Y-96361181D01*
X96521841Y-96184404D01*
X96521841Y-96184404D01*
G37*
G36*
X96875394Y-95830850D02*
X97370369Y-96325825D01*
X97193592Y-96502602D01*
X96698617Y-96007627D01*
X96875394Y-95830850D01*
X96875394Y-95830850D01*
G37*
G36*
X97228948Y-95477297D02*
X97723923Y-95972272D01*
X97547146Y-96149049D01*
X97052171Y-95654074D01*
X97228948Y-95477297D01*
X97228948Y-95477297D01*
G37*
G36*
X97582501Y-95123743D02*
X98077476Y-95618718D01*
X97900699Y-95795495D01*
X97405724Y-95300520D01*
X97582501Y-95123743D01*
X97582501Y-95123743D01*
G37*
G36*
X96709224Y-94482398D02*
X97226826Y-95000000D01*
X96709224Y-95517602D01*
X96191622Y-95000000D01*
X96709224Y-94482398D01*
X96709224Y-94482398D01*
G37*
G36*
X95839483Y-93612657D02*
X96357085Y-94130259D01*
X95839483Y-94647861D01*
X95321881Y-94130259D01*
X95839483Y-93612657D01*
X95839483Y-93612657D01*
G37*
G36*
X94969741Y-92742915D02*
X95487343Y-93260517D01*
X94969741Y-93778119D01*
X94452139Y-93260517D01*
X94969741Y-92742915D01*
X94969741Y-92742915D01*
G37*
G36*
X94100000Y-91873174D02*
X94617602Y-92390776D01*
X94100000Y-92908378D01*
X93582398Y-92390776D01*
X94100000Y-91873174D01*
X94100000Y-91873174D01*
G37*
G36*
X95839483Y-95352139D02*
X96357085Y-95869741D01*
X95839483Y-96387343D01*
X95321881Y-95869741D01*
X95839483Y-95352139D01*
X95839483Y-95352139D01*
G37*
G36*
X94969741Y-94482398D02*
X95487343Y-95000000D01*
X94969741Y-95517602D01*
X94452139Y-95000000D01*
X94969741Y-94482398D01*
X94969741Y-94482398D01*
G37*
G36*
X94100000Y-93612657D02*
X94617602Y-94130259D01*
X94100000Y-94647861D01*
X93582398Y-94130259D01*
X94100000Y-93612657D01*
X94100000Y-93612657D01*
G37*
G36*
X93230259Y-92742915D02*
X93747861Y-93260517D01*
X93230259Y-93778119D01*
X92712657Y-93260517D01*
X93230259Y-92742915D01*
X93230259Y-92742915D01*
G37*
G36*
X94969741Y-96221881D02*
X95487343Y-96739483D01*
X94969741Y-97257085D01*
X94452139Y-96739483D01*
X94969741Y-96221881D01*
X94969741Y-96221881D01*
G37*
G36*
X94100000Y-95352139D02*
X94617602Y-95869741D01*
X94100000Y-96387343D01*
X93582398Y-95869741D01*
X94100000Y-95352139D01*
X94100000Y-95352139D01*
G37*
G36*
X93230259Y-94482398D02*
X93747861Y-95000000D01*
X93230259Y-95517602D01*
X92712657Y-95000000D01*
X93230259Y-94482398D01*
X93230259Y-94482398D01*
G37*
G36*
X92360517Y-93612657D02*
X92878119Y-94130259D01*
X92360517Y-94647861D01*
X91842915Y-94130259D01*
X92360517Y-93612657D01*
X92360517Y-93612657D01*
G37*
G36*
X94100000Y-97091622D02*
X94617602Y-97609224D01*
X94100000Y-98126826D01*
X93582398Y-97609224D01*
X94100000Y-97091622D01*
X94100000Y-97091622D01*
G37*
G36*
X93230259Y-96221881D02*
X93747861Y-96739483D01*
X93230259Y-97257085D01*
X92712657Y-96739483D01*
X93230259Y-96221881D01*
X93230259Y-96221881D01*
G37*
G36*
X92360517Y-95352139D02*
X92878119Y-95869741D01*
X92360517Y-96387343D01*
X91842915Y-95869741D01*
X92360517Y-95352139D01*
X92360517Y-95352139D01*
G37*
G36*
X91490776Y-94482398D02*
X92008378Y-95000000D01*
X91490776Y-95517602D01*
X90973174Y-95000000D01*
X91490776Y-94482398D01*
X91490776Y-94482398D01*
G37*
G36*
X92444886Y-102151993D02*
X93151993Y-101444886D01*
X93823744Y-102116637D01*
X93116637Y-102823744D01*
X92444886Y-102151993D01*
X92444886Y-102151993D01*
G37*
G36*
X93576256Y-103283363D02*
X94283363Y-102576256D01*
X94955114Y-103248007D01*
X94248007Y-103955114D01*
X93576256Y-103283363D01*
X93576256Y-103283363D01*
G37*
G36*
X97048007Y-101344886D02*
X97755114Y-102051993D01*
X97083363Y-102723744D01*
X96376256Y-102016637D01*
X97048007Y-101344886D01*
X97048007Y-101344886D01*
G37*
G36*
X95916637Y-102476256D02*
X96623744Y-103183363D01*
X95951993Y-103855114D01*
X95244886Y-103148007D01*
X95916637Y-102476256D01*
X95916637Y-102476256D01*
G37*
G36*
X104344886Y-102151993D02*
X105051993Y-101444886D01*
X105723744Y-102116637D01*
X105016637Y-102823744D01*
X104344886Y-102151993D01*
X104344886Y-102151993D01*
G37*
G36*
X105476256Y-103283363D02*
X106183363Y-102576256D01*
X106855114Y-103248007D01*
X106148007Y-103955114D01*
X105476256Y-103283363D01*
X105476256Y-103283363D01*
G37*
G36*
X108948007Y-101344886D02*
X109655114Y-102051993D01*
X108983363Y-102723744D01*
X108276256Y-102016637D01*
X108948007Y-101344886D01*
X108948007Y-101344886D01*
G37*
G36*
X107816637Y-102476256D02*
X108523744Y-103183363D01*
X107851993Y-103855114D01*
X107144886Y-103148007D01*
X107816637Y-102476256D01*
X107816637Y-102476256D01*
G37*
D23*
X85700000Y-109900000D03*
X85700000Y-111700000D03*
D10*
G36*
X92043396Y-89481802D02*
X92481802Y-89043396D01*
X92920208Y-89481802D01*
X92481802Y-89920208D01*
X92043396Y-89481802D01*
X92043396Y-89481802D01*
G37*
G36*
X92679792Y-90118198D02*
X93118198Y-89679792D01*
X93556604Y-90118198D01*
X93118198Y-90556604D01*
X92679792Y-90118198D01*
X92679792Y-90118198D01*
G37*
G36*
X95218198Y-99243396D02*
X95656604Y-99681802D01*
X95218198Y-100120208D01*
X94779792Y-99681802D01*
X95218198Y-99243396D01*
X95218198Y-99243396D01*
G37*
G36*
X94581802Y-99879792D02*
X95020208Y-100318198D01*
X94581802Y-100756604D01*
X94143396Y-100318198D01*
X94581802Y-99879792D01*
X94581802Y-99879792D01*
G37*
G36*
X93156604Y-103618198D02*
X92718198Y-104056604D01*
X92279792Y-103618198D01*
X92718198Y-103179792D01*
X93156604Y-103618198D01*
X93156604Y-103618198D01*
G37*
G36*
X92520208Y-102981802D02*
X92081802Y-103420208D01*
X91643396Y-102981802D01*
X92081802Y-102543396D01*
X92520208Y-102981802D01*
X92520208Y-102981802D01*
G37*
G36*
X88543396Y-92981802D02*
X88981802Y-92543396D01*
X89420208Y-92981802D01*
X88981802Y-93420208D01*
X88543396Y-92981802D01*
X88543396Y-92981802D01*
G37*
G36*
X89179792Y-93618198D02*
X89618198Y-93179792D01*
X90056604Y-93618198D01*
X89618198Y-94056604D01*
X89179792Y-93618198D01*
X89179792Y-93618198D01*
G37*
G36*
X89618198Y-96443396D02*
X90056604Y-96881802D01*
X89618198Y-97320208D01*
X89179792Y-96881802D01*
X89618198Y-96443396D01*
X89618198Y-96443396D01*
G37*
G36*
X88981802Y-97079792D02*
X89420208Y-97518198D01*
X88981802Y-97956604D01*
X88543396Y-97518198D01*
X88981802Y-97079792D01*
X88981802Y-97079792D01*
G37*
G36*
X99256604Y-93318198D02*
X98818198Y-93756604D01*
X98379792Y-93318198D01*
X98818198Y-92879792D01*
X99256604Y-93318198D01*
X99256604Y-93318198D01*
G37*
G36*
X98620208Y-92681802D02*
X98181802Y-93120208D01*
X97743396Y-92681802D01*
X98181802Y-92243396D01*
X98620208Y-92681802D01*
X98620208Y-92681802D01*
G37*
D23*
X98600000Y-108300000D03*
X98600000Y-106500000D03*
D10*
G36*
X97956604Y-91718198D02*
X97518198Y-92156604D01*
X97079792Y-91718198D01*
X97518198Y-91279792D01*
X97956604Y-91718198D01*
X97956604Y-91718198D01*
G37*
G36*
X97320208Y-91081802D02*
X96881802Y-91520208D01*
X96443396Y-91081802D01*
X96881802Y-90643396D01*
X97320208Y-91081802D01*
X97320208Y-91081802D01*
G37*
G36*
X99018198Y-90143396D02*
X99456604Y-90581802D01*
X99018198Y-91020208D01*
X98579792Y-90581802D01*
X99018198Y-90143396D01*
X99018198Y-90143396D01*
G37*
G36*
X98381802Y-90779792D02*
X98820208Y-91218198D01*
X98381802Y-91656604D01*
X97943396Y-91218198D01*
X98381802Y-90779792D01*
X98381802Y-90779792D01*
G37*
G36*
X98318198Y-89443396D02*
X98756604Y-89881802D01*
X98318198Y-90320208D01*
X97879792Y-89881802D01*
X98318198Y-89443396D01*
X98318198Y-89443396D01*
G37*
G36*
X97681802Y-90079792D02*
X98120208Y-90518198D01*
X97681802Y-90956604D01*
X97243396Y-90518198D01*
X97681802Y-90079792D01*
X97681802Y-90079792D01*
G37*
G36*
X98018198Y-102543396D02*
X98456604Y-102981802D01*
X98018198Y-103420208D01*
X97579792Y-102981802D01*
X98018198Y-102543396D01*
X98018198Y-102543396D01*
G37*
G36*
X97381802Y-103179792D02*
X97820208Y-103618198D01*
X97381802Y-104056604D01*
X96943396Y-103618198D01*
X97381802Y-103179792D01*
X97381802Y-103179792D01*
G37*
D24*
X95800000Y-117600000D03*
X94000000Y-117600000D03*
D10*
G36*
X103943396Y-89481802D02*
X104381802Y-89043396D01*
X104820208Y-89481802D01*
X104381802Y-89920208D01*
X103943396Y-89481802D01*
X103943396Y-89481802D01*
G37*
G36*
X104579792Y-90118198D02*
X105018198Y-89679792D01*
X105456604Y-90118198D01*
X105018198Y-90556604D01*
X104579792Y-90118198D01*
X104579792Y-90118198D01*
G37*
G36*
X107118198Y-99243396D02*
X107556604Y-99681802D01*
X107118198Y-100120208D01*
X106679792Y-99681802D01*
X107118198Y-99243396D01*
X107118198Y-99243396D01*
G37*
G36*
X106481802Y-99879792D02*
X106920208Y-100318198D01*
X106481802Y-100756604D01*
X106043396Y-100318198D01*
X106481802Y-99879792D01*
X106481802Y-99879792D01*
G37*
G36*
X103818198Y-98193396D02*
X104256604Y-98631802D01*
X103818198Y-99070208D01*
X103379792Y-98631802D01*
X103818198Y-98193396D01*
X103818198Y-98193396D01*
G37*
G36*
X103181802Y-98829792D02*
X103620208Y-99268198D01*
X103181802Y-99706604D01*
X102743396Y-99268198D01*
X103181802Y-98829792D01*
X103181802Y-98829792D01*
G37*
G36*
X105056604Y-103618198D02*
X104618198Y-104056604D01*
X104179792Y-103618198D01*
X104618198Y-103179792D01*
X105056604Y-103618198D01*
X105056604Y-103618198D01*
G37*
G36*
X104420208Y-102981802D02*
X103981802Y-103420208D01*
X103543396Y-102981802D01*
X103981802Y-102543396D01*
X104420208Y-102981802D01*
X104420208Y-102981802D01*
G37*
D18*
X101600000Y-96700000D03*
X101600000Y-97600000D03*
D10*
G36*
X102968198Y-97343396D02*
X103406604Y-97781802D01*
X102968198Y-98220208D01*
X102529792Y-97781802D01*
X102968198Y-97343396D01*
X102968198Y-97343396D01*
G37*
G36*
X102331802Y-97979792D02*
X102770208Y-98418198D01*
X102331802Y-98856604D01*
X101893396Y-98418198D01*
X102331802Y-97979792D01*
X102331802Y-97979792D01*
G37*
G36*
X111006604Y-92868198D02*
X110568198Y-93306604D01*
X110129792Y-92868198D01*
X110568198Y-92429792D01*
X111006604Y-92868198D01*
X111006604Y-92868198D01*
G37*
G36*
X110370208Y-92231802D02*
X109931802Y-92670208D01*
X109493396Y-92231802D01*
X109931802Y-91793396D01*
X110370208Y-92231802D01*
X110370208Y-92231802D01*
G37*
D23*
X101400000Y-108300000D03*
X101400000Y-106500000D03*
D10*
G36*
X109556604Y-91418198D02*
X109118198Y-91856604D01*
X108679792Y-91418198D01*
X109118198Y-90979792D01*
X109556604Y-91418198D01*
X109556604Y-91418198D01*
G37*
G36*
X108920208Y-90781802D02*
X108481802Y-91220208D01*
X108043396Y-90781802D01*
X108481802Y-90343396D01*
X108920208Y-90781802D01*
X108920208Y-90781802D01*
G37*
G36*
X110543396Y-89781802D02*
X110981802Y-89343396D01*
X111420208Y-89781802D01*
X110981802Y-90220208D01*
X110543396Y-89781802D01*
X110543396Y-89781802D01*
G37*
G36*
X111179792Y-90418198D02*
X111618198Y-89979792D01*
X112056604Y-90418198D01*
X111618198Y-90856604D01*
X111179792Y-90418198D01*
X111179792Y-90418198D01*
G37*
D23*
X114300000Y-109900000D03*
X114300000Y-111700000D03*
D10*
G36*
X109800699Y-94204505D02*
X109977476Y-94381282D01*
X109482501Y-94876257D01*
X109305724Y-94699480D01*
X109800699Y-94204505D01*
X109800699Y-94204505D01*
G37*
G36*
X109447146Y-93850951D02*
X109623923Y-94027728D01*
X109128948Y-94522703D01*
X108952171Y-94345926D01*
X109447146Y-93850951D01*
X109447146Y-93850951D01*
G37*
G36*
X109093592Y-93497398D02*
X109270369Y-93674175D01*
X108775394Y-94169150D01*
X108598617Y-93992373D01*
X109093592Y-93497398D01*
X109093592Y-93497398D01*
G37*
G36*
X108740039Y-93143844D02*
X108916816Y-93320621D01*
X108421841Y-93815596D01*
X108245064Y-93638819D01*
X108740039Y-93143844D01*
X108740039Y-93143844D01*
G37*
G36*
X108386485Y-92790291D02*
X108563262Y-92967068D01*
X108068287Y-93462043D01*
X107891510Y-93285266D01*
X108386485Y-92790291D01*
X108386485Y-92790291D01*
G37*
G36*
X108032932Y-92436738D02*
X108209709Y-92613515D01*
X107714734Y-93108490D01*
X107537957Y-92931713D01*
X108032932Y-92436738D01*
X108032932Y-92436738D01*
G37*
G36*
X107679379Y-92083184D02*
X107856156Y-92259961D01*
X107361181Y-92754936D01*
X107184404Y-92578159D01*
X107679379Y-92083184D01*
X107679379Y-92083184D01*
G37*
G36*
X107325825Y-91729631D02*
X107502602Y-91906408D01*
X107007627Y-92401383D01*
X106830850Y-92224606D01*
X107325825Y-91729631D01*
X107325825Y-91729631D01*
G37*
G36*
X106972272Y-91376077D02*
X107149049Y-91552854D01*
X106654074Y-92047829D01*
X106477297Y-91871052D01*
X106972272Y-91376077D01*
X106972272Y-91376077D01*
G37*
G36*
X106618718Y-91022524D02*
X106795495Y-91199301D01*
X106300520Y-91694276D01*
X106123743Y-91517499D01*
X106618718Y-91022524D01*
X106618718Y-91022524D01*
G37*
G36*
X105381282Y-91022524D02*
X105876257Y-91517499D01*
X105699480Y-91694276D01*
X105204505Y-91199301D01*
X105381282Y-91022524D01*
X105381282Y-91022524D01*
G37*
G36*
X105027728Y-91376077D02*
X105522703Y-91871052D01*
X105345926Y-92047829D01*
X104850951Y-91552854D01*
X105027728Y-91376077D01*
X105027728Y-91376077D01*
G37*
G36*
X104674175Y-91729631D02*
X105169150Y-92224606D01*
X104992373Y-92401383D01*
X104497398Y-91906408D01*
X104674175Y-91729631D01*
X104674175Y-91729631D01*
G37*
G36*
X104320621Y-92083184D02*
X104815596Y-92578159D01*
X104638819Y-92754936D01*
X104143844Y-92259961D01*
X104320621Y-92083184D01*
X104320621Y-92083184D01*
G37*
G36*
X103967068Y-92436738D02*
X104462043Y-92931713D01*
X104285266Y-93108490D01*
X103790291Y-92613515D01*
X103967068Y-92436738D01*
X103967068Y-92436738D01*
G37*
G36*
X103613515Y-92790291D02*
X104108490Y-93285266D01*
X103931713Y-93462043D01*
X103436738Y-92967068D01*
X103613515Y-92790291D01*
X103613515Y-92790291D01*
G37*
G36*
X103259961Y-93143844D02*
X103754936Y-93638819D01*
X103578159Y-93815596D01*
X103083184Y-93320621D01*
X103259961Y-93143844D01*
X103259961Y-93143844D01*
G37*
G36*
X102906408Y-93497398D02*
X103401383Y-93992373D01*
X103224606Y-94169150D01*
X102729631Y-93674175D01*
X102906408Y-93497398D01*
X102906408Y-93497398D01*
G37*
G36*
X102552854Y-93850951D02*
X103047829Y-94345926D01*
X102871052Y-94522703D01*
X102376077Y-94027728D01*
X102552854Y-93850951D01*
X102552854Y-93850951D01*
G37*
G36*
X102199301Y-94204505D02*
X102694276Y-94699480D01*
X102517499Y-94876257D01*
X102022524Y-94381282D01*
X102199301Y-94204505D01*
X102199301Y-94204505D01*
G37*
G36*
X102517499Y-95123743D02*
X102694276Y-95300520D01*
X102199301Y-95795495D01*
X102022524Y-95618718D01*
X102517499Y-95123743D01*
X102517499Y-95123743D01*
G37*
G36*
X102871052Y-95477297D02*
X103047829Y-95654074D01*
X102552854Y-96149049D01*
X102376077Y-95972272D01*
X102871052Y-95477297D01*
X102871052Y-95477297D01*
G37*
G36*
X103224606Y-95830850D02*
X103401383Y-96007627D01*
X102906408Y-96502602D01*
X102729631Y-96325825D01*
X103224606Y-95830850D01*
X103224606Y-95830850D01*
G37*
G36*
X103578159Y-96184404D02*
X103754936Y-96361181D01*
X103259961Y-96856156D01*
X103083184Y-96679379D01*
X103578159Y-96184404D01*
X103578159Y-96184404D01*
G37*
G36*
X103931713Y-96537957D02*
X104108490Y-96714734D01*
X103613515Y-97209709D01*
X103436738Y-97032932D01*
X103931713Y-96537957D01*
X103931713Y-96537957D01*
G37*
G36*
X104285266Y-96891510D02*
X104462043Y-97068287D01*
X103967068Y-97563262D01*
X103790291Y-97386485D01*
X104285266Y-96891510D01*
X104285266Y-96891510D01*
G37*
G36*
X104638819Y-97245064D02*
X104815596Y-97421841D01*
X104320621Y-97916816D01*
X104143844Y-97740039D01*
X104638819Y-97245064D01*
X104638819Y-97245064D01*
G37*
G36*
X104992373Y-97598617D02*
X105169150Y-97775394D01*
X104674175Y-98270369D01*
X104497398Y-98093592D01*
X104992373Y-97598617D01*
X104992373Y-97598617D01*
G37*
G36*
X105345926Y-97952171D02*
X105522703Y-98128948D01*
X105027728Y-98623923D01*
X104850951Y-98447146D01*
X105345926Y-97952171D01*
X105345926Y-97952171D01*
G37*
G36*
X105699480Y-98305724D02*
X105876257Y-98482501D01*
X105381282Y-98977476D01*
X105204505Y-98800699D01*
X105699480Y-98305724D01*
X105699480Y-98305724D01*
G37*
G36*
X106300520Y-98305724D02*
X106795495Y-98800699D01*
X106618718Y-98977476D01*
X106123743Y-98482501D01*
X106300520Y-98305724D01*
X106300520Y-98305724D01*
G37*
G36*
X106654074Y-97952171D02*
X107149049Y-98447146D01*
X106972272Y-98623923D01*
X106477297Y-98128948D01*
X106654074Y-97952171D01*
X106654074Y-97952171D01*
G37*
G36*
X107007627Y-97598617D02*
X107502602Y-98093592D01*
X107325825Y-98270369D01*
X106830850Y-97775394D01*
X107007627Y-97598617D01*
X107007627Y-97598617D01*
G37*
G36*
X107361181Y-97245064D02*
X107856156Y-97740039D01*
X107679379Y-97916816D01*
X107184404Y-97421841D01*
X107361181Y-97245064D01*
X107361181Y-97245064D01*
G37*
G36*
X107714734Y-96891510D02*
X108209709Y-97386485D01*
X108032932Y-97563262D01*
X107537957Y-97068287D01*
X107714734Y-96891510D01*
X107714734Y-96891510D01*
G37*
G36*
X108068287Y-96537957D02*
X108563262Y-97032932D01*
X108386485Y-97209709D01*
X107891510Y-96714734D01*
X108068287Y-96537957D01*
X108068287Y-96537957D01*
G37*
G36*
X108421841Y-96184404D02*
X108916816Y-96679379D01*
X108740039Y-96856156D01*
X108245064Y-96361181D01*
X108421841Y-96184404D01*
X108421841Y-96184404D01*
G37*
G36*
X108775394Y-95830850D02*
X109270369Y-96325825D01*
X109093592Y-96502602D01*
X108598617Y-96007627D01*
X108775394Y-95830850D01*
X108775394Y-95830850D01*
G37*
G36*
X109128948Y-95477297D02*
X109623923Y-95972272D01*
X109447146Y-96149049D01*
X108952171Y-95654074D01*
X109128948Y-95477297D01*
X109128948Y-95477297D01*
G37*
G36*
X109482501Y-95123743D02*
X109977476Y-95618718D01*
X109800699Y-95795495D01*
X109305724Y-95300520D01*
X109482501Y-95123743D01*
X109482501Y-95123743D01*
G37*
G36*
X108609224Y-94482398D02*
X109126826Y-95000000D01*
X108609224Y-95517602D01*
X108091622Y-95000000D01*
X108609224Y-94482398D01*
X108609224Y-94482398D01*
G37*
G36*
X107739483Y-93612657D02*
X108257085Y-94130259D01*
X107739483Y-94647861D01*
X107221881Y-94130259D01*
X107739483Y-93612657D01*
X107739483Y-93612657D01*
G37*
G36*
X106869741Y-92742915D02*
X107387343Y-93260517D01*
X106869741Y-93778119D01*
X106352139Y-93260517D01*
X106869741Y-92742915D01*
X106869741Y-92742915D01*
G37*
G36*
X106000000Y-91873174D02*
X106517602Y-92390776D01*
X106000000Y-92908378D01*
X105482398Y-92390776D01*
X106000000Y-91873174D01*
X106000000Y-91873174D01*
G37*
G36*
X107739483Y-95352139D02*
X108257085Y-95869741D01*
X107739483Y-96387343D01*
X107221881Y-95869741D01*
X107739483Y-95352139D01*
X107739483Y-95352139D01*
G37*
G36*
X106869741Y-94482398D02*
X107387343Y-95000000D01*
X106869741Y-95517602D01*
X106352139Y-95000000D01*
X106869741Y-94482398D01*
X106869741Y-94482398D01*
G37*
G36*
X106000000Y-93612657D02*
X106517602Y-94130259D01*
X106000000Y-94647861D01*
X105482398Y-94130259D01*
X106000000Y-93612657D01*
X106000000Y-93612657D01*
G37*
G36*
X105130259Y-92742915D02*
X105647861Y-93260517D01*
X105130259Y-93778119D01*
X104612657Y-93260517D01*
X105130259Y-92742915D01*
X105130259Y-92742915D01*
G37*
G36*
X106869741Y-96221881D02*
X107387343Y-96739483D01*
X106869741Y-97257085D01*
X106352139Y-96739483D01*
X106869741Y-96221881D01*
X106869741Y-96221881D01*
G37*
G36*
X106000000Y-95352139D02*
X106517602Y-95869741D01*
X106000000Y-96387343D01*
X105482398Y-95869741D01*
X106000000Y-95352139D01*
X106000000Y-95352139D01*
G37*
G36*
X105130259Y-94482398D02*
X105647861Y-95000000D01*
X105130259Y-95517602D01*
X104612657Y-95000000D01*
X105130259Y-94482398D01*
X105130259Y-94482398D01*
G37*
G36*
X104260517Y-93612657D02*
X104778119Y-94130259D01*
X104260517Y-94647861D01*
X103742915Y-94130259D01*
X104260517Y-93612657D01*
X104260517Y-93612657D01*
G37*
G36*
X106000000Y-97091622D02*
X106517602Y-97609224D01*
X106000000Y-98126826D01*
X105482398Y-97609224D01*
X106000000Y-97091622D01*
X106000000Y-97091622D01*
G37*
G36*
X105130259Y-96221881D02*
X105647861Y-96739483D01*
X105130259Y-97257085D01*
X104612657Y-96739483D01*
X105130259Y-96221881D01*
X105130259Y-96221881D01*
G37*
G36*
X104260517Y-95352139D02*
X104778119Y-95869741D01*
X104260517Y-96387343D01*
X103742915Y-95869741D01*
X104260517Y-95352139D01*
X104260517Y-95352139D01*
G37*
G36*
X103390776Y-94482398D02*
X103908378Y-95000000D01*
X103390776Y-95517602D01*
X102873174Y-95000000D01*
X103390776Y-94482398D01*
X103390776Y-94482398D01*
G37*
D17*
X112600000Y-109800000D03*
X111000000Y-109800000D03*
D10*
G36*
X102543396Y-90881802D02*
X102981802Y-90443396D01*
X103420208Y-90881802D01*
X102981802Y-91320208D01*
X102543396Y-90881802D01*
X102543396Y-90881802D01*
G37*
G36*
X103179792Y-91518198D02*
X103618198Y-91079792D01*
X104056604Y-91518198D01*
X103618198Y-91956604D01*
X103179792Y-91518198D01*
X103179792Y-91518198D01*
G37*
D20*
X105950000Y-113300000D03*
X102250000Y-113300000D03*
D10*
G36*
X109918198Y-102543396D02*
X110356604Y-102981802D01*
X109918198Y-103420208D01*
X109479792Y-102981802D01*
X109918198Y-102543396D01*
X109918198Y-102543396D01*
G37*
G36*
X109281802Y-103179792D02*
X109720208Y-103618198D01*
X109281802Y-104056604D01*
X108843396Y-103618198D01*
X109281802Y-103179792D01*
X109281802Y-103179792D01*
G37*
G36*
X109843396Y-90481802D02*
X110281802Y-90043396D01*
X110720208Y-90481802D01*
X110281802Y-90920208D01*
X109843396Y-90481802D01*
X109843396Y-90481802D01*
G37*
G36*
X110479792Y-91118198D02*
X110918198Y-90679792D01*
X111356604Y-91118198D01*
X110918198Y-91556604D01*
X110479792Y-91118198D01*
X110479792Y-91118198D01*
G37*
D24*
X104400000Y-117600000D03*
X106200000Y-117600000D03*
D10*
G36*
X90318198Y-97143396D02*
X90756604Y-97581802D01*
X90318198Y-98020208D01*
X89879792Y-97581802D01*
X90318198Y-97143396D01*
X90318198Y-97143396D01*
G37*
G36*
X89681802Y-97779792D02*
X90120208Y-98218198D01*
X89681802Y-98656604D01*
X89243396Y-98218198D01*
X89681802Y-97779792D01*
X89681802Y-97779792D01*
G37*
D21*
X104130000Y-84500000D03*
X95870000Y-84500000D03*
D10*
G36*
X95056604Y-101718198D02*
X94618198Y-102156604D01*
X94179792Y-101718198D01*
X94618198Y-101279792D01*
X95056604Y-101718198D01*
X95056604Y-101718198D01*
G37*
G36*
X94420208Y-101081802D02*
X93981802Y-101520208D01*
X93543396Y-101081802D01*
X93981802Y-100643396D01*
X94420208Y-101081802D01*
X94420208Y-101081802D01*
G37*
G36*
X106956604Y-101718198D02*
X106518198Y-102156604D01*
X106079792Y-101718198D01*
X106518198Y-101279792D01*
X106956604Y-101718198D01*
X106956604Y-101718198D01*
G37*
G36*
X106320208Y-101081802D02*
X105881802Y-101520208D01*
X105443396Y-101081802D01*
X105881802Y-100643396D01*
X106320208Y-101081802D01*
X106320208Y-101081802D01*
G37*
G36*
X92876558Y-83985536D02*
X92922668Y-83992376D01*
X92967885Y-84003702D01*
X93011775Y-84019406D01*
X93053913Y-84039336D01*
X93093896Y-84063301D01*
X93131337Y-84091069D01*
X93165876Y-84122373D01*
X93837627Y-84794124D01*
X93868931Y-84828663D01*
X93896699Y-84866104D01*
X93920664Y-84906087D01*
X93940594Y-84948225D01*
X93956298Y-84992115D01*
X93967624Y-85037332D01*
X93974464Y-85083442D01*
X93976751Y-85130000D01*
X93974464Y-85176558D01*
X93967624Y-85222668D01*
X93956298Y-85267885D01*
X93940594Y-85311775D01*
X93920664Y-85353913D01*
X93896699Y-85393896D01*
X93868931Y-85431337D01*
X93837627Y-85465876D01*
X93165876Y-86137627D01*
X93131337Y-86168931D01*
X93093896Y-86196699D01*
X93053913Y-86220664D01*
X93011775Y-86240594D01*
X92967885Y-86256298D01*
X92922668Y-86267624D01*
X92876558Y-86274464D01*
X92830000Y-86276751D01*
X92783442Y-86274464D01*
X92737332Y-86267624D01*
X92692115Y-86256298D01*
X92648225Y-86240594D01*
X92606087Y-86220664D01*
X92566104Y-86196699D01*
X92528663Y-86168931D01*
X92494124Y-86137627D01*
X91822373Y-85465876D01*
X91791069Y-85431337D01*
X91763301Y-85393896D01*
X91739336Y-85353913D01*
X91719406Y-85311775D01*
X91703702Y-85267885D01*
X91692376Y-85222668D01*
X91685536Y-85176558D01*
X91683249Y-85130000D01*
X91685536Y-85083442D01*
X91692376Y-85037332D01*
X91703702Y-84992115D01*
X91719406Y-84948225D01*
X91739336Y-84906087D01*
X91763301Y-84866104D01*
X91791069Y-84828663D01*
X91822373Y-84794124D01*
X92494124Y-84122373D01*
X92528663Y-84091069D01*
X92566104Y-84063301D01*
X92606087Y-84039336D01*
X92648225Y-84019406D01*
X92692115Y-84003702D01*
X92737332Y-83992376D01*
X92783442Y-83985536D01*
X92830000Y-83983249D01*
X92876558Y-83985536D01*
X92876558Y-83985536D01*
G37*
M02*
