M48
;DRILL file {KiCad 4.1.0-alpha+201605071002+6776~44~ubuntu14.04.1-product} date Mon 25 Jul 2016 08:53:12 BST
;FORMAT={-:-/ absolute / inch / decimal}
FMAT,2
INCH,TZ
T1C0.012
T2C0.016
T3C0.039
%
G90
G05
M72
T1
X3.5157Y-3.9409
X3.5276Y-3.7126
X3.5433Y-3.5906
X3.5433Y-3.9606
X3.5827Y-4.0472
X3.5984Y-4.1531
X3.622Y-4.0079
X3.6244Y-4.1531
X3.6284Y-3.4779
X3.6496Y-3.4567
X3.6496Y-4.1531
X3.6811Y-3.563
X3.6969Y-3.4646
X3.7047Y-3.9567
X3.7441Y-3.4331
X3.7543Y-4.1531
X3.7559Y-3.4646
X3.7638Y-3.9961
X3.7677Y-3.5
X3.7795Y-4.1535
X3.7846Y-3.9335
X3.7857Y-3.6007
X3.7874Y-4.1102
X3.8051Y-4.1531
X3.8069Y-3.6218
X3.8504Y-3.9882
X3.8567Y-4.1394
X3.8567Y-4.161
X3.878Y-3.7362
X3.8858Y-3.6299
X3.8894Y-4.1173
X3.9016Y-3.5236
X3.9016Y-3.6614
X3.9016Y-3.7126
X3.902Y-4.148
X3.9377Y-3.9331
X3.9724Y-4.0783
X3.9724Y-4.1083
X3.9744Y-4.3248
X3.9961Y-4.3504
X4.Y-3.6535
X4.0118Y-3.5906
X4.0276Y-4.3386
X4.0315Y-3.8071
X4.0543Y-4.045
X4.0886Y-4.0138
X4.1535Y-3.4331
X4.1732Y-3.4567
X4.1752Y-3.9587
X4.1811Y-3.4882
X4.1811Y-3.5472
X4.219Y-3.3883
X4.2323Y-3.998
X4.2402Y-3.4094
X4.2402Y-3.4567
X4.2402Y-3.4882
X4.2516Y-4.1539
X4.2528Y-3.9244
X4.2638Y-4.1102
X4.2768Y-4.1539
X4.3024Y-4.1539
X4.3308Y-3.5773
X4.3346Y-4.0098
X4.3543Y-3.9055
X4.3571Y-4.2118
X4.3701Y-3.937
X4.374Y-3.4094
X4.3819Y-4.2425
X4.3976Y-3.3898
X4.4213Y-3.4567
X4.437Y-3.5157
X4.4527Y-3.4551
T2
X3.2213Y-3.7122
X3.2213Y-3.7622
X3.2213Y-3.8118
X3.2213Y-3.8618
X3.2213Y-3.9122
X3.2213Y-3.9618
X3.2213Y-4.0122
X3.2213Y-4.0622
X3.2213Y-4.1118
X3.2929Y-4.1976
X3.3118Y-4.263
X3.4134Y-3.6732
X3.4272Y-3.6378
X3.4291Y-4.3646
X3.4508Y-3.6693
X3.4717Y-3.7618
X3.4717Y-3.8122
X3.4717Y-3.8622
X3.4717Y-3.9122
X3.4717Y-3.9618
X3.4717Y-4.0118
X3.4717Y-4.0622
X3.4717Y-4.1122
X3.4717Y-4.1622
X3.5984Y-3.8858
X3.6181Y-4.3543
X3.6339Y-4.3386
X3.6362Y-3.7402
X3.6705Y-3.7059
X3.6705Y-3.7744
X3.685Y-4.1929
X3.685Y-4.2165
X3.685Y-4.2362
X3.7047Y-3.6717
X3.7047Y-3.7402
X3.7047Y-3.8086
X3.711Y-4.5709
X3.739Y-3.7059
X3.739Y-3.7744
X3.7717Y-4.6732
X3.7732Y-3.7402
X3.7953Y-3.4055
X3.8031Y-3.5118
X3.8307Y-4.2165
X3.8307Y-4.3425
X3.8307Y-4.3661
X3.8308Y-4.193
X3.837Y-3.2016
X3.837Y-3.452
X3.887Y-3.2016
X3.887Y-3.452
X3.8976Y-4.315
X3.8976Y-4.3504
X3.937Y-3.2016
X3.937Y-3.452
X3.987Y-3.2016
X3.987Y-3.4524
X3.9902Y-4.1575
X4.Y-3.9055
X4.Y-3.9606
X4.Y-4.0177
X4.0079Y-4.1437
X4.037Y-3.2016
X4.037Y-3.4524
X4.0945Y-4.1535
X4.1047Y-3.7402
X4.1193Y-4.1539
X4.1256Y-4.6677
X4.139Y-3.7059
X4.139Y-3.7744
X4.1449Y-4.1539
X4.1496Y-3.563
X4.1732Y-3.6717
X4.1732Y-3.7402
X4.1732Y-3.8086
X4.1772Y-4.2283
X4.1772Y-4.252
X4.1772Y-4.2756
X4.1772Y-4.3425
X4.1772Y-4.3661
X4.1811Y-4.5866
X4.2075Y-3.7059
X4.2075Y-3.7744
X4.2417Y-3.7402
X4.4024Y-3.7618
X4.4024Y-3.8122
X4.4024Y-3.8618
X4.4024Y-3.9118
X4.4024Y-3.9622
X4.4024Y-4.0118
X4.4024Y-4.0622
X4.4024Y-4.1118
X4.4606Y-4.3898
X4.474Y-4.1992
X4.4843Y-3.6732
X4.6528Y-3.7122
X4.6528Y-3.7622
X4.6528Y-3.8122
X4.6528Y-3.8618
X4.6528Y-3.9118
X4.6528Y-3.9618
X4.6528Y-4.0118
X4.6528Y-4.0622
X4.6528Y-4.1118
X4.6531Y-4.1622
T3
X3.6547Y-3.3516
T0
M30
