G04 #@! TF.FileFunction,Soldermask,Bot*
%FSLAX46Y46*%
G04 Gerber Fmt 4.6, Leading zero omitted, Abs format (unit mm)*
G04 Created by KiCad (PCBNEW 4.1.0-alpha+201605071002+6776~44~ubuntu14.04.1-product) date Mon 25 Jul 2016 08:53:11 BST*
%MOMM*%
%LPD*%
G01*
G04 APERTURE LIST*
%ADD10C,0.100000*%
%ADD11R,2.220000X0.740000*%
%ADD12C,1.200000*%
%ADD13R,0.740000X2.220000*%
G04 APERTURE END LIST*
D10*
D11*
X113635000Y-94285000D03*
X116365000Y-94285000D03*
X113635000Y-95555000D03*
X116365000Y-95555000D03*
X113635000Y-96825000D03*
X116365000Y-96825000D03*
X113635000Y-98095000D03*
X116365000Y-98095000D03*
X113635000Y-99365000D03*
X116365000Y-99365000D03*
X113635000Y-100635000D03*
X116365000Y-100635000D03*
X113635000Y-101905000D03*
X116365000Y-101905000D03*
X113635000Y-103175000D03*
X116365000Y-103175000D03*
X113635000Y-104445000D03*
X116365000Y-104445000D03*
X113635000Y-105715000D03*
X116365000Y-105715000D03*
D12*
X115000000Y-107305000D03*
X115000000Y-92695000D03*
D11*
X83635000Y-94285000D03*
X86365000Y-94285000D03*
X83635000Y-95555000D03*
X86365000Y-95555000D03*
X83635000Y-96825000D03*
X86365000Y-96825000D03*
X83635000Y-98095000D03*
X86365000Y-98095000D03*
X83635000Y-99365000D03*
X86365000Y-99365000D03*
X83635000Y-100635000D03*
X86365000Y-100635000D03*
X83635000Y-101905000D03*
X86365000Y-101905000D03*
X83635000Y-103175000D03*
X86365000Y-103175000D03*
X83635000Y-104445000D03*
X86365000Y-104445000D03*
X83635000Y-105715000D03*
X86365000Y-105715000D03*
D12*
X85000000Y-107305000D03*
X85000000Y-92695000D03*
D13*
X97460000Y-85865000D03*
X97460000Y-83135000D03*
X98730000Y-85865000D03*
X98730000Y-83135000D03*
X100000000Y-85865000D03*
X100000000Y-83135000D03*
X101270000Y-85865000D03*
X101270000Y-83135000D03*
X102540000Y-85865000D03*
X102540000Y-83135000D03*
D12*
X104130000Y-84500000D03*
X95870000Y-84500000D03*
D10*
G36*
X92876558Y-83985536D02*
X92922668Y-83992376D01*
X92967885Y-84003702D01*
X93011775Y-84019406D01*
X93053913Y-84039336D01*
X93093896Y-84063301D01*
X93131337Y-84091069D01*
X93165876Y-84122373D01*
X93837627Y-84794124D01*
X93868931Y-84828663D01*
X93896699Y-84866104D01*
X93920664Y-84906087D01*
X93940594Y-84948225D01*
X93956298Y-84992115D01*
X93967624Y-85037332D01*
X93974464Y-85083442D01*
X93976751Y-85130000D01*
X93974464Y-85176558D01*
X93967624Y-85222668D01*
X93956298Y-85267885D01*
X93940594Y-85311775D01*
X93920664Y-85353913D01*
X93896699Y-85393896D01*
X93868931Y-85431337D01*
X93837627Y-85465876D01*
X93165876Y-86137627D01*
X93131337Y-86168931D01*
X93093896Y-86196699D01*
X93053913Y-86220664D01*
X93011775Y-86240594D01*
X92967885Y-86256298D01*
X92922668Y-86267624D01*
X92876558Y-86274464D01*
X92830000Y-86276751D01*
X92783442Y-86274464D01*
X92737332Y-86267624D01*
X92692115Y-86256298D01*
X92648225Y-86240594D01*
X92606087Y-86220664D01*
X92566104Y-86196699D01*
X92528663Y-86168931D01*
X92494124Y-86137627D01*
X91822373Y-85465876D01*
X91791069Y-85431337D01*
X91763301Y-85393896D01*
X91739336Y-85353913D01*
X91719406Y-85311775D01*
X91703702Y-85267885D01*
X91692376Y-85222668D01*
X91685536Y-85176558D01*
X91683249Y-85130000D01*
X91685536Y-85083442D01*
X91692376Y-85037332D01*
X91703702Y-84992115D01*
X91719406Y-84948225D01*
X91739336Y-84906087D01*
X91763301Y-84866104D01*
X91791069Y-84828663D01*
X91822373Y-84794124D01*
X92494124Y-84122373D01*
X92528663Y-84091069D01*
X92566104Y-84063301D01*
X92606087Y-84039336D01*
X92648225Y-84019406D01*
X92692115Y-84003702D01*
X92737332Y-83992376D01*
X92783442Y-83985536D01*
X92830000Y-83983249D01*
X92876558Y-83985536D01*
X92876558Y-83985536D01*
G37*
M02*
