G04 #@! TF.FileFunction,Soldermask,Bot*
%FSLAX46Y46*%
G04 Gerber Fmt 4.6, Leading zero omitted, Abs format (unit mm)*
G04 Created by KiCad (PCBNEW 4.0.2+e4-6225~38~ubuntu14.04.1-stable) date Tue 28 Jun 2016 16:45:29 BST*
%MOMM*%
G01*
G04 APERTURE LIST*
%ADD10C,0.100000*%
%ADD11C,1.200000*%
%ADD12C,1.600000*%
%ADD13C,0.787000*%
%ADD14C,1.000000*%
%ADD15R,0.750000X0.900000*%
G04 APERTURE END LIST*
D10*
D11*
X87500000Y-88200000D03*
D12*
X89000000Y-89900000D03*
X91000000Y-89900000D03*
X93000000Y-89900000D03*
X95000000Y-89900000D03*
D11*
X91900000Y-113100000D03*
D12*
X90400000Y-111400000D03*
X88400000Y-111400000D03*
D11*
X106100000Y-117300000D03*
D12*
X104600000Y-115600000D03*
X102600000Y-115600000D03*
D11*
X106700000Y-88200000D03*
D12*
X108200000Y-89900000D03*
X110200000Y-89900000D03*
D11*
X98900000Y-117300000D03*
D12*
X97400000Y-115600000D03*
X95400000Y-115600000D03*
D11*
X113100000Y-113100000D03*
D12*
X111600000Y-111400000D03*
X109600000Y-111400000D03*
D11*
X99100000Y-88200000D03*
D12*
X100600000Y-89900000D03*
X102600000Y-89900000D03*
D11*
X98900000Y-110900000D03*
D12*
X97400000Y-109200000D03*
X95400000Y-109200000D03*
D11*
X106100000Y-110900000D03*
D12*
X104600000Y-109200000D03*
X102600000Y-109200000D03*
D13*
X108060000Y-101570000D03*
X109330000Y-101570000D03*
X108060000Y-100300000D03*
X109330000Y-100300000D03*
X108060000Y-99030000D03*
X109330000Y-99030000D03*
D14*
X108695000Y-102840000D03*
X107679000Y-97760000D03*
X109711000Y-97760000D03*
D15*
X95600000Y-96600000D03*
X94200000Y-96600000D03*
D10*
G36*
X98611612Y-97951992D02*
X99248008Y-98588388D01*
X98717678Y-99118718D01*
X98081282Y-98482322D01*
X98611612Y-97951992D01*
X98611612Y-97951992D01*
G37*
G36*
X97621662Y-98941942D02*
X98258058Y-99578338D01*
X97727728Y-100108668D01*
X97091332Y-99472272D01*
X97621662Y-98941942D01*
X97621662Y-98941942D01*
G37*
D15*
X91100000Y-93900000D03*
X92500000Y-93900000D03*
M02*
