G04 #@! TF.FileFunction,Soldermask,Top*
%FSLAX46Y46*%
G04 Gerber Fmt 4.6, Leading zero omitted, Abs format (unit mm)*
G04 Created by KiCad (PCBNEW 4.1.0-alpha+201605071002+6776~44~ubuntu14.04.1-product) date Mon 30 May 2016 00:25:35 BST*
%MOMM*%
%LPD*%
G01*
G04 APERTURE LIST*
%ADD10C,0.100000*%
%ADD11R,2.920000X0.740000*%
%ADD12C,1.200000*%
%ADD13R,0.620000X0.620000*%
%ADD14R,1.900000X1.900000*%
%ADD15C,1.900000*%
G04 APERTURE END LIST*
D10*
D11*
X83285000Y-94285000D03*
X86715000Y-94285000D03*
X83285000Y-95555000D03*
X86715000Y-95555000D03*
X83285000Y-96825000D03*
X86715000Y-96825000D03*
X83285000Y-98095000D03*
X86715000Y-98095000D03*
X83285000Y-99365000D03*
X86715000Y-99365000D03*
X83285000Y-100635000D03*
X86715000Y-100635000D03*
X83285000Y-101905000D03*
X86715000Y-101905000D03*
X83285000Y-103175000D03*
X86715000Y-103175000D03*
X83285000Y-104445000D03*
X86715000Y-104445000D03*
X83285000Y-105715000D03*
X86715000Y-105715000D03*
X113285000Y-94285000D03*
X116715000Y-94285000D03*
X113285000Y-95555000D03*
X116715000Y-95555000D03*
X113285000Y-96825000D03*
X116715000Y-96825000D03*
X113285000Y-98095000D03*
X116715000Y-98095000D03*
X113285000Y-99365000D03*
X116715000Y-99365000D03*
X113285000Y-100635000D03*
X116715000Y-100635000D03*
X113285000Y-101905000D03*
X116715000Y-101905000D03*
X113285000Y-103175000D03*
X116715000Y-103175000D03*
X113285000Y-104445000D03*
X116715000Y-104445000D03*
X113285000Y-105715000D03*
X116715000Y-105715000D03*
D12*
X85000000Y-107305000D03*
X85000000Y-92695000D03*
X115000000Y-107305000D03*
X115000000Y-92695000D03*
D13*
X89000000Y-104950000D03*
X89000000Y-104050000D03*
D14*
X79000000Y-88570000D03*
D15*
X79000000Y-91110000D03*
X79000000Y-93650000D03*
X79000000Y-96190000D03*
X79000000Y-98730000D03*
X79000000Y-101270000D03*
X79000000Y-103810000D03*
X79000000Y-106350000D03*
X79000000Y-108890000D03*
X79000000Y-111430000D03*
D14*
X91000000Y-88570000D03*
D15*
X91000000Y-91110000D03*
X91000000Y-93650000D03*
X91000000Y-96190000D03*
X91000000Y-98730000D03*
X91000000Y-101270000D03*
X91000000Y-103810000D03*
X91000000Y-106350000D03*
X91000000Y-108890000D03*
X91000000Y-111430000D03*
D14*
X109000000Y-88570000D03*
D15*
X109000000Y-91110000D03*
X109000000Y-93650000D03*
X109000000Y-96190000D03*
X109000000Y-98730000D03*
X109000000Y-101270000D03*
X109000000Y-103810000D03*
X109000000Y-106350000D03*
X109000000Y-108890000D03*
X109000000Y-111430000D03*
D14*
X121000000Y-88570000D03*
D15*
X121000000Y-91110000D03*
X121000000Y-93650000D03*
X121000000Y-96190000D03*
X121000000Y-98730000D03*
X121000000Y-101270000D03*
X121000000Y-103810000D03*
X121000000Y-106350000D03*
X121000000Y-108890000D03*
X121000000Y-111430000D03*
M02*
