G04 #@! TF.GenerationSoftware,KiCad,Pcbnew,no-vcs-found-d3b382c~59~ubuntu16.04.1*
G04 #@! TF.CreationDate,2017-07-25T02:02:09+01:00*
G04 #@! TF.ProjectId,m3radio,6D33726164696F2E6B696361645F7063,Rev 1*
G04 #@! TF.SameCoordinates,Original
G04 #@! TF.FileFunction,Copper,L1,Top,Signal*
G04 #@! TF.FilePolarity,Positive*
%FSLAX46Y46*%
G04 Gerber Fmt 4.6, Leading zero omitted, Abs format (unit mm)*
G04 Created by KiCad (PCBNEW no-vcs-found-d3b382c~59~ubuntu16.04.1) date Tue Jul 25 02:02:09 2017*
%MOMM*%
%LPD*%
G01*
G04 APERTURE LIST*
%ADD10R,0.300000X1.500000*%
%ADD11R,1.500000X0.300000*%
%ADD12R,0.400000X0.950000*%
%ADD13R,0.620000X0.620000*%
%ADD14R,1.000000X1.050000*%
%ADD15R,1.050000X2.200000*%
%ADD16R,2.920000X0.740000*%
%ADD17C,0.950000*%
%ADD18C,0.100000*%
%ADD19R,0.650000X0.350000*%
%ADD20R,0.800000X0.800000*%
%ADD21R,1.550000X2.400000*%
%ADD22R,0.750000X0.300000*%
%ADD23R,0.300000X0.750000*%
%ADD24R,1.100000X1.100000*%
%ADD25R,2.600000X2.600000*%
%ADD26R,0.750000X0.900000*%
%ADD27R,0.470000X0.400000*%
%ADD28R,0.500000X0.500000*%
%ADD29R,0.950000X1.700000*%
%ADD30R,0.520000X0.520000*%
%ADD31R,0.950000X1.000000*%
%ADD32R,0.950000X0.400000*%
%ADD33R,1.100000X0.600000*%
%ADD34R,1.450000X0.300000*%
%ADD35R,0.600000X0.200000*%
%ADD36R,1.800000X0.700000*%
%ADD37R,0.800000X1.000000*%
%ADD38C,0.800000*%
%ADD39C,0.280000*%
%ADD40C,0.350000*%
%ADD41C,0.200000*%
%ADD42C,0.500000*%
%ADD43C,0.700000*%
%ADD44C,0.740000*%
G04 APERTURE END LIST*
D10*
X97225000Y-106200000D03*
X97725000Y-106200000D03*
X98225000Y-106200000D03*
X98725000Y-106200000D03*
X99225000Y-106200000D03*
X99725000Y-106200000D03*
X100225000Y-106200000D03*
X100725000Y-106200000D03*
X101225000Y-106200000D03*
X101725000Y-106200000D03*
X102225000Y-106200000D03*
X102725000Y-106200000D03*
X103225000Y-106200000D03*
X103725000Y-106200000D03*
X104225000Y-106200000D03*
X104725000Y-106200000D03*
D11*
X106675000Y-104250000D03*
X106675000Y-103750000D03*
X106675000Y-103250000D03*
X106675000Y-102750000D03*
X106675000Y-102250000D03*
X106675000Y-101750000D03*
X106675000Y-101250000D03*
X106675000Y-100750000D03*
X106675000Y-100250000D03*
X106675000Y-99750000D03*
X106675000Y-99250000D03*
X106675000Y-98750000D03*
X106675000Y-98250000D03*
X106675000Y-97750000D03*
X106675000Y-97250000D03*
X106675000Y-96750000D03*
D10*
X104725000Y-94800000D03*
X104225000Y-94800000D03*
X103725000Y-94800000D03*
X103225000Y-94800000D03*
X102725000Y-94800000D03*
X102225000Y-94800000D03*
X101725000Y-94800000D03*
X101225000Y-94800000D03*
X100725000Y-94800000D03*
X100225000Y-94800000D03*
X99725000Y-94800000D03*
X99225000Y-94800000D03*
X98725000Y-94800000D03*
X98225000Y-94800000D03*
X97725000Y-94800000D03*
X97225000Y-94800000D03*
D11*
X95275000Y-96750000D03*
X95275000Y-97250000D03*
X95275000Y-97750000D03*
X95275000Y-98250000D03*
X95275000Y-98750000D03*
X95275000Y-99250000D03*
X95275000Y-99750000D03*
X95275000Y-100250000D03*
X95275000Y-100750000D03*
X95275000Y-101250000D03*
X95275000Y-101750000D03*
X95275000Y-102250000D03*
X95275000Y-102750000D03*
X95275000Y-103250000D03*
X95275000Y-103750000D03*
X95275000Y-104250000D03*
D12*
X104150000Y-85550000D03*
X103500000Y-85550000D03*
X102850000Y-85550000D03*
X102850000Y-87750000D03*
X103500000Y-87750000D03*
X104150000Y-87750000D03*
D13*
X89750000Y-90800000D03*
X88850000Y-90800000D03*
X113400000Y-86575000D03*
X113400000Y-87475000D03*
X92200000Y-113250000D03*
X91300000Y-113250000D03*
D14*
X87050000Y-109575000D03*
D15*
X88525000Y-111100000D03*
X85575000Y-111100000D03*
D13*
X108300000Y-96600000D03*
X108300000Y-95700000D03*
X106870000Y-111660000D03*
X106870000Y-112560000D03*
D16*
X83285000Y-94285000D03*
X86715000Y-94285000D03*
X83285000Y-95555000D03*
X86715000Y-95555000D03*
X83285000Y-96825000D03*
X86715000Y-96825000D03*
X83285000Y-98095000D03*
X86715000Y-98095000D03*
X83285000Y-99365000D03*
X86715000Y-99365000D03*
X83285000Y-100635000D03*
X86715000Y-100635000D03*
X83285000Y-101905000D03*
X86715000Y-101905000D03*
X83285000Y-103175000D03*
X86715000Y-103175000D03*
X83285000Y-104445000D03*
X86715000Y-104445000D03*
X83285000Y-105715000D03*
X86715000Y-105715000D03*
D13*
X108300000Y-106450000D03*
X108300000Y-105550000D03*
X109200000Y-94450000D03*
X108300000Y-94450000D03*
X93600000Y-106650000D03*
X93600000Y-105750000D03*
X100250000Y-107800000D03*
X101150000Y-107800000D03*
X108300000Y-104450000D03*
X108300000Y-103550000D03*
X102350000Y-107800000D03*
X103250000Y-107800000D03*
X93700000Y-95150000D03*
X93700000Y-94250000D03*
X97400000Y-93150000D03*
X96500000Y-93150000D03*
X93600000Y-103550000D03*
X93600000Y-104450000D03*
D17*
X113235770Y-112812836D03*
D18*
G36*
X113313468Y-113498101D02*
X112547424Y-112855313D01*
X113158072Y-112127571D01*
X113924116Y-112770359D01*
X113313468Y-113498101D01*
X113313468Y-113498101D01*
G37*
D17*
X114264230Y-111587164D03*
D18*
G36*
X114341928Y-112272429D02*
X113575884Y-111629641D01*
X114186532Y-110901899D01*
X114952576Y-111544687D01*
X114341928Y-112272429D01*
X114341928Y-112272429D01*
G37*
D17*
X111155322Y-114541139D03*
D18*
G36*
X111257631Y-113859114D02*
X111831207Y-114678266D01*
X111053013Y-115223164D01*
X110479437Y-114404012D01*
X111257631Y-113859114D01*
X111257631Y-113859114D01*
G37*
D17*
X109844678Y-115458861D03*
D18*
G36*
X109946987Y-114776836D02*
X110520563Y-115595988D01*
X109742369Y-116140886D01*
X109168793Y-115321734D01*
X109946987Y-114776836D01*
X109946987Y-114776836D01*
G37*
D19*
X92375000Y-104925000D03*
X92375000Y-104275000D03*
X92375000Y-103625000D03*
X92375000Y-102975000D03*
X89275000Y-102975000D03*
X89275000Y-103625000D03*
X89275000Y-104275000D03*
X89275000Y-104925000D03*
D20*
X90825000Y-104550000D03*
X90825000Y-103350000D03*
X90825000Y-104550000D03*
X90825000Y-103350000D03*
D21*
X90825000Y-103950000D03*
D22*
X94750000Y-88850000D03*
X94750000Y-89350000D03*
X94750000Y-89850000D03*
X94750000Y-90350000D03*
X94750000Y-90850000D03*
D23*
X95750000Y-91850000D03*
X96250000Y-91850000D03*
X96750000Y-91850000D03*
X97250000Y-91850000D03*
X97750000Y-91850000D03*
D22*
X98750000Y-90850000D03*
X98750000Y-90350000D03*
X98750000Y-89850000D03*
X98750000Y-89350000D03*
X98750000Y-88850000D03*
D23*
X97750000Y-87850000D03*
X97250000Y-87850000D03*
X96750000Y-87850000D03*
X96250000Y-87850000D03*
X95750000Y-87850000D03*
D24*
X96100000Y-89200000D03*
X96100000Y-90500000D03*
X97400000Y-89200000D03*
X97400000Y-90500000D03*
D25*
X96750000Y-89850000D03*
D16*
X113285000Y-94285000D03*
X116715000Y-94285000D03*
X113285000Y-95555000D03*
X116715000Y-95555000D03*
X113285000Y-96825000D03*
X116715000Y-96825000D03*
X113285000Y-98095000D03*
X116715000Y-98095000D03*
X113285000Y-99365000D03*
X116715000Y-99365000D03*
X113285000Y-100635000D03*
X116715000Y-100635000D03*
X113285000Y-101905000D03*
X116715000Y-101905000D03*
X113285000Y-103175000D03*
X116715000Y-103175000D03*
X113285000Y-104445000D03*
X116715000Y-104445000D03*
X113285000Y-105715000D03*
X116715000Y-105715000D03*
D13*
X110900000Y-109250000D03*
X110900000Y-110150000D03*
X109500000Y-109250000D03*
X109500000Y-110150000D03*
X94400000Y-93150000D03*
X95300000Y-93150000D03*
X91300000Y-94250000D03*
X91300000Y-95150000D03*
X91000000Y-88650000D03*
X91000000Y-89550000D03*
X93500000Y-92050000D03*
X92600000Y-92050000D03*
X92750000Y-90800000D03*
X91850000Y-90800000D03*
X89800000Y-87450000D03*
X88900000Y-87450000D03*
D26*
X91900000Y-93100000D03*
X93300000Y-93100000D03*
X91450000Y-92000000D03*
X90050000Y-92000000D03*
D13*
X93500000Y-113950000D03*
X93500000Y-114850000D03*
X89400000Y-112900000D03*
X89400000Y-113800000D03*
X113275000Y-88450000D03*
X114175000Y-88450000D03*
X108300000Y-89700000D03*
X109200000Y-89700000D03*
X90250000Y-109400000D03*
X90250000Y-110300000D03*
X91950000Y-85800000D03*
X91950000Y-84900000D03*
D27*
X90335000Y-114600000D03*
X90335000Y-115250000D03*
X90335000Y-115900000D03*
X92165000Y-115900000D03*
X92165000Y-115250000D03*
X92165000Y-114600000D03*
D28*
X91250000Y-114900000D03*
X91250000Y-115600000D03*
D29*
X91250000Y-115250000D03*
D30*
X91400000Y-110000000D03*
X91400000Y-109200000D03*
X93100000Y-110000000D03*
X92300000Y-110000000D03*
X93100000Y-111700000D03*
X93100000Y-110900000D03*
D31*
X90200000Y-111800000D03*
X91800000Y-111800000D03*
D13*
X88400000Y-112900000D03*
X88400000Y-113800000D03*
D14*
X95200000Y-85900000D03*
D15*
X93725000Y-84375000D03*
X96675000Y-84375000D03*
D13*
X115850000Y-89800000D03*
X115850000Y-90700000D03*
D32*
X114450000Y-90650000D03*
X114450000Y-90000000D03*
X114450000Y-89350000D03*
X112250000Y-89350000D03*
X112250000Y-90650000D03*
D13*
X104650000Y-90250000D03*
X104650000Y-91150000D03*
X104050000Y-89250000D03*
X103150000Y-89250000D03*
X106850000Y-89700000D03*
X105950000Y-89700000D03*
D33*
X108550000Y-88250000D03*
X108550000Y-87300000D03*
X108550000Y-86350000D03*
X105950000Y-86350000D03*
X105950000Y-88250000D03*
D34*
X106100000Y-91050000D03*
X106100000Y-91550000D03*
X106100000Y-92050000D03*
X106100000Y-92550000D03*
X106100000Y-93050000D03*
X110500000Y-93050000D03*
X110500000Y-92550000D03*
X110500000Y-92050000D03*
X110500000Y-91550000D03*
X110500000Y-91050000D03*
D35*
X103150000Y-92000000D03*
X103150000Y-91600000D03*
X103150000Y-91200000D03*
X103150000Y-90800000D03*
X103150000Y-90400000D03*
X101950000Y-90400000D03*
X101950000Y-90800000D03*
X101950000Y-91200000D03*
X101950000Y-91600000D03*
X101950000Y-92000000D03*
D36*
X104900000Y-118075000D03*
X104900000Y-116975000D03*
X104900000Y-115875000D03*
X104900000Y-114775000D03*
X104900000Y-113675000D03*
X104900000Y-112575000D03*
X104900000Y-111475000D03*
X104900000Y-110375000D03*
X104900000Y-109275000D03*
X95400000Y-109275000D03*
X95400000Y-110375000D03*
X95400000Y-111475000D03*
X95400000Y-112575000D03*
X95400000Y-113675000D03*
X95400000Y-114775000D03*
X95400000Y-115875000D03*
X95400000Y-116975000D03*
X95400000Y-118075000D03*
D13*
X107700000Y-84850000D03*
X106800000Y-84850000D03*
D37*
X112150000Y-86300000D03*
X112150000Y-87700000D03*
X110050000Y-86300000D03*
X110050000Y-87700000D03*
D13*
X92500000Y-94250000D03*
X92500000Y-95150000D03*
X93400000Y-89550000D03*
X93400000Y-88650000D03*
X92200000Y-89550000D03*
X92200000Y-88650000D03*
X89800000Y-88650000D03*
X89800000Y-89550000D03*
X100625000Y-87125000D03*
X100625000Y-86225000D03*
X99525000Y-85800000D03*
X99525000Y-86700000D03*
X90100000Y-94250000D03*
X90100000Y-95150000D03*
D38*
X93450000Y-116050000D03*
X114300000Y-87500000D03*
X89100000Y-93650000D03*
X93000000Y-87650000D03*
X91600000Y-87650000D03*
X94250000Y-87000000D03*
X90850000Y-86650000D03*
X86150000Y-89200000D03*
X88800000Y-89600000D03*
X88800000Y-88600000D03*
X87800000Y-87450000D03*
X88900000Y-86350000D03*
X89500000Y-85450000D03*
X90750000Y-84900000D03*
X90800000Y-93200000D03*
X88800000Y-92100000D03*
X87600000Y-90800000D03*
X91000000Y-90300000D03*
X94800000Y-94900000D03*
X95900000Y-93800000D03*
X101750000Y-85525000D03*
X102450000Y-89350000D03*
X92425000Y-105900000D03*
X93400000Y-112691998D03*
X118200000Y-94300000D03*
X118200000Y-105600000D03*
X112400000Y-114000000D03*
X106400000Y-117900000D03*
X106000000Y-83000000D03*
X103000000Y-83000000D03*
X100500000Y-82000000D03*
X100500000Y-84000000D03*
X98500000Y-85964989D03*
X98500000Y-84000000D03*
X98500000Y-82000000D03*
X95250000Y-82350000D03*
X82675000Y-93475000D03*
X112000000Y-111750000D03*
X94800000Y-106400000D03*
X107000000Y-105400000D03*
X112600000Y-108200000D03*
X89400000Y-107000000D03*
X113000000Y-92200000D03*
X109400000Y-95600000D03*
X107400000Y-91200000D03*
X107600000Y-93400000D03*
X109200000Y-93400000D03*
X109000000Y-85200000D03*
X113491821Y-89362202D03*
X110146231Y-83853769D03*
X111800000Y-85200000D03*
X96750000Y-82350000D03*
X93750000Y-82350000D03*
X92000000Y-83500000D03*
X99450000Y-107800000D03*
X103056697Y-92769982D03*
X109241360Y-91869795D03*
X103550000Y-86600000D03*
X102000000Y-118000000D03*
X100000000Y-118000000D03*
X98000000Y-118000000D03*
X98000000Y-116000000D03*
X100000000Y-116000000D03*
X102000000Y-116000000D03*
X102000000Y-114000000D03*
X100000000Y-114000000D03*
X98000000Y-114000000D03*
X98000000Y-112000000D03*
X100000000Y-112000000D03*
X102000000Y-112000000D03*
X102000000Y-110000000D03*
X100000000Y-110000000D03*
X98000000Y-110000000D03*
X83600000Y-92150000D03*
X86700000Y-92600000D03*
X85972381Y-109622381D03*
X91047937Y-110812383D03*
X89474560Y-110799119D03*
X100500000Y-104300000D03*
X117000000Y-92000000D03*
X97400000Y-102900000D03*
X87000000Y-107000000D03*
X83300000Y-107600000D03*
X115900000Y-109200000D03*
X106700000Y-113600000D03*
X96100000Y-89200000D03*
X96100000Y-90500000D03*
X97400000Y-89200000D03*
X97400000Y-90500000D03*
X111825000Y-94275000D03*
X111400000Y-105700000D03*
X88175000Y-94300000D03*
X81800000Y-105725000D03*
X88200000Y-105725000D03*
X101500000Y-102500000D03*
X105487205Y-94136688D03*
X108649759Y-108600000D03*
X106681770Y-110218230D03*
X106185010Y-95900000D03*
X104714990Y-96350000D03*
X104720019Y-103250000D03*
X96360000Y-94800000D03*
X96650000Y-96610011D03*
X103977680Y-92499068D03*
X103990000Y-90034134D03*
X81775000Y-96825000D03*
X93600000Y-101529989D03*
X93600000Y-102850000D03*
X89310000Y-101890000D03*
X109387024Y-112787024D03*
X109800000Y-114400000D03*
X100092918Y-88097736D03*
X98665653Y-88234347D03*
X89072776Y-95552224D03*
X88816399Y-97044061D03*
X90075000Y-97975000D03*
X88300000Y-103220000D03*
X88175000Y-104450000D03*
X81800000Y-95550000D03*
X81825000Y-98100000D03*
X81825000Y-99375000D03*
X88200000Y-99375000D03*
X81800000Y-100650000D03*
X88175000Y-100650000D03*
X81825000Y-101875000D03*
X81180000Y-103215008D03*
X81800000Y-104450000D03*
X111775000Y-95550000D03*
X118200000Y-95550000D03*
X118200000Y-96800000D03*
X111800000Y-96800000D03*
X111825000Y-98100000D03*
X118200000Y-98100000D03*
X111825000Y-99350000D03*
X118200000Y-99400000D03*
X111800000Y-100625000D03*
X118175000Y-100650000D03*
X111825000Y-101900000D03*
X118175000Y-101900000D03*
X111800000Y-103175000D03*
X118175000Y-103175000D03*
X111825000Y-104450000D03*
X118175000Y-104450000D03*
X107249748Y-108350252D03*
X104350000Y-108100000D03*
X107300000Y-107250000D03*
X105209009Y-107399489D03*
X87450000Y-112950000D03*
X83483299Y-109217635D03*
X92000000Y-116850000D03*
X83950000Y-110250000D03*
X110550000Y-90300000D03*
X110349990Y-94050000D03*
X100421453Y-98178547D03*
X102094960Y-92705570D03*
X93651851Y-117933332D03*
X107400000Y-117100000D03*
X105199235Y-98369551D03*
X104580212Y-84764825D03*
X102589997Y-86600000D03*
X100500000Y-93500000D03*
X104300000Y-99400000D03*
X105000000Y-89300000D03*
X100340014Y-96550011D03*
X99771112Y-92875239D03*
X100233109Y-91862611D03*
X100541482Y-90158518D03*
X96838961Y-86834655D03*
X98303467Y-96558536D03*
D39*
X91000000Y-89550000D02*
X91000000Y-90300000D01*
X93700000Y-95150000D02*
X94550000Y-95150000D01*
X94550000Y-95150000D02*
X94800000Y-94900000D01*
X96150000Y-93150000D02*
X95900000Y-93400000D01*
X95900000Y-93400000D02*
X95900000Y-93800000D01*
X96500000Y-93150000D02*
X96150000Y-93150000D01*
D40*
X95900000Y-93150000D02*
X95300000Y-93150000D01*
D39*
X89850000Y-95150000D02*
X89000000Y-94300000D01*
X89000000Y-94300000D02*
X88175000Y-94300000D01*
X90100000Y-95150000D02*
X89850000Y-95150000D01*
X100500000Y-84000000D02*
X100500000Y-84275000D01*
X100500000Y-84275000D02*
X101750000Y-85525000D01*
D40*
X100500000Y-84000000D02*
X98500000Y-84000000D01*
X88740685Y-94300000D02*
X88175000Y-94300000D01*
X88908354Y-94300000D02*
X88740685Y-94300000D01*
D39*
X92825000Y-95200000D02*
X92850000Y-95175000D01*
X91850000Y-95225000D02*
X91875000Y-95200000D01*
X92875000Y-95150000D02*
X92850000Y-95175000D01*
X102450000Y-89350000D02*
X102550000Y-89250000D01*
X102550000Y-89250000D02*
X103150000Y-89250000D01*
D41*
X113960001Y-86925000D02*
X113960001Y-86625001D01*
X113960001Y-86625001D02*
X113910000Y-86575000D01*
X113910000Y-86575000D02*
X113400000Y-86575000D01*
D39*
X114175000Y-87139999D02*
X113960001Y-86925000D01*
X114175000Y-88450000D02*
X114175000Y-87139999D01*
X113400000Y-86575000D02*
X113400000Y-86500000D01*
X112099999Y-85499999D02*
X111800000Y-85200000D01*
X113400000Y-86500000D02*
X112875000Y-85975000D01*
X112875000Y-85975000D02*
X112875000Y-85584998D01*
X112875000Y-85584998D02*
X112790001Y-85499999D01*
X112790001Y-85499999D02*
X112099999Y-85499999D01*
X114175000Y-88450000D02*
X114175000Y-89075000D01*
X114175000Y-89075000D02*
X114450000Y-89350000D01*
D42*
X89400000Y-107000000D02*
X91325000Y-107000000D01*
X91325000Y-107000000D02*
X92425000Y-105900000D01*
X93400000Y-112691998D02*
X93770001Y-112321997D01*
X92841998Y-113250000D02*
X93400000Y-112691998D01*
D39*
X88400000Y-112900000D02*
X89400000Y-112900000D01*
X88400000Y-112900000D02*
X88400000Y-111225000D01*
X88400000Y-111225000D02*
X88525000Y-111100000D01*
D40*
X91250000Y-115250000D02*
X91250000Y-114523002D01*
X91250000Y-114523002D02*
X92200000Y-113573002D01*
X92200000Y-113573002D02*
X92200000Y-113250000D01*
D43*
X116715000Y-94285000D02*
X118185000Y-94285000D01*
D42*
X118185000Y-94285000D02*
X118200000Y-94300000D01*
D39*
X116715000Y-105715000D02*
X118085000Y-105715000D01*
X118085000Y-105715000D02*
X118200000Y-105600000D01*
X111155322Y-114541139D02*
X111858861Y-114541139D01*
X111858861Y-114541139D02*
X112400000Y-114000000D01*
X104900000Y-118075000D02*
X106225000Y-118075000D01*
X106225000Y-118075000D02*
X106400000Y-117900000D01*
D41*
X103000000Y-83000000D02*
X106000000Y-83000000D01*
X100500000Y-84000000D02*
X100500000Y-82000000D01*
X98500000Y-82000000D02*
X98500000Y-84000000D01*
D39*
X102400000Y-104800000D02*
X102000000Y-104400000D01*
X102000000Y-104400000D02*
X101910000Y-104310000D01*
X100500000Y-104300000D02*
X101900000Y-104300000D01*
X101900000Y-104300000D02*
X102000000Y-104400000D01*
D40*
X110146231Y-83853769D02*
X109828034Y-83853769D01*
X109174265Y-83200000D02*
X108400000Y-83200000D01*
X109828034Y-83853769D02*
X109174265Y-83200000D01*
D42*
X83285000Y-94285000D02*
X83285000Y-94085000D01*
X83285000Y-94085000D02*
X82675000Y-93475000D01*
D39*
X113235770Y-112812836D02*
X113062836Y-112812836D01*
X113062836Y-112812836D02*
X112000000Y-111750000D01*
X111155322Y-114541139D02*
X111155322Y-114230322D01*
X92375000Y-104275000D02*
X93425000Y-104275000D01*
X93425000Y-104275000D02*
X93600000Y-104450000D01*
D41*
X93600000Y-106650000D02*
X94550000Y-106650000D01*
X94550000Y-106650000D02*
X94800000Y-106400000D01*
D40*
X88860000Y-94300000D02*
X88740685Y-94300000D01*
D41*
X107000000Y-105800000D02*
X107000000Y-105400000D01*
X107650000Y-106450000D02*
X107000000Y-105800000D01*
X108300000Y-106450000D02*
X107650000Y-106450000D01*
X107200000Y-105000000D02*
X107200000Y-105200000D01*
X107200000Y-105200000D02*
X107000000Y-105400000D01*
X107750000Y-104450000D02*
X107200000Y-105000000D01*
X107790000Y-104450000D02*
X107750000Y-104450000D01*
D42*
X115900000Y-109200000D02*
X113600000Y-109200000D01*
X113600000Y-109200000D02*
X112600000Y-108200000D01*
X87000000Y-107000000D02*
X89400000Y-107000000D01*
X106800000Y-83000000D02*
X108200000Y-83000000D01*
X108200000Y-83000000D02*
X108400000Y-83200000D01*
D40*
X108300000Y-95700000D02*
X109300000Y-95700000D01*
X109300000Y-95700000D02*
X109400000Y-95600000D01*
X107600000Y-93400000D02*
X107600000Y-91400000D01*
X107600000Y-91400000D02*
X107400000Y-91200000D01*
X109200000Y-94450000D02*
X109200000Y-93400000D01*
D41*
X108550000Y-86350000D02*
X108550000Y-85650000D01*
X108550000Y-85650000D02*
X109000000Y-85200000D01*
X114450000Y-89350000D02*
X113504023Y-89350000D01*
X113504023Y-89350000D02*
X113491821Y-89362202D01*
D42*
X95250000Y-82350000D02*
X96750000Y-82350000D01*
X93725000Y-84375000D02*
X93725000Y-82375000D01*
X93725000Y-82375000D02*
X93750000Y-82350000D01*
X91950000Y-84900000D02*
X91950000Y-83550000D01*
X91950000Y-83550000D02*
X92000000Y-83500000D01*
D41*
X104650000Y-91150000D02*
X105100000Y-91150000D01*
X105100000Y-91150000D02*
X105114999Y-91164999D01*
X105114999Y-91164999D02*
X105114999Y-91489999D01*
X105114999Y-91489999D02*
X105175000Y-91550000D01*
X105175000Y-91550000D02*
X106100000Y-91550000D01*
X100250000Y-107800000D02*
X99450000Y-107800000D01*
X102350000Y-107800000D02*
X102350000Y-107450000D01*
X102350000Y-107450000D02*
X102725000Y-107075000D01*
X102725000Y-107075000D02*
X102725000Y-106200000D01*
D39*
X100250000Y-107800000D02*
X100250000Y-109750000D01*
X100250000Y-109750000D02*
X100000000Y-110000000D01*
D41*
X103150000Y-92000000D02*
X103150000Y-92676679D01*
X103150000Y-92676679D02*
X103056697Y-92769982D01*
D39*
X91950000Y-84900000D02*
X93200000Y-84900000D01*
X93200000Y-84900000D02*
X93725000Y-84375000D01*
X107015002Y-91550000D02*
X107200000Y-91365002D01*
X107200000Y-91365002D02*
X107200000Y-90640000D01*
X107200000Y-90640000D02*
X106850000Y-90290000D01*
X110500000Y-92050000D02*
X109421565Y-92050000D01*
X109421565Y-92050000D02*
X109241360Y-91869795D01*
X103500000Y-85550000D02*
X103500000Y-86550000D01*
X103500000Y-86550000D02*
X103550000Y-86600000D01*
D41*
X106675000Y-103750000D02*
X107543002Y-103750000D01*
X107543002Y-103750000D02*
X107685001Y-103891999D01*
X107685001Y-103891999D02*
X107685001Y-104345001D01*
X107685001Y-104345001D02*
X107790000Y-104450000D01*
X107790000Y-104450000D02*
X108300000Y-104450000D01*
D42*
X104950000Y-118100000D02*
X102100000Y-118100000D01*
X102100000Y-118100000D02*
X102000000Y-118000000D01*
D39*
X106850000Y-89700000D02*
X106850000Y-90290000D01*
X108550000Y-86350000D02*
X110000000Y-86350000D01*
X110000000Y-86350000D02*
X110050000Y-86300000D01*
X114300000Y-89200000D02*
X114450000Y-89350000D01*
X114450000Y-89350000D02*
X115000000Y-89350000D01*
X115000000Y-89350000D02*
X115450000Y-89800000D01*
X115450000Y-89800000D02*
X115850000Y-89800000D01*
D40*
X108300000Y-95700000D02*
X108960000Y-95700000D01*
X108960000Y-95700000D02*
X109200000Y-95460000D01*
X109200000Y-95460000D02*
X109200000Y-94450000D01*
D39*
X107015002Y-91550000D02*
X106100000Y-91550000D01*
D41*
X98010000Y-109990000D02*
X98000000Y-110000000D01*
D42*
X100000000Y-118000000D02*
X102000000Y-118000000D01*
X98000000Y-116000000D02*
X98000000Y-118000000D01*
X102000000Y-116000000D02*
X100000000Y-116000000D01*
X100000000Y-114000000D02*
X102000000Y-114000000D01*
X98000000Y-112000000D02*
X98000000Y-114000000D01*
X102000000Y-112000000D02*
X100000000Y-112000000D01*
X100000000Y-110000000D02*
X102000000Y-110000000D01*
X95500000Y-109300000D02*
X97300000Y-109300000D01*
X97300000Y-109300000D02*
X98000000Y-110000000D01*
X92200000Y-113250000D02*
X92841998Y-113250000D01*
X93770001Y-111829999D02*
X94100000Y-111500000D01*
X93770001Y-112321997D02*
X93770001Y-111829999D01*
X94100000Y-111500000D02*
X95500000Y-111500000D01*
X95500000Y-111500000D02*
X94320000Y-111500000D01*
X83200001Y-92600001D02*
X83285000Y-92685000D01*
X83285000Y-92685000D02*
X83285000Y-94285000D01*
X83600000Y-92150000D02*
X83200001Y-92549999D01*
X83200001Y-92549999D02*
X83200001Y-92600001D01*
X86715000Y-94285000D02*
X86715000Y-92615000D01*
X86715000Y-92615000D02*
X86700000Y-92600000D01*
X85575000Y-111150000D02*
X85575000Y-110019762D01*
X85575000Y-110019762D02*
X85972381Y-109622381D01*
D40*
X90250000Y-110300000D02*
X90535554Y-110300000D01*
X90535554Y-110300000D02*
X91047937Y-110812383D01*
X89390000Y-110560000D02*
X89390000Y-110714559D01*
X89390000Y-110714559D02*
X89474560Y-110799119D01*
D42*
X117000000Y-92000000D02*
X116900000Y-92000000D01*
X116715000Y-94285000D02*
X116715000Y-92285000D01*
X116715000Y-92285000D02*
X117000000Y-92000000D01*
D39*
X96800000Y-103015143D02*
X96800000Y-102745000D01*
X96800000Y-103255000D02*
X96800000Y-103015143D01*
X96800000Y-103015143D02*
X97284857Y-103015143D01*
X97284857Y-103015143D02*
X97400000Y-102900000D01*
X83285000Y-105715000D02*
X83285000Y-107585000D01*
X83285000Y-107585000D02*
X83300000Y-107600000D01*
D42*
X116715000Y-108385000D02*
X115900000Y-109200000D01*
X116715000Y-105715000D02*
X116715000Y-108385000D01*
D39*
X96305000Y-102250000D02*
X95275000Y-102250000D01*
X96800000Y-102745000D02*
X96305000Y-102250000D01*
X95275000Y-103750000D02*
X96305000Y-103750000D01*
X96305000Y-103750000D02*
X96800000Y-103255000D01*
X106700000Y-112550000D02*
X106700000Y-113600000D01*
X102725000Y-106200000D02*
X102725000Y-105125000D01*
X102725000Y-105125000D02*
X102400000Y-104800000D01*
X96750000Y-87850000D02*
X96750000Y-89850000D01*
X93050000Y-114850000D02*
X93050000Y-114880000D01*
X93050000Y-114880000D02*
X92680000Y-115250000D01*
X92680000Y-115250000D02*
X92165000Y-115250000D01*
X93500000Y-114850000D02*
X93050000Y-114850000D01*
D40*
X90250000Y-110300000D02*
X89660000Y-110300000D01*
X89660000Y-110300000D02*
X89400000Y-110560000D01*
D39*
X89400000Y-110560000D02*
X89390000Y-110560000D01*
D40*
X89390000Y-110560000D02*
X88800000Y-111150000D01*
D39*
X88800000Y-111150000D02*
X88525000Y-111150000D01*
X91400000Y-115400000D02*
X91250000Y-115250000D01*
X92165000Y-115250000D02*
X91250000Y-115250000D01*
D41*
X92375000Y-104275000D02*
X91150000Y-104275000D01*
X91150000Y-104275000D02*
X90825000Y-103950000D01*
D39*
X96750000Y-89850000D02*
X96750000Y-89949942D01*
X96100000Y-89200000D02*
X96750000Y-89850000D01*
X96499941Y-90200001D02*
X96099942Y-90600000D01*
X96750000Y-89949942D02*
X96499941Y-90200001D01*
X96830000Y-90600000D02*
X96665627Y-90600000D01*
X96665627Y-90600000D02*
X96099942Y-90600000D01*
X97400000Y-89200000D02*
X97400000Y-90030000D01*
X97400000Y-90030000D02*
X96830000Y-90600000D01*
X96100000Y-89200000D02*
X96100000Y-90500000D01*
X96100000Y-90500000D02*
X97400000Y-90500000D01*
X97400000Y-90500000D02*
X97400000Y-89200000D01*
X96100000Y-89100000D02*
X96100000Y-89200000D01*
X96100000Y-89200000D02*
X96100000Y-90599942D01*
X96100000Y-90599942D02*
X96099942Y-90600000D01*
X97300000Y-90600000D02*
X97400000Y-90500000D01*
X96099942Y-90600000D02*
X97300000Y-90600000D01*
X97400000Y-89200000D02*
X96100000Y-89200000D01*
X97400000Y-89200000D02*
X96750000Y-89850000D01*
D42*
X89275000Y-104925000D02*
X89850000Y-104925000D01*
X89850000Y-104925000D02*
X90825000Y-103950000D01*
X88200000Y-105725000D02*
X88475000Y-105725000D01*
X88475000Y-105725000D02*
X89275000Y-104925000D01*
D44*
X113285000Y-94285000D02*
X111835000Y-94285000D01*
X111835000Y-94285000D02*
X111825000Y-94275000D01*
X113285000Y-105715000D02*
X111415000Y-105715000D01*
X111415000Y-105715000D02*
X111400000Y-105700000D01*
X113285000Y-94285000D02*
X116715000Y-94285000D01*
X86715000Y-94285000D02*
X83285000Y-94285000D01*
X88175000Y-94300000D02*
X86730000Y-94300000D01*
X86730000Y-94300000D02*
X86715000Y-94285000D01*
X86715000Y-105715000D02*
X88190000Y-105715000D01*
X88190000Y-105715000D02*
X88200000Y-105725000D01*
X83285000Y-105715000D02*
X86715000Y-105715000D01*
X81800000Y-105725000D02*
X83275000Y-105725000D01*
X83275000Y-105725000D02*
X83285000Y-105715000D01*
D42*
X83285000Y-105715000D02*
X81810000Y-105715000D01*
X81810000Y-105715000D02*
X81800000Y-105725000D01*
X88190000Y-105715000D02*
X88200000Y-105725000D01*
D41*
X88500000Y-96200000D02*
X88610011Y-96310011D01*
X88610011Y-96310011D02*
X88853761Y-96310011D01*
X88500000Y-96185001D02*
X84964999Y-96185001D01*
X88728751Y-96185001D02*
X88500000Y-96185001D01*
X88500000Y-96185001D02*
X88500000Y-96200000D01*
X88853761Y-96310011D02*
X88728751Y-96185001D01*
X84964999Y-96185001D02*
X84325000Y-96825000D01*
X84325000Y-96825000D02*
X83285000Y-96825000D01*
D39*
X94200000Y-93700000D02*
X94400000Y-93500000D01*
X93700000Y-94200000D02*
X94200000Y-93700000D01*
X95900000Y-94800000D02*
X94800000Y-93700000D01*
X94800000Y-93700000D02*
X94400000Y-93300000D01*
X94200000Y-93700000D02*
X94800000Y-93700000D01*
X94400000Y-93500000D02*
X94400000Y-93150000D01*
X93700000Y-94250000D02*
X93700000Y-94200000D01*
X94400000Y-93300000D02*
X94400000Y-93150000D01*
X96360000Y-94800000D02*
X95900000Y-94800000D01*
X92500000Y-94250000D02*
X91900000Y-94250000D01*
X91900000Y-94250000D02*
X91300000Y-94250000D01*
X91900000Y-93100000D02*
X91900000Y-94250000D01*
X91300000Y-94250000D02*
X90100000Y-94250000D01*
X93700000Y-94250000D02*
X92500000Y-94250000D01*
D41*
X101950000Y-90400000D02*
X101950000Y-90193200D01*
X101950000Y-90193200D02*
X102033199Y-90110001D01*
X102033199Y-90110001D02*
X102589999Y-90110001D01*
X102589999Y-90110001D02*
X102665866Y-90034134D01*
X102665866Y-90034134D02*
X103990000Y-90034134D01*
D40*
X88853761Y-96310011D02*
X89158798Y-96310011D01*
X94314998Y-96210012D02*
X96250001Y-96210012D01*
X89158798Y-96310011D02*
X89183798Y-96335011D01*
X89183798Y-96335011D02*
X94189999Y-96335011D01*
X94189999Y-96335011D02*
X94314998Y-96210012D01*
X96250001Y-96210012D02*
X96650000Y-96610011D01*
D41*
X96350000Y-96310011D02*
X96650000Y-96610011D01*
X81356099Y-102493901D02*
X81397199Y-102535001D01*
X81397199Y-102535001D02*
X88685001Y-102535001D01*
D40*
X81064999Y-102202801D02*
X81356099Y-102493901D01*
X81775000Y-96825000D02*
X81064999Y-97535001D01*
X81064999Y-97535001D02*
X81064999Y-102202801D01*
X81356099Y-102493901D02*
X81342205Y-102480007D01*
D39*
X103225000Y-105170000D02*
X103225000Y-104725000D01*
X103225000Y-104725000D02*
X101500000Y-103000000D01*
X101500000Y-103000000D02*
X101500000Y-102500000D01*
D42*
X101500000Y-102500000D02*
X101500000Y-97368537D01*
X97408526Y-97368537D02*
X101500000Y-97368537D01*
X101500000Y-97368537D02*
X103696453Y-97368537D01*
D41*
X94629999Y-92520001D02*
X95775001Y-92520001D01*
X95775001Y-92520001D02*
X95810001Y-92485001D01*
D42*
X103886758Y-97178232D02*
X104714990Y-96350000D01*
X96650000Y-96610011D02*
X97408526Y-97368537D01*
X103696453Y-97368537D02*
X103886758Y-97178232D01*
D40*
X103977680Y-92499068D02*
X104543365Y-92499068D01*
X104543365Y-92499068D02*
X104984084Y-92939787D01*
X104984084Y-92939787D02*
X104984084Y-93539711D01*
X104984084Y-93539711D02*
X105487205Y-94042832D01*
X105487205Y-94042832D02*
X105487205Y-94136688D01*
X108649759Y-108600000D02*
X108649759Y-107323243D01*
X108649759Y-107323243D02*
X109250000Y-106723002D01*
X109250000Y-106723002D02*
X109250000Y-105260000D01*
X106153094Y-110653094D02*
X106246906Y-110653094D01*
X106246906Y-110653094D02*
X106681770Y-110218230D01*
D39*
X106185010Y-95900000D02*
X106585009Y-95500001D01*
X106585009Y-95500001D02*
X106589999Y-95500001D01*
X106589999Y-95500001D02*
X106675000Y-95415000D01*
D40*
X105725000Y-103250000D02*
X104720019Y-103250000D01*
D41*
X106675000Y-103250000D02*
X105725000Y-103250000D01*
D42*
X96650000Y-98518763D02*
X96650000Y-96610011D01*
X98210001Y-101660001D02*
X98210001Y-100078764D01*
X98210001Y-100078764D02*
X96650000Y-98518763D01*
X97005000Y-104950000D02*
X98210001Y-103744999D01*
X98210001Y-103744999D02*
X98210001Y-101660001D01*
D41*
X95750000Y-91850000D02*
X95750000Y-92425000D01*
X95750000Y-92425000D02*
X95810001Y-92485001D01*
X95810001Y-92485001D02*
X96689999Y-92485001D01*
X96689999Y-92485001D02*
X96750000Y-92425000D01*
X96750000Y-92425000D02*
X96750000Y-91850000D01*
X94729999Y-92520001D02*
X94629999Y-92520001D01*
X94629999Y-92520001D02*
X94400000Y-92750000D01*
X94400000Y-92750000D02*
X94400000Y-93150000D01*
D39*
X101150000Y-107800000D02*
X101150000Y-108390000D01*
X101150000Y-108390000D02*
X101170001Y-108410001D01*
X101170001Y-108410001D02*
X103229999Y-108410001D01*
X103229999Y-108410001D02*
X103250000Y-108390000D01*
X103250000Y-108390000D02*
X103250000Y-107800000D01*
D41*
X103225000Y-106200000D02*
X103225000Y-107775000D01*
X103225000Y-107775000D02*
X103250000Y-107800000D01*
X103710001Y-91660001D02*
X103710001Y-92231389D01*
X103710001Y-92231389D02*
X103977680Y-92499068D01*
D39*
X105708084Y-90550000D02*
X105408084Y-90250000D01*
X105408084Y-90250000D02*
X104650000Y-90250000D01*
X95014750Y-104925250D02*
X95039500Y-104950000D01*
D42*
X95039500Y-104950000D02*
X97005000Y-104950000D01*
D39*
X97005000Y-104950000D02*
X97225000Y-105170000D01*
X97225000Y-105170000D02*
X97225000Y-106200000D01*
D40*
X94190000Y-105750000D02*
X95014750Y-104925250D01*
X95014750Y-104925250D02*
X95275000Y-104665000D01*
D39*
X93600000Y-105750000D02*
X94190000Y-105750000D01*
X95275000Y-104665000D02*
X95275000Y-104575000D01*
D41*
X104650000Y-90250000D02*
X104205866Y-90250000D01*
X104205866Y-90250000D02*
X103990000Y-90034134D01*
X103990000Y-90090000D02*
X103990000Y-90034134D01*
X103150000Y-91600000D02*
X103650000Y-91600000D01*
X103650000Y-91600000D02*
X103710001Y-91660001D01*
X103990000Y-89820000D02*
X103990000Y-90034134D01*
X107850000Y-103475000D02*
X108225000Y-103475000D01*
X108225000Y-103475000D02*
X108300000Y-103550000D01*
X106675000Y-103250000D02*
X107625000Y-103250000D01*
X107625000Y-103250000D02*
X107850000Y-103475000D01*
D40*
X109250000Y-105260000D02*
X109250000Y-103840000D01*
X109250000Y-103840000D02*
X108960000Y-103550000D01*
X108960000Y-103550000D02*
X108300000Y-103550000D01*
X108300000Y-105550000D02*
X108960000Y-105550000D01*
X108960000Y-105550000D02*
X109250000Y-105260000D01*
X109458001Y-84204999D02*
X111019332Y-85766330D01*
X111393001Y-89793001D02*
X111019332Y-89419332D01*
X111019332Y-89419332D02*
X111019332Y-85766330D01*
X111414999Y-89793001D02*
X111393001Y-89793001D01*
D39*
X114450000Y-90650000D02*
X113368570Y-90650000D01*
X113368570Y-90650000D02*
X112250000Y-90650000D01*
D40*
X105050000Y-85338236D02*
X106183237Y-84204999D01*
X105950000Y-88250000D02*
X105950000Y-87700000D01*
X105950000Y-87700000D02*
X105050000Y-86800000D01*
X105050000Y-86800000D02*
X105050000Y-85338236D01*
X106183237Y-84204999D02*
X109458001Y-84204999D01*
X111414999Y-89793001D02*
X111721998Y-90100000D01*
X111721998Y-90100000D02*
X112950000Y-90100000D01*
X112950000Y-90100000D02*
X113368570Y-90518570D01*
X113368570Y-90518570D02*
X113368570Y-90650000D01*
D41*
X104050000Y-89250000D02*
X104050000Y-89760000D01*
X104050000Y-89760000D02*
X103990000Y-89820000D01*
X101950000Y-90400000D02*
X101950000Y-90800000D01*
D40*
X104050000Y-89250000D02*
X104050000Y-88850000D01*
X104050000Y-88850000D02*
X103500000Y-88300000D01*
X103500000Y-88300000D02*
X103500000Y-87750000D01*
D39*
X97225000Y-94800000D02*
X96360000Y-94800000D01*
X105950000Y-89700000D02*
X105950000Y-90490000D01*
X105950000Y-90490000D02*
X105890000Y-90550000D01*
X105950000Y-89700000D02*
X105950000Y-88250000D01*
X114450000Y-90650000D02*
X115800000Y-90650000D01*
X115800000Y-90650000D02*
X115850000Y-90700000D01*
X106675000Y-96750000D02*
X106675000Y-95415000D01*
D40*
X106675000Y-95415000D02*
X107640000Y-94450000D01*
X107640000Y-94450000D02*
X108300000Y-94450000D01*
D39*
X105708084Y-90550000D02*
X106030000Y-90550000D01*
X105890000Y-90550000D02*
X105708084Y-90550000D01*
X106030000Y-90550000D02*
X106100000Y-90620000D01*
X106100000Y-90620000D02*
X106100000Y-91050000D01*
X106870000Y-111660000D02*
X106163094Y-111660000D01*
X106163094Y-111660000D02*
X106153094Y-111650000D01*
X106089999Y-111713095D02*
X106089999Y-111670001D01*
X106089999Y-111670001D02*
X106110000Y-111650000D01*
X105000000Y-112600000D02*
X106000000Y-112600000D01*
X106000000Y-112600000D02*
X106089999Y-112510001D01*
X106089999Y-112510001D02*
X106089999Y-111713095D01*
X106089999Y-111713095D02*
X106153094Y-111650000D01*
X106153094Y-111650000D02*
X105150000Y-111650000D01*
X105900000Y-110400000D02*
X106153094Y-110653094D01*
X106153094Y-110653094D02*
X106153094Y-111650000D01*
X105000000Y-110400000D02*
X105900000Y-110400000D01*
X105150000Y-111650000D02*
X105000000Y-111500000D01*
D41*
X88685001Y-102535001D02*
X89125000Y-102975000D01*
X89125000Y-102975000D02*
X89275000Y-102975000D01*
X83285000Y-96825000D02*
X83285000Y-96985000D01*
X103225000Y-106200000D02*
X103225000Y-105170000D01*
D39*
X95275000Y-104250000D02*
X95275000Y-104575000D01*
X105050000Y-112550000D02*
X105000000Y-112600000D01*
D41*
X83285000Y-96825000D02*
X84375000Y-96825000D01*
D39*
X83285000Y-96825000D02*
X81775000Y-96825000D01*
X97400000Y-93500000D02*
X97675001Y-93775001D01*
X97675001Y-94750001D02*
X97725000Y-94800000D01*
X97675001Y-93775001D02*
X97675001Y-94750001D01*
X97400000Y-93150000D02*
X97400000Y-93500000D01*
X97742000Y-94783000D02*
X97725000Y-94800000D01*
X108300000Y-97000000D02*
X108050000Y-97250000D01*
X108050000Y-97250000D02*
X106675000Y-97250000D01*
X108300000Y-96600000D02*
X108300000Y-97000000D01*
X92375000Y-103625000D02*
X93525000Y-103625000D01*
X93525000Y-103625000D02*
X93600000Y-103550000D01*
X89650000Y-101550000D02*
X93579989Y-101550000D01*
X93579989Y-101550000D02*
X93600000Y-101529989D01*
X89650000Y-101550000D02*
X89310000Y-101890000D01*
X93600000Y-103550000D02*
X93600000Y-102850000D01*
X88763172Y-101905000D02*
X89295000Y-101905000D01*
X89295000Y-101905000D02*
X89310000Y-101890000D01*
X86715000Y-101905000D02*
X88763172Y-101905000D01*
X112827066Y-110150000D02*
X114264230Y-111587164D01*
X110900000Y-110150000D02*
X112827066Y-110150000D01*
X109500000Y-110150000D02*
X109500000Y-112674048D01*
X109500000Y-112674048D02*
X109387024Y-112787024D01*
X109844678Y-115458861D02*
X109844678Y-114444678D01*
X109844678Y-114444678D02*
X109800000Y-114400000D01*
D41*
X106675000Y-101750000D02*
X109172268Y-101750000D01*
D39*
X109172268Y-101750000D02*
X110699999Y-103277731D01*
X110699999Y-103277731D02*
X110699999Y-108099999D01*
X110699999Y-108099999D02*
X110900000Y-108300000D01*
X110900000Y-108300000D02*
X110900000Y-109250000D01*
X109725010Y-103750000D02*
X109725010Y-108434990D01*
X106675000Y-102750000D02*
X108831765Y-102750000D01*
X108831765Y-102750000D02*
X109725010Y-103643245D01*
X109725010Y-103643245D02*
X109725010Y-103750000D01*
X109500000Y-108660000D02*
X109725010Y-108434990D01*
X109500000Y-109250000D02*
X109500000Y-108660000D01*
X100092918Y-88097736D02*
X100658603Y-88097736D01*
X100658603Y-88097736D02*
X101006339Y-87750000D01*
X101006339Y-87750000D02*
X102284998Y-87750000D01*
X102284998Y-87750000D02*
X102435075Y-87750000D01*
D41*
X102435075Y-87750000D02*
X102850000Y-87750000D01*
X98750000Y-88850000D02*
X98750000Y-88318694D01*
X98750000Y-88318694D02*
X98665653Y-88234347D01*
X94100000Y-95800000D02*
X89320552Y-95800000D01*
X89320552Y-95800000D02*
X89072776Y-95552224D01*
X94200000Y-95700000D02*
X94100000Y-95800000D01*
X96400000Y-95700000D02*
X94200000Y-95700000D01*
X96600000Y-95900000D02*
X96400000Y-95700000D01*
X97900000Y-95900000D02*
X96600000Y-95900000D01*
X98225000Y-95575000D02*
X97900000Y-95900000D01*
X98225000Y-94800000D02*
X98225000Y-95575000D01*
D39*
X89152224Y-95552224D02*
X89072776Y-95552224D01*
D42*
X86715000Y-95555000D02*
X89070000Y-95555000D01*
D41*
X89070000Y-95555000D02*
X89072776Y-95552224D01*
X88816399Y-97044061D02*
X90440240Y-97044061D01*
X90440240Y-97044061D02*
X90644302Y-96839999D01*
X90644302Y-96839999D02*
X94235001Y-96839999D01*
X94235001Y-96839999D02*
X94325000Y-96750000D01*
X94325000Y-96750000D02*
X95275000Y-96750000D01*
X86715000Y-96825000D02*
X88597338Y-96825000D01*
X88597338Y-96825000D02*
X88816399Y-97044061D01*
X95200000Y-96825000D02*
X95275000Y-96750000D01*
D39*
X90815685Y-97250000D02*
X90800000Y-97250000D01*
X90800000Y-97250000D02*
X90075000Y-97975000D01*
X90815685Y-97250000D02*
X94367268Y-97250000D01*
D41*
X94367268Y-97250000D02*
X95275000Y-97250000D01*
D39*
X90340036Y-99750000D02*
X94050000Y-99750000D01*
D41*
X94050000Y-99750000D02*
X95275000Y-99750000D01*
D39*
X88815018Y-98224982D02*
X90340036Y-99750000D01*
X86715000Y-98095000D02*
X88685036Y-98095000D01*
X88685036Y-98095000D02*
X88815018Y-98224982D01*
D41*
X94260001Y-102533199D02*
X94260001Y-102685001D01*
X94260001Y-102685001D02*
X94325000Y-102750000D01*
X94325000Y-102750000D02*
X95275000Y-102750000D01*
X92828458Y-102450000D02*
X93023198Y-102450000D01*
X93916801Y-102189999D02*
X94260001Y-102533199D01*
X93023198Y-102450000D02*
X93283199Y-102189999D01*
X93283199Y-102189999D02*
X93916801Y-102189999D01*
D39*
X92828458Y-102450000D02*
X92600000Y-102450000D01*
X92600000Y-102450000D02*
X92375000Y-102675000D01*
X92375000Y-102675000D02*
X92375000Y-102975000D01*
X95255001Y-102730001D02*
X95275000Y-102750000D01*
X92375000Y-102975000D02*
X92525000Y-102975000D01*
X95275000Y-103250000D02*
X94245000Y-103250000D01*
X94245000Y-103250000D02*
X94224999Y-103270001D01*
X94224999Y-103270001D02*
X94224999Y-104985003D01*
X93115001Y-105060001D02*
X92980000Y-104925000D01*
X94224999Y-104985003D02*
X94150001Y-105060001D01*
X92980000Y-104925000D02*
X92375000Y-104925000D01*
X94150001Y-105060001D02*
X93115001Y-105060001D01*
X88625000Y-103625000D02*
X88625000Y-103545000D01*
X88625000Y-103545000D02*
X88300000Y-103220000D01*
X86715000Y-103175000D02*
X88255000Y-103175000D01*
D41*
X88255000Y-103175000D02*
X88300000Y-103220000D01*
D39*
X88625000Y-103625000D02*
X89275000Y-103625000D01*
X88400000Y-104450000D02*
X88575000Y-104275000D01*
X88575000Y-104275000D02*
X89275000Y-104275000D01*
X88175000Y-104450000D02*
X88400000Y-104450000D01*
X86715000Y-104445000D02*
X88170000Y-104445000D01*
X88170000Y-104445000D02*
X88175000Y-104450000D01*
X83285000Y-95555000D02*
X81805000Y-95555000D01*
X81805000Y-95555000D02*
X81800000Y-95550000D01*
X83285000Y-98095000D02*
X81830000Y-98095000D01*
X81830000Y-98095000D02*
X81825000Y-98100000D01*
X83285000Y-99365000D02*
X81835000Y-99365000D01*
X81835000Y-99365000D02*
X81825000Y-99375000D01*
X86715000Y-99365000D02*
X88190000Y-99365000D01*
X88190000Y-99365000D02*
X88200000Y-99375000D01*
X83285000Y-100635000D02*
X81815000Y-100635000D01*
X81815000Y-100635000D02*
X81800000Y-100650000D01*
X86715000Y-100635000D02*
X88160000Y-100635000D01*
X88160000Y-100635000D02*
X88175000Y-100650000D01*
D40*
X83285000Y-101905000D02*
X81855000Y-101905000D01*
X81855000Y-101905000D02*
X81825000Y-101875000D01*
D39*
X81800000Y-103175000D02*
X81220008Y-103175000D01*
X81220008Y-103175000D02*
X81180000Y-103215008D01*
X83285000Y-103175000D02*
X81800000Y-103175000D01*
X83285000Y-104445000D02*
X81805000Y-104445000D01*
X81805000Y-104445000D02*
X81800000Y-104450000D01*
D42*
X113285000Y-95555000D02*
X111780000Y-95555000D01*
X111780000Y-95555000D02*
X111775000Y-95550000D01*
X118200000Y-95550000D02*
X116720000Y-95550000D01*
X116720000Y-95550000D02*
X116715000Y-95555000D01*
X118200000Y-96800000D02*
X116740000Y-96800000D01*
X116740000Y-96800000D02*
X116715000Y-96825000D01*
D39*
X113285000Y-96825000D02*
X111825000Y-96825000D01*
X111825000Y-96825000D02*
X111800000Y-96800000D01*
D42*
X113285000Y-98095000D02*
X111830000Y-98095000D01*
X111830000Y-98095000D02*
X111825000Y-98100000D01*
X116715000Y-98095000D02*
X118195000Y-98095000D01*
X118195000Y-98095000D02*
X118200000Y-98100000D01*
X111825000Y-99350000D02*
X113270000Y-99350000D01*
X113270000Y-99350000D02*
X113285000Y-99365000D01*
D39*
X118200000Y-99400000D02*
X116750000Y-99400000D01*
X116750000Y-99400000D02*
X116715000Y-99365000D01*
D42*
X113285000Y-100635000D02*
X111810000Y-100635000D01*
X111810000Y-100635000D02*
X111800000Y-100625000D01*
X116715000Y-100635000D02*
X118160000Y-100635000D01*
X118160000Y-100635000D02*
X118175000Y-100650000D01*
X113285000Y-101905000D02*
X111830000Y-101905000D01*
X111830000Y-101905000D02*
X111825000Y-101900000D01*
X116715000Y-101905000D02*
X118170000Y-101905000D01*
X118170000Y-101905000D02*
X118175000Y-101900000D01*
X113285000Y-103175000D02*
X111800000Y-103175000D01*
X116715000Y-103175000D02*
X118175000Y-103175000D01*
X113285000Y-104445000D02*
X116715000Y-104445000D01*
X113285000Y-104445000D02*
X111830000Y-104445000D01*
X111830000Y-104445000D02*
X111825000Y-104450000D01*
X116715000Y-104445000D02*
X118170000Y-104445000D01*
X118170000Y-104445000D02*
X118175000Y-104450000D01*
D39*
X92200000Y-88650000D02*
X91000000Y-88650000D01*
X93400000Y-88650000D02*
X92200000Y-88650000D01*
X94250000Y-89350000D02*
X93550000Y-88650000D01*
X93550000Y-88650000D02*
X93400000Y-88650000D01*
X94750000Y-89350000D02*
X94250000Y-89350000D01*
X91150000Y-88500000D02*
X91000000Y-88650000D01*
X93400000Y-90150000D02*
X93700000Y-89850000D01*
X93400000Y-89550000D02*
X93400000Y-90150000D01*
X93400000Y-90150000D02*
X92750000Y-90800000D01*
X94750000Y-89850000D02*
X93700000Y-89850000D01*
X93700000Y-89850000D02*
X93400000Y-89550000D01*
X93500000Y-92050000D02*
X93500000Y-92900000D01*
X93500000Y-92900000D02*
X93300000Y-93100000D01*
X94200000Y-90350000D02*
X93500000Y-91050000D01*
X93500000Y-91050000D02*
X93500000Y-92050000D01*
X94750000Y-90350000D02*
X94200000Y-90350000D01*
X92600000Y-92050000D02*
X91500000Y-92050000D01*
X91500000Y-92050000D02*
X91450000Y-92000000D01*
X89800000Y-89550000D02*
X89800000Y-90750000D01*
X89800000Y-90750000D02*
X89750000Y-90800000D01*
X89750000Y-90800000D02*
X89750000Y-90650000D01*
X90200000Y-91100000D02*
X91550000Y-91100000D01*
X91550000Y-91100000D02*
X91850000Y-90800000D01*
X89900000Y-90800000D02*
X90200000Y-91100000D01*
X89750000Y-90800000D02*
X89900000Y-90800000D01*
X90050000Y-92000000D02*
X90050000Y-91100000D01*
X90050000Y-91100000D02*
X89750000Y-90800000D01*
X91850000Y-90800000D02*
X91850000Y-90377732D01*
X91850000Y-90377732D02*
X91887733Y-90339999D01*
X91887733Y-90339999D02*
X92200000Y-90027732D01*
X92200000Y-90027732D02*
X92200000Y-89650000D01*
X95200000Y-85900000D02*
X92050000Y-85900000D01*
X92050000Y-85900000D02*
X91950000Y-85800000D01*
X89800000Y-86400000D02*
X90400000Y-85800000D01*
X90400000Y-85800000D02*
X91950000Y-85800000D01*
X89800000Y-87450000D02*
X89800000Y-86400000D01*
X89800000Y-88650000D02*
X89800000Y-87450000D01*
X92100000Y-85950000D02*
X91950000Y-85800000D01*
D42*
X91300000Y-113250000D02*
X91300000Y-112300000D01*
X91300000Y-112300000D02*
X91800000Y-111800000D01*
X91800000Y-111800000D02*
X93000000Y-111800000D01*
D39*
X93000000Y-111800000D02*
X93100000Y-111700000D01*
X93100000Y-114050000D02*
X93400000Y-114050000D01*
X93400000Y-114050000D02*
X93500000Y-113950000D01*
X92760000Y-114390000D02*
X93100000Y-114050000D01*
X92760000Y-114450000D02*
X92760000Y-114390000D01*
X94100000Y-113950000D02*
X94100000Y-113920000D01*
X94100000Y-113920000D02*
X94320000Y-113700000D01*
X94320000Y-113700000D02*
X95500000Y-113700000D01*
X93500000Y-113950000D02*
X94100000Y-113950000D01*
X92600000Y-114610000D02*
X92175000Y-114610000D01*
X92175000Y-114610000D02*
X92165000Y-114600000D01*
X92760000Y-114450000D02*
X92600000Y-114610000D01*
X89400000Y-113800000D02*
X89990000Y-113800000D01*
X89990000Y-113800000D02*
X90174982Y-113615018D01*
X90174982Y-113615018D02*
X90335000Y-113615018D01*
D41*
X90335000Y-114600000D02*
X90335000Y-114000000D01*
D40*
X90335000Y-114000000D02*
X90335000Y-113615018D01*
D41*
X90335000Y-113615018D02*
X90309991Y-113590009D01*
D42*
X90200000Y-111800000D02*
X90200000Y-112361210D01*
X90200000Y-112361210D02*
X90309991Y-112471201D01*
X90309991Y-112471201D02*
X90309991Y-113590009D01*
D39*
X90285000Y-114650000D02*
X90335000Y-114600000D01*
X107700000Y-84850000D02*
X107700000Y-85500000D01*
X107700000Y-85500000D02*
X107400000Y-85800000D01*
X107400000Y-86980000D02*
X107699999Y-87279999D01*
X107400000Y-85800000D02*
X107400000Y-86980000D01*
X108300000Y-89700000D02*
X108300000Y-89300000D01*
X108300000Y-89300000D02*
X107699999Y-88699999D01*
X107699999Y-88699999D02*
X107699999Y-87279999D01*
X107720000Y-87300000D02*
X108550000Y-87300000D01*
X107699999Y-87279999D02*
X107720000Y-87300000D01*
X108200000Y-89600000D02*
X108300000Y-89700000D01*
X110050000Y-89440000D02*
X110050000Y-87700000D01*
X109200000Y-89700000D02*
X109790000Y-89700000D01*
X109790000Y-89700000D02*
X110050000Y-89440000D01*
D42*
X90250000Y-109400000D02*
X87275000Y-109400000D01*
X87275000Y-109400000D02*
X87050000Y-109625000D01*
X92695501Y-109190009D02*
X93566011Y-109190009D01*
X93566011Y-109190009D02*
X93780001Y-109403999D01*
X93780001Y-109403999D02*
X93780001Y-109780001D01*
X93780001Y-109780001D02*
X94400000Y-110400000D01*
X94400000Y-110400000D02*
X95500000Y-110400000D01*
X93548011Y-109190009D02*
X92695501Y-109190009D01*
X92695501Y-109190009D02*
X92100000Y-109190009D01*
X90800000Y-109400000D02*
X90250000Y-109400000D01*
X91000000Y-109200000D02*
X90800000Y-109400000D01*
X91400000Y-109200000D02*
X91000000Y-109200000D01*
X91400000Y-109200000D02*
X92090009Y-109200000D01*
D40*
X92090009Y-109200000D02*
X92100000Y-109190009D01*
D39*
X89500000Y-114850000D02*
X89900000Y-115250000D01*
X89900000Y-115250000D02*
X90335000Y-115250000D01*
X88860000Y-114850000D02*
X89500000Y-114850000D01*
X88400000Y-113800000D02*
X88400000Y-114390000D01*
X88400000Y-114390000D02*
X88860000Y-114850000D01*
D41*
X90130837Y-115250000D02*
X90335000Y-115250000D01*
D39*
X105000000Y-115900000D02*
X106771765Y-115900000D01*
X108225010Y-114446755D02*
X108225010Y-110050243D01*
X106771765Y-115900000D02*
X108225010Y-114446755D01*
X108225010Y-110050243D02*
X107249748Y-109074982D01*
X107249748Y-109074982D02*
X107249748Y-108350252D01*
D41*
X103725000Y-106200000D02*
X103725000Y-107229999D01*
X104350000Y-107854999D02*
X104350000Y-108100000D01*
X103725000Y-107229999D02*
X104350000Y-107854999D01*
D39*
X107300000Y-107250000D02*
X107949749Y-107899749D01*
X107949749Y-107899749D02*
X107949749Y-109149749D01*
X107949749Y-109149749D02*
X108450000Y-109650000D01*
X108450000Y-109650000D02*
X108450000Y-109652965D01*
X108450000Y-109652965D02*
X108678398Y-109881363D01*
X108678398Y-109881363D02*
X108678398Y-114621602D01*
X108678398Y-114621602D02*
X106300000Y-117000000D01*
X106300000Y-117000000D02*
X105000000Y-117000000D01*
D41*
X104225000Y-106200000D02*
X104225000Y-107150000D01*
X104225000Y-107150000D02*
X104474489Y-107399489D01*
X104474489Y-107399489D02*
X105209009Y-107399489D01*
X105300000Y-108100000D02*
X104950000Y-108450000D01*
X104950000Y-108450000D02*
X104950000Y-109300000D01*
X105485300Y-108100000D02*
X105300000Y-108100000D01*
X104725000Y-106200000D02*
X105075000Y-106200000D01*
X105075000Y-106200000D02*
X106100000Y-107225000D01*
X106100000Y-107225000D02*
X106100000Y-107485300D01*
X106100000Y-107485300D02*
X105485300Y-108100000D01*
D42*
X92300000Y-110000000D02*
X91400000Y-110000000D01*
X93100000Y-110900000D02*
X93100000Y-110000000D01*
D39*
X113400000Y-87475000D02*
X113400000Y-88325000D01*
X113400000Y-88325000D02*
X113275000Y-88450000D01*
X112250000Y-89350000D02*
X112250000Y-88753028D01*
X112250000Y-88753028D02*
X112250000Y-87800000D01*
X113146972Y-88753028D02*
X112250000Y-88753028D01*
X112250000Y-87800000D02*
X112150000Y-87700000D01*
D41*
X87829999Y-113870868D02*
X87829999Y-113329999D01*
X87829999Y-113329999D02*
X87450000Y-112950000D01*
X90335000Y-115900000D02*
X89833382Y-115900000D01*
X89833382Y-115900000D02*
X89233382Y-115300000D01*
X89233382Y-115300000D02*
X88744301Y-115300000D01*
X88744301Y-115300000D02*
X87829999Y-114385698D01*
X87829999Y-114385698D02*
X87829999Y-113870868D01*
X86068351Y-108231650D02*
X84469284Y-108231650D01*
X84469284Y-108231650D02*
X83483299Y-109217635D01*
D39*
X98225000Y-107230000D02*
X98225000Y-106200000D01*
X97754999Y-107700001D02*
X98225000Y-107230000D01*
X86600000Y-107700001D02*
X97754999Y-107700001D01*
D41*
X86068351Y-108231650D02*
X86600000Y-107700001D01*
X92165000Y-115900000D02*
X92165000Y-116685000D01*
X92165000Y-116685000D02*
X92000000Y-116850000D01*
X83950000Y-110250000D02*
X83950000Y-109684315D01*
X83950000Y-109684315D02*
X85042655Y-108591660D01*
X85042655Y-108591660D02*
X97429038Y-108591660D01*
X97429038Y-108591660D02*
X98725000Y-107295698D01*
X98725000Y-107295698D02*
X98725000Y-107150000D01*
X98725000Y-107150000D02*
X98725000Y-106200000D01*
D39*
X110500000Y-92550000D02*
X109495000Y-92550000D01*
X109495000Y-92550000D02*
X109395000Y-92650000D01*
X109395000Y-92650000D02*
X108985563Y-92650000D01*
X106800001Y-88422269D02*
X106800001Y-87780001D01*
X108985563Y-92650000D02*
X108150000Y-91814437D01*
X108139998Y-90700000D02*
X107500000Y-90060002D01*
X108150000Y-91814437D02*
X108150000Y-90700000D01*
X107500000Y-89122268D02*
X106800001Y-88422269D01*
X108150000Y-90700000D02*
X108139998Y-90700000D01*
X107500000Y-90060002D02*
X107500000Y-89122268D01*
X106800001Y-87780001D02*
X105950000Y-86930000D01*
X105950000Y-86930000D02*
X105950000Y-86350000D01*
X105950000Y-86350000D02*
X105950000Y-85110000D01*
X105950000Y-85110000D02*
X106210000Y-84850000D01*
X106210000Y-84850000D02*
X106800000Y-84850000D01*
D41*
X103150000Y-91200000D02*
X103759131Y-91200000D01*
X103759131Y-91200000D02*
X104079999Y-91520868D01*
X104079999Y-91520868D02*
X104079999Y-91668001D01*
X104079999Y-91668001D02*
X104461998Y-92050000D01*
X104461998Y-92050000D02*
X105175000Y-92050000D01*
X105175000Y-92050000D02*
X106100000Y-92050000D01*
D39*
X107200000Y-114800000D02*
X107750000Y-114250000D01*
D40*
X107750000Y-114250000D02*
X107750000Y-110246998D01*
X107750000Y-110246998D02*
X106514747Y-109011745D01*
X106514747Y-109011745D02*
X106514747Y-107997451D01*
X103700010Y-104300010D02*
X102600000Y-103200000D01*
X106514747Y-107997451D02*
X106535010Y-107977188D01*
X103700010Y-104700010D02*
X103700010Y-104300010D01*
X106535010Y-107977188D02*
X106535010Y-106507008D01*
X105028002Y-105000000D02*
X104000000Y-105000000D01*
X102600000Y-103200000D02*
X102600000Y-99750000D01*
X106535010Y-106507008D02*
X105028002Y-105000000D01*
X104000000Y-105000000D02*
X103700010Y-104700010D01*
X102600000Y-99750000D02*
X103150995Y-99199005D01*
X103150995Y-99199005D02*
X105450000Y-96900000D01*
D39*
X105450000Y-96900000D02*
X105450000Y-95599008D01*
X105450000Y-95599008D02*
X106187206Y-94861802D01*
X106187206Y-94861802D02*
X106187206Y-93487206D01*
X106187206Y-93487206D02*
X106100000Y-93400000D01*
D41*
X106100000Y-93400000D02*
X106100000Y-93050000D01*
D39*
X106130000Y-114800000D02*
X107200000Y-114800000D01*
X104950000Y-114800000D02*
X106130000Y-114800000D01*
X107625000Y-98250000D02*
X108432270Y-98250000D01*
X108432270Y-98250000D02*
X111050000Y-95632270D01*
X111050000Y-95632270D02*
X111050000Y-93915002D01*
D41*
X106675000Y-98250000D02*
X107625000Y-98250000D01*
D39*
X111525001Y-93440001D02*
X111525001Y-91570001D01*
X111505000Y-91550000D02*
X110500000Y-91550000D01*
X111050000Y-93915002D02*
X111525001Y-93440001D01*
X111525001Y-91570001D02*
X111505000Y-91550000D01*
X110550000Y-90300000D02*
X110550000Y-91000000D01*
X110550000Y-91000000D02*
X110500000Y-91050000D01*
D41*
X106675000Y-97750000D02*
X108310002Y-97750000D01*
D39*
X108310002Y-97750000D02*
X110349990Y-95710012D01*
X110349990Y-95710012D02*
X110349990Y-94050000D01*
D42*
X100421453Y-98178547D02*
X99380021Y-99219979D01*
X99380021Y-104297308D02*
X99225000Y-104452329D01*
X99380021Y-99219979D02*
X99380021Y-104297308D01*
D41*
X99225000Y-106200000D02*
X99225000Y-105061998D01*
X99225000Y-105061998D02*
X99225000Y-104452329D01*
X102450000Y-91200000D02*
X102510001Y-91260001D01*
X102510001Y-91260001D02*
X102510001Y-92290529D01*
X102510001Y-92290529D02*
X102094960Y-92705570D01*
X101950000Y-91200000D02*
X102450000Y-91200000D01*
D39*
X109300000Y-113863998D02*
X110259989Y-112904009D01*
X110259989Y-112904009D02*
X110259989Y-103555956D01*
X110259989Y-103555956D02*
X108954033Y-102250000D01*
X93818519Y-118100000D02*
X93843519Y-118075000D01*
X93843519Y-118075000D02*
X95400000Y-118075000D01*
X93651851Y-117933332D02*
X93818519Y-118100000D01*
X108500000Y-115500000D02*
X108500000Y-116000000D01*
X108500000Y-116000000D02*
X107400000Y-117100000D01*
D41*
X109139999Y-114860001D02*
X108500000Y-115500000D01*
X109300000Y-113863998D02*
X109139999Y-114023999D01*
X109139999Y-114023999D02*
X109139999Y-114860001D01*
X105500000Y-102250000D02*
X106675000Y-102250000D01*
D39*
X105199235Y-101949235D02*
X105500000Y-102250000D01*
X105199235Y-98369551D02*
X105199235Y-101949235D01*
X104150000Y-84900000D02*
X104285175Y-84764825D01*
X104285175Y-84764825D02*
X104580212Y-84764825D01*
X104150000Y-85550000D02*
X104150000Y-84900000D01*
D41*
X108954033Y-102250000D02*
X107705000Y-102250000D01*
X107705000Y-102250000D02*
X106675000Y-102250000D01*
D39*
X102850000Y-86250000D02*
X102850000Y-85550000D01*
X102589997Y-86510003D02*
X102850000Y-86250000D01*
X102589997Y-86600000D02*
X102589997Y-86510003D01*
D41*
X100725000Y-94800000D02*
X100725000Y-93725000D01*
X100725000Y-93725000D02*
X100500000Y-93500000D01*
X102850000Y-85550000D02*
X102850000Y-85825000D01*
X106675000Y-104250000D02*
X104550000Y-104250000D01*
X104550000Y-104250000D02*
X103700000Y-103400000D01*
X103700000Y-103400000D02*
X103700000Y-102700000D01*
X103700000Y-102700000D02*
X104300000Y-102100000D01*
D39*
X104300000Y-99965685D02*
X104300000Y-102100000D01*
X104300000Y-99400000D02*
X104300000Y-99965685D01*
X105000000Y-88050000D02*
X105000000Y-89300000D01*
X104700000Y-87750000D02*
X105000000Y-88050000D01*
D40*
X104150000Y-87750000D02*
X104700000Y-87750000D01*
D39*
X100075001Y-87310001D02*
X100260002Y-87125000D01*
X100260002Y-87125000D02*
X100625000Y-87125000D01*
X99764999Y-87310001D02*
X100075001Y-87310001D01*
X100075001Y-87310001D02*
X100150000Y-87235002D01*
X99365654Y-88360422D02*
X99365654Y-87709346D01*
X99365654Y-87709346D02*
X99764999Y-87310001D01*
X99365654Y-88360422D02*
X100463749Y-89458517D01*
X100463749Y-89458517D02*
X100929283Y-89458517D01*
X100929283Y-89458517D02*
X101276483Y-89805717D01*
D40*
X101400000Y-91550000D02*
X101276483Y-91426483D01*
X101276483Y-91426483D02*
X101276483Y-89805717D01*
D41*
X101950000Y-91600000D02*
X101400000Y-91600000D01*
D39*
X103835431Y-96108068D02*
X103685390Y-96258109D01*
X100759989Y-96290011D02*
X103653488Y-96290011D01*
X103653488Y-96290011D02*
X103685390Y-96258109D01*
X100340014Y-96550011D02*
X100499989Y-96550011D01*
X100499989Y-96550011D02*
X100759989Y-96290011D01*
X100420971Y-96630968D02*
X100340014Y-96550011D01*
X99450000Y-90850000D02*
X99450000Y-92554127D01*
X99450000Y-92554127D02*
X99771112Y-92875239D01*
D41*
X99450000Y-90622696D02*
X99450000Y-90850000D01*
X99177304Y-90350000D02*
X99450000Y-90622696D01*
X104200000Y-95743499D02*
X104200000Y-94825000D01*
D39*
X103835431Y-96108068D02*
X104200000Y-95743499D01*
D41*
X104200000Y-94825000D02*
X104225000Y-94800000D01*
X99177304Y-90350000D02*
X98750000Y-90350000D01*
X104225000Y-94800000D02*
X104225000Y-94175000D01*
X104225000Y-94175000D02*
X104200000Y-94150000D01*
X103725000Y-94800000D02*
X103725000Y-93821093D01*
X103725000Y-93821093D02*
X103705224Y-93821093D01*
X103705224Y-93821093D02*
X103314120Y-93429989D01*
X103314120Y-93429989D02*
X101879989Y-93429989D01*
X101389999Y-92939999D02*
X101389999Y-92155195D01*
X101879989Y-93429989D02*
X101389999Y-92939999D01*
X101389999Y-92155195D02*
X100841474Y-91606670D01*
X100841474Y-91606670D02*
X100841474Y-91448472D01*
X100841474Y-91448472D02*
X100750000Y-91356998D01*
D39*
X100750000Y-91356998D02*
X100703144Y-91310142D01*
X99243002Y-89850000D02*
X100703144Y-91310142D01*
D41*
X98750000Y-89850000D02*
X99243002Y-89850000D01*
X101029989Y-93089120D02*
X101029989Y-92659491D01*
X101029989Y-92659491D02*
X100233109Y-91862611D01*
X103164999Y-93789999D02*
X101730868Y-93789999D01*
X101730868Y-93789999D02*
X101029989Y-93089120D01*
X103164999Y-93789999D02*
X103225000Y-93850000D01*
X103225000Y-93850000D02*
X103225000Y-94800000D01*
D39*
X100541482Y-90158518D02*
X99732964Y-89350000D01*
X99732964Y-89350000D02*
X99325000Y-89350000D01*
D41*
X98750000Y-89350000D02*
X99325000Y-89350000D01*
X103225000Y-94800000D02*
X103225000Y-94175000D01*
X103225000Y-94175000D02*
X103200000Y-94150000D01*
D39*
X95591754Y-86943244D02*
X96730372Y-86943244D01*
X96730372Y-86943244D02*
X96838961Y-86834655D01*
X101029915Y-95850001D02*
X99012002Y-95850001D01*
X99012002Y-95850001D02*
X98303467Y-96558536D01*
X101252816Y-95850001D02*
X102704999Y-95850001D01*
X101252816Y-95850001D02*
X101029915Y-95850001D01*
X102704999Y-95850001D02*
X102725000Y-95830000D01*
D41*
X102725000Y-95830000D02*
X102725000Y-94800000D01*
D39*
X94750000Y-88850000D02*
X94750000Y-87784998D01*
X94750000Y-87784998D02*
X95591754Y-86943244D01*
D41*
X98750000Y-92008680D02*
X98750000Y-91288405D01*
D39*
X98750000Y-93375000D02*
X98759999Y-93365001D01*
D41*
X98750000Y-91288405D02*
X98750000Y-90850000D01*
D39*
X98759999Y-93365001D02*
X98759999Y-91298404D01*
X98759999Y-91298404D02*
X98750000Y-91288405D01*
X98925000Y-93550000D02*
X98750000Y-93375000D01*
D41*
X99225000Y-94800000D02*
X99225000Y-93850000D01*
X99225000Y-93850000D02*
X98925000Y-93550000D01*
X97750000Y-91850000D02*
X97750000Y-92425000D01*
X97750000Y-92425000D02*
X98349992Y-93024992D01*
X98349992Y-93024992D02*
X98349992Y-93556990D01*
X98349992Y-93556990D02*
X98725000Y-93931998D01*
X98725000Y-93931998D02*
X98725000Y-94800000D01*
D39*
X97481998Y-87125000D02*
X97906998Y-86700000D01*
X97906998Y-86700000D02*
X99525000Y-86700000D01*
D41*
X97250000Y-87850000D02*
X97250000Y-87356998D01*
X97250000Y-87356998D02*
X97481998Y-87125000D01*
X100625000Y-86225000D02*
X100115000Y-86225000D01*
X100115000Y-86225000D02*
X99640000Y-86700000D01*
X99640000Y-86700000D02*
X99525000Y-86700000D01*
G36*
X99332000Y-107430117D02*
X99332000Y-107494000D01*
X99484000Y-107646000D01*
X100096000Y-107646000D01*
X100096000Y-107626000D01*
X100404000Y-107626000D01*
X100404000Y-107646000D01*
X100424000Y-107646000D01*
X100424000Y-107954000D01*
X100404000Y-107954000D01*
X100404000Y-108566000D01*
X100556000Y-108718000D01*
X100619883Y-108718000D01*
X100709478Y-108700179D01*
X100731698Y-108727423D01*
X100762868Y-108766469D01*
X100766771Y-108770428D01*
X100766832Y-108770502D01*
X100766901Y-108770559D01*
X100768162Y-108771838D01*
X100788164Y-108791839D01*
X100826722Y-108823511D01*
X100864919Y-108855562D01*
X100867406Y-108856929D01*
X100869602Y-108858733D01*
X100913580Y-108882314D01*
X100957272Y-108906334D01*
X100959978Y-108907192D01*
X100962482Y-108908535D01*
X101010170Y-108923114D01*
X101057729Y-108938201D01*
X101060554Y-108938518D01*
X101063266Y-108939347D01*
X101112843Y-108944383D01*
X101162461Y-108949948D01*
X101168018Y-108949987D01*
X101168116Y-108949997D01*
X101168207Y-108949988D01*
X101170001Y-108950001D01*
X103229999Y-108950001D01*
X103279675Y-108945130D01*
X103329333Y-108940786D01*
X103332058Y-108939994D01*
X103334886Y-108939717D01*
X103382638Y-108925300D01*
X103430537Y-108911384D01*
X103433059Y-108910076D01*
X103435777Y-108909256D01*
X103479774Y-108885862D01*
X103524105Y-108862883D01*
X103526328Y-108861108D01*
X103528830Y-108859778D01*
X103567422Y-108828303D01*
X103606468Y-108797133D01*
X103610427Y-108793230D01*
X103610501Y-108793169D01*
X103610558Y-108793100D01*
X103611837Y-108791839D01*
X103626993Y-108776683D01*
X103605788Y-108846586D01*
X103598065Y-108925000D01*
X103598065Y-109625000D01*
X103605788Y-109703414D01*
X103628660Y-109778814D01*
X103653347Y-109825000D01*
X103628660Y-109871186D01*
X103605788Y-109946586D01*
X103598065Y-110025000D01*
X103598065Y-110725000D01*
X103605788Y-110803414D01*
X103628660Y-110878814D01*
X103653347Y-110925000D01*
X103628660Y-110971186D01*
X103605788Y-111046586D01*
X103598065Y-111125000D01*
X103598065Y-111825000D01*
X103605788Y-111903414D01*
X103628660Y-111978814D01*
X103653347Y-112025000D01*
X103628660Y-112071186D01*
X103605788Y-112146586D01*
X103598065Y-112225000D01*
X103598065Y-112925000D01*
X103605788Y-113003414D01*
X103628660Y-113078814D01*
X103653347Y-113125000D01*
X103628660Y-113171186D01*
X103605788Y-113246586D01*
X103598065Y-113325000D01*
X103598065Y-114025000D01*
X103605788Y-114103414D01*
X103628660Y-114178814D01*
X103653347Y-114225000D01*
X103628660Y-114271186D01*
X103605788Y-114346586D01*
X103598065Y-114425000D01*
X103598065Y-115125000D01*
X103605788Y-115203414D01*
X103628660Y-115278814D01*
X103653347Y-115325000D01*
X103628660Y-115371186D01*
X103605788Y-115446586D01*
X103598065Y-115525000D01*
X103598065Y-116225000D01*
X103605788Y-116303414D01*
X103628660Y-116378814D01*
X103653347Y-116425000D01*
X103628660Y-116471186D01*
X103605788Y-116546586D01*
X103598065Y-116625000D01*
X103598065Y-117267093D01*
X103527735Y-117337423D01*
X103461197Y-117437004D01*
X103415365Y-117547653D01*
X103392000Y-117665117D01*
X103392000Y-117769000D01*
X103544000Y-117921000D01*
X104746000Y-117921000D01*
X104746000Y-117901000D01*
X105054000Y-117901000D01*
X105054000Y-117921000D01*
X106256000Y-117921000D01*
X106408000Y-117769000D01*
X106408000Y-117665117D01*
X106384635Y-117547653D01*
X106378406Y-117532616D01*
X106399334Y-117530785D01*
X106402059Y-117529993D01*
X106404887Y-117529716D01*
X106452639Y-117515299D01*
X106500538Y-117501383D01*
X106503060Y-117500075D01*
X106505778Y-117499255D01*
X106549775Y-117475861D01*
X106594106Y-117452882D01*
X106596329Y-117451107D01*
X106598831Y-117449777D01*
X106637423Y-117418302D01*
X106658807Y-117401231D01*
X106685024Y-117467448D01*
X106770012Y-117599323D01*
X106878995Y-117712179D01*
X107007824Y-117801717D01*
X107151590Y-117864527D01*
X107279169Y-117892577D01*
X106995627Y-118035804D01*
X106266406Y-118239406D01*
X106256000Y-118229000D01*
X105054000Y-118229000D01*
X105054000Y-118249000D01*
X104746000Y-118249000D01*
X104746000Y-118229000D01*
X103544000Y-118229000D01*
X103392000Y-118381000D01*
X103392000Y-118484883D01*
X103415365Y-118602347D01*
X103461197Y-118712996D01*
X103527735Y-118812577D01*
X103612422Y-118897264D01*
X103700187Y-118955907D01*
X103359224Y-119051106D01*
X99594869Y-119340757D01*
X95845945Y-118893725D01*
X95640386Y-118826935D01*
X96300000Y-118826935D01*
X96378414Y-118819212D01*
X96453814Y-118796340D01*
X96523303Y-118759197D01*
X96584211Y-118709211D01*
X96634197Y-118648303D01*
X96671340Y-118578814D01*
X96694212Y-118503414D01*
X96701935Y-118425000D01*
X96701935Y-117725000D01*
X96694212Y-117646586D01*
X96671340Y-117571186D01*
X96646653Y-117525000D01*
X96671340Y-117478814D01*
X96694212Y-117403414D01*
X96701935Y-117325000D01*
X96701935Y-116625000D01*
X96694212Y-116546586D01*
X96671340Y-116471186D01*
X96646653Y-116425000D01*
X96671340Y-116378814D01*
X96694212Y-116303414D01*
X96701935Y-116225000D01*
X96701935Y-115525000D01*
X96694212Y-115446586D01*
X96671340Y-115371186D01*
X96646653Y-115325000D01*
X96671340Y-115278814D01*
X96694212Y-115203414D01*
X96701935Y-115125000D01*
X96701935Y-114425000D01*
X96694212Y-114346586D01*
X96671340Y-114271186D01*
X96646653Y-114225000D01*
X96671340Y-114178814D01*
X96694212Y-114103414D01*
X96701935Y-114025000D01*
X96701935Y-113325000D01*
X96694212Y-113246586D01*
X96671340Y-113171186D01*
X96646653Y-113125000D01*
X96671340Y-113078814D01*
X96694212Y-113003414D01*
X96701935Y-112925000D01*
X96701935Y-112282907D01*
X96772265Y-112212577D01*
X96838803Y-112112996D01*
X96884635Y-112002347D01*
X96908000Y-111884883D01*
X96908000Y-111781000D01*
X96756000Y-111629000D01*
X95554000Y-111629000D01*
X95554000Y-111649000D01*
X95246000Y-111649000D01*
X95246000Y-111629000D01*
X94044000Y-111629000D01*
X93892000Y-111781000D01*
X93892000Y-111884883D01*
X93915365Y-112002347D01*
X93961197Y-112112996D01*
X94027735Y-112212577D01*
X94098065Y-112282907D01*
X94098065Y-112925000D01*
X94105788Y-113003414D01*
X94128660Y-113078814D01*
X94153347Y-113125000D01*
X94128660Y-113171186D01*
X94120424Y-113198338D01*
X94119462Y-113198617D01*
X94116940Y-113199925D01*
X94114222Y-113200745D01*
X94070205Y-113224150D01*
X94025895Y-113247118D01*
X94023674Y-113248891D01*
X94021169Y-113250223D01*
X93984805Y-113279880D01*
X93963814Y-113268660D01*
X93888414Y-113245788D01*
X93810000Y-113238065D01*
X93190000Y-113238065D01*
X93118000Y-113245156D01*
X93118000Y-113095998D01*
X92966002Y-113095998D01*
X93118000Y-112944000D01*
X93118000Y-112880117D01*
X93094635Y-112762653D01*
X93048803Y-112652004D01*
X92982265Y-112552423D01*
X92897578Y-112467736D01*
X92871034Y-112450000D01*
X93000000Y-112450000D01*
X93126252Y-112437621D01*
X93247696Y-112400955D01*
X93321082Y-112361935D01*
X93360000Y-112361935D01*
X93438414Y-112354212D01*
X93513814Y-112331340D01*
X93583303Y-112294197D01*
X93644211Y-112244211D01*
X93694197Y-112183303D01*
X93731340Y-112113814D01*
X93754212Y-112038414D01*
X93761935Y-111960000D01*
X93761935Y-111440000D01*
X93754212Y-111361586D01*
X93735530Y-111300000D01*
X93754212Y-111238414D01*
X93761935Y-111160000D01*
X93761935Y-110681173D01*
X93940381Y-110859619D01*
X93948923Y-110866636D01*
X93915365Y-110947653D01*
X93892000Y-111065117D01*
X93892000Y-111169000D01*
X94044000Y-111321000D01*
X95246000Y-111321000D01*
X95246000Y-111301000D01*
X95554000Y-111301000D01*
X95554000Y-111321000D01*
X96756000Y-111321000D01*
X96908000Y-111169000D01*
X96908000Y-111065117D01*
X96884635Y-110947653D01*
X96838803Y-110837004D01*
X96772265Y-110737423D01*
X96701935Y-110667093D01*
X96701935Y-110082907D01*
X96772265Y-110012577D01*
X96838803Y-109912996D01*
X96884635Y-109802347D01*
X96908000Y-109684883D01*
X96908000Y-109581000D01*
X96756000Y-109429000D01*
X95554000Y-109429000D01*
X95554000Y-109449000D01*
X95246000Y-109449000D01*
X95246000Y-109429000D01*
X95226000Y-109429000D01*
X95226000Y-109121000D01*
X95246000Y-109121000D01*
X95246000Y-109101000D01*
X95554000Y-109101000D01*
X95554000Y-109121000D01*
X96756000Y-109121000D01*
X96785340Y-109091660D01*
X97429038Y-109091660D01*
X97474982Y-109087155D01*
X97521014Y-109083128D01*
X97523539Y-109082395D01*
X97526155Y-109082138D01*
X97570361Y-109068791D01*
X97614722Y-109055903D01*
X97617057Y-109054693D01*
X97619573Y-109053933D01*
X97660323Y-109032266D01*
X97701358Y-109010996D01*
X97703414Y-109009354D01*
X97705734Y-109008121D01*
X97741523Y-108978932D01*
X97777620Y-108950115D01*
X97781278Y-108946508D01*
X97781355Y-108946445D01*
X97781414Y-108946374D01*
X97782591Y-108945213D01*
X98621804Y-108106000D01*
X99332000Y-108106000D01*
X99332000Y-108169883D01*
X99355365Y-108287347D01*
X99401197Y-108397996D01*
X99467735Y-108497577D01*
X99552422Y-108582264D01*
X99652004Y-108648803D01*
X99762653Y-108694635D01*
X99880117Y-108718000D01*
X99944000Y-108718000D01*
X100096000Y-108566000D01*
X100096000Y-107954000D01*
X99484000Y-107954000D01*
X99332000Y-108106000D01*
X98621804Y-108106000D01*
X99078553Y-107649251D01*
X99107844Y-107613592D01*
X99137557Y-107578182D01*
X99138825Y-107575875D01*
X99140492Y-107573846D01*
X99162299Y-107533177D01*
X99184568Y-107492669D01*
X99185363Y-107490162D01*
X99186605Y-107487846D01*
X99200107Y-107443683D01*
X99214074Y-107399654D01*
X99214367Y-107397043D01*
X99215136Y-107394527D01*
X99219462Y-107351935D01*
X99347551Y-107351935D01*
X99332000Y-107430117D01*
X99332000Y-107430117D01*
G37*
X99332000Y-107430117D02*
X99332000Y-107494000D01*
X99484000Y-107646000D01*
X100096000Y-107646000D01*
X100096000Y-107626000D01*
X100404000Y-107626000D01*
X100404000Y-107646000D01*
X100424000Y-107646000D01*
X100424000Y-107954000D01*
X100404000Y-107954000D01*
X100404000Y-108566000D01*
X100556000Y-108718000D01*
X100619883Y-108718000D01*
X100709478Y-108700179D01*
X100731698Y-108727423D01*
X100762868Y-108766469D01*
X100766771Y-108770428D01*
X100766832Y-108770502D01*
X100766901Y-108770559D01*
X100768162Y-108771838D01*
X100788164Y-108791839D01*
X100826722Y-108823511D01*
X100864919Y-108855562D01*
X100867406Y-108856929D01*
X100869602Y-108858733D01*
X100913580Y-108882314D01*
X100957272Y-108906334D01*
X100959978Y-108907192D01*
X100962482Y-108908535D01*
X101010170Y-108923114D01*
X101057729Y-108938201D01*
X101060554Y-108938518D01*
X101063266Y-108939347D01*
X101112843Y-108944383D01*
X101162461Y-108949948D01*
X101168018Y-108949987D01*
X101168116Y-108949997D01*
X101168207Y-108949988D01*
X101170001Y-108950001D01*
X103229999Y-108950001D01*
X103279675Y-108945130D01*
X103329333Y-108940786D01*
X103332058Y-108939994D01*
X103334886Y-108939717D01*
X103382638Y-108925300D01*
X103430537Y-108911384D01*
X103433059Y-108910076D01*
X103435777Y-108909256D01*
X103479774Y-108885862D01*
X103524105Y-108862883D01*
X103526328Y-108861108D01*
X103528830Y-108859778D01*
X103567422Y-108828303D01*
X103606468Y-108797133D01*
X103610427Y-108793230D01*
X103610501Y-108793169D01*
X103610558Y-108793100D01*
X103611837Y-108791839D01*
X103626993Y-108776683D01*
X103605788Y-108846586D01*
X103598065Y-108925000D01*
X103598065Y-109625000D01*
X103605788Y-109703414D01*
X103628660Y-109778814D01*
X103653347Y-109825000D01*
X103628660Y-109871186D01*
X103605788Y-109946586D01*
X103598065Y-110025000D01*
X103598065Y-110725000D01*
X103605788Y-110803414D01*
X103628660Y-110878814D01*
X103653347Y-110925000D01*
X103628660Y-110971186D01*
X103605788Y-111046586D01*
X103598065Y-111125000D01*
X103598065Y-111825000D01*
X103605788Y-111903414D01*
X103628660Y-111978814D01*
X103653347Y-112025000D01*
X103628660Y-112071186D01*
X103605788Y-112146586D01*
X103598065Y-112225000D01*
X103598065Y-112925000D01*
X103605788Y-113003414D01*
X103628660Y-113078814D01*
X103653347Y-113125000D01*
X103628660Y-113171186D01*
X103605788Y-113246586D01*
X103598065Y-113325000D01*
X103598065Y-114025000D01*
X103605788Y-114103414D01*
X103628660Y-114178814D01*
X103653347Y-114225000D01*
X103628660Y-114271186D01*
X103605788Y-114346586D01*
X103598065Y-114425000D01*
X103598065Y-115125000D01*
X103605788Y-115203414D01*
X103628660Y-115278814D01*
X103653347Y-115325000D01*
X103628660Y-115371186D01*
X103605788Y-115446586D01*
X103598065Y-115525000D01*
X103598065Y-116225000D01*
X103605788Y-116303414D01*
X103628660Y-116378814D01*
X103653347Y-116425000D01*
X103628660Y-116471186D01*
X103605788Y-116546586D01*
X103598065Y-116625000D01*
X103598065Y-117267093D01*
X103527735Y-117337423D01*
X103461197Y-117437004D01*
X103415365Y-117547653D01*
X103392000Y-117665117D01*
X103392000Y-117769000D01*
X103544000Y-117921000D01*
X104746000Y-117921000D01*
X104746000Y-117901000D01*
X105054000Y-117901000D01*
X105054000Y-117921000D01*
X106256000Y-117921000D01*
X106408000Y-117769000D01*
X106408000Y-117665117D01*
X106384635Y-117547653D01*
X106378406Y-117532616D01*
X106399334Y-117530785D01*
X106402059Y-117529993D01*
X106404887Y-117529716D01*
X106452639Y-117515299D01*
X106500538Y-117501383D01*
X106503060Y-117500075D01*
X106505778Y-117499255D01*
X106549775Y-117475861D01*
X106594106Y-117452882D01*
X106596329Y-117451107D01*
X106598831Y-117449777D01*
X106637423Y-117418302D01*
X106658807Y-117401231D01*
X106685024Y-117467448D01*
X106770012Y-117599323D01*
X106878995Y-117712179D01*
X107007824Y-117801717D01*
X107151590Y-117864527D01*
X107279169Y-117892577D01*
X106995627Y-118035804D01*
X106266406Y-118239406D01*
X106256000Y-118229000D01*
X105054000Y-118229000D01*
X105054000Y-118249000D01*
X104746000Y-118249000D01*
X104746000Y-118229000D01*
X103544000Y-118229000D01*
X103392000Y-118381000D01*
X103392000Y-118484883D01*
X103415365Y-118602347D01*
X103461197Y-118712996D01*
X103527735Y-118812577D01*
X103612422Y-118897264D01*
X103700187Y-118955907D01*
X103359224Y-119051106D01*
X99594869Y-119340757D01*
X95845945Y-118893725D01*
X95640386Y-118826935D01*
X96300000Y-118826935D01*
X96378414Y-118819212D01*
X96453814Y-118796340D01*
X96523303Y-118759197D01*
X96584211Y-118709211D01*
X96634197Y-118648303D01*
X96671340Y-118578814D01*
X96694212Y-118503414D01*
X96701935Y-118425000D01*
X96701935Y-117725000D01*
X96694212Y-117646586D01*
X96671340Y-117571186D01*
X96646653Y-117525000D01*
X96671340Y-117478814D01*
X96694212Y-117403414D01*
X96701935Y-117325000D01*
X96701935Y-116625000D01*
X96694212Y-116546586D01*
X96671340Y-116471186D01*
X96646653Y-116425000D01*
X96671340Y-116378814D01*
X96694212Y-116303414D01*
X96701935Y-116225000D01*
X96701935Y-115525000D01*
X96694212Y-115446586D01*
X96671340Y-115371186D01*
X96646653Y-115325000D01*
X96671340Y-115278814D01*
X96694212Y-115203414D01*
X96701935Y-115125000D01*
X96701935Y-114425000D01*
X96694212Y-114346586D01*
X96671340Y-114271186D01*
X96646653Y-114225000D01*
X96671340Y-114178814D01*
X96694212Y-114103414D01*
X96701935Y-114025000D01*
X96701935Y-113325000D01*
X96694212Y-113246586D01*
X96671340Y-113171186D01*
X96646653Y-113125000D01*
X96671340Y-113078814D01*
X96694212Y-113003414D01*
X96701935Y-112925000D01*
X96701935Y-112282907D01*
X96772265Y-112212577D01*
X96838803Y-112112996D01*
X96884635Y-112002347D01*
X96908000Y-111884883D01*
X96908000Y-111781000D01*
X96756000Y-111629000D01*
X95554000Y-111629000D01*
X95554000Y-111649000D01*
X95246000Y-111649000D01*
X95246000Y-111629000D01*
X94044000Y-111629000D01*
X93892000Y-111781000D01*
X93892000Y-111884883D01*
X93915365Y-112002347D01*
X93961197Y-112112996D01*
X94027735Y-112212577D01*
X94098065Y-112282907D01*
X94098065Y-112925000D01*
X94105788Y-113003414D01*
X94128660Y-113078814D01*
X94153347Y-113125000D01*
X94128660Y-113171186D01*
X94120424Y-113198338D01*
X94119462Y-113198617D01*
X94116940Y-113199925D01*
X94114222Y-113200745D01*
X94070205Y-113224150D01*
X94025895Y-113247118D01*
X94023674Y-113248891D01*
X94021169Y-113250223D01*
X93984805Y-113279880D01*
X93963814Y-113268660D01*
X93888414Y-113245788D01*
X93810000Y-113238065D01*
X93190000Y-113238065D01*
X93118000Y-113245156D01*
X93118000Y-113095998D01*
X92966002Y-113095998D01*
X93118000Y-112944000D01*
X93118000Y-112880117D01*
X93094635Y-112762653D01*
X93048803Y-112652004D01*
X92982265Y-112552423D01*
X92897578Y-112467736D01*
X92871034Y-112450000D01*
X93000000Y-112450000D01*
X93126252Y-112437621D01*
X93247696Y-112400955D01*
X93321082Y-112361935D01*
X93360000Y-112361935D01*
X93438414Y-112354212D01*
X93513814Y-112331340D01*
X93583303Y-112294197D01*
X93644211Y-112244211D01*
X93694197Y-112183303D01*
X93731340Y-112113814D01*
X93754212Y-112038414D01*
X93761935Y-111960000D01*
X93761935Y-111440000D01*
X93754212Y-111361586D01*
X93735530Y-111300000D01*
X93754212Y-111238414D01*
X93761935Y-111160000D01*
X93761935Y-110681173D01*
X93940381Y-110859619D01*
X93948923Y-110866636D01*
X93915365Y-110947653D01*
X93892000Y-111065117D01*
X93892000Y-111169000D01*
X94044000Y-111321000D01*
X95246000Y-111321000D01*
X95246000Y-111301000D01*
X95554000Y-111301000D01*
X95554000Y-111321000D01*
X96756000Y-111321000D01*
X96908000Y-111169000D01*
X96908000Y-111065117D01*
X96884635Y-110947653D01*
X96838803Y-110837004D01*
X96772265Y-110737423D01*
X96701935Y-110667093D01*
X96701935Y-110082907D01*
X96772265Y-110012577D01*
X96838803Y-109912996D01*
X96884635Y-109802347D01*
X96908000Y-109684883D01*
X96908000Y-109581000D01*
X96756000Y-109429000D01*
X95554000Y-109429000D01*
X95554000Y-109449000D01*
X95246000Y-109449000D01*
X95246000Y-109429000D01*
X95226000Y-109429000D01*
X95226000Y-109121000D01*
X95246000Y-109121000D01*
X95246000Y-109101000D01*
X95554000Y-109101000D01*
X95554000Y-109121000D01*
X96756000Y-109121000D01*
X96785340Y-109091660D01*
X97429038Y-109091660D01*
X97474982Y-109087155D01*
X97521014Y-109083128D01*
X97523539Y-109082395D01*
X97526155Y-109082138D01*
X97570361Y-109068791D01*
X97614722Y-109055903D01*
X97617057Y-109054693D01*
X97619573Y-109053933D01*
X97660323Y-109032266D01*
X97701358Y-109010996D01*
X97703414Y-109009354D01*
X97705734Y-109008121D01*
X97741523Y-108978932D01*
X97777620Y-108950115D01*
X97781278Y-108946508D01*
X97781355Y-108946445D01*
X97781414Y-108946374D01*
X97782591Y-108945213D01*
X98621804Y-108106000D01*
X99332000Y-108106000D01*
X99332000Y-108169883D01*
X99355365Y-108287347D01*
X99401197Y-108397996D01*
X99467735Y-108497577D01*
X99552422Y-108582264D01*
X99652004Y-108648803D01*
X99762653Y-108694635D01*
X99880117Y-108718000D01*
X99944000Y-108718000D01*
X100096000Y-108566000D01*
X100096000Y-107954000D01*
X99484000Y-107954000D01*
X99332000Y-108106000D01*
X98621804Y-108106000D01*
X99078553Y-107649251D01*
X99107844Y-107613592D01*
X99137557Y-107578182D01*
X99138825Y-107575875D01*
X99140492Y-107573846D01*
X99162299Y-107533177D01*
X99184568Y-107492669D01*
X99185363Y-107490162D01*
X99186605Y-107487846D01*
X99200107Y-107443683D01*
X99214074Y-107399654D01*
X99214367Y-107397043D01*
X99215136Y-107394527D01*
X99219462Y-107351935D01*
X99347551Y-107351935D01*
X99332000Y-107430117D01*
G36*
X93654000Y-114696000D02*
X93674000Y-114696000D01*
X93674000Y-115004000D01*
X93654000Y-115004000D01*
X93654000Y-115616000D01*
X93806000Y-115768000D01*
X93869883Y-115768000D01*
X93987347Y-115744635D01*
X94097996Y-115698803D01*
X94098065Y-115698757D01*
X94098065Y-116225000D01*
X94105788Y-116303414D01*
X94128660Y-116378814D01*
X94153347Y-116425000D01*
X94128660Y-116471186D01*
X94105788Y-116546586D01*
X94098065Y-116625000D01*
X94098065Y-117269291D01*
X94034192Y-117226208D01*
X93889562Y-117165411D01*
X93735878Y-117133865D01*
X93578994Y-117132769D01*
X93424885Y-117162167D01*
X93279421Y-117220939D01*
X93148142Y-117306845D01*
X93036050Y-117416614D01*
X92947413Y-117546064D01*
X92885609Y-117690266D01*
X92852990Y-117843725D01*
X92851912Y-117920905D01*
X92255248Y-117727037D01*
X92106082Y-117643671D01*
X92216177Y-117624258D01*
X92362447Y-117567524D01*
X92494912Y-117483459D01*
X92608526Y-117375266D01*
X92698962Y-117247066D01*
X92762774Y-117103741D01*
X92797532Y-116950752D01*
X92800034Y-116771556D01*
X92769561Y-116617656D01*
X92709776Y-116472605D01*
X92665000Y-116405212D01*
X92665000Y-116399977D01*
X92684211Y-116384211D01*
X92734197Y-116323303D01*
X92771340Y-116253814D01*
X92794212Y-116178414D01*
X92801935Y-116100000D01*
X92801935Y-115907907D01*
X92872265Y-115837577D01*
X92938803Y-115737996D01*
X92947271Y-115717553D01*
X93012653Y-115744635D01*
X93130117Y-115768000D01*
X93194000Y-115768000D01*
X93346000Y-115616000D01*
X93346000Y-115004000D01*
X93326000Y-115004000D01*
X93326000Y-114696000D01*
X93346000Y-114696000D01*
X93346000Y-114676000D01*
X93654000Y-114676000D01*
X93654000Y-114696000D01*
X93654000Y-114696000D01*
G37*
X93654000Y-114696000D02*
X93674000Y-114696000D01*
X93674000Y-115004000D01*
X93654000Y-115004000D01*
X93654000Y-115616000D01*
X93806000Y-115768000D01*
X93869883Y-115768000D01*
X93987347Y-115744635D01*
X94097996Y-115698803D01*
X94098065Y-115698757D01*
X94098065Y-116225000D01*
X94105788Y-116303414D01*
X94128660Y-116378814D01*
X94153347Y-116425000D01*
X94128660Y-116471186D01*
X94105788Y-116546586D01*
X94098065Y-116625000D01*
X94098065Y-117269291D01*
X94034192Y-117226208D01*
X93889562Y-117165411D01*
X93735878Y-117133865D01*
X93578994Y-117132769D01*
X93424885Y-117162167D01*
X93279421Y-117220939D01*
X93148142Y-117306845D01*
X93036050Y-117416614D01*
X92947413Y-117546064D01*
X92885609Y-117690266D01*
X92852990Y-117843725D01*
X92851912Y-117920905D01*
X92255248Y-117727037D01*
X92106082Y-117643671D01*
X92216177Y-117624258D01*
X92362447Y-117567524D01*
X92494912Y-117483459D01*
X92608526Y-117375266D01*
X92698962Y-117247066D01*
X92762774Y-117103741D01*
X92797532Y-116950752D01*
X92800034Y-116771556D01*
X92769561Y-116617656D01*
X92709776Y-116472605D01*
X92665000Y-116405212D01*
X92665000Y-116399977D01*
X92684211Y-116384211D01*
X92734197Y-116323303D01*
X92771340Y-116253814D01*
X92794212Y-116178414D01*
X92801935Y-116100000D01*
X92801935Y-115907907D01*
X92872265Y-115837577D01*
X92938803Y-115737996D01*
X92947271Y-115717553D01*
X93012653Y-115744635D01*
X93130117Y-115768000D01*
X93194000Y-115768000D01*
X93346000Y-115616000D01*
X93346000Y-115004000D01*
X93326000Y-115004000D01*
X93326000Y-114696000D01*
X93346000Y-114696000D01*
X93346000Y-114676000D01*
X93654000Y-114676000D01*
X93654000Y-114696000D01*
G36*
X91375000Y-115424000D02*
X91125000Y-115424000D01*
X91125000Y-115076000D01*
X91375000Y-115076000D01*
X91375000Y-115424000D01*
X91375000Y-115424000D01*
G37*
X91375000Y-115424000D02*
X91125000Y-115424000D01*
X91125000Y-115076000D01*
X91375000Y-115076000D01*
X91375000Y-115424000D01*
G36*
X92339000Y-115298065D02*
X92108000Y-115298065D01*
X92108000Y-115290117D01*
X92100020Y-115250000D01*
X92108000Y-115209883D01*
X92108000Y-115201935D01*
X92339000Y-115201935D01*
X92339000Y-115298065D01*
X92339000Y-115298065D01*
G37*
X92339000Y-115298065D02*
X92108000Y-115298065D01*
X92108000Y-115290117D01*
X92100020Y-115250000D01*
X92108000Y-115209883D01*
X92108000Y-115201935D01*
X92339000Y-115201935D01*
X92339000Y-115298065D01*
G36*
X113275598Y-111362208D02*
X113267984Y-111371282D01*
X113223497Y-111436315D01*
X113192552Y-111508777D01*
X113190304Y-111519465D01*
X113164737Y-111516665D01*
X113045427Y-111527104D01*
X112930445Y-111560617D01*
X112824212Y-111615919D01*
X112730809Y-111690883D01*
X112583686Y-111866218D01*
X112602421Y-112080360D01*
X113216788Y-112595876D01*
X113229644Y-112580555D01*
X113465585Y-112778534D01*
X113452730Y-112793854D01*
X113468051Y-112806710D01*
X113270072Y-113042651D01*
X113254752Y-113029796D01*
X112755306Y-113625013D01*
X112774041Y-113839155D01*
X112876780Y-113925364D01*
X112968526Y-114002348D01*
X113073528Y-114059954D01*
X113187750Y-114095968D01*
X113224376Y-114099979D01*
X112440104Y-114712720D01*
X112437757Y-114605134D01*
X112411834Y-114488208D01*
X112363599Y-114378585D01*
X112294904Y-114280478D01*
X112217978Y-114170616D01*
X112006283Y-114133289D01*
X111369802Y-114578958D01*
X111381274Y-114595341D01*
X111128974Y-114772002D01*
X111117503Y-114755619D01*
X111101120Y-114767091D01*
X110924459Y-114514791D01*
X110940842Y-114503320D01*
X110480834Y-113846360D01*
X110355811Y-113824315D01*
X110312407Y-113780607D01*
X110213667Y-113714006D01*
X110257974Y-113669699D01*
X110733132Y-113669699D01*
X111193141Y-114326659D01*
X111829622Y-113880990D01*
X111866949Y-113669295D01*
X111790023Y-113559433D01*
X111721328Y-113461326D01*
X111634814Y-113378507D01*
X111533805Y-113314157D01*
X111422183Y-113270750D01*
X111304237Y-113249953D01*
X111184499Y-113252565D01*
X111067572Y-113278487D01*
X110957950Y-113326722D01*
X110770460Y-113458004D01*
X110733132Y-113669699D01*
X110257974Y-113669699D01*
X110641826Y-113285847D01*
X110673513Y-113247271D01*
X110705550Y-113209091D01*
X110706916Y-113206607D01*
X110708721Y-113204409D01*
X110732305Y-113160425D01*
X110756322Y-113116738D01*
X110757181Y-113114030D01*
X110758522Y-113111529D01*
X110773079Y-113063913D01*
X110788189Y-113016281D01*
X110788506Y-113013451D01*
X110789334Y-113010744D01*
X110794365Y-112961217D01*
X110799936Y-112911549D01*
X110799975Y-112905992D01*
X110799985Y-112905894D01*
X110799976Y-112905803D01*
X110799989Y-112904009D01*
X110799989Y-112848650D01*
X111936518Y-112848650D01*
X111946956Y-112967960D01*
X111980470Y-113082940D01*
X112035772Y-113189173D01*
X112110736Y-113282576D01*
X112202482Y-113359560D01*
X112305221Y-113445769D01*
X112519364Y-113427034D01*
X113018810Y-112831818D01*
X112404442Y-112316302D01*
X112190300Y-112335037D01*
X112043177Y-112510371D01*
X111985571Y-112615373D01*
X111949556Y-112729595D01*
X111936518Y-112848650D01*
X110799989Y-112848650D01*
X110799989Y-110861935D01*
X111210000Y-110861935D01*
X111288414Y-110854212D01*
X111363814Y-110831340D01*
X111433303Y-110794197D01*
X111494211Y-110744211D01*
X111538701Y-110690000D01*
X112603390Y-110690000D01*
X113275598Y-111362208D01*
X113275598Y-111362208D01*
G37*
X113275598Y-111362208D02*
X113267984Y-111371282D01*
X113223497Y-111436315D01*
X113192552Y-111508777D01*
X113190304Y-111519465D01*
X113164737Y-111516665D01*
X113045427Y-111527104D01*
X112930445Y-111560617D01*
X112824212Y-111615919D01*
X112730809Y-111690883D01*
X112583686Y-111866218D01*
X112602421Y-112080360D01*
X113216788Y-112595876D01*
X113229644Y-112580555D01*
X113465585Y-112778534D01*
X113452730Y-112793854D01*
X113468051Y-112806710D01*
X113270072Y-113042651D01*
X113254752Y-113029796D01*
X112755306Y-113625013D01*
X112774041Y-113839155D01*
X112876780Y-113925364D01*
X112968526Y-114002348D01*
X113073528Y-114059954D01*
X113187750Y-114095968D01*
X113224376Y-114099979D01*
X112440104Y-114712720D01*
X112437757Y-114605134D01*
X112411834Y-114488208D01*
X112363599Y-114378585D01*
X112294904Y-114280478D01*
X112217978Y-114170616D01*
X112006283Y-114133289D01*
X111369802Y-114578958D01*
X111381274Y-114595341D01*
X111128974Y-114772002D01*
X111117503Y-114755619D01*
X111101120Y-114767091D01*
X110924459Y-114514791D01*
X110940842Y-114503320D01*
X110480834Y-113846360D01*
X110355811Y-113824315D01*
X110312407Y-113780607D01*
X110213667Y-113714006D01*
X110257974Y-113669699D01*
X110733132Y-113669699D01*
X111193141Y-114326659D01*
X111829622Y-113880990D01*
X111866949Y-113669295D01*
X111790023Y-113559433D01*
X111721328Y-113461326D01*
X111634814Y-113378507D01*
X111533805Y-113314157D01*
X111422183Y-113270750D01*
X111304237Y-113249953D01*
X111184499Y-113252565D01*
X111067572Y-113278487D01*
X110957950Y-113326722D01*
X110770460Y-113458004D01*
X110733132Y-113669699D01*
X110257974Y-113669699D01*
X110641826Y-113285847D01*
X110673513Y-113247271D01*
X110705550Y-113209091D01*
X110706916Y-113206607D01*
X110708721Y-113204409D01*
X110732305Y-113160425D01*
X110756322Y-113116738D01*
X110757181Y-113114030D01*
X110758522Y-113111529D01*
X110773079Y-113063913D01*
X110788189Y-113016281D01*
X110788506Y-113013451D01*
X110789334Y-113010744D01*
X110794365Y-112961217D01*
X110799936Y-112911549D01*
X110799975Y-112905992D01*
X110799985Y-112905894D01*
X110799976Y-112905803D01*
X110799989Y-112904009D01*
X110799989Y-112848650D01*
X111936518Y-112848650D01*
X111946956Y-112967960D01*
X111980470Y-113082940D01*
X112035772Y-113189173D01*
X112110736Y-113282576D01*
X112202482Y-113359560D01*
X112305221Y-113445769D01*
X112519364Y-113427034D01*
X113018810Y-112831818D01*
X112404442Y-112316302D01*
X112190300Y-112335037D01*
X112043177Y-112510371D01*
X111985571Y-112615373D01*
X111949556Y-112729595D01*
X111936518Y-112848650D01*
X110799989Y-112848650D01*
X110799989Y-110861935D01*
X111210000Y-110861935D01*
X111288414Y-110854212D01*
X111363814Y-110831340D01*
X111433303Y-110794197D01*
X111494211Y-110744211D01*
X111538701Y-110690000D01*
X112603390Y-110690000D01*
X113275598Y-111362208D01*
G36*
X107024000Y-112406000D02*
X107044000Y-112406000D01*
X107044000Y-112714000D01*
X107024000Y-112714000D01*
X107024000Y-113326000D01*
X107175000Y-113477000D01*
X107175000Y-114061325D01*
X106976324Y-114260000D01*
X106165361Y-114260000D01*
X106146653Y-114225000D01*
X106171340Y-114178814D01*
X106194212Y-114103414D01*
X106201935Y-114025000D01*
X106201935Y-113361984D01*
X106272004Y-113408803D01*
X106382653Y-113454635D01*
X106500117Y-113478000D01*
X106564000Y-113478000D01*
X106716000Y-113326000D01*
X106716000Y-112714000D01*
X106696000Y-112714000D01*
X106696000Y-112406000D01*
X106716000Y-112406000D01*
X106716000Y-112386000D01*
X107024000Y-112386000D01*
X107024000Y-112406000D01*
X107024000Y-112406000D01*
G37*
X107024000Y-112406000D02*
X107044000Y-112406000D01*
X107044000Y-112714000D01*
X107024000Y-112714000D01*
X107024000Y-113326000D01*
X107175000Y-113477000D01*
X107175000Y-114061325D01*
X106976324Y-114260000D01*
X106165361Y-114260000D01*
X106146653Y-114225000D01*
X106171340Y-114178814D01*
X106194212Y-114103414D01*
X106201935Y-114025000D01*
X106201935Y-113361984D01*
X106272004Y-113408803D01*
X106382653Y-113454635D01*
X106500117Y-113478000D01*
X106564000Y-113478000D01*
X106716000Y-113326000D01*
X106716000Y-112714000D01*
X106696000Y-112714000D01*
X106696000Y-112406000D01*
X106716000Y-112406000D01*
X106716000Y-112386000D01*
X107024000Y-112386000D01*
X107024000Y-112406000D01*
G36*
X92354000Y-113096000D02*
X92374000Y-113096000D01*
X92374000Y-113404000D01*
X92354000Y-113404000D01*
X92354000Y-113424000D01*
X92046000Y-113424000D01*
X92046000Y-113404000D01*
X92026000Y-113404000D01*
X92026000Y-113096000D01*
X92046000Y-113096000D01*
X92046000Y-113076000D01*
X92354000Y-113076000D01*
X92354000Y-113096000D01*
X92354000Y-113096000D01*
G37*
X92354000Y-113096000D02*
X92374000Y-113096000D01*
X92374000Y-113404000D01*
X92354000Y-113404000D01*
X92354000Y-113424000D01*
X92046000Y-113424000D01*
X92046000Y-113404000D01*
X92026000Y-113404000D01*
X92026000Y-113096000D01*
X92046000Y-113096000D01*
X92046000Y-113076000D01*
X92354000Y-113076000D01*
X92354000Y-113096000D01*
G36*
X88679000Y-110946000D02*
X88699000Y-110946000D01*
X88699000Y-111254000D01*
X88679000Y-111254000D01*
X88679000Y-112009000D01*
X88554000Y-112134000D01*
X88554000Y-112297809D01*
X88551197Y-112302004D01*
X88505365Y-112412653D01*
X88482000Y-112530117D01*
X88482000Y-112594000D01*
X88554000Y-112666000D01*
X88554000Y-112746000D01*
X88769000Y-112746000D01*
X88831000Y-112808000D01*
X89109883Y-112808000D01*
X89227347Y-112784635D01*
X89337996Y-112738803D01*
X89357157Y-112726000D01*
X89554000Y-112726000D01*
X89554000Y-112746000D01*
X89574000Y-112746000D01*
X89574000Y-113054000D01*
X89554000Y-113054000D01*
X89554000Y-113074000D01*
X89246000Y-113074000D01*
X89246000Y-113054000D01*
X88554000Y-113054000D01*
X88554000Y-113074000D01*
X88257794Y-113074000D01*
X88249335Y-113057680D01*
X88247695Y-113055625D01*
X88246805Y-113053952D01*
X88247532Y-113050752D01*
X88250034Y-112871556D01*
X88234400Y-112792600D01*
X88371000Y-112656000D01*
X88371000Y-111254000D01*
X88351000Y-111254000D01*
X88351000Y-110946000D01*
X88371000Y-110946000D01*
X88371000Y-110926000D01*
X88679000Y-110926000D01*
X88679000Y-110946000D01*
X88679000Y-110946000D01*
G37*
X88679000Y-110946000D02*
X88699000Y-110946000D01*
X88699000Y-111254000D01*
X88679000Y-111254000D01*
X88679000Y-112009000D01*
X88554000Y-112134000D01*
X88554000Y-112297809D01*
X88551197Y-112302004D01*
X88505365Y-112412653D01*
X88482000Y-112530117D01*
X88482000Y-112594000D01*
X88554000Y-112666000D01*
X88554000Y-112746000D01*
X88769000Y-112746000D01*
X88831000Y-112808000D01*
X89109883Y-112808000D01*
X89227347Y-112784635D01*
X89337996Y-112738803D01*
X89357157Y-112726000D01*
X89554000Y-112726000D01*
X89554000Y-112746000D01*
X89574000Y-112746000D01*
X89574000Y-113054000D01*
X89554000Y-113054000D01*
X89554000Y-113074000D01*
X89246000Y-113074000D01*
X89246000Y-113054000D01*
X88554000Y-113054000D01*
X88554000Y-113074000D01*
X88257794Y-113074000D01*
X88249335Y-113057680D01*
X88247695Y-113055625D01*
X88246805Y-113053952D01*
X88247532Y-113050752D01*
X88250034Y-112871556D01*
X88234400Y-112792600D01*
X88371000Y-112656000D01*
X88371000Y-111254000D01*
X88351000Y-111254000D01*
X88351000Y-110946000D01*
X88371000Y-110946000D01*
X88371000Y-110926000D01*
X88679000Y-110926000D01*
X88679000Y-110946000D01*
G36*
X113439000Y-105561000D02*
X116561000Y-105561000D01*
X116561000Y-105541000D01*
X116869000Y-105541000D01*
X116869000Y-105561000D01*
X116889000Y-105561000D01*
X116889000Y-105869000D01*
X116869000Y-105869000D01*
X116869000Y-106541000D01*
X117021000Y-106693000D01*
X118063514Y-106693000D01*
X117672537Y-107868320D01*
X115807668Y-111151083D01*
X115308801Y-111729026D01*
X115335908Y-111665551D01*
X115352122Y-111588445D01*
X115352982Y-111509656D01*
X115338454Y-111432214D01*
X115309097Y-111359094D01*
X115266039Y-111293107D01*
X115210935Y-111236787D01*
X114444891Y-110593999D01*
X114379858Y-110549512D01*
X114307396Y-110518567D01*
X114230289Y-110502353D01*
X114151501Y-110501493D01*
X114074059Y-110516021D01*
X114000939Y-110545378D01*
X113991971Y-110551229D01*
X113208904Y-109768162D01*
X113170320Y-109736469D01*
X113132148Y-109704439D01*
X113129661Y-109703072D01*
X113127465Y-109701268D01*
X113083468Y-109677677D01*
X113039795Y-109653667D01*
X113037091Y-109652809D01*
X113034586Y-109651466D01*
X112986883Y-109636882D01*
X112939338Y-109621800D01*
X112936513Y-109621483D01*
X112933801Y-109620654D01*
X112884224Y-109615618D01*
X112834606Y-109610053D01*
X112829049Y-109610014D01*
X112828951Y-109610004D01*
X112828860Y-109610013D01*
X112827066Y-109610000D01*
X111607010Y-109610000D01*
X111611935Y-109560000D01*
X111611935Y-108940000D01*
X111604212Y-108861586D01*
X111581340Y-108786186D01*
X111544197Y-108716697D01*
X111494211Y-108655789D01*
X111440000Y-108611299D01*
X111440000Y-108300000D01*
X111435129Y-108250324D01*
X111430785Y-108200666D01*
X111429993Y-108197941D01*
X111429716Y-108195113D01*
X111415285Y-108147315D01*
X111401382Y-108099462D01*
X111400077Y-108096944D01*
X111399255Y-108094222D01*
X111375842Y-108050190D01*
X111352882Y-108005894D01*
X111351107Y-108003671D01*
X111349777Y-108001169D01*
X111318302Y-107962577D01*
X111287132Y-107923531D01*
X111283229Y-107919572D01*
X111283168Y-107919498D01*
X111283099Y-107919441D01*
X111281838Y-107918162D01*
X111239999Y-107876323D01*
X111239999Y-106260507D01*
X111240365Y-106262347D01*
X111286197Y-106372996D01*
X111352736Y-106472578D01*
X111437423Y-106557265D01*
X111537004Y-106623803D01*
X111647653Y-106669635D01*
X111765117Y-106693000D01*
X112979000Y-106693000D01*
X113131000Y-106541000D01*
X113131000Y-105869000D01*
X113439000Y-105869000D01*
X113439000Y-106541000D01*
X113591000Y-106693000D01*
X114207038Y-106693000D01*
X114119453Y-106820915D01*
X114042197Y-107001167D01*
X114001423Y-107192992D01*
X113998685Y-107389083D01*
X114034087Y-107581971D01*
X114106280Y-107764310D01*
X114212514Y-107929154D01*
X114348744Y-108070223D01*
X114509780Y-108182146D01*
X114689488Y-108260659D01*
X114881023Y-108302770D01*
X115077090Y-108306877D01*
X115270221Y-108272823D01*
X115453059Y-108201905D01*
X115618641Y-108096824D01*
X115760658Y-107961583D01*
X115873702Y-107801332D01*
X115953468Y-107622176D01*
X115996916Y-107430940D01*
X116000043Y-107206945D01*
X115961952Y-107014570D01*
X115887220Y-106833257D01*
X115794034Y-106693000D01*
X116409000Y-106693000D01*
X116561000Y-106541000D01*
X116561000Y-105869000D01*
X113439000Y-105869000D01*
X113131000Y-105869000D01*
X113111000Y-105869000D01*
X113111000Y-105561000D01*
X113131000Y-105561000D01*
X113131000Y-105541000D01*
X113439000Y-105541000D01*
X113439000Y-105561000D01*
X113439000Y-105561000D01*
G37*
X113439000Y-105561000D02*
X116561000Y-105561000D01*
X116561000Y-105541000D01*
X116869000Y-105541000D01*
X116869000Y-105561000D01*
X116889000Y-105561000D01*
X116889000Y-105869000D01*
X116869000Y-105869000D01*
X116869000Y-106541000D01*
X117021000Y-106693000D01*
X118063514Y-106693000D01*
X117672537Y-107868320D01*
X115807668Y-111151083D01*
X115308801Y-111729026D01*
X115335908Y-111665551D01*
X115352122Y-111588445D01*
X115352982Y-111509656D01*
X115338454Y-111432214D01*
X115309097Y-111359094D01*
X115266039Y-111293107D01*
X115210935Y-111236787D01*
X114444891Y-110593999D01*
X114379858Y-110549512D01*
X114307396Y-110518567D01*
X114230289Y-110502353D01*
X114151501Y-110501493D01*
X114074059Y-110516021D01*
X114000939Y-110545378D01*
X113991971Y-110551229D01*
X113208904Y-109768162D01*
X113170320Y-109736469D01*
X113132148Y-109704439D01*
X113129661Y-109703072D01*
X113127465Y-109701268D01*
X113083468Y-109677677D01*
X113039795Y-109653667D01*
X113037091Y-109652809D01*
X113034586Y-109651466D01*
X112986883Y-109636882D01*
X112939338Y-109621800D01*
X112936513Y-109621483D01*
X112933801Y-109620654D01*
X112884224Y-109615618D01*
X112834606Y-109610053D01*
X112829049Y-109610014D01*
X112828951Y-109610004D01*
X112828860Y-109610013D01*
X112827066Y-109610000D01*
X111607010Y-109610000D01*
X111611935Y-109560000D01*
X111611935Y-108940000D01*
X111604212Y-108861586D01*
X111581340Y-108786186D01*
X111544197Y-108716697D01*
X111494211Y-108655789D01*
X111440000Y-108611299D01*
X111440000Y-108300000D01*
X111435129Y-108250324D01*
X111430785Y-108200666D01*
X111429993Y-108197941D01*
X111429716Y-108195113D01*
X111415285Y-108147315D01*
X111401382Y-108099462D01*
X111400077Y-108096944D01*
X111399255Y-108094222D01*
X111375842Y-108050190D01*
X111352882Y-108005894D01*
X111351107Y-108003671D01*
X111349777Y-108001169D01*
X111318302Y-107962577D01*
X111287132Y-107923531D01*
X111283229Y-107919572D01*
X111283168Y-107919498D01*
X111283099Y-107919441D01*
X111281838Y-107918162D01*
X111239999Y-107876323D01*
X111239999Y-106260507D01*
X111240365Y-106262347D01*
X111286197Y-106372996D01*
X111352736Y-106472578D01*
X111437423Y-106557265D01*
X111537004Y-106623803D01*
X111647653Y-106669635D01*
X111765117Y-106693000D01*
X112979000Y-106693000D01*
X113131000Y-106541000D01*
X113131000Y-105869000D01*
X113439000Y-105869000D01*
X113439000Y-106541000D01*
X113591000Y-106693000D01*
X114207038Y-106693000D01*
X114119453Y-106820915D01*
X114042197Y-107001167D01*
X114001423Y-107192992D01*
X113998685Y-107389083D01*
X114034087Y-107581971D01*
X114106280Y-107764310D01*
X114212514Y-107929154D01*
X114348744Y-108070223D01*
X114509780Y-108182146D01*
X114689488Y-108260659D01*
X114881023Y-108302770D01*
X115077090Y-108306877D01*
X115270221Y-108272823D01*
X115453059Y-108201905D01*
X115618641Y-108096824D01*
X115760658Y-107961583D01*
X115873702Y-107801332D01*
X115953468Y-107622176D01*
X115996916Y-107430940D01*
X116000043Y-107206945D01*
X115961952Y-107014570D01*
X115887220Y-106833257D01*
X115794034Y-106693000D01*
X116409000Y-106693000D01*
X116561000Y-106541000D01*
X116561000Y-105869000D01*
X113439000Y-105869000D01*
X113131000Y-105869000D01*
X113111000Y-105869000D01*
X113111000Y-105561000D01*
X113131000Y-105561000D01*
X113131000Y-105541000D01*
X113439000Y-105541000D01*
X113439000Y-105561000D01*
G36*
X86148065Y-109392000D02*
X85881000Y-109392000D01*
X85729000Y-109544000D01*
X85729000Y-110946000D01*
X85749000Y-110946000D01*
X85749000Y-111254000D01*
X85729000Y-111254000D01*
X85729000Y-111274000D01*
X85421000Y-111274000D01*
X85421000Y-111254000D01*
X84594000Y-111254000D01*
X84459682Y-111388318D01*
X84169967Y-111022788D01*
X84312447Y-110967524D01*
X84444912Y-110883459D01*
X84489243Y-110841243D01*
X84594000Y-110946000D01*
X85421000Y-110946000D01*
X85421000Y-109544000D01*
X85269000Y-109392000D01*
X84990117Y-109392000D01*
X84939317Y-109402105D01*
X85249762Y-109091660D01*
X86148065Y-109091660D01*
X86148065Y-109392000D01*
X86148065Y-109392000D01*
G37*
X86148065Y-109392000D02*
X85881000Y-109392000D01*
X85729000Y-109544000D01*
X85729000Y-110946000D01*
X85749000Y-110946000D01*
X85749000Y-111254000D01*
X85729000Y-111254000D01*
X85729000Y-111274000D01*
X85421000Y-111274000D01*
X85421000Y-111254000D01*
X84594000Y-111254000D01*
X84459682Y-111388318D01*
X84169967Y-111022788D01*
X84312447Y-110967524D01*
X84444912Y-110883459D01*
X84489243Y-110841243D01*
X84594000Y-110946000D01*
X85421000Y-110946000D01*
X85421000Y-109544000D01*
X85269000Y-109392000D01*
X84990117Y-109392000D01*
X84939317Y-109402105D01*
X85249762Y-109091660D01*
X86148065Y-109091660D01*
X86148065Y-109392000D01*
G36*
X91961586Y-110654212D02*
X92040000Y-110661935D01*
X92438065Y-110661935D01*
X92438065Y-110933605D01*
X92428814Y-110928660D01*
X92353414Y-110905788D01*
X92275000Y-110898065D01*
X91325000Y-110898065D01*
X91246586Y-110905788D01*
X91171186Y-110928660D01*
X91101697Y-110965803D01*
X91040789Y-111015789D01*
X91000000Y-111065490D01*
X90983931Y-111045911D01*
X91032264Y-110997578D01*
X91098803Y-110897996D01*
X91144635Y-110787347D01*
X91168000Y-110669883D01*
X91168000Y-110661935D01*
X91660000Y-110661935D01*
X91738414Y-110654212D01*
X91752299Y-110650000D01*
X91947701Y-110650000D01*
X91961586Y-110654212D01*
X91961586Y-110654212D01*
G37*
X91961586Y-110654212D02*
X92040000Y-110661935D01*
X92438065Y-110661935D01*
X92438065Y-110933605D01*
X92428814Y-110928660D01*
X92353414Y-110905788D01*
X92275000Y-110898065D01*
X91325000Y-110898065D01*
X91246586Y-110905788D01*
X91171186Y-110928660D01*
X91101697Y-110965803D01*
X91040789Y-111015789D01*
X91000000Y-111065490D01*
X90983931Y-111045911D01*
X91032264Y-110997578D01*
X91098803Y-110897996D01*
X91144635Y-110787347D01*
X91168000Y-110669883D01*
X91168000Y-110661935D01*
X91660000Y-110661935D01*
X91738414Y-110654212D01*
X91752299Y-110650000D01*
X91947701Y-110650000D01*
X91961586Y-110654212D01*
G36*
X90404000Y-110146000D02*
X90424000Y-110146000D01*
X90424000Y-110454000D01*
X90404000Y-110454000D01*
X90404000Y-110474000D01*
X90096000Y-110474000D01*
X90096000Y-110454000D01*
X90076000Y-110454000D01*
X90076000Y-110146000D01*
X90096000Y-110146000D01*
X90096000Y-110126000D01*
X90404000Y-110126000D01*
X90404000Y-110146000D01*
X90404000Y-110146000D01*
G37*
X90404000Y-110146000D02*
X90424000Y-110146000D01*
X90424000Y-110454000D01*
X90404000Y-110454000D01*
X90404000Y-110474000D01*
X90096000Y-110474000D01*
X90096000Y-110454000D01*
X90076000Y-110454000D01*
X90076000Y-110146000D01*
X90096000Y-110146000D01*
X90096000Y-110126000D01*
X90404000Y-110126000D01*
X90404000Y-110146000D01*
G36*
X91998083Y-102288241D02*
X91987578Y-102277736D01*
X91887996Y-102211197D01*
X91777347Y-102165365D01*
X91659883Y-102142000D01*
X91131000Y-102142000D01*
X90979000Y-102294000D01*
X90979000Y-105606000D01*
X91131000Y-105758000D01*
X91659883Y-105758000D01*
X91777347Y-105734635D01*
X91887996Y-105688803D01*
X91987578Y-105622264D01*
X92072265Y-105537577D01*
X92096080Y-105501935D01*
X92700000Y-105501935D01*
X92778414Y-105494212D01*
X92791619Y-105490206D01*
X92809919Y-105505562D01*
X92812403Y-105506928D01*
X92814601Y-105508733D01*
X92858585Y-105532317D01*
X92888065Y-105548524D01*
X92888065Y-105882093D01*
X92817736Y-105952422D01*
X92751197Y-106052004D01*
X92705365Y-106162653D01*
X92682000Y-106280117D01*
X92682000Y-106344000D01*
X92834000Y-106496000D01*
X93446000Y-106496000D01*
X93446000Y-106476000D01*
X93754000Y-106476000D01*
X93754000Y-106496000D01*
X94366000Y-106496000D01*
X94518000Y-106344000D01*
X94518000Y-106280117D01*
X94507749Y-106228579D01*
X94590870Y-106162223D01*
X94596586Y-106156586D01*
X95153173Y-105600000D01*
X95800000Y-105600000D01*
X95807612Y-105638268D01*
X95829289Y-105670711D01*
X95861732Y-105692388D01*
X95900000Y-105700000D01*
X96673065Y-105700000D01*
X96673065Y-106950000D01*
X96680788Y-107028414D01*
X96703660Y-107103814D01*
X96733693Y-107160001D01*
X94485251Y-107160001D01*
X94494635Y-107137347D01*
X94518000Y-107019883D01*
X94518000Y-106956000D01*
X94366000Y-106804000D01*
X93754000Y-106804000D01*
X93754000Y-106824000D01*
X93446000Y-106824000D01*
X93446000Y-106804000D01*
X92834000Y-106804000D01*
X92682000Y-106956000D01*
X92682000Y-107019883D01*
X92705365Y-107137347D01*
X92714749Y-107160001D01*
X86600000Y-107160001D01*
X86495113Y-107170285D01*
X86394222Y-107200746D01*
X86301169Y-107250224D01*
X86219498Y-107316833D01*
X86152320Y-107398037D01*
X86102244Y-107490650D01*
X85939623Y-107653271D01*
X85953468Y-107622176D01*
X85996916Y-107430940D01*
X86000043Y-107206945D01*
X85961952Y-107014570D01*
X85887220Y-106833257D01*
X85794034Y-106693000D01*
X86409000Y-106693000D01*
X86561000Y-106541000D01*
X86561000Y-105869000D01*
X86869000Y-105869000D01*
X86869000Y-106541000D01*
X87021000Y-106693000D01*
X88234883Y-106693000D01*
X88352347Y-106669635D01*
X88462996Y-106623803D01*
X88562577Y-106557265D01*
X88647264Y-106472578D01*
X88713803Y-106372996D01*
X88759635Y-106262347D01*
X88783000Y-106144883D01*
X88783000Y-106021000D01*
X88631000Y-105869000D01*
X86869000Y-105869000D01*
X86561000Y-105869000D01*
X83439000Y-105869000D01*
X83439000Y-106541000D01*
X83591000Y-106693000D01*
X84207038Y-106693000D01*
X84119453Y-106820915D01*
X84042197Y-107001167D01*
X84001423Y-107192992D01*
X83998685Y-107389083D01*
X84034087Y-107581971D01*
X84106280Y-107764310D01*
X84157508Y-107843800D01*
X84156796Y-107844380D01*
X84120701Y-107873195D01*
X84117038Y-107876807D01*
X84116967Y-107876865D01*
X84116912Y-107876931D01*
X84115730Y-107878097D01*
X83574240Y-108419587D01*
X83567326Y-108418168D01*
X83410442Y-108417072D01*
X83256333Y-108446470D01*
X83110869Y-108505242D01*
X82979590Y-108591148D01*
X82867498Y-108700917D01*
X82843365Y-108736162D01*
X82013474Y-107121369D01*
X81890641Y-106693000D01*
X82979000Y-106693000D01*
X83131000Y-106541000D01*
X83131000Y-105869000D01*
X83111000Y-105869000D01*
X83111000Y-105561000D01*
X83131000Y-105561000D01*
X83131000Y-105541000D01*
X83439000Y-105541000D01*
X83439000Y-105561000D01*
X86561000Y-105561000D01*
X86561000Y-105541000D01*
X86869000Y-105541000D01*
X86869000Y-105561000D01*
X88551158Y-105561000D01*
X88562422Y-105572264D01*
X88662004Y-105638803D01*
X88772653Y-105684635D01*
X88890117Y-105708000D01*
X88969000Y-105708000D01*
X89121000Y-105556000D01*
X89121000Y-105012500D01*
X89101000Y-105012500D01*
X89101000Y-104851935D01*
X89442000Y-104851935D01*
X89442000Y-105012500D01*
X89429000Y-105012500D01*
X89429000Y-105556000D01*
X89581000Y-105708000D01*
X89659883Y-105708000D01*
X89760717Y-105687943D01*
X89762004Y-105688803D01*
X89872653Y-105734635D01*
X89990117Y-105758000D01*
X90519000Y-105758000D01*
X90671000Y-105606000D01*
X90671000Y-102294000D01*
X90519000Y-102142000D01*
X90073170Y-102142000D01*
X90084984Y-102090000D01*
X92196324Y-102090000D01*
X91998083Y-102288241D01*
X91998083Y-102288241D01*
G37*
X91998083Y-102288241D02*
X91987578Y-102277736D01*
X91887996Y-102211197D01*
X91777347Y-102165365D01*
X91659883Y-102142000D01*
X91131000Y-102142000D01*
X90979000Y-102294000D01*
X90979000Y-105606000D01*
X91131000Y-105758000D01*
X91659883Y-105758000D01*
X91777347Y-105734635D01*
X91887996Y-105688803D01*
X91987578Y-105622264D01*
X92072265Y-105537577D01*
X92096080Y-105501935D01*
X92700000Y-105501935D01*
X92778414Y-105494212D01*
X92791619Y-105490206D01*
X92809919Y-105505562D01*
X92812403Y-105506928D01*
X92814601Y-105508733D01*
X92858585Y-105532317D01*
X92888065Y-105548524D01*
X92888065Y-105882093D01*
X92817736Y-105952422D01*
X92751197Y-106052004D01*
X92705365Y-106162653D01*
X92682000Y-106280117D01*
X92682000Y-106344000D01*
X92834000Y-106496000D01*
X93446000Y-106496000D01*
X93446000Y-106476000D01*
X93754000Y-106476000D01*
X93754000Y-106496000D01*
X94366000Y-106496000D01*
X94518000Y-106344000D01*
X94518000Y-106280117D01*
X94507749Y-106228579D01*
X94590870Y-106162223D01*
X94596586Y-106156586D01*
X95153173Y-105600000D01*
X95800000Y-105600000D01*
X95807612Y-105638268D01*
X95829289Y-105670711D01*
X95861732Y-105692388D01*
X95900000Y-105700000D01*
X96673065Y-105700000D01*
X96673065Y-106950000D01*
X96680788Y-107028414D01*
X96703660Y-107103814D01*
X96733693Y-107160001D01*
X94485251Y-107160001D01*
X94494635Y-107137347D01*
X94518000Y-107019883D01*
X94518000Y-106956000D01*
X94366000Y-106804000D01*
X93754000Y-106804000D01*
X93754000Y-106824000D01*
X93446000Y-106824000D01*
X93446000Y-106804000D01*
X92834000Y-106804000D01*
X92682000Y-106956000D01*
X92682000Y-107019883D01*
X92705365Y-107137347D01*
X92714749Y-107160001D01*
X86600000Y-107160001D01*
X86495113Y-107170285D01*
X86394222Y-107200746D01*
X86301169Y-107250224D01*
X86219498Y-107316833D01*
X86152320Y-107398037D01*
X86102244Y-107490650D01*
X85939623Y-107653271D01*
X85953468Y-107622176D01*
X85996916Y-107430940D01*
X86000043Y-107206945D01*
X85961952Y-107014570D01*
X85887220Y-106833257D01*
X85794034Y-106693000D01*
X86409000Y-106693000D01*
X86561000Y-106541000D01*
X86561000Y-105869000D01*
X86869000Y-105869000D01*
X86869000Y-106541000D01*
X87021000Y-106693000D01*
X88234883Y-106693000D01*
X88352347Y-106669635D01*
X88462996Y-106623803D01*
X88562577Y-106557265D01*
X88647264Y-106472578D01*
X88713803Y-106372996D01*
X88759635Y-106262347D01*
X88783000Y-106144883D01*
X88783000Y-106021000D01*
X88631000Y-105869000D01*
X86869000Y-105869000D01*
X86561000Y-105869000D01*
X83439000Y-105869000D01*
X83439000Y-106541000D01*
X83591000Y-106693000D01*
X84207038Y-106693000D01*
X84119453Y-106820915D01*
X84042197Y-107001167D01*
X84001423Y-107192992D01*
X83998685Y-107389083D01*
X84034087Y-107581971D01*
X84106280Y-107764310D01*
X84157508Y-107843800D01*
X84156796Y-107844380D01*
X84120701Y-107873195D01*
X84117038Y-107876807D01*
X84116967Y-107876865D01*
X84116912Y-107876931D01*
X84115730Y-107878097D01*
X83574240Y-108419587D01*
X83567326Y-108418168D01*
X83410442Y-108417072D01*
X83256333Y-108446470D01*
X83110869Y-108505242D01*
X82979590Y-108591148D01*
X82867498Y-108700917D01*
X82843365Y-108736162D01*
X82013474Y-107121369D01*
X81890641Y-106693000D01*
X82979000Y-106693000D01*
X83131000Y-106541000D01*
X83131000Y-105869000D01*
X83111000Y-105869000D01*
X83111000Y-105561000D01*
X83131000Y-105561000D01*
X83131000Y-105541000D01*
X83439000Y-105541000D01*
X83439000Y-105561000D01*
X86561000Y-105561000D01*
X86561000Y-105541000D01*
X86869000Y-105541000D01*
X86869000Y-105561000D01*
X88551158Y-105561000D01*
X88562422Y-105572264D01*
X88662004Y-105638803D01*
X88772653Y-105684635D01*
X88890117Y-105708000D01*
X88969000Y-105708000D01*
X89121000Y-105556000D01*
X89121000Y-105012500D01*
X89101000Y-105012500D01*
X89101000Y-104851935D01*
X89442000Y-104851935D01*
X89442000Y-105012500D01*
X89429000Y-105012500D01*
X89429000Y-105556000D01*
X89581000Y-105708000D01*
X89659883Y-105708000D01*
X89760717Y-105687943D01*
X89762004Y-105688803D01*
X89872653Y-105734635D01*
X89990117Y-105758000D01*
X90519000Y-105758000D01*
X90671000Y-105606000D01*
X90671000Y-102294000D01*
X90519000Y-102142000D01*
X90073170Y-102142000D01*
X90084984Y-102090000D01*
X92196324Y-102090000D01*
X91998083Y-102288241D01*
G36*
X102504000Y-107646000D02*
X102524000Y-107646000D01*
X102524000Y-107870001D01*
X102176000Y-107870001D01*
X102176000Y-107646000D01*
X102196000Y-107646000D01*
X102196000Y-107626000D01*
X102504000Y-107626000D01*
X102504000Y-107646000D01*
X102504000Y-107646000D01*
G37*
X102504000Y-107646000D02*
X102524000Y-107646000D01*
X102524000Y-107870001D01*
X102176000Y-107870001D01*
X102176000Y-107646000D01*
X102196000Y-107646000D01*
X102196000Y-107626000D01*
X102504000Y-107626000D01*
X102504000Y-107646000D01*
G36*
X107382000Y-104819883D02*
X107405365Y-104937347D01*
X107451197Y-105047996D01*
X107517736Y-105147578D01*
X107590046Y-105219888D01*
X107588065Y-105240000D01*
X107588065Y-105682093D01*
X107517736Y-105752422D01*
X107451197Y-105852004D01*
X107405365Y-105962653D01*
X107382000Y-106080117D01*
X107382000Y-106144000D01*
X107534000Y-106296000D01*
X108146000Y-106296000D01*
X108146000Y-106276000D01*
X108454000Y-106276000D01*
X108454000Y-106296000D01*
X108474000Y-106296000D01*
X108474000Y-106604000D01*
X108454000Y-106604000D01*
X108454000Y-106624000D01*
X108146000Y-106624000D01*
X108146000Y-106604000D01*
X107772961Y-106604000D01*
X107682341Y-106542876D01*
X107537711Y-106482079D01*
X107384027Y-106450533D01*
X107227143Y-106449437D01*
X107106619Y-106472428D01*
X107104826Y-106454141D01*
X107100198Y-106401236D01*
X107099354Y-106398331D01*
X107099059Y-106395323D01*
X107083720Y-106344518D01*
X107068890Y-106293472D01*
X107067497Y-106290785D01*
X107066624Y-106287893D01*
X107041690Y-106240999D01*
X107017245Y-106193840D01*
X107015360Y-106191479D01*
X107013940Y-106188808D01*
X106980347Y-106147619D01*
X106947233Y-106106138D01*
X106943084Y-106101930D01*
X106943013Y-106101843D01*
X106942932Y-106101776D01*
X106941596Y-106100421D01*
X106200000Y-105358825D01*
X106200000Y-104801935D01*
X107382000Y-104801935D01*
X107382000Y-104819883D01*
X107382000Y-104819883D01*
G37*
X107382000Y-104819883D02*
X107405365Y-104937347D01*
X107451197Y-105047996D01*
X107517736Y-105147578D01*
X107590046Y-105219888D01*
X107588065Y-105240000D01*
X107588065Y-105682093D01*
X107517736Y-105752422D01*
X107451197Y-105852004D01*
X107405365Y-105962653D01*
X107382000Y-106080117D01*
X107382000Y-106144000D01*
X107534000Y-106296000D01*
X108146000Y-106296000D01*
X108146000Y-106276000D01*
X108454000Y-106276000D01*
X108454000Y-106296000D01*
X108474000Y-106296000D01*
X108474000Y-106604000D01*
X108454000Y-106604000D01*
X108454000Y-106624000D01*
X108146000Y-106624000D01*
X108146000Y-106604000D01*
X107772961Y-106604000D01*
X107682341Y-106542876D01*
X107537711Y-106482079D01*
X107384027Y-106450533D01*
X107227143Y-106449437D01*
X107106619Y-106472428D01*
X107104826Y-106454141D01*
X107100198Y-106401236D01*
X107099354Y-106398331D01*
X107099059Y-106395323D01*
X107083720Y-106344518D01*
X107068890Y-106293472D01*
X107067497Y-106290785D01*
X107066624Y-106287893D01*
X107041690Y-106240999D01*
X107017245Y-106193840D01*
X107015360Y-106191479D01*
X107013940Y-106188808D01*
X106980347Y-106147619D01*
X106947233Y-106106138D01*
X106943084Y-106101930D01*
X106943013Y-106101843D01*
X106942932Y-106101776D01*
X106941596Y-106100421D01*
X106200000Y-105358825D01*
X106200000Y-104801935D01*
X107382000Y-104801935D01*
X107382000Y-104819883D01*
G36*
X108454000Y-104296000D02*
X108474000Y-104296000D01*
X108474000Y-104604000D01*
X108454000Y-104604000D01*
X108454000Y-104624000D01*
X108146000Y-104624000D01*
X108146000Y-104604000D01*
X108126000Y-104604000D01*
X108126000Y-104296000D01*
X108146000Y-104296000D01*
X108146000Y-104276000D01*
X108454000Y-104276000D01*
X108454000Y-104296000D01*
X108454000Y-104296000D01*
G37*
X108454000Y-104296000D02*
X108474000Y-104296000D01*
X108474000Y-104604000D01*
X108454000Y-104604000D01*
X108454000Y-104624000D01*
X108146000Y-104624000D01*
X108146000Y-104604000D01*
X108126000Y-104604000D01*
X108126000Y-104296000D01*
X108146000Y-104296000D01*
X108146000Y-104276000D01*
X108454000Y-104276000D01*
X108454000Y-104296000D01*
G36*
X93684999Y-104520001D02*
X93426000Y-104520001D01*
X93426000Y-104296000D01*
X93446000Y-104296000D01*
X93446000Y-104276000D01*
X93684999Y-104276000D01*
X93684999Y-104520001D01*
X93684999Y-104520001D01*
G37*
X93684999Y-104520001D02*
X93426000Y-104520001D01*
X93426000Y-104296000D01*
X93446000Y-104296000D01*
X93446000Y-104276000D01*
X93684999Y-104276000D01*
X93684999Y-104520001D01*
G36*
X92549000Y-104348065D02*
X92208000Y-104348065D01*
X92208000Y-104256000D01*
X92201000Y-104249000D01*
X92201000Y-104201935D01*
X92549000Y-104201935D01*
X92549000Y-104348065D01*
X92549000Y-104348065D01*
G37*
X92549000Y-104348065D02*
X92208000Y-104348065D01*
X92208000Y-104256000D01*
X92201000Y-104249000D01*
X92201000Y-104201935D01*
X92549000Y-104201935D01*
X92549000Y-104348065D01*
G36*
X109506000Y-95368000D02*
X109569883Y-95368000D01*
X109687347Y-95344635D01*
X109797996Y-95298803D01*
X109809990Y-95290789D01*
X109809990Y-95486337D01*
X109215903Y-96080423D01*
X109218000Y-96069883D01*
X109218000Y-96006000D01*
X109066000Y-95854000D01*
X108454000Y-95854000D01*
X108454000Y-95874000D01*
X108146000Y-95874000D01*
X108146000Y-95854000D01*
X107534000Y-95854000D01*
X107382000Y-96006000D01*
X107382000Y-96069883D01*
X107405365Y-96187347D01*
X107409805Y-96198065D01*
X107215000Y-96198065D01*
X107215000Y-95688172D01*
X107445586Y-95457586D01*
X107534000Y-95546000D01*
X108146000Y-95546000D01*
X108146000Y-95526000D01*
X108454000Y-95526000D01*
X108454000Y-95546000D01*
X109066000Y-95546000D01*
X109218000Y-95394000D01*
X109218000Y-95368000D01*
X109354002Y-95368000D01*
X109354002Y-95216002D01*
X109506000Y-95368000D01*
X109506000Y-95368000D01*
G37*
X109506000Y-95368000D02*
X109569883Y-95368000D01*
X109687347Y-95344635D01*
X109797996Y-95298803D01*
X109809990Y-95290789D01*
X109809990Y-95486337D01*
X109215903Y-96080423D01*
X109218000Y-96069883D01*
X109218000Y-96006000D01*
X109066000Y-95854000D01*
X108454000Y-95854000D01*
X108454000Y-95874000D01*
X108146000Y-95874000D01*
X108146000Y-95854000D01*
X107534000Y-95854000D01*
X107382000Y-96006000D01*
X107382000Y-96069883D01*
X107405365Y-96187347D01*
X107409805Y-96198065D01*
X107215000Y-96198065D01*
X107215000Y-95688172D01*
X107445586Y-95457586D01*
X107534000Y-95546000D01*
X108146000Y-95546000D01*
X108146000Y-95526000D01*
X108454000Y-95526000D01*
X108454000Y-95546000D01*
X109066000Y-95546000D01*
X109218000Y-95394000D01*
X109218000Y-95368000D01*
X109354002Y-95368000D01*
X109354002Y-95216002D01*
X109506000Y-95368000D01*
G36*
X95518162Y-95181838D02*
X95540273Y-95200000D01*
X94200000Y-95200000D01*
X94154011Y-95204509D01*
X94108024Y-95208532D01*
X94105499Y-95209265D01*
X94102883Y-95209522D01*
X94058677Y-95222869D01*
X94014316Y-95235757D01*
X94011981Y-95236967D01*
X94009465Y-95237727D01*
X93968675Y-95259415D01*
X93927680Y-95280665D01*
X93925627Y-95282304D01*
X93923304Y-95283539D01*
X93903121Y-95300000D01*
X89926000Y-95300000D01*
X89926000Y-94996000D01*
X89946000Y-94996000D01*
X89946000Y-94976000D01*
X90254000Y-94976000D01*
X90254000Y-94996000D01*
X91146000Y-94996000D01*
X91146000Y-94976000D01*
X91454000Y-94976000D01*
X91454000Y-94996000D01*
X92346000Y-94996000D01*
X92346000Y-94976000D01*
X92654000Y-94976000D01*
X92654000Y-94996000D01*
X93546000Y-94996000D01*
X93546000Y-94976000D01*
X93854000Y-94976000D01*
X93854000Y-94996000D01*
X94466000Y-94996000D01*
X94618000Y-94844000D01*
X94618000Y-94780117D01*
X94594635Y-94662653D01*
X94548803Y-94552004D01*
X94482264Y-94452422D01*
X94411935Y-94382093D01*
X94411935Y-94251741D01*
X94423676Y-94240000D01*
X94576324Y-94240000D01*
X95518162Y-95181838D01*
X95518162Y-95181838D01*
G37*
X95518162Y-95181838D02*
X95540273Y-95200000D01*
X94200000Y-95200000D01*
X94154011Y-95204509D01*
X94108024Y-95208532D01*
X94105499Y-95209265D01*
X94102883Y-95209522D01*
X94058677Y-95222869D01*
X94014316Y-95235757D01*
X94011981Y-95236967D01*
X94009465Y-95237727D01*
X93968675Y-95259415D01*
X93927680Y-95280665D01*
X93925627Y-95282304D01*
X93923304Y-95283539D01*
X93903121Y-95300000D01*
X89926000Y-95300000D01*
X89926000Y-94996000D01*
X89946000Y-94996000D01*
X89946000Y-94976000D01*
X90254000Y-94976000D01*
X90254000Y-94996000D01*
X91146000Y-94996000D01*
X91146000Y-94976000D01*
X91454000Y-94976000D01*
X91454000Y-94996000D01*
X92346000Y-94996000D01*
X92346000Y-94976000D01*
X92654000Y-94976000D01*
X92654000Y-94996000D01*
X93546000Y-94996000D01*
X93546000Y-94976000D01*
X93854000Y-94976000D01*
X93854000Y-94996000D01*
X94466000Y-94996000D01*
X94618000Y-94844000D01*
X94618000Y-94780117D01*
X94594635Y-94662653D01*
X94548803Y-94552004D01*
X94482264Y-94452422D01*
X94411935Y-94382093D01*
X94411935Y-94251741D01*
X94423676Y-94240000D01*
X94576324Y-94240000D01*
X95518162Y-95181838D01*
G36*
X103889852Y-81050117D02*
X107496489Y-82166557D01*
X110817587Y-83962268D01*
X112553595Y-85398419D01*
X112550000Y-85398065D01*
X111750000Y-85398065D01*
X111671586Y-85405788D01*
X111596186Y-85428660D01*
X111526697Y-85465803D01*
X111513664Y-85476499D01*
X111501567Y-85453162D01*
X111499682Y-85450801D01*
X111498262Y-85448130D01*
X111464669Y-85406941D01*
X111431555Y-85365460D01*
X111427406Y-85361252D01*
X111427335Y-85361165D01*
X111427254Y-85361098D01*
X111425918Y-85359743D01*
X109864587Y-83798413D01*
X109823553Y-83764707D01*
X109782857Y-83730559D01*
X109780208Y-83729103D01*
X109777871Y-83727183D01*
X109731062Y-83702084D01*
X109684518Y-83676496D01*
X109681635Y-83675582D01*
X109678971Y-83674153D01*
X109628181Y-83658625D01*
X109577550Y-83642564D01*
X109574545Y-83642227D01*
X109571654Y-83641343D01*
X109518792Y-83635973D01*
X109466029Y-83630055D01*
X109460124Y-83630014D01*
X109460008Y-83630002D01*
X109459900Y-83630012D01*
X109458001Y-83629999D01*
X106183237Y-83629999D01*
X106130370Y-83635183D01*
X106077465Y-83639811D01*
X106074560Y-83640655D01*
X106071552Y-83640950D01*
X106020747Y-83656289D01*
X105969701Y-83671119D01*
X105967014Y-83672512D01*
X105964122Y-83673385D01*
X105917228Y-83698319D01*
X105870069Y-83722764D01*
X105867708Y-83724649D01*
X105865037Y-83726069D01*
X105823848Y-83759662D01*
X105782367Y-83792776D01*
X105778164Y-83796921D01*
X105778072Y-83796996D01*
X105778002Y-83797081D01*
X105776651Y-83798413D01*
X105249130Y-84325934D01*
X105203167Y-84256755D01*
X105092619Y-84145432D01*
X104962553Y-84057701D01*
X104817923Y-83996904D01*
X104664239Y-83965358D01*
X104507355Y-83964262D01*
X104353246Y-83993660D01*
X104207782Y-84052432D01*
X104076503Y-84138338D01*
X103964411Y-84248107D01*
X103875774Y-84377557D01*
X103851027Y-84435298D01*
X103809462Y-84476862D01*
X103759883Y-84467000D01*
X103752000Y-84467000D01*
X103600000Y-84619000D01*
X103600000Y-84881262D01*
X103578660Y-84921186D01*
X103555788Y-84996586D01*
X103548065Y-85075000D01*
X103548065Y-86025000D01*
X103555788Y-86103414D01*
X103578660Y-86178814D01*
X103600000Y-86218738D01*
X103600000Y-86481000D01*
X103752000Y-86633000D01*
X103759883Y-86633000D01*
X103877347Y-86609635D01*
X103987996Y-86563803D01*
X104087577Y-86497265D01*
X104157907Y-86426935D01*
X104350000Y-86426935D01*
X104428414Y-86419212D01*
X104475000Y-86405081D01*
X104475000Y-86800000D01*
X104480184Y-86852867D01*
X104484104Y-86897681D01*
X104428414Y-86880788D01*
X104350000Y-86873065D01*
X103950000Y-86873065D01*
X103871586Y-86880788D01*
X103825000Y-86894919D01*
X103778414Y-86880788D01*
X103700000Y-86873065D01*
X103344167Y-86873065D01*
X103352771Y-86853741D01*
X103387529Y-86700752D01*
X103390031Y-86521556D01*
X103384976Y-86496024D01*
X103400000Y-86481000D01*
X103400000Y-86218738D01*
X103421340Y-86178814D01*
X103444212Y-86103414D01*
X103451935Y-86025000D01*
X103451935Y-85075000D01*
X103444212Y-84996586D01*
X103421340Y-84921186D01*
X103400000Y-84881262D01*
X103400000Y-84619000D01*
X103248000Y-84467000D01*
X103240117Y-84467000D01*
X103122653Y-84490365D01*
X103012004Y-84536197D01*
X102912423Y-84602735D01*
X102842093Y-84673065D01*
X102650000Y-84673065D01*
X102571586Y-84680788D01*
X102496186Y-84703660D01*
X102426697Y-84740803D01*
X102365789Y-84790789D01*
X102315803Y-84851697D01*
X102278660Y-84921186D01*
X102255788Y-84996586D01*
X102248065Y-85075000D01*
X102248065Y-85875285D01*
X102217567Y-85887607D01*
X102086288Y-85973513D01*
X101974196Y-86083282D01*
X101885559Y-86212732D01*
X101823755Y-86356934D01*
X101791136Y-86510393D01*
X101788945Y-86667266D01*
X101817267Y-86821577D01*
X101875021Y-86967448D01*
X101960009Y-87099323D01*
X102066888Y-87210000D01*
X101336935Y-87210000D01*
X101336935Y-86815000D01*
X101329212Y-86736586D01*
X101310530Y-86675000D01*
X101329212Y-86613414D01*
X101336935Y-86535000D01*
X101336935Y-85915000D01*
X101329212Y-85836586D01*
X101306340Y-85761186D01*
X101269197Y-85691697D01*
X101219211Y-85630789D01*
X101158303Y-85580803D01*
X101088814Y-85543660D01*
X101013414Y-85520788D01*
X100935000Y-85513065D01*
X100423935Y-85513065D01*
X100443000Y-85494000D01*
X100443000Y-85430117D01*
X100419635Y-85312653D01*
X100373803Y-85202004D01*
X100307264Y-85102422D01*
X100222577Y-85017735D01*
X100122996Y-84951197D01*
X100012347Y-84905365D01*
X99894883Y-84882000D01*
X99831000Y-84882000D01*
X99679000Y-85034000D01*
X99679000Y-85646000D01*
X99699000Y-85646000D01*
X99699000Y-85933893D01*
X99658893Y-85974000D01*
X99371000Y-85974000D01*
X99371000Y-85954000D01*
X98759000Y-85954000D01*
X98607000Y-86106000D01*
X98607000Y-86160000D01*
X97906998Y-86160000D01*
X97857318Y-86164871D01*
X97807665Y-86169215D01*
X97804940Y-86170007D01*
X97802111Y-86170284D01*
X97754347Y-86184705D01*
X97706460Y-86198617D01*
X97703938Y-86199925D01*
X97701220Y-86200745D01*
X97657203Y-86224150D01*
X97612893Y-86247118D01*
X97610672Y-86248891D01*
X97608167Y-86250223D01*
X97569528Y-86281736D01*
X97530530Y-86312868D01*
X97526576Y-86316767D01*
X97526496Y-86316832D01*
X97526435Y-86316906D01*
X97525161Y-86318162D01*
X97483800Y-86359523D01*
X97461916Y-86326585D01*
X97351368Y-86215262D01*
X97221302Y-86127531D01*
X97115367Y-86083000D01*
X97259883Y-86083000D01*
X97377347Y-86059635D01*
X97487996Y-86013803D01*
X97587578Y-85947264D01*
X97672265Y-85862577D01*
X97738803Y-85762996D01*
X97784635Y-85652347D01*
X97808000Y-85534883D01*
X97808000Y-85430117D01*
X98607000Y-85430117D01*
X98607000Y-85494000D01*
X98759000Y-85646000D01*
X99371000Y-85646000D01*
X99371000Y-85034000D01*
X99219000Y-84882000D01*
X99155117Y-84882000D01*
X99037653Y-84905365D01*
X98927004Y-84951197D01*
X98827423Y-85017735D01*
X98742736Y-85102422D01*
X98676197Y-85202004D01*
X98630365Y-85312653D01*
X98607000Y-85430117D01*
X97808000Y-85430117D01*
X97808000Y-84681000D01*
X97656000Y-84529000D01*
X96829000Y-84529000D01*
X96829000Y-84549000D01*
X96521000Y-84549000D01*
X96521000Y-84529000D01*
X96501000Y-84529000D01*
X96501000Y-84221000D01*
X96521000Y-84221000D01*
X96521000Y-82819000D01*
X96829000Y-82819000D01*
X96829000Y-84221000D01*
X97656000Y-84221000D01*
X97808000Y-84069000D01*
X97808000Y-83215117D01*
X97784635Y-83097653D01*
X97738803Y-82987004D01*
X97672265Y-82887423D01*
X97587578Y-82802736D01*
X97487996Y-82736197D01*
X97377347Y-82690365D01*
X97259883Y-82667000D01*
X96981000Y-82667000D01*
X96829000Y-82819000D01*
X96521000Y-82819000D01*
X96369000Y-82667000D01*
X96090117Y-82667000D01*
X95972653Y-82690365D01*
X95862004Y-82736197D01*
X95762422Y-82802736D01*
X95715158Y-82850000D01*
X94684842Y-82850000D01*
X94637578Y-82802736D01*
X94537996Y-82736197D01*
X94427347Y-82690365D01*
X94309883Y-82667000D01*
X94031000Y-82667000D01*
X93879000Y-82819000D01*
X93879000Y-84221000D01*
X93899000Y-84221000D01*
X93899000Y-84529000D01*
X93879000Y-84529000D01*
X93879000Y-84549000D01*
X93571000Y-84549000D01*
X93571000Y-84529000D01*
X93551000Y-84529000D01*
X93551000Y-84221000D01*
X93571000Y-84221000D01*
X93571000Y-82819000D01*
X93419000Y-82667000D01*
X93140117Y-82667000D01*
X93022653Y-82690365D01*
X92912004Y-82736197D01*
X92812422Y-82802736D01*
X92727735Y-82887423D01*
X92661197Y-82987004D01*
X92615365Y-83097653D01*
X92592000Y-83215117D01*
X92592000Y-84069000D01*
X92626957Y-84103957D01*
X92547996Y-84051197D01*
X92437347Y-84005365D01*
X92319883Y-83982000D01*
X92256000Y-83982000D01*
X92104000Y-84134000D01*
X92104000Y-84746000D01*
X92124000Y-84746000D01*
X92124000Y-85054000D01*
X92104000Y-85054000D01*
X92104000Y-85074000D01*
X91796000Y-85074000D01*
X91796000Y-85054000D01*
X91184000Y-85054000D01*
X91032000Y-85206000D01*
X91032000Y-85260000D01*
X90400000Y-85260000D01*
X90350324Y-85264871D01*
X90300666Y-85269215D01*
X90297941Y-85270007D01*
X90295113Y-85270284D01*
X90247315Y-85284715D01*
X90199462Y-85298618D01*
X90196944Y-85299923D01*
X90194222Y-85300745D01*
X90150190Y-85324158D01*
X90105894Y-85347118D01*
X90103671Y-85348893D01*
X90101169Y-85350223D01*
X90062577Y-85381698D01*
X90023531Y-85412868D01*
X90019572Y-85416771D01*
X90019498Y-85416832D01*
X90019441Y-85416901D01*
X90018162Y-85418162D01*
X89418162Y-86018162D01*
X89386469Y-86056746D01*
X89354439Y-86094918D01*
X89353072Y-86097405D01*
X89351268Y-86099601D01*
X89327677Y-86143598D01*
X89303667Y-86187271D01*
X89302809Y-86189975D01*
X89301466Y-86192480D01*
X89286882Y-86240183D01*
X89271800Y-86287728D01*
X89271483Y-86290553D01*
X89270654Y-86293265D01*
X89265618Y-86342842D01*
X89260053Y-86392460D01*
X89260014Y-86398017D01*
X89260004Y-86398115D01*
X89260013Y-86398206D01*
X89260000Y-86400000D01*
X89260000Y-86532000D01*
X89206000Y-86532000D01*
X89054000Y-86684000D01*
X89054000Y-87296000D01*
X89074000Y-87296000D01*
X89074000Y-87604000D01*
X89054000Y-87604000D01*
X89054000Y-88216000D01*
X89096672Y-88258672D01*
X89095788Y-88261586D01*
X89088065Y-88340000D01*
X89088065Y-88960000D01*
X89095788Y-89038414D01*
X89114470Y-89100000D01*
X89095788Y-89161586D01*
X89088065Y-89240000D01*
X89088065Y-89860000D01*
X89095788Y-89938414D01*
X89096672Y-89941328D01*
X89004000Y-90034000D01*
X89004000Y-90646000D01*
X89024000Y-90646000D01*
X89024000Y-90954000D01*
X89004000Y-90954000D01*
X89004000Y-91566000D01*
X89156000Y-91718000D01*
X89219883Y-91718000D01*
X89273065Y-91707421D01*
X89273065Y-92450000D01*
X89280788Y-92528414D01*
X89303660Y-92603814D01*
X89340803Y-92673303D01*
X89390789Y-92734211D01*
X89451697Y-92784197D01*
X89521186Y-92821340D01*
X89596586Y-92844212D01*
X89675000Y-92851935D01*
X90425000Y-92851935D01*
X90503414Y-92844212D01*
X90578814Y-92821340D01*
X90648303Y-92784197D01*
X90709211Y-92734211D01*
X90750000Y-92684510D01*
X90790789Y-92734211D01*
X90851697Y-92784197D01*
X90921186Y-92821340D01*
X90996586Y-92844212D01*
X91075000Y-92851935D01*
X91123065Y-92851935D01*
X91123065Y-93538065D01*
X90990000Y-93538065D01*
X90911586Y-93545788D01*
X90836186Y-93568660D01*
X90766697Y-93605803D01*
X90705789Y-93655789D01*
X90700000Y-93662843D01*
X90694211Y-93655789D01*
X90633303Y-93605803D01*
X90563814Y-93568660D01*
X90488414Y-93545788D01*
X90410000Y-93538065D01*
X89790000Y-93538065D01*
X89711586Y-93545788D01*
X89636186Y-93568660D01*
X89566697Y-93605803D01*
X89505789Y-93655789D01*
X89455803Y-93716697D01*
X89418660Y-93786186D01*
X89395788Y-93861586D01*
X89388065Y-93940000D01*
X89388065Y-94382093D01*
X89317736Y-94452422D01*
X89251197Y-94552004D01*
X89205365Y-94662653D01*
X89186240Y-94758799D01*
X89156803Y-94752757D01*
X88999919Y-94751661D01*
X88845810Y-94781059D01*
X88763198Y-94814437D01*
X88783000Y-94714883D01*
X88783000Y-94591000D01*
X88631000Y-94439000D01*
X86869000Y-94439000D01*
X86869000Y-94459000D01*
X86561000Y-94459000D01*
X86561000Y-94439000D01*
X83439000Y-94439000D01*
X83439000Y-94459000D01*
X83131000Y-94459000D01*
X83131000Y-94439000D01*
X83111000Y-94439000D01*
X83111000Y-94131000D01*
X83131000Y-94131000D01*
X83131000Y-93459000D01*
X83439000Y-93459000D01*
X83439000Y-94131000D01*
X86561000Y-94131000D01*
X86561000Y-93459000D01*
X86869000Y-93459000D01*
X86869000Y-94131000D01*
X88631000Y-94131000D01*
X88783000Y-93979000D01*
X88783000Y-93855117D01*
X88759635Y-93737653D01*
X88713803Y-93627004D01*
X88647264Y-93527422D01*
X88562577Y-93442735D01*
X88462996Y-93376197D01*
X88352347Y-93330365D01*
X88234883Y-93307000D01*
X87021000Y-93307000D01*
X86869000Y-93459000D01*
X86561000Y-93459000D01*
X86409000Y-93307000D01*
X85792108Y-93307000D01*
X85873702Y-93191332D01*
X85953468Y-93012176D01*
X85996916Y-92820940D01*
X86000043Y-92596945D01*
X85961952Y-92404570D01*
X85887220Y-92223257D01*
X85778694Y-92059912D01*
X85640508Y-91920758D01*
X85477926Y-91811095D01*
X85297139Y-91735099D01*
X85105034Y-91695666D01*
X84908929Y-91694297D01*
X84716292Y-91731044D01*
X84534462Y-91804508D01*
X84370364Y-91911891D01*
X84230249Y-92049102D01*
X84119453Y-92210915D01*
X84042197Y-92391167D01*
X84001423Y-92582992D01*
X83998685Y-92779083D01*
X84034087Y-92971971D01*
X84106280Y-93154310D01*
X84204681Y-93307000D01*
X83591000Y-93307000D01*
X83439000Y-93459000D01*
X83131000Y-93459000D01*
X82979000Y-93307000D01*
X81925010Y-93307000D01*
X82219327Y-92379194D01*
X82919271Y-91106000D01*
X87932000Y-91106000D01*
X87932000Y-91169883D01*
X87955365Y-91287347D01*
X88001197Y-91397996D01*
X88067735Y-91497577D01*
X88152422Y-91582264D01*
X88252004Y-91648803D01*
X88362653Y-91694635D01*
X88480117Y-91718000D01*
X88544000Y-91718000D01*
X88696000Y-91566000D01*
X88696000Y-90954000D01*
X88084000Y-90954000D01*
X87932000Y-91106000D01*
X82919271Y-91106000D01*
X83290840Y-90430117D01*
X87932000Y-90430117D01*
X87932000Y-90494000D01*
X88084000Y-90646000D01*
X88696000Y-90646000D01*
X88696000Y-90034000D01*
X88544000Y-89882000D01*
X88480117Y-89882000D01*
X88362653Y-89905365D01*
X88252004Y-89951197D01*
X88152422Y-90017736D01*
X88067735Y-90102423D01*
X88001197Y-90202004D01*
X87955365Y-90312653D01*
X87932000Y-90430117D01*
X83290840Y-90430117D01*
X84038179Y-89070713D01*
X85141354Y-87756000D01*
X87982000Y-87756000D01*
X87982000Y-87819883D01*
X88005365Y-87937347D01*
X88051197Y-88047996D01*
X88117735Y-88147577D01*
X88202422Y-88232264D01*
X88302004Y-88298803D01*
X88412653Y-88344635D01*
X88530117Y-88368000D01*
X88594000Y-88368000D01*
X88746000Y-88216000D01*
X88746000Y-87604000D01*
X88134000Y-87604000D01*
X87982000Y-87756000D01*
X85141354Y-87756000D01*
X85708487Y-87080117D01*
X87982000Y-87080117D01*
X87982000Y-87144000D01*
X88134000Y-87296000D01*
X88746000Y-87296000D01*
X88746000Y-86684000D01*
X88594000Y-86532000D01*
X88530117Y-86532000D01*
X88412653Y-86555365D01*
X88302004Y-86601197D01*
X88202422Y-86667736D01*
X88117735Y-86752423D01*
X88051197Y-86852004D01*
X88005365Y-86962653D01*
X87982000Y-87080117D01*
X85708487Y-87080117D01*
X86465013Y-86178526D01*
X88515219Y-84530117D01*
X91032000Y-84530117D01*
X91032000Y-84594000D01*
X91184000Y-84746000D01*
X91796000Y-84746000D01*
X91796000Y-84134000D01*
X91644000Y-83982000D01*
X91580117Y-83982000D01*
X91462653Y-84005365D01*
X91352004Y-84051197D01*
X91252423Y-84117735D01*
X91167736Y-84202422D01*
X91101197Y-84302004D01*
X91055365Y-84412653D01*
X91032000Y-84530117D01*
X88515219Y-84530117D01*
X89407389Y-83812794D01*
X92753235Y-82063628D01*
X96375108Y-80997653D01*
X100135052Y-80655471D01*
X103889852Y-81050117D01*
X103889852Y-81050117D01*
G37*
X103889852Y-81050117D02*
X107496489Y-82166557D01*
X110817587Y-83962268D01*
X112553595Y-85398419D01*
X112550000Y-85398065D01*
X111750000Y-85398065D01*
X111671586Y-85405788D01*
X111596186Y-85428660D01*
X111526697Y-85465803D01*
X111513664Y-85476499D01*
X111501567Y-85453162D01*
X111499682Y-85450801D01*
X111498262Y-85448130D01*
X111464669Y-85406941D01*
X111431555Y-85365460D01*
X111427406Y-85361252D01*
X111427335Y-85361165D01*
X111427254Y-85361098D01*
X111425918Y-85359743D01*
X109864587Y-83798413D01*
X109823553Y-83764707D01*
X109782857Y-83730559D01*
X109780208Y-83729103D01*
X109777871Y-83727183D01*
X109731062Y-83702084D01*
X109684518Y-83676496D01*
X109681635Y-83675582D01*
X109678971Y-83674153D01*
X109628181Y-83658625D01*
X109577550Y-83642564D01*
X109574545Y-83642227D01*
X109571654Y-83641343D01*
X109518792Y-83635973D01*
X109466029Y-83630055D01*
X109460124Y-83630014D01*
X109460008Y-83630002D01*
X109459900Y-83630012D01*
X109458001Y-83629999D01*
X106183237Y-83629999D01*
X106130370Y-83635183D01*
X106077465Y-83639811D01*
X106074560Y-83640655D01*
X106071552Y-83640950D01*
X106020747Y-83656289D01*
X105969701Y-83671119D01*
X105967014Y-83672512D01*
X105964122Y-83673385D01*
X105917228Y-83698319D01*
X105870069Y-83722764D01*
X105867708Y-83724649D01*
X105865037Y-83726069D01*
X105823848Y-83759662D01*
X105782367Y-83792776D01*
X105778164Y-83796921D01*
X105778072Y-83796996D01*
X105778002Y-83797081D01*
X105776651Y-83798413D01*
X105249130Y-84325934D01*
X105203167Y-84256755D01*
X105092619Y-84145432D01*
X104962553Y-84057701D01*
X104817923Y-83996904D01*
X104664239Y-83965358D01*
X104507355Y-83964262D01*
X104353246Y-83993660D01*
X104207782Y-84052432D01*
X104076503Y-84138338D01*
X103964411Y-84248107D01*
X103875774Y-84377557D01*
X103851027Y-84435298D01*
X103809462Y-84476862D01*
X103759883Y-84467000D01*
X103752000Y-84467000D01*
X103600000Y-84619000D01*
X103600000Y-84881262D01*
X103578660Y-84921186D01*
X103555788Y-84996586D01*
X103548065Y-85075000D01*
X103548065Y-86025000D01*
X103555788Y-86103414D01*
X103578660Y-86178814D01*
X103600000Y-86218738D01*
X103600000Y-86481000D01*
X103752000Y-86633000D01*
X103759883Y-86633000D01*
X103877347Y-86609635D01*
X103987996Y-86563803D01*
X104087577Y-86497265D01*
X104157907Y-86426935D01*
X104350000Y-86426935D01*
X104428414Y-86419212D01*
X104475000Y-86405081D01*
X104475000Y-86800000D01*
X104480184Y-86852867D01*
X104484104Y-86897681D01*
X104428414Y-86880788D01*
X104350000Y-86873065D01*
X103950000Y-86873065D01*
X103871586Y-86880788D01*
X103825000Y-86894919D01*
X103778414Y-86880788D01*
X103700000Y-86873065D01*
X103344167Y-86873065D01*
X103352771Y-86853741D01*
X103387529Y-86700752D01*
X103390031Y-86521556D01*
X103384976Y-86496024D01*
X103400000Y-86481000D01*
X103400000Y-86218738D01*
X103421340Y-86178814D01*
X103444212Y-86103414D01*
X103451935Y-86025000D01*
X103451935Y-85075000D01*
X103444212Y-84996586D01*
X103421340Y-84921186D01*
X103400000Y-84881262D01*
X103400000Y-84619000D01*
X103248000Y-84467000D01*
X103240117Y-84467000D01*
X103122653Y-84490365D01*
X103012004Y-84536197D01*
X102912423Y-84602735D01*
X102842093Y-84673065D01*
X102650000Y-84673065D01*
X102571586Y-84680788D01*
X102496186Y-84703660D01*
X102426697Y-84740803D01*
X102365789Y-84790789D01*
X102315803Y-84851697D01*
X102278660Y-84921186D01*
X102255788Y-84996586D01*
X102248065Y-85075000D01*
X102248065Y-85875285D01*
X102217567Y-85887607D01*
X102086288Y-85973513D01*
X101974196Y-86083282D01*
X101885559Y-86212732D01*
X101823755Y-86356934D01*
X101791136Y-86510393D01*
X101788945Y-86667266D01*
X101817267Y-86821577D01*
X101875021Y-86967448D01*
X101960009Y-87099323D01*
X102066888Y-87210000D01*
X101336935Y-87210000D01*
X101336935Y-86815000D01*
X101329212Y-86736586D01*
X101310530Y-86675000D01*
X101329212Y-86613414D01*
X101336935Y-86535000D01*
X101336935Y-85915000D01*
X101329212Y-85836586D01*
X101306340Y-85761186D01*
X101269197Y-85691697D01*
X101219211Y-85630789D01*
X101158303Y-85580803D01*
X101088814Y-85543660D01*
X101013414Y-85520788D01*
X100935000Y-85513065D01*
X100423935Y-85513065D01*
X100443000Y-85494000D01*
X100443000Y-85430117D01*
X100419635Y-85312653D01*
X100373803Y-85202004D01*
X100307264Y-85102422D01*
X100222577Y-85017735D01*
X100122996Y-84951197D01*
X100012347Y-84905365D01*
X99894883Y-84882000D01*
X99831000Y-84882000D01*
X99679000Y-85034000D01*
X99679000Y-85646000D01*
X99699000Y-85646000D01*
X99699000Y-85933893D01*
X99658893Y-85974000D01*
X99371000Y-85974000D01*
X99371000Y-85954000D01*
X98759000Y-85954000D01*
X98607000Y-86106000D01*
X98607000Y-86160000D01*
X97906998Y-86160000D01*
X97857318Y-86164871D01*
X97807665Y-86169215D01*
X97804940Y-86170007D01*
X97802111Y-86170284D01*
X97754347Y-86184705D01*
X97706460Y-86198617D01*
X97703938Y-86199925D01*
X97701220Y-86200745D01*
X97657203Y-86224150D01*
X97612893Y-86247118D01*
X97610672Y-86248891D01*
X97608167Y-86250223D01*
X97569528Y-86281736D01*
X97530530Y-86312868D01*
X97526576Y-86316767D01*
X97526496Y-86316832D01*
X97526435Y-86316906D01*
X97525161Y-86318162D01*
X97483800Y-86359523D01*
X97461916Y-86326585D01*
X97351368Y-86215262D01*
X97221302Y-86127531D01*
X97115367Y-86083000D01*
X97259883Y-86083000D01*
X97377347Y-86059635D01*
X97487996Y-86013803D01*
X97587578Y-85947264D01*
X97672265Y-85862577D01*
X97738803Y-85762996D01*
X97784635Y-85652347D01*
X97808000Y-85534883D01*
X97808000Y-85430117D01*
X98607000Y-85430117D01*
X98607000Y-85494000D01*
X98759000Y-85646000D01*
X99371000Y-85646000D01*
X99371000Y-85034000D01*
X99219000Y-84882000D01*
X99155117Y-84882000D01*
X99037653Y-84905365D01*
X98927004Y-84951197D01*
X98827423Y-85017735D01*
X98742736Y-85102422D01*
X98676197Y-85202004D01*
X98630365Y-85312653D01*
X98607000Y-85430117D01*
X97808000Y-85430117D01*
X97808000Y-84681000D01*
X97656000Y-84529000D01*
X96829000Y-84529000D01*
X96829000Y-84549000D01*
X96521000Y-84549000D01*
X96521000Y-84529000D01*
X96501000Y-84529000D01*
X96501000Y-84221000D01*
X96521000Y-84221000D01*
X96521000Y-82819000D01*
X96829000Y-82819000D01*
X96829000Y-84221000D01*
X97656000Y-84221000D01*
X97808000Y-84069000D01*
X97808000Y-83215117D01*
X97784635Y-83097653D01*
X97738803Y-82987004D01*
X97672265Y-82887423D01*
X97587578Y-82802736D01*
X97487996Y-82736197D01*
X97377347Y-82690365D01*
X97259883Y-82667000D01*
X96981000Y-82667000D01*
X96829000Y-82819000D01*
X96521000Y-82819000D01*
X96369000Y-82667000D01*
X96090117Y-82667000D01*
X95972653Y-82690365D01*
X95862004Y-82736197D01*
X95762422Y-82802736D01*
X95715158Y-82850000D01*
X94684842Y-82850000D01*
X94637578Y-82802736D01*
X94537996Y-82736197D01*
X94427347Y-82690365D01*
X94309883Y-82667000D01*
X94031000Y-82667000D01*
X93879000Y-82819000D01*
X93879000Y-84221000D01*
X93899000Y-84221000D01*
X93899000Y-84529000D01*
X93879000Y-84529000D01*
X93879000Y-84549000D01*
X93571000Y-84549000D01*
X93571000Y-84529000D01*
X93551000Y-84529000D01*
X93551000Y-84221000D01*
X93571000Y-84221000D01*
X93571000Y-82819000D01*
X93419000Y-82667000D01*
X93140117Y-82667000D01*
X93022653Y-82690365D01*
X92912004Y-82736197D01*
X92812422Y-82802736D01*
X92727735Y-82887423D01*
X92661197Y-82987004D01*
X92615365Y-83097653D01*
X92592000Y-83215117D01*
X92592000Y-84069000D01*
X92626957Y-84103957D01*
X92547996Y-84051197D01*
X92437347Y-84005365D01*
X92319883Y-83982000D01*
X92256000Y-83982000D01*
X92104000Y-84134000D01*
X92104000Y-84746000D01*
X92124000Y-84746000D01*
X92124000Y-85054000D01*
X92104000Y-85054000D01*
X92104000Y-85074000D01*
X91796000Y-85074000D01*
X91796000Y-85054000D01*
X91184000Y-85054000D01*
X91032000Y-85206000D01*
X91032000Y-85260000D01*
X90400000Y-85260000D01*
X90350324Y-85264871D01*
X90300666Y-85269215D01*
X90297941Y-85270007D01*
X90295113Y-85270284D01*
X90247315Y-85284715D01*
X90199462Y-85298618D01*
X90196944Y-85299923D01*
X90194222Y-85300745D01*
X90150190Y-85324158D01*
X90105894Y-85347118D01*
X90103671Y-85348893D01*
X90101169Y-85350223D01*
X90062577Y-85381698D01*
X90023531Y-85412868D01*
X90019572Y-85416771D01*
X90019498Y-85416832D01*
X90019441Y-85416901D01*
X90018162Y-85418162D01*
X89418162Y-86018162D01*
X89386469Y-86056746D01*
X89354439Y-86094918D01*
X89353072Y-86097405D01*
X89351268Y-86099601D01*
X89327677Y-86143598D01*
X89303667Y-86187271D01*
X89302809Y-86189975D01*
X89301466Y-86192480D01*
X89286882Y-86240183D01*
X89271800Y-86287728D01*
X89271483Y-86290553D01*
X89270654Y-86293265D01*
X89265618Y-86342842D01*
X89260053Y-86392460D01*
X89260014Y-86398017D01*
X89260004Y-86398115D01*
X89260013Y-86398206D01*
X89260000Y-86400000D01*
X89260000Y-86532000D01*
X89206000Y-86532000D01*
X89054000Y-86684000D01*
X89054000Y-87296000D01*
X89074000Y-87296000D01*
X89074000Y-87604000D01*
X89054000Y-87604000D01*
X89054000Y-88216000D01*
X89096672Y-88258672D01*
X89095788Y-88261586D01*
X89088065Y-88340000D01*
X89088065Y-88960000D01*
X89095788Y-89038414D01*
X89114470Y-89100000D01*
X89095788Y-89161586D01*
X89088065Y-89240000D01*
X89088065Y-89860000D01*
X89095788Y-89938414D01*
X89096672Y-89941328D01*
X89004000Y-90034000D01*
X89004000Y-90646000D01*
X89024000Y-90646000D01*
X89024000Y-90954000D01*
X89004000Y-90954000D01*
X89004000Y-91566000D01*
X89156000Y-91718000D01*
X89219883Y-91718000D01*
X89273065Y-91707421D01*
X89273065Y-92450000D01*
X89280788Y-92528414D01*
X89303660Y-92603814D01*
X89340803Y-92673303D01*
X89390789Y-92734211D01*
X89451697Y-92784197D01*
X89521186Y-92821340D01*
X89596586Y-92844212D01*
X89675000Y-92851935D01*
X90425000Y-92851935D01*
X90503414Y-92844212D01*
X90578814Y-92821340D01*
X90648303Y-92784197D01*
X90709211Y-92734211D01*
X90750000Y-92684510D01*
X90790789Y-92734211D01*
X90851697Y-92784197D01*
X90921186Y-92821340D01*
X90996586Y-92844212D01*
X91075000Y-92851935D01*
X91123065Y-92851935D01*
X91123065Y-93538065D01*
X90990000Y-93538065D01*
X90911586Y-93545788D01*
X90836186Y-93568660D01*
X90766697Y-93605803D01*
X90705789Y-93655789D01*
X90700000Y-93662843D01*
X90694211Y-93655789D01*
X90633303Y-93605803D01*
X90563814Y-93568660D01*
X90488414Y-93545788D01*
X90410000Y-93538065D01*
X89790000Y-93538065D01*
X89711586Y-93545788D01*
X89636186Y-93568660D01*
X89566697Y-93605803D01*
X89505789Y-93655789D01*
X89455803Y-93716697D01*
X89418660Y-93786186D01*
X89395788Y-93861586D01*
X89388065Y-93940000D01*
X89388065Y-94382093D01*
X89317736Y-94452422D01*
X89251197Y-94552004D01*
X89205365Y-94662653D01*
X89186240Y-94758799D01*
X89156803Y-94752757D01*
X88999919Y-94751661D01*
X88845810Y-94781059D01*
X88763198Y-94814437D01*
X88783000Y-94714883D01*
X88783000Y-94591000D01*
X88631000Y-94439000D01*
X86869000Y-94439000D01*
X86869000Y-94459000D01*
X86561000Y-94459000D01*
X86561000Y-94439000D01*
X83439000Y-94439000D01*
X83439000Y-94459000D01*
X83131000Y-94459000D01*
X83131000Y-94439000D01*
X83111000Y-94439000D01*
X83111000Y-94131000D01*
X83131000Y-94131000D01*
X83131000Y-93459000D01*
X83439000Y-93459000D01*
X83439000Y-94131000D01*
X86561000Y-94131000D01*
X86561000Y-93459000D01*
X86869000Y-93459000D01*
X86869000Y-94131000D01*
X88631000Y-94131000D01*
X88783000Y-93979000D01*
X88783000Y-93855117D01*
X88759635Y-93737653D01*
X88713803Y-93627004D01*
X88647264Y-93527422D01*
X88562577Y-93442735D01*
X88462996Y-93376197D01*
X88352347Y-93330365D01*
X88234883Y-93307000D01*
X87021000Y-93307000D01*
X86869000Y-93459000D01*
X86561000Y-93459000D01*
X86409000Y-93307000D01*
X85792108Y-93307000D01*
X85873702Y-93191332D01*
X85953468Y-93012176D01*
X85996916Y-92820940D01*
X86000043Y-92596945D01*
X85961952Y-92404570D01*
X85887220Y-92223257D01*
X85778694Y-92059912D01*
X85640508Y-91920758D01*
X85477926Y-91811095D01*
X85297139Y-91735099D01*
X85105034Y-91695666D01*
X84908929Y-91694297D01*
X84716292Y-91731044D01*
X84534462Y-91804508D01*
X84370364Y-91911891D01*
X84230249Y-92049102D01*
X84119453Y-92210915D01*
X84042197Y-92391167D01*
X84001423Y-92582992D01*
X83998685Y-92779083D01*
X84034087Y-92971971D01*
X84106280Y-93154310D01*
X84204681Y-93307000D01*
X83591000Y-93307000D01*
X83439000Y-93459000D01*
X83131000Y-93459000D01*
X82979000Y-93307000D01*
X81925010Y-93307000D01*
X82219327Y-92379194D01*
X82919271Y-91106000D01*
X87932000Y-91106000D01*
X87932000Y-91169883D01*
X87955365Y-91287347D01*
X88001197Y-91397996D01*
X88067735Y-91497577D01*
X88152422Y-91582264D01*
X88252004Y-91648803D01*
X88362653Y-91694635D01*
X88480117Y-91718000D01*
X88544000Y-91718000D01*
X88696000Y-91566000D01*
X88696000Y-90954000D01*
X88084000Y-90954000D01*
X87932000Y-91106000D01*
X82919271Y-91106000D01*
X83290840Y-90430117D01*
X87932000Y-90430117D01*
X87932000Y-90494000D01*
X88084000Y-90646000D01*
X88696000Y-90646000D01*
X88696000Y-90034000D01*
X88544000Y-89882000D01*
X88480117Y-89882000D01*
X88362653Y-89905365D01*
X88252004Y-89951197D01*
X88152422Y-90017736D01*
X88067735Y-90102423D01*
X88001197Y-90202004D01*
X87955365Y-90312653D01*
X87932000Y-90430117D01*
X83290840Y-90430117D01*
X84038179Y-89070713D01*
X85141354Y-87756000D01*
X87982000Y-87756000D01*
X87982000Y-87819883D01*
X88005365Y-87937347D01*
X88051197Y-88047996D01*
X88117735Y-88147577D01*
X88202422Y-88232264D01*
X88302004Y-88298803D01*
X88412653Y-88344635D01*
X88530117Y-88368000D01*
X88594000Y-88368000D01*
X88746000Y-88216000D01*
X88746000Y-87604000D01*
X88134000Y-87604000D01*
X87982000Y-87756000D01*
X85141354Y-87756000D01*
X85708487Y-87080117D01*
X87982000Y-87080117D01*
X87982000Y-87144000D01*
X88134000Y-87296000D01*
X88746000Y-87296000D01*
X88746000Y-86684000D01*
X88594000Y-86532000D01*
X88530117Y-86532000D01*
X88412653Y-86555365D01*
X88302004Y-86601197D01*
X88202422Y-86667736D01*
X88117735Y-86752423D01*
X88051197Y-86852004D01*
X88005365Y-86962653D01*
X87982000Y-87080117D01*
X85708487Y-87080117D01*
X86465013Y-86178526D01*
X88515219Y-84530117D01*
X91032000Y-84530117D01*
X91032000Y-84594000D01*
X91184000Y-84746000D01*
X91796000Y-84746000D01*
X91796000Y-84134000D01*
X91644000Y-83982000D01*
X91580117Y-83982000D01*
X91462653Y-84005365D01*
X91352004Y-84051197D01*
X91252423Y-84117735D01*
X91167736Y-84202422D01*
X91101197Y-84302004D01*
X91055365Y-84412653D01*
X91032000Y-84530117D01*
X88515219Y-84530117D01*
X89407389Y-83812794D01*
X92753235Y-82063628D01*
X96375108Y-80997653D01*
X100135052Y-80655471D01*
X103889852Y-81050117D01*
G36*
X107156000Y-90618000D02*
X107219883Y-90618000D01*
X107281972Y-90605650D01*
X107610000Y-90933678D01*
X107610000Y-91814437D01*
X107614871Y-91864113D01*
X107619215Y-91913771D01*
X107620007Y-91916496D01*
X107620284Y-91919324D01*
X107634701Y-91967076D01*
X107648617Y-92014975D01*
X107649925Y-92017497D01*
X107650745Y-92020215D01*
X107674139Y-92064212D01*
X107697118Y-92108543D01*
X107698893Y-92110766D01*
X107700223Y-92113268D01*
X107731698Y-92151860D01*
X107762868Y-92190906D01*
X107766771Y-92194865D01*
X107766832Y-92194939D01*
X107766901Y-92194996D01*
X107768162Y-92196275D01*
X108603726Y-93031838D01*
X108642284Y-93063510D01*
X108680481Y-93095561D01*
X108682968Y-93096928D01*
X108685164Y-93098732D01*
X108729142Y-93122313D01*
X108772834Y-93146333D01*
X108775540Y-93147191D01*
X108778044Y-93148534D01*
X108825732Y-93163113D01*
X108873291Y-93178200D01*
X108876116Y-93178517D01*
X108878828Y-93179346D01*
X108928449Y-93184387D01*
X108978023Y-93189947D01*
X108983570Y-93189986D01*
X108983678Y-93189997D01*
X108983779Y-93189987D01*
X108985563Y-93190000D01*
X109373065Y-93190000D01*
X109373065Y-93200000D01*
X109380788Y-93278414D01*
X109403660Y-93353814D01*
X109440803Y-93423303D01*
X109490789Y-93484211D01*
X109549020Y-93532000D01*
X109506000Y-93532000D01*
X109354000Y-93684000D01*
X109354000Y-94296000D01*
X109374000Y-94296000D01*
X109374000Y-94604000D01*
X109354000Y-94604000D01*
X109354000Y-94624000D01*
X109046000Y-94624000D01*
X109046000Y-94604000D01*
X109026000Y-94604000D01*
X109026000Y-94296000D01*
X109046000Y-94296000D01*
X109046000Y-93684000D01*
X108894000Y-93532000D01*
X108830117Y-93532000D01*
X108712653Y-93555365D01*
X108602004Y-93601197D01*
X108502422Y-93667736D01*
X108432093Y-93738065D01*
X107990000Y-93738065D01*
X107911586Y-93745788D01*
X107836186Y-93768660D01*
X107766697Y-93805803D01*
X107705789Y-93855789D01*
X107690023Y-93875000D01*
X107640000Y-93875000D01*
X107587133Y-93880184D01*
X107534228Y-93884812D01*
X107531323Y-93885656D01*
X107528315Y-93885951D01*
X107477510Y-93901290D01*
X107426464Y-93916120D01*
X107423777Y-93917513D01*
X107420885Y-93918386D01*
X107373991Y-93943320D01*
X107326832Y-93967765D01*
X107324471Y-93969650D01*
X107321800Y-93971070D01*
X107280611Y-94004663D01*
X107239130Y-94037777D01*
X107234927Y-94041922D01*
X107234835Y-94041997D01*
X107234765Y-94042082D01*
X107233414Y-94043414D01*
X106727206Y-94549622D01*
X106727206Y-93601935D01*
X106825000Y-93601935D01*
X106903414Y-93594212D01*
X106978814Y-93571340D01*
X107048303Y-93534197D01*
X107109211Y-93484211D01*
X107159197Y-93423303D01*
X107196340Y-93353814D01*
X107219212Y-93278414D01*
X107226935Y-93200000D01*
X107226935Y-92900000D01*
X107219212Y-92821586D01*
X107212664Y-92800000D01*
X107219212Y-92778414D01*
X107226935Y-92700000D01*
X107226935Y-92400000D01*
X107219212Y-92321586D01*
X107212664Y-92300000D01*
X107219212Y-92278414D01*
X107226935Y-92200000D01*
X107226935Y-92157907D01*
X107297265Y-92087577D01*
X107363803Y-91987996D01*
X107409635Y-91877347D01*
X107430160Y-91774160D01*
X107433000Y-91777000D01*
X107433000Y-91759883D01*
X107430160Y-91774160D01*
X107281000Y-91625000D01*
X107116770Y-91625000D01*
X107109211Y-91615789D01*
X107048303Y-91565803D01*
X107018738Y-91550000D01*
X107048303Y-91534197D01*
X107109211Y-91484211D01*
X107116770Y-91475000D01*
X107281000Y-91475000D01*
X107430160Y-91325840D01*
X107433000Y-91340117D01*
X107433000Y-91323000D01*
X107430160Y-91325840D01*
X107409635Y-91222653D01*
X107363803Y-91112004D01*
X107297265Y-91012423D01*
X107226935Y-90942093D01*
X107226935Y-90900000D01*
X107219212Y-90821586D01*
X107196340Y-90746186D01*
X107159197Y-90676697D01*
X107109211Y-90615789D01*
X107048303Y-90565803D01*
X107004002Y-90542123D01*
X107004002Y-90466002D01*
X107156000Y-90618000D01*
X107156000Y-90618000D01*
G37*
X107156000Y-90618000D02*
X107219883Y-90618000D01*
X107281972Y-90605650D01*
X107610000Y-90933678D01*
X107610000Y-91814437D01*
X107614871Y-91864113D01*
X107619215Y-91913771D01*
X107620007Y-91916496D01*
X107620284Y-91919324D01*
X107634701Y-91967076D01*
X107648617Y-92014975D01*
X107649925Y-92017497D01*
X107650745Y-92020215D01*
X107674139Y-92064212D01*
X107697118Y-92108543D01*
X107698893Y-92110766D01*
X107700223Y-92113268D01*
X107731698Y-92151860D01*
X107762868Y-92190906D01*
X107766771Y-92194865D01*
X107766832Y-92194939D01*
X107766901Y-92194996D01*
X107768162Y-92196275D01*
X108603726Y-93031838D01*
X108642284Y-93063510D01*
X108680481Y-93095561D01*
X108682968Y-93096928D01*
X108685164Y-93098732D01*
X108729142Y-93122313D01*
X108772834Y-93146333D01*
X108775540Y-93147191D01*
X108778044Y-93148534D01*
X108825732Y-93163113D01*
X108873291Y-93178200D01*
X108876116Y-93178517D01*
X108878828Y-93179346D01*
X108928449Y-93184387D01*
X108978023Y-93189947D01*
X108983570Y-93189986D01*
X108983678Y-93189997D01*
X108983779Y-93189987D01*
X108985563Y-93190000D01*
X109373065Y-93190000D01*
X109373065Y-93200000D01*
X109380788Y-93278414D01*
X109403660Y-93353814D01*
X109440803Y-93423303D01*
X109490789Y-93484211D01*
X109549020Y-93532000D01*
X109506000Y-93532000D01*
X109354000Y-93684000D01*
X109354000Y-94296000D01*
X109374000Y-94296000D01*
X109374000Y-94604000D01*
X109354000Y-94604000D01*
X109354000Y-94624000D01*
X109046000Y-94624000D01*
X109046000Y-94604000D01*
X109026000Y-94604000D01*
X109026000Y-94296000D01*
X109046000Y-94296000D01*
X109046000Y-93684000D01*
X108894000Y-93532000D01*
X108830117Y-93532000D01*
X108712653Y-93555365D01*
X108602004Y-93601197D01*
X108502422Y-93667736D01*
X108432093Y-93738065D01*
X107990000Y-93738065D01*
X107911586Y-93745788D01*
X107836186Y-93768660D01*
X107766697Y-93805803D01*
X107705789Y-93855789D01*
X107690023Y-93875000D01*
X107640000Y-93875000D01*
X107587133Y-93880184D01*
X107534228Y-93884812D01*
X107531323Y-93885656D01*
X107528315Y-93885951D01*
X107477510Y-93901290D01*
X107426464Y-93916120D01*
X107423777Y-93917513D01*
X107420885Y-93918386D01*
X107373991Y-93943320D01*
X107326832Y-93967765D01*
X107324471Y-93969650D01*
X107321800Y-93971070D01*
X107280611Y-94004663D01*
X107239130Y-94037777D01*
X107234927Y-94041922D01*
X107234835Y-94041997D01*
X107234765Y-94042082D01*
X107233414Y-94043414D01*
X106727206Y-94549622D01*
X106727206Y-93601935D01*
X106825000Y-93601935D01*
X106903414Y-93594212D01*
X106978814Y-93571340D01*
X107048303Y-93534197D01*
X107109211Y-93484211D01*
X107159197Y-93423303D01*
X107196340Y-93353814D01*
X107219212Y-93278414D01*
X107226935Y-93200000D01*
X107226935Y-92900000D01*
X107219212Y-92821586D01*
X107212664Y-92800000D01*
X107219212Y-92778414D01*
X107226935Y-92700000D01*
X107226935Y-92400000D01*
X107219212Y-92321586D01*
X107212664Y-92300000D01*
X107219212Y-92278414D01*
X107226935Y-92200000D01*
X107226935Y-92157907D01*
X107297265Y-92087577D01*
X107363803Y-91987996D01*
X107409635Y-91877347D01*
X107430160Y-91774160D01*
X107433000Y-91777000D01*
X107433000Y-91759883D01*
X107430160Y-91774160D01*
X107281000Y-91625000D01*
X107116770Y-91625000D01*
X107109211Y-91615789D01*
X107048303Y-91565803D01*
X107018738Y-91550000D01*
X107048303Y-91534197D01*
X107109211Y-91484211D01*
X107116770Y-91475000D01*
X107281000Y-91475000D01*
X107430160Y-91325840D01*
X107433000Y-91340117D01*
X107433000Y-91323000D01*
X107430160Y-91325840D01*
X107409635Y-91222653D01*
X107363803Y-91112004D01*
X107297265Y-91012423D01*
X107226935Y-90942093D01*
X107226935Y-90900000D01*
X107219212Y-90821586D01*
X107196340Y-90746186D01*
X107159197Y-90676697D01*
X107109211Y-90615789D01*
X107048303Y-90565803D01*
X107004002Y-90542123D01*
X107004002Y-90466002D01*
X107156000Y-90618000D01*
G36*
X117885343Y-92628194D02*
X118090287Y-93307000D01*
X117021000Y-93307000D01*
X116869000Y-93459000D01*
X116869000Y-94131000D01*
X116889000Y-94131000D01*
X116889000Y-94439000D01*
X116869000Y-94439000D01*
X116869000Y-94459000D01*
X116561000Y-94459000D01*
X116561000Y-94439000D01*
X113439000Y-94439000D01*
X113439000Y-94459000D01*
X113131000Y-94459000D01*
X113131000Y-94439000D01*
X113111000Y-94439000D01*
X113111000Y-94131000D01*
X113131000Y-94131000D01*
X113131000Y-93459000D01*
X113439000Y-93459000D01*
X113439000Y-94131000D01*
X116561000Y-94131000D01*
X116561000Y-93459000D01*
X116409000Y-93307000D01*
X115792108Y-93307000D01*
X115873702Y-93191332D01*
X115953468Y-93012176D01*
X115996916Y-92820940D01*
X116000043Y-92596945D01*
X115961952Y-92404570D01*
X115887220Y-92223257D01*
X115778694Y-92059912D01*
X115640508Y-91920758D01*
X115477926Y-91811095D01*
X115297139Y-91735099D01*
X115105034Y-91695666D01*
X114908929Y-91694297D01*
X114716292Y-91731044D01*
X114534462Y-91804508D01*
X114370364Y-91911891D01*
X114230249Y-92049102D01*
X114119453Y-92210915D01*
X114042197Y-92391167D01*
X114001423Y-92582992D01*
X113998685Y-92779083D01*
X114034087Y-92971971D01*
X114106280Y-93154310D01*
X114204681Y-93307000D01*
X113591000Y-93307000D01*
X113439000Y-93459000D01*
X113131000Y-93459000D01*
X112979000Y-93307000D01*
X112065001Y-93307000D01*
X112065001Y-91570001D01*
X112060130Y-91520321D01*
X112055786Y-91470668D01*
X112054994Y-91467943D01*
X112054717Y-91465114D01*
X112040296Y-91417350D01*
X112026384Y-91369463D01*
X112025076Y-91366941D01*
X112024256Y-91364223D01*
X112000851Y-91320206D01*
X111977883Y-91275896D01*
X111976110Y-91273675D01*
X111974778Y-91271170D01*
X111959090Y-91251935D01*
X112725000Y-91251935D01*
X112803414Y-91244212D01*
X112878814Y-91221340D01*
X112937446Y-91190000D01*
X113177824Y-91190000D01*
X113252950Y-91213256D01*
X113364556Y-91224986D01*
X113476314Y-91214815D01*
X113560630Y-91190000D01*
X113762554Y-91190000D01*
X113821186Y-91221340D01*
X113896586Y-91244212D01*
X113975000Y-91251935D01*
X114925000Y-91251935D01*
X115003414Y-91244212D01*
X115078814Y-91221340D01*
X115137446Y-91190000D01*
X115182657Y-91190000D01*
X115205803Y-91233303D01*
X115255789Y-91294211D01*
X115316697Y-91344197D01*
X115386186Y-91381340D01*
X115461586Y-91404212D01*
X115540000Y-91411935D01*
X116160000Y-91411935D01*
X116238414Y-91404212D01*
X116313814Y-91381340D01*
X116383303Y-91344197D01*
X116444211Y-91294211D01*
X116494197Y-91233303D01*
X116531340Y-91163814D01*
X116554212Y-91088414D01*
X116561935Y-91010000D01*
X116561935Y-90567907D01*
X116632264Y-90497578D01*
X116698803Y-90397996D01*
X116699119Y-90397232D01*
X117885343Y-92628194D01*
X117885343Y-92628194D01*
G37*
X117885343Y-92628194D02*
X118090287Y-93307000D01*
X117021000Y-93307000D01*
X116869000Y-93459000D01*
X116869000Y-94131000D01*
X116889000Y-94131000D01*
X116889000Y-94439000D01*
X116869000Y-94439000D01*
X116869000Y-94459000D01*
X116561000Y-94459000D01*
X116561000Y-94439000D01*
X113439000Y-94439000D01*
X113439000Y-94459000D01*
X113131000Y-94459000D01*
X113131000Y-94439000D01*
X113111000Y-94439000D01*
X113111000Y-94131000D01*
X113131000Y-94131000D01*
X113131000Y-93459000D01*
X113439000Y-93459000D01*
X113439000Y-94131000D01*
X116561000Y-94131000D01*
X116561000Y-93459000D01*
X116409000Y-93307000D01*
X115792108Y-93307000D01*
X115873702Y-93191332D01*
X115953468Y-93012176D01*
X115996916Y-92820940D01*
X116000043Y-92596945D01*
X115961952Y-92404570D01*
X115887220Y-92223257D01*
X115778694Y-92059912D01*
X115640508Y-91920758D01*
X115477926Y-91811095D01*
X115297139Y-91735099D01*
X115105034Y-91695666D01*
X114908929Y-91694297D01*
X114716292Y-91731044D01*
X114534462Y-91804508D01*
X114370364Y-91911891D01*
X114230249Y-92049102D01*
X114119453Y-92210915D01*
X114042197Y-92391167D01*
X114001423Y-92582992D01*
X113998685Y-92779083D01*
X114034087Y-92971971D01*
X114106280Y-93154310D01*
X114204681Y-93307000D01*
X113591000Y-93307000D01*
X113439000Y-93459000D01*
X113131000Y-93459000D01*
X112979000Y-93307000D01*
X112065001Y-93307000D01*
X112065001Y-91570001D01*
X112060130Y-91520321D01*
X112055786Y-91470668D01*
X112054994Y-91467943D01*
X112054717Y-91465114D01*
X112040296Y-91417350D01*
X112026384Y-91369463D01*
X112025076Y-91366941D01*
X112024256Y-91364223D01*
X112000851Y-91320206D01*
X111977883Y-91275896D01*
X111976110Y-91273675D01*
X111974778Y-91271170D01*
X111959090Y-91251935D01*
X112725000Y-91251935D01*
X112803414Y-91244212D01*
X112878814Y-91221340D01*
X112937446Y-91190000D01*
X113177824Y-91190000D01*
X113252950Y-91213256D01*
X113364556Y-91224986D01*
X113476314Y-91214815D01*
X113560630Y-91190000D01*
X113762554Y-91190000D01*
X113821186Y-91221340D01*
X113896586Y-91244212D01*
X113975000Y-91251935D01*
X114925000Y-91251935D01*
X115003414Y-91244212D01*
X115078814Y-91221340D01*
X115137446Y-91190000D01*
X115182657Y-91190000D01*
X115205803Y-91233303D01*
X115255789Y-91294211D01*
X115316697Y-91344197D01*
X115386186Y-91381340D01*
X115461586Y-91404212D01*
X115540000Y-91411935D01*
X116160000Y-91411935D01*
X116238414Y-91404212D01*
X116313814Y-91381340D01*
X116383303Y-91344197D01*
X116444211Y-91294211D01*
X116494197Y-91233303D01*
X116531340Y-91163814D01*
X116554212Y-91088414D01*
X116561935Y-91010000D01*
X116561935Y-90567907D01*
X116632264Y-90497578D01*
X116698803Y-90397996D01*
X116699119Y-90397232D01*
X117885343Y-92628194D01*
G36*
X96654000Y-92996000D02*
X96674000Y-92996000D01*
X96674000Y-93304000D01*
X96654000Y-93304000D01*
X96654000Y-93324000D01*
X96346000Y-93324000D01*
X96346000Y-93304000D01*
X95454000Y-93304000D01*
X95454000Y-93324000D01*
X95187676Y-93324000D01*
X95181838Y-93318162D01*
X95181832Y-93318157D01*
X95126000Y-93262325D01*
X95126000Y-93020001D01*
X95775001Y-93020001D01*
X95820945Y-93015496D01*
X95866977Y-93011469D01*
X95869502Y-93010736D01*
X95872118Y-93010479D01*
X95916324Y-92997132D01*
X95920221Y-92996000D01*
X96346000Y-92996000D01*
X96346000Y-92985001D01*
X96654000Y-92985001D01*
X96654000Y-92996000D01*
X96654000Y-92996000D01*
G37*
X96654000Y-92996000D02*
X96674000Y-92996000D01*
X96674000Y-93304000D01*
X96654000Y-93304000D01*
X96654000Y-93324000D01*
X96346000Y-93324000D01*
X96346000Y-93304000D01*
X95454000Y-93304000D01*
X95454000Y-93324000D01*
X95187676Y-93324000D01*
X95181838Y-93318162D01*
X95181832Y-93318157D01*
X95126000Y-93262325D01*
X95126000Y-93020001D01*
X95775001Y-93020001D01*
X95820945Y-93015496D01*
X95866977Y-93011469D01*
X95869502Y-93010736D01*
X95872118Y-93010479D01*
X95916324Y-92997132D01*
X95920221Y-92996000D01*
X96346000Y-92996000D01*
X96346000Y-92985001D01*
X96654000Y-92985001D01*
X96654000Y-92996000D01*
G36*
X103210001Y-92231389D02*
X103212232Y-92254148D01*
X103211438Y-92256002D01*
X103178819Y-92409461D01*
X103176628Y-92566334D01*
X103204950Y-92720645D01*
X103262704Y-92866516D01*
X103303610Y-92929989D01*
X102864396Y-92929989D01*
X102892492Y-92806322D01*
X102894514Y-92661486D01*
X103000000Y-92556000D01*
X103000000Y-92389806D01*
X103000137Y-92389358D01*
X103004807Y-92343382D01*
X103009952Y-92297510D01*
X103009988Y-92292372D01*
X103009998Y-92292274D01*
X103009989Y-92292183D01*
X103010001Y-92290529D01*
X103010001Y-92101935D01*
X103210001Y-92101935D01*
X103210001Y-92231389D01*
X103210001Y-92231389D01*
G37*
X103210001Y-92231389D02*
X103212232Y-92254148D01*
X103211438Y-92256002D01*
X103178819Y-92409461D01*
X103176628Y-92566334D01*
X103204950Y-92720645D01*
X103262704Y-92866516D01*
X103303610Y-92929989D01*
X102864396Y-92929989D01*
X102892492Y-92806322D01*
X102894514Y-92661486D01*
X103000000Y-92556000D01*
X103000000Y-92389806D01*
X103000137Y-92389358D01*
X103004807Y-92343382D01*
X103009952Y-92297510D01*
X103009988Y-92292372D01*
X103009998Y-92292274D01*
X103009989Y-92292183D01*
X103010001Y-92290529D01*
X103010001Y-92101935D01*
X103210001Y-92101935D01*
X103210001Y-92231389D01*
G36*
X109748948Y-90367266D02*
X109772991Y-90498263D01*
X109696586Y-90505788D01*
X109621186Y-90528660D01*
X109551697Y-90565803D01*
X109490789Y-90615789D01*
X109440803Y-90676697D01*
X109403660Y-90746186D01*
X109380788Y-90821586D01*
X109373065Y-90900000D01*
X109373065Y-91200000D01*
X109380788Y-91278414D01*
X109387336Y-91300000D01*
X109380788Y-91321586D01*
X109373065Y-91400000D01*
X109373065Y-91442093D01*
X109302735Y-91512423D01*
X109236197Y-91612004D01*
X109190365Y-91722653D01*
X109169840Y-91825840D01*
X109319000Y-91975000D01*
X109483230Y-91975000D01*
X109490789Y-91984211D01*
X109522213Y-92010000D01*
X109495000Y-92010000D01*
X109445328Y-92014870D01*
X109395666Y-92019215D01*
X109392941Y-92020007D01*
X109390113Y-92020284D01*
X109342328Y-92034711D01*
X109294461Y-92048618D01*
X109291942Y-92049924D01*
X109289222Y-92050745D01*
X109245208Y-92074148D01*
X109200894Y-92097118D01*
X109198671Y-92098893D01*
X109198318Y-92099080D01*
X108939356Y-91840117D01*
X109167000Y-91840117D01*
X109169840Y-91825840D01*
X109167000Y-91823000D01*
X109167000Y-91840117D01*
X108939356Y-91840117D01*
X108690000Y-91590761D01*
X108690000Y-90700000D01*
X108685040Y-90649408D01*
X108680435Y-90598814D01*
X108679901Y-90597000D01*
X108679716Y-90595113D01*
X108665013Y-90546415D01*
X108650679Y-90497712D01*
X108649803Y-90496035D01*
X108649255Y-90494222D01*
X108625417Y-90449390D01*
X108605836Y-90411935D01*
X108610000Y-90411935D01*
X108688414Y-90404212D01*
X108750000Y-90385530D01*
X108811586Y-90404212D01*
X108890000Y-90411935D01*
X109510000Y-90411935D01*
X109588414Y-90404212D01*
X109663814Y-90381340D01*
X109733303Y-90344197D01*
X109749455Y-90330941D01*
X109748948Y-90367266D01*
X109748948Y-90367266D01*
G37*
X109748948Y-90367266D02*
X109772991Y-90498263D01*
X109696586Y-90505788D01*
X109621186Y-90528660D01*
X109551697Y-90565803D01*
X109490789Y-90615789D01*
X109440803Y-90676697D01*
X109403660Y-90746186D01*
X109380788Y-90821586D01*
X109373065Y-90900000D01*
X109373065Y-91200000D01*
X109380788Y-91278414D01*
X109387336Y-91300000D01*
X109380788Y-91321586D01*
X109373065Y-91400000D01*
X109373065Y-91442093D01*
X109302735Y-91512423D01*
X109236197Y-91612004D01*
X109190365Y-91722653D01*
X109169840Y-91825840D01*
X109319000Y-91975000D01*
X109483230Y-91975000D01*
X109490789Y-91984211D01*
X109522213Y-92010000D01*
X109495000Y-92010000D01*
X109445328Y-92014870D01*
X109395666Y-92019215D01*
X109392941Y-92020007D01*
X109390113Y-92020284D01*
X109342328Y-92034711D01*
X109294461Y-92048618D01*
X109291942Y-92049924D01*
X109289222Y-92050745D01*
X109245208Y-92074148D01*
X109200894Y-92097118D01*
X109198671Y-92098893D01*
X109198318Y-92099080D01*
X108939356Y-91840117D01*
X109167000Y-91840117D01*
X109169840Y-91825840D01*
X109167000Y-91823000D01*
X109167000Y-91840117D01*
X108939356Y-91840117D01*
X108690000Y-91590761D01*
X108690000Y-90700000D01*
X108685040Y-90649408D01*
X108680435Y-90598814D01*
X108679901Y-90597000D01*
X108679716Y-90595113D01*
X108665013Y-90546415D01*
X108650679Y-90497712D01*
X108649803Y-90496035D01*
X108649255Y-90494222D01*
X108625417Y-90449390D01*
X108605836Y-90411935D01*
X108610000Y-90411935D01*
X108688414Y-90404212D01*
X108750000Y-90385530D01*
X108811586Y-90404212D01*
X108890000Y-90411935D01*
X109510000Y-90411935D01*
X109588414Y-90404212D01*
X109663814Y-90381340D01*
X109733303Y-90344197D01*
X109749455Y-90330941D01*
X109748948Y-90367266D01*
G36*
X104804000Y-90996000D02*
X104824000Y-90996000D01*
X104824000Y-91141450D01*
X104790365Y-91222653D01*
X104770206Y-91324000D01*
X104768000Y-91324000D01*
X104767000Y-91323000D01*
X104767000Y-91324000D01*
X104538905Y-91324000D01*
X104520594Y-91289562D01*
X104499335Y-91248549D01*
X104497695Y-91246494D01*
X104496460Y-91244172D01*
X104476000Y-91219086D01*
X104476000Y-90996000D01*
X104496000Y-90996000D01*
X104496000Y-90976000D01*
X104804000Y-90976000D01*
X104804000Y-90996000D01*
X104804000Y-90996000D01*
G37*
X104804000Y-90996000D02*
X104824000Y-90996000D01*
X104824000Y-91141450D01*
X104790365Y-91222653D01*
X104770206Y-91324000D01*
X104768000Y-91324000D01*
X104767000Y-91323000D01*
X104767000Y-91324000D01*
X104538905Y-91324000D01*
X104520594Y-91289562D01*
X104499335Y-91248549D01*
X104497695Y-91246494D01*
X104496460Y-91244172D01*
X104476000Y-91219086D01*
X104476000Y-90996000D01*
X104496000Y-90996000D01*
X104496000Y-90976000D01*
X104804000Y-90976000D01*
X104804000Y-90996000D01*
G36*
X91154000Y-89396000D02*
X91174000Y-89396000D01*
X91174000Y-89704000D01*
X91154000Y-89704000D01*
X91154000Y-90316000D01*
X91170585Y-90332585D01*
X91168660Y-90336186D01*
X91145788Y-90411586D01*
X91138065Y-90490000D01*
X91138065Y-90560000D01*
X90461935Y-90560000D01*
X90461935Y-90490000D01*
X90455120Y-90420804D01*
X90512653Y-90444635D01*
X90630117Y-90468000D01*
X90694000Y-90468000D01*
X90846000Y-90316000D01*
X90846000Y-89704000D01*
X90826000Y-89704000D01*
X90826000Y-89396000D01*
X90846000Y-89396000D01*
X90846000Y-89376000D01*
X91154000Y-89376000D01*
X91154000Y-89396000D01*
X91154000Y-89396000D01*
G37*
X91154000Y-89396000D02*
X91174000Y-89396000D01*
X91174000Y-89704000D01*
X91154000Y-89704000D01*
X91154000Y-90316000D01*
X91170585Y-90332585D01*
X91168660Y-90336186D01*
X91145788Y-90411586D01*
X91138065Y-90490000D01*
X91138065Y-90560000D01*
X90461935Y-90560000D01*
X90461935Y-90490000D01*
X90455120Y-90420804D01*
X90512653Y-90444635D01*
X90630117Y-90468000D01*
X90694000Y-90468000D01*
X90846000Y-90316000D01*
X90846000Y-89704000D01*
X90826000Y-89704000D01*
X90826000Y-89396000D01*
X90846000Y-89396000D01*
X90846000Y-89376000D01*
X91154000Y-89376000D01*
X91154000Y-89396000D01*
G36*
X116004000Y-89646000D02*
X116024000Y-89646000D01*
X116024000Y-89954000D01*
X116004000Y-89954000D01*
X116004000Y-89974000D01*
X115696000Y-89974000D01*
X115696000Y-89954000D01*
X115676000Y-89954000D01*
X115676000Y-89646000D01*
X115696000Y-89646000D01*
X115696000Y-89626000D01*
X116004000Y-89626000D01*
X116004000Y-89646000D01*
X116004000Y-89646000D01*
G37*
X116004000Y-89646000D02*
X116024000Y-89646000D01*
X116024000Y-89954000D01*
X116004000Y-89954000D01*
X116004000Y-89974000D01*
X115696000Y-89974000D01*
X115696000Y-89954000D01*
X115676000Y-89954000D01*
X115676000Y-89646000D01*
X115696000Y-89646000D01*
X115696000Y-89626000D01*
X116004000Y-89626000D01*
X116004000Y-89646000D01*
G36*
X106960000Y-89874000D02*
X106696000Y-89874000D01*
X106696000Y-89854000D01*
X106676000Y-89854000D01*
X106676000Y-89546000D01*
X106696000Y-89546000D01*
X106696000Y-89526000D01*
X106960000Y-89526000D01*
X106960000Y-89874000D01*
X106960000Y-89874000D01*
G37*
X106960000Y-89874000D02*
X106696000Y-89874000D01*
X106696000Y-89854000D01*
X106676000Y-89854000D01*
X106676000Y-89546000D01*
X106696000Y-89546000D01*
X106696000Y-89526000D01*
X106960000Y-89526000D01*
X106960000Y-89874000D01*
G36*
X114710666Y-87575379D02*
X114662347Y-87555365D01*
X114544883Y-87532000D01*
X114481000Y-87532000D01*
X114329000Y-87684000D01*
X114329000Y-88296000D01*
X114941000Y-88296000D01*
X115093000Y-88144000D01*
X115093000Y-88080117D01*
X115083542Y-88032571D01*
X115776320Y-88882000D01*
X115695998Y-88882000D01*
X115695998Y-89033998D01*
X115544000Y-88882000D01*
X115480117Y-88882000D01*
X115472697Y-88883476D01*
X115463803Y-88862004D01*
X115397265Y-88762423D01*
X115312578Y-88677736D01*
X115212996Y-88611197D01*
X115102347Y-88565365D01*
X114984883Y-88542000D01*
X114756000Y-88542000D01*
X114694000Y-88604000D01*
X114329000Y-88604000D01*
X114329000Y-89216000D01*
X114481000Y-89368000D01*
X114544883Y-89368000D01*
X114624000Y-89352263D01*
X114624000Y-89398065D01*
X113975000Y-89398065D01*
X113896586Y-89405788D01*
X113821186Y-89428660D01*
X113781262Y-89450000D01*
X113519000Y-89450000D01*
X113367000Y-89602000D01*
X113367000Y-89609883D01*
X113390327Y-89727155D01*
X113356586Y-89693414D01*
X113315552Y-89659708D01*
X113274856Y-89625560D01*
X113272207Y-89624104D01*
X113269870Y-89622184D01*
X113223061Y-89597085D01*
X113176517Y-89571497D01*
X113173634Y-89570583D01*
X113170970Y-89569154D01*
X113126391Y-89555525D01*
X113126935Y-89550000D01*
X113126935Y-89293028D01*
X113146972Y-89293028D01*
X113251859Y-89282744D01*
X113352750Y-89252283D01*
X113445803Y-89202805D01*
X113446993Y-89201835D01*
X113477422Y-89232264D01*
X113577004Y-89298803D01*
X113687653Y-89344635D01*
X113805117Y-89368000D01*
X113869000Y-89368000D01*
X113987000Y-89250000D01*
X114296000Y-89250000D01*
X114296000Y-88694000D01*
X114144000Y-88542000D01*
X114001000Y-88542000D01*
X114001000Y-88296000D01*
X114021000Y-88296000D01*
X114021000Y-88036569D01*
X114044197Y-88008303D01*
X114081340Y-87938814D01*
X114104212Y-87863414D01*
X114111935Y-87785000D01*
X114111935Y-87342907D01*
X114182264Y-87272578D01*
X114248803Y-87172996D01*
X114293831Y-87064288D01*
X114710666Y-87575379D01*
X114710666Y-87575379D01*
G37*
X114710666Y-87575379D02*
X114662347Y-87555365D01*
X114544883Y-87532000D01*
X114481000Y-87532000D01*
X114329000Y-87684000D01*
X114329000Y-88296000D01*
X114941000Y-88296000D01*
X115093000Y-88144000D01*
X115093000Y-88080117D01*
X115083542Y-88032571D01*
X115776320Y-88882000D01*
X115695998Y-88882000D01*
X115695998Y-89033998D01*
X115544000Y-88882000D01*
X115480117Y-88882000D01*
X115472697Y-88883476D01*
X115463803Y-88862004D01*
X115397265Y-88762423D01*
X115312578Y-88677736D01*
X115212996Y-88611197D01*
X115102347Y-88565365D01*
X114984883Y-88542000D01*
X114756000Y-88542000D01*
X114694000Y-88604000D01*
X114329000Y-88604000D01*
X114329000Y-89216000D01*
X114481000Y-89368000D01*
X114544883Y-89368000D01*
X114624000Y-89352263D01*
X114624000Y-89398065D01*
X113975000Y-89398065D01*
X113896586Y-89405788D01*
X113821186Y-89428660D01*
X113781262Y-89450000D01*
X113519000Y-89450000D01*
X113367000Y-89602000D01*
X113367000Y-89609883D01*
X113390327Y-89727155D01*
X113356586Y-89693414D01*
X113315552Y-89659708D01*
X113274856Y-89625560D01*
X113272207Y-89624104D01*
X113269870Y-89622184D01*
X113223061Y-89597085D01*
X113176517Y-89571497D01*
X113173634Y-89570583D01*
X113170970Y-89569154D01*
X113126391Y-89555525D01*
X113126935Y-89550000D01*
X113126935Y-89293028D01*
X113146972Y-89293028D01*
X113251859Y-89282744D01*
X113352750Y-89252283D01*
X113445803Y-89202805D01*
X113446993Y-89201835D01*
X113477422Y-89232264D01*
X113577004Y-89298803D01*
X113687653Y-89344635D01*
X113805117Y-89368000D01*
X113869000Y-89368000D01*
X113987000Y-89250000D01*
X114296000Y-89250000D01*
X114296000Y-88694000D01*
X114144000Y-88542000D01*
X114001000Y-88542000D01*
X114001000Y-88296000D01*
X114021000Y-88296000D01*
X114021000Y-88036569D01*
X114044197Y-88008303D01*
X114081340Y-87938814D01*
X114104212Y-87863414D01*
X114111935Y-87785000D01*
X114111935Y-87342907D01*
X114182264Y-87272578D01*
X114248803Y-87172996D01*
X114293831Y-87064288D01*
X114710666Y-87575379D01*
G36*
X102255788Y-88303414D02*
X102278660Y-88378814D01*
X102315803Y-88448303D01*
X102365789Y-88509211D01*
X102390592Y-88529566D01*
X102367735Y-88552423D01*
X102301197Y-88652004D01*
X102255365Y-88762653D01*
X102232000Y-88880117D01*
X102232000Y-88944000D01*
X102384000Y-89096000D01*
X102996000Y-89096000D01*
X102996000Y-89076000D01*
X103304000Y-89076000D01*
X103304000Y-89096000D01*
X103324000Y-89096000D01*
X103324000Y-89404000D01*
X103304000Y-89404000D01*
X103304000Y-89424000D01*
X102996000Y-89424000D01*
X102996000Y-89404000D01*
X102384000Y-89404000D01*
X102232000Y-89556000D01*
X102232000Y-89610001D01*
X102033199Y-89610001D01*
X101987210Y-89614510D01*
X101941223Y-89618533D01*
X101938698Y-89619266D01*
X101936082Y-89619523D01*
X101891882Y-89632868D01*
X101847515Y-89645758D01*
X101845180Y-89646968D01*
X101842664Y-89647728D01*
X101828781Y-89655110D01*
X101808097Y-89586602D01*
X101755413Y-89487517D01*
X101684486Y-89400552D01*
X101598019Y-89329020D01*
X101522783Y-89288341D01*
X101311121Y-89076679D01*
X101272537Y-89044986D01*
X101234365Y-89012956D01*
X101231878Y-89011589D01*
X101229682Y-89009785D01*
X101185685Y-88986194D01*
X101142012Y-88962184D01*
X101139308Y-88961326D01*
X101136803Y-88959983D01*
X101089100Y-88945399D01*
X101041555Y-88930317D01*
X101038730Y-88930000D01*
X101036018Y-88929171D01*
X100986441Y-88924135D01*
X100936823Y-88918570D01*
X100931266Y-88918531D01*
X100931168Y-88918521D01*
X100931077Y-88918530D01*
X100929283Y-88918517D01*
X100687425Y-88918517D01*
X100534162Y-88765254D01*
X100587830Y-88731195D01*
X100689113Y-88634745D01*
X100708279Y-88632865D01*
X100757937Y-88628521D01*
X100760662Y-88627729D01*
X100763490Y-88627452D01*
X100811242Y-88613035D01*
X100859141Y-88599119D01*
X100861663Y-88597811D01*
X100864381Y-88596991D01*
X100908378Y-88573597D01*
X100952709Y-88550618D01*
X100954932Y-88548843D01*
X100957434Y-88547513D01*
X100996026Y-88516038D01*
X101035072Y-88484868D01*
X101039031Y-88480965D01*
X101039105Y-88480904D01*
X101039162Y-88480835D01*
X101040441Y-88479574D01*
X101230015Y-88290000D01*
X102254467Y-88290000D01*
X102255788Y-88303414D01*
X102255788Y-88303414D01*
G37*
X102255788Y-88303414D02*
X102278660Y-88378814D01*
X102315803Y-88448303D01*
X102365789Y-88509211D01*
X102390592Y-88529566D01*
X102367735Y-88552423D01*
X102301197Y-88652004D01*
X102255365Y-88762653D01*
X102232000Y-88880117D01*
X102232000Y-88944000D01*
X102384000Y-89096000D01*
X102996000Y-89096000D01*
X102996000Y-89076000D01*
X103304000Y-89076000D01*
X103304000Y-89096000D01*
X103324000Y-89096000D01*
X103324000Y-89404000D01*
X103304000Y-89404000D01*
X103304000Y-89424000D01*
X102996000Y-89424000D01*
X102996000Y-89404000D01*
X102384000Y-89404000D01*
X102232000Y-89556000D01*
X102232000Y-89610001D01*
X102033199Y-89610001D01*
X101987210Y-89614510D01*
X101941223Y-89618533D01*
X101938698Y-89619266D01*
X101936082Y-89619523D01*
X101891882Y-89632868D01*
X101847515Y-89645758D01*
X101845180Y-89646968D01*
X101842664Y-89647728D01*
X101828781Y-89655110D01*
X101808097Y-89586602D01*
X101755413Y-89487517D01*
X101684486Y-89400552D01*
X101598019Y-89329020D01*
X101522783Y-89288341D01*
X101311121Y-89076679D01*
X101272537Y-89044986D01*
X101234365Y-89012956D01*
X101231878Y-89011589D01*
X101229682Y-89009785D01*
X101185685Y-88986194D01*
X101142012Y-88962184D01*
X101139308Y-88961326D01*
X101136803Y-88959983D01*
X101089100Y-88945399D01*
X101041555Y-88930317D01*
X101038730Y-88930000D01*
X101036018Y-88929171D01*
X100986441Y-88924135D01*
X100936823Y-88918570D01*
X100931266Y-88918531D01*
X100931168Y-88918521D01*
X100931077Y-88918530D01*
X100929283Y-88918517D01*
X100687425Y-88918517D01*
X100534162Y-88765254D01*
X100587830Y-88731195D01*
X100689113Y-88634745D01*
X100708279Y-88632865D01*
X100757937Y-88628521D01*
X100760662Y-88627729D01*
X100763490Y-88627452D01*
X100811242Y-88613035D01*
X100859141Y-88599119D01*
X100861663Y-88597811D01*
X100864381Y-88596991D01*
X100908378Y-88573597D01*
X100952709Y-88550618D01*
X100954932Y-88548843D01*
X100957434Y-88547513D01*
X100996026Y-88516038D01*
X101035072Y-88484868D01*
X101039031Y-88480965D01*
X101039105Y-88480904D01*
X101039162Y-88480835D01*
X101040441Y-88479574D01*
X101230015Y-88290000D01*
X102254467Y-88290000D01*
X102255788Y-88303414D01*
G36*
X91355789Y-86394211D02*
X91416697Y-86444197D01*
X91486186Y-86481340D01*
X91561586Y-86504212D01*
X91640000Y-86511935D01*
X92260000Y-86511935D01*
X92338414Y-86504212D01*
X92413814Y-86481340D01*
X92483303Y-86444197D01*
X92488417Y-86440000D01*
X94299542Y-86440000D01*
X94305788Y-86503414D01*
X94328660Y-86578814D01*
X94365803Y-86648303D01*
X94415789Y-86709211D01*
X94476697Y-86759197D01*
X94546186Y-86796340D01*
X94621586Y-86819212D01*
X94700000Y-86826935D01*
X94944387Y-86826935D01*
X94368162Y-87403160D01*
X94336469Y-87441744D01*
X94304439Y-87479916D01*
X94303072Y-87482403D01*
X94301268Y-87484599D01*
X94277677Y-87528596D01*
X94253667Y-87572269D01*
X94252809Y-87574973D01*
X94251466Y-87577478D01*
X94236882Y-87625181D01*
X94221800Y-87672726D01*
X94221483Y-87675551D01*
X94220654Y-87678263D01*
X94215618Y-87727840D01*
X94210053Y-87777458D01*
X94210014Y-87783015D01*
X94210004Y-87783113D01*
X94210013Y-87783204D01*
X94210000Y-87784998D01*
X94210000Y-88334639D01*
X94151697Y-88365803D01*
X94111935Y-88398435D01*
X94111935Y-88340000D01*
X94104212Y-88261586D01*
X94081340Y-88186186D01*
X94044197Y-88116697D01*
X93994211Y-88055789D01*
X93933303Y-88005803D01*
X93863814Y-87968660D01*
X93788414Y-87945788D01*
X93710000Y-87938065D01*
X93090000Y-87938065D01*
X93011586Y-87945788D01*
X92936186Y-87968660D01*
X92866697Y-88005803D01*
X92805789Y-88055789D01*
X92800000Y-88062843D01*
X92794211Y-88055789D01*
X92733303Y-88005803D01*
X92663814Y-87968660D01*
X92588414Y-87945788D01*
X92510000Y-87938065D01*
X91890000Y-87938065D01*
X91811586Y-87945788D01*
X91736186Y-87968660D01*
X91666697Y-88005803D01*
X91605789Y-88055789D01*
X91600000Y-88062843D01*
X91594211Y-88055789D01*
X91533303Y-88005803D01*
X91463814Y-87968660D01*
X91388414Y-87945788D01*
X91310000Y-87938065D01*
X90690000Y-87938065D01*
X90611586Y-87945788D01*
X90536186Y-87968660D01*
X90466697Y-88005803D01*
X90405789Y-88055789D01*
X90400000Y-88062843D01*
X90394211Y-88055789D01*
X90387157Y-88050000D01*
X90394211Y-88044211D01*
X90444197Y-87983303D01*
X90481340Y-87913814D01*
X90504212Y-87838414D01*
X90511935Y-87760000D01*
X90511935Y-87140000D01*
X90504212Y-87061586D01*
X90481340Y-86986186D01*
X90444197Y-86916697D01*
X90394211Y-86855789D01*
X90340000Y-86811299D01*
X90340000Y-86623676D01*
X90623676Y-86340000D01*
X91311299Y-86340000D01*
X91355789Y-86394211D01*
X91355789Y-86394211D01*
G37*
X91355789Y-86394211D02*
X91416697Y-86444197D01*
X91486186Y-86481340D01*
X91561586Y-86504212D01*
X91640000Y-86511935D01*
X92260000Y-86511935D01*
X92338414Y-86504212D01*
X92413814Y-86481340D01*
X92483303Y-86444197D01*
X92488417Y-86440000D01*
X94299542Y-86440000D01*
X94305788Y-86503414D01*
X94328660Y-86578814D01*
X94365803Y-86648303D01*
X94415789Y-86709211D01*
X94476697Y-86759197D01*
X94546186Y-86796340D01*
X94621586Y-86819212D01*
X94700000Y-86826935D01*
X94944387Y-86826935D01*
X94368162Y-87403160D01*
X94336469Y-87441744D01*
X94304439Y-87479916D01*
X94303072Y-87482403D01*
X94301268Y-87484599D01*
X94277677Y-87528596D01*
X94253667Y-87572269D01*
X94252809Y-87574973D01*
X94251466Y-87577478D01*
X94236882Y-87625181D01*
X94221800Y-87672726D01*
X94221483Y-87675551D01*
X94220654Y-87678263D01*
X94215618Y-87727840D01*
X94210053Y-87777458D01*
X94210014Y-87783015D01*
X94210004Y-87783113D01*
X94210013Y-87783204D01*
X94210000Y-87784998D01*
X94210000Y-88334639D01*
X94151697Y-88365803D01*
X94111935Y-88398435D01*
X94111935Y-88340000D01*
X94104212Y-88261586D01*
X94081340Y-88186186D01*
X94044197Y-88116697D01*
X93994211Y-88055789D01*
X93933303Y-88005803D01*
X93863814Y-87968660D01*
X93788414Y-87945788D01*
X93710000Y-87938065D01*
X93090000Y-87938065D01*
X93011586Y-87945788D01*
X92936186Y-87968660D01*
X92866697Y-88005803D01*
X92805789Y-88055789D01*
X92800000Y-88062843D01*
X92794211Y-88055789D01*
X92733303Y-88005803D01*
X92663814Y-87968660D01*
X92588414Y-87945788D01*
X92510000Y-87938065D01*
X91890000Y-87938065D01*
X91811586Y-87945788D01*
X91736186Y-87968660D01*
X91666697Y-88005803D01*
X91605789Y-88055789D01*
X91600000Y-88062843D01*
X91594211Y-88055789D01*
X91533303Y-88005803D01*
X91463814Y-87968660D01*
X91388414Y-87945788D01*
X91310000Y-87938065D01*
X90690000Y-87938065D01*
X90611586Y-87945788D01*
X90536186Y-87968660D01*
X90466697Y-88005803D01*
X90405789Y-88055789D01*
X90400000Y-88062843D01*
X90394211Y-88055789D01*
X90387157Y-88050000D01*
X90394211Y-88044211D01*
X90444197Y-87983303D01*
X90481340Y-87913814D01*
X90504212Y-87838414D01*
X90511935Y-87760000D01*
X90511935Y-87140000D01*
X90504212Y-87061586D01*
X90481340Y-86986186D01*
X90444197Y-86916697D01*
X90394211Y-86855789D01*
X90340000Y-86811299D01*
X90340000Y-86623676D01*
X90623676Y-86340000D01*
X91311299Y-86340000D01*
X91355789Y-86394211D01*
G36*
X113554000Y-86421000D02*
X113574000Y-86421000D01*
X113574000Y-86729000D01*
X113554000Y-86729000D01*
X113554000Y-86749000D01*
X113246000Y-86749000D01*
X113246000Y-86729000D01*
X113226000Y-86729000D01*
X113226000Y-86421000D01*
X113246000Y-86421000D01*
X113246000Y-86401000D01*
X113554000Y-86401000D01*
X113554000Y-86421000D01*
X113554000Y-86421000D01*
G37*
X113554000Y-86421000D02*
X113574000Y-86421000D01*
X113574000Y-86729000D01*
X113554000Y-86729000D01*
X113554000Y-86749000D01*
X113246000Y-86749000D01*
X113246000Y-86729000D01*
X113226000Y-86729000D01*
X113226000Y-86421000D01*
X113246000Y-86421000D01*
X113246000Y-86401000D01*
X113554000Y-86401000D01*
X113554000Y-86421000D01*
G36*
X109631830Y-85192000D02*
X109590117Y-85192000D01*
X109472653Y-85215365D01*
X109362004Y-85261197D01*
X109262423Y-85327735D01*
X109177736Y-85412422D01*
X109157972Y-85442000D01*
X108856000Y-85442000D01*
X108704000Y-85594000D01*
X108704000Y-86200000D01*
X109556000Y-86200000D01*
X109610000Y-86146000D01*
X109896000Y-86146000D01*
X109896000Y-86126000D01*
X110204000Y-86126000D01*
X110204000Y-86146000D01*
X110224000Y-86146000D01*
X110224000Y-86454000D01*
X110204000Y-86454000D01*
X110204000Y-86474000D01*
X109896000Y-86474000D01*
X109896000Y-86454000D01*
X109194000Y-86454000D01*
X109148000Y-86500000D01*
X108704000Y-86500000D01*
X108704000Y-86524000D01*
X108396000Y-86524000D01*
X108396000Y-86500000D01*
X108376000Y-86500000D01*
X108376000Y-86200000D01*
X108396000Y-86200000D01*
X108396000Y-85594000D01*
X108267847Y-85465847D01*
X108294211Y-85444211D01*
X108344197Y-85383303D01*
X108381340Y-85313814D01*
X108404212Y-85238414D01*
X108411935Y-85160000D01*
X108411935Y-84779999D01*
X109219829Y-84779999D01*
X109631830Y-85192000D01*
X109631830Y-85192000D01*
G37*
X109631830Y-85192000D02*
X109590117Y-85192000D01*
X109472653Y-85215365D01*
X109362004Y-85261197D01*
X109262423Y-85327735D01*
X109177736Y-85412422D01*
X109157972Y-85442000D01*
X108856000Y-85442000D01*
X108704000Y-85594000D01*
X108704000Y-86200000D01*
X109556000Y-86200000D01*
X109610000Y-86146000D01*
X109896000Y-86146000D01*
X109896000Y-86126000D01*
X110204000Y-86126000D01*
X110204000Y-86146000D01*
X110224000Y-86146000D01*
X110224000Y-86454000D01*
X110204000Y-86454000D01*
X110204000Y-86474000D01*
X109896000Y-86474000D01*
X109896000Y-86454000D01*
X109194000Y-86454000D01*
X109148000Y-86500000D01*
X108704000Y-86500000D01*
X108704000Y-86524000D01*
X108396000Y-86524000D01*
X108396000Y-86500000D01*
X108376000Y-86500000D01*
X108376000Y-86200000D01*
X108396000Y-86200000D01*
X108396000Y-85594000D01*
X108267847Y-85465847D01*
X108294211Y-85444211D01*
X108344197Y-85383303D01*
X108381340Y-85313814D01*
X108404212Y-85238414D01*
X108411935Y-85160000D01*
X108411935Y-84779999D01*
X109219829Y-84779999D01*
X109631830Y-85192000D01*
M02*
