G04 #@! TF.GenerationSoftware,KiCad,Pcbnew,no-vcs-found-d3b382c~59~ubuntu16.04.1*
G04 #@! TF.CreationDate,2017-07-25T02:02:09+01:00*
G04 #@! TF.ProjectId,m3radio,6D33726164696F2E6B696361645F7063,Rev 1*
G04 #@! TF.SameCoordinates,Original
G04 #@! TF.FileFunction,Soldermask,Top*
G04 #@! TF.FilePolarity,Negative*
%FSLAX46Y46*%
G04 Gerber Fmt 4.6, Leading zero omitted, Abs format (unit mm)*
G04 Created by KiCad (PCBNEW no-vcs-found-d3b382c~59~ubuntu16.04.1) date Tue Jul 25 02:02:09 2017*
%MOMM*%
%LPD*%
G01*
G04 APERTURE LIST*
%ADD10R,0.300000X1.500000*%
%ADD11R,1.500000X0.300000*%
%ADD12R,0.400000X0.950000*%
%ADD13R,0.620000X0.620000*%
%ADD14R,1.000000X1.050000*%
%ADD15R,1.050000X2.200000*%
%ADD16R,2.920000X0.740000*%
%ADD17C,0.950000*%
%ADD18C,0.100000*%
%ADD19R,0.650000X0.350000*%
%ADD20R,0.802000X0.802000*%
%ADD21R,0.750000X0.300000*%
%ADD22R,0.300000X0.750000*%
%ADD23R,2.602000X2.602000*%
%ADD24C,1.200000*%
%ADD25R,0.750000X0.900000*%
%ADD26R,0.470000X0.400000*%
%ADD27R,0.952000X1.702000*%
%ADD28R,0.520000X0.520000*%
%ADD29R,0.950000X1.000000*%
%ADD30R,0.950000X0.400000*%
%ADD31R,1.100000X0.600000*%
%ADD32R,1.450000X0.300000*%
%ADD33R,0.600000X0.200000*%
%ADD34R,1.800000X0.700000*%
%ADD35R,0.800000X1.000000*%
G04 APERTURE END LIST*
D10*
X97225000Y-106200000D03*
X97725000Y-106200000D03*
X98225000Y-106200000D03*
X98725000Y-106200000D03*
X99225000Y-106200000D03*
X99725000Y-106200000D03*
X100225000Y-106200000D03*
X100725000Y-106200000D03*
X101225000Y-106200000D03*
X101725000Y-106200000D03*
X102225000Y-106200000D03*
X102725000Y-106200000D03*
X103225000Y-106200000D03*
X103725000Y-106200000D03*
X104225000Y-106200000D03*
X104725000Y-106200000D03*
D11*
X106675000Y-104250000D03*
X106675000Y-103750000D03*
X106675000Y-103250000D03*
X106675000Y-102750000D03*
X106675000Y-102250000D03*
X106675000Y-101750000D03*
X106675000Y-101250000D03*
X106675000Y-100750000D03*
X106675000Y-100250000D03*
X106675000Y-99750000D03*
X106675000Y-99250000D03*
X106675000Y-98750000D03*
X106675000Y-98250000D03*
X106675000Y-97750000D03*
X106675000Y-97250000D03*
X106675000Y-96750000D03*
D10*
X104725000Y-94800000D03*
X104225000Y-94800000D03*
X103725000Y-94800000D03*
X103225000Y-94800000D03*
X102725000Y-94800000D03*
X102225000Y-94800000D03*
X101725000Y-94800000D03*
X101225000Y-94800000D03*
X100725000Y-94800000D03*
X100225000Y-94800000D03*
X99725000Y-94800000D03*
X99225000Y-94800000D03*
X98725000Y-94800000D03*
X98225000Y-94800000D03*
X97725000Y-94800000D03*
X97225000Y-94800000D03*
D11*
X95275000Y-96750000D03*
X95275000Y-97250000D03*
X95275000Y-97750000D03*
X95275000Y-98250000D03*
X95275000Y-98750000D03*
X95275000Y-99250000D03*
X95275000Y-99750000D03*
X95275000Y-100250000D03*
X95275000Y-100750000D03*
X95275000Y-101250000D03*
X95275000Y-101750000D03*
X95275000Y-102250000D03*
X95275000Y-102750000D03*
X95275000Y-103250000D03*
X95275000Y-103750000D03*
X95275000Y-104250000D03*
D12*
X104150000Y-85550000D03*
X103500000Y-85550000D03*
X102850000Y-85550000D03*
X102850000Y-87750000D03*
X103500000Y-87750000D03*
X104150000Y-87750000D03*
D13*
X89750000Y-90800000D03*
X88850000Y-90800000D03*
X113400000Y-86575000D03*
X113400000Y-87475000D03*
X92200000Y-113250000D03*
X91300000Y-113250000D03*
D14*
X87050000Y-109575000D03*
D15*
X88525000Y-111100000D03*
X85575000Y-111100000D03*
D13*
X108300000Y-96600000D03*
X108300000Y-95700000D03*
X106870000Y-111660000D03*
X106870000Y-112560000D03*
D16*
X83285000Y-94285000D03*
X86715000Y-94285000D03*
X83285000Y-95555000D03*
X86715000Y-95555000D03*
X83285000Y-96825000D03*
X86715000Y-96825000D03*
X83285000Y-98095000D03*
X86715000Y-98095000D03*
X83285000Y-99365000D03*
X86715000Y-99365000D03*
X83285000Y-100635000D03*
X86715000Y-100635000D03*
X83285000Y-101905000D03*
X86715000Y-101905000D03*
X83285000Y-103175000D03*
X86715000Y-103175000D03*
X83285000Y-104445000D03*
X86715000Y-104445000D03*
X83285000Y-105715000D03*
X86715000Y-105715000D03*
D13*
X108300000Y-106450000D03*
X108300000Y-105550000D03*
X109200000Y-94450000D03*
X108300000Y-94450000D03*
X93600000Y-106650000D03*
X93600000Y-105750000D03*
X100250000Y-107800000D03*
X101150000Y-107800000D03*
X108300000Y-104450000D03*
X108300000Y-103550000D03*
X102350000Y-107800000D03*
X103250000Y-107800000D03*
X93700000Y-95150000D03*
X93700000Y-94250000D03*
X97400000Y-93150000D03*
X96500000Y-93150000D03*
X93600000Y-103550000D03*
X93600000Y-104450000D03*
D17*
X113235770Y-112812836D03*
D18*
G36*
X113313468Y-113498101D02*
X112547424Y-112855313D01*
X113158072Y-112127571D01*
X113924116Y-112770359D01*
X113313468Y-113498101D01*
X113313468Y-113498101D01*
G37*
D17*
X114264230Y-111587164D03*
D18*
G36*
X114341928Y-112272429D02*
X113575884Y-111629641D01*
X114186532Y-110901899D01*
X114952576Y-111544687D01*
X114341928Y-112272429D01*
X114341928Y-112272429D01*
G37*
D17*
X111155322Y-114541139D03*
D18*
G36*
X111257631Y-113859114D02*
X111831207Y-114678266D01*
X111053013Y-115223164D01*
X110479437Y-114404012D01*
X111257631Y-113859114D01*
X111257631Y-113859114D01*
G37*
D17*
X109844678Y-115458861D03*
D18*
G36*
X109946987Y-114776836D02*
X110520563Y-115595988D01*
X109742369Y-116140886D01*
X109168793Y-115321734D01*
X109946987Y-114776836D01*
X109946987Y-114776836D01*
G37*
D19*
X92375000Y-104925000D03*
X92375000Y-104275000D03*
X92375000Y-103625000D03*
X92375000Y-102975000D03*
X89275000Y-102975000D03*
X89275000Y-103625000D03*
X89275000Y-104275000D03*
X89275000Y-104925000D03*
D20*
X90825000Y-104550000D03*
X90825000Y-103350000D03*
D21*
X94750000Y-88850000D03*
X94750000Y-89350000D03*
X94750000Y-89850000D03*
X94750000Y-90350000D03*
X94750000Y-90850000D03*
D22*
X95750000Y-91850000D03*
X96250000Y-91850000D03*
X96750000Y-91850000D03*
X97250000Y-91850000D03*
X97750000Y-91850000D03*
D21*
X98750000Y-90850000D03*
X98750000Y-90350000D03*
X98750000Y-89850000D03*
X98750000Y-89350000D03*
X98750000Y-88850000D03*
D22*
X97750000Y-87850000D03*
X97250000Y-87850000D03*
X96750000Y-87850000D03*
X96250000Y-87850000D03*
X95750000Y-87850000D03*
D23*
X96750000Y-89850000D03*
D24*
X85000000Y-107305000D03*
X85000000Y-92695000D03*
D16*
X113285000Y-94285000D03*
X116715000Y-94285000D03*
X113285000Y-95555000D03*
X116715000Y-95555000D03*
X113285000Y-96825000D03*
X116715000Y-96825000D03*
X113285000Y-98095000D03*
X116715000Y-98095000D03*
X113285000Y-99365000D03*
X116715000Y-99365000D03*
X113285000Y-100635000D03*
X116715000Y-100635000D03*
X113285000Y-101905000D03*
X116715000Y-101905000D03*
X113285000Y-103175000D03*
X116715000Y-103175000D03*
X113285000Y-104445000D03*
X116715000Y-104445000D03*
X113285000Y-105715000D03*
X116715000Y-105715000D03*
D24*
X115000000Y-107305000D03*
X115000000Y-92695000D03*
D13*
X110900000Y-109250000D03*
X110900000Y-110150000D03*
X109500000Y-109250000D03*
X109500000Y-110150000D03*
X94400000Y-93150000D03*
X95300000Y-93150000D03*
X91300000Y-94250000D03*
X91300000Y-95150000D03*
X91000000Y-88650000D03*
X91000000Y-89550000D03*
X93500000Y-92050000D03*
X92600000Y-92050000D03*
X92750000Y-90800000D03*
X91850000Y-90800000D03*
X89800000Y-87450000D03*
X88900000Y-87450000D03*
D25*
X91900000Y-93100000D03*
X93300000Y-93100000D03*
X91450000Y-92000000D03*
X90050000Y-92000000D03*
D13*
X93500000Y-113950000D03*
X93500000Y-114850000D03*
X89400000Y-112900000D03*
X89400000Y-113800000D03*
X113275000Y-88450000D03*
X114175000Y-88450000D03*
X108300000Y-89700000D03*
X109200000Y-89700000D03*
X90250000Y-109400000D03*
X90250000Y-110300000D03*
X91950000Y-85800000D03*
X91950000Y-84900000D03*
D26*
X90335000Y-114600000D03*
X90335000Y-115250000D03*
X90335000Y-115900000D03*
X92165000Y-115900000D03*
X92165000Y-115250000D03*
X92165000Y-114600000D03*
D27*
X91250000Y-115250000D03*
D28*
X91400000Y-110000000D03*
X91400000Y-109200000D03*
X93100000Y-110000000D03*
X92300000Y-110000000D03*
X93100000Y-111700000D03*
X93100000Y-110900000D03*
D29*
X90200000Y-111800000D03*
X91800000Y-111800000D03*
D13*
X88400000Y-112900000D03*
X88400000Y-113800000D03*
D14*
X95200000Y-85900000D03*
D15*
X93725000Y-84375000D03*
X96675000Y-84375000D03*
D13*
X115850000Y-89800000D03*
X115850000Y-90700000D03*
D30*
X114450000Y-90650000D03*
X114450000Y-90000000D03*
X114450000Y-89350000D03*
X112250000Y-89350000D03*
X112250000Y-90650000D03*
D13*
X104650000Y-90250000D03*
X104650000Y-91150000D03*
X104050000Y-89250000D03*
X103150000Y-89250000D03*
X106850000Y-89700000D03*
X105950000Y-89700000D03*
D31*
X108550000Y-88250000D03*
X108550000Y-87300000D03*
X108550000Y-86350000D03*
X105950000Y-86350000D03*
X105950000Y-88250000D03*
D32*
X106100000Y-91050000D03*
X106100000Y-91550000D03*
X106100000Y-92050000D03*
X106100000Y-92550000D03*
X106100000Y-93050000D03*
X110500000Y-93050000D03*
X110500000Y-92550000D03*
X110500000Y-92050000D03*
X110500000Y-91550000D03*
X110500000Y-91050000D03*
D33*
X103150000Y-92000000D03*
X103150000Y-91600000D03*
X103150000Y-91200000D03*
X103150000Y-90800000D03*
X103150000Y-90400000D03*
X101950000Y-90400000D03*
X101950000Y-90800000D03*
X101950000Y-91200000D03*
X101950000Y-91600000D03*
X101950000Y-92000000D03*
D34*
X104900000Y-118075000D03*
X104900000Y-116975000D03*
X104900000Y-115875000D03*
X104900000Y-114775000D03*
X104900000Y-113675000D03*
X104900000Y-112575000D03*
X104900000Y-111475000D03*
X104900000Y-110375000D03*
X104900000Y-109275000D03*
X95400000Y-109275000D03*
X95400000Y-110375000D03*
X95400000Y-111475000D03*
X95400000Y-112575000D03*
X95400000Y-113675000D03*
X95400000Y-114775000D03*
X95400000Y-115875000D03*
X95400000Y-116975000D03*
X95400000Y-118075000D03*
D13*
X107700000Y-84850000D03*
X106800000Y-84850000D03*
D35*
X112150000Y-86300000D03*
X112150000Y-87700000D03*
X110050000Y-86300000D03*
X110050000Y-87700000D03*
D13*
X92500000Y-94250000D03*
X92500000Y-95150000D03*
X93400000Y-89550000D03*
X93400000Y-88650000D03*
X92200000Y-89550000D03*
X92200000Y-88650000D03*
X89800000Y-88650000D03*
X89800000Y-89550000D03*
X100625000Y-87125000D03*
X100625000Y-86225000D03*
X99525000Y-85800000D03*
X99525000Y-86700000D03*
X90100000Y-94250000D03*
X90100000Y-95150000D03*
M02*
