G04 #@! TF.GenerationSoftware,KiCad,Pcbnew,no-vcs-found-feba091~58~ubuntu16.04.1*
G04 #@! TF.CreationDate,2017-06-30T13:37:27+01:00*
G04 #@! TF.ProjectId,TOAD,544F41442E6B696361645F7063620000,rev?*
G04 #@! TF.FileFunction,Paste,Top*
G04 #@! TF.FilePolarity,Positive*
%FSLAX46Y46*%
G04 Gerber Fmt 4.6, Leading zero omitted, Abs format (unit mm)*
G04 Created by KiCad (PCBNEW no-vcs-found-feba091~58~ubuntu16.04.1) date Fri Jun 30 13:37:27 2017*
%MOMM*%
%LPD*%
G01*
G04 APERTURE LIST*
%ADD10C,0.100000*%
%ADD11R,0.620000X0.620000*%
%ADD12R,1.800000X0.700000*%
%ADD13R,0.900000X0.750000*%
%ADD14R,0.750000X0.900000*%
%ADD15R,1.000000X0.950000*%
%ADD16R,0.520000X0.520000*%
%ADD17R,0.300000X1.500000*%
%ADD18R,1.500000X0.300000*%
%ADD19R,1.102000X1.102000*%
%ADD20R,0.750000X0.300000*%
%ADD21R,0.300000X0.750000*%
%ADD22R,0.950000X0.400000*%
%ADD23R,0.252000X0.301000*%
%ADD24R,0.300000X0.300000*%
%ADD25R,1.450000X0.450000*%
%ADD26R,1.502000X1.502000*%
%ADD27R,0.250000X0.600000*%
%ADD28R,0.600000X0.250000*%
%ADD29R,1.100000X0.600000*%
%ADD30R,1.450000X0.300000*%
%ADD31R,0.200000X0.600000*%
%ADD32R,1.100000X0.700000*%
%ADD33R,1.830000X1.140000*%
%ADD34R,2.800000X0.860000*%
%ADD35R,3.330000X0.700000*%
%ADD36R,0.930000X0.900000*%
%ADD37R,0.780000X1.050000*%
%ADD38R,1.000000X0.800000*%
G04 APERTURE END LIST*
D10*
D11*
X106300000Y-85450000D03*
X106300000Y-84550000D03*
D12*
X107050000Y-66000000D03*
X107050000Y-67100000D03*
X107050000Y-68200000D03*
X107050000Y-69300000D03*
X107050000Y-70400000D03*
X107050000Y-71500000D03*
X107050000Y-72600000D03*
X107050000Y-73700000D03*
X107050000Y-74800000D03*
X116550000Y-74800000D03*
X116550000Y-73700000D03*
X116550000Y-72600000D03*
X116550000Y-71500000D03*
X116550000Y-70400000D03*
X116550000Y-69300000D03*
X116550000Y-68200000D03*
X116550000Y-67100000D03*
X116550000Y-66000000D03*
D13*
X112444228Y-90973650D03*
X112444228Y-89573650D03*
D11*
X111244228Y-89973650D03*
X111244228Y-90873650D03*
X112944228Y-92348650D03*
X112044228Y-92348650D03*
X87500000Y-102750000D03*
X87500000Y-101850000D03*
D13*
X113694228Y-89573650D03*
X113694228Y-90973650D03*
D11*
X112044228Y-93498650D03*
X112044228Y-94398650D03*
X84500000Y-101850000D03*
X84500000Y-102750000D03*
X93950000Y-88800000D03*
X94850000Y-88800000D03*
X81700000Y-85150000D03*
X81700000Y-86050000D03*
D14*
X93700000Y-89900000D03*
X95100000Y-89900000D03*
D13*
X83000000Y-86100000D03*
X83000000Y-84700000D03*
D11*
X78600000Y-97450000D03*
X78600000Y-98350000D03*
X94750000Y-97100000D03*
X93850000Y-97100000D03*
X82050000Y-100900000D03*
X81150000Y-100900000D03*
D15*
X80300000Y-85900000D03*
X80300000Y-84300000D03*
D13*
X88700000Y-101600000D03*
X88700000Y-103000000D03*
D11*
X107344228Y-97748650D03*
X107344228Y-96848650D03*
X110794228Y-94398650D03*
X110794228Y-93498650D03*
X108569228Y-95648650D03*
X108569228Y-96548650D03*
X106144228Y-99898650D03*
X106144228Y-98998650D03*
D13*
X104250000Y-75200000D03*
X104250000Y-73800000D03*
D11*
X113094228Y-95798650D03*
X112194228Y-95798650D03*
X113294228Y-97923650D03*
X113294228Y-97023650D03*
D13*
X90302433Y-66736615D03*
X90302433Y-65336615D03*
D11*
X114119228Y-93973650D03*
X115019228Y-93973650D03*
D14*
X94102433Y-63236615D03*
X95502433Y-63236615D03*
D11*
X115044228Y-89673650D03*
X115044228Y-90573650D03*
D13*
X99330971Y-65605153D03*
X99330971Y-64205153D03*
X100830971Y-64205153D03*
X100830971Y-65605153D03*
D14*
X112379228Y-109048650D03*
X112379228Y-107648650D03*
D11*
X111179228Y-108948650D03*
X111179228Y-108048650D03*
X112879228Y-110423650D03*
X111979228Y-110423650D03*
D13*
X70600000Y-67200000D03*
X70600000Y-65800000D03*
D14*
X113629228Y-109048650D03*
X113629228Y-107648650D03*
D11*
X111979228Y-112473650D03*
X111979228Y-111573650D03*
D13*
X76500000Y-105700000D03*
X76500000Y-104300000D03*
D14*
X95500000Y-68600000D03*
X94100000Y-68600000D03*
X100900971Y-71035153D03*
X99500971Y-71035153D03*
X75200000Y-112750000D03*
X73800000Y-112750000D03*
D13*
X71500000Y-101200000D03*
X71500000Y-99800000D03*
D14*
X95600971Y-77435153D03*
X94200971Y-77435153D03*
D13*
X68500000Y-106800000D03*
X68500000Y-108200000D03*
D14*
X72300000Y-118000000D03*
X73700000Y-118000000D03*
D13*
X68750000Y-115950000D03*
X68750000Y-114550000D03*
D11*
X107279228Y-115823650D03*
X107279228Y-114923650D03*
X110729228Y-112473650D03*
X110729228Y-111573650D03*
X108504228Y-114623650D03*
X108504228Y-113723650D03*
X106079228Y-117973650D03*
X106079228Y-117073650D03*
X113029228Y-113873650D03*
X112129228Y-113873650D03*
X113229228Y-115998650D03*
X113229228Y-115098650D03*
X114054228Y-112048650D03*
X114954228Y-112048650D03*
D13*
X100600971Y-74535153D03*
X100600971Y-73135153D03*
D11*
X114979228Y-108648650D03*
X114979228Y-107748650D03*
D16*
X122300000Y-94000000D03*
X121500000Y-94000000D03*
X67900000Y-86200000D03*
X68700000Y-86200000D03*
X71700000Y-91200000D03*
X72500000Y-91200000D03*
X72400000Y-93800000D03*
X71600000Y-93800000D03*
X65300000Y-107650000D03*
X65300000Y-106850000D03*
X65500000Y-113500000D03*
X66300000Y-113500000D03*
X66100000Y-103700000D03*
X65300000Y-103700000D03*
D15*
X86500000Y-122200000D03*
X86500000Y-123800000D03*
X88500000Y-123800000D03*
X88500000Y-122200000D03*
X91500000Y-122200000D03*
X91500000Y-123800000D03*
X93500000Y-123800000D03*
X93500000Y-122200000D03*
X96500000Y-123800000D03*
X96500000Y-122200000D03*
X98500000Y-123800000D03*
X98500000Y-122200000D03*
X81500000Y-122200000D03*
X81500000Y-123800000D03*
D16*
X122600000Y-112000000D03*
X121800000Y-112000000D03*
D15*
X83500000Y-122200000D03*
X83500000Y-123800000D03*
D17*
X82250000Y-99200000D03*
X82750000Y-99200000D03*
X83250000Y-99200000D03*
X83750000Y-99200000D03*
X84250000Y-99200000D03*
X84750000Y-99200000D03*
X85250000Y-99200000D03*
X85750000Y-99200000D03*
X86250000Y-99200000D03*
X86750000Y-99200000D03*
X87250000Y-99200000D03*
X87750000Y-99200000D03*
X88250000Y-99200000D03*
X88750000Y-99200000D03*
X89250000Y-99200000D03*
X89750000Y-99200000D03*
D18*
X91700000Y-97250000D03*
X91700000Y-96750000D03*
X91700000Y-96250000D03*
X91700000Y-95750000D03*
X91700000Y-95250000D03*
X91700000Y-94750000D03*
X91700000Y-94250000D03*
X91700000Y-93750000D03*
X91700000Y-93250000D03*
X91700000Y-92750000D03*
X91700000Y-92250000D03*
X91700000Y-91750000D03*
X91700000Y-91250000D03*
X91700000Y-90750000D03*
X91700000Y-90250000D03*
X91700000Y-89750000D03*
D17*
X89750000Y-87800000D03*
X89250000Y-87800000D03*
X88750000Y-87800000D03*
X88250000Y-87800000D03*
X87750000Y-87800000D03*
X87250000Y-87800000D03*
X86750000Y-87800000D03*
X86250000Y-87800000D03*
X85750000Y-87800000D03*
X85250000Y-87800000D03*
X84750000Y-87800000D03*
X84250000Y-87800000D03*
X83750000Y-87800000D03*
X83250000Y-87800000D03*
X82750000Y-87800000D03*
X82250000Y-87800000D03*
D18*
X80300000Y-89750000D03*
X80300000Y-90250000D03*
X80300000Y-90750000D03*
X80300000Y-91250000D03*
X80300000Y-91750000D03*
X80300000Y-92250000D03*
X80300000Y-92750000D03*
X80300000Y-93250000D03*
X80300000Y-93750000D03*
X80300000Y-94250000D03*
X80300000Y-94750000D03*
X80300000Y-95250000D03*
X80300000Y-95750000D03*
X80300000Y-96250000D03*
X80300000Y-96750000D03*
X80300000Y-97250000D03*
D19*
X108094228Y-91373650D03*
X106794228Y-91373650D03*
X108094228Y-92673650D03*
X106794228Y-92673650D03*
D20*
X105444228Y-93023650D03*
X105444228Y-92523650D03*
X105444228Y-92023650D03*
X105444228Y-91523650D03*
X105444228Y-91023650D03*
D21*
X106444228Y-90023650D03*
X106944228Y-90023650D03*
X107444228Y-90023650D03*
X107944228Y-90023650D03*
X108444228Y-90023650D03*
D20*
X109444228Y-91023650D03*
X109444228Y-91523650D03*
X109444228Y-92023650D03*
X109444228Y-92523650D03*
X109444228Y-93023650D03*
D21*
X108444228Y-94023650D03*
X107944228Y-94023650D03*
X107444228Y-94023650D03*
X106944228Y-94023650D03*
X106444228Y-94023650D03*
D22*
X102700000Y-84850000D03*
X102700000Y-85500000D03*
X102700000Y-86150000D03*
X104900000Y-86150000D03*
X104900000Y-85500000D03*
X104900000Y-84850000D03*
D23*
X111894228Y-100149000D03*
X111894228Y-99600000D03*
X111894228Y-99051000D03*
X111469228Y-100149000D03*
X111469228Y-99600000D03*
X111469228Y-99051000D03*
X111044228Y-100149000D03*
X111044228Y-99600000D03*
X111044228Y-99051000D03*
D24*
X112419228Y-99050000D03*
X112419228Y-99600000D03*
X112419228Y-100150000D03*
X110519228Y-100150000D03*
X110519228Y-99600000D03*
X110519228Y-99050000D03*
D25*
X97002433Y-66811615D03*
X97002433Y-66161615D03*
X97002433Y-65511615D03*
X97002433Y-64861615D03*
X92602433Y-64861615D03*
X92602433Y-65511615D03*
X92602433Y-66161615D03*
X92602433Y-66811615D03*
D26*
X73000000Y-105750000D03*
D27*
X72250000Y-104350000D03*
X72750000Y-104350000D03*
X73250000Y-104350000D03*
X73750000Y-104350000D03*
D28*
X74400000Y-105000000D03*
X74400000Y-105500000D03*
X74400000Y-106000000D03*
X74400000Y-106500000D03*
D27*
X73750000Y-107150000D03*
X73250000Y-107150000D03*
X72750000Y-107150000D03*
X72250000Y-107150000D03*
D28*
X71600000Y-106500000D03*
X71600000Y-106000000D03*
X71600000Y-105500000D03*
X71600000Y-105000000D03*
D29*
X96200971Y-71985153D03*
X96200971Y-71035153D03*
X96200971Y-70085153D03*
X93600971Y-70085153D03*
X93600971Y-71985153D03*
D25*
X75200000Y-114525000D03*
X75200000Y-115175000D03*
X75200000Y-115825000D03*
X75200000Y-116475000D03*
X70800000Y-116475000D03*
X70800000Y-115825000D03*
X70800000Y-115175000D03*
X70800000Y-114525000D03*
D30*
X97100971Y-75835153D03*
X97100971Y-75335153D03*
X97100971Y-74835153D03*
X97100971Y-74335153D03*
X97100971Y-73835153D03*
X92700971Y-73835153D03*
X92700971Y-74335153D03*
X92700971Y-74835153D03*
X92700971Y-75335153D03*
X92700971Y-75835153D03*
D24*
X110425000Y-117150000D03*
X110425000Y-117700000D03*
X110425000Y-118250000D03*
X112325000Y-118250000D03*
X112325000Y-117700000D03*
X112325000Y-117150000D03*
D23*
X110950000Y-117151000D03*
X110950000Y-117700000D03*
X110950000Y-118249000D03*
X111375000Y-117151000D03*
X111375000Y-117700000D03*
X111375000Y-118249000D03*
X111800000Y-117151000D03*
X111800000Y-117700000D03*
X111800000Y-118249000D03*
D31*
X100700971Y-75935153D03*
X100300971Y-75935153D03*
X99900971Y-75935153D03*
X99500971Y-75935153D03*
X99100971Y-75935153D03*
X99100971Y-77135153D03*
X99500971Y-77135153D03*
X99900971Y-77135153D03*
X100300971Y-77135153D03*
X100700971Y-77135153D03*
D11*
X106444228Y-95648650D03*
X107344228Y-95648650D03*
X106119228Y-96823650D03*
X106119228Y-97723650D03*
X109819228Y-96873650D03*
X110719228Y-96873650D03*
X112044228Y-97923650D03*
X112044228Y-97023650D03*
X109200000Y-98150000D03*
X109200000Y-99050000D03*
X115019228Y-92723650D03*
X115019228Y-91823650D03*
X106379228Y-113723650D03*
X107279228Y-113723650D03*
X106054228Y-114898650D03*
X106054228Y-115798650D03*
X109754228Y-114948650D03*
X110654228Y-114948650D03*
X111979228Y-115098650D03*
X111979228Y-115998650D03*
X109100000Y-117150000D03*
X109100000Y-116250000D03*
X114985000Y-110800000D03*
X114985000Y-109900000D03*
D14*
X87000000Y-77100000D03*
X88400000Y-77100000D03*
X88400000Y-74000000D03*
X87000000Y-74000000D03*
D13*
X64500000Y-65800000D03*
X64500000Y-67200000D03*
X70000000Y-108200000D03*
X70000000Y-106800000D03*
X70000000Y-109550000D03*
X70000000Y-110950000D03*
X62500000Y-67200000D03*
X62500000Y-65800000D03*
X68500000Y-65800000D03*
X68500000Y-67200000D03*
X66500000Y-67200000D03*
X66500000Y-65800000D03*
D14*
X70000000Y-102750000D03*
X68600000Y-102750000D03*
D13*
X60500000Y-67200000D03*
X60500000Y-65800000D03*
X72700000Y-110900000D03*
X72700000Y-109500000D03*
X74250000Y-109550000D03*
X74250000Y-110950000D03*
X91700000Y-69850000D03*
X91700000Y-71250000D03*
X90300000Y-83900000D03*
X90300000Y-85300000D03*
X86500000Y-118700000D03*
X86500000Y-117300000D03*
X88500000Y-117300000D03*
X88500000Y-118700000D03*
X91500000Y-118700000D03*
X91500000Y-117300000D03*
X93500000Y-118700000D03*
X93500000Y-117300000D03*
X96500000Y-117300000D03*
X96500000Y-118700000D03*
X98500000Y-117300000D03*
X98500000Y-118700000D03*
X81500000Y-118700000D03*
X81500000Y-117300000D03*
X83500000Y-118700000D03*
X83500000Y-117300000D03*
D32*
X59800000Y-77650000D03*
X59800000Y-76550000D03*
X59800000Y-75450000D03*
X59800000Y-74350000D03*
X59800000Y-73350000D03*
X59800000Y-72250000D03*
X59800000Y-71150000D03*
X59800000Y-70050000D03*
D33*
X59815000Y-81530000D03*
D34*
X60300000Y-68870000D03*
D35*
X71065000Y-68790000D03*
X71065000Y-81750000D03*
D36*
X72265000Y-79440000D03*
D37*
X72340000Y-75175000D03*
D38*
X99430971Y-67205153D03*
X99430971Y-69305153D03*
X100830971Y-69305153D03*
X100830971Y-67205153D03*
D11*
X110719228Y-95648650D03*
X109819228Y-95648650D03*
X110654228Y-113723650D03*
X109754228Y-113723650D03*
D21*
X106365000Y-112120000D03*
X106865000Y-112120000D03*
X107365000Y-112120000D03*
X107865000Y-112120000D03*
X108365000Y-112120000D03*
D20*
X109365000Y-111120000D03*
X109365000Y-110620000D03*
X109365000Y-110120000D03*
X109365000Y-109620000D03*
X109365000Y-109120000D03*
D21*
X108365000Y-108120000D03*
X107865000Y-108120000D03*
X107365000Y-108120000D03*
X106865000Y-108120000D03*
X106365000Y-108120000D03*
D20*
X105365000Y-109120000D03*
X105365000Y-109620000D03*
X105365000Y-110120000D03*
X105365000Y-110620000D03*
X105365000Y-111120000D03*
D19*
X106715000Y-110770000D03*
X108015000Y-110770000D03*
X106715000Y-109470000D03*
X108015000Y-109470000D03*
D16*
X118700000Y-74800000D03*
X118700000Y-75600000D03*
X65400000Y-116100000D03*
X65400000Y-116900000D03*
M02*
