M48
;DRILL file {KiCad no-vcs-found-feba091~58~ubuntu16.04.1} date Fri Jun 30 13:37:32 2017
;FORMAT={-:-/ absolute / metric / decimal}
FMAT,2
METRIC,TZ
T1C0.200
T2C0.300
T3C0.800
T4C1.000
%
G90
G05
M71
T1
X72.4Y-105.15
X72.4Y-106.35
X73.6Y-105.15
X73.6Y-106.35
T2
X60.Y-80.
X60.Y-85.
X60.Y-90.
X60.Y-95.
X60.Y-100.
X60.Y-115.
X60.Y-120.
X61.35Y-77.65
X61.4Y-76.6
X62.5Y-69.5
X63.8Y-76.6
X63.95Y-72.25
X63.95Y-73.35
X64.5Y-70.
X64.6Y-77.4
X65.Y-60.
X65.Y-85.
X65.Y-90.
X65.Y-95.
X65.Y-100.
X65.Y-120.
X65.Y-125.
X66.75Y-105.
X66.75Y-106.75
X68.8Y-79.8
X68.8Y-109.3
X69.5Y-112.25
X70.Y-60.
X70.Y-75.
X70.Y-120.
X70.Y-125.
X70.2Y-78.3
X70.2Y-79.8
X70.2Y-104.2
X70.7Y-87.4
X71.1Y-107.5
X71.2Y-104.2
X71.2Y-108.6
X71.3Y-102.75
X71.6Y-109.5
X72.3Y-108.3
X73.Y-115.
X73.375Y-90.075
X73.9Y-81.1
X75.Y-60.
X75.Y-65.
X75.Y-120.
X75.Y-125.
X75.2Y-98.
X75.2Y-98.8
X75.3Y-70.6
X75.3Y-104.3
X75.3Y-108.1
X75.35Y-109.55
X75.6Y-94.2
X75.6Y-95.3
X75.6Y-96.5
X75.7Y-100.9
X75.8Y-99.6
X76.5Y-70.
X76.5Y-94.7
X76.5Y-95.9
X76.863Y-80.163
X77.45Y-109.55
X77.6Y-79.2
X77.7Y-99.6
X78.1Y-108.9
X78.6Y-78.9
X78.8Y-80.7
X78.9Y-110.7
X79.7Y-79.8
X79.7Y-110.7
X80.Y-60.
X80.Y-65.
X80.Y-70.
X80.Y-75.
X80.Y-115.
X80.Y-120.
X80.Y-125.
X81.1Y-88.4
X81.826Y-90.85
X82.1Y-106.7
X82.1Y-107.6
X82.5Y-80.1
X82.5Y-123.
X83.Y-93.
X83.1Y-80.9
X83.1Y-107.2
X83.1Y-108.2
X83.3Y-79.3
X83.6Y-97.6
X83.75Y-92.45
X84.Y-108.9
X84.5Y-93.2
X84.5Y-103.6
X84.8Y-85.4
X85.Y-60.
X85.Y-65.
X85.Y-70.
X85.Y-109.5
X85.Y-115.
X85.Y-120.
X85.Y-125.
X85.2Y-92.446
X85.8Y-91.7
X86.Y-110.1
X86.25Y-97.6
X86.3Y-91.
X86.9Y-110.7
X87.2Y-91.321
X87.2Y-96.4
X87.4Y-94.6
X87.5Y-123.
X87.8Y-111.3
X87.827Y-90.824
X88.7Y-104.3
X88.7Y-111.9
X89.2Y-96.
X89.7Y-74.2
X89.7Y-77.1
X90.Y-60.
X90.Y-115.
X90.Y-120.
X90.Y-125.
X90.1Y-108.
X90.5Y-103.
X91.Y-110.9
X91.2Y-109.
X91.8Y-99.4
X92.1Y-77.2
X92.1Y-88.5
X92.2Y-108.
X92.5Y-123.
X93.Y-99.4
X93.Y-110.4
X93.6Y-92.6
X93.8Y-109.6
X93.965Y-74.835
X94.112Y-91.985
X94.5Y-99.1
X94.9Y-92.4
X94.9Y-93.4
X94.9Y-109.2
X95.Y-60.
X95.Y-115.
X95.Y-120.
X95.Y-125.
X95.6Y-73.3
X95.6Y-86.8
X95.6Y-96.1
X95.601Y-78.635
X96.3Y-80.9
X96.5Y-109.2
X96.9Y-80.1
X97.1Y-96.
X97.2Y-85.2
X97.5Y-68.6
X97.5Y-123.
X97.6Y-79.3
X97.7Y-96.6
X97.8Y-94.2
X98.4Y-97.3
X98.5Y-94.7
X98.6Y-90.7
X98.6Y-107.4
X99.15Y-95.25
X99.3Y-103.3
X99.3Y-104.7
X99.3Y-105.8
X100.Y-60.
X100.Y-115.
X100.Y-120.
X100.Y-125.
X101.3Y-98.8
X101.3Y-101.8
X101.5Y-84.7
X101.5Y-110.5
X101.7Y-79.3
X102.2Y-76.3
X102.3Y-74.1
X102.3Y-80.1
X102.6Y-107.3
X102.7Y-83.7
X102.9Y-80.9
X104.9Y-83.7
X105.Y-60.
X105.Y-65.
X105.Y-120.
X105.Y-125.
X105.4Y-94.9
X105.4Y-107.6
X105.425Y-112.95
X105.5Y-89.8
X106.7Y-91.3
X106.7Y-110.77
X106.715Y-109.47
X106.794Y-92.674
X106.8Y-86.5
X106.8Y-103.7
X107.375Y-83.075
X107.4Y-101.5
X107.8Y-86.2
X107.9Y-103.7
X107.9Y-116.9
X108.Y-98.7
X108.Y-109.47
X108.015Y-110.77
X108.094Y-92.674
X108.1Y-91.3
X108.5Y-85.6
X109.1Y-103.8
X109.4Y-85.6
X109.4Y-89.3
X109.4Y-112.1
X109.5Y-94.3
X109.7Y-107.8
X109.9Y-104.8
X110.Y-60.
X110.Y-80.
X110.Y-125.
X111.375Y-117.7
X111.469Y-99.6
X113.Y-101.4
X113.Y-111.6
X113.Y-119.5
X113.1Y-93.9
X113.2Y-105.
X113.3Y-116.9
X113.4Y-98.8
X113.5Y-87.9
X113.8Y-119.5
X113.9Y-72.6
X113.9Y-74.8
X113.9Y-101.4
X113.935Y-110.17
X113.969Y-92.099
X114.099Y-95.799
X114.1Y-113.2
X115.Y-60.
X115.Y-80.
X115.Y-85.
X115.Y-125.
X116.55Y-76.75
X116.6Y-115.6
X118.2Y-78.
X118.324Y-96.224
X118.326Y-87.474
X118.6Y-114.1
X118.665Y-105.465
X120.Y-65.
X120.Y-85.
X120.Y-100.
X120.Y-120.
X122.3Y-66.7
X122.3Y-80.8
X122.325Y-102.725
X122.344Y-98.944
X122.4Y-116.7
T3
X63.5Y-103.75
X63.5Y-105.75
X63.5Y-107.75
X63.5Y-113.5
X63.5Y-115.5
X63.5Y-117.5
T4
X68.75Y-88.67
X68.75Y-91.21
X68.75Y-93.75
X68.75Y-96.29
X68.75Y-98.83
T0
M30
