M48
;DRILL file {KiCad no-vcs-found-feba091~58~ubuntu16.04.1} date Fri Jun 30 13:37:32 2017
;FORMAT={-:-/ absolute / metric / decimal}
FMAT,2
METRIC,TZ
T1C0.600
T2C1.000
T3C1.200
T4C3.300
%
G90
G05
M71
T1
X57.5Y-60.
X57.5Y-125.
X58.2Y-58.2
X58.2Y-61.8
X58.2Y-123.2
X58.2Y-126.8
X60.Y-57.5
X60.Y-62.5
X60.Y-122.5
X60.Y-127.5
X61.8Y-58.2
X61.8Y-61.8
X61.8Y-123.2
X61.8Y-126.8
X62.5Y-60.
X62.5Y-125.
X117.5Y-60.
X117.5Y-125.
X118.2Y-58.2
X118.2Y-61.8
X118.2Y-123.2
X118.2Y-126.8
X120.Y-57.5
X120.Y-62.5
X120.Y-122.5
X120.Y-127.5
X121.8Y-58.2
X121.8Y-61.8
X121.8Y-123.2
X121.8Y-126.8
X122.5Y-60.
X122.5Y-125.
T2
X73.189Y-84.419
X74.626Y-82.982
X77.5Y-87.293
T3
X61.4Y-102.25
X61.4Y-109.25
X61.4Y-112.
X61.4Y-119.
T4
X60.Y-60.
X60.Y-125.
X120.Y-60.
X120.Y-125.
T0
M30
