G04 #@! TF.FileFunction,Legend,Bot*
%FSLAX46Y46*%
G04 Gerber Fmt 4.6, Leading zero omitted, Abs format (unit mm)*
G04 Created by KiCad (PCBNEW 4.0.0-rc1-stable) date 23/05/2016 12:24:27*
%MOMM*%
G01*
G04 APERTURE LIST*
%ADD10C,0.100000*%
%ADD11C,0.250000*%
%ADD12C,0.200000*%
%ADD13C,0.300000*%
%ADD14C,0.150000*%
%ADD15R,1.370000X0.500000*%
%ADD16C,1.588000*%
%ADD17C,2.100000*%
%ADD18C,1.200000*%
%ADD19C,1.000000*%
%ADD20C,6.300000*%
%ADD21C,0.600000*%
G04 APERTURE END LIST*
D10*
D11*
X105776190Y-117202381D02*
X105776190Y-116202381D01*
X105442856Y-116916667D01*
X105109523Y-116202381D01*
X105109523Y-117202381D01*
X104728571Y-116202381D02*
X104109523Y-116202381D01*
X104442857Y-116583333D01*
X104299999Y-116583333D01*
X104204761Y-116630952D01*
X104157142Y-116678571D01*
X104109523Y-116773810D01*
X104109523Y-117011905D01*
X104157142Y-117107143D01*
X104204761Y-117154762D01*
X104299999Y-117202381D01*
X104585714Y-117202381D01*
X104680952Y-117154762D01*
X104728571Y-117107143D01*
X102919047Y-117202381D02*
X102919047Y-116202381D01*
X102442857Y-117202381D02*
X102442857Y-116202381D01*
X102109523Y-116916667D01*
X101776190Y-116202381D01*
X101776190Y-117202381D01*
X101300000Y-116202381D02*
X101300000Y-117011905D01*
X101252381Y-117107143D01*
X101204762Y-117154762D01*
X101109524Y-117202381D01*
X100919047Y-117202381D01*
X100823809Y-117154762D01*
X100776190Y-117107143D01*
X100728571Y-117011905D01*
X100728571Y-116202381D01*
X99585714Y-116535714D02*
X99347619Y-117202381D01*
X99109523Y-116535714D01*
X98538095Y-116202381D02*
X98442856Y-116202381D01*
X98347618Y-116250000D01*
X98299999Y-116297619D01*
X98252380Y-116392857D01*
X98204761Y-116583333D01*
X98204761Y-116821429D01*
X98252380Y-117011905D01*
X98299999Y-117107143D01*
X98347618Y-117154762D01*
X98442856Y-117202381D01*
X98538095Y-117202381D01*
X98633333Y-117154762D01*
X98680952Y-117107143D01*
X98728571Y-117011905D01*
X98776190Y-116821429D01*
X98776190Y-116583333D01*
X98728571Y-116392857D01*
X98680952Y-116297619D01*
X98633333Y-116250000D01*
X98538095Y-116202381D01*
X97776190Y-117107143D02*
X97728571Y-117154762D01*
X97776190Y-117202381D01*
X97823809Y-117154762D01*
X97776190Y-117107143D01*
X97776190Y-117202381D01*
X97347619Y-116297619D02*
X97300000Y-116250000D01*
X97204762Y-116202381D01*
X96966666Y-116202381D01*
X96871428Y-116250000D01*
X96823809Y-116297619D01*
X96776190Y-116392857D01*
X96776190Y-116488095D01*
X96823809Y-116630952D01*
X97395238Y-117202381D01*
X96776190Y-117202381D01*
X105490476Y-118852381D02*
X106061905Y-118852381D01*
X105776191Y-118852381D02*
X105776191Y-117852381D01*
X105871429Y-117995238D01*
X105966667Y-118090476D01*
X106061905Y-118138095D01*
X104538095Y-118852381D02*
X105109524Y-118852381D01*
X104823810Y-118852381D02*
X104823810Y-117852381D01*
X104919048Y-117995238D01*
X105014286Y-118090476D01*
X105109524Y-118138095D01*
X103347619Y-118852381D02*
X103347619Y-117852381D01*
X103014285Y-118566667D01*
X102680952Y-117852381D01*
X102680952Y-118852381D01*
X101776190Y-118852381D02*
X101776190Y-118328571D01*
X101823809Y-118233333D01*
X101919047Y-118185714D01*
X102109524Y-118185714D01*
X102204762Y-118233333D01*
X101776190Y-118804762D02*
X101871428Y-118852381D01*
X102109524Y-118852381D01*
X102204762Y-118804762D01*
X102252381Y-118709524D01*
X102252381Y-118614286D01*
X102204762Y-118519048D01*
X102109524Y-118471429D01*
X101871428Y-118471429D01*
X101776190Y-118423810D01*
X101300000Y-118852381D02*
X101300000Y-118185714D01*
X101300000Y-118376190D02*
X101252381Y-118280952D01*
X101204762Y-118233333D01*
X101109524Y-118185714D01*
X101014285Y-118185714D01*
X99966666Y-117947619D02*
X99919047Y-117900000D01*
X99823809Y-117852381D01*
X99585713Y-117852381D01*
X99490475Y-117900000D01*
X99442856Y-117947619D01*
X99395237Y-118042857D01*
X99395237Y-118138095D01*
X99442856Y-118280952D01*
X100014285Y-118852381D01*
X99395237Y-118852381D01*
X98776190Y-117852381D02*
X98680951Y-117852381D01*
X98585713Y-117900000D01*
X98538094Y-117947619D01*
X98490475Y-118042857D01*
X98442856Y-118233333D01*
X98442856Y-118471429D01*
X98490475Y-118661905D01*
X98538094Y-118757143D01*
X98585713Y-118804762D01*
X98680951Y-118852381D01*
X98776190Y-118852381D01*
X98871428Y-118804762D01*
X98919047Y-118757143D01*
X98966666Y-118661905D01*
X99014285Y-118471429D01*
X99014285Y-118233333D01*
X98966666Y-118042857D01*
X98919047Y-117947619D01*
X98871428Y-117900000D01*
X98776190Y-117852381D01*
X97490475Y-118852381D02*
X98061904Y-118852381D01*
X97776190Y-118852381D02*
X97776190Y-117852381D01*
X97871428Y-117995238D01*
X97966666Y-118090476D01*
X98061904Y-118138095D01*
X96633332Y-117852381D02*
X96823809Y-117852381D01*
X96919047Y-117900000D01*
X96966666Y-117947619D01*
X97061904Y-118090476D01*
X97109523Y-118280952D01*
X97109523Y-118661905D01*
X97061904Y-118757143D01*
X97014285Y-118804762D01*
X96919047Y-118852381D01*
X96728570Y-118852381D01*
X96633332Y-118804762D01*
X96585713Y-118757143D01*
X96538094Y-118661905D01*
X96538094Y-118423810D01*
X96585713Y-118328571D01*
X96633332Y-118280952D01*
X96728570Y-118233333D01*
X96919047Y-118233333D01*
X97014285Y-118280952D01*
X97061904Y-118328571D01*
X97109523Y-118423810D01*
D12*
X116975000Y-96850000D02*
X116775000Y-97050000D01*
D13*
X116249999Y-98778571D02*
X115249999Y-98778571D01*
X116249999Y-100278571D01*
X115249999Y-100278571D01*
X118449999Y-94978571D02*
X117449999Y-96478571D01*
X117449999Y-94978571D02*
X118449999Y-96478571D01*
X117750000Y-105089286D02*
X117750000Y-105803571D01*
X118250000Y-104303571D02*
X117750000Y-105089286D01*
X117250000Y-104303571D01*
D12*
X118418580Y-97450000D02*
X118018580Y-97050000D01*
X118418580Y-97450000D02*
X118018580Y-97850000D01*
X118375000Y-97450000D02*
X116375000Y-97450000D01*
X116775000Y-96650000D02*
X116975000Y-96850000D01*
X116975000Y-96850000D02*
G75*
G03X116975000Y-98050000I-200000J-600000D01*
G01*
X115775000Y-97450000D02*
X115375000Y-97450000D01*
X117750000Y-98450000D02*
X117600000Y-98650000D01*
X117750000Y-98450000D02*
X117550000Y-98250000D01*
X117750000Y-98450000D02*
G75*
G03X118750000Y-99450000I0J-1000000D01*
G01*
X117950000Y-99450000D02*
G75*
G03X117950000Y-99450000I-200000J0D01*
G01*
X117750000Y-101250000D02*
X117750000Y-100850000D01*
X118350000Y-102475000D02*
X118150000Y-102275000D01*
X118550000Y-102275000D02*
X118350000Y-102475000D01*
X118350000Y-102450000D02*
G75*
G03X117150000Y-102450000I-600000J200000D01*
G01*
X117750000Y-103893580D02*
X118150000Y-103493580D01*
X117750000Y-103893580D02*
X117350000Y-103493580D01*
X117750000Y-103850000D02*
X117750000Y-101850000D01*
D14*
X81410000Y-106800000D02*
X81410000Y-106000000D01*
X85410000Y-106800000D02*
X81410000Y-106800000D01*
X85410000Y-106000000D02*
X85410000Y-106800000D01*
X81410000Y-93200000D02*
X81410000Y-94000000D01*
X85410000Y-93200000D02*
X81410000Y-93200000D01*
X85410000Y-94000000D02*
X85410000Y-93200000D01*
X115500000Y-111500000D02*
X115500000Y-88500000D01*
X110750000Y-111500000D02*
X115500000Y-111500000D01*
X110750000Y-115750000D02*
X110750000Y-111500000D01*
X105750000Y-115750000D02*
X110750000Y-115750000D01*
X105750000Y-111500000D02*
X105750000Y-115750000D01*
X102750000Y-111500000D02*
X105750000Y-111500000D01*
X102750000Y-115750000D02*
X102750000Y-111500000D01*
X97750000Y-115750000D02*
X102750000Y-115750000D01*
X97750000Y-111500000D02*
X97750000Y-115750000D01*
X93000000Y-111500000D02*
X97750000Y-111500000D01*
X93000000Y-88500000D02*
X93000000Y-111500000D01*
X97750000Y-88500000D02*
X93000000Y-88500000D01*
X97750000Y-84250000D02*
X97750000Y-88500000D01*
X102750000Y-84250000D02*
X97750000Y-84250000D01*
X102750000Y-88500000D02*
X102750000Y-84250000D01*
X105750000Y-88500000D02*
X102750000Y-88500000D01*
X105750000Y-84250000D02*
X105750000Y-88500000D01*
X110750000Y-84250000D02*
X105750000Y-84250000D01*
X110750000Y-88500000D02*
X110750000Y-84250000D01*
X115500000Y-88500000D02*
X110750000Y-88500000D01*
X92791518Y-113031720D02*
X91589437Y-114233802D01*
X92225833Y-112466035D02*
X92791518Y-113031720D01*
X87558928Y-107799130D02*
X88159969Y-108400171D01*
X86356846Y-109001211D02*
X87558928Y-107799130D01*
%LPC*%
D15*
X81850000Y-94500000D03*
X85050000Y-94500000D03*
X81850000Y-95500000D03*
X85050000Y-95500000D03*
X81850000Y-96500000D03*
X85050000Y-96500000D03*
X81850000Y-97500000D03*
X85050000Y-97500000D03*
X81850000Y-98500000D03*
X85050000Y-98500000D03*
X81850000Y-99500000D03*
X85050000Y-99500000D03*
X81850000Y-100500000D03*
X85050000Y-100500000D03*
X81850000Y-101500000D03*
X85050000Y-101500000D03*
X81850000Y-102500000D03*
X85050000Y-102500000D03*
X81850000Y-103500000D03*
X85050000Y-103500000D03*
X81850000Y-104500000D03*
X85050000Y-104500000D03*
X81850000Y-105500000D03*
X85050000Y-105500000D03*
D16*
X100250000Y-113350000D03*
X108250000Y-86650000D03*
D17*
X104250000Y-113850000D03*
X112250000Y-113850000D03*
X96250000Y-113850000D03*
X96250000Y-86150000D03*
X104250000Y-86150000D03*
X112250000Y-86150000D03*
D18*
X85000000Y-107305000D03*
X85000000Y-92695000D03*
X115000000Y-107305000D03*
X115000000Y-92695000D03*
D10*
G36*
X90705553Y-110167937D02*
X89750959Y-111122531D01*
X89468117Y-110839689D01*
X90422711Y-109885095D01*
X90705553Y-110167937D01*
X90705553Y-110167937D01*
G37*
G36*
X90245933Y-109708318D02*
X89291339Y-110662912D01*
X89008497Y-110380070D01*
X89963091Y-109425476D01*
X90245933Y-109708318D01*
X90245933Y-109708318D01*
G37*
G36*
X91165172Y-110627557D02*
X90210578Y-111582151D01*
X89927736Y-111299309D01*
X90882330Y-110344715D01*
X91165172Y-110627557D01*
X91165172Y-110627557D01*
G37*
G36*
X91624791Y-111087176D02*
X90670197Y-112041770D01*
X90387355Y-111758928D01*
X91341949Y-110804334D01*
X91624791Y-111087176D01*
X91624791Y-111087176D01*
G37*
G36*
X89786314Y-109248699D02*
X88831720Y-110203293D01*
X88548878Y-109920451D01*
X89503472Y-108965857D01*
X89786314Y-109248699D01*
X89786314Y-109248699D01*
G37*
D19*
X88654944Y-108789079D02*
X88831720Y-108612303D01*
X91801569Y-111935704D02*
X91978345Y-111758928D01*
D10*
G36*
X88690299Y-111546796D02*
X87346796Y-112890299D01*
X86074003Y-111617506D01*
X87417506Y-110274003D01*
X88690299Y-111546796D01*
X88690299Y-111546796D01*
G37*
G36*
X90316645Y-113173142D02*
X88973142Y-114516645D01*
X87700349Y-113243852D01*
X89043852Y-111900349D01*
X90316645Y-113173142D01*
X90316645Y-113173142D01*
G37*
G36*
X87028598Y-109885095D02*
X85685095Y-111228598D01*
X84571402Y-110114905D01*
X85914905Y-108771402D01*
X87028598Y-109885095D01*
X87028598Y-109885095D01*
G37*
D19*
X84924955Y-109761351D02*
X85561351Y-109124955D01*
D10*
G36*
X91819246Y-114675743D02*
X90475743Y-116019246D01*
X89362050Y-114905553D01*
X90705553Y-113562050D01*
X91819246Y-114675743D01*
X91819246Y-114675743D01*
G37*
D19*
X90829297Y-115665693D02*
X91465693Y-115029297D01*
D20*
X89580000Y-87380000D03*
D21*
X89580000Y-84880000D03*
X92080000Y-87380000D03*
X89580000Y-89880000D03*
X87080000Y-87380000D03*
X87780000Y-85580000D03*
X91380000Y-85580000D03*
X87780000Y-89180000D03*
X91380000Y-89180000D03*
M02*
