M48
;DRILL file {KiCad 4.0.0-rc1-stable} date 23/05/2016 12:25:05
;FORMAT={-:-/ absolute / inch / decimal}
FMAT,2
INCH,TZ
T1C0.024
T2C0.047
T3C0.063
T4C0.083
T5C0.130
%
G90
G05
M72
T1
X3.4283Y-3.4402
X3.4559Y-3.3693
X3.4559Y-3.511
X3.5268Y-3.3417
X3.5268Y-3.5386
X3.5976Y-3.3693
X3.5976Y-3.511
X3.6252Y-3.4402
T2
X3.3465Y-3.6494
X3.3465Y-4.2246
X4.5276Y-3.6494
X4.5276Y-4.2246
T3
X3.9469Y-4.4626
X4.2618Y-3.4114
T4
X3.7894Y-3.3917
X3.7894Y-4.4823
X4.1043Y-3.3917
X4.1043Y-4.4823
X4.4193Y-3.3917
X4.4193Y-4.4823
T5
X3.5268Y-3.4402
T0
M30
