M48
;DRILL file {KiCad 4.0.0-rc1-stable} date 23/05/2016 12:25:05
;FORMAT={-:-/ absolute / inch / decimal}
FMAT,2
INCH,TZ
T1C0.016
T2C0.024
T3C0.026
%
G90
G05
M72
T1
X3.2598Y-3.6614
X3.2726Y-4.2028
X3.3858Y-3.6063
X3.4094Y-4.2047
X3.4173Y-3.6604
X3.4646Y-4.189
X3.4694Y-3.846
X3.4701Y-4.3225
X3.4705Y-3.807
X3.4709Y-3.9173
X3.4813Y-4.2224
X3.501Y-4.0551
X3.502Y-3.8878
X3.5138Y-4.0941
X3.5502Y-4.2153
X3.5598Y-4.2827
X3.5683Y-4.0697
X3.5895Y-4.31
X3.5945Y-3.7102
X3.5965Y-3.9222
X3.5974Y-4.1122
X3.6154Y-4.3378
X3.6646Y-4.3657
X3.7028Y-3.9547
X3.7449Y-4.0827
X3.7559Y-4.2417
X3.7626Y-4.2929
X3.7795Y-4.1732
X3.8417Y-4.189
X3.8583Y-3.9469
X3.8652Y-4.3701
X3.8661Y-4.1043
X3.8917Y-3.5728
X3.9114Y-3.8677
X3.9222Y-4.3661
X3.9311Y-4.1457
X3.937Y-4.6457
X3.9616Y-4.2766
X3.9803Y-4.1624
X4.0128Y-4.0866
X4.0472Y-4.1654
X4.0581Y-4.3858
X4.069Y-4.0324
X4.0817Y-3.8947
X4.0846Y-3.6791
X4.1496Y-4.0787
X4.186Y-4.1079
X4.19Y-3.5039
X4.2381Y-3.761
X4.2461Y-4.2343
X4.3238Y-3.7096
X4.3317Y-3.9272
X4.3602Y-4.0945
X4.3691Y-4.3573
X4.3701Y-3.81
X4.3701Y-3.8976
X4.3996Y-3.9567
X4.4006Y-3.7136
X4.4114Y-4.252
X4.4488Y-4.2047
X4.6063Y-4.2028
T2
X3.3463Y-4.3185G85X3.3658Y-4.299
G05
X3.5787Y-4.551G85X3.5982Y-4.5315
G05
T3
X3.491Y-4.2823G85X3.4966Y-4.2768
G05
X3.6149Y-4.4062G85X3.6205Y-4.4007
G05
T0
M30
