G04 #@! TF.FileFunction,Legend,Top*
%FSLAX46Y46*%
G04 Gerber Fmt 4.6, Leading zero omitted, Abs format (unit mm)*
G04 Created by KiCad (PCBNEW 4.0.0-rc1-stable) date 23/05/2016 12:24:27*
%MOMM*%
G01*
G04 APERTURE LIST*
%ADD10C,0.100000*%
%ADD11C,0.250000*%
%ADD12C,0.150000*%
%ADD13C,1.588000*%
%ADD14C,2.100000*%
%ADD15R,0.300000X1.500000*%
%ADD16R,1.500000X0.300000*%
%ADD17R,2.220000X0.740000*%
%ADD18C,1.200000*%
%ADD19R,0.620000X0.620000*%
%ADD20R,0.200000X0.400000*%
%ADD21R,0.400000X0.200000*%
%ADD22R,0.350000X0.650000*%
%ADD23R,0.802000X0.802000*%
%ADD24R,0.950000X1.000000*%
%ADD25R,1.100000X0.600000*%
%ADD26R,0.850000X0.950000*%
%ADD27C,1.000000*%
%ADD28C,6.300000*%
%ADD29C,0.600000*%
G04 APERTURE END LIST*
D10*
D11*
X92500001Y-117392857D02*
X93000001Y-117392857D01*
X93214287Y-118178571D02*
X92500001Y-118178571D01*
X92500001Y-116678571D01*
X93214287Y-116678571D01*
X93857144Y-118178571D02*
X93857144Y-117178571D01*
X93857144Y-117464286D02*
X93928572Y-117321429D01*
X94000001Y-117250000D01*
X94142858Y-117178571D01*
X94285715Y-117178571D01*
X94785715Y-118178571D02*
X94785715Y-117178571D01*
X94785715Y-117464286D02*
X94857143Y-117321429D01*
X94928572Y-117250000D01*
X95071429Y-117178571D01*
X95214286Y-117178571D01*
X104607143Y-116678571D02*
X104892857Y-116678571D01*
X105035715Y-116750000D01*
X105178572Y-116892857D01*
X105250000Y-117178571D01*
X105250000Y-117678571D01*
X105178572Y-117964286D01*
X105035715Y-118107143D01*
X104892857Y-118178571D01*
X104607143Y-118178571D01*
X104464286Y-118107143D01*
X104321429Y-117964286D01*
X104250000Y-117678571D01*
X104250000Y-117178571D01*
X104321429Y-116892857D01*
X104464286Y-116750000D01*
X104607143Y-116678571D01*
X105892858Y-118178571D02*
X105892858Y-116678571D01*
X106750001Y-118178571D02*
X106107144Y-117321429D01*
X106750001Y-116678571D02*
X105892858Y-117535714D01*
D12*
X106569953Y-97658473D02*
X106569953Y-105958473D01*
X106569953Y-105958473D02*
X97669953Y-105958473D01*
X97669953Y-105958473D02*
X97669953Y-97058473D01*
X97669953Y-97058473D02*
X105969953Y-97058473D01*
X105969953Y-97058473D02*
X106569953Y-97658473D01*
X86450000Y-106465000D02*
X85685000Y-106465000D01*
X85685000Y-106465000D02*
X85685000Y-108245000D01*
X85685000Y-108245000D02*
X84315000Y-108245000D01*
X84315000Y-108245000D02*
X84315000Y-106465000D01*
X84315000Y-106465000D02*
X83550000Y-106465000D01*
X83550000Y-106465000D02*
X83550000Y-106165000D01*
X83550000Y-93835000D02*
X83550000Y-93535000D01*
X83550000Y-93535000D02*
X84315000Y-93535000D01*
X84315000Y-93535000D02*
X84315000Y-91755000D01*
X84315000Y-91755000D02*
X85685000Y-91755000D01*
X85685000Y-91755000D02*
X85685000Y-93535000D01*
X85685000Y-93535000D02*
X86450000Y-93535000D01*
X93550000Y-107050000D02*
X93550000Y-108050000D01*
X93550000Y-108050000D02*
X91950000Y-108050000D01*
X91950000Y-108050000D02*
X91950000Y-106450000D01*
X91950000Y-106450000D02*
X92950000Y-106450000D01*
X92950000Y-106450000D02*
X93550000Y-107050000D01*
X116450000Y-106465000D02*
X115685000Y-106465000D01*
X115685000Y-106465000D02*
X115685000Y-108245000D01*
X115685000Y-108245000D02*
X114315000Y-108245000D01*
X114315000Y-108245000D02*
X114315000Y-106465000D01*
X114315000Y-106465000D02*
X113550000Y-106465000D01*
X113550000Y-106465000D02*
X113550000Y-106165000D01*
X113550000Y-93835000D02*
X113550000Y-93535000D01*
X113550000Y-93535000D02*
X114315000Y-93535000D01*
X114315000Y-93535000D02*
X114315000Y-91755000D01*
X114315000Y-91755000D02*
X115685000Y-91755000D01*
X115685000Y-91755000D02*
X115685000Y-93535000D01*
X115685000Y-93535000D02*
X116450000Y-93535000D01*
X109900000Y-110550000D02*
X109900000Y-113050000D01*
X106800000Y-109950000D02*
X106800000Y-113050000D01*
X109900000Y-110550000D02*
G75*
G03X109900000Y-109950000I0J300000D01*
G01*
X98125000Y-119000000D02*
X97875000Y-119325000D01*
X98125000Y-119000000D02*
X97875000Y-118675000D01*
X97875000Y-119325000D02*
X97875000Y-118675000D01*
X101875000Y-119000000D02*
X102125000Y-118675000D01*
X101875000Y-119000000D02*
X102125000Y-119325000D01*
X102125000Y-118675000D02*
X102125000Y-119325000D01*
X90500000Y-97125000D02*
X92900000Y-97125000D01*
X89900000Y-102125000D02*
X92900000Y-102125000D01*
X90500000Y-97125000D02*
G75*
G03X89900000Y-97125000I-300000J0D01*
G01*
X104844953Y-90633473D02*
X104744953Y-90633473D01*
X105494953Y-91683473D02*
X105494953Y-91383473D01*
X104844953Y-92433473D02*
X104744953Y-92433473D01*
X104094953Y-91683473D02*
X104094953Y-91383473D01*
D10*
G36*
X104238875Y-87804264D02*
X104287746Y-87806634D01*
X104318489Y-87827477D01*
X104323000Y-87845158D01*
X104311207Y-87869879D01*
X104277355Y-87925792D01*
X104223733Y-88009457D01*
X104152633Y-88117437D01*
X104066343Y-88246293D01*
X103967155Y-88392586D01*
X103857357Y-88552879D01*
X103739240Y-88723733D01*
X103706240Y-88771200D01*
X103584672Y-88945473D01*
X103468944Y-89110662D01*
X103361580Y-89263210D01*
X103265108Y-89399560D01*
X103182054Y-89516156D01*
X103114943Y-89609441D01*
X103066302Y-89675858D01*
X103038657Y-89711851D01*
X103035530Y-89715458D01*
X102973875Y-89761704D01*
X102908989Y-89773666D01*
X102860576Y-89770200D01*
X102843531Y-89754380D01*
X102845565Y-89725712D01*
X102858810Y-89701117D01*
X102893668Y-89645893D01*
X102947387Y-89564029D01*
X103017211Y-89459512D01*
X103100388Y-89336331D01*
X103194163Y-89198474D01*
X103295783Y-89049930D01*
X103402495Y-88894686D01*
X103511543Y-88736730D01*
X103620175Y-88580052D01*
X103725637Y-88428639D01*
X103825175Y-88286479D01*
X103916035Y-88157560D01*
X103995464Y-88045872D01*
X104060707Y-87955402D01*
X104109012Y-87890138D01*
X104137623Y-87854068D01*
X104138770Y-87852791D01*
X104184882Y-87819830D01*
X104238875Y-87804264D01*
X104238875Y-87804264D01*
X104238875Y-87804264D01*
G37*
X104238875Y-87804264D02*
X104287746Y-87806634D01*
X104318489Y-87827477D01*
X104323000Y-87845158D01*
X104311207Y-87869879D01*
X104277355Y-87925792D01*
X104223733Y-88009457D01*
X104152633Y-88117437D01*
X104066343Y-88246293D01*
X103967155Y-88392586D01*
X103857357Y-88552879D01*
X103739240Y-88723733D01*
X103706240Y-88771200D01*
X103584672Y-88945473D01*
X103468944Y-89110662D01*
X103361580Y-89263210D01*
X103265108Y-89399560D01*
X103182054Y-89516156D01*
X103114943Y-89609441D01*
X103066302Y-89675858D01*
X103038657Y-89711851D01*
X103035530Y-89715458D01*
X102973875Y-89761704D01*
X102908989Y-89773666D01*
X102860576Y-89770200D01*
X102843531Y-89754380D01*
X102845565Y-89725712D01*
X102858810Y-89701117D01*
X102893668Y-89645893D01*
X102947387Y-89564029D01*
X103017211Y-89459512D01*
X103100388Y-89336331D01*
X103194163Y-89198474D01*
X103295783Y-89049930D01*
X103402495Y-88894686D01*
X103511543Y-88736730D01*
X103620175Y-88580052D01*
X103725637Y-88428639D01*
X103825175Y-88286479D01*
X103916035Y-88157560D01*
X103995464Y-88045872D01*
X104060707Y-87955402D01*
X104109012Y-87890138D01*
X104137623Y-87854068D01*
X104138770Y-87852791D01*
X104184882Y-87819830D01*
X104238875Y-87804264D01*
X104238875Y-87804264D01*
G36*
X103694801Y-87803252D02*
X103736726Y-87816566D01*
X103751500Y-87842747D01*
X103739695Y-87866928D01*
X103705795Y-87922329D01*
X103652075Y-88005553D01*
X103580809Y-88113203D01*
X103494270Y-88241882D01*
X103394732Y-88388194D01*
X103284469Y-88548741D01*
X103165756Y-88720127D01*
X103124494Y-88779372D01*
X103002236Y-88954397D01*
X102886186Y-89119999D01*
X102778802Y-89272711D01*
X102682539Y-89409064D01*
X102599853Y-89525590D01*
X102533202Y-89618820D01*
X102485041Y-89685286D01*
X102457826Y-89721520D01*
X102454055Y-89726041D01*
X102410728Y-89755331D01*
X102353450Y-89772459D01*
X102295206Y-89776654D01*
X102248978Y-89767148D01*
X102227751Y-89743166D01*
X102227500Y-89739492D01*
X102239257Y-89716685D01*
X102272714Y-89663234D01*
X102325147Y-89583073D01*
X102393835Y-89480136D01*
X102476054Y-89358359D01*
X102569082Y-89221674D01*
X102670196Y-89074018D01*
X102776674Y-88919323D01*
X102885792Y-88761524D01*
X102994828Y-88604556D01*
X103101060Y-88452353D01*
X103201765Y-88308849D01*
X103294219Y-88177979D01*
X103375701Y-88063676D01*
X103443488Y-87969876D01*
X103494856Y-87900512D01*
X103527085Y-87859520D01*
X103533151Y-87852791D01*
X103580230Y-87821953D01*
X103638374Y-87805244D01*
X103694801Y-87803252D01*
X103694801Y-87803252D01*
X103694801Y-87803252D01*
G37*
X103694801Y-87803252D02*
X103736726Y-87816566D01*
X103751500Y-87842747D01*
X103739695Y-87866928D01*
X103705795Y-87922329D01*
X103652075Y-88005553D01*
X103580809Y-88113203D01*
X103494270Y-88241882D01*
X103394732Y-88388194D01*
X103284469Y-88548741D01*
X103165756Y-88720127D01*
X103124494Y-88779372D01*
X103002236Y-88954397D01*
X102886186Y-89119999D01*
X102778802Y-89272711D01*
X102682539Y-89409064D01*
X102599853Y-89525590D01*
X102533202Y-89618820D01*
X102485041Y-89685286D01*
X102457826Y-89721520D01*
X102454055Y-89726041D01*
X102410728Y-89755331D01*
X102353450Y-89772459D01*
X102295206Y-89776654D01*
X102248978Y-89767148D01*
X102227751Y-89743166D01*
X102227500Y-89739492D01*
X102239257Y-89716685D01*
X102272714Y-89663234D01*
X102325147Y-89583073D01*
X102393835Y-89480136D01*
X102476054Y-89358359D01*
X102569082Y-89221674D01*
X102670196Y-89074018D01*
X102776674Y-88919323D01*
X102885792Y-88761524D01*
X102994828Y-88604556D01*
X103101060Y-88452353D01*
X103201765Y-88308849D01*
X103294219Y-88177979D01*
X103375701Y-88063676D01*
X103443488Y-87969876D01*
X103494856Y-87900512D01*
X103527085Y-87859520D01*
X103533151Y-87852791D01*
X103580230Y-87821953D01*
X103638374Y-87805244D01*
X103694801Y-87803252D01*
X103694801Y-87803252D01*
G36*
X103025960Y-87805166D02*
X103092050Y-87807396D01*
X103125823Y-87816383D01*
X103137161Y-87835577D01*
X103137667Y-87844144D01*
X103125859Y-87868606D01*
X103091954Y-87924274D01*
X103038228Y-88007742D01*
X102966958Y-88115605D01*
X102880421Y-88244457D01*
X102780891Y-88390891D01*
X102670647Y-88551501D01*
X102551965Y-88722882D01*
X102511651Y-88780769D01*
X102389432Y-88955708D01*
X102273358Y-89121253D01*
X102165897Y-89273926D01*
X102069514Y-89410252D01*
X101986676Y-89526754D01*
X101919850Y-89619954D01*
X101871503Y-89686377D01*
X101844102Y-89722544D01*
X101840346Y-89726962D01*
X101806540Y-89755611D01*
X101765392Y-89768768D01*
X101701774Y-89770376D01*
X101677904Y-89769295D01*
X101610443Y-89763838D01*
X101575413Y-89753820D01*
X101562911Y-89734935D01*
X101562059Y-89718919D01*
X101574166Y-89693421D01*
X101608120Y-89637446D01*
X101661161Y-89554968D01*
X101730532Y-89449960D01*
X101813472Y-89326394D01*
X101907225Y-89188244D01*
X102009030Y-89039481D01*
X102116130Y-88884080D01*
X102225765Y-88726011D01*
X102335178Y-88569249D01*
X102441609Y-88417767D01*
X102542300Y-88275536D01*
X102634492Y-88146529D01*
X102715426Y-88034720D01*
X102782344Y-87944081D01*
X102832487Y-87878585D01*
X102863097Y-87842205D01*
X102868881Y-87836946D01*
X102920395Y-87816884D01*
X102995912Y-87806086D01*
X103025960Y-87805166D01*
X103025960Y-87805166D01*
X103025960Y-87805166D01*
G37*
X103025960Y-87805166D02*
X103092050Y-87807396D01*
X103125823Y-87816383D01*
X103137161Y-87835577D01*
X103137667Y-87844144D01*
X103125859Y-87868606D01*
X103091954Y-87924274D01*
X103038228Y-88007742D01*
X102966958Y-88115605D01*
X102880421Y-88244457D01*
X102780891Y-88390891D01*
X102670647Y-88551501D01*
X102551965Y-88722882D01*
X102511651Y-88780769D01*
X102389432Y-88955708D01*
X102273358Y-89121253D01*
X102165897Y-89273926D01*
X102069514Y-89410252D01*
X101986676Y-89526754D01*
X101919850Y-89619954D01*
X101871503Y-89686377D01*
X101844102Y-89722544D01*
X101840346Y-89726962D01*
X101806540Y-89755611D01*
X101765392Y-89768768D01*
X101701774Y-89770376D01*
X101677904Y-89769295D01*
X101610443Y-89763838D01*
X101575413Y-89753820D01*
X101562911Y-89734935D01*
X101562059Y-89718919D01*
X101574166Y-89693421D01*
X101608120Y-89637446D01*
X101661161Y-89554968D01*
X101730532Y-89449960D01*
X101813472Y-89326394D01*
X101907225Y-89188244D01*
X102009030Y-89039481D01*
X102116130Y-88884080D01*
X102225765Y-88726011D01*
X102335178Y-88569249D01*
X102441609Y-88417767D01*
X102542300Y-88275536D01*
X102634492Y-88146529D01*
X102715426Y-88034720D01*
X102782344Y-87944081D01*
X102832487Y-87878585D01*
X102863097Y-87842205D01*
X102868881Y-87836946D01*
X102920395Y-87816884D01*
X102995912Y-87806086D01*
X103025960Y-87805166D01*
X103025960Y-87805166D01*
G36*
X102213405Y-87807801D02*
X102289997Y-87809588D01*
X102290272Y-87809600D01*
X102370389Y-87815907D01*
X102415715Y-87827238D01*
X102433683Y-87845589D01*
X102434339Y-87848281D01*
X102423757Y-87871465D01*
X102391054Y-87925895D01*
X102338476Y-88008198D01*
X102268269Y-88115000D01*
X102182678Y-88242930D01*
X102083947Y-88388613D01*
X101974322Y-88548677D01*
X101856048Y-88719750D01*
X101814408Y-88779614D01*
X101692031Y-88954744D01*
X101575523Y-89120435D01*
X101467378Y-89273210D01*
X101370093Y-89409592D01*
X101286161Y-89526105D01*
X101218078Y-89619272D01*
X101168339Y-89685617D01*
X101139438Y-89721662D01*
X101135211Y-89726041D01*
X101093263Y-89754890D01*
X101040578Y-89769427D01*
X100962070Y-89773653D01*
X100955655Y-89773666D01*
X100871067Y-89768312D01*
X100824355Y-89750441D01*
X100812216Y-89717346D01*
X100829290Y-89670094D01*
X100849033Y-89638586D01*
X100890191Y-89576971D01*
X100949854Y-89489398D01*
X101025113Y-89380015D01*
X101113058Y-89252972D01*
X101210780Y-89112416D01*
X101315370Y-88962496D01*
X101423918Y-88807362D01*
X101533514Y-88651161D01*
X101641250Y-88498042D01*
X101744215Y-88352155D01*
X101839501Y-88217647D01*
X101924198Y-88098666D01*
X101995396Y-87999363D01*
X102050187Y-87923885D01*
X102085661Y-87876381D01*
X102096937Y-87862517D01*
X102130826Y-87830447D01*
X102164998Y-87813481D01*
X102213405Y-87807801D01*
X102213405Y-87807801D01*
X102213405Y-87807801D01*
G37*
X102213405Y-87807801D02*
X102289997Y-87809588D01*
X102290272Y-87809600D01*
X102370389Y-87815907D01*
X102415715Y-87827238D01*
X102433683Y-87845589D01*
X102434339Y-87848281D01*
X102423757Y-87871465D01*
X102391054Y-87925895D01*
X102338476Y-88008198D01*
X102268269Y-88115000D01*
X102182678Y-88242930D01*
X102083947Y-88388613D01*
X101974322Y-88548677D01*
X101856048Y-88719750D01*
X101814408Y-88779614D01*
X101692031Y-88954744D01*
X101575523Y-89120435D01*
X101467378Y-89273210D01*
X101370093Y-89409592D01*
X101286161Y-89526105D01*
X101218078Y-89619272D01*
X101168339Y-89685617D01*
X101139438Y-89721662D01*
X101135211Y-89726041D01*
X101093263Y-89754890D01*
X101040578Y-89769427D01*
X100962070Y-89773653D01*
X100955655Y-89773666D01*
X100871067Y-89768312D01*
X100824355Y-89750441D01*
X100812216Y-89717346D01*
X100829290Y-89670094D01*
X100849033Y-89638586D01*
X100890191Y-89576971D01*
X100949854Y-89489398D01*
X101025113Y-89380015D01*
X101113058Y-89252972D01*
X101210780Y-89112416D01*
X101315370Y-88962496D01*
X101423918Y-88807362D01*
X101533514Y-88651161D01*
X101641250Y-88498042D01*
X101744215Y-88352155D01*
X101839501Y-88217647D01*
X101924198Y-88098666D01*
X101995396Y-87999363D01*
X102050187Y-87923885D01*
X102085661Y-87876381D01*
X102096937Y-87862517D01*
X102130826Y-87830447D01*
X102164998Y-87813481D01*
X102213405Y-87807801D01*
X102213405Y-87807801D01*
G36*
X101463004Y-87807545D02*
X101531445Y-87809584D01*
X101621917Y-87815569D01*
X101684698Y-87825530D01*
X101712798Y-87838315D01*
X101713391Y-87839576D01*
X101705780Y-87866946D01*
X101678623Y-87918923D01*
X101637173Y-87985805D01*
X101621655Y-88008909D01*
X101479206Y-88216356D01*
X101336717Y-88422688D01*
X101196486Y-88624657D01*
X101060811Y-88819017D01*
X100931988Y-89002519D01*
X100812316Y-89171917D01*
X100704091Y-89323963D01*
X100609612Y-89455410D01*
X100531175Y-89563010D01*
X100471078Y-89643516D01*
X100431619Y-89693680D01*
X100421796Y-89704875D01*
X100386494Y-89739572D01*
X100353934Y-89760073D01*
X100311636Y-89770102D01*
X100247124Y-89773385D01*
X100191348Y-89773666D01*
X100108540Y-89772930D01*
X100059385Y-89769045D01*
X100035205Y-89759501D01*
X100027325Y-89741787D01*
X100026812Y-89726041D01*
X100038643Y-89701830D01*
X100072108Y-89646984D01*
X100124471Y-89565490D01*
X100193000Y-89461329D01*
X100274959Y-89338486D01*
X100367614Y-89200945D01*
X100468231Y-89052688D01*
X100574075Y-88897699D01*
X100682413Y-88739963D01*
X100790509Y-88583462D01*
X100895630Y-88432180D01*
X100995042Y-88290101D01*
X101086008Y-88161209D01*
X101165797Y-88049486D01*
X101231672Y-87958917D01*
X101280900Y-87893485D01*
X101305949Y-87862500D01*
X101333609Y-87833451D01*
X101361543Y-87816359D01*
X101400943Y-87808600D01*
X101463004Y-87807545D01*
X101463004Y-87807545D01*
X101463004Y-87807545D01*
G37*
X101463004Y-87807545D02*
X101531445Y-87809584D01*
X101621917Y-87815569D01*
X101684698Y-87825530D01*
X101712798Y-87838315D01*
X101713391Y-87839576D01*
X101705780Y-87866946D01*
X101678623Y-87918923D01*
X101637173Y-87985805D01*
X101621655Y-88008909D01*
X101479206Y-88216356D01*
X101336717Y-88422688D01*
X101196486Y-88624657D01*
X101060811Y-88819017D01*
X100931988Y-89002519D01*
X100812316Y-89171917D01*
X100704091Y-89323963D01*
X100609612Y-89455410D01*
X100531175Y-89563010D01*
X100471078Y-89643516D01*
X100431619Y-89693680D01*
X100421796Y-89704875D01*
X100386494Y-89739572D01*
X100353934Y-89760073D01*
X100311636Y-89770102D01*
X100247124Y-89773385D01*
X100191348Y-89773666D01*
X100108540Y-89772930D01*
X100059385Y-89769045D01*
X100035205Y-89759501D01*
X100027325Y-89741787D01*
X100026812Y-89726041D01*
X100038643Y-89701830D01*
X100072108Y-89646984D01*
X100124471Y-89565490D01*
X100193000Y-89461329D01*
X100274959Y-89338486D01*
X100367614Y-89200945D01*
X100468231Y-89052688D01*
X100574075Y-88897699D01*
X100682413Y-88739963D01*
X100790509Y-88583462D01*
X100895630Y-88432180D01*
X100995042Y-88290101D01*
X101086008Y-88161209D01*
X101165797Y-88049486D01*
X101231672Y-87958917D01*
X101280900Y-87893485D01*
X101305949Y-87862500D01*
X101333609Y-87833451D01*
X101361543Y-87816359D01*
X101400943Y-87808600D01*
X101463004Y-87807545D01*
X101463004Y-87807545D01*
G36*
X93587874Y-87805046D02*
X97235645Y-87810398D01*
X97696080Y-87811078D01*
X98116045Y-87811723D01*
X98497406Y-87812357D01*
X98842026Y-87813005D01*
X99151770Y-87813689D01*
X99428502Y-87814436D01*
X99674087Y-87815270D01*
X99890388Y-87816214D01*
X100079271Y-87817293D01*
X100242598Y-87818531D01*
X100382235Y-87819953D01*
X100500047Y-87821583D01*
X100597896Y-87823445D01*
X100677648Y-87825564D01*
X100741166Y-87827964D01*
X100790315Y-87830670D01*
X100826960Y-87833705D01*
X100852965Y-87837094D01*
X100870193Y-87840862D01*
X100880509Y-87845032D01*
X100885778Y-87849629D01*
X100887864Y-87854678D01*
X100888380Y-87858083D01*
X100877381Y-87885457D01*
X100842682Y-87945353D01*
X100785439Y-88036026D01*
X100706807Y-88155729D01*
X100690463Y-88180027D01*
X94395833Y-88180027D01*
X94395833Y-88320680D01*
X94395833Y-88461333D01*
X94468539Y-88461333D01*
X94565783Y-88473339D01*
X94637782Y-88507165D01*
X94669894Y-88543933D01*
X94688846Y-88603433D01*
X94701361Y-88689921D01*
X94706794Y-88788453D01*
X94704495Y-88884081D01*
X94693820Y-88961859D01*
X94688763Y-88979847D01*
X94668484Y-89025411D01*
X94638681Y-89060016D01*
X94593854Y-89085128D01*
X94528501Y-89102211D01*
X94437120Y-89112730D01*
X94314210Y-89118149D01*
X94162690Y-89119910D01*
X93999848Y-89118068D01*
X93874828Y-89110808D01*
X93783364Y-89097258D01*
X93721188Y-89076542D01*
X93684034Y-89047786D01*
X93669590Y-89018890D01*
X93648050Y-88926724D01*
X93639607Y-88845144D01*
X93642626Y-88752324D01*
X93646416Y-88709786D01*
X93662503Y-88605810D01*
X93689568Y-88537549D01*
X93732440Y-88498832D01*
X93795950Y-88483490D01*
X93824333Y-88482500D01*
X93909000Y-88482500D01*
X93909000Y-88342019D01*
X93909000Y-88201537D01*
X93775752Y-88212233D01*
X93657841Y-88229419D01*
X93567074Y-88262690D01*
X93500415Y-88316524D01*
X93454829Y-88395395D01*
X93427282Y-88503781D01*
X93414739Y-88646158D01*
X93413145Y-88747083D01*
X93418981Y-88924376D01*
X93436939Y-89065316D01*
X93469090Y-89174670D01*
X93517503Y-89257207D01*
X93584249Y-89317697D01*
X93671399Y-89360908D01*
X93681163Y-89364409D01*
X93770234Y-89385027D01*
X93890487Y-89398139D01*
X94032268Y-89404111D01*
X94185918Y-89403308D01*
X94341780Y-89396096D01*
X94490198Y-89382841D01*
X94621514Y-89363909D01*
X94726071Y-89339663D01*
X94770990Y-89323155D01*
X94827881Y-89277635D01*
X94878321Y-89201517D01*
X94915206Y-89106533D01*
X94923547Y-89071267D01*
X94936948Y-88966129D01*
X94942825Y-88836832D01*
X94941193Y-88700871D01*
X94932068Y-88575741D01*
X94923028Y-88513273D01*
X94905396Y-88434720D01*
X94884531Y-88365164D01*
X94871044Y-88332323D01*
X94815934Y-88271085D01*
X94723307Y-88226019D01*
X94595103Y-88197951D01*
X94543390Y-88192397D01*
X94395833Y-88180027D01*
X100690463Y-88180027D01*
X100689217Y-88181880D01*
X94967333Y-88181880D01*
X94967333Y-88321607D01*
X94967333Y-88461333D01*
X95480625Y-88462255D01*
X95674004Y-88463350D01*
X95829581Y-88466161D01*
X95951868Y-88471128D01*
X96045378Y-88478692D01*
X96114623Y-88489291D01*
X96164114Y-88503368D01*
X96198364Y-88521360D01*
X96212947Y-88533688D01*
X96230743Y-88573297D01*
X96243029Y-88643479D01*
X96249787Y-88732857D01*
X96250996Y-88830053D01*
X96246638Y-88923692D01*
X96236692Y-89002396D01*
X96221141Y-89054790D01*
X96213853Y-89065339D01*
X96186242Y-89086428D01*
X96147101Y-89103157D01*
X96091788Y-89115992D01*
X96015658Y-89125403D01*
X95914069Y-89131857D01*
X95782376Y-89135821D01*
X95615936Y-89137764D01*
X95491208Y-89138162D01*
X94967333Y-89138666D01*
X94967333Y-89277927D01*
X94967333Y-89417187D01*
X95586458Y-89409824D01*
X95772457Y-89407258D01*
X95920933Y-89404279D01*
X96036695Y-89400602D01*
X96124553Y-89395941D01*
X96189317Y-89390011D01*
X96235797Y-89382527D01*
X96268802Y-89373205D01*
X96279667Y-89368735D01*
X96366172Y-89315076D01*
X96424558Y-89241206D01*
X96461423Y-89143971D01*
X96476079Y-89060895D01*
X96485338Y-88949429D01*
X96489073Y-88823186D01*
X96487155Y-88695781D01*
X96479456Y-88580829D01*
X96467508Y-88499417D01*
X96433412Y-88387934D01*
X96382303Y-88308738D01*
X96307779Y-88253131D01*
X96274648Y-88237493D01*
X96243022Y-88226085D01*
X96204537Y-88216941D01*
X96153987Y-88209713D01*
X96086169Y-88204050D01*
X95995879Y-88199604D01*
X95877913Y-88196026D01*
X95727067Y-88192966D01*
X95575875Y-88190609D01*
X94967333Y-88181880D01*
X100689217Y-88181880D01*
X100686334Y-88186166D01*
X98311667Y-88186166D01*
X98195250Y-88186166D01*
X98078833Y-88186166D01*
X98078833Y-88197115D01*
X97587994Y-88197115D01*
X97472183Y-88203656D01*
X97372717Y-88223964D01*
X97300686Y-88256465D01*
X97289188Y-88265481D01*
X97248123Y-88314367D01*
X97216583Y-88382767D01*
X97192456Y-88477508D01*
X97173629Y-88605413D01*
X97168175Y-88656498D01*
X97152912Y-88806977D01*
X97139419Y-88920529D01*
X97125284Y-89002353D01*
X97108091Y-89057646D01*
X97085428Y-89091609D01*
X97054878Y-89109440D01*
X97014029Y-89116337D01*
X96960466Y-89117499D01*
X96954096Y-89117500D01*
X96864702Y-89112103D01*
X96807112Y-89091271D01*
X96771652Y-89048039D01*
X96748651Y-88975444D01*
X96747134Y-88968510D01*
X96725757Y-88820478D01*
X96729486Y-88697583D01*
X96757354Y-88602491D01*
X96808394Y-88537871D01*
X96881640Y-88506387D01*
X96915662Y-88503666D01*
X96937876Y-88499201D01*
X96950361Y-88479656D01*
X96955831Y-88435809D01*
X96957000Y-88363122D01*
X96957000Y-88222577D01*
X96836537Y-88235010D01*
X96725687Y-88257878D01*
X96644030Y-88304022D01*
X96582049Y-88379576D01*
X96565417Y-88409782D01*
X96548326Y-88448697D01*
X96536474Y-88492281D01*
X96528949Y-88548938D01*
X96524839Y-88627072D01*
X96523233Y-88735086D01*
X96523083Y-88800000D01*
X96525444Y-88959770D01*
X96533750Y-89083352D01*
X96549840Y-89176693D01*
X96575549Y-89245739D01*
X96612715Y-89296435D01*
X96663176Y-89334729D01*
X96693231Y-89350727D01*
X96782892Y-89379266D01*
X96896213Y-89394622D01*
X97016480Y-89396345D01*
X97126980Y-89383984D01*
X97195691Y-89364255D01*
X97247839Y-89333540D01*
X97289685Y-89286499D01*
X97322813Y-89218299D01*
X97348809Y-89124106D01*
X97369258Y-88999089D01*
X97385746Y-88838415D01*
X97391212Y-88768250D01*
X97400713Y-88677177D01*
X97414132Y-88597867D01*
X97429116Y-88543090D01*
X97434890Y-88531114D01*
X97483547Y-88490093D01*
X97554864Y-88469739D01*
X97635973Y-88468947D01*
X97714006Y-88486616D01*
X97776094Y-88521643D01*
X97806237Y-88562941D01*
X97814865Y-88608032D01*
X97820419Y-88683261D01*
X97822242Y-88776501D01*
X97821182Y-88838948D01*
X97817238Y-88938850D01*
X97811643Y-89005550D01*
X97802394Y-89048175D01*
X97787487Y-89075856D01*
X97764919Y-89097722D01*
X97764280Y-89098240D01*
X97707153Y-89127043D01*
X97642572Y-89138666D01*
X97570833Y-89138666D01*
X97570833Y-89278689D01*
X97570833Y-89418711D01*
X97692542Y-89403806D01*
X97826813Y-89376386D01*
X97923017Y-89331520D01*
X97981796Y-89268901D01*
X97984547Y-89263802D01*
X98015496Y-89177218D01*
X98037966Y-89059589D01*
X98051165Y-88921502D01*
X98054299Y-88773543D01*
X98046573Y-88626296D01*
X98037871Y-88552631D01*
X98011923Y-88425979D01*
X97972326Y-88334494D01*
X97912917Y-88271677D01*
X97827532Y-88231029D01*
X97710007Y-88206049D01*
X97709059Y-88205914D01*
X97587994Y-88197115D01*
X98078833Y-88197115D01*
X98078833Y-88800000D01*
X98078833Y-89413833D01*
X98830250Y-89413833D01*
X99581667Y-89413833D01*
X99581667Y-89276250D01*
X99581667Y-89138666D01*
X99274750Y-89138666D01*
X98967833Y-89138666D01*
X98967833Y-88725916D01*
X98967833Y-88313166D01*
X98851417Y-88313166D01*
X98735000Y-88313166D01*
X98735000Y-88725916D01*
X98735000Y-89138666D01*
X98523333Y-89138666D01*
X98311667Y-89138666D01*
X98311667Y-88662416D01*
X98311667Y-88186166D01*
X100686334Y-88186166D01*
X100607942Y-88302715D01*
X100489998Y-88475239D01*
X100354132Y-88671553D01*
X100279316Y-88778833D01*
X100157837Y-88952243D01*
X100042206Y-89116585D01*
X99934969Y-89268291D01*
X99838670Y-89403793D01*
X99755855Y-89519525D01*
X99689068Y-89611920D01*
X99640855Y-89677409D01*
X99613760Y-89712426D01*
X99611100Y-89715458D01*
X99556911Y-89773666D01*
X96584085Y-89773666D01*
X93611259Y-89773666D01*
X93500838Y-89718779D01*
X93458055Y-89696427D01*
X93383001Y-89656026D01*
X93280374Y-89600150D01*
X93154871Y-89531376D01*
X93011192Y-89452280D01*
X92854032Y-89365439D01*
X92688091Y-89273428D01*
X92643411Y-89248599D01*
X92454043Y-89143033D01*
X92298753Y-89055703D01*
X92174405Y-88984669D01*
X92077862Y-88927988D01*
X92005986Y-88883721D01*
X91955641Y-88849927D01*
X91923689Y-88824663D01*
X91906994Y-88805990D01*
X91902420Y-88791966D01*
X91902577Y-88790196D01*
X91914387Y-88772236D01*
X91947671Y-88744103D01*
X92004973Y-88704191D01*
X92088838Y-88650892D01*
X92201809Y-88582602D01*
X92346430Y-88497712D01*
X92525245Y-88394617D01*
X92564917Y-88371912D01*
X92725974Y-88280084D01*
X92883485Y-88190758D01*
X93031663Y-88107182D01*
X93164721Y-88032602D01*
X93276872Y-87970265D01*
X93362329Y-87923418D01*
X93404479Y-87900893D01*
X93587874Y-87805046D01*
X93587874Y-87805046D01*
X93587874Y-87805046D01*
G37*
X93587874Y-87805046D02*
X97235645Y-87810398D01*
X97696080Y-87811078D01*
X98116045Y-87811723D01*
X98497406Y-87812357D01*
X98842026Y-87813005D01*
X99151770Y-87813689D01*
X99428502Y-87814436D01*
X99674087Y-87815270D01*
X99890388Y-87816214D01*
X100079271Y-87817293D01*
X100242598Y-87818531D01*
X100382235Y-87819953D01*
X100500047Y-87821583D01*
X100597896Y-87823445D01*
X100677648Y-87825564D01*
X100741166Y-87827964D01*
X100790315Y-87830670D01*
X100826960Y-87833705D01*
X100852965Y-87837094D01*
X100870193Y-87840862D01*
X100880509Y-87845032D01*
X100885778Y-87849629D01*
X100887864Y-87854678D01*
X100888380Y-87858083D01*
X100877381Y-87885457D01*
X100842682Y-87945353D01*
X100785439Y-88036026D01*
X100706807Y-88155729D01*
X100690463Y-88180027D01*
X94395833Y-88180027D01*
X94395833Y-88320680D01*
X94395833Y-88461333D01*
X94468539Y-88461333D01*
X94565783Y-88473339D01*
X94637782Y-88507165D01*
X94669894Y-88543933D01*
X94688846Y-88603433D01*
X94701361Y-88689921D01*
X94706794Y-88788453D01*
X94704495Y-88884081D01*
X94693820Y-88961859D01*
X94688763Y-88979847D01*
X94668484Y-89025411D01*
X94638681Y-89060016D01*
X94593854Y-89085128D01*
X94528501Y-89102211D01*
X94437120Y-89112730D01*
X94314210Y-89118149D01*
X94162690Y-89119910D01*
X93999848Y-89118068D01*
X93874828Y-89110808D01*
X93783364Y-89097258D01*
X93721188Y-89076542D01*
X93684034Y-89047786D01*
X93669590Y-89018890D01*
X93648050Y-88926724D01*
X93639607Y-88845144D01*
X93642626Y-88752324D01*
X93646416Y-88709786D01*
X93662503Y-88605810D01*
X93689568Y-88537549D01*
X93732440Y-88498832D01*
X93795950Y-88483490D01*
X93824333Y-88482500D01*
X93909000Y-88482500D01*
X93909000Y-88342019D01*
X93909000Y-88201537D01*
X93775752Y-88212233D01*
X93657841Y-88229419D01*
X93567074Y-88262690D01*
X93500415Y-88316524D01*
X93454829Y-88395395D01*
X93427282Y-88503781D01*
X93414739Y-88646158D01*
X93413145Y-88747083D01*
X93418981Y-88924376D01*
X93436939Y-89065316D01*
X93469090Y-89174670D01*
X93517503Y-89257207D01*
X93584249Y-89317697D01*
X93671399Y-89360908D01*
X93681163Y-89364409D01*
X93770234Y-89385027D01*
X93890487Y-89398139D01*
X94032268Y-89404111D01*
X94185918Y-89403308D01*
X94341780Y-89396096D01*
X94490198Y-89382841D01*
X94621514Y-89363909D01*
X94726071Y-89339663D01*
X94770990Y-89323155D01*
X94827881Y-89277635D01*
X94878321Y-89201517D01*
X94915206Y-89106533D01*
X94923547Y-89071267D01*
X94936948Y-88966129D01*
X94942825Y-88836832D01*
X94941193Y-88700871D01*
X94932068Y-88575741D01*
X94923028Y-88513273D01*
X94905396Y-88434720D01*
X94884531Y-88365164D01*
X94871044Y-88332323D01*
X94815934Y-88271085D01*
X94723307Y-88226019D01*
X94595103Y-88197951D01*
X94543390Y-88192397D01*
X94395833Y-88180027D01*
X100690463Y-88180027D01*
X100689217Y-88181880D01*
X94967333Y-88181880D01*
X94967333Y-88321607D01*
X94967333Y-88461333D01*
X95480625Y-88462255D01*
X95674004Y-88463350D01*
X95829581Y-88466161D01*
X95951868Y-88471128D01*
X96045378Y-88478692D01*
X96114623Y-88489291D01*
X96164114Y-88503368D01*
X96198364Y-88521360D01*
X96212947Y-88533688D01*
X96230743Y-88573297D01*
X96243029Y-88643479D01*
X96249787Y-88732857D01*
X96250996Y-88830053D01*
X96246638Y-88923692D01*
X96236692Y-89002396D01*
X96221141Y-89054790D01*
X96213853Y-89065339D01*
X96186242Y-89086428D01*
X96147101Y-89103157D01*
X96091788Y-89115992D01*
X96015658Y-89125403D01*
X95914069Y-89131857D01*
X95782376Y-89135821D01*
X95615936Y-89137764D01*
X95491208Y-89138162D01*
X94967333Y-89138666D01*
X94967333Y-89277927D01*
X94967333Y-89417187D01*
X95586458Y-89409824D01*
X95772457Y-89407258D01*
X95920933Y-89404279D01*
X96036695Y-89400602D01*
X96124553Y-89395941D01*
X96189317Y-89390011D01*
X96235797Y-89382527D01*
X96268802Y-89373205D01*
X96279667Y-89368735D01*
X96366172Y-89315076D01*
X96424558Y-89241206D01*
X96461423Y-89143971D01*
X96476079Y-89060895D01*
X96485338Y-88949429D01*
X96489073Y-88823186D01*
X96487155Y-88695781D01*
X96479456Y-88580829D01*
X96467508Y-88499417D01*
X96433412Y-88387934D01*
X96382303Y-88308738D01*
X96307779Y-88253131D01*
X96274648Y-88237493D01*
X96243022Y-88226085D01*
X96204537Y-88216941D01*
X96153987Y-88209713D01*
X96086169Y-88204050D01*
X95995879Y-88199604D01*
X95877913Y-88196026D01*
X95727067Y-88192966D01*
X95575875Y-88190609D01*
X94967333Y-88181880D01*
X100689217Y-88181880D01*
X100686334Y-88186166D01*
X98311667Y-88186166D01*
X98195250Y-88186166D01*
X98078833Y-88186166D01*
X98078833Y-88197115D01*
X97587994Y-88197115D01*
X97472183Y-88203656D01*
X97372717Y-88223964D01*
X97300686Y-88256465D01*
X97289188Y-88265481D01*
X97248123Y-88314367D01*
X97216583Y-88382767D01*
X97192456Y-88477508D01*
X97173629Y-88605413D01*
X97168175Y-88656498D01*
X97152912Y-88806977D01*
X97139419Y-88920529D01*
X97125284Y-89002353D01*
X97108091Y-89057646D01*
X97085428Y-89091609D01*
X97054878Y-89109440D01*
X97014029Y-89116337D01*
X96960466Y-89117499D01*
X96954096Y-89117500D01*
X96864702Y-89112103D01*
X96807112Y-89091271D01*
X96771652Y-89048039D01*
X96748651Y-88975444D01*
X96747134Y-88968510D01*
X96725757Y-88820478D01*
X96729486Y-88697583D01*
X96757354Y-88602491D01*
X96808394Y-88537871D01*
X96881640Y-88506387D01*
X96915662Y-88503666D01*
X96937876Y-88499201D01*
X96950361Y-88479656D01*
X96955831Y-88435809D01*
X96957000Y-88363122D01*
X96957000Y-88222577D01*
X96836537Y-88235010D01*
X96725687Y-88257878D01*
X96644030Y-88304022D01*
X96582049Y-88379576D01*
X96565417Y-88409782D01*
X96548326Y-88448697D01*
X96536474Y-88492281D01*
X96528949Y-88548938D01*
X96524839Y-88627072D01*
X96523233Y-88735086D01*
X96523083Y-88800000D01*
X96525444Y-88959770D01*
X96533750Y-89083352D01*
X96549840Y-89176693D01*
X96575549Y-89245739D01*
X96612715Y-89296435D01*
X96663176Y-89334729D01*
X96693231Y-89350727D01*
X96782892Y-89379266D01*
X96896213Y-89394622D01*
X97016480Y-89396345D01*
X97126980Y-89383984D01*
X97195691Y-89364255D01*
X97247839Y-89333540D01*
X97289685Y-89286499D01*
X97322813Y-89218299D01*
X97348809Y-89124106D01*
X97369258Y-88999089D01*
X97385746Y-88838415D01*
X97391212Y-88768250D01*
X97400713Y-88677177D01*
X97414132Y-88597867D01*
X97429116Y-88543090D01*
X97434890Y-88531114D01*
X97483547Y-88490093D01*
X97554864Y-88469739D01*
X97635973Y-88468947D01*
X97714006Y-88486616D01*
X97776094Y-88521643D01*
X97806237Y-88562941D01*
X97814865Y-88608032D01*
X97820419Y-88683261D01*
X97822242Y-88776501D01*
X97821182Y-88838948D01*
X97817238Y-88938850D01*
X97811643Y-89005550D01*
X97802394Y-89048175D01*
X97787487Y-89075856D01*
X97764919Y-89097722D01*
X97764280Y-89098240D01*
X97707153Y-89127043D01*
X97642572Y-89138666D01*
X97570833Y-89138666D01*
X97570833Y-89278689D01*
X97570833Y-89418711D01*
X97692542Y-89403806D01*
X97826813Y-89376386D01*
X97923017Y-89331520D01*
X97981796Y-89268901D01*
X97984547Y-89263802D01*
X98015496Y-89177218D01*
X98037966Y-89059589D01*
X98051165Y-88921502D01*
X98054299Y-88773543D01*
X98046573Y-88626296D01*
X98037871Y-88552631D01*
X98011923Y-88425979D01*
X97972326Y-88334494D01*
X97912917Y-88271677D01*
X97827532Y-88231029D01*
X97710007Y-88206049D01*
X97709059Y-88205914D01*
X97587994Y-88197115D01*
X98078833Y-88197115D01*
X98078833Y-88800000D01*
X98078833Y-89413833D01*
X98830250Y-89413833D01*
X99581667Y-89413833D01*
X99581667Y-89276250D01*
X99581667Y-89138666D01*
X99274750Y-89138666D01*
X98967833Y-89138666D01*
X98967833Y-88725916D01*
X98967833Y-88313166D01*
X98851417Y-88313166D01*
X98735000Y-88313166D01*
X98735000Y-88725916D01*
X98735000Y-89138666D01*
X98523333Y-89138666D01*
X98311667Y-89138666D01*
X98311667Y-88662416D01*
X98311667Y-88186166D01*
X100686334Y-88186166D01*
X100607942Y-88302715D01*
X100489998Y-88475239D01*
X100354132Y-88671553D01*
X100279316Y-88778833D01*
X100157837Y-88952243D01*
X100042206Y-89116585D01*
X99934969Y-89268291D01*
X99838670Y-89403793D01*
X99755855Y-89519525D01*
X99689068Y-89611920D01*
X99640855Y-89677409D01*
X99613760Y-89712426D01*
X99611100Y-89715458D01*
X99556911Y-89773666D01*
X96584085Y-89773666D01*
X93611259Y-89773666D01*
X93500838Y-89718779D01*
X93458055Y-89696427D01*
X93383001Y-89656026D01*
X93280374Y-89600150D01*
X93154871Y-89531376D01*
X93011192Y-89452280D01*
X92854032Y-89365439D01*
X92688091Y-89273428D01*
X92643411Y-89248599D01*
X92454043Y-89143033D01*
X92298753Y-89055703D01*
X92174405Y-88984669D01*
X92077862Y-88927988D01*
X92005986Y-88883721D01*
X91955641Y-88849927D01*
X91923689Y-88824663D01*
X91906994Y-88805990D01*
X91902420Y-88791966D01*
X91902577Y-88790196D01*
X91914387Y-88772236D01*
X91947671Y-88744103D01*
X92004973Y-88704191D01*
X92088838Y-88650892D01*
X92201809Y-88582602D01*
X92346430Y-88497712D01*
X92525245Y-88394617D01*
X92564917Y-88371912D01*
X92725974Y-88280084D01*
X92883485Y-88190758D01*
X93031663Y-88107182D01*
X93164721Y-88032602D01*
X93276872Y-87970265D01*
X93362329Y-87923418D01*
X93404479Y-87900893D01*
X93587874Y-87805046D01*
X93587874Y-87805046D01*
D12*
X88859013Y-112548094D02*
X88859013Y-112548094D01*
X88859013Y-112548094D02*
X88151906Y-111840987D01*
X88151906Y-111840987D02*
X87960987Y-112031906D01*
X87960987Y-112031906D02*
X88859013Y-112929932D01*
X88859013Y-112929932D02*
X88859013Y-112548094D01*
%LPC*%
D13*
X100250000Y-113350000D03*
X108250000Y-86650000D03*
D14*
X104250000Y-113850000D03*
X112250000Y-113850000D03*
X96250000Y-113850000D03*
X96250000Y-86150000D03*
X104250000Y-86150000D03*
X112250000Y-86150000D03*
D15*
X105869953Y-95808473D03*
X105369953Y-95808473D03*
X104869953Y-95808473D03*
X104369953Y-95808473D03*
X103869953Y-95808473D03*
X103369953Y-95808473D03*
X102869953Y-95808473D03*
X102369953Y-95808473D03*
X101869953Y-95808473D03*
X101369953Y-95808473D03*
X100869953Y-95808473D03*
X100369953Y-95808473D03*
X99869953Y-95808473D03*
X99369953Y-95808473D03*
X98869953Y-95808473D03*
X98369953Y-95808473D03*
D16*
X96419953Y-97758473D03*
X96419953Y-98258473D03*
X96419953Y-98758473D03*
X96419953Y-99258473D03*
X96419953Y-99758473D03*
X96419953Y-100258473D03*
X96419953Y-100758473D03*
X96419953Y-101258473D03*
X96419953Y-101758473D03*
X96419953Y-102258473D03*
X96419953Y-102758473D03*
X96419953Y-103258473D03*
X96419953Y-103758473D03*
X96419953Y-104258473D03*
X96419953Y-104758473D03*
X96419953Y-105258473D03*
D15*
X98369953Y-107208473D03*
X98869953Y-107208473D03*
X99369953Y-107208473D03*
X99869953Y-107208473D03*
X100369953Y-107208473D03*
X100869953Y-107208473D03*
X101369953Y-107208473D03*
X101869953Y-107208473D03*
X102369953Y-107208473D03*
X102869953Y-107208473D03*
X103369953Y-107208473D03*
X103869953Y-107208473D03*
X104369953Y-107208473D03*
X104869953Y-107208473D03*
X105369953Y-107208473D03*
X105869953Y-107208473D03*
D16*
X107819953Y-105258473D03*
X107819953Y-104758473D03*
X107819953Y-104258473D03*
X107819953Y-103758473D03*
X107819953Y-103258473D03*
X107819953Y-102758473D03*
X107819953Y-102258473D03*
X107819953Y-101758473D03*
X107819953Y-101258473D03*
X107819953Y-100758473D03*
X107819953Y-100258473D03*
X107819953Y-99758473D03*
X107819953Y-99258473D03*
X107819953Y-98758473D03*
X107819953Y-98258473D03*
X107819953Y-97758473D03*
D17*
X86365000Y-94285000D03*
X83635000Y-94285000D03*
X86365000Y-95555000D03*
X83635000Y-95555000D03*
X86365000Y-96825000D03*
X83635000Y-96825000D03*
X86365000Y-98095000D03*
X83635000Y-98095000D03*
X86365000Y-99365000D03*
X83635000Y-99365000D03*
X86365000Y-100635000D03*
X83635000Y-100635000D03*
X86365000Y-101905000D03*
X83635000Y-101905000D03*
X86365000Y-103175000D03*
X83635000Y-103175000D03*
X86365000Y-104445000D03*
X83635000Y-104445000D03*
X86365000Y-105715000D03*
X83635000Y-105715000D03*
D18*
X85000000Y-107305000D03*
X85000000Y-92695000D03*
D19*
X98450000Y-117400000D03*
X97550000Y-117400000D03*
D20*
X93750000Y-105750000D03*
X93350000Y-105750000D03*
X92950000Y-105750000D03*
X92550000Y-105750000D03*
X92150000Y-105750000D03*
X91750000Y-105750000D03*
D21*
X91250000Y-106250000D03*
X91250000Y-106650000D03*
X91250000Y-107050000D03*
X91250000Y-107450000D03*
X91250000Y-107850000D03*
X91250000Y-108250000D03*
D20*
X91750000Y-108750000D03*
X92150000Y-108750000D03*
X92550000Y-108750000D03*
X92950000Y-108750000D03*
X93350000Y-108750000D03*
X93750000Y-108750000D03*
D21*
X94250000Y-108250000D03*
X94250000Y-107850000D03*
X94250000Y-107450000D03*
X94250000Y-107050000D03*
X94250000Y-106650000D03*
X94250000Y-106250000D03*
D19*
X94100000Y-109850000D03*
X93200000Y-109850000D03*
D17*
X116365000Y-94285000D03*
X113635000Y-94285000D03*
X116365000Y-95555000D03*
X113635000Y-95555000D03*
X116365000Y-96825000D03*
X113635000Y-96825000D03*
X116365000Y-98095000D03*
X113635000Y-98095000D03*
X116365000Y-99365000D03*
X113635000Y-99365000D03*
X116365000Y-100635000D03*
X113635000Y-100635000D03*
X116365000Y-101905000D03*
X113635000Y-101905000D03*
X116365000Y-103175000D03*
X113635000Y-103175000D03*
X116365000Y-104445000D03*
X113635000Y-104445000D03*
X116365000Y-105715000D03*
X113635000Y-105715000D03*
D18*
X115000000Y-107305000D03*
X115000000Y-92695000D03*
D22*
X109325000Y-109950000D03*
X108675000Y-109950000D03*
X108025000Y-109950000D03*
X107375000Y-109950000D03*
X107375000Y-113050000D03*
X108025000Y-113050000D03*
X108675000Y-113050000D03*
X109325000Y-113050000D03*
D23*
X108950000Y-111500000D03*
X107750000Y-111500000D03*
D19*
X99319953Y-93508473D03*
X98419953Y-93508473D03*
X99319953Y-92008473D03*
X98419953Y-92008473D03*
X93000000Y-94750000D03*
X93000000Y-95650000D03*
X94600000Y-94750000D03*
X94600000Y-95650000D03*
X90150000Y-106025000D03*
X89250000Y-106025000D03*
X89250000Y-104800000D03*
X90150000Y-104800000D03*
X107119953Y-91008473D03*
X107119953Y-91908473D03*
X104219953Y-89008473D03*
X105119953Y-89008473D03*
X92500000Y-103300000D03*
X92500000Y-104200000D03*
X109850000Y-97800000D03*
X109850000Y-96900000D03*
X104500000Y-110025000D03*
X105400000Y-110025000D03*
X102950000Y-109525000D03*
X102950000Y-110425000D03*
X94250000Y-104200000D03*
X94250000Y-103300000D03*
X109800000Y-108250000D03*
X110700000Y-108250000D03*
X90750000Y-95750000D03*
X89850000Y-95750000D03*
D24*
X98800000Y-119000000D03*
X97200000Y-119000000D03*
X101200000Y-119000000D03*
X102800000Y-119000000D03*
D25*
X90300000Y-97750000D03*
X90300000Y-99000000D03*
X90300000Y-100250000D03*
X90300000Y-101500000D03*
X92500000Y-101500000D03*
X92500000Y-100250000D03*
X92500000Y-99000000D03*
X92500000Y-97750000D03*
D19*
X102369953Y-91058473D03*
X102369953Y-91958473D03*
X101550000Y-117400000D03*
X102450000Y-117400000D03*
D26*
X105369953Y-92258473D03*
X105369953Y-90808473D03*
X104219953Y-90808473D03*
X104219953Y-92258473D03*
D27*
X88654944Y-108789079D02*
X88831720Y-108612303D01*
X91801569Y-111935704D02*
X91978345Y-111758928D01*
X84924955Y-109761351D02*
X85561351Y-109124955D01*
X90829297Y-115665693D02*
X91465693Y-115029297D01*
D28*
X89580000Y-87380000D03*
D29*
X89580000Y-84880000D03*
X92080000Y-87380000D03*
X89580000Y-89880000D03*
X87080000Y-87380000D03*
X87780000Y-85580000D03*
X91380000Y-85580000D03*
X87780000Y-89180000D03*
X91380000Y-89180000D03*
D19*
X108700000Y-115000000D03*
X107800000Y-115000000D03*
D10*
G36*
X89417627Y-111777348D02*
X89629759Y-111989480D01*
X89127713Y-112491526D01*
X88915581Y-112279394D01*
X89417627Y-111777348D01*
X89417627Y-111777348D01*
G37*
G36*
X89064074Y-111423794D02*
X89276206Y-111635926D01*
X88774160Y-112137972D01*
X88562028Y-111925840D01*
X89064074Y-111423794D01*
X89064074Y-111423794D01*
G37*
G36*
X88710520Y-111070241D02*
X88922652Y-111282373D01*
X88420606Y-111784419D01*
X88208474Y-111572287D01*
X88710520Y-111070241D01*
X88710520Y-111070241D01*
G37*
G36*
X87692287Y-112088474D02*
X87904419Y-112300606D01*
X87402373Y-112802652D01*
X87190241Y-112590520D01*
X87692287Y-112088474D01*
X87692287Y-112088474D01*
G37*
G36*
X88045840Y-112442028D02*
X88257972Y-112654160D01*
X87755926Y-113156206D01*
X87543794Y-112944074D01*
X88045840Y-112442028D01*
X88045840Y-112442028D01*
G37*
G36*
X88399394Y-112795581D02*
X88611526Y-113007713D01*
X88109480Y-113509759D01*
X87897348Y-113297627D01*
X88399394Y-112795581D01*
X88399394Y-112795581D01*
G37*
M02*
