G04 #@! TF.GenerationSoftware,KiCad,Pcbnew,no-vcs-found-d3b382c~59~ubuntu16.04.1*
G04 #@! TF.CreationDate,2017-07-27T00:58:26+01:00*
G04 #@! TF.ProjectId,DCDC-5V,444344432D35562E6B696361645F7063,1*
G04 #@! TF.SameCoordinates,Original
G04 #@! TF.FileFunction,Copper,L1,Top,Signal*
G04 #@! TF.FilePolarity,Positive*
%FSLAX46Y46*%
G04 Gerber Fmt 4.6, Leading zero omitted, Abs format (unit mm)*
G04 Created by KiCad (PCBNEW no-vcs-found-d3b382c~59~ubuntu16.04.1) date Thu Jul 27 00:58:26 2017*
%MOMM*%
%LPD*%
G01*
G04 APERTURE LIST*
%ADD10R,7.150000X7.150000*%
%ADD11C,0.800000*%
%ADD12R,0.250000X0.700000*%
%ADD13R,0.700000X0.250000*%
%ADD14R,0.620000X0.620000*%
%ADD15R,3.400000X0.980000*%
%ADD16R,0.740000X2.920000*%
%ADD17R,2.920000X0.740000*%
%ADD18R,0.400000X0.850000*%
%ADD19R,0.400000X0.455000*%
%ADD20R,1.050000X1.100000*%
%ADD21R,1.000000X0.950000*%
%ADD22R,1.450000X1.150000*%
%ADD23R,1.150000X1.450000*%
%ADD24C,0.620000*%
%ADD25C,0.100000*%
%ADD26R,1.700000X1.700000*%
%ADD27C,0.300000*%
%ADD28R,0.250000X0.600000*%
%ADD29R,0.600000X0.250000*%
%ADD30R,0.500000X1.600000*%
%ADD31R,0.300000X0.250000*%
%ADD32R,1.100000X0.670000*%
%ADD33R,0.620000X0.200000*%
%ADD34C,1.000000*%
%ADD35C,0.700000*%
%ADD36C,0.600000*%
%ADD37C,0.600000*%
%ADD38C,0.200000*%
%ADD39C,0.250000*%
%ADD40C,0.740000*%
%ADD41C,0.400000*%
G04 APERTURE END LIST*
D10*
X98245000Y-105955000D03*
D11*
X101420000Y-109130000D03*
X101420000Y-107860000D03*
X101420000Y-106590000D03*
X101420000Y-105320000D03*
X101420000Y-104050000D03*
X101420000Y-102780000D03*
X100150000Y-109130000D03*
X100150000Y-107860000D03*
X100150000Y-106590000D03*
X100150000Y-105320000D03*
X100150000Y-104050000D03*
X100150000Y-102780000D03*
X98880000Y-109130000D03*
X98880000Y-107860000D03*
X98880000Y-106590000D03*
X98880000Y-105320000D03*
X98880000Y-104050000D03*
X98880000Y-102780000D03*
X97610000Y-109130000D03*
X97610000Y-107860000D03*
X97610000Y-106590000D03*
X97610000Y-105320000D03*
X97610000Y-104050000D03*
X97610000Y-102780000D03*
X96340000Y-109130000D03*
X96340000Y-107860000D03*
X96340000Y-106590000D03*
X96340000Y-105320000D03*
X96340000Y-104050000D03*
X96340000Y-102780000D03*
X95070000Y-109130000D03*
X95070000Y-107860000D03*
X95070000Y-106590000D03*
X95070000Y-105320000D03*
X95070000Y-104050000D03*
X95070000Y-102780000D03*
D12*
X94495000Y-101555000D03*
X94995000Y-101555000D03*
X95495000Y-101555000D03*
X95995000Y-101555000D03*
X96495000Y-101555000D03*
X96995000Y-101555000D03*
X97495000Y-101555000D03*
X97995000Y-101555000D03*
X98495000Y-101555000D03*
X98995000Y-101555000D03*
X99495000Y-101555000D03*
X99995000Y-101555000D03*
X100495000Y-101555000D03*
X100995000Y-101555000D03*
X101495000Y-101555000D03*
X101995000Y-101555000D03*
D13*
X102645000Y-102205000D03*
X102645000Y-102705000D03*
X102645000Y-103205000D03*
X102645000Y-103705000D03*
X102645000Y-104205000D03*
X102645000Y-104705000D03*
X102645000Y-105205000D03*
X102645000Y-105705000D03*
X102645000Y-106205000D03*
X102645000Y-106705000D03*
X102645000Y-107205000D03*
X102645000Y-107705000D03*
X102645000Y-108205000D03*
X102645000Y-108705000D03*
X102645000Y-109205000D03*
X102645000Y-109705000D03*
D12*
X101995000Y-110355000D03*
X101495000Y-110355000D03*
X100995000Y-110355000D03*
X100495000Y-110355000D03*
X99995000Y-110355000D03*
X99495000Y-110355000D03*
X98995000Y-110355000D03*
X98495000Y-110355000D03*
X97995000Y-110355000D03*
X97495000Y-110355000D03*
X96995000Y-110355000D03*
X96495000Y-110355000D03*
X95995000Y-110355000D03*
X95495000Y-110355000D03*
X94995000Y-110355000D03*
X94495000Y-110355000D03*
D13*
X93845000Y-109705000D03*
X93845000Y-109205000D03*
X93845000Y-108705000D03*
X93845000Y-108205000D03*
X93845000Y-107705000D03*
X93845000Y-107205000D03*
X93845000Y-106705000D03*
X93845000Y-106205000D03*
X93845000Y-105705000D03*
X93845000Y-105205000D03*
X93845000Y-104705000D03*
X93845000Y-104205000D03*
X93845000Y-103705000D03*
X93845000Y-103205000D03*
X93845000Y-102705000D03*
X93845000Y-102205000D03*
D14*
X107100000Y-103850000D03*
X106200000Y-103850000D03*
D15*
X90250000Y-92560000D03*
X90250000Y-90190000D03*
D16*
X97460000Y-86215000D03*
X97460000Y-82785000D03*
X98730000Y-86215000D03*
X98730000Y-82785000D03*
X100000000Y-86215000D03*
X100000000Y-82785000D03*
X101270000Y-86215000D03*
X101270000Y-82785000D03*
X102540000Y-86215000D03*
X102540000Y-82785000D03*
D17*
X113285000Y-94285000D03*
X116715000Y-94285000D03*
X113285000Y-95555000D03*
X116715000Y-95555000D03*
X113285000Y-96825000D03*
X116715000Y-96825000D03*
X113285000Y-98095000D03*
X116715000Y-98095000D03*
X113285000Y-99365000D03*
X116715000Y-99365000D03*
X113285000Y-100635000D03*
X116715000Y-100635000D03*
X113285000Y-101905000D03*
X116715000Y-101905000D03*
X113285000Y-103175000D03*
X116715000Y-103175000D03*
X113285000Y-104445000D03*
X116715000Y-104445000D03*
X113285000Y-105715000D03*
X116715000Y-105715000D03*
X83285000Y-94285000D03*
X86715000Y-94285000D03*
X83285000Y-95555000D03*
X86715000Y-95555000D03*
X83285000Y-96825000D03*
X86715000Y-96825000D03*
X83285000Y-98095000D03*
X86715000Y-98095000D03*
X83285000Y-99365000D03*
X86715000Y-99365000D03*
X83285000Y-100635000D03*
X86715000Y-100635000D03*
X83285000Y-101905000D03*
X86715000Y-101905000D03*
X83285000Y-103175000D03*
X86715000Y-103175000D03*
X83285000Y-104445000D03*
X86715000Y-104445000D03*
X83285000Y-105715000D03*
X86715000Y-105715000D03*
D14*
X92850000Y-106925000D03*
X92850000Y-107825000D03*
X100975000Y-100400000D03*
X100075000Y-100400000D03*
X92850000Y-109700000D03*
X92850000Y-108800000D03*
X103750000Y-106350000D03*
X103750000Y-107250000D03*
X98700000Y-111575000D03*
X98700000Y-112475000D03*
X103650000Y-109325000D03*
X104550000Y-109325000D03*
X96850000Y-112475000D03*
X96850000Y-111575000D03*
X104550000Y-110275000D03*
X103650000Y-110275000D03*
X95925000Y-112475000D03*
X95925000Y-111575000D03*
X97775000Y-112475000D03*
X97775000Y-111575000D03*
X99625000Y-112475000D03*
X99625000Y-111575000D03*
X109800000Y-104350000D03*
X110700000Y-104350000D03*
X109800000Y-99525000D03*
X110700000Y-99525000D03*
X109800000Y-94700000D03*
X110700000Y-94700000D03*
X109800000Y-89875000D03*
X110700000Y-89875000D03*
X110700000Y-105275000D03*
X109800000Y-105275000D03*
X110700000Y-100450000D03*
X109800000Y-100450000D03*
X110700000Y-95625000D03*
X109800000Y-95625000D03*
X110700000Y-90800000D03*
X109800000Y-90800000D03*
D18*
X109400000Y-107121000D03*
D19*
X109400000Y-107947500D03*
X109400000Y-106102500D03*
X110050000Y-107947500D03*
X110700000Y-107947500D03*
X110700000Y-106102500D03*
D20*
X110375000Y-107025000D03*
D19*
X110050000Y-106102500D03*
D21*
X108250000Y-107950000D03*
X108250000Y-106350000D03*
X108250000Y-103125000D03*
X108250000Y-101525000D03*
X108250000Y-96700000D03*
X108250000Y-98300000D03*
X108250000Y-91875000D03*
X108250000Y-93475000D03*
D18*
X109400000Y-102300000D03*
D19*
X109400000Y-103126500D03*
X109400000Y-101281500D03*
X110050000Y-103126500D03*
X110700000Y-103126500D03*
X110700000Y-101281500D03*
D20*
X110375000Y-102204000D03*
D19*
X110050000Y-101281500D03*
X110050000Y-96456500D03*
D20*
X110375000Y-97379000D03*
D19*
X110700000Y-96456500D03*
X110700000Y-98301500D03*
X110050000Y-98301500D03*
X109400000Y-96456500D03*
X109400000Y-98301500D03*
D18*
X109400000Y-97475000D03*
X109400000Y-92646000D03*
D19*
X109400000Y-93472500D03*
X109400000Y-91627500D03*
X110050000Y-93472500D03*
X110700000Y-93472500D03*
X110700000Y-91627500D03*
D20*
X110375000Y-92550000D03*
D19*
X110050000Y-91627500D03*
D22*
X97475000Y-89375000D03*
X97475000Y-91175000D03*
D14*
X96975000Y-92600000D03*
X97875000Y-92600000D03*
X97875000Y-93800000D03*
X96975000Y-93800000D03*
D23*
X90975000Y-88300000D03*
X92775000Y-88300000D03*
X90475000Y-114750000D03*
X92275000Y-114750000D03*
D14*
X89250000Y-115250000D03*
X89250000Y-114350000D03*
D24*
X86406802Y-113306802D03*
D25*
G36*
X86845208Y-113306802D02*
X86406802Y-113745208D01*
X85968396Y-113306802D01*
X86406802Y-112868396D01*
X86845208Y-113306802D01*
X86845208Y-113306802D01*
G37*
D24*
X87043198Y-113943198D03*
D25*
G36*
X87481604Y-113943198D02*
X87043198Y-114381604D01*
X86604792Y-113943198D01*
X87043198Y-113504792D01*
X87481604Y-113943198D01*
X87481604Y-113943198D01*
G37*
D23*
X92050000Y-112550000D03*
X93850000Y-112550000D03*
D26*
X94600000Y-92075000D03*
D27*
X95200000Y-92675000D03*
X95200000Y-91475000D03*
X94000000Y-92675000D03*
X94000000Y-91475000D03*
D28*
X93850000Y-90675000D03*
X94350000Y-90675000D03*
X94850000Y-90675000D03*
X95350000Y-90675000D03*
D29*
X96000000Y-91325000D03*
X96000000Y-91825000D03*
X96000000Y-92325000D03*
X96000000Y-92825000D03*
D28*
X95350000Y-93475000D03*
X94850000Y-93475000D03*
X94350000Y-93475000D03*
X93850000Y-93475000D03*
D29*
X93200000Y-92825000D03*
X93200000Y-92325000D03*
X93200000Y-91825000D03*
X93200000Y-91325000D03*
D28*
X89774307Y-110625693D03*
X89274307Y-110625693D03*
X88774307Y-110625693D03*
X88274307Y-110625693D03*
D29*
X87624307Y-111275693D03*
X87624307Y-111775693D03*
X87624307Y-112275693D03*
X87624307Y-112775693D03*
D28*
X88274307Y-113425693D03*
X88774307Y-113425693D03*
X89274307Y-113425693D03*
X89774307Y-113425693D03*
D29*
X90424307Y-112775693D03*
X90424307Y-112275693D03*
X90424307Y-111775693D03*
X90424307Y-111275693D03*
D27*
X89624307Y-111425693D03*
X88424307Y-111425693D03*
X89624307Y-112625693D03*
X88424307Y-112625693D03*
D26*
X89024307Y-112025693D03*
D30*
X90424307Y-109225693D03*
X88924307Y-109225693D03*
D14*
X95000000Y-112325000D03*
X95000000Y-111425000D03*
D31*
X107350000Y-104600000D03*
X107350000Y-105100000D03*
X107350000Y-105600000D03*
D32*
X106650000Y-105310000D03*
D33*
X106590000Y-104600000D03*
D31*
X105950000Y-104600000D03*
X105950000Y-105100000D03*
X105950000Y-105600000D03*
X107350000Y-99740000D03*
X107350000Y-100240000D03*
X107350000Y-100740000D03*
D32*
X106650000Y-100450000D03*
D33*
X106590000Y-99740000D03*
D31*
X105950000Y-99740000D03*
X105950000Y-100240000D03*
X105950000Y-100740000D03*
X105950000Y-95940000D03*
X105950000Y-95440000D03*
X105950000Y-94940000D03*
D33*
X106590000Y-94940000D03*
D32*
X106650000Y-95650000D03*
D31*
X107350000Y-95940000D03*
X107350000Y-95440000D03*
X107350000Y-94940000D03*
X105950000Y-91100000D03*
X105950000Y-90600000D03*
X105950000Y-90100000D03*
D33*
X106590000Y-90100000D03*
D32*
X106650000Y-90810000D03*
D31*
X107350000Y-91100000D03*
X107350000Y-90600000D03*
X107350000Y-90100000D03*
D14*
X106200000Y-99000000D03*
X107100000Y-99000000D03*
X107100000Y-94200000D03*
X106200000Y-94200000D03*
X106200000Y-89350000D03*
X107100000Y-89350000D03*
D34*
X100200000Y-91600000D03*
X101700000Y-90350000D03*
X106450000Y-86750000D03*
X112525000Y-90225000D03*
D23*
X110700000Y-110175000D03*
X112500000Y-110175000D03*
D35*
X112500000Y-108825000D03*
D36*
X92050000Y-108325000D03*
X113750000Y-90225000D03*
D35*
X99350000Y-90750000D03*
D36*
X92475000Y-116550000D03*
D35*
X93775000Y-113800000D03*
X90500000Y-110750000D03*
X104950000Y-104600000D03*
D36*
X93175000Y-93550000D03*
X98525000Y-93200000D03*
D35*
X105200000Y-99750000D03*
X105150000Y-94950000D03*
X105150000Y-90100000D03*
X93275000Y-89675000D03*
X86199307Y-112025693D03*
X87499307Y-110525693D03*
X113900000Y-93300000D03*
X116700000Y-106700000D03*
X84000000Y-106700000D03*
X113640000Y-106660000D03*
X118180000Y-94290000D03*
X86700000Y-93300000D03*
X88180000Y-105720000D03*
X81820000Y-94290000D03*
X100000000Y-81320000D03*
X101270000Y-81320000D03*
X89660010Y-107014990D03*
X94900000Y-113675000D03*
X96575000Y-83150000D03*
X97450000Y-87700000D03*
X88180000Y-95550000D03*
X81800000Y-96850000D03*
X88180000Y-96830000D03*
X81800000Y-98100000D03*
X81800000Y-99350000D03*
X88200000Y-99350000D03*
X81800000Y-100650000D03*
X88200000Y-100650000D03*
X81800000Y-101900000D03*
X81800000Y-103150000D03*
X88200000Y-103150000D03*
X81800000Y-104450000D03*
X88200000Y-104450000D03*
X88180000Y-98100000D03*
X98725000Y-88250000D03*
X98730000Y-87680000D03*
D36*
X104550000Y-111250000D03*
X100550000Y-112500000D03*
D35*
X111820000Y-95550000D03*
X118180000Y-95560000D03*
X111820000Y-96830000D03*
X118180000Y-96830000D03*
X107400000Y-91875000D03*
X111820000Y-98090000D03*
X118180000Y-98090000D03*
X118180000Y-99360000D03*
X118180000Y-100630000D03*
X111820000Y-101900000D03*
X118180000Y-101900000D03*
X107400000Y-101525000D03*
X111820000Y-103180000D03*
X118180000Y-103180000D03*
X111820000Y-104440000D03*
X118180000Y-104440000D03*
X107400000Y-96700000D03*
X111820000Y-99360000D03*
X111820000Y-100640000D03*
X81820000Y-95560000D03*
X92900000Y-117600000D03*
D36*
X85150000Y-111675000D03*
D35*
X107050000Y-108324264D03*
X107050000Y-106350000D03*
X88200000Y-101900000D03*
D36*
X90425000Y-103850000D03*
X97300000Y-113325000D03*
D35*
X101270000Y-87690000D03*
D36*
X90400000Y-104700000D03*
X97950000Y-113900000D03*
D35*
X102540000Y-87690000D03*
D36*
X90350000Y-105600000D03*
X98675000Y-114425000D03*
D35*
X103375000Y-82800000D03*
D36*
X105900000Y-108050000D03*
X101050000Y-98850000D03*
X101900000Y-98500000D03*
X108050000Y-104150000D03*
X102400000Y-96050000D03*
D35*
X105200000Y-98850000D03*
D36*
X103950000Y-92900000D03*
X105150000Y-94000000D03*
X102350000Y-99200000D03*
X106650000Y-103100000D03*
X102050000Y-100100000D03*
X105050000Y-101050000D03*
X103200000Y-93550000D03*
X104350000Y-94700000D03*
X97425000Y-97025000D03*
D35*
X104000000Y-88850000D03*
X95075000Y-87950000D03*
X99175000Y-100450000D03*
X100000000Y-87680000D03*
D37*
X112500000Y-110175000D02*
X112500000Y-108825000D01*
D38*
X92850000Y-109700000D02*
X92340000Y-109700000D01*
X92340000Y-109700000D02*
X92050000Y-109410000D01*
X92050000Y-109410000D02*
X92050000Y-108749264D01*
X92050000Y-108749264D02*
X92050000Y-108325000D01*
X92850000Y-107825000D02*
X92550000Y-107825000D01*
X92550000Y-107825000D02*
X92050000Y-108325000D01*
X112525000Y-90225000D02*
X113750000Y-90225000D01*
D37*
X97475000Y-89375000D02*
X98250000Y-89375000D01*
X98250000Y-89375000D02*
X98250000Y-89650000D01*
X98250000Y-89650000D02*
X99350000Y-90750000D01*
D38*
X89250000Y-115250000D02*
X89250000Y-115760000D01*
X89250000Y-115760000D02*
X90040000Y-116550000D01*
X90040000Y-116550000D02*
X92475000Y-116550000D01*
D37*
X92275000Y-114750000D02*
X92825000Y-114750000D01*
X92825000Y-114750000D02*
X93775000Y-113800000D01*
X92050000Y-112550000D02*
X92050000Y-112300000D01*
X92050000Y-112300000D02*
X90500000Y-110750000D01*
D38*
X86949307Y-112775693D02*
X86575000Y-112401386D01*
X86575000Y-112401386D02*
X86199307Y-112025693D01*
X86406802Y-113306802D02*
X86696715Y-113016889D01*
X86696715Y-113016889D02*
X86696715Y-112523101D01*
X86696715Y-112523101D02*
X86575000Y-112401386D01*
D39*
X90424307Y-111525000D02*
X90424307Y-111275693D01*
X90424307Y-111775693D02*
X90424307Y-111525000D01*
X90424307Y-111525000D02*
X90699307Y-111250000D01*
D38*
X105950000Y-104600000D02*
X104950000Y-104600000D01*
X105950000Y-104300000D02*
X105950000Y-104100000D01*
X105950000Y-104600000D02*
X105950000Y-104300000D01*
X105950000Y-104600000D02*
X105950000Y-104550000D01*
X93850000Y-93475000D02*
X93250000Y-93475000D01*
X93250000Y-93475000D02*
X93175000Y-93550000D01*
X97875000Y-93200000D02*
X97875000Y-93800000D01*
X97875000Y-92600000D02*
X97875000Y-93200000D01*
X97875000Y-93200000D02*
X98525000Y-93200000D01*
X105950000Y-104100000D02*
X106200000Y-103850000D01*
X106590000Y-104600000D02*
X105950000Y-104600000D01*
X105950000Y-99740000D02*
X105950000Y-99250000D01*
X105950000Y-99250000D02*
X106200000Y-99000000D01*
X105950000Y-99740000D02*
X105210000Y-99740000D01*
X105210000Y-99740000D02*
X105200000Y-99750000D01*
X106590000Y-99740000D02*
X105950000Y-99740000D01*
X105950000Y-94940000D02*
X105950000Y-94450000D01*
X105950000Y-94450000D02*
X106200000Y-94200000D01*
X105950000Y-94940000D02*
X105160000Y-94940000D01*
X105160000Y-94940000D02*
X105150000Y-94950000D01*
X106590000Y-94940000D02*
X105950000Y-94940000D01*
X105950000Y-90100000D02*
X105950000Y-89600000D01*
X105950000Y-89600000D02*
X106200000Y-89350000D01*
X105950000Y-90100000D02*
X105150000Y-90100000D01*
X106590000Y-90100000D02*
X105950000Y-90100000D01*
D37*
X93275000Y-89675000D02*
X93850000Y-89100000D01*
X93850000Y-89100000D02*
X93850000Y-88925000D01*
X93850000Y-90675000D02*
X93850000Y-90250000D01*
X93850000Y-90250000D02*
X93275000Y-89675000D01*
X93225000Y-88300000D02*
X93850000Y-88925000D01*
X93850000Y-88925000D02*
X93850000Y-90675000D01*
X92775000Y-88300000D02*
X93225000Y-88300000D01*
D38*
X93850000Y-90675000D02*
X93850000Y-90500000D01*
X93850000Y-90675000D02*
X94350000Y-90675000D01*
X94350000Y-93475000D02*
X93850000Y-93475000D01*
X95350000Y-93475000D02*
X94850000Y-93475000D01*
X94350000Y-93475000D02*
X94850000Y-93475000D01*
X87624307Y-112775693D02*
X86949307Y-112775693D01*
D39*
X100495000Y-101555000D02*
X100495000Y-101053002D01*
X100495000Y-101053002D02*
X100075000Y-100633002D01*
X100075000Y-100633002D02*
X100075000Y-100400000D01*
X102645000Y-109205000D02*
X102645000Y-108705000D01*
X99495000Y-110355000D02*
X99995000Y-110355000D01*
X93845000Y-109205000D02*
X94995000Y-109205000D01*
X94995000Y-109205000D02*
X95170000Y-109030000D01*
X93845000Y-109205000D02*
X93845000Y-109705000D01*
X87624307Y-111275693D02*
X87624307Y-110650693D01*
X87624307Y-110650693D02*
X87499307Y-110525693D01*
X87624307Y-111275693D02*
X87624307Y-111775693D01*
D38*
X89024307Y-112025693D02*
X89274307Y-111775693D01*
X93845000Y-102705000D02*
X94995000Y-102705000D01*
X94995000Y-102705000D02*
X95170000Y-102880000D01*
X94495000Y-101555000D02*
X94495000Y-102205000D01*
X94495000Y-102205000D02*
X95170000Y-102880000D01*
X95495000Y-101555000D02*
X95495000Y-102555000D01*
X95495000Y-102555000D02*
X95170000Y-102880000D01*
X96495000Y-101555000D02*
X96495000Y-102785000D01*
X96495000Y-102785000D02*
X96400000Y-102880000D01*
X96995000Y-101555000D02*
X96495000Y-101555000D01*
X101495000Y-101555000D02*
X101495000Y-102705000D01*
X101495000Y-102705000D02*
X101320000Y-102880000D01*
X100495000Y-101555000D02*
X100495000Y-102475000D01*
X100495000Y-102475000D02*
X100090000Y-102880000D01*
X102645000Y-106705000D02*
X101455000Y-106705000D01*
X101455000Y-106705000D02*
X101320000Y-106570000D01*
X102645000Y-108205000D02*
X101725000Y-108205000D01*
X101725000Y-108205000D02*
X101320000Y-107800000D01*
X102645000Y-108205000D02*
X102645000Y-107705000D01*
X102645000Y-108705000D02*
X102645000Y-108205000D01*
X99995000Y-110355000D02*
X99995000Y-109125000D01*
X99995000Y-109125000D02*
X100090000Y-109030000D01*
X95995000Y-110355000D02*
X95995000Y-109435000D01*
X95995000Y-109435000D02*
X96400000Y-109030000D01*
X95995000Y-110355000D02*
X95495000Y-110355000D01*
X96495000Y-110355000D02*
X95995000Y-110355000D01*
D40*
X83285000Y-105715000D02*
X83285000Y-105985000D01*
X83285000Y-105985000D02*
X84000000Y-106700000D01*
X113900000Y-93300000D02*
X113900000Y-93670000D01*
X113900000Y-93670000D02*
X113285000Y-94285000D01*
X116715000Y-105715000D02*
X116715000Y-106685000D01*
X116715000Y-106685000D02*
X116700000Y-106700000D01*
X83285000Y-94285000D02*
X86715000Y-94285000D01*
X113285000Y-94285000D02*
X116715000Y-94285000D01*
X113285000Y-105715000D02*
X116715000Y-105715000D01*
D37*
X113640000Y-106660000D02*
X113640000Y-106070000D01*
X113640000Y-106070000D02*
X113285000Y-105715000D01*
D40*
X118180000Y-94290000D02*
X116720000Y-94290000D01*
X116720000Y-94290000D02*
X116715000Y-94285000D01*
X86715000Y-94285000D02*
X86715000Y-93315000D01*
X86715000Y-93315000D02*
X86700000Y-93300000D01*
D41*
X88175000Y-105715000D02*
X88180000Y-105720000D01*
X81820000Y-94290000D02*
X83280000Y-94290000D01*
X83280000Y-94290000D02*
X83285000Y-94285000D01*
D40*
X100000000Y-81320000D02*
X100000000Y-82785000D01*
X101270000Y-82785000D02*
X101270000Y-81320000D01*
D39*
X100995000Y-101555000D02*
X100995000Y-100420000D01*
X100995000Y-100420000D02*
X100975000Y-100400000D01*
D38*
X93845000Y-108705000D02*
X92945000Y-108705000D01*
X92945000Y-108705000D02*
X92850000Y-108800000D01*
X93845000Y-108205000D02*
X93845000Y-108705000D01*
D39*
X92759308Y-108660694D02*
X92724307Y-108625693D01*
D41*
X97475000Y-91175000D02*
X98600000Y-91175000D01*
X98600000Y-91175000D02*
X99275000Y-91850000D01*
X99275000Y-91850000D02*
X99275000Y-93950000D01*
X99275000Y-93950000D02*
X98754999Y-94470001D01*
X98754999Y-94470001D02*
X90929999Y-94470001D01*
X90929999Y-94470001D02*
X89660010Y-95739990D01*
D37*
X96000000Y-90625000D02*
X96000000Y-88925000D01*
X96000000Y-88925000D02*
X96000000Y-88655026D01*
X96000000Y-88655026D02*
X96955026Y-87700000D01*
X96955026Y-87700000D02*
X97450000Y-87700000D01*
D41*
X93389999Y-115835001D02*
X94900000Y-114325000D01*
X94900000Y-114325000D02*
X94900000Y-113675000D01*
X90475000Y-114750000D02*
X90475000Y-114900000D01*
X90475000Y-114900000D02*
X91410001Y-115835001D01*
X91410001Y-115835001D02*
X93389999Y-115835001D01*
D39*
X89250000Y-114350000D02*
X89250000Y-113450000D01*
X89250000Y-113450000D02*
X89274307Y-113425693D01*
X90475000Y-114750000D02*
X90475000Y-113775000D01*
X90475000Y-113775000D02*
X90125693Y-113425693D01*
X90125693Y-113425693D02*
X90099307Y-113425693D01*
D41*
X89660010Y-95739990D02*
X89660010Y-107014990D01*
D38*
X89000000Y-113651386D02*
X88774307Y-113425693D01*
D41*
X97625000Y-91175000D02*
X97475000Y-91175000D01*
D37*
X97475000Y-91175000D02*
X97450000Y-91150000D01*
X97450000Y-91150000D02*
X96525000Y-91150000D01*
X96525000Y-91150000D02*
X96000000Y-90625000D01*
D38*
X89274307Y-113425693D02*
X89774307Y-113425693D01*
X88774307Y-113425693D02*
X89274307Y-113425693D01*
X96000000Y-91325000D02*
X97325000Y-91325000D01*
X97325000Y-91325000D02*
X97475000Y-91175000D01*
X95775000Y-90675000D02*
X96000000Y-90900000D01*
X96000000Y-90900000D02*
X96000000Y-91325000D01*
X95350000Y-90675000D02*
X95775000Y-90675000D01*
X96000000Y-92325000D02*
X96700000Y-92325000D01*
X96700000Y-92325000D02*
X96975000Y-92600000D01*
X96000000Y-91825000D02*
X96000000Y-92325000D01*
X96000000Y-91325000D02*
X96000000Y-91825000D01*
X90424307Y-112775693D02*
X90424307Y-113100693D01*
X90424307Y-113100693D02*
X90099307Y-113425693D01*
X90099307Y-113425693D02*
X89774307Y-113425693D01*
D40*
X96575000Y-83150000D02*
X97095000Y-83150000D01*
X97095000Y-83150000D02*
X97460000Y-82785000D01*
X97460000Y-86215000D02*
X97460000Y-87690000D01*
X97460000Y-87690000D02*
X97450000Y-87700000D01*
X97460000Y-82785000D02*
X97460000Y-86215000D01*
D38*
X101995000Y-110355000D02*
X103570000Y-110355000D01*
X103570000Y-110355000D02*
X103650000Y-110275000D01*
D41*
X88180000Y-95550000D02*
X86720000Y-95550000D01*
X86720000Y-95550000D02*
X86715000Y-95555000D01*
D40*
X83285000Y-96825000D02*
X81825000Y-96825000D01*
X81825000Y-96825000D02*
X81800000Y-96850000D01*
D41*
X88175000Y-96825000D02*
X88180000Y-96830000D01*
D40*
X83285000Y-98095000D02*
X81805000Y-98095000D01*
X81805000Y-98095000D02*
X81800000Y-98100000D01*
X83285000Y-99365000D02*
X81815000Y-99365000D01*
X81815000Y-99365000D02*
X81800000Y-99350000D01*
X86715000Y-99365000D02*
X88185000Y-99365000D01*
X88185000Y-99365000D02*
X88200000Y-99350000D01*
X83285000Y-100635000D02*
X81815000Y-100635000D01*
X81815000Y-100635000D02*
X81800000Y-100650000D01*
X86715000Y-100635000D02*
X88185000Y-100635000D01*
X88185000Y-100635000D02*
X88200000Y-100650000D01*
X83285000Y-101905000D02*
X81805000Y-101905000D01*
X81805000Y-101905000D02*
X81800000Y-101900000D01*
X83285000Y-103175000D02*
X81825000Y-103175000D01*
X81825000Y-103175000D02*
X81800000Y-103150000D01*
X86715000Y-103175000D02*
X88175000Y-103175000D01*
X88175000Y-103175000D02*
X88200000Y-103150000D01*
X81800000Y-104450000D02*
X83280000Y-104450000D01*
X83280000Y-104450000D02*
X83285000Y-104445000D01*
X86715000Y-104445000D02*
X88195000Y-104445000D01*
X88195000Y-104445000D02*
X88200000Y-104450000D01*
D41*
X88180000Y-98100000D02*
X86720000Y-98100000D01*
X86720000Y-98100000D02*
X86715000Y-98095000D01*
D40*
X98725000Y-88250000D02*
X98725000Y-87685000D01*
X98725000Y-87685000D02*
X98730000Y-87680000D01*
X98730000Y-82785000D02*
X98730000Y-86215000D01*
X98730000Y-86215000D02*
X98730000Y-87680000D01*
D38*
X92850000Y-106925000D02*
X92175000Y-106925000D01*
X92175000Y-106925000D02*
X90424307Y-108675693D01*
X90424307Y-108675693D02*
X90424307Y-109225693D01*
D39*
X95000000Y-112325000D02*
X94075000Y-112325000D01*
X94075000Y-112325000D02*
X93850000Y-112550000D01*
X90424307Y-112275693D02*
X90862309Y-112275693D01*
X90862309Y-112275693D02*
X91050000Y-112463384D01*
X91050000Y-112463384D02*
X91050000Y-113400000D01*
X91050000Y-113400000D02*
X91350000Y-113700000D01*
X91350000Y-113700000D02*
X92850000Y-113700000D01*
X92850000Y-113700000D02*
X93850000Y-112700000D01*
X93850000Y-112700000D02*
X93850000Y-112550000D01*
D37*
X93153002Y-111525000D02*
X93150000Y-111525000D01*
X93150000Y-111525000D02*
X92725000Y-111100000D01*
X93850000Y-112550000D02*
X93850000Y-112221998D01*
X93850000Y-112221998D02*
X93153002Y-111525000D01*
X92025000Y-111100000D02*
X92725000Y-111100000D01*
X91275000Y-110350000D02*
X92025000Y-111100000D01*
X91275000Y-110250000D02*
X91275000Y-110350000D01*
X90424307Y-109225693D02*
X90424307Y-109399307D01*
X90424307Y-109399307D02*
X91275000Y-110250000D01*
X93850000Y-112300000D02*
X93850000Y-112550000D01*
D38*
X104550000Y-110275000D02*
X104550000Y-111250000D01*
X99625000Y-112475000D02*
X100525000Y-112475000D01*
X100525000Y-112475000D02*
X100550000Y-112500000D01*
X104575000Y-109300000D02*
X104550000Y-109325000D01*
X104550000Y-109325000D02*
X104550000Y-110275000D01*
D39*
X95925000Y-112475000D02*
X95150000Y-112475000D01*
X95150000Y-112475000D02*
X95000000Y-112325000D01*
X87624307Y-112275693D02*
X87186305Y-112275693D01*
X87186305Y-112275693D02*
X86864306Y-111953694D01*
X89889306Y-108140692D02*
X90424307Y-108675693D01*
X86864306Y-111953694D02*
X86864306Y-109722692D01*
X86864306Y-109722692D02*
X88446306Y-108140692D01*
X88446306Y-108140692D02*
X89889306Y-108140692D01*
D38*
X92850000Y-106925000D02*
X92730870Y-106925000D01*
X93845000Y-107205000D02*
X93130000Y-107205000D01*
X93130000Y-107205000D02*
X92850000Y-106925000D01*
X98700000Y-112475000D02*
X99625000Y-112475000D01*
X97775000Y-112475000D02*
X98700000Y-112475000D01*
X96850000Y-112475000D02*
X97775000Y-112475000D01*
X95925000Y-112475000D02*
X96850000Y-112475000D01*
X93845000Y-107205000D02*
X93845000Y-106705000D01*
X93845000Y-107205000D02*
X93845000Y-107705000D01*
D40*
X113285000Y-95555000D02*
X111825000Y-95555000D01*
X111825000Y-95555000D02*
X111820000Y-95550000D01*
X113285000Y-95555000D02*
X116715000Y-95555000D01*
X116715000Y-95555000D02*
X118175000Y-95555000D01*
X118175000Y-95555000D02*
X118180000Y-95560000D01*
X111820000Y-96830000D02*
X113280000Y-96830000D01*
X113280000Y-96830000D02*
X113285000Y-96825000D01*
X116715000Y-96825000D02*
X113285000Y-96825000D01*
X118180000Y-96830000D02*
X116720000Y-96830000D01*
X116720000Y-96830000D02*
X116715000Y-96825000D01*
D38*
X102645000Y-102205000D02*
X103195000Y-102205000D01*
X103195000Y-102205000D02*
X103389990Y-102010010D01*
X103389990Y-102010010D02*
X103389990Y-94348077D01*
X103389990Y-94348077D02*
X103638068Y-94100000D01*
X103638068Y-94100000D02*
X105248077Y-92489991D01*
X105248077Y-92489991D02*
X108185009Y-92489991D01*
X108185009Y-92489991D02*
X108250000Y-92425000D01*
X108250000Y-92425000D02*
X108250000Y-91875000D01*
X102645000Y-102180000D02*
X102645000Y-102205000D01*
D37*
X108250000Y-91875000D02*
X107400000Y-91875000D01*
D40*
X113285000Y-98095000D02*
X111825000Y-98095000D01*
X111825000Y-98095000D02*
X111820000Y-98090000D01*
X116715000Y-98095000D02*
X118175000Y-98095000D01*
X118175000Y-98095000D02*
X118180000Y-98090000D01*
X118180000Y-99360000D02*
X116720000Y-99360000D01*
X116720000Y-99360000D02*
X116715000Y-99365000D01*
X116715000Y-100635000D02*
X118175000Y-100635000D01*
X118175000Y-100635000D02*
X118180000Y-100630000D01*
X113285000Y-101905000D02*
X111825000Y-101905000D01*
X111825000Y-101905000D02*
X111820000Y-101900000D01*
X118180000Y-101900000D02*
X116720000Y-101900000D01*
X116720000Y-101900000D02*
X116715000Y-101905000D01*
D38*
X102645000Y-104205000D02*
X103522392Y-104205000D01*
X108250000Y-102075000D02*
X108250000Y-101525000D01*
X103522392Y-104205000D02*
X105577392Y-102150000D01*
X105577392Y-102150000D02*
X108175000Y-102150000D01*
X108175000Y-102150000D02*
X108250000Y-102075000D01*
D37*
X108250000Y-101525000D02*
X107400000Y-101525000D01*
D40*
X113285000Y-103175000D02*
X111825000Y-103175000D01*
X111825000Y-103175000D02*
X111820000Y-103180000D01*
X116715000Y-103175000D02*
X118175000Y-103175000D01*
X118175000Y-103175000D02*
X118180000Y-103180000D01*
X113285000Y-104445000D02*
X111825000Y-104445000D01*
X111825000Y-104445000D02*
X111820000Y-104440000D01*
X113285000Y-104445000D02*
X116715000Y-104445000D01*
X118180000Y-104440000D02*
X116720000Y-104440000D01*
X116720000Y-104440000D02*
X116715000Y-104445000D01*
D38*
X108250000Y-96700000D02*
X108250000Y-97225000D01*
X108250000Y-97225000D02*
X108150000Y-97325000D01*
X108150000Y-97325000D02*
X104585010Y-97325000D01*
X104585010Y-97325000D02*
X104110010Y-97800000D01*
X104110010Y-97800000D02*
X104110010Y-102599121D01*
X104110010Y-102599121D02*
X103504131Y-103205000D01*
X103504131Y-103205000D02*
X102645000Y-103205000D01*
D37*
X108250000Y-96700000D02*
X107400000Y-96700000D01*
D40*
X113285000Y-99365000D02*
X111825000Y-99365000D01*
X111825000Y-99365000D02*
X111820000Y-99360000D01*
X113285000Y-100635000D02*
X111825000Y-100635000D01*
X111825000Y-100635000D02*
X111820000Y-100640000D01*
D41*
X83285000Y-95555000D02*
X81825000Y-95555000D01*
X81825000Y-95555000D02*
X81820000Y-95560000D01*
X107050000Y-108324264D02*
X107050000Y-108750000D01*
X102275000Y-115275000D02*
X107050000Y-110500000D01*
X107050000Y-108750000D02*
X107050000Y-109100000D01*
X107050000Y-110500000D02*
X107050000Y-108750000D01*
X95225000Y-115275000D02*
X102275000Y-115275000D01*
X92900000Y-117600000D02*
X95225000Y-115275000D01*
X85150000Y-111675000D02*
X85150000Y-110250000D01*
X85150000Y-110250000D02*
X89100000Y-106300000D01*
X89100000Y-106300000D02*
X89100000Y-102305026D01*
X89100000Y-102305026D02*
X88694974Y-101900000D01*
X88694974Y-101900000D02*
X88200000Y-101900000D01*
X107050000Y-106350000D02*
X108250000Y-106350000D01*
D38*
X108250000Y-106350000D02*
X108250000Y-106900000D01*
X108250000Y-106900000D02*
X108175000Y-106975000D01*
X103195000Y-105205000D02*
X102645000Y-105205000D01*
X108175000Y-106975000D02*
X105084130Y-106975000D01*
X105084130Y-106975000D02*
X104910010Y-106800880D01*
X104910010Y-106800880D02*
X104910010Y-105650879D01*
X104910010Y-105650879D02*
X104464131Y-105205000D01*
X104464131Y-105205000D02*
X103195000Y-105205000D01*
D40*
X86715000Y-101905000D02*
X88195000Y-101905000D01*
X88195000Y-101905000D02*
X88200000Y-101900000D01*
D38*
X101125000Y-91650000D02*
X101125000Y-91200000D01*
X101125000Y-92100000D02*
X101125000Y-91650000D01*
X101125000Y-91650000D02*
X101075000Y-91600000D01*
X101075000Y-91600000D02*
X100200000Y-91600000D01*
X90425000Y-103850000D02*
X90425000Y-100608951D01*
X90425000Y-100608951D02*
X95353971Y-95679981D01*
X95353971Y-95679981D02*
X96620019Y-95679981D01*
X101125000Y-91200000D02*
X100800000Y-90875000D01*
X96620019Y-95679981D02*
X96625000Y-95675000D01*
X96625000Y-95675000D02*
X99400545Y-95675000D01*
X99400545Y-95675000D02*
X100758938Y-94316607D01*
X100800000Y-89850000D02*
X101270000Y-89380000D01*
X100758938Y-94316607D02*
X100758938Y-92466062D01*
X100800000Y-90875000D02*
X100800000Y-89850000D01*
X100758938Y-92466062D02*
X101125000Y-92100000D01*
X101270000Y-89380000D02*
X101270000Y-87690000D01*
X101110001Y-112889999D02*
X100675000Y-113325000D01*
X100675000Y-113325000D02*
X97300000Y-113325000D01*
X100495000Y-110355000D02*
X100495000Y-111616198D01*
X100495000Y-111616198D02*
X101110001Y-112231199D01*
X101110001Y-112231199D02*
X101110001Y-112889999D01*
D40*
X101270000Y-86215000D02*
X101270000Y-87690000D01*
D38*
X102540000Y-90375000D02*
X102540000Y-87690000D01*
X102540000Y-91344675D02*
X102540000Y-90375000D01*
X102540000Y-90375000D02*
X102515000Y-90350000D01*
X102515000Y-90350000D02*
X101700000Y-90350000D01*
X99544685Y-96039990D02*
X101118948Y-94465727D01*
X101118948Y-94465727D02*
X101118948Y-92765726D01*
X101118948Y-92765726D02*
X102540000Y-91344675D01*
X98975000Y-96039990D02*
X99544685Y-96039990D01*
X95503092Y-96039990D02*
X98975000Y-96039990D01*
X99544685Y-96039990D02*
X100292337Y-95292339D01*
X91975000Y-99568081D02*
X91975002Y-99568081D01*
X91975002Y-99568081D02*
X95503092Y-96039990D01*
X91064940Y-104459324D02*
X91064940Y-100478141D01*
X91064940Y-100478141D02*
X91975000Y-99568081D01*
X90400000Y-104700000D02*
X90824264Y-104700000D01*
X90824264Y-104700000D02*
X91064940Y-104459324D01*
X100824121Y-113685010D02*
X98164990Y-113685010D01*
X98164990Y-113685010D02*
X97950000Y-113900000D01*
X100995000Y-110355000D02*
X100995000Y-111607067D01*
X100995000Y-111607067D02*
X101470011Y-112082078D01*
X101470011Y-112082078D02*
X101470011Y-113039120D01*
X101470011Y-113039120D02*
X100824121Y-113685010D01*
D40*
X102540000Y-87690000D02*
X102540000Y-86215000D01*
D38*
X105300000Y-86425000D02*
X105300000Y-86100000D01*
X106450000Y-86750000D02*
X105742894Y-86750000D01*
X105300000Y-86100000D02*
X105300000Y-83650000D01*
X105742894Y-86750000D02*
X105300000Y-86307106D01*
X105300000Y-86307106D02*
X105300000Y-86100000D01*
X90350000Y-105600000D02*
X91175000Y-105600000D01*
X91175000Y-105600000D02*
X91424950Y-105350050D01*
X91424950Y-105350050D02*
X91424950Y-100627262D01*
X91424950Y-100627262D02*
X91877213Y-100175000D01*
X91877213Y-100175000D02*
X95652213Y-96400000D01*
X95652213Y-96400000D02*
X99693805Y-96400000D01*
X99693805Y-96400000D02*
X101478958Y-94614848D01*
X101478958Y-94614848D02*
X101478958Y-92914847D01*
X101478958Y-92914847D02*
X103100000Y-91293805D01*
X103100000Y-91293805D02*
X103100000Y-88200000D01*
X103100000Y-88200000D02*
X104200000Y-87100000D01*
X104200000Y-87100000D02*
X104625000Y-87100000D01*
X104625000Y-87100000D02*
X105300000Y-86425000D01*
X105300000Y-83650000D02*
X104450000Y-82800000D01*
X104450000Y-82800000D02*
X103375000Y-82800000D01*
X101830021Y-113188240D02*
X101175000Y-113843262D01*
X98675000Y-114425000D02*
X98974999Y-114125001D01*
X98974999Y-114125001D02*
X100893261Y-114125001D01*
X100893261Y-114125001D02*
X101175000Y-113843262D01*
X101495000Y-110355000D02*
X101495000Y-111597937D01*
X101495000Y-111597937D02*
X101830021Y-111932957D01*
X101830021Y-111932957D02*
X101830021Y-113188240D01*
D40*
X102540000Y-82785000D02*
X103360000Y-82785000D01*
X103360000Y-82785000D02*
X103375000Y-82800000D01*
D38*
X97995000Y-110355000D02*
X97995000Y-111355000D01*
X97995000Y-111355000D02*
X97775000Y-111575000D01*
X104935010Y-107335010D02*
X105400000Y-107335010D01*
X105400000Y-107335010D02*
X106000000Y-107335010D01*
X105900000Y-108050000D02*
X105900000Y-107625736D01*
X105900000Y-107625736D02*
X105609274Y-107335010D01*
X105609274Y-107335010D02*
X105400000Y-107335010D01*
X106000000Y-107335010D02*
X108185010Y-107335010D01*
X96517887Y-99079980D02*
X100820020Y-99079980D01*
X100820020Y-99079980D02*
X101050000Y-98850000D01*
X102645000Y-105705000D02*
X104455000Y-105705000D01*
X104455000Y-105705000D02*
X104550000Y-105800000D01*
X104550000Y-105800000D02*
X104550000Y-106950000D01*
X104550000Y-106950000D02*
X104935010Y-107335010D01*
X108185010Y-107335010D02*
X108200000Y-107350000D01*
X108200000Y-107350000D02*
X108225000Y-107350000D01*
X108225000Y-107350000D02*
X108250000Y-107375000D01*
X108250000Y-107375000D02*
X108250000Y-107950000D01*
X96027018Y-99079980D02*
X96517887Y-99079980D01*
X93845000Y-102205000D02*
X93845000Y-101261998D01*
X93845000Y-101261998D02*
X96027018Y-99079980D01*
X100750000Y-98200000D02*
X101600000Y-98200000D01*
X101600000Y-98200000D02*
X101900000Y-98500000D01*
X100230030Y-98719970D02*
X100750000Y-98200000D01*
X99230030Y-98719970D02*
X100230030Y-98719970D01*
X108050000Y-104600000D02*
X109550000Y-104600000D01*
X108050000Y-104600000D02*
X108050000Y-104150000D01*
X107350000Y-104600000D02*
X108050000Y-104600000D01*
X107350000Y-104600000D02*
X107350000Y-104100000D01*
X107350000Y-104100000D02*
X107100000Y-103850000D01*
X109550000Y-104600000D02*
X109800000Y-104350000D01*
X98755030Y-98719970D02*
X99230030Y-98719970D01*
X93401998Y-103205000D02*
X93225000Y-103028002D01*
X93845000Y-103205000D02*
X93401998Y-103205000D01*
X93225000Y-103028002D02*
X93225000Y-101375000D01*
X95877897Y-98719970D02*
X96368766Y-98719970D01*
X93225000Y-101372867D02*
X95877897Y-98719970D01*
X93225000Y-101375000D02*
X93225000Y-101372867D01*
X96368766Y-98719970D02*
X98630030Y-98719970D01*
X98630030Y-98719970D02*
X98755030Y-98719970D01*
X101175000Y-97800000D02*
X100640870Y-97800000D01*
X102400000Y-96050000D02*
X102400000Y-96784130D01*
X102400000Y-96784130D02*
X101384130Y-97800000D01*
X101384130Y-97800000D02*
X101175000Y-97800000D01*
X100640870Y-97800000D02*
X100080910Y-98359960D01*
X100080910Y-98359960D02*
X95728776Y-98359960D01*
X95728776Y-98359960D02*
X92864990Y-101223746D01*
X92864990Y-101223746D02*
X92864990Y-103177123D01*
X92864990Y-103177123D02*
X93392867Y-103705000D01*
X93392867Y-103705000D02*
X93845000Y-103705000D01*
X107100000Y-99000000D02*
X107100000Y-98490000D01*
X107100000Y-98490000D02*
X107039999Y-98429999D01*
X107039999Y-98429999D02*
X105620001Y-98429999D01*
X105620001Y-98429999D02*
X105200000Y-98850000D01*
X107350000Y-99740000D02*
X107350000Y-99250000D01*
X107350000Y-99250000D02*
X107100000Y-99000000D01*
X107350000Y-99740000D02*
X109585000Y-99740000D01*
X109585000Y-99740000D02*
X109800000Y-99525000D01*
X99931790Y-97999950D02*
X100406740Y-97525000D01*
X100406740Y-97525000D02*
X100491749Y-97439990D01*
X102639999Y-93281199D02*
X102639999Y-94981199D01*
X100491750Y-97439990D02*
X100406740Y-97525000D01*
X103125000Y-92900000D02*
X103021198Y-92900000D01*
X103021198Y-92900000D02*
X102639999Y-93281199D01*
X102639999Y-94981199D02*
X101800000Y-95821198D01*
X101800000Y-96875000D02*
X101235010Y-97439990D01*
X101800000Y-95821198D02*
X101800000Y-96875000D01*
X101235010Y-97439990D02*
X100491750Y-97439990D01*
X103950000Y-92900000D02*
X103125000Y-92900000D01*
X99021113Y-97999950D02*
X99931790Y-97999950D01*
X98350000Y-97999950D02*
X95579655Y-97999950D01*
X98350000Y-97999950D02*
X99021113Y-97999950D01*
X92504980Y-101074625D02*
X92504980Y-103326244D01*
X95579655Y-97999950D02*
X92504980Y-101074625D01*
X92504980Y-103326244D02*
X93383739Y-104205000D01*
X93383739Y-104205000D02*
X93845000Y-104205000D01*
X105520001Y-93629999D02*
X105150000Y-94000000D01*
X107100000Y-94200000D02*
X107100000Y-93690000D01*
X107100000Y-93690000D02*
X107039999Y-93629999D01*
X107039999Y-93629999D02*
X105520001Y-93629999D01*
X107350000Y-94940000D02*
X107350000Y-94450000D01*
X107350000Y-94450000D02*
X107100000Y-94200000D01*
X107350000Y-94940000D02*
X109560000Y-94940000D01*
X109560000Y-94940000D02*
X109800000Y-94700000D01*
X98600000Y-97639940D02*
X99782670Y-97639940D01*
X103410010Y-92539990D02*
X104310001Y-91639999D01*
X101085890Y-97079980D02*
X101425000Y-96740870D01*
X100342629Y-97079981D02*
X101085890Y-97079980D01*
X99782670Y-97639940D02*
X100342629Y-97079981D01*
X102279989Y-93132078D02*
X102872077Y-92539990D01*
X101425000Y-96740870D02*
X101425000Y-95687067D01*
X101425000Y-95687067D02*
X102279989Y-94832079D01*
X105520001Y-88779999D02*
X107039999Y-88779999D01*
X102279989Y-94832079D02*
X102279989Y-93132078D01*
X102872077Y-92539990D02*
X103410010Y-92539990D01*
X104310001Y-91639999D02*
X104539999Y-91639999D01*
X104539999Y-91639999D02*
X104539999Y-89807199D01*
X105150000Y-89197198D02*
X105150000Y-89150000D01*
X107039999Y-88779999D02*
X107100000Y-88840000D01*
X105150000Y-89150000D02*
X105520001Y-88779999D01*
X104539999Y-89807199D02*
X105150000Y-89197198D01*
X107100000Y-88840000D02*
X107100000Y-89350000D01*
X95430534Y-97639940D02*
X98600000Y-97639940D01*
X98600000Y-97639940D02*
X98850000Y-97639940D01*
X98850000Y-97639940D02*
X98871992Y-97639940D01*
X93845000Y-104705000D02*
X93374608Y-104705000D01*
X93374608Y-104705000D02*
X92144970Y-103475365D01*
X92144970Y-103475365D02*
X92144970Y-100925504D01*
X92144970Y-100925504D02*
X95430534Y-97639940D01*
X107350000Y-90100000D02*
X107350000Y-89600000D01*
X107350000Y-89600000D02*
X107100000Y-89350000D01*
X107350000Y-90100000D02*
X109575000Y-90100000D01*
X109575000Y-90100000D02*
X109800000Y-89875000D01*
X96995000Y-110355000D02*
X96995000Y-110798002D01*
X96995000Y-110798002D02*
X96788003Y-111004999D01*
X96788003Y-111004999D02*
X95985001Y-111004999D01*
X95985001Y-111004999D02*
X95925000Y-111065000D01*
X95925000Y-111065000D02*
X95925000Y-111575000D01*
X97495000Y-110355000D02*
X97495000Y-110807133D01*
X97495000Y-110807133D02*
X96850000Y-111452133D01*
X96850000Y-111452133D02*
X96850000Y-111575000D01*
X98495000Y-110355000D02*
X98495000Y-111370000D01*
X98495000Y-111370000D02*
X98700000Y-111575000D01*
X98995000Y-110355000D02*
X98995000Y-110781998D01*
X98995000Y-110781998D02*
X99625000Y-111411998D01*
X99625000Y-111411998D02*
X99625000Y-111575000D01*
X102645000Y-109705000D02*
X103270000Y-109705000D01*
X103270000Y-109705000D02*
X103650000Y-109325000D01*
X102645000Y-107205000D02*
X103705000Y-107205000D01*
X103705000Y-107205000D02*
X103750000Y-107250000D01*
X102645000Y-106205000D02*
X103605000Y-106205000D01*
X103605000Y-106205000D02*
X103750000Y-106350000D01*
X97127878Y-99469989D02*
X102080011Y-99469989D01*
X102080011Y-99469989D02*
X102350000Y-99200000D01*
X108185010Y-102510010D02*
X106650000Y-102510010D01*
X106650000Y-102510010D02*
X105726512Y-102510010D01*
X106650000Y-103100000D02*
X106650000Y-102675736D01*
X106650000Y-102675736D02*
X106650000Y-102510010D01*
X105726512Y-102510010D02*
X104786522Y-103450000D01*
X104786522Y-103450000D02*
X103531522Y-104705000D01*
X94995000Y-101555000D02*
X94995000Y-101111998D01*
X94995000Y-101111998D02*
X96637009Y-99469989D01*
X96637009Y-99469989D02*
X97127878Y-99469989D01*
X108250000Y-103125000D02*
X108250000Y-102575000D01*
X108250000Y-102575000D02*
X108185010Y-102510010D01*
X103531522Y-104705000D02*
X102645000Y-104705000D01*
X108150000Y-103225000D02*
X108250000Y-103125000D01*
X97276999Y-99829999D02*
X101779999Y-99829999D01*
X101779999Y-99829999D02*
X102050000Y-100100000D01*
X104470020Y-98079980D02*
X104470020Y-101050000D01*
X104470020Y-101050000D02*
X104470020Y-102748242D01*
X105050000Y-101050000D02*
X104470020Y-101050000D01*
X95995000Y-101555000D02*
X95995000Y-101111998D01*
X95995000Y-101111998D02*
X97276999Y-99829999D01*
X108250000Y-98300000D02*
X108250000Y-97750000D01*
X108250000Y-97750000D02*
X108185010Y-97685010D01*
X108185010Y-97685010D02*
X104864990Y-97685010D01*
X104864990Y-97685010D02*
X104470020Y-98079980D01*
X104470020Y-102748242D02*
X103513261Y-103705000D01*
X103513261Y-103705000D02*
X102645000Y-103705000D01*
X103200000Y-93550000D02*
X103029980Y-93720020D01*
X103029980Y-93720020D02*
X103029980Y-100845020D01*
X103029980Y-100845020D02*
X102320000Y-101555000D01*
X102320000Y-101555000D02*
X101995000Y-101555000D01*
X105372198Y-92875000D02*
X103947198Y-94300000D01*
X103947198Y-94300000D02*
X103750000Y-94497198D01*
X104350000Y-94700000D02*
X103950000Y-94300000D01*
X103950000Y-94300000D02*
X103947198Y-94300000D01*
X103750000Y-94497198D02*
X103750000Y-95250000D01*
X103750000Y-95250000D02*
X103750000Y-102450000D01*
X103750001Y-95250001D02*
X103750000Y-95250000D01*
X108250000Y-93475000D02*
X108250000Y-92950000D01*
X108250000Y-92950000D02*
X108175000Y-92875000D01*
X108175000Y-92875000D02*
X105372198Y-92875000D01*
X103750000Y-102450000D02*
X103495000Y-102705000D01*
X103495000Y-102705000D02*
X102645000Y-102705000D01*
D37*
X110700000Y-110175000D02*
X110700000Y-107350000D01*
X110700000Y-107350000D02*
X110375000Y-107025000D01*
D38*
X103260890Y-92179980D02*
X103875000Y-91565870D01*
X104000000Y-88850000D02*
X104000000Y-91440870D01*
X104000000Y-91440870D02*
X103875000Y-91565870D01*
X102130869Y-92772068D02*
X102722956Y-92179980D01*
X102722956Y-92179980D02*
X103260890Y-92179980D01*
X101838968Y-94763970D02*
X101838968Y-93063968D01*
X101838968Y-93063968D02*
X102130869Y-92772068D01*
X100956740Y-96700000D02*
X101064990Y-96591750D01*
X101064990Y-96591750D02*
X101064990Y-95537946D01*
X101064990Y-95537946D02*
X101838968Y-94763970D01*
X99050000Y-97279930D02*
X99633550Y-97279930D01*
X98450879Y-97279930D02*
X99050000Y-97279930D01*
X99633550Y-97279930D02*
X100213480Y-96700000D01*
X100213480Y-96700000D02*
X100956740Y-96700000D01*
X97425000Y-97025000D02*
X97550000Y-97025000D01*
X97550000Y-97025000D02*
X97804930Y-97279930D01*
X97804930Y-97279930D02*
X98450879Y-97279930D01*
X95125000Y-97436343D02*
X91784960Y-100776383D01*
X95125000Y-97436343D02*
X95281413Y-97279930D01*
X95281413Y-97279930D02*
X97170070Y-97279930D01*
X97170070Y-97279930D02*
X97425000Y-97025000D01*
X91784960Y-100776383D02*
X91784960Y-104694960D01*
X91784960Y-104694960D02*
X93295000Y-106205000D01*
X93295000Y-106205000D02*
X93845000Y-106205000D01*
D37*
X104800000Y-88050000D02*
X109423002Y-88050000D01*
X109423002Y-88050000D02*
X110700000Y-89326998D01*
X104000000Y-88850000D02*
X104800000Y-88050000D01*
X110700000Y-89326998D02*
X110700000Y-89875000D01*
D38*
X94850000Y-90675000D02*
X94850000Y-88175000D01*
X94850000Y-88175000D02*
X95075000Y-87950000D01*
D37*
X93700000Y-86775000D02*
X93900000Y-86775000D01*
X93900000Y-86775000D02*
X95075000Y-87950000D01*
X91175000Y-86775000D02*
X93700000Y-86775000D01*
X90975000Y-88300000D02*
X90975000Y-86975000D01*
X90975000Y-86975000D02*
X91175000Y-86775000D01*
D38*
X98995000Y-101555000D02*
X98995000Y-100630000D01*
X98995000Y-100630000D02*
X99175000Y-100450000D01*
D37*
X110700000Y-90800000D02*
X110700000Y-92225000D01*
X110700000Y-92225000D02*
X110375000Y-92550000D01*
X110700000Y-94700000D02*
X110700000Y-92875000D01*
X110700000Y-92875000D02*
X110375000Y-92550000D01*
X110700000Y-95625000D02*
X110700000Y-97054000D01*
X110700000Y-97054000D02*
X110375000Y-97379000D01*
X110700000Y-99525000D02*
X110700000Y-97704000D01*
X110700000Y-97704000D02*
X110375000Y-97379000D01*
X110700000Y-100450000D02*
X110700000Y-101879000D01*
X110700000Y-101879000D02*
X110375000Y-102204000D01*
X110700000Y-104350000D02*
X110700000Y-102529000D01*
X110700000Y-102529000D02*
X110375000Y-102204000D01*
X110700000Y-105275000D02*
X110700000Y-106700000D01*
X110700000Y-106700000D02*
X110375000Y-107025000D01*
D38*
X110375000Y-92550000D02*
X110375000Y-91952500D01*
X110375000Y-91952500D02*
X110700000Y-91627500D01*
X110375000Y-91952500D02*
X110050000Y-91627500D01*
X110375000Y-92550000D02*
X110375000Y-93147500D01*
X110375000Y-93147500D02*
X110700000Y-93472500D01*
X110375000Y-93147500D02*
X110050000Y-93472500D01*
X110375000Y-97379000D02*
X110375000Y-96781500D01*
X110375000Y-96781500D02*
X110050000Y-96456500D01*
X110375000Y-96781500D02*
X110700000Y-96456500D01*
X110375000Y-97379000D02*
X110375000Y-97976500D01*
X110375000Y-97976500D02*
X110700000Y-98301500D01*
X110375000Y-97976500D02*
X110050000Y-98301500D01*
X110375000Y-102204000D02*
X110375000Y-101606500D01*
X110375000Y-101606500D02*
X110700000Y-101281500D01*
X110375000Y-101606500D02*
X110050000Y-101281500D01*
X110375000Y-102204000D02*
X110375000Y-102801500D01*
X110375000Y-102801500D02*
X110700000Y-103126500D01*
X110375000Y-102801500D02*
X110050000Y-103126500D01*
X110375000Y-107025000D02*
X110375000Y-107622500D01*
X110375000Y-107622500D02*
X110700000Y-107947500D01*
X110375000Y-107622500D02*
X110050000Y-107947500D01*
X110375000Y-107025000D02*
X110375000Y-106427500D01*
X110375000Y-106427500D02*
X110700000Y-106102500D01*
X110375000Y-106427500D02*
X110050000Y-106102500D01*
D37*
X110700000Y-90800000D02*
X110700000Y-89875000D01*
X110700000Y-95625000D02*
X110700000Y-94700000D01*
X110700000Y-100450000D02*
X110700000Y-99525000D01*
X110700000Y-104350000D02*
X110700000Y-105275000D01*
D38*
X98495000Y-101555000D02*
X98995000Y-101555000D01*
X107350000Y-105600000D02*
X109325000Y-105600000D01*
X109325000Y-105600000D02*
X109400000Y-105675000D01*
X107350000Y-105600000D02*
X106940000Y-105600000D01*
X106940000Y-105600000D02*
X106650000Y-105310000D01*
X107350000Y-105100000D02*
X106860000Y-105100000D01*
X106860000Y-105100000D02*
X106650000Y-105310000D01*
X105950000Y-105100000D02*
X106440000Y-105100000D01*
X106440000Y-105100000D02*
X106650000Y-105310000D01*
X105950000Y-105600000D02*
X106360000Y-105600000D01*
X106360000Y-105600000D02*
X106650000Y-105310000D01*
X109400000Y-106102500D02*
X109400000Y-105675000D01*
X109400000Y-105675000D02*
X109800000Y-105275000D01*
X109700000Y-105375000D02*
X109800000Y-105275000D01*
X107350000Y-100740000D02*
X109290000Y-100740000D01*
X109290000Y-100740000D02*
X109400000Y-100850000D01*
X107350000Y-100240000D02*
X106860000Y-100240000D01*
X106860000Y-100240000D02*
X106650000Y-100450000D01*
X107350000Y-100740000D02*
X106940000Y-100740000D01*
X106940000Y-100740000D02*
X106650000Y-100450000D01*
X105950000Y-100740000D02*
X106360000Y-100740000D01*
X106360000Y-100740000D02*
X106650000Y-100450000D01*
X105950000Y-100240000D02*
X106440000Y-100240000D01*
X106440000Y-100240000D02*
X106650000Y-100450000D01*
X109400000Y-101281500D02*
X109400000Y-100850000D01*
X109400000Y-100850000D02*
X109800000Y-100450000D01*
X109700000Y-100550000D02*
X109800000Y-100450000D01*
X107350000Y-95940000D02*
X109315000Y-95940000D01*
X109315000Y-95940000D02*
X109400000Y-96025000D01*
X107350000Y-95440000D02*
X106860000Y-95440000D01*
X106860000Y-95440000D02*
X106650000Y-95650000D01*
X107350000Y-95940000D02*
X106940000Y-95940000D01*
X106940000Y-95940000D02*
X106650000Y-95650000D01*
X105950000Y-95940000D02*
X106360000Y-95940000D01*
X106360000Y-95940000D02*
X106650000Y-95650000D01*
X105950000Y-95440000D02*
X106440000Y-95440000D01*
X106440000Y-95440000D02*
X106650000Y-95650000D01*
X109400000Y-96456500D02*
X109400000Y-96025000D01*
X109400000Y-96025000D02*
X109800000Y-95625000D01*
X109700000Y-95725000D02*
X109800000Y-95625000D01*
X107350000Y-91100000D02*
X109300000Y-91100000D01*
X109300000Y-91100000D02*
X109400000Y-91200000D01*
X105950000Y-91100000D02*
X106360000Y-91100000D01*
X106360000Y-91100000D02*
X106650000Y-90810000D01*
X105950000Y-90600000D02*
X106440000Y-90600000D01*
X106440000Y-90600000D02*
X106650000Y-90810000D01*
X107350000Y-90600000D02*
X106860000Y-90600000D01*
X106860000Y-90600000D02*
X106650000Y-90810000D01*
X107350000Y-91100000D02*
X106940000Y-91100000D01*
X106940000Y-91100000D02*
X106650000Y-90810000D01*
X109400000Y-91627500D02*
X109400000Y-91200000D01*
X109400000Y-91200000D02*
X109800000Y-90800000D01*
X109700000Y-90900000D02*
X109800000Y-90800000D01*
X96975000Y-93800000D02*
X96000000Y-92825000D01*
X87043198Y-113943198D02*
X87560703Y-113425693D01*
X87560703Y-113425693D02*
X88274307Y-113425693D01*
X93200000Y-91825000D02*
X93200000Y-92325000D01*
X93200000Y-91325000D02*
X93200000Y-91825000D01*
X89774307Y-110625693D02*
X89274307Y-110625693D01*
D39*
X88774307Y-110625693D02*
X89274307Y-110625693D01*
X94995000Y-110355000D02*
X94995000Y-111420000D01*
X94995000Y-111420000D02*
X95000000Y-111425000D01*
D40*
X100000000Y-87680000D02*
X100000000Y-86215000D01*
D38*
G36*
X89299307Y-110050693D02*
X89306919Y-110088961D01*
X89328596Y-110121404D01*
X89356314Y-110140979D01*
X89824307Y-110363833D01*
X89824307Y-110421526D01*
X89750131Y-110600161D01*
X89749984Y-110767857D01*
X88807143Y-110767857D01*
X88807143Y-110325693D01*
X88776098Y-110169621D01*
X88724307Y-110092109D01*
X88724307Y-108665692D01*
X89299307Y-108665692D01*
X89299307Y-110050693D01*
X89299307Y-110050693D01*
G37*
X89299307Y-110050693D02*
X89306919Y-110088961D01*
X89328596Y-110121404D01*
X89356314Y-110140979D01*
X89824307Y-110363833D01*
X89824307Y-110421526D01*
X89750131Y-110600161D01*
X89749984Y-110767857D01*
X88807143Y-110767857D01*
X88807143Y-110325693D01*
X88776098Y-110169621D01*
X88724307Y-110092109D01*
X88724307Y-108665692D01*
X89299307Y-108665692D01*
X89299307Y-110050693D01*
G36*
X90525000Y-113400000D02*
X90564963Y-113600909D01*
X90678769Y-113771231D01*
X90975000Y-114067462D01*
X90975000Y-115400000D01*
X89975000Y-115400000D01*
X89975000Y-114150000D01*
X89967388Y-114111732D01*
X89945711Y-114079289D01*
X89545711Y-113679289D01*
X89513268Y-113657612D01*
X89474919Y-113650000D01*
X88807143Y-113650544D01*
X88807143Y-113283529D01*
X89874307Y-113283529D01*
X89913701Y-113275693D01*
X89924307Y-113275693D01*
X89962575Y-113268081D01*
X89967071Y-113265077D01*
X90030379Y-113252484D01*
X90162691Y-113164077D01*
X90251098Y-113031765D01*
X90263691Y-112968457D01*
X90266695Y-112963961D01*
X90274307Y-112925693D01*
X90274307Y-112915087D01*
X90282143Y-112875693D01*
X90282143Y-112808529D01*
X90525000Y-112808529D01*
X90525000Y-113400000D01*
X90525000Y-113400000D01*
G37*
X90525000Y-113400000D02*
X90564963Y-113600909D01*
X90678769Y-113771231D01*
X90975000Y-114067462D01*
X90975000Y-115400000D01*
X89975000Y-115400000D01*
X89975000Y-114150000D01*
X89967388Y-114111732D01*
X89945711Y-114079289D01*
X89545711Y-113679289D01*
X89513268Y-113657612D01*
X89474919Y-113650000D01*
X88807143Y-113650544D01*
X88807143Y-113283529D01*
X89874307Y-113283529D01*
X89913701Y-113275693D01*
X89924307Y-113275693D01*
X89962575Y-113268081D01*
X89967071Y-113265077D01*
X90030379Y-113252484D01*
X90162691Y-113164077D01*
X90251098Y-113031765D01*
X90263691Y-112968457D01*
X90266695Y-112963961D01*
X90274307Y-112925693D01*
X90274307Y-112915087D01*
X90282143Y-112875693D01*
X90282143Y-112808529D01*
X90525000Y-112808529D01*
X90525000Y-113400000D01*
G36*
X109442164Y-102754000D02*
X109456585Y-102826500D01*
X109442164Y-102899000D01*
X109442164Y-103354000D01*
X109473209Y-103510072D01*
X109475000Y-103512752D01*
X109475000Y-103525000D01*
X108370176Y-103525000D01*
X108189850Y-103450122D01*
X107911372Y-103449879D01*
X107825000Y-103485568D01*
X107825000Y-102775000D01*
X109175000Y-102775000D01*
X109213268Y-102767388D01*
X109245711Y-102745711D01*
X109267388Y-102713268D01*
X109275000Y-102675000D01*
X109275000Y-101950000D01*
X109442164Y-101950000D01*
X109442164Y-102754000D01*
X109442164Y-102754000D01*
G37*
X109442164Y-102754000D02*
X109456585Y-102826500D01*
X109442164Y-102899000D01*
X109442164Y-103354000D01*
X109473209Y-103510072D01*
X109475000Y-103512752D01*
X109475000Y-103525000D01*
X108370176Y-103525000D01*
X108189850Y-103450122D01*
X107911372Y-103449879D01*
X107825000Y-103485568D01*
X107825000Y-102775000D01*
X109175000Y-102775000D01*
X109213268Y-102767388D01*
X109245711Y-102745711D01*
X109267388Y-102713268D01*
X109275000Y-102675000D01*
X109275000Y-101950000D01*
X109442164Y-101950000D01*
X109442164Y-102754000D01*
G36*
X109442164Y-107575000D02*
X109456585Y-107647500D01*
X109442164Y-107720000D01*
X109442164Y-108175000D01*
X109473209Y-108331072D01*
X109475000Y-108333752D01*
X109475000Y-108350000D01*
X107825000Y-108350000D01*
X107825000Y-107600000D01*
X109175000Y-107600000D01*
X109213268Y-107592388D01*
X109245711Y-107570711D01*
X109267388Y-107538268D01*
X109275000Y-107500000D01*
X109275000Y-106775000D01*
X109442164Y-106775000D01*
X109442164Y-107575000D01*
X109442164Y-107575000D01*
G37*
X109442164Y-107575000D02*
X109456585Y-107647500D01*
X109442164Y-107720000D01*
X109442164Y-108175000D01*
X109473209Y-108331072D01*
X109475000Y-108333752D01*
X109475000Y-108350000D01*
X107825000Y-108350000D01*
X107825000Y-107600000D01*
X109175000Y-107600000D01*
X109213268Y-107592388D01*
X109245711Y-107570711D01*
X109267388Y-107538268D01*
X109275000Y-107500000D01*
X109275000Y-106775000D01*
X109442164Y-106775000D01*
X109442164Y-107575000D01*
G36*
X109442164Y-97929000D02*
X109456585Y-98001500D01*
X109442164Y-98074000D01*
X109442164Y-98529000D01*
X109473209Y-98685072D01*
X109475000Y-98687752D01*
X109475000Y-98700000D01*
X107825000Y-98700000D01*
X107825000Y-97950000D01*
X109175000Y-97950000D01*
X109213268Y-97942388D01*
X109245711Y-97920711D01*
X109267388Y-97888268D01*
X109275000Y-97850000D01*
X109275000Y-97125000D01*
X109442164Y-97125000D01*
X109442164Y-97929000D01*
X109442164Y-97929000D01*
G37*
X109442164Y-97929000D02*
X109456585Y-98001500D01*
X109442164Y-98074000D01*
X109442164Y-98529000D01*
X109473209Y-98685072D01*
X109475000Y-98687752D01*
X109475000Y-98700000D01*
X107825000Y-98700000D01*
X107825000Y-97950000D01*
X109175000Y-97950000D01*
X109213268Y-97942388D01*
X109245711Y-97920711D01*
X109267388Y-97888268D01*
X109275000Y-97850000D01*
X109275000Y-97125000D01*
X109442164Y-97125000D01*
X109442164Y-97929000D01*
G36*
X109442164Y-93100000D02*
X109456585Y-93172500D01*
X109442164Y-93245000D01*
X109442164Y-93700000D01*
X109473209Y-93856072D01*
X109475000Y-93858752D01*
X109475000Y-93875000D01*
X107825000Y-93875000D01*
X107825000Y-93125000D01*
X109175000Y-93125000D01*
X109213268Y-93117388D01*
X109245711Y-93095711D01*
X109267388Y-93063268D01*
X109275000Y-93025000D01*
X109275000Y-92300000D01*
X109442164Y-92300000D01*
X109442164Y-93100000D01*
X109442164Y-93100000D01*
G37*
X109442164Y-93100000D02*
X109456585Y-93172500D01*
X109442164Y-93245000D01*
X109442164Y-93700000D01*
X109473209Y-93856072D01*
X109475000Y-93858752D01*
X109475000Y-93875000D01*
X107825000Y-93875000D01*
X107825000Y-93125000D01*
X109175000Y-93125000D01*
X109213268Y-93117388D01*
X109245711Y-93095711D01*
X109267388Y-93063268D01*
X109275000Y-93025000D01*
X109275000Y-92300000D01*
X109442164Y-92300000D01*
X109442164Y-93100000D01*
G36*
X110900000Y-93625000D02*
X110007836Y-93625000D01*
X110007836Y-93245000D01*
X109990530Y-93158000D01*
X110007836Y-93071000D01*
X110007836Y-92221000D01*
X109976791Y-92064928D01*
X109975000Y-92062248D01*
X109975000Y-92013752D01*
X109976791Y-92011072D01*
X110007836Y-91855000D01*
X110007836Y-91517836D01*
X110110000Y-91517836D01*
X110266072Y-91486791D01*
X110283719Y-91475000D01*
X110900000Y-91475000D01*
X110900000Y-93625000D01*
X110900000Y-93625000D01*
G37*
X110900000Y-93625000D02*
X110007836Y-93625000D01*
X110007836Y-93245000D01*
X109990530Y-93158000D01*
X110007836Y-93071000D01*
X110007836Y-92221000D01*
X109976791Y-92064928D01*
X109975000Y-92062248D01*
X109975000Y-92013752D01*
X109976791Y-92011072D01*
X110007836Y-91855000D01*
X110007836Y-91517836D01*
X110110000Y-91517836D01*
X110266072Y-91486791D01*
X110283719Y-91475000D01*
X110900000Y-91475000D01*
X110900000Y-93625000D01*
G36*
X110900000Y-98450000D02*
X110007836Y-98450000D01*
X110007836Y-98074000D01*
X109990530Y-97987000D01*
X110007836Y-97900000D01*
X110007836Y-97050000D01*
X109976791Y-96893928D01*
X109975000Y-96891248D01*
X109975000Y-96842752D01*
X109976791Y-96840072D01*
X110007836Y-96684000D01*
X110007836Y-96342836D01*
X110110000Y-96342836D01*
X110266072Y-96311791D01*
X110283719Y-96300000D01*
X110900000Y-96300000D01*
X110900000Y-98450000D01*
X110900000Y-98450000D01*
G37*
X110900000Y-98450000D02*
X110007836Y-98450000D01*
X110007836Y-98074000D01*
X109990530Y-97987000D01*
X110007836Y-97900000D01*
X110007836Y-97050000D01*
X109976791Y-96893928D01*
X109975000Y-96891248D01*
X109975000Y-96842752D01*
X109976791Y-96840072D01*
X110007836Y-96684000D01*
X110007836Y-96342836D01*
X110110000Y-96342836D01*
X110266072Y-96311791D01*
X110283719Y-96300000D01*
X110900000Y-96300000D01*
X110900000Y-98450000D01*
G36*
X110900000Y-103275000D02*
X110007836Y-103275000D01*
X110007836Y-102899000D01*
X109990530Y-102812000D01*
X110007836Y-102725000D01*
X110007836Y-101875000D01*
X109976791Y-101718928D01*
X109975000Y-101716248D01*
X109975000Y-101667752D01*
X109976791Y-101665072D01*
X110007836Y-101509000D01*
X110007836Y-101167836D01*
X110110000Y-101167836D01*
X110266072Y-101136791D01*
X110283719Y-101125000D01*
X110900000Y-101125000D01*
X110900000Y-103275000D01*
X110900000Y-103275000D01*
G37*
X110900000Y-103275000D02*
X110007836Y-103275000D01*
X110007836Y-102899000D01*
X109990530Y-102812000D01*
X110007836Y-102725000D01*
X110007836Y-101875000D01*
X109976791Y-101718928D01*
X109975000Y-101716248D01*
X109975000Y-101667752D01*
X109976791Y-101665072D01*
X110007836Y-101509000D01*
X110007836Y-101167836D01*
X110110000Y-101167836D01*
X110266072Y-101136791D01*
X110283719Y-101125000D01*
X110900000Y-101125000D01*
X110900000Y-103275000D01*
G36*
X110900000Y-108100000D02*
X110007836Y-108100000D01*
X110007836Y-107720000D01*
X109990530Y-107633000D01*
X110007836Y-107546000D01*
X110007836Y-106696000D01*
X109976791Y-106539928D01*
X109975000Y-106537248D01*
X109975000Y-106488752D01*
X109976791Y-106486072D01*
X110007836Y-106330000D01*
X110007836Y-105992836D01*
X110110000Y-105992836D01*
X110266072Y-105961791D01*
X110283719Y-105950000D01*
X110900000Y-105950000D01*
X110900000Y-108100000D01*
X110900000Y-108100000D01*
G37*
X110900000Y-108100000D02*
X110007836Y-108100000D01*
X110007836Y-107720000D01*
X109990530Y-107633000D01*
X110007836Y-107546000D01*
X110007836Y-106696000D01*
X109976791Y-106539928D01*
X109975000Y-106537248D01*
X109975000Y-106488752D01*
X109976791Y-106486072D01*
X110007836Y-106330000D01*
X110007836Y-105992836D01*
X110110000Y-105992836D01*
X110266072Y-105961791D01*
X110283719Y-105950000D01*
X110900000Y-105950000D01*
X110900000Y-108100000D01*
G36*
X91475000Y-89675000D02*
X91482612Y-89713268D01*
X91504289Y-89745711D01*
X91536732Y-89767388D01*
X91575000Y-89775000D01*
X91875000Y-89775000D01*
X91875000Y-90600000D01*
X88625000Y-90600000D01*
X88625000Y-89775000D01*
X90375000Y-89775000D01*
X90413268Y-89767388D01*
X90445711Y-89745711D01*
X90467388Y-89713268D01*
X90475000Y-89675000D01*
X90475000Y-87650000D01*
X91475000Y-87650000D01*
X91475000Y-89675000D01*
X91475000Y-89675000D01*
G37*
X91475000Y-89675000D02*
X91482612Y-89713268D01*
X91504289Y-89745711D01*
X91536732Y-89767388D01*
X91575000Y-89775000D01*
X91875000Y-89775000D01*
X91875000Y-90600000D01*
X88625000Y-90600000D01*
X88625000Y-89775000D01*
X90375000Y-89775000D01*
X90413268Y-89767388D01*
X90445711Y-89745711D01*
X90467388Y-89713268D01*
X90475000Y-89675000D01*
X90475000Y-87650000D01*
X91475000Y-87650000D01*
X91475000Y-89675000D01*
G36*
X93342164Y-92292164D02*
X92900000Y-92292164D01*
X92743928Y-92323209D01*
X92611616Y-92411616D01*
X92523209Y-92543928D01*
X92512794Y-92596286D01*
X91944723Y-92975000D01*
X88625000Y-92975000D01*
X88625000Y-92150000D01*
X90675000Y-92150000D01*
X90711957Y-92142920D01*
X92894156Y-91275000D01*
X93342164Y-91275000D01*
X93342164Y-92292164D01*
X93342164Y-92292164D01*
G37*
X93342164Y-92292164D02*
X92900000Y-92292164D01*
X92743928Y-92323209D01*
X92611616Y-92411616D01*
X92523209Y-92543928D01*
X92512794Y-92596286D01*
X91944723Y-92975000D01*
X88625000Y-92975000D01*
X88625000Y-92150000D01*
X90675000Y-92150000D01*
X90711957Y-92142920D01*
X92894156Y-91275000D01*
X93342164Y-91275000D01*
X93342164Y-92292164D01*
G36*
X96675974Y-90662158D02*
X96725000Y-90675000D01*
X98125000Y-90675000D01*
X98125000Y-91675000D01*
X96325000Y-91675000D01*
X96286732Y-91682612D01*
X96254289Y-91704289D01*
X96232612Y-91736732D01*
X96225000Y-91775000D01*
X96225000Y-92292164D01*
X95857836Y-92292164D01*
X95857836Y-91225000D01*
X95826791Y-91068928D01*
X95738384Y-90936616D01*
X95606072Y-90848209D01*
X95450000Y-90817164D01*
X95382836Y-90817164D01*
X95382836Y-90450000D01*
X96298804Y-90450000D01*
X96675974Y-90662158D01*
X96675974Y-90662158D01*
G37*
X96675974Y-90662158D02*
X96725000Y-90675000D01*
X98125000Y-90675000D01*
X98125000Y-91675000D01*
X96325000Y-91675000D01*
X96286732Y-91682612D01*
X96254289Y-91704289D01*
X96232612Y-91736732D01*
X96225000Y-91775000D01*
X96225000Y-92292164D01*
X95857836Y-92292164D01*
X95857836Y-91225000D01*
X95826791Y-91068928D01*
X95738384Y-90936616D01*
X95606072Y-90848209D01*
X95450000Y-90817164D01*
X95382836Y-90817164D01*
X95382836Y-90450000D01*
X96298804Y-90450000D01*
X96675974Y-90662158D01*
G36*
X94317164Y-90825000D02*
X93800000Y-90825000D01*
X93800000Y-90450000D01*
X94317164Y-90450000D01*
X94317164Y-90825000D01*
X94317164Y-90825000D01*
G37*
X94317164Y-90825000D02*
X93800000Y-90825000D01*
X93800000Y-90450000D01*
X94317164Y-90450000D01*
X94317164Y-90825000D01*
G36*
X91395493Y-111460443D02*
X91530025Y-111594975D01*
X91757122Y-111746716D01*
X92025000Y-111800000D01*
X92351283Y-111800000D01*
X92481208Y-111846158D01*
X92550000Y-111914950D01*
X92550000Y-113175000D01*
X91575000Y-113175000D01*
X91575000Y-112463384D01*
X91535037Y-112262475D01*
X91421231Y-112092153D01*
X91233540Y-111904462D01*
X91063218Y-111790656D01*
X90862309Y-111750693D01*
X90763701Y-111750693D01*
X90724307Y-111742857D01*
X90274307Y-111742857D01*
X90274307Y-111225573D01*
X90732823Y-111225021D01*
X91395493Y-111460443D01*
X91395493Y-111460443D01*
G37*
X91395493Y-111460443D02*
X91530025Y-111594975D01*
X91757122Y-111746716D01*
X92025000Y-111800000D01*
X92351283Y-111800000D01*
X92481208Y-111846158D01*
X92550000Y-111914950D01*
X92550000Y-113175000D01*
X91575000Y-113175000D01*
X91575000Y-112463384D01*
X91535037Y-112262475D01*
X91421231Y-112092153D01*
X91233540Y-111904462D01*
X91063218Y-111790656D01*
X90862309Y-111750693D01*
X90763701Y-111750693D01*
X90724307Y-111742857D01*
X90274307Y-111742857D01*
X90274307Y-111225573D01*
X90732823Y-111225021D01*
X91395493Y-111460443D01*
M02*
