G04 #@! TF.GenerationSoftware,KiCad,Pcbnew,no-vcs-found-d3b382c~59~ubuntu16.04.1*
G04 #@! TF.CreationDate,2017-07-27T00:58:26+01:00*
G04 #@! TF.ProjectId,DCDC-5V,444344432D35562E6B696361645F7063,1*
G04 #@! TF.SameCoordinates,Original
G04 #@! TF.FileFunction,Legend,Bot*
G04 #@! TF.FilePolarity,Positive*
%FSLAX46Y46*%
G04 Gerber Fmt 4.6, Leading zero omitted, Abs format (unit mm)*
G04 Created by KiCad (PCBNEW no-vcs-found-d3b382c~59~ubuntu16.04.1) date Thu Jul 27 00:58:26 2017*
%MOMM*%
%LPD*%
G01*
G04 APERTURE LIST*
%ADD10C,0.010000*%
%ADD11C,0.150000*%
%ADD12R,2.220000X0.740000*%
%ADD13C,1.200000*%
%ADD14R,0.740000X2.220000*%
G04 APERTURE END LIST*
D10*
G36*
X109991746Y-107454605D02*
X109910442Y-107504704D01*
X109789060Y-107583223D01*
X109633517Y-107686089D01*
X109449731Y-107809226D01*
X109243620Y-107948561D01*
X109021102Y-108100019D01*
X108788093Y-108259527D01*
X108550513Y-108423010D01*
X108314277Y-108586395D01*
X108085305Y-108745607D01*
X107869514Y-108896572D01*
X107672820Y-109035216D01*
X107501143Y-109157464D01*
X107360400Y-109259244D01*
X107256508Y-109336480D01*
X107195385Y-109385098D01*
X107188790Y-109391051D01*
X107116248Y-109491783D01*
X107100500Y-109566941D01*
X107117938Y-109637282D01*
X107171104Y-109658818D01*
X107261275Y-109631377D01*
X107389731Y-109554792D01*
X107435460Y-109522544D01*
X107501864Y-109475318D01*
X107614038Y-109396609D01*
X107765455Y-109290953D01*
X107949589Y-109162886D01*
X108159915Y-109016943D01*
X108389906Y-108857660D01*
X108633035Y-108689574D01*
X108767375Y-108596824D01*
X109010283Y-108428745D01*
X109239565Y-108269229D01*
X109449362Y-108122414D01*
X109633816Y-107992438D01*
X109787068Y-107883440D01*
X109903261Y-107799559D01*
X109976535Y-107744933D01*
X109997688Y-107727714D01*
X110054417Y-107653503D01*
X110084796Y-107570162D01*
X110087046Y-107495285D01*
X110059394Y-107446467D01*
X110027055Y-107437000D01*
X109991746Y-107454605D01*
X109991746Y-107454605D01*
G37*
X109991746Y-107454605D02*
X109910442Y-107504704D01*
X109789060Y-107583223D01*
X109633517Y-107686089D01*
X109449731Y-107809226D01*
X109243620Y-107948561D01*
X109021102Y-108100019D01*
X108788093Y-108259527D01*
X108550513Y-108423010D01*
X108314277Y-108586395D01*
X108085305Y-108745607D01*
X107869514Y-108896572D01*
X107672820Y-109035216D01*
X107501143Y-109157464D01*
X107360400Y-109259244D01*
X107256508Y-109336480D01*
X107195385Y-109385098D01*
X107188790Y-109391051D01*
X107116248Y-109491783D01*
X107100500Y-109566941D01*
X107117938Y-109637282D01*
X107171104Y-109658818D01*
X107261275Y-109631377D01*
X107389731Y-109554792D01*
X107435460Y-109522544D01*
X107501864Y-109475318D01*
X107614038Y-109396609D01*
X107765455Y-109290953D01*
X107949589Y-109162886D01*
X108159915Y-109016943D01*
X108389906Y-108857660D01*
X108633035Y-108689574D01*
X108767375Y-108596824D01*
X109010283Y-108428745D01*
X109239565Y-108269229D01*
X109449362Y-108122414D01*
X109633816Y-107992438D01*
X109787068Y-107883440D01*
X109903261Y-107799559D01*
X109976535Y-107744933D01*
X109997688Y-107727714D01*
X110054417Y-107653503D01*
X110084796Y-107570162D01*
X110087046Y-107495285D01*
X110059394Y-107446467D01*
X110027055Y-107437000D01*
X109991746Y-107454605D01*
G36*
X109998151Y-106533983D02*
X109915766Y-106584461D01*
X109793413Y-106663601D01*
X109636974Y-106767322D01*
X109452331Y-106891541D01*
X109245366Y-107032176D01*
X109021959Y-107185144D01*
X108787992Y-107346364D01*
X108549346Y-107511753D01*
X108311904Y-107677229D01*
X108081547Y-107838709D01*
X107864155Y-107992111D01*
X107665612Y-108133354D01*
X107491797Y-108258354D01*
X107348592Y-108363031D01*
X107241880Y-108443300D01*
X107177541Y-108495080D01*
X107162415Y-108509851D01*
X107117331Y-108596052D01*
X107105089Y-108684578D01*
X107124518Y-108756386D01*
X107174444Y-108792432D01*
X107179875Y-108793217D01*
X107220308Y-108776635D01*
X107309290Y-108724944D01*
X107443829Y-108640119D01*
X107620931Y-108524140D01*
X107837602Y-108378985D01*
X108090850Y-108206632D01*
X108377682Y-108009059D01*
X108598012Y-107855997D01*
X108860943Y-107672497D01*
X109109569Y-107498482D01*
X109338726Y-107337598D01*
X109543249Y-107193497D01*
X109717974Y-107069825D01*
X109857738Y-106970234D01*
X109957376Y-106898371D01*
X110011724Y-106857885D01*
X110018825Y-106852046D01*
X110059942Y-106789412D01*
X110083510Y-106704566D01*
X110088584Y-106617489D01*
X110074222Y-106548161D01*
X110039478Y-106516565D01*
X110034688Y-106516250D01*
X109998151Y-106533983D01*
X109998151Y-106533983D01*
G37*
X109998151Y-106533983D02*
X109915766Y-106584461D01*
X109793413Y-106663601D01*
X109636974Y-106767322D01*
X109452331Y-106891541D01*
X109245366Y-107032176D01*
X109021959Y-107185144D01*
X108787992Y-107346364D01*
X108549346Y-107511753D01*
X108311904Y-107677229D01*
X108081547Y-107838709D01*
X107864155Y-107992111D01*
X107665612Y-108133354D01*
X107491797Y-108258354D01*
X107348592Y-108363031D01*
X107241880Y-108443300D01*
X107177541Y-108495080D01*
X107162415Y-108509851D01*
X107117331Y-108596052D01*
X107105089Y-108684578D01*
X107124518Y-108756386D01*
X107174444Y-108792432D01*
X107179875Y-108793217D01*
X107220308Y-108776635D01*
X107309290Y-108724944D01*
X107443829Y-108640119D01*
X107620931Y-108524140D01*
X107837602Y-108378985D01*
X108090850Y-108206632D01*
X108377682Y-108009059D01*
X108598012Y-107855997D01*
X108860943Y-107672497D01*
X109109569Y-107498482D01*
X109338726Y-107337598D01*
X109543249Y-107193497D01*
X109717974Y-107069825D01*
X109857738Y-106970234D01*
X109957376Y-106898371D01*
X110011724Y-106857885D01*
X110018825Y-106852046D01*
X110059942Y-106789412D01*
X110083510Y-106704566D01*
X110088584Y-106617489D01*
X110074222Y-106548161D01*
X110039478Y-106516565D01*
X110034688Y-106516250D01*
X109998151Y-106533983D01*
G36*
X109991509Y-105508936D02*
X109963166Y-105520906D01*
X109921346Y-105543744D01*
X109861958Y-105580127D01*
X109780910Y-105632734D01*
X109674110Y-105704247D01*
X109537467Y-105797343D01*
X109366889Y-105914701D01*
X109158286Y-106059002D01*
X108907565Y-106232924D01*
X108610634Y-106439148D01*
X108458582Y-106544775D01*
X108125640Y-106777106D01*
X107844183Y-106975812D01*
X107612593Y-107142090D01*
X107429253Y-107277136D01*
X107292548Y-107382148D01*
X107200860Y-107458323D01*
X107152573Y-107506857D01*
X107146262Y-107516293D01*
X107111709Y-107614500D01*
X107102745Y-107717525D01*
X107117606Y-107806643D01*
X107154528Y-107863127D01*
X107179875Y-107873186D01*
X107221075Y-107856776D01*
X107311102Y-107804917D01*
X107447312Y-107719351D01*
X107627060Y-107601817D01*
X107847703Y-107454055D01*
X108106597Y-107277805D01*
X108401097Y-107074807D01*
X108545125Y-106974784D01*
X108805108Y-106793601D01*
X109052561Y-106620679D01*
X109281921Y-106459938D01*
X109487623Y-106315300D01*
X109664100Y-106190687D01*
X109805790Y-106090020D01*
X109907126Y-106017222D01*
X109962543Y-105976213D01*
X109965938Y-105973539D01*
X110035244Y-105912937D01*
X110070665Y-105858192D01*
X110083465Y-105783811D01*
X110085000Y-105704132D01*
X110078992Y-105591146D01*
X110059098Y-105529531D01*
X110036589Y-105511429D01*
X110024129Y-105506876D01*
X110010466Y-105505152D01*
X109991509Y-105508936D01*
X109991509Y-105508936D01*
G37*
X109991509Y-105508936D02*
X109963166Y-105520906D01*
X109921346Y-105543744D01*
X109861958Y-105580127D01*
X109780910Y-105632734D01*
X109674110Y-105704247D01*
X109537467Y-105797343D01*
X109366889Y-105914701D01*
X109158286Y-106059002D01*
X108907565Y-106232924D01*
X108610634Y-106439148D01*
X108458582Y-106544775D01*
X108125640Y-106777106D01*
X107844183Y-106975812D01*
X107612593Y-107142090D01*
X107429253Y-107277136D01*
X107292548Y-107382148D01*
X107200860Y-107458323D01*
X107152573Y-107506857D01*
X107146262Y-107516293D01*
X107111709Y-107614500D01*
X107102745Y-107717525D01*
X107117606Y-107806643D01*
X107154528Y-107863127D01*
X107179875Y-107873186D01*
X107221075Y-107856776D01*
X107311102Y-107804917D01*
X107447312Y-107719351D01*
X107627060Y-107601817D01*
X107847703Y-107454055D01*
X108106597Y-107277805D01*
X108401097Y-107074807D01*
X108545125Y-106974784D01*
X108805108Y-106793601D01*
X109052561Y-106620679D01*
X109281921Y-106459938D01*
X109487623Y-106315300D01*
X109664100Y-106190687D01*
X109805790Y-106090020D01*
X109907126Y-106017222D01*
X109962543Y-105976213D01*
X109965938Y-105973539D01*
X110035244Y-105912937D01*
X110070665Y-105858192D01*
X110083465Y-105783811D01*
X110085000Y-105704132D01*
X110078992Y-105591146D01*
X110059098Y-105529531D01*
X110036589Y-105511429D01*
X110024129Y-105506876D01*
X110010466Y-105505152D01*
X109991509Y-105508936D01*
G36*
X109975469Y-104410271D02*
X109890510Y-104458706D01*
X109765394Y-104536706D01*
X109605856Y-104640565D01*
X109417630Y-104766579D01*
X109206450Y-104911042D01*
X109077912Y-105000286D01*
X108838328Y-105167396D01*
X108588726Y-105341323D01*
X108340798Y-105513933D01*
X108106235Y-105677091D01*
X107896729Y-105822662D01*
X107723971Y-105942511D01*
X107679836Y-105973079D01*
X107518973Y-106086262D01*
X107375304Y-106190804D01*
X107257445Y-106280156D01*
X107174008Y-106347771D01*
X107133607Y-106387100D01*
X107132149Y-106389440D01*
X107108668Y-106466165D01*
X107099088Y-106567561D01*
X107102498Y-106672753D01*
X107117985Y-106760866D01*
X107144637Y-106811024D01*
X107150722Y-106814478D01*
X107194651Y-106828375D01*
X107233447Y-106825588D01*
X107285045Y-106799807D01*
X107367383Y-106744723D01*
X107386250Y-106731627D01*
X107828371Y-106424240D01*
X108220917Y-106151005D01*
X108566583Y-105910011D01*
X108868060Y-105699347D01*
X109128040Y-105517102D01*
X109349216Y-105361366D01*
X109534280Y-105230226D01*
X109685923Y-105121772D01*
X109806839Y-105034094D01*
X109899720Y-104965279D01*
X109967257Y-104913416D01*
X110012143Y-104876596D01*
X110037070Y-104852906D01*
X110042393Y-104846172D01*
X110070344Y-104771292D01*
X110082347Y-104670527D01*
X110079607Y-104563373D01*
X110063327Y-104469324D01*
X110034712Y-104407874D01*
X110014537Y-104395105D01*
X109975469Y-104410271D01*
X109975469Y-104410271D01*
G37*
X109975469Y-104410271D02*
X109890510Y-104458706D01*
X109765394Y-104536706D01*
X109605856Y-104640565D01*
X109417630Y-104766579D01*
X109206450Y-104911042D01*
X109077912Y-105000286D01*
X108838328Y-105167396D01*
X108588726Y-105341323D01*
X108340798Y-105513933D01*
X108106235Y-105677091D01*
X107896729Y-105822662D01*
X107723971Y-105942511D01*
X107679836Y-105973079D01*
X107518973Y-106086262D01*
X107375304Y-106190804D01*
X107257445Y-106280156D01*
X107174008Y-106347771D01*
X107133607Y-106387100D01*
X107132149Y-106389440D01*
X107108668Y-106466165D01*
X107099088Y-106567561D01*
X107102498Y-106672753D01*
X107117985Y-106760866D01*
X107144637Y-106811024D01*
X107150722Y-106814478D01*
X107194651Y-106828375D01*
X107233447Y-106825588D01*
X107285045Y-106799807D01*
X107367383Y-106744723D01*
X107386250Y-106731627D01*
X107828371Y-106424240D01*
X108220917Y-106151005D01*
X108566583Y-105910011D01*
X108868060Y-105699347D01*
X109128040Y-105517102D01*
X109349216Y-105361366D01*
X109534280Y-105230226D01*
X109685923Y-105121772D01*
X109806839Y-105034094D01*
X109899720Y-104965279D01*
X109967257Y-104913416D01*
X110012143Y-104876596D01*
X110037070Y-104852906D01*
X110042393Y-104846172D01*
X110070344Y-104771292D01*
X110082347Y-104670527D01*
X110079607Y-104563373D01*
X110063327Y-104469324D01*
X110034712Y-104407874D01*
X110014537Y-104395105D01*
X109975469Y-104410271D01*
G36*
X109997688Y-103220954D02*
X109955564Y-103241366D01*
X109867702Y-103294327D01*
X109740170Y-103375662D01*
X109579033Y-103481198D01*
X109390357Y-103606759D01*
X109180210Y-103748172D01*
X108954658Y-103901261D01*
X108719766Y-104061853D01*
X108481603Y-104225772D01*
X108246232Y-104388845D01*
X108019723Y-104546896D01*
X107808139Y-104695753D01*
X107617549Y-104831239D01*
X107454019Y-104949180D01*
X107323614Y-105045403D01*
X107232401Y-105115732D01*
X107187813Y-105154507D01*
X107138712Y-105214900D01*
X107112304Y-105278073D01*
X107101882Y-105366774D01*
X107100500Y-105450529D01*
X107105005Y-105600596D01*
X107119883Y-105695741D01*
X107147181Y-105743995D01*
X107177868Y-105754250D01*
X107210934Y-105736672D01*
X107290922Y-105686257D01*
X107412663Y-105606479D01*
X107570985Y-105500812D01*
X107760720Y-105372731D01*
X107976696Y-105225710D01*
X108213744Y-105063225D01*
X108466694Y-104888751D01*
X108500034Y-104865675D01*
X108759905Y-104685241D01*
X109008338Y-104511790D01*
X109239519Y-104349449D01*
X109447636Y-104202341D01*
X109626875Y-104074594D01*
X109771422Y-103970332D01*
X109875464Y-103893681D01*
X109933187Y-103848766D01*
X109934188Y-103847913D01*
X110085000Y-103718726D01*
X110085000Y-103207042D01*
X109997688Y-103220954D01*
X109997688Y-103220954D01*
G37*
X109997688Y-103220954D02*
X109955564Y-103241366D01*
X109867702Y-103294327D01*
X109740170Y-103375662D01*
X109579033Y-103481198D01*
X109390357Y-103606759D01*
X109180210Y-103748172D01*
X108954658Y-103901261D01*
X108719766Y-104061853D01*
X108481603Y-104225772D01*
X108246232Y-104388845D01*
X108019723Y-104546896D01*
X107808139Y-104695753D01*
X107617549Y-104831239D01*
X107454019Y-104949180D01*
X107323614Y-105045403D01*
X107232401Y-105115732D01*
X107187813Y-105154507D01*
X107138712Y-105214900D01*
X107112304Y-105278073D01*
X107101882Y-105366774D01*
X107100500Y-105450529D01*
X107105005Y-105600596D01*
X107119883Y-105695741D01*
X107147181Y-105743995D01*
X107177868Y-105754250D01*
X107210934Y-105736672D01*
X107290922Y-105686257D01*
X107412663Y-105606479D01*
X107570985Y-105500812D01*
X107760720Y-105372731D01*
X107976696Y-105225710D01*
X108213744Y-105063225D01*
X108466694Y-104888751D01*
X108500034Y-104865675D01*
X108759905Y-104685241D01*
X109008338Y-104511790D01*
X109239519Y-104349449D01*
X109447636Y-104202341D01*
X109626875Y-104074594D01*
X109771422Y-103970332D01*
X109875464Y-103893681D01*
X109933187Y-103848766D01*
X109934188Y-103847913D01*
X110085000Y-103718726D01*
X110085000Y-103207042D01*
X109997688Y-103220954D01*
G36*
X108570802Y-91043264D02*
X108521605Y-91107676D01*
X108448792Y-91217539D01*
X108351090Y-91374908D01*
X108227227Y-91581836D01*
X108075930Y-91840378D01*
X107895928Y-92152586D01*
X107877505Y-92184735D01*
X107732939Y-92438144D01*
X107596522Y-92679239D01*
X107471912Y-92901407D01*
X107362771Y-93098035D01*
X107272757Y-93262512D01*
X107205531Y-93388225D01*
X107164754Y-93468563D01*
X107155972Y-93488240D01*
X107148909Y-93508729D01*
X107142479Y-93534665D01*
X107136657Y-93568911D01*
X107131420Y-93614331D01*
X107126742Y-93673789D01*
X107122600Y-93750149D01*
X107118968Y-93846275D01*
X107115823Y-93965030D01*
X107113139Y-94109278D01*
X107110894Y-94281883D01*
X107109061Y-94485709D01*
X107107616Y-94723619D01*
X107106536Y-94998477D01*
X107105795Y-95313148D01*
X107105369Y-95670494D01*
X107105234Y-96073380D01*
X107105365Y-96524670D01*
X107105738Y-97027226D01*
X107106329Y-97583914D01*
X107107112Y-98197597D01*
X107108063Y-98871138D01*
X107108347Y-99064692D01*
X107116375Y-104500125D01*
X107195750Y-104505748D01*
X107231360Y-104495566D01*
X107298722Y-104460935D01*
X107400491Y-104400112D01*
X107539320Y-104311350D01*
X107717863Y-104192908D01*
X107938774Y-104043039D01*
X108204708Y-103860000D01*
X108518318Y-103642046D01*
X108653804Y-103547426D01*
X108917515Y-103362512D01*
X109165669Y-103187478D01*
X109393342Y-103025868D01*
X109595607Y-102881229D01*
X109767538Y-102757105D01*
X109904210Y-102657042D01*
X110000696Y-102584585D01*
X110052071Y-102543280D01*
X110059066Y-102535979D01*
X110062143Y-102499153D01*
X110065003Y-102402453D01*
X110067634Y-102249506D01*
X110070019Y-102043938D01*
X110072145Y-101789376D01*
X110073997Y-101489446D01*
X110075559Y-101147774D01*
X110076818Y-100767986D01*
X110077463Y-100483750D01*
X109386500Y-100483750D01*
X109386500Y-102357000D01*
X109005500Y-102357000D01*
X109005500Y-101595000D01*
X108021250Y-101595000D01*
X108021250Y-101277500D01*
X109005500Y-101277500D01*
X109005500Y-100801250D01*
X107862500Y-100801250D01*
X107862500Y-100483750D01*
X109386500Y-100483750D01*
X110077463Y-100483750D01*
X110077759Y-100353709D01*
X110078367Y-99908569D01*
X110078628Y-99436193D01*
X110078628Y-99436000D01*
X109394681Y-99436000D01*
X109372964Y-99599715D01*
X109353744Y-99697431D01*
X109324317Y-99798895D01*
X109291405Y-99885141D01*
X109261733Y-99937205D01*
X109250748Y-99944478D01*
X109219560Y-99954760D01*
X109149650Y-99980027D01*
X109116625Y-99992252D01*
X109021225Y-100013699D01*
X108882406Y-100027384D01*
X108716472Y-100033577D01*
X108539730Y-100032549D01*
X108368484Y-100024568D01*
X108219039Y-100009907D01*
X108107701Y-99988835D01*
X108069165Y-99974886D01*
X107985667Y-99911192D01*
X107926290Y-99832585D01*
X107898794Y-99740178D01*
X107882645Y-99608701D01*
X107877942Y-99459768D01*
X107884788Y-99314990D01*
X107903284Y-99195979D01*
X107923040Y-99139906D01*
X107979630Y-99073568D01*
X108074744Y-99020948D01*
X108215063Y-98979905D01*
X108407268Y-98948296D01*
X108575870Y-98930671D01*
X108740382Y-98914047D01*
X108852138Y-98896663D01*
X108921864Y-98876144D01*
X108960283Y-98850113D01*
X108964808Y-98844513D01*
X109000348Y-98749497D01*
X108998126Y-98635035D01*
X108959799Y-98531463D01*
X108946717Y-98513190D01*
X108910461Y-98476764D01*
X108863715Y-98454736D01*
X108790516Y-98443380D01*
X108674901Y-98438965D01*
X108626529Y-98438412D01*
X108469414Y-98443445D01*
X108365332Y-98465136D01*
X108304856Y-98508692D01*
X108278560Y-98579319D01*
X108275250Y-98632443D01*
X108270452Y-98672846D01*
X108246253Y-98694830D01*
X108187953Y-98703947D01*
X108081145Y-98705750D01*
X107887040Y-98705750D01*
X107908995Y-98554937D01*
X107939361Y-98417277D01*
X107990256Y-98313679D01*
X108069555Y-98239810D01*
X108185138Y-98191336D01*
X108344883Y-98163925D01*
X108556667Y-98153244D01*
X108640375Y-98152652D01*
X108876022Y-98159971D01*
X109056169Y-98184929D01*
X109187534Y-98232448D01*
X109276830Y-98307450D01*
X109330772Y-98414858D01*
X109356077Y-98559592D01*
X109360353Y-98680376D01*
X109352724Y-98852630D01*
X109324482Y-98981636D01*
X109267597Y-99074737D01*
X109174040Y-99139272D01*
X109035781Y-99182581D01*
X108844789Y-99212006D01*
X108770284Y-99219779D01*
X108580935Y-99239202D01*
X108445029Y-99257102D01*
X108352673Y-99276488D01*
X108293970Y-99300368D01*
X108259026Y-99331752D01*
X108237948Y-99373648D01*
X108234837Y-99382616D01*
X108220130Y-99477072D01*
X108225919Y-99580930D01*
X108226120Y-99582014D01*
X108252284Y-99658500D01*
X108303703Y-99709278D01*
X108390899Y-99738879D01*
X108524393Y-99751831D01*
X108624500Y-99753500D01*
X108785099Y-99748830D01*
X108893795Y-99731266D01*
X108961731Y-99695471D01*
X109000052Y-99636113D01*
X109017296Y-99565479D01*
X109038001Y-99436000D01*
X109394681Y-99436000D01*
X110078628Y-99436000D01*
X110078526Y-98940206D01*
X110078048Y-98424235D01*
X110077387Y-98001551D01*
X110073394Y-95832375D01*
X109370625Y-95832375D01*
X109370625Y-96594375D01*
X109370251Y-96836903D01*
X109368709Y-97024760D01*
X109365367Y-97166774D01*
X109359595Y-97271771D01*
X109350764Y-97348579D01*
X109338241Y-97406023D01*
X109321398Y-97452932D01*
X109307125Y-97483375D01*
X109242702Y-97576813D01*
X109151416Y-97643906D01*
X109025050Y-97687218D01*
X108855384Y-97709314D01*
X108634198Y-97712759D01*
X108576875Y-97711239D01*
X108368942Y-97698861D01*
X108209464Y-97677322D01*
X108110672Y-97649694D01*
X108044734Y-97618038D01*
X107992547Y-97581104D01*
X107952389Y-97531455D01*
X107922542Y-97461658D01*
X107901286Y-97364277D01*
X107886902Y-97231878D01*
X107877669Y-97057025D01*
X107871868Y-96832285D01*
X107868426Y-96602312D01*
X107858476Y-95816500D01*
X108207458Y-95816500D01*
X108217542Y-96549605D01*
X108220918Y-96783586D01*
X108224366Y-96962340D01*
X108228771Y-97094136D01*
X108235018Y-97187241D01*
X108243994Y-97249924D01*
X108256585Y-97290452D01*
X108273676Y-97317095D01*
X108296153Y-97338118D01*
X108302580Y-97343355D01*
X108358652Y-97376606D01*
X108435660Y-97395490D01*
X108550745Y-97403260D01*
X108621950Y-97404000D01*
X108732436Y-97404296D01*
X108818223Y-97400431D01*
X108882602Y-97385271D01*
X108928867Y-97351683D01*
X108960312Y-97292534D01*
X108980228Y-97200691D01*
X108991909Y-97069020D01*
X108998648Y-96890389D01*
X109003737Y-96657665D01*
X109005500Y-96573176D01*
X109021375Y-95832375D01*
X109370625Y-95832375D01*
X110073394Y-95832375D01*
X110070619Y-94325718D01*
X109382772Y-94325718D01*
X109367515Y-94641908D01*
X109358647Y-94730727D01*
X109329050Y-94943190D01*
X109289099Y-95101450D01*
X109232530Y-95214671D01*
X109153080Y-95292020D01*
X109044487Y-95342661D01*
X108920179Y-95372350D01*
X108808318Y-95383759D01*
X108661945Y-95386979D01*
X108500533Y-95382908D01*
X108343557Y-95372448D01*
X108210492Y-95356498D01*
X108120812Y-95335957D01*
X108119147Y-95335337D01*
X108033120Y-95289178D01*
X107966174Y-95237807D01*
X107927869Y-95194466D01*
X107900558Y-95139501D01*
X107880078Y-95058507D01*
X107862268Y-94937077D01*
X107851278Y-94840187D01*
X107836793Y-94705250D01*
X108211750Y-94705250D01*
X108211750Y-94812857D01*
X108230324Y-94930381D01*
X108290426Y-95010163D01*
X108398627Y-95057924D01*
X108513980Y-95076058D01*
X108695652Y-95081906D01*
X108826242Y-95060551D01*
X108913153Y-95009519D01*
X108963791Y-94926337D01*
X108964021Y-94925676D01*
X108978400Y-94850519D01*
X108989368Y-94728360D01*
X108996704Y-94575612D01*
X109000188Y-94408694D01*
X108999600Y-94244020D01*
X108994721Y-94098007D01*
X108985330Y-93987072D01*
X108977185Y-93943250D01*
X108925340Y-93869484D01*
X108823011Y-93818733D01*
X108680014Y-93794099D01*
X108516625Y-93797597D01*
X108378465Y-93818590D01*
X108293585Y-93851998D01*
X108252097Y-93903714D01*
X108243500Y-93960415D01*
X108235581Y-94053137D01*
X108202976Y-94105763D01*
X108132412Y-94129031D01*
X108029287Y-94133750D01*
X107853617Y-94133750D01*
X107871774Y-93957817D01*
X107897414Y-93802305D01*
X107943003Y-93684499D01*
X108015988Y-93600006D01*
X108123814Y-93544430D01*
X108273929Y-93513378D01*
X108473778Y-93502455D01*
X108640375Y-93504241D01*
X108809424Y-93510291D01*
X108929334Y-93519214D01*
X109014467Y-93533393D01*
X109079182Y-93555210D01*
X109137235Y-93586672D01*
X109244166Y-93690312D01*
X109320879Y-93848788D01*
X109367154Y-94060967D01*
X109382772Y-94325718D01*
X110070619Y-94325718D01*
X110069125Y-93514625D01*
X109420933Y-92355750D01*
X109249580Y-92049550D01*
X109106316Y-91794194D01*
X108988291Y-91585069D01*
X108892658Y-91417562D01*
X108816570Y-91287061D01*
X108757179Y-91188953D01*
X108711637Y-91118627D01*
X108677098Y-91071471D01*
X108650713Y-91042871D01*
X108629635Y-91028216D01*
X108611017Y-91022893D01*
X108597655Y-91022250D01*
X108570802Y-91043264D01*
X108570802Y-91043264D01*
G37*
X108570802Y-91043264D02*
X108521605Y-91107676D01*
X108448792Y-91217539D01*
X108351090Y-91374908D01*
X108227227Y-91581836D01*
X108075930Y-91840378D01*
X107895928Y-92152586D01*
X107877505Y-92184735D01*
X107732939Y-92438144D01*
X107596522Y-92679239D01*
X107471912Y-92901407D01*
X107362771Y-93098035D01*
X107272757Y-93262512D01*
X107205531Y-93388225D01*
X107164754Y-93468563D01*
X107155972Y-93488240D01*
X107148909Y-93508729D01*
X107142479Y-93534665D01*
X107136657Y-93568911D01*
X107131420Y-93614331D01*
X107126742Y-93673789D01*
X107122600Y-93750149D01*
X107118968Y-93846275D01*
X107115823Y-93965030D01*
X107113139Y-94109278D01*
X107110894Y-94281883D01*
X107109061Y-94485709D01*
X107107616Y-94723619D01*
X107106536Y-94998477D01*
X107105795Y-95313148D01*
X107105369Y-95670494D01*
X107105234Y-96073380D01*
X107105365Y-96524670D01*
X107105738Y-97027226D01*
X107106329Y-97583914D01*
X107107112Y-98197597D01*
X107108063Y-98871138D01*
X107108347Y-99064692D01*
X107116375Y-104500125D01*
X107195750Y-104505748D01*
X107231360Y-104495566D01*
X107298722Y-104460935D01*
X107400491Y-104400112D01*
X107539320Y-104311350D01*
X107717863Y-104192908D01*
X107938774Y-104043039D01*
X108204708Y-103860000D01*
X108518318Y-103642046D01*
X108653804Y-103547426D01*
X108917515Y-103362512D01*
X109165669Y-103187478D01*
X109393342Y-103025868D01*
X109595607Y-102881229D01*
X109767538Y-102757105D01*
X109904210Y-102657042D01*
X110000696Y-102584585D01*
X110052071Y-102543280D01*
X110059066Y-102535979D01*
X110062143Y-102499153D01*
X110065003Y-102402453D01*
X110067634Y-102249506D01*
X110070019Y-102043938D01*
X110072145Y-101789376D01*
X110073997Y-101489446D01*
X110075559Y-101147774D01*
X110076818Y-100767986D01*
X110077463Y-100483750D01*
X109386500Y-100483750D01*
X109386500Y-102357000D01*
X109005500Y-102357000D01*
X109005500Y-101595000D01*
X108021250Y-101595000D01*
X108021250Y-101277500D01*
X109005500Y-101277500D01*
X109005500Y-100801250D01*
X107862500Y-100801250D01*
X107862500Y-100483750D01*
X109386500Y-100483750D01*
X110077463Y-100483750D01*
X110077759Y-100353709D01*
X110078367Y-99908569D01*
X110078628Y-99436193D01*
X110078628Y-99436000D01*
X109394681Y-99436000D01*
X109372964Y-99599715D01*
X109353744Y-99697431D01*
X109324317Y-99798895D01*
X109291405Y-99885141D01*
X109261733Y-99937205D01*
X109250748Y-99944478D01*
X109219560Y-99954760D01*
X109149650Y-99980027D01*
X109116625Y-99992252D01*
X109021225Y-100013699D01*
X108882406Y-100027384D01*
X108716472Y-100033577D01*
X108539730Y-100032549D01*
X108368484Y-100024568D01*
X108219039Y-100009907D01*
X108107701Y-99988835D01*
X108069165Y-99974886D01*
X107985667Y-99911192D01*
X107926290Y-99832585D01*
X107898794Y-99740178D01*
X107882645Y-99608701D01*
X107877942Y-99459768D01*
X107884788Y-99314990D01*
X107903284Y-99195979D01*
X107923040Y-99139906D01*
X107979630Y-99073568D01*
X108074744Y-99020948D01*
X108215063Y-98979905D01*
X108407268Y-98948296D01*
X108575870Y-98930671D01*
X108740382Y-98914047D01*
X108852138Y-98896663D01*
X108921864Y-98876144D01*
X108960283Y-98850113D01*
X108964808Y-98844513D01*
X109000348Y-98749497D01*
X108998126Y-98635035D01*
X108959799Y-98531463D01*
X108946717Y-98513190D01*
X108910461Y-98476764D01*
X108863715Y-98454736D01*
X108790516Y-98443380D01*
X108674901Y-98438965D01*
X108626529Y-98438412D01*
X108469414Y-98443445D01*
X108365332Y-98465136D01*
X108304856Y-98508692D01*
X108278560Y-98579319D01*
X108275250Y-98632443D01*
X108270452Y-98672846D01*
X108246253Y-98694830D01*
X108187953Y-98703947D01*
X108081145Y-98705750D01*
X107887040Y-98705750D01*
X107908995Y-98554937D01*
X107939361Y-98417277D01*
X107990256Y-98313679D01*
X108069555Y-98239810D01*
X108185138Y-98191336D01*
X108344883Y-98163925D01*
X108556667Y-98153244D01*
X108640375Y-98152652D01*
X108876022Y-98159971D01*
X109056169Y-98184929D01*
X109187534Y-98232448D01*
X109276830Y-98307450D01*
X109330772Y-98414858D01*
X109356077Y-98559592D01*
X109360353Y-98680376D01*
X109352724Y-98852630D01*
X109324482Y-98981636D01*
X109267597Y-99074737D01*
X109174040Y-99139272D01*
X109035781Y-99182581D01*
X108844789Y-99212006D01*
X108770284Y-99219779D01*
X108580935Y-99239202D01*
X108445029Y-99257102D01*
X108352673Y-99276488D01*
X108293970Y-99300368D01*
X108259026Y-99331752D01*
X108237948Y-99373648D01*
X108234837Y-99382616D01*
X108220130Y-99477072D01*
X108225919Y-99580930D01*
X108226120Y-99582014D01*
X108252284Y-99658500D01*
X108303703Y-99709278D01*
X108390899Y-99738879D01*
X108524393Y-99751831D01*
X108624500Y-99753500D01*
X108785099Y-99748830D01*
X108893795Y-99731266D01*
X108961731Y-99695471D01*
X109000052Y-99636113D01*
X109017296Y-99565479D01*
X109038001Y-99436000D01*
X109394681Y-99436000D01*
X110078628Y-99436000D01*
X110078526Y-98940206D01*
X110078048Y-98424235D01*
X110077387Y-98001551D01*
X110073394Y-95832375D01*
X109370625Y-95832375D01*
X109370625Y-96594375D01*
X109370251Y-96836903D01*
X109368709Y-97024760D01*
X109365367Y-97166774D01*
X109359595Y-97271771D01*
X109350764Y-97348579D01*
X109338241Y-97406023D01*
X109321398Y-97452932D01*
X109307125Y-97483375D01*
X109242702Y-97576813D01*
X109151416Y-97643906D01*
X109025050Y-97687218D01*
X108855384Y-97709314D01*
X108634198Y-97712759D01*
X108576875Y-97711239D01*
X108368942Y-97698861D01*
X108209464Y-97677322D01*
X108110672Y-97649694D01*
X108044734Y-97618038D01*
X107992547Y-97581104D01*
X107952389Y-97531455D01*
X107922542Y-97461658D01*
X107901286Y-97364277D01*
X107886902Y-97231878D01*
X107877669Y-97057025D01*
X107871868Y-96832285D01*
X107868426Y-96602312D01*
X107858476Y-95816500D01*
X108207458Y-95816500D01*
X108217542Y-96549605D01*
X108220918Y-96783586D01*
X108224366Y-96962340D01*
X108228771Y-97094136D01*
X108235018Y-97187241D01*
X108243994Y-97249924D01*
X108256585Y-97290452D01*
X108273676Y-97317095D01*
X108296153Y-97338118D01*
X108302580Y-97343355D01*
X108358652Y-97376606D01*
X108435660Y-97395490D01*
X108550745Y-97403260D01*
X108621950Y-97404000D01*
X108732436Y-97404296D01*
X108818223Y-97400431D01*
X108882602Y-97385271D01*
X108928867Y-97351683D01*
X108960312Y-97292534D01*
X108980228Y-97200691D01*
X108991909Y-97069020D01*
X108998648Y-96890389D01*
X109003737Y-96657665D01*
X109005500Y-96573176D01*
X109021375Y-95832375D01*
X109370625Y-95832375D01*
X110073394Y-95832375D01*
X110070619Y-94325718D01*
X109382772Y-94325718D01*
X109367515Y-94641908D01*
X109358647Y-94730727D01*
X109329050Y-94943190D01*
X109289099Y-95101450D01*
X109232530Y-95214671D01*
X109153080Y-95292020D01*
X109044487Y-95342661D01*
X108920179Y-95372350D01*
X108808318Y-95383759D01*
X108661945Y-95386979D01*
X108500533Y-95382908D01*
X108343557Y-95372448D01*
X108210492Y-95356498D01*
X108120812Y-95335957D01*
X108119147Y-95335337D01*
X108033120Y-95289178D01*
X107966174Y-95237807D01*
X107927869Y-95194466D01*
X107900558Y-95139501D01*
X107880078Y-95058507D01*
X107862268Y-94937077D01*
X107851278Y-94840187D01*
X107836793Y-94705250D01*
X108211750Y-94705250D01*
X108211750Y-94812857D01*
X108230324Y-94930381D01*
X108290426Y-95010163D01*
X108398627Y-95057924D01*
X108513980Y-95076058D01*
X108695652Y-95081906D01*
X108826242Y-95060551D01*
X108913153Y-95009519D01*
X108963791Y-94926337D01*
X108964021Y-94925676D01*
X108978400Y-94850519D01*
X108989368Y-94728360D01*
X108996704Y-94575612D01*
X109000188Y-94408694D01*
X108999600Y-94244020D01*
X108994721Y-94098007D01*
X108985330Y-93987072D01*
X108977185Y-93943250D01*
X108925340Y-93869484D01*
X108823011Y-93818733D01*
X108680014Y-93794099D01*
X108516625Y-93797597D01*
X108378465Y-93818590D01*
X108293585Y-93851998D01*
X108252097Y-93903714D01*
X108243500Y-93960415D01*
X108235581Y-94053137D01*
X108202976Y-94105763D01*
X108132412Y-94129031D01*
X108029287Y-94133750D01*
X107853617Y-94133750D01*
X107871774Y-93957817D01*
X107897414Y-93802305D01*
X107943003Y-93684499D01*
X108015988Y-93600006D01*
X108123814Y-93544430D01*
X108273929Y-93513378D01*
X108473778Y-93502455D01*
X108640375Y-93504241D01*
X108809424Y-93510291D01*
X108929334Y-93519214D01*
X109014467Y-93533393D01*
X109079182Y-93555210D01*
X109137235Y-93586672D01*
X109244166Y-93690312D01*
X109320879Y-93848788D01*
X109367154Y-94060967D01*
X109382772Y-94325718D01*
X110070619Y-94325718D01*
X110069125Y-93514625D01*
X109420933Y-92355750D01*
X109249580Y-92049550D01*
X109106316Y-91794194D01*
X108988291Y-91585069D01*
X108892658Y-91417562D01*
X108816570Y-91287061D01*
X108757179Y-91188953D01*
X108711637Y-91118627D01*
X108677098Y-91071471D01*
X108650713Y-91042871D01*
X108629635Y-91028216D01*
X108611017Y-91022893D01*
X108597655Y-91022250D01*
X108570802Y-91043264D01*
G36*
X106306750Y-102134750D02*
X105322500Y-102134750D01*
X105322500Y-102388750D01*
X106529000Y-102388750D01*
X106529000Y-100483750D01*
X106306750Y-100483750D01*
X106306750Y-102134750D01*
X106306750Y-102134750D01*
G37*
X106306750Y-102134750D02*
X105322500Y-102134750D01*
X105322500Y-102388750D01*
X106529000Y-102388750D01*
X106529000Y-100483750D01*
X106306750Y-100483750D01*
X106306750Y-102134750D01*
G36*
X104370000Y-102388750D02*
X104624000Y-102388750D01*
X104624000Y-100483750D01*
X104370000Y-100483750D01*
X104370000Y-102388750D01*
X104370000Y-102388750D01*
G37*
X104370000Y-102388750D02*
X104624000Y-102388750D01*
X104624000Y-100483750D01*
X104370000Y-100483750D01*
X104370000Y-102388750D01*
G36*
X102513113Y-100471351D02*
X102345475Y-100483423D01*
X102222883Y-100506555D01*
X102136256Y-100543214D01*
X102076516Y-100595864D01*
X102039280Y-100656739D01*
X102007186Y-100757824D01*
X101989781Y-100877737D01*
X101988750Y-100909235D01*
X101991090Y-100998273D01*
X102006364Y-101040903D01*
X102046958Y-101054219D01*
X102094554Y-101055250D01*
X102159094Y-101050892D01*
X102194873Y-101026827D01*
X102216711Y-100966565D01*
X102229492Y-100905129D01*
X102252410Y-100816569D01*
X102287838Y-100753675D01*
X102345578Y-100712530D01*
X102435432Y-100689217D01*
X102567203Y-100679820D01*
X102750693Y-100680420D01*
X102789643Y-100681280D01*
X102955091Y-100685415D01*
X103080862Y-100694111D01*
X103172390Y-100715136D01*
X103235104Y-100756257D01*
X103274436Y-100825243D01*
X103295818Y-100929863D01*
X103304680Y-101077886D01*
X103306454Y-101277079D01*
X103306375Y-101420375D01*
X103305993Y-101627571D01*
X103304188Y-101780837D01*
X103299972Y-101889743D01*
X103292356Y-101963856D01*
X103280354Y-102012745D01*
X103262975Y-102045979D01*
X103239234Y-102073127D01*
X103238939Y-102073422D01*
X103159314Y-102119129D01*
X103034995Y-102152365D01*
X102882374Y-102172749D01*
X102717843Y-102179901D01*
X102557794Y-102173437D01*
X102418619Y-102152977D01*
X102316711Y-102118138D01*
X102285271Y-102095627D01*
X102253072Y-102031750D01*
X102228523Y-101919747D01*
X102219147Y-101836547D01*
X102202307Y-101626750D01*
X102814250Y-101626750D01*
X102814250Y-101404500D01*
X101980760Y-101404500D01*
X101994752Y-101770055D01*
X102006455Y-101965928D01*
X102027627Y-102108713D01*
X102063299Y-102208669D01*
X102118503Y-102276051D01*
X102198268Y-102321118D01*
X102277475Y-102346507D01*
X102376479Y-102362968D01*
X102518946Y-102374576D01*
X102685515Y-102381056D01*
X102856825Y-102382134D01*
X103013517Y-102377537D01*
X103136230Y-102366992D01*
X103179375Y-102359263D01*
X103286356Y-102328501D01*
X103369152Y-102288863D01*
X103431013Y-102232324D01*
X103475192Y-102150862D01*
X103504939Y-102036455D01*
X103523505Y-101881077D01*
X103534142Y-101676708D01*
X103539147Y-101471409D01*
X103541807Y-101217893D01*
X103538113Y-101019446D01*
X103525898Y-100867778D01*
X103502992Y-100754595D01*
X103467227Y-100671607D01*
X103416434Y-100610521D01*
X103348446Y-100563045D01*
X103294458Y-100535766D01*
X103223387Y-100506818D01*
X103148674Y-100487322D01*
X103055758Y-100475513D01*
X102930080Y-100469624D01*
X102757078Y-100467888D01*
X102734875Y-100467875D01*
X102513113Y-100471351D01*
X102513113Y-100471351D01*
G37*
X102513113Y-100471351D02*
X102345475Y-100483423D01*
X102222883Y-100506555D01*
X102136256Y-100543214D01*
X102076516Y-100595864D01*
X102039280Y-100656739D01*
X102007186Y-100757824D01*
X101989781Y-100877737D01*
X101988750Y-100909235D01*
X101991090Y-100998273D01*
X102006364Y-101040903D01*
X102046958Y-101054219D01*
X102094554Y-101055250D01*
X102159094Y-101050892D01*
X102194873Y-101026827D01*
X102216711Y-100966565D01*
X102229492Y-100905129D01*
X102252410Y-100816569D01*
X102287838Y-100753675D01*
X102345578Y-100712530D01*
X102435432Y-100689217D01*
X102567203Y-100679820D01*
X102750693Y-100680420D01*
X102789643Y-100681280D01*
X102955091Y-100685415D01*
X103080862Y-100694111D01*
X103172390Y-100715136D01*
X103235104Y-100756257D01*
X103274436Y-100825243D01*
X103295818Y-100929863D01*
X103304680Y-101077886D01*
X103306454Y-101277079D01*
X103306375Y-101420375D01*
X103305993Y-101627571D01*
X103304188Y-101780837D01*
X103299972Y-101889743D01*
X103292356Y-101963856D01*
X103280354Y-102012745D01*
X103262975Y-102045979D01*
X103239234Y-102073127D01*
X103238939Y-102073422D01*
X103159314Y-102119129D01*
X103034995Y-102152365D01*
X102882374Y-102172749D01*
X102717843Y-102179901D01*
X102557794Y-102173437D01*
X102418619Y-102152977D01*
X102316711Y-102118138D01*
X102285271Y-102095627D01*
X102253072Y-102031750D01*
X102228523Y-101919747D01*
X102219147Y-101836547D01*
X102202307Y-101626750D01*
X102814250Y-101626750D01*
X102814250Y-101404500D01*
X101980760Y-101404500D01*
X101994752Y-101770055D01*
X102006455Y-101965928D01*
X102027627Y-102108713D01*
X102063299Y-102208669D01*
X102118503Y-102276051D01*
X102198268Y-102321118D01*
X102277475Y-102346507D01*
X102376479Y-102362968D01*
X102518946Y-102374576D01*
X102685515Y-102381056D01*
X102856825Y-102382134D01*
X103013517Y-102377537D01*
X103136230Y-102366992D01*
X103179375Y-102359263D01*
X103286356Y-102328501D01*
X103369152Y-102288863D01*
X103431013Y-102232324D01*
X103475192Y-102150862D01*
X103504939Y-102036455D01*
X103523505Y-101881077D01*
X103534142Y-101676708D01*
X103539147Y-101471409D01*
X103541807Y-101217893D01*
X103538113Y-101019446D01*
X103525898Y-100867778D01*
X103502992Y-100754595D01*
X103467227Y-100671607D01*
X103416434Y-100610521D01*
X103348446Y-100563045D01*
X103294458Y-100535766D01*
X103223387Y-100506818D01*
X103148674Y-100487322D01*
X103055758Y-100475513D01*
X102930080Y-100469624D01*
X102757078Y-100467888D01*
X102734875Y-100467875D01*
X102513113Y-100471351D01*
G36*
X100941000Y-101309250D02*
X99893250Y-101309250D01*
X99893250Y-100483750D01*
X99639250Y-100483750D01*
X99639250Y-102388750D01*
X99893250Y-102388750D01*
X99893250Y-101499750D01*
X100941000Y-101499750D01*
X100941000Y-102388750D01*
X101195000Y-102388750D01*
X101195000Y-100483750D01*
X100941000Y-100483750D01*
X100941000Y-101309250D01*
X100941000Y-101309250D01*
G37*
X100941000Y-101309250D02*
X99893250Y-101309250D01*
X99893250Y-100483750D01*
X99639250Y-100483750D01*
X99639250Y-102388750D01*
X99893250Y-102388750D01*
X99893250Y-101499750D01*
X100941000Y-101499750D01*
X100941000Y-102388750D01*
X101195000Y-102388750D01*
X101195000Y-100483750D01*
X100941000Y-100483750D01*
X100941000Y-101309250D01*
G36*
X97480250Y-100706000D02*
X98083500Y-100706000D01*
X98083500Y-102388750D01*
X98305750Y-102388750D01*
X98305750Y-100706000D01*
X98909000Y-100706000D01*
X98909000Y-100483750D01*
X97480250Y-100483750D01*
X97480250Y-100706000D01*
X97480250Y-100706000D01*
G37*
X97480250Y-100706000D02*
X98083500Y-100706000D01*
X98083500Y-102388750D01*
X98305750Y-102388750D01*
X98305750Y-100706000D01*
X98909000Y-100706000D01*
X98909000Y-100483750D01*
X97480250Y-100483750D01*
X97480250Y-100706000D01*
G36*
X100249329Y-98141182D02*
X100090161Y-98165889D01*
X99975961Y-98214240D01*
X99898026Y-98292100D01*
X99847652Y-98405338D01*
X99816138Y-98559820D01*
X99814619Y-98570812D01*
X99792042Y-98737500D01*
X100043742Y-98737500D01*
X100060523Y-98588618D01*
X100084811Y-98474909D01*
X100135320Y-98402551D01*
X100225350Y-98359177D01*
X100330469Y-98337676D01*
X100447242Y-98330372D01*
X100586624Y-98336530D01*
X100730469Y-98353526D01*
X100860634Y-98378737D01*
X100958973Y-98409541D01*
X101000766Y-98434574D01*
X101019392Y-98461655D01*
X101032976Y-98506003D01*
X101042243Y-98576653D01*
X101047921Y-98682639D01*
X101050736Y-98832996D01*
X101051413Y-99036757D01*
X101051387Y-99064237D01*
X101048991Y-99312679D01*
X101042421Y-99500182D01*
X101031526Y-99629181D01*
X101016160Y-99702109D01*
X101011943Y-99711269D01*
X100945848Y-99778394D01*
X100833497Y-99822052D01*
X100670288Y-99843312D01*
X100451614Y-99843245D01*
X100444982Y-99842961D01*
X100279644Y-99831931D01*
X100166786Y-99811053D01*
X100095438Y-99773032D01*
X100054631Y-99710571D01*
X100033396Y-99616374D01*
X100027653Y-99565370D01*
X100016440Y-99470639D01*
X99998362Y-99422995D01*
X99961111Y-99406259D01*
X99905086Y-99404250D01*
X99798000Y-99404250D01*
X99798000Y-99574137D01*
X99810416Y-99752276D01*
X99849880Y-99879312D01*
X99919717Y-99963044D01*
X99977802Y-99995834D01*
X100066010Y-100018717D01*
X100199805Y-100037112D01*
X100361382Y-100050192D01*
X100532933Y-100057128D01*
X100696651Y-100057094D01*
X100834730Y-100049261D01*
X100905432Y-100038944D01*
X101022436Y-100008917D01*
X101114255Y-99969351D01*
X101183900Y-99912790D01*
X101234380Y-99831778D01*
X101268706Y-99718860D01*
X101289886Y-99566578D01*
X101300930Y-99367478D01*
X101304848Y-99114102D01*
X101305055Y-99048920D01*
X101306125Y-98423715D01*
X101198294Y-98312367D01*
X101113756Y-98241825D01*
X101010680Y-98191373D01*
X100878207Y-98158383D01*
X100705477Y-98140227D01*
X100481630Y-98134277D01*
X100462168Y-98134250D01*
X100249329Y-98141182D01*
X100249329Y-98141182D01*
G37*
X100249329Y-98141182D02*
X100090161Y-98165889D01*
X99975961Y-98214240D01*
X99898026Y-98292100D01*
X99847652Y-98405338D01*
X99816138Y-98559820D01*
X99814619Y-98570812D01*
X99792042Y-98737500D01*
X100043742Y-98737500D01*
X100060523Y-98588618D01*
X100084811Y-98474909D01*
X100135320Y-98402551D01*
X100225350Y-98359177D01*
X100330469Y-98337676D01*
X100447242Y-98330372D01*
X100586624Y-98336530D01*
X100730469Y-98353526D01*
X100860634Y-98378737D01*
X100958973Y-98409541D01*
X101000766Y-98434574D01*
X101019392Y-98461655D01*
X101032976Y-98506003D01*
X101042243Y-98576653D01*
X101047921Y-98682639D01*
X101050736Y-98832996D01*
X101051413Y-99036757D01*
X101051387Y-99064237D01*
X101048991Y-99312679D01*
X101042421Y-99500182D01*
X101031526Y-99629181D01*
X101016160Y-99702109D01*
X101011943Y-99711269D01*
X100945848Y-99778394D01*
X100833497Y-99822052D01*
X100670288Y-99843312D01*
X100451614Y-99843245D01*
X100444982Y-99842961D01*
X100279644Y-99831931D01*
X100166786Y-99811053D01*
X100095438Y-99773032D01*
X100054631Y-99710571D01*
X100033396Y-99616374D01*
X100027653Y-99565370D01*
X100016440Y-99470639D01*
X99998362Y-99422995D01*
X99961111Y-99406259D01*
X99905086Y-99404250D01*
X99798000Y-99404250D01*
X99798000Y-99574137D01*
X99810416Y-99752276D01*
X99849880Y-99879312D01*
X99919717Y-99963044D01*
X99977802Y-99995834D01*
X100066010Y-100018717D01*
X100199805Y-100037112D01*
X100361382Y-100050192D01*
X100532933Y-100057128D01*
X100696651Y-100057094D01*
X100834730Y-100049261D01*
X100905432Y-100038944D01*
X101022436Y-100008917D01*
X101114255Y-99969351D01*
X101183900Y-99912790D01*
X101234380Y-99831778D01*
X101268706Y-99718860D01*
X101289886Y-99566578D01*
X101300930Y-99367478D01*
X101304848Y-99114102D01*
X101305055Y-99048920D01*
X101306125Y-98423715D01*
X101198294Y-98312367D01*
X101113756Y-98241825D01*
X101010680Y-98191373D01*
X100878207Y-98158383D01*
X100705477Y-98140227D01*
X100481630Y-98134277D01*
X100462168Y-98134250D01*
X100249329Y-98141182D01*
G36*
X105965438Y-98140104D02*
X105710666Y-98148651D01*
X105512352Y-98164388D01*
X105363501Y-98192105D01*
X105257115Y-98236592D01*
X105186199Y-98302640D01*
X105143756Y-98395039D01*
X105122790Y-98518579D01*
X105116305Y-98678050D01*
X105116125Y-98721625D01*
X105121704Y-98901184D01*
X105143355Y-99038730D01*
X105188452Y-99140071D01*
X105264368Y-99211017D01*
X105378478Y-99257375D01*
X105538154Y-99284954D01*
X105750769Y-99299562D01*
X105854313Y-99303132D01*
X106306750Y-99316061D01*
X106306750Y-100039250D01*
X106529000Y-100039250D01*
X106529000Y-98356500D01*
X106306750Y-98356500D01*
X106306750Y-99091669D01*
X105879622Y-99081272D01*
X105684292Y-99073715D01*
X105537776Y-99062020D01*
X105445445Y-99046738D01*
X105415451Y-99033741D01*
X105372852Y-98955689D01*
X105349616Y-98840016D01*
X105345079Y-98706552D01*
X105358576Y-98575128D01*
X105389442Y-98465575D01*
X105436756Y-98397909D01*
X105491512Y-98377997D01*
X105595214Y-98364813D01*
X105753155Y-98357883D01*
X105900069Y-98356500D01*
X106306750Y-98356500D01*
X106529000Y-98356500D01*
X106529000Y-98127169D01*
X105965438Y-98140104D01*
X105965438Y-98140104D01*
G37*
X105965438Y-98140104D02*
X105710666Y-98148651D01*
X105512352Y-98164388D01*
X105363501Y-98192105D01*
X105257115Y-98236592D01*
X105186199Y-98302640D01*
X105143756Y-98395039D01*
X105122790Y-98518579D01*
X105116305Y-98678050D01*
X105116125Y-98721625D01*
X105121704Y-98901184D01*
X105143355Y-99038730D01*
X105188452Y-99140071D01*
X105264368Y-99211017D01*
X105378478Y-99257375D01*
X105538154Y-99284954D01*
X105750769Y-99299562D01*
X105854313Y-99303132D01*
X106306750Y-99316061D01*
X106306750Y-100039250D01*
X106529000Y-100039250D01*
X106529000Y-98356500D01*
X106306750Y-98356500D01*
X106306750Y-99091669D01*
X105879622Y-99081272D01*
X105684292Y-99073715D01*
X105537776Y-99062020D01*
X105445445Y-99046738D01*
X105415451Y-99033741D01*
X105372852Y-98955689D01*
X105349616Y-98840016D01*
X105345079Y-98706552D01*
X105358576Y-98575128D01*
X105389442Y-98465575D01*
X105436756Y-98397909D01*
X105491512Y-98377997D01*
X105595214Y-98364813D01*
X105753155Y-98357883D01*
X105900069Y-98356500D01*
X106306750Y-98356500D01*
X106529000Y-98356500D01*
X106529000Y-98127169D01*
X105965438Y-98140104D01*
G36*
X102741113Y-99029662D02*
X102656189Y-99257432D01*
X102577704Y-99467775D01*
X102508603Y-99652811D01*
X102451831Y-99804658D01*
X102410334Y-99915434D01*
X102387057Y-99977259D01*
X102383821Y-99985717D01*
X102377137Y-100021152D01*
X102403433Y-100035601D01*
X102476356Y-100034793D01*
X102497232Y-100033342D01*
X102572998Y-100025160D01*
X102619809Y-100004740D01*
X102653118Y-99957269D01*
X102688377Y-99867932D01*
X102698064Y-99840812D01*
X102763062Y-99658250D01*
X103697959Y-99658250D01*
X103758635Y-99840812D01*
X103794143Y-99941781D01*
X103825144Y-99997289D01*
X103866663Y-100022299D01*
X103933725Y-100031772D01*
X103951781Y-100033138D01*
X104032645Y-100033702D01*
X104078450Y-100023523D01*
X104082450Y-100017263D01*
X104071399Y-99982165D01*
X104040956Y-99894963D01*
X103993803Y-99763091D01*
X103932624Y-99593985D01*
X103872127Y-99428062D01*
X103600966Y-99428062D01*
X103591836Y-99445502D01*
X103545143Y-99457351D01*
X103453364Y-99464405D01*
X103308976Y-99467464D01*
X103227000Y-99467750D01*
X103057396Y-99466211D01*
X102943690Y-99461059D01*
X102878341Y-99451492D01*
X102853809Y-99436708D01*
X102854106Y-99428062D01*
X102869660Y-99385611D01*
X102902686Y-99294831D01*
X102949051Y-99167103D01*
X103004621Y-99013810D01*
X103035701Y-98928000D01*
X103094700Y-98767341D01*
X103147462Y-98627910D01*
X103189732Y-98520637D01*
X103217248Y-98456452D01*
X103224407Y-98443629D01*
X103237437Y-98453173D01*
X103262002Y-98501121D01*
X103299510Y-98591156D01*
X103351370Y-98726959D01*
X103418991Y-98912215D01*
X103503781Y-99150606D01*
X103600966Y-99428062D01*
X103872127Y-99428062D01*
X103860100Y-99395079D01*
X103778914Y-99173809D01*
X103740990Y-99070875D01*
X103401330Y-98150125D01*
X103075982Y-98131199D01*
X102741113Y-99029662D01*
X102741113Y-99029662D01*
G37*
X102741113Y-99029662D02*
X102656189Y-99257432D01*
X102577704Y-99467775D01*
X102508603Y-99652811D01*
X102451831Y-99804658D01*
X102410334Y-99915434D01*
X102387057Y-99977259D01*
X102383821Y-99985717D01*
X102377137Y-100021152D01*
X102403433Y-100035601D01*
X102476356Y-100034793D01*
X102497232Y-100033342D01*
X102572998Y-100025160D01*
X102619809Y-100004740D01*
X102653118Y-99957269D01*
X102688377Y-99867932D01*
X102698064Y-99840812D01*
X102763062Y-99658250D01*
X103697959Y-99658250D01*
X103758635Y-99840812D01*
X103794143Y-99941781D01*
X103825144Y-99997289D01*
X103866663Y-100022299D01*
X103933725Y-100031772D01*
X103951781Y-100033138D01*
X104032645Y-100033702D01*
X104078450Y-100023523D01*
X104082450Y-100017263D01*
X104071399Y-99982165D01*
X104040956Y-99894963D01*
X103993803Y-99763091D01*
X103932624Y-99593985D01*
X103872127Y-99428062D01*
X103600966Y-99428062D01*
X103591836Y-99445502D01*
X103545143Y-99457351D01*
X103453364Y-99464405D01*
X103308976Y-99467464D01*
X103227000Y-99467750D01*
X103057396Y-99466211D01*
X102943690Y-99461059D01*
X102878341Y-99451492D01*
X102853809Y-99436708D01*
X102854106Y-99428062D01*
X102869660Y-99385611D01*
X102902686Y-99294831D01*
X102949051Y-99167103D01*
X103004621Y-99013810D01*
X103035701Y-98928000D01*
X103094700Y-98767341D01*
X103147462Y-98627910D01*
X103189732Y-98520637D01*
X103217248Y-98456452D01*
X103224407Y-98443629D01*
X103237437Y-98453173D01*
X103262002Y-98501121D01*
X103299510Y-98591156D01*
X103351370Y-98726959D01*
X103418991Y-98912215D01*
X103503781Y-99150606D01*
X103600966Y-99428062D01*
X103872127Y-99428062D01*
X103860100Y-99395079D01*
X103778914Y-99173809D01*
X103740990Y-99070875D01*
X103401330Y-98150125D01*
X103075982Y-98131199D01*
X102741113Y-99029662D01*
G36*
X97448500Y-98356500D02*
X98432750Y-98356500D01*
X98432750Y-98959750D01*
X97512000Y-98959750D01*
X97512000Y-99182000D01*
X98432750Y-99182000D01*
X98432750Y-99848750D01*
X97448500Y-99848750D01*
X97448500Y-100039250D01*
X98686750Y-100039250D01*
X98686750Y-98134250D01*
X97448500Y-98134250D01*
X97448500Y-98356500D01*
X97448500Y-98356500D01*
G37*
X97448500Y-98356500D02*
X98432750Y-98356500D01*
X98432750Y-98959750D01*
X97512000Y-98959750D01*
X97512000Y-99182000D01*
X98432750Y-99182000D01*
X98432750Y-99848750D01*
X97448500Y-99848750D01*
X97448500Y-100039250D01*
X98686750Y-100039250D01*
X98686750Y-98134250D01*
X97448500Y-98134250D01*
X97448500Y-98356500D01*
G36*
X105668591Y-96618187D02*
X105179625Y-97419875D01*
X105171143Y-96618187D01*
X105162660Y-95816500D01*
X104909750Y-95816500D01*
X104909750Y-97721500D01*
X105282669Y-97721500D01*
X105786772Y-96898544D01*
X106290875Y-96075589D01*
X106299340Y-96898544D01*
X106307805Y-97721500D01*
X106529000Y-97721500D01*
X106529000Y-95816500D01*
X106343278Y-95816500D01*
X106157556Y-95816499D01*
X105668591Y-96618187D01*
X105668591Y-96618187D01*
G37*
X105668591Y-96618187D02*
X105179625Y-97419875D01*
X105171143Y-96618187D01*
X105162660Y-95816500D01*
X104909750Y-95816500D01*
X104909750Y-97721500D01*
X105282669Y-97721500D01*
X105786772Y-96898544D01*
X106290875Y-96075589D01*
X106299340Y-96898544D01*
X106307805Y-97721500D01*
X106529000Y-97721500D01*
X106529000Y-95816500D01*
X106343278Y-95816500D01*
X106157556Y-95816499D01*
X105668591Y-96618187D01*
G36*
X103766750Y-97721500D02*
X104020750Y-97721500D01*
X104020750Y-95816500D01*
X103766750Y-95816500D01*
X103766750Y-97721500D01*
X103766750Y-97721500D01*
G37*
X103766750Y-97721500D02*
X104020750Y-97721500D01*
X104020750Y-95816500D01*
X103766750Y-95816500D01*
X103766750Y-97721500D01*
G36*
X102540792Y-96623402D02*
X102465893Y-96835508D01*
X102397353Y-97025644D01*
X102338012Y-97186249D01*
X102290708Y-97309763D01*
X102258282Y-97388626D01*
X102243574Y-97415276D01*
X102243410Y-97415166D01*
X102229284Y-97382287D01*
X102197320Y-97297459D01*
X102150429Y-97168744D01*
X102091522Y-97004207D01*
X102023512Y-96811912D01*
X101954979Y-96616201D01*
X101681763Y-95832375D01*
X101549507Y-95822611D01*
X101468156Y-95819036D01*
X101421548Y-95821694D01*
X101417250Y-95824257D01*
X101427383Y-95856230D01*
X101455665Y-95939034D01*
X101498923Y-96063685D01*
X101553985Y-96221202D01*
X101617678Y-96402602D01*
X101686829Y-96598901D01*
X101758264Y-96801119D01*
X101828812Y-97000271D01*
X101895298Y-97187376D01*
X101954551Y-97353451D01*
X102003397Y-97489513D01*
X102038663Y-97586580D01*
X102056574Y-97634187D01*
X102085087Y-97687485D01*
X102127984Y-97713241D01*
X102206158Y-97721152D01*
X102244729Y-97721500D01*
X102337452Y-97716423D01*
X102400512Y-97703519D01*
X102414219Y-97694857D01*
X102430148Y-97656719D01*
X102463495Y-97568239D01*
X102511069Y-97438430D01*
X102569683Y-97276301D01*
X102636146Y-97090866D01*
X102707271Y-96891135D01*
X102779867Y-96686120D01*
X102850745Y-96484832D01*
X102916717Y-96296284D01*
X102974594Y-96129487D01*
X103021185Y-95993451D01*
X103053303Y-95897190D01*
X103067757Y-95849713D01*
X103068250Y-95846746D01*
X103040145Y-95827532D01*
X102970213Y-95817115D01*
X102945604Y-95816500D01*
X102822958Y-95816500D01*
X102540792Y-96623402D01*
X102540792Y-96623402D01*
G37*
X102540792Y-96623402D02*
X102465893Y-96835508D01*
X102397353Y-97025644D01*
X102338012Y-97186249D01*
X102290708Y-97309763D01*
X102258282Y-97388626D01*
X102243574Y-97415276D01*
X102243410Y-97415166D01*
X102229284Y-97382287D01*
X102197320Y-97297459D01*
X102150429Y-97168744D01*
X102091522Y-97004207D01*
X102023512Y-96811912D01*
X101954979Y-96616201D01*
X101681763Y-95832375D01*
X101549507Y-95822611D01*
X101468156Y-95819036D01*
X101421548Y-95821694D01*
X101417250Y-95824257D01*
X101427383Y-95856230D01*
X101455665Y-95939034D01*
X101498923Y-96063685D01*
X101553985Y-96221202D01*
X101617678Y-96402602D01*
X101686829Y-96598901D01*
X101758264Y-96801119D01*
X101828812Y-97000271D01*
X101895298Y-97187376D01*
X101954551Y-97353451D01*
X102003397Y-97489513D01*
X102038663Y-97586580D01*
X102056574Y-97634187D01*
X102085087Y-97687485D01*
X102127984Y-97713241D01*
X102206158Y-97721152D01*
X102244729Y-97721500D01*
X102337452Y-97716423D01*
X102400512Y-97703519D01*
X102414219Y-97694857D01*
X102430148Y-97656719D01*
X102463495Y-97568239D01*
X102511069Y-97438430D01*
X102569683Y-97276301D01*
X102636146Y-97090866D01*
X102707271Y-96891135D01*
X102779867Y-96686120D01*
X102850745Y-96484832D01*
X102916717Y-96296284D01*
X102974594Y-96129487D01*
X103021185Y-95993451D01*
X103053303Y-95897190D01*
X103067757Y-95849713D01*
X103068250Y-95846746D01*
X103040145Y-95827532D01*
X102970213Y-95817115D01*
X102945604Y-95816500D01*
X102822958Y-95816500D01*
X102540792Y-96623402D01*
G36*
X99575750Y-96038750D02*
X100560000Y-96038750D01*
X100560000Y-96642000D01*
X99607500Y-96642000D01*
X99607500Y-96832500D01*
X100560000Y-96832500D01*
X100560000Y-97499250D01*
X99575750Y-97499250D01*
X99575750Y-97721500D01*
X100814000Y-97721500D01*
X100814000Y-95816500D01*
X99575750Y-95816500D01*
X99575750Y-96038750D01*
X99575750Y-96038750D01*
G37*
X99575750Y-96038750D02*
X100560000Y-96038750D01*
X100560000Y-96642000D01*
X99607500Y-96642000D01*
X99607500Y-96832500D01*
X100560000Y-96832500D01*
X100560000Y-97499250D01*
X99575750Y-97499250D01*
X99575750Y-97721500D01*
X100814000Y-97721500D01*
X100814000Y-95816500D01*
X99575750Y-95816500D01*
X99575750Y-96038750D01*
G36*
X97959815Y-95819686D02*
X97749304Y-95831913D01*
X97588875Y-95857183D01*
X97471921Y-95899500D01*
X97391833Y-95962864D01*
X97342002Y-96051279D01*
X97315820Y-96168748D01*
X97306679Y-96319273D01*
X97306273Y-96374160D01*
X97317699Y-96563253D01*
X97353287Y-96698920D01*
X97415487Y-96787407D01*
X97484169Y-96827736D01*
X97524984Y-96846847D01*
X97515799Y-96866565D01*
X97467962Y-96894080D01*
X97405226Y-96944606D01*
X97361927Y-97024025D01*
X97335445Y-97141832D01*
X97323158Y-97307523D01*
X97321500Y-97424612D01*
X97321500Y-97721500D01*
X97575500Y-97721500D01*
X97575500Y-97418431D01*
X97576793Y-97275077D01*
X97582754Y-97179931D01*
X97596506Y-97117724D01*
X97621174Y-97073183D01*
X97653432Y-97037431D01*
X97689148Y-97005028D01*
X97727966Y-96983121D01*
X97782399Y-96969662D01*
X97864958Y-96962605D01*
X97988153Y-96959903D01*
X98129682Y-96959500D01*
X98528000Y-96959500D01*
X98528000Y-97721500D01*
X98782000Y-97721500D01*
X98782000Y-96737250D01*
X98528000Y-96737250D01*
X98113807Y-96737250D01*
X97943899Y-96736663D01*
X97825313Y-96733617D01*
X97745871Y-96726185D01*
X97693397Y-96712437D01*
X97655714Y-96690445D01*
X97621682Y-96659318D01*
X97577365Y-96605181D01*
X97553674Y-96541728D01*
X97544638Y-96447535D01*
X97543750Y-96379636D01*
X97550425Y-96256872D01*
X97568148Y-96160872D01*
X97585320Y-96121037D01*
X97651417Y-96073203D01*
X97771463Y-96038844D01*
X97948147Y-96017480D01*
X98184161Y-96008634D01*
X98218438Y-96008382D01*
X98528000Y-96007000D01*
X98528000Y-96737250D01*
X98782000Y-96737250D01*
X98782000Y-95816500D01*
X98227018Y-95816500D01*
X97959815Y-95819686D01*
X97959815Y-95819686D01*
G37*
X97959815Y-95819686D02*
X97749304Y-95831913D01*
X97588875Y-95857183D01*
X97471921Y-95899500D01*
X97391833Y-95962864D01*
X97342002Y-96051279D01*
X97315820Y-96168748D01*
X97306679Y-96319273D01*
X97306273Y-96374160D01*
X97317699Y-96563253D01*
X97353287Y-96698920D01*
X97415487Y-96787407D01*
X97484169Y-96827736D01*
X97524984Y-96846847D01*
X97515799Y-96866565D01*
X97467962Y-96894080D01*
X97405226Y-96944606D01*
X97361927Y-97024025D01*
X97335445Y-97141832D01*
X97323158Y-97307523D01*
X97321500Y-97424612D01*
X97321500Y-97721500D01*
X97575500Y-97721500D01*
X97575500Y-97418431D01*
X97576793Y-97275077D01*
X97582754Y-97179931D01*
X97596506Y-97117724D01*
X97621174Y-97073183D01*
X97653432Y-97037431D01*
X97689148Y-97005028D01*
X97727966Y-96983121D01*
X97782399Y-96969662D01*
X97864958Y-96962605D01*
X97988153Y-96959903D01*
X98129682Y-96959500D01*
X98528000Y-96959500D01*
X98528000Y-97721500D01*
X98782000Y-97721500D01*
X98782000Y-96737250D01*
X98528000Y-96737250D01*
X98113807Y-96737250D01*
X97943899Y-96736663D01*
X97825313Y-96733617D01*
X97745871Y-96726185D01*
X97693397Y-96712437D01*
X97655714Y-96690445D01*
X97621682Y-96659318D01*
X97577365Y-96605181D01*
X97553674Y-96541728D01*
X97544638Y-96447535D01*
X97543750Y-96379636D01*
X97550425Y-96256872D01*
X97568148Y-96160872D01*
X97585320Y-96121037D01*
X97651417Y-96073203D01*
X97771463Y-96038844D01*
X97948147Y-96017480D01*
X98184161Y-96008634D01*
X98218438Y-96008382D01*
X98528000Y-96007000D01*
X98528000Y-96737250D01*
X98782000Y-96737250D01*
X98782000Y-95816500D01*
X98227018Y-95816500D01*
X97959815Y-95819686D01*
G36*
X95621957Y-95810725D02*
X95453504Y-95829331D01*
X95331628Y-95866390D01*
X95248191Y-95926612D01*
X95195053Y-96014707D01*
X95164077Y-96135388D01*
X95154779Y-96205437D01*
X95138551Y-96356250D01*
X95255553Y-96356250D01*
X95329671Y-96351806D01*
X95369033Y-96326919D01*
X95392578Y-96264252D01*
X95402465Y-96221788D01*
X95431434Y-96131188D01*
X95477943Y-96069493D01*
X95552488Y-96032244D01*
X95665567Y-96014982D01*
X95827678Y-96013249D01*
X95888953Y-96015146D01*
X96060508Y-96027106D01*
X96178395Y-96052719D01*
X96252097Y-96098968D01*
X96291095Y-96172838D01*
X96304869Y-96281310D01*
X96305500Y-96321949D01*
X96299107Y-96434117D01*
X96272789Y-96510364D01*
X96215840Y-96559599D01*
X96117554Y-96590733D01*
X95967225Y-96612675D01*
X95954465Y-96614099D01*
X95728388Y-96639784D01*
X95556693Y-96661670D01*
X95430523Y-96681723D01*
X95341022Y-96701913D01*
X95279334Y-96724206D01*
X95236602Y-96750570D01*
X95206209Y-96780354D01*
X95152178Y-96881766D01*
X95119785Y-97025426D01*
X95111389Y-97193079D01*
X95129347Y-97366470D01*
X95130024Y-97370042D01*
X95169345Y-97513748D01*
X95228360Y-97608340D01*
X95317912Y-97667587D01*
X95381573Y-97689394D01*
X95477055Y-97705244D01*
X95614818Y-97714939D01*
X95776898Y-97718662D01*
X95945333Y-97716597D01*
X96102159Y-97708926D01*
X96229414Y-97695832D01*
X96302527Y-97680020D01*
X96417341Y-97614918D01*
X96494779Y-97509273D01*
X96539716Y-97355535D01*
X96547371Y-97300812D01*
X96568243Y-97118250D01*
X96305500Y-97118250D01*
X96305500Y-97241732D01*
X96286120Y-97360417D01*
X96244786Y-97440170D01*
X96214374Y-97472893D01*
X96177850Y-97494395D01*
X96122240Y-97507012D01*
X96034567Y-97513081D01*
X95901854Y-97514939D01*
X95829151Y-97515025D01*
X95673505Y-97514152D01*
X95568379Y-97510077D01*
X95500801Y-97500458D01*
X95457796Y-97482957D01*
X95426391Y-97455233D01*
X95413615Y-97440070D01*
X95374906Y-97357819D01*
X95354149Y-97243899D01*
X95351848Y-97121519D01*
X95368506Y-97013889D01*
X95402893Y-96945892D01*
X95423330Y-96923698D01*
X95439421Y-96908574D01*
X95462678Y-96898367D01*
X95504611Y-96890928D01*
X95576730Y-96884104D01*
X95690546Y-96875744D01*
X95833001Y-96865507D01*
X96060338Y-96842875D01*
X96232091Y-96809136D01*
X96355922Y-96758850D01*
X96439493Y-96686574D01*
X96490468Y-96586865D01*
X96516508Y-96454282D01*
X96522480Y-96375816D01*
X96522258Y-96189280D01*
X96496102Y-96046748D01*
X96437638Y-95942857D01*
X96340494Y-95872244D01*
X96198297Y-95829548D01*
X96004673Y-95809405D01*
X95845125Y-95805860D01*
X95621957Y-95810725D01*
X95621957Y-95810725D01*
G37*
X95621957Y-95810725D02*
X95453504Y-95829331D01*
X95331628Y-95866390D01*
X95248191Y-95926612D01*
X95195053Y-96014707D01*
X95164077Y-96135388D01*
X95154779Y-96205437D01*
X95138551Y-96356250D01*
X95255553Y-96356250D01*
X95329671Y-96351806D01*
X95369033Y-96326919D01*
X95392578Y-96264252D01*
X95402465Y-96221788D01*
X95431434Y-96131188D01*
X95477943Y-96069493D01*
X95552488Y-96032244D01*
X95665567Y-96014982D01*
X95827678Y-96013249D01*
X95888953Y-96015146D01*
X96060508Y-96027106D01*
X96178395Y-96052719D01*
X96252097Y-96098968D01*
X96291095Y-96172838D01*
X96304869Y-96281310D01*
X96305500Y-96321949D01*
X96299107Y-96434117D01*
X96272789Y-96510364D01*
X96215840Y-96559599D01*
X96117554Y-96590733D01*
X95967225Y-96612675D01*
X95954465Y-96614099D01*
X95728388Y-96639784D01*
X95556693Y-96661670D01*
X95430523Y-96681723D01*
X95341022Y-96701913D01*
X95279334Y-96724206D01*
X95236602Y-96750570D01*
X95206209Y-96780354D01*
X95152178Y-96881766D01*
X95119785Y-97025426D01*
X95111389Y-97193079D01*
X95129347Y-97366470D01*
X95130024Y-97370042D01*
X95169345Y-97513748D01*
X95228360Y-97608340D01*
X95317912Y-97667587D01*
X95381573Y-97689394D01*
X95477055Y-97705244D01*
X95614818Y-97714939D01*
X95776898Y-97718662D01*
X95945333Y-97716597D01*
X96102159Y-97708926D01*
X96229414Y-97695832D01*
X96302527Y-97680020D01*
X96417341Y-97614918D01*
X96494779Y-97509273D01*
X96539716Y-97355535D01*
X96547371Y-97300812D01*
X96568243Y-97118250D01*
X96305500Y-97118250D01*
X96305500Y-97241732D01*
X96286120Y-97360417D01*
X96244786Y-97440170D01*
X96214374Y-97472893D01*
X96177850Y-97494395D01*
X96122240Y-97507012D01*
X96034567Y-97513081D01*
X95901854Y-97514939D01*
X95829151Y-97515025D01*
X95673505Y-97514152D01*
X95568379Y-97510077D01*
X95500801Y-97500458D01*
X95457796Y-97482957D01*
X95426391Y-97455233D01*
X95413615Y-97440070D01*
X95374906Y-97357819D01*
X95354149Y-97243899D01*
X95351848Y-97121519D01*
X95368506Y-97013889D01*
X95402893Y-96945892D01*
X95423330Y-96923698D01*
X95439421Y-96908574D01*
X95462678Y-96898367D01*
X95504611Y-96890928D01*
X95576730Y-96884104D01*
X95690546Y-96875744D01*
X95833001Y-96865507D01*
X96060338Y-96842875D01*
X96232091Y-96809136D01*
X96355922Y-96758850D01*
X96439493Y-96686574D01*
X96490468Y-96586865D01*
X96516508Y-96454282D01*
X96522480Y-96375816D01*
X96522258Y-96189280D01*
X96496102Y-96046748D01*
X96437638Y-95942857D01*
X96340494Y-95872244D01*
X96198297Y-95829548D01*
X96004673Y-95809405D01*
X95845125Y-95805860D01*
X95621957Y-95810725D01*
G36*
X94083000Y-97721500D02*
X94337000Y-97721500D01*
X94337000Y-95816500D01*
X94083000Y-95816500D01*
X94083000Y-97721500D01*
X94083000Y-97721500D01*
G37*
X94083000Y-97721500D02*
X94337000Y-97721500D01*
X94337000Y-95816500D01*
X94083000Y-95816500D01*
X94083000Y-97721500D01*
G36*
X91892250Y-96038750D02*
X92495500Y-96038750D01*
X92495500Y-97721500D01*
X92749500Y-97721500D01*
X92749500Y-96038750D01*
X93352750Y-96038750D01*
X93352750Y-95816500D01*
X91892250Y-95816500D01*
X91892250Y-96038750D01*
X91892250Y-96038750D01*
G37*
X91892250Y-96038750D02*
X92495500Y-96038750D01*
X92495500Y-97721500D01*
X92749500Y-97721500D01*
X92749500Y-96038750D01*
X93352750Y-96038750D01*
X93352750Y-95816500D01*
X91892250Y-95816500D01*
X91892250Y-96038750D01*
G36*
X91250347Y-95816477D02*
X91244868Y-95816500D01*
X91103252Y-95816500D01*
X90840877Y-96229250D01*
X90749429Y-96371351D01*
X90669502Y-96492234D01*
X90607340Y-96582716D01*
X90569185Y-96633613D01*
X90560689Y-96641407D01*
X90538460Y-96615713D01*
X90489534Y-96545522D01*
X90420365Y-96440498D01*
X90337404Y-96310305D01*
X90304750Y-96258084D01*
X90216273Y-96117819D01*
X90137179Y-95996023D01*
X90074604Y-95903423D01*
X90035686Y-95850750D01*
X90029284Y-95843986D01*
X89975690Y-95826265D01*
X89888866Y-95821177D01*
X89863191Y-95822497D01*
X89734438Y-95832375D01*
X90098249Y-96388000D01*
X90462059Y-96943625D01*
X90462780Y-97332562D01*
X90463500Y-97721500D01*
X90685750Y-97721500D01*
X90685750Y-96939840D01*
X91006040Y-96434371D01*
X91132481Y-96235321D01*
X91228265Y-96083959D01*
X91295893Y-95973819D01*
X91337863Y-95898434D01*
X91356675Y-95851336D01*
X91354830Y-95826059D01*
X91334828Y-95816135D01*
X91299167Y-95815097D01*
X91250347Y-95816477D01*
X91250347Y-95816477D01*
G37*
X91250347Y-95816477D02*
X91244868Y-95816500D01*
X91103252Y-95816500D01*
X90840877Y-96229250D01*
X90749429Y-96371351D01*
X90669502Y-96492234D01*
X90607340Y-96582716D01*
X90569185Y-96633613D01*
X90560689Y-96641407D01*
X90538460Y-96615713D01*
X90489534Y-96545522D01*
X90420365Y-96440498D01*
X90337404Y-96310305D01*
X90304750Y-96258084D01*
X90216273Y-96117819D01*
X90137179Y-95996023D01*
X90074604Y-95903423D01*
X90035686Y-95850750D01*
X90029284Y-95843986D01*
X89975690Y-95826265D01*
X89888866Y-95821177D01*
X89863191Y-95822497D01*
X89734438Y-95832375D01*
X90098249Y-96388000D01*
X90462059Y-96943625D01*
X90462780Y-97332562D01*
X90463500Y-97721500D01*
X90685750Y-97721500D01*
X90685750Y-96939840D01*
X91006040Y-96434371D01*
X91132481Y-96235321D01*
X91228265Y-96083959D01*
X91295893Y-95973819D01*
X91337863Y-95898434D01*
X91356675Y-95851336D01*
X91354830Y-95826059D01*
X91334828Y-95816135D01*
X91299167Y-95815097D01*
X91250347Y-95816477D01*
G36*
X92202699Y-93485850D02*
X92042633Y-93495928D01*
X91925937Y-93516298D01*
X91842619Y-93549942D01*
X91782687Y-93599846D01*
X91736150Y-93668992D01*
X91725612Y-93689286D01*
X91688852Y-93796832D01*
X91670516Y-93917054D01*
X91670050Y-93935312D01*
X91670000Y-94070250D01*
X91797000Y-94070250D01*
X91878294Y-94067084D01*
X91914417Y-94045951D01*
X91923698Y-93989400D01*
X91924000Y-93949318D01*
X91928984Y-93854608D01*
X91950245Y-93787773D01*
X91997253Y-93743568D01*
X92079474Y-93716750D01*
X92206376Y-93702076D01*
X92384307Y-93694392D01*
X92586552Y-93692199D01*
X92735206Y-93700799D01*
X92839641Y-93722777D01*
X92909234Y-93760717D01*
X92953357Y-93817201D01*
X92969690Y-93855736D01*
X92983386Y-93929530D01*
X92993418Y-94051955D01*
X92999797Y-94208249D01*
X93002534Y-94383650D01*
X93001642Y-94563394D01*
X92997130Y-94732721D01*
X92989012Y-94876866D01*
X92977299Y-94981069D01*
X92968778Y-95017628D01*
X92930503Y-95085070D01*
X92864623Y-95132733D01*
X92762939Y-95162747D01*
X92617252Y-95177240D01*
X92419365Y-95178342D01*
X92356518Y-95176639D01*
X92199862Y-95170062D01*
X92094452Y-95160834D01*
X92028035Y-95146725D01*
X91988359Y-95125509D01*
X91970856Y-95106511D01*
X91942540Y-95041862D01*
X91918370Y-94943460D01*
X91901810Y-94834546D01*
X91896327Y-94738361D01*
X91905386Y-94678147D01*
X91906641Y-94675901D01*
X91947925Y-94659235D01*
X92040817Y-94647492D01*
X92173527Y-94641994D01*
X92211624Y-94641750D01*
X92495500Y-94641750D01*
X92495500Y-94419500D01*
X91661844Y-94419500D01*
X91676335Y-94760812D01*
X91690485Y-94964674D01*
X91715498Y-95114884D01*
X91754998Y-95220878D01*
X91812613Y-95292091D01*
X91891969Y-95337957D01*
X91899223Y-95340761D01*
X91980300Y-95358913D01*
X92107798Y-95373732D01*
X92264697Y-95384609D01*
X92433975Y-95390939D01*
X92598613Y-95392113D01*
X92741590Y-95387525D01*
X92845886Y-95376567D01*
X92854745Y-95374847D01*
X92960454Y-95340488D01*
X93054773Y-95290866D01*
X93061120Y-95286318D01*
X93119575Y-95233404D01*
X93164038Y-95166828D01*
X93196317Y-95077802D01*
X93218225Y-94957538D01*
X93231570Y-94797249D01*
X93238164Y-94588147D01*
X93239696Y-94419500D01*
X93239706Y-94213773D01*
X93237439Y-94060538D01*
X93231902Y-93948797D01*
X93222104Y-93867555D01*
X93207053Y-93805816D01*
X93185757Y-93752584D01*
X93178125Y-93736875D01*
X93123443Y-93646864D01*
X93055724Y-93580241D01*
X92965292Y-93533783D01*
X92842469Y-93504267D01*
X92677580Y-93488469D01*
X92460948Y-93483167D01*
X92416125Y-93483079D01*
X92202699Y-93485850D01*
X92202699Y-93485850D01*
G37*
X92202699Y-93485850D02*
X92042633Y-93495928D01*
X91925937Y-93516298D01*
X91842619Y-93549942D01*
X91782687Y-93599846D01*
X91736150Y-93668992D01*
X91725612Y-93689286D01*
X91688852Y-93796832D01*
X91670516Y-93917054D01*
X91670050Y-93935312D01*
X91670000Y-94070250D01*
X91797000Y-94070250D01*
X91878294Y-94067084D01*
X91914417Y-94045951D01*
X91923698Y-93989400D01*
X91924000Y-93949318D01*
X91928984Y-93854608D01*
X91950245Y-93787773D01*
X91997253Y-93743568D01*
X92079474Y-93716750D01*
X92206376Y-93702076D01*
X92384307Y-93694392D01*
X92586552Y-93692199D01*
X92735206Y-93700799D01*
X92839641Y-93722777D01*
X92909234Y-93760717D01*
X92953357Y-93817201D01*
X92969690Y-93855736D01*
X92983386Y-93929530D01*
X92993418Y-94051955D01*
X92999797Y-94208249D01*
X93002534Y-94383650D01*
X93001642Y-94563394D01*
X92997130Y-94732721D01*
X92989012Y-94876866D01*
X92977299Y-94981069D01*
X92968778Y-95017628D01*
X92930503Y-95085070D01*
X92864623Y-95132733D01*
X92762939Y-95162747D01*
X92617252Y-95177240D01*
X92419365Y-95178342D01*
X92356518Y-95176639D01*
X92199862Y-95170062D01*
X92094452Y-95160834D01*
X92028035Y-95146725D01*
X91988359Y-95125509D01*
X91970856Y-95106511D01*
X91942540Y-95041862D01*
X91918370Y-94943460D01*
X91901810Y-94834546D01*
X91896327Y-94738361D01*
X91905386Y-94678147D01*
X91906641Y-94675901D01*
X91947925Y-94659235D01*
X92040817Y-94647492D01*
X92173527Y-94641994D01*
X92211624Y-94641750D01*
X92495500Y-94641750D01*
X92495500Y-94419500D01*
X91661844Y-94419500D01*
X91676335Y-94760812D01*
X91690485Y-94964674D01*
X91715498Y-95114884D01*
X91754998Y-95220878D01*
X91812613Y-95292091D01*
X91891969Y-95337957D01*
X91899223Y-95340761D01*
X91980300Y-95358913D01*
X92107798Y-95373732D01*
X92264697Y-95384609D01*
X92433975Y-95390939D01*
X92598613Y-95392113D01*
X92741590Y-95387525D01*
X92845886Y-95376567D01*
X92854745Y-95374847D01*
X92960454Y-95340488D01*
X93054773Y-95290866D01*
X93061120Y-95286318D01*
X93119575Y-95233404D01*
X93164038Y-95166828D01*
X93196317Y-95077802D01*
X93218225Y-94957538D01*
X93231570Y-94797249D01*
X93238164Y-94588147D01*
X93239696Y-94419500D01*
X93239706Y-94213773D01*
X93237439Y-94060538D01*
X93231902Y-93948797D01*
X93222104Y-93867555D01*
X93207053Y-93805816D01*
X93185757Y-93752584D01*
X93178125Y-93736875D01*
X93123443Y-93646864D01*
X93055724Y-93580241D01*
X92965292Y-93533783D01*
X92842469Y-93504267D01*
X92677580Y-93488469D01*
X92460948Y-93483167D01*
X92416125Y-93483079D01*
X92202699Y-93485850D01*
G36*
X105344118Y-94410151D02*
X105259875Y-94637904D01*
X105183260Y-94846484D01*
X105116963Y-95028456D01*
X105063672Y-95176385D01*
X105026074Y-95282837D01*
X105006859Y-95340377D01*
X105004917Y-95348187D01*
X105033120Y-95363233D01*
X105103297Y-95371470D01*
X105129355Y-95372000D01*
X105198869Y-95369345D01*
X105241833Y-95351936D01*
X105272616Y-95305604D01*
X105305589Y-95216181D01*
X105314524Y-95189437D01*
X105375339Y-95006875D01*
X106302729Y-94989325D01*
X106372494Y-95180662D01*
X106411904Y-95284065D01*
X106443735Y-95341302D01*
X106481720Y-95366024D01*
X106539594Y-95371880D01*
X106565005Y-95372000D01*
X106642967Y-95366312D01*
X106685246Y-95352162D01*
X106687750Y-95347175D01*
X106677271Y-95312194D01*
X106647610Y-95225106D01*
X106601430Y-95093426D01*
X106541395Y-94924672D01*
X106496799Y-94800500D01*
X106235092Y-94800500D01*
X105858171Y-94800500D01*
X105711941Y-94798377D01*
X105592154Y-94792597D01*
X105511146Y-94784041D01*
X105481251Y-94773591D01*
X105481250Y-94773551D01*
X105491497Y-94736128D01*
X105519887Y-94649364D01*
X105562892Y-94523606D01*
X105616987Y-94369202D01*
X105664562Y-94235676D01*
X105847873Y-93724749D01*
X106041482Y-94262624D01*
X106235092Y-94800500D01*
X106496799Y-94800500D01*
X106470171Y-94726360D01*
X106390420Y-94506005D01*
X106358591Y-94418488D01*
X106029432Y-93514625D01*
X105856417Y-93505276D01*
X105683402Y-93495928D01*
X105344118Y-94410151D01*
X105344118Y-94410151D01*
G37*
X105344118Y-94410151D02*
X105259875Y-94637904D01*
X105183260Y-94846484D01*
X105116963Y-95028456D01*
X105063672Y-95176385D01*
X105026074Y-95282837D01*
X105006859Y-95340377D01*
X105004917Y-95348187D01*
X105033120Y-95363233D01*
X105103297Y-95371470D01*
X105129355Y-95372000D01*
X105198869Y-95369345D01*
X105241833Y-95351936D01*
X105272616Y-95305604D01*
X105305589Y-95216181D01*
X105314524Y-95189437D01*
X105375339Y-95006875D01*
X106302729Y-94989325D01*
X106372494Y-95180662D01*
X106411904Y-95284065D01*
X106443735Y-95341302D01*
X106481720Y-95366024D01*
X106539594Y-95371880D01*
X106565005Y-95372000D01*
X106642967Y-95366312D01*
X106685246Y-95352162D01*
X106687750Y-95347175D01*
X106677271Y-95312194D01*
X106647610Y-95225106D01*
X106601430Y-95093426D01*
X106541395Y-94924672D01*
X106496799Y-94800500D01*
X106235092Y-94800500D01*
X105858171Y-94800500D01*
X105711941Y-94798377D01*
X105592154Y-94792597D01*
X105511146Y-94784041D01*
X105481251Y-94773591D01*
X105481250Y-94773551D01*
X105491497Y-94736128D01*
X105519887Y-94649364D01*
X105562892Y-94523606D01*
X105616987Y-94369202D01*
X105664562Y-94235676D01*
X105847873Y-93724749D01*
X106041482Y-94262624D01*
X106235092Y-94800500D01*
X106496799Y-94800500D01*
X106470171Y-94726360D01*
X106390420Y-94506005D01*
X106358591Y-94418488D01*
X106029432Y-93514625D01*
X105856417Y-93505276D01*
X105683402Y-93495928D01*
X105344118Y-94410151D01*
G36*
X102179250Y-95372000D02*
X102432160Y-95372000D01*
X102440643Y-94579708D01*
X102449125Y-93787416D01*
X102771683Y-94571770D01*
X103094240Y-95356125D01*
X103361656Y-95356125D01*
X103683266Y-94578250D01*
X104004875Y-93800375D01*
X104013368Y-94586187D01*
X104021860Y-95372000D01*
X104274750Y-95372000D01*
X104274750Y-93498750D01*
X103868351Y-93498750D01*
X103759212Y-93760687D01*
X103708449Y-93883206D01*
X103640985Y-94047012D01*
X103564024Y-94234567D01*
X103484768Y-94428330D01*
X103446474Y-94522197D01*
X103378401Y-94686465D01*
X103317568Y-94828074D01*
X103268278Y-94937415D01*
X103234833Y-95004883D01*
X103222505Y-95022259D01*
X103199616Y-94996147D01*
X103183030Y-94951312D01*
X103165783Y-94902266D01*
X103127892Y-94803886D01*
X103073064Y-94665482D01*
X103005005Y-94496365D01*
X102927421Y-94305846D01*
X102882833Y-94197250D01*
X102601739Y-93514625D01*
X102390495Y-93505236D01*
X102179250Y-93495848D01*
X102179250Y-95372000D01*
X102179250Y-95372000D01*
G37*
X102179250Y-95372000D02*
X102432160Y-95372000D01*
X102440643Y-94579708D01*
X102449125Y-93787416D01*
X102771683Y-94571770D01*
X103094240Y-95356125D01*
X103361656Y-95356125D01*
X103683266Y-94578250D01*
X104004875Y-93800375D01*
X104013368Y-94586187D01*
X104021860Y-95372000D01*
X104274750Y-95372000D01*
X104274750Y-93498750D01*
X103868351Y-93498750D01*
X103759212Y-93760687D01*
X103708449Y-93883206D01*
X103640985Y-94047012D01*
X103564024Y-94234567D01*
X103484768Y-94428330D01*
X103446474Y-94522197D01*
X103378401Y-94686465D01*
X103317568Y-94828074D01*
X103268278Y-94937415D01*
X103234833Y-95004883D01*
X103222505Y-95022259D01*
X103199616Y-94996147D01*
X103183030Y-94951312D01*
X103165783Y-94902266D01*
X103127892Y-94803886D01*
X103073064Y-94665482D01*
X103005005Y-94496365D01*
X102927421Y-94305846D01*
X102882833Y-94197250D01*
X102601739Y-93514625D01*
X102390495Y-93505236D01*
X102179250Y-93495848D01*
X102179250Y-95372000D01*
G36*
X100494339Y-93500445D02*
X100310322Y-93506927D01*
X100173365Y-93520286D01*
X100075276Y-93542614D01*
X100007862Y-93576002D01*
X99962932Y-93622542D01*
X99932294Y-93684324D01*
X99924978Y-93705192D01*
X99898132Y-93839714D01*
X99895128Y-93989916D01*
X99913795Y-94134739D01*
X99951963Y-94253123D01*
X99987005Y-94306782D01*
X100062005Y-94386616D01*
X99979926Y-94451179D01*
X99890758Y-94561274D01*
X99842888Y-94717072D01*
X99837286Y-94915226D01*
X99839066Y-94936989D01*
X99874892Y-95116370D01*
X99946929Y-95246801D01*
X100055061Y-95331844D01*
X100118298Y-95348479D01*
X100235921Y-95360498D01*
X100410701Y-95368069D01*
X100645414Y-95371360D01*
X100710813Y-95371531D01*
X101290250Y-95372000D01*
X101290250Y-95181500D01*
X101068000Y-95181500D01*
X100691738Y-95181500D01*
X100533344Y-95178633D01*
X100389341Y-95170855D01*
X100276761Y-95159396D01*
X100217112Y-95147210D01*
X100129675Y-95091671D01*
X100083268Y-95005412D01*
X100064720Y-94898308D01*
X100067850Y-94776845D01*
X100089613Y-94664453D01*
X100126967Y-94584561D01*
X100139650Y-94571335D01*
X100196387Y-94550932D01*
X100312638Y-94535274D01*
X100489872Y-94524203D01*
X100628323Y-94519642D01*
X101068000Y-94508660D01*
X101068000Y-95181500D01*
X101290250Y-95181500D01*
X101290250Y-94292500D01*
X101068000Y-94292500D01*
X100694938Y-94292066D01*
X100540896Y-94290350D01*
X100404914Y-94286020D01*
X100302662Y-94279751D01*
X100252435Y-94273010D01*
X100186472Y-94225498D01*
X100141114Y-94136040D01*
X100119309Y-94023686D01*
X100124007Y-93907486D01*
X100158158Y-93806491D01*
X100176123Y-93780079D01*
X100204636Y-93749346D01*
X100239563Y-93727968D01*
X100292610Y-93713847D01*
X100375480Y-93704884D01*
X100499876Y-93698980D01*
X100652373Y-93694664D01*
X101068000Y-93684203D01*
X101068000Y-94292500D01*
X101290250Y-94292500D01*
X101290250Y-93498750D01*
X100733606Y-93498750D01*
X100494339Y-93500445D01*
X100494339Y-93500445D01*
G37*
X100494339Y-93500445D02*
X100310322Y-93506927D01*
X100173365Y-93520286D01*
X100075276Y-93542614D01*
X100007862Y-93576002D01*
X99962932Y-93622542D01*
X99932294Y-93684324D01*
X99924978Y-93705192D01*
X99898132Y-93839714D01*
X99895128Y-93989916D01*
X99913795Y-94134739D01*
X99951963Y-94253123D01*
X99987005Y-94306782D01*
X100062005Y-94386616D01*
X99979926Y-94451179D01*
X99890758Y-94561274D01*
X99842888Y-94717072D01*
X99837286Y-94915226D01*
X99839066Y-94936989D01*
X99874892Y-95116370D01*
X99946929Y-95246801D01*
X100055061Y-95331844D01*
X100118298Y-95348479D01*
X100235921Y-95360498D01*
X100410701Y-95368069D01*
X100645414Y-95371360D01*
X100710813Y-95371531D01*
X101290250Y-95372000D01*
X101290250Y-95181500D01*
X101068000Y-95181500D01*
X100691738Y-95181500D01*
X100533344Y-95178633D01*
X100389341Y-95170855D01*
X100276761Y-95159396D01*
X100217112Y-95147210D01*
X100129675Y-95091671D01*
X100083268Y-95005412D01*
X100064720Y-94898308D01*
X100067850Y-94776845D01*
X100089613Y-94664453D01*
X100126967Y-94584561D01*
X100139650Y-94571335D01*
X100196387Y-94550932D01*
X100312638Y-94535274D01*
X100489872Y-94524203D01*
X100628323Y-94519642D01*
X101068000Y-94508660D01*
X101068000Y-95181500D01*
X101290250Y-95181500D01*
X101290250Y-94292500D01*
X101068000Y-94292500D01*
X100694938Y-94292066D01*
X100540896Y-94290350D01*
X100404914Y-94286020D01*
X100302662Y-94279751D01*
X100252435Y-94273010D01*
X100186472Y-94225498D01*
X100141114Y-94136040D01*
X100119309Y-94023686D01*
X100124007Y-93907486D01*
X100158158Y-93806491D01*
X100176123Y-93780079D01*
X100204636Y-93749346D01*
X100239563Y-93727968D01*
X100292610Y-93713847D01*
X100375480Y-93704884D01*
X100499876Y-93698980D01*
X100652373Y-93694664D01*
X101068000Y-93684203D01*
X101068000Y-94292500D01*
X101290250Y-94292500D01*
X101290250Y-93498750D01*
X100733606Y-93498750D01*
X100494339Y-93500445D01*
G36*
X98424813Y-93499218D02*
X98198810Y-93500423D01*
X98026736Y-93504970D01*
X97899038Y-93514876D01*
X97806158Y-93532157D01*
X97738540Y-93558829D01*
X97686629Y-93596911D01*
X97640869Y-93648417D01*
X97626186Y-93667765D01*
X97594090Y-93720154D01*
X97574124Y-93782705D01*
X97563604Y-93871293D01*
X97559842Y-94001794D01*
X97559625Y-94061207D01*
X97560365Y-94202293D01*
X97565122Y-94294843D01*
X97577706Y-94353823D01*
X97601928Y-94394196D01*
X97641598Y-94430927D01*
X97656912Y-94443337D01*
X97754199Y-94521666D01*
X97664850Y-94611016D01*
X97625056Y-94653718D01*
X97599266Y-94695831D01*
X97584448Y-94751786D01*
X97577569Y-94836015D01*
X97575596Y-94962950D01*
X97575500Y-95036182D01*
X97575500Y-95372000D01*
X97797750Y-95372000D01*
X97797750Y-95138612D01*
X97809263Y-94930897D01*
X97843710Y-94781359D01*
X97900956Y-94690493D01*
X97926003Y-94672829D01*
X97978992Y-94660904D01*
X98081042Y-94651097D01*
X98217727Y-94644387D01*
X98374618Y-94641756D01*
X98383038Y-94641750D01*
X98782000Y-94641750D01*
X98782000Y-95372000D01*
X99004250Y-95372000D01*
X99004250Y-93689250D01*
X98782000Y-93689250D01*
X98782000Y-94424419D01*
X98354167Y-94414022D01*
X98178803Y-94408882D01*
X98055309Y-94402226D01*
X97972054Y-94392239D01*
X97917409Y-94377105D01*
X97879743Y-94355009D01*
X97859645Y-94336846D01*
X97800898Y-94238040D01*
X97774053Y-94102430D01*
X97781957Y-93949673D01*
X97794981Y-93890036D01*
X97822279Y-93816377D01*
X97864768Y-93762908D01*
X97931820Y-93726547D01*
X98032813Y-93704212D01*
X98177120Y-93692821D01*
X98374118Y-93689292D01*
X98405738Y-93689250D01*
X98782000Y-93689250D01*
X99004250Y-93689250D01*
X99004250Y-93498750D01*
X98424813Y-93499218D01*
X98424813Y-93499218D01*
G37*
X98424813Y-93499218D02*
X98198810Y-93500423D01*
X98026736Y-93504970D01*
X97899038Y-93514876D01*
X97806158Y-93532157D01*
X97738540Y-93558829D01*
X97686629Y-93596911D01*
X97640869Y-93648417D01*
X97626186Y-93667765D01*
X97594090Y-93720154D01*
X97574124Y-93782705D01*
X97563604Y-93871293D01*
X97559842Y-94001794D01*
X97559625Y-94061207D01*
X97560365Y-94202293D01*
X97565122Y-94294843D01*
X97577706Y-94353823D01*
X97601928Y-94394196D01*
X97641598Y-94430927D01*
X97656912Y-94443337D01*
X97754199Y-94521666D01*
X97664850Y-94611016D01*
X97625056Y-94653718D01*
X97599266Y-94695831D01*
X97584448Y-94751786D01*
X97577569Y-94836015D01*
X97575596Y-94962950D01*
X97575500Y-95036182D01*
X97575500Y-95372000D01*
X97797750Y-95372000D01*
X97797750Y-95138612D01*
X97809263Y-94930897D01*
X97843710Y-94781359D01*
X97900956Y-94690493D01*
X97926003Y-94672829D01*
X97978992Y-94660904D01*
X98081042Y-94651097D01*
X98217727Y-94644387D01*
X98374618Y-94641756D01*
X98383038Y-94641750D01*
X98782000Y-94641750D01*
X98782000Y-95372000D01*
X99004250Y-95372000D01*
X99004250Y-93689250D01*
X98782000Y-93689250D01*
X98782000Y-94424419D01*
X98354167Y-94414022D01*
X98178803Y-94408882D01*
X98055309Y-94402226D01*
X97972054Y-94392239D01*
X97917409Y-94377105D01*
X97879743Y-94355009D01*
X97859645Y-94336846D01*
X97800898Y-94238040D01*
X97774053Y-94102430D01*
X97781957Y-93949673D01*
X97794981Y-93890036D01*
X97822279Y-93816377D01*
X97864768Y-93762908D01*
X97931820Y-93726547D01*
X98032813Y-93704212D01*
X98177120Y-93692821D01*
X98374118Y-93689292D01*
X98405738Y-93689250D01*
X98782000Y-93689250D01*
X99004250Y-93689250D01*
X99004250Y-93498750D01*
X98424813Y-93499218D01*
G36*
X96464250Y-95372000D02*
X96686500Y-95372000D01*
X96686500Y-93498750D01*
X96464250Y-93498750D01*
X96464250Y-95372000D01*
X96464250Y-95372000D01*
G37*
X96464250Y-95372000D02*
X96686500Y-95372000D01*
X96686500Y-93498750D01*
X96464250Y-93498750D01*
X96464250Y-95372000D01*
G36*
X94786218Y-93499263D02*
X94630441Y-93501521D01*
X94516381Y-93506600D01*
X94433151Y-93515578D01*
X94369861Y-93529531D01*
X94315621Y-93549536D01*
X94272290Y-93570187D01*
X94183528Y-93621563D01*
X94116445Y-93680429D01*
X94068111Y-93756052D01*
X94035593Y-93857701D01*
X94015961Y-93994642D01*
X94006283Y-94176143D01*
X94003627Y-94411471D01*
X94003625Y-94419500D01*
X94004159Y-94615609D01*
X94006691Y-94760252D01*
X94012621Y-94865455D01*
X94023347Y-94943250D01*
X94040268Y-95005664D01*
X94064784Y-95064728D01*
X94083000Y-95102125D01*
X94129502Y-95187471D01*
X94178651Y-95252708D01*
X94239359Y-95300515D01*
X94320536Y-95333574D01*
X94431092Y-95354564D01*
X94579939Y-95366166D01*
X94775986Y-95371061D01*
X94979938Y-95371950D01*
X95575250Y-95372000D01*
X95575250Y-95181500D01*
X95321250Y-95181500D01*
X94948188Y-95179707D01*
X94788665Y-95175766D01*
X94641829Y-95166452D01*
X94525511Y-95153228D01*
X94464000Y-95140020D01*
X94379046Y-95098726D01*
X94315950Y-95035313D01*
X94271979Y-94941454D01*
X94244398Y-94808826D01*
X94230473Y-94629103D01*
X94227359Y-94419500D01*
X94232134Y-94185677D01*
X94249786Y-94007601D01*
X94287560Y-93877768D01*
X94352699Y-93788676D01*
X94452447Y-93732820D01*
X94594047Y-93702698D01*
X94784743Y-93690807D01*
X94932313Y-93689299D01*
X95321250Y-93689250D01*
X95321250Y-95181500D01*
X95575250Y-95181500D01*
X95575250Y-93498750D01*
X94994603Y-93498750D01*
X94786218Y-93499263D01*
X94786218Y-93499263D01*
G37*
X94786218Y-93499263D02*
X94630441Y-93501521D01*
X94516381Y-93506600D01*
X94433151Y-93515578D01*
X94369861Y-93529531D01*
X94315621Y-93549536D01*
X94272290Y-93570187D01*
X94183528Y-93621563D01*
X94116445Y-93680429D01*
X94068111Y-93756052D01*
X94035593Y-93857701D01*
X94015961Y-93994642D01*
X94006283Y-94176143D01*
X94003627Y-94411471D01*
X94003625Y-94419500D01*
X94004159Y-94615609D01*
X94006691Y-94760252D01*
X94012621Y-94865455D01*
X94023347Y-94943250D01*
X94040268Y-95005664D01*
X94064784Y-95064728D01*
X94083000Y-95102125D01*
X94129502Y-95187471D01*
X94178651Y-95252708D01*
X94239359Y-95300515D01*
X94320536Y-95333574D01*
X94431092Y-95354564D01*
X94579939Y-95366166D01*
X94775986Y-95371061D01*
X94979938Y-95371950D01*
X95575250Y-95372000D01*
X95575250Y-95181500D01*
X95321250Y-95181500D01*
X94948188Y-95179707D01*
X94788665Y-95175766D01*
X94641829Y-95166452D01*
X94525511Y-95153228D01*
X94464000Y-95140020D01*
X94379046Y-95098726D01*
X94315950Y-95035313D01*
X94271979Y-94941454D01*
X94244398Y-94808826D01*
X94230473Y-94629103D01*
X94227359Y-94419500D01*
X94232134Y-94185677D01*
X94249786Y-94007601D01*
X94287560Y-93877768D01*
X94352699Y-93788676D01*
X94452447Y-93732820D01*
X94594047Y-93702698D01*
X94784743Y-93690807D01*
X94932313Y-93689299D01*
X95321250Y-93689250D01*
X95321250Y-95181500D01*
X95575250Y-95181500D01*
X95575250Y-93498750D01*
X94994603Y-93498750D01*
X94786218Y-93499263D01*
G36*
X89733250Y-93689250D02*
X90717500Y-93689250D01*
X90717500Y-94292500D01*
X89765000Y-94292500D01*
X89765000Y-94514750D01*
X90717500Y-94514750D01*
X90717500Y-95181500D01*
X89733250Y-95181500D01*
X89733250Y-95372000D01*
X90939750Y-95372000D01*
X90939750Y-93498750D01*
X89733250Y-93498750D01*
X89733250Y-93689250D01*
X89733250Y-93689250D01*
G37*
X89733250Y-93689250D02*
X90717500Y-93689250D01*
X90717500Y-94292500D01*
X89765000Y-94292500D01*
X89765000Y-94514750D01*
X90717500Y-94514750D01*
X90717500Y-95181500D01*
X89733250Y-95181500D01*
X89733250Y-95372000D01*
X90939750Y-95372000D01*
X90939750Y-93498750D01*
X89733250Y-93498750D01*
X89733250Y-93689250D01*
D11*
X113550000Y-106465000D02*
X114315000Y-106465000D01*
X114315000Y-106465000D02*
X114315000Y-108245000D01*
X114315000Y-108245000D02*
X115685000Y-108245000D01*
X115685000Y-108245000D02*
X115685000Y-106465000D01*
X115685000Y-106465000D02*
X116450000Y-106465000D01*
X116450000Y-106465000D02*
X116450000Y-106165000D01*
X116450000Y-93835000D02*
X116450000Y-93535000D01*
X116450000Y-93535000D02*
X115685000Y-93535000D01*
X115685000Y-93535000D02*
X115685000Y-91755000D01*
X115685000Y-91755000D02*
X114315000Y-91755000D01*
X114315000Y-91755000D02*
X114315000Y-93535000D01*
X114315000Y-93535000D02*
X113550000Y-93535000D01*
X83550000Y-106465000D02*
X84315000Y-106465000D01*
X84315000Y-106465000D02*
X84315000Y-108245000D01*
X84315000Y-108245000D02*
X85685000Y-108245000D01*
X85685000Y-108245000D02*
X85685000Y-106465000D01*
X85685000Y-106465000D02*
X86450000Y-106465000D01*
X86450000Y-106465000D02*
X86450000Y-106165000D01*
X86450000Y-93835000D02*
X86450000Y-93535000D01*
X86450000Y-93535000D02*
X85685000Y-93535000D01*
X85685000Y-93535000D02*
X85685000Y-91755000D01*
X85685000Y-91755000D02*
X84315000Y-91755000D01*
X84315000Y-91755000D02*
X84315000Y-93535000D01*
X84315000Y-93535000D02*
X83550000Y-93535000D01*
X103290000Y-85950000D02*
X103290000Y-85185000D01*
X103290000Y-85185000D02*
X105070000Y-85185000D01*
X105070000Y-85185000D02*
X105070000Y-83815000D01*
X105070000Y-83815000D02*
X103290000Y-83815000D01*
X103290000Y-83815000D02*
X103290000Y-83050000D01*
X103290000Y-83050000D02*
X102990000Y-83050000D01*
X97010000Y-83050000D02*
X96710000Y-83050000D01*
X96710000Y-83050000D02*
X96710000Y-83815000D01*
X96710000Y-83815000D02*
X94930000Y-83815000D01*
X94930000Y-83815000D02*
X94930000Y-85185000D01*
X94930000Y-85185000D02*
X96710000Y-85185000D01*
X96710000Y-85185000D02*
X96710000Y-85950000D01*
%LPC*%
D12*
X113635000Y-94285000D03*
X116365000Y-94285000D03*
X113635000Y-95555000D03*
X116365000Y-95555000D03*
X113635000Y-96825000D03*
X116365000Y-96825000D03*
X113635000Y-98095000D03*
X116365000Y-98095000D03*
X113635000Y-99365000D03*
X116365000Y-99365000D03*
X113635000Y-100635000D03*
X116365000Y-100635000D03*
X113635000Y-101905000D03*
X116365000Y-101905000D03*
X113635000Y-103175000D03*
X116365000Y-103175000D03*
X113635000Y-104445000D03*
X116365000Y-104445000D03*
X113635000Y-105715000D03*
X116365000Y-105715000D03*
D13*
X115000000Y-107305000D03*
X115000000Y-92695000D03*
D12*
X83635000Y-94285000D03*
X86365000Y-94285000D03*
X83635000Y-95555000D03*
X86365000Y-95555000D03*
X83635000Y-96825000D03*
X86365000Y-96825000D03*
X83635000Y-98095000D03*
X86365000Y-98095000D03*
X83635000Y-99365000D03*
X86365000Y-99365000D03*
X83635000Y-100635000D03*
X86365000Y-100635000D03*
X83635000Y-101905000D03*
X86365000Y-101905000D03*
X83635000Y-103175000D03*
X86365000Y-103175000D03*
X83635000Y-104445000D03*
X86365000Y-104445000D03*
X83635000Y-105715000D03*
X86365000Y-105715000D03*
D13*
X85000000Y-107305000D03*
X85000000Y-92695000D03*
D14*
X97460000Y-85865000D03*
X97460000Y-83135000D03*
X98730000Y-85865000D03*
X98730000Y-83135000D03*
X100000000Y-85865000D03*
X100000000Y-83135000D03*
X101270000Y-85865000D03*
X101270000Y-83135000D03*
X102540000Y-85865000D03*
X102540000Y-83135000D03*
D13*
X104130000Y-84500000D03*
X95870000Y-84500000D03*
M02*
