G04 #@! TF.GenerationSoftware,KiCad,Pcbnew,no-vcs-found-d3b382c~59~ubuntu16.04.1*
G04 #@! TF.CreationDate,2017-07-27T00:58:26+01:00*
G04 #@! TF.ProjectId,DCDC-5V,444344432D35562E6B696361645F7063,1*
G04 #@! TF.SameCoordinates,Original
G04 #@! TF.FileFunction,Legend,Top*
G04 #@! TF.FilePolarity,Positive*
%FSLAX46Y46*%
G04 Gerber Fmt 4.6, Leading zero omitted, Abs format (unit mm)*
G04 Created by KiCad (PCBNEW no-vcs-found-d3b382c~59~ubuntu16.04.1) date Thu Jul 27 00:58:26 2017*
%MOMM*%
%LPD*%
G01*
G04 APERTURE LIST*
%ADD10C,0.250000*%
%ADD11C,0.150000*%
%ADD12R,0.702000X0.702000*%
%ADD13R,0.250000X0.700000*%
%ADD14R,0.700000X0.250000*%
%ADD15R,0.620000X0.620000*%
%ADD16R,3.400000X0.980000*%
%ADD17R,0.740000X2.920000*%
%ADD18C,1.200000*%
%ADD19R,2.920000X0.740000*%
%ADD20R,0.400000X0.850000*%
%ADD21R,0.400000X0.455000*%
%ADD22R,1.050000X1.100000*%
%ADD23R,1.000000X0.950000*%
%ADD24R,1.450000X1.150000*%
%ADD25R,1.150000X1.450000*%
%ADD26C,0.620000*%
%ADD27C,0.100000*%
%ADD28R,1.702000X1.702000*%
%ADD29R,0.250000X0.600000*%
%ADD30R,0.600000X0.250000*%
%ADD31R,0.500000X1.600000*%
%ADD32R,0.300000X0.250000*%
%ADD33R,1.100000X0.670000*%
%ADD34R,0.620000X0.200000*%
%ADD35C,1.000000*%
G04 APERTURE END LIST*
D10*
X114501300Y-89477326D02*
X115194120Y-89077326D01*
X114996172Y-89191611D02*
X115123717Y-89183956D01*
X115201776Y-89204871D01*
X115308406Y-89275274D01*
X115365549Y-89374249D01*
X115187014Y-90665018D02*
X114844157Y-90071172D01*
X115015586Y-90368095D02*
X116054816Y-89768095D01*
X115849212Y-89754835D01*
X115693095Y-89713003D01*
X115586465Y-89642600D01*
X107063544Y-113150364D02*
X107492115Y-113892671D01*
X107528342Y-114069704D01*
X107486511Y-114225822D01*
X107366621Y-114361023D01*
X107267646Y-114418166D01*
X107459441Y-112921793D02*
X108306877Y-113818166D01*
X108076254Y-112961573D01*
X108702774Y-113589594D01*
X108350210Y-112407507D01*
X103543380Y-117681833D02*
X103564296Y-117603775D01*
X103634699Y-117497145D01*
X103882134Y-117354287D01*
X104009680Y-117346632D01*
X104087739Y-117367547D01*
X104194369Y-117437950D01*
X104251512Y-117536925D01*
X104287739Y-117713958D01*
X104036750Y-118650661D01*
X104680083Y-118279232D01*
X104723416Y-116868573D02*
X104822391Y-116811430D01*
X104949936Y-116803775D01*
X105027995Y-116824690D01*
X105134625Y-116895093D01*
X105298398Y-117064470D01*
X105441255Y-117311906D01*
X105506054Y-117538426D01*
X105513709Y-117665972D01*
X105492794Y-117744031D01*
X105422391Y-117850661D01*
X105323416Y-117907804D01*
X105195871Y-117915459D01*
X105117812Y-117894544D01*
X105011182Y-117824141D01*
X104847409Y-117654763D01*
X104704552Y-117407328D01*
X104639753Y-117180807D01*
X104632098Y-117053262D01*
X104653013Y-116975203D01*
X104723416Y-116868573D01*
X106659570Y-117136375D02*
X106065724Y-117479232D01*
X106362647Y-117307804D02*
X105762647Y-116268573D01*
X105749387Y-116474177D01*
X105707555Y-116630295D01*
X105637152Y-116736925D01*
X106405980Y-115897145D02*
X107098800Y-115497145D01*
X107253416Y-116793518D01*
X107866126Y-115911906D02*
X108657921Y-115454763D01*
X108979313Y-114411430D02*
X109078287Y-114354287D01*
X109205833Y-114346632D01*
X109283891Y-114367547D01*
X109390521Y-114437950D01*
X109554294Y-114607328D01*
X109697151Y-114854763D01*
X109761950Y-115081283D01*
X109769606Y-115208829D01*
X109748690Y-115286888D01*
X109678287Y-115393518D01*
X109579313Y-115450661D01*
X109451767Y-115458316D01*
X109373708Y-115437401D01*
X109267078Y-115366998D01*
X109103305Y-115197621D01*
X108960448Y-114950185D01*
X108895650Y-114723665D01*
X108887994Y-114596119D01*
X108908910Y-114518060D01*
X108979313Y-114411430D01*
X109672133Y-114011430D02*
X110364953Y-113611430D01*
X110519569Y-114907804D01*
X111132279Y-114026192D02*
X111924074Y-113569049D01*
X112055173Y-112767547D02*
X112076088Y-112689489D01*
X112146491Y-112582859D01*
X112393927Y-112440002D01*
X112521473Y-112432346D01*
X112599531Y-112453262D01*
X112706161Y-112523665D01*
X112763304Y-112622639D01*
X112799531Y-112799672D01*
X112548543Y-113736375D01*
X113191876Y-113364946D01*
X113482645Y-111811430D02*
X113284696Y-111925716D01*
X113214293Y-112032346D01*
X113193377Y-112110405D01*
X113180117Y-112316009D01*
X113244916Y-112542529D01*
X113473487Y-112938426D01*
X113580117Y-113008829D01*
X113658176Y-113029745D01*
X113785722Y-113022089D01*
X113983670Y-112907804D01*
X114054073Y-112801174D01*
X114074989Y-112723115D01*
X114067333Y-112595569D01*
X113924476Y-112348133D01*
X113817846Y-112277730D01*
X113739788Y-112256815D01*
X113612242Y-112264470D01*
X113414293Y-112378756D01*
X113343890Y-112485386D01*
X113322974Y-112563445D01*
X113330630Y-112690991D01*
X106340943Y-83271737D02*
X106940943Y-82232507D01*
X106858782Y-83174814D01*
X107633764Y-82632507D01*
X107033764Y-83671737D01*
X108029661Y-82861078D02*
X108672994Y-83232507D01*
X108098013Y-83428404D01*
X108246474Y-83514118D01*
X108316877Y-83620748D01*
X108337793Y-83698807D01*
X108330137Y-83826353D01*
X108187280Y-84073789D01*
X108080650Y-84144192D01*
X108002591Y-84165107D01*
X107875046Y-84157452D01*
X107578123Y-83986023D01*
X107507720Y-83879393D01*
X107486804Y-83801334D01*
X108518379Y-84528880D02*
X109118379Y-83489650D01*
X109514276Y-83718221D01*
X109584679Y-83824851D01*
X109605595Y-83902910D01*
X109597939Y-84030455D01*
X109512225Y-84178917D01*
X109405595Y-84249320D01*
X109327536Y-84270236D01*
X109199990Y-84262580D01*
X108804093Y-84034008D01*
X109536693Y-85050822D02*
X109656583Y-85186023D01*
X109904019Y-85328880D01*
X110031565Y-85336536D01*
X110109624Y-85315620D01*
X110216254Y-85245217D01*
X110273397Y-85146243D01*
X110281052Y-85018697D01*
X110260137Y-84940639D01*
X110189734Y-84834008D01*
X110020356Y-84670236D01*
X109949953Y-84563606D01*
X109929038Y-84485547D01*
X109936693Y-84358001D01*
X109993836Y-84259027D01*
X110100466Y-84188624D01*
X110178525Y-84167708D01*
X110306071Y-84175364D01*
X110553506Y-84318221D01*
X110673397Y-84453423D01*
X111147352Y-84661078D02*
X110661638Y-85502360D01*
X110653983Y-85629906D01*
X110674898Y-85707964D01*
X110745301Y-85814594D01*
X110943250Y-85928880D01*
X111070796Y-85936536D01*
X111148854Y-85915620D01*
X111255484Y-85845217D01*
X111741198Y-85003935D01*
X105984020Y-85432804D02*
X106584020Y-84393573D01*
X106831456Y-84536430D01*
X106951346Y-84671632D01*
X106993177Y-84827749D01*
X106985522Y-84955295D01*
X106920723Y-85181815D01*
X106835009Y-85330276D01*
X106671236Y-85499653D01*
X106564606Y-85570056D01*
X106408489Y-85611888D01*
X106231456Y-85575661D01*
X105984020Y-85432804D01*
X107674239Y-86276686D02*
X107596181Y-86297602D01*
X107419148Y-86261375D01*
X107320174Y-86204232D01*
X107200284Y-86069031D01*
X107158452Y-85912914D01*
X107166108Y-85785368D01*
X107230906Y-85558848D01*
X107316621Y-85410386D01*
X107480393Y-85241009D01*
X107587023Y-85170606D01*
X107743141Y-85128775D01*
X107920174Y-85165002D01*
X108019148Y-85222145D01*
X108139038Y-85357346D01*
X108159954Y-85435405D01*
X109157353Y-85879287D02*
X108662481Y-85593573D01*
X108327280Y-86059873D01*
X108405338Y-86038958D01*
X108532884Y-86046613D01*
X108780320Y-86189470D01*
X108850723Y-86296100D01*
X108871638Y-86374159D01*
X108863983Y-86501705D01*
X108721126Y-86749141D01*
X108614496Y-86819544D01*
X108536437Y-86840459D01*
X108408891Y-86832804D01*
X108161455Y-86689946D01*
X108091053Y-86583316D01*
X108070137Y-86505258D01*
X109503763Y-86079287D02*
X109250173Y-87318518D01*
X110196583Y-86479287D01*
D11*
X93745000Y-110455000D02*
X93745000Y-110105000D01*
X94095000Y-110455000D02*
X93745000Y-110455000D01*
X102745000Y-110455000D02*
X102745000Y-110105000D01*
X102395000Y-110455000D02*
X102745000Y-110455000D01*
X102745000Y-101455000D02*
X102745000Y-101805000D01*
X102395000Y-101455000D02*
X102745000Y-101455000D01*
X93745000Y-101805000D02*
X94095000Y-101455000D01*
X88325000Y-91870000D02*
X88325000Y-90880000D01*
X88325000Y-90880000D02*
X92175000Y-90880000D01*
X92175000Y-90880000D02*
X92175000Y-91870000D01*
X92175000Y-91870000D02*
X88325000Y-91870000D01*
X96810000Y-81715000D02*
X95310000Y-81715000D01*
X95310000Y-81715000D02*
X95310000Y-87285000D01*
X95310000Y-87285000D02*
X96810000Y-87285000D01*
X103190000Y-87285000D02*
X104690000Y-85785000D01*
X104690000Y-85785000D02*
X104690000Y-83215000D01*
X104690000Y-83215000D02*
X103190000Y-81715000D01*
X117785000Y-93635000D02*
X117785000Y-92135000D01*
X117785000Y-92135000D02*
X112215000Y-92135000D01*
X112215000Y-92135000D02*
X112215000Y-93635000D01*
X112215000Y-106365000D02*
X113715000Y-107865000D01*
X113715000Y-107865000D02*
X116285000Y-107865000D01*
X116285000Y-107865000D02*
X117785000Y-106365000D01*
X87785000Y-93635000D02*
X87785000Y-92135000D01*
X87785000Y-92135000D02*
X82215000Y-92135000D01*
X82215000Y-92135000D02*
X82215000Y-93635000D01*
X82215000Y-106365000D02*
X83715000Y-107865000D01*
X83715000Y-107865000D02*
X86285000Y-107865000D01*
X86285000Y-107865000D02*
X87785000Y-106365000D01*
X111174868Y-106215000D02*
G75*
G03X111174868Y-106215000I-94868J0D01*
G01*
X110975000Y-106025000D02*
X111050000Y-106025000D01*
X111050000Y-108025000D02*
X110975000Y-108025000D01*
X109125000Y-108025000D02*
X109050000Y-108025000D01*
X109050000Y-106025000D02*
X109125000Y-106025000D01*
X109050000Y-108025000D02*
X109050000Y-106025000D01*
X111050000Y-106025000D02*
X111050000Y-108025000D01*
X107925000Y-107025000D02*
X108575000Y-107025000D01*
X107925000Y-107275000D02*
X107925000Y-107025000D01*
X108575000Y-107275000D02*
X107925000Y-107275000D01*
X108575000Y-107025000D02*
X108575000Y-107275000D01*
X107925000Y-102200000D02*
X108575000Y-102200000D01*
X107925000Y-102450000D02*
X107925000Y-102200000D01*
X108575000Y-102450000D02*
X107925000Y-102450000D01*
X108575000Y-102200000D02*
X108575000Y-102450000D01*
X108575000Y-97375000D02*
X108575000Y-97625000D01*
X108575000Y-97625000D02*
X107925000Y-97625000D01*
X107925000Y-97625000D02*
X107925000Y-97375000D01*
X107925000Y-97375000D02*
X108575000Y-97375000D01*
X108575000Y-92550000D02*
X108575000Y-92800000D01*
X108575000Y-92800000D02*
X107925000Y-92800000D01*
X107925000Y-92800000D02*
X107925000Y-92550000D01*
X107925000Y-92550000D02*
X108575000Y-92550000D01*
X111174868Y-101394000D02*
G75*
G03X111174868Y-101394000I-94868J0D01*
G01*
X110975000Y-101204000D02*
X111050000Y-101204000D01*
X111050000Y-103204000D02*
X110975000Y-103204000D01*
X109125000Y-103204000D02*
X109050000Y-103204000D01*
X109050000Y-101204000D02*
X109125000Y-101204000D01*
X109050000Y-103204000D02*
X109050000Y-101204000D01*
X111050000Y-101204000D02*
X111050000Y-103204000D01*
X111050000Y-96379000D02*
X111050000Y-98379000D01*
X109050000Y-98379000D02*
X109050000Y-96379000D01*
X109050000Y-96379000D02*
X109125000Y-96379000D01*
X109125000Y-98379000D02*
X109050000Y-98379000D01*
X111050000Y-98379000D02*
X110975000Y-98379000D01*
X110975000Y-96379000D02*
X111050000Y-96379000D01*
X111174868Y-96569000D02*
G75*
G03X111174868Y-96569000I-94868J0D01*
G01*
X111174868Y-91740000D02*
G75*
G03X111174868Y-91740000I-94868J0D01*
G01*
X110975000Y-91550000D02*
X111050000Y-91550000D01*
X111050000Y-93550000D02*
X110975000Y-93550000D01*
X109125000Y-93550000D02*
X109050000Y-93550000D01*
X109050000Y-91550000D02*
X109125000Y-91550000D01*
X109050000Y-93550000D02*
X109050000Y-91550000D01*
X111050000Y-91550000D02*
X111050000Y-93550000D01*
X98025000Y-90400000D02*
X96925000Y-90400000D01*
X98025000Y-90150000D02*
X98025000Y-90400000D01*
X96925000Y-90150000D02*
X98025000Y-90150000D01*
X96925000Y-90400000D02*
X96925000Y-90150000D01*
X91750000Y-87750000D02*
X92000000Y-87750000D01*
X92000000Y-87750000D02*
X92000000Y-88850000D01*
X92000000Y-88850000D02*
X91750000Y-88850000D01*
X91750000Y-88850000D02*
X91750000Y-87750000D01*
X91250000Y-114200000D02*
X91500000Y-114200000D01*
X91500000Y-114200000D02*
X91500000Y-115300000D01*
X91500000Y-115300000D02*
X91250000Y-115300000D01*
X91250000Y-115300000D02*
X91250000Y-114200000D01*
X93075000Y-112000000D02*
X93075000Y-113100000D01*
X92825000Y-112000000D02*
X93075000Y-112000000D01*
X92825000Y-113100000D02*
X92825000Y-112000000D01*
X93075000Y-113100000D02*
X92825000Y-113100000D01*
X93100000Y-93575000D02*
X93100000Y-93225000D01*
X93450000Y-93575000D02*
X93100000Y-93575000D01*
X96100000Y-93575000D02*
X96100000Y-93225000D01*
X95750000Y-93575000D02*
X96100000Y-93575000D01*
X96100000Y-90575000D02*
X96100000Y-90925000D01*
X95750000Y-90575000D02*
X96100000Y-90575000D01*
X93100000Y-90925000D02*
X93450000Y-90575000D01*
X90174307Y-110525693D02*
X90524307Y-110875693D01*
X90524307Y-113175693D02*
X90524307Y-113525693D01*
X90524307Y-113525693D02*
X90174307Y-113525693D01*
X87524307Y-113175693D02*
X87524307Y-113525693D01*
X87524307Y-113525693D02*
X87874307Y-113525693D01*
X87524307Y-110875693D02*
X87524307Y-110525693D01*
X87524307Y-110525693D02*
X87874307Y-110525693D01*
X89374307Y-109950693D02*
X89374307Y-108500693D01*
X89974307Y-109950693D02*
X89374307Y-109950693D01*
X89974307Y-108500693D02*
X89974307Y-109950693D01*
X89374307Y-108500693D02*
X89974307Y-108500693D01*
X107450000Y-105800000D02*
X107450000Y-105900000D01*
X105850000Y-105900000D02*
X105850000Y-105800000D01*
X105850000Y-104400000D02*
X105850000Y-104300000D01*
X107450000Y-104300000D02*
X107450000Y-104400000D01*
X105850000Y-105900000D02*
X107450000Y-105900000D01*
X105850000Y-104300000D02*
X107450000Y-104300000D01*
X107450000Y-100940000D02*
X107450000Y-101040000D01*
X105850000Y-101040000D02*
X105850000Y-100940000D01*
X105850000Y-99540000D02*
X105850000Y-99440000D01*
X107450000Y-99440000D02*
X107450000Y-99540000D01*
X105850000Y-101040000D02*
X107450000Y-101040000D01*
X105850000Y-99440000D02*
X107450000Y-99440000D01*
X105850000Y-94640000D02*
X107450000Y-94640000D01*
X105850000Y-96240000D02*
X107450000Y-96240000D01*
X107450000Y-94640000D02*
X107450000Y-94740000D01*
X105850000Y-94740000D02*
X105850000Y-94640000D01*
X105850000Y-96240000D02*
X105850000Y-96140000D01*
X107450000Y-96140000D02*
X107450000Y-96240000D01*
X105850000Y-89800000D02*
X107450000Y-89800000D01*
X105850000Y-91400000D02*
X107450000Y-91400000D01*
X107450000Y-89800000D02*
X107450000Y-89900000D01*
X105850000Y-89900000D02*
X105850000Y-89800000D01*
X105850000Y-91400000D02*
X105850000Y-91300000D01*
X107450000Y-91300000D02*
X107450000Y-91400000D01*
X111475000Y-109625000D02*
X111725000Y-109625000D01*
X111725000Y-109625000D02*
X111725000Y-110725000D01*
X111725000Y-110725000D02*
X111475000Y-110725000D01*
X111475000Y-110725000D02*
X111475000Y-109625000D01*
%LPC*%
D12*
X100845000Y-108555000D03*
X100845000Y-107255000D03*
X100845000Y-105955000D03*
X100845000Y-104655000D03*
X100845000Y-103355000D03*
X99545000Y-108555000D03*
X99545000Y-107255000D03*
X99545000Y-105955000D03*
X99545000Y-104655000D03*
X99545000Y-103355000D03*
X98245000Y-108555000D03*
X98245000Y-107255000D03*
X98245000Y-105955000D03*
X98245000Y-104655000D03*
X98245000Y-103355000D03*
X96945000Y-108555000D03*
X96945000Y-107255000D03*
X96945000Y-105955000D03*
X96945000Y-104655000D03*
X96945000Y-103355000D03*
X95645000Y-108555000D03*
X95645000Y-107255000D03*
X95645000Y-105955000D03*
X95645000Y-104655000D03*
X95645000Y-103355000D03*
D13*
X94495000Y-101555000D03*
X94995000Y-101555000D03*
X95495000Y-101555000D03*
X95995000Y-101555000D03*
X96495000Y-101555000D03*
X96995000Y-101555000D03*
X97495000Y-101555000D03*
X97995000Y-101555000D03*
X98495000Y-101555000D03*
X98995000Y-101555000D03*
X99495000Y-101555000D03*
X99995000Y-101555000D03*
X100495000Y-101555000D03*
X100995000Y-101555000D03*
X101495000Y-101555000D03*
X101995000Y-101555000D03*
D14*
X102645000Y-102205000D03*
X102645000Y-102705000D03*
X102645000Y-103205000D03*
X102645000Y-103705000D03*
X102645000Y-104205000D03*
X102645000Y-104705000D03*
X102645000Y-105205000D03*
X102645000Y-105705000D03*
X102645000Y-106205000D03*
X102645000Y-106705000D03*
X102645000Y-107205000D03*
X102645000Y-107705000D03*
X102645000Y-108205000D03*
X102645000Y-108705000D03*
X102645000Y-109205000D03*
X102645000Y-109705000D03*
D13*
X101995000Y-110355000D03*
X101495000Y-110355000D03*
X100995000Y-110355000D03*
X100495000Y-110355000D03*
X99995000Y-110355000D03*
X99495000Y-110355000D03*
X98995000Y-110355000D03*
X98495000Y-110355000D03*
X97995000Y-110355000D03*
X97495000Y-110355000D03*
X96995000Y-110355000D03*
X96495000Y-110355000D03*
X95995000Y-110355000D03*
X95495000Y-110355000D03*
X94995000Y-110355000D03*
X94495000Y-110355000D03*
D14*
X93845000Y-109705000D03*
X93845000Y-109205000D03*
X93845000Y-108705000D03*
X93845000Y-108205000D03*
X93845000Y-107705000D03*
X93845000Y-107205000D03*
X93845000Y-106705000D03*
X93845000Y-106205000D03*
X93845000Y-105705000D03*
X93845000Y-105205000D03*
X93845000Y-104705000D03*
X93845000Y-104205000D03*
X93845000Y-103705000D03*
X93845000Y-103205000D03*
X93845000Y-102705000D03*
X93845000Y-102205000D03*
D15*
X107100000Y-103850000D03*
X106200000Y-103850000D03*
D16*
X90250000Y-92560000D03*
X90250000Y-90190000D03*
D17*
X97460000Y-86215000D03*
X97460000Y-82785000D03*
X98730000Y-86215000D03*
X98730000Y-82785000D03*
X100000000Y-86215000D03*
X100000000Y-82785000D03*
X101270000Y-86215000D03*
X101270000Y-82785000D03*
X102540000Y-86215000D03*
X102540000Y-82785000D03*
D18*
X115000000Y-107305000D03*
X115000000Y-92695000D03*
D19*
X113285000Y-94285000D03*
X116715000Y-94285000D03*
X113285000Y-95555000D03*
X116715000Y-95555000D03*
X113285000Y-96825000D03*
X116715000Y-96825000D03*
X113285000Y-98095000D03*
X116715000Y-98095000D03*
X113285000Y-99365000D03*
X116715000Y-99365000D03*
X113285000Y-100635000D03*
X116715000Y-100635000D03*
X113285000Y-101905000D03*
X116715000Y-101905000D03*
X113285000Y-103175000D03*
X116715000Y-103175000D03*
X113285000Y-104445000D03*
X116715000Y-104445000D03*
X113285000Y-105715000D03*
X116715000Y-105715000D03*
D18*
X85000000Y-107305000D03*
X85000000Y-92695000D03*
D19*
X83285000Y-94285000D03*
X86715000Y-94285000D03*
X83285000Y-95555000D03*
X86715000Y-95555000D03*
X83285000Y-96825000D03*
X86715000Y-96825000D03*
X83285000Y-98095000D03*
X86715000Y-98095000D03*
X83285000Y-99365000D03*
X86715000Y-99365000D03*
X83285000Y-100635000D03*
X86715000Y-100635000D03*
X83285000Y-101905000D03*
X86715000Y-101905000D03*
X83285000Y-103175000D03*
X86715000Y-103175000D03*
X83285000Y-104445000D03*
X86715000Y-104445000D03*
X83285000Y-105715000D03*
X86715000Y-105715000D03*
D18*
X104130000Y-84500000D03*
X95870000Y-84500000D03*
D15*
X92850000Y-106925000D03*
X92850000Y-107825000D03*
X100975000Y-100400000D03*
X100075000Y-100400000D03*
X92850000Y-109700000D03*
X92850000Y-108800000D03*
X103750000Y-106350000D03*
X103750000Y-107250000D03*
X98700000Y-111575000D03*
X98700000Y-112475000D03*
X103650000Y-109325000D03*
X104550000Y-109325000D03*
X96850000Y-112475000D03*
X96850000Y-111575000D03*
X104550000Y-110275000D03*
X103650000Y-110275000D03*
X95925000Y-112475000D03*
X95925000Y-111575000D03*
X97775000Y-112475000D03*
X97775000Y-111575000D03*
X99625000Y-112475000D03*
X99625000Y-111575000D03*
X109800000Y-104350000D03*
X110700000Y-104350000D03*
X109800000Y-99525000D03*
X110700000Y-99525000D03*
X109800000Y-94700000D03*
X110700000Y-94700000D03*
X109800000Y-89875000D03*
X110700000Y-89875000D03*
X110700000Y-105275000D03*
X109800000Y-105275000D03*
X110700000Y-100450000D03*
X109800000Y-100450000D03*
X110700000Y-95625000D03*
X109800000Y-95625000D03*
X110700000Y-90800000D03*
X109800000Y-90800000D03*
D20*
X109400000Y-107121000D03*
D21*
X109400000Y-107947500D03*
X109400000Y-106102500D03*
X110050000Y-107947500D03*
X110700000Y-107947500D03*
X110700000Y-106102500D03*
D22*
X110375000Y-107025000D03*
D21*
X110050000Y-106102500D03*
D23*
X108250000Y-107950000D03*
X108250000Y-106350000D03*
X108250000Y-103125000D03*
X108250000Y-101525000D03*
X108250000Y-96700000D03*
X108250000Y-98300000D03*
X108250000Y-91875000D03*
X108250000Y-93475000D03*
D20*
X109400000Y-102300000D03*
D21*
X109400000Y-103126500D03*
X109400000Y-101281500D03*
X110050000Y-103126500D03*
X110700000Y-103126500D03*
X110700000Y-101281500D03*
D22*
X110375000Y-102204000D03*
D21*
X110050000Y-101281500D03*
X110050000Y-96456500D03*
D22*
X110375000Y-97379000D03*
D21*
X110700000Y-96456500D03*
X110700000Y-98301500D03*
X110050000Y-98301500D03*
X109400000Y-96456500D03*
X109400000Y-98301500D03*
D20*
X109400000Y-97475000D03*
X109400000Y-92646000D03*
D21*
X109400000Y-93472500D03*
X109400000Y-91627500D03*
X110050000Y-93472500D03*
X110700000Y-93472500D03*
X110700000Y-91627500D03*
D22*
X110375000Y-92550000D03*
D21*
X110050000Y-91627500D03*
D24*
X97475000Y-89375000D03*
X97475000Y-91175000D03*
D15*
X96975000Y-92600000D03*
X97875000Y-92600000D03*
X97875000Y-93800000D03*
X96975000Y-93800000D03*
D25*
X90975000Y-88300000D03*
X92775000Y-88300000D03*
X90475000Y-114750000D03*
X92275000Y-114750000D03*
D15*
X89250000Y-115250000D03*
X89250000Y-114350000D03*
D26*
X86406802Y-113306802D03*
D27*
G36*
X86845208Y-113306802D02*
X86406802Y-113745208D01*
X85968396Y-113306802D01*
X86406802Y-112868396D01*
X86845208Y-113306802D01*
X86845208Y-113306802D01*
G37*
D26*
X87043198Y-113943198D03*
D27*
G36*
X87481604Y-113943198D02*
X87043198Y-114381604D01*
X86604792Y-113943198D01*
X87043198Y-113504792D01*
X87481604Y-113943198D01*
X87481604Y-113943198D01*
G37*
D25*
X92050000Y-112550000D03*
X93850000Y-112550000D03*
D28*
X94600000Y-92075000D03*
D29*
X93850000Y-90675000D03*
X94350000Y-90675000D03*
X94850000Y-90675000D03*
X95350000Y-90675000D03*
D30*
X96000000Y-91325000D03*
X96000000Y-91825000D03*
X96000000Y-92325000D03*
X96000000Y-92825000D03*
D29*
X95350000Y-93475000D03*
X94850000Y-93475000D03*
X94350000Y-93475000D03*
X93850000Y-93475000D03*
D30*
X93200000Y-92825000D03*
X93200000Y-92325000D03*
X93200000Y-91825000D03*
X93200000Y-91325000D03*
D29*
X89774307Y-110625693D03*
X89274307Y-110625693D03*
X88774307Y-110625693D03*
X88274307Y-110625693D03*
D30*
X87624307Y-111275693D03*
X87624307Y-111775693D03*
X87624307Y-112275693D03*
X87624307Y-112775693D03*
D29*
X88274307Y-113425693D03*
X88774307Y-113425693D03*
X89274307Y-113425693D03*
X89774307Y-113425693D03*
D30*
X90424307Y-112775693D03*
X90424307Y-112275693D03*
X90424307Y-111775693D03*
X90424307Y-111275693D03*
D28*
X89024307Y-112025693D03*
D31*
X90424307Y-109225693D03*
X88924307Y-109225693D03*
D15*
X95000000Y-112325000D03*
X95000000Y-111425000D03*
D32*
X107350000Y-104600000D03*
X107350000Y-105100000D03*
X107350000Y-105600000D03*
D33*
X106650000Y-105310000D03*
D34*
X106590000Y-104600000D03*
D32*
X105950000Y-104600000D03*
X105950000Y-105100000D03*
X105950000Y-105600000D03*
X107350000Y-99740000D03*
X107350000Y-100240000D03*
X107350000Y-100740000D03*
D33*
X106650000Y-100450000D03*
D34*
X106590000Y-99740000D03*
D32*
X105950000Y-99740000D03*
X105950000Y-100240000D03*
X105950000Y-100740000D03*
X105950000Y-95940000D03*
X105950000Y-95440000D03*
X105950000Y-94940000D03*
D34*
X106590000Y-94940000D03*
D33*
X106650000Y-95650000D03*
D32*
X107350000Y-95940000D03*
X107350000Y-95440000D03*
X107350000Y-94940000D03*
X105950000Y-91100000D03*
X105950000Y-90600000D03*
X105950000Y-90100000D03*
D34*
X106590000Y-90100000D03*
D33*
X106650000Y-90810000D03*
D32*
X107350000Y-91100000D03*
X107350000Y-90600000D03*
X107350000Y-90100000D03*
D15*
X106200000Y-99000000D03*
X107100000Y-99000000D03*
X107100000Y-94200000D03*
X106200000Y-94200000D03*
X106200000Y-89350000D03*
X107100000Y-89350000D03*
D35*
X100200000Y-91600000D03*
X101700000Y-90350000D03*
X106450000Y-86750000D03*
X112525000Y-90225000D03*
D25*
X110700000Y-110175000D03*
X112500000Y-110175000D03*
M02*
