M48
;DRILL file {KiCad no-vcs-found-d3b382c~59~ubuntu16.04.1} date Thu Jul 27 00:58:28 2017
;FORMAT={-:-/ absolute / inch / decimal}
FMAT,2
INCH,TZ
T1C0.008
T2C0.012
T3C0.016
%
G90
G05
M72
T1
X3.4813Y-4.3868
X3.4813Y-4.4341
X3.5285Y-4.3868
X3.5285Y-4.4341
X3.7008Y-3.6014
X3.7008Y-3.6486
X3.748Y-3.6014
X3.748Y-3.6486
T2
X3.3524Y-4.3967
X3.5571Y-4.1575
X3.5591Y-4.122
X3.56Y-4.0886
X3.624Y-4.2648
X3.6407Y-4.5886
X3.6683Y-3.6831
X3.8307Y-4.4616
X3.8356Y-3.8199
X3.8563Y-4.4843
X3.8789Y-3.6693
X3.8848Y-4.5049
X3.9587Y-4.4291
X3.9783Y-3.8917
X4.0118Y-3.878
X4.0177Y-3.9409
X4.0295Y-3.9055
X4.0315Y-3.7815
X4.063Y-3.6831
X4.0925Y-3.6575
X4.1083Y-3.7283
X4.1161Y-4.3799
X4.1358Y-3.9783
X4.1398Y-3.7008
X4.1693Y-4.2539
X4.1988Y-4.0591
X4.2539Y-4.1004
X4.4783Y-3.5522
T3
X3.2205Y-3.813
X3.2205Y-3.8622
X3.2205Y-3.9114
X3.2205Y-3.9626
X3.2205Y-4.0118
X3.2205Y-4.061
X3.2205Y-4.1122
X3.2213Y-3.7122
X3.2213Y-3.7622
X3.3071Y-4.2008
X3.3937Y-4.4105
X3.4134Y-3.6732
X3.4449Y-4.3514
X3.4717Y-3.7618
X3.4717Y-3.8122
X3.4717Y-3.8622
X3.4717Y-4.1622
X3.4724Y-3.9114
X3.4724Y-3.9626
X3.4724Y-4.0118
X3.4724Y-4.061
X3.4724Y-4.1122
X3.5299Y-4.2132
X3.563Y-4.3602
X3.6575Y-4.6299
X3.6722Y-3.5305
X3.6919Y-4.4803
X3.7362Y-4.4754
X3.7431Y-3.4626
X3.8022Y-3.2736
X3.8366Y-3.4528
X3.8868Y-3.4744
X3.887Y-3.452
X3.9045Y-3.9547
X3.9114Y-3.5728
X3.937Y-3.2016
X3.937Y-3.452
X3.987Y-3.2016
X3.987Y-3.4524
X4.037Y-3.4524
X4.0699Y-3.2598
X4.0945Y-3.498
X4.1319Y-4.1181
X4.1398Y-3.5472
X4.1398Y-3.7382
X4.1417Y-3.8917
X4.1417Y-3.9272
X4.2146Y-4.187
X4.2146Y-4.2647
X4.2283Y-3.6171
X4.2283Y-3.8071
X4.2283Y-3.997
X4.4024Y-3.7618
X4.4024Y-3.8122
X4.4024Y-3.8618
X4.4024Y-3.9118
X4.4024Y-3.9622
X4.4024Y-4.0118
X4.4024Y-4.0622
X4.4024Y-4.1118
X4.4291Y-4.2844
X4.474Y-4.1992
X4.4843Y-3.6732
X4.5945Y-4.2008
X4.6528Y-3.7122
X4.6528Y-3.7622
X4.6528Y-3.8122
X4.6528Y-3.8618
X4.6528Y-3.9118
X4.6528Y-3.9618
X4.6528Y-4.0118
X4.6528Y-4.0622
X4.6528Y-4.1118
X3.7429Y-4.0465
X3.7429Y-4.0965
X3.7429Y-4.1465
X3.7429Y-4.1965
X3.7429Y-4.2465
X3.7429Y-4.2965
X3.7929Y-4.0465
X3.7929Y-4.0965
X3.7929Y-4.1465
X3.7929Y-4.1965
X3.7929Y-4.2465
X3.7929Y-4.2965
X3.8429Y-4.0465
X3.8429Y-4.0965
X3.8429Y-4.1465
X3.8429Y-4.1965
X3.8429Y-4.2465
X3.8429Y-4.2965
X3.8929Y-4.0465
X3.8929Y-4.0965
X3.8929Y-4.1465
X3.8929Y-4.1965
X3.8929Y-4.2465
X3.8929Y-4.2965
X3.9429Y-4.0465
X3.9429Y-4.0965
X3.9429Y-4.1465
X3.9429Y-4.1965
X3.9429Y-4.2465
X3.9429Y-4.2965
X3.9929Y-4.0465
X3.9929Y-4.0965
X3.9929Y-4.1465
X3.9929Y-4.1965
X3.9929Y-4.2465
X3.9929Y-4.2965
T0
M30
