G04 #@! TF.GenerationSoftware,KiCad,Pcbnew,no-vcs-found-d3b382c~59~ubuntu16.04.1*
G04 #@! TF.CreationDate,2017-07-29T16:39:47+01:00*
G04 #@! TF.ProjectId,m3imu,6D33696D752E6B696361645F70636200,1.0*
G04 #@! TF.SameCoordinates,Original
G04 #@! TF.FileFunction,Legend,Bot*
G04 #@! TF.FilePolarity,Positive*
%FSLAX46Y46*%
G04 Gerber Fmt 4.6, Leading zero omitted, Abs format (unit mm)*
G04 Created by KiCad (PCBNEW no-vcs-found-d3b382c~59~ubuntu16.04.1) date Sat Jul 29 16:39:47 2017*
%MOMM*%
%LPD*%
G01*
G04 APERTURE LIST*
%ADD10C,0.200000*%
%ADD11C,0.300000*%
%ADD12C,0.150000*%
%ADD13R,0.700000X1.100000*%
%ADD14R,1.140000X1.830000*%
%ADD15R,0.860000X2.800000*%
%ADD16R,0.700000X3.330000*%
%ADD17R,0.900000X0.930000*%
%ADD18R,1.050000X0.780000*%
%ADD19C,1.000000*%
%ADD20C,1.000000*%
%ADD21R,2.220000X0.740000*%
%ADD22C,1.200000*%
G04 APERTURE END LIST*
D10*
X107905000Y-96330000D02*
X107705000Y-96530000D01*
D11*
X107180000Y-98258571D02*
X106180000Y-98258571D01*
X107180000Y-99758571D01*
X106180000Y-99758571D01*
X109380000Y-94458571D02*
X108380000Y-95958571D01*
X108380000Y-94458571D02*
X109380000Y-95958571D01*
X108680000Y-104569285D02*
X108680000Y-105283571D01*
X109180000Y-103783571D02*
X108680000Y-104569285D01*
X108180000Y-103783571D01*
D10*
X109348580Y-96930000D02*
X108948580Y-96530000D01*
X109348580Y-96930000D02*
X108948580Y-97330000D01*
X109305000Y-96930000D02*
X107305000Y-96930000D01*
X107705000Y-96130000D02*
X107905000Y-96330000D01*
X107905000Y-96330000D02*
G75*
G03X107905000Y-97530000I-200000J-600000D01*
G01*
X106705000Y-96930000D02*
X106305000Y-96930000D01*
X108680000Y-97930000D02*
X108530000Y-98130000D01*
X108680000Y-97930000D02*
X108480000Y-97730000D01*
X108680000Y-97930000D02*
G75*
G03X109680000Y-98930000I0J-1000000D01*
G01*
X108880000Y-98930000D02*
G75*
G03X108880000Y-98930000I-200000J0D01*
G01*
X108680000Y-100730000D02*
X108680000Y-100330000D01*
X109280000Y-101955000D02*
X109080000Y-101755000D01*
X109480000Y-101755000D02*
X109280000Y-101955000D01*
X109280000Y-101930000D02*
G75*
G03X108080000Y-101930000I-600000J200000D01*
G01*
X108680000Y-103373580D02*
X109080000Y-102973580D01*
X108680000Y-103373580D02*
X108280000Y-102973580D01*
X108680000Y-103330000D02*
X108680000Y-101330000D01*
D12*
X100480000Y-90370000D02*
X91780000Y-90370000D01*
X91780000Y-90370000D02*
X91780000Y-87870000D01*
X91780000Y-87870000D02*
X90780000Y-87870000D01*
X90780000Y-87870000D02*
X90780000Y-88270000D01*
X101180000Y-87870000D02*
X100480000Y-90370000D01*
X101180000Y-87870000D02*
X103380000Y-87870000D01*
X103380000Y-87870000D02*
X103380000Y-88270000D01*
X102280000Y-102070000D02*
X103480000Y-102070000D01*
X98080000Y-102070000D02*
X101080000Y-102070000D01*
X91480000Y-102070000D02*
X96780000Y-102070000D01*
X90780000Y-91270000D02*
X90780000Y-98770000D01*
X104280000Y-90270000D02*
X104280000Y-98770000D01*
X113550000Y-106465000D02*
X114315000Y-106465000D01*
X114315000Y-106465000D02*
X114315000Y-108245000D01*
X114315000Y-108245000D02*
X115685000Y-108245000D01*
X115685000Y-108245000D02*
X115685000Y-106465000D01*
X115685000Y-106465000D02*
X116450000Y-106465000D01*
X116450000Y-106465000D02*
X116450000Y-106165000D01*
X116450000Y-93835000D02*
X116450000Y-93535000D01*
X116450000Y-93535000D02*
X115685000Y-93535000D01*
X115685000Y-93535000D02*
X115685000Y-91755000D01*
X115685000Y-91755000D02*
X114315000Y-91755000D01*
X114315000Y-91755000D02*
X114315000Y-93535000D01*
X114315000Y-93535000D02*
X113550000Y-93535000D01*
X83550000Y-106465000D02*
X84315000Y-106465000D01*
X84315000Y-106465000D02*
X84315000Y-108245000D01*
X84315000Y-108245000D02*
X85685000Y-108245000D01*
X85685000Y-108245000D02*
X85685000Y-106465000D01*
X85685000Y-106465000D02*
X86450000Y-106465000D01*
X86450000Y-106465000D02*
X86450000Y-106165000D01*
X86450000Y-93835000D02*
X86450000Y-93535000D01*
X86450000Y-93535000D02*
X85685000Y-93535000D01*
X85685000Y-93535000D02*
X85685000Y-91755000D01*
X85685000Y-91755000D02*
X84315000Y-91755000D01*
X84315000Y-91755000D02*
X84315000Y-93535000D01*
X84315000Y-93535000D02*
X83550000Y-93535000D01*
%LPC*%
D13*
X99880000Y-89270000D03*
X98780000Y-89270000D03*
X97680000Y-89270000D03*
X96580000Y-89270000D03*
X95580000Y-89270000D03*
X94480000Y-89270000D03*
X93380000Y-89270000D03*
X92280000Y-89270000D03*
D14*
X103760000Y-89285000D03*
D15*
X91100000Y-89770000D03*
D16*
X91020000Y-100535000D03*
X103980000Y-100535000D03*
D17*
X101670000Y-101735000D03*
D18*
X97405000Y-101810000D03*
D19*
X109638484Y-110470884D03*
D20*
X109566163Y-110368930D02*
X109710805Y-110572838D01*
D19*
X106008917Y-113045518D03*
D20*
X105936596Y-112943564D02*
X106081238Y-113147472D01*
D19*
X112964677Y-111789572D03*
D20*
X112704321Y-111422537D02*
X113225033Y-112156607D01*
D19*
X106154141Y-116620628D03*
D20*
X105893785Y-116253593D02*
X106414497Y-116987663D01*
D21*
X113635000Y-94285000D03*
X116365000Y-94285000D03*
X113635000Y-95555000D03*
X116365000Y-95555000D03*
X113635000Y-96825000D03*
X116365000Y-96825000D03*
X113635000Y-98095000D03*
X116365000Y-98095000D03*
X113635000Y-99365000D03*
X116365000Y-99365000D03*
X113635000Y-100635000D03*
X116365000Y-100635000D03*
X113635000Y-101905000D03*
X116365000Y-101905000D03*
X113635000Y-103175000D03*
X116365000Y-103175000D03*
X113635000Y-104445000D03*
X116365000Y-104445000D03*
X113635000Y-105715000D03*
X116365000Y-105715000D03*
D22*
X115000000Y-107305000D03*
X115000000Y-92695000D03*
D21*
X83635000Y-94285000D03*
X86365000Y-94285000D03*
X83635000Y-95555000D03*
X86365000Y-95555000D03*
X83635000Y-96825000D03*
X86365000Y-96825000D03*
X83635000Y-98095000D03*
X86365000Y-98095000D03*
X83635000Y-99365000D03*
X86365000Y-99365000D03*
X83635000Y-100635000D03*
X86365000Y-100635000D03*
X83635000Y-101905000D03*
X86365000Y-101905000D03*
X83635000Y-103175000D03*
X86365000Y-103175000D03*
X83635000Y-104445000D03*
X86365000Y-104445000D03*
X83635000Y-105715000D03*
X86365000Y-105715000D03*
D22*
X85000000Y-107305000D03*
X85000000Y-92695000D03*
M02*
