G04 #@! TF.GenerationSoftware,KiCad,Pcbnew,no-vcs-found-d3b382c~59~ubuntu16.04.1*
G04 #@! TF.CreationDate,2017-07-29T16:39:47+01:00*
G04 #@! TF.ProjectId,m3imu,6D33696D752E6B696361645F70636200,1.0*
G04 #@! TF.SameCoordinates,Original
G04 #@! TF.FileFunction,Soldermask,Top*
G04 #@! TF.FilePolarity,Negative*
%FSLAX46Y46*%
G04 Gerber Fmt 4.6, Leading zero omitted, Abs format (unit mm)*
G04 Created by KiCad (PCBNEW no-vcs-found-d3b382c~59~ubuntu16.04.1) date Sat Jul 29 16:39:47 2017*
%MOMM*%
%LPD*%
G01*
G04 APERTURE LIST*
%ADD10R,0.710000X0.300000*%
%ADD11C,0.400000*%
%ADD12C,0.100000*%
%ADD13C,1.000000*%
%ADD14C,1.000000*%
%ADD15C,1.800000*%
%ADD16C,1.575000*%
%ADD17R,1.100000X0.600000*%
%ADD18R,0.620000X0.620000*%
%ADD19R,2.920000X0.740000*%
%ADD20R,0.300000X1.500000*%
%ADD21R,1.500000X0.300000*%
%ADD22R,1.000000X0.950000*%
%ADD23C,1.200000*%
%ADD24R,0.200000X0.400000*%
%ADD25R,0.400000X0.200000*%
%ADD26R,0.650000X0.350000*%
%ADD27R,0.802000X0.802000*%
%ADD28R,0.950000X1.000000*%
%ADD29R,0.850000X0.950000*%
G04 APERTURE END LIST*
D10*
X105621999Y-110990000D03*
X105622000Y-110490000D03*
X105621999Y-109990000D03*
X104182001Y-109990000D03*
X104182000Y-110490000D03*
X104182001Y-110990000D03*
D11*
X108011735Y-112023281D03*
D12*
G36*
X108239143Y-112689547D02*
X107458074Y-111588443D01*
X107784327Y-111357015D01*
X108565396Y-112458119D01*
X108239143Y-112689547D01*
X108239143Y-112689547D01*
G37*
D11*
X108541897Y-111647211D03*
D12*
G36*
X108769305Y-112313477D02*
X107988236Y-111212373D01*
X108314489Y-110980945D01*
X109095558Y-112082049D01*
X108769305Y-112313477D01*
X108769305Y-112313477D01*
G37*
D11*
X107481574Y-112399352D03*
D12*
G36*
X107708982Y-113065618D02*
X106927913Y-111964514D01*
X107254166Y-111733086D01*
X108035235Y-112834190D01*
X107708982Y-113065618D01*
X107708982Y-113065618D01*
G37*
D11*
X106951412Y-112775422D03*
D12*
G36*
X107178820Y-113441688D02*
X106397751Y-112340584D01*
X106724004Y-112109156D01*
X107505073Y-113210260D01*
X107178820Y-113441688D01*
X107178820Y-113441688D01*
G37*
D11*
X109072058Y-111271141D03*
D12*
G36*
X109299466Y-111937407D02*
X108518397Y-110836303D01*
X108844650Y-110604875D01*
X109625719Y-111705979D01*
X109299466Y-111937407D01*
X109299466Y-111937407D01*
G37*
D13*
X109638484Y-110470884D03*
D14*
X109566163Y-110368930D02*
X109710805Y-110572838D01*
D13*
X106008917Y-113045518D03*
D14*
X105936596Y-112943564D02*
X106081238Y-113147472D01*
D15*
X110497387Y-113539745D03*
D12*
G36*
X110312958Y-114835309D02*
X109213676Y-113285606D01*
X110681816Y-112244181D01*
X111781098Y-113793884D01*
X110312958Y-114835309D01*
X110312958Y-114835309D01*
G37*
D15*
X108621431Y-114870455D03*
D12*
G36*
X108437002Y-116166019D02*
X107337720Y-114616316D01*
X108805860Y-113574891D01*
X109905142Y-115124594D01*
X108437002Y-116166019D01*
X108437002Y-116166019D01*
G37*
D16*
X112322366Y-112245195D03*
D12*
G36*
X112229696Y-113475670D02*
X111130414Y-111925967D01*
X112415036Y-111014720D01*
X113514318Y-112564423D01*
X112229696Y-113475670D01*
X112229696Y-113475670D01*
G37*
D13*
X112964677Y-111789572D03*
D14*
X112704321Y-111422537D02*
X113225033Y-112156607D01*
D16*
X106796452Y-116165005D03*
D12*
G36*
X106703782Y-117395480D02*
X105604500Y-115845777D01*
X106889122Y-114934530D01*
X107988404Y-116484233D01*
X106703782Y-117395480D01*
X106703782Y-117395480D01*
G37*
D13*
X106154141Y-116620628D03*
D14*
X105893785Y-116253593D02*
X106414497Y-116987663D01*
D17*
X109150000Y-103575000D03*
X109150000Y-102325000D03*
X109150000Y-101075000D03*
X109150000Y-99825000D03*
X106950000Y-99825000D03*
X106950000Y-101075000D03*
X106950000Y-102325000D03*
X106950000Y-103575000D03*
D18*
X91750000Y-105800000D03*
X91750000Y-106700000D03*
D19*
X83285000Y-94285000D03*
X86715000Y-94285000D03*
X83285000Y-95555000D03*
X86715000Y-95555000D03*
X83285000Y-96825000D03*
X86715000Y-96825000D03*
X83285000Y-98095000D03*
X86715000Y-98095000D03*
X83285000Y-99365000D03*
X86715000Y-99365000D03*
X83285000Y-100635000D03*
X86715000Y-100635000D03*
X83285000Y-101905000D03*
X86715000Y-101905000D03*
X83285000Y-103175000D03*
X86715000Y-103175000D03*
X83285000Y-104445000D03*
X86715000Y-104445000D03*
X83285000Y-105715000D03*
X86715000Y-105715000D03*
D20*
X95250000Y-108200000D03*
X95750000Y-108200000D03*
X96250000Y-108200000D03*
X96750000Y-108200000D03*
X97250000Y-108200000D03*
X97750000Y-108200000D03*
X98250000Y-108200000D03*
X98750000Y-108200000D03*
X99250000Y-108200000D03*
X99750000Y-108200000D03*
X100250000Y-108200000D03*
X100750000Y-108200000D03*
X101250000Y-108200000D03*
X101750000Y-108200000D03*
X102250000Y-108200000D03*
X102750000Y-108200000D03*
D21*
X104700000Y-106250000D03*
X104700000Y-105750000D03*
X104700000Y-105250000D03*
X104700000Y-104750000D03*
X104700000Y-104250000D03*
X104700000Y-103750000D03*
X104700000Y-103250000D03*
X104700000Y-102750000D03*
X104700000Y-102250000D03*
X104700000Y-101750000D03*
X104700000Y-101250000D03*
X104700000Y-100750000D03*
X104700000Y-100250000D03*
X104700000Y-99750000D03*
X104700000Y-99250000D03*
X104700000Y-98750000D03*
D20*
X102750000Y-96800000D03*
X102250000Y-96800000D03*
X101750000Y-96800000D03*
X101250000Y-96800000D03*
X100750000Y-96800000D03*
X100250000Y-96800000D03*
X99750000Y-96800000D03*
X99250000Y-96800000D03*
X98750000Y-96800000D03*
X98250000Y-96800000D03*
X97750000Y-96800000D03*
X97250000Y-96800000D03*
X96750000Y-96800000D03*
X96250000Y-96800000D03*
X95750000Y-96800000D03*
X95250000Y-96800000D03*
D21*
X93300000Y-98750000D03*
X93300000Y-99250000D03*
X93300000Y-99750000D03*
X93300000Y-100250000D03*
X93300000Y-100750000D03*
X93300000Y-101250000D03*
X93300000Y-101750000D03*
X93300000Y-102250000D03*
X93300000Y-102750000D03*
X93300000Y-103250000D03*
X93300000Y-103750000D03*
X93300000Y-104250000D03*
X93300000Y-104750000D03*
X93300000Y-105250000D03*
X93300000Y-105750000D03*
X93300000Y-106250000D03*
D22*
X91310000Y-86770000D03*
X91310000Y-88370000D03*
D23*
X115000000Y-107305000D03*
X115000000Y-92695000D03*
D18*
X97550000Y-116200000D03*
X98450000Y-116200000D03*
D24*
X104000000Y-95200000D03*
X104400000Y-95200000D03*
X104800000Y-95200000D03*
X105200000Y-95200000D03*
X105600000Y-95200000D03*
X106000000Y-95200000D03*
D25*
X106500000Y-94700000D03*
X106500000Y-94300000D03*
X106500000Y-93900000D03*
X106500000Y-93500000D03*
X106500000Y-93100000D03*
X106500000Y-92700000D03*
D24*
X106000000Y-92200000D03*
X105600000Y-92200000D03*
X105200000Y-92200000D03*
X104800000Y-92200000D03*
X104400000Y-92200000D03*
X104000000Y-92200000D03*
D25*
X103500000Y-92700000D03*
X103500000Y-93100000D03*
X103500000Y-93500000D03*
X103500000Y-93900000D03*
X103500000Y-94300000D03*
X103500000Y-94700000D03*
D18*
X108550000Y-92200000D03*
X107650000Y-92200000D03*
D23*
X85000000Y-107305000D03*
X85000000Y-92695000D03*
D26*
X90000000Y-111475000D03*
X90000000Y-110825000D03*
X90000000Y-110175000D03*
X90000000Y-109525000D03*
X86900000Y-109525000D03*
X86900000Y-110175000D03*
X86900000Y-110825000D03*
X86900000Y-111475000D03*
D27*
X88450000Y-111100000D03*
X88450000Y-109900000D03*
D18*
X100991107Y-110065147D03*
X101891107Y-110065147D03*
X100991107Y-111565147D03*
X101891107Y-111565147D03*
X109150000Y-106400000D03*
X108250000Y-106400000D03*
X106050000Y-106400000D03*
X106950000Y-106400000D03*
X107650000Y-93500000D03*
X108550000Y-93500000D03*
X108550000Y-94800000D03*
X107650000Y-94800000D03*
X95250000Y-111850000D03*
X95250000Y-110950000D03*
X97855047Y-113866527D03*
X96955047Y-113866527D03*
X107475000Y-97050000D03*
X106575000Y-97050000D03*
X94700000Y-94225000D03*
X94700000Y-95125000D03*
X96000000Y-95125000D03*
X96000000Y-94225000D03*
X106550000Y-98100000D03*
X107450000Y-98100000D03*
X91250000Y-110150000D03*
X91250000Y-111050000D03*
X108250000Y-105150000D03*
X109150000Y-105150000D03*
D28*
X97200000Y-117600000D03*
X98800000Y-117600000D03*
X102600000Y-117600000D03*
X101000000Y-117600000D03*
D18*
X99705047Y-111816527D03*
X99705047Y-110916527D03*
X102250000Y-116200000D03*
X101350000Y-116200000D03*
D29*
X96705047Y-110616527D03*
X96705047Y-112066527D03*
X97855047Y-112066527D03*
X97855047Y-110616527D03*
D22*
X93425000Y-86750000D03*
X93425000Y-88350000D03*
X100800000Y-86700000D03*
X100800000Y-88300000D03*
X99250000Y-86700000D03*
X99250000Y-88300000D03*
X97700000Y-86700000D03*
X97700000Y-88300000D03*
D18*
X96125000Y-86750000D03*
X95225000Y-86750000D03*
D19*
X113285000Y-94285000D03*
X116715000Y-94285000D03*
X113285000Y-95555000D03*
X116715000Y-95555000D03*
X113285000Y-96825000D03*
X116715000Y-96825000D03*
X113285000Y-98095000D03*
X116715000Y-98095000D03*
X113285000Y-99365000D03*
X116715000Y-99365000D03*
X113285000Y-100635000D03*
X116715000Y-100635000D03*
X113285000Y-101905000D03*
X116715000Y-101905000D03*
X113285000Y-103175000D03*
X116715000Y-103175000D03*
X113285000Y-104445000D03*
X116715000Y-104445000D03*
X113285000Y-105715000D03*
X116715000Y-105715000D03*
M02*
