G04 #@! TF.GenerationSoftware,KiCad,Pcbnew,no-vcs-found-d3b382c~59~ubuntu16.04.1*
G04 #@! TF.CreationDate,2017-07-29T16:39:47+01:00*
G04 #@! TF.ProjectId,m3imu,6D33696D752E6B696361645F70636200,1.0*
G04 #@! TF.SameCoordinates,Original
G04 #@! TF.FileFunction,Copper,L1,Top,Signal*
G04 #@! TF.FilePolarity,Positive*
%FSLAX46Y46*%
G04 Gerber Fmt 4.6, Leading zero omitted, Abs format (unit mm)*
G04 Created by KiCad (PCBNEW no-vcs-found-d3b382c~59~ubuntu16.04.1) date Sat Jul 29 16:39:47 2017*
%MOMM*%
%LPD*%
G01*
G04 APERTURE LIST*
%ADD10R,0.710000X0.300000*%
%ADD11C,0.400000*%
%ADD12C,0.100000*%
%ADD13C,1.000000*%
%ADD14C,1.000000*%
%ADD15C,1.800000*%
%ADD16C,1.575000*%
%ADD17R,1.100000X0.600000*%
%ADD18R,0.620000X0.620000*%
%ADD19R,2.920000X0.740000*%
%ADD20R,0.300000X1.500000*%
%ADD21R,1.500000X0.300000*%
%ADD22R,1.000000X0.950000*%
%ADD23R,0.200000X0.400000*%
%ADD24R,0.400000X0.200000*%
%ADD25R,0.650000X0.350000*%
%ADD26R,0.800000X0.800000*%
%ADD27R,1.550000X2.400000*%
%ADD28R,0.950000X1.000000*%
%ADD29R,0.850000X0.950000*%
%ADD30C,0.800000*%
%ADD31C,0.500000*%
%ADD32C,0.300000*%
%ADD33C,0.200000*%
G04 APERTURE END LIST*
D10*
X105621999Y-110990000D03*
X105622000Y-110490000D03*
X105621999Y-109990000D03*
X104182001Y-109990000D03*
X104182000Y-110490000D03*
X104182001Y-110990000D03*
D11*
X108011735Y-112023281D03*
D12*
G36*
X108239143Y-112689547D02*
X107458074Y-111588443D01*
X107784327Y-111357015D01*
X108565396Y-112458119D01*
X108239143Y-112689547D01*
X108239143Y-112689547D01*
G37*
D11*
X108541897Y-111647211D03*
D12*
G36*
X108769305Y-112313477D02*
X107988236Y-111212373D01*
X108314489Y-110980945D01*
X109095558Y-112082049D01*
X108769305Y-112313477D01*
X108769305Y-112313477D01*
G37*
D11*
X107481574Y-112399352D03*
D12*
G36*
X107708982Y-113065618D02*
X106927913Y-111964514D01*
X107254166Y-111733086D01*
X108035235Y-112834190D01*
X107708982Y-113065618D01*
X107708982Y-113065618D01*
G37*
D11*
X106951412Y-112775422D03*
D12*
G36*
X107178820Y-113441688D02*
X106397751Y-112340584D01*
X106724004Y-112109156D01*
X107505073Y-113210260D01*
X107178820Y-113441688D01*
X107178820Y-113441688D01*
G37*
D11*
X109072058Y-111271141D03*
D12*
G36*
X109299466Y-111937407D02*
X108518397Y-110836303D01*
X108844650Y-110604875D01*
X109625719Y-111705979D01*
X109299466Y-111937407D01*
X109299466Y-111937407D01*
G37*
D13*
X109638484Y-110470884D03*
D14*
X109566163Y-110368930D02*
X109710805Y-110572838D01*
D13*
X106008917Y-113045518D03*
D14*
X105936596Y-112943564D02*
X106081238Y-113147472D01*
D15*
X110497387Y-113539745D03*
D12*
G36*
X110312958Y-114835309D02*
X109213676Y-113285606D01*
X110681816Y-112244181D01*
X111781098Y-113793884D01*
X110312958Y-114835309D01*
X110312958Y-114835309D01*
G37*
D15*
X108621431Y-114870455D03*
D12*
G36*
X108437002Y-116166019D02*
X107337720Y-114616316D01*
X108805860Y-113574891D01*
X109905142Y-115124594D01*
X108437002Y-116166019D01*
X108437002Y-116166019D01*
G37*
D16*
X112322366Y-112245195D03*
D12*
G36*
X112229696Y-113475670D02*
X111130414Y-111925967D01*
X112415036Y-111014720D01*
X113514318Y-112564423D01*
X112229696Y-113475670D01*
X112229696Y-113475670D01*
G37*
D13*
X112964677Y-111789572D03*
D14*
X112704321Y-111422537D02*
X113225033Y-112156607D01*
D16*
X106796452Y-116165005D03*
D12*
G36*
X106703782Y-117395480D02*
X105604500Y-115845777D01*
X106889122Y-114934530D01*
X107988404Y-116484233D01*
X106703782Y-117395480D01*
X106703782Y-117395480D01*
G37*
D13*
X106154141Y-116620628D03*
D14*
X105893785Y-116253593D02*
X106414497Y-116987663D01*
D17*
X109150000Y-103575000D03*
X109150000Y-102325000D03*
X109150000Y-101075000D03*
X109150000Y-99825000D03*
X106950000Y-99825000D03*
X106950000Y-101075000D03*
X106950000Y-102325000D03*
X106950000Y-103575000D03*
D18*
X91750000Y-105800000D03*
X91750000Y-106700000D03*
D19*
X83285000Y-94285000D03*
X86715000Y-94285000D03*
X83285000Y-95555000D03*
X86715000Y-95555000D03*
X83285000Y-96825000D03*
X86715000Y-96825000D03*
X83285000Y-98095000D03*
X86715000Y-98095000D03*
X83285000Y-99365000D03*
X86715000Y-99365000D03*
X83285000Y-100635000D03*
X86715000Y-100635000D03*
X83285000Y-101905000D03*
X86715000Y-101905000D03*
X83285000Y-103175000D03*
X86715000Y-103175000D03*
X83285000Y-104445000D03*
X86715000Y-104445000D03*
X83285000Y-105715000D03*
X86715000Y-105715000D03*
D20*
X95250000Y-108200000D03*
X95750000Y-108200000D03*
X96250000Y-108200000D03*
X96750000Y-108200000D03*
X97250000Y-108200000D03*
X97750000Y-108200000D03*
X98250000Y-108200000D03*
X98750000Y-108200000D03*
X99250000Y-108200000D03*
X99750000Y-108200000D03*
X100250000Y-108200000D03*
X100750000Y-108200000D03*
X101250000Y-108200000D03*
X101750000Y-108200000D03*
X102250000Y-108200000D03*
X102750000Y-108200000D03*
D21*
X104700000Y-106250000D03*
X104700000Y-105750000D03*
X104700000Y-105250000D03*
X104700000Y-104750000D03*
X104700000Y-104250000D03*
X104700000Y-103750000D03*
X104700000Y-103250000D03*
X104700000Y-102750000D03*
X104700000Y-102250000D03*
X104700000Y-101750000D03*
X104700000Y-101250000D03*
X104700000Y-100750000D03*
X104700000Y-100250000D03*
X104700000Y-99750000D03*
X104700000Y-99250000D03*
X104700000Y-98750000D03*
D20*
X102750000Y-96800000D03*
X102250000Y-96800000D03*
X101750000Y-96800000D03*
X101250000Y-96800000D03*
X100750000Y-96800000D03*
X100250000Y-96800000D03*
X99750000Y-96800000D03*
X99250000Y-96800000D03*
X98750000Y-96800000D03*
X98250000Y-96800000D03*
X97750000Y-96800000D03*
X97250000Y-96800000D03*
X96750000Y-96800000D03*
X96250000Y-96800000D03*
X95750000Y-96800000D03*
X95250000Y-96800000D03*
D21*
X93300000Y-98750000D03*
X93300000Y-99250000D03*
X93300000Y-99750000D03*
X93300000Y-100250000D03*
X93300000Y-100750000D03*
X93300000Y-101250000D03*
X93300000Y-101750000D03*
X93300000Y-102250000D03*
X93300000Y-102750000D03*
X93300000Y-103250000D03*
X93300000Y-103750000D03*
X93300000Y-104250000D03*
X93300000Y-104750000D03*
X93300000Y-105250000D03*
X93300000Y-105750000D03*
X93300000Y-106250000D03*
D22*
X91310000Y-86770000D03*
X91310000Y-88370000D03*
D18*
X97550000Y-116200000D03*
X98450000Y-116200000D03*
D23*
X104000000Y-95200000D03*
X104400000Y-95200000D03*
X104800000Y-95200000D03*
X105200000Y-95200000D03*
X105600000Y-95200000D03*
X106000000Y-95200000D03*
D24*
X106500000Y-94700000D03*
X106500000Y-94300000D03*
X106500000Y-93900000D03*
X106500000Y-93500000D03*
X106500000Y-93100000D03*
X106500000Y-92700000D03*
D23*
X106000000Y-92200000D03*
X105600000Y-92200000D03*
X105200000Y-92200000D03*
X104800000Y-92200000D03*
X104400000Y-92200000D03*
X104000000Y-92200000D03*
D24*
X103500000Y-92700000D03*
X103500000Y-93100000D03*
X103500000Y-93500000D03*
X103500000Y-93900000D03*
X103500000Y-94300000D03*
X103500000Y-94700000D03*
D18*
X108550000Y-92200000D03*
X107650000Y-92200000D03*
D25*
X90000000Y-111475000D03*
X90000000Y-110825000D03*
X90000000Y-110175000D03*
X90000000Y-109525000D03*
X86900000Y-109525000D03*
X86900000Y-110175000D03*
X86900000Y-110825000D03*
X86900000Y-111475000D03*
D26*
X88450000Y-111100000D03*
X88450000Y-109900000D03*
X88450000Y-111100000D03*
X88450000Y-109900000D03*
D27*
X88450000Y-110500000D03*
D18*
X100991107Y-110065147D03*
X101891107Y-110065147D03*
X100991107Y-111565147D03*
X101891107Y-111565147D03*
X109150000Y-106400000D03*
X108250000Y-106400000D03*
X106050000Y-106400000D03*
X106950000Y-106400000D03*
X107650000Y-93500000D03*
X108550000Y-93500000D03*
X108550000Y-94800000D03*
X107650000Y-94800000D03*
X95250000Y-111850000D03*
X95250000Y-110950000D03*
X97855047Y-113866527D03*
X96955047Y-113866527D03*
X107475000Y-97050000D03*
X106575000Y-97050000D03*
X94700000Y-94225000D03*
X94700000Y-95125000D03*
X96000000Y-95125000D03*
X96000000Y-94225000D03*
X106550000Y-98100000D03*
X107450000Y-98100000D03*
X91250000Y-110150000D03*
X91250000Y-111050000D03*
X108250000Y-105150000D03*
X109150000Y-105150000D03*
D28*
X97200000Y-117600000D03*
X98800000Y-117600000D03*
X102600000Y-117600000D03*
X101000000Y-117600000D03*
D18*
X99705047Y-111816527D03*
X99705047Y-110916527D03*
X102250000Y-116200000D03*
X101350000Y-116200000D03*
D29*
X96705047Y-110616527D03*
X96705047Y-112066527D03*
X97855047Y-112066527D03*
X97855047Y-110616527D03*
D22*
X93425000Y-86750000D03*
X93425000Y-88350000D03*
X100800000Y-86700000D03*
X100800000Y-88300000D03*
X99250000Y-86700000D03*
X99250000Y-88300000D03*
X97700000Y-86700000D03*
X97700000Y-88300000D03*
D18*
X96125000Y-86750000D03*
X95225000Y-86750000D03*
D19*
X113285000Y-94285000D03*
X116715000Y-94285000D03*
X113285000Y-95555000D03*
X116715000Y-95555000D03*
X113285000Y-96825000D03*
X116715000Y-96825000D03*
X113285000Y-98095000D03*
X116715000Y-98095000D03*
X113285000Y-99365000D03*
X116715000Y-99365000D03*
X113285000Y-100635000D03*
X116715000Y-100635000D03*
X113285000Y-101905000D03*
X116715000Y-101905000D03*
X113285000Y-103175000D03*
X116715000Y-103175000D03*
X113285000Y-104445000D03*
X116715000Y-104445000D03*
X113285000Y-105715000D03*
X116715000Y-105715000D03*
D30*
X88900000Y-94050000D03*
X110200000Y-106400000D03*
X110200000Y-105150000D03*
X107950000Y-109728000D03*
X106785789Y-110679551D03*
X109474000Y-94742000D03*
X109474000Y-93472000D03*
X108712000Y-91186000D03*
X118250000Y-94300000D03*
X111750000Y-94300000D03*
X111750000Y-105725000D03*
X81750000Y-94300000D03*
X81750000Y-105725000D03*
X95200000Y-105250000D03*
X88450000Y-112200000D03*
X108650000Y-97550000D03*
X109600000Y-101700000D03*
X103975000Y-91375000D03*
X94600000Y-86750000D03*
X98800000Y-110600000D03*
X101000000Y-112550000D03*
X95800000Y-113025000D03*
X88250000Y-105725000D03*
X96025000Y-117600000D03*
X118250000Y-105725000D03*
X103750000Y-117575000D03*
X95375000Y-93625000D03*
X89900000Y-94800000D03*
X94500000Y-96350000D03*
X101600000Y-106800000D03*
X96530000Y-88120000D03*
X103222120Y-105127880D03*
X94600002Y-103400000D03*
X91950000Y-103400000D03*
X81750000Y-95550000D03*
X90900000Y-108500000D03*
X88673840Y-107745825D03*
X88250000Y-101900000D03*
X105591600Y-95950002D03*
X106775000Y-92050000D03*
X104110000Y-96160000D03*
X104315689Y-93999495D03*
X93664103Y-95565398D03*
X88650000Y-95750000D03*
X93000000Y-96800000D03*
X88250000Y-96825000D03*
X94950000Y-99200000D03*
X88250000Y-103175000D03*
X88250000Y-104450000D03*
X88900000Y-99300000D03*
X111750000Y-95550000D03*
X118250000Y-95550000D03*
X111750000Y-96825000D03*
X118250000Y-96825000D03*
X111750000Y-104450000D03*
X118250000Y-104450000D03*
X105650000Y-93500000D03*
X102700000Y-93500000D03*
X101070000Y-95450000D03*
X103150000Y-95450000D03*
X104902000Y-107188000D03*
X103450002Y-108458000D03*
X97140000Y-90780000D03*
X92374998Y-86700000D03*
X97100000Y-92200000D03*
X92271864Y-88099888D03*
X99890000Y-90240000D03*
X98760000Y-90210000D03*
X95700000Y-90800000D03*
X98209180Y-87724925D03*
X81750000Y-96825000D03*
X81750000Y-98075000D03*
X81750000Y-99375000D03*
X81750000Y-100625000D03*
X89000000Y-101000000D03*
X81750000Y-101900000D03*
X81750000Y-103175000D03*
X81750000Y-104450000D03*
X111750000Y-98100000D03*
X118250000Y-98100000D03*
X111750000Y-99375000D03*
X118250000Y-99350000D03*
X111750000Y-100650000D03*
X118250000Y-100625000D03*
X111750000Y-101900000D03*
X118250000Y-101900000D03*
X111750000Y-103175000D03*
X118250000Y-103175000D03*
D31*
X86715000Y-94285000D02*
X88665000Y-94285000D01*
X88665000Y-94285000D02*
X88900000Y-94050000D01*
D32*
X109150000Y-106400000D02*
X110200000Y-106400000D01*
X109150000Y-105150000D02*
X110200000Y-105150000D01*
D33*
X109072058Y-111271141D02*
X107950000Y-110149083D01*
X107950000Y-110149083D02*
X107950000Y-109728000D01*
X105622000Y-110490000D02*
X106596238Y-110490000D01*
X106596238Y-110490000D02*
X106785789Y-110679551D01*
D31*
X108550000Y-94800000D02*
X109416000Y-94800000D01*
X109416000Y-94800000D02*
X109474000Y-94742000D01*
X109474000Y-93472000D02*
X108578000Y-93472000D01*
X108578000Y-93472000D02*
X108550000Y-93500000D01*
X108550000Y-92200000D02*
X108550000Y-91348000D01*
X108550000Y-91348000D02*
X108712000Y-91186000D01*
X118250000Y-94300000D02*
X116730000Y-94300000D01*
X111750000Y-94300000D02*
X113270000Y-94300000D01*
X116725000Y-105725000D02*
X116715000Y-105715000D01*
X111760000Y-105715000D02*
X111750000Y-105725000D01*
X113285000Y-105715000D02*
X111760000Y-105715000D01*
X88250000Y-105725000D02*
X86725000Y-105725000D01*
X116730000Y-94300000D02*
X116715000Y-94285000D01*
D32*
X100750000Y-109400000D02*
X100991107Y-109641107D01*
X90000000Y-110825000D02*
X88775000Y-110825000D01*
X86900000Y-111475000D02*
X87575000Y-111475000D01*
X96705047Y-112066527D02*
X96705047Y-113005047D01*
X96705047Y-113005047D02*
X96955047Y-113255047D01*
X94700000Y-105750000D02*
X95200000Y-105250000D01*
X93300000Y-105750000D02*
X94700000Y-105750000D01*
X94200000Y-104250000D02*
X95200000Y-105250000D01*
X96488520Y-111850000D02*
X96705047Y-112066527D01*
X95250000Y-111850000D02*
X96488520Y-111850000D01*
D31*
X83285000Y-105715000D02*
X81760000Y-105715000D01*
X86725000Y-105725000D02*
X86715000Y-105715000D01*
D32*
X88775000Y-110825000D02*
X88450000Y-110500000D01*
D31*
X88450000Y-110500000D02*
X88450000Y-112200000D01*
D33*
X100750000Y-109150000D02*
X100750000Y-109400000D01*
D32*
X87575000Y-111475000D02*
X88450000Y-110600000D01*
D31*
X81750000Y-94300000D02*
X83270000Y-94300000D01*
D33*
X100750000Y-108200000D02*
X100750000Y-109150000D01*
X106050000Y-105890000D02*
X106050000Y-106400000D01*
X107139999Y-92939999D02*
X108499999Y-92939999D01*
D32*
X100991107Y-110065147D02*
X100991107Y-111565147D01*
D33*
X106979998Y-93100000D02*
X107139999Y-92939999D01*
X106500000Y-93100000D02*
X106979998Y-93100000D01*
D31*
X108499999Y-93449999D02*
X108550000Y-93500000D01*
X107450000Y-98100000D02*
X108260000Y-98100000D01*
X118250000Y-105725000D02*
X116725000Y-105725000D01*
X108300000Y-97550000D02*
X108650000Y-97550000D01*
D33*
X108550000Y-92990000D02*
X108550000Y-93500000D01*
D31*
X100991107Y-112541107D02*
X101000000Y-112550000D01*
X108260000Y-98100000D02*
X108300000Y-98060000D01*
D33*
X91800000Y-105750000D02*
X91750000Y-105800000D01*
D32*
X109150000Y-101700000D02*
X109600000Y-101700000D01*
X109150000Y-101075000D02*
X109150000Y-101700000D01*
X109150000Y-101700000D02*
X109150000Y-102325000D01*
X95325000Y-94225000D02*
X94700000Y-94225000D01*
X96955047Y-113255047D02*
X96955047Y-113866527D01*
D33*
X104000000Y-92600000D02*
X104000000Y-92200000D01*
D32*
X90600000Y-111050000D02*
X91250000Y-111050000D01*
D33*
X103850002Y-93100000D02*
X104000000Y-92950002D01*
X103500000Y-93100000D02*
X103850002Y-93100000D01*
X104000000Y-91400000D02*
X103975000Y-91375000D01*
X104000000Y-92200000D02*
X104000000Y-91400000D01*
D32*
X97855047Y-110616527D02*
X98783473Y-110616527D01*
D31*
X108300000Y-98060000D02*
X108300000Y-97550000D01*
D33*
X104000000Y-92950002D02*
X104000000Y-92600000D01*
D32*
X90000000Y-110825000D02*
X90375000Y-110825000D01*
D33*
X95225000Y-86750000D02*
X94600000Y-86750000D01*
D31*
X113270000Y-94300000D02*
X113285000Y-94285000D01*
D33*
X108499999Y-92939999D02*
X108550000Y-92990000D01*
X93300000Y-105750000D02*
X91800000Y-105750000D01*
D32*
X93300000Y-104250000D02*
X94200000Y-104250000D01*
D31*
X83270000Y-94300000D02*
X83285000Y-94285000D01*
D32*
X109150000Y-107010000D02*
X109150000Y-106400000D01*
X106050000Y-106400000D02*
X106050001Y-107010001D01*
X98783473Y-110616527D02*
X98800000Y-110600000D01*
X90375000Y-110825000D02*
X90600000Y-111050000D01*
X100991107Y-109641107D02*
X100991107Y-110065147D01*
D31*
X81760000Y-105715000D02*
X81750000Y-105725000D01*
D32*
X95325000Y-94225000D02*
X95325000Y-93675000D01*
D33*
X104700000Y-105750000D02*
X105910000Y-105750000D01*
D32*
X97200000Y-117600000D02*
X96025000Y-117600000D01*
D31*
X100991107Y-111565147D02*
X100991107Y-112541107D01*
D32*
X102600000Y-117600000D02*
X103725000Y-117600000D01*
X95819953Y-113005047D02*
X95800000Y-113025000D01*
X95325000Y-93675000D02*
X95375000Y-93625000D01*
X88450000Y-110600000D02*
X88450000Y-110500000D01*
X96705047Y-113005047D02*
X95819953Y-113005047D01*
D31*
X108300000Y-97065000D02*
X108300000Y-97550000D01*
X108285000Y-97050000D02*
X108300000Y-97065000D01*
X107475000Y-97050000D02*
X108285000Y-97050000D01*
D33*
X105910000Y-105750000D02*
X106050000Y-105890000D01*
D32*
X96000000Y-94225000D02*
X95325000Y-94225000D01*
X106050001Y-107010001D02*
X109150000Y-107010000D01*
X103725000Y-117600000D02*
X103750000Y-117575000D01*
D33*
X97250000Y-108200000D02*
X97250000Y-109150000D01*
D32*
X95250000Y-110950000D02*
X96371574Y-110950000D01*
X96371574Y-110950000D02*
X96705047Y-110616527D01*
X97250000Y-109150000D02*
X96705047Y-109694953D01*
X96705047Y-109694953D02*
X96705047Y-109941527D01*
X96705047Y-109941527D02*
X96705047Y-110616527D01*
X97855047Y-112066527D02*
X97855047Y-113866527D01*
X98833473Y-112066527D02*
X99083473Y-111816527D01*
X99083473Y-111816527D02*
X99705047Y-111816527D01*
X97855047Y-112066527D02*
X98833473Y-112066527D01*
D31*
X101710000Y-85650000D02*
X106800000Y-90740000D01*
X106800000Y-90740000D02*
X107409999Y-91349999D01*
D32*
X106000000Y-91575000D02*
X106000000Y-91540000D01*
X106000000Y-91540000D02*
X106800000Y-90740000D01*
X94500000Y-95950000D02*
X94600000Y-95850000D01*
X94600000Y-95850000D02*
X94815000Y-95850000D01*
X94500000Y-96350000D02*
X94500000Y-95950000D01*
X89900000Y-94800000D02*
X89784999Y-94915001D01*
X89784999Y-94915001D02*
X89384999Y-94915001D01*
D33*
X94815000Y-95850000D02*
X94815000Y-96035000D01*
X94815000Y-96035000D02*
X94500000Y-96350000D01*
X89384999Y-94915001D02*
X89700001Y-94599999D01*
X84375000Y-95555000D02*
X85014999Y-94915001D01*
X83285000Y-95555000D02*
X84375000Y-95555000D01*
D31*
X89700001Y-86474999D02*
X89700001Y-94599999D01*
X89700001Y-86474999D02*
X90525000Y-85650000D01*
X91325000Y-85650000D02*
X90525000Y-85650000D01*
D33*
X85014999Y-94915001D02*
X89384999Y-94915001D01*
D31*
X91310000Y-86770000D02*
X91310000Y-85665000D01*
X91310000Y-85665000D02*
X91325000Y-85650000D01*
D32*
X101250000Y-107150000D02*
X101600000Y-106800000D01*
D31*
X89700001Y-94599999D02*
X89699999Y-94600001D01*
D32*
X96125000Y-86750000D02*
X96125000Y-87360000D01*
X96125000Y-87360000D02*
X96319315Y-87554315D01*
X96319315Y-87554315D02*
X96530000Y-87554315D01*
D31*
X96530000Y-88120000D02*
X96530000Y-87554315D01*
X96849999Y-85699999D02*
X96800000Y-85650000D01*
X96530000Y-87554315D02*
X96849999Y-87234316D01*
X96849999Y-87234316D02*
X96849999Y-85699999D01*
X96200011Y-106199989D02*
X100299989Y-106199989D01*
X100299989Y-106199989D02*
X100599999Y-106499999D01*
X96200011Y-98636178D02*
X96200011Y-103400000D01*
X96200011Y-103400000D02*
X96200011Y-106199989D01*
X94600002Y-103400000D02*
X95165687Y-103400000D01*
X95165687Y-103400000D02*
X96200011Y-103400000D01*
X96200011Y-106199989D02*
X95900001Y-106499999D01*
D32*
X95250000Y-96800000D02*
X95250000Y-97740002D01*
X95250000Y-97740002D02*
X96146176Y-98636178D01*
X96146176Y-98636178D02*
X96200011Y-98636178D01*
D31*
X99100000Y-85650000D02*
X97825000Y-85650000D01*
X97825000Y-85650000D02*
X96800000Y-85650000D01*
X97700000Y-86700000D02*
X97700000Y-85725000D01*
X97700000Y-85725000D02*
X97775000Y-85650000D01*
X97775000Y-85650000D02*
X97825000Y-85650000D01*
X101710000Y-85650000D02*
X100850000Y-85650000D01*
X100850000Y-85650000D02*
X99100000Y-85650000D01*
X100800000Y-86700000D02*
X100800000Y-85700000D01*
X100800000Y-85700000D02*
X100850000Y-85650000D01*
X99250000Y-86700000D02*
X99250000Y-85725000D01*
X99250000Y-85725000D02*
X99175000Y-85650000D01*
X99175000Y-85650000D02*
X99100000Y-85650000D01*
X96800000Y-85650000D02*
X93400000Y-85650000D01*
X93400000Y-85650000D02*
X91325000Y-85650000D01*
X93425000Y-86750000D02*
X93425000Y-85675000D01*
X93425000Y-85675000D02*
X93400000Y-85650000D01*
D33*
X106000000Y-91575000D02*
X106000000Y-92200000D01*
D32*
X107650000Y-92200000D02*
X107650000Y-91590000D01*
X107650000Y-91590000D02*
X107409999Y-91349999D01*
D33*
X107000000Y-94660000D02*
X107000000Y-95577604D01*
D32*
X107000000Y-95577604D02*
X105790000Y-96787604D01*
X105790000Y-96787604D02*
X105790000Y-97050000D01*
X106575000Y-97050000D02*
X105790000Y-97050000D01*
X105790000Y-97050000D02*
X104700000Y-98140000D01*
X94700000Y-95125000D02*
X94700000Y-95735000D01*
X94700000Y-95735000D02*
X94815000Y-95850000D01*
X94815000Y-95850000D02*
X95250000Y-95850000D01*
X103222120Y-105127880D02*
X103344240Y-105250000D01*
X103344240Y-105250000D02*
X104700000Y-105250000D01*
X101250000Y-107150000D02*
X101250000Y-107125000D01*
X101250000Y-108200000D02*
X101250000Y-107150000D01*
X101250000Y-107150000D02*
X100599999Y-106499999D01*
D33*
X95250000Y-95850000D02*
X95250000Y-96800000D01*
X106000000Y-92200000D02*
X106000000Y-92600000D01*
X106000000Y-92600000D02*
X105750001Y-92849999D01*
X105750001Y-92849999D02*
X105337999Y-92849999D01*
X105337999Y-92849999D02*
X104965690Y-93222308D01*
X104965690Y-93222308D02*
X104965690Y-94583806D01*
X104200502Y-94649496D02*
X104900000Y-94649496D01*
X104965690Y-94583806D02*
X104900000Y-94649496D01*
X104900000Y-94649496D02*
X105750504Y-94649496D01*
D32*
X95900001Y-106499999D02*
X95250000Y-107150000D01*
D31*
X90750000Y-103900000D02*
X90750000Y-103450000D01*
X90750000Y-103450000D02*
X91900000Y-103450000D01*
D32*
X91900000Y-103450000D02*
X91950000Y-103400000D01*
D33*
X90750000Y-104437889D02*
X90750000Y-103900000D01*
D32*
X108250000Y-105150000D02*
X106510000Y-105150000D01*
X106510000Y-105150000D02*
X106410000Y-105250000D01*
D33*
X106410000Y-105250000D02*
X104700000Y-105250000D01*
X109150000Y-103575000D02*
X108400000Y-103575000D01*
X108400000Y-103575000D02*
X108250000Y-103725000D01*
X108250000Y-103725000D02*
X108250000Y-105150000D01*
X93300000Y-106250000D02*
X93300000Y-106600000D01*
X93300000Y-106600000D02*
X93200000Y-106700000D01*
X93200000Y-106700000D02*
X92850000Y-106700000D01*
X91750000Y-106700000D02*
X92850000Y-106700000D01*
X107000000Y-94660000D02*
X107000000Y-94400000D01*
X107000000Y-94400000D02*
X106900000Y-94300000D01*
X106900000Y-94300000D02*
X106500000Y-94300000D01*
X107650000Y-94800000D02*
X107140000Y-94800000D01*
X107140000Y-94800000D02*
X107000000Y-94660000D01*
X104000000Y-95200000D02*
X104000000Y-94849998D01*
X104000000Y-94849998D02*
X104200502Y-94649496D01*
X105750504Y-94649496D02*
X106100000Y-94300000D01*
X106100000Y-94300000D02*
X106500000Y-94300000D01*
X104700000Y-98140000D02*
X104700000Y-98400000D01*
X104700000Y-98400000D02*
X104700000Y-98750000D01*
D32*
X106950000Y-105790000D02*
X106410000Y-105250000D01*
D33*
X101250000Y-108200000D02*
X101250000Y-109140002D01*
X90750000Y-104437889D02*
X90750000Y-104350000D01*
X90289979Y-106760021D02*
X90289979Y-104897910D01*
X90289979Y-104897910D02*
X90750000Y-104437889D01*
X90089980Y-106960020D02*
X90289979Y-106760021D01*
X90089980Y-106966095D02*
X90089980Y-106960020D01*
D32*
X89756075Y-107300000D02*
X90089980Y-106966095D01*
X89400000Y-107656075D02*
X89756075Y-107300000D01*
X86900000Y-109525000D02*
X86900000Y-109050000D01*
X86900000Y-109050000D02*
X87504174Y-108445826D01*
X87504174Y-108445826D02*
X89009841Y-108445826D01*
X89009841Y-108445826D02*
X89400000Y-108055667D01*
X89400000Y-108055667D02*
X89400000Y-107656075D01*
X95250000Y-108200000D02*
X95250000Y-107150000D01*
X95250000Y-107150000D02*
X94350000Y-106250000D01*
X94350000Y-106250000D02*
X93300000Y-106250000D01*
X101250000Y-109140002D02*
X101559998Y-109450000D01*
X101559998Y-109450000D02*
X101559998Y-109459998D01*
X101559998Y-109459998D02*
X101891107Y-109791107D01*
X101891107Y-109791107D02*
X101891107Y-110065147D01*
X101891107Y-110065147D02*
X101891107Y-111565147D01*
D33*
X101949932Y-111623972D02*
X101891107Y-111565147D01*
D32*
X106950000Y-105790000D02*
X106950000Y-106400000D01*
X108250000Y-106400000D02*
X106950000Y-106400000D01*
D31*
X83285000Y-95555000D02*
X81755000Y-95555000D01*
X81755000Y-95555000D02*
X81750000Y-95550000D01*
D33*
X95750000Y-95775000D02*
X95750000Y-96800000D01*
X96000000Y-95125000D02*
X96000000Y-95525000D01*
X96000000Y-95525000D02*
X95750000Y-95775000D01*
X104700000Y-99250000D02*
X105910000Y-99250000D01*
X105910000Y-99250000D02*
X106550000Y-98610000D01*
X106550000Y-98610000D02*
X106550000Y-98100000D01*
D32*
X90900000Y-108500000D02*
X90900000Y-109065685D01*
X90900000Y-109065685D02*
X91250000Y-109415685D01*
X91250000Y-109415685D02*
X91250000Y-109500000D01*
D33*
X89850020Y-103500020D02*
X89850020Y-106569645D01*
X89850020Y-106569645D02*
X88673840Y-107745825D01*
D32*
X91250000Y-109500000D02*
X91250000Y-110150000D01*
X88250000Y-101900000D02*
X89850020Y-103500020D01*
X86715000Y-101905000D02*
X88245000Y-101905000D01*
X88245000Y-101905000D02*
X88250000Y-101900000D01*
X90000000Y-110175000D02*
X91225000Y-110175000D01*
X91225000Y-110175000D02*
X91250000Y-110150000D01*
D33*
X107650000Y-93500000D02*
X106500000Y-93500000D01*
D32*
X98625000Y-116800000D02*
X98625000Y-117425000D01*
X98625000Y-117425000D02*
X98800000Y-117600000D01*
X98450000Y-116625000D02*
X98625000Y-116800000D01*
X98450000Y-116200000D02*
X98450000Y-116625000D01*
X101350000Y-116200000D02*
X101350000Y-116600000D01*
X101350000Y-116600000D02*
X101000000Y-116950000D01*
X101000000Y-116950000D02*
X101000000Y-117600000D01*
D33*
X97750000Y-108200000D02*
X97750000Y-109150000D01*
D32*
X98886002Y-109650000D02*
X98250000Y-109650000D01*
X98250000Y-109650000D02*
X97750000Y-109150000D01*
X99705047Y-110406527D02*
X99642529Y-110406527D01*
X99642529Y-110406527D02*
X98886002Y-109650000D01*
X99705047Y-110916527D02*
X99705047Y-110406527D01*
X98275000Y-114725000D02*
X97550000Y-115450000D01*
X97550000Y-115450000D02*
X97550000Y-115590000D01*
X97550000Y-115590000D02*
X97550000Y-116200000D01*
X100550000Y-114725000D02*
X98275000Y-114725000D01*
X102501108Y-112773892D02*
X100550000Y-114725000D01*
X102250000Y-108200000D02*
X102250000Y-109250000D01*
X102250000Y-109250000D02*
X102501108Y-109501108D01*
X102501108Y-109501108D02*
X102501108Y-112773892D01*
X102951118Y-109314708D02*
X102951118Y-114888882D01*
X102951118Y-114888882D02*
X102250000Y-115590000D01*
X102250000Y-115590000D02*
X102250000Y-116200000D01*
X102750000Y-108200000D02*
X102750000Y-109113590D01*
X102750000Y-109113590D02*
X102951118Y-109314708D01*
D33*
X104700000Y-104250000D02*
X106775000Y-104250000D01*
X106775000Y-104250000D02*
X106950000Y-104075000D01*
X106950000Y-104075000D02*
X106950000Y-103575000D01*
X104700000Y-103750000D02*
X105650000Y-103750000D01*
X105650000Y-103750000D02*
X106149999Y-103250001D01*
X106149999Y-103250001D02*
X106149999Y-103074999D01*
X107700000Y-101075000D02*
X106950000Y-101075000D01*
X106149999Y-103074999D02*
X106199999Y-103024999D01*
X106199999Y-103024999D02*
X107550003Y-103024999D01*
X107750001Y-101125001D02*
X107700000Y-101075000D01*
X107550003Y-103024999D02*
X107750001Y-102825001D01*
X107750001Y-102825001D02*
X107750001Y-101125001D01*
X105575000Y-103250000D02*
X105575000Y-103155010D01*
X105575000Y-103155010D02*
X106405010Y-102325000D01*
X106405010Y-102325000D02*
X106950000Y-102325000D01*
X105575000Y-103250000D02*
X104700000Y-103250000D01*
X106324998Y-100400000D02*
X106875000Y-100400000D01*
X106950000Y-100325000D02*
X106950000Y-99825000D01*
X106875000Y-100400000D02*
X106950000Y-100325000D01*
X104700000Y-102750000D02*
X105485022Y-102750000D01*
X105485022Y-102750000D02*
X106149999Y-102085023D01*
X106149999Y-102085023D02*
X106149999Y-100574999D01*
X106149999Y-100574999D02*
X106324998Y-100400000D01*
D32*
X105591600Y-95950002D02*
X105191601Y-96350001D01*
X105191601Y-96350001D02*
X105081384Y-96350001D01*
X105081384Y-96350001D02*
X103649983Y-97781402D01*
X105581384Y-95850000D02*
X105591600Y-95950002D01*
X103649983Y-97781402D02*
X103650000Y-99750000D01*
X103650000Y-99750000D02*
X104700000Y-99750000D01*
D33*
X106500000Y-92700000D02*
X106500000Y-92325000D01*
X106500000Y-92325000D02*
X106775000Y-92050000D01*
X104110000Y-96160000D02*
X103470000Y-96800000D01*
X103470000Y-96800000D02*
X103100000Y-96800000D01*
X103850000Y-93900000D02*
X104216194Y-93900000D01*
X104216194Y-93900000D02*
X104315689Y-93999495D01*
X103100000Y-96800000D02*
X102750000Y-96800000D01*
X103500000Y-93900000D02*
X103850000Y-93900000D01*
D32*
X93666287Y-94961338D02*
X93666287Y-95563214D01*
X93666287Y-95563214D02*
X93664103Y-95565398D01*
X93666287Y-94961338D02*
X93666287Y-94098711D01*
X96499999Y-92924999D02*
X96750000Y-93175000D01*
X96750000Y-93175000D02*
X96750000Y-95500000D01*
X93666287Y-94098711D02*
X94839999Y-92924999D01*
X94839999Y-92924999D02*
X96499999Y-92924999D01*
X96500001Y-95749999D02*
X96359999Y-95749999D01*
X96750000Y-95500000D02*
X96500001Y-95749999D01*
X96359999Y-95749999D02*
X96250000Y-95859998D01*
D33*
X96250000Y-95859998D02*
X96250000Y-96800000D01*
D31*
X88500000Y-95750000D02*
X88305000Y-95555000D01*
X88305000Y-95555000D02*
X86715000Y-95555000D01*
X88650000Y-95750000D02*
X88500000Y-95750000D01*
X86720000Y-95550000D02*
X86715000Y-95555000D01*
D32*
X93300000Y-98750000D02*
X93300000Y-97100000D01*
X93300000Y-97100000D02*
X93000000Y-96800000D01*
D31*
X86715000Y-96825000D02*
X88250000Y-96825000D01*
D33*
X93300000Y-99250000D02*
X94900000Y-99250000D01*
X94900000Y-99250000D02*
X94950000Y-99200000D01*
D32*
X93300000Y-104750000D02*
X92900000Y-104750000D01*
X92900000Y-104750000D02*
X92889989Y-104739989D01*
X92889989Y-104739989D02*
X91013598Y-104739990D01*
X91013598Y-104739990D02*
X90689989Y-105063599D01*
X90689989Y-105063599D02*
X90689989Y-107250000D01*
X90689989Y-107250000D02*
X90000000Y-107939989D01*
X90000000Y-109525000D02*
X90000000Y-107939989D01*
X93300000Y-105250000D02*
X92360002Y-105250000D01*
X91860001Y-111600001D02*
X91560002Y-111900000D01*
X92360002Y-105250000D02*
X92300001Y-105189999D01*
X91139999Y-105249999D02*
X91139999Y-107250001D01*
X92300001Y-105189999D02*
X91199999Y-105189999D01*
X91199999Y-105189999D02*
X91139999Y-105249999D01*
X91139999Y-107250001D02*
X91860001Y-107970003D01*
X91860001Y-107970003D02*
X91860001Y-111600001D01*
X91560002Y-111900000D02*
X90100000Y-111900000D01*
X90100000Y-111900000D02*
X90000000Y-111800000D01*
X90000000Y-111800000D02*
X90000000Y-111475000D01*
X88250000Y-103175000D02*
X89400011Y-104325011D01*
X87686400Y-107050010D02*
X86011391Y-108725019D01*
X89400011Y-104325011D02*
X89400011Y-106247401D01*
X89400011Y-106247401D02*
X88597402Y-107050010D01*
X88597402Y-107050010D02*
X87686400Y-107050010D01*
X86011391Y-108725019D02*
X86011391Y-109911391D01*
X86011391Y-109911391D02*
X86275000Y-110175000D01*
X86275000Y-110175000D02*
X86900000Y-110175000D01*
D31*
X88250000Y-103175000D02*
X86715000Y-103175000D01*
D32*
X88250000Y-104450000D02*
X88950001Y-105150001D01*
X88950001Y-105150001D02*
X88950001Y-106061001D01*
X86275000Y-110825000D02*
X86900000Y-110825000D01*
X88950001Y-106061001D02*
X88411002Y-106600000D01*
X88411002Y-106600000D02*
X87500000Y-106600000D01*
X87500000Y-106600000D02*
X85561381Y-108538619D01*
X85561381Y-108538619D02*
X85561381Y-110111381D01*
X85561381Y-110111381D02*
X86275000Y-110825000D01*
D31*
X86715000Y-104445000D02*
X88245000Y-104445000D01*
X88245000Y-104445000D02*
X88250000Y-104450000D01*
X86715000Y-99365000D02*
X88835000Y-99365000D01*
X88835000Y-99365000D02*
X88900000Y-99300000D01*
X86715001Y-99364999D02*
X86715000Y-99365000D01*
X86730000Y-99350000D02*
X86715000Y-99365000D01*
X113285000Y-95555000D02*
X111755000Y-95555000D01*
X111755000Y-95555000D02*
X111750000Y-95550000D01*
X116715000Y-95555000D02*
X118245000Y-95555000D01*
X118245000Y-95555000D02*
X118250000Y-95550000D01*
X111750000Y-96825000D02*
X113285000Y-96825000D01*
X116715000Y-96825000D02*
X118250000Y-96825000D01*
X111750000Y-104450000D02*
X113280000Y-104450000D01*
X113280000Y-104450000D02*
X113285000Y-104445000D01*
X116715000Y-104445000D02*
X118245000Y-104445000D01*
X118245000Y-104445000D02*
X118250000Y-104450000D01*
D32*
X96750000Y-97750000D02*
X96750021Y-97750021D01*
X96750021Y-97750021D02*
X96750021Y-100796017D01*
X96750021Y-100796017D02*
X101110004Y-105156000D01*
D33*
X104182001Y-109990000D02*
X104182001Y-108227997D01*
X104182001Y-108227997D02*
X101110004Y-105156000D01*
X96750000Y-97750000D02*
X96750000Y-96800000D01*
D32*
X97250000Y-100623588D02*
X97260838Y-100623588D01*
X97260838Y-100623588D02*
X101346000Y-104708750D01*
D33*
X104902000Y-109474000D02*
X104902000Y-108264750D01*
X104902000Y-108264750D02*
X101346000Y-104708750D01*
X104902000Y-110825001D02*
X104902000Y-109474000D01*
D32*
X97250000Y-97750000D02*
X97250000Y-100623588D01*
D33*
X104182001Y-110990000D02*
X104737001Y-110990000D01*
X104737001Y-110990000D02*
X104902000Y-110825001D01*
X97250000Y-97750000D02*
X97250000Y-96800000D01*
X103500000Y-94300000D02*
X103149998Y-94300000D01*
X103149998Y-94300000D02*
X102250000Y-95199998D01*
X102250000Y-95199998D02*
X102250000Y-95850000D01*
X102250000Y-95850000D02*
X102250000Y-96800000D01*
X106500000Y-93900000D02*
X106050000Y-93900000D01*
X106050000Y-93900000D02*
X105650000Y-93500000D01*
X102700000Y-93500000D02*
X101750000Y-94450000D01*
X101750000Y-94450000D02*
X101750000Y-96800000D01*
X101250000Y-95850000D02*
X101250000Y-95630000D01*
X101250000Y-95630000D02*
X101070000Y-95450000D01*
X103500000Y-94700000D02*
X103500000Y-95100000D01*
X103500000Y-95100000D02*
X103150000Y-95450000D01*
X101250000Y-95850000D02*
X101250000Y-96800000D01*
X101633830Y-104360170D02*
X102362000Y-105088340D01*
X102362000Y-105229762D02*
X104320238Y-107188000D01*
X102362000Y-105088340D02*
X102362000Y-105229762D01*
X104336315Y-107188000D02*
X104902000Y-107188000D01*
X104320238Y-107188000D02*
X104336315Y-107188000D01*
D32*
X98250000Y-100976340D02*
X101633830Y-104360170D01*
X98250000Y-97750000D02*
X98250000Y-100976340D01*
D33*
X103378000Y-110739000D02*
X103378000Y-108530002D01*
X103378000Y-108530002D02*
X103450002Y-108458000D01*
X106951412Y-112775422D02*
X105918000Y-111742010D01*
X103378000Y-110739000D02*
X103378000Y-111506000D01*
X104182000Y-110490000D02*
X103627000Y-110490000D01*
X103627000Y-110490000D02*
X103378000Y-110739000D01*
X103378000Y-111506000D02*
X103614010Y-111742010D01*
X103614010Y-111742010D02*
X105918000Y-111742010D01*
X98250000Y-97750000D02*
X98250000Y-96800000D01*
X105621999Y-110990000D02*
X105621999Y-111340000D01*
X105621999Y-111340000D02*
X105673999Y-111392000D01*
X105673999Y-111392000D02*
X106474222Y-111392000D01*
X106474222Y-111392000D02*
X106926717Y-111844495D01*
X106926717Y-111844495D02*
X107481574Y-112399352D01*
X107481574Y-112294575D02*
X107481574Y-112399352D01*
X105621999Y-109990000D02*
X107058240Y-109990000D01*
X107058240Y-109990000D02*
X107456878Y-110388638D01*
X107456878Y-110388638D02*
X107456878Y-111468424D01*
X107456878Y-111468424D02*
X108011735Y-112023281D01*
D32*
X99750000Y-94060000D02*
X99750000Y-94250000D01*
X99750000Y-94250000D02*
X99750000Y-95100000D01*
X97140000Y-90780000D02*
X99750000Y-93390000D01*
X99750000Y-93390000D02*
X99750000Y-94250000D01*
X99750000Y-95100000D02*
X99750000Y-95750000D01*
X93425000Y-87575000D02*
X92734998Y-87575000D01*
X92734998Y-87575000D02*
X92374998Y-87215000D01*
X92374998Y-87215000D02*
X92374998Y-86700000D01*
X93425000Y-88350000D02*
X93425000Y-87575000D01*
X93425000Y-87575000D02*
X93400000Y-87550000D01*
X93425000Y-88350000D02*
X93110000Y-88350000D01*
D33*
X99750000Y-96800000D02*
X99750000Y-95750000D01*
X99750000Y-95750000D02*
X99750000Y-94975000D01*
D32*
X99250000Y-95750000D02*
X99250000Y-93879950D01*
X99250000Y-93879950D02*
X97570050Y-92200000D01*
X97570050Y-92200000D02*
X97100000Y-92200000D01*
X92271864Y-88099888D02*
X91580112Y-88099888D01*
X91580112Y-88099888D02*
X91310000Y-88370000D01*
D33*
X99250000Y-95750000D02*
X99250000Y-96800000D01*
D32*
X92249976Y-97060000D02*
X92249976Y-92400024D01*
X92249976Y-92400024D02*
X94629990Y-90020010D01*
X94629990Y-90020010D02*
X97534008Y-90020010D01*
X99219999Y-90910001D02*
X99490001Y-90639999D01*
X97534008Y-90020010D02*
X98423999Y-90910001D01*
X98423999Y-90910001D02*
X99219999Y-90910001D01*
X99490001Y-90639999D02*
X99890000Y-90240000D01*
X92250000Y-99750000D02*
X92249976Y-97060000D01*
X92249976Y-97060000D02*
X92249972Y-96664027D01*
X93300000Y-99750000D02*
X92250000Y-99750000D01*
X99890000Y-90240000D02*
X100800000Y-89330000D01*
X100800000Y-89330000D02*
X100800000Y-88300000D01*
X100800000Y-88300000D02*
X100800000Y-88575000D01*
X98834990Y-89490010D02*
X98834990Y-90135010D01*
X98834990Y-90135010D02*
X98760000Y-90210000D01*
X99250000Y-88300000D02*
X99250000Y-89075000D01*
X91799962Y-92126450D02*
X91799962Y-96477632D01*
X99250000Y-89075000D02*
X98834990Y-89490010D01*
X98834990Y-89490010D02*
X96753600Y-89490010D01*
X96753600Y-89490010D02*
X96670002Y-89406412D01*
X96670002Y-89406412D02*
X94520000Y-89406412D01*
X94520000Y-89406412D02*
X91799962Y-92126450D01*
X91799962Y-96477632D02*
X91799992Y-99936403D01*
X91799992Y-99936403D02*
X92113590Y-100250000D01*
X92113590Y-100250000D02*
X93300000Y-100250000D01*
D33*
X94089999Y-97303997D02*
X94089999Y-96927997D01*
X94089999Y-96927997D02*
X92699986Y-95537984D01*
X92699986Y-95537984D02*
X92699986Y-95410000D01*
D32*
X94486410Y-90800000D02*
X94400000Y-90886410D01*
X95700000Y-90800000D02*
X94486410Y-90800000D01*
X94400000Y-90886410D02*
X94400000Y-90900000D01*
X94400000Y-90900000D02*
X94400000Y-90886410D01*
X92699986Y-92586424D02*
X92699986Y-95410000D01*
X94400000Y-90886410D02*
X92699986Y-92586424D01*
X94436002Y-100750000D02*
X93300000Y-100750000D01*
X95650001Y-99536001D02*
X94436002Y-100750000D01*
X94089999Y-97303997D02*
X95650001Y-98863999D01*
X95650001Y-98863999D02*
X95650001Y-99536001D01*
X92699986Y-95469986D02*
X92699986Y-95410000D01*
X97700000Y-88300000D02*
X97700000Y-89040000D01*
X96856402Y-88956402D02*
X96940000Y-89040000D01*
X96940000Y-89040000D02*
X97700000Y-89040000D01*
X94333600Y-88956402D02*
X96856402Y-88956402D01*
X97700000Y-88300000D02*
X97700000Y-88234105D01*
X97700000Y-88234105D02*
X98209180Y-87724925D01*
X93300000Y-101250000D02*
X92359998Y-101250000D01*
X92359998Y-101250000D02*
X91349952Y-100239954D01*
X91349952Y-100239954D02*
X91349952Y-91940050D01*
X91349952Y-91940050D02*
X94333600Y-88956402D01*
X97700000Y-88300000D02*
X97675000Y-88300000D01*
D31*
X81750000Y-96825000D02*
X83285000Y-96825000D01*
X83285000Y-98095000D02*
X81770000Y-98095000D01*
X81770000Y-98095000D02*
X81750000Y-98075000D01*
X81750000Y-99375000D02*
X83275000Y-99375000D01*
X83275000Y-99375000D02*
X83285000Y-99365000D01*
X83285000Y-100635000D02*
X81760000Y-100635000D01*
X81760000Y-100635000D02*
X81750000Y-100625000D01*
X86715000Y-100635000D02*
X88635000Y-100635000D01*
X88635000Y-100635000D02*
X89000000Y-101000000D01*
X86725000Y-100625000D02*
X86715000Y-100635000D01*
X81750000Y-101900000D02*
X83280000Y-101900000D01*
X83280000Y-101900000D02*
X83285000Y-101905000D01*
X83285000Y-103175000D02*
X81750000Y-103175000D01*
X81750000Y-104450000D02*
X83280000Y-104450000D01*
X83280000Y-104450000D02*
X83285000Y-104445000D01*
X113285000Y-98095000D02*
X111755000Y-98095000D01*
X111755000Y-98095000D02*
X111750000Y-98100000D01*
X118250000Y-98100000D02*
X116720000Y-98100000D01*
X116720000Y-98100000D02*
X116715000Y-98095000D01*
X111750000Y-99375000D02*
X113275000Y-99375000D01*
X113275000Y-99375000D02*
X113285000Y-99365000D01*
X116715000Y-99365000D02*
X118235000Y-99365000D01*
X118235000Y-99365000D02*
X118250000Y-99350000D01*
X113285000Y-100635000D02*
X111765000Y-100635000D01*
X111765000Y-100635000D02*
X111750000Y-100650000D01*
X118250000Y-100625000D02*
X116725000Y-100625000D01*
X116725000Y-100625000D02*
X116715000Y-100635000D01*
X111750000Y-101900000D02*
X113280000Y-101900000D01*
X113280000Y-101900000D02*
X113285000Y-101905000D01*
X116715000Y-101905000D02*
X118245000Y-101905000D01*
X118245000Y-101905000D02*
X118250000Y-101900000D01*
X113285000Y-103175000D02*
X111750000Y-103175000D01*
X118250000Y-103175000D02*
X116715000Y-103175000D01*
D32*
X93300000Y-101750000D02*
X92130000Y-101750000D01*
X92130000Y-101750000D02*
X90899942Y-100519942D01*
X90899942Y-100519942D02*
X90899942Y-99899942D01*
X90899942Y-99899942D02*
X89095000Y-98095000D01*
X89095000Y-98095000D02*
X88731002Y-98095000D01*
X88731002Y-98095000D02*
X86715000Y-98095000D01*
M02*
