M48
;DRILL file {KiCad 0.201601071449+6428~40~ubuntu14.04.1-stable} date Mon 08 Feb 2016 03:55:43 GMT
;FORMAT={-:-/ absolute / inch / decimal}
FMAT,2
INCH,TZ
T1C0.012
T2C0.016
%
G90
G05
M72
T1
X3.4862Y-3.5039
X3.5039Y-3.8346
X3.5079Y-3.4606
X3.5138Y-3.4154
X3.5276Y-4.1693
X3.5886Y-4.0856
X3.6142Y-3.8839
X3.6398Y-3.4094
X3.6457Y-3.4547
X3.6614Y-3.8114
X3.6969Y-4.0335
X3.6969Y-4.1398
X3.7343Y-3.3071
X3.7343Y-3.3465
X3.7815Y-3.3465
X3.815Y-4.1634
X3.8327Y-4.6732
X3.937Y-3.2303
X3.937Y-4.0571
X3.9882Y-3.4528
X3.998Y-4.1181
X4.0098Y-4.685
X4.0433Y-3.4528
X4.0472Y-4.3445
X4.0669Y-4.0512
X4.1102Y-4.1732
X4.122Y-3.9961
X4.1437Y-4.4094
X4.187Y-4.6575
X4.2382Y-3.9331
X4.2794Y-4.2954
X4.2933Y-4.4902
X4.2953Y-3.5256
X4.2953Y-3.6201
X4.3169Y-4.2598
T2
X3.2205Y-3.7126
X3.2205Y-3.7618
X3.2205Y-3.813
X3.2205Y-3.8622
X3.2205Y-3.9114
X3.2205Y-3.9626
X3.2205Y-4.0118
X3.2205Y-4.063
X3.2205Y-4.1122
X3.2205Y-4.1634
X3.4724Y-3.7126
X3.4724Y-3.7618
X3.4724Y-3.811
X3.4724Y-3.9134
X3.4724Y-3.9626
X3.4724Y-4.0118
X3.4724Y-4.063
X3.4724Y-4.1122
X3.4724Y-4.1634
X3.5177Y-3.9193
X3.6083Y-3.9193
X4.4016Y-3.7106
X4.4016Y-3.7618
X4.4016Y-3.811
X4.4016Y-3.8622
X4.4016Y-3.9114
X4.4016Y-3.9626
X4.4016Y-4.0118
X4.4016Y-4.061
X4.4016Y-4.1122
X4.4016Y-4.1614
X4.6535Y-3.7106
X4.6535Y-3.7618
X4.6535Y-3.813
X4.6535Y-3.8622
X4.6535Y-3.9134
X4.6535Y-3.9626
X4.6535Y-4.0118
X4.6535Y-4.063
X4.6535Y-4.1122
X4.6535Y-4.1614
T0
M30
