G04 #@! TF.FileFunction,Soldermask,Top*
%FSLAX46Y46*%
G04 Gerber Fmt 4.6, Leading zero omitted, Abs format (unit mm)*
G04 Created by KiCad (PCBNEW 4.1.0-alpha+201605071002+6776~44~ubuntu14.04.1-product) date Mon 23 May 2016 12:47:56 BST*
%MOMM*%
%LPD*%
G01*
G04 APERTURE LIST*
%ADD10C,0.100000*%
%ADD11R,0.620000X0.620000*%
%ADD12R,1.000000X0.950000*%
%ADD13R,0.950000X1.000000*%
%ADD14R,0.650000X0.350000*%
%ADD15R,0.802000X0.802000*%
%ADD16R,0.550000X1.545000*%
%ADD17R,1.545000X0.550000*%
%ADD18R,0.600000X1.100000*%
%ADD19C,0.787000*%
%ADD20C,1.000000*%
%ADD21R,1.000000X0.600000*%
%ADD22R,2.920000X0.740000*%
%ADD23C,1.200000*%
%ADD24R,0.300000X1.500000*%
%ADD25R,1.500000X0.300000*%
%ADD26R,0.850000X0.950000*%
%ADD27R,1.400000X1.700000*%
%ADD28R,0.500000X0.900000*%
G04 APERTURE END LIST*
D10*
D11*
X93900000Y-103350000D03*
X93900000Y-104250000D03*
D12*
X95900000Y-82400000D03*
X95900000Y-84000000D03*
D11*
X97950000Y-82050000D03*
X98850000Y-82050000D03*
X102050000Y-82050000D03*
X101150000Y-82050000D03*
X107250000Y-114100000D03*
X108150000Y-114100000D03*
D10*
G36*
X96856494Y-118311458D02*
X96623049Y-119283828D01*
X95699298Y-119062054D01*
X95932743Y-118089684D01*
X96856494Y-118311458D01*
X96856494Y-118311458D01*
G37*
G36*
X95300702Y-117937946D02*
X95067257Y-118910316D01*
X94143506Y-118688542D01*
X94376951Y-117716172D01*
X95300702Y-117937946D01*
X95300702Y-117937946D01*
G37*
D13*
X100800000Y-119000000D03*
X99200000Y-119000000D03*
D10*
G36*
X105623049Y-117716172D02*
X105856494Y-118688542D01*
X104932743Y-118910316D01*
X104699298Y-117937946D01*
X105623049Y-117716172D01*
X105623049Y-117716172D01*
G37*
G36*
X104067257Y-118089684D02*
X104300702Y-119062054D01*
X103376951Y-119283828D01*
X103143506Y-118311458D01*
X104067257Y-118089684D01*
X104067257Y-118089684D01*
G37*
D14*
X92700000Y-104750000D03*
X92700000Y-104100000D03*
X92700000Y-103450000D03*
X92700000Y-102800000D03*
X89600000Y-102800000D03*
X89600000Y-103450000D03*
X89600000Y-104100000D03*
X89600000Y-104750000D03*
D15*
X91150000Y-104375000D03*
X91150000Y-103175000D03*
D16*
X102000000Y-83700000D03*
X101200000Y-83700000D03*
X100400000Y-83700000D03*
X99600000Y-83700000D03*
X98800000Y-83700000D03*
X98000000Y-83700000D03*
X98000000Y-86295000D03*
X98800000Y-86295000D03*
X99600000Y-86295000D03*
X100400000Y-86295000D03*
X101200000Y-86295000D03*
X102000000Y-86295000D03*
D17*
X102297500Y-85000000D03*
X97702500Y-85000000D03*
D18*
X107025000Y-112700000D03*
X108275000Y-112700000D03*
X109525000Y-112700000D03*
X110775000Y-112700000D03*
X110775000Y-110500000D03*
X109525000Y-110500000D03*
X108275000Y-110500000D03*
X107025000Y-110500000D03*
D19*
X90210000Y-86480000D03*
X91480000Y-86480000D03*
X90210000Y-87750000D03*
X91480000Y-87750000D03*
X90210000Y-89020000D03*
X91480000Y-89020000D03*
D20*
X90845000Y-85210000D03*
X89829000Y-90290000D03*
X91861000Y-90290000D03*
D21*
X104400000Y-107000000D03*
X104400000Y-105100000D03*
X102100000Y-106050000D03*
D11*
X103650000Y-103700000D03*
X104550000Y-103700000D03*
X98750000Y-115050000D03*
X98750000Y-115950000D03*
X100000000Y-115050000D03*
X100000000Y-115950000D03*
X101250000Y-115050000D03*
X101250000Y-115950000D03*
D22*
X113285000Y-94285000D03*
X116715000Y-94285000D03*
X113285000Y-95555000D03*
X116715000Y-95555000D03*
X113285000Y-96825000D03*
X116715000Y-96825000D03*
X113285000Y-98095000D03*
X116715000Y-98095000D03*
X113285000Y-99365000D03*
X116715000Y-99365000D03*
X113285000Y-100635000D03*
X116715000Y-100635000D03*
X113285000Y-101905000D03*
X116715000Y-101905000D03*
X113285000Y-103175000D03*
X116715000Y-103175000D03*
X113285000Y-104445000D03*
X116715000Y-104445000D03*
X113285000Y-105715000D03*
X116715000Y-105715000D03*
D23*
X115000000Y-107305000D03*
X115000000Y-92695000D03*
D11*
X96650000Y-104400000D03*
X96650000Y-103500000D03*
X108200000Y-90750000D03*
X107300000Y-90750000D03*
X92700000Y-98650000D03*
X92700000Y-99550000D03*
X101550000Y-103700000D03*
X102450000Y-103700000D03*
X98950000Y-106000000D03*
X98050000Y-106000000D03*
X107550000Y-99000000D03*
X107550000Y-98100000D03*
X94850000Y-85850000D03*
X94850000Y-86750000D03*
X101550000Y-102500000D03*
X102450000Y-102500000D03*
D24*
X96250000Y-100900000D03*
X96750000Y-100900000D03*
X97250000Y-100900000D03*
X97750000Y-100900000D03*
X98250000Y-100900000D03*
X98750000Y-100900000D03*
X99250000Y-100900000D03*
X99750000Y-100900000D03*
X100250000Y-100900000D03*
X100750000Y-100900000D03*
X101250000Y-100900000D03*
X101750000Y-100900000D03*
X102250000Y-100900000D03*
X102750000Y-100900000D03*
X103250000Y-100900000D03*
X103750000Y-100900000D03*
D25*
X105700000Y-98950000D03*
X105700000Y-98450000D03*
X105700000Y-97950000D03*
X105700000Y-97450000D03*
X105700000Y-96950000D03*
X105700000Y-96450000D03*
X105700000Y-95950000D03*
X105700000Y-95450000D03*
X105700000Y-94950000D03*
X105700000Y-94450000D03*
X105700000Y-93950000D03*
X105700000Y-93450000D03*
X105700000Y-92950000D03*
X105700000Y-92450000D03*
X105700000Y-91950000D03*
X105700000Y-91450000D03*
D24*
X103750000Y-89500000D03*
X103250000Y-89500000D03*
X102750000Y-89500000D03*
X102250000Y-89500000D03*
X101750000Y-89500000D03*
X101250000Y-89500000D03*
X100750000Y-89500000D03*
X100250000Y-89500000D03*
X99750000Y-89500000D03*
X99250000Y-89500000D03*
X98750000Y-89500000D03*
X98250000Y-89500000D03*
X97750000Y-89500000D03*
X97250000Y-89500000D03*
X96750000Y-89500000D03*
X96250000Y-89500000D03*
D25*
X94300000Y-91450000D03*
X94300000Y-91950000D03*
X94300000Y-92450000D03*
X94300000Y-92950000D03*
X94300000Y-93450000D03*
X94300000Y-93950000D03*
X94300000Y-94450000D03*
X94300000Y-94950000D03*
X94300000Y-95450000D03*
X94300000Y-95950000D03*
X94300000Y-96450000D03*
X94300000Y-96950000D03*
X94300000Y-97450000D03*
X94300000Y-97950000D03*
X94300000Y-98450000D03*
X94300000Y-98950000D03*
D22*
X83285000Y-94285000D03*
X86715000Y-94285000D03*
X83285000Y-95555000D03*
X86715000Y-95555000D03*
X83285000Y-96825000D03*
X86715000Y-96825000D03*
X83285000Y-98095000D03*
X86715000Y-98095000D03*
X83285000Y-99365000D03*
X86715000Y-99365000D03*
X83285000Y-100635000D03*
X86715000Y-100635000D03*
X83285000Y-101905000D03*
X86715000Y-101905000D03*
X83285000Y-103175000D03*
X86715000Y-103175000D03*
X83285000Y-104445000D03*
X86715000Y-104445000D03*
X83285000Y-105715000D03*
X86715000Y-105715000D03*
D26*
X97925000Y-103225000D03*
X97925000Y-104675000D03*
X99075000Y-104675000D03*
X99075000Y-103225000D03*
D23*
X85000000Y-107305000D03*
X85000000Y-92695000D03*
D11*
X100350000Y-104800000D03*
X100350000Y-103900000D03*
D27*
X102250000Y-108900000D03*
X97650000Y-108900000D03*
X102250000Y-112400000D03*
D11*
X108200000Y-89550000D03*
X107300000Y-89550000D03*
X96050000Y-86750000D03*
X96050000Y-85850000D03*
X107300000Y-91950000D03*
X108200000Y-91950000D03*
D28*
X95750000Y-111100000D03*
X95750000Y-108500000D03*
M02*
