M48
;DRILL file {KiCad 0.201601071449+6428~40~ubuntu14.04.1-stable} date Tue 26 Apr 2016 00:33:01 BST
;FORMAT={-:-/ absolute / inch / decimal}
FMAT,2
INCH,TZ
T1C0.039
%
G90
G05
M72
T1
X3.1102Y-3.487
X3.1102Y-3.587
X3.1102Y-3.687
X3.1102Y-3.787
X3.1102Y-3.887
X3.1102Y-3.987
X3.1102Y-4.087
X3.1102Y-4.187
X3.1102Y-4.287
X3.1102Y-4.387
X3.5827Y-3.487
X3.5827Y-3.587
X3.5827Y-3.687
X3.5827Y-3.787
X3.5827Y-3.887
X3.5827Y-3.987
X3.5827Y-4.087
X3.5827Y-4.187
X3.5827Y-4.287
X3.5827Y-4.387
X4.2913Y-3.487
X4.2913Y-3.587
X4.2913Y-3.687
X4.2913Y-3.787
X4.2913Y-3.887
X4.2913Y-3.987
X4.2913Y-4.087
X4.2913Y-4.187
X4.2913Y-4.287
X4.2913Y-4.387
X4.7638Y-3.487
X4.7638Y-3.587
X4.7638Y-3.687
X4.7638Y-3.787
X4.7638Y-3.887
X4.7638Y-3.987
X4.7638Y-4.087
X4.7638Y-4.187
X4.7638Y-4.287
X4.7638Y-4.387
T0
M30
