G04 #@! TF.FileFunction,Copper,L2,Bot,Signal*
%FSLAX46Y46*%
G04 Gerber Fmt 4.6, Leading zero omitted, Abs format (unit mm)*
G04 Created by KiCad (PCBNEW 0.201601071449+6428~40~ubuntu14.04.1-stable) date Tue 26 Apr 2016 00:32:58 BST*
%MOMM*%
G01*
G04 APERTURE LIST*
%ADD10C,0.100000*%
%ADD11R,2.220000X0.740000*%
%ADD12R,1.900000X1.900000*%
%ADD13C,1.900000*%
%ADD14C,0.400000*%
G04 APERTURE END LIST*
D10*
D11*
X83635000Y-94285000D03*
X86365000Y-94285000D03*
X83635000Y-95555000D03*
X86365000Y-95555000D03*
X83635000Y-96825000D03*
X86365000Y-96825000D03*
X83635000Y-98095000D03*
X86365000Y-98095000D03*
X83635000Y-99365000D03*
X86365000Y-99365000D03*
X83635000Y-100635000D03*
X86365000Y-100635000D03*
X83635000Y-101905000D03*
X86365000Y-101905000D03*
X83635000Y-103175000D03*
X86365000Y-103175000D03*
X83635000Y-104445000D03*
X86365000Y-104445000D03*
X83635000Y-105715000D03*
X86365000Y-105715000D03*
X113635000Y-94285000D03*
X116365000Y-94285000D03*
X113635000Y-95555000D03*
X116365000Y-95555000D03*
X113635000Y-96825000D03*
X116365000Y-96825000D03*
X113635000Y-98095000D03*
X116365000Y-98095000D03*
X113635000Y-99365000D03*
X116365000Y-99365000D03*
X113635000Y-100635000D03*
X116365000Y-100635000D03*
X113635000Y-101905000D03*
X116365000Y-101905000D03*
X113635000Y-103175000D03*
X116365000Y-103175000D03*
X113635000Y-104445000D03*
X116365000Y-104445000D03*
X113635000Y-105715000D03*
X116365000Y-105715000D03*
D12*
X79000000Y-88570000D03*
D13*
X79000000Y-91110000D03*
X79000000Y-93650000D03*
X79000000Y-96190000D03*
X79000000Y-98730000D03*
X79000000Y-101270000D03*
X79000000Y-103810000D03*
X79000000Y-106350000D03*
X79000000Y-108890000D03*
X79000000Y-111430000D03*
D12*
X91000000Y-88570000D03*
D13*
X91000000Y-91110000D03*
X91000000Y-93650000D03*
X91000000Y-96190000D03*
X91000000Y-98730000D03*
X91000000Y-101270000D03*
X91000000Y-103810000D03*
X91000000Y-106350000D03*
X91000000Y-108890000D03*
X91000000Y-111430000D03*
D12*
X109000000Y-88570000D03*
D13*
X109000000Y-91110000D03*
X109000000Y-93650000D03*
X109000000Y-96190000D03*
X109000000Y-98730000D03*
X109000000Y-101270000D03*
X109000000Y-103810000D03*
X109000000Y-106350000D03*
X109000000Y-108890000D03*
X109000000Y-111430000D03*
D12*
X121000000Y-88570000D03*
D13*
X121000000Y-91110000D03*
X121000000Y-93650000D03*
X121000000Y-96190000D03*
X121000000Y-98730000D03*
X121000000Y-101270000D03*
X121000000Y-103810000D03*
X121000000Y-106350000D03*
X121000000Y-108890000D03*
X121000000Y-111430000D03*
D14*
X83635000Y-94285000D02*
X86365000Y-94285000D01*
X83635000Y-105715000D02*
X86365000Y-105715000D01*
X116365000Y-105715000D02*
X113635000Y-105715000D01*
X116365000Y-94285000D02*
X113635000Y-94285000D01*
X113635000Y-94285000D02*
X113635000Y-91855000D01*
X113635000Y-91855000D02*
X110350000Y-88570000D01*
X110350000Y-88570000D02*
X109000000Y-88570000D01*
X116365000Y-94285000D02*
X116365000Y-91855000D01*
X116365000Y-91855000D02*
X119650000Y-88570000D01*
X119650000Y-88570000D02*
X121000000Y-88570000D01*
X116365000Y-105715000D02*
X116365000Y-106795000D01*
X116365000Y-106795000D02*
X121000000Y-111430000D01*
X109000000Y-111430000D02*
X113635000Y-106795000D01*
X113635000Y-106795000D02*
X113635000Y-105715000D01*
X86365000Y-105715000D02*
X86365000Y-106795000D01*
X86365000Y-106795000D02*
X91000000Y-111430000D01*
X83635000Y-105715000D02*
X83635000Y-106795000D01*
X83635000Y-106795000D02*
X79000000Y-111430000D01*
X83635000Y-94285000D02*
X83635000Y-91855000D01*
X83635000Y-91855000D02*
X80350000Y-88570000D01*
X80350000Y-88570000D02*
X79000000Y-88570000D01*
X86365000Y-94285000D02*
X86365000Y-91855000D01*
X86365000Y-91855000D02*
X89650000Y-88570000D01*
X89650000Y-88570000D02*
X91000000Y-88570000D01*
X81000000Y-94430000D02*
X81000000Y-93110000D01*
X81000000Y-93110000D02*
X79000000Y-91110000D01*
X83635000Y-95555000D02*
X82124999Y-95554999D01*
X82124999Y-95554999D02*
X81000000Y-94430000D01*
X89000000Y-94430000D02*
X89000000Y-93110000D01*
X89000000Y-93110000D02*
X91000000Y-91110000D01*
X86365000Y-95555000D02*
X87875000Y-95555000D01*
X87875000Y-95555000D02*
X89000000Y-94430000D01*
X83635000Y-96825000D02*
X82125000Y-96825000D01*
X82125000Y-96825000D02*
X79000000Y-93700000D01*
X79000000Y-93700000D02*
X79000000Y-93650000D01*
X86365000Y-96825000D02*
X87875000Y-96825000D01*
X87875000Y-96825000D02*
X91000000Y-93700000D01*
X91000000Y-93700000D02*
X91000000Y-93650000D01*
X83635000Y-98095000D02*
X80905000Y-98095000D01*
X80905000Y-98095000D02*
X79000000Y-96190000D01*
X86365000Y-98095000D02*
X89095000Y-98095000D01*
X89095000Y-98095000D02*
X91000000Y-96190000D01*
X86365000Y-99365000D02*
X90365000Y-99365000D01*
X90365000Y-99365000D02*
X91000000Y-98730000D01*
X83635000Y-99365000D02*
X79635000Y-99365000D01*
X79635000Y-99365000D02*
X79000000Y-98730000D01*
X83635000Y-100635000D02*
X79635000Y-100635000D01*
X79635000Y-100635000D02*
X79000000Y-101270000D01*
X86365000Y-100635000D02*
X90365000Y-100635000D01*
X90365000Y-100635000D02*
X91000000Y-101270000D01*
X83635000Y-101905000D02*
X80905000Y-101905000D01*
X80905000Y-101905000D02*
X79000000Y-103810000D01*
X86365000Y-101905000D02*
X89095000Y-101905000D01*
X89095000Y-101905000D02*
X91000000Y-103810000D01*
X83635000Y-103175000D02*
X82125000Y-103175000D01*
X82125000Y-103175000D02*
X79000000Y-106300000D01*
X79000000Y-106300000D02*
X79000000Y-106350000D01*
X86365000Y-103175000D02*
X87875000Y-103175000D01*
X87875000Y-103175000D02*
X91000000Y-106300000D01*
X91000000Y-106300000D02*
X91000000Y-106350000D01*
X80350001Y-107649999D02*
X80240001Y-107649999D01*
X80240001Y-107649999D02*
X79000000Y-108890000D01*
X83635000Y-104445000D02*
X82125000Y-104445000D01*
X82125000Y-104445000D02*
X80350001Y-106219999D01*
X80350001Y-106219999D02*
X80350001Y-107649999D01*
X86365000Y-104445000D02*
X87875000Y-104445000D01*
X87875000Y-104445000D02*
X89649999Y-106219999D01*
X89649999Y-106219999D02*
X89649999Y-107539999D01*
X89649999Y-107539999D02*
X90050001Y-107940001D01*
X90050001Y-107940001D02*
X91000000Y-108890000D01*
X116365000Y-95555000D02*
X113635000Y-95555000D01*
X113635000Y-95555000D02*
X112124999Y-95554999D01*
X112124999Y-95554999D02*
X112124999Y-94234999D01*
X112124999Y-94234999D02*
X109000000Y-91110000D01*
X116365000Y-95555000D02*
X117875001Y-95554999D01*
X117875001Y-95554999D02*
X117875001Y-94234999D01*
X117875001Y-94234999D02*
X121000000Y-91110000D01*
X116365000Y-96825000D02*
X113635000Y-96825000D01*
X113635000Y-96825000D02*
X112125000Y-96825000D01*
X109000000Y-93700000D02*
X109000000Y-93650000D01*
X112125000Y-96825000D02*
X109000000Y-93700000D01*
X116365000Y-96825000D02*
X117875000Y-96825000D01*
X117875000Y-96825000D02*
X121000000Y-93700000D01*
X121000000Y-93700000D02*
X121000000Y-93650000D01*
X113635000Y-98095000D02*
X110905000Y-98095000D01*
X110905000Y-98095000D02*
X109000000Y-96190000D01*
X116365000Y-98095000D02*
X119095000Y-98095000D01*
X119095000Y-98095000D02*
X121000000Y-96190000D01*
X113635000Y-99365000D02*
X109635000Y-99365000D01*
X109635000Y-99365000D02*
X109000000Y-98730000D01*
X116365000Y-99365000D02*
X120365000Y-99365000D01*
X120365000Y-99365000D02*
X121000000Y-98730000D01*
X113635000Y-100635000D02*
X109635000Y-100635000D01*
X109635000Y-100635000D02*
X109000000Y-101270000D01*
X116365000Y-100635000D02*
X120365000Y-100635000D01*
X120365000Y-100635000D02*
X121000000Y-101270000D01*
X113635000Y-101905000D02*
X110905000Y-101905000D01*
X110905000Y-101905000D02*
X109000000Y-103810000D01*
X116365000Y-101905000D02*
X119095000Y-101905000D01*
X119095000Y-101905000D02*
X121000000Y-103810000D01*
X113635000Y-103175000D02*
X112125000Y-103175000D01*
X112125000Y-103175000D02*
X109000000Y-106300000D01*
X109000000Y-106300000D02*
X109000000Y-106350000D01*
X116365000Y-103175000D02*
X117875000Y-103175000D01*
X117875000Y-103175000D02*
X121000000Y-106300000D01*
X121000000Y-106300000D02*
X121000000Y-106350000D01*
X113635000Y-104445000D02*
X116365000Y-104445000D01*
X116365000Y-104445000D02*
X117875001Y-104445001D01*
X117875001Y-104445001D02*
X117875001Y-105765001D01*
X117875001Y-105765001D02*
X121000000Y-108890000D01*
X113635000Y-104445000D02*
X112124999Y-104445001D01*
X112124999Y-104445001D02*
X112124999Y-105765001D01*
X112124999Y-105765001D02*
X109000000Y-108890000D01*
M02*
