G04 #@! TF.FileFunction,Legend,Top*
%FSLAX46Y46*%
G04 Gerber Fmt 4.6, Leading zero omitted, Abs format (unit mm)*
G04 Created by KiCad (PCBNEW 0.201601071449+6428~40~ubuntu14.04.1-stable) date Tue 26 Apr 2016 00:32:58 BST*
%MOMM*%
G01*
G04 APERTURE LIST*
%ADD10C,0.100000*%
%ADD11C,0.200000*%
%ADD12C,0.150000*%
%ADD13R,2.920000X0.740000*%
%ADD14C,1.200000*%
%ADD15R,0.620000X0.620000*%
%ADD16R,1.900000X1.900000*%
%ADD17C,1.900000*%
G04 APERTURE END LIST*
D10*
D11*
X81166667Y-88652381D02*
X81166667Y-87652381D01*
X81500001Y-88366667D01*
X81833334Y-87652381D01*
X81833334Y-88652381D01*
X82214286Y-87652381D02*
X82833334Y-87652381D01*
X82500000Y-88033333D01*
X82642858Y-88033333D01*
X82738096Y-88080952D01*
X82785715Y-88128571D01*
X82833334Y-88223810D01*
X82833334Y-88461905D01*
X82785715Y-88557143D01*
X82738096Y-88604762D01*
X82642858Y-88652381D01*
X82357143Y-88652381D01*
X82261905Y-88604762D01*
X82214286Y-88557143D01*
X83214286Y-88366667D02*
X83690477Y-88366667D01*
X83119048Y-88652381D02*
X83452381Y-87652381D01*
X83785715Y-88652381D01*
X84023810Y-87985714D02*
X84261905Y-88652381D01*
X84500001Y-87985714D01*
X84880953Y-88652381D02*
X84880953Y-87985714D01*
X84880953Y-87652381D02*
X84833334Y-87700000D01*
X84880953Y-87747619D01*
X84928572Y-87700000D01*
X84880953Y-87652381D01*
X84880953Y-87747619D01*
X85500000Y-88652381D02*
X85404762Y-88604762D01*
X85357143Y-88557143D01*
X85309524Y-88461905D01*
X85309524Y-88176190D01*
X85357143Y-88080952D01*
X85404762Y-88033333D01*
X85500000Y-87985714D01*
X85642858Y-87985714D01*
X85738096Y-88033333D01*
X85785715Y-88080952D01*
X85833334Y-88176190D01*
X85833334Y-88461905D01*
X85785715Y-88557143D01*
X85738096Y-88604762D01*
X85642858Y-88652381D01*
X85500000Y-88652381D01*
X86261905Y-87985714D02*
X86261905Y-88652381D01*
X86261905Y-88080952D02*
X86309524Y-88033333D01*
X86404762Y-87985714D01*
X86547620Y-87985714D01*
X86642858Y-88033333D01*
X86690477Y-88128571D01*
X86690477Y-88652381D01*
X87166667Y-88652381D02*
X87166667Y-87985714D01*
X87166667Y-87652381D02*
X87119048Y-87700000D01*
X87166667Y-87747619D01*
X87214286Y-87700000D01*
X87166667Y-87652381D01*
X87166667Y-87747619D01*
X88071429Y-88604762D02*
X87976191Y-88652381D01*
X87785714Y-88652381D01*
X87690476Y-88604762D01*
X87642857Y-88557143D01*
X87595238Y-88461905D01*
X87595238Y-88176190D01*
X87642857Y-88080952D01*
X87690476Y-88033333D01*
X87785714Y-87985714D01*
X87976191Y-87985714D01*
X88071429Y-88033333D01*
X88452381Y-88604762D02*
X88547619Y-88652381D01*
X88738095Y-88652381D01*
X88833334Y-88604762D01*
X88880953Y-88509524D01*
X88880953Y-88461905D01*
X88833334Y-88366667D01*
X88738095Y-88319048D01*
X88595238Y-88319048D01*
X88500000Y-88271429D01*
X88452381Y-88176190D01*
X88452381Y-88128571D01*
X88500000Y-88033333D01*
X88595238Y-87985714D01*
X88738095Y-87985714D01*
X88833334Y-88033333D01*
X81142857Y-89252381D02*
X81714286Y-89252381D01*
X81428571Y-90252381D02*
X81428571Y-89252381D01*
X82190476Y-90252381D02*
X82095238Y-90204762D01*
X82047619Y-90157143D01*
X82000000Y-90061905D01*
X82000000Y-89776190D01*
X82047619Y-89680952D01*
X82095238Y-89633333D01*
X82190476Y-89585714D01*
X82333334Y-89585714D01*
X82428572Y-89633333D01*
X82476191Y-89680952D01*
X82523810Y-89776190D01*
X82523810Y-90061905D01*
X82476191Y-90157143D01*
X82428572Y-90204762D01*
X82333334Y-90252381D01*
X82190476Y-90252381D01*
X82952381Y-89585714D02*
X82952381Y-90585714D01*
X82952381Y-89633333D02*
X83047619Y-89585714D01*
X83238096Y-89585714D01*
X83333334Y-89633333D01*
X83380953Y-89680952D01*
X83428572Y-89776190D01*
X83428572Y-90061905D01*
X83380953Y-90157143D01*
X83333334Y-90204762D01*
X83238096Y-90252381D01*
X83047619Y-90252381D01*
X82952381Y-90204762D01*
X84619048Y-90252381D02*
X84619048Y-89252381D01*
X84857143Y-89252381D01*
X85000001Y-89300000D01*
X85095239Y-89395238D01*
X85142858Y-89490476D01*
X85190477Y-89680952D01*
X85190477Y-89823810D01*
X85142858Y-90014286D01*
X85095239Y-90109524D01*
X85000001Y-90204762D01*
X84857143Y-90252381D01*
X84619048Y-90252381D01*
X86000001Y-90204762D02*
X85904763Y-90252381D01*
X85714286Y-90252381D01*
X85619048Y-90204762D01*
X85571429Y-90109524D01*
X85571429Y-89728571D01*
X85619048Y-89633333D01*
X85714286Y-89585714D01*
X85904763Y-89585714D01*
X86000001Y-89633333D01*
X86047620Y-89728571D01*
X86047620Y-89823810D01*
X85571429Y-89919048D01*
X86476191Y-90252381D02*
X86476191Y-89252381D01*
X86476191Y-89633333D02*
X86571429Y-89585714D01*
X86761906Y-89585714D01*
X86857144Y-89633333D01*
X86904763Y-89680952D01*
X86952382Y-89776190D01*
X86952382Y-90061905D01*
X86904763Y-90157143D01*
X86857144Y-90204762D01*
X86761906Y-90252381D01*
X86571429Y-90252381D01*
X86476191Y-90204762D01*
X87809525Y-89585714D02*
X87809525Y-90252381D01*
X87380953Y-89585714D02*
X87380953Y-90109524D01*
X87428572Y-90204762D01*
X87523810Y-90252381D01*
X87666668Y-90252381D01*
X87761906Y-90204762D01*
X87809525Y-90157143D01*
X88714287Y-89585714D02*
X88714287Y-90395238D01*
X88666668Y-90490476D01*
X88619049Y-90538095D01*
X88523810Y-90585714D01*
X88380953Y-90585714D01*
X88285715Y-90538095D01*
X88714287Y-90204762D02*
X88619049Y-90252381D01*
X88428572Y-90252381D01*
X88333334Y-90204762D01*
X88285715Y-90157143D01*
X88238096Y-90061905D01*
X88238096Y-89776190D01*
X88285715Y-89680952D01*
X88333334Y-89633333D01*
X88428572Y-89585714D01*
X88619049Y-89585714D01*
X88714287Y-89633333D01*
X110880952Y-88366667D02*
X111357143Y-88366667D01*
X110785714Y-88652381D02*
X111119047Y-87652381D01*
X111452381Y-88652381D01*
X112214286Y-88652381D02*
X112214286Y-87652381D01*
X112214286Y-88604762D02*
X112119048Y-88652381D01*
X111928571Y-88652381D01*
X111833333Y-88604762D01*
X111785714Y-88557143D01*
X111738095Y-88461905D01*
X111738095Y-88176190D01*
X111785714Y-88080952D01*
X111833333Y-88033333D01*
X111928571Y-87985714D01*
X112119048Y-87985714D01*
X112214286Y-88033333D01*
X113119048Y-88652381D02*
X113119048Y-88128571D01*
X113071429Y-88033333D01*
X112976191Y-87985714D01*
X112785714Y-87985714D01*
X112690476Y-88033333D01*
X113119048Y-88604762D02*
X113023810Y-88652381D01*
X112785714Y-88652381D01*
X112690476Y-88604762D01*
X112642857Y-88509524D01*
X112642857Y-88414286D01*
X112690476Y-88319048D01*
X112785714Y-88271429D01*
X113023810Y-88271429D01*
X113119048Y-88223810D01*
X113595238Y-88652381D02*
X113595238Y-87985714D01*
X113595238Y-88080952D02*
X113642857Y-88033333D01*
X113738095Y-87985714D01*
X113880953Y-87985714D01*
X113976191Y-88033333D01*
X114023810Y-88128571D01*
X114023810Y-88652381D01*
X114023810Y-88128571D02*
X114071429Y-88033333D01*
X114166667Y-87985714D01*
X114309524Y-87985714D01*
X114404762Y-88033333D01*
X114452381Y-88128571D01*
X114452381Y-88652381D01*
X116214286Y-87700000D02*
X116119048Y-87652381D01*
X115976191Y-87652381D01*
X115833333Y-87700000D01*
X115738095Y-87795238D01*
X115690476Y-87890476D01*
X115642857Y-88080952D01*
X115642857Y-88223810D01*
X115690476Y-88414286D01*
X115738095Y-88509524D01*
X115833333Y-88604762D01*
X115976191Y-88652381D01*
X116071429Y-88652381D01*
X116214286Y-88604762D01*
X116261905Y-88557143D01*
X116261905Y-88223810D01*
X116071429Y-88223810D01*
X116690476Y-88652381D02*
X116690476Y-87985714D01*
X116690476Y-88176190D02*
X116738095Y-88080952D01*
X116785714Y-88033333D01*
X116880952Y-87985714D01*
X116976191Y-87985714D01*
X117690477Y-88604762D02*
X117595239Y-88652381D01*
X117404762Y-88652381D01*
X117309524Y-88604762D01*
X117261905Y-88509524D01*
X117261905Y-88128571D01*
X117309524Y-88033333D01*
X117404762Y-87985714D01*
X117595239Y-87985714D01*
X117690477Y-88033333D01*
X117738096Y-88128571D01*
X117738096Y-88223810D01*
X117261905Y-88319048D01*
X118166667Y-88652381D02*
X118166667Y-87985714D01*
X118166667Y-87652381D02*
X118119048Y-87700000D01*
X118166667Y-87747619D01*
X118214286Y-87700000D01*
X118166667Y-87652381D01*
X118166667Y-87747619D01*
X119071429Y-87985714D02*
X119071429Y-88795238D01*
X119023810Y-88890476D01*
X118976191Y-88938095D01*
X118880952Y-88985714D01*
X118738095Y-88985714D01*
X118642857Y-88938095D01*
X119071429Y-88604762D02*
X118976191Y-88652381D01*
X118785714Y-88652381D01*
X118690476Y-88604762D01*
X118642857Y-88557143D01*
X118595238Y-88461905D01*
X118595238Y-88176190D01*
X118642857Y-88080952D01*
X118690476Y-88033333D01*
X118785714Y-87985714D01*
X118976191Y-87985714D01*
X119071429Y-88033333D01*
X110619048Y-89347619D02*
X110666667Y-89300000D01*
X110761905Y-89252381D01*
X111000001Y-89252381D01*
X111095239Y-89300000D01*
X111142858Y-89347619D01*
X111190477Y-89442857D01*
X111190477Y-89538095D01*
X111142858Y-89680952D01*
X110571429Y-90252381D01*
X111190477Y-90252381D01*
X111809524Y-89252381D02*
X111904763Y-89252381D01*
X112000001Y-89300000D01*
X112047620Y-89347619D01*
X112095239Y-89442857D01*
X112142858Y-89633333D01*
X112142858Y-89871429D01*
X112095239Y-90061905D01*
X112047620Y-90157143D01*
X112000001Y-90204762D01*
X111904763Y-90252381D01*
X111809524Y-90252381D01*
X111714286Y-90204762D01*
X111666667Y-90157143D01*
X111619048Y-90061905D01*
X111571429Y-89871429D01*
X111571429Y-89633333D01*
X111619048Y-89442857D01*
X111666667Y-89347619D01*
X111714286Y-89300000D01*
X111809524Y-89252381D01*
X113095239Y-90252381D02*
X112523810Y-90252381D01*
X112809524Y-90252381D02*
X112809524Y-89252381D01*
X112714286Y-89395238D01*
X112619048Y-89490476D01*
X112523810Y-89538095D01*
X114000001Y-89252381D02*
X113523810Y-89252381D01*
X113476191Y-89728571D01*
X113523810Y-89680952D01*
X113619048Y-89633333D01*
X113857144Y-89633333D01*
X113952382Y-89680952D01*
X114000001Y-89728571D01*
X114047620Y-89823810D01*
X114047620Y-90061905D01*
X114000001Y-90157143D01*
X113952382Y-90204762D01*
X113857144Y-90252381D01*
X113619048Y-90252381D01*
X113523810Y-90204762D01*
X113476191Y-90157143D01*
X114476191Y-89871429D02*
X115238096Y-89871429D01*
X115619048Y-89252381D02*
X116238096Y-89252381D01*
X115904762Y-89633333D01*
X116047620Y-89633333D01*
X116142858Y-89680952D01*
X116190477Y-89728571D01*
X116238096Y-89823810D01*
X116238096Y-90061905D01*
X116190477Y-90157143D01*
X116142858Y-90204762D01*
X116047620Y-90252381D01*
X115761905Y-90252381D01*
X115666667Y-90204762D01*
X115619048Y-90157143D01*
X116666667Y-89871429D02*
X117428572Y-89871429D01*
X118428572Y-90252381D02*
X117857143Y-90252381D01*
X118142857Y-90252381D02*
X118142857Y-89252381D01*
X118047619Y-89395238D01*
X117952381Y-89490476D01*
X117857143Y-89538095D01*
X119380953Y-90252381D02*
X118809524Y-90252381D01*
X119095238Y-90252381D02*
X119095238Y-89252381D01*
X119000000Y-89395238D01*
X118904762Y-89490476D01*
X118809524Y-89538095D01*
D12*
X87785000Y-93635000D02*
X87785000Y-92135000D01*
X87785000Y-92135000D02*
X82215000Y-92135000D01*
X82215000Y-92135000D02*
X82215000Y-93635000D01*
X82215000Y-106365000D02*
X83715000Y-107865000D01*
X83715000Y-107865000D02*
X86285000Y-107865000D01*
X86285000Y-107865000D02*
X87785000Y-106365000D01*
X117785000Y-93635000D02*
X117785000Y-92135000D01*
X117785000Y-92135000D02*
X112215000Y-92135000D01*
X112215000Y-92135000D02*
X112215000Y-93635000D01*
X112215000Y-106365000D02*
X113715000Y-107865000D01*
X113715000Y-107865000D02*
X116285000Y-107865000D01*
X116285000Y-107865000D02*
X117785000Y-106365000D01*
X80270000Y-87300000D02*
X80270000Y-112700000D01*
X80270000Y-112700000D02*
X77730000Y-112700000D01*
X77730000Y-112700000D02*
X77730000Y-87300000D01*
X77730000Y-87300000D02*
X80270000Y-87300000D01*
X92270000Y-87300000D02*
X92270000Y-112700000D01*
X92270000Y-112700000D02*
X89730000Y-112700000D01*
X89730000Y-112700000D02*
X89730000Y-87300000D01*
X89730000Y-87300000D02*
X92270000Y-87300000D01*
X110270000Y-87300000D02*
X110270000Y-112700000D01*
X110270000Y-112700000D02*
X107730000Y-112700000D01*
X107730000Y-112700000D02*
X107730000Y-87300000D01*
X107730000Y-87300000D02*
X110270000Y-87300000D01*
X122270000Y-87300000D02*
X122270000Y-112700000D01*
X122270000Y-112700000D02*
X119730000Y-112700000D01*
X119730000Y-112700000D02*
X119730000Y-87300000D01*
X119730000Y-87300000D02*
X122270000Y-87300000D01*
%LPC*%
D13*
X83285000Y-94285000D03*
X86715000Y-94285000D03*
X83285000Y-95555000D03*
X86715000Y-95555000D03*
X83285000Y-96825000D03*
X86715000Y-96825000D03*
X83285000Y-98095000D03*
X86715000Y-98095000D03*
X83285000Y-99365000D03*
X86715000Y-99365000D03*
X83285000Y-100635000D03*
X86715000Y-100635000D03*
X83285000Y-101905000D03*
X86715000Y-101905000D03*
X83285000Y-103175000D03*
X86715000Y-103175000D03*
X83285000Y-104445000D03*
X86715000Y-104445000D03*
X83285000Y-105715000D03*
X86715000Y-105715000D03*
X113285000Y-94285000D03*
X116715000Y-94285000D03*
X113285000Y-95555000D03*
X116715000Y-95555000D03*
X113285000Y-96825000D03*
X116715000Y-96825000D03*
X113285000Y-98095000D03*
X116715000Y-98095000D03*
X113285000Y-99365000D03*
X116715000Y-99365000D03*
X113285000Y-100635000D03*
X116715000Y-100635000D03*
X113285000Y-101905000D03*
X116715000Y-101905000D03*
X113285000Y-103175000D03*
X116715000Y-103175000D03*
X113285000Y-104445000D03*
X116715000Y-104445000D03*
X113285000Y-105715000D03*
X116715000Y-105715000D03*
D14*
X85000000Y-107305000D03*
X85000000Y-92695000D03*
X115000000Y-107305000D03*
X115000000Y-92695000D03*
D15*
X89000000Y-104950000D03*
X89000000Y-104050000D03*
D16*
X79000000Y-88570000D03*
D17*
X79000000Y-91110000D03*
X79000000Y-93650000D03*
X79000000Y-96190000D03*
X79000000Y-98730000D03*
X79000000Y-101270000D03*
X79000000Y-103810000D03*
X79000000Y-106350000D03*
X79000000Y-108890000D03*
X79000000Y-111430000D03*
D16*
X91000000Y-88570000D03*
D17*
X91000000Y-91110000D03*
X91000000Y-93650000D03*
X91000000Y-96190000D03*
X91000000Y-98730000D03*
X91000000Y-101270000D03*
X91000000Y-103810000D03*
X91000000Y-106350000D03*
X91000000Y-108890000D03*
X91000000Y-111430000D03*
D16*
X109000000Y-88570000D03*
D17*
X109000000Y-91110000D03*
X109000000Y-93650000D03*
X109000000Y-96190000D03*
X109000000Y-98730000D03*
X109000000Y-101270000D03*
X109000000Y-103810000D03*
X109000000Y-106350000D03*
X109000000Y-108890000D03*
X109000000Y-111430000D03*
D16*
X121000000Y-88570000D03*
D17*
X121000000Y-91110000D03*
X121000000Y-93650000D03*
X121000000Y-96190000D03*
X121000000Y-98730000D03*
X121000000Y-101270000D03*
X121000000Y-103810000D03*
X121000000Y-106350000D03*
X121000000Y-108890000D03*
X121000000Y-111430000D03*
M02*
