G04 #@! TF.FileFunction,Soldermask,Bot*
%FSLAX46Y46*%
G04 Gerber Fmt 4.6, Leading zero omitted, Abs format (unit mm)*
G04 Created by KiCad (PCBNEW 4.0.2+e4-6225~38~ubuntu14.04.1-stable) date Sun 12 Jun 2016 22:18:03 BST*
%MOMM*%
G01*
G04 APERTURE LIST*
%ADD10C,0.100000*%
%ADD11R,0.800000X0.800000*%
%ADD12O,0.800000X0.800000*%
%ADD13R,2.220000X0.740000*%
%ADD14C,1.200000*%
%ADD15R,0.740000X2.220000*%
%ADD16R,0.900000X0.750000*%
%ADD17R,0.750000X0.900000*%
%ADD18R,0.950000X1.000000*%
%ADD19R,0.620000X0.620000*%
G04 APERTURE END LIST*
D10*
D11*
X109625000Y-91500000D03*
D12*
X108375000Y-91500000D03*
X107125000Y-91500000D03*
X105875000Y-91500000D03*
D11*
X101875000Y-91500000D03*
D12*
X100625000Y-91500000D03*
X99375000Y-91500000D03*
X98125000Y-91500000D03*
D11*
X94125000Y-91500000D03*
D12*
X92875000Y-91500000D03*
X91625000Y-91500000D03*
X90375000Y-91500000D03*
D13*
X83635000Y-94285000D03*
X86365000Y-94285000D03*
X83635000Y-95555000D03*
X86365000Y-95555000D03*
X83635000Y-96825000D03*
X86365000Y-96825000D03*
X83635000Y-98095000D03*
X86365000Y-98095000D03*
X83635000Y-99365000D03*
X86365000Y-99365000D03*
X83635000Y-100635000D03*
X86365000Y-100635000D03*
X83635000Y-101905000D03*
X86365000Y-101905000D03*
X83635000Y-103175000D03*
X86365000Y-103175000D03*
X83635000Y-104445000D03*
X86365000Y-104445000D03*
X83635000Y-105715000D03*
X86365000Y-105715000D03*
D14*
X85000000Y-107305000D03*
X85000000Y-92695000D03*
D13*
X113635000Y-94285000D03*
X116365000Y-94285000D03*
X113635000Y-95555000D03*
X116365000Y-95555000D03*
X113635000Y-96825000D03*
X116365000Y-96825000D03*
X113635000Y-98095000D03*
X116365000Y-98095000D03*
X113635000Y-99365000D03*
X116365000Y-99365000D03*
X113635000Y-100635000D03*
X116365000Y-100635000D03*
X113635000Y-101905000D03*
X116365000Y-101905000D03*
X113635000Y-103175000D03*
X116365000Y-103175000D03*
X113635000Y-104445000D03*
X116365000Y-104445000D03*
X113635000Y-105715000D03*
X116365000Y-105715000D03*
D14*
X115000000Y-107305000D03*
X115000000Y-92695000D03*
D15*
X94285000Y-116365000D03*
X94285000Y-113635000D03*
X95555000Y-116365000D03*
X95555000Y-113635000D03*
X96825000Y-116365000D03*
X96825000Y-113635000D03*
X98095000Y-116365000D03*
X98095000Y-113635000D03*
X99365000Y-116365000D03*
X99365000Y-113635000D03*
X100635000Y-116365000D03*
X100635000Y-113635000D03*
X101905000Y-116365000D03*
X101905000Y-113635000D03*
X103175000Y-116365000D03*
X103175000Y-113635000D03*
X104445000Y-116365000D03*
X104445000Y-113635000D03*
X105715000Y-116365000D03*
X105715000Y-113635000D03*
D14*
X107305000Y-115000000D03*
X92695000Y-115000000D03*
D16*
X102200000Y-96100000D03*
X102200000Y-97500000D03*
X94700000Y-96100000D03*
X94700000Y-97500000D03*
X109700000Y-96100000D03*
X109700000Y-97500000D03*
D17*
X93800000Y-100400000D03*
X95200000Y-100400000D03*
D16*
X90000000Y-97500000D03*
X90000000Y-96100000D03*
X98600000Y-97500000D03*
X98600000Y-96100000D03*
X98300000Y-100800000D03*
X98300000Y-102200000D03*
D17*
X109000000Y-100400000D03*
X110400000Y-100400000D03*
D16*
X90800000Y-100900000D03*
X90800000Y-102300000D03*
X101500000Y-105400000D03*
X101500000Y-106800000D03*
X105800000Y-101000000D03*
X105800000Y-102400000D03*
D17*
X101300000Y-100450000D03*
X102700000Y-100450000D03*
D16*
X94000000Y-105500000D03*
X94000000Y-106900000D03*
X106100000Y-97500000D03*
X106100000Y-96100000D03*
X108700000Y-105500000D03*
X108700000Y-106900000D03*
D10*
G36*
X88926687Y-104263083D02*
X89563083Y-103626687D01*
X90093413Y-104157017D01*
X89457017Y-104793413D01*
X88926687Y-104263083D01*
X88926687Y-104263083D01*
G37*
G36*
X89916637Y-105253033D02*
X90553033Y-104616637D01*
X91083363Y-105146967D01*
X90446967Y-105783363D01*
X89916637Y-105253033D01*
X89916637Y-105253033D01*
G37*
D18*
X95300000Y-99100000D03*
X93700000Y-99100000D03*
X110499999Y-99100000D03*
X108899999Y-99100000D03*
X102800000Y-99150000D03*
X101200000Y-99150000D03*
D19*
X91600000Y-93400000D03*
X91600000Y-92500000D03*
X92900000Y-93400000D03*
X92900000Y-92500000D03*
X101900000Y-93400000D03*
X101900000Y-92500000D03*
X99350000Y-93400000D03*
X99350000Y-92500000D03*
X100650000Y-93400000D03*
X100650000Y-92500000D03*
X95050000Y-93400000D03*
X95050000Y-92500000D03*
X107100000Y-93450000D03*
X107100000Y-92550000D03*
X108400000Y-93450000D03*
X108400000Y-92550000D03*
X109650000Y-93450000D03*
X109650000Y-92550000D03*
M02*
