G04 #@! TF.FileFunction,Legend,Top*
%FSLAX46Y46*%
G04 Gerber Fmt 4.6, Leading zero omitted, Abs format (unit mm)*
G04 Created by KiCad (PCBNEW 4.0.2+e4-6225~38~ubuntu14.04.1-stable) date Tue 14 Jun 2016 22:37:56 BST*
%MOMM*%
G01*
G04 APERTURE LIST*
%ADD10C,0.100000*%
%ADD11C,0.160000*%
%ADD12C,0.150000*%
%ADD13R,0.800000X0.800000*%
%ADD14O,0.800000X0.800000*%
%ADD15R,1.450000X0.450000*%
%ADD16R,0.950000X0.400000*%
%ADD17R,2.920000X0.740000*%
%ADD18C,1.200000*%
%ADD19R,0.740000X2.920000*%
%ADD20R,0.750000X0.900000*%
G04 APERTURE END LIST*
D10*
D11*
X104350000Y-110885714D02*
X104521429Y-110942857D01*
X104807143Y-110942857D01*
X104921429Y-110885714D01*
X104978572Y-110828571D01*
X105035715Y-110714286D01*
X105035715Y-110600000D01*
X104978572Y-110485714D01*
X104921429Y-110428571D01*
X104807143Y-110371429D01*
X104578572Y-110314286D01*
X104464286Y-110257143D01*
X104407143Y-110200000D01*
X104350000Y-110085714D01*
X104350000Y-109971429D01*
X104407143Y-109857143D01*
X104464286Y-109800000D01*
X104578572Y-109742857D01*
X104864286Y-109742857D01*
X105035715Y-109800000D01*
X105378572Y-109742857D02*
X106064286Y-109742857D01*
X105721429Y-110942857D02*
X105721429Y-109742857D01*
X107150001Y-110942857D02*
X106750001Y-110371429D01*
X106464286Y-110942857D02*
X106464286Y-109742857D01*
X106921429Y-109742857D01*
X107035715Y-109800000D01*
X107092858Y-109857143D01*
X107150001Y-109971429D01*
X107150001Y-110142857D01*
X107092858Y-110257143D01*
X107035715Y-110314286D01*
X106921429Y-110371429D01*
X106464286Y-110371429D01*
X107607143Y-110600000D02*
X108178572Y-110600000D01*
X107492858Y-110942857D02*
X107892858Y-109742857D01*
X108292858Y-110942857D01*
X108692857Y-110942857D02*
X108692857Y-109742857D01*
X109264286Y-110942857D02*
X109264286Y-109742857D01*
X109950001Y-110942857D01*
X109950001Y-109742857D01*
X110407144Y-109742857D02*
X111150001Y-109742857D01*
X110750001Y-110200000D01*
X110921429Y-110200000D01*
X111035715Y-110257143D01*
X111092858Y-110314286D01*
X111150001Y-110428571D01*
X111150001Y-110714286D01*
X111092858Y-110828571D01*
X111035715Y-110885714D01*
X110921429Y-110942857D01*
X110578572Y-110942857D01*
X110464286Y-110885714D01*
X110407144Y-110828571D01*
X96600000Y-110885714D02*
X96771429Y-110942857D01*
X97057143Y-110942857D01*
X97171429Y-110885714D01*
X97228572Y-110828571D01*
X97285715Y-110714286D01*
X97285715Y-110600000D01*
X97228572Y-110485714D01*
X97171429Y-110428571D01*
X97057143Y-110371429D01*
X96828572Y-110314286D01*
X96714286Y-110257143D01*
X96657143Y-110200000D01*
X96600000Y-110085714D01*
X96600000Y-109971429D01*
X96657143Y-109857143D01*
X96714286Y-109800000D01*
X96828572Y-109742857D01*
X97114286Y-109742857D01*
X97285715Y-109800000D01*
X97628572Y-109742857D02*
X98314286Y-109742857D01*
X97971429Y-110942857D02*
X97971429Y-109742857D01*
X99400001Y-110942857D02*
X99000001Y-110371429D01*
X98714286Y-110942857D02*
X98714286Y-109742857D01*
X99171429Y-109742857D01*
X99285715Y-109800000D01*
X99342858Y-109857143D01*
X99400001Y-109971429D01*
X99400001Y-110142857D01*
X99342858Y-110257143D01*
X99285715Y-110314286D01*
X99171429Y-110371429D01*
X98714286Y-110371429D01*
X99857143Y-110600000D02*
X100428572Y-110600000D01*
X99742858Y-110942857D02*
X100142858Y-109742857D01*
X100542858Y-110942857D01*
X100942857Y-110942857D02*
X100942857Y-109742857D01*
X101514286Y-110942857D02*
X101514286Y-109742857D01*
X102200001Y-110942857D01*
X102200001Y-109742857D01*
X102714286Y-109857143D02*
X102771429Y-109800000D01*
X102885715Y-109742857D01*
X103171429Y-109742857D01*
X103285715Y-109800000D01*
X103342858Y-109857143D01*
X103400001Y-109971429D01*
X103400001Y-110085714D01*
X103342858Y-110257143D01*
X102657144Y-110942857D01*
X103400001Y-110942857D01*
X89100000Y-110835714D02*
X89271429Y-110892857D01*
X89557143Y-110892857D01*
X89671429Y-110835714D01*
X89728572Y-110778571D01*
X89785715Y-110664286D01*
X89785715Y-110550000D01*
X89728572Y-110435714D01*
X89671429Y-110378571D01*
X89557143Y-110321429D01*
X89328572Y-110264286D01*
X89214286Y-110207143D01*
X89157143Y-110150000D01*
X89100000Y-110035714D01*
X89100000Y-109921429D01*
X89157143Y-109807143D01*
X89214286Y-109750000D01*
X89328572Y-109692857D01*
X89614286Y-109692857D01*
X89785715Y-109750000D01*
X90128572Y-109692857D02*
X90814286Y-109692857D01*
X90471429Y-110892857D02*
X90471429Y-109692857D01*
X91900001Y-110892857D02*
X91500001Y-110321429D01*
X91214286Y-110892857D02*
X91214286Y-109692857D01*
X91671429Y-109692857D01*
X91785715Y-109750000D01*
X91842858Y-109807143D01*
X91900001Y-109921429D01*
X91900001Y-110092857D01*
X91842858Y-110207143D01*
X91785715Y-110264286D01*
X91671429Y-110321429D01*
X91214286Y-110321429D01*
X92357143Y-110550000D02*
X92928572Y-110550000D01*
X92242858Y-110892857D02*
X92642858Y-109692857D01*
X93042858Y-110892857D01*
X93442857Y-110892857D02*
X93442857Y-109692857D01*
X94014286Y-110892857D02*
X94014286Y-109692857D01*
X94700001Y-110892857D01*
X94700001Y-109692857D01*
X95900001Y-110892857D02*
X95214286Y-110892857D01*
X95557144Y-110892857D02*
X95557144Y-109692857D01*
X95442858Y-109864286D01*
X95328572Y-109978571D01*
X95214286Y-110035714D01*
D12*
X111125000Y-92300000D02*
X111125000Y-87050000D01*
X111125000Y-87050000D02*
X104375000Y-87050000D01*
X104375000Y-87050000D02*
X104375000Y-90700000D01*
X103375000Y-92300000D02*
X103375000Y-87050000D01*
X103375000Y-87050000D02*
X96625000Y-87050000D01*
X96625000Y-87050000D02*
X96625000Y-90700000D01*
X95625000Y-92300000D02*
X95625000Y-87050000D01*
X95625000Y-87050000D02*
X88875000Y-87050000D01*
X88875000Y-87050000D02*
X88875000Y-90700000D01*
X107875000Y-97875000D02*
X106525000Y-97875000D01*
X106525000Y-97875000D02*
X106525000Y-95925000D01*
X106525000Y-95925000D02*
X108475000Y-95925000D01*
X108475000Y-95925000D02*
X108475000Y-97275000D01*
X108475000Y-97275000D02*
X107875000Y-97875000D01*
X106075000Y-100450000D02*
X106075000Y-100450000D01*
X106075000Y-100450000D02*
X106075000Y-99150000D01*
X106075000Y-99150000D02*
X106325000Y-99150000D01*
X106325000Y-99150000D02*
X106325000Y-100200000D01*
X106325000Y-100200000D02*
X106075000Y-100450000D01*
X92875000Y-97875000D02*
X91525000Y-97875000D01*
X91525000Y-97875000D02*
X91525000Y-95925000D01*
X91525000Y-95925000D02*
X93475000Y-95925000D01*
X93475000Y-95925000D02*
X93475000Y-97275000D01*
X93475000Y-97275000D02*
X92875000Y-97875000D01*
X91075000Y-100450000D02*
X91075000Y-100450000D01*
X91075000Y-100450000D02*
X91075000Y-99150000D01*
X91075000Y-99150000D02*
X91325000Y-99150000D01*
X91325000Y-99150000D02*
X91325000Y-100200000D01*
X91325000Y-100200000D02*
X91075000Y-100450000D01*
X92125000Y-103825000D02*
X93475000Y-103825000D01*
X93475000Y-103825000D02*
X93475000Y-105775000D01*
X93475000Y-105775000D02*
X91525000Y-105775000D01*
X91525000Y-105775000D02*
X91525000Y-104425000D01*
X91525000Y-104425000D02*
X92125000Y-103825000D01*
X100375000Y-97875000D02*
X99025000Y-97875000D01*
X99025000Y-97875000D02*
X99025000Y-95925000D01*
X99025000Y-95925000D02*
X100975000Y-95925000D01*
X100975000Y-95925000D02*
X100975000Y-97275000D01*
X100975000Y-97275000D02*
X100375000Y-97875000D01*
X98575000Y-100450000D02*
X98575000Y-100450000D01*
X98575000Y-100450000D02*
X98575000Y-99150000D01*
X98575000Y-99150000D02*
X98825000Y-99150000D01*
X98825000Y-99150000D02*
X98825000Y-100200000D01*
X98825000Y-100200000D02*
X98575000Y-100450000D01*
X99625000Y-103825000D02*
X100975000Y-103825000D01*
X100975000Y-103825000D02*
X100975000Y-105775000D01*
X100975000Y-105775000D02*
X99025000Y-105775000D01*
X99025000Y-105775000D02*
X99025000Y-104425000D01*
X99025000Y-104425000D02*
X99625000Y-103825000D01*
X107125000Y-103825000D02*
X108475000Y-103825000D01*
X108475000Y-103825000D02*
X108475000Y-105775000D01*
X108475000Y-105775000D02*
X106525000Y-105775000D01*
X106525000Y-105775000D02*
X106525000Y-104425000D01*
X106525000Y-104425000D02*
X107125000Y-103825000D01*
X87785000Y-93635000D02*
X87785000Y-92135000D01*
X87785000Y-92135000D02*
X82215000Y-92135000D01*
X82215000Y-92135000D02*
X82215000Y-93635000D01*
X82215000Y-106365000D02*
X83715000Y-107865000D01*
X83715000Y-107865000D02*
X86285000Y-107865000D01*
X86285000Y-107865000D02*
X87785000Y-106365000D01*
X117785000Y-93635000D02*
X117785000Y-92135000D01*
X117785000Y-92135000D02*
X112215000Y-92135000D01*
X112215000Y-92135000D02*
X112215000Y-93635000D01*
X112215000Y-106365000D02*
X113715000Y-107865000D01*
X113715000Y-107865000D02*
X116285000Y-107865000D01*
X116285000Y-107865000D02*
X117785000Y-106365000D01*
X93635000Y-112215000D02*
X92135000Y-112215000D01*
X92135000Y-112215000D02*
X92135000Y-117785000D01*
X92135000Y-117785000D02*
X93635000Y-117785000D01*
X106365000Y-117785000D02*
X107865000Y-116285000D01*
X107865000Y-116285000D02*
X107865000Y-113715000D01*
X107865000Y-113715000D02*
X106365000Y-112215000D01*
X101575000Y-108075000D02*
X101825000Y-108075000D01*
X101825000Y-108075000D02*
X101825000Y-108725000D01*
X101825000Y-108725000D02*
X101575000Y-108725000D01*
X101575000Y-108725000D02*
X101575000Y-108075000D01*
X98325000Y-107425000D02*
X98075000Y-107425000D01*
X98075000Y-107425000D02*
X98075000Y-106775000D01*
X98075000Y-106775000D02*
X98325000Y-106775000D01*
X98325000Y-106775000D02*
X98325000Y-107425000D01*
X98225000Y-102925000D02*
X97975000Y-102925000D01*
X97975000Y-102925000D02*
X97975000Y-102275000D01*
X97975000Y-102275000D02*
X98225000Y-102275000D01*
X98225000Y-102275000D02*
X98225000Y-102925000D01*
X101775000Y-101075000D02*
X102025000Y-101075000D01*
X102025000Y-101075000D02*
X102025000Y-101725000D01*
X102025000Y-101725000D02*
X101775000Y-101725000D01*
X101775000Y-101725000D02*
X101775000Y-101075000D01*
X102275000Y-94375000D02*
X102525000Y-94375000D01*
X102525000Y-94375000D02*
X102525000Y-95025000D01*
X102525000Y-95025000D02*
X102275000Y-95025000D01*
X102275000Y-95025000D02*
X102275000Y-94375000D01*
X99900000Y-94375000D02*
X100150000Y-94375000D01*
X100150000Y-94375000D02*
X100150000Y-95025000D01*
X100150000Y-95025000D02*
X99900000Y-95025000D01*
X99900000Y-95025000D02*
X99900000Y-94375000D01*
X97525000Y-94375000D02*
X97775000Y-94375000D01*
X97775000Y-94375000D02*
X97775000Y-95025000D01*
X97775000Y-95025000D02*
X97525000Y-95025000D01*
X97525000Y-95025000D02*
X97525000Y-94375000D01*
X94075000Y-108075000D02*
X94325000Y-108075000D01*
X94325000Y-108075000D02*
X94325000Y-108725000D01*
X94325000Y-108725000D02*
X94075000Y-108725000D01*
X94075000Y-108725000D02*
X94075000Y-108075000D01*
X109075000Y-108075000D02*
X109325000Y-108075000D01*
X109325000Y-108075000D02*
X109325000Y-108725000D01*
X109325000Y-108725000D02*
X109075000Y-108725000D01*
X109075000Y-108725000D02*
X109075000Y-108075000D01*
X90825000Y-107425000D02*
X90575000Y-107425000D01*
X90575000Y-107425000D02*
X90575000Y-106775000D01*
X90575000Y-106775000D02*
X90825000Y-106775000D01*
X90825000Y-106775000D02*
X90825000Y-107425000D01*
X105825000Y-107425000D02*
X105575000Y-107425000D01*
X105575000Y-107425000D02*
X105575000Y-106775000D01*
X105575000Y-106775000D02*
X105825000Y-106775000D01*
X105825000Y-106775000D02*
X105825000Y-107425000D01*
X90725000Y-102925000D02*
X90475000Y-102925000D01*
X90475000Y-102925000D02*
X90475000Y-102275000D01*
X90475000Y-102275000D02*
X90725000Y-102275000D01*
X90725000Y-102275000D02*
X90725000Y-102925000D01*
X105725000Y-102925000D02*
X105475000Y-102925000D01*
X105475000Y-102925000D02*
X105475000Y-102275000D01*
X105475000Y-102275000D02*
X105725000Y-102275000D01*
X105725000Y-102275000D02*
X105725000Y-102925000D01*
X94275000Y-101075000D02*
X94525000Y-101075000D01*
X94525000Y-101075000D02*
X94525000Y-101725000D01*
X94525000Y-101725000D02*
X94275000Y-101725000D01*
X94275000Y-101725000D02*
X94275000Y-101075000D01*
X109275000Y-101075000D02*
X109525000Y-101075000D01*
X109525000Y-101075000D02*
X109525000Y-101725000D01*
X109525000Y-101725000D02*
X109275000Y-101725000D01*
X109275000Y-101725000D02*
X109275000Y-101075000D01*
X94775000Y-94375000D02*
X95025000Y-94375000D01*
X95025000Y-94375000D02*
X95025000Y-95025000D01*
X95025000Y-95025000D02*
X94775000Y-95025000D01*
X94775000Y-95025000D02*
X94775000Y-94375000D01*
X92400000Y-94375000D02*
X92650000Y-94375000D01*
X92650000Y-94375000D02*
X92650000Y-95025000D01*
X92650000Y-95025000D02*
X92400000Y-95025000D01*
X92400000Y-95025000D02*
X92400000Y-94375000D01*
X90025000Y-94375000D02*
X90275000Y-94375000D01*
X90275000Y-94375000D02*
X90275000Y-95025000D01*
X90275000Y-95025000D02*
X90025000Y-95025000D01*
X90025000Y-95025000D02*
X90025000Y-94375000D01*
X109875000Y-94375000D02*
X110125000Y-94375000D01*
X110125000Y-94375000D02*
X110125000Y-95025000D01*
X110125000Y-95025000D02*
X109875000Y-95025000D01*
X109875000Y-95025000D02*
X109875000Y-94375000D01*
X107400000Y-94375000D02*
X107650000Y-94375000D01*
X107650000Y-94375000D02*
X107650000Y-95025000D01*
X107650000Y-95025000D02*
X107400000Y-95025000D01*
X107400000Y-95025000D02*
X107400000Y-94375000D01*
X105025000Y-94375000D02*
X105275000Y-94375000D01*
X105275000Y-94375000D02*
X105275000Y-95025000D01*
X105275000Y-95025000D02*
X105025000Y-95025000D01*
X105025000Y-95025000D02*
X105025000Y-94375000D01*
X101825000Y-107425000D02*
X101575000Y-107425000D01*
X101575000Y-107425000D02*
X101575000Y-106775000D01*
X101575000Y-106775000D02*
X101825000Y-106775000D01*
X101825000Y-106775000D02*
X101825000Y-107425000D01*
X98075000Y-108075000D02*
X98325000Y-108075000D01*
X98325000Y-108075000D02*
X98325000Y-108725000D01*
X98325000Y-108725000D02*
X98075000Y-108725000D01*
X98075000Y-108725000D02*
X98075000Y-108075000D01*
X101775000Y-102275000D02*
X102025000Y-102275000D01*
X102025000Y-102275000D02*
X102025000Y-102925000D01*
X102025000Y-102925000D02*
X101775000Y-102925000D01*
X101775000Y-102925000D02*
X101775000Y-102275000D01*
X98225000Y-101725000D02*
X97975000Y-101725000D01*
X97975000Y-101725000D02*
X97975000Y-101075000D01*
X97975000Y-101075000D02*
X98225000Y-101075000D01*
X98225000Y-101075000D02*
X98225000Y-101725000D01*
X102125000Y-100625000D02*
X101875000Y-100625000D01*
X101875000Y-100625000D02*
X101875000Y-99975000D01*
X101875000Y-99975000D02*
X102125000Y-99975000D01*
X102125000Y-99975000D02*
X102125000Y-100625000D01*
X101875000Y-98775000D02*
X102125000Y-98775000D01*
X102125000Y-98775000D02*
X102125000Y-99425000D01*
X102125000Y-99425000D02*
X101875000Y-99425000D01*
X101875000Y-99425000D02*
X101875000Y-98775000D01*
X101575000Y-93925000D02*
X101325000Y-93925000D01*
X101325000Y-93925000D02*
X101325000Y-93275000D01*
X101325000Y-93275000D02*
X101575000Y-93275000D01*
X101575000Y-93275000D02*
X101575000Y-93925000D01*
X98575000Y-93275000D02*
X98825000Y-93275000D01*
X98825000Y-93275000D02*
X98825000Y-93925000D01*
X98825000Y-93925000D02*
X98575000Y-93925000D01*
X98575000Y-93925000D02*
X98575000Y-93275000D01*
X94325000Y-107425000D02*
X94075000Y-107425000D01*
X94075000Y-107425000D02*
X94075000Y-106775000D01*
X94075000Y-106775000D02*
X94325000Y-106775000D01*
X94325000Y-106775000D02*
X94325000Y-107425000D01*
X109325000Y-107425000D02*
X109075000Y-107425000D01*
X109075000Y-107425000D02*
X109075000Y-106775000D01*
X109075000Y-106775000D02*
X109325000Y-106775000D01*
X109325000Y-106775000D02*
X109325000Y-107425000D01*
X90575000Y-108075000D02*
X90825000Y-108075000D01*
X90825000Y-108075000D02*
X90825000Y-108725000D01*
X90825000Y-108725000D02*
X90575000Y-108725000D01*
X90575000Y-108725000D02*
X90575000Y-108075000D01*
X105575000Y-108075000D02*
X105825000Y-108075000D01*
X105825000Y-108075000D02*
X105825000Y-108725000D01*
X105825000Y-108725000D02*
X105575000Y-108725000D01*
X105575000Y-108725000D02*
X105575000Y-108075000D01*
X94275000Y-102275000D02*
X94525000Y-102275000D01*
X94525000Y-102275000D02*
X94525000Y-102925000D01*
X94525000Y-102925000D02*
X94275000Y-102925000D01*
X94275000Y-102925000D02*
X94275000Y-102275000D01*
X109275000Y-102275000D02*
X109525000Y-102275000D01*
X109525000Y-102275000D02*
X109525000Y-102925000D01*
X109525000Y-102925000D02*
X109275000Y-102925000D01*
X109275000Y-102925000D02*
X109275000Y-102275000D01*
X90725000Y-101725000D02*
X90475000Y-101725000D01*
X90475000Y-101725000D02*
X90475000Y-101075000D01*
X90475000Y-101075000D02*
X90725000Y-101075000D01*
X90725000Y-101075000D02*
X90725000Y-101725000D01*
X105725000Y-101725000D02*
X105475000Y-101725000D01*
X105475000Y-101725000D02*
X105475000Y-101075000D01*
X105475000Y-101075000D02*
X105725000Y-101075000D01*
X105725000Y-101075000D02*
X105725000Y-101725000D01*
X94625000Y-100625000D02*
X94375000Y-100625000D01*
X94375000Y-100625000D02*
X94375000Y-99975000D01*
X94375000Y-99975000D02*
X94625000Y-99975000D01*
X94625000Y-99975000D02*
X94625000Y-100625000D01*
X94375000Y-98775000D02*
X94625000Y-98775000D01*
X94625000Y-98775000D02*
X94625000Y-99425000D01*
X94625000Y-99425000D02*
X94375000Y-99425000D01*
X94375000Y-99425000D02*
X94375000Y-98775000D01*
X109625000Y-100625000D02*
X109375000Y-100625000D01*
X109375000Y-100625000D02*
X109375000Y-99975000D01*
X109375000Y-99975000D02*
X109625000Y-99975000D01*
X109625000Y-99975000D02*
X109625000Y-100625000D01*
X109375000Y-98775000D02*
X109625000Y-98775000D01*
X109625000Y-98775000D02*
X109625000Y-99425000D01*
X109625000Y-99425000D02*
X109375000Y-99425000D01*
X109375000Y-99425000D02*
X109375000Y-98775000D01*
X94075000Y-93925000D02*
X93825000Y-93925000D01*
X93825000Y-93925000D02*
X93825000Y-93275000D01*
X93825000Y-93275000D02*
X94075000Y-93275000D01*
X94075000Y-93275000D02*
X94075000Y-93925000D01*
X90975000Y-93275000D02*
X91225000Y-93275000D01*
X91225000Y-93275000D02*
X91225000Y-93925000D01*
X91225000Y-93925000D02*
X90975000Y-93925000D01*
X90975000Y-93925000D02*
X90975000Y-93275000D01*
X109075000Y-93925000D02*
X108825000Y-93925000D01*
X108825000Y-93925000D02*
X108825000Y-93275000D01*
X108825000Y-93275000D02*
X109075000Y-93275000D01*
X109075000Y-93275000D02*
X109075000Y-93925000D01*
X105975000Y-93275000D02*
X106225000Y-93275000D01*
X106225000Y-93275000D02*
X106225000Y-93925000D01*
X106225000Y-93925000D02*
X105975000Y-93925000D01*
X105975000Y-93925000D02*
X105975000Y-93275000D01*
X86804107Y-113086949D02*
X85814157Y-112097000D01*
X88642585Y-112097000D02*
X87228371Y-110682786D01*
X86804107Y-113086950D02*
G75*
G03X87228371Y-113511214I212132J-212132D01*
G01*
%LPC*%
D13*
X109625000Y-91500000D03*
D14*
X108375000Y-91500000D03*
X107125000Y-91500000D03*
X105875000Y-91500000D03*
D13*
X101875000Y-91500000D03*
D14*
X100625000Y-91500000D03*
X99375000Y-91500000D03*
X98125000Y-91500000D03*
D13*
X94125000Y-91500000D03*
D14*
X92875000Y-91500000D03*
X91625000Y-91500000D03*
X90375000Y-91500000D03*
D15*
X109700000Y-97875000D03*
X109700000Y-97225000D03*
X109700000Y-96575000D03*
X109700000Y-95925000D03*
X105300000Y-95925000D03*
X105300000Y-96575000D03*
X105300000Y-97225000D03*
X105300000Y-97875000D03*
D16*
X107300000Y-100450000D03*
X107300000Y-99800000D03*
X107300000Y-99150000D03*
X105100000Y-99150000D03*
X105100000Y-100450000D03*
D15*
X94700000Y-97875000D03*
X94700000Y-97225000D03*
X94700000Y-96575000D03*
X94700000Y-95925000D03*
X90300000Y-95925000D03*
X90300000Y-96575000D03*
X90300000Y-97225000D03*
X90300000Y-97875000D03*
D16*
X92300000Y-100450000D03*
X92300000Y-99800000D03*
X92300000Y-99150000D03*
X90100000Y-99150000D03*
X90100000Y-100450000D03*
D15*
X90300000Y-103825000D03*
X90300000Y-104475000D03*
X90300000Y-105125000D03*
X90300000Y-105775000D03*
X94700000Y-105775000D03*
X94700000Y-105125000D03*
X94700000Y-104475000D03*
X94700000Y-103825000D03*
X102200000Y-97875000D03*
X102200000Y-97225000D03*
X102200000Y-96575000D03*
X102200000Y-95925000D03*
X97800000Y-95925000D03*
X97800000Y-96575000D03*
X97800000Y-97225000D03*
X97800000Y-97875000D03*
D16*
X99800000Y-100450000D03*
X99800000Y-99800000D03*
X99800000Y-99150000D03*
X97600000Y-99150000D03*
X97600000Y-100450000D03*
D15*
X97800000Y-103825000D03*
X97800000Y-104475000D03*
X97800000Y-105125000D03*
X97800000Y-105775000D03*
X102200000Y-105775000D03*
X102200000Y-105125000D03*
X102200000Y-104475000D03*
X102200000Y-103825000D03*
X105300000Y-103825000D03*
X105300000Y-104475000D03*
X105300000Y-105125000D03*
X105300000Y-105775000D03*
X109700000Y-105775000D03*
X109700000Y-105125000D03*
X109700000Y-104475000D03*
X109700000Y-103825000D03*
D17*
X83285000Y-94285000D03*
X86715000Y-94285000D03*
X83285000Y-95555000D03*
X86715000Y-95555000D03*
X83285000Y-96825000D03*
X86715000Y-96825000D03*
X83285000Y-98095000D03*
X86715000Y-98095000D03*
X83285000Y-99365000D03*
X86715000Y-99365000D03*
X83285000Y-100635000D03*
X86715000Y-100635000D03*
X83285000Y-101905000D03*
X86715000Y-101905000D03*
X83285000Y-103175000D03*
X86715000Y-103175000D03*
X83285000Y-104445000D03*
X86715000Y-104445000D03*
X83285000Y-105715000D03*
X86715000Y-105715000D03*
X113285000Y-94285000D03*
X116715000Y-94285000D03*
X113285000Y-95555000D03*
X116715000Y-95555000D03*
X113285000Y-96825000D03*
X116715000Y-96825000D03*
X113285000Y-98095000D03*
X116715000Y-98095000D03*
X113285000Y-99365000D03*
X116715000Y-99365000D03*
X113285000Y-100635000D03*
X116715000Y-100635000D03*
X113285000Y-101905000D03*
X116715000Y-101905000D03*
X113285000Y-103175000D03*
X116715000Y-103175000D03*
X113285000Y-104445000D03*
X116715000Y-104445000D03*
X113285000Y-105715000D03*
X116715000Y-105715000D03*
D18*
X85000000Y-107305000D03*
X85000000Y-92695000D03*
X115000000Y-107305000D03*
X115000000Y-92695000D03*
D19*
X94285000Y-116715000D03*
X94285000Y-113285000D03*
X95555000Y-116715000D03*
X95555000Y-113285000D03*
X96825000Y-116715000D03*
X96825000Y-113285000D03*
X98095000Y-116715000D03*
X98095000Y-113285000D03*
X99365000Y-116715000D03*
X99365000Y-113285000D03*
X100635000Y-116715000D03*
X100635000Y-113285000D03*
X101905000Y-116715000D03*
X101905000Y-113285000D03*
X103175000Y-116715000D03*
X103175000Y-113285000D03*
X104445000Y-116715000D03*
X104445000Y-113285000D03*
X105715000Y-116715000D03*
X105715000Y-113285000D03*
D18*
X107305000Y-115000000D03*
X92695000Y-115000000D03*
D20*
X101000000Y-108400000D03*
X102400000Y-108400000D03*
X98900000Y-107100000D03*
X97500000Y-107100000D03*
X98800000Y-102600000D03*
X97400000Y-102600000D03*
X101200000Y-101400000D03*
X102600000Y-101400000D03*
X101700000Y-94700000D03*
X103100000Y-94700000D03*
X99325000Y-94700000D03*
X100725000Y-94700000D03*
X96950000Y-94700000D03*
X98350000Y-94700000D03*
X93500000Y-108400000D03*
X94900000Y-108400000D03*
X108500000Y-108400000D03*
X109900000Y-108400000D03*
X91400000Y-107100000D03*
X90000000Y-107100000D03*
X106400000Y-107100000D03*
X105000000Y-107100000D03*
X91300000Y-102600000D03*
X89900000Y-102600000D03*
X106300000Y-102600000D03*
X104900000Y-102600000D03*
X93700000Y-101400000D03*
X95100000Y-101400000D03*
X108700000Y-101400000D03*
X110100000Y-101400000D03*
X94200000Y-94700000D03*
X95600000Y-94700000D03*
X91825000Y-94700000D03*
X93225000Y-94700000D03*
X89450000Y-94700000D03*
X90850000Y-94700000D03*
X109300000Y-94700000D03*
X110700000Y-94700000D03*
X106825000Y-94700000D03*
X108225000Y-94700000D03*
X104450000Y-94700000D03*
X105850000Y-94700000D03*
X102400000Y-107100000D03*
X101000000Y-107100000D03*
X97500000Y-108400000D03*
X98900000Y-108400000D03*
X101200000Y-102600000D03*
X102600000Y-102600000D03*
X98800000Y-101400000D03*
X97400000Y-101400000D03*
X102700000Y-100300000D03*
X101300000Y-100300000D03*
X101300000Y-99100000D03*
X102700000Y-99100000D03*
X102150000Y-93600000D03*
X100750000Y-93600000D03*
X98000000Y-93600000D03*
X99400000Y-93600000D03*
X94900000Y-107100000D03*
X93500000Y-107100000D03*
X109900000Y-107100000D03*
X108500000Y-107100000D03*
X90000000Y-108400000D03*
X91400000Y-108400000D03*
X105000000Y-108400000D03*
X106400000Y-108400000D03*
X93700000Y-102600000D03*
X95100000Y-102600000D03*
X108700000Y-102600000D03*
X110100000Y-102600000D03*
X91300000Y-101400000D03*
X89900000Y-101400000D03*
X106300000Y-101400000D03*
X104900000Y-101400000D03*
X95200000Y-100300000D03*
X93800000Y-100300000D03*
X93800000Y-99100000D03*
X95200000Y-99100000D03*
X110200000Y-100300000D03*
X108800000Y-100300000D03*
X108800000Y-99100000D03*
X110200000Y-99100000D03*
X94650000Y-93600000D03*
X93250000Y-93600000D03*
X90400000Y-93600000D03*
X91800000Y-93600000D03*
X109650000Y-93600000D03*
X108250000Y-93600000D03*
X105400000Y-93600000D03*
X106800000Y-93600000D03*
D10*
G36*
X85547309Y-110613927D02*
X85915005Y-110981623D01*
X85547309Y-111349319D01*
X85179613Y-110981623D01*
X85547309Y-110613927D01*
X85547309Y-110613927D01*
G37*
G36*
X84981623Y-111179613D02*
X85349319Y-111547309D01*
X84981623Y-111915005D01*
X84613927Y-111547309D01*
X84981623Y-111179613D01*
X84981623Y-111179613D01*
G37*
G36*
X87442354Y-110133095D02*
X87810050Y-109765399D01*
X88177746Y-110133095D01*
X87810050Y-110500791D01*
X87442354Y-110133095D01*
X87442354Y-110133095D01*
G37*
G36*
X88008040Y-110698781D02*
X88375736Y-110331085D01*
X88743432Y-110698781D01*
X88375736Y-111066477D01*
X88008040Y-110698781D01*
X88008040Y-110698781D01*
G37*
G36*
X87725197Y-114092893D02*
X88092893Y-113725197D01*
X88460589Y-114092893D01*
X88092893Y-114460589D01*
X87725197Y-114092893D01*
X87725197Y-114092893D01*
G37*
G36*
X88290883Y-114658579D02*
X88658579Y-114290883D01*
X89026275Y-114658579D01*
X88658579Y-115026275D01*
X88290883Y-114658579D01*
X88290883Y-114658579D01*
G37*
G36*
X86537258Y-110359370D02*
X86169562Y-109991674D01*
X86537258Y-109623978D01*
X86904954Y-109991674D01*
X86537258Y-110359370D01*
X86537258Y-110359370D01*
G37*
G36*
X87102944Y-109793684D02*
X86735248Y-109425988D01*
X87102944Y-109058292D01*
X87470640Y-109425988D01*
X87102944Y-109793684D01*
X87102944Y-109793684D01*
G37*
G36*
X88349461Y-113417157D02*
X88717157Y-113049461D01*
X89084853Y-113417157D01*
X88717157Y-113784853D01*
X88349461Y-113417157D01*
X88349461Y-113417157D01*
G37*
G36*
X88915147Y-113982843D02*
X89282843Y-113615147D01*
X89650539Y-113982843D01*
X89282843Y-114350539D01*
X88915147Y-113982843D01*
X88915147Y-113982843D01*
G37*
G36*
X87723345Y-113228371D02*
X87440503Y-113511213D01*
X87108163Y-113178873D01*
X87391005Y-112896031D01*
X87723345Y-113228371D01*
X87723345Y-113228371D01*
G37*
G36*
X88182965Y-112768752D02*
X87900123Y-113051594D01*
X87567783Y-112719254D01*
X87850625Y-112436412D01*
X88182965Y-112768752D01*
X88182965Y-112768752D01*
G37*
G36*
X88642584Y-112309132D02*
X88359742Y-112591974D01*
X88027402Y-112259634D01*
X88310244Y-111976792D01*
X88642584Y-112309132D01*
X88642584Y-112309132D01*
G37*
G36*
X87348579Y-111015127D02*
X87065737Y-111297969D01*
X86733397Y-110965629D01*
X87016239Y-110682787D01*
X87348579Y-111015127D01*
X87348579Y-111015127D01*
G37*
G36*
X86888959Y-111474746D02*
X86606117Y-111757588D01*
X86273777Y-111425248D01*
X86556619Y-111142406D01*
X86888959Y-111474746D01*
X86888959Y-111474746D01*
G37*
G36*
X86429340Y-111934366D02*
X86146498Y-112217208D01*
X85814158Y-111884868D01*
X86097000Y-111602026D01*
X86429340Y-111934366D01*
X86429340Y-111934366D01*
G37*
G36*
X88166702Y-111831835D02*
X86963206Y-113035331D01*
X86290040Y-112362165D01*
X87493536Y-111158669D01*
X88166702Y-111831835D01*
X88166702Y-111831835D01*
G37*
M02*
