M48
;DRILL file {KiCad 4.0.2+e4-6225~38~ubuntu14.04.1-stable} date Tue 28 Jun 2016 16:34:33 BST
;FORMAT={-:-/ absolute / metric / decimal}
FMAT,2
METRIC,TZ
T1C0.300
T2C0.400
T3C0.500
%
G90
G05
M71
T1
X82.5Y-92.5
X85.Y-90.
X85.2Y-110.
X86.1Y-113.2
X87.5Y-90.
X87.5Y-92.5
X88.97Y-101.27
X90.Y-90.
X90.Y-110.
X90.Y-112.5
X90.Y-115.
X90.1Y-99.85
X91.1Y-98.6
X92.Y-101.4
X92.3Y-97.8
X92.5Y-90.
X92.5Y-106.
X92.5Y-110.
X92.5Y-112.5
X92.5Y-117.5
X92.69Y-101.92
X92.85Y-98.4
X92.9Y-104.6
X93.2Y-96.4
X93.25Y-97.65
X96.Y-92.
X96.Y-101.25
X96.3Y-96.
X96.3Y-102.25
X96.3Y-103.5
X97.5Y-110.
X97.6Y-99.85
X98.6Y-98.6
X99.7Y-101.4
X99.8Y-97.9
X100.05Y-106.
X100.31Y-101.96
X100.45Y-98.35
X100.5Y-104.6
X100.6Y-96.4
X100.85Y-97.65
X103.5Y-101.25
X103.8Y-96.1
X103.8Y-102.25
X103.8Y-103.5
X104.Y-92.
X105.Y-110.
X105.1Y-99.9
X106.2Y-98.6
X107.2Y-97.8
X107.2Y-101.4
X107.355Y-105.775
X107.5Y-110.
X107.5Y-112.5
X107.5Y-117.5
X107.79Y-101.97
X107.95Y-98.35
X108.1Y-96.4
X108.1Y-104.5
X108.3Y-97.6
X110.Y-90.
X110.Y-110.
X110.Y-112.5
X110.Y-115.
X111.Y-97.25
X111.1Y-96.1
X112.5Y-90.
X112.5Y-92.5
X112.5Y-110.
X112.5Y-112.5
X115.Y-90.
X115.Y-110.
X117.5Y-92.5
T2
X81.805Y-98.095
X81.805Y-101.905
X81.815Y-94.285
X81.815Y-105.715
X81.825Y-96.825
X81.835Y-100.635
X81.845Y-104.445
X81.855Y-95.555
X81.865Y-99.365
X81.875Y-103.175
X87.5Y-114.7
X88.125Y-96.825
X88.125Y-103.175
X88.135Y-99.365
X88.155Y-95.555
X88.155Y-104.445
X88.165Y-100.635
X88.185Y-94.285
X88.185Y-105.715
X88.195Y-98.095
X88.195Y-101.905
X94.285Y-111.815
X94.285Y-118.185
X95.555Y-111.845
X95.555Y-118.155
X96.825Y-111.825
X96.825Y-118.175
X98.095Y-111.805
X98.095Y-118.195
X99.365Y-111.835
X99.365Y-118.165
X100.635Y-111.835
X100.635Y-118.165
X101.905Y-111.805
X101.905Y-118.105
X103.175Y-111.825
X103.175Y-118.175
X104.445Y-111.855
X104.445Y-118.155
X105.715Y-111.815
X105.715Y-118.185
X111.805Y-98.095
X111.805Y-101.905
X111.815Y-105.715
X111.825Y-96.825
X111.835Y-99.365
X111.835Y-100.635
X111.845Y-104.445
X111.855Y-95.555
X111.875Y-103.175
X111.885Y-94.285
X118.125Y-96.825
X118.135Y-100.635
X118.155Y-95.555
X118.155Y-104.445
X118.165Y-99.365
X118.175Y-103.175
X118.185Y-94.285
X118.185Y-105.715
X118.195Y-98.095
X118.195Y-101.905
T3
X90.375Y-91.5
X91.625Y-91.5
X92.875Y-91.5
X94.125Y-91.5
X98.125Y-91.5
X99.375Y-91.5
X100.625Y-91.5
X101.875Y-91.5
X105.875Y-91.5
X107.125Y-91.5
X108.375Y-91.5
X109.625Y-91.5
T0
M30
