G04 #@! TF.FileFunction,Legend,Bot*
%FSLAX46Y46*%
G04 Gerber Fmt 4.6, Leading zero omitted, Abs format (unit mm)*
G04 Created by KiCad (PCBNEW 4.0.2+e4-6225~38~ubuntu14.04.1-stable) date Sun 12 Jun 2016 22:18:03 BST*
%MOMM*%
G01*
G04 APERTURE LIST*
%ADD10C,0.100000*%
%ADD11C,0.120000*%
%ADD12C,0.150000*%
%ADD13R,0.800000X0.800000*%
%ADD14O,0.800000X0.800000*%
%ADD15R,2.220000X0.740000*%
%ADD16C,1.200000*%
%ADD17R,0.740000X2.220000*%
%ADD18R,0.900000X0.750000*%
%ADD19R,0.750000X0.900000*%
%ADD20R,0.950000X1.000000*%
%ADD21R,0.620000X0.620000*%
G04 APERTURE END LIST*
D10*
X113833333Y-110236667D02*
X113833333Y-109770000D01*
X113833333Y-109836667D02*
X113800000Y-109803333D01*
X113733333Y-109770000D01*
X113633333Y-109770000D01*
X113566667Y-109803333D01*
X113533333Y-109870000D01*
X113533333Y-110236667D01*
X113533333Y-109870000D02*
X113500000Y-109803333D01*
X113433333Y-109770000D01*
X113333333Y-109770000D01*
X113266667Y-109803333D01*
X113233333Y-109870000D01*
X113233333Y-110236667D01*
X112966667Y-109536667D02*
X112533334Y-109536667D01*
X112766667Y-109803333D01*
X112666667Y-109803333D01*
X112600000Y-109836667D01*
X112566667Y-109870000D01*
X112533334Y-109936667D01*
X112533334Y-110103333D01*
X112566667Y-110170000D01*
X112600000Y-110203333D01*
X112666667Y-110236667D01*
X112866667Y-110236667D01*
X112933334Y-110203333D01*
X112966667Y-110170000D01*
X111933333Y-110236667D02*
X111933333Y-109536667D01*
X111933333Y-110203333D02*
X112000000Y-110236667D01*
X112133333Y-110236667D01*
X112200000Y-110203333D01*
X112233333Y-110170000D01*
X112266667Y-110103333D01*
X112266667Y-109903333D01*
X112233333Y-109836667D01*
X112200000Y-109803333D01*
X112133333Y-109770000D01*
X112000000Y-109770000D01*
X111933333Y-109803333D01*
X111500000Y-110236667D02*
X111566667Y-110203333D01*
X111600000Y-110136667D01*
X111600000Y-109536667D01*
X110700000Y-109970000D02*
X110166667Y-109970000D01*
X109333334Y-110203333D02*
X109233334Y-110236667D01*
X109066667Y-110236667D01*
X109000000Y-110203333D01*
X108966667Y-110170000D01*
X108933334Y-110103333D01*
X108933334Y-110036667D01*
X108966667Y-109970000D01*
X109000000Y-109936667D01*
X109066667Y-109903333D01*
X109200000Y-109870000D01*
X109266667Y-109836667D01*
X109300000Y-109803333D01*
X109333334Y-109736667D01*
X109333334Y-109670000D01*
X109300000Y-109603333D01*
X109266667Y-109570000D01*
X109200000Y-109536667D01*
X109033334Y-109536667D01*
X108933334Y-109570000D01*
X108733333Y-109770000D02*
X108466667Y-109770000D01*
X108633333Y-109536667D02*
X108633333Y-110136667D01*
X108600000Y-110203333D01*
X108533333Y-110236667D01*
X108466667Y-110236667D01*
X108233333Y-110236667D02*
X108233333Y-109770000D01*
X108233333Y-109903333D02*
X108200000Y-109836667D01*
X108166667Y-109803333D01*
X108100000Y-109770000D01*
X108033333Y-109770000D01*
X107500000Y-110236667D02*
X107500000Y-109870000D01*
X107533334Y-109803333D01*
X107600000Y-109770000D01*
X107733334Y-109770000D01*
X107800000Y-109803333D01*
X107500000Y-110203333D02*
X107566667Y-110236667D01*
X107733334Y-110236667D01*
X107800000Y-110203333D01*
X107833334Y-110136667D01*
X107833334Y-110070000D01*
X107800000Y-110003333D01*
X107733334Y-109970000D01*
X107566667Y-109970000D01*
X107500000Y-109936667D01*
X107166667Y-110236667D02*
X107166667Y-109770000D01*
X107166667Y-109536667D02*
X107200001Y-109570000D01*
X107166667Y-109603333D01*
X107133334Y-109570000D01*
X107166667Y-109536667D01*
X107166667Y-109603333D01*
X106833334Y-109770000D02*
X106833334Y-110236667D01*
X106833334Y-109836667D02*
X106800001Y-109803333D01*
X106733334Y-109770000D01*
X106633334Y-109770000D01*
X106566668Y-109803333D01*
X106533334Y-109870000D01*
X106533334Y-110236667D01*
X105666668Y-110236667D02*
X105666668Y-109770000D01*
X105666668Y-109903333D02*
X105633335Y-109836667D01*
X105600002Y-109803333D01*
X105533335Y-109770000D01*
X105466668Y-109770000D01*
X104866669Y-110236667D02*
X105266669Y-110236667D01*
X105066669Y-110236667D02*
X105066669Y-109536667D01*
X105133335Y-109636667D01*
X105200002Y-109703333D01*
X105266669Y-109736667D01*
X113833333Y-111316667D02*
X113833333Y-110616667D01*
X113600000Y-111116667D01*
X113366667Y-110616667D01*
X113366667Y-111316667D01*
X112733333Y-111316667D02*
X112733333Y-110950000D01*
X112766667Y-110883333D01*
X112833333Y-110850000D01*
X112966667Y-110850000D01*
X113033333Y-110883333D01*
X112733333Y-111283333D02*
X112800000Y-111316667D01*
X112966667Y-111316667D01*
X113033333Y-111283333D01*
X113066667Y-111216667D01*
X113066667Y-111150000D01*
X113033333Y-111083333D01*
X112966667Y-111050000D01*
X112800000Y-111050000D01*
X112733333Y-111016667D01*
X112500000Y-110850000D02*
X112233334Y-110850000D01*
X112400000Y-110616667D02*
X112400000Y-111216667D01*
X112366667Y-111283333D01*
X112300000Y-111316667D01*
X112233334Y-111316667D01*
X112100000Y-110850000D02*
X111833334Y-110850000D01*
X112000000Y-110616667D02*
X112000000Y-111216667D01*
X111966667Y-111283333D01*
X111900000Y-111316667D01*
X111833334Y-111316667D01*
X110666667Y-111250000D02*
X110700001Y-111283333D01*
X110800001Y-111316667D01*
X110866667Y-111316667D01*
X110966667Y-111283333D01*
X111033334Y-111216667D01*
X111066667Y-111150000D01*
X111100001Y-111016667D01*
X111100001Y-110916667D01*
X111066667Y-110783333D01*
X111033334Y-110716667D01*
X110966667Y-110650000D01*
X110866667Y-110616667D01*
X110800001Y-110616667D01*
X110700001Y-110650000D01*
X110666667Y-110683333D01*
X110266667Y-111316667D02*
X110333334Y-111283333D01*
X110366667Y-111250000D01*
X110400001Y-111183333D01*
X110400001Y-110983333D01*
X110366667Y-110916667D01*
X110333334Y-110883333D01*
X110266667Y-110850000D01*
X110166667Y-110850000D01*
X110100001Y-110883333D01*
X110066667Y-110916667D01*
X110033334Y-110983333D01*
X110033334Y-111183333D01*
X110066667Y-111250000D01*
X110100001Y-111283333D01*
X110166667Y-111316667D01*
X110266667Y-111316667D01*
X109433334Y-111316667D02*
X109433334Y-110950000D01*
X109466668Y-110883333D01*
X109533334Y-110850000D01*
X109666668Y-110850000D01*
X109733334Y-110883333D01*
X109433334Y-111283333D02*
X109500001Y-111316667D01*
X109666668Y-111316667D01*
X109733334Y-111283333D01*
X109766668Y-111216667D01*
X109766668Y-111150000D01*
X109733334Y-111083333D01*
X109666668Y-111050000D01*
X109500001Y-111050000D01*
X109433334Y-111016667D01*
X109200001Y-110850000D02*
X108933335Y-110850000D01*
X109100001Y-110616667D02*
X109100001Y-111216667D01*
X109066668Y-111283333D01*
X109000001Y-111316667D01*
X108933335Y-111316667D01*
X108433335Y-111283333D02*
X108500001Y-111316667D01*
X108633335Y-111316667D01*
X108700001Y-111283333D01*
X108733335Y-111216667D01*
X108733335Y-110950000D01*
X108700001Y-110883333D01*
X108633335Y-110850000D01*
X108500001Y-110850000D01*
X108433335Y-110883333D01*
X108400001Y-110950000D01*
X108400001Y-111016667D01*
X108733335Y-111083333D01*
X108133335Y-111283333D02*
X108066668Y-111316667D01*
X107933335Y-111316667D01*
X107866668Y-111283333D01*
X107833335Y-111216667D01*
X107833335Y-111183333D01*
X107866668Y-111116667D01*
X107933335Y-111083333D01*
X108033335Y-111083333D01*
X108100001Y-111050000D01*
X108133335Y-110983333D01*
X108133335Y-110950000D01*
X108100001Y-110883333D01*
X108033335Y-110850000D01*
X107933335Y-110850000D01*
X107866668Y-110883333D01*
X113466667Y-112396667D02*
X113866667Y-112396667D01*
X113666667Y-112396667D02*
X113666667Y-111696667D01*
X113733333Y-111796667D01*
X113800000Y-111863333D01*
X113866667Y-111896667D01*
X113200000Y-111763333D02*
X113166666Y-111730000D01*
X113100000Y-111696667D01*
X112933333Y-111696667D01*
X112866666Y-111730000D01*
X112833333Y-111763333D01*
X112800000Y-111830000D01*
X112800000Y-111896667D01*
X112833333Y-111996667D01*
X113233333Y-112396667D01*
X112800000Y-112396667D01*
X111999999Y-111663333D02*
X112599999Y-112563333D01*
X111633333Y-111696667D02*
X111566666Y-111696667D01*
X111500000Y-111730000D01*
X111466666Y-111763333D01*
X111433333Y-111830000D01*
X111400000Y-111963333D01*
X111400000Y-112130000D01*
X111433333Y-112263333D01*
X111466666Y-112330000D01*
X111500000Y-112363333D01*
X111566666Y-112396667D01*
X111633333Y-112396667D01*
X111700000Y-112363333D01*
X111733333Y-112330000D01*
X111766666Y-112263333D01*
X111800000Y-112130000D01*
X111800000Y-111963333D01*
X111766666Y-111830000D01*
X111733333Y-111763333D01*
X111700000Y-111730000D01*
X111633333Y-111696667D01*
X110799999Y-111696667D02*
X110933333Y-111696667D01*
X110999999Y-111730000D01*
X111033333Y-111763333D01*
X111099999Y-111863333D01*
X111133333Y-111996667D01*
X111133333Y-112263333D01*
X111099999Y-112330000D01*
X111066666Y-112363333D01*
X110999999Y-112396667D01*
X110866666Y-112396667D01*
X110799999Y-112363333D01*
X110766666Y-112330000D01*
X110733333Y-112263333D01*
X110733333Y-112096667D01*
X110766666Y-112030000D01*
X110799999Y-111996667D01*
X110866666Y-111963333D01*
X110999999Y-111963333D01*
X111066666Y-111996667D01*
X111099999Y-112030000D01*
X111133333Y-112096667D01*
X109933332Y-111663333D02*
X110533332Y-112563333D01*
X109333333Y-112396667D02*
X109733333Y-112396667D01*
X109533333Y-112396667D02*
X109533333Y-111696667D01*
X109599999Y-111796667D01*
X109666666Y-111863333D01*
X109733333Y-111896667D01*
X108733332Y-111696667D02*
X108866666Y-111696667D01*
X108933332Y-111730000D01*
X108966666Y-111763333D01*
X109033332Y-111863333D01*
X109066666Y-111996667D01*
X109066666Y-112263333D01*
X109033332Y-112330000D01*
X108999999Y-112363333D01*
X108933332Y-112396667D01*
X108799999Y-112396667D01*
X108733332Y-112363333D01*
X108699999Y-112330000D01*
X108666666Y-112263333D01*
X108666666Y-112096667D01*
X108699999Y-112030000D01*
X108733332Y-111996667D01*
X108799999Y-111963333D01*
X108933332Y-111963333D01*
X108999999Y-111996667D01*
X109033332Y-112030000D01*
X109066666Y-112096667D01*
D11*
X110038095Y-90490476D02*
X110038095Y-89995238D01*
X109733333Y-90261905D01*
X109733333Y-90147619D01*
X109695238Y-90071429D01*
X109657143Y-90033333D01*
X109580952Y-89995238D01*
X109390476Y-89995238D01*
X109314286Y-90033333D01*
X109276190Y-90071429D01*
X109238095Y-90147619D01*
X109238095Y-90376191D01*
X109276190Y-90452381D01*
X109314286Y-90490476D01*
X110038095Y-89766667D02*
X109238095Y-89500000D01*
X110038095Y-89233333D01*
X110038095Y-89042857D02*
X110038095Y-88547619D01*
X109733333Y-88814286D01*
X109733333Y-88700000D01*
X109695238Y-88623810D01*
X109657143Y-88585714D01*
X109580952Y-88547619D01*
X109390476Y-88547619D01*
X109314286Y-88585714D01*
X109276190Y-88623810D01*
X109238095Y-88700000D01*
X109238095Y-88928572D01*
X109276190Y-89004762D01*
X109314286Y-89042857D01*
X108076190Y-90504762D02*
X108038095Y-90390476D01*
X108038095Y-90200000D01*
X108076190Y-90123810D01*
X108114286Y-90085714D01*
X108190476Y-90047619D01*
X108266667Y-90047619D01*
X108342857Y-90085714D01*
X108380952Y-90123810D01*
X108419048Y-90200000D01*
X108457143Y-90352381D01*
X108495238Y-90428572D01*
X108533333Y-90466667D01*
X108609524Y-90504762D01*
X108685714Y-90504762D01*
X108761905Y-90466667D01*
X108800000Y-90428572D01*
X108838095Y-90352381D01*
X108838095Y-90161905D01*
X108800000Y-90047619D01*
X108800000Y-89285714D02*
X108838095Y-89361905D01*
X108838095Y-89476190D01*
X108800000Y-89590476D01*
X108723810Y-89666667D01*
X108647619Y-89704762D01*
X108495238Y-89742857D01*
X108380952Y-89742857D01*
X108228571Y-89704762D01*
X108152381Y-89666667D01*
X108076190Y-89590476D01*
X108038095Y-89476190D01*
X108038095Y-89400000D01*
X108076190Y-89285714D01*
X108114286Y-89247619D01*
X108380952Y-89247619D01*
X108380952Y-89400000D01*
X108838095Y-88980952D02*
X108838095Y-88485714D01*
X108533333Y-88752381D01*
X108533333Y-88638095D01*
X108495238Y-88561905D01*
X108457143Y-88523809D01*
X108380952Y-88485714D01*
X108190476Y-88485714D01*
X108114286Y-88523809D01*
X108076190Y-88561905D01*
X108038095Y-88638095D01*
X108038095Y-88866667D01*
X108076190Y-88942857D01*
X108114286Y-88980952D01*
X108342857Y-88142857D02*
X108342857Y-87533333D01*
X108038095Y-87838095D02*
X108647619Y-87838095D01*
X106876190Y-90404762D02*
X106838095Y-90290476D01*
X106838095Y-90100000D01*
X106876190Y-90023810D01*
X106914286Y-89985714D01*
X106990476Y-89947619D01*
X107066667Y-89947619D01*
X107142857Y-89985714D01*
X107180952Y-90023810D01*
X107219048Y-90100000D01*
X107257143Y-90252381D01*
X107295238Y-90328572D01*
X107333333Y-90366667D01*
X107409524Y-90404762D01*
X107485714Y-90404762D01*
X107561905Y-90366667D01*
X107600000Y-90328572D01*
X107638095Y-90252381D01*
X107638095Y-90061905D01*
X107600000Y-89947619D01*
X107600000Y-89185714D02*
X107638095Y-89261905D01*
X107638095Y-89376190D01*
X107600000Y-89490476D01*
X107523810Y-89566667D01*
X107447619Y-89604762D01*
X107295238Y-89642857D01*
X107180952Y-89642857D01*
X107028571Y-89604762D01*
X106952381Y-89566667D01*
X106876190Y-89490476D01*
X106838095Y-89376190D01*
X106838095Y-89300000D01*
X106876190Y-89185714D01*
X106914286Y-89147619D01*
X107180952Y-89147619D01*
X107180952Y-89300000D01*
X107638095Y-88880952D02*
X107638095Y-88385714D01*
X107333333Y-88652381D01*
X107333333Y-88538095D01*
X107295238Y-88461905D01*
X107257143Y-88423809D01*
X107180952Y-88385714D01*
X106990476Y-88385714D01*
X106914286Y-88423809D01*
X106876190Y-88461905D01*
X106838095Y-88538095D01*
X106838095Y-88766667D01*
X106876190Y-88842857D01*
X106914286Y-88880952D01*
X107142857Y-88042857D02*
X107142857Y-87433333D01*
X106200000Y-89909523D02*
X106238095Y-89985714D01*
X106238095Y-90099999D01*
X106200000Y-90214285D01*
X106123810Y-90290476D01*
X106047619Y-90328571D01*
X105895238Y-90366666D01*
X105780952Y-90366666D01*
X105628571Y-90328571D01*
X105552381Y-90290476D01*
X105476190Y-90214285D01*
X105438095Y-90099999D01*
X105438095Y-90023809D01*
X105476190Y-89909523D01*
X105514286Y-89871428D01*
X105780952Y-89871428D01*
X105780952Y-90023809D01*
X105438095Y-89528571D02*
X106238095Y-89528571D01*
X105438095Y-89071428D01*
X106238095Y-89071428D01*
X105438095Y-88690476D02*
X106238095Y-88690476D01*
X106238095Y-88500000D01*
X106200000Y-88385714D01*
X106123810Y-88309523D01*
X106047619Y-88271428D01*
X105895238Y-88233333D01*
X105780952Y-88233333D01*
X105628571Y-88271428D01*
X105552381Y-88309523D01*
X105476190Y-88385714D01*
X105438095Y-88500000D01*
X105438095Y-88690476D01*
X98400000Y-89909523D02*
X98438095Y-89985714D01*
X98438095Y-90099999D01*
X98400000Y-90214285D01*
X98323810Y-90290476D01*
X98247619Y-90328571D01*
X98095238Y-90366666D01*
X97980952Y-90366666D01*
X97828571Y-90328571D01*
X97752381Y-90290476D01*
X97676190Y-90214285D01*
X97638095Y-90099999D01*
X97638095Y-90023809D01*
X97676190Y-89909523D01*
X97714286Y-89871428D01*
X97980952Y-89871428D01*
X97980952Y-90023809D01*
X97638095Y-89528571D02*
X98438095Y-89528571D01*
X97638095Y-89071428D01*
X98438095Y-89071428D01*
X97638095Y-88690476D02*
X98438095Y-88690476D01*
X98438095Y-88500000D01*
X98400000Y-88385714D01*
X98323810Y-88309523D01*
X98247619Y-88271428D01*
X98095238Y-88233333D01*
X97980952Y-88233333D01*
X97828571Y-88271428D01*
X97752381Y-88309523D01*
X97676190Y-88385714D01*
X97638095Y-88500000D01*
X97638095Y-88690476D01*
X102238095Y-90490476D02*
X102238095Y-89995238D01*
X101933333Y-90261905D01*
X101933333Y-90147619D01*
X101895238Y-90071429D01*
X101857143Y-90033333D01*
X101780952Y-89995238D01*
X101590476Y-89995238D01*
X101514286Y-90033333D01*
X101476190Y-90071429D01*
X101438095Y-90147619D01*
X101438095Y-90376191D01*
X101476190Y-90452381D01*
X101514286Y-90490476D01*
X102238095Y-89766667D02*
X101438095Y-89500000D01*
X102238095Y-89233333D01*
X102238095Y-89042857D02*
X102238095Y-88547619D01*
X101933333Y-88814286D01*
X101933333Y-88700000D01*
X101895238Y-88623810D01*
X101857143Y-88585714D01*
X101780952Y-88547619D01*
X101590476Y-88547619D01*
X101514286Y-88585714D01*
X101476190Y-88623810D01*
X101438095Y-88700000D01*
X101438095Y-88928572D01*
X101476190Y-89004762D01*
X101514286Y-89042857D01*
X99076190Y-90404762D02*
X99038095Y-90290476D01*
X99038095Y-90100000D01*
X99076190Y-90023810D01*
X99114286Y-89985714D01*
X99190476Y-89947619D01*
X99266667Y-89947619D01*
X99342857Y-89985714D01*
X99380952Y-90023810D01*
X99419048Y-90100000D01*
X99457143Y-90252381D01*
X99495238Y-90328572D01*
X99533333Y-90366667D01*
X99609524Y-90404762D01*
X99685714Y-90404762D01*
X99761905Y-90366667D01*
X99800000Y-90328572D01*
X99838095Y-90252381D01*
X99838095Y-90061905D01*
X99800000Y-89947619D01*
X99800000Y-89185714D02*
X99838095Y-89261905D01*
X99838095Y-89376190D01*
X99800000Y-89490476D01*
X99723810Y-89566667D01*
X99647619Y-89604762D01*
X99495238Y-89642857D01*
X99380952Y-89642857D01*
X99228571Y-89604762D01*
X99152381Y-89566667D01*
X99076190Y-89490476D01*
X99038095Y-89376190D01*
X99038095Y-89300000D01*
X99076190Y-89185714D01*
X99114286Y-89147619D01*
X99380952Y-89147619D01*
X99380952Y-89300000D01*
X99761905Y-88842857D02*
X99800000Y-88804762D01*
X99838095Y-88728571D01*
X99838095Y-88538095D01*
X99800000Y-88461905D01*
X99761905Y-88423809D01*
X99685714Y-88385714D01*
X99609524Y-88385714D01*
X99495238Y-88423809D01*
X99038095Y-88880952D01*
X99038095Y-88385714D01*
X99342857Y-88042857D02*
X99342857Y-87433333D01*
X100276190Y-90504762D02*
X100238095Y-90390476D01*
X100238095Y-90200000D01*
X100276190Y-90123810D01*
X100314286Y-90085714D01*
X100390476Y-90047619D01*
X100466667Y-90047619D01*
X100542857Y-90085714D01*
X100580952Y-90123810D01*
X100619048Y-90200000D01*
X100657143Y-90352381D01*
X100695238Y-90428572D01*
X100733333Y-90466667D01*
X100809524Y-90504762D01*
X100885714Y-90504762D01*
X100961905Y-90466667D01*
X101000000Y-90428572D01*
X101038095Y-90352381D01*
X101038095Y-90161905D01*
X101000000Y-90047619D01*
X101000000Y-89285714D02*
X101038095Y-89361905D01*
X101038095Y-89476190D01*
X101000000Y-89590476D01*
X100923810Y-89666667D01*
X100847619Y-89704762D01*
X100695238Y-89742857D01*
X100580952Y-89742857D01*
X100428571Y-89704762D01*
X100352381Y-89666667D01*
X100276190Y-89590476D01*
X100238095Y-89476190D01*
X100238095Y-89400000D01*
X100276190Y-89285714D01*
X100314286Y-89247619D01*
X100580952Y-89247619D01*
X100580952Y-89400000D01*
X100961905Y-88942857D02*
X101000000Y-88904762D01*
X101038095Y-88828571D01*
X101038095Y-88638095D01*
X101000000Y-88561905D01*
X100961905Y-88523809D01*
X100885714Y-88485714D01*
X100809524Y-88485714D01*
X100695238Y-88523809D01*
X100238095Y-88980952D01*
X100238095Y-88485714D01*
X100542857Y-88142857D02*
X100542857Y-87533333D01*
X100238095Y-87838095D02*
X100847619Y-87838095D01*
X90700000Y-89909523D02*
X90738095Y-89985714D01*
X90738095Y-90099999D01*
X90700000Y-90214285D01*
X90623810Y-90290476D01*
X90547619Y-90328571D01*
X90395238Y-90366666D01*
X90280952Y-90366666D01*
X90128571Y-90328571D01*
X90052381Y-90290476D01*
X89976190Y-90214285D01*
X89938095Y-90099999D01*
X89938095Y-90023809D01*
X89976190Y-89909523D01*
X90014286Y-89871428D01*
X90280952Y-89871428D01*
X90280952Y-90023809D01*
X89938095Y-89528571D02*
X90738095Y-89528571D01*
X89938095Y-89071428D01*
X90738095Y-89071428D01*
X89938095Y-88690476D02*
X90738095Y-88690476D01*
X90738095Y-88500000D01*
X90700000Y-88385714D01*
X90623810Y-88309523D01*
X90547619Y-88271428D01*
X90395238Y-88233333D01*
X90280952Y-88233333D01*
X90128571Y-88271428D01*
X90052381Y-88309523D01*
X89976190Y-88385714D01*
X89938095Y-88500000D01*
X89938095Y-88690476D01*
X91376190Y-90404762D02*
X91338095Y-90290476D01*
X91338095Y-90100000D01*
X91376190Y-90023810D01*
X91414286Y-89985714D01*
X91490476Y-89947619D01*
X91566667Y-89947619D01*
X91642857Y-89985714D01*
X91680952Y-90023810D01*
X91719048Y-90100000D01*
X91757143Y-90252381D01*
X91795238Y-90328572D01*
X91833333Y-90366667D01*
X91909524Y-90404762D01*
X91985714Y-90404762D01*
X92061905Y-90366667D01*
X92100000Y-90328572D01*
X92138095Y-90252381D01*
X92138095Y-90061905D01*
X92100000Y-89947619D01*
X92100000Y-89185714D02*
X92138095Y-89261905D01*
X92138095Y-89376190D01*
X92100000Y-89490476D01*
X92023810Y-89566667D01*
X91947619Y-89604762D01*
X91795238Y-89642857D01*
X91680952Y-89642857D01*
X91528571Y-89604762D01*
X91452381Y-89566667D01*
X91376190Y-89490476D01*
X91338095Y-89376190D01*
X91338095Y-89300000D01*
X91376190Y-89185714D01*
X91414286Y-89147619D01*
X91680952Y-89147619D01*
X91680952Y-89300000D01*
X91338095Y-88385714D02*
X91338095Y-88842857D01*
X91338095Y-88614286D02*
X92138095Y-88614286D01*
X92023810Y-88690476D01*
X91947619Y-88766667D01*
X91909524Y-88842857D01*
X91642857Y-88042857D02*
X91642857Y-87433333D01*
X92576190Y-90504762D02*
X92538095Y-90390476D01*
X92538095Y-90200000D01*
X92576190Y-90123810D01*
X92614286Y-90085714D01*
X92690476Y-90047619D01*
X92766667Y-90047619D01*
X92842857Y-90085714D01*
X92880952Y-90123810D01*
X92919048Y-90200000D01*
X92957143Y-90352381D01*
X92995238Y-90428572D01*
X93033333Y-90466667D01*
X93109524Y-90504762D01*
X93185714Y-90504762D01*
X93261905Y-90466667D01*
X93300000Y-90428572D01*
X93338095Y-90352381D01*
X93338095Y-90161905D01*
X93300000Y-90047619D01*
X93300000Y-89285714D02*
X93338095Y-89361905D01*
X93338095Y-89476190D01*
X93300000Y-89590476D01*
X93223810Y-89666667D01*
X93147619Y-89704762D01*
X92995238Y-89742857D01*
X92880952Y-89742857D01*
X92728571Y-89704762D01*
X92652381Y-89666667D01*
X92576190Y-89590476D01*
X92538095Y-89476190D01*
X92538095Y-89400000D01*
X92576190Y-89285714D01*
X92614286Y-89247619D01*
X92880952Y-89247619D01*
X92880952Y-89400000D01*
X92538095Y-88485714D02*
X92538095Y-88942857D01*
X92538095Y-88714286D02*
X93338095Y-88714286D01*
X93223810Y-88790476D01*
X93147619Y-88866667D01*
X93109524Y-88942857D01*
X92842857Y-88142857D02*
X92842857Y-87533333D01*
X92538095Y-87838095D02*
X93147619Y-87838095D01*
X94538095Y-90490476D02*
X94538095Y-89995238D01*
X94233333Y-90261905D01*
X94233333Y-90147619D01*
X94195238Y-90071429D01*
X94157143Y-90033333D01*
X94080952Y-89995238D01*
X93890476Y-89995238D01*
X93814286Y-90033333D01*
X93776190Y-90071429D01*
X93738095Y-90147619D01*
X93738095Y-90376191D01*
X93776190Y-90452381D01*
X93814286Y-90490476D01*
X94538095Y-89766667D02*
X93738095Y-89500000D01*
X94538095Y-89233333D01*
X94538095Y-89042857D02*
X94538095Y-88547619D01*
X94233333Y-88814286D01*
X94233333Y-88700000D01*
X94195238Y-88623810D01*
X94157143Y-88585714D01*
X94080952Y-88547619D01*
X93890476Y-88547619D01*
X93814286Y-88585714D01*
X93776190Y-88623810D01*
X93738095Y-88700000D01*
X93738095Y-88928572D01*
X93776190Y-89004762D01*
X93814286Y-89042857D01*
D12*
X83550000Y-106465000D02*
X84315000Y-106465000D01*
X84315000Y-106465000D02*
X84315000Y-108245000D01*
X84315000Y-108245000D02*
X85685000Y-108245000D01*
X85685000Y-108245000D02*
X85685000Y-106465000D01*
X85685000Y-106465000D02*
X86450000Y-106465000D01*
X86450000Y-106465000D02*
X86450000Y-106165000D01*
X86450000Y-93835000D02*
X86450000Y-93535000D01*
X86450000Y-93535000D02*
X85685000Y-93535000D01*
X85685000Y-93535000D02*
X85685000Y-91755000D01*
X85685000Y-91755000D02*
X84315000Y-91755000D01*
X84315000Y-91755000D02*
X84315000Y-93535000D01*
X84315000Y-93535000D02*
X83550000Y-93535000D01*
X113550000Y-106465000D02*
X114315000Y-106465000D01*
X114315000Y-106465000D02*
X114315000Y-108245000D01*
X114315000Y-108245000D02*
X115685000Y-108245000D01*
X115685000Y-108245000D02*
X115685000Y-106465000D01*
X115685000Y-106465000D02*
X116450000Y-106465000D01*
X116450000Y-106465000D02*
X116450000Y-106165000D01*
X116450000Y-93835000D02*
X116450000Y-93535000D01*
X116450000Y-93535000D02*
X115685000Y-93535000D01*
X115685000Y-93535000D02*
X115685000Y-91755000D01*
X115685000Y-91755000D02*
X114315000Y-91755000D01*
X114315000Y-91755000D02*
X114315000Y-93535000D01*
X114315000Y-93535000D02*
X113550000Y-93535000D01*
X106465000Y-116450000D02*
X106465000Y-115685000D01*
X106465000Y-115685000D02*
X108245000Y-115685000D01*
X108245000Y-115685000D02*
X108245000Y-114315000D01*
X108245000Y-114315000D02*
X106465000Y-114315000D01*
X106465000Y-114315000D02*
X106465000Y-113550000D01*
X106465000Y-113550000D02*
X106165000Y-113550000D01*
X93835000Y-113550000D02*
X93535000Y-113550000D01*
X93535000Y-113550000D02*
X93535000Y-114315000D01*
X93535000Y-114315000D02*
X91755000Y-114315000D01*
X91755000Y-114315000D02*
X91755000Y-115685000D01*
X91755000Y-115685000D02*
X93535000Y-115685000D01*
X93535000Y-115685000D02*
X93535000Y-116450000D01*
X101875000Y-96675000D02*
X101875000Y-96925000D01*
X101875000Y-96925000D02*
X102525000Y-96925000D01*
X102525000Y-96925000D02*
X102525000Y-96675000D01*
X102525000Y-96675000D02*
X101875000Y-96675000D01*
X94375000Y-96675000D02*
X94375000Y-96925000D01*
X94375000Y-96925000D02*
X95025000Y-96925000D01*
X95025000Y-96925000D02*
X95025000Y-96675000D01*
X95025000Y-96675000D02*
X94375000Y-96675000D01*
X109375000Y-96675000D02*
X109375000Y-96925000D01*
X109375000Y-96925000D02*
X110025000Y-96925000D01*
X110025000Y-96925000D02*
X110025000Y-96675000D01*
X110025000Y-96675000D02*
X109375000Y-96675000D01*
X94375000Y-100725000D02*
X94625000Y-100725000D01*
X94625000Y-100725000D02*
X94625000Y-100075000D01*
X94625000Y-100075000D02*
X94375000Y-100075000D01*
X94375000Y-100075000D02*
X94375000Y-100725000D01*
X90325000Y-96925000D02*
X90325000Y-96675000D01*
X90325000Y-96675000D02*
X89675000Y-96675000D01*
X89675000Y-96675000D02*
X89675000Y-96925000D01*
X89675000Y-96925000D02*
X90325000Y-96925000D01*
X98925000Y-96925000D02*
X98925000Y-96675000D01*
X98925000Y-96675000D02*
X98275000Y-96675000D01*
X98275000Y-96675000D02*
X98275000Y-96925000D01*
X98275000Y-96925000D02*
X98925000Y-96925000D01*
X97975000Y-101375000D02*
X97975000Y-101625000D01*
X97975000Y-101625000D02*
X98625000Y-101625000D01*
X98625000Y-101625000D02*
X98625000Y-101375000D01*
X98625000Y-101375000D02*
X97975000Y-101375000D01*
X109575000Y-100725000D02*
X109825000Y-100725000D01*
X109825000Y-100725000D02*
X109825000Y-100075000D01*
X109825000Y-100075000D02*
X109575000Y-100075000D01*
X109575000Y-100075000D02*
X109575000Y-100725000D01*
X90475000Y-101475000D02*
X90475000Y-101725000D01*
X90475000Y-101725000D02*
X91125000Y-101725000D01*
X91125000Y-101725000D02*
X91125000Y-101475000D01*
X91125000Y-101475000D02*
X90475000Y-101475000D01*
X101175000Y-105975000D02*
X101175000Y-106225000D01*
X101175000Y-106225000D02*
X101825000Y-106225000D01*
X101825000Y-106225000D02*
X101825000Y-105975000D01*
X101825000Y-105975000D02*
X101175000Y-105975000D01*
X105475000Y-101575000D02*
X105475000Y-101825000D01*
X105475000Y-101825000D02*
X106125000Y-101825000D01*
X106125000Y-101825000D02*
X106125000Y-101575000D01*
X106125000Y-101575000D02*
X105475000Y-101575000D01*
X101875000Y-100775000D02*
X102125000Y-100775000D01*
X102125000Y-100775000D02*
X102125000Y-100125000D01*
X102125000Y-100125000D02*
X101875000Y-100125000D01*
X101875000Y-100125000D02*
X101875000Y-100775000D01*
X93675000Y-106075000D02*
X93675000Y-106325000D01*
X93675000Y-106325000D02*
X94325000Y-106325000D01*
X94325000Y-106325000D02*
X94325000Y-106075000D01*
X94325000Y-106075000D02*
X93675000Y-106075000D01*
X106425000Y-96925000D02*
X106425000Y-96675000D01*
X106425000Y-96675000D02*
X105775000Y-96675000D01*
X105775000Y-96675000D02*
X105775000Y-96925000D01*
X105775000Y-96925000D02*
X106425000Y-96925000D01*
X108375000Y-106075000D02*
X108375000Y-106325000D01*
X108375000Y-106325000D02*
X109025000Y-106325000D01*
X109025000Y-106325000D02*
X109025000Y-106075000D01*
X109025000Y-106075000D02*
X108375000Y-106075000D01*
X89686827Y-104846446D02*
X89863604Y-105023223D01*
X89863604Y-105023223D02*
X90323223Y-104563604D01*
X90323223Y-104563604D02*
X90146446Y-104386827D01*
X90146446Y-104386827D02*
X89686827Y-104846446D01*
X94625000Y-98775000D02*
X94375000Y-98775000D01*
X94375000Y-98775000D02*
X94375000Y-99425000D01*
X94375000Y-99425000D02*
X94625000Y-99425000D01*
X94625000Y-99425000D02*
X94625000Y-98775000D01*
X109824999Y-98775000D02*
X109574999Y-98775000D01*
X109574999Y-98775000D02*
X109574999Y-99425000D01*
X109574999Y-99425000D02*
X109824999Y-99425000D01*
X109824999Y-99425000D02*
X109824999Y-98775000D01*
X102125000Y-98825000D02*
X101875000Y-98825000D01*
X101875000Y-98825000D02*
X101875000Y-99475000D01*
X101875000Y-99475000D02*
X102125000Y-99475000D01*
X102125000Y-99475000D02*
X102125000Y-98825000D01*
%LPC*%
D13*
X109625000Y-91500000D03*
D14*
X108375000Y-91500000D03*
X107125000Y-91500000D03*
X105875000Y-91500000D03*
D13*
X101875000Y-91500000D03*
D14*
X100625000Y-91500000D03*
X99375000Y-91500000D03*
X98125000Y-91500000D03*
D13*
X94125000Y-91500000D03*
D14*
X92875000Y-91500000D03*
X91625000Y-91500000D03*
X90375000Y-91500000D03*
D15*
X83635000Y-94285000D03*
X86365000Y-94285000D03*
X83635000Y-95555000D03*
X86365000Y-95555000D03*
X83635000Y-96825000D03*
X86365000Y-96825000D03*
X83635000Y-98095000D03*
X86365000Y-98095000D03*
X83635000Y-99365000D03*
X86365000Y-99365000D03*
X83635000Y-100635000D03*
X86365000Y-100635000D03*
X83635000Y-101905000D03*
X86365000Y-101905000D03*
X83635000Y-103175000D03*
X86365000Y-103175000D03*
X83635000Y-104445000D03*
X86365000Y-104445000D03*
X83635000Y-105715000D03*
X86365000Y-105715000D03*
D16*
X85000000Y-107305000D03*
X85000000Y-92695000D03*
D15*
X113635000Y-94285000D03*
X116365000Y-94285000D03*
X113635000Y-95555000D03*
X116365000Y-95555000D03*
X113635000Y-96825000D03*
X116365000Y-96825000D03*
X113635000Y-98095000D03*
X116365000Y-98095000D03*
X113635000Y-99365000D03*
X116365000Y-99365000D03*
X113635000Y-100635000D03*
X116365000Y-100635000D03*
X113635000Y-101905000D03*
X116365000Y-101905000D03*
X113635000Y-103175000D03*
X116365000Y-103175000D03*
X113635000Y-104445000D03*
X116365000Y-104445000D03*
X113635000Y-105715000D03*
X116365000Y-105715000D03*
D16*
X115000000Y-107305000D03*
X115000000Y-92695000D03*
D17*
X94285000Y-116365000D03*
X94285000Y-113635000D03*
X95555000Y-116365000D03*
X95555000Y-113635000D03*
X96825000Y-116365000D03*
X96825000Y-113635000D03*
X98095000Y-116365000D03*
X98095000Y-113635000D03*
X99365000Y-116365000D03*
X99365000Y-113635000D03*
X100635000Y-116365000D03*
X100635000Y-113635000D03*
X101905000Y-116365000D03*
X101905000Y-113635000D03*
X103175000Y-116365000D03*
X103175000Y-113635000D03*
X104445000Y-116365000D03*
X104445000Y-113635000D03*
X105715000Y-116365000D03*
X105715000Y-113635000D03*
D16*
X107305000Y-115000000D03*
X92695000Y-115000000D03*
D18*
X102200000Y-96100000D03*
X102200000Y-97500000D03*
X94700000Y-96100000D03*
X94700000Y-97500000D03*
X109700000Y-96100000D03*
X109700000Y-97500000D03*
D19*
X93800000Y-100400000D03*
X95200000Y-100400000D03*
D18*
X90000000Y-97500000D03*
X90000000Y-96100000D03*
X98600000Y-97500000D03*
X98600000Y-96100000D03*
X98300000Y-100800000D03*
X98300000Y-102200000D03*
D19*
X109000000Y-100400000D03*
X110400000Y-100400000D03*
D18*
X90800000Y-100900000D03*
X90800000Y-102300000D03*
X101500000Y-105400000D03*
X101500000Y-106800000D03*
X105800000Y-101000000D03*
X105800000Y-102400000D03*
D19*
X101300000Y-100450000D03*
X102700000Y-100450000D03*
D18*
X94000000Y-105500000D03*
X94000000Y-106900000D03*
X106100000Y-97500000D03*
X106100000Y-96100000D03*
X108700000Y-105500000D03*
X108700000Y-106900000D03*
D10*
G36*
X88926687Y-104263083D02*
X89563083Y-103626687D01*
X90093413Y-104157017D01*
X89457017Y-104793413D01*
X88926687Y-104263083D01*
X88926687Y-104263083D01*
G37*
G36*
X89916637Y-105253033D02*
X90553033Y-104616637D01*
X91083363Y-105146967D01*
X90446967Y-105783363D01*
X89916637Y-105253033D01*
X89916637Y-105253033D01*
G37*
D20*
X95300000Y-99100000D03*
X93700000Y-99100000D03*
X110499999Y-99100000D03*
X108899999Y-99100000D03*
X102800000Y-99150000D03*
X101200000Y-99150000D03*
D21*
X91600000Y-93400000D03*
X91600000Y-92500000D03*
X92900000Y-93400000D03*
X92900000Y-92500000D03*
X101900000Y-93400000D03*
X101900000Y-92500000D03*
X99350000Y-93400000D03*
X99350000Y-92500000D03*
X100650000Y-93400000D03*
X100650000Y-92500000D03*
X95050000Y-93400000D03*
X95050000Y-92500000D03*
X107100000Y-93450000D03*
X107100000Y-92550000D03*
X108400000Y-93450000D03*
X108400000Y-92550000D03*
X109650000Y-93450000D03*
X109650000Y-92550000D03*
M02*
