G04 #@! TF.FileFunction,Profile,NP*
%FSLAX46Y46*%
G04 Gerber Fmt 4.6, Leading zero omitted, Abs format (unit mm)*
G04 Created by KiCad (PCBNEW 4.1.0-alpha+201605071002+6776~44~ubuntu14.04.1-product) date Mon 30 May 2016 01:00:06 BST*
%MOMM*%
%LPD*%
G01*
G04 APERTURE LIST*
%ADD10C,0.100000*%
%ADD11C,0.010000*%
G04 APERTURE END LIST*
D10*
D11*
X123500000Y-124500000D02*
X128500000Y-124500000D01*
X127600000Y-122500000D02*
X123500000Y-122500000D01*
X125500000Y-103500000D02*
X128600000Y-103500000D01*
X125500000Y-101500000D02*
X128500000Y-101500000D01*
X121500000Y-103500000D02*
X124500000Y-103500000D01*
X121500000Y-101500000D02*
X124500000Y-101500000D01*
X125500000Y-103500000D02*
X125500000Y-101500000D01*
X124500000Y-103500000D02*
X124500000Y-101500000D01*
X121500000Y-101500000D02*
X121500000Y-103500000D01*
X120500000Y-101500000D02*
X120500000Y-103500000D01*
X123500000Y-122500000D02*
X123500000Y-124500000D01*
X122500000Y-122500000D02*
X122500000Y-124500000D01*
X102000000Y-100000000D02*
G75*
G03X100000000Y-102000000I0J-2000000D01*
G01*
X100000000Y-124000000D02*
G75*
G03X102000000Y-126000000I2000000J0D01*
G01*
X144000000Y-126000000D02*
G75*
G03X146000000Y-124000000I0J2000000D01*
G01*
X146000000Y-102000000D02*
G75*
G03X144000000Y-100000000I-2000000J0D01*
G01*
X130500000Y-103500000D02*
G75*
G03X128500000Y-101500000I-2000000J0D01*
G01*
X117500000Y-101500000D02*
G75*
G03X115500000Y-103500000I0J-2000000D01*
G01*
X115500000Y-122500000D02*
G75*
G03X117500000Y-124500000I2000000J0D01*
G01*
X128500000Y-124500000D02*
G75*
G03X130500000Y-122500000I0J2000000D01*
G01*
X122500000Y-124500000D02*
X117500000Y-124500000D01*
X130500000Y-103500000D02*
X130500000Y-122500000D01*
X117500000Y-101500000D02*
X120500000Y-101500000D01*
X115500000Y-122500000D02*
X115500000Y-103500000D01*
X100000000Y-102000000D02*
X100000000Y-124000000D01*
X144000000Y-100000000D02*
X102000000Y-100000000D01*
X146000000Y-124000000D02*
X146000000Y-102000000D01*
X102000000Y-126000000D02*
X144000000Y-126000000D01*
X127600000Y-122500000D02*
G75*
G03X128600000Y-121500000I0J1000000D01*
G01*
X117400000Y-121500000D02*
G75*
G03X118400000Y-122500000I1000000J0D01*
G01*
X120500000Y-103500000D02*
X117400000Y-103500000D01*
X128600000Y-121500000D02*
X128600000Y-103500000D01*
X118400000Y-122500000D02*
X122500000Y-122500000D01*
X117400000Y-103500000D02*
X117400000Y-121500000D01*
M02*
