G04 #@! TF.FileFunction,Soldermask,Bot*
%FSLAX46Y46*%
G04 Gerber Fmt 4.6, Leading zero omitted, Abs format (unit mm)*
G04 Created by KiCad (PCBNEW 4.1.0-alpha+201605071002+6776~44~ubuntu14.04.1-product) date Mon 30 May 2016 01:00:06 BST*
%MOMM*%
%LPD*%
G01*
G04 APERTURE LIST*
%ADD10C,0.100000*%
%ADD11R,2.220000X0.740000*%
%ADD12C,1.200000*%
%ADD13R,1.900000X1.900000*%
%ADD14C,1.900000*%
%ADD15C,2.500000*%
%ADD16C,2.800000*%
%ADD17R,2.400000X5.000000*%
G04 APERTURE END LIST*
D10*
D11*
X106635000Y-107285000D03*
X109365000Y-107285000D03*
X106635000Y-108555000D03*
X109365000Y-108555000D03*
X106635000Y-109825000D03*
X109365000Y-109825000D03*
X106635000Y-111095000D03*
X109365000Y-111095000D03*
X106635000Y-112365000D03*
X109365000Y-112365000D03*
X106635000Y-113635000D03*
X109365000Y-113635000D03*
X106635000Y-114905000D03*
X109365000Y-114905000D03*
X106635000Y-116175000D03*
X109365000Y-116175000D03*
X106635000Y-117445000D03*
X109365000Y-117445000D03*
X106635000Y-118715000D03*
X109365000Y-118715000D03*
D12*
X108000000Y-120305000D03*
X108000000Y-105695000D03*
D11*
X136635000Y-107285000D03*
X139365000Y-107285000D03*
X136635000Y-108555000D03*
X139365000Y-108555000D03*
X136635000Y-109825000D03*
X139365000Y-109825000D03*
X136635000Y-111095000D03*
X139365000Y-111095000D03*
X136635000Y-112365000D03*
X139365000Y-112365000D03*
X136635000Y-113635000D03*
X139365000Y-113635000D03*
X136635000Y-114905000D03*
X139365000Y-114905000D03*
X136635000Y-116175000D03*
X139365000Y-116175000D03*
X136635000Y-117445000D03*
X139365000Y-117445000D03*
X136635000Y-118715000D03*
X139365000Y-118715000D03*
D12*
X138000000Y-120305000D03*
X138000000Y-105695000D03*
D13*
X102000000Y-101570000D03*
D14*
X102000000Y-104110000D03*
X102000000Y-106650000D03*
X102000000Y-109190000D03*
X102000000Y-111730000D03*
X102000000Y-114270000D03*
X102000000Y-116810000D03*
X102000000Y-119350000D03*
X102000000Y-121890000D03*
X102000000Y-124430000D03*
D13*
X114000000Y-101570000D03*
D14*
X114000000Y-104110000D03*
X114000000Y-106650000D03*
X114000000Y-109190000D03*
X114000000Y-111730000D03*
X114000000Y-114270000D03*
X114000000Y-116810000D03*
X114000000Y-119350000D03*
X114000000Y-121890000D03*
X114000000Y-124430000D03*
D13*
X132000000Y-101570000D03*
D14*
X132000000Y-104110000D03*
X132000000Y-106650000D03*
X132000000Y-109190000D03*
X132000000Y-111730000D03*
X132000000Y-114270000D03*
X132000000Y-116810000D03*
X132000000Y-119350000D03*
X132000000Y-121890000D03*
X132000000Y-124430000D03*
D13*
X144000000Y-101570000D03*
D14*
X144000000Y-104110000D03*
X144000000Y-106650000D03*
X144000000Y-109190000D03*
X144000000Y-111730000D03*
X144000000Y-114270000D03*
X144000000Y-116810000D03*
X144000000Y-119350000D03*
X144000000Y-121890000D03*
X144000000Y-124430000D03*
D15*
X123000000Y-118450000D03*
D16*
X125540000Y-115910000D03*
X120460000Y-115910000D03*
X125540000Y-120990000D03*
X120460000Y-120990000D03*
D17*
X127375000Y-106000000D03*
X118625000Y-106000000D03*
M02*
