M48
;DRILL file {KiCad 4.1.0-alpha+201605071002+6776~44~ubuntu14.04.1-product} date Mon 30 May 2016 01:00:22 BST
;FORMAT={-:-/ absolute / inch / decimal}
FMAT,2
INCH,TZ
T1C0.016
T2C0.039
T3C0.059
T4C0.067
T5C0.047
%
G90
G05
M72
T1
X4.6398Y-4.2992
X4.6398Y-4.378
X4.6398Y-4.4567
X4.6398Y-4.5354
X4.6398Y-4.6142
X4.6398Y-4.6929
X4.6398Y-4.7717
X4.6713Y-4.2992
X4.7028Y-4.2992
X4.7165Y-4.3898
X4.7224Y-4.4764
X4.7805Y-4.4783
X4.8371Y-4.3524
X4.8839Y-4.3524
X4.9193Y-4.4744
X4.9783Y-4.4744
X4.9823Y-4.2992
X4.9823Y-4.3474
X5.0138Y-4.2992
X5.0453Y-4.2992
X5.0453Y-4.378
X5.0453Y-4.4567
X5.0453Y-4.5354
X5.0453Y-4.6142
X5.0453Y-4.6929
X5.0453Y-4.7717
T2
X4.0157Y-3.9988
X4.0157Y-4.0988
X4.0157Y-4.1988
X4.0157Y-4.2988
X4.0157Y-4.3988
X4.0157Y-4.4988
X4.0157Y-4.5988
X4.0157Y-4.6988
X4.0157Y-4.7988
X4.0157Y-4.8988
X4.4882Y-3.9988
X4.4882Y-4.0988
X4.4882Y-4.1988
X4.4882Y-4.2988
X4.4882Y-4.3988
X4.4882Y-4.4988
X4.4882Y-4.5988
X4.4882Y-4.6988
X4.4882Y-4.7988
X4.4882Y-4.8988
X5.1969Y-3.9988
X5.1969Y-4.0988
X5.1969Y-4.1988
X5.1969Y-4.2988
X5.1969Y-4.3988
X5.1969Y-4.4988
X5.1969Y-4.5988
X5.1969Y-4.6988
X5.1969Y-4.7988
X5.1969Y-4.8988
X5.6693Y-3.9988
X5.6693Y-4.0988
X5.6693Y-4.1988
X5.6693Y-4.2988
X5.6693Y-4.3988
X5.6693Y-4.4988
X5.6693Y-4.5988
X5.6693Y-4.6988
X5.6693Y-4.7988
X5.6693Y-4.8988
T3
X4.8425Y-4.6634
T4
X4.7425Y-4.5634
X4.7425Y-4.7634
X4.9425Y-4.5634
X4.9425Y-4.7634
T5
X4.252Y-4.1612
X4.252Y-4.7364
X5.4331Y-4.1612
X5.4331Y-4.7364
T0
M30
