M48
;DRILL file {KiCad 4.1.0-alpha+201605071002+6776~44~ubuntu14.04.1-product} date Mon 30 May 2016 00:28:24 BST
;FORMAT={-:-/ absolute / inch / decimal}
FMAT,2
INCH,TZ
T1C0.016
T2C0.059
T3C0.067
%
G90
G05
M72
T1
X5.0098Y-3.7343
X5.0098Y-4.1398
X5.0886Y-3.7343
X5.0886Y-4.1398
X5.1673Y-3.7343
X5.1673Y-4.1398
X5.2461Y-3.7343
X5.2461Y-4.1398
X5.3031Y-3.875
X5.3051Y-3.8169
X5.3071Y-4.0138
X5.3071Y-4.0728
X5.3248Y-3.7343
X5.3248Y-4.1398
X5.3917Y-3.811
X5.4035Y-3.7343
X5.4035Y-4.1398
X5.4291Y-3.9316
X5.4291Y-3.9783
X5.4341Y-4.0768
X5.4823Y-3.7343
X5.4823Y-3.7657
X5.4823Y-3.7972
X5.4823Y-4.0768
X5.4823Y-4.1083
X5.4823Y-4.1398
T2
X5.1181Y-3.937
T3
X5.0181Y-3.837
X5.0181Y-4.037
X5.2181Y-3.837
X5.2181Y-4.037
T0
M30
