G04 #@! TF.GenerationSoftware,KiCad,Pcbnew,no-vcs-found-d3b382c~59~ubuntu16.04.1*
G04 #@! TF.CreationDate,2017-07-31T19:30:18+01:00*
G04 #@! TF.ProjectId,r2_panel,72325F70616E656C2E6B696361645F70,1*
G04 #@! TF.SameCoordinates,Original
G04 #@! TF.FileFunction,Legend,Top*
G04 #@! TF.FilePolarity,Positive*
%FSLAX46Y46*%
G04 Gerber Fmt 4.6, Leading zero omitted, Abs format (unit mm)*
G04 Created by KiCad (PCBNEW no-vcs-found-d3b382c~59~ubuntu16.04.1) date Mon Jul 31 19:30:18 2017*
%MOMM*%
%LPD*%
G01*
G04 APERTURE LIST*
%ADD10C,0.250000*%
%ADD11C,0.187500*%
%ADD12C,0.300000*%
%ADD13C,0.200000*%
%ADD14C,0.150000*%
%ADD15C,0.100000*%
%ADD16R,0.300000X1.500000*%
%ADD17R,1.500000X0.300000*%
%ADD18R,0.400000X0.950000*%
%ADD19R,0.620000X0.620000*%
%ADD20R,1.000000X1.050000*%
%ADD21R,1.050000X2.200000*%
%ADD22R,2.920000X0.740000*%
%ADD23C,0.950000*%
%ADD24R,0.650000X0.350000*%
%ADD25R,0.802000X0.802000*%
%ADD26R,0.750000X0.300000*%
%ADD27R,0.300000X0.750000*%
%ADD28R,2.602000X2.602000*%
%ADD29C,1.200000*%
%ADD30R,0.750000X0.900000*%
%ADD31R,0.470000X0.400000*%
%ADD32R,0.952000X1.702000*%
%ADD33R,0.520000X0.520000*%
%ADD34R,0.950000X1.000000*%
%ADD35R,0.950000X0.400000*%
%ADD36R,1.100000X0.600000*%
%ADD37R,1.450000X0.300000*%
%ADD38R,0.600000X0.200000*%
%ADD39R,1.800000X0.700000*%
%ADD40R,0.800000X1.000000*%
%ADD41C,1.600000*%
%ADD42R,0.702000X0.702000*%
%ADD43R,0.250000X0.700000*%
%ADD44R,0.700000X0.250000*%
%ADD45R,0.300000X0.250000*%
%ADD46R,0.620000X0.200000*%
%ADD47R,1.100000X0.670000*%
%ADD48R,0.980000X3.400000*%
%ADD49R,0.740000X2.920000*%
%ADD50R,0.400000X0.850000*%
%ADD51R,0.400000X0.455000*%
%ADD52R,1.050000X1.100000*%
%ADD53R,1.000000X0.950000*%
%ADD54C,1.150000*%
%ADD55R,0.250000X0.600000*%
%ADD56R,0.600000X0.250000*%
%ADD57R,1.702000X1.702000*%
%ADD58R,1.450000X1.150000*%
%ADD59C,1.000000*%
%ADD60R,0.710000X0.300000*%
%ADD61C,0.400000*%
%ADD62C,1.000000*%
%ADD63C,1.800000*%
%ADD64C,1.575000*%
%ADD65R,0.200000X0.400000*%
%ADD66R,0.400000X0.200000*%
%ADD67R,0.850000X0.950000*%
%ADD68R,0.559000X0.406000*%
%ADD69R,0.350000X0.650000*%
%ADD70R,0.900000X0.500000*%
%ADD71R,0.950000X0.850000*%
%ADD72R,3.400000X0.980000*%
%ADD73R,1.150000X1.450000*%
%ADD74C,0.620000*%
%ADD75R,0.500000X1.600000*%
G04 APERTURE END LIST*
D10*
X86791551Y-87210948D02*
X87048666Y-86904530D01*
X87640372Y-87177246D02*
X87273065Y-87614986D01*
X86353811Y-86843641D01*
X86721118Y-86405901D01*
X87970948Y-86783280D02*
X87358113Y-86269050D01*
X87533209Y-86415973D02*
X87482391Y-86298738D01*
X87475348Y-86218233D01*
X87505036Y-86093954D01*
X87578497Y-86006406D01*
X88448448Y-86214219D02*
X87835612Y-85699989D01*
X88010708Y-85846912D02*
X87959891Y-85729676D01*
X87952848Y-85649172D01*
X87982535Y-85524893D01*
X88055996Y-85437345D01*
X83787969Y-88621397D02*
X83975204Y-88490294D01*
X84101597Y-88471551D01*
X84260766Y-88499617D01*
X84438678Y-88654076D01*
X84668109Y-88981737D01*
X84752403Y-89201747D01*
X84724337Y-89360916D01*
X84663496Y-89473276D01*
X84476261Y-89604379D01*
X84349868Y-89623122D01*
X84190699Y-89595057D01*
X84012787Y-89440598D01*
X83783356Y-89112937D01*
X83699062Y-88892926D01*
X83727128Y-88733757D01*
X83787969Y-88621397D01*
X85318817Y-89014415D02*
X84630526Y-88031433D01*
X85880522Y-88621106D02*
X85065934Y-88354384D01*
X85192230Y-87638123D02*
X85023835Y-88593137D01*
D11*
X63614285Y-82825000D02*
X63542857Y-82789285D01*
X63435714Y-82789285D01*
X63328571Y-82825000D01*
X63257142Y-82896428D01*
X63221428Y-82967857D01*
X63185714Y-83110714D01*
X63185714Y-83217857D01*
X63221428Y-83360714D01*
X63257142Y-83432142D01*
X63328571Y-83503571D01*
X63435714Y-83539285D01*
X63507142Y-83539285D01*
X63614285Y-83503571D01*
X63650000Y-83467857D01*
X63650000Y-83217857D01*
X63507142Y-83217857D01*
X63971428Y-83539285D02*
X63971428Y-82789285D01*
X64257142Y-82789285D01*
X64328571Y-82825000D01*
X64364285Y-82860714D01*
X64400000Y-82932142D01*
X64400000Y-83039285D01*
X64364285Y-83110714D01*
X64328571Y-83146428D01*
X64257142Y-83182142D01*
X63971428Y-83182142D01*
X64685714Y-83503571D02*
X64792857Y-83539285D01*
X64971428Y-83539285D01*
X65042857Y-83503571D01*
X65078571Y-83467857D01*
X65114285Y-83396428D01*
X65114285Y-83325000D01*
X65078571Y-83253571D01*
X65042857Y-83217857D01*
X64971428Y-83182142D01*
X64828571Y-83146428D01*
X64757142Y-83110714D01*
X64721428Y-83075000D01*
X64685714Y-83003571D01*
X64685714Y-82932142D01*
X64721428Y-82860714D01*
X64757142Y-82825000D01*
X64828571Y-82789285D01*
X65007142Y-82789285D01*
X65114285Y-82825000D01*
X69135714Y-57589285D02*
X68885714Y-57232142D01*
X68707142Y-57589285D02*
X68707142Y-56839285D01*
X68992857Y-56839285D01*
X69064285Y-56875000D01*
X69100000Y-56910714D01*
X69135714Y-56982142D01*
X69135714Y-57089285D01*
X69100000Y-57160714D01*
X69064285Y-57196428D01*
X68992857Y-57232142D01*
X68707142Y-57232142D01*
X69778571Y-57589285D02*
X69778571Y-57196428D01*
X69742857Y-57125000D01*
X69671428Y-57089285D01*
X69528571Y-57089285D01*
X69457142Y-57125000D01*
X69778571Y-57553571D02*
X69707142Y-57589285D01*
X69528571Y-57589285D01*
X69457142Y-57553571D01*
X69421428Y-57482142D01*
X69421428Y-57410714D01*
X69457142Y-57339285D01*
X69528571Y-57303571D01*
X69707142Y-57303571D01*
X69778571Y-57267857D01*
X70457142Y-57589285D02*
X70457142Y-56839285D01*
X70457142Y-57553571D02*
X70385714Y-57589285D01*
X70242857Y-57589285D01*
X70171428Y-57553571D01*
X70135714Y-57517857D01*
X70100000Y-57446428D01*
X70100000Y-57232142D01*
X70135714Y-57160714D01*
X70171428Y-57125000D01*
X70242857Y-57089285D01*
X70385714Y-57089285D01*
X70457142Y-57125000D01*
X70814285Y-57589285D02*
X70814285Y-57089285D01*
X70814285Y-56839285D02*
X70778571Y-56875000D01*
X70814285Y-56910714D01*
X70850000Y-56875000D01*
X70814285Y-56839285D01*
X70814285Y-56910714D01*
X71278571Y-57589285D02*
X71207142Y-57553571D01*
X71171428Y-57517857D01*
X71135714Y-57446428D01*
X71135714Y-57232142D01*
X71171428Y-57160714D01*
X71207142Y-57125000D01*
X71278571Y-57089285D01*
X71385714Y-57089285D01*
X71457142Y-57125000D01*
X71492857Y-57160714D01*
X71528571Y-57232142D01*
X71528571Y-57446428D01*
X71492857Y-57517857D01*
X71457142Y-57553571D01*
X71385714Y-57589285D01*
X71278571Y-57589285D01*
D10*
X123180952Y-66128571D02*
X122419047Y-66128571D01*
X122800000Y-65747619D02*
X122800000Y-66509523D01*
X121180952Y-66128571D02*
X120419047Y-66128571D01*
X116580952Y-66128571D02*
X115819047Y-66128571D01*
X116200000Y-65747619D02*
X116200000Y-66509523D01*
X114580952Y-66128571D02*
X113819047Y-66128571D01*
X133419047Y-83871428D02*
X134180952Y-83871428D01*
X133800000Y-84252380D02*
X133800000Y-83490476D01*
X135419047Y-83871428D02*
X136180952Y-83871428D01*
X126819047Y-83871428D02*
X127580952Y-83871428D01*
X127200000Y-84252380D02*
X127200000Y-83490476D01*
X128819047Y-83871428D02*
X129580952Y-83871428D01*
X113819047Y-83871428D02*
X114580952Y-83871428D01*
X114200000Y-84252380D02*
X114200000Y-83490476D01*
X115819047Y-83871428D02*
X116580952Y-83871428D01*
X120419047Y-83871428D02*
X121180952Y-83871428D01*
X120800000Y-84252380D02*
X120800000Y-83490476D01*
X122419047Y-83871428D02*
X123180952Y-83871428D01*
D12*
X115500000Y-75678571D02*
X115500000Y-74178571D01*
X116000000Y-75250000D01*
X116500000Y-74178571D01*
X116500000Y-75678571D01*
X117071428Y-74178571D02*
X118000000Y-74178571D01*
X117500000Y-74750000D01*
X117714285Y-74750000D01*
X117857142Y-74821428D01*
X117928571Y-74892857D01*
X118000000Y-75035714D01*
X118000000Y-75392857D01*
X117928571Y-75535714D01*
X117857142Y-75607142D01*
X117714285Y-75678571D01*
X117285714Y-75678571D01*
X117142857Y-75607142D01*
X117071428Y-75535714D01*
X119714285Y-75250000D02*
X120428571Y-75250000D01*
X119571428Y-75678571D02*
X120071428Y-74178571D01*
X120571428Y-75678571D01*
X120857142Y-74178571D02*
X121357142Y-75678571D01*
X121857142Y-74178571D01*
X122357142Y-75678571D02*
X122357142Y-74178571D01*
X123357142Y-74178571D02*
X123642857Y-74178571D01*
X123785714Y-74250000D01*
X123928571Y-74392857D01*
X124000000Y-74678571D01*
X124000000Y-75178571D01*
X123928571Y-75464285D01*
X123785714Y-75607142D01*
X123642857Y-75678571D01*
X123357142Y-75678571D01*
X123214285Y-75607142D01*
X123071428Y-75464285D01*
X123000000Y-75178571D01*
X123000000Y-74678571D01*
X123071428Y-74392857D01*
X123214285Y-74250000D01*
X123357142Y-74178571D01*
X124642857Y-75678571D02*
X124642857Y-74178571D01*
X125500000Y-75678571D01*
X125500000Y-74178571D01*
X126214285Y-75678571D02*
X126214285Y-74178571D01*
X127785714Y-75535714D02*
X127714285Y-75607142D01*
X127500000Y-75678571D01*
X127357142Y-75678571D01*
X127142857Y-75607142D01*
X127000000Y-75464285D01*
X126928571Y-75321428D01*
X126857142Y-75035714D01*
X126857142Y-74821428D01*
X126928571Y-74535714D01*
X127000000Y-74392857D01*
X127142857Y-74250000D01*
X127357142Y-74178571D01*
X127500000Y-74178571D01*
X127714285Y-74250000D01*
X127785714Y-74321428D01*
X128357142Y-75607142D02*
X128571428Y-75678571D01*
X128928571Y-75678571D01*
X129071428Y-75607142D01*
X129142857Y-75535714D01*
X129214285Y-75392857D01*
X129214285Y-75250000D01*
X129142857Y-75107142D01*
X129071428Y-75035714D01*
X128928571Y-74964285D01*
X128642857Y-74892857D01*
X128500000Y-74821428D01*
X128428571Y-74750000D01*
X128357142Y-74607142D01*
X128357142Y-74464285D01*
X128428571Y-74321428D01*
X128500000Y-74250000D01*
X128642857Y-74178571D01*
X129000000Y-74178571D01*
X129214285Y-74250000D01*
X130785714Y-74178571D02*
X131642857Y-74178571D01*
X131214285Y-75678571D02*
X131214285Y-74178571D01*
X132428571Y-74178571D02*
X132714285Y-74178571D01*
X132857142Y-74250000D01*
X133000000Y-74392857D01*
X133071428Y-74678571D01*
X133071428Y-75178571D01*
X133000000Y-75464285D01*
X132857142Y-75607142D01*
X132714285Y-75678571D01*
X132428571Y-75678571D01*
X132285714Y-75607142D01*
X132142857Y-75464285D01*
X132071428Y-75178571D01*
X132071428Y-74678571D01*
X132142857Y-74392857D01*
X132285714Y-74250000D01*
X132428571Y-74178571D01*
X133714285Y-75678571D02*
X133714285Y-74178571D01*
X134285714Y-74178571D01*
X134428571Y-74250000D01*
X134500000Y-74321428D01*
X134571428Y-74464285D01*
X134571428Y-74678571D01*
X134500000Y-74821428D01*
X134428571Y-74892857D01*
X134285714Y-74964285D01*
X133714285Y-74964285D01*
D10*
X137538095Y-72833333D02*
X137061904Y-72833333D01*
X137633333Y-72547619D02*
X137300000Y-73547619D01*
X136966666Y-72547619D01*
X136061904Y-72547619D02*
X136395238Y-73023809D01*
X136633333Y-72547619D02*
X136633333Y-73547619D01*
X136252380Y-73547619D01*
X136157142Y-73500000D01*
X136109523Y-73452380D01*
X136061904Y-73357142D01*
X136061904Y-73214285D01*
X136109523Y-73119047D01*
X136157142Y-73071428D01*
X136252380Y-73023809D01*
X136633333Y-73023809D01*
X135633333Y-72547619D02*
X135633333Y-73547619D01*
X135300000Y-72833333D01*
X134966666Y-73547619D01*
X134966666Y-72547619D01*
X133776190Y-72595238D02*
X133633333Y-72547619D01*
X133395238Y-72547619D01*
X133300000Y-72595238D01*
X133252380Y-72642857D01*
X133204761Y-72738095D01*
X133204761Y-72833333D01*
X133252380Y-72928571D01*
X133300000Y-72976190D01*
X133395238Y-73023809D01*
X133585714Y-73071428D01*
X133680952Y-73119047D01*
X133728571Y-73166666D01*
X133776190Y-73261904D01*
X133776190Y-73357142D01*
X133728571Y-73452380D01*
X133680952Y-73500000D01*
X133585714Y-73547619D01*
X133347619Y-73547619D01*
X133204761Y-73500000D01*
X132871428Y-73547619D02*
X132633333Y-72547619D01*
X132442857Y-73261904D01*
X132252380Y-72547619D01*
X132014285Y-73547619D01*
X130961904Y-72547619D02*
X130961904Y-73547619D01*
X130580952Y-73547619D01*
X130485714Y-73500000D01*
X130438095Y-73452380D01*
X130390476Y-73357142D01*
X130390476Y-73214285D01*
X130438095Y-73119047D01*
X130485714Y-73071428D01*
X130580952Y-73023809D01*
X130961904Y-73023809D01*
X130057142Y-73547619D02*
X129819047Y-72547619D01*
X129628571Y-73261904D01*
X129438095Y-72547619D01*
X129200000Y-73547619D01*
X128247619Y-72547619D02*
X128580952Y-73023809D01*
X128819047Y-72547619D02*
X128819047Y-73547619D01*
X128438095Y-73547619D01*
X128342857Y-73500000D01*
X128295238Y-73452380D01*
X128247619Y-73357142D01*
X128247619Y-73214285D01*
X128295238Y-73119047D01*
X128342857Y-73071428D01*
X128438095Y-73023809D01*
X128819047Y-73023809D01*
X127104761Y-72595238D02*
X126961904Y-72547619D01*
X126723809Y-72547619D01*
X126628571Y-72595238D01*
X126580952Y-72642857D01*
X126533333Y-72738095D01*
X126533333Y-72833333D01*
X126580952Y-72928571D01*
X126628571Y-72976190D01*
X126723809Y-73023809D01*
X126914285Y-73071428D01*
X127009523Y-73119047D01*
X127057142Y-73166666D01*
X127104761Y-73261904D01*
X127104761Y-73357142D01*
X127057142Y-73452380D01*
X127009523Y-73500000D01*
X126914285Y-73547619D01*
X126676190Y-73547619D01*
X126533333Y-73500000D01*
X126200000Y-73547619D02*
X125961904Y-72547619D01*
X125771428Y-73261904D01*
X125580952Y-72547619D01*
X125342857Y-73547619D01*
X123990476Y-72547619D02*
X123990476Y-73547619D01*
X123609523Y-73547619D01*
X123514285Y-73500000D01*
X123466666Y-73452380D01*
X123419047Y-73357142D01*
X123419047Y-73214285D01*
X123466666Y-73119047D01*
X123514285Y-73071428D01*
X123609523Y-73023809D01*
X123990476Y-73023809D01*
X122800000Y-73023809D02*
X122800000Y-72547619D01*
X123133333Y-73547619D02*
X122800000Y-73023809D01*
X122466666Y-73547619D01*
X121561904Y-72547619D02*
X121895238Y-73023809D01*
X122133333Y-72547619D02*
X122133333Y-73547619D01*
X121752380Y-73547619D01*
X121657142Y-73500000D01*
X121609523Y-73452380D01*
X121561904Y-73357142D01*
X121561904Y-73214285D01*
X121609523Y-73119047D01*
X121657142Y-73071428D01*
X121752380Y-73023809D01*
X122133333Y-73023809D01*
X120942857Y-73547619D02*
X120752380Y-73547619D01*
X120657142Y-73500000D01*
X120561904Y-73404761D01*
X120514285Y-73214285D01*
X120514285Y-72880952D01*
X120561904Y-72690476D01*
X120657142Y-72595238D01*
X120752380Y-72547619D01*
X120942857Y-72547619D01*
X121038095Y-72595238D01*
X121133333Y-72690476D01*
X121180952Y-72880952D01*
X121180952Y-73214285D01*
X121133333Y-73404761D01*
X121038095Y-73500000D01*
X120942857Y-73547619D01*
X119609523Y-73547619D02*
X120085714Y-73547619D01*
X120133333Y-73071428D01*
X120085714Y-73119047D01*
X119990476Y-73166666D01*
X119752380Y-73166666D01*
X119657142Y-73119047D01*
X119609523Y-73071428D01*
X119561904Y-72976190D01*
X119561904Y-72738095D01*
X119609523Y-72642857D01*
X119657142Y-72595238D01*
X119752380Y-72547619D01*
X119990476Y-72547619D01*
X120085714Y-72595238D01*
X120133333Y-72642857D01*
X117390476Y-72547619D02*
X117390476Y-73547619D01*
X117009523Y-73547619D01*
X116914285Y-73500000D01*
X116866666Y-73452380D01*
X116819047Y-73357142D01*
X116819047Y-73214285D01*
X116866666Y-73119047D01*
X116914285Y-73071428D01*
X117009523Y-73023809D01*
X117390476Y-73023809D01*
X116200000Y-73023809D02*
X116200000Y-72547619D01*
X116533333Y-73547619D02*
X116200000Y-73023809D01*
X115866666Y-73547619D01*
X114961904Y-72547619D02*
X115295238Y-73023809D01*
X115533333Y-72547619D02*
X115533333Y-73547619D01*
X115152380Y-73547619D01*
X115057142Y-73500000D01*
X115009523Y-73452380D01*
X114961904Y-73357142D01*
X114961904Y-73214285D01*
X115009523Y-73119047D01*
X115057142Y-73071428D01*
X115152380Y-73023809D01*
X115533333Y-73023809D01*
X114342857Y-73547619D02*
X114152380Y-73547619D01*
X114057142Y-73500000D01*
X113961904Y-73404761D01*
X113914285Y-73214285D01*
X113914285Y-72880952D01*
X113961904Y-72690476D01*
X114057142Y-72595238D01*
X114152380Y-72547619D01*
X114342857Y-72547619D01*
X114438095Y-72595238D01*
X114533333Y-72690476D01*
X114580952Y-72880952D01*
X114580952Y-73214285D01*
X114533333Y-73404761D01*
X114438095Y-73500000D01*
X114342857Y-73547619D01*
X113057142Y-73547619D02*
X113247619Y-73547619D01*
X113342857Y-73500000D01*
X113390476Y-73452380D01*
X113485714Y-73309523D01*
X113533333Y-73119047D01*
X113533333Y-72738095D01*
X113485714Y-72642857D01*
X113438095Y-72595238D01*
X113342857Y-72547619D01*
X113152380Y-72547619D01*
X113057142Y-72595238D01*
X113009523Y-72642857D01*
X112961904Y-72738095D01*
X112961904Y-72976190D01*
X113009523Y-73071428D01*
X113057142Y-73119047D01*
X113152380Y-73166666D01*
X113342857Y-73166666D01*
X113438095Y-73119047D01*
X113485714Y-73071428D01*
X113533333Y-72976190D01*
X132704761Y-77357142D02*
X132657142Y-77404761D01*
X132514285Y-77452380D01*
X132419047Y-77452380D01*
X132276190Y-77404761D01*
X132180952Y-77309523D01*
X132133333Y-77214285D01*
X132085714Y-77023809D01*
X132085714Y-76880952D01*
X132133333Y-76690476D01*
X132180952Y-76595238D01*
X132276190Y-76500000D01*
X132419047Y-76452380D01*
X132514285Y-76452380D01*
X132657142Y-76500000D01*
X132704761Y-76547619D01*
X133133333Y-77452380D02*
X133133333Y-76452380D01*
X133133333Y-76928571D02*
X133704761Y-76928571D01*
X133704761Y-77452380D02*
X133704761Y-76452380D01*
X134133333Y-77166666D02*
X134609523Y-77166666D01*
X134038095Y-77452380D02*
X134371428Y-76452380D01*
X134704761Y-77452380D01*
X135609523Y-77452380D02*
X135276190Y-76976190D01*
X135038095Y-77452380D02*
X135038095Y-76452380D01*
X135419047Y-76452380D01*
X135514285Y-76500000D01*
X135561904Y-76547619D01*
X135609523Y-76642857D01*
X135609523Y-76785714D01*
X135561904Y-76880952D01*
X135514285Y-76928571D01*
X135419047Y-76976190D01*
X135038095Y-76976190D01*
X136561904Y-76500000D02*
X136466666Y-76452380D01*
X136323809Y-76452380D01*
X136180952Y-76500000D01*
X136085714Y-76595238D01*
X136038095Y-76690476D01*
X135990476Y-76880952D01*
X135990476Y-77023809D01*
X136038095Y-77214285D01*
X136085714Y-77309523D01*
X136180952Y-77404761D01*
X136323809Y-77452380D01*
X136419047Y-77452380D01*
X136561904Y-77404761D01*
X136609523Y-77357142D01*
X136609523Y-77023809D01*
X136419047Y-77023809D01*
X137038095Y-76928571D02*
X137371428Y-76928571D01*
X137514285Y-77452380D02*
X137038095Y-77452380D01*
X137038095Y-76452380D01*
X137514285Y-76452380D01*
X126509523Y-76452380D02*
X126033333Y-76452380D01*
X125985714Y-76928571D01*
X126033333Y-76880952D01*
X126128571Y-76833333D01*
X126366666Y-76833333D01*
X126461904Y-76880952D01*
X126509523Y-76928571D01*
X126557142Y-77023809D01*
X126557142Y-77261904D01*
X126509523Y-77357142D01*
X126461904Y-77404761D01*
X126366666Y-77452380D01*
X126128571Y-77452380D01*
X126033333Y-77404761D01*
X125985714Y-77357142D01*
X126842857Y-76452380D02*
X127176190Y-77452380D01*
X127509523Y-76452380D01*
X128414285Y-77357142D02*
X128366666Y-77404761D01*
X128223809Y-77452380D01*
X128128571Y-77452380D01*
X127985714Y-77404761D01*
X127890476Y-77309523D01*
X127842857Y-77214285D01*
X127795238Y-77023809D01*
X127795238Y-76880952D01*
X127842857Y-76690476D01*
X127890476Y-76595238D01*
X127985714Y-76500000D01*
X128128571Y-76452380D01*
X128223809Y-76452380D01*
X128366666Y-76500000D01*
X128414285Y-76547619D01*
X128795238Y-77166666D02*
X129271428Y-77166666D01*
X128700000Y-77452380D02*
X129033333Y-76452380D01*
X129366666Y-77452380D01*
X129700000Y-77452380D02*
X129700000Y-76452380D01*
X130033333Y-77166666D01*
X130366666Y-76452380D01*
X130366666Y-77452380D01*
X119609523Y-77452380D02*
X119609523Y-76452380D01*
X119990476Y-76452380D01*
X120085714Y-76500000D01*
X120133333Y-76547619D01*
X120180952Y-76642857D01*
X120180952Y-76785714D01*
X120133333Y-76880952D01*
X120085714Y-76928571D01*
X119990476Y-76976190D01*
X119609523Y-76976190D01*
X120800000Y-76976190D02*
X120800000Y-77452380D01*
X120466666Y-76452380D02*
X120800000Y-76976190D01*
X121133333Y-76452380D01*
X122038095Y-77452380D02*
X121704761Y-76976190D01*
X121466666Y-77452380D02*
X121466666Y-76452380D01*
X121847619Y-76452380D01*
X121942857Y-76500000D01*
X121990476Y-76547619D01*
X122038095Y-76642857D01*
X122038095Y-76785714D01*
X121990476Y-76880952D01*
X121942857Y-76928571D01*
X121847619Y-76976190D01*
X121466666Y-76976190D01*
X122657142Y-76452380D02*
X122847619Y-76452380D01*
X122942857Y-76500000D01*
X123038095Y-76595238D01*
X123085714Y-76785714D01*
X123085714Y-77119047D01*
X123038095Y-77309523D01*
X122942857Y-77404761D01*
X122847619Y-77452380D01*
X122657142Y-77452380D01*
X122561904Y-77404761D01*
X122466666Y-77309523D01*
X122419047Y-77119047D01*
X122419047Y-76785714D01*
X122466666Y-76595238D01*
X122561904Y-76500000D01*
X122657142Y-76452380D01*
X123657142Y-76880952D02*
X123561904Y-76833333D01*
X123514285Y-76785714D01*
X123466666Y-76690476D01*
X123466666Y-76642857D01*
X123514285Y-76547619D01*
X123561904Y-76500000D01*
X123657142Y-76452380D01*
X123847619Y-76452380D01*
X123942857Y-76500000D01*
X123990476Y-76547619D01*
X124038095Y-76642857D01*
X124038095Y-76690476D01*
X123990476Y-76785714D01*
X123942857Y-76833333D01*
X123847619Y-76880952D01*
X123657142Y-76880952D01*
X123561904Y-76928571D01*
X123514285Y-76976190D01*
X123466666Y-77071428D01*
X123466666Y-77261904D01*
X123514285Y-77357142D01*
X123561904Y-77404761D01*
X123657142Y-77452380D01*
X123847619Y-77452380D01*
X123942857Y-77404761D01*
X123990476Y-77357142D01*
X124038095Y-77261904D01*
X124038095Y-77071428D01*
X123990476Y-76976190D01*
X123942857Y-76928571D01*
X123847619Y-76880952D01*
X113009523Y-77452380D02*
X113009523Y-76452380D01*
X113390476Y-76452380D01*
X113485714Y-76500000D01*
X113533333Y-76547619D01*
X113580952Y-76642857D01*
X113580952Y-76785714D01*
X113533333Y-76880952D01*
X113485714Y-76928571D01*
X113390476Y-76976190D01*
X113009523Y-76976190D01*
X114200000Y-76976190D02*
X114200000Y-77452380D01*
X113866666Y-76452380D02*
X114200000Y-76976190D01*
X114533333Y-76452380D01*
X115438095Y-77452380D02*
X115104761Y-76976190D01*
X114866666Y-77452380D02*
X114866666Y-76452380D01*
X115247619Y-76452380D01*
X115342857Y-76500000D01*
X115390476Y-76547619D01*
X115438095Y-76642857D01*
X115438095Y-76785714D01*
X115390476Y-76880952D01*
X115342857Y-76928571D01*
X115247619Y-76976190D01*
X114866666Y-76976190D01*
X116057142Y-76452380D02*
X116247619Y-76452380D01*
X116342857Y-76500000D01*
X116438095Y-76595238D01*
X116485714Y-76785714D01*
X116485714Y-77119047D01*
X116438095Y-77309523D01*
X116342857Y-77404761D01*
X116247619Y-77452380D01*
X116057142Y-77452380D01*
X115961904Y-77404761D01*
X115866666Y-77309523D01*
X115819047Y-77119047D01*
X115819047Y-76785714D01*
X115866666Y-76595238D01*
X115961904Y-76500000D01*
X116057142Y-76452380D01*
X116819047Y-76452380D02*
X117485714Y-76452380D01*
X117057142Y-77452380D01*
D12*
X110821428Y-72392857D02*
X109321428Y-72750000D01*
X110392857Y-73035714D01*
X109321428Y-73321428D01*
X110821428Y-73678571D01*
X110107142Y-74250000D02*
X110107142Y-74750000D01*
X109321428Y-74964285D02*
X109321428Y-74250000D01*
X110821428Y-74250000D01*
X110821428Y-74964285D01*
X109392857Y-75535714D02*
X109321428Y-75750000D01*
X109321428Y-76107142D01*
X109392857Y-76250000D01*
X109464285Y-76321428D01*
X109607142Y-76392857D01*
X109750000Y-76392857D01*
X109892857Y-76321428D01*
X109964285Y-76250000D01*
X110035714Y-76107142D01*
X110107142Y-75821428D01*
X110178571Y-75678571D01*
X110250000Y-75607142D01*
X110392857Y-75535714D01*
X110535714Y-75535714D01*
X110678571Y-75607142D01*
X110750000Y-75678571D01*
X110821428Y-75821428D01*
X110821428Y-76178571D01*
X110750000Y-76392857D01*
X110821428Y-76821428D02*
X110821428Y-77678571D01*
X109321428Y-77250000D02*
X110821428Y-77250000D01*
X139892857Y-77250000D02*
X139892857Y-76750000D01*
X140678571Y-76535714D02*
X140678571Y-77250000D01*
X139178571Y-77250000D01*
X139178571Y-76535714D01*
X140250000Y-75964285D02*
X140250000Y-75250000D01*
X140678571Y-76107142D02*
X139178571Y-75607142D01*
X140678571Y-75107142D01*
X140607142Y-74678571D02*
X140678571Y-74464285D01*
X140678571Y-74107142D01*
X140607142Y-73964285D01*
X140535714Y-73892857D01*
X140392857Y-73821428D01*
X140250000Y-73821428D01*
X140107142Y-73892857D01*
X140035714Y-73964285D01*
X139964285Y-74107142D01*
X139892857Y-74392857D01*
X139821428Y-74535714D01*
X139750000Y-74607142D01*
X139607142Y-74678571D01*
X139464285Y-74678571D01*
X139321428Y-74607142D01*
X139250000Y-74535714D01*
X139178571Y-74392857D01*
X139178571Y-74035714D01*
X139250000Y-73821428D01*
X139178571Y-73392857D02*
X139178571Y-72535714D01*
X140678571Y-72964285D02*
X139178571Y-72964285D01*
D10*
X85296890Y-135874200D02*
X85902982Y-136480292D01*
X85983794Y-136641916D01*
X85983794Y-136803541D01*
X85902982Y-136965165D01*
X85822170Y-137045977D01*
X85620139Y-135550951D02*
X86670698Y-136197449D01*
X86226231Y-135429733D01*
X86993947Y-135874200D01*
X86347449Y-134823642D01*
X83069504Y-141162349D02*
X83069504Y-141081537D01*
X83109910Y-140960318D01*
X83311941Y-140758288D01*
X83433159Y-140717882D01*
X83513971Y-140717882D01*
X83635190Y-140758288D01*
X83716002Y-140839100D01*
X83796814Y-141000725D01*
X83796814Y-141970471D01*
X84322093Y-141445192D01*
X83998844Y-140071384D02*
X84079657Y-139990572D01*
X84200875Y-139950166D01*
X84281687Y-139950166D01*
X84402906Y-139990572D01*
X84604936Y-140111790D01*
X84806967Y-140313821D01*
X84928185Y-140515851D01*
X84968591Y-140637070D01*
X84968591Y-140717882D01*
X84928185Y-140839100D01*
X84847373Y-140919912D01*
X84726154Y-140960318D01*
X84645342Y-140960318D01*
X84524124Y-140919912D01*
X84322093Y-140798694D01*
X84120063Y-140596663D01*
X83998844Y-140394633D01*
X83958438Y-140273415D01*
X83958438Y-140192602D01*
X83998844Y-140071384D01*
X85938337Y-139828948D02*
X85453464Y-140313821D01*
X85695901Y-140071384D02*
X84847373Y-139222856D01*
X84887779Y-139424887D01*
X84887779Y-139586511D01*
X84847373Y-139707729D01*
X85372652Y-138697577D02*
X85938337Y-138131891D01*
X86423211Y-139344074D01*
X86786866Y-138333922D02*
X87433363Y-137687424D01*
X87473769Y-136596459D02*
X87554581Y-136515647D01*
X87675800Y-136475241D01*
X87756612Y-136475241D01*
X87877830Y-136515647D01*
X88079861Y-136636866D01*
X88281891Y-136838896D01*
X88403110Y-137040927D01*
X88443516Y-137162145D01*
X88443516Y-137242957D01*
X88403110Y-137364175D01*
X88322297Y-137444988D01*
X88201079Y-137485394D01*
X88120267Y-137485394D01*
X87999049Y-137444988D01*
X87797018Y-137323769D01*
X87594988Y-137121739D01*
X87473769Y-136919708D01*
X87433363Y-136798490D01*
X87433363Y-136717678D01*
X87473769Y-136596459D01*
X88039455Y-136030774D02*
X88605140Y-135465089D01*
X89090013Y-136677272D01*
X89453668Y-135667119D02*
X90100166Y-135020621D01*
X90019354Y-134212499D02*
X90019354Y-134131687D01*
X90059760Y-134010469D01*
X90261790Y-133808438D01*
X90383009Y-133768032D01*
X90463821Y-133768032D01*
X90585039Y-133808438D01*
X90665851Y-133889251D01*
X90746663Y-134050875D01*
X90746663Y-135020621D01*
X91271943Y-134495342D01*
X91150725Y-132919504D02*
X90989100Y-133081129D01*
X90948694Y-133202347D01*
X90948694Y-133283159D01*
X90989100Y-133485190D01*
X91110318Y-133687220D01*
X91433567Y-134010469D01*
X91554786Y-134050875D01*
X91635598Y-134050875D01*
X91756816Y-134010469D01*
X91918440Y-133848844D01*
X91958847Y-133727626D01*
X91958847Y-133646814D01*
X91918440Y-133525596D01*
X91716410Y-133323565D01*
X91595192Y-133283159D01*
X91514379Y-133283159D01*
X91393161Y-133323565D01*
X91231537Y-133485190D01*
X91191131Y-133606408D01*
X91191131Y-133687220D01*
X91231537Y-133808438D01*
X89676300Y-114552326D02*
X90369120Y-114152326D01*
X90171172Y-114266611D02*
X90298717Y-114258956D01*
X90376776Y-114279871D01*
X90483406Y-114350274D01*
X90540549Y-114449249D01*
X90362014Y-115740018D02*
X90019157Y-115146172D01*
X90190586Y-115443095D02*
X91229816Y-114843095D01*
X91024212Y-114829835D01*
X90868095Y-114788003D01*
X90761465Y-114717600D01*
X81109801Y-108084693D02*
X81691573Y-107035149D01*
X81625869Y-107978747D01*
X82391268Y-107422997D01*
X81809497Y-108472541D01*
X82791095Y-107644624D02*
X83440812Y-108004768D01*
X82869337Y-108210671D01*
X83019272Y-108293781D01*
X83091525Y-108399166D01*
X83113800Y-108476848D01*
X83108371Y-108604508D01*
X82969854Y-108854399D01*
X82864469Y-108926652D01*
X82786787Y-108948927D01*
X82659127Y-108943498D01*
X82359258Y-108777278D01*
X82287005Y-108671893D01*
X82264730Y-108594211D01*
X83308845Y-109303643D02*
X83890616Y-108254099D01*
X84290443Y-108475726D01*
X84362696Y-108581111D01*
X84384971Y-108658793D01*
X84379542Y-108786453D01*
X84296432Y-108936388D01*
X84191047Y-109008641D01*
X84113365Y-109030916D01*
X83985705Y-109025487D01*
X83585879Y-108803860D01*
X84336114Y-109807733D02*
X84458345Y-109940821D01*
X84708236Y-110079338D01*
X84835896Y-110084767D01*
X84913578Y-110062492D01*
X85018963Y-109990239D01*
X85074370Y-109890282D01*
X85079799Y-109762622D01*
X85057524Y-109684941D01*
X84985271Y-109579555D01*
X84813061Y-109418764D01*
X84740808Y-109313378D01*
X84718533Y-109235697D01*
X84723961Y-109108037D01*
X84779368Y-109008080D01*
X84884753Y-108935827D01*
X84962435Y-108913552D01*
X85090095Y-108918981D01*
X85339986Y-109057498D01*
X85462218Y-109190586D01*
X85939725Y-109389939D02*
X85468768Y-110239569D01*
X85463339Y-110367229D01*
X85485614Y-110444911D01*
X85557867Y-110550296D01*
X85757780Y-110661110D01*
X85885440Y-110666538D01*
X85963122Y-110644263D01*
X86068507Y-110572010D01*
X86539465Y-109722380D01*
X80790648Y-110251659D02*
X81372419Y-109202115D01*
X81622311Y-109340632D01*
X81744542Y-109473721D01*
X81789092Y-109629084D01*
X81783663Y-109756744D01*
X81722828Y-109984360D01*
X81639718Y-110134295D01*
X81478926Y-110306505D01*
X81373541Y-110378758D01*
X81218177Y-110423308D01*
X81040539Y-110390176D01*
X80790648Y-110251659D01*
X82495337Y-111065915D02*
X82417656Y-111088190D01*
X82240018Y-111055058D01*
X82140061Y-110999651D01*
X82017830Y-110866562D01*
X81973280Y-110711199D01*
X81978708Y-110583539D01*
X82039544Y-110355923D01*
X82122654Y-110205988D01*
X82283446Y-110033778D01*
X82388831Y-109961525D01*
X82544194Y-109916975D01*
X82721833Y-109950107D01*
X82821789Y-110005514D01*
X82944020Y-110138602D01*
X82966295Y-110216284D01*
X83371550Y-110310251D02*
X84021268Y-110670396D01*
X83449792Y-110876298D01*
X83599727Y-110959408D01*
X83671980Y-111064793D01*
X83694255Y-111142475D01*
X83688827Y-111270135D01*
X83550310Y-111520026D01*
X83444925Y-111592279D01*
X83367243Y-111614554D01*
X83239583Y-111609126D01*
X82939713Y-111442905D01*
X82867460Y-111337520D01*
X82845185Y-111259839D01*
X84321137Y-110836616D02*
X84089213Y-112080084D01*
X85020833Y-111224464D01*
X177711809Y-61981380D02*
X177711809Y-60981380D01*
X178045142Y-61695666D01*
X178378476Y-60981380D01*
X178378476Y-61981380D01*
X178759428Y-60981380D02*
X179378476Y-60981380D01*
X179045142Y-61362333D01*
X179188000Y-61362333D01*
X179283238Y-61409952D01*
X179330857Y-61457571D01*
X179378476Y-61552809D01*
X179378476Y-61790904D01*
X179330857Y-61886142D01*
X179283238Y-61933761D01*
X179188000Y-61981380D01*
X178902285Y-61981380D01*
X178807047Y-61933761D01*
X178759428Y-61886142D01*
X180568952Y-61981380D02*
X180568952Y-60981380D01*
X181045142Y-61981380D02*
X181045142Y-60981380D01*
X181378476Y-61695666D01*
X181711809Y-60981380D01*
X181711809Y-61981380D01*
X182188000Y-60981380D02*
X182188000Y-61790904D01*
X182235619Y-61886142D01*
X182283238Y-61933761D01*
X182378476Y-61981380D01*
X182568952Y-61981380D01*
X182664190Y-61933761D01*
X182711809Y-61886142D01*
X182759428Y-61790904D01*
X182759428Y-60981380D01*
X183902285Y-61314714D02*
X184140380Y-61981380D01*
X184378476Y-61314714D01*
X184664190Y-60981380D02*
X185283238Y-60981380D01*
X184949904Y-61362333D01*
X185092761Y-61362333D01*
X185188000Y-61409952D01*
X185235619Y-61457571D01*
X185283238Y-61552809D01*
X185283238Y-61790904D01*
X185235619Y-61886142D01*
X185188000Y-61933761D01*
X185092761Y-61981380D01*
X184807047Y-61981380D01*
X184711809Y-61933761D01*
X184664190Y-61886142D01*
X185711809Y-61886142D02*
X185759428Y-61933761D01*
X185711809Y-61981380D01*
X185664190Y-61933761D01*
X185711809Y-61886142D01*
X185711809Y-61981380D01*
X186711809Y-61981380D02*
X186140380Y-61981380D01*
X186426095Y-61981380D02*
X186426095Y-60981380D01*
X186330857Y-61124238D01*
X186235619Y-61219476D01*
X186140380Y-61267095D01*
X179307047Y-62779000D02*
X179211809Y-62731380D01*
X179068952Y-62731380D01*
X178926095Y-62779000D01*
X178830857Y-62874238D01*
X178783238Y-62969476D01*
X178735619Y-63159952D01*
X178735619Y-63302809D01*
X178783238Y-63493285D01*
X178830857Y-63588523D01*
X178926095Y-63683761D01*
X179068952Y-63731380D01*
X179164190Y-63731380D01*
X179307047Y-63683761D01*
X179354666Y-63636142D01*
X179354666Y-63302809D01*
X179164190Y-63302809D01*
X179783238Y-63636142D02*
X179830857Y-63683761D01*
X179783238Y-63731380D01*
X179735619Y-63683761D01*
X179783238Y-63636142D01*
X179783238Y-63731380D01*
X181354666Y-63207571D02*
X181497523Y-63255190D01*
X181545142Y-63302809D01*
X181592761Y-63398047D01*
X181592761Y-63540904D01*
X181545142Y-63636142D01*
X181497523Y-63683761D01*
X181402285Y-63731380D01*
X181021333Y-63731380D01*
X181021333Y-62731380D01*
X181354666Y-62731380D01*
X181449904Y-62779000D01*
X181497523Y-62826619D01*
X181545142Y-62921857D01*
X181545142Y-63017095D01*
X181497523Y-63112333D01*
X181449904Y-63159952D01*
X181354666Y-63207571D01*
X181021333Y-63207571D01*
X182021333Y-63731380D02*
X182021333Y-63064714D01*
X182021333Y-63255190D02*
X182068952Y-63159952D01*
X182116571Y-63112333D01*
X182211809Y-63064714D01*
X182307047Y-63064714D01*
X182783238Y-63731380D02*
X182688000Y-63683761D01*
X182640380Y-63636142D01*
X182592761Y-63540904D01*
X182592761Y-63255190D01*
X182640380Y-63159952D01*
X182688000Y-63112333D01*
X182783238Y-63064714D01*
X182926095Y-63064714D01*
X183021333Y-63112333D01*
X183068952Y-63159952D01*
X183116571Y-63255190D01*
X183116571Y-63540904D01*
X183068952Y-63636142D01*
X183021333Y-63683761D01*
X182926095Y-63731380D01*
X182783238Y-63731380D01*
X183688000Y-63731380D02*
X183592761Y-63683761D01*
X183545142Y-63636142D01*
X183497523Y-63540904D01*
X183497523Y-63255190D01*
X183545142Y-63159952D01*
X183592761Y-63112333D01*
X183688000Y-63064714D01*
X183830857Y-63064714D01*
X183926095Y-63112333D01*
X183973714Y-63159952D01*
X184021333Y-63255190D01*
X184021333Y-63540904D01*
X183973714Y-63636142D01*
X183926095Y-63683761D01*
X183830857Y-63731380D01*
X183688000Y-63731380D01*
X184449904Y-63731380D02*
X184449904Y-62731380D01*
X184545142Y-63350428D02*
X184830857Y-63731380D01*
X184830857Y-63064714D02*
X184449904Y-63445666D01*
X185211809Y-63683761D02*
X185307047Y-63731380D01*
X185497523Y-63731380D01*
X185592761Y-63683761D01*
X185640380Y-63588523D01*
X185640380Y-63540904D01*
X185592761Y-63445666D01*
X185497523Y-63398047D01*
X185354666Y-63398047D01*
X185259428Y-63350428D01*
X185211809Y-63255190D01*
X185211809Y-63207571D01*
X185259428Y-63112333D01*
X185354666Y-63064714D01*
X185497523Y-63064714D01*
X185592761Y-63112333D01*
X178949904Y-64481380D02*
X178949904Y-65195666D01*
X178902285Y-65338523D01*
X178807047Y-65433761D01*
X178664190Y-65481380D01*
X178568952Y-65481380D01*
X179854666Y-64814714D02*
X179854666Y-65481380D01*
X179426095Y-64814714D02*
X179426095Y-65338523D01*
X179473714Y-65433761D01*
X179568952Y-65481380D01*
X179711809Y-65481380D01*
X179807047Y-65433761D01*
X179854666Y-65386142D01*
X180473714Y-65481380D02*
X180378476Y-65433761D01*
X180330857Y-65338523D01*
X180330857Y-64481380D01*
X180759428Y-64814714D02*
X180997523Y-65481380D01*
X181235619Y-64814714D02*
X180997523Y-65481380D01*
X180902285Y-65719476D01*
X180854666Y-65767095D01*
X180759428Y-65814714D01*
X182330857Y-64576619D02*
X182378476Y-64529000D01*
X182473714Y-64481380D01*
X182711809Y-64481380D01*
X182807047Y-64529000D01*
X182854666Y-64576619D01*
X182902285Y-64671857D01*
X182902285Y-64767095D01*
X182854666Y-64909952D01*
X182283238Y-65481380D01*
X182902285Y-65481380D01*
X183521333Y-64481380D02*
X183616571Y-64481380D01*
X183711809Y-64529000D01*
X183759428Y-64576619D01*
X183807047Y-64671857D01*
X183854666Y-64862333D01*
X183854666Y-65100428D01*
X183807047Y-65290904D01*
X183759428Y-65386142D01*
X183711809Y-65433761D01*
X183616571Y-65481380D01*
X183521333Y-65481380D01*
X183426095Y-65433761D01*
X183378476Y-65386142D01*
X183330857Y-65290904D01*
X183283238Y-65100428D01*
X183283238Y-64862333D01*
X183330857Y-64671857D01*
X183378476Y-64576619D01*
X183426095Y-64529000D01*
X183521333Y-64481380D01*
X184807047Y-65481380D02*
X184235619Y-65481380D01*
X184521333Y-65481380D02*
X184521333Y-64481380D01*
X184426095Y-64624238D01*
X184330857Y-64719476D01*
X184235619Y-64767095D01*
X185140380Y-64481380D02*
X185807047Y-64481380D01*
X185378476Y-65481380D01*
D13*
X164490000Y-74720000D02*
X165060000Y-74100000D01*
X164470000Y-74100000D02*
X165060000Y-74730000D01*
X164183440Y-77462614D02*
X164383440Y-77262614D01*
X164783440Y-78881194D02*
X165183440Y-78481194D01*
X163983440Y-77262614D02*
X164183440Y-77462614D01*
X164783440Y-78837614D02*
X164783440Y-76837614D01*
X164183440Y-77437614D02*
G75*
G02X165383440Y-77437614I600000J200000D01*
G01*
D12*
X164783440Y-80076899D02*
X164783440Y-80791185D01*
X164283440Y-79291185D02*
X164783440Y-80076899D01*
X165283440Y-79291185D01*
D13*
X164783440Y-78881194D02*
X164383440Y-78481194D01*
X164158440Y-72437614D02*
X166158440Y-72437614D01*
X167030000Y-72460000D02*
X167430000Y-72460000D01*
X165968440Y-73037614D02*
X166168440Y-73237614D01*
X166154860Y-72437614D02*
X165754860Y-72837614D01*
X165968440Y-71837614D02*
G75*
G02X165968440Y-73037614I200000J-600000D01*
G01*
X166154860Y-72437614D02*
X165754860Y-72037614D01*
D12*
X165083440Y-71609042D02*
X164083440Y-70109042D01*
X164083440Y-71609042D02*
X165083440Y-70109042D01*
D13*
X166168440Y-72837614D02*
X165968440Y-73037614D01*
X163780000Y-74440000D02*
X164010000Y-74620000D01*
X164783440Y-73437614D02*
G75*
G02X163783440Y-74437614I0J-1000000D01*
G01*
X163600000Y-74660000D02*
X163783440Y-74437614D01*
D12*
X167283440Y-75409042D02*
X166283440Y-75409042D01*
X167283440Y-73909042D01*
X166283440Y-73909042D01*
D13*
X164783440Y-76237614D02*
X164783440Y-75837614D01*
D10*
X169254000Y-90970857D02*
X169754000Y-90970857D01*
X169968285Y-91756571D02*
X169254000Y-91756571D01*
X169254000Y-90256571D01*
X169968285Y-90256571D01*
X170611142Y-91756571D02*
X170611142Y-90756571D01*
X170611142Y-91042285D02*
X170682571Y-90899428D01*
X170754000Y-90828000D01*
X170896857Y-90756571D01*
X171039714Y-90756571D01*
X171539714Y-91756571D02*
X171539714Y-90756571D01*
X171539714Y-91042285D02*
X171611142Y-90899428D01*
X171682571Y-90828000D01*
X171825428Y-90756571D01*
X171968285Y-90756571D01*
X178247142Y-90256571D02*
X178532857Y-90256571D01*
X178675714Y-90328000D01*
X178818571Y-90470857D01*
X178890000Y-90756571D01*
X178890000Y-91256571D01*
X178818571Y-91542285D01*
X178675714Y-91685142D01*
X178532857Y-91756571D01*
X178247142Y-91756571D01*
X178104285Y-91685142D01*
X177961428Y-91542285D01*
X177890000Y-91256571D01*
X177890000Y-90756571D01*
X177961428Y-90470857D01*
X178104285Y-90328000D01*
X178247142Y-90256571D01*
X179532857Y-91756571D02*
X179532857Y-90256571D01*
X180390000Y-91756571D02*
X179747142Y-90899428D01*
X180390000Y-90256571D02*
X179532857Y-91113714D01*
X180469296Y-140548443D02*
X180771398Y-140407570D01*
X181122242Y-140821928D02*
X180690667Y-141023175D01*
X180268049Y-140116867D01*
X180699624Y-139915621D01*
X182028550Y-140399310D02*
X181525201Y-140108608D01*
X181510660Y-140640806D02*
X181088042Y-139734499D01*
X181433302Y-139573501D01*
X181539742Y-139576409D01*
X181603024Y-139599442D01*
X181686431Y-139665632D01*
X181746805Y-139795105D01*
X181743897Y-139901545D01*
X181720864Y-139964827D01*
X181654673Y-140048234D01*
X181309413Y-140209231D01*
X182934858Y-139976692D02*
X182431509Y-139685990D01*
X182416968Y-140218188D02*
X181994350Y-139311880D01*
X182339610Y-139150883D01*
X182446049Y-139153791D01*
X182509332Y-139176824D01*
X182592739Y-139243014D01*
X182653113Y-139372487D01*
X182650204Y-139478926D01*
X182627172Y-139542209D01*
X182560981Y-139625615D01*
X182215721Y-139786613D01*
X182907104Y-138939552D02*
X183732283Y-139552552D01*
X183419062Y-138882941D01*
X184024109Y-139307680D01*
X183563713Y-138388591D01*
X184278195Y-138721503D02*
X184642978Y-138415414D01*
X184388892Y-139001591D02*
X184001453Y-138021284D01*
X184899589Y-138573066D01*
X185592676Y-137991496D02*
X185031239Y-137840975D01*
X185154937Y-138358803D02*
X184512149Y-137592759D01*
X184803976Y-137347887D01*
X184907541Y-137323148D01*
X184974628Y-137329017D01*
X185072325Y-137371365D01*
X185164151Y-137480800D01*
X185188891Y-137584365D01*
X185183022Y-137651452D01*
X185140674Y-137749149D01*
X184848847Y-137994020D01*
X185920981Y-137716016D02*
X185278194Y-136949971D01*
X186358721Y-137348708D01*
X185715933Y-136582664D01*
X186547887Y-135853976D02*
X186670323Y-135708062D01*
X186768019Y-135665715D01*
X186902194Y-135653976D01*
X187078716Y-135739933D01*
X187334064Y-135954196D01*
X187449368Y-136113110D01*
X187461107Y-136247284D01*
X187436367Y-136350850D01*
X187313932Y-136496763D01*
X187216236Y-136539111D01*
X187082061Y-136550850D01*
X186905539Y-136464892D01*
X186650191Y-136250630D01*
X186534886Y-136091716D01*
X186523148Y-135957541D01*
X186547887Y-135853976D01*
X187864893Y-135840154D02*
X187098848Y-135197366D01*
X188232200Y-135402414D02*
X187518980Y-135363412D01*
X187466155Y-134759626D02*
X187536588Y-135564673D01*
X169289880Y-107702380D02*
X168718452Y-107702380D01*
X169004166Y-107702380D02*
X169004166Y-106702380D01*
X168908928Y-106845238D01*
X168813690Y-106940476D01*
X168718452Y-106988095D01*
X169670833Y-107416666D02*
X170147023Y-107416666D01*
X169575595Y-107702380D02*
X169908928Y-106702380D01*
X170242261Y-107702380D01*
X179805357Y-106702380D02*
X180424404Y-106702380D01*
X180091071Y-107083333D01*
X180233928Y-107083333D01*
X180329166Y-107130952D01*
X180376785Y-107178571D01*
X180424404Y-107273809D01*
X180424404Y-107511904D01*
X180376785Y-107607142D01*
X180329166Y-107654761D01*
X180233928Y-107702380D01*
X179948214Y-107702380D01*
X179852976Y-107654761D01*
X179805357Y-107607142D01*
X180805357Y-107416666D02*
X181281547Y-107416666D01*
X180710119Y-107702380D02*
X181043452Y-106702380D01*
X181376785Y-107702380D01*
X186379166Y-133235714D02*
X186379166Y-133902380D01*
X186141071Y-132854761D02*
X185902976Y-133569047D01*
X186522023Y-133569047D01*
X186093452Y-128630952D02*
X185998214Y-128583333D01*
X185950595Y-128535714D01*
X185902976Y-128440476D01*
X185902976Y-128392857D01*
X185950595Y-128297619D01*
X185998214Y-128250000D01*
X186093452Y-128202380D01*
X186283928Y-128202380D01*
X186379166Y-128250000D01*
X186426785Y-128297619D01*
X186474404Y-128392857D01*
X186474404Y-128440476D01*
X186426785Y-128535714D01*
X186379166Y-128583333D01*
X186283928Y-128630952D01*
X186093452Y-128630952D01*
X185998214Y-128678571D01*
X185950595Y-128726190D01*
X185902976Y-128821428D01*
X185902976Y-129011904D01*
X185950595Y-129107142D01*
X185998214Y-129154761D01*
X186093452Y-129202380D01*
X186283928Y-129202380D01*
X186379166Y-129154761D01*
X186426785Y-129107142D01*
X186474404Y-129011904D01*
X186474404Y-128821428D01*
X186426785Y-128726190D01*
X186379166Y-128678571D01*
X186283928Y-128630952D01*
X185274404Y-120452380D02*
X184702976Y-120452380D01*
X184988690Y-120452380D02*
X184988690Y-119452380D01*
X184893452Y-119595238D01*
X184798214Y-119690476D01*
X184702976Y-119738095D01*
X185226785Y-115852380D02*
X184750595Y-115852380D01*
X184702976Y-116328571D01*
X184750595Y-116280952D01*
X184845833Y-116233333D01*
X185083928Y-116233333D01*
X185179166Y-116280952D01*
X185226785Y-116328571D01*
X185274404Y-116423809D01*
X185274404Y-116661904D01*
X185226785Y-116757142D01*
X185179166Y-116804761D01*
X185083928Y-116852380D01*
X184845833Y-116852380D01*
X184750595Y-116804761D01*
X184702976Y-116757142D01*
X178552976Y-119547619D02*
X178600595Y-119500000D01*
X178695833Y-119452380D01*
X178933928Y-119452380D01*
X179029166Y-119500000D01*
X179076785Y-119547619D01*
X179124404Y-119642857D01*
X179124404Y-119738095D01*
X179076785Y-119880952D01*
X178505357Y-120452380D01*
X179124404Y-120452380D01*
X179029166Y-115852380D02*
X178838690Y-115852380D01*
X178743452Y-115900000D01*
X178695833Y-115947619D01*
X178600595Y-116090476D01*
X178552976Y-116280952D01*
X178552976Y-116661904D01*
X178600595Y-116757142D01*
X178648214Y-116804761D01*
X178743452Y-116852380D01*
X178933928Y-116852380D01*
X179029166Y-116804761D01*
X179076785Y-116757142D01*
X179124404Y-116661904D01*
X179124404Y-116423809D01*
X179076785Y-116328571D01*
X179029166Y-116280952D01*
X178933928Y-116233333D01*
X178743452Y-116233333D01*
X178648214Y-116280952D01*
X178600595Y-116328571D01*
X178552976Y-116423809D01*
X172405357Y-118152380D02*
X173024404Y-118152380D01*
X172691071Y-118533333D01*
X172833928Y-118533333D01*
X172929166Y-118580952D01*
X172976785Y-118628571D01*
X173024404Y-118723809D01*
X173024404Y-118961904D01*
X172976785Y-119057142D01*
X172929166Y-119104761D01*
X172833928Y-119152380D01*
X172548214Y-119152380D01*
X172452976Y-119104761D01*
X172405357Y-119057142D01*
X172405357Y-115852380D02*
X173072023Y-115852380D01*
X172643452Y-116852380D01*
X164250595Y-124652380D02*
X164250595Y-123985714D01*
X164250595Y-124176190D02*
X164298214Y-124080952D01*
X164345833Y-124033333D01*
X164441071Y-123985714D01*
X164536309Y-123985714D01*
X164822023Y-123747619D02*
X164869642Y-123700000D01*
X164964880Y-123652380D01*
X165202976Y-123652380D01*
X165298214Y-123700000D01*
X165345833Y-123747619D01*
X165393452Y-123842857D01*
X165393452Y-123938095D01*
X165345833Y-124080952D01*
X164774404Y-124652380D01*
X165393452Y-124652380D01*
X166536309Y-124366666D02*
X167012500Y-124366666D01*
X166441071Y-124652380D02*
X166774404Y-123652380D01*
X167107738Y-124652380D01*
X167964880Y-123700000D02*
X167869642Y-123652380D01*
X167726785Y-123652380D01*
X167583928Y-123700000D01*
X167488690Y-123795238D01*
X167441071Y-123890476D01*
X167393452Y-124080952D01*
X167393452Y-124223809D01*
X167441071Y-124414285D01*
X167488690Y-124509523D01*
X167583928Y-124604761D01*
X167726785Y-124652380D01*
X167822023Y-124652380D01*
X167964880Y-124604761D01*
X168012500Y-124557142D01*
X168012500Y-124223809D01*
X167822023Y-124223809D01*
X169155357Y-123747619D02*
X169202976Y-123700000D01*
X169298214Y-123652380D01*
X169536309Y-123652380D01*
X169631547Y-123700000D01*
X169679166Y-123747619D01*
X169726785Y-123842857D01*
X169726785Y-123938095D01*
X169679166Y-124080952D01*
X169107738Y-124652380D01*
X169726785Y-124652380D01*
X170345833Y-123652380D02*
X170441071Y-123652380D01*
X170536309Y-123700000D01*
X170583928Y-123747619D01*
X170631547Y-123842857D01*
X170679166Y-124033333D01*
X170679166Y-124271428D01*
X170631547Y-124461904D01*
X170583928Y-124557142D01*
X170536309Y-124604761D01*
X170441071Y-124652380D01*
X170345833Y-124652380D01*
X170250595Y-124604761D01*
X170202976Y-124557142D01*
X170155357Y-124461904D01*
X170107738Y-124271428D01*
X170107738Y-124033333D01*
X170155357Y-123842857D01*
X170202976Y-123747619D01*
X170250595Y-123700000D01*
X170345833Y-123652380D01*
X171822023Y-123604761D02*
X170964880Y-124890476D01*
X172060119Y-123652380D02*
X172726785Y-123652380D01*
X172298214Y-124652380D01*
X173822023Y-123604761D02*
X172964880Y-124890476D01*
X174679166Y-124652380D02*
X174107738Y-124652380D01*
X174393452Y-124652380D02*
X174393452Y-123652380D01*
X174298214Y-123795238D01*
X174202976Y-123890476D01*
X174107738Y-123938095D01*
X175012500Y-123652380D02*
X175679166Y-123652380D01*
X175250595Y-124652380D01*
D12*
X165552142Y-123128571D02*
X165552142Y-121628571D01*
X166052142Y-122700000D01*
X166552142Y-121628571D01*
X166552142Y-123128571D01*
X167123571Y-121628571D02*
X168052142Y-121628571D01*
X167552142Y-122200000D01*
X167766428Y-122200000D01*
X167909285Y-122271428D01*
X167980714Y-122342857D01*
X168052142Y-122485714D01*
X168052142Y-122842857D01*
X167980714Y-122985714D01*
X167909285Y-123057142D01*
X167766428Y-123128571D01*
X167337857Y-123128571D01*
X167195000Y-123057142D01*
X167123571Y-122985714D01*
X168695000Y-123128571D02*
X168695000Y-121628571D01*
X169266428Y-121628571D01*
X169409285Y-121700000D01*
X169480714Y-121771428D01*
X169552142Y-121914285D01*
X169552142Y-122128571D01*
X169480714Y-122271428D01*
X169409285Y-122342857D01*
X169266428Y-122414285D01*
X168695000Y-122414285D01*
X170480714Y-122414285D02*
X170480714Y-123128571D01*
X169980714Y-121628571D02*
X170480714Y-122414285D01*
X170980714Y-121628571D01*
X172337857Y-123128571D02*
X171837857Y-122414285D01*
X171480714Y-123128571D02*
X171480714Y-121628571D01*
X172052142Y-121628571D01*
X172195000Y-121700000D01*
X172266428Y-121771428D01*
X172337857Y-121914285D01*
X172337857Y-122128571D01*
X172266428Y-122271428D01*
X172195000Y-122342857D01*
X172052142Y-122414285D01*
X171480714Y-122414285D01*
X173266428Y-121628571D02*
X173552142Y-121628571D01*
X173695000Y-121700000D01*
X173837857Y-121842857D01*
X173909285Y-122128571D01*
X173909285Y-122628571D01*
X173837857Y-122914285D01*
X173695000Y-123057142D01*
X173552142Y-123128571D01*
X173266428Y-123128571D01*
X173123571Y-123057142D01*
X172980714Y-122914285D01*
X172909285Y-122628571D01*
X172909285Y-122128571D01*
X172980714Y-121842857D01*
X173123571Y-121700000D01*
X173266428Y-121628571D01*
D10*
X139501300Y-114477326D02*
X140194120Y-114077326D01*
X139996172Y-114191611D02*
X140123717Y-114183956D01*
X140201776Y-114204871D01*
X140308406Y-114275274D01*
X140365549Y-114374249D01*
X140187014Y-115665018D02*
X139844157Y-115071172D01*
X140015586Y-115368095D02*
X141054816Y-114768095D01*
X140849212Y-114754835D01*
X140693095Y-114713003D01*
X140586465Y-114642600D01*
X132063544Y-138150364D02*
X132492115Y-138892671D01*
X132528342Y-139069704D01*
X132486511Y-139225822D01*
X132366621Y-139361023D01*
X132267646Y-139418166D01*
X132459441Y-137921793D02*
X133306877Y-138818166D01*
X133076254Y-137961573D01*
X133702774Y-138589594D01*
X133350210Y-137407507D01*
X128543380Y-142681833D02*
X128564296Y-142603775D01*
X128634699Y-142497145D01*
X128882134Y-142354287D01*
X129009680Y-142346632D01*
X129087739Y-142367547D01*
X129194369Y-142437950D01*
X129251512Y-142536925D01*
X129287739Y-142713958D01*
X129036750Y-143650661D01*
X129680083Y-143279232D01*
X129723416Y-141868573D02*
X129822391Y-141811430D01*
X129949936Y-141803775D01*
X130027995Y-141824690D01*
X130134625Y-141895093D01*
X130298398Y-142064470D01*
X130441255Y-142311906D01*
X130506054Y-142538426D01*
X130513709Y-142665972D01*
X130492794Y-142744031D01*
X130422391Y-142850661D01*
X130323416Y-142907804D01*
X130195871Y-142915459D01*
X130117812Y-142894544D01*
X130011182Y-142824141D01*
X129847409Y-142654763D01*
X129704552Y-142407328D01*
X129639753Y-142180807D01*
X129632098Y-142053262D01*
X129653013Y-141975203D01*
X129723416Y-141868573D01*
X131659570Y-142136375D02*
X131065724Y-142479232D01*
X131362647Y-142307804D02*
X130762647Y-141268573D01*
X130749387Y-141474177D01*
X130707555Y-141630295D01*
X130637152Y-141736925D01*
X131405980Y-140897145D02*
X132098800Y-140497145D01*
X132253416Y-141793518D01*
X132866126Y-140911906D02*
X133657921Y-140454763D01*
X133979313Y-139411430D02*
X134078287Y-139354287D01*
X134205833Y-139346632D01*
X134283891Y-139367547D01*
X134390521Y-139437950D01*
X134554294Y-139607328D01*
X134697151Y-139854763D01*
X134761950Y-140081283D01*
X134769606Y-140208829D01*
X134748690Y-140286888D01*
X134678287Y-140393518D01*
X134579313Y-140450661D01*
X134451767Y-140458316D01*
X134373708Y-140437401D01*
X134267078Y-140366998D01*
X134103305Y-140197621D01*
X133960448Y-139950185D01*
X133895650Y-139723665D01*
X133887994Y-139596119D01*
X133908910Y-139518060D01*
X133979313Y-139411430D01*
X134672133Y-139011430D02*
X135364953Y-138611430D01*
X135519569Y-139907804D01*
X136132279Y-139026192D02*
X136924074Y-138569049D01*
X137055173Y-137767547D02*
X137076088Y-137689489D01*
X137146491Y-137582859D01*
X137393927Y-137440002D01*
X137521473Y-137432346D01*
X137599531Y-137453262D01*
X137706161Y-137523665D01*
X137763304Y-137622639D01*
X137799531Y-137799672D01*
X137548543Y-138736375D01*
X138191876Y-138364946D01*
X138482645Y-136811430D02*
X138284696Y-136925716D01*
X138214293Y-137032346D01*
X138193377Y-137110405D01*
X138180117Y-137316009D01*
X138244916Y-137542529D01*
X138473487Y-137938426D01*
X138580117Y-138008829D01*
X138658176Y-138029745D01*
X138785722Y-138022089D01*
X138983670Y-137907804D01*
X139054073Y-137801174D01*
X139074989Y-137723115D01*
X139067333Y-137595569D01*
X138924476Y-137348133D01*
X138817846Y-137277730D01*
X138739788Y-137256815D01*
X138612242Y-137264470D01*
X138414293Y-137378756D01*
X138343890Y-137485386D01*
X138322974Y-137563445D01*
X138330630Y-137690991D01*
X131340943Y-108271737D02*
X131940943Y-107232507D01*
X131858782Y-108174814D01*
X132633764Y-107632507D01*
X132033764Y-108671737D01*
X133029661Y-107861078D02*
X133672994Y-108232507D01*
X133098013Y-108428404D01*
X133246474Y-108514118D01*
X133316877Y-108620748D01*
X133337793Y-108698807D01*
X133330137Y-108826353D01*
X133187280Y-109073789D01*
X133080650Y-109144192D01*
X133002591Y-109165107D01*
X132875046Y-109157452D01*
X132578123Y-108986023D01*
X132507720Y-108879393D01*
X132486804Y-108801334D01*
X133518379Y-109528880D02*
X134118379Y-108489650D01*
X134514276Y-108718221D01*
X134584679Y-108824851D01*
X134605595Y-108902910D01*
X134597939Y-109030455D01*
X134512225Y-109178917D01*
X134405595Y-109249320D01*
X134327536Y-109270236D01*
X134199990Y-109262580D01*
X133804093Y-109034008D01*
X134536693Y-110050822D02*
X134656583Y-110186023D01*
X134904019Y-110328880D01*
X135031565Y-110336536D01*
X135109624Y-110315620D01*
X135216254Y-110245217D01*
X135273397Y-110146243D01*
X135281052Y-110018697D01*
X135260137Y-109940639D01*
X135189734Y-109834008D01*
X135020356Y-109670236D01*
X134949953Y-109563606D01*
X134929038Y-109485547D01*
X134936693Y-109358001D01*
X134993836Y-109259027D01*
X135100466Y-109188624D01*
X135178525Y-109167708D01*
X135306071Y-109175364D01*
X135553506Y-109318221D01*
X135673397Y-109453423D01*
X136147352Y-109661078D02*
X135661638Y-110502360D01*
X135653983Y-110629906D01*
X135674898Y-110707964D01*
X135745301Y-110814594D01*
X135943250Y-110928880D01*
X136070796Y-110936536D01*
X136148854Y-110915620D01*
X136255484Y-110845217D01*
X136741198Y-110003935D01*
X130984020Y-110432804D02*
X131584020Y-109393573D01*
X131831456Y-109536430D01*
X131951346Y-109671632D01*
X131993177Y-109827749D01*
X131985522Y-109955295D01*
X131920723Y-110181815D01*
X131835009Y-110330276D01*
X131671236Y-110499653D01*
X131564606Y-110570056D01*
X131408489Y-110611888D01*
X131231456Y-110575661D01*
X130984020Y-110432804D01*
X132674239Y-111276686D02*
X132596181Y-111297602D01*
X132419148Y-111261375D01*
X132320174Y-111204232D01*
X132200284Y-111069031D01*
X132158452Y-110912914D01*
X132166108Y-110785368D01*
X132230906Y-110558848D01*
X132316621Y-110410386D01*
X132480393Y-110241009D01*
X132587023Y-110170606D01*
X132743141Y-110128775D01*
X132920174Y-110165002D01*
X133019148Y-110222145D01*
X133139038Y-110357346D01*
X133159954Y-110435405D01*
X134157353Y-110879287D02*
X133662481Y-110593573D01*
X133327280Y-111059873D01*
X133405338Y-111038958D01*
X133532884Y-111046613D01*
X133780320Y-111189470D01*
X133850723Y-111296100D01*
X133871638Y-111374159D01*
X133863983Y-111501705D01*
X133721126Y-111749141D01*
X133614496Y-111819544D01*
X133536437Y-111840459D01*
X133408891Y-111832804D01*
X133161455Y-111689946D01*
X133091053Y-111583316D01*
X133070137Y-111505258D01*
X134503763Y-111079287D02*
X134250173Y-112318518D01*
X135196583Y-111479287D01*
D14*
X71525000Y-79350000D02*
X71525000Y-71050000D01*
X71525000Y-71050000D02*
X80425000Y-71050000D01*
X80425000Y-71050000D02*
X80425000Y-79950000D01*
X80425000Y-79950000D02*
X72125000Y-79950000D01*
X72125000Y-79950000D02*
X71525000Y-79350000D01*
X79150000Y-61775000D02*
X79150000Y-61775000D01*
X79150000Y-61775000D02*
X77850000Y-61775000D01*
X77850000Y-61775000D02*
X77850000Y-61525000D01*
X77850000Y-61525000D02*
X78900000Y-61525000D01*
X78900000Y-61525000D02*
X79150000Y-61775000D01*
X62785000Y-68635000D02*
X62785000Y-67135000D01*
X62785000Y-67135000D02*
X57215000Y-67135000D01*
X57215000Y-67135000D02*
X57215000Y-68635000D01*
X57215000Y-81365000D02*
X58715000Y-82865000D01*
X58715000Y-82865000D02*
X61285000Y-82865000D01*
X61285000Y-82865000D02*
X62785000Y-81365000D01*
X88669652Y-87295756D02*
X88581384Y-86895338D01*
X88669652Y-87295756D02*
X89079313Y-87313150D01*
X88581384Y-86895338D02*
X89079313Y-87313150D01*
X85602394Y-89928303D02*
X85584018Y-90337921D01*
X85602394Y-89928303D02*
X85211194Y-89805473D01*
X85584018Y-90337921D02*
X85211194Y-89805473D01*
X66775000Y-80500000D02*
X64275000Y-80500000D01*
X67375000Y-77400000D02*
X64275000Y-77400000D01*
X66775000Y-80500000D02*
G75*
G03X67375000Y-80500000I300000J0D01*
G01*
X69700000Y-63450000D02*
X70350000Y-62800000D01*
X73150000Y-62800000D02*
X73800000Y-62800000D01*
X73800000Y-62800000D02*
X73800000Y-63450000D01*
X73150000Y-66900000D02*
X73800000Y-66900000D01*
X73800000Y-66900000D02*
X73800000Y-66250000D01*
X70350000Y-66900000D02*
X69700000Y-66900000D01*
X69700000Y-66900000D02*
X69700000Y-66250000D01*
X92785000Y-68635000D02*
X92785000Y-67135000D01*
X92785000Y-67135000D02*
X87215000Y-67135000D01*
X87215000Y-67135000D02*
X87215000Y-68635000D01*
X87215000Y-81365000D02*
X88715000Y-82865000D01*
X88715000Y-82865000D02*
X91285000Y-82865000D01*
X91285000Y-82865000D02*
X92785000Y-81365000D01*
X67475000Y-67775000D02*
X67725000Y-67775000D01*
X67725000Y-67775000D02*
X67725000Y-68425000D01*
X67725000Y-68425000D02*
X67475000Y-68425000D01*
X67475000Y-68425000D02*
X67475000Y-67775000D01*
X65875000Y-67325000D02*
X65625000Y-67325000D01*
X65625000Y-67325000D02*
X65625000Y-66675000D01*
X65625000Y-66675000D02*
X65875000Y-66675000D01*
X65875000Y-66675000D02*
X65875000Y-67325000D01*
X65850000Y-89250000D02*
X67250000Y-89250000D01*
X65250000Y-91250000D02*
X67250000Y-91250000D01*
X65850000Y-89250000D02*
G75*
G03X65250000Y-89250000I-300000J0D01*
G01*
X65875000Y-86475000D02*
X66125000Y-86475000D01*
X66125000Y-86475000D02*
X66125000Y-87125000D01*
X66125000Y-87125000D02*
X65875000Y-87125000D01*
X65875000Y-87125000D02*
X65875000Y-86475000D01*
X88225000Y-65650000D02*
X88225000Y-65650000D01*
X88225000Y-65650000D02*
X88225000Y-64350000D01*
X88225000Y-64350000D02*
X88475000Y-64350000D01*
X88475000Y-64350000D02*
X88475000Y-65400000D01*
X88475000Y-65400000D02*
X88225000Y-65650000D01*
X82000000Y-63250000D02*
X82000000Y-63250000D01*
X82000000Y-63250000D02*
X82000000Y-61350000D01*
X82000000Y-61350000D02*
X82500000Y-61350000D01*
X82500000Y-61350000D02*
X82500000Y-62750000D01*
X82500000Y-62750000D02*
X82000000Y-63250000D01*
X82925000Y-66050000D02*
X84275000Y-66050000D01*
X84275000Y-66050000D02*
X84275000Y-68050000D01*
X84275000Y-68050000D02*
X82325000Y-68050000D01*
X82325000Y-68050000D02*
X82325000Y-66650000D01*
X82325000Y-66650000D02*
X82925000Y-66050000D01*
X77750000Y-67000000D02*
X77750000Y-67000000D01*
X77750000Y-67000000D02*
X77750000Y-65400000D01*
X77750000Y-65400000D02*
X77350000Y-65400000D01*
X77350000Y-65400000D02*
X77350000Y-67400000D01*
X77350000Y-67400000D02*
X77750000Y-67000000D01*
X77900000Y-93075000D02*
X71800000Y-93075000D01*
X71800000Y-93075000D02*
X71800000Y-84275000D01*
X71800000Y-84275000D02*
X78500000Y-84275000D01*
X78500000Y-84275000D02*
X78500000Y-92475000D01*
X78500000Y-92475000D02*
X77900000Y-93075000D01*
X86250000Y-61200000D02*
X86550000Y-61450000D01*
X86550000Y-62800000D02*
X86550000Y-61450000D01*
X85650000Y-62800000D02*
X86550000Y-62800000D01*
X85650000Y-61200000D02*
X85650000Y-62800000D01*
X86250000Y-61200000D02*
X85650000Y-61200000D01*
X137750000Y-83150000D02*
X131750000Y-83150000D01*
X131750000Y-83150000D02*
X131750000Y-77850000D01*
X131750000Y-77850000D02*
X137750000Y-77850000D01*
X137750000Y-77850000D02*
X137750000Y-83150000D01*
X125250000Y-72150000D02*
X125250000Y-66850000D01*
X131250000Y-72150000D02*
X125250000Y-72150000D01*
X131250000Y-66850000D02*
X131250000Y-72150000D01*
X125250000Y-66850000D02*
X131250000Y-66850000D01*
X131750000Y-66850000D02*
X137750000Y-66850000D01*
X137750000Y-66850000D02*
X137750000Y-72150000D01*
X137750000Y-72150000D02*
X131750000Y-72150000D01*
X131750000Y-72150000D02*
X131750000Y-66850000D01*
X131250000Y-83150000D02*
X125250000Y-83150000D01*
X125250000Y-83150000D02*
X125250000Y-77850000D01*
X125250000Y-77850000D02*
X131250000Y-77850000D01*
X131250000Y-77850000D02*
X131250000Y-83150000D01*
X124750000Y-77850000D02*
X124750000Y-83150000D01*
X118750000Y-77850000D02*
X124750000Y-77850000D01*
X118750000Y-83150000D02*
X118750000Y-77850000D01*
X124750000Y-83150000D02*
X118750000Y-83150000D01*
X118250000Y-83150000D02*
X112250000Y-83150000D01*
X112250000Y-83150000D02*
X112250000Y-77850000D01*
X112250000Y-77850000D02*
X118250000Y-77850000D01*
X118250000Y-77850000D02*
X118250000Y-83150000D01*
X112250000Y-72150000D02*
X112250000Y-66850000D01*
X118250000Y-72150000D02*
X112250000Y-72150000D01*
X118250000Y-66850000D02*
X118250000Y-72150000D01*
X112250000Y-66850000D02*
X118250000Y-66850000D01*
X118750000Y-66850000D02*
X124750000Y-66850000D01*
X124750000Y-66850000D02*
X124750000Y-72150000D01*
X124750000Y-72150000D02*
X118750000Y-72150000D01*
X118750000Y-72150000D02*
X118750000Y-66850000D01*
X82180000Y-132795000D02*
X82180000Y-133145000D01*
X81830000Y-132795000D02*
X82180000Y-132795000D01*
X73180000Y-132795000D02*
X73180000Y-133145000D01*
X73530000Y-132795000D02*
X73180000Y-132795000D01*
X73180000Y-141795000D02*
X73180000Y-141445000D01*
X73530000Y-141795000D02*
X73180000Y-141795000D01*
X82180000Y-141445000D02*
X81830000Y-141795000D01*
X84350000Y-116340000D02*
X84350000Y-116690000D01*
X84000000Y-116340000D02*
X84350000Y-116340000D01*
X75350000Y-116340000D02*
X75350000Y-116690000D01*
X75700000Y-116340000D02*
X75350000Y-116340000D01*
X75350000Y-125340000D02*
X75350000Y-124990000D01*
X75700000Y-125340000D02*
X75350000Y-125340000D01*
X84350000Y-124990000D02*
X84000000Y-125340000D01*
X69950000Y-131450000D02*
X68350000Y-131450000D01*
X69950000Y-129850000D02*
X68350000Y-129850000D01*
X68350000Y-131450000D02*
X68350000Y-131350000D01*
X69950000Y-131350000D02*
X69950000Y-131450000D01*
X69950000Y-129850000D02*
X69950000Y-129950000D01*
X68350000Y-129950000D02*
X68350000Y-129850000D01*
X69950000Y-118100000D02*
X68350000Y-118100000D01*
X69950000Y-116500000D02*
X68350000Y-116500000D01*
X68350000Y-118100000D02*
X68350000Y-118000000D01*
X69950000Y-118000000D02*
X69950000Y-118100000D01*
X69950000Y-116500000D02*
X69950000Y-116600000D01*
X68350000Y-116600000D02*
X68350000Y-116500000D01*
X62870000Y-112325000D02*
X62870000Y-116175000D01*
X61880000Y-112325000D02*
X62870000Y-112325000D01*
X61880000Y-116175000D02*
X61880000Y-112325000D01*
X62870000Y-116175000D02*
X61880000Y-116175000D01*
X71810000Y-106715000D02*
X70310000Y-106715000D01*
X70310000Y-106715000D02*
X70310000Y-112285000D01*
X70310000Y-112285000D02*
X71810000Y-112285000D01*
X78190000Y-112285000D02*
X79690000Y-110785000D01*
X79690000Y-110785000D02*
X79690000Y-108215000D01*
X79690000Y-108215000D02*
X78190000Y-106715000D01*
X92785000Y-118635000D02*
X92785000Y-117135000D01*
X92785000Y-117135000D02*
X87215000Y-117135000D01*
X87215000Y-117135000D02*
X87215000Y-118635000D01*
X87215000Y-131365000D02*
X88715000Y-132865000D01*
X88715000Y-132865000D02*
X91285000Y-132865000D01*
X91285000Y-132865000D02*
X92785000Y-131365000D01*
X62785000Y-118635000D02*
X62785000Y-117135000D01*
X62785000Y-117135000D02*
X57215000Y-117135000D01*
X57215000Y-117135000D02*
X57215000Y-118635000D01*
X57215000Y-131365000D02*
X58715000Y-132865000D01*
X58715000Y-132865000D02*
X61285000Y-132865000D01*
X61285000Y-132865000D02*
X62785000Y-131365000D01*
X64789868Y-116185000D02*
G75*
G03X64789868Y-116185000I-94868J0D01*
G01*
X64800000Y-116375000D02*
X64725000Y-116375000D01*
X64725000Y-114375000D02*
X64800000Y-114375000D01*
X66650000Y-114375000D02*
X66725000Y-114375000D01*
X66725000Y-116375000D02*
X66650000Y-116375000D01*
X66725000Y-114375000D02*
X66725000Y-116375000D01*
X64725000Y-116375000D02*
X64725000Y-114375000D01*
X67850000Y-115375000D02*
X67200000Y-115375000D01*
X67850000Y-115125000D02*
X67850000Y-115375000D01*
X67200000Y-115125000D02*
X67850000Y-115125000D01*
X67200000Y-115375000D02*
X67200000Y-115125000D01*
X67850000Y-119825000D02*
X67200000Y-119825000D01*
X67850000Y-119575000D02*
X67850000Y-119825000D01*
X67200000Y-119575000D02*
X67850000Y-119575000D01*
X67200000Y-119825000D02*
X67200000Y-119575000D01*
X67200000Y-124275000D02*
X67200000Y-124025000D01*
X67200000Y-124025000D02*
X67850000Y-124025000D01*
X67850000Y-124025000D02*
X67850000Y-124275000D01*
X67850000Y-124275000D02*
X67200000Y-124275000D01*
X67200000Y-128725000D02*
X67200000Y-128475000D01*
X67200000Y-128475000D02*
X67850000Y-128475000D01*
X67850000Y-128475000D02*
X67850000Y-128725000D01*
X67850000Y-128725000D02*
X67200000Y-128725000D01*
X64789868Y-120631000D02*
G75*
G03X64789868Y-120631000I-94868J0D01*
G01*
X64800000Y-120821000D02*
X64725000Y-120821000D01*
X64725000Y-118821000D02*
X64800000Y-118821000D01*
X66650000Y-118821000D02*
X66725000Y-118821000D01*
X66725000Y-120821000D02*
X66650000Y-120821000D01*
X66725000Y-118821000D02*
X66725000Y-120821000D01*
X64725000Y-120821000D02*
X64725000Y-118821000D01*
X64725000Y-125271000D02*
X64725000Y-123271000D01*
X66725000Y-123271000D02*
X66725000Y-125271000D01*
X66725000Y-125271000D02*
X66650000Y-125271000D01*
X66650000Y-123271000D02*
X66725000Y-123271000D01*
X64725000Y-123271000D02*
X64800000Y-123271000D01*
X64800000Y-125271000D02*
X64725000Y-125271000D01*
X64789868Y-125081000D02*
G75*
G03X64789868Y-125081000I-94868J0D01*
G01*
X64789868Y-129535000D02*
G75*
G03X64789868Y-129535000I-94868J0D01*
G01*
X64800000Y-129725000D02*
X64725000Y-129725000D01*
X64725000Y-127725000D02*
X64800000Y-127725000D01*
X66650000Y-127725000D02*
X66725000Y-127725000D01*
X66725000Y-129725000D02*
X66650000Y-129725000D01*
X66725000Y-127725000D02*
X66725000Y-129725000D01*
X64725000Y-129725000D02*
X64725000Y-127725000D01*
X66954271Y-107729358D02*
X67180848Y-107623703D01*
X67180848Y-107623703D02*
X67645729Y-108620642D01*
X67645729Y-108620642D02*
X67419152Y-108726297D01*
X67419152Y-108726297D02*
X66954271Y-107729358D01*
X63957778Y-110961673D02*
X63250711Y-110119024D01*
X64149289Y-110800976D02*
X63957778Y-110961673D01*
X63442222Y-109958327D02*
X64149289Y-110800976D01*
X63250711Y-110119024D02*
X63442222Y-109958327D01*
X65850000Y-113249999D02*
X65500000Y-112899999D01*
X65500000Y-110599999D02*
X65500000Y-110249999D01*
X65500000Y-110249999D02*
X65850000Y-110249999D01*
X68500000Y-110599999D02*
X68500000Y-110249999D01*
X68500000Y-110249999D02*
X68150000Y-110249999D01*
X68500000Y-112899999D02*
X68500000Y-113249999D01*
X68500000Y-113249999D02*
X68150000Y-113249999D01*
X64725000Y-134547500D02*
X64725000Y-132547500D01*
X66725000Y-132547500D02*
X66725000Y-134547500D01*
X66725000Y-134547500D02*
X66650000Y-134547500D01*
X66650000Y-132547500D02*
X66725000Y-132547500D01*
X64725000Y-132547500D02*
X64800000Y-132547500D01*
X64800000Y-134547500D02*
X64725000Y-134547500D01*
X64789868Y-134357500D02*
G75*
G03X64789868Y-134357500I-94868J0D01*
G01*
X64725000Y-139375000D02*
X64725000Y-137375000D01*
X66725000Y-137375000D02*
X66725000Y-139375000D01*
X66725000Y-139375000D02*
X66650000Y-139375000D01*
X66650000Y-137375000D02*
X66725000Y-137375000D01*
X64725000Y-137375000D02*
X64800000Y-137375000D01*
X64800000Y-139375000D02*
X64725000Y-139375000D01*
X64789868Y-139185000D02*
G75*
G03X64789868Y-139185000I-94868J0D01*
G01*
X67850000Y-133550000D02*
X67200000Y-133550000D01*
X67850000Y-133300000D02*
X67850000Y-133550000D01*
X67200000Y-133300000D02*
X67850000Y-133300000D01*
X67200000Y-133550000D02*
X67200000Y-133300000D01*
X67850000Y-138375000D02*
X67200000Y-138375000D01*
X67850000Y-138125000D02*
X67850000Y-138375000D01*
X67200000Y-138125000D02*
X67850000Y-138125000D01*
X67200000Y-138375000D02*
X67200000Y-138125000D01*
X68350000Y-121085000D02*
X68350000Y-120985000D01*
X69950000Y-120985000D02*
X69950000Y-121085000D01*
X69950000Y-122485000D02*
X69950000Y-122585000D01*
X68350000Y-122585000D02*
X68350000Y-122485000D01*
X69950000Y-120985000D02*
X68350000Y-120985000D01*
X69950000Y-122585000D02*
X68350000Y-122585000D01*
X68350000Y-125525000D02*
X68350000Y-125425000D01*
X69950000Y-125425000D02*
X69950000Y-125525000D01*
X69950000Y-126925000D02*
X69950000Y-127025000D01*
X68350000Y-127025000D02*
X68350000Y-126925000D01*
X69950000Y-125425000D02*
X68350000Y-125425000D01*
X69950000Y-127025000D02*
X68350000Y-127025000D01*
X68350000Y-134800000D02*
X68350000Y-134700000D01*
X69950000Y-134700000D02*
X69950000Y-134800000D01*
X69950000Y-136200000D02*
X69950000Y-136300000D01*
X68350000Y-136300000D02*
X68350000Y-136200000D01*
X69950000Y-134700000D02*
X68350000Y-134700000D01*
X69950000Y-136300000D02*
X68350000Y-136300000D01*
X69950000Y-141150000D02*
X68350000Y-141150000D01*
X69950000Y-139550000D02*
X68350000Y-139550000D01*
X68350000Y-141150000D02*
X68350000Y-141050000D01*
X69950000Y-141050000D02*
X69950000Y-141150000D01*
X69950000Y-139550000D02*
X69950000Y-139650000D01*
X68350000Y-139650000D02*
X68350000Y-139550000D01*
X61800000Y-136800000D02*
X61800000Y-136550000D01*
X61800000Y-136550000D02*
X62900000Y-136550000D01*
X62900000Y-136550000D02*
X62900000Y-136800000D01*
X62900000Y-136800000D02*
X61800000Y-136800000D01*
X180037000Y-85990000D02*
X180037000Y-85990000D01*
X180037000Y-85990000D02*
X180037000Y-84990000D01*
X180037000Y-84990000D02*
X179767000Y-84990000D01*
X179767000Y-84990000D02*
X179767000Y-86260000D01*
X179767000Y-86260000D02*
X180037000Y-85990000D01*
X179921572Y-89062035D02*
X180905140Y-90448611D01*
X180574078Y-88599179D02*
X179921572Y-89062035D01*
X185957256Y-84780620D02*
X185263968Y-85272404D01*
X186940825Y-86167196D02*
X185957256Y-84780620D01*
D15*
G36*
X186895736Y-81138875D02*
X186893366Y-81187746D01*
X186872523Y-81218489D01*
X186854842Y-81223000D01*
X186830121Y-81211207D01*
X186774208Y-81177355D01*
X186690543Y-81123733D01*
X186582563Y-81052633D01*
X186453707Y-80966343D01*
X186307414Y-80867155D01*
X186147121Y-80757357D01*
X185976267Y-80639240D01*
X185928800Y-80606240D01*
X185754527Y-80484672D01*
X185589338Y-80368944D01*
X185436790Y-80261580D01*
X185300440Y-80165108D01*
X185183844Y-80082054D01*
X185090559Y-80014943D01*
X185024142Y-79966302D01*
X184988149Y-79938657D01*
X184984542Y-79935530D01*
X184938296Y-79873875D01*
X184926334Y-79808989D01*
X184929800Y-79760576D01*
X184945620Y-79743531D01*
X184974288Y-79745565D01*
X184998883Y-79758810D01*
X185054107Y-79793668D01*
X185135971Y-79847387D01*
X185240488Y-79917211D01*
X185363669Y-80000388D01*
X185501526Y-80094163D01*
X185650070Y-80195783D01*
X185805314Y-80302495D01*
X185963270Y-80411543D01*
X186119948Y-80520175D01*
X186271361Y-80625637D01*
X186413521Y-80725175D01*
X186542440Y-80816035D01*
X186654128Y-80895464D01*
X186744598Y-80960707D01*
X186809862Y-81009012D01*
X186845932Y-81037623D01*
X186847209Y-81038770D01*
X186880170Y-81084882D01*
X186895736Y-81138875D01*
X186895736Y-81138875D01*
X186895736Y-81138875D01*
G37*
X186895736Y-81138875D02*
X186893366Y-81187746D01*
X186872523Y-81218489D01*
X186854842Y-81223000D01*
X186830121Y-81211207D01*
X186774208Y-81177355D01*
X186690543Y-81123733D01*
X186582563Y-81052633D01*
X186453707Y-80966343D01*
X186307414Y-80867155D01*
X186147121Y-80757357D01*
X185976267Y-80639240D01*
X185928800Y-80606240D01*
X185754527Y-80484672D01*
X185589338Y-80368944D01*
X185436790Y-80261580D01*
X185300440Y-80165108D01*
X185183844Y-80082054D01*
X185090559Y-80014943D01*
X185024142Y-79966302D01*
X184988149Y-79938657D01*
X184984542Y-79935530D01*
X184938296Y-79873875D01*
X184926334Y-79808989D01*
X184929800Y-79760576D01*
X184945620Y-79743531D01*
X184974288Y-79745565D01*
X184998883Y-79758810D01*
X185054107Y-79793668D01*
X185135971Y-79847387D01*
X185240488Y-79917211D01*
X185363669Y-80000388D01*
X185501526Y-80094163D01*
X185650070Y-80195783D01*
X185805314Y-80302495D01*
X185963270Y-80411543D01*
X186119948Y-80520175D01*
X186271361Y-80625637D01*
X186413521Y-80725175D01*
X186542440Y-80816035D01*
X186654128Y-80895464D01*
X186744598Y-80960707D01*
X186809862Y-81009012D01*
X186845932Y-81037623D01*
X186847209Y-81038770D01*
X186880170Y-81084882D01*
X186895736Y-81138875D01*
X186895736Y-81138875D01*
G36*
X186896748Y-80594801D02*
X186883434Y-80636726D01*
X186857253Y-80651500D01*
X186833072Y-80639695D01*
X186777671Y-80605795D01*
X186694447Y-80552075D01*
X186586797Y-80480809D01*
X186458118Y-80394270D01*
X186311806Y-80294732D01*
X186151259Y-80184469D01*
X185979873Y-80065756D01*
X185920628Y-80024494D01*
X185745603Y-79902236D01*
X185580001Y-79786186D01*
X185427289Y-79678802D01*
X185290936Y-79582539D01*
X185174410Y-79499853D01*
X185081180Y-79433202D01*
X185014714Y-79385041D01*
X184978480Y-79357826D01*
X184973959Y-79354055D01*
X184944669Y-79310728D01*
X184927541Y-79253450D01*
X184923346Y-79195206D01*
X184932852Y-79148978D01*
X184956834Y-79127751D01*
X184960508Y-79127500D01*
X184983315Y-79139257D01*
X185036766Y-79172714D01*
X185116927Y-79225147D01*
X185219864Y-79293835D01*
X185341641Y-79376054D01*
X185478326Y-79469082D01*
X185625982Y-79570196D01*
X185780677Y-79676674D01*
X185938476Y-79785792D01*
X186095444Y-79894828D01*
X186247647Y-80001060D01*
X186391151Y-80101765D01*
X186522021Y-80194219D01*
X186636324Y-80275701D01*
X186730124Y-80343488D01*
X186799488Y-80394856D01*
X186840480Y-80427085D01*
X186847209Y-80433151D01*
X186878047Y-80480230D01*
X186894756Y-80538374D01*
X186896748Y-80594801D01*
X186896748Y-80594801D01*
X186896748Y-80594801D01*
G37*
X186896748Y-80594801D02*
X186883434Y-80636726D01*
X186857253Y-80651500D01*
X186833072Y-80639695D01*
X186777671Y-80605795D01*
X186694447Y-80552075D01*
X186586797Y-80480809D01*
X186458118Y-80394270D01*
X186311806Y-80294732D01*
X186151259Y-80184469D01*
X185979873Y-80065756D01*
X185920628Y-80024494D01*
X185745603Y-79902236D01*
X185580001Y-79786186D01*
X185427289Y-79678802D01*
X185290936Y-79582539D01*
X185174410Y-79499853D01*
X185081180Y-79433202D01*
X185014714Y-79385041D01*
X184978480Y-79357826D01*
X184973959Y-79354055D01*
X184944669Y-79310728D01*
X184927541Y-79253450D01*
X184923346Y-79195206D01*
X184932852Y-79148978D01*
X184956834Y-79127751D01*
X184960508Y-79127500D01*
X184983315Y-79139257D01*
X185036766Y-79172714D01*
X185116927Y-79225147D01*
X185219864Y-79293835D01*
X185341641Y-79376054D01*
X185478326Y-79469082D01*
X185625982Y-79570196D01*
X185780677Y-79676674D01*
X185938476Y-79785792D01*
X186095444Y-79894828D01*
X186247647Y-80001060D01*
X186391151Y-80101765D01*
X186522021Y-80194219D01*
X186636324Y-80275701D01*
X186730124Y-80343488D01*
X186799488Y-80394856D01*
X186840480Y-80427085D01*
X186847209Y-80433151D01*
X186878047Y-80480230D01*
X186894756Y-80538374D01*
X186896748Y-80594801D01*
X186896748Y-80594801D01*
G36*
X186894834Y-79925960D02*
X186892604Y-79992050D01*
X186883617Y-80025823D01*
X186864423Y-80037161D01*
X186855856Y-80037667D01*
X186831394Y-80025859D01*
X186775726Y-79991954D01*
X186692258Y-79938228D01*
X186584395Y-79866958D01*
X186455543Y-79780421D01*
X186309109Y-79680891D01*
X186148499Y-79570647D01*
X185977118Y-79451965D01*
X185919231Y-79411651D01*
X185744292Y-79289432D01*
X185578747Y-79173358D01*
X185426074Y-79065897D01*
X185289748Y-78969514D01*
X185173246Y-78886676D01*
X185080046Y-78819850D01*
X185013623Y-78771503D01*
X184977456Y-78744102D01*
X184973038Y-78740346D01*
X184944389Y-78706540D01*
X184931232Y-78665392D01*
X184929624Y-78601774D01*
X184930705Y-78577904D01*
X184936162Y-78510443D01*
X184946180Y-78475413D01*
X184965065Y-78462911D01*
X184981081Y-78462059D01*
X185006579Y-78474166D01*
X185062554Y-78508120D01*
X185145032Y-78561161D01*
X185250040Y-78630532D01*
X185373606Y-78713472D01*
X185511756Y-78807225D01*
X185660519Y-78909030D01*
X185815920Y-79016130D01*
X185973989Y-79125765D01*
X186130751Y-79235178D01*
X186282233Y-79341609D01*
X186424464Y-79442300D01*
X186553471Y-79534492D01*
X186665280Y-79615426D01*
X186755919Y-79682344D01*
X186821415Y-79732487D01*
X186857795Y-79763097D01*
X186863054Y-79768881D01*
X186883116Y-79820395D01*
X186893914Y-79895912D01*
X186894834Y-79925960D01*
X186894834Y-79925960D01*
X186894834Y-79925960D01*
G37*
X186894834Y-79925960D02*
X186892604Y-79992050D01*
X186883617Y-80025823D01*
X186864423Y-80037161D01*
X186855856Y-80037667D01*
X186831394Y-80025859D01*
X186775726Y-79991954D01*
X186692258Y-79938228D01*
X186584395Y-79866958D01*
X186455543Y-79780421D01*
X186309109Y-79680891D01*
X186148499Y-79570647D01*
X185977118Y-79451965D01*
X185919231Y-79411651D01*
X185744292Y-79289432D01*
X185578747Y-79173358D01*
X185426074Y-79065897D01*
X185289748Y-78969514D01*
X185173246Y-78886676D01*
X185080046Y-78819850D01*
X185013623Y-78771503D01*
X184977456Y-78744102D01*
X184973038Y-78740346D01*
X184944389Y-78706540D01*
X184931232Y-78665392D01*
X184929624Y-78601774D01*
X184930705Y-78577904D01*
X184936162Y-78510443D01*
X184946180Y-78475413D01*
X184965065Y-78462911D01*
X184981081Y-78462059D01*
X185006579Y-78474166D01*
X185062554Y-78508120D01*
X185145032Y-78561161D01*
X185250040Y-78630532D01*
X185373606Y-78713472D01*
X185511756Y-78807225D01*
X185660519Y-78909030D01*
X185815920Y-79016130D01*
X185973989Y-79125765D01*
X186130751Y-79235178D01*
X186282233Y-79341609D01*
X186424464Y-79442300D01*
X186553471Y-79534492D01*
X186665280Y-79615426D01*
X186755919Y-79682344D01*
X186821415Y-79732487D01*
X186857795Y-79763097D01*
X186863054Y-79768881D01*
X186883116Y-79820395D01*
X186893914Y-79895912D01*
X186894834Y-79925960D01*
X186894834Y-79925960D01*
G36*
X186892199Y-79113405D02*
X186890412Y-79189997D01*
X186890400Y-79190272D01*
X186884093Y-79270389D01*
X186872762Y-79315715D01*
X186854411Y-79333683D01*
X186851719Y-79334339D01*
X186828535Y-79323757D01*
X186774105Y-79291054D01*
X186691802Y-79238476D01*
X186585000Y-79168269D01*
X186457070Y-79082678D01*
X186311387Y-78983947D01*
X186151323Y-78874322D01*
X185980250Y-78756048D01*
X185920386Y-78714408D01*
X185745256Y-78592031D01*
X185579565Y-78475523D01*
X185426790Y-78367378D01*
X185290408Y-78270093D01*
X185173895Y-78186161D01*
X185080728Y-78118078D01*
X185014383Y-78068339D01*
X184978338Y-78039438D01*
X184973959Y-78035211D01*
X184945110Y-77993263D01*
X184930573Y-77940578D01*
X184926347Y-77862070D01*
X184926334Y-77855655D01*
X184931688Y-77771067D01*
X184949559Y-77724355D01*
X184982654Y-77712216D01*
X185029906Y-77729290D01*
X185061414Y-77749033D01*
X185123029Y-77790191D01*
X185210602Y-77849854D01*
X185319985Y-77925113D01*
X185447028Y-78013058D01*
X185587584Y-78110780D01*
X185737504Y-78215370D01*
X185892638Y-78323918D01*
X186048839Y-78433514D01*
X186201958Y-78541250D01*
X186347845Y-78644215D01*
X186482353Y-78739501D01*
X186601334Y-78824198D01*
X186700637Y-78895396D01*
X186776115Y-78950187D01*
X186823619Y-78985661D01*
X186837483Y-78996937D01*
X186869553Y-79030826D01*
X186886519Y-79064998D01*
X186892199Y-79113405D01*
X186892199Y-79113405D01*
X186892199Y-79113405D01*
G37*
X186892199Y-79113405D02*
X186890412Y-79189997D01*
X186890400Y-79190272D01*
X186884093Y-79270389D01*
X186872762Y-79315715D01*
X186854411Y-79333683D01*
X186851719Y-79334339D01*
X186828535Y-79323757D01*
X186774105Y-79291054D01*
X186691802Y-79238476D01*
X186585000Y-79168269D01*
X186457070Y-79082678D01*
X186311387Y-78983947D01*
X186151323Y-78874322D01*
X185980250Y-78756048D01*
X185920386Y-78714408D01*
X185745256Y-78592031D01*
X185579565Y-78475523D01*
X185426790Y-78367378D01*
X185290408Y-78270093D01*
X185173895Y-78186161D01*
X185080728Y-78118078D01*
X185014383Y-78068339D01*
X184978338Y-78039438D01*
X184973959Y-78035211D01*
X184945110Y-77993263D01*
X184930573Y-77940578D01*
X184926347Y-77862070D01*
X184926334Y-77855655D01*
X184931688Y-77771067D01*
X184949559Y-77724355D01*
X184982654Y-77712216D01*
X185029906Y-77729290D01*
X185061414Y-77749033D01*
X185123029Y-77790191D01*
X185210602Y-77849854D01*
X185319985Y-77925113D01*
X185447028Y-78013058D01*
X185587584Y-78110780D01*
X185737504Y-78215370D01*
X185892638Y-78323918D01*
X186048839Y-78433514D01*
X186201958Y-78541250D01*
X186347845Y-78644215D01*
X186482353Y-78739501D01*
X186601334Y-78824198D01*
X186700637Y-78895396D01*
X186776115Y-78950187D01*
X186823619Y-78985661D01*
X186837483Y-78996937D01*
X186869553Y-79030826D01*
X186886519Y-79064998D01*
X186892199Y-79113405D01*
X186892199Y-79113405D01*
G36*
X186892455Y-78363004D02*
X186890416Y-78431445D01*
X186884431Y-78521917D01*
X186874470Y-78584698D01*
X186861685Y-78612798D01*
X186860424Y-78613391D01*
X186833054Y-78605780D01*
X186781077Y-78578623D01*
X186714195Y-78537173D01*
X186691091Y-78521655D01*
X186483644Y-78379206D01*
X186277312Y-78236717D01*
X186075343Y-78096486D01*
X185880983Y-77960811D01*
X185697481Y-77831988D01*
X185528083Y-77712316D01*
X185376037Y-77604091D01*
X185244590Y-77509612D01*
X185136990Y-77431175D01*
X185056484Y-77371078D01*
X185006320Y-77331619D01*
X184995125Y-77321796D01*
X184960428Y-77286494D01*
X184939927Y-77253934D01*
X184929898Y-77211636D01*
X184926615Y-77147124D01*
X184926334Y-77091348D01*
X184927070Y-77008540D01*
X184930955Y-76959385D01*
X184940499Y-76935205D01*
X184958213Y-76927325D01*
X184973959Y-76926812D01*
X184998170Y-76938643D01*
X185053016Y-76972108D01*
X185134510Y-77024471D01*
X185238671Y-77093000D01*
X185361514Y-77174959D01*
X185499055Y-77267614D01*
X185647312Y-77368231D01*
X185802301Y-77474075D01*
X185960037Y-77582413D01*
X186116538Y-77690509D01*
X186267820Y-77795630D01*
X186409899Y-77895042D01*
X186538791Y-77986008D01*
X186650514Y-78065797D01*
X186741083Y-78131672D01*
X186806515Y-78180900D01*
X186837500Y-78205949D01*
X186866549Y-78233609D01*
X186883641Y-78261543D01*
X186891400Y-78300943D01*
X186892455Y-78363004D01*
X186892455Y-78363004D01*
X186892455Y-78363004D01*
G37*
X186892455Y-78363004D02*
X186890416Y-78431445D01*
X186884431Y-78521917D01*
X186874470Y-78584698D01*
X186861685Y-78612798D01*
X186860424Y-78613391D01*
X186833054Y-78605780D01*
X186781077Y-78578623D01*
X186714195Y-78537173D01*
X186691091Y-78521655D01*
X186483644Y-78379206D01*
X186277312Y-78236717D01*
X186075343Y-78096486D01*
X185880983Y-77960811D01*
X185697481Y-77831988D01*
X185528083Y-77712316D01*
X185376037Y-77604091D01*
X185244590Y-77509612D01*
X185136990Y-77431175D01*
X185056484Y-77371078D01*
X185006320Y-77331619D01*
X184995125Y-77321796D01*
X184960428Y-77286494D01*
X184939927Y-77253934D01*
X184929898Y-77211636D01*
X184926615Y-77147124D01*
X184926334Y-77091348D01*
X184927070Y-77008540D01*
X184930955Y-76959385D01*
X184940499Y-76935205D01*
X184958213Y-76927325D01*
X184973959Y-76926812D01*
X184998170Y-76938643D01*
X185053016Y-76972108D01*
X185134510Y-77024471D01*
X185238671Y-77093000D01*
X185361514Y-77174959D01*
X185499055Y-77267614D01*
X185647312Y-77368231D01*
X185802301Y-77474075D01*
X185960037Y-77582413D01*
X186116538Y-77690509D01*
X186267820Y-77795630D01*
X186409899Y-77895042D01*
X186538791Y-77986008D01*
X186650514Y-78065797D01*
X186741083Y-78131672D01*
X186806515Y-78180900D01*
X186837500Y-78205949D01*
X186866549Y-78233609D01*
X186883641Y-78261543D01*
X186891400Y-78300943D01*
X186892455Y-78363004D01*
X186892455Y-78363004D01*
G36*
X186894954Y-70487874D02*
X186889602Y-74135645D01*
X186888922Y-74596080D01*
X186888277Y-75016045D01*
X186887643Y-75397406D01*
X186886995Y-75742026D01*
X186886311Y-76051770D01*
X186885564Y-76328502D01*
X186884730Y-76574087D01*
X186883786Y-76790388D01*
X186882707Y-76979271D01*
X186881469Y-77142598D01*
X186880047Y-77282235D01*
X186878417Y-77400047D01*
X186876555Y-77497896D01*
X186874436Y-77577648D01*
X186872036Y-77641166D01*
X186869330Y-77690315D01*
X186866295Y-77726960D01*
X186862906Y-77752965D01*
X186859138Y-77770193D01*
X186854968Y-77780509D01*
X186850371Y-77785778D01*
X186845322Y-77787864D01*
X186841917Y-77788380D01*
X186814543Y-77777381D01*
X186754647Y-77742682D01*
X186663974Y-77685439D01*
X186544271Y-77606807D01*
X186519973Y-77590463D01*
X186519973Y-71295833D01*
X186379320Y-71295833D01*
X186238667Y-71295833D01*
X186238667Y-71368539D01*
X186226661Y-71465783D01*
X186192835Y-71537782D01*
X186156067Y-71569894D01*
X186096567Y-71588846D01*
X186010079Y-71601361D01*
X185911547Y-71606794D01*
X185815919Y-71604495D01*
X185738141Y-71593820D01*
X185720153Y-71588763D01*
X185674589Y-71568484D01*
X185639984Y-71538681D01*
X185614872Y-71493854D01*
X185597789Y-71428501D01*
X185587270Y-71337120D01*
X185581851Y-71214210D01*
X185580090Y-71062690D01*
X185581932Y-70899848D01*
X185589192Y-70774828D01*
X185602742Y-70683364D01*
X185623458Y-70621188D01*
X185652214Y-70584034D01*
X185681110Y-70569590D01*
X185773276Y-70548050D01*
X185854856Y-70539607D01*
X185947676Y-70542626D01*
X185990214Y-70546416D01*
X186094190Y-70562503D01*
X186162451Y-70589568D01*
X186201168Y-70632440D01*
X186216510Y-70695950D01*
X186217500Y-70724333D01*
X186217500Y-70809000D01*
X186357981Y-70809000D01*
X186498463Y-70809000D01*
X186487767Y-70675752D01*
X186470581Y-70557841D01*
X186437310Y-70467074D01*
X186383476Y-70400415D01*
X186304605Y-70354829D01*
X186196219Y-70327282D01*
X186053842Y-70314739D01*
X185952917Y-70313145D01*
X185775624Y-70318981D01*
X185634684Y-70336939D01*
X185525330Y-70369090D01*
X185442793Y-70417503D01*
X185382303Y-70484249D01*
X185339092Y-70571399D01*
X185335591Y-70581163D01*
X185314973Y-70670234D01*
X185301861Y-70790487D01*
X185295889Y-70932268D01*
X185296692Y-71085918D01*
X185303904Y-71241780D01*
X185317159Y-71390198D01*
X185336091Y-71521514D01*
X185360337Y-71626071D01*
X185376845Y-71670990D01*
X185422365Y-71727881D01*
X185498483Y-71778321D01*
X185593467Y-71815206D01*
X185628733Y-71823547D01*
X185733871Y-71836948D01*
X185863168Y-71842825D01*
X185999129Y-71841193D01*
X186124259Y-71832068D01*
X186186727Y-71823028D01*
X186265280Y-71805396D01*
X186334836Y-71784531D01*
X186367677Y-71771044D01*
X186428915Y-71715934D01*
X186473981Y-71623307D01*
X186502049Y-71495103D01*
X186507603Y-71443390D01*
X186519973Y-71295833D01*
X186519973Y-77590463D01*
X186518120Y-77589217D01*
X186518120Y-71867333D01*
X186378393Y-71867333D01*
X186238667Y-71867333D01*
X186237745Y-72380625D01*
X186236650Y-72574004D01*
X186233839Y-72729581D01*
X186228872Y-72851868D01*
X186221308Y-72945378D01*
X186210709Y-73014623D01*
X186196632Y-73064114D01*
X186178640Y-73098364D01*
X186166312Y-73112947D01*
X186126703Y-73130743D01*
X186056521Y-73143029D01*
X185967143Y-73149787D01*
X185869947Y-73150996D01*
X185776308Y-73146638D01*
X185697604Y-73136692D01*
X185645210Y-73121141D01*
X185634661Y-73113853D01*
X185613572Y-73086242D01*
X185596843Y-73047101D01*
X185584008Y-72991788D01*
X185574597Y-72915658D01*
X185568143Y-72814069D01*
X185564179Y-72682376D01*
X185562236Y-72515936D01*
X185561838Y-72391208D01*
X185561334Y-71867333D01*
X185422073Y-71867333D01*
X185282813Y-71867333D01*
X185290176Y-72486458D01*
X185292742Y-72672457D01*
X185295721Y-72820933D01*
X185299398Y-72936695D01*
X185304059Y-73024553D01*
X185309989Y-73089317D01*
X185317473Y-73135797D01*
X185326795Y-73168802D01*
X185331265Y-73179667D01*
X185384924Y-73266172D01*
X185458794Y-73324558D01*
X185556029Y-73361423D01*
X185639105Y-73376079D01*
X185750571Y-73385338D01*
X185876814Y-73389073D01*
X186004219Y-73387155D01*
X186119171Y-73379456D01*
X186200583Y-73367508D01*
X186312066Y-73333412D01*
X186391262Y-73282303D01*
X186446869Y-73207779D01*
X186462507Y-73174648D01*
X186473915Y-73143022D01*
X186483059Y-73104537D01*
X186490287Y-73053987D01*
X186495950Y-72986169D01*
X186500396Y-72895879D01*
X186503974Y-72777913D01*
X186507034Y-72627067D01*
X186509391Y-72475875D01*
X186518120Y-71867333D01*
X186518120Y-77589217D01*
X186513834Y-77586334D01*
X186513834Y-75211667D01*
X186513834Y-75095250D01*
X186513834Y-74978833D01*
X186502885Y-74978833D01*
X186502885Y-74487994D01*
X186496344Y-74372183D01*
X186476036Y-74272717D01*
X186443535Y-74200686D01*
X186434519Y-74189188D01*
X186385633Y-74148123D01*
X186317233Y-74116583D01*
X186222492Y-74092456D01*
X186094587Y-74073629D01*
X186043502Y-74068175D01*
X185893023Y-74052912D01*
X185779471Y-74039419D01*
X185697647Y-74025284D01*
X185642354Y-74008091D01*
X185608391Y-73985428D01*
X185590560Y-73954878D01*
X185583663Y-73914029D01*
X185582501Y-73860466D01*
X185582500Y-73854096D01*
X185587897Y-73764702D01*
X185608729Y-73707112D01*
X185651961Y-73671652D01*
X185724556Y-73648651D01*
X185731490Y-73647134D01*
X185879522Y-73625757D01*
X186002417Y-73629486D01*
X186097509Y-73657354D01*
X186162129Y-73708394D01*
X186193613Y-73781640D01*
X186196334Y-73815662D01*
X186200799Y-73837876D01*
X186220344Y-73850361D01*
X186264191Y-73855831D01*
X186336878Y-73857000D01*
X186477423Y-73857000D01*
X186464990Y-73736537D01*
X186442122Y-73625687D01*
X186395978Y-73544030D01*
X186320424Y-73482049D01*
X186290218Y-73465417D01*
X186251303Y-73448326D01*
X186207719Y-73436474D01*
X186151062Y-73428949D01*
X186072928Y-73424839D01*
X185964914Y-73423233D01*
X185900000Y-73423083D01*
X185740230Y-73425444D01*
X185616648Y-73433750D01*
X185523307Y-73449840D01*
X185454261Y-73475549D01*
X185403565Y-73512715D01*
X185365271Y-73563176D01*
X185349273Y-73593231D01*
X185320734Y-73682892D01*
X185305378Y-73796213D01*
X185303655Y-73916480D01*
X185316016Y-74026980D01*
X185335745Y-74095691D01*
X185366460Y-74147839D01*
X185413501Y-74189685D01*
X185481701Y-74222813D01*
X185575894Y-74248809D01*
X185700911Y-74269258D01*
X185861585Y-74285746D01*
X185931750Y-74291212D01*
X186022823Y-74300713D01*
X186102133Y-74314132D01*
X186156910Y-74329116D01*
X186168886Y-74334890D01*
X186209907Y-74383547D01*
X186230261Y-74454864D01*
X186231053Y-74535973D01*
X186213384Y-74614006D01*
X186178357Y-74676094D01*
X186137059Y-74706237D01*
X186091968Y-74714865D01*
X186016739Y-74720419D01*
X185923499Y-74722242D01*
X185861052Y-74721182D01*
X185761150Y-74717238D01*
X185694450Y-74711643D01*
X185651825Y-74702394D01*
X185624144Y-74687487D01*
X185602278Y-74664919D01*
X185601760Y-74664280D01*
X185572957Y-74607153D01*
X185561334Y-74542572D01*
X185561334Y-74470833D01*
X185421311Y-74470833D01*
X185281289Y-74470833D01*
X185296194Y-74592542D01*
X185323614Y-74726813D01*
X185368480Y-74823017D01*
X185431099Y-74881796D01*
X185436198Y-74884547D01*
X185522782Y-74915496D01*
X185640411Y-74937966D01*
X185778498Y-74951165D01*
X185926457Y-74954299D01*
X186073704Y-74946573D01*
X186147369Y-74937871D01*
X186274021Y-74911923D01*
X186365506Y-74872326D01*
X186428323Y-74812917D01*
X186468971Y-74727532D01*
X186493951Y-74610007D01*
X186494086Y-74609059D01*
X186502885Y-74487994D01*
X186502885Y-74978833D01*
X185900000Y-74978833D01*
X185286167Y-74978833D01*
X185286167Y-75730250D01*
X185286167Y-76481667D01*
X185423750Y-76481667D01*
X185561334Y-76481667D01*
X185561334Y-76174750D01*
X185561334Y-75867833D01*
X185974084Y-75867833D01*
X186386834Y-75867833D01*
X186386834Y-75751417D01*
X186386834Y-75635000D01*
X185974084Y-75635000D01*
X185561334Y-75635000D01*
X185561334Y-75423333D01*
X185561334Y-75211667D01*
X186037584Y-75211667D01*
X186513834Y-75211667D01*
X186513834Y-77586334D01*
X186397285Y-77507942D01*
X186224761Y-77389998D01*
X186028447Y-77254132D01*
X185921167Y-77179316D01*
X185747757Y-77057837D01*
X185583415Y-76942206D01*
X185431709Y-76834969D01*
X185296207Y-76738670D01*
X185180475Y-76655855D01*
X185088080Y-76589068D01*
X185022591Y-76540855D01*
X184987574Y-76513760D01*
X184984542Y-76511100D01*
X184926334Y-76456911D01*
X184926334Y-73484085D01*
X184926334Y-70511259D01*
X184981221Y-70400838D01*
X185003573Y-70358055D01*
X185043974Y-70283001D01*
X185099850Y-70180374D01*
X185168624Y-70054871D01*
X185247720Y-69911192D01*
X185334561Y-69754032D01*
X185426572Y-69588091D01*
X185451401Y-69543411D01*
X185556967Y-69354043D01*
X185644297Y-69198753D01*
X185715331Y-69074405D01*
X185772012Y-68977862D01*
X185816279Y-68905986D01*
X185850073Y-68855641D01*
X185875337Y-68823689D01*
X185894010Y-68806994D01*
X185908034Y-68802420D01*
X185909804Y-68802577D01*
X185927764Y-68814387D01*
X185955897Y-68847671D01*
X185995809Y-68904973D01*
X186049108Y-68988838D01*
X186117398Y-69101809D01*
X186202288Y-69246430D01*
X186305383Y-69425245D01*
X186328088Y-69464917D01*
X186419916Y-69625974D01*
X186509242Y-69783485D01*
X186592818Y-69931663D01*
X186667398Y-70064721D01*
X186729735Y-70176872D01*
X186776582Y-70262329D01*
X186799107Y-70304479D01*
X186894954Y-70487874D01*
X186894954Y-70487874D01*
X186894954Y-70487874D01*
G37*
X186894954Y-70487874D02*
X186889602Y-74135645D01*
X186888922Y-74596080D01*
X186888277Y-75016045D01*
X186887643Y-75397406D01*
X186886995Y-75742026D01*
X186886311Y-76051770D01*
X186885564Y-76328502D01*
X186884730Y-76574087D01*
X186883786Y-76790388D01*
X186882707Y-76979271D01*
X186881469Y-77142598D01*
X186880047Y-77282235D01*
X186878417Y-77400047D01*
X186876555Y-77497896D01*
X186874436Y-77577648D01*
X186872036Y-77641166D01*
X186869330Y-77690315D01*
X186866295Y-77726960D01*
X186862906Y-77752965D01*
X186859138Y-77770193D01*
X186854968Y-77780509D01*
X186850371Y-77785778D01*
X186845322Y-77787864D01*
X186841917Y-77788380D01*
X186814543Y-77777381D01*
X186754647Y-77742682D01*
X186663974Y-77685439D01*
X186544271Y-77606807D01*
X186519973Y-77590463D01*
X186519973Y-71295833D01*
X186379320Y-71295833D01*
X186238667Y-71295833D01*
X186238667Y-71368539D01*
X186226661Y-71465783D01*
X186192835Y-71537782D01*
X186156067Y-71569894D01*
X186096567Y-71588846D01*
X186010079Y-71601361D01*
X185911547Y-71606794D01*
X185815919Y-71604495D01*
X185738141Y-71593820D01*
X185720153Y-71588763D01*
X185674589Y-71568484D01*
X185639984Y-71538681D01*
X185614872Y-71493854D01*
X185597789Y-71428501D01*
X185587270Y-71337120D01*
X185581851Y-71214210D01*
X185580090Y-71062690D01*
X185581932Y-70899848D01*
X185589192Y-70774828D01*
X185602742Y-70683364D01*
X185623458Y-70621188D01*
X185652214Y-70584034D01*
X185681110Y-70569590D01*
X185773276Y-70548050D01*
X185854856Y-70539607D01*
X185947676Y-70542626D01*
X185990214Y-70546416D01*
X186094190Y-70562503D01*
X186162451Y-70589568D01*
X186201168Y-70632440D01*
X186216510Y-70695950D01*
X186217500Y-70724333D01*
X186217500Y-70809000D01*
X186357981Y-70809000D01*
X186498463Y-70809000D01*
X186487767Y-70675752D01*
X186470581Y-70557841D01*
X186437310Y-70467074D01*
X186383476Y-70400415D01*
X186304605Y-70354829D01*
X186196219Y-70327282D01*
X186053842Y-70314739D01*
X185952917Y-70313145D01*
X185775624Y-70318981D01*
X185634684Y-70336939D01*
X185525330Y-70369090D01*
X185442793Y-70417503D01*
X185382303Y-70484249D01*
X185339092Y-70571399D01*
X185335591Y-70581163D01*
X185314973Y-70670234D01*
X185301861Y-70790487D01*
X185295889Y-70932268D01*
X185296692Y-71085918D01*
X185303904Y-71241780D01*
X185317159Y-71390198D01*
X185336091Y-71521514D01*
X185360337Y-71626071D01*
X185376845Y-71670990D01*
X185422365Y-71727881D01*
X185498483Y-71778321D01*
X185593467Y-71815206D01*
X185628733Y-71823547D01*
X185733871Y-71836948D01*
X185863168Y-71842825D01*
X185999129Y-71841193D01*
X186124259Y-71832068D01*
X186186727Y-71823028D01*
X186265280Y-71805396D01*
X186334836Y-71784531D01*
X186367677Y-71771044D01*
X186428915Y-71715934D01*
X186473981Y-71623307D01*
X186502049Y-71495103D01*
X186507603Y-71443390D01*
X186519973Y-71295833D01*
X186519973Y-77590463D01*
X186518120Y-77589217D01*
X186518120Y-71867333D01*
X186378393Y-71867333D01*
X186238667Y-71867333D01*
X186237745Y-72380625D01*
X186236650Y-72574004D01*
X186233839Y-72729581D01*
X186228872Y-72851868D01*
X186221308Y-72945378D01*
X186210709Y-73014623D01*
X186196632Y-73064114D01*
X186178640Y-73098364D01*
X186166312Y-73112947D01*
X186126703Y-73130743D01*
X186056521Y-73143029D01*
X185967143Y-73149787D01*
X185869947Y-73150996D01*
X185776308Y-73146638D01*
X185697604Y-73136692D01*
X185645210Y-73121141D01*
X185634661Y-73113853D01*
X185613572Y-73086242D01*
X185596843Y-73047101D01*
X185584008Y-72991788D01*
X185574597Y-72915658D01*
X185568143Y-72814069D01*
X185564179Y-72682376D01*
X185562236Y-72515936D01*
X185561838Y-72391208D01*
X185561334Y-71867333D01*
X185422073Y-71867333D01*
X185282813Y-71867333D01*
X185290176Y-72486458D01*
X185292742Y-72672457D01*
X185295721Y-72820933D01*
X185299398Y-72936695D01*
X185304059Y-73024553D01*
X185309989Y-73089317D01*
X185317473Y-73135797D01*
X185326795Y-73168802D01*
X185331265Y-73179667D01*
X185384924Y-73266172D01*
X185458794Y-73324558D01*
X185556029Y-73361423D01*
X185639105Y-73376079D01*
X185750571Y-73385338D01*
X185876814Y-73389073D01*
X186004219Y-73387155D01*
X186119171Y-73379456D01*
X186200583Y-73367508D01*
X186312066Y-73333412D01*
X186391262Y-73282303D01*
X186446869Y-73207779D01*
X186462507Y-73174648D01*
X186473915Y-73143022D01*
X186483059Y-73104537D01*
X186490287Y-73053987D01*
X186495950Y-72986169D01*
X186500396Y-72895879D01*
X186503974Y-72777913D01*
X186507034Y-72627067D01*
X186509391Y-72475875D01*
X186518120Y-71867333D01*
X186518120Y-77589217D01*
X186513834Y-77586334D01*
X186513834Y-75211667D01*
X186513834Y-75095250D01*
X186513834Y-74978833D01*
X186502885Y-74978833D01*
X186502885Y-74487994D01*
X186496344Y-74372183D01*
X186476036Y-74272717D01*
X186443535Y-74200686D01*
X186434519Y-74189188D01*
X186385633Y-74148123D01*
X186317233Y-74116583D01*
X186222492Y-74092456D01*
X186094587Y-74073629D01*
X186043502Y-74068175D01*
X185893023Y-74052912D01*
X185779471Y-74039419D01*
X185697647Y-74025284D01*
X185642354Y-74008091D01*
X185608391Y-73985428D01*
X185590560Y-73954878D01*
X185583663Y-73914029D01*
X185582501Y-73860466D01*
X185582500Y-73854096D01*
X185587897Y-73764702D01*
X185608729Y-73707112D01*
X185651961Y-73671652D01*
X185724556Y-73648651D01*
X185731490Y-73647134D01*
X185879522Y-73625757D01*
X186002417Y-73629486D01*
X186097509Y-73657354D01*
X186162129Y-73708394D01*
X186193613Y-73781640D01*
X186196334Y-73815662D01*
X186200799Y-73837876D01*
X186220344Y-73850361D01*
X186264191Y-73855831D01*
X186336878Y-73857000D01*
X186477423Y-73857000D01*
X186464990Y-73736537D01*
X186442122Y-73625687D01*
X186395978Y-73544030D01*
X186320424Y-73482049D01*
X186290218Y-73465417D01*
X186251303Y-73448326D01*
X186207719Y-73436474D01*
X186151062Y-73428949D01*
X186072928Y-73424839D01*
X185964914Y-73423233D01*
X185900000Y-73423083D01*
X185740230Y-73425444D01*
X185616648Y-73433750D01*
X185523307Y-73449840D01*
X185454261Y-73475549D01*
X185403565Y-73512715D01*
X185365271Y-73563176D01*
X185349273Y-73593231D01*
X185320734Y-73682892D01*
X185305378Y-73796213D01*
X185303655Y-73916480D01*
X185316016Y-74026980D01*
X185335745Y-74095691D01*
X185366460Y-74147839D01*
X185413501Y-74189685D01*
X185481701Y-74222813D01*
X185575894Y-74248809D01*
X185700911Y-74269258D01*
X185861585Y-74285746D01*
X185931750Y-74291212D01*
X186022823Y-74300713D01*
X186102133Y-74314132D01*
X186156910Y-74329116D01*
X186168886Y-74334890D01*
X186209907Y-74383547D01*
X186230261Y-74454864D01*
X186231053Y-74535973D01*
X186213384Y-74614006D01*
X186178357Y-74676094D01*
X186137059Y-74706237D01*
X186091968Y-74714865D01*
X186016739Y-74720419D01*
X185923499Y-74722242D01*
X185861052Y-74721182D01*
X185761150Y-74717238D01*
X185694450Y-74711643D01*
X185651825Y-74702394D01*
X185624144Y-74687487D01*
X185602278Y-74664919D01*
X185601760Y-74664280D01*
X185572957Y-74607153D01*
X185561334Y-74542572D01*
X185561334Y-74470833D01*
X185421311Y-74470833D01*
X185281289Y-74470833D01*
X185296194Y-74592542D01*
X185323614Y-74726813D01*
X185368480Y-74823017D01*
X185431099Y-74881796D01*
X185436198Y-74884547D01*
X185522782Y-74915496D01*
X185640411Y-74937966D01*
X185778498Y-74951165D01*
X185926457Y-74954299D01*
X186073704Y-74946573D01*
X186147369Y-74937871D01*
X186274021Y-74911923D01*
X186365506Y-74872326D01*
X186428323Y-74812917D01*
X186468971Y-74727532D01*
X186493951Y-74610007D01*
X186494086Y-74609059D01*
X186502885Y-74487994D01*
X186502885Y-74978833D01*
X185900000Y-74978833D01*
X185286167Y-74978833D01*
X185286167Y-75730250D01*
X185286167Y-76481667D01*
X185423750Y-76481667D01*
X185561334Y-76481667D01*
X185561334Y-76174750D01*
X185561334Y-75867833D01*
X185974084Y-75867833D01*
X186386834Y-75867833D01*
X186386834Y-75751417D01*
X186386834Y-75635000D01*
X185974084Y-75635000D01*
X185561334Y-75635000D01*
X185561334Y-75423333D01*
X185561334Y-75211667D01*
X186037584Y-75211667D01*
X186513834Y-75211667D01*
X186513834Y-77586334D01*
X186397285Y-77507942D01*
X186224761Y-77389998D01*
X186028447Y-77254132D01*
X185921167Y-77179316D01*
X185747757Y-77057837D01*
X185583415Y-76942206D01*
X185431709Y-76834969D01*
X185296207Y-76738670D01*
X185180475Y-76655855D01*
X185088080Y-76589068D01*
X185022591Y-76540855D01*
X184987574Y-76513760D01*
X184984542Y-76511100D01*
X184926334Y-76456911D01*
X184926334Y-73484085D01*
X184926334Y-70511259D01*
X184981221Y-70400838D01*
X185003573Y-70358055D01*
X185043974Y-70283001D01*
X185099850Y-70180374D01*
X185168624Y-70054871D01*
X185247720Y-69911192D01*
X185334561Y-69754032D01*
X185426572Y-69588091D01*
X185451401Y-69543411D01*
X185556967Y-69354043D01*
X185644297Y-69198753D01*
X185715331Y-69074405D01*
X185772012Y-68977862D01*
X185816279Y-68905986D01*
X185850073Y-68855641D01*
X185875337Y-68823689D01*
X185894010Y-68806994D01*
X185908034Y-68802420D01*
X185909804Y-68802577D01*
X185927764Y-68814387D01*
X185955897Y-68847671D01*
X185995809Y-68904973D01*
X186049108Y-68988838D01*
X186117398Y-69101809D01*
X186202288Y-69246430D01*
X186305383Y-69425245D01*
X186328088Y-69464917D01*
X186419916Y-69625974D01*
X186509242Y-69783485D01*
X186592818Y-69931663D01*
X186667398Y-70064721D01*
X186729735Y-70176872D01*
X186776582Y-70262329D01*
X186799107Y-70304479D01*
X186894954Y-70487874D01*
X186894954Y-70487874D01*
D14*
X183950000Y-79200000D02*
X181550000Y-79200000D01*
X184550000Y-74200000D02*
X181550000Y-74200000D01*
X183950000Y-79200000D02*
G75*
G03X184550000Y-79200000I300000J0D01*
G01*
X162785000Y-68635000D02*
X162785000Y-67135000D01*
X162785000Y-67135000D02*
X157215000Y-67135000D01*
X157215000Y-67135000D02*
X157215000Y-68635000D01*
X157215000Y-81365000D02*
X158715000Y-82865000D01*
X158715000Y-82865000D02*
X161285000Y-82865000D01*
X161285000Y-82865000D02*
X162785000Y-81365000D01*
X169550000Y-81350000D02*
X169550000Y-73050000D01*
X169550000Y-73050000D02*
X178450000Y-73050000D01*
X178450000Y-73050000D02*
X178450000Y-81950000D01*
X178450000Y-81950000D02*
X170150000Y-81950000D01*
X170150000Y-81950000D02*
X169550000Y-81350000D01*
X166635000Y-62445000D02*
X166635000Y-62695000D01*
X166635000Y-62695000D02*
X165985000Y-62695000D01*
X165985000Y-62695000D02*
X165985000Y-62445000D01*
X165985000Y-62445000D02*
X166635000Y-62445000D01*
X179200000Y-68900000D02*
X179200000Y-67900000D01*
X179200000Y-67900000D02*
X180800000Y-67900000D01*
X180800000Y-67900000D02*
X180800000Y-69500000D01*
X180800000Y-69500000D02*
X179800000Y-69500000D01*
X179800000Y-69500000D02*
X179200000Y-68900000D01*
X164400000Y-87050000D02*
X161900000Y-87050000D01*
X165000000Y-83950000D02*
X161900000Y-83950000D01*
X164400000Y-87050000D02*
G75*
G03X165000000Y-87050000I300000J0D01*
G01*
X172875000Y-92600000D02*
X173125000Y-92275000D01*
X172875000Y-92600000D02*
X173125000Y-92925000D01*
X173125000Y-92275000D02*
X173125000Y-92925000D01*
X176925000Y-92600000D02*
X176675000Y-92925000D01*
X176925000Y-92600000D02*
X176675000Y-92275000D01*
X176675000Y-92925000D02*
X176675000Y-92275000D01*
X172230047Y-87241527D02*
X172330047Y-87241527D01*
X171580047Y-86191527D02*
X171580047Y-86491527D01*
X172230047Y-85441527D02*
X172330047Y-85441527D01*
X172980047Y-86191527D02*
X172980047Y-86491527D01*
X168750000Y-62425000D02*
X168750000Y-62675000D01*
X168750000Y-62675000D02*
X168100000Y-62675000D01*
X168100000Y-62675000D02*
X168100000Y-62425000D01*
X168100000Y-62425000D02*
X168750000Y-62425000D01*
X176125000Y-62375000D02*
X176125000Y-62625000D01*
X176125000Y-62625000D02*
X175475000Y-62625000D01*
X175475000Y-62625000D02*
X175475000Y-62375000D01*
X175475000Y-62375000D02*
X176125000Y-62375000D01*
X174575000Y-62375000D02*
X174575000Y-62625000D01*
X174575000Y-62625000D02*
X173925000Y-62625000D01*
X173925000Y-62625000D02*
X173925000Y-62375000D01*
X173925000Y-62375000D02*
X174575000Y-62375000D01*
X173025000Y-62375000D02*
X173025000Y-62625000D01*
X173025000Y-62625000D02*
X172375000Y-62625000D01*
X172375000Y-62625000D02*
X172375000Y-62375000D01*
X172375000Y-62375000D02*
X173025000Y-62375000D01*
X192785000Y-68635000D02*
X192785000Y-67135000D01*
X192785000Y-67135000D02*
X187215000Y-67135000D01*
X187215000Y-67135000D02*
X187215000Y-68635000D01*
X187215000Y-81365000D02*
X188715000Y-82865000D01*
X188715000Y-82865000D02*
X191285000Y-82865000D01*
X191285000Y-82865000D02*
X192785000Y-81365000D01*
X161975000Y-113875000D02*
X161975000Y-114125000D01*
X161975000Y-114125000D02*
X161325000Y-114125000D01*
X161325000Y-114125000D02*
X161325000Y-113875000D01*
X161325000Y-113875000D02*
X161975000Y-113875000D01*
X184493000Y-131439000D02*
X184407000Y-131525000D01*
X184493000Y-133475000D02*
X184493000Y-131439000D01*
X184407000Y-133475000D02*
X184493000Y-133475000D01*
X184407000Y-131525000D02*
X184407000Y-133475000D01*
X184407000Y-131525000D02*
X184407000Y-131525000D01*
X188430348Y-136554244D02*
X188518616Y-136954662D01*
X188430348Y-136554244D02*
X188020687Y-136536850D01*
X188518616Y-136954662D02*
X188020687Y-136536850D01*
X170757000Y-114775000D02*
X170757000Y-114775000D01*
X170757000Y-114775000D02*
X170757000Y-116725000D01*
X170757000Y-116725000D02*
X170843000Y-116725000D01*
X170843000Y-116725000D02*
X170843000Y-114689000D01*
X170843000Y-114689000D02*
X170757000Y-114775000D01*
X187175000Y-113075000D02*
X187175000Y-112425000D01*
X187425000Y-113075000D02*
X187175000Y-113075000D01*
X187425000Y-112425000D02*
X187425000Y-113075000D01*
X187175000Y-112425000D02*
X187425000Y-112425000D01*
X175675000Y-111925000D02*
X175925000Y-111925000D01*
X175925000Y-111925000D02*
X175925000Y-112575000D01*
X175925000Y-112575000D02*
X175675000Y-112575000D01*
X175675000Y-112575000D02*
X175675000Y-111925000D01*
X182313288Y-141297173D02*
X182224062Y-141697377D01*
X182313288Y-141297173D02*
X181949361Y-141108277D01*
X182224062Y-141697377D02*
X181949361Y-141108277D01*
X185663150Y-139629313D02*
X185245338Y-139131384D01*
X185645756Y-139219652D02*
X185245338Y-139131384D01*
X185645756Y-139219652D02*
X185663150Y-139629313D01*
X183093000Y-118289000D02*
X183007000Y-118375000D01*
X183093000Y-120325000D02*
X183093000Y-118289000D01*
X183007000Y-120325000D02*
X183093000Y-120325000D01*
X183007000Y-118375000D02*
X183007000Y-120325000D01*
X183007000Y-118375000D02*
X183007000Y-118375000D01*
X176857000Y-118375000D02*
X176857000Y-118375000D01*
X176857000Y-118375000D02*
X176857000Y-120325000D01*
X176857000Y-120325000D02*
X176943000Y-120325000D01*
X176943000Y-120325000D02*
X176943000Y-118289000D01*
X176943000Y-118289000D02*
X176857000Y-118375000D01*
X170843000Y-118289000D02*
X170757000Y-118375000D01*
X170843000Y-120325000D02*
X170843000Y-118289000D01*
X170757000Y-120325000D02*
X170843000Y-120325000D01*
X170757000Y-118375000D02*
X170757000Y-120325000D01*
X170757000Y-118375000D02*
X170757000Y-118375000D01*
X184493000Y-127289000D02*
X184407000Y-127375000D01*
X184493000Y-129325000D02*
X184493000Y-127289000D01*
X184407000Y-129325000D02*
X184493000Y-129325000D01*
X184407000Y-127375000D02*
X184407000Y-129325000D01*
X184407000Y-127375000D02*
X184407000Y-127375000D01*
X176943000Y-114689000D02*
X176857000Y-114775000D01*
X176943000Y-116725000D02*
X176943000Y-114689000D01*
X176857000Y-116725000D02*
X176943000Y-116725000D01*
X176857000Y-114775000D02*
X176857000Y-116725000D01*
X176857000Y-114775000D02*
X176857000Y-114775000D01*
X183007000Y-114775000D02*
X183007000Y-114775000D01*
X183007000Y-114775000D02*
X183007000Y-116725000D01*
X183007000Y-116725000D02*
X183093000Y-116725000D01*
X183093000Y-116725000D02*
X183093000Y-114689000D01*
X183093000Y-114689000D02*
X183007000Y-114775000D01*
X160750000Y-136750000D02*
X160750000Y-134250000D01*
X163850000Y-137350000D02*
X163850000Y-134250000D01*
X160750000Y-136750000D02*
G75*
G03X160750000Y-137350000I0J-300000D01*
G01*
X168950000Y-136850000D02*
X168950000Y-128550000D01*
X168950000Y-128550000D02*
X177850000Y-128550000D01*
X177850000Y-128550000D02*
X177850000Y-137450000D01*
X177850000Y-137450000D02*
X169550000Y-137450000D01*
X169550000Y-137450000D02*
X168950000Y-136850000D01*
X170050000Y-108300000D02*
X170050000Y-108650000D01*
X169700000Y-108300000D02*
X170050000Y-108300000D01*
X167050000Y-108300000D02*
X167050000Y-108650000D01*
X167400000Y-108300000D02*
X167050000Y-108300000D01*
X167050000Y-111300000D02*
X167050000Y-110950000D01*
X167400000Y-111300000D02*
X167050000Y-111300000D01*
X170050000Y-110950000D02*
X169700000Y-111300000D01*
X179950000Y-108650000D02*
X180300000Y-108300000D01*
X182600000Y-108300000D02*
X182950000Y-108300000D01*
X182950000Y-108300000D02*
X182950000Y-108650000D01*
X182600000Y-111300000D02*
X182950000Y-111300000D01*
X182950000Y-111300000D02*
X182950000Y-110950000D01*
X180300000Y-111300000D02*
X179950000Y-111300000D01*
X179950000Y-111300000D02*
X179950000Y-110950000D01*
X183175000Y-135850000D02*
X183175000Y-134650000D01*
X183500000Y-134650000D02*
X183500000Y-135850000D01*
X182200000Y-134650000D02*
X183500000Y-134650000D01*
X182200000Y-135850000D02*
X182200000Y-134650000D01*
X183500000Y-135850000D02*
X182200000Y-135850000D01*
X183499999Y-137750000D02*
X182200001Y-137750000D01*
X182200001Y-137750000D02*
X182200001Y-136550000D01*
X182200001Y-136550000D02*
X183499999Y-136550000D01*
X183499999Y-136550000D02*
X183499999Y-137750000D01*
X183175000Y-137750000D02*
X183175000Y-136550000D01*
X191285000Y-132865000D02*
X192785000Y-131365000D01*
X188715000Y-132865000D02*
X191285000Y-132865000D01*
X187215000Y-131365000D02*
X188715000Y-132865000D01*
X187215000Y-117135000D02*
X187215000Y-118635000D01*
X192785000Y-117135000D02*
X187215000Y-117135000D01*
X192785000Y-118635000D02*
X192785000Y-117135000D01*
X162785000Y-118635000D02*
X162785000Y-117135000D01*
X162785000Y-117135000D02*
X157215000Y-117135000D01*
X157215000Y-117135000D02*
X157215000Y-118635000D01*
X157215000Y-131365000D02*
X158715000Y-132865000D01*
X158715000Y-132865000D02*
X161285000Y-132865000D01*
X161285000Y-132865000D02*
X162785000Y-131365000D01*
X172255000Y-111425000D02*
X172255000Y-107575000D01*
X173245000Y-111425000D02*
X172255000Y-111425000D01*
X173245000Y-107575000D02*
X173245000Y-111425000D01*
X172255000Y-107575000D02*
X173245000Y-107575000D01*
X177745000Y-111425000D02*
X176755000Y-111425000D01*
X176755000Y-111425000D02*
X176755000Y-107575000D01*
X176755000Y-107575000D02*
X177745000Y-107575000D01*
X177745000Y-107575000D02*
X177745000Y-111425000D01*
X169300000Y-140950000D02*
X169300000Y-141050000D01*
X170350000Y-140300000D02*
X170050000Y-140300000D01*
X171100000Y-140950000D02*
X171100000Y-141050000D01*
X170350000Y-141700000D02*
X170050000Y-141700000D01*
X118745000Y-135455000D02*
X118745000Y-135105000D01*
X119095000Y-135455000D02*
X118745000Y-135455000D01*
X127745000Y-135455000D02*
X127745000Y-135105000D01*
X127395000Y-135455000D02*
X127745000Y-135455000D01*
X127745000Y-126455000D02*
X127745000Y-126805000D01*
X127395000Y-126455000D02*
X127745000Y-126455000D01*
X118745000Y-126805000D02*
X119095000Y-126455000D01*
X113325000Y-116870000D02*
X113325000Y-115880000D01*
X113325000Y-115880000D02*
X117175000Y-115880000D01*
X117175000Y-115880000D02*
X117175000Y-116870000D01*
X117175000Y-116870000D02*
X113325000Y-116870000D01*
X121810000Y-106715000D02*
X120310000Y-106715000D01*
X120310000Y-106715000D02*
X120310000Y-112285000D01*
X120310000Y-112285000D02*
X121810000Y-112285000D01*
X128190000Y-112285000D02*
X129690000Y-110785000D01*
X129690000Y-110785000D02*
X129690000Y-108215000D01*
X129690000Y-108215000D02*
X128190000Y-106715000D01*
X142785000Y-118635000D02*
X142785000Y-117135000D01*
X142785000Y-117135000D02*
X137215000Y-117135000D01*
X137215000Y-117135000D02*
X137215000Y-118635000D01*
X137215000Y-131365000D02*
X138715000Y-132865000D01*
X138715000Y-132865000D02*
X141285000Y-132865000D01*
X141285000Y-132865000D02*
X142785000Y-131365000D01*
X112785000Y-118635000D02*
X112785000Y-117135000D01*
X112785000Y-117135000D02*
X107215000Y-117135000D01*
X107215000Y-117135000D02*
X107215000Y-118635000D01*
X107215000Y-131365000D02*
X108715000Y-132865000D01*
X108715000Y-132865000D02*
X111285000Y-132865000D01*
X111285000Y-132865000D02*
X112785000Y-131365000D01*
X136174868Y-131215000D02*
G75*
G03X136174868Y-131215000I-94868J0D01*
G01*
X135975000Y-131025000D02*
X136050000Y-131025000D01*
X136050000Y-133025000D02*
X135975000Y-133025000D01*
X134125000Y-133025000D02*
X134050000Y-133025000D01*
X134050000Y-131025000D02*
X134125000Y-131025000D01*
X134050000Y-133025000D02*
X134050000Y-131025000D01*
X136050000Y-131025000D02*
X136050000Y-133025000D01*
X132925000Y-132025000D02*
X133575000Y-132025000D01*
X132925000Y-132275000D02*
X132925000Y-132025000D01*
X133575000Y-132275000D02*
X132925000Y-132275000D01*
X133575000Y-132025000D02*
X133575000Y-132275000D01*
X132925000Y-127200000D02*
X133575000Y-127200000D01*
X132925000Y-127450000D02*
X132925000Y-127200000D01*
X133575000Y-127450000D02*
X132925000Y-127450000D01*
X133575000Y-127200000D02*
X133575000Y-127450000D01*
X133575000Y-122375000D02*
X133575000Y-122625000D01*
X133575000Y-122625000D02*
X132925000Y-122625000D01*
X132925000Y-122625000D02*
X132925000Y-122375000D01*
X132925000Y-122375000D02*
X133575000Y-122375000D01*
X133575000Y-117550000D02*
X133575000Y-117800000D01*
X133575000Y-117800000D02*
X132925000Y-117800000D01*
X132925000Y-117800000D02*
X132925000Y-117550000D01*
X132925000Y-117550000D02*
X133575000Y-117550000D01*
X136174868Y-126394000D02*
G75*
G03X136174868Y-126394000I-94868J0D01*
G01*
X135975000Y-126204000D02*
X136050000Y-126204000D01*
X136050000Y-128204000D02*
X135975000Y-128204000D01*
X134125000Y-128204000D02*
X134050000Y-128204000D01*
X134050000Y-126204000D02*
X134125000Y-126204000D01*
X134050000Y-128204000D02*
X134050000Y-126204000D01*
X136050000Y-126204000D02*
X136050000Y-128204000D01*
X136050000Y-121379000D02*
X136050000Y-123379000D01*
X134050000Y-123379000D02*
X134050000Y-121379000D01*
X134050000Y-121379000D02*
X134125000Y-121379000D01*
X134125000Y-123379000D02*
X134050000Y-123379000D01*
X136050000Y-123379000D02*
X135975000Y-123379000D01*
X135975000Y-121379000D02*
X136050000Y-121379000D01*
X136174868Y-121569000D02*
G75*
G03X136174868Y-121569000I-94868J0D01*
G01*
X136174868Y-116740000D02*
G75*
G03X136174868Y-116740000I-94868J0D01*
G01*
X135975000Y-116550000D02*
X136050000Y-116550000D01*
X136050000Y-118550000D02*
X135975000Y-118550000D01*
X134125000Y-118550000D02*
X134050000Y-118550000D01*
X134050000Y-116550000D02*
X134125000Y-116550000D01*
X134050000Y-118550000D02*
X134050000Y-116550000D01*
X136050000Y-116550000D02*
X136050000Y-118550000D01*
X123025000Y-115400000D02*
X121925000Y-115400000D01*
X123025000Y-115150000D02*
X123025000Y-115400000D01*
X121925000Y-115150000D02*
X123025000Y-115150000D01*
X121925000Y-115400000D02*
X121925000Y-115150000D01*
X116750000Y-112750000D02*
X117000000Y-112750000D01*
X117000000Y-112750000D02*
X117000000Y-113850000D01*
X117000000Y-113850000D02*
X116750000Y-113850000D01*
X116750000Y-113850000D02*
X116750000Y-112750000D01*
X116250000Y-139200000D02*
X116500000Y-139200000D01*
X116500000Y-139200000D02*
X116500000Y-140300000D01*
X116500000Y-140300000D02*
X116250000Y-140300000D01*
X116250000Y-140300000D02*
X116250000Y-139200000D01*
X118075000Y-137000000D02*
X118075000Y-138100000D01*
X117825000Y-137000000D02*
X118075000Y-137000000D01*
X117825000Y-138100000D02*
X117825000Y-137000000D01*
X118075000Y-138100000D02*
X117825000Y-138100000D01*
X118100000Y-118575000D02*
X118100000Y-118225000D01*
X118450000Y-118575000D02*
X118100000Y-118575000D01*
X121100000Y-118575000D02*
X121100000Y-118225000D01*
X120750000Y-118575000D02*
X121100000Y-118575000D01*
X121100000Y-115575000D02*
X121100000Y-115925000D01*
X120750000Y-115575000D02*
X121100000Y-115575000D01*
X118100000Y-115925000D02*
X118450000Y-115575000D01*
X115174307Y-135525693D02*
X115524307Y-135875693D01*
X115524307Y-138175693D02*
X115524307Y-138525693D01*
X115524307Y-138525693D02*
X115174307Y-138525693D01*
X112524307Y-138175693D02*
X112524307Y-138525693D01*
X112524307Y-138525693D02*
X112874307Y-138525693D01*
X112524307Y-135875693D02*
X112524307Y-135525693D01*
X112524307Y-135525693D02*
X112874307Y-135525693D01*
X114374307Y-134950693D02*
X114374307Y-133500693D01*
X114974307Y-134950693D02*
X114374307Y-134950693D01*
X114974307Y-133500693D02*
X114974307Y-134950693D01*
X114374307Y-133500693D02*
X114974307Y-133500693D01*
X132450000Y-130800000D02*
X132450000Y-130900000D01*
X130850000Y-130900000D02*
X130850000Y-130800000D01*
X130850000Y-129400000D02*
X130850000Y-129300000D01*
X132450000Y-129300000D02*
X132450000Y-129400000D01*
X130850000Y-130900000D02*
X132450000Y-130900000D01*
X130850000Y-129300000D02*
X132450000Y-129300000D01*
X132450000Y-125940000D02*
X132450000Y-126040000D01*
X130850000Y-126040000D02*
X130850000Y-125940000D01*
X130850000Y-124540000D02*
X130850000Y-124440000D01*
X132450000Y-124440000D02*
X132450000Y-124540000D01*
X130850000Y-126040000D02*
X132450000Y-126040000D01*
X130850000Y-124440000D02*
X132450000Y-124440000D01*
X130850000Y-119640000D02*
X132450000Y-119640000D01*
X130850000Y-121240000D02*
X132450000Y-121240000D01*
X132450000Y-119640000D02*
X132450000Y-119740000D01*
X130850000Y-119740000D02*
X130850000Y-119640000D01*
X130850000Y-121240000D02*
X130850000Y-121140000D01*
X132450000Y-121140000D02*
X132450000Y-121240000D01*
X130850000Y-114800000D02*
X132450000Y-114800000D01*
X130850000Y-116400000D02*
X132450000Y-116400000D01*
X132450000Y-114800000D02*
X132450000Y-114900000D01*
X130850000Y-114900000D02*
X130850000Y-114800000D01*
X130850000Y-116400000D02*
X130850000Y-116300000D01*
X132450000Y-116300000D02*
X132450000Y-116400000D01*
X136475000Y-134625000D02*
X136725000Y-134625000D01*
X136725000Y-134625000D02*
X136725000Y-135725000D01*
X136725000Y-135725000D02*
X136475000Y-135725000D01*
X136475000Y-135725000D02*
X136475000Y-134625000D01*
%LPC*%
D16*
X72225000Y-81200000D03*
X72725000Y-81200000D03*
X73225000Y-81200000D03*
X73725000Y-81200000D03*
X74225000Y-81200000D03*
X74725000Y-81200000D03*
X75225000Y-81200000D03*
X75725000Y-81200000D03*
X76225000Y-81200000D03*
X76725000Y-81200000D03*
X77225000Y-81200000D03*
X77725000Y-81200000D03*
X78225000Y-81200000D03*
X78725000Y-81200000D03*
X79225000Y-81200000D03*
X79725000Y-81200000D03*
D17*
X81675000Y-79250000D03*
X81675000Y-78750000D03*
X81675000Y-78250000D03*
X81675000Y-77750000D03*
X81675000Y-77250000D03*
X81675000Y-76750000D03*
X81675000Y-76250000D03*
X81675000Y-75750000D03*
X81675000Y-75250000D03*
X81675000Y-74750000D03*
X81675000Y-74250000D03*
X81675000Y-73750000D03*
X81675000Y-73250000D03*
X81675000Y-72750000D03*
X81675000Y-72250000D03*
X81675000Y-71750000D03*
D16*
X79725000Y-69800000D03*
X79225000Y-69800000D03*
X78725000Y-69800000D03*
X78225000Y-69800000D03*
X77725000Y-69800000D03*
X77225000Y-69800000D03*
X76725000Y-69800000D03*
X76225000Y-69800000D03*
X75725000Y-69800000D03*
X75225000Y-69800000D03*
X74725000Y-69800000D03*
X74225000Y-69800000D03*
X73725000Y-69800000D03*
X73225000Y-69800000D03*
X72725000Y-69800000D03*
X72225000Y-69800000D03*
D17*
X70275000Y-71750000D03*
X70275000Y-72250000D03*
X70275000Y-72750000D03*
X70275000Y-73250000D03*
X70275000Y-73750000D03*
X70275000Y-74250000D03*
X70275000Y-74750000D03*
X70275000Y-75250000D03*
X70275000Y-75750000D03*
X70275000Y-76250000D03*
X70275000Y-76750000D03*
X70275000Y-77250000D03*
X70275000Y-77750000D03*
X70275000Y-78250000D03*
X70275000Y-78750000D03*
X70275000Y-79250000D03*
D18*
X79150000Y-60550000D03*
X78500000Y-60550000D03*
X77850000Y-60550000D03*
X77850000Y-62750000D03*
X78500000Y-62750000D03*
X79150000Y-62750000D03*
D19*
X64750000Y-65800000D03*
X63850000Y-65800000D03*
X88400000Y-61575000D03*
X88400000Y-62475000D03*
X67200000Y-88250000D03*
X66300000Y-88250000D03*
D20*
X62050000Y-84575000D03*
D21*
X63525000Y-86100000D03*
X60575000Y-86100000D03*
D19*
X83300000Y-71600000D03*
X83300000Y-70700000D03*
X81870000Y-86660000D03*
X81870000Y-87560000D03*
D22*
X58285000Y-69285000D03*
X61715000Y-69285000D03*
X58285000Y-70555000D03*
X61715000Y-70555000D03*
X58285000Y-71825000D03*
X61715000Y-71825000D03*
X58285000Y-73095000D03*
X61715000Y-73095000D03*
X58285000Y-74365000D03*
X61715000Y-74365000D03*
X58285000Y-75635000D03*
X61715000Y-75635000D03*
X58285000Y-76905000D03*
X61715000Y-76905000D03*
X58285000Y-78175000D03*
X61715000Y-78175000D03*
X58285000Y-79445000D03*
X61715000Y-79445000D03*
X58285000Y-80715000D03*
X61715000Y-80715000D03*
D19*
X83300000Y-81450000D03*
X83300000Y-80550000D03*
X84200000Y-69450000D03*
X83300000Y-69450000D03*
X68600000Y-81650000D03*
X68600000Y-80750000D03*
X75250000Y-82800000D03*
X76150000Y-82800000D03*
X83300000Y-79450000D03*
X83300000Y-78550000D03*
X77350000Y-82800000D03*
X78250000Y-82800000D03*
X68700000Y-70150000D03*
X68700000Y-69250000D03*
X72400000Y-68150000D03*
X71500000Y-68150000D03*
X68600000Y-78550000D03*
X68600000Y-79450000D03*
D23*
X88235770Y-87812836D03*
D15*
G36*
X88313468Y-88498101D02*
X87547424Y-87855313D01*
X88158072Y-87127571D01*
X88924116Y-87770359D01*
X88313468Y-88498101D01*
X88313468Y-88498101D01*
G37*
D23*
X89264230Y-86587164D03*
D15*
G36*
X89341928Y-87272429D02*
X88575884Y-86629641D01*
X89186532Y-85901899D01*
X89952576Y-86544687D01*
X89341928Y-87272429D01*
X89341928Y-87272429D01*
G37*
D23*
X86155322Y-89541139D03*
D15*
G36*
X86257631Y-88859114D02*
X86831207Y-89678266D01*
X86053013Y-90223164D01*
X85479437Y-89404012D01*
X86257631Y-88859114D01*
X86257631Y-88859114D01*
G37*
D23*
X84844678Y-90458861D03*
D15*
G36*
X84946987Y-89776836D02*
X85520563Y-90595988D01*
X84742369Y-91140886D01*
X84168793Y-90321734D01*
X84946987Y-89776836D01*
X84946987Y-89776836D01*
G37*
D24*
X67375000Y-79925000D03*
X67375000Y-79275000D03*
X67375000Y-78625000D03*
X67375000Y-77975000D03*
X64275000Y-77975000D03*
X64275000Y-78625000D03*
X64275000Y-79275000D03*
X64275000Y-79925000D03*
D25*
X65825000Y-79550000D03*
X65825000Y-78350000D03*
D26*
X69750000Y-63850000D03*
X69750000Y-64350000D03*
X69750000Y-64850000D03*
X69750000Y-65350000D03*
X69750000Y-65850000D03*
D27*
X70750000Y-66850000D03*
X71250000Y-66850000D03*
X71750000Y-66850000D03*
X72250000Y-66850000D03*
X72750000Y-66850000D03*
D26*
X73750000Y-65850000D03*
X73750000Y-65350000D03*
X73750000Y-64850000D03*
X73750000Y-64350000D03*
X73750000Y-63850000D03*
D27*
X72750000Y-62850000D03*
X72250000Y-62850000D03*
X71750000Y-62850000D03*
X71250000Y-62850000D03*
X70750000Y-62850000D03*
D28*
X71750000Y-64850000D03*
D29*
X60000000Y-82305000D03*
X60000000Y-67695000D03*
D22*
X88285000Y-69285000D03*
X91715000Y-69285000D03*
X88285000Y-70555000D03*
X91715000Y-70555000D03*
X88285000Y-71825000D03*
X91715000Y-71825000D03*
X88285000Y-73095000D03*
X91715000Y-73095000D03*
X88285000Y-74365000D03*
X91715000Y-74365000D03*
X88285000Y-75635000D03*
X91715000Y-75635000D03*
X88285000Y-76905000D03*
X91715000Y-76905000D03*
X88285000Y-78175000D03*
X91715000Y-78175000D03*
X88285000Y-79445000D03*
X91715000Y-79445000D03*
X88285000Y-80715000D03*
X91715000Y-80715000D03*
D29*
X90000000Y-82305000D03*
X90000000Y-67695000D03*
D19*
X85900000Y-84250000D03*
X85900000Y-85150000D03*
X84500000Y-84250000D03*
X84500000Y-85150000D03*
X69400000Y-68150000D03*
X70300000Y-68150000D03*
X66300000Y-69250000D03*
X66300000Y-70150000D03*
X66000000Y-63650000D03*
X66000000Y-64550000D03*
X68500000Y-67050000D03*
X67600000Y-67050000D03*
X67750000Y-65800000D03*
X66850000Y-65800000D03*
X64800000Y-62450000D03*
X63900000Y-62450000D03*
D30*
X66900000Y-68100000D03*
X68300000Y-68100000D03*
X66450000Y-67000000D03*
X65050000Y-67000000D03*
D19*
X68500000Y-88950000D03*
X68500000Y-89850000D03*
X64400000Y-87900000D03*
X64400000Y-88800000D03*
X88275000Y-63450000D03*
X89175000Y-63450000D03*
X83300000Y-64700000D03*
X84200000Y-64700000D03*
X65250000Y-84400000D03*
X65250000Y-85300000D03*
X66950000Y-60800000D03*
X66950000Y-59900000D03*
D31*
X65335000Y-89600000D03*
X65335000Y-90250000D03*
X65335000Y-90900000D03*
X67165000Y-90900000D03*
X67165000Y-90250000D03*
X67165000Y-89600000D03*
D32*
X66250000Y-90250000D03*
D33*
X66400000Y-85000000D03*
X66400000Y-84200000D03*
X68100000Y-85000000D03*
X67300000Y-85000000D03*
X68100000Y-86700000D03*
X68100000Y-85900000D03*
D34*
X65200000Y-86800000D03*
X66800000Y-86800000D03*
D19*
X63400000Y-87900000D03*
X63400000Y-88800000D03*
D20*
X70200000Y-60900000D03*
D21*
X68725000Y-59375000D03*
X71675000Y-59375000D03*
D19*
X90850000Y-64800000D03*
X90850000Y-65700000D03*
D35*
X89450000Y-65650000D03*
X89450000Y-65000000D03*
X89450000Y-64350000D03*
X87250000Y-64350000D03*
X87250000Y-65650000D03*
D19*
X79650000Y-65250000D03*
X79650000Y-66150000D03*
X79050000Y-64250000D03*
X78150000Y-64250000D03*
X81850000Y-64700000D03*
X80950000Y-64700000D03*
D36*
X83550000Y-63250000D03*
X83550000Y-62300000D03*
X83550000Y-61350000D03*
X80950000Y-61350000D03*
X80950000Y-63250000D03*
D37*
X81100000Y-66050000D03*
X81100000Y-66550000D03*
X81100000Y-67050000D03*
X81100000Y-67550000D03*
X81100000Y-68050000D03*
X85500000Y-68050000D03*
X85500000Y-67550000D03*
X85500000Y-67050000D03*
X85500000Y-66550000D03*
X85500000Y-66050000D03*
D38*
X78150000Y-67000000D03*
X78150000Y-66600000D03*
X78150000Y-66200000D03*
X78150000Y-65800000D03*
X78150000Y-65400000D03*
X76950000Y-65400000D03*
X76950000Y-65800000D03*
X76950000Y-66200000D03*
X76950000Y-66600000D03*
X76950000Y-67000000D03*
D39*
X79900000Y-93075000D03*
X79900000Y-91975000D03*
X79900000Y-90875000D03*
X79900000Y-89775000D03*
X79900000Y-88675000D03*
X79900000Y-87575000D03*
X79900000Y-86475000D03*
X79900000Y-85375000D03*
X79900000Y-84275000D03*
X70400000Y-84275000D03*
X70400000Y-85375000D03*
X70400000Y-86475000D03*
X70400000Y-87575000D03*
X70400000Y-88675000D03*
X70400000Y-89775000D03*
X70400000Y-90875000D03*
X70400000Y-91975000D03*
X70400000Y-93075000D03*
D19*
X82700000Y-59850000D03*
X81800000Y-59850000D03*
D40*
X87150000Y-61300000D03*
X87150000Y-62700000D03*
X85050000Y-61300000D03*
X85050000Y-62700000D03*
D19*
X67500000Y-69250000D03*
X67500000Y-70150000D03*
X68400000Y-64550000D03*
X68400000Y-63650000D03*
X67200000Y-64550000D03*
X67200000Y-63650000D03*
X64800000Y-63650000D03*
X64800000Y-64550000D03*
X75625000Y-62125000D03*
X75625000Y-61225000D03*
X74525000Y-60800000D03*
X74525000Y-61700000D03*
X65100000Y-69250000D03*
X65100000Y-70150000D03*
D29*
X132250000Y-82200000D03*
D41*
X133750000Y-80500000D03*
X135750000Y-80500000D03*
X127250000Y-69500000D03*
X129250000Y-69500000D03*
D29*
X130750000Y-67800000D03*
X137250000Y-67800000D03*
D41*
X135750000Y-69500000D03*
X133750000Y-69500000D03*
D29*
X125750000Y-82200000D03*
D41*
X127250000Y-80500000D03*
X129250000Y-80500000D03*
X122750000Y-80500000D03*
X120750000Y-80500000D03*
D29*
X119250000Y-82200000D03*
X112750000Y-82200000D03*
D41*
X114250000Y-80500000D03*
X116250000Y-80500000D03*
X114250000Y-69500000D03*
X116250000Y-69500000D03*
D29*
X117750000Y-67800000D03*
X124250000Y-67800000D03*
D41*
X122750000Y-69500000D03*
X120750000Y-69500000D03*
D29*
X140000000Y-67695000D03*
X140000000Y-82305000D03*
X110000000Y-82305000D03*
X110000000Y-67695000D03*
D42*
X75080000Y-134695000D03*
X75080000Y-135995000D03*
X75080000Y-137295000D03*
X75080000Y-138595000D03*
X75080000Y-139895000D03*
X76380000Y-134695000D03*
X76380000Y-135995000D03*
X76380000Y-137295000D03*
X76380000Y-138595000D03*
X76380000Y-139895000D03*
X77680000Y-134695000D03*
X77680000Y-135995000D03*
X77680000Y-137295000D03*
X77680000Y-138595000D03*
X77680000Y-139895000D03*
X78980000Y-134695000D03*
X78980000Y-135995000D03*
X78980000Y-137295000D03*
X78980000Y-138595000D03*
X78980000Y-139895000D03*
X80280000Y-134695000D03*
X80280000Y-135995000D03*
X80280000Y-137295000D03*
X80280000Y-138595000D03*
X80280000Y-139895000D03*
D43*
X81430000Y-141695000D03*
X80930000Y-141695000D03*
X80430000Y-141695000D03*
X79930000Y-141695000D03*
X79430000Y-141695000D03*
X78930000Y-141695000D03*
X78430000Y-141695000D03*
X77930000Y-141695000D03*
X77430000Y-141695000D03*
X76930000Y-141695000D03*
X76430000Y-141695000D03*
X75930000Y-141695000D03*
X75430000Y-141695000D03*
X74930000Y-141695000D03*
X74430000Y-141695000D03*
X73930000Y-141695000D03*
D44*
X73280000Y-141045000D03*
X73280000Y-140545000D03*
X73280000Y-140045000D03*
X73280000Y-139545000D03*
X73280000Y-139045000D03*
X73280000Y-138545000D03*
X73280000Y-138045000D03*
X73280000Y-137545000D03*
X73280000Y-137045000D03*
X73280000Y-136545000D03*
X73280000Y-136045000D03*
X73280000Y-135545000D03*
X73280000Y-135045000D03*
X73280000Y-134545000D03*
X73280000Y-134045000D03*
X73280000Y-133545000D03*
D43*
X73930000Y-132895000D03*
X74430000Y-132895000D03*
X74930000Y-132895000D03*
X75430000Y-132895000D03*
X75930000Y-132895000D03*
X76430000Y-132895000D03*
X76930000Y-132895000D03*
X77430000Y-132895000D03*
X77930000Y-132895000D03*
X78430000Y-132895000D03*
X78930000Y-132895000D03*
X79430000Y-132895000D03*
X79930000Y-132895000D03*
X80430000Y-132895000D03*
X80930000Y-132895000D03*
X81430000Y-132895000D03*
D44*
X82080000Y-133545000D03*
X82080000Y-134045000D03*
X82080000Y-134545000D03*
X82080000Y-135045000D03*
X82080000Y-135545000D03*
X82080000Y-136045000D03*
X82080000Y-136545000D03*
X82080000Y-137045000D03*
X82080000Y-137545000D03*
X82080000Y-138045000D03*
X82080000Y-138545000D03*
X82080000Y-139045000D03*
X82080000Y-139545000D03*
X82080000Y-140045000D03*
X82080000Y-140545000D03*
X82080000Y-141045000D03*
D42*
X77250000Y-118240000D03*
X77250000Y-119540000D03*
X77250000Y-120840000D03*
X77250000Y-122140000D03*
X77250000Y-123440000D03*
X78550000Y-118240000D03*
X78550000Y-119540000D03*
X78550000Y-120840000D03*
X78550000Y-122140000D03*
X78550000Y-123440000D03*
X79850000Y-118240000D03*
X79850000Y-119540000D03*
X79850000Y-120840000D03*
X79850000Y-122140000D03*
X79850000Y-123440000D03*
X81150000Y-118240000D03*
X81150000Y-119540000D03*
X81150000Y-120840000D03*
X81150000Y-122140000D03*
X81150000Y-123440000D03*
X82450000Y-118240000D03*
X82450000Y-119540000D03*
X82450000Y-120840000D03*
X82450000Y-122140000D03*
X82450000Y-123440000D03*
D43*
X83600000Y-125240000D03*
X83100000Y-125240000D03*
X82600000Y-125240000D03*
X82100000Y-125240000D03*
X81600000Y-125240000D03*
X81100000Y-125240000D03*
X80600000Y-125240000D03*
X80100000Y-125240000D03*
X79600000Y-125240000D03*
X79100000Y-125240000D03*
X78600000Y-125240000D03*
X78100000Y-125240000D03*
X77600000Y-125240000D03*
X77100000Y-125240000D03*
X76600000Y-125240000D03*
X76100000Y-125240000D03*
D44*
X75450000Y-124590000D03*
X75450000Y-124090000D03*
X75450000Y-123590000D03*
X75450000Y-123090000D03*
X75450000Y-122590000D03*
X75450000Y-122090000D03*
X75450000Y-121590000D03*
X75450000Y-121090000D03*
X75450000Y-120590000D03*
X75450000Y-120090000D03*
X75450000Y-119590000D03*
X75450000Y-119090000D03*
X75450000Y-118590000D03*
X75450000Y-118090000D03*
X75450000Y-117590000D03*
X75450000Y-117090000D03*
D43*
X76100000Y-116440000D03*
X76600000Y-116440000D03*
X77100000Y-116440000D03*
X77600000Y-116440000D03*
X78100000Y-116440000D03*
X78600000Y-116440000D03*
X79100000Y-116440000D03*
X79600000Y-116440000D03*
X80100000Y-116440000D03*
X80600000Y-116440000D03*
X81100000Y-116440000D03*
X81600000Y-116440000D03*
X82100000Y-116440000D03*
X82600000Y-116440000D03*
X83100000Y-116440000D03*
X83600000Y-116440000D03*
D44*
X84250000Y-117090000D03*
X84250000Y-117590000D03*
X84250000Y-118090000D03*
X84250000Y-118590000D03*
X84250000Y-119090000D03*
X84250000Y-119590000D03*
X84250000Y-120090000D03*
X84250000Y-120590000D03*
X84250000Y-121090000D03*
X84250000Y-121590000D03*
X84250000Y-122090000D03*
X84250000Y-122590000D03*
X84250000Y-123090000D03*
X84250000Y-123590000D03*
X84250000Y-124090000D03*
X84250000Y-124590000D03*
D45*
X69850000Y-130150000D03*
X69850000Y-130650000D03*
X69850000Y-131150000D03*
D46*
X69210000Y-131150000D03*
D47*
X69150000Y-130440000D03*
D45*
X68450000Y-130150000D03*
X68450000Y-130650000D03*
X68450000Y-131150000D03*
X69850000Y-116800000D03*
X69850000Y-117300000D03*
X69850000Y-117800000D03*
D46*
X69210000Y-117800000D03*
D47*
X69150000Y-117090000D03*
D45*
X68450000Y-116800000D03*
X68450000Y-117300000D03*
X68450000Y-117800000D03*
D48*
X61190000Y-114250000D03*
X63560000Y-114250000D03*
D49*
X72460000Y-111215000D03*
X72460000Y-107785000D03*
X73730000Y-111215000D03*
X73730000Y-107785000D03*
X75000000Y-111215000D03*
X75000000Y-107785000D03*
X76270000Y-111215000D03*
X76270000Y-107785000D03*
X77540000Y-111215000D03*
X77540000Y-107785000D03*
D29*
X90000000Y-132305000D03*
X90000000Y-117695000D03*
D22*
X88285000Y-119285000D03*
X91715000Y-119285000D03*
X88285000Y-120555000D03*
X91715000Y-120555000D03*
X88285000Y-121825000D03*
X91715000Y-121825000D03*
X88285000Y-123095000D03*
X91715000Y-123095000D03*
X88285000Y-124365000D03*
X91715000Y-124365000D03*
X88285000Y-125635000D03*
X91715000Y-125635000D03*
X88285000Y-126905000D03*
X91715000Y-126905000D03*
X88285000Y-128175000D03*
X91715000Y-128175000D03*
X88285000Y-129445000D03*
X91715000Y-129445000D03*
X88285000Y-130715000D03*
X91715000Y-130715000D03*
D29*
X60000000Y-132305000D03*
X60000000Y-117695000D03*
D22*
X58285000Y-119285000D03*
X61715000Y-119285000D03*
X58285000Y-120555000D03*
X61715000Y-120555000D03*
X58285000Y-121825000D03*
X61715000Y-121825000D03*
X58285000Y-123095000D03*
X61715000Y-123095000D03*
X58285000Y-124365000D03*
X61715000Y-124365000D03*
X58285000Y-125635000D03*
X61715000Y-125635000D03*
X58285000Y-126905000D03*
X61715000Y-126905000D03*
X58285000Y-128175000D03*
X61715000Y-128175000D03*
X58285000Y-129445000D03*
X61715000Y-129445000D03*
X58285000Y-130715000D03*
X61715000Y-130715000D03*
D29*
X79130000Y-109500000D03*
X70870000Y-109500000D03*
D19*
X83075000Y-136325000D03*
X83075000Y-135425000D03*
X74950000Y-142850000D03*
X75850000Y-142850000D03*
X83075000Y-133550000D03*
X83075000Y-134450000D03*
X72225000Y-136875000D03*
X72225000Y-135975000D03*
X77225000Y-131675000D03*
X77225000Y-130775000D03*
X72325000Y-133775000D03*
X72325000Y-132875000D03*
X79075000Y-130775000D03*
X79075000Y-131675000D03*
X72525000Y-131925000D03*
X73425000Y-131925000D03*
X80000000Y-130775000D03*
X80000000Y-131675000D03*
X78150000Y-130775000D03*
X78150000Y-131675000D03*
X76300000Y-130775000D03*
X76300000Y-131675000D03*
X65975000Y-118050000D03*
X65075000Y-118050000D03*
X65975000Y-122500000D03*
X65075000Y-122500000D03*
X65975000Y-126950000D03*
X65075000Y-126950000D03*
X65975000Y-131400000D03*
X65075000Y-131400000D03*
X65075000Y-117125000D03*
X65975000Y-117125000D03*
X65075000Y-121575000D03*
X65975000Y-121575000D03*
X65075000Y-126025000D03*
X65975000Y-126025000D03*
X65075000Y-130475000D03*
X65975000Y-130475000D03*
D50*
X66375000Y-115279000D03*
D51*
X66375000Y-114452500D03*
X66375000Y-116297500D03*
X65725000Y-114452500D03*
X65075000Y-114452500D03*
X65075000Y-116297500D03*
D52*
X65400000Y-115375000D03*
D51*
X65725000Y-116297500D03*
D53*
X67525000Y-114450000D03*
X67525000Y-116050000D03*
X67525000Y-118900000D03*
X67525000Y-120500000D03*
X67525000Y-124950000D03*
X67525000Y-123350000D03*
X67525000Y-129400000D03*
X67525000Y-127800000D03*
D50*
X66375000Y-119725000D03*
D51*
X66375000Y-118898500D03*
X66375000Y-120743500D03*
X65725000Y-118898500D03*
X65075000Y-118898500D03*
X65075000Y-120743500D03*
D52*
X65400000Y-119821000D03*
D51*
X65725000Y-120743500D03*
X65725000Y-125193500D03*
D52*
X65400000Y-124271000D03*
D51*
X65075000Y-125193500D03*
X65075000Y-123348500D03*
X65725000Y-123348500D03*
X66375000Y-125193500D03*
X66375000Y-123348500D03*
D50*
X66375000Y-124175000D03*
X66375000Y-128629000D03*
D51*
X66375000Y-127802500D03*
X66375000Y-129647500D03*
X65725000Y-127802500D03*
X65075000Y-127802500D03*
X65075000Y-129647500D03*
D52*
X65400000Y-128725000D03*
D51*
X65725000Y-129647500D03*
D54*
X66484323Y-108555356D03*
D15*
G36*
X66269594Y-109455435D02*
X65656798Y-108141288D01*
X66699052Y-107655277D01*
X67311848Y-108969424D01*
X66269594Y-109455435D01*
X66269594Y-109455435D01*
G37*
D54*
X68115677Y-107794644D03*
D15*
G36*
X67900948Y-108694723D02*
X67288152Y-107380576D01*
X68330406Y-106894565D01*
X68943202Y-108208712D01*
X67900948Y-108694723D01*
X67900948Y-108694723D01*
G37*
D19*
X69150000Y-109400000D03*
X68250000Y-109400000D03*
X69320000Y-111250000D03*
X69320000Y-112150000D03*
D54*
X64389440Y-109881491D03*
D15*
G36*
X64414985Y-110806476D02*
X63482943Y-109695712D01*
X64363895Y-108956506D01*
X65295937Y-110067270D01*
X64414985Y-110806476D01*
X64414985Y-110806476D01*
G37*
D54*
X63010560Y-111038509D03*
D15*
G36*
X63036105Y-111963494D02*
X62104063Y-110852730D01*
X62985015Y-110113524D01*
X63917057Y-111224288D01*
X63036105Y-111963494D01*
X63036105Y-111963494D01*
G37*
D19*
X77825000Y-126375000D03*
X76925000Y-126375000D03*
X85250000Y-117500000D03*
X85250000Y-118400000D03*
D55*
X66249999Y-113149999D03*
X66750000Y-113149999D03*
X67250000Y-113149999D03*
X67750001Y-113149999D03*
D56*
X68400000Y-112500000D03*
X68400000Y-111999999D03*
X68400000Y-111499999D03*
X68400000Y-110999998D03*
D55*
X67750001Y-110349999D03*
X67250000Y-110349999D03*
X66750000Y-110349999D03*
X66249999Y-110349999D03*
D56*
X65600000Y-110999998D03*
X65600000Y-111499999D03*
X65600000Y-111999999D03*
X65600000Y-112500000D03*
D57*
X67000000Y-111749999D03*
D19*
X80925000Y-130775000D03*
X80925000Y-131675000D03*
X85250000Y-119375000D03*
X85250000Y-120275000D03*
X74450000Y-119650000D03*
X74450000Y-120550000D03*
D51*
X65725000Y-134470000D03*
D52*
X65400000Y-133547500D03*
D51*
X65075000Y-134470000D03*
X65075000Y-132625000D03*
X65725000Y-132625000D03*
X66375000Y-134470000D03*
X66375000Y-132625000D03*
D50*
X66375000Y-133451500D03*
D51*
X65725000Y-139297500D03*
D52*
X65400000Y-138375000D03*
D51*
X65075000Y-139297500D03*
X65075000Y-137452500D03*
X65725000Y-137452500D03*
X66375000Y-139297500D03*
X66375000Y-137452500D03*
D50*
X66375000Y-138279000D03*
D19*
X79425000Y-114325000D03*
X79425000Y-115225000D03*
X73550000Y-117350000D03*
X74450000Y-117350000D03*
X81275000Y-114325000D03*
X81275000Y-115225000D03*
X73550000Y-116425000D03*
X74450000Y-116425000D03*
X82200000Y-114325000D03*
X82200000Y-115225000D03*
X83125000Y-114325000D03*
X83125000Y-115225000D03*
X80350000Y-115225000D03*
X80350000Y-114325000D03*
X78500000Y-115225000D03*
X78500000Y-114325000D03*
X65075000Y-136225000D03*
X65975000Y-136225000D03*
X65075000Y-135300000D03*
X65975000Y-135300000D03*
D53*
X67525000Y-132625000D03*
X67525000Y-134225000D03*
D19*
X65975000Y-141050000D03*
X65075000Y-141050000D03*
X65975000Y-140125000D03*
X65075000Y-140125000D03*
D53*
X67525000Y-137450000D03*
X67525000Y-139050000D03*
D45*
X68450000Y-122285000D03*
X68450000Y-121785000D03*
X68450000Y-121285000D03*
D47*
X69150000Y-121575000D03*
D46*
X69210000Y-122285000D03*
D45*
X69850000Y-122285000D03*
X69850000Y-121785000D03*
X69850000Y-121285000D03*
X68450000Y-126725000D03*
X68450000Y-126225000D03*
X68450000Y-125725000D03*
D47*
X69150000Y-126015000D03*
D46*
X69210000Y-126725000D03*
D45*
X69850000Y-126725000D03*
X69850000Y-126225000D03*
X69850000Y-125725000D03*
X68450000Y-136000000D03*
X68450000Y-135500000D03*
X68450000Y-135000000D03*
D47*
X69150000Y-135290000D03*
D46*
X69210000Y-136000000D03*
D45*
X69850000Y-136000000D03*
X69850000Y-135500000D03*
X69850000Y-135000000D03*
X69850000Y-139850000D03*
X69850000Y-140350000D03*
X69850000Y-140850000D03*
D46*
X69210000Y-140850000D03*
D47*
X69150000Y-140140000D03*
D45*
X68450000Y-139850000D03*
X68450000Y-140350000D03*
X68450000Y-140850000D03*
D19*
X68675000Y-118550000D03*
X69575000Y-118550000D03*
X69575000Y-123025000D03*
X68675000Y-123025000D03*
X68675000Y-127475000D03*
X69575000Y-127475000D03*
X70125000Y-131875000D03*
X69225000Y-131875000D03*
X68675000Y-136875000D03*
X69575000Y-136875000D03*
X69600000Y-141775000D03*
X68700000Y-141775000D03*
D58*
X62350000Y-137575000D03*
X62350000Y-135775000D03*
D59*
X88950000Y-115475000D03*
X87425000Y-113825000D03*
X85825000Y-112425000D03*
X81250000Y-111775000D03*
D60*
X180621999Y-85990000D03*
X180622000Y-85490000D03*
X180621999Y-84990000D03*
X179182001Y-84990000D03*
X179182000Y-85490000D03*
X179182001Y-85990000D03*
D61*
X183011735Y-87023281D03*
D15*
G36*
X183239143Y-87689547D02*
X182458074Y-86588443D01*
X182784327Y-86357015D01*
X183565396Y-87458119D01*
X183239143Y-87689547D01*
X183239143Y-87689547D01*
G37*
D61*
X183541897Y-86647211D03*
D15*
G36*
X183769305Y-87313477D02*
X182988236Y-86212373D01*
X183314489Y-85980945D01*
X184095558Y-87082049D01*
X183769305Y-87313477D01*
X183769305Y-87313477D01*
G37*
D61*
X182481574Y-87399352D03*
D15*
G36*
X182708982Y-88065618D02*
X181927913Y-86964514D01*
X182254166Y-86733086D01*
X183035235Y-87834190D01*
X182708982Y-88065618D01*
X182708982Y-88065618D01*
G37*
D61*
X181951412Y-87775422D03*
D15*
G36*
X182178820Y-88441688D02*
X181397751Y-87340584D01*
X181724004Y-87109156D01*
X182505073Y-88210260D01*
X182178820Y-88441688D01*
X182178820Y-88441688D01*
G37*
D61*
X184072058Y-86271141D03*
D15*
G36*
X184299466Y-86937407D02*
X183518397Y-85836303D01*
X183844650Y-85604875D01*
X184625719Y-86705979D01*
X184299466Y-86937407D01*
X184299466Y-86937407D01*
G37*
D59*
X184638484Y-85470884D03*
D62*
X184566163Y-85368930D02*
X184710805Y-85572838D01*
D59*
X181008917Y-88045518D03*
D62*
X180936596Y-87943564D02*
X181081238Y-88147472D01*
D63*
X185497387Y-88539745D03*
D15*
G36*
X185312958Y-89835309D02*
X184213676Y-88285606D01*
X185681816Y-87244181D01*
X186781098Y-88793884D01*
X185312958Y-89835309D01*
X185312958Y-89835309D01*
G37*
D63*
X183621431Y-89870455D03*
D15*
G36*
X183437002Y-91166019D02*
X182337720Y-89616316D01*
X183805860Y-88574891D01*
X184905142Y-90124594D01*
X183437002Y-91166019D01*
X183437002Y-91166019D01*
G37*
D64*
X187322366Y-87245195D03*
D15*
G36*
X187229696Y-88475670D02*
X186130414Y-86925967D01*
X187415036Y-86014720D01*
X188514318Y-87564423D01*
X187229696Y-88475670D01*
X187229696Y-88475670D01*
G37*
D59*
X187964677Y-86789572D03*
D62*
X187704321Y-86422537D02*
X188225033Y-87156607D01*
D64*
X181796452Y-91165005D03*
D15*
G36*
X181703782Y-92395480D02*
X180604500Y-90845777D01*
X181889122Y-89934530D01*
X182988404Y-91484233D01*
X181703782Y-92395480D01*
X181703782Y-92395480D01*
G37*
D59*
X181154141Y-91620628D03*
D62*
X180893785Y-91253593D02*
X181414497Y-91987663D01*
D36*
X184150000Y-78575000D03*
X184150000Y-77325000D03*
X184150000Y-76075000D03*
X184150000Y-74825000D03*
X181950000Y-74825000D03*
X181950000Y-76075000D03*
X181950000Y-77325000D03*
X181950000Y-78575000D03*
D19*
X166750000Y-80800000D03*
X166750000Y-81700000D03*
D22*
X158285000Y-69285000D03*
X161715000Y-69285000D03*
X158285000Y-70555000D03*
X161715000Y-70555000D03*
X158285000Y-71825000D03*
X161715000Y-71825000D03*
X158285000Y-73095000D03*
X161715000Y-73095000D03*
X158285000Y-74365000D03*
X161715000Y-74365000D03*
X158285000Y-75635000D03*
X161715000Y-75635000D03*
X158285000Y-76905000D03*
X161715000Y-76905000D03*
X158285000Y-78175000D03*
X161715000Y-78175000D03*
X158285000Y-79445000D03*
X161715000Y-79445000D03*
X158285000Y-80715000D03*
X161715000Y-80715000D03*
D16*
X170250000Y-83200000D03*
X170750000Y-83200000D03*
X171250000Y-83200000D03*
X171750000Y-83200000D03*
X172250000Y-83200000D03*
X172750000Y-83200000D03*
X173250000Y-83200000D03*
X173750000Y-83200000D03*
X174250000Y-83200000D03*
X174750000Y-83200000D03*
X175250000Y-83200000D03*
X175750000Y-83200000D03*
X176250000Y-83200000D03*
X176750000Y-83200000D03*
X177250000Y-83200000D03*
X177750000Y-83200000D03*
D17*
X179700000Y-81250000D03*
X179700000Y-80750000D03*
X179700000Y-80250000D03*
X179700000Y-79750000D03*
X179700000Y-79250000D03*
X179700000Y-78750000D03*
X179700000Y-78250000D03*
X179700000Y-77750000D03*
X179700000Y-77250000D03*
X179700000Y-76750000D03*
X179700000Y-76250000D03*
X179700000Y-75750000D03*
X179700000Y-75250000D03*
X179700000Y-74750000D03*
X179700000Y-74250000D03*
X179700000Y-73750000D03*
D16*
X177750000Y-71800000D03*
X177250000Y-71800000D03*
X176750000Y-71800000D03*
X176250000Y-71800000D03*
X175750000Y-71800000D03*
X175250000Y-71800000D03*
X174750000Y-71800000D03*
X174250000Y-71800000D03*
X173750000Y-71800000D03*
X173250000Y-71800000D03*
X172750000Y-71800000D03*
X172250000Y-71800000D03*
X171750000Y-71800000D03*
X171250000Y-71800000D03*
X170750000Y-71800000D03*
X170250000Y-71800000D03*
D17*
X168300000Y-73750000D03*
X168300000Y-74250000D03*
X168300000Y-74750000D03*
X168300000Y-75250000D03*
X168300000Y-75750000D03*
X168300000Y-76250000D03*
X168300000Y-76750000D03*
X168300000Y-77250000D03*
X168300000Y-77750000D03*
X168300000Y-78250000D03*
X168300000Y-78750000D03*
X168300000Y-79250000D03*
X168300000Y-79750000D03*
X168300000Y-80250000D03*
X168300000Y-80750000D03*
X168300000Y-81250000D03*
D53*
X166310000Y-61770000D03*
X166310000Y-63370000D03*
D29*
X190000000Y-82305000D03*
X190000000Y-67695000D03*
D19*
X172550000Y-91200000D03*
X173450000Y-91200000D03*
D65*
X179000000Y-70200000D03*
X179400000Y-70200000D03*
X179800000Y-70200000D03*
X180200000Y-70200000D03*
X180600000Y-70200000D03*
X181000000Y-70200000D03*
D66*
X181500000Y-69700000D03*
X181500000Y-69300000D03*
X181500000Y-68900000D03*
X181500000Y-68500000D03*
X181500000Y-68100000D03*
X181500000Y-67700000D03*
D65*
X181000000Y-67200000D03*
X180600000Y-67200000D03*
X180200000Y-67200000D03*
X179800000Y-67200000D03*
X179400000Y-67200000D03*
X179000000Y-67200000D03*
D66*
X178500000Y-67700000D03*
X178500000Y-68100000D03*
X178500000Y-68500000D03*
X178500000Y-68900000D03*
X178500000Y-69300000D03*
X178500000Y-69700000D03*
D19*
X183550000Y-67200000D03*
X182650000Y-67200000D03*
D29*
X160000000Y-82305000D03*
X160000000Y-67695000D03*
D24*
X165000000Y-86475000D03*
X165000000Y-85825000D03*
X165000000Y-85175000D03*
X165000000Y-84525000D03*
X161900000Y-84525000D03*
X161900000Y-85175000D03*
X161900000Y-85825000D03*
X161900000Y-86475000D03*
D25*
X163450000Y-86100000D03*
X163450000Y-84900000D03*
D19*
X175991107Y-85065147D03*
X176891107Y-85065147D03*
X175991107Y-86565147D03*
X176891107Y-86565147D03*
X184150000Y-81400000D03*
X183250000Y-81400000D03*
X181050000Y-81400000D03*
X181950000Y-81400000D03*
X182650000Y-68500000D03*
X183550000Y-68500000D03*
X183550000Y-69800000D03*
X182650000Y-69800000D03*
X170250000Y-86850000D03*
X170250000Y-85950000D03*
X172855047Y-88866527D03*
X171955047Y-88866527D03*
X182475000Y-72050000D03*
X181575000Y-72050000D03*
X169700000Y-69225000D03*
X169700000Y-70125000D03*
X171000000Y-70125000D03*
X171000000Y-69225000D03*
X181550000Y-73100000D03*
X182450000Y-73100000D03*
X166250000Y-85150000D03*
X166250000Y-86050000D03*
X183250000Y-80150000D03*
X184150000Y-80150000D03*
D34*
X172200000Y-92600000D03*
X173800000Y-92600000D03*
X177600000Y-92600000D03*
X176000000Y-92600000D03*
D19*
X174705047Y-86816527D03*
X174705047Y-85916527D03*
X177250000Y-91200000D03*
X176350000Y-91200000D03*
D67*
X171705047Y-85616527D03*
X171705047Y-87066527D03*
X172855047Y-87066527D03*
X172855047Y-85616527D03*
D53*
X168425000Y-61750000D03*
X168425000Y-63350000D03*
X175800000Y-61700000D03*
X175800000Y-63300000D03*
X174250000Y-61700000D03*
X174250000Y-63300000D03*
X172700000Y-61700000D03*
X172700000Y-63300000D03*
D19*
X171125000Y-61750000D03*
X170225000Y-61750000D03*
D22*
X188285000Y-69285000D03*
X191715000Y-69285000D03*
X188285000Y-70555000D03*
X191715000Y-70555000D03*
X188285000Y-71825000D03*
X191715000Y-71825000D03*
X188285000Y-73095000D03*
X191715000Y-73095000D03*
X188285000Y-74365000D03*
X191715000Y-74365000D03*
X188285000Y-75635000D03*
X191715000Y-75635000D03*
X188285000Y-76905000D03*
X191715000Y-76905000D03*
X188285000Y-78175000D03*
X191715000Y-78175000D03*
X188285000Y-79445000D03*
X191715000Y-79445000D03*
X188285000Y-80715000D03*
X191715000Y-80715000D03*
D53*
X161650000Y-113200000D03*
X161650000Y-114800000D03*
D68*
X185186500Y-131525000D03*
X185186500Y-132175000D03*
X185186500Y-132825000D03*
X185186500Y-133475000D03*
X183713500Y-133475000D03*
X183713500Y-132825000D03*
X183713500Y-132175000D03*
X183713500Y-131525000D03*
D23*
X188864230Y-136037164D03*
D15*
G36*
X188786532Y-135351899D02*
X189552576Y-135994687D01*
X188941928Y-136722429D01*
X188175884Y-136079641D01*
X188786532Y-135351899D01*
X188786532Y-135351899D01*
G37*
D23*
X187835770Y-137262836D03*
D15*
G36*
X187758072Y-136577571D02*
X188524116Y-137220359D01*
X187913468Y-137948101D01*
X187147424Y-137305313D01*
X187758072Y-136577571D01*
X187758072Y-136577571D01*
G37*
D68*
X170063500Y-114775000D03*
X170063500Y-115425000D03*
X170063500Y-116075000D03*
X170063500Y-116725000D03*
X171536500Y-116725000D03*
X171536500Y-116075000D03*
X171536500Y-115425000D03*
X171536500Y-114775000D03*
D19*
X170300000Y-125700000D03*
X169400000Y-125700000D03*
X167300000Y-125700000D03*
X168200000Y-125700000D03*
X175000000Y-121450000D03*
X175000000Y-120550000D03*
X182550000Y-128750000D03*
X182550000Y-129650000D03*
X175000000Y-117250000D03*
X175000000Y-116350000D03*
X182550000Y-131750000D03*
X182550000Y-130850000D03*
X175000000Y-118450000D03*
X175000000Y-119350000D03*
X182550000Y-127550000D03*
X182550000Y-126650000D03*
X175000000Y-114250000D03*
X175000000Y-115150000D03*
X164950000Y-114950000D03*
X164950000Y-114050000D03*
X166150000Y-114950000D03*
X166150000Y-114050000D03*
X182550000Y-132950000D03*
X182550000Y-133850000D03*
X168900000Y-120550000D03*
X168900000Y-119650000D03*
X181150000Y-116350000D03*
X181150000Y-117250000D03*
X168000000Y-116150000D03*
X168900000Y-116150000D03*
X181150000Y-119350000D03*
X181150000Y-118450000D03*
X168900000Y-118150000D03*
X168000000Y-118150000D03*
X181150000Y-115150000D03*
X181150000Y-114250000D03*
X168900000Y-114550000D03*
X168000000Y-114550000D03*
X171550000Y-112400000D03*
X170650000Y-112400000D03*
X173650000Y-112400000D03*
X172750000Y-112400000D03*
X181150000Y-121450000D03*
X181150000Y-120550000D03*
X165650000Y-110450000D03*
X164750000Y-110450000D03*
X169750000Y-142900000D03*
X170650000Y-142900000D03*
X179500000Y-140300000D03*
X178600000Y-140300000D03*
X178600000Y-141500000D03*
X179500000Y-141500000D03*
X179500000Y-142700000D03*
X178600000Y-142700000D03*
X180700000Y-128100000D03*
X180700000Y-127200000D03*
X163400000Y-112000000D03*
X164300000Y-112000000D03*
X168100000Y-140750000D03*
X168100000Y-141650000D03*
X178600000Y-139100000D03*
X179500000Y-139100000D03*
X172300000Y-140750000D03*
X172300000Y-141650000D03*
X168200000Y-126900000D03*
X167300000Y-126900000D03*
X175450000Y-140700000D03*
X174550000Y-140700000D03*
X180700000Y-130200000D03*
X180700000Y-129300000D03*
X184000000Y-111350000D03*
X184900000Y-111350000D03*
X165500000Y-112000000D03*
X166400000Y-112000000D03*
X164750000Y-138550000D03*
X164750000Y-139450000D03*
X175450000Y-141900000D03*
X174550000Y-141900000D03*
X166100000Y-136650000D03*
X166100000Y-137550000D03*
D34*
X188100000Y-112750000D03*
X186500000Y-112750000D03*
X175000000Y-112250000D03*
X176600000Y-112250000D03*
D23*
X182925046Y-141011905D03*
D15*
G36*
X183144233Y-140358007D02*
X183566851Y-141264315D01*
X182705859Y-141665803D01*
X182283241Y-140759495D01*
X183144233Y-140358007D01*
X183144233Y-140358007D01*
G37*
D23*
X181474954Y-141688095D03*
D15*
G36*
X181694141Y-141034197D02*
X182116759Y-141940505D01*
X181255767Y-142341993D01*
X180833149Y-141435685D01*
X181694141Y-141034197D01*
X181694141Y-141034197D01*
G37*
D23*
X184937164Y-139814230D03*
D15*
G36*
X184979641Y-139125884D02*
X185622429Y-139891928D01*
X184894687Y-140502576D01*
X184251899Y-139736532D01*
X184979641Y-139125884D01*
X184979641Y-139125884D01*
G37*
D23*
X186162836Y-138785770D03*
D15*
G36*
X186205313Y-138097424D02*
X186848101Y-138863468D01*
X186120359Y-139474116D01*
X185477571Y-138708072D01*
X186205313Y-138097424D01*
X186205313Y-138097424D01*
G37*
D68*
X183786500Y-118375000D03*
X183786500Y-119025000D03*
X183786500Y-119675000D03*
X183786500Y-120325000D03*
X182313500Y-120325000D03*
X182313500Y-119675000D03*
X182313500Y-119025000D03*
X182313500Y-118375000D03*
X176163500Y-118375000D03*
X176163500Y-119025000D03*
X176163500Y-119675000D03*
X176163500Y-120325000D03*
X177636500Y-120325000D03*
X177636500Y-119675000D03*
X177636500Y-119025000D03*
X177636500Y-118375000D03*
X171536500Y-118375000D03*
X171536500Y-119025000D03*
X171536500Y-119675000D03*
X171536500Y-120325000D03*
X170063500Y-120325000D03*
X170063500Y-119675000D03*
X170063500Y-119025000D03*
X170063500Y-118375000D03*
X185186500Y-127375000D03*
X185186500Y-128025000D03*
X185186500Y-128675000D03*
X185186500Y-129325000D03*
X183713500Y-129325000D03*
X183713500Y-128675000D03*
X183713500Y-128025000D03*
X183713500Y-127375000D03*
X177636500Y-114775000D03*
X177636500Y-115425000D03*
X177636500Y-116075000D03*
X177636500Y-116725000D03*
X176163500Y-116725000D03*
X176163500Y-116075000D03*
X176163500Y-115425000D03*
X176163500Y-114775000D03*
X182313500Y-114775000D03*
X182313500Y-115425000D03*
X182313500Y-116075000D03*
X182313500Y-116725000D03*
X183786500Y-116725000D03*
X183786500Y-116075000D03*
X183786500Y-115425000D03*
X183786500Y-114775000D03*
D69*
X161325000Y-137350000D03*
X161975000Y-137350000D03*
X162625000Y-137350000D03*
X163275000Y-137350000D03*
X163275000Y-134250000D03*
X162625000Y-134250000D03*
X161975000Y-134250000D03*
X161325000Y-134250000D03*
D25*
X161700000Y-135800000D03*
X162900000Y-135800000D03*
D16*
X169650000Y-138700000D03*
X170150000Y-138700000D03*
X170650000Y-138700000D03*
X171150000Y-138700000D03*
X171650000Y-138700000D03*
X172150000Y-138700000D03*
X172650000Y-138700000D03*
X173150000Y-138700000D03*
X173650000Y-138700000D03*
X174150000Y-138700000D03*
X174650000Y-138700000D03*
X175150000Y-138700000D03*
X175650000Y-138700000D03*
X176150000Y-138700000D03*
X176650000Y-138700000D03*
X177150000Y-138700000D03*
D17*
X179100000Y-136750000D03*
X179100000Y-136250000D03*
X179100000Y-135750000D03*
X179100000Y-135250000D03*
X179100000Y-134750000D03*
X179100000Y-134250000D03*
X179100000Y-133750000D03*
X179100000Y-133250000D03*
X179100000Y-132750000D03*
X179100000Y-132250000D03*
X179100000Y-131750000D03*
X179100000Y-131250000D03*
X179100000Y-130750000D03*
X179100000Y-130250000D03*
X179100000Y-129750000D03*
X179100000Y-129250000D03*
D16*
X177150000Y-127300000D03*
X176650000Y-127300000D03*
X176150000Y-127300000D03*
X175650000Y-127300000D03*
X175150000Y-127300000D03*
X174650000Y-127300000D03*
X174150000Y-127300000D03*
X173650000Y-127300000D03*
X173150000Y-127300000D03*
X172650000Y-127300000D03*
X172150000Y-127300000D03*
X171650000Y-127300000D03*
X171150000Y-127300000D03*
X170650000Y-127300000D03*
X170150000Y-127300000D03*
X169650000Y-127300000D03*
D17*
X167700000Y-129250000D03*
X167700000Y-129750000D03*
X167700000Y-130250000D03*
X167700000Y-130750000D03*
X167700000Y-131250000D03*
X167700000Y-131750000D03*
X167700000Y-132250000D03*
X167700000Y-132750000D03*
X167700000Y-133250000D03*
X167700000Y-133750000D03*
X167700000Y-134250000D03*
X167700000Y-134750000D03*
X167700000Y-135250000D03*
X167700000Y-135750000D03*
X167700000Y-136250000D03*
X167700000Y-136750000D03*
D57*
X168550000Y-109800000D03*
D55*
X169300000Y-111200000D03*
X168800000Y-111200000D03*
X168300000Y-111200000D03*
X167800000Y-111200000D03*
D56*
X167150000Y-110550000D03*
X167150000Y-110050000D03*
X167150000Y-109550000D03*
X167150000Y-109050000D03*
D55*
X167800000Y-108400000D03*
X168300000Y-108400000D03*
X168800000Y-108400000D03*
X169300000Y-108400000D03*
D56*
X169950000Y-109050000D03*
X169950000Y-109550000D03*
X169950000Y-110050000D03*
X169950000Y-110550000D03*
X180050000Y-109050000D03*
X180050000Y-109550000D03*
X180050000Y-110050000D03*
X180050000Y-110550000D03*
D55*
X180700000Y-111200000D03*
X181200000Y-111200000D03*
X181700000Y-111200000D03*
X182200000Y-111200000D03*
D56*
X182850000Y-110550000D03*
X182850000Y-110050000D03*
X182850000Y-109550000D03*
X182850000Y-109050000D03*
D55*
X182200000Y-108400000D03*
X181700000Y-108400000D03*
X181200000Y-108400000D03*
X180700000Y-108400000D03*
D57*
X181450000Y-109800000D03*
D29*
X190000000Y-117695000D03*
X190000000Y-132305000D03*
X160000000Y-132305000D03*
X160000000Y-117695000D03*
D70*
X181550000Y-135250000D03*
X184150000Y-135250000D03*
X184150000Y-137150000D03*
X181550000Y-137150000D03*
D22*
X191715000Y-130715000D03*
X188285000Y-130715000D03*
X191715000Y-129445000D03*
X188285000Y-129445000D03*
X191715000Y-128175000D03*
X188285000Y-128175000D03*
X191715000Y-126905000D03*
X188285000Y-126905000D03*
X191715000Y-125635000D03*
X188285000Y-125635000D03*
X191715000Y-124365000D03*
X188285000Y-124365000D03*
X191715000Y-123095000D03*
X188285000Y-123095000D03*
X191715000Y-121825000D03*
X188285000Y-121825000D03*
X191715000Y-120555000D03*
X188285000Y-120555000D03*
X191715000Y-119285000D03*
X188285000Y-119285000D03*
X158285000Y-119285000D03*
X161715000Y-119285000D03*
X158285000Y-120555000D03*
X161715000Y-120555000D03*
X158285000Y-121825000D03*
X161715000Y-121825000D03*
X158285000Y-123095000D03*
X161715000Y-123095000D03*
X158285000Y-124365000D03*
X161715000Y-124365000D03*
X158285000Y-125635000D03*
X161715000Y-125635000D03*
X158285000Y-126905000D03*
X161715000Y-126905000D03*
X158285000Y-128175000D03*
X161715000Y-128175000D03*
X158285000Y-129445000D03*
X161715000Y-129445000D03*
X158285000Y-130715000D03*
X161715000Y-130715000D03*
D48*
X173935000Y-109500000D03*
X171565000Y-109500000D03*
X178435000Y-109500000D03*
X176065000Y-109500000D03*
D71*
X170925000Y-140425000D03*
X169475000Y-140425000D03*
X169475000Y-141575000D03*
X170925000Y-141575000D03*
D42*
X125845000Y-133555000D03*
X125845000Y-132255000D03*
X125845000Y-130955000D03*
X125845000Y-129655000D03*
X125845000Y-128355000D03*
X124545000Y-133555000D03*
X124545000Y-132255000D03*
X124545000Y-130955000D03*
X124545000Y-129655000D03*
X124545000Y-128355000D03*
X123245000Y-133555000D03*
X123245000Y-132255000D03*
X123245000Y-130955000D03*
X123245000Y-129655000D03*
X123245000Y-128355000D03*
X121945000Y-133555000D03*
X121945000Y-132255000D03*
X121945000Y-130955000D03*
X121945000Y-129655000D03*
X121945000Y-128355000D03*
X120645000Y-133555000D03*
X120645000Y-132255000D03*
X120645000Y-130955000D03*
X120645000Y-129655000D03*
X120645000Y-128355000D03*
D43*
X119495000Y-126555000D03*
X119995000Y-126555000D03*
X120495000Y-126555000D03*
X120995000Y-126555000D03*
X121495000Y-126555000D03*
X121995000Y-126555000D03*
X122495000Y-126555000D03*
X122995000Y-126555000D03*
X123495000Y-126555000D03*
X123995000Y-126555000D03*
X124495000Y-126555000D03*
X124995000Y-126555000D03*
X125495000Y-126555000D03*
X125995000Y-126555000D03*
X126495000Y-126555000D03*
X126995000Y-126555000D03*
D44*
X127645000Y-127205000D03*
X127645000Y-127705000D03*
X127645000Y-128205000D03*
X127645000Y-128705000D03*
X127645000Y-129205000D03*
X127645000Y-129705000D03*
X127645000Y-130205000D03*
X127645000Y-130705000D03*
X127645000Y-131205000D03*
X127645000Y-131705000D03*
X127645000Y-132205000D03*
X127645000Y-132705000D03*
X127645000Y-133205000D03*
X127645000Y-133705000D03*
X127645000Y-134205000D03*
X127645000Y-134705000D03*
D43*
X126995000Y-135355000D03*
X126495000Y-135355000D03*
X125995000Y-135355000D03*
X125495000Y-135355000D03*
X124995000Y-135355000D03*
X124495000Y-135355000D03*
X123995000Y-135355000D03*
X123495000Y-135355000D03*
X122995000Y-135355000D03*
X122495000Y-135355000D03*
X121995000Y-135355000D03*
X121495000Y-135355000D03*
X120995000Y-135355000D03*
X120495000Y-135355000D03*
X119995000Y-135355000D03*
X119495000Y-135355000D03*
D44*
X118845000Y-134705000D03*
X118845000Y-134205000D03*
X118845000Y-133705000D03*
X118845000Y-133205000D03*
X118845000Y-132705000D03*
X118845000Y-132205000D03*
X118845000Y-131705000D03*
X118845000Y-131205000D03*
X118845000Y-130705000D03*
X118845000Y-130205000D03*
X118845000Y-129705000D03*
X118845000Y-129205000D03*
X118845000Y-128705000D03*
X118845000Y-128205000D03*
X118845000Y-127705000D03*
X118845000Y-127205000D03*
D19*
X132100000Y-128850000D03*
X131200000Y-128850000D03*
D72*
X115250000Y-117560000D03*
X115250000Y-115190000D03*
D49*
X122460000Y-111215000D03*
X122460000Y-107785000D03*
X123730000Y-111215000D03*
X123730000Y-107785000D03*
X125000000Y-111215000D03*
X125000000Y-107785000D03*
X126270000Y-111215000D03*
X126270000Y-107785000D03*
X127540000Y-111215000D03*
X127540000Y-107785000D03*
D29*
X140000000Y-132305000D03*
X140000000Y-117695000D03*
D22*
X138285000Y-119285000D03*
X141715000Y-119285000D03*
X138285000Y-120555000D03*
X141715000Y-120555000D03*
X138285000Y-121825000D03*
X141715000Y-121825000D03*
X138285000Y-123095000D03*
X141715000Y-123095000D03*
X138285000Y-124365000D03*
X141715000Y-124365000D03*
X138285000Y-125635000D03*
X141715000Y-125635000D03*
X138285000Y-126905000D03*
X141715000Y-126905000D03*
X138285000Y-128175000D03*
X141715000Y-128175000D03*
X138285000Y-129445000D03*
X141715000Y-129445000D03*
X138285000Y-130715000D03*
X141715000Y-130715000D03*
D29*
X110000000Y-132305000D03*
X110000000Y-117695000D03*
D22*
X108285000Y-119285000D03*
X111715000Y-119285000D03*
X108285000Y-120555000D03*
X111715000Y-120555000D03*
X108285000Y-121825000D03*
X111715000Y-121825000D03*
X108285000Y-123095000D03*
X111715000Y-123095000D03*
X108285000Y-124365000D03*
X111715000Y-124365000D03*
X108285000Y-125635000D03*
X111715000Y-125635000D03*
X108285000Y-126905000D03*
X111715000Y-126905000D03*
X108285000Y-128175000D03*
X111715000Y-128175000D03*
X108285000Y-129445000D03*
X111715000Y-129445000D03*
X108285000Y-130715000D03*
X111715000Y-130715000D03*
D29*
X129130000Y-109500000D03*
X120870000Y-109500000D03*
D19*
X117850000Y-131925000D03*
X117850000Y-132825000D03*
X125975000Y-125400000D03*
X125075000Y-125400000D03*
X117850000Y-134700000D03*
X117850000Y-133800000D03*
X128750000Y-131350000D03*
X128750000Y-132250000D03*
X123700000Y-136575000D03*
X123700000Y-137475000D03*
X128650000Y-134325000D03*
X129550000Y-134325000D03*
X121850000Y-137475000D03*
X121850000Y-136575000D03*
X129550000Y-135275000D03*
X128650000Y-135275000D03*
X120925000Y-137475000D03*
X120925000Y-136575000D03*
X122775000Y-137475000D03*
X122775000Y-136575000D03*
X124625000Y-137475000D03*
X124625000Y-136575000D03*
X134800000Y-129350000D03*
X135700000Y-129350000D03*
X134800000Y-124525000D03*
X135700000Y-124525000D03*
X134800000Y-119700000D03*
X135700000Y-119700000D03*
X134800000Y-114875000D03*
X135700000Y-114875000D03*
X135700000Y-130275000D03*
X134800000Y-130275000D03*
X135700000Y-125450000D03*
X134800000Y-125450000D03*
X135700000Y-120625000D03*
X134800000Y-120625000D03*
X135700000Y-115800000D03*
X134800000Y-115800000D03*
D50*
X134400000Y-132121000D03*
D51*
X134400000Y-132947500D03*
X134400000Y-131102500D03*
X135050000Y-132947500D03*
X135700000Y-132947500D03*
X135700000Y-131102500D03*
D52*
X135375000Y-132025000D03*
D51*
X135050000Y-131102500D03*
D53*
X133250000Y-132950000D03*
X133250000Y-131350000D03*
X133250000Y-128125000D03*
X133250000Y-126525000D03*
X133250000Y-121700000D03*
X133250000Y-123300000D03*
X133250000Y-116875000D03*
X133250000Y-118475000D03*
D50*
X134400000Y-127300000D03*
D51*
X134400000Y-128126500D03*
X134400000Y-126281500D03*
X135050000Y-128126500D03*
X135700000Y-128126500D03*
X135700000Y-126281500D03*
D52*
X135375000Y-127204000D03*
D51*
X135050000Y-126281500D03*
X135050000Y-121456500D03*
D52*
X135375000Y-122379000D03*
D51*
X135700000Y-121456500D03*
X135700000Y-123301500D03*
X135050000Y-123301500D03*
X134400000Y-121456500D03*
X134400000Y-123301500D03*
D50*
X134400000Y-122475000D03*
X134400000Y-117646000D03*
D51*
X134400000Y-118472500D03*
X134400000Y-116627500D03*
X135050000Y-118472500D03*
X135700000Y-118472500D03*
X135700000Y-116627500D03*
D52*
X135375000Y-117550000D03*
D51*
X135050000Y-116627500D03*
D58*
X122475000Y-114375000D03*
X122475000Y-116175000D03*
D19*
X121975000Y-117600000D03*
X122875000Y-117600000D03*
X122875000Y-118800000D03*
X121975000Y-118800000D03*
D73*
X115975000Y-113300000D03*
X117775000Y-113300000D03*
X115475000Y-139750000D03*
X117275000Y-139750000D03*
D19*
X114250000Y-140250000D03*
X114250000Y-139350000D03*
D74*
X111406802Y-138306802D03*
D15*
G36*
X111845208Y-138306802D02*
X111406802Y-138745208D01*
X110968396Y-138306802D01*
X111406802Y-137868396D01*
X111845208Y-138306802D01*
X111845208Y-138306802D01*
G37*
D74*
X112043198Y-138943198D03*
D15*
G36*
X112481604Y-138943198D02*
X112043198Y-139381604D01*
X111604792Y-138943198D01*
X112043198Y-138504792D01*
X112481604Y-138943198D01*
X112481604Y-138943198D01*
G37*
D73*
X117050000Y-137550000D03*
X118850000Y-137550000D03*
D57*
X119600000Y-117075000D03*
D55*
X118850000Y-115675000D03*
X119350000Y-115675000D03*
X119850000Y-115675000D03*
X120350000Y-115675000D03*
D56*
X121000000Y-116325000D03*
X121000000Y-116825000D03*
X121000000Y-117325000D03*
X121000000Y-117825000D03*
D55*
X120350000Y-118475000D03*
X119850000Y-118475000D03*
X119350000Y-118475000D03*
X118850000Y-118475000D03*
D56*
X118200000Y-117825000D03*
X118200000Y-117325000D03*
X118200000Y-116825000D03*
X118200000Y-116325000D03*
D55*
X114774307Y-135625693D03*
X114274307Y-135625693D03*
X113774307Y-135625693D03*
X113274307Y-135625693D03*
D56*
X112624307Y-136275693D03*
X112624307Y-136775693D03*
X112624307Y-137275693D03*
X112624307Y-137775693D03*
D55*
X113274307Y-138425693D03*
X113774307Y-138425693D03*
X114274307Y-138425693D03*
X114774307Y-138425693D03*
D56*
X115424307Y-137775693D03*
X115424307Y-137275693D03*
X115424307Y-136775693D03*
X115424307Y-136275693D03*
D57*
X114024307Y-137025693D03*
D75*
X115424307Y-134225693D03*
X113924307Y-134225693D03*
D19*
X120000000Y-137325000D03*
X120000000Y-136425000D03*
D45*
X132350000Y-129600000D03*
X132350000Y-130100000D03*
X132350000Y-130600000D03*
D47*
X131650000Y-130310000D03*
D46*
X131590000Y-129600000D03*
D45*
X130950000Y-129600000D03*
X130950000Y-130100000D03*
X130950000Y-130600000D03*
X132350000Y-124740000D03*
X132350000Y-125240000D03*
X132350000Y-125740000D03*
D47*
X131650000Y-125450000D03*
D46*
X131590000Y-124740000D03*
D45*
X130950000Y-124740000D03*
X130950000Y-125240000D03*
X130950000Y-125740000D03*
X130950000Y-120940000D03*
X130950000Y-120440000D03*
X130950000Y-119940000D03*
D46*
X131590000Y-119940000D03*
D47*
X131650000Y-120650000D03*
D45*
X132350000Y-120940000D03*
X132350000Y-120440000D03*
X132350000Y-119940000D03*
X130950000Y-116100000D03*
X130950000Y-115600000D03*
X130950000Y-115100000D03*
D46*
X131590000Y-115100000D03*
D47*
X131650000Y-115810000D03*
D45*
X132350000Y-116100000D03*
X132350000Y-115600000D03*
X132350000Y-115100000D03*
D19*
X131200000Y-124000000D03*
X132100000Y-124000000D03*
X132100000Y-119200000D03*
X131200000Y-119200000D03*
X131200000Y-114350000D03*
X132100000Y-114350000D03*
D59*
X125200000Y-116600000D03*
X126700000Y-115350000D03*
X131450000Y-111750000D03*
X137525000Y-115225000D03*
D73*
X135700000Y-135175000D03*
X137500000Y-135175000D03*
M02*
