M48
;DRILL file {KiCad no-vcs-found-d3b382c~59~ubuntu16.04.1} date Mon Jul 31 19:30:20 2017
;FORMAT={-:-/ absolute / inch / decimal}
FMAT,2
INCH,TZ
T1C0.047
%
G90
G05
M72
T1
X4.7587Y-4.311
X6.2992Y-2.6652
X7.4803Y-4.6337
X7.4803Y-5.2089
X2.3622Y-4.6337
X2.3622Y-5.2089
X6.2992Y-4.6337
X6.2992Y-5.2089
X5.5118Y-2.6652
X5.5118Y-3.2404
X4.439Y-3.2362
X3.5433Y-2.6652
X3.5433Y-3.2404
X5.2067Y-3.2362
X4.6358Y-2.6693
X2.3622Y-2.6652
X2.3622Y-3.2404
X4.6949Y-3.2362
X5.0839Y-4.311
X5.4035Y-2.6693
X6.2992Y-3.2404
X5.5118Y-4.6337
X5.5118Y-5.2089
X4.3307Y-2.6652
X4.3307Y-3.2404
X4.3307Y-4.6337
X4.3307Y-5.2089
X3.5433Y-4.6337
X3.5433Y-5.2089
X2.7902Y-4.311
X3.1154Y-4.311
X7.4803Y-2.6652
X7.4803Y-3.2404
X4.8917Y-2.6693
X4.9508Y-3.2362
X5.1476Y-2.6693
T0
M30
